<?xml version="1.0" encoding="UTF-8" standalone="no"?>
<!-- Created with Inkscape (http://www.inkscape.org/) -->

<svg
   xmlns:dc="http://purl.org/dc/elements/1.1/"
   xmlns:cc="http://creativecommons.org/ns#"
   xmlns:rdf="http://www.w3.org/1999/02/22-rdf-syntax-ns#"
   xmlns:svg="http://www.w3.org/2000/svg"
   xmlns="http://www.w3.org/2000/svg"
   xmlns:xlink="http://www.w3.org/1999/xlink"
   xmlns:inkscape="http://www.inkscape.org/namespaces/inkscape"
   version="1.1"
   width="16"
   height="16"
   id="svg5808">
  <defs
     id="defs5810">
    <linearGradient
       x1="223.51138"
       y1="1199.033"
       x2="223.51138"
       y2="1190.8972"
       id="linearGradient6807"
       xlink:href="#linearGradient6801"
       gradientUnits="userSpaceOnUse" />
    <linearGradient
       id="linearGradient6801">
      <stop
         id="stop6803"
         style="stop-color:#ffffff;stop-opacity:1"
         offset="0" />
      <stop
         id="stop6805"
         style="stop-color:#ffffff;stop-opacity:0"
         offset="1" />
    </linearGradient>
    <linearGradient
       x1="16.646177"
       y1="-33.686405"
       x2="1.0360155"
       y2="-33.686405"
       id="linearGradient6455"
       xlink:href="#linearGradient4222-8-1-7-8-1-5-9"
       gradientUnits="userSpaceOnUse"
       gradientTransform="matrix(0,-0.48414005,-0.46524241,0,-10.763163,10.845084)" />
    <linearGradient
       id="linearGradient4222-8-1-7-8-1-5-9">
      <stop
         id="stop4224-4-3-2-5-0-2-7"
         style="stop-color:#000000;stop-opacity:1"
         offset="0" />
      <stop
         id="stop4226-8-1-6-0-5-2-0"
         style="stop-color:#000000;stop-opacity:0"
         offset="1" />
    </linearGradient>
  </defs>
  <metadata
     id="metadata5813">
    <rdf:RDF>
      <cc:Work
         rdf:about="">
        <dc:format>image/svg+xml</dc:format>
        <dc:type
           rdf:resource="http://purl.org/dc/dcmitype/StillImage" />
      </cc:Work>
    </rdf:RDF>
  </metadata>
  <g
     id="layer1">
    <path
       d="M 8,2.375 C 7.6431714,2.9695308 7.3556241,3.6013719 7,4.3125 A 0.51111313,0.51111313 0 0 1 6.96875,4.34375 C 6.7584577,4.7087388 6.6527958,5.4490099 6,5.9375 A 0.51111313,0.51111313 0 0 1 5.8125,6.03125 c -1.0309295,0.268748 -2.0573325,0.3201345 -3,0.5 C 2.768519,6.550107 2.760184,6.548621 2.71875,6.5625 2.5038118,6.634496 2.3606965,6.64175 2.21875,6.65625 2.6598674,7.2329744 3.1856687,7.7728722 3.75,8.375 a 0.51111313,0.51111313 0 0 1 0.03125,0.03125 c 0.2778868,0.334762 0.892184,0.7015677 1.125,1.46875 a 0.51111313,0.51111313 0 0 1 0,0.1875 c -0.076612,1.147624 -0.3776259,2.204436 -0.5,3.21875 -0.022635,0.206969 -0.037207,0.370237 -0.0625,0.53125 0.6614851,-0.261003 1.3220197,-0.631973 2.03125,-1 a 0.51111313,0.51111313 0 0 1 0.03125,0 C 6.7872037,12.643971 7.3266764,12.15625 8.125,12.15625 a 0.51111313,0.51111313 0 0 1 0.1875,0.03125 c 0.9837616,0.415184 1.824346,0.972981 2.6875,1.40625 0.02778,0.01395 0.06593,0.01758 0.09375,0.03125 0.197363,0.0668 0.320602,0.147943 0.4375,0.21875 -0.02829,-0.741555 -0.134202,-1.493703 -0.25,-2.3125 a 0.51111313,0.51111313 0 0 1 0,-0.03125 c -0.03549,-0.429333 -0.372809,-1.096583 -0.125,-1.875 A 0.51111313,0.51111313 0 0 1 11.25,9.46875 C 11.927648,8.6244471 12.715323,7.9708875 13.375,7.25 13.400674,7.2065325 13.410692,7.1939871 13.4375,7.15625 13.575449,6.962061 13.734468,6.8562332 13.84375,6.75 13.157735,6.5441605 12.426012,6.4226698 11.625,6.28125 a 0.51111313,0.51111313 0 0 1 -0.03125,0 C 11.218993,6.1903974 10.495302,6.31454 9.84375,5.8125 A 0.51111313,0.51111313 0 0 1 9.71875,5.65625 C 9.1941147,4.7864191 8.8272612,3.8593986 8.40625,3.03125 8.3959619,3.0138631 8.3849888,3.0172441 8.375,3 8.206066,2.7083625 8.114923,2.5737471 8,2.375 z"
       inkscape:connector-curvature="0"
       id="path3780"
       style="opacity:0.05;color:#000000;fill:#000000;fill-opacity:1;fill-rule:nonzero;stroke:none;stroke-width:1;marker:none;visibility:visible;display:inline;overflow:visible;enable-background:accumulate" />
    <path
       d="m 225.0625,1181.5 c -0.44967,0.024 -0.64335,0.2119 -0.8125,0.375 a 0.99762831,0.99762831 0 0 0 -0.0937,0.125 c -0.76784,1.0112 -1.18389,2.105 -1.625,3 -0.009,0.018 -0.0222,0.044 -0.0312,0.062 -0.36564,0.652 -0.50316,1.0698 -0.59375,1.1875 -0.96228,0.2162 -2.02554,0.2992 -3.1875,0.5312 a 0.99762831,0.99762831 0 0 0 -0.21875,0.063 c 0.15221,-0.065 -0.25283,0.01 -0.6875,0.125 -0.21733,0.058 -0.4906,0.1342 -0.78125,0.4062 -0.29065,0.272 -0.44769,0.8379 -0.375,1.25 a 0.99762831,0.99762831 0 0 0 0.125,0.3438 c 0.67617,1.065 1.54389,1.7904 2.21875,2.5 0.0178,0.019 0.045,0.044 0.0625,0.062 0.48868,0.569 0.83202,0.8636 0.90625,1 -0.0983,1.0482 -0.35375,2.1315 -0.5,3.3438 a 0.99762831,0.99762831 0 0 0 0,0.031 c -0.012,0.1096 -0.0961,0.4695 -0.125,0.9376 -0.0144,0.234 -0.0448,0.5161 0.125,0.875 0.16985,0.3588 0.6532,0.7247 1.0625,0.7812 a 0.99762831,0.99762831 0 0 0 0.40625,-0.031 c 1.20081,-0.3497 2.14268,-1.0173 3,-1.4688 0.0179,-0.01 0.0446,-0.022 0.0625,-0.031 0.64814,-0.2952 1.00903,-0.4935 1.15625,-0.5313 0.90322,0.4163 1.79823,0.9861 2.84375,1.5 a 0.99762831,0.99762831 0 0 0 0.1875,0.062 c -0.18171,-0.046 0.18491,0.1327 0.59375,0.3125 0.20442,0.09 0.46474,0.1943 0.875,0.1563 0.41026,-0.038 0.91948,-0.4003 1.09375,-0.7813 a 0.99762831,0.99762831 0 0 0 0.0937,-0.375 c 0.0521,-1.2818 -0.22904,-2.3902 -0.375,-3.4063 -10e-4,-0.017 0.001,-0.014 0,-0.031 -0.0663,-0.7567 -0.17506,-1.1724 -0.15625,-1.375 0.66726,-0.7877 1.47577,-1.5406 2.28125,-2.4375 a 0.99762831,0.99762831 0 0 0 0.0937,-0.1563 c -0.0803,0.136 0.21618,-0.1569 0.5,-0.5 0.14191,-0.1715 0.32297,-0.3966 0.40625,-0.7812 0.0833,-0.3846 -0.10686,-0.9525 -0.40625,-1.25 a 0.99762831,0.99762831 0 0 0 -0.3125,-0.2188 c -1.16652,-0.4543 -2.27182,-0.4944 -3.21875,-0.6562 -0.0344,-0.01 -0.0293,0.01 -0.0625,0 -0.70674,-0.1638 -1.13529,-0.1921 -1.28125,-0.25 -0.45836,-0.8142 -0.84367,-1.7734 -1.34375,-2.75 a 0.99762831,0.99762831 0 0 0 -0.0312,-0.031 c -0.19103,-0.3229 -0.35467,-1.2186 -1.28125,-1.8126 a 0.99762831,0.99762831 0 0 0 -0.5938,-0.1558 z"
       inkscape:connector-curvature="0"
       transform="matrix(0.88366288,0,0,0.88184313,-190.93578,-1041.3961)"
       id="path6797"
       style="opacity:0.3;color:#000000;fill:none;stroke:url(#linearGradient6807);stroke-width:1.13282037;stroke-linecap:butt;stroke-linejoin:round;stroke-miterlimit:4;stroke-opacity:1;stroke-dasharray:none;stroke-dashoffset:0.06;marker:none;visibility:visible;display:inline;overflow:visible;enable-background:accumulate" />
    <path
       d="M 5.7140888,9.9252494 C 4.8329216,8.9285073 3.950142,8.0090125 3.0689749,7.0122706 4.3062063,6.7846039 5.259716,6.6543874 6.4969392,6.4267207 7.0730551,5.1823635 7.4790465,4.4485163 8.0551624,3.2042441 8.6312784,4.4485163 9.2237778,5.1487483 9.7998938,6.3930206 11.037117,6.6206873 11.764969,6.8099001 13.002192,7.0375668 12.121025,8.0343088 11.237277,8.901089 10.356109,9.8978309"
       inkscape:connector-curvature="0"
       id="path1309-6-5"
       style="opacity:0.1;color:#000000;fill:none;stroke:url(#linearGradient6455);stroke-width:0.98542726;stroke-linecap:butt;stroke-linejoin:miter;stroke-miterlimit:4;stroke-opacity:1;stroke-dasharray:none;stroke-dashoffset:0;marker:none;visibility:visible;display:inline;overflow:visible;enable-background:accumulate" />
    <path
       d="m 7.9997136,1.5 c 0.425776,0.2729115 0.588756,0.8417877 0.843985,1.2731249 0.443924,0.8670076 0.794662,1.7880081 1.2971034,2.6210425 0.434945,0.3351379 1.047561,0.276465 1.563774,0.4016108 0.90077,0.1590322 1.834889,0.2090386 2.696537,0.5445231 0.36731,0.3650375 -0.393188,0.8325144 -0.58131,1.1510123 -0.705185,0.7851948 -1.508289,1.4736702 -2.171119,2.2995114 -0.17059,0.535856 0.0722,1.126658 0.117816,1.678461 0.133574,0.944488 0.376774,1.888455 0.33773,2.848628 -0.218647,0.477877 -0.87906,-0.133639 -1.227007,-0.222212 -0.9324464,-0.45829 -1.8070864,-1.043806 -2.7634104,-1.44741 -0.540377,0 -1.00296,0.419897 -1.490964,0.635783 -0.818209,0.424577 -1.648562,0.958006 -2.534339,1.215925 -0.502442,-0.06933 -0.226117,-0.839361 -0.17702,-1.288291 0.128902,-1.06842 0.43798,-2.118727 0.509768,-3.194079 C 4.2578786,9.4792603 3.7292366,9.1504491 3.3819746,8.7321121 2.7427256,8.0500499 2.0150936,7.4357606 1.5066976,6.634966 1.4148206,6.1140161 2.2929956,6.2030222 2.6242936,6.0609765 3.6364146,5.8588711 4.6733146,5.7952582 5.6740046,5.5343933 6.1134126,5.205582 6.2492736,4.5785529 6.5226606,4.104056 6.9457926,3.2579351 7.2799076,2.3448211 7.8514766,1.5920394 7.8929036,1.5521734 7.9391066,1.5032934 7.9997136,1.5 z"
       inkscape:connector-curvature="0"
       id="path1307-90-6-2-8"
       style="color:#000000;fill:none;stroke:#000000;stroke-width:1;stroke-linecap:butt;stroke-linejoin:round;stroke-miterlimit:4;stroke-opacity:0.33526013;stroke-dasharray:none;stroke-dashoffset:0.06;marker:none;visibility:visible;display:inline;overflow:visible;enable-background:accumulate" />
  </g>
</svg>
