<?xml version="1.0" encoding="UTF-8" standalone="no"?>
<!-- Created with Inkscape (http://www.inkscape.org/) -->

<svg
   xmlns:dc="http://purl.org/dc/elements/1.1/"
   xmlns:cc="http://creativecommons.org/ns#"
   xmlns:rdf="http://www.w3.org/1999/02/22-rdf-syntax-ns#"
   xmlns:svg="http://www.w3.org/2000/svg"
   xmlns="http://www.w3.org/2000/svg"
   xmlns:xlink="http://www.w3.org/1999/xlink"
   xmlns:inkscape="http://www.inkscape.org/namespaces/inkscape"
   version="1.1"
   width="128"
   height="128"
   id="svg3172">
  <defs
     id="defs3174">
    <linearGradient
       x1="23.99999"
       y1="5.5641499"
       x2="23.99999"
       y2="43"
       id="linearGradient3093"
       xlink:href="#linearGradient3977"
       gradientUnits="userSpaceOnUse"
       gradientTransform="matrix(2.4594595,0,0,3.1081081,4.9729852,-78.594559)" />
    <linearGradient
       id="linearGradient3977">
      <stop
         id="stop3979"
         style="stop-color:#ffffff;stop-opacity:1"
         offset="0" />
      <stop
         id="stop3981"
         style="stop-color:#ffffff;stop-opacity:0.23529412"
         offset="0.03626217" />
      <stop
         id="stop3983"
         style="stop-color:#ffffff;stop-opacity:0.15686275"
         offset="0.95056331" />
      <stop
         id="stop3985"
         style="stop-color:#ffffff;stop-opacity:0.39215687"
         offset="1" />
    </linearGradient>
    <linearGradient
       x1="25.132275"
       y1="0.98520643"
       x2="25.132275"
       y2="47.013336"
       id="linearGradient3096"
       xlink:href="#linearGradient3600"
       gradientUnits="userSpaceOnUse"
       gradientTransform="matrix(2.6571409,0,0,2.5422194,0.228619,-68.91283)" />
    <linearGradient
       id="linearGradient3600">
      <stop
         id="stop3602"
         style="stop-color:#f4f4f4;stop-opacity:1"
         offset="0" />
      <stop
         id="stop3604"
         style="stop-color:#dbdbdb;stop-opacity:1"
         offset="1" />
    </linearGradient>
    <linearGradient
       x1="-51.786404"
       y1="50.786446"
       x2="-51.786404"
       y2="2.9062471"
       id="linearGradient3098"
       xlink:href="#linearGradient3104"
       gradientUnits="userSpaceOnUse"
       gradientTransform="matrix(2.1456328,0,0,2.3791386,158.08997,-71.746077)" />
    <linearGradient
       id="linearGradient3104">
      <stop
         id="stop3106"
         style="stop-color:#a0a0a0;stop-opacity:1"
         offset="0" />
      <stop
         id="stop3108-4"
         style="stop-color:#bebebe;stop-opacity:1"
         offset="1" />
    </linearGradient>
    <linearGradient
       x1="25.058096"
       y1="47.027729"
       x2="25.058096"
       y2="39.999443"
       id="linearGradient3120"
       xlink:href="#linearGradient3702-501-757-486"
       gradientUnits="userSpaceOnUse"
       gradientTransform="matrix(3.1428572,0,0,1.2857143,-11.428573,-2.428572)" />
    <linearGradient
       id="linearGradient3702-501-757-486">
      <stop
         id="stop3100"
         style="stop-color:#181818;stop-opacity:0"
         offset="0" />
      <stop
         id="stop3102"
         style="stop-color:#181818;stop-opacity:1"
         offset="0.5" />
      <stop
         id="stop3104"
         style="stop-color:#181818;stop-opacity:0"
         offset="1" />
    </linearGradient>
    <radialGradient
       cx="4.9929786"
       cy="43.5"
       r="2.5"
       fx="4.9929786"
       fy="43.5"
       id="radialGradient3123"
       xlink:href="#linearGradient3688-464-309-255"
       gradientUnits="userSpaceOnUse"
       gradientTransform="matrix(2.4045407,0,0,1.7999999,-32.014243,-131.8)" />
    <linearGradient
       id="linearGradient3688-464-309-255">
      <stop
         id="stop3094"
         style="stop-color:#181818;stop-opacity:1"
         offset="0" />
      <stop
         id="stop3096"
         style="stop-color:#181818;stop-opacity:0"
         offset="1" />
    </linearGradient>
    <linearGradient
       id="linearGradient3688-166-749-737">
      <stop
         id="stop3088"
         style="stop-color:#181818;stop-opacity:1"
         offset="0" />
      <stop
         id="stop3090"
         style="stop-color:#181818;stop-opacity:0"
         offset="1" />
    </linearGradient>
    <radialGradient
       cx="4.9929786"
       cy="43.5"
       r="2.5"
       fx="4.9929786"
       fy="43.5"
       id="radialGradient3170"
       xlink:href="#linearGradient3688-166-749-737"
       gradientUnits="userSpaceOnUse"
       gradientTransform="matrix(2.4045407,0,0,1.7999999,95.985757,-24.799999)" />
    <linearGradient
       x1="64.230865"
       y1="-28.825758"
       x2="64.230865"
       y2="15.085211"
       id="linearGradient4125"
       xlink:href="#linearGradient4113"
       gradientUnits="userSpaceOnUse"
       gradientTransform="matrix(1,0,0,-1,0,0.031954)" />
    <linearGradient
       id="linearGradient4113">
      <stop
         id="stop4115"
         style="stop-color:#000000;stop-opacity:1"
         offset="0" />
      <stop
         id="stop4117"
         style="stop-color:#000000;stop-opacity:0"
         offset="1" />
    </linearGradient>
    <linearGradient
       x1="64.230865"
       y1="-28.825758"
       x2="64.230865"
       y2="34.457344"
       id="linearGradient4119"
       xlink:href="#linearGradient4113"
       gradientUnits="userSpaceOnUse"
       gradientTransform="translate(0,-6)" />
    <linearGradient
       x1="58.939362"
       y1="29.195827"
       x2="57.233608"
       y2="-34.21022"
       id="linearGradient4156"
       xlink:href="#linearGradient3104"
       gradientUnits="userSpaceOnUse" />
  </defs>
  <metadata
     id="metadata3177">
    <rdf:RDF>
      <cc:Work
         rdf:about="">
        <dc:format>image/svg+xml</dc:format>
        <dc:type
           rdf:resource="http://purl.org/dc/dcmitype/StillImage" />
        <dc:title />
      </cc:Work>
    </rdf:RDF>
  </metadata>
  <g
     transform="translate(0,64)"
     id="layer1">
    <rect
       width="6"
       height="8.999999"
       x="108"
       y="49"
       id="rect2801"
       style="opacity:0.4;fill:url(#radialGradient3170);fill-opacity:1;stroke:none" />
    <rect
       width="6"
       height="8.999999"
       x="-20"
       y="-58"
       transform="scale(-1,-1)"
       id="rect3696"
       style="opacity:0.4;fill:url(#radialGradient3123);fill-opacity:1;stroke:none" />
    <rect
       width="88"
       height="9"
       x="20"
       y="49"
       id="rect3700"
       style="opacity:0.4;fill:url(#linearGradient3120);fill-opacity:1;stroke:none" />
    <path
       d="m 17.499929,-62.499588 c 21.311061,0 93.000031,0.007 93.000031,0.007 l 1.1e-4,116.992628 c 0,0 -62.0001,0 -93.00014,0 0,-39.000029 0,-78.000054 0,-117.000079 z"
       inkscape:connector-curvature="0"
       id="path4160"
       style="fill:url(#linearGradient3096);fill-opacity:1;stroke:url(#linearGradient3098);stroke-width:0.99992186;stroke-linecap:butt;stroke-linejoin:round;stroke-miterlimit:4;stroke-opacity:1;stroke-dasharray:none;stroke-dashoffset:0;display:inline" />
    <path
       d="m 109.5,53.5 -91,0 0,-115.000003 91,0 z"
       inkscape:connector-curvature="0"
       id="rect6741-1"
       style="fill:none;stroke:url(#linearGradient3093);stroke-width:1;stroke-linecap:round;stroke-linejoin:round;stroke-miterlimit:4;stroke-opacity:1;stroke-dasharray:none;stroke-dashoffset:0" />
    <path
       d="m 60.000002,-33.999989 c -0.554,0 -1,0.446 -1,1 l 0,7.53125 c -2.917284,0.61801 -5.610077,1.770601 -8.03125,3.34375 l -5.34375,-5.34375 c -0.195869,-0.195869 -0.463131,-0.28125 -0.71875,-0.28125 -0.255619,0 -0.522881,0.08538 -0.71875,0.28125 l -5.65625,5.65625 c -0.391737,0.391737 -0.391739,1.045762 0,1.4375 l 5.34375,5.343751 c -1.573149,2.421173 -2.72574,5.113966 -3.34375,8.03125 l -7.53125,0 c -0.554,0 -1,0.446 -1,1 l 0,8 c 0,0.554 0.446,1 1,1 l 7.53125,0 c 0.61801,2.917283 1.770601,5.610076 3.34375,8.031249 l -5.34375,5.34375 c -0.391737,0.391737 -0.391739,1.04576 0,1.4375 l 5.65625,5.65625 c 0.391737,0.391737 1.045761,0.391736 1.4375,0 l 5.34375,-5.34375 c 2.421173,1.573149 5.113966,2.72574 8.03125,3.34375 l 0,7.53125 c 0,0.554 0.446,1 1,1 l 8,0 c 0.554,0 1,-0.446 1,-1 l 0,-7.53125 c 2.917284,-0.61801 5.610077,-1.770601 8.03125,-3.34375 l 5.34375,5.34375 c 0.391737,0.391737 1.04576,0.391736 1.4375,0 l 5.65625,-5.65625 c 0.391737,-0.391737 0.391736,-1.045765 0,-1.4375 l -5.34375,-5.34375 c 1.573149,-2.421173 2.72574,-5.113966 3.34375,-8.031249 l 7.53125,0 c 0.554,0 1,-0.446 1,-1 l 0,-8 c 0,-0.554 -0.446,-1 -1,-1 l -7.53125,0 c -0.61801,-2.917284 -1.770601,-5.610077 -3.34375,-8.03125 l 5.34375,-5.343751 c 0.391737,-0.391737 0.391735,-1.045762 0,-1.4375 l -5.65625,-5.65625 c -0.391737,-0.391737 -1.045765,-0.391738 -1.4375,0 l -5.34375,5.34375 c -2.421173,-1.573149 -5.113966,-2.72574 -8.03125,-3.34375 l 0,-7.53125 c 0,-0.554 -0.446,-1 -1,-1 l -8,0 z m 4,21.000001 c 6.072,0 11,4.928 11,11 0,6.072 -4.928,10.999999 -11,10.999999 -6.072,0 -11,-4.927999 -11,-10.999999 0,-6.072 4.928,-11 11,-11 z"
       inkscape:connector-curvature="0"
       id="path2502"
       style="opacity:0.6;fill:#ffffff;fill-opacity:1;fill-rule:nonzero;stroke:none;stroke-width:1.70000005;marker:none;visibility:visible;display:inline;overflow:visible;enable-background:accumulate" />
    <path
       d="m 60.000002,-34.999989 c -0.554,0 -1,0.446 -1,1 l 0,7.53125 c -2.917284,0.61801 -5.610077,1.770601 -8.03125,3.34375 l -5.34375,-5.34375 c -0.195869,-0.195869 -0.463131,-0.28125 -0.71875,-0.28125 -0.255619,0 -0.522881,0.08538 -0.71875,0.28125 l -5.65625,5.65625 c -0.391737,0.391737 -0.391739,1.045762 0,1.4375 l 5.34375,5.34375 c -1.573149,2.421174 -2.72574,5.113967 -3.34375,8.031251 l -7.53125,0 c -0.554,0 -1,0.446 -1,1 l 0,8 c 0,0.554 0.446,1 1,1 l 7.53125,0 c 0.61801,2.917283 1.770601,5.610076 3.34375,8.031249 l -5.34375,5.34375 c -0.391737,0.391737 -0.391739,1.04576 0,1.4375 l 5.65625,5.65625 c 0.391737,0.391737 1.045761,0.391736 1.4375,0 l 5.34375,-5.34375 c 2.421173,1.573149 5.113966,2.72574 8.03125,3.34375 l 0,7.53125 c 0,0.554 0.446,1 1,1 l 8,0 c 0.554,0 1,-0.446 1,-1 l 0,-7.53125 c 2.917284,-0.61801 5.610077,-1.770601 8.03125,-3.34375 l 5.34375,5.34375 c 0.391737,0.391737 1.04576,0.391736 1.4375,0 l 5.65625,-5.65625 c 0.391737,-0.391737 0.391736,-1.045765 0,-1.4375 l -5.34375,-5.34375 c 1.573149,-2.421173 2.72574,-5.113966 3.34375,-8.031249 l 7.53125,0 c 0.554,0 1,-0.446 1,-1 l 0,-8 c 0,-0.554 -0.446,-1 -1,-1 l -7.53125,0 c -0.61801,-2.917284 -1.770601,-5.610077 -3.34375,-8.031251 l 5.34375,-5.34375 c 0.391737,-0.391737 0.391735,-1.045762 0,-1.4375 l -5.65625,-5.65625 c -0.391737,-0.391737 -1.045765,-0.391738 -1.4375,0 l -5.34375,5.34375 c -2.421173,-1.573149 -5.113966,-2.72574 -8.03125,-3.34375 l 0,-7.53125 c 0,-0.554 -0.446,-1 -1,-1 l -8,0 z m 4,21.000001 c 6.072,0 11,4.928 11,11 0,6.072 -4.928,10.999999 -11,10.999999 -6.072,0 -11,-4.927999 -11,-10.999999 0,-6.072 4.928,-11 11,-11 z"
       inkscape:connector-curvature="0"
       id="rect2484"
       style="fill:url(#linearGradient4156);fill-opacity:1;fill-rule:nonzero;stroke:none;stroke-width:1.70000005;marker:none;visibility:visible;display:inline;overflow:visible;enable-background:accumulate" />
    <path
       d="m 60,-34.3125 c -0.677935,0.806584 -0.140943,2.289468 -0.3125,3.371798 -0.08975,1.61171 0.171944,3.294613 -0.115803,4.867286 -1.80939,0.957711 -4.148544,1.062037 -5.943144,2.231518 -1.065602,0.144568 -2.057423,1.955076 -3.159803,1.216898 -1.870564,-1.78828 -3.607974,-3.773234 -5.5625,-5.4375 -2.058736,1.768369 -3.900237,3.857601 -5.875,5.75 0.102606,1.053427 1.518435,1.714583 2.16325,2.60075 1.080466,1.210011 2.467521,2.218408 3.374358,3.543981 -0.608901,1.943968 -2.181954,3.653378 -2.638639,5.731866 -0.668492,0.858105 -0.07951,2.875736 -1.398969,3.123403 -2.5794,0.05886 -5.203843,-0.117947 -7.754987,0.08876 -0.206156,2.707499 -0.0303,5.488009 -0.08876,8.223736 0.806584,0.677935 2.289468,0.140943 3.371798,0.3125 1.61171,0.08975 3.294613,-0.171944 4.867286,0.115803 0.957711,1.80939 1.062037,4.148544 2.231518,5.943144 0.144568,1.065602 1.955076,2.057423 1.216898,3.159803 -1.785051,1.871074 -3.777665,3.604917 -5.431869,5.562499 1.758303,2.061794 3.855201,3.899728 5.744369,5.875001 1.053427,-0.102606 1.714583,-1.518435 2.60075,-2.16325 1.210011,-1.080466 2.218408,-2.467521 3.543981,-3.374358 1.943968,0.608901 3.653378,2.181954 5.731866,2.638639 0.858105,0.668492 2.875736,0.07951 3.123403,1.398969 0.05886,2.5794 -0.117947,5.203843 0.08876,7.754987 2.7075,0.206156 5.48801,0.0303 8.223737,0.08876 0.677935,-0.806584 0.140943,-2.289468 0.3125,-3.371798 0.08975,-1.61171 -0.171944,-3.294613 0.115803,-4.867286 1.80939,-0.957711 4.148544,-1.062037 5.943144,-2.231518 1.065602,-0.144568 2.057423,-1.955076 3.159803,-1.216898 1.871073,1.78505 3.604916,3.777665 5.562499,5.431869 2.061794,-1.758302 3.899727,-3.855202 5.875001,-5.744369 -0.102609,-1.05343 -1.518435,-1.714583 -2.16325,-2.60075 -1.080466,-1.210011 -2.467521,-2.218408 -3.374358,-3.543981 0.608901,-1.943968 2.181954,-3.653378 2.638639,-5.731866 0.668492,-0.858105 0.07951,-2.875736 1.398969,-3.123403 2.5794,-0.05886 5.203843,0.117947 7.754987,-0.08876 0.206156,-2.707496 0.0303,-5.488006 0.08876,-8.223733 -0.806584,-0.677935 -2.289468,-0.140943 -3.371798,-0.3125 -1.61171,-0.08975 -3.294613,0.171944 -4.867286,-0.115803 -0.957711,-1.80939 -1.062037,-4.148544 -2.231518,-5.943144 -0.144565,-1.065601 -1.955073,-2.057423 -1.216895,-3.159803 1.785049,-1.871074 3.777667,-3.604915 5.431867,-5.562499 -1.758299,-2.061795 -3.855201,-3.899727 -5.744367,-5.875001 -1.05343,0.102609 -1.714583,1.518435 -2.60075,2.16325 -1.210011,1.080466 -2.218408,2.467521 -3.543981,3.374358 -1.943968,-0.608901 -3.653378,-2.181954 -5.731866,-2.638639 -0.858105,-0.668492 -2.875736,-0.07951 -3.123403,-1.398969 -0.05886,-2.5794 0.117947,-5.203843 -0.08876,-7.754987 C 65.523958,-34.4298 62.728435,-34.254087 60,-34.312497 z"
       inkscape:connector-curvature="0"
       id="path4123"
       style="opacity:0.1;fill:none;stroke:url(#linearGradient4119);stroke-width:1;stroke-miterlimit:4;stroke-opacity:1;stroke-dasharray:none;marker:none;visibility:visible;display:inline;overflow:visible;enable-background:accumulate" />
    <path
       d="M 64,8.719454 C 70.90718,8.939715 76.822128,2.048783 75.552696,-4.746608 74.727538,-11.370638 67.498552,-16.147689 61.081031,-14.287237 54.578165,-12.804703 50.541724,-5.152045 53.02234,1.048204 54.62178,5.56752 59.199227,8.786665 64,8.719454 z"
       inkscape:connector-curvature="0"
       id="path4110"
       style="opacity:0.1;fill:none;stroke:url(#linearGradient4125);stroke-width:1;stroke-miterlimit:4;stroke-opacity:1;stroke-dasharray:none;marker:none;visibility:visible;display:inline;overflow:visible;enable-background:accumulate" />
  </g>
</svg>
