<?xml version="1.0" encoding="UTF-8" standalone="no"?>
<!-- Created with Inkscape (http://www.inkscape.org/) -->

<svg
   xmlns:dc="http://purl.org/dc/elements/1.1/"
   xmlns:cc="http://creativecommons.org/ns#"
   xmlns:rdf="http://www.w3.org/1999/02/22-rdf-syntax-ns#"
   xmlns:svg="http://www.w3.org/2000/svg"
   xmlns="http://www.w3.org/2000/svg"
   xmlns:xlink="http://www.w3.org/1999/xlink"
   xmlns:sodipodi="http://sodipodi.sourceforge.net/DTD/sodipodi-0.dtd"
   xmlns:inkscape="http://www.inkscape.org/namespaces/inkscape"
   version="1.1"
   width="128"
   height="128"
   id="svg3172"
   inkscape:version="0.48.4 r9939"
   sodipodi:docname="application-pdf.svg">
  <sodipodi:namedview
     pagecolor="#ffffff"
     bordercolor="#666666"
     borderopacity="1"
     objecttolerance="10"
     gridtolerance="10"
     guidetolerance="10"
     inkscape:pageopacity="0"
     inkscape:pageshadow="2"
     inkscape:window-width="1440"
     inkscape:window-height="845"
     id="namedview34"
     showgrid="false"
     inkscape:zoom="1"
     inkscape:cx="64.066319"
     inkscape:cy="97.935771"
     inkscape:window-x="0"
     inkscape:window-y="30"
     inkscape:window-maximized="1"
     inkscape:current-layer="svg3172">
    <inkscape:grid
       type="xygrid"
       id="grid3968" />
  </sodipodi:namedview>
  <defs
     id="defs3174">
    <linearGradient
       id="linearGradient3977">
      <stop
         id="stop3979"
         style="stop-color:#ffffff;stop-opacity:1"
         offset="0" />
      <stop
         id="stop3981"
         style="stop-color:#ffffff;stop-opacity:0.23529412"
         offset="0.00648027" />
      <stop
         id="stop3983"
         style="stop-color:#ffffff;stop-opacity:0.15686275"
         offset="0.99423188" />
      <stop
         id="stop3985"
         style="stop-color:#ffffff;stop-opacity:0.39215687"
         offset="1" />
    </linearGradient>
    <linearGradient
       id="linearGradient3702-501-757-486">
      <stop
         id="stop3100"
         style="stop-color:#181818;stop-opacity:0"
         offset="0" />
      <stop
         id="stop3102"
         style="stop-color:#181818;stop-opacity:1"
         offset="0.5" />
      <stop
         id="stop3104"
         style="stop-color:#181818;stop-opacity:0"
         offset="1" />
    </linearGradient>
    <linearGradient
       id="linearGradient3688-464-309-255">
      <stop
         id="stop3094"
         style="stop-color:#181818;stop-opacity:1"
         offset="0" />
      <stop
         id="stop3096"
         style="stop-color:#181818;stop-opacity:0"
         offset="1" />
    </linearGradient>
    <linearGradient
       id="linearGradient3688-166-749-737">
      <stop
         id="stop3088"
         style="stop-color:#181818;stop-opacity:1"
         offset="0" />
      <stop
         id="stop3090"
         style="stop-color:#181818;stop-opacity:0"
         offset="1" />
    </linearGradient>
    <linearGradient
       x1="23.99999"
       y1="5.5641499"
       x2="23.99999"
       y2="42.194839"
       id="linearGradient3016"
       xlink:href="#linearGradient3977"
       gradientUnits="userSpaceOnUse"
       gradientTransform="matrix(2.4594595,0,0,3.1081081,4.9729852,-14.594559)" />
    <linearGradient
       x1="25.058096"
       y1="47.027729"
       x2="25.058096"
       y2="39.999443"
       id="linearGradient3024"
       xlink:href="#linearGradient3702-501-757-486"
       gradientUnits="userSpaceOnUse"
       gradientTransform="matrix(3.1428572,0,0,1.2857143,-11.428573,61.571428)" />
    <radialGradient
       cx="4.9929786"
       cy="43.5"
       r="2.5"
       fx="4.9929786"
       fy="43.5"
       id="radialGradient3027"
       xlink:href="#linearGradient3688-464-309-255"
       gradientUnits="userSpaceOnUse"
       gradientTransform="matrix(2.4045407,0,0,1.7999999,-32.014243,-195.8)" />
    <radialGradient
       cx="4.9929786"
       cy="43.5"
       r="2.5"
       fx="4.9929786"
       fy="43.5"
       id="radialGradient3030"
       xlink:href="#linearGradient3688-166-749-737"
       gradientUnits="userSpaceOnUse"
       gradientTransform="matrix(2.4045407,0,0,1.7999999,95.985757,39.200001)" />
    <linearGradient
       id="linearGradient3242-4">
      <stop
         id="stop3244-7"
         style="stop-color:#f89b7e;stop-opacity:1"
         offset="0" />
      <stop
         id="stop3246-1"
         style="stop-color:#e35d4f;stop-opacity:1"
         offset="0.26238" />
      <stop
         id="stop3248-5"
         style="stop-color:#c6262e;stop-opacity:1"
         offset="0.66093999" />
      <stop
         id="stop3250-7"
         style="stop-color:#690b2c;stop-opacity:1"
         offset="1" />
    </linearGradient>
    <linearGradient
       id="linearGradient5803-2-7">
      <stop
         id="stop5805-3-6"
         style="stop-color:#fffdf3;stop-opacity:1"
         offset="0" />
      <stop
         id="stop5807-0-0"
         style="stop-color:#fbebeb;stop-opacity:1"
         offset="1" />
    </linearGradient>
    <linearGradient
       inkscape:collect="always"
       xlink:href="#linearGradient5803-2-7"
       id="linearGradient3892"
       gradientUnits="userSpaceOnUse"
       gradientTransform="matrix(2.1514141,0,0,2.151414,-129.5392,-8.7570692)"
       x1="167.98311"
       y1="8.50811"
       x2="167.98311"
       y2="54.780239" />
    <radialGradient
       inkscape:collect="always"
       xlink:href="#linearGradient3242-4"
       id="radialGradient3897"
       gradientUnits="userSpaceOnUse"
       gradientTransform="matrix(0,20.003199,-24.504002,0,309.11226,-193.38737)"
       cx="8.276144"
       cy="9.9941158"
       fx="8.276144"
       fy="9.9941158"
       r="12.671875" />
  </defs>
  <metadata
     id="metadata3177">
    <rdf:RDF>
      <cc:Work
         rdf:about="">
        <dc:format>image/svg+xml</dc:format>
        <dc:type
           rdf:resource="http://purl.org/dc/dcmitype/StillImage" />
        <dc:title></dc:title>
      </cc:Work>
    </rdf:RDF>
  </metadata>
  <rect
     width="6"
     height="8.999999"
     x="108"
     y="113"
     id="rect2801"
     style="opacity:0.4;fill:url(#radialGradient3030);fill-opacity:1;stroke:none" />
  <rect
     width="6"
     height="8.999999"
     x="-20"
     y="-122"
     transform="scale(-1,-1)"
     id="rect3696"
     style="opacity:0.4;fill:url(#radialGradient3027);fill-opacity:1;stroke:none" />
  <rect
     width="88"
     height="9"
     x="20"
     y="113"
     id="rect3700"
     style="opacity:0.4;fill:url(#linearGradient3024);fill-opacity:1;stroke:none" />
  <path
     inkscape:connector-curvature="0"
     style="color:#000000;fill:url(#radialGradient3897);fill-opacity:1;fill-rule:nonzero;stroke:none;stroke-width:0.99999994;marker:none;visibility:visible;display:inline;overflow:visible;enable-background:accumulate"
     id="path4160-6"
     d="m 17.50007,1.5002015 c 21.31099,0 92.99974,0.0081 92.99974,0.0081 l 1.1e-4,116.9914984 c 0,0 -61.99989,0 -92.99985,0 0,-38.999899 0,-77.999189 0,-116.9989215 z" />
  <path
     style="opacity:0.14999999999999999;color:#000000;fill:#661215;fill-opacity:1;fill-rule:evenodd;stroke:none;stroke-width:1;marker:none;visibility:visible;display:inline;overflow:visible;enable-background:accumulate"
     d="M 75.5625 2.03125 A 0.98324003 0.98324003 0 0 0 75.125 2.25 C 48.299767 25.267517 29.356352 34.778601 17.6875 38.6875 A 0.98324003 0.98324003 0 0 0 17.5 38.78125 L 17.5 52.6875 A 0.98324003 0.98324003 0 0 0 18.28125 52.8125 C 24.920984 50.857341 33.15547 47.644728 41.71875 42.28125 C 59.312153 31.261863 77.531089 13.572945 81.65625 9.53125 C 79.14807 17.014123 77.489857 29.184439 76.40625 45.71875 C 75.132151 65.1597 74.660047 90.11717 74.59375 118.5 L 110.5 118.5 L 110.5 72.5625 C 109.18598 66.578932 107.97744 60.561392 106.90625 54.75 C 106.90348 54.728956 106.90901 54.70854 106.90625 54.6875 C 103.77689 30.841491 108.40573 9.9629389 110.125 3.25 A 0.98324003 0.98324003 0 0 0 109.1875 2.03125 C 108.73045 2.0311989 88.858519 2.03256 75.75 2.03125 A 0.98324003 0.98324003 0 0 0 75.5625 2.03125 z M 18 65.6875 A 0.98324003 0.98324003 0 0 0 17.8125 65.71875 A 0.98324003 0.98324003 0 0 0 17.5 65.84375 L 17.5 79.34375 A 0.98324003 0.98324003 0 0 0 17.625 79.40625 C 32.077352 85.371662 49.058722 100.78652 58.5625 118.5 L 71.0625 118.5 C 68.610107 109.75098 60.143329 99.300578 50 89.625 C 39.761468 79.858609 27.800792 70.947897 18.46875 65.8125 A 0.98324003 0.98324003 0 0 0 18 65.6875 z "
     id="path3970" />
  <path
     style="color:#000000;fill:#661215;fill-opacity:1;fill-rule:evenodd;stroke:none;marker:none;visibility:visible;display:inline;overflow:visible;enable-background:accumulate;opacity:0.29999999999999999;stroke-width:1"
     d="M 75.75 3 C 48.852928 26.079159 29.82062 35.665261 18 39.625 L 18 51.875 C 24.569499 49.940523 32.713932 46.744788 41.1875 41.4375 C 60.682657 29.226976 83.9375 6.0625 83.9375 6.0625 C 77.564731 18.563069 75.696093 61.582894 75.5625 118.5 L 110 118.5 L 110 74.9375 C 108.48949 68.213746 107.14164 61.410754 105.9375 54.875 C 102.76557 30.804872 107.45098 9.7803104 109.1875 3 C 108.73565 2.9999495 88.858686 3.00131 75.75 3 z M 18 66.6875 L 18 78.5 C 32.870898 84.638172 50.082368 100.38035 59.65625 118.5 L 70.03125 118.5 C 65.088123 101.69191 36.261871 76.736957 18 66.6875 z "
     id="path6711-4" />
  <path
     inkscape:connector-curvature="0"
     style="color:#000000;fill:url(#linearGradient3892);fill-opacity:1;fill-rule:nonzero;stroke:none;marker:none;visibility:visible;display:inline;overflow:visible;enable-background:accumulate"
     d="M 75.749995,2.0000014 C 48.852923,25.07916 29.82062,34.665262 18,38.625001 l 0,12.250001 C 24.569499,48.940525 32.713935,45.74479 41.187503,40.437502 60.68266,28.226978 83.9375,5.0625011 83.9375,5.0625011 77.545479,17.600835 75.686015,60.826777 75.562501,118 L 110,118 110,73.937502 c -1.51051,-6.723754 -2.85837,-13.526746 -4.06251,-20.0625 -3.17193,-24.070128 1.51349,-45.0946902 3.25001,-51.8750006 -0.45185,-5.05e-5 -20.328819,0.00131 -33.437505,0 z M 18,65.687502 l 0,11.8125 C 33.009298,83.695301 50.419177,99.667559 59.937501,118 L 70.1875,118 C 65.676635,101.19076 36.442618,75.836423 18,65.687502 z"
     id="path6711" />
  <path
     inkscape:connector-curvature="0"
     style="opacity:0.05;fill:#000000;fill-opacity:1;fill-rule:evenodd;stroke:none"
     d="M 110,3 C 95.399947,11.822582 53.75884,35.098466 18,37.19425 l 0,27.33044 c 20.876999,2.096833 64.873436,4.690049 92,-6.863809 L 110,3 z m 0,71.383616 C 98.749557,87.395617 88.089596,102.53332 80.312498,118 l 12.249999,0 C 97.719194,109.30275 103.80788,100.06228 110,91.979926 l 0,-17.59631 z"
     id="path6713" />
  <path
     d="m 109.5,117.5 -91,0 0,-115.000003 91,0 z"
     inkscape:connector-curvature="0"
     id="rect6741-1"
     style="fill:none;stroke:url(#linearGradient3016);stroke-width:1;stroke-linecap:round;stroke-linejoin:round;stroke-miterlimit:4;stroke-opacity:1;stroke-dasharray:none;stroke-dashoffset:0;opacity:0.5" />
  <path
     inkscape:connector-curvature="0"
     style="opacity:0.35;color:#000000;fill:none;stroke:#410000;stroke-width:1;stroke-linecap:round;stroke-linejoin:round;stroke-miterlimit:4;stroke-opacity:1;stroke-dasharray:none;stroke-dashoffset:0;marker:none;visibility:visible;display:inline;overflow:visible;enable-background:accumulate"
     id="path4160-6-1"
     d="m 17.5,1.5000252 c 21.31099,0 92.9999,0.0079 92.9999,0.0079 L 110.49999,118.5 c 0,0 -62,0 -92.99999,0 0,-39.000124 0,-77.999847 0,-116.9995108 z" />
</svg>
