<?xml version="1.0" encoding="UTF-8" standalone="no"?>
<!-- Created with Inkscape (http://www.inkscape.org/) -->

<svg
   xmlns:dc="http://purl.org/dc/elements/1.1/"
   xmlns:cc="http://creativecommons.org/ns#"
   xmlns:rdf="http://www.w3.org/1999/02/22-rdf-syntax-ns#"
   xmlns:svg="http://www.w3.org/2000/svg"
   xmlns="http://www.w3.org/2000/svg"
   xmlns:xlink="http://www.w3.org/1999/xlink"
   xmlns:inkscape="http://www.inkscape.org/namespaces/inkscape"
   version="1.1"
   width="128"
   height="128"
   id="svg3945">
  <defs
     id="defs3947">
    <linearGradient
       x1="8.3773117"
       y1="5.6389141"
       x2="8.3773117"
       y2="42.349087"
       id="linearGradient3144"
       xlink:href="#linearGradient3977-6"
       gradientUnits="userSpaceOnUse"
       gradientTransform="matrix(2.3699578,0,0,3.108108,5.4652504,-78.594566)" />
    <linearGradient
       id="linearGradient3977-6">
      <stop
         id="stop3979-9"
         style="stop-color:#ffffff;stop-opacity:1"
         offset="0" />
      <stop
         id="stop3981-3"
         style="stop-color:#ffffff;stop-opacity:0.23529412"
         offset="0.0048102" />
      <stop
         id="stop3983-7"
         style="stop-color:#ffffff;stop-opacity:0.15686275"
         offset="0.99380541" />
      <stop
         id="stop3985-4"
         style="stop-color:#ffffff;stop-opacity:0.39215687"
         offset="1" />
    </linearGradient>
    <linearGradient
       x1="22.004084"
       y1="47.813133"
       x2="22.004084"
       y2="3.3638515"
       id="linearGradient3878"
       xlink:href="#linearGradient3104-4"
       gradientUnits="userSpaceOnUse"
       gradientTransform="matrix(2.7042255,0,0,2.7149968,5.3934785,-74.300158)" />
    <linearGradient
       id="linearGradient3104-4">
      <stop
         id="stop3106-7"
         style="stop-color:#aaaaaa;stop-opacity:1"
         offset="0" />
      <stop
         id="stop3108-6"
         style="stop-color:#c8c8c8;stop-opacity:1"
         offset="1" />
    </linearGradient>
    <radialGradient
       cx="7.8060555"
       cy="9.9571075"
       r="12.671875"
       fx="7.2758255"
       fy="9.9571075"
       id="radialGradient3150"
       xlink:href="#linearGradient2867-449-88-871-390-598-476-591-434-148-57-177-8"
       gradientUnits="userSpaceOnUse"
       gradientTransform="matrix(-4.3144324e-7,17.558819,-21.594996,-5.2706847e-7,279.1828,-223.61717)" />
    <linearGradient
       id="linearGradient2867-449-88-871-390-598-476-591-434-148-57-177-8">
      <stop
         id="stop3750-1"
         style="stop-color:#90dbec;stop-opacity:1"
         offset="0" />
      <stop
         id="stop3752-3"
         style="stop-color:#55c1ec;stop-opacity:1"
         offset="0.26238" />
      <stop
         id="stop3754-1"
         style="stop-color:#3689e6;stop-opacity:1"
         offset="0.704952" />
      <stop
         id="stop3756-1"
         style="stop-color:#2b63a0;stop-opacity:1"
         offset="1" />
    </linearGradient>
    <linearGradient
       x1="23.99999"
       y1="5.5641499"
       x2="23.99999"
       y2="42.194839"
       id="linearGradient3016"
       xlink:href="#linearGradient3977"
       gradientUnits="userSpaceOnUse"
       gradientTransform="matrix(2.4594595,0,0,3.1081081,4.9729852,-78.594559)" />
    <linearGradient
       id="linearGradient3977">
      <stop
         id="stop3979"
         style="stop-color:#ffffff;stop-opacity:1"
         offset="0" />
      <stop
         id="stop3981"
         style="stop-color:#ffffff;stop-opacity:0.23529412"
         offset="0.00648027" />
      <stop
         id="stop3983"
         style="stop-color:#ffffff;stop-opacity:0.15686275"
         offset="0.99423188" />
      <stop
         id="stop3985"
         style="stop-color:#ffffff;stop-opacity:0.39215687"
         offset="1" />
    </linearGradient>
    <linearGradient
       x1="25.132275"
       y1="0.98520643"
       x2="25.132275"
       y2="47.013336"
       id="linearGradient3019"
       xlink:href="#linearGradient3600"
       gradientUnits="userSpaceOnUse"
       gradientTransform="matrix(2.6571409,0,0,2.5422194,0.228619,-68.91283)" />
    <linearGradient
       id="linearGradient3600">
      <stop
         id="stop3602"
         style="stop-color:#f4f4f4;stop-opacity:1"
         offset="0" />
      <stop
         id="stop3604"
         style="stop-color:#dbdbdb;stop-opacity:1"
         offset="1" />
    </linearGradient>
    <linearGradient
       x1="25.058096"
       y1="47.027729"
       x2="25.058096"
       y2="39.999443"
       id="linearGradient3024"
       xlink:href="#linearGradient3702-501-757-486"
       gradientUnits="userSpaceOnUse"
       gradientTransform="matrix(3.1428572,0,0,1.2857143,-11.428573,-2.428572)" />
    <linearGradient
       id="linearGradient3702-501-757-486">
      <stop
         id="stop3100"
         style="stop-color:#181818;stop-opacity:0"
         offset="0" />
      <stop
         id="stop3102"
         style="stop-color:#181818;stop-opacity:1"
         offset="0.5" />
      <stop
         id="stop3104"
         style="stop-color:#181818;stop-opacity:0"
         offset="1" />
    </linearGradient>
    <radialGradient
       cx="4.9929786"
       cy="43.5"
       r="2.5"
       fx="4.9929786"
       fy="43.5"
       id="radialGradient3027"
       xlink:href="#linearGradient3688-464-309-255"
       gradientUnits="userSpaceOnUse"
       gradientTransform="matrix(2.4045407,0,0,1.7999999,-32.014243,-131.8)" />
    <linearGradient
       id="linearGradient3688-464-309-255">
      <stop
         id="stop3094"
         style="stop-color:#181818;stop-opacity:1"
         offset="0" />
      <stop
         id="stop3096"
         style="stop-color:#181818;stop-opacity:0"
         offset="1" />
    </linearGradient>
    <linearGradient
       id="linearGradient3688-166-749-737">
      <stop
         id="stop3088"
         style="stop-color:#181818;stop-opacity:1"
         offset="0" />
      <stop
         id="stop3090"
         style="stop-color:#181818;stop-opacity:0"
         offset="1" />
    </linearGradient>
    <radialGradient
       cx="4.9929786"
       cy="43.5"
       r="2.5"
       fx="4.9929786"
       fy="43.5"
       id="radialGradient3943"
       xlink:href="#linearGradient3688-166-749-737"
       gradientUnits="userSpaceOnUse"
       gradientTransform="matrix(2.4045407,0,0,1.7999999,95.985757,-24.799999)" />
  </defs>
  <metadata
     id="metadata3950">
    <rdf:RDF>
      <cc:Work
         rdf:about="">
        <dc:format>image/svg+xml</dc:format>
        <dc:type
           rdf:resource="http://purl.org/dc/dcmitype/StillImage" />
        <dc:title />
      </cc:Work>
    </rdf:RDF>
  </metadata>
  <g
     transform="translate(0,64)"
     id="layer1">
    <rect
       width="6"
       height="8.999999"
       x="108"
       y="49"
       id="rect2801"
       style="opacity:0.4;fill:url(#radialGradient3943);fill-opacity:1;stroke:none" />
    <rect
       width="6"
       height="8.999999"
       x="-20"
       y="-58"
       transform="scale(-1,-1)"
       id="rect3696"
       style="opacity:0.4;fill:url(#radialGradient3027);fill-opacity:1;stroke:none" />
    <rect
       width="88"
       height="9"
       x="20"
       y="49"
       id="rect3700"
       style="opacity:0.4;fill:url(#linearGradient3024);fill-opacity:1;stroke:none" />
    <path
       d="m 17.499929,-62.499588 c 21.311061,0 93.000031,0.007 93.000031,0.007 l 1.1e-4,116.992628 c 0,0 -62.0001,0 -93.00014,0 0,-39.000029 0,-78.000054 0,-117.000079 z"
       inkscape:connector-curvature="0"
       id="path4160"
       style="fill:url(#linearGradient3019);fill-opacity:1;stroke:none;display:inline" />
    <path
       d="m 109.5,53.5 -91,0 0,-115.000003 91,0 z"
       inkscape:connector-curvature="0"
       id="rect6741-1"
       style="fill:none;stroke:url(#linearGradient3016);stroke-width:1;stroke-linecap:round;stroke-linejoin:round;stroke-miterlimit:4;stroke-opacity:1;stroke-dasharray:none;stroke-dashoffset:0" />
    <path
       d="m 32.095498,54.50004 c -4.681714,0 -9.307501,0 -13.989241,0 -0.365697,0 -0.543005,-0.10522 -0.543005,-0.62692 0,-36.743543 0,-78.957192 0,-115.700727 l 0.158703,-0.475811 0.384302,-0.19646 0,0 c 4.872721,0 8.925548,0 13.798245,0"
       inkscape:connector-curvature="0"
       id="path4530"
       style="color:#000000;fill:url(#radialGradient3150);fill-opacity:1;fill-rule:nonzero;stroke:none;stroke-width:1;marker:none;visibility:visible;display:inline;overflow:visible;enable-background:accumulate" />
    <path
       d="m 40.5,-42.5 6.33803,0 z m 7.267607,0 5.915493,0 z m 6.845071,0 5.239436,0 z m 6.084507,0 2.28169,0 z m 3.211269,0 5.070422,0 z m 6.084506,0 13.352127,0 z m 14.197191,0 10.22536,0 z m -43.690151,6 9.887327,0 z m 10.985917,0 4.732394,0 z m 5.577466,0 2.366197,0 z m 3.295774,0 4.309861,0 z m 5.239438,0 4.394365,0 z m 5.239436,0 7.014093,0 z m 7.943656,0 9.126779,0 z m 9.971844,0 6.084511,0 z m 6.929577,0 1.521133,0 z M 40.5,-30.54242 l 8.3662,0 z m 9.211268,0 13.690143,0 z m 14.535214,0 6.676055,0 z m 7.521126,0 6.253514,0 z m 7.098599,0 5.323944,0 z m 6.16901,0 8.366192,0.08484 z M 40.5,-24.5 l 11.577466,0 z m 12.507044,0 12.507043,0 z m 13.352112,0 4.985919,0 z m 5.830987,0 11.746494,0 z m 12.50704,0 8.028178,0 z m 8.95776,0 3.211265,0 z m -53.154943,6 4.30986,0 z m 5.661973,0 15.971833,0 z M 40.5,-7.54242 l 8.3662,0 z m 9.211268,0 13.690143,0 z m 14.535214,0 6.676055,0 z m 7.521126,0 6.253514,0 z m 7.098599,0 5.323944,0 z m 6.16901,0 8.366192,0.08484 z M 40.5,-1.5 l 10.647889,0 z m 11.49296,0 11.408451,0 z m 12.253522,0 4.394366,0 z m 5.239438,0 10.732403,0 z m 11.577468,0 13.521119,0 z m 14.450702,0 4.98591,0 z M 40.5,4.5 l 11.577466,0 z m 12.507044,0 12.507043,0 z m 13.352112,0 4.985919,0 z m 5.830987,0 11.746494,0 z m 12.50704,0 8.028178,0 z m 8.95776,0 3.211265,0 z M 40.5,10.5 l 9.887327,0 z m 10.985917,0 4.732394,0 z m 5.577466,0 2.366197,0 z m 3.295774,0 4.309861,0 z m 5.239438,0 4.394365,0 z m 5.239436,0 7.014093,0 z m 7.943656,0 9.126779,0 z m 9.971844,0 6.084511,0 z m 6.929577,0 1.521133,0 z M 40.5,21.457575 l 8.3662,0 z m 9.211268,0 13.690143,0 z m 14.535214,0 6.676055,0 z m 7.521126,0 6.253514,0 z m 7.098599,0 5.323944,0 z m 6.16901,0 8.366192,0.08485 z M 40.5,27.5 l 9.887327,0 z m 10.985917,0 4.732394,0 z m 5.577466,0 2.366197,0 z m 3.295774,0 4.309861,0 z m 5.239438,0 4.394365,0 z m 5.239436,0 7.014093,0 z m 7.943656,0 9.126779,0 z m 9.971844,0 6.084511,0 z m 6.929577,0 1.521133,0 z M 40.5,33.5 l 10.478874,0 z m 11.408451,0 3.295777,0 z m 4.140847,0 7.521126,0 z m 8.366197,0 11.070424,0 z m 12.000001,0 7.521141,0 z m 8.281687,0 1.605631,0 z m 2.450716,0 9.549291,0 z M 40.5,39.5 l 10.478874,0 z m 11.408451,0 4.732396,0 z m 5.577467,0 7.43662,0 z m 8.281691,0 8.02817,0 z m 8.957747,0 3.211267,0 z m 4.056331,0 1.774649,0 z m 2.704233,0 4.985911,0 z"
       inkscape:connector-curvature="0"
       id="path3475"
       style="fill:none;stroke:url(#linearGradient3878);stroke-width:1px;stroke-linecap:butt;stroke-linejoin:miter;stroke-opacity:1" />
    <path
       d="m 32,53.5 -13.5,0 0,-115 13.5,0"
       inkscape:connector-curvature="0"
       id="rect6741-1-5"
       style="opacity:0.5;fill:none;stroke:url(#linearGradient3144);stroke-width:1;stroke-linecap:butt;stroke-linejoin:miter;stroke-miterlimit:4;stroke-opacity:1;stroke-dasharray:none;stroke-dashoffset:0" />
    <path
       d="m 17.499929,-62.499588 c 21.311061,0 93.000031,0.007 93.000031,0.007 l 1.1e-4,116.992628 c 0,0 -62.0001,0 -93.00014,0 0,-39.000029 0,-78.000054 0,-117.000079 z"
       inkscape:connector-curvature="0"
       id="path4160-4"
       style="opacity:0.3;fill:none;stroke:#000000;stroke-width:0.99992186;stroke-linecap:butt;stroke-linejoin:round;stroke-miterlimit:4;stroke-opacity:1;stroke-dasharray:none;stroke-dashoffset:0;display:inline" />
  </g>
</svg>
