<?xml version="1.0" encoding="UTF-8" standalone="no"?>
<!-- Created with Inkscape (http://www.inkscape.org/) -->

<svg
   xmlns:dc="http://purl.org/dc/elements/1.1/"
   xmlns:cc="http://creativecommons.org/ns#"
   xmlns:rdf="http://www.w3.org/1999/02/22-rdf-syntax-ns#"
   xmlns:svg="http://www.w3.org/2000/svg"
   xmlns="http://www.w3.org/2000/svg"
   xmlns:xlink="http://www.w3.org/1999/xlink"
   xmlns:sodipodi="http://sodipodi.sourceforge.net/DTD/sodipodi-0.dtd"
   xmlns:inkscape="http://www.inkscape.org/namespaces/inkscape"
   version="1.1"
   width="128"
   height="128"
   id="svg3172"
   inkscape:version="0.48.4 r9939"
   sodipodi:docname="text-css.svg">
  <sodipodi:namedview
     pagecolor="#ffffff"
     bordercolor="#666666"
     borderopacity="1"
     objecttolerance="10"
     gridtolerance="10"
     guidetolerance="10"
     inkscape:pageopacity="0"
     inkscape:pageshadow="2"
     inkscape:window-width="1440"
     inkscape:window-height="845"
     id="namedview34"
     showgrid="true"
     inkscape:zoom="4.9270681"
     inkscape:cx="73.877165"
     inkscape:cy="63.697638"
     inkscape:window-x="0"
     inkscape:window-y="30"
     inkscape:window-maximized="1"
     inkscape:current-layer="svg3172">
    <inkscape:grid
       type="xygrid"
       id="grid3114" />
  </sodipodi:namedview>
  <defs
     id="defs3174">
    <linearGradient
       id="linearGradient3977">
      <stop
         id="stop3979"
         style="stop-color:#ffffff;stop-opacity:1"
         offset="0" />
      <stop
         id="stop3981"
         style="stop-color:#ffffff;stop-opacity:0.23529412"
         offset="0.00648027" />
      <stop
         id="stop3983"
         style="stop-color:#ffffff;stop-opacity:0.15686275"
         offset="0.99423188" />
      <stop
         id="stop3985"
         style="stop-color:#ffffff;stop-opacity:0.39215687"
         offset="1" />
    </linearGradient>
    <linearGradient
       id="linearGradient3600">
      <stop
         id="stop3602"
         style="stop-color:#f4f4f4;stop-opacity:1"
         offset="0" />
      <stop
         id="stop3604"
         style="stop-color:#dbdbdb;stop-opacity:1"
         offset="1" />
    </linearGradient>
    <linearGradient
       id="linearGradient3702-501-757-486">
      <stop
         id="stop3100"
         style="stop-color:#181818;stop-opacity:0"
         offset="0" />
      <stop
         id="stop3102"
         style="stop-color:#181818;stop-opacity:1"
         offset="0.5" />
      <stop
         id="stop3104"
         style="stop-color:#181818;stop-opacity:0"
         offset="1" />
    </linearGradient>
    <linearGradient
       id="linearGradient3688-464-309-255">
      <stop
         id="stop3094"
         style="stop-color:#181818;stop-opacity:1"
         offset="0" />
      <stop
         id="stop3096"
         style="stop-color:#181818;stop-opacity:0"
         offset="1" />
    </linearGradient>
    <linearGradient
       id="linearGradient3688-166-749-737">
      <stop
         id="stop3088"
         style="stop-color:#181818;stop-opacity:1"
         offset="0" />
      <stop
         id="stop3090"
         style="stop-color:#181818;stop-opacity:0"
         offset="1" />
    </linearGradient>
    <linearGradient
       x1="23.99999"
       y1="5.5641499"
       x2="23.99999"
       y2="42.194839"
       id="linearGradient3016"
       xlink:href="#linearGradient3977"
       gradientUnits="userSpaceOnUse"
       gradientTransform="matrix(2.4594595,0,0,3.1081081,4.9729852,-14.594559)" />
    <linearGradient
       x1="25.132275"
       y1="0.98520643"
       x2="25.132275"
       y2="47.013336"
       id="linearGradient3019"
       xlink:href="#linearGradient3600"
       gradientUnits="userSpaceOnUse"
       gradientTransform="matrix(2.6571409,0,0,2.5422194,0.228619,-4.91283)" />
    <linearGradient
       x1="25.058096"
       y1="47.027729"
       x2="25.058096"
       y2="39.999443"
       id="linearGradient3024"
       xlink:href="#linearGradient3702-501-757-486"
       gradientUnits="userSpaceOnUse"
       gradientTransform="matrix(3.1428572,0,0,1.2857143,-11.428573,61.571428)" />
    <radialGradient
       cx="4.9929786"
       cy="43.5"
       r="2.5"
       fx="4.9929786"
       fy="43.5"
       id="radialGradient3027"
       xlink:href="#linearGradient3688-464-309-255"
       gradientUnits="userSpaceOnUse"
       gradientTransform="matrix(2.4045407,0,0,1.7999999,-32.014243,-195.8)" />
    <radialGradient
       cx="4.9929786"
       cy="43.5"
       r="2.5"
       fx="4.9929786"
       fy="43.5"
       id="radialGradient3030"
       xlink:href="#linearGradient3688-166-749-737"
       gradientUnits="userSpaceOnUse"
       gradientTransform="matrix(2.4045407,0,0,1.7999999,95.985757,39.200001)" />
  </defs>
  <metadata
     id="metadata3177">
    <rdf:RDF>
      <cc:Work
         rdf:about="">
        <dc:format>image/svg+xml</dc:format>
        <dc:type
           rdf:resource="http://purl.org/dc/dcmitype/StillImage" />
        <dc:title></dc:title>
      </cc:Work>
    </rdf:RDF>
  </metadata>
  <rect
     width="6"
     height="8.999999"
     x="108"
     y="113"
     id="rect2801"
     style="opacity:0.4;fill:url(#radialGradient3030);fill-opacity:1;stroke:none" />
  <rect
     width="6"
     height="8.999999"
     x="-20"
     y="-122"
     transform="scale(-1,-1)"
     id="rect3696"
     style="opacity:0.4;fill:url(#radialGradient3027);fill-opacity:1;stroke:none" />
  <rect
     width="88"
     height="9"
     x="20"
     y="113"
     id="rect3700"
     style="opacity:0.4;fill:url(#linearGradient3024);fill-opacity:1;stroke:none" />
  <path
     d="m 17.499929,1.500412 c 21.311061,0 93.000031,0.007 93.000031,0.007 l 1.1e-4,116.992628 c 0,0 -62.0001,0 -93.00014,0 0,-39.000029 0,-78.000054 0,-117.000079 z"
     inkscape:connector-curvature="0"
     id="path4160"
     style="fill:url(#linearGradient3019);fill-opacity:1;stroke:none;display:inline" />
  <path
     d="m 109.5,117.5 -91,0 0,-115.000003 91,0 z"
     inkscape:connector-curvature="0"
     id="rect6741-1"
     style="fill:none;stroke:url(#linearGradient3016);stroke-width:1;stroke-linecap:round;stroke-linejoin:round;stroke-miterlimit:4;stroke-opacity:1;stroke-dasharray:none;stroke-dashoffset:0" />
  <path
     d="m 17.499929,1.5004119 c 21.311061,0 93.000031,0.007 93.000031,0.007 l 1.1e-4,116.9926281 c 0,0 -62.0001,0 -93.00014,0 0,-39.000029 0,-78.000054 0,-117.0000791 z"
     inkscape:connector-curvature="0"
     id="path4160-4"
     style="opacity:0.3;fill:none;stroke:#000000;stroke-width:0.99992186;stroke-linecap:butt;stroke-linejoin:round;stroke-miterlimit:4;stroke-opacity:1;stroke-dasharray:none;stroke-dashoffset:0;display:inline" />
  <path
     inkscape:connector-curvature="0"
     style="font-size:19px;font-style:normal;font-variant:normal;font-weight:600;font-stretch:normal;text-align:start;line-height:125%;letter-spacing:0px;word-spacing:0px;writing-mode:lr-tb;text-anchor:start;opacity:0.4;color:#000000;fill:#ffffff;fill-opacity:1;fill-rule:nonzero;stroke:none;stroke-width:1;marker:none;visibility:visible;display:inline;overflow:visible;enable-background:accumulate;font-family:Open Sans;-inkscape-font-specification:Open Sans Semi-Bold"
     d="m 54,45.000001 c -2.89074,2.7e-5 -4.42298,0.428248 -5.874999,1.312499 C 46.68628,47.184852 46,48.573373 46,50.4375 L 46,56 c 0,1.111335 -0.495799,1.88783 -1.375,2.4375 -0.86588,0.537751 -2.82662,0.875012 -4.625,0.875 l 0,3.375 c 3.54346,8e-6 6,1.152366 6,3.375 l 0,5.0625 c 0,2.043394 0.65454,3.59182 2,4.5 1.35876,0.920119 2.92276,1.351094 6,1.375 l 0,-3.25 C 52.468041,73.7261 51.67938,73.439383 51.000001,72.9375 50.3206,72.435614 50,71.729874 50,70.75 l 0,-5.375 c 0,-2.40188 -1.19942,-3.819802 -4.25,-4.25 l 0,-0.25 C 48.80058,60.408975 50,58.940502 50,56.5625 L 50,51.25 c 0,-0.979854 0.3206,-1.63504 1.000001,-2.124999 C 51.6927,48.623137 52.48136,48.30977 54,48.250001 l 0,-3.25 z m 20,0 0,3.25 c 1.51864,0.05978 2.3073,0.373136 2.999999,0.875 C 77.6794,49.61496 78,50.270146 78,51.25 l 0,5.3125 c 0,2.378002 1.19942,3.846475 4.25,4.3125 l 0,0.25 C 79.19942,61.555198 78,62.97312 78,65.375 l 0,5.375 c 0,0.979874 -0.3206,1.685614 -1.000001,2.1875 C 76.32062,73.439383 75.531959,73.7261 74,73.75 L 74,77 c 3.07724,-0.0239 4.64124,-0.454881 6,-1.375 1.34546,-0.90818 2,-2.456606 2,-4.5 l 0,-5.0625 c 0,-2.222634 2.45654,-3.374992 6,-3.375 l 0,-3.375 c -1.79838,1.3e-5 -3.75912,-0.337249 -4.625,-0.874999 C 82.495799,57.88783 82,57.111335 82,56 l 0,-5.5625 C 82,48.573373 81.313699,47.184852 79.874999,46.3125 78.42298,45.428249 76.89074,45.000028 74,45.000001 z"
     id="path3873-9-7" />
  <path
     inkscape:connector-curvature="0"
     style="font-size:19px;font-style:normal;font-variant:normal;font-weight:600;font-stretch:normal;text-align:start;line-height:125%;letter-spacing:0px;word-spacing:0px;writing-mode:lr-tb;text-anchor:start;color:#000000;fill:#999999;fill-opacity:1;fill-rule:nonzero;stroke:none;marker:none;visibility:visible;display:inline;overflow:visible;enable-background:accumulate;font-family:Open Sans;-inkscape-font-specification:Open Sans Semi-Bold"
     d="m 54,44.000001 c -2.89074,2.7e-5 -4.42298,0.428248 -5.874999,1.312499 C 46.68628,46.184852 46,47.573373 46,49.4375 L 46,55 c 0,1.111335 -0.495799,1.88783 -1.375,2.4375 -0.86588,0.537751 -2.82662,0.875012 -4.625,0.875 l 0,3.375 c 3.54346,8e-6 6,1.152366 6,3.375 l 0,5.0625 c 0,2.043394 0.65454,3.59182 2,4.5 1.35876,0.920119 2.92276,1.351094 6,1.375 l 0,-3.25 C 52.468041,72.7261 51.67938,72.439383 51.000001,71.9375 50.3206,71.435614 50,70.729874 50,69.75 l 0,-5.375 c 0,-2.40188 -1.19942,-3.819802 -4.25,-4.25 l 0,-0.25 C 48.80058,59.408975 50,57.940502 50,55.5625 L 50,50.25 c 0,-0.979854 0.3206,-1.63504 1.000001,-2.124999 C 51.6927,47.623137 52.48136,47.30977 54,47.250001 l 0,-3.25 z m 20,0 0,3.25 c 1.51864,0.05978 2.3073,0.373136 2.999999,0.875 C 77.6794,48.61496 78,49.270146 78,50.25 l 0,5.3125 c 0,2.378002 1.19942,3.846475 4.25,4.3125 l 0,0.25 C 79.19942,60.555198 78,61.97312 78,64.375 l 0,5.375 c 0,0.979874 -0.3206,1.685614 -1.000001,2.1875 C 76.32062,72.439383 75.531959,72.7261 74,72.75 L 74,76 c 3.07724,-0.0239 4.64124,-0.454881 6,-1.375 1.34546,-0.90818 2,-2.456606 2,-4.5 l 0,-5.0625 c 0,-2.222634 2.45654,-3.374992 6,-3.375 l 0,-3.375 c -1.79838,1.3e-5 -3.75912,-0.337249 -4.625,-0.874999 C 82.495799,56.88783 82,56.111335 82,55 l 0,-5.5625 C 82,47.573373 81.313699,46.184852 79.874999,45.3125 78.42298,44.428249 76.89074,44.000028 74,44.000001 z"
     id="path3873-9" />
</svg>
