<?xml version="1.0" encoding="UTF-8" standalone="no"?>
<!-- Created with Inkscape (http://www.inkscape.org/) -->

<svg
   xmlns:dc="http://purl.org/dc/elements/1.1/"
   xmlns:cc="http://creativecommons.org/ns#"
   xmlns:rdf="http://www.w3.org/1999/02/22-rdf-syntax-ns#"
   xmlns:svg="http://www.w3.org/2000/svg"
   xmlns="http://www.w3.org/2000/svg"
   xmlns:xlink="http://www.w3.org/1999/xlink"
   xmlns:sodipodi="http://sodipodi.sourceforge.net/DTD/sodipodi-0.dtd"
   xmlns:inkscape="http://www.inkscape.org/namespaces/inkscape"
   version="1.0"
   width="128.00006"
   height="128.00006"
   id="svg2453"
   inkscape:version="0.48.4 r9939"
   sodipodi:docname="video-x-generic.svg">
  <sodipodi:namedview
     pagecolor="#ffffff"
     bordercolor="#666666"
     borderopacity="1"
     objecttolerance="10"
     gridtolerance="10"
     guidetolerance="10"
     inkscape:pageopacity="0"
     inkscape:pageshadow="2"
     inkscape:window-width="1440"
     inkscape:window-height="845"
     id="namedview55"
     showgrid="false"
     inkscape:zoom="0.84495874"
     inkscape:cx="61.370553"
     inkscape:cy="14.637424"
     inkscape:window-x="0"
     inkscape:window-y="30"
     inkscape:window-maximized="1"
     inkscape:current-layer="svg2453"
     fit-margin-top="0"
     fit-margin-left="0"
     fit-margin-right="0"
     fit-margin-bottom="0"
     showguides="true"
     inkscape:guide-bbox="true">
    <inkscape:grid
       type="xygrid"
       id="grid3339"
       empspacing="5"
       visible="true"
       enabled="true"
       snapvisiblegridlinesonly="true"
       originx="0px"
       originy="0px" />
  </sodipodi:namedview>
  <metadata
     id="metadata35">
    <rdf:RDF>
      <cc:Work
         rdf:about="">
        <dc:format>image/svg+xml</dc:format>
        <dc:type
           rdf:resource="http://purl.org/dc/dcmitype/StillImage" />
        <dc:title></dc:title>
      </cc:Work>
    </rdf:RDF>
  </metadata>
  <defs
     id="defs2455">
    <linearGradient
       id="linearGradient3462">
      <stop
         id="stop3464"
         style="stop-color:#ffffff;stop-opacity:1"
         offset="0" />
      <stop
         id="stop3466"
         style="stop-color:#ffffff;stop-opacity:0.23529412"
         offset="0.03457849" />
      <stop
         id="stop3468"
         style="stop-color:#ffffff;stop-opacity:0.15686275"
         offset="0.96375686" />
      <stop
         id="stop3470"
         style="stop-color:#ffffff;stop-opacity:0.39215687"
         offset="1" />
    </linearGradient>
    <linearGradient
       id="linearGradient2867-449-88-871-390-598-476-591-434-148-57-177-8-3-3-6-4-8-8-8-5-7">
      <stop
         offset="0"
         style="stop-color:#505050;stop-opacity:1"
         id="stop3750-1-0-7-6-6-1-3-9-3-9" />
      <stop
         offset="0.26238"
         style="stop-color:#2b2b2b;stop-opacity:1"
         id="stop3752-3-7-4-0-32-8-923-0-7-0" />
      <stop
         offset="0.704952"
         style="stop-color:#0a0a0a;stop-opacity:1"
         id="stop3754-1-8-5-2-7-6-7-1-9-1" />
      <stop
         offset="1"
         style="stop-color:#000000;stop-opacity:1"
         id="stop3756-1-6-2-6-6-1-96-6-0-1" />
    </linearGradient>
    <linearGradient
       inkscape:collect="always"
       xlink:href="#linearGradient3462"
       id="linearGradient3133"
       gradientUnits="userSpaceOnUse"
       gradientTransform="matrix(3.1081078,0,0,2.4594594,-10.594599,11.973044)"
       x1="40.290417"
       y1="5.4143372"
       x2="40.290417"
       y2="42.437775" />
    <radialGradient
       inkscape:collect="always"
       xlink:href="#linearGradient2867-449-88-871-390-598-476-591-434-148-57-177-8-3-3-6-4-8-8-8-5-7"
       id="radialGradient3136"
       gradientUnits="userSpaceOnUse"
       gradientTransform="matrix(0,21.795969,-33.663904,0,401.68831,-174.34713)"
       cx="7.1183534"
       cy="9.9571075"
       fx="7.1183534"
       fy="9.9571075"
       r="12.671875" />
    <linearGradient
       inkscape:collect="always"
       xlink:href="#linearGradient3680-6-6-6-3-7-1-8-8"
       id="linearGradient3127-4-4"
       gradientUnits="userSpaceOnUse"
       gradientTransform="matrix(1.326882,0,0,1.326882,9.2598082,6.2451596)"
       x1="20"
       y1="26.000008"
       x2="20"
       y2="13.000008" />
    <linearGradient
       id="linearGradient3680-6-6-6-3-7-1-8-8">
      <stop
         offset="0"
         style="stop-color:#dcdcdc;stop-opacity:1"
         id="stop3682-4-6-1-3-7-7-4-0" />
      <stop
         offset="1"
         style="stop-color:#ffffff;stop-opacity:1"
         id="stop3684-8-5-8-0-2-6-8-4" />
    </linearGradient>
    <linearGradient
       y2="13.000008"
       x2="20"
       y1="26.000008"
       x1="20"
       gradientTransform="matrix(1.326882,0,0,1.326882,9.2598082,6.2451596)"
       gradientUnits="userSpaceOnUse"
       id="linearGradient3200"
       xlink:href="#linearGradient3680-6-6-6-3-7-1-8-8"
       inkscape:collect="always" />
    <linearGradient
       id="linearGradient3688-166-749-737">
      <stop
         offset="0"
         style="stop-color:#181818;stop-opacity:1"
         id="stop3088" />
      <stop
         offset="1"
         style="stop-color:#181818;stop-opacity:0"
         id="stop3090" />
    </linearGradient>
    <linearGradient
       id="linearGradient3688-464-309-255">
      <stop
         offset="0"
         style="stop-color:#181818;stop-opacity:1"
         id="stop3094" />
      <stop
         offset="1"
         style="stop-color:#181818;stop-opacity:0"
         id="stop3096" />
    </linearGradient>
    <linearGradient
       id="linearGradient3702-501-757-486">
      <stop
         offset="0"
         style="stop-color:#181818;stop-opacity:0"
         id="stop3100" />
      <stop
         offset="0.5"
         style="stop-color:#181818;stop-opacity:1"
         id="stop3102" />
      <stop
         offset="1"
         style="stop-color:#181818;stop-opacity:0"
         id="stop3104" />
    </linearGradient>
    <linearGradient
       inkscape:collect="always"
       xlink:href="#linearGradient3702-501-757-486"
       id="linearGradient3991"
       gradientUnits="userSpaceOnUse"
       gradientTransform="matrix(3.9285714,0,0,1.2857143,-31.285711,61.071489)"
       x1="25.058096"
       y1="47.027729"
       x2="25.058096"
       y2="39.999443" />
    <radialGradient
       inkscape:collect="always"
       xlink:href="#linearGradient3688-464-309-255"
       id="radialGradient3994"
       gradientUnits="userSpaceOnUse"
       gradientTransform="matrix(2.4045407,0,0,1.7999999,-20.01424,-195.30006)"
       cx="4.9929786"
       cy="43.5"
       fx="4.9929786"
       fy="43.5"
       r="2.5" />
    <radialGradient
       inkscape:collect="always"
       xlink:href="#linearGradient3688-166-749-737"
       id="radialGradient3997"
       gradientUnits="userSpaceOnUse"
       gradientTransform="matrix(2.4045407,0,0,1.7999999,105.98576,38.700062)"
       cx="4.9929786"
       cy="43.5"
       fx="4.9929786"
       fy="43.5"
       r="2.5" />
  </defs>
  <rect
     width="110"
     height="9"
     x="8"
     y="112.50006"
     id="rect3700"
     style="opacity:0.4;fill:url(#linearGradient3991);fill-opacity:1;stroke:none" />
  <rect
     width="6"
     height="8.999999"
     x="118"
     y="112.50006"
     id="rect2801"
     style="opacity:0.4;fill:url(#radialGradient3997);fill-opacity:1;stroke:none" />
  <rect
     width="6"
     height="8.999999"
     x="-8"
     y="-121.50006"
     transform="scale(-1,-1)"
     id="rect3696"
     style="opacity:0.4;fill:url(#radialGradient3994);fill-opacity:1;stroke:none" />
  <rect
     width="117"
     height="93"
     rx="4"
     ry="4"
     x="5.5"
     y="24.500057"
     id="rect5505-21-3-8-5-2"
     style="opacity:0.9;color:#000000;fill:url(#radialGradient3136);fill-opacity:1;fill-rule:nonzero;stroke:none;stroke-width:0.99999994;marker:none;visibility:visible;display:inline;overflow:visible;enable-background:accumulate" />
  <rect
     width="115"
     height="91"
     rx="3"
     ry="3"
     x="6.5"
     y="25.500061"
     id="rect6741-5-0-2-3"
     style="opacity:0.3;fill:none;stroke:url(#linearGradient3133);stroke-width:0.99999994;stroke-linecap:round;stroke-linejoin:round;stroke-miterlimit:4;stroke-opacity:1;stroke-dasharray:none;stroke-dashoffset:0" />
  <rect
     width="117"
     height="93"
     rx="4"
     ry="4"
     x="5.5"
     y="24.500061"
     id="rect5505-21-3-8-9-1-1"
     style="opacity:0.7;color:#000000;fill:none;stroke:#000000;stroke-width:1;stroke-linecap:round;stroke-linejoin:round;stroke-miterlimit:4;stroke-opacity:1;stroke-dasharray:none;stroke-dashoffset:0;marker:none;visibility:visible;display:inline;overflow:visible;enable-background:accumulate" />
  <g
     id="layer1-1-4-0-7"
     transform="matrix(2,0,0,2,48,58.000061)"
     style="opacity:0.14999999999999999;color:#000000;fill:#000000;fill-opacity:1;fill-rule:nonzero;stroke:none;stroke-width:0.99044293;marker:none;visibility:visible;display:inline;overflow:visible;enable-background:accumulate">
    <path
       sodipodi:type="inkscape:offset"
       inkscape:radius="0.48758882"
       inkscape:original="M 1.75 0 C 1.3345 0 1 0.3345 1 0.75 L 1 14.25 C 1 14.6655 1.3345 15 1.75 15 L 14.25 15 C 14.6655 15 15 14.6655 15 14.25 L 15 0.75 C 15 0.3345 14.6655 0 14.25 0 L 1.75 0 z M 2 1 L 3 1 L 3 2 L 2 2 L 2 1 z M 4.5 1 L 11.5 1 C 11.777 1 12 1.223 12 1.5 L 12 6.5 C 12 6.777 11.777 7 11.5 7 L 4.5 7 C 4.223 7 4 6.777 4 6.5 L 4 1.5 C 4 1.223 4.223 1 4.5 1 z M 13 1 L 14 1 L 14 2 L 13 2 L 13 1 z M 2 3 L 3 3 L 3 4 L 2 4 L 2 3 z M 13 3 L 14 3 L 14 4 L 13 4 L 13 3 z M 2 5 L 3 5 L 3 6 L 2 6 L 2 5 z M 13 5 L 14 5 L 14 6 L 13 6 L 13 5 z M 2 7 L 3 7 L 3 8 L 2 8 L 2 7 z M 13 7 L 14 7 L 14 8 L 13 8 L 13 7 z M 4.5 8 L 11.5 8 C 11.777 8 12 8.223 12 8.5 L 12 13.5 C 12 13.777 11.777 14 11.5 14 L 4.5 14 C 4.223 14 4 13.777 4 13.5 L 4 8.5 C 4 8.223 4.223 8 4.5 8 z M 2 9 L 3 9 L 3 10 L 2 10 L 2 9 z M 13 9 L 14 9 L 14 10 L 13 10 L 13 9 z M 2 11 L 3 11 L 3 12 L 2 12 L 2 11 z M 13 11 L 14 11 L 14 12 L 13 12 L 13 11 z M 2 13 L 3 13 L 3 14 L 2 14 L 2 13 z M 13 13 L 14 13 L 14 14 L 13 14 L 13 13 z "
       style="color:#000000;fill:#000000;fill-opacity:1;fill-rule:nonzero;stroke:none;stroke-width:0.99044293;marker:none;visibility:visible;display:inline;overflow:visible;enable-background:accumulate"
       id="path3886"
       d="M 1.75,-0.5 C 1.0728097,-0.5 0.5,0.07280973 0.5,0.75 l 0,13.5 c 0,0.67719 0.5728097,1.25 1.25,1.25 l 12.5,0 c 0.67719,0 1.25,-0.57281 1.25,-1.25 l 0,-13.5 c 0,-0.67719027 -0.57281,-1.25 -1.25,-1.25 l -12.5,0 z m 2.75,2 7,0 0,5 -7,0 0,-5 z m 0,7 7,0 0,5 -7,0 0,-5 z" />
  </g>
  <g
     id="layer1-1-4-0"
     transform="matrix(2,0,0,2,48,58.000061)"
     style="color:#000000;fill:#000000;fill-opacity:1;fill-rule:nonzero;stroke:none;stroke-width:0.99044293;marker:none;visibility:visible;display:inline;overflow:visible;enable-background:accumulate;opacity:0.29999999999999999">
    <path
       style="color:#000000;fill:#000000;fill-opacity:1;fill-rule:nonzero;stroke:none;stroke-width:0.99044293;marker:none;visibility:visible;display:inline;overflow:visible;enable-background:accumulate"
       id="rect3032-8-7"
       inkscape:connector-curvature="0"
       d="M 1.75,0 C 1.3345,0 1,0.3345 1,0.75 l 0,13.5 C 1,14.6655 1.3345,15 1.75,15 l 12.5,0 C 14.6655,15 15,14.6655 15,14.25 L 15,0.75 C 15,0.3345 14.6655,0 14.25,0 L 1.75,0 z M 2,1 3,1 3,2 2,2 2,1 z m 2.5,0 7,0 C 11.777,1 12,1.223 12,1.5 l 0,5 C 12,6.777 11.777,7 11.5,7 l -7,0 C 4.223,7 4,6.777 4,6.5 l 0,-5 C 4,1.223 4.223,1 4.5,1 z m 8.5,0 1,0 0,1 -1,0 0,-1 z M 2,3 3,3 3,4 2,4 2,3 z m 11,0 1,0 0,1 -1,0 0,-1 z M 2,5 3,5 3,6 2,6 2,5 z m 11,0 1,0 0,1 -1,0 0,-1 z M 2,7 3,7 3,8 2,8 2,7 z m 11,0 1,0 0,1 -1,0 0,-1 z m -8.5,1 7,0 C 11.777,8 12,8.223 12,8.5 l 0,5 c 0,0.277 -0.223,0.5 -0.5,0.5 l -7,0 C 4.223,14 4,13.777 4,13.5 l 0,-5 C 4,8.223 4.223,8 4.5,8 z M 2,9 3,9 3,10 2,10 2,9 z m 11,0 1,0 0,1 -1,0 0,-1 z m -11,2 1,0 0,1 -1,0 0,-1 z m 11,0 1,0 0,1 -1,0 0,-1 z m -11,2 1,0 0,1 -1,0 0,-1 z m 11,0 1,0 0,1 -1,0 0,-1 z" />
  </g>
  <g
     id="layer1-1-4"
     transform="matrix(2,0,0,2,48,57.000061)"
     style="color:#000000;fill:url(#linearGradient3127-4-4);fill-opacity:1;fill-rule:nonzero;stroke:none;stroke-width:1;marker:none;visibility:visible;display:inline;overflow:visible;enable-background:accumulate">
    <path
       style="color:#000000;fill:url(#linearGradient3200);fill-opacity:1;fill-rule:nonzero;stroke:none;stroke-width:1;marker:none;visibility:visible;display:inline;overflow:visible;enable-background:accumulate"
       id="rect3032-8"
       inkscape:connector-curvature="0"
       d="M 1.75,0 C 1.3345,0 1,0.3345 1,0.75 l 0,13.5 C 1,14.6655 1.3345,15 1.75,15 l 12.5,0 C 14.6655,15 15,14.6655 15,14.25 L 15,0.75 C 15,0.3345 14.6655,0 14.25,0 L 1.75,0 z M 2,1 3,1 3,2 2,2 2,1 z m 2.5,0 7,0 C 11.777,1 12,1.223 12,1.5 l 0,5 C 12,6.777 11.777,7 11.5,7 l -7,0 C 4.223,7 4,6.777 4,6.5 l 0,-5 C 4,1.223 4.223,1 4.5,1 z m 8.5,0 1,0 0,1 -1,0 0,-1 z M 2,3 3,3 3,4 2,4 2,3 z m 11,0 1,0 0,1 -1,0 0,-1 z M 2,5 3,5 3,6 2,6 2,5 z m 11,0 1,0 0,1 -1,0 0,-1 z M 2,7 3,7 3,8 2,8 2,7 z m 11,0 1,0 0,1 -1,0 0,-1 z m -8.5,1 7,0 C 11.777,8 12,8.223 12,8.5 l 0,5 c 0,0.277 -0.223,0.5 -0.5,0.5 l -7,0 C 4.223,14 4,13.777 4,13.5 l 0,-5 C 4,8.223 4.223,8 4.5,8 z M 2,9 3,9 3,10 2,10 2,9 z m 11,0 1,0 0,1 -1,0 0,-1 z m -11,2 1,0 0,1 -1,0 0,-1 z m 11,0 1,0 0,1 -1,0 0,-1 z m -11,2 1,0 0,1 -1,0 0,-1 z m 11,0 1,0 0,1 -1,0 0,-1 z" />
  </g>
</svg>
