<?xml version="1.0" encoding="UTF-8" standalone="no"?>
<!-- Created with Inkscape (http://www.inkscape.org/) -->

<svg
   xmlns:dc="http://purl.org/dc/elements/1.1/"
   xmlns:cc="http://creativecommons.org/ns#"
   xmlns:rdf="http://www.w3.org/1999/02/22-rdf-syntax-ns#"
   xmlns:svg="http://www.w3.org/2000/svg"
   xmlns="http://www.w3.org/2000/svg"
   xmlns:inkscape="http://www.inkscape.org/namespaces/inkscape"
   version="1.1"
   width="16"
   height="16"
   id="svg7384">
  <title
     id="title9167">Gnome Symbolic Icon Theme</title>
  <defs
     id="defs10" />
  <metadata
     id="metadata90">
    <rdf:RDF>
      <cc:Work
         rdf:about="">
        <dc:format>image/svg+xml</dc:format>
        <dc:type
           rdf:resource="http://purl.org/dc/dcmitype/StillImage" />
        <dc:title>Gnome Symbolic Icon Theme</dc:title>
      </cc:Work>
    </rdf:RDF>
  </metadata>
  <g
     transform="translate(-501,-462)"
     id="g4953">
    <path
       d="m 505.91,462.09 a 1.0001,1.0001 0 0 0 -0.375,1.875 l 0.46875,0.25 v 2.75 c -0.12616,0.19922 -0.25575,0.37424 -0.4375,0.6875 -0.27262,0.46989 -0.60717,1.0405 -0.96875,1.6875 -0.72316,1.294 -1.5404,2.8161 -2.1875,4 -0.57062,1.044 -0.56219,2.4414 0.28125,3.5 0.01,0.0131 0.0215,0.0184 0.0312,0.0312 0.67388,0.8899 1.7165,1.125 2.5938,1.125 h 7.375 c 0.87723,0 1.9199,-0.2351 2.5938,-1.125 0.009,-0.0115 0.0221,-0.0197 0.0312,-0.0312 0.83629,-1.0496 0.83721,-2.4276 0.28125,-3.4688 -0.004,-0.009 0.004,-0.0224 0,-0.0312 -1.1677,-2.3779 -2.4718,-4.2179 -3.5625,-6.4062 v -2.6875 l 0.5,-0.28125 a 1.0001,1.0001 0 0 0 -0.5,-1.875 h -6.0312 a 1.0001,1.0001 0 0 0 -0.0937,0 z m 2.0938,2 h 2.0312 v 3.125 a 1.0001,1.0001 0 0 0 0.0937,0.4375 c 1.2016,2.4572 2.5757,4.3202 3.6875,6.5938 a 1.0001,1.0001 0 0 0 0.0312,0.0625 c 0.23971,0.43859 0.25996,0.88106 -0.0937,1.3125 a 1.0001,1.0001 0 0 0 -0.0625,0.0312 c -0.14445,0.19822 -0.45965,0.34375 -1,0.34375 h -7.375 c -0.54035,0 -0.85555,-0.14553 -1,-0.34375 a 1.0001,1.0001 0 0 0 -0.07,-0.03 c -0.35372,-0.43145 -0.33346,-0.87393 -0.0937,-1.3125 0.64576,-1.1815 1.4703,-2.7167 2.1875,-4 0.35859,-0.64163 0.70549,-1.2025 0.96875,-1.6562 0.26326,-0.45377 0.47348,-0.83862 0.5,-0.875 a 1.0001,1.0001 0 0 0 0.19,-0.56 v -3.125 z"
       inkscape:connector-curvature="0"
       id="path29274-9-1"
       style="text-indent:0;text-transform:none;block-progression:tb;color:#000000;fill:#bebebe" />
    <path
       d="m 507.22,471 -2.2188,3.999 h 8 L 510.7824,471 h -3.5625 z"
       inkscape:connector-curvature="0"
       id="rect5725"
       style="opacity:0.25;color:#000000;fill:#bebebe" />
  </g>
</svg>
