<?xml version="1.0" encoding="UTF-8" standalone="no"?>
<!-- Created with Inkscape (http://www.inkscape.org/) -->

<svg
   xmlns:dc="http://purl.org/dc/elements/1.1/"
   xmlns:cc="http://creativecommons.org/ns#"
   xmlns:rdf="http://www.w3.org/1999/02/22-rdf-syntax-ns#"
   xmlns:svg="http://www.w3.org/2000/svg"
   xmlns="http://www.w3.org/2000/svg"
   xmlns:inkscape="http://www.inkscape.org/namespaces/inkscape"
   version="1.1"
   width="16"
   height="16"
   id="svg7384">
  <title
     id="title9167">Gnome Symbolic Icon Theme</title>
  <defs
     id="defs12" />
  <metadata
     id="metadata90">
    <rdf:RDF>
      <cc:Work
         rdf:about="">
        <dc:format>image/svg+xml</dc:format>
        <dc:type
           rdf:resource="http://purl.org/dc/dcmitype/StillImage" />
        <dc:title>Gnome Symbolic Icon Theme</dc:title>
      </cc:Work>
    </rdf:RDF>
  </metadata>
  <g
     transform="translate(-601,-461)"
     id="g4953">
    <path
       d="m 602.97,461 c 0,0 -0.96875,1 -0.96875,2 v 12 c 0,1.0096 -1,2 -1,2 h 1 c 0,0 0.42287,-0.42699 0.71875,-1 h 1 c -0.29588,0.57301 -0.71875,1 -0.71875,1 h 1 c 0,0 1,-1.0214 1,-2 v -2 h 1 v -1 h -1 v -5 h 8 v 1 h 1 1 1 v -5 c 0,-1 0.96875,-2 0.96875,-2 h -3 c 0,0 -0.96875,1 -0.96875,2 v 3 h -8 v -3 c 0,-1 0.96875,-2 0.96875,-2 z m 0.3125,1 h 1 c -0.15291,0.30578 -0.28125,0.65211 -0.28125,1 h -1 c 0,-0.34789 0.12834,-0.69422 0.28125,-1 z m 11,0 h 1 c -0.15291,0.30578 -0.28125,0.65211 -0.28125,1 h -1 c 0,-0.34789 0.12834,-0.69422 0.28125,-1 z m -11.281,2 h 1 v 1 h -1 z m 11,0 h 1 v 1 h -1 z m -11,2 h 1 v 1 h -1 z m 11,0 h 1 v 1 h -1 z m -11,2 h 1 v 1 h -1 z m 0,2 h 1 v 1 h -1 z m 0,2 h 1 v 1 h -1 z m 0,2 h 1 v 1 h -1 z"
       inkscape:connector-curvature="0"
       id="rect5523-5"
       style="color:#000000;fill:#bebebe;enable-background:new" />
    <rect
       width="6"
       height="1"
       x="610"
       y="469"
       id="rect6190-8-8-4"
       style="color:#000000;fill:#bebebe;enable-background:new" />
    <path
       d="m 610,469 v 3.725 c -0.33464,-0.11442 -0.58208,-0.18904 -0.96274,-0.18904 -1.0847,0 -1.964,0.87933 -1.964,1.964 0,1.08467 0.87933,1.964 1.964,1.964 1.08467,0 1.964,-0.87933 1.964,-1.964 0,-0.0269 10e-4,-0.0552 0,-0.0818 v -5.41 z"
       inkscape:connector-curvature="0"
       id="rect6190-6"
       style="color:#000000;fill:#bebebe;enable-background:new" />
    <path
       d="m 615,469 v 3.725 c -0.33464,-0.11442 -0.58208,-0.18904 -0.96274,-0.18904 -1.0847,0 -1.964,0.87933 -1.964,1.964 0,1.08467 0.87933,1.964 1.964,1.964 1.08467,0 1.964,-0.87933 1.964,-1.964 0,-0.0269 10e-4,-0.0552 0,-0.0818 v -5.41 z"
       inkscape:connector-curvature="0"
       id="path7925"
       style="color:#000000;fill:#bebebe;enable-background:new" />
  </g>
</svg>
