<?xml version="1.0" encoding="UTF-8" standalone="no"?>
<!-- Created with Inkscape (http://www.inkscape.org/) -->

<svg
   xmlns:dc="http://purl.org/dc/elements/1.1/"
   xmlns:cc="http://creativecommons.org/ns#"
   xmlns:rdf="http://www.w3.org/1999/02/22-rdf-syntax-ns#"
   xmlns:svg="http://www.w3.org/2000/svg"
   xmlns="http://www.w3.org/2000/svg"
   xmlns:inkscape="http://www.inkscape.org/namespaces/inkscape"
   version="1.1"
   width="16"
   height="16"
   id="svg7384">
  <title
     id="title9167">Gnome Symbolic Icon Theme</title>
  <defs
     id="defs13" />
  <metadata
     id="metadata90">
    <rdf:RDF>
      <cc:Work
         rdf:about="">
        <dc:format>image/svg+xml</dc:format>
        <dc:type
           rdf:resource="http://purl.org/dc/dcmitype/StillImage" />
        <dc:title>Gnome Symbolic Icon Theme</dc:title>
      </cc:Work>
    </rdf:RDF>
  </metadata>
  <g
     transform="translate(-542,-462)"
     id="g4953">
    <path
       d="m 542,474 c 0.004,-0.22414 0.11244,-0.53067 0.30379,-0.70429 l 2.1617,-2.1164 c 0.23264,-0.24354 0.78664,-0.29256 1.011,-0.15675 0.0805,0.002 1.1355,0.63126 1.2881,0.86541 0.61665,0.94579 -0.34406,1.8273 -1.1739,1.5468 l -0.34957,-0.2117 -1.6023,1.5717 c -0.63718,0.52635 -1.6915,0.0922 -1.6389,-0.79478 z"
       inkscape:connector-curvature="0"
       id="path7270-2"
       style="text-indent:0;text-transform:none;block-progression:tb;color:#000000;fill:#bebebe" />
    <path
       d="m 553.62,462.12 c 0.38966,-0.10147 0.79073,-0.11077 1.1706,-0.0809 l -1.3597,2.3059 c -0.27942,0.47386 -0.12275,1.0707 0.35378,1.3477 l 0.8743,0.50825 c 0.47652,0.277 1.0774,0.12052 1.3568,-0.35334 l 1.3597,-2.3059 c 0.21223,0.3143 0.40035,0.66611 0.50195,1.0532 0.48628,1.8526 -0.63144,3.7481 -2.4965,4.2338 -0.38967,0.10147 -0.79073,0.11077 -1.1706,0.0809 l -0.80213,1.1146 -3.41,-0.03 c 0,0 1.5186,-2.5774 1.6269,-2.5947 -0.21223,-0.3143 -0.40034,-0.66611 -0.50194,-1.0532 -0.48629,-1.8526 0.63143,-3.7481 2.4965,-4.2338 z"
       inkscape:connector-curvature="0"
       id="path3908-63"
       style="text-indent:0;text-transform:none;block-progression:tb;color:#000000;fill:#bebebe" />
    <path
       d="m 545.6,462.72 c -0.2298,0.0471 -0.44326,0.13096 -0.65529,0.21875 -0.0167,0.62433 0.0868,1.4418 -0.15602,1.6562 -0.23862,0.21077 -1.0368,0.0343 -1.6538,-0.0313 -0.1312,0.23649 -0.23492,0.48523 -0.31205,0.75 0.4774,0.39586 1.1388,0.83901 1.1546,1.1562 0.0159,0.32119 -0.6255,0.80489 -1.0609,1.25 0.10323,0.25783 0.24977,0.49354 0.40565,0.71875 0.60743,-0.12641 1.3644,-0.37354 1.6226,-0.1875 0.26292,0.18942 0.26482,1.0054 0.34325,1.625 0.24918,0.075 0.51175,0.1045 0.7801,0.125 0.28094,-0.55462 0.56658,-1.3198 0.87372,-1.4062 0.31529,-0.0887 0.96213,0.45813 1.4978,0.78125 0.21839,-0.1516 0.41233,-0.33706 0.59288,-0.53125 -0.25347,-0.57232 -0.72003,-1.2919 -0.59288,-1.5938 0.12727,-0.30211 0.97398,-0.46963 1.5602,-0.6875 0.004,-0.0735 0.0312,-0.14414 0.0312,-0.21875 0,-0.19137 -0.0344,-0.37899 -0.0624,-0.5625 -0.60521,-0.16082 -1.4651,-0.2413 -1.6226,-0.53125 -0.15651,-0.28801 0.24143,-1.0614 0.43686,-1.6562 -0.20087,-0.17858 -0.4188,-0.33716 -0.65529,-0.46875 -0.50016,0.37513 -1.0827,0.99436 -1.4042,0.9375 -0.31642,-0.056 -0.66192,-0.81955 -0.99853,-1.3438 -0.0401,0.007 -0.0851,-0.008 -0.12482,0 z m 0.62408,1.875 c 0.93062,0 1.685,0.75552 1.685,1.6875 0,0.93198 -0.75441,1.6875 -1.685,1.6875 -0.93061,0 -1.685,-0.75552 -1.685,-1.6875 0,-0.93198 0.75441,-1.6875 1.685,-1.6875 z"
       inkscape:connector-curvature="0"
       id="path42972-6"
       style="color:#000000;fill:#bebebe" />
    <path
       d="m 544.99,471 h 9.9854 l 0.008,6.0625 c 0,0.4922 -0.47197,0.9375 -0.99463,0.9375 h -7.9922 c -0.53827,0 -0.99853,-0.42964 -0.99853,-1 z"
       inkscape:connector-curvature="0"
       id="rect7268-7"
       style="color:#bebebe;fill:#bebebe" />
    <path
       d="m 557.96,473.98 c -0.004,-0.22414 -0.11244,-0.53067 -0.30379,-0.70429 l -2.1617,-2.1164 c -0.23264,-0.24354 -0.78664,-0.29256 -1.011,-0.15675 -0.0805,0.002 -1.1355,0.63126 -1.2881,0.86541 -0.61666,0.94579 0.34405,1.8273 1.1739,1.5468 l 0.34957,-0.2117 1.6023,1.5717 c 0.63718,0.52635 1.6915,0.0923 1.6389,-0.79478 z"
       inkscape:connector-curvature="0"
       id="path6196"
       style="text-indent:0;text-transform:none;block-progression:tb;color:#000000;fill:#bebebe" />
  </g>
</svg>
