<svg height="24" width="24" xml:space="preserve" xmlns:xlink="http://www.w3.org/1999/xlink" xmlns="http://www.w3.org/2000/svg"><defs><linearGradient gradientTransform="translate(.973 .973) scale(.45946)" gradientUnits="userSpaceOnUse" xlink:href="#a" id="p" y2="41.168" x2="24" y1="6.757" x1="24"/><linearGradient id="a"><stop offset="0" style="stop-color:#fff;stop-opacity:1"/><stop offset=".035" style="stop-color:#fff;stop-opacity:.23529412"/><stop offset=".962" style="stop-color:#fff;stop-opacity:.15686275"/><stop offset="1" style="stop-color:#fff;stop-opacity:.39215687"/></linearGradient><linearGradient id="h"><stop offset="0" style="stop-color:#181818;stop-opacity:1"/><stop offset="1" style="stop-color:#181818;stop-opacity:0"/></linearGradient><linearGradient id="i"><stop offset="0" style="stop-color:#181818;stop-opacity:1"/><stop offset="1" style="stop-color:#181818;stop-opacity:0"/></linearGradient><linearGradient gradientUnits="userSpaceOnUse" xlink:href="#b" id="m" y2="39.999" x2="25.058" y1="47.028" x1="25.058"/><linearGradient id="b"><stop offset="0" style="stop-color:#181818;stop-opacity:0"/><stop offset=".5" style="stop-color:#181818;stop-opacity:1"/><stop offset="1" style="stop-color:#181818;stop-opacity:0"/></linearGradient><linearGradient id="d"><stop offset="0" style="stop-color:#f4f4f4;stop-opacity:1"/><stop offset="1" style="stop-color:#dbdbdb;stop-opacity:1"/></linearGradient><linearGradient id="c"><stop offset="0" style="stop-color:#000;stop-opacity:.31782946"/><stop offset="1" style="stop-color:#000;stop-opacity:.24031007"/></linearGradient><linearGradient xlink:href="#c" id="o" gradientUnits="userSpaceOnUse" gradientTransform="matrix(.8075 0 0 .89472 -41.857 -23.833)" x1="70.386" y1="51.425" x2="70.386" y2="29.002"/><linearGradient xlink:href="#d" id="n" gradientUnits="userSpaceOnUse" gradientTransform="matrix(.46015 0 0 .44257 -22.053 .863)" x1="74.839" y1="4.536" x2="74.839" y2="49.779"/><linearGradient id="j"><stop style="stop-color:#000;stop-opacity:1" offset="0"/><stop style="stop-color:#000;stop-opacity:0" offset="1"/></linearGradient><linearGradient y2="31.408" x2="-23.731" y1="31.408" x1="-11.855" gradientTransform="matrix(0 -1 -1 0 52.245 -5.777)" gradientUnits="userSpaceOnUse" id="r" xlink:href="#e"/><linearGradient id="e"><stop offset="0" style="stop-color:#64baff;stop-opacity:1"/><stop offset="1" style="stop-color:#3689e6;stop-opacity:1"/></linearGradient><linearGradient xlink:href="#f" id="s" gradientUnits="userSpaceOnUse" gradientTransform="matrix(-.58604 0 0 .33334 16.116 2.443)" x1="5.032" y1="28.672" x2="5.032" y2="29.672"/><linearGradient id="f"><stop offset="0" style="stop-color:#fff;stop-opacity:1"/><stop offset="0" style="stop-color:#fff;stop-opacity:.23529412"/><stop offset="1" style="stop-color:#fff;stop-opacity:.39215687"/></linearGradient><linearGradient xlink:href="#g" id="t" gradientUnits="userSpaceOnUse" gradientTransform="matrix(-.6896 0 0 .63824 16.381 -5.989)" x1="-2.521" y1="22.402" x2="-2.521" y2="35.269"/><linearGradient id="g"><stop style="stop-color:#fff;stop-opacity:1" offset="0"/><stop style="stop-color:#fff;stop-opacity:.23529412" offset=".52"/><stop style="stop-color:#fff;stop-opacity:.15686275" offset=".52"/><stop style="stop-color:#fff;stop-opacity:.39215687" offset="1"/></linearGradient><radialGradient gradientTransform="matrix(2.00378 0 0 1.4 27.988 -17.4)" gradientUnits="userSpaceOnUse" xlink:href="#h" id="k" fy="43.5" fx="4.993" r="2.5" cy="43.5" cx="4.993"/><radialGradient gradientTransform="matrix(2.00378 0 0 1.4 -20.012 -104.4)" gradientUnits="userSpaceOnUse" xlink:href="#i" id="l" fy="43.5" fx="4.993" r="2.5" cy="43.5" cx="4.993"/><radialGradient gradientTransform="matrix(-.27598 0 0 -.29583 24.324 24.82)" gradientUnits="userSpaceOnUse" xlink:href="#j" id="q" fy="36.421" fx="24.837" r="15.645" cy="36.421" cx="24.837"/></defs><g style="opacity:.4"><path style="fill:url(#k);fill-opacity:1;stroke:none" d="M38 40h5v7h-5z" transform="matrix(.57895 0 0 .42857 -1.895 2.857)"/><path transform="matrix(-.57895 0 0 -.42857 -1.895 2.857)" style="fill:url(#l);fill-opacity:1;stroke:none" d="M-10-47h5v7h-5z"/><path style="fill:url(#m);fill-opacity:1;stroke:none" d="M10 40h28v7H10z" transform="matrix(.57895 0 0 .42857 -1.895 2.857)"/></g><rect style="color:#000;font-variation-settings:normal;display:inline;overflow:visible;visibility:visible;vector-effect:none;fill:url(#n);fill-opacity:1;fill-rule:nonzero;stroke:none;stroke-width:.999999;stroke-linecap:butt;stroke-linejoin:miter;stroke-miterlimit:4;stroke-dasharray:none;stroke-dashoffset:0;stroke-opacity:1;-inkscape-stroke:none;marker:none;enable-background:accumulate;stop-color:#000" y="3" x="3" ry="1.5" rx="1.5" height="18" width="18"/><rect width="19" height="19" rx="2" ry="2" x="2.5" y="2.5" style="color:#000;display:inline;overflow:visible;visibility:visible;opacity:1;vector-effect:none;fill:none;fill-opacity:1;stroke:url(#o);stroke-width:.999922;stroke-linecap:butt;stroke-linejoin:round;stroke-miterlimit:4;stroke-dasharray:none;stroke-dashoffset:0;stroke-opacity:1;marker:none;enable-background:accumulate;font-variation-settings:normal;-inkscape-stroke:none;stop-color:#000;stop-opacity:1"/><rect width="17" height="17" x="3.5" y="3.5" style="opacity:1;fill:none;stroke:url(#p);stroke-width:1;stroke-linecap:round;stroke-linejoin:round;stroke-miterlimit:4;stroke-dasharray:none;stroke-dashoffset:0;stroke-opacity:1" rx="1" ry="1"/><path d="M13.152 14.045a4.318 4.628 0 1 1 8.635 0 4.318 4.628 0 0 1-8.635 0z" style="display:inline;overflow:visible;visibility:visible;opacity:.141176;fill:url(#q);fill-opacity:1;fill-rule:evenodd;stroke:none;stroke-width:1;marker:none"/><path style="font-variation-settings:normal;fill:url(#r);fill-opacity:1;stroke:#002e99;stroke-width:1;stroke-linecap:round;stroke-linejoin:round;stroke-miterlimit:4;stroke-dasharray:none;stroke-dashoffset:0;stroke-opacity:.5;stop-color:#000" d="M16.87 6.5c.13 0 .23.101.286.126l.015.016 6.225 5.103a.364.364 0 0 1 0 .513L17.17 17.36l-.015.016a.38.38 0 0 1-.285.123.358.358 0 0 1-.371-.371v-3.263c0-.199-.182-.365-.393-.365H10.86a.356.356 0 0 1-.361-.367v-2.268c0-.21.155-.367.361-.367h5.281c.194-.019.358-.177.358-.365V6.867c0-.19.223-.367.37-.367Z"/><path d="M16.5 12.5h-5v-1h5" style="font-variation-settings:normal;opacity:.5;fill:none;fill-opacity:1;stroke:url(#s);stroke-width:.999992;stroke-linecap:butt;stroke-linejoin:miter;stroke-miterlimit:4;stroke-dasharray:none;stroke-dashoffset:0;stroke-opacity:1;marker:none;marker-start:none;marker-mid:none;marker-end:none;stop-color:#000"/><path d="M16.441 12.5c.568 0 1.059.878 1.059 1.406v1.864l4.635-3.779-4.635-3.79v2.14c0 .599-.7 1.159-1 1.159" style="font-variation-settings:normal;opacity:.5;fill:none;fill-opacity:1;stroke:url(#t);stroke-width:1;stroke-linecap:butt;stroke-linejoin:miter;stroke-miterlimit:4;stroke-dasharray:none;stroke-dashoffset:0;stroke-opacity:1;marker:none;marker-start:none;marker-mid:none;marker-end:none;stop-color:#000"/></svg>