<svg width="24" height="24" xmlns:xlink="http://www.w3.org/1999/xlink" xmlns="http://www.w3.org/2000/svg"><defs><radialGradient cx="15" cy="1039.7" r="3.527" fx="15" fy="1039.7" id="e" xlink:href="#a" gradientUnits="userSpaceOnUse" gradientTransform="matrix(.5671 -1.1342 1.7013 .85066 -1761.347 171.947)"/><radialGradient cx="15" cy="1039.7" r="3.527" fx="15" fy="1039.7" id="d" xlink:href="#a" gradientUnits="userSpaceOnUse" gradientTransform="matrix(-.5671 -1.1342 -1.7013 .85066 1785.4 171.947)"/><radialGradient cx="12" cy="15.166" r="4.001" fx="12" fy="15.166" id="h" xlink:href="#b" gradientUnits="userSpaceOnUse" gradientTransform="matrix(-.55699 1.39247 -2.49957 -.99983 57.593 1041.816)"/><radialGradient cx="9" cy="1035.527" r="4.001" fx="9" fy="1035.527" id="i" xlink:href="#b" gradientUnits="userSpaceOnUse" gradientTransform="matrix(-1.97955 .28278 -.24994 -1.74967 286.639 2852.651)"/><radialGradient cx="62.625" cy="4.625" r="10.625" fx="62.625" fy="4.625" id="f" xlink:href="#c" gradientUnits="userSpaceOnUse" gradientTransform="matrix(.5647 0 0 .28235 -27.365 1048.056)"/><radialGradient cx="62.625" cy="4.625" r="10.625" fx="62.625" fy="4.625" id="g" xlink:href="#c" gradientUnits="userSpaceOnUse" gradientTransform="matrix(.5647 0 0 .28235 -19.365 1048.056)"/><linearGradient id="b"><stop style="stop-color:#7a0000;stop-opacity:.60000002" offset="0"/><stop style="stop-color:#7a0000;stop-opacity:.80000001" offset="1"/></linearGradient><linearGradient id="a"><stop style="stop-color:#d1d1d1;stop-opacity:1" offset="0"/><stop style="stop-color:#eaeaea;stop-opacity:1" offset="1"/></linearGradient><linearGradient id="c"><stop style="stop-color:#000;stop-opacity:1" offset="0"/><stop style="stop-color:#000;stop-opacity:0" offset="1"/></linearGradient></defs><path d="m11.553 1039.362-5.3-9.8s-3.7 7.8 5.3 12.8z" style="fill:url(#d);fill-opacity:1;stroke:url(#linearGradient3786);stroke-width:1px;stroke-linecap:butt;stroke-linejoin:miter;stroke-opacity:1" transform="translate(0 -1028.362)"/><path d="m12.5 1039.362 5.3-9.8s3.7 7.8-5.3 12.8z" style="fill:url(#e);fill-opacity:1;stroke:url(#linearGradient3780);stroke-width:1px;stroke-linecap:butt;stroke-linejoin:miter;stroke-opacity:1" transform="translate(0 -1028.362)"/><path d="M14 1049.362c0 1.657-2.686 3-6 3s-6-1.343-6-3 2.686-3 6-3 6 1.343 6 3z" style="display:inline;overflow:visible;visibility:visible;opacity:.4;fill:url(#f);fill-opacity:1;fill-rule:evenodd;stroke:none;stroke-width:1;marker:none" transform="translate(0 -1028.362)"/><path d="M22 1049.362c0 1.657-2.686 3-6 3s-6-1.343-6-3 2.686-3 6-3 6 1.343 6 3z" style="display:inline;overflow:visible;visibility:visible;opacity:.4;fill:url(#g);fill-opacity:1;fill-rule:evenodd;stroke:none;stroke-width:1;marker:none" transform="translate(0 -1028.362)"/><path d="M14 1042.362c-.685.147-1.54 1.109-1.5 3.5.05 3 2.187 4 3.5 4 1.313 0 3.5-1.041 3.5-4 0-2.958-4.815-3.647-5.5-3.5zm.438 1.875s5.239.892 2.25 3.125c-2.689 2.009-2.25-3.125-2.25-3.125z" style="fill:#ee5050;fill-opacity:1;stroke:url(#h);stroke-width:1px;stroke-linecap:butt;stroke-linejoin:miter;stroke-opacity:1" transform="translate(0 -1028.362)"/><path d="M9.563 1042.362c-1.38.074-5.063.911-5.063 3.5 0 2.959 2.187 4.004 3.5 4 1.313 0 3.45-1 3.5-4 .04-2.391-.815-3.353-1.5-3.5-.086-.018-.24-.01-.438 0zm0 1.875s.438 5.134-2.25 3.125c-2.99-2.233 2.25-3.125 2.25-3.125z" style="fill:#ee5050;fill-opacity:1;stroke:url(#i);stroke-width:1px;stroke-linecap:butt;stroke-linejoin:miter;stroke-opacity:1" transform="translate(0 -1028.362)"/></svg>