<svg xmlns="http://www.w3.org/2000/svg" xmlns:xlink="http://www.w3.org/1999/xlink" height="24" width="24"><defs><linearGradient id="b"><stop offset="0" style="stop-color:#fff;stop-opacity:1"/><stop offset=".501" style="stop-color:#fff;stop-opacity:.23529412"/><stop offset="1" style="stop-color:#fff;stop-opacity:.15686275"/><stop offset="1" style="stop-color:#fff;stop-opacity:.39215687"/></linearGradient><linearGradient id="a"><stop style="stop-color:#fff;stop-opacity:1" offset="0"/><stop style="stop-color:#fff;stop-opacity:.23529412" offset=".589"/><stop style="stop-color:#fff;stop-opacity:.15686275" offset="1"/><stop style="stop-color:#fff;stop-opacity:.39215687" offset="1"/></linearGradient><linearGradient id="c"><stop style="stop-color:#fff;stop-opacity:1" offset="0"/><stop style="stop-color:#fff;stop-opacity:.23529412" offset=".52"/><stop style="stop-color:#fff;stop-opacity:.15686275" offset=".52"/><stop style="stop-color:#fff;stop-opacity:.39215687" offset="1"/></linearGradient><linearGradient y2="35.272" x2="5.885" y1="27.314" x1="5.885" gradientTransform="matrix(1.00464 0 0 1 7.088 -16.172)" gradientUnits="userSpaceOnUse" id="h" xlink:href="#a"/><linearGradient xlink:href="#b" id="g" gradientUnits="userSpaceOnUse" gradientTransform="matrix(1.00464 0 0 1 7.088 -16.172)" x1="5.885" y1="20.383" x2="5.885" y2="38.172"/><linearGradient xlink:href="#c" id="f" gradientUnits="userSpaceOnUse" gradientTransform="matrix(1.00464 0 0 1 12.088 -16.172)" x1="-2.521" y1="22.402" x2="-2.521" y2="35.269"/><linearGradient y2="13.364" x2="-22.384" y1="-3.866" x1="-22.384" gradientTransform="translate(28.441 7.688)" gradientUnits="userSpaceOnUse" id="e" xlink:href="#d"/><linearGradient id="d"><stop offset="0" style="stop-color:#ffe16b;stop-opacity:1"/><stop offset="1" style="stop-color:#f9c440;stop-opacity:1"/></linearGradient></defs><path style="font-variation-settings:normal;vector-effect:none;fill:url(#e);fill-opacity:1;stroke:#ad5f00;stroke-width:1;stroke-linecap:round;stroke-linejoin:round;stroke-miterlimit:4;stroke-dasharray:none;stroke-dashoffset:0;stroke-opacity:.5;stop-color:#000" d="M11 4.5a.491.491 0 0 0-.395.19l-7.968 6.968A.487.487 0 0 0 2.5 12c0 .135.05.25.137.342l7.968 6.969a.491.491 0 0 0 .395.19.49.49 0 0 0 .5-.501v-4a.5.5 0 0 1 .5-.5h1c3 0 5.935 2.5 5.99 5.25 0 .415.335.75.75.75.496 0 .76-.265.76-.75V17c.084-4-2.5-7.5-7.5-7.5h-1a.5.5 0 0 1-.5-.5V5c0-.286-.214-.5-.5-.5z"/><path d="M12 13.502c-.827 0-1.497.67-1.498 1.498v2.92L3.705 12l6.797-5.938V9.01c0 .827.671 1.498 1.498 1.498" style="font-variation-settings:normal;opacity:.8;vector-effect:none;fill:none;fill-opacity:1;stroke:url(#f);stroke-width:1;stroke-linecap:butt;stroke-linejoin:miter;stroke-miterlimit:4;stroke-dasharray:none;stroke-dashoffset:0;stroke-opacity:1;marker:none;marker-start:none;marker-mid:none;marker-end:none;stop-color:#000"/><path style="font-variation-settings:normal;opacity:.5;vector-effect:none;fill:none;fill-opacity:1;stroke:url(#g);stroke-width:1;stroke-linecap:butt;stroke-linejoin:miter;stroke-miterlimit:4;stroke-dasharray:none;stroke-dashoffset:0;stroke-opacity:1;marker:none;marker-start:none;marker-mid:none;marker-end:none;stop-color:#000" d="M12 13.504h1c4 0 6.743 3.224 6.743 6.496"/><path d="M19.504 17c0-3.57-1.88-6.5-6.504-6.5h-1" style="font-variation-settings:normal;opacity:.8;vector-effect:none;fill:none;fill-opacity:1;stroke:url(#h);stroke-width:1;stroke-linecap:butt;stroke-linejoin:miter;stroke-miterlimit:4;stroke-dasharray:none;stroke-dashoffset:0;stroke-opacity:1;marker:none;marker-start:none;marker-mid:none;marker-end:none;stop-color:#000"/></svg>