<svg xmlns="http://www.w3.org/2000/svg" xmlns:xlink="http://www.w3.org/1999/xlink" width="24" height="24"><defs><linearGradient id="a"><stop style="stop-color:#fff;stop-opacity:1" offset="0"/><stop style="stop-color:#fff;stop-opacity:.23529412" offset="0"/><stop style="stop-color:#fff;stop-opacity:.39215687" offset="1"/></linearGradient><linearGradient id="b"><stop offset="0" style="stop-color:#9bdb4d;stop-opacity:1"/><stop offset="1" style="stop-color:#68b723;stop-opacity:1"/></linearGradient><linearGradient id="c"><stop offset="0" style="stop-color:#fff;stop-opacity:1"/><stop offset=".52" style="stop-color:#fff;stop-opacity:.23529412"/><stop offset=".52" style="stop-color:#fff;stop-opacity:.15686275"/><stop offset="1" style="stop-color:#fff;stop-opacity:.39215687"/></linearGradient><linearGradient y2="29.672" x2="5.032" y1="27.672" x1="5.032" gradientTransform="matrix(.87906 0 0 1 13.577 -16.672)" gradientUnits="userSpaceOnUse" id="g" xlink:href="#a"/><linearGradient id="d"><stop offset="0" style="stop-color:#000;stop-opacity:1"/><stop offset="1" style="stop-color:#000;stop-opacity:0"/></linearGradient><linearGradient y2="19.998" x2="12" y1="4" x1="12" gradientTransform="matrix(-1 0 0 1 24 1)" gradientUnits="userSpaceOnUse" id="f" xlink:href="#b"/><linearGradient y2="35.269" x2="-2.521" y1="22.402" x1="-2.521" gradientTransform="matrix(1.00464 0 0 1 13.143 -16.18)" gradientUnits="userSpaceOnUse" id="h" xlink:href="#c"/><radialGradient gradientTransform="matrix(-.52995 0 0 -.35308 22.513 21.836)" gradientUnits="userSpaceOnUse" xlink:href="#d" id="e" fy="36.421" fx="24.837" r="15.645" cy="36.421" cx="24.837"/></defs><path style="display:inline;overflow:visible;visibility:visible;opacity:.141176;fill:url(#e);fill-opacity:1;fill-rule:evenodd;stroke:none;stroke-width:1;marker:none" d="M1.059 8.976a8.291 5.524 0 1 1 16.582 0 8.291 5.524 0 0 1-16.582 0z" transform="translate(3.94 8.548)"/><path d="M11.966 4.514v.004a.53.53 0 0 0-.394.168l-.022.021-7.892 6.95a.491.491 0 0 0 0 .697l7.892 6.949.022.021a.53.53 0 0 0 .394.168c.302 0 .527-.215.527-.506v-3.988c0-.271.238-.498.53-.498H21c.286 0 .5-.214.5-.5v-4c0-.286-.214-.5-.5-.5h-8.026c-.268-.025-.48-.241-.48-.496v-3.99c0-.29-.226-.5-.528-.5z" style="font-variation-settings:normal;opacity:1;vector-effect:none;fill:url(#f);fill-opacity:1;stroke:#206b00;stroke-width:1;stroke-linecap:round;stroke-linejoin:round;stroke-miterlimit:4;stroke-dasharray:none;stroke-dashoffset:0;stroke-opacity:.5;stop-color:#000;stop-opacity:1"/><path style="font-variation-settings:normal;opacity:.6;vector-effect:none;fill:none;fill-opacity:1;stroke:url(#g);stroke-width:.999992;stroke-linecap:butt;stroke-linejoin:miter;stroke-miterlimit:4;stroke-dasharray:none;stroke-dashoffset:0;stroke-opacity:1;marker:none;marker-start:none;marker-mid:none;marker-end:none;stop-color:#000" d="M13 13.5h7.5v-3H13"/><path style="font-variation-settings:normal;opacity:.5;vector-effect:none;fill:none;fill-opacity:1;stroke:url(#h);stroke-width:1;stroke-linecap:butt;stroke-linejoin:miter;stroke-miterlimit:4;stroke-dasharray:none;stroke-dashoffset:0;stroke-opacity:1;marker:none;marker-start:none;marker-mid:none;marker-end:none;stop-color:#000" d="M13.056 13.494c-.828 0-1.556.67-1.556 1.498v2.92l-6.74-5.92 6.74-5.938v2.948c0 .827.728 1.498 1.556 1.498"/></svg>