<svg width="24" height="24" xmlns:xlink="http://www.w3.org/1999/xlink" xmlns="http://www.w3.org/2000/svg"><defs><linearGradient id="d"><stop style="stop-color:#000;stop-opacity:.31999999" offset="0"/><stop style="stop-color:#000;stop-opacity:.38" offset="1"/></linearGradient><linearGradient id="a"><stop style="stop-color:#fff;stop-opacity:1" offset="0"/><stop style="stop-color:#fff;stop-opacity:.2" offset="1"/></linearGradient><linearGradient id="b"><stop style="stop-color:#fafafa;stop-opacity:1" offset="0"/><stop style="stop-color:#959595;stop-opacity:1" offset="1"/></linearGradient><linearGradient x1="63.999" y1="3.1" x2="63.999" y2="122.899" id="c" gradientUnits="userSpaceOnUse"><stop style="stop-color:#f6f6f6;stop-opacity:1" offset="0"/><stop style="stop-color:#d2d2d2;stop-opacity:1" offset="1"/></linearGradient><linearGradient id="f"><stop style="stop-color:#000;stop-opacity:1" offset="0"/><stop style="stop-color:#000;stop-opacity:0" offset="1"/></linearGradient><linearGradient xlink:href="#a" id="j" gradientUnits="userSpaceOnUse" x1="12" y1="16" x2="12" y2="8" gradientTransform="translate(-.14 -.14) scale(1.0116)"/><linearGradient xlink:href="#b" id="i" gradientUnits="userSpaceOnUse" gradientTransform="translate(2.77 2.915) scale(.14421)" x1="86.133" y1="105.105" x2="84.639" y2="20.895"/><linearGradient xlink:href="#c" id="h" gradientUnits="userSpaceOnUse" gradientTransform="translate(-12.111 -13.667) scale(.77778)" x1="32.036" y1="19" x2="32.036" y2="47.012"/><linearGradient xlink:href="#d" id="k" x1="12" y1="1.5" x2="12" y2="22.5" gradientUnits="userSpaceOnUse"/><linearGradient x1="12.479" y1="2" x2="12.479" y2="22.007" id="l" xlink:href="#e" gradientUnits="userSpaceOnUse" gradientTransform="matrix(.99417 0 0 .9943 .071 .068)"/><linearGradient id="e"><stop style="stop-color:#fff;stop-opacity:1" offset="0"/><stop style="stop-color:#fff;stop-opacity:0" offset="1"/></linearGradient><radialGradient xlink:href="#f" id="g" gradientUnits="userSpaceOnUse" gradientTransform="matrix(1.6601 0 0 .36315 .873 -5.359)" cx="6.703" cy="73.616" fx="6.703" fy="73.616" r="7.228"/></defs><path style="opacity:.2;fill:url(#g);fill-opacity:1;fill-rule:nonzero;stroke:none;stroke-width:.80000001;marker:none;visibility:visible;display:inline;overflow:visible" d="M24 21.375C24 22.825 18.627 24 12 24S0 22.825 0 21.375s5.373-2.625 12-2.625 12 1.175 12 2.625z"/><path style="color:#000;fill:url(#h);fill-opacity:1;fill-rule:nonzero;stroke:none;stroke-width:1;stroke-linecap:butt;stroke-linejoin:round;stroke-miterlimit:4;stroke-opacity:1;stroke-dasharray:none;stroke-dashoffset:0;marker:none;visibility:visible;display:block;overflow:visible;enable-background:accumulate" d="M10.5 1.5c-.554 0-1 .446-1 1v1.375a8.545 8.545 0 0 0-1.469.594L7.062 3.5a1.026 1.026 0 0 0-1.437 0L3.5 5.625a1.026 1.026 0 0 0 0 1.438l.969.968A8.545 8.545 0 0 0 3.875 9.5H2.5c-.554 0-1 .446-1 1v3c0 .554.446 1 1 1h1.375a8.52 8.52 0 0 0 .594 1.469l-.969.969a1.026 1.026 0 0 0 0 1.437L5.625 20.5a1.026 1.026 0 0 0 1.438 0l.968-.969a8.52 8.52 0 0 0 1.469.594V21.5c0 .554.446 1 1 1h3c.554 0 1-.446 1-1v-1.375a8.545 8.545 0 0 0 1.469-.594l.969.969a1.026 1.026 0 0 0 1.437 0l2.125-2.125a1.026 1.026 0 0 0 0-1.438l-.969-.968a8.52 8.52 0 0 0 .594-1.469H21.5c.554 0 1-.446 1-1v-3c0-.554-.446-1-1-1h-1.375a8.545 8.545 0 0 0-.594-1.469l.969-.969a1.026 1.026 0 0 0 0-1.437L18.375 3.5a1.026 1.026 0 0 0-1.438 0l-.968.969a8.545 8.545 0 0 0-1.469-.594V2.5c0-.554-.446-1-1-1h-3zm1.5 8a2.5 2.5 0 1 1 0 5 2.5 2.5 0 0 1 0-5z"/><path style="opacity:.05;fill:#000;fill-opacity:1;stroke:none" d="M12 6c-3.31 0-6 2.69-6 6s2.69 6 6 6 6-2.69 6-6-2.69-6-6-6zm0 3a3 3 0 1 1 0 6 3 3 0 0 1 0-6z"/><path style="fill:none;stroke:url(#i);stroke-width:.999997;stroke-miterlimit:4;stroke-dasharray:none" d="M12 6c-3.308 0-6 2.692-6 6s2.692 6 6 6 6-2.692 6-6-2.692-6-6-6z"/><path style="opacity:.4;color:#000;fill:none;stroke:url(#j);stroke-width:.99999994;stroke-opacity:1;marker:none;visibility:visible;display:block;overflow:visible;enable-background:accumulate" d="M15.5 12a3.5 3.5 0 1 1-7 0 3.5 3.5 0 1 1 7 0z"/><path style="enable-background:accumulate;marker:none;stroke-dashoffset:0;stroke-dasharray:none;stroke-miterlimit:4;stroke-linejoin:round;stroke-linecap:butt;stroke-width:1;fill-rule:nonzero;fill-opacity:1;fill:none;opacity:1;visibility:visible;overflow:visible;display:block;color:#000;stroke:url(#k);stroke-opacity:1" d="M10.5 1.5c-.554 0-1 .446-1 1v1.375a8.545 8.545 0 0 0-1.469.594L7.062 3.5a1.026 1.026 0 0 0-1.437 0L3.5 5.625a1.026 1.026 0 0 0 0 1.438l.969.968A8.545 8.545 0 0 0 3.875 9.5H2.5c-.554 0-1 .446-1 1v3c0 .554.446 1 1 1h1.375a8.52 8.52 0 0 0 .594 1.469l-.969.969a1.026 1.026 0 0 0 0 1.437L5.625 20.5a1.026 1.026 0 0 0 1.438 0l.968-.969a8.52 8.52 0 0 0 1.469.594V21.5c0 .554.446 1 1 1h3c.554 0 1-.446 1-1v-1.375a8.545 8.545 0 0 0 1.469-.594l.969.969a1.026 1.026 0 0 0 1.437 0l2.125-2.125a1.026 1.026 0 0 0 0-1.438l-.969-.968a8.52 8.52 0 0 0 .594-1.469H21.5c.554 0 1-.446 1-1v-3c0-.554-.446-1-1-1h-1.375a8.545 8.545 0 0 0-.594-1.469l.969-.969a1.026 1.026 0 0 0 0-1.437L18.375 3.5a1.026 1.026 0 0 0-1.438 0l-.968.969a8.545 8.545 0 0 0-1.469-.594V2.5c0-.554-.446-1-1-1h-3zm1.5 8a2.5 2.5 0 1 1 0 5 2.5 2.5 0 0 1 0-5z"/><path d="M10.51 2.523c-.074.387-.01.896-.031 1.329.064.774-.766 1.047-1.36 1.21-.544.309-1.342.668-1.827.053l-.883-.883c-.43.285-.78.759-1.18 1.117-.317.359-.75.67-.995 1.058.405.487 1.043.833 1.219 1.469-.025.794-.537 1.52-.808 2.254-.499.56-1.307.279-1.963.347-.342-.012-.07.583-.156.821 0 .741-.003 1.482.001 2.223.642.064 1.35-.15 1.934.178.553.576.672 1.466 1.001 2.177.042.748-.728 1.12-1.142 1.631-.216.271.383.502.513.747l1.514 1.514c.52-.303.835-.983 1.437-1.198.81-.106 1.505.543 2.27.73.647.45.362 1.303.425 1.964-.088.416.525.129.764.213.76-.001 1.52.002 2.279-.002.064-.642-.15-1.35.178-1.934.576-.553 1.466-.672 2.176-1.001.749-.042 1.12.728 1.632 1.143.27.216.501-.384.746-.513l1.514-1.515c-.303-.52-.983-.835-1.198-1.437-.106-.81.544-1.505.73-2.27.45-.648 1.303-.362 1.964-.425.416.088.129-.525.213-.765-.001-.76.002-1.52-.002-2.279-.642-.064-1.349.15-1.934-.178-.552-.576-.672-1.466-1-2.177-.042-.748.727-1.12 1.142-1.631.216-.271-.383-.502-.513-.747l-1.514-1.514c-.52.303-.835.983-1.437 1.198-.81.106-1.505-.543-2.271-.73-.647-.45-.361-1.303-.424-1.964.088-.416-.525-.129-.765-.213H10.51z" style="color:#000;display:block;overflow:visible;visibility:visible;opacity:.8;fill:none;stroke:url(#l);stroke-width:1;stroke-linecap:butt;stroke-linejoin:round;stroke-miterlimit:4;stroke-dasharray:none;stroke-dashoffset:0;stroke-opacity:1;marker:none;enable-background:accumulate"/></svg>