<svg xmlns="http://www.w3.org/2000/svg" height="16" width="16"><title>elementary Symbolic Icon Theme</title><g stroke-width="2.813"><path d="M8.885 1C5.18 1 2.13 3.44 1.797 7H0l2.654 3.333L5.31 7H3.576c.328-2.596 2.583-4.26 5.309-4.26 2.95 0 5.345 2.356 5.345 5.26s-2.394 5.26-5.345 5.26a5.37 5.37 0 0 1-4.019-1.793l-1.3 1.185A7.145 7.145 0 0 0 8.886 15C12.812 15 16 11.864 16 8s-3.188-7-7.115-7z" style="marker:none" overflow="visible"/><path d="M9.333 3.667h-.666L8 8.333 11.333 11v-.667l-2-2.666v-4z" style="marker:none" overflow="visible"/></g></svg>