<?xml version="1.0" encoding="UTF-8" standalone="no"?>
<!-- Created with Inkscape (http://www.inkscape.org/) -->

<svg
   xmlns:dc="http://purl.org/dc/elements/1.1/"
   xmlns:cc="http://creativecommons.org/ns#"
   xmlns:rdf="http://www.w3.org/1999/02/22-rdf-syntax-ns#"
   xmlns:svg="http://www.w3.org/2000/svg"
   xmlns="http://www.w3.org/2000/svg"
   xmlns:xlink="http://www.w3.org/1999/xlink"
   xmlns:inkscape="http://www.inkscape.org/namespaces/inkscape"
   version="1.1"
   width="48"
   height="48"
   id="svg21169">
  <defs
     id="defs21171">
    <linearGradient
       x1="42.470848"
       y1="11.952797"
       x2="42.470848"
       y2="35.581654"
       id="linearGradient3381-56-2-7-5-0-8-0-0-4-6-1"
       xlink:href="#linearGradient3454-2-8-6-1-1-8-0-6-7-3-1"
       gradientUnits="userSpaceOnUse"
       gradientTransform="matrix(0.89189031,0,0,1.0580283,3.1206609,5.3536023)" />
    <linearGradient
       id="linearGradient3454-2-8-6-1-1-8-0-6-7-3-1">
      <stop
         id="stop3456-4-7-9-4-0-3-6-2-9-6-7"
         style="stop-color:#ffffff;stop-opacity:1"
         offset="0" />
      <stop
         id="stop3458-39-0-8-61-3-8-9-0-4-7-1"
         style="stop-color:#ffffff;stop-opacity:0.23529412"
         offset="0.0097359" />
      <stop
         id="stop3460-7-5-4-1-6-6-6-2-1-4-0"
         style="stop-color:#ffffff;stop-opacity:0.15686275"
         offset="0.99001008" />
      <stop
         id="stop3462-0-5-6-6-2-1-6-0-3-1-3"
         style="stop-color:#ffffff;stop-opacity:0.39215687"
         offset="1" />
    </linearGradient>
    <linearGradient
       x1="22.934725"
       y1="49.629246"
       x2="22.809399"
       y2="36.657963"
       id="linearGradient3072-0-3-0-7-4-8-7-3-6-5"
       xlink:href="#linearGradient6129-963-697-142-998-580-273-0-8-4-9-0-0-0-1-3-6"
       gradientUnits="userSpaceOnUse"
       gradientTransform="matrix(1.1446925,0,0,0.9977536,-3.4660853,1.0988278)" />
    <linearGradient
       id="linearGradient6129-963-697-142-998-580-273-0-8-4-9-0-0-0-1-3-6">
      <stop
         id="stop2661-3-02-4-8-0-4-3-4-7-9"
         style="stop-color:#0a0a0a;stop-opacity:0.498"
         offset="0" />
      <stop
         id="stop2663-2-8-06-2-4-6-4-3-8-8"
         style="stop-color:#0a0a0a;stop-opacity:0"
         offset="1" />
    </linearGradient>
    <linearGradient
       x1="35.792694"
       y1="17.118193"
       x2="35.792694"
       y2="43.761127"
       id="linearGradient4638-4-6-8-9-9-5-8-7-2-3"
       xlink:href="#linearGradient4632-0-6-4"
       gradientUnits="userSpaceOnUse"
       gradientTransform="matrix(1,0,0,1.0357143,1.4680025e-5,-1.5891022)" />
    <linearGradient
       id="linearGradient4632-0-6-4">
      <stop
         id="stop4634-4-4-7"
         style="stop-color:#b4cee1;stop-opacity:1"
         offset="0" />
      <stop
         id="stop4636-3-1-5"
         style="stop-color:#5d9fcd;stop-opacity:1"
         offset="1" />
    </linearGradient>
    <radialGradient
       cx="605.71429"
       cy="486.64789"
       r="117.14286"
       fx="605.71429"
       fy="486.64789"
       id="radialGradient3080-2-3-9-9-8-8-9-6-1-3"
       xlink:href="#linearGradient5060-820-9-0-7-1-7-7-1-6-6-0"
       gradientUnits="userSpaceOnUse"
       gradientTransform="matrix(-0.03079083,0,0,0.02470588,23.389815,31.941628)" />
    <linearGradient
       id="linearGradient5060-820-9-0-7-1-7-7-1-6-6-0">
      <stop
         id="stop2681-5-4-3-6-3-8-2-6-8-6"
         style="stop-color:#000000;stop-opacity:1"
         offset="0" />
      <stop
         id="stop2683-8-6-9-4-6-6-2-9-6-6"
         style="stop-color:#000000;stop-opacity:0"
         offset="1" />
    </linearGradient>
    <radialGradient
       cx="605.71429"
       cy="486.64789"
       r="117.14286"
       fx="605.71429"
       fy="486.64789"
       id="radialGradient3083-4-5-6-4-5-0-5-1-0-7"
       xlink:href="#linearGradient5060-179-2-0-3-6-2-2-8-9-8-8"
       gradientUnits="userSpaceOnUse"
       gradientTransform="matrix(0.03079083,0,0,0.02470588,24.610215,31.941628)" />
    <linearGradient
       id="linearGradient5060-179-2-0-3-6-2-2-8-9-8-8">
      <stop
         id="stop2675-9-9-4-1-4-4-9-5-7-2"
         style="stop-color:#000000;stop-opacity:1"
         offset="0" />
      <stop
         id="stop2677-1-7-2-6-1-8-3-8-0-8"
         style="stop-color:#000000;stop-opacity:0"
         offset="1" />
    </linearGradient>
    <linearGradient
       x1="302.85715"
       y1="366.64789"
       x2="302.85715"
       y2="609.50507"
       id="linearGradient3086-4-4-0-5-5-7-4-8-7-0"
       xlink:href="#linearGradient5048-585-4-0-56-2-5-2-1-1-6-8"
       gradientUnits="userSpaceOnUse"
       gradientTransform="matrix(0.07938856,0,0,0.02470588,-4.6932853,31.941628)" />
    <linearGradient
       id="linearGradient5048-585-4-0-56-2-5-2-1-1-6-8">
      <stop
         id="stop2667-5-0-7-4-7-7-2-4-6-2"
         style="stop-color:#000000;stop-opacity:0"
         offset="0" />
      <stop
         id="stop2669-4-1-8-0-6-9-3-7-4-6"
         style="stop-color:#000000;stop-opacity:1"
         offset="0.5" />
      <stop
         id="stop2671-2-6-3-2-0-6-0-0-8-2"
         style="stop-color:#000000;stop-opacity:0"
         offset="1" />
    </linearGradient>
    <linearGradient
       x1="21.37039"
       y1="4.2476678"
       x2="21.37039"
       y2="34.143417"
       id="linearGradient3381-5-5-29-4-6-5-0-4-9-2-5"
       xlink:href="#linearGradient4507-9-2-2-3-6-9-9-4-9-0"
       gradientUnits="userSpaceOnUse"
       gradientTransform="matrix(0.89189031,0,0,1.0580283,3.1207147,5.3535878)" />
    <linearGradient
       id="linearGradient4507-9-2-2-3-6-9-9-4-9-0">
      <stop
         id="stop4509-9-8-4-2-3-4-5-1-6-1"
         style="stop-color:#ffffff;stop-opacity:1"
         offset="0" />
      <stop
         id="stop4511-7-50-2-1-3-9-4-5-9-8"
         style="stop-color:#ffffff;stop-opacity:0.23529412"
         offset="0.07395859" />
      <stop
         id="stop4513-2-0-2-9-2-6-2-6-3-0"
         style="stop-color:#ffffff;stop-opacity:0.15686275"
         offset="0.99001008" />
      <stop
         id="stop4515-3-9-8-6-6-0-7-5-8-6"
         style="stop-color:#ffffff;stop-opacity:0.39215687"
         offset="1" />
    </linearGradient>
    <linearGradient
       x1="62.988873"
       y1="13"
       x2="62.988873"
       y2="16"
       id="linearGradient3089-5-2-9-8-6-8-0-7-1-8-7-4"
       xlink:href="#linearGradient4646-6-91-5-0-5-8-4-9-9-6"
       gradientUnits="userSpaceOnUse"
       gradientTransform="translate(-50.94088,-1.2229149e-5)" />
    <linearGradient
       id="linearGradient4646-6-91-5-0-5-8-4-9-9-6">
      <stop
         id="stop4648-2-4-6-6-8-7-1-1-7-5"
         style="stop-color:#f9f9f9;stop-opacity:1"
         offset="0" />
      <stop
         id="stop4650-3-8-5-3-4-5-7-4-8-2"
         style="stop-color:#d8d8d8;stop-opacity:1"
         offset="1" />
    </linearGradient>
    <linearGradient
       id="linearGradient3104-8-8-97-4-6-2-0-1-4-0-5-8-3-5-7">
      <stop
         id="stop3106-5-4-3-5-0-1-61-9-2-7-3-3-1-3-4"
         style="stop-color:#000000;stop-opacity:0.32173914"
         offset="0" />
      <stop
         id="stop3108-4-3-7-8-2-4-01-9-9-0-6-4-4-0-4"
         style="stop-color:#000000;stop-opacity:0.27826086"
         offset="1" />
    </linearGradient>
    <linearGradient
       x1="-51.786404"
       y1="53.514328"
       x2="-51.786404"
       y2="3.6336823"
       id="linearGradient21167"
       xlink:href="#linearGradient3104-8-8-97-4-6-2-0-1-4-0-5-8-3-5-7"
       gradientUnits="userSpaceOnUse"
       gradientTransform="matrix(0.80749834,0,0,0.83374395,106.8767,-0.06985223)" />
    <filter
       color-interpolation-filters="sRGB"
       id="filter7554">
      <feBlend
         in2="BackgroundImage"
         mode="darken"
         id="feBlend7556" />
    </filter>
    <linearGradient
       id="linearGradient5606">
      <stop
         id="stop5608"
         style="stop-color:#000000;stop-opacity:1"
         offset="0" />
    </linearGradient>
  </defs>
  <metadata
     id="metadata21174">
    <rdf:RDF>
      <cc:Work
         rdf:about="">
        <dc:format>image/svg+xml</dc:format>
        <dc:type
           rdf:resource="http://purl.org/dc/dcmitype/StillImage" />
        <dc:title />
      </cc:Work>
    </rdf:RDF>
  </metadata>
  <g
     id="layer1">
    <path
       d="m 5.5000147,8.4999878 c -0.554,0 -1,0.446 -1,1 l 0,2.0000002 -1,0 c -0.554,0 -1,0.446 -1,1 l 0,6 c 0,0.554 0.446,1 1,1 l 40.9999903,0 c 0.554,0 1,-0.446 1,-1 l 0,-6 c 0,-0.554 -0.446,-1 -1,-1 l -22.99999,0 0,-2.0000002 c 0,-0.554 -0.446,-1 -1,-1 l -15.0000003,0 z"
       inkscape:connector-curvature="0"
       id="rect4251-0-0-1-1-9-5-2-3-2-5-9"
       style="opacity:0.8;color:#000000;fill:none;stroke:url(#linearGradient21167);stroke-width:1;stroke-linecap:butt;stroke-linejoin:miter;stroke-miterlimit:4;stroke-opacity:1;stroke-dasharray:none;stroke-dashoffset:0;marker:none;visibility:visible;display:inline;overflow:visible;enable-background:accumulate" />
    <path
       d="m 5.5000147,8.9999878 c -0.277,0 -0.5,0.223 -0.5,0.5 l 0,2.5000002 -1.5,0 c -0.277,0 -0.5,0.223 -0.5,0.5 l 0,6 c 0,0.277 0.223,0.5 0.5,0.5 l 40.9999903,0 c 0.277,0 0.5,-0.223 0.5,-0.5 l 0,-6 c 0,-0.277 -0.223,-0.5 -0.5,-0.5 l -23.49999,0 0,-2.5000002 c 0,-0.277 -0.223,-0.5 -0.5,-0.5 l -15.0000003,0 z"
       inkscape:connector-curvature="0"
       id="rect4251-4-7-62-4-4-9-2-5-6-0"
       style="color:#000000;fill:url(#linearGradient3089-5-2-9-8-6-8-0-7-1-8-7-4);fill-opacity:1;fill-rule:nonzero;stroke:none;stroke-width:0.99992168;marker:none;visibility:visible;display:inline;overflow:visible;enable-background:accumulate" />
    <path
       d="m 5.5000147,9.4999878 0,3.0000002 -2,0 0,7 40.9999903,0 0,-7 -23.99999,0 0,-3.0000002 -15.0000003,0 z"
       inkscape:connector-curvature="0"
       id="rect4251-9-9-0-05-2-0-5-9-2-3-8"
       style="color:#000000;fill:none;stroke:url(#linearGradient3381-5-5-29-4-6-5-0-4-9-2-5);stroke-width:1;stroke-linecap:round;stroke-linejoin:round;stroke-miterlimit:4;stroke-opacity:1;stroke-dasharray:none;stroke-dashoffset:0;marker:none;visibility:visible;display:inline;overflow:visible;enable-background:accumulate" />
    <rect
       width="38.333332"
       height="6.0000005"
       x="4.8333807"
       y="41"
       id="rect4173-6-7-7-3-5-1-4-5-7-0"
       style="opacity:0.3;fill:url(#linearGradient3086-4-4-0-5-5-7-4-8-7-0);fill-opacity:1;fill-rule:nonzero;stroke:none;stroke-width:1;marker:none;visibility:visible;display:inline;overflow:visible" />
    <path
       d="m 43.166705,41.000198 c 0,0 0,5.99967 0,5.99967 1.5856,0.0113 3.8333,-1.34422 3.8333,-3.00022 0,-1.656 -1.7695,-2.99945 -3.8333,-2.99945 z"
       inkscape:connector-curvature="0"
       id="path5058-7-9-1-3-0-3-4-8-9-3"
       style="opacity:0.3;fill:url(#radialGradient3083-4-5-6-4-5-0-5-1-0-7);fill-opacity:1;fill-rule:nonzero;stroke:none;stroke-width:1;marker:none;visibility:visible;display:inline;overflow:visible" />
    <path
       d="m 4.8333147,41.000198 c 0,0 0,5.99967 0,5.99967 -1.5856,0.0113 -3.8333,-1.34422 -3.8333,-3.00022 0,-1.656 1.7695,-2.99945 3.8333,-2.99945 z"
       inkscape:connector-curvature="0"
       id="path5018-8-1-1-6-9-4-9-7-5-7"
       style="opacity:0.3;fill:url(#radialGradient3080-2-3-9-9-8-8-9-6-1-3);fill-opacity:1;fill-rule:nonzero;stroke:none;stroke-width:1;marker:none;visibility:visible;display:inline;overflow:visible" />
    <path
       d="m 2.1626147,15.500178 c -1.0723,0.12829 -0.4996,1.45416 -0.5851,2.19974 0.1245,0.48182 0.9275,26.17643 0.9275,26.17643 0,0.7414 0.3517,0.61579 1.2429,0.61579 13.1886003,0 27.7725903,0 40.9610903,0 0.9601,0.0231 0.7572,0.0121 0.7572,-0.62748 0,0 0.993,-27.35421 1.0285,-27.7811 0,-0.44949 0.09,-0.58338 -0.4732,-0.58338 -14.084,0 -29.77479,0 -43.8588903,0 z"
       inkscape:connector-curvature="0"
       id="path3388-1-43-0-7-6-2-7-8-5-7"
       style="fill:url(#linearGradient4638-4-6-8-9-9-5-8-7-2-3);fill-opacity:1;stroke:none" />
    <path
       d="m 2.0582147,16.065138 43.8964903,4e-4 c 0.6342,0 1.0452,0.44461 1.0452,0.99737 l -1.0324,26.96037 c 0.015,0.6994 -0.2091,0.97671 -0.9459,0.96204 l -41.7807903,-0.0176 c -0.6341,0 -1.2736,-0.41276 -1.2736,-0.96551 l -0.9541,-26.93932 c 0,-0.55276 0.411,-0.99775 1.0451,-0.99775 z"
       inkscape:connector-curvature="0"
       id="path6127-7-1-6-4-8-5-0-8-2-3"
       style="opacity:0.4;fill:url(#linearGradient3072-0-3-0-7-4-8-7-3-6-5);fill-opacity:1;stroke:none" />
    <path
       d="m 2.5,17.5 c 0.016793,0.176427 0.022163,0.517935 0.03125,0.875 0.023112,0.08641 0.025524,0.05923 0.03125,0.09375 0.011058,0.06665 0.027034,0.138257 0.03125,0.1875 0.0064,0.07474 -0.00668,0.173042 0,0.28125 0.013352,0.216416 0.045306,0.510844 0.0625,0.875 0.034388,0.728313 0.078083,1.708883 0.125,2.90625 0.093834,2.394734 0.2030642,5.55569 0.3125,8.6875 C 3.3060459,37.481691 3.4883163,43.143759 3.5,43.5 c 0.1225025,0.0036 0.071108,0 0.25,0 l 40.71875,0 c 0.0124,-0.328836 0.253182,-6.426721 0.5,-12.90625 0.126691,-3.325928 0.245386,-6.68527 0.34375,-9.21875 0.04918,-1.26674 0.09434,-2.331501 0.125,-3.09375 0.01322,-0.328618 0.02246,-0.572975 0.03125,-0.78125 L 2.5,17.5 z"
       transform="matrix(1,0,0,1.0383977,1.4680025e-5,-1.6703722)"
       id="path4587-4-6-3-0-1-2-6-8-9-5"
       style="opacity:0.5;color:#000000;fill:none;stroke:url(#linearGradient3381-56-2-7-5-0-8-0-0-4-6-1);stroke-width:0.98133707;stroke-linecap:round;stroke-linejoin:miter;stroke-miterlimit:4;stroke-opacity:1;stroke-dasharray:none;stroke-dashoffset:0;marker:none;visibility:visible;display:inline;overflow:visible;enable-background:accumulate" />
    <path
       d="m 2.1626147,15.500178 c -1.0723,0.12829 -0.4996,1.45416 -0.5851,2.19974 0.1245,0.48182 0.9275,26.17643 0.9275,26.17643 0,0.7414 0.3517,0.61579 1.2429,0.61579 13.1886003,0 27.7725903,0 40.9610903,0 0.9601,0.0231 0.7572,0.0121 0.7572,-0.62748 0,0 0.993,-27.35421 1.0285,-27.7811 0,-0.44949 0.09,-0.58338 -0.4732,-0.58338 -14.084,0 -29.77479,0 -43.8588903,0 z"
       inkscape:connector-curvature="0"
       id="path3388-1-43-0-7-6-2-7-8-5-7-1"
       style="opacity:0.3;fill:none;stroke:#000000;stroke-width:1;stroke-linecap:round;stroke-linejoin:round;stroke-miterlimit:4;stroke-opacity:1;stroke-dashoffset:0" />
    <path
       d="m 28.5,23.5625 c -1.639595,0 -2.96875,1.329155 -2.96875,2.96875 0,0.194281 0.02687,0.378632 0.0625,0.5625 l -4.125,2.21875 C 20.942545,28.838001 20.264341,28.53125 19.5,28.53125 c -1.639595,0 -2.96875,1.329155 -2.96875,2.96875 0,1.639595 1.329155,2.96875 2.96875,2.96875 0.748668,0 1.415272,-0.29273 1.9375,-0.75 l 4.15625,2.3125 c -0.02838,0.16484 -0.0625,0.327056 -0.0625,0.5 0,1.639595 1.329155,2.96875 2.96875,2.96875 1.639595,0 2.96875,-1.329155 2.96875,-2.96875 0,-1.639595 -1.329155,-2.96875 -2.96875,-2.96875 -0.741435,0 -1.417232,0.269354 -1.9375,0.71875 l -4.15625,-2.3125 c 0.02505,-0.155205 0.0625,-0.306475 0.0625,-0.46875 0,-0.150483 -0.0096,-0.293034 -0.03125,-0.4375 l 4.1875,-2.25 c 0.513175,0.42351 1.157677,0.6875 1.875,0.6875 1.639595,0 2.96875,-1.329155 2.96875,-2.96875 0,-1.639595 -1.329155,-2.96875 -2.96875,-2.96875 z"
       inkscape:connector-curvature="0"
       id="path24876-5-1-7"
       style="opacity:0.3;color:#000000;fill:#ffffff;fill-opacity:1;fill-rule:nonzero;stroke:none;stroke-width:1.70000005;marker:none;visibility:visible;display:inline;overflow:visible;enable-background:accumulate" />
    <path
       d="m 28.5,22.5625 c -1.639595,0 -2.96875,1.329155 -2.96875,2.96875 0,0.194281 0.02687,0.378632 0.0625,0.5625 l -4.125,2.21875 C 20.942545,27.838001 20.264341,27.53125 19.5,27.53125 c -1.639595,0 -2.96875,1.329155 -2.96875,2.96875 0,1.639595 1.329155,2.96875 2.96875,2.96875 0.748668,0 1.415272,-0.29273 1.9375,-0.75 l 4.15625,2.3125 c -0.02838,0.16484 -0.0625,0.327056 -0.0625,0.5 0,1.639595 1.329155,2.96875 2.96875,2.96875 1.639595,0 2.96875,-1.329155 2.96875,-2.96875 0,-1.639595 -1.329155,-2.96875 -2.96875,-2.96875 -0.741435,0 -1.417232,0.269354 -1.9375,0.71875 l -4.15625,-2.3125 c 0.02505,-0.155205 0.0625,-0.306475 0.0625,-0.46875 0,-0.150483 -0.0096,-0.293034 -0.03125,-0.4375 l 4.1875,-2.25 c 0.513175,0.42351 1.157677,0.6875 1.875,0.6875 1.639595,0 2.96875,-1.329155 2.96875,-2.96875 0,-1.639595 -1.329155,-2.96875 -2.96875,-2.96875 z"
       inkscape:connector-curvature="0"
       id="path24876-5-1-7-5"
       style="color:#000000;fill:#175785;fill-opacity:0.5521628;fill-rule:nonzero;stroke:none;stroke-width:1.12736845;marker:none;visibility:visible;display:inline;overflow:visible;enable-background:accumulate" />
  </g>
</svg>
