<?xml version="1.0" encoding="UTF-8" standalone="no"?>
<!-- Created with Inkscape (http://www.inkscape.org/) -->

<svg
   xmlns:dc="http://purl.org/dc/elements/1.1/"
   xmlns:cc="http://creativecommons.org/ns#"
   xmlns:rdf="http://www.w3.org/1999/02/22-rdf-syntax-ns#"
   xmlns:svg="http://www.w3.org/2000/svg"
   xmlns="http://www.w3.org/2000/svg"
   xmlns:xlink="http://www.w3.org/1999/xlink"
   xmlns:inkscape="http://www.inkscape.org/namespaces/inkscape"
   version="1.1"
   width="48"
   height="48"
   id="svg18720">
  <defs
     id="defs18722">
    <linearGradient
       x1="42.470848"
       y1="11.952797"
       x2="42.470848"
       y2="35.581654"
       id="linearGradient3381-56-2-7-5"
       xlink:href="#linearGradient3454-2-8-6-1"
       gradientUnits="userSpaceOnUse"
       gradientTransform="matrix(0.89189031,0,0,1.0580283,3.1206609,5.3536023)" />
    <linearGradient
       id="linearGradient3454-2-8-6-1">
      <stop
         id="stop3456-4-7-9-4"
         style="stop-color:#ffffff;stop-opacity:1"
         offset="0" />
      <stop
         id="stop3458-39-0-8-61"
         style="stop-color:#ffffff;stop-opacity:0.23529412"
         offset="0.0097359" />
      <stop
         id="stop3460-7-5-4-1"
         style="stop-color:#ffffff;stop-opacity:0.15686275"
         offset="0.99001008" />
      <stop
         id="stop3462-0-5-6-6"
         style="stop-color:#ffffff;stop-opacity:0.39215687"
         offset="1" />
    </linearGradient>
    <linearGradient
       x1="22.934725"
       y1="49.629246"
       x2="22.809399"
       y2="36.657963"
       id="linearGradient3072-0-3-0"
       xlink:href="#linearGradient6129-963-697-142-998-580-273-0-8-4"
       gradientUnits="userSpaceOnUse"
       gradientTransform="matrix(1.1446925,0,0,0.9977536,-3.4661379,1.0988391)" />
    <linearGradient
       id="linearGradient6129-963-697-142-998-580-273-0-8-4">
      <stop
         id="stop2661-3-02-4"
         style="stop-color:#0a0a0a;stop-opacity:0.498"
         offset="0" />
      <stop
         id="stop2663-2-8-06"
         style="stop-color:#0a0a0a;stop-opacity:0"
         offset="1" />
    </linearGradient>
    <linearGradient
       x1="35.792694"
       y1="17.118193"
       x2="35.792694"
       y2="43.761127"
       id="linearGradient4638-4-6-8"
       xlink:href="#linearGradient4632-0-6-4"
       gradientUnits="userSpaceOnUse"
       gradientTransform="matrix(1,0,0,1.0357143,2.0849371e-6,-1.5890909)" />
    <linearGradient
       id="linearGradient4632-0-6-4">
      <stop
         id="stop4634-4-4-7"
         style="stop-color:#b4cee1;stop-opacity:1"
         offset="0" />
      <stop
         id="stop4636-3-1-5"
         style="stop-color:#5d9fcd;stop-opacity:1"
         offset="1" />
    </linearGradient>
    <radialGradient
       cx="605.71429"
       cy="486.64789"
       r="117.14286"
       fx="605.71429"
       fy="486.64789"
       id="radialGradient3080-2-3-9"
       xlink:href="#linearGradient5060-820-9-0-7"
       gradientUnits="userSpaceOnUse"
       gradientTransform="matrix(-0.03079083,0,0,0.02470588,23.389752,31.94164)" />
    <linearGradient
       id="linearGradient5060-820-9-0-7">
      <stop
         id="stop2681-5-4-3"
         style="stop-color:#000000;stop-opacity:1"
         offset="0" />
      <stop
         id="stop2683-8-6-9"
         style="stop-color:#000000;stop-opacity:0"
         offset="1" />
    </linearGradient>
    <radialGradient
       cx="605.71429"
       cy="486.64789"
       r="117.14286"
       fx="605.71429"
       fy="486.64789"
       id="radialGradient3083-4-5-6"
       xlink:href="#linearGradient5060-179-2-0-3"
       gradientUnits="userSpaceOnUse"
       gradientTransform="matrix(0.03079083,0,0,0.02470588,24.610252,31.94164)" />
    <linearGradient
       id="linearGradient5060-179-2-0-3">
      <stop
         id="stop2675-9-9-4"
         style="stop-color:#000000;stop-opacity:1"
         offset="0" />
      <stop
         id="stop2677-1-7-2"
         style="stop-color:#000000;stop-opacity:0"
         offset="1" />
    </linearGradient>
    <linearGradient
       x1="302.85715"
       y1="366.64789"
       x2="302.85715"
       y2="609.50507"
       id="linearGradient3086-4-4-0"
       xlink:href="#linearGradient5048-585-4-0-56"
       gradientUnits="userSpaceOnUse"
       gradientTransform="matrix(0.07938856,0,0,0.02470588,-4.6932879,31.94164)" />
    <linearGradient
       id="linearGradient5048-585-4-0-56">
      <stop
         id="stop2667-5-0-7"
         style="stop-color:#000000;stop-opacity:0"
         offset="0" />
      <stop
         id="stop2669-4-1-8"
         style="stop-color:#000000;stop-opacity:1"
         offset="0.5" />
      <stop
         id="stop2671-2-6-3"
         style="stop-color:#000000;stop-opacity:0"
         offset="1" />
    </linearGradient>
    <linearGradient
       x1="21.37039"
       y1="4.2476678"
       x2="21.37039"
       y2="34.143417"
       id="linearGradient3381-5-5-29-4"
       xlink:href="#linearGradient4507-9-2-2"
       gradientUnits="userSpaceOnUse"
       gradientTransform="matrix(0.89189031,0,0,1.0580283,3.1206621,5.3535991)" />
    <linearGradient
       id="linearGradient4507-9-2-2">
      <stop
         id="stop4509-9-8-4"
         style="stop-color:#ffffff;stop-opacity:1"
         offset="0" />
      <stop
         id="stop4511-7-50-2"
         style="stop-color:#ffffff;stop-opacity:0.23529412"
         offset="0.07395859" />
      <stop
         id="stop4513-2-0-2"
         style="stop-color:#ffffff;stop-opacity:0.15686275"
         offset="0.99001008" />
      <stop
         id="stop4515-3-9-8"
         style="stop-color:#ffffff;stop-opacity:0.39215687"
         offset="1" />
    </linearGradient>
    <linearGradient
       x1="62.988873"
       y1="13"
       x2="62.988873"
       y2="16"
       id="linearGradient3089-5-2-9-8-6"
       xlink:href="#linearGradient4646-6-91-5"
       gradientUnits="userSpaceOnUse"
       gradientTransform="translate(-50.940899,-8.5052491e-7)" />
    <linearGradient
       id="linearGradient4646-6-91-5">
      <stop
         id="stop4648-2-4-6"
         style="stop-color:#f9f9f9;stop-opacity:1"
         offset="0" />
      <stop
         id="stop4650-3-8-5"
         style="stop-color:#d8d8d8;stop-opacity:1"
         offset="1" />
    </linearGradient>
    <linearGradient
       id="linearGradient3104-8-8-97-4-6-2-0-1">
      <stop
         id="stop3106-5-4-3-5-0-1-61-9"
         style="stop-color:#000000;stop-opacity:0.32173914"
         offset="0" />
      <stop
         id="stop3108-4-3-7-8-2-4-01-9"
         style="stop-color:#000000;stop-opacity:0.27826086"
         offset="1" />
    </linearGradient>
    <linearGradient
       x1="-51.786404"
       y1="53.514328"
       x2="-51.786404"
       y2="3.6336823"
       id="linearGradient18718"
       xlink:href="#linearGradient3104-8-8-97-4-6-2-0-1"
       gradientUnits="userSpaceOnUse"
       gradientTransform="matrix(0.80749834,0,0,0.83374395,106.87672,-0.06984085)" />
  </defs>
  <metadata
     id="metadata18725">
    <rdf:RDF>
      <cc:Work
         rdf:about="">
        <dc:format>image/svg+xml</dc:format>
        <dc:type
           rdf:resource="http://purl.org/dc/dcmitype/StillImage" />
        <dc:title />
      </cc:Work>
    </rdf:RDF>
  </metadata>
  <g
     id="layer1">
    <path
       d="m 5.5000021,8.4999991 c -0.554,0 -1,0.446 -1,1 l 0,1.9999999 -1,0 c -0.554,0 -1,0.446 -1,1 l 0,6 c 0,0.554 0.446,1 1,1 l 40.9999999,0 c 0.554,0 1,-0.446 1,-1 l 0,-6 c 0,-0.554 -0.446,-1 -1,-1 l -23,0 0,-1.9999999 c 0,-0.554 -0.446,-1 -1,-1 l -14.9999999,0 z"
       inkscape:connector-curvature="0"
       id="rect4251-0-0-1-1"
       style="opacity:0.8;color:#000000;fill:none;stroke:url(#linearGradient18718);stroke-width:1;stroke-linecap:butt;stroke-linejoin:miter;stroke-miterlimit:4;stroke-opacity:1;stroke-dasharray:none;stroke-dashoffset:0;marker:none;visibility:visible;display:inline;overflow:visible;enable-background:accumulate" />
    <path
       d="m 5.5000021,8.9999991 c -0.277,0 -0.5,0.223 -0.5,0.5 l 0,2.4999999 -1.5,0 c -0.277,0 -0.5,0.223 -0.5,0.5 l 0,6 c 0,0.277 0.223,0.5 0.5,0.5 l 40.9999999,0 c 0.277,0 0.5,-0.223 0.5,-0.5 l 0,-6 c 0,-0.277 -0.223,-0.5 -0.5,-0.5 l -23.5,0 0,-2.4999999 c 0,-0.277 -0.223,-0.5 -0.5,-0.5 l -14.9999999,0 z"
       inkscape:connector-curvature="0"
       id="rect4251-4-7-62"
       style="color:#000000;fill:url(#linearGradient3089-5-2-9-8-6);fill-opacity:1;fill-rule:nonzero;stroke:none;stroke-width:0.99992168;marker:none;visibility:visible;display:inline;overflow:visible;enable-background:accumulate" />
    <path
       d="m 5.5000021,9.4999991 0,2.9999999 -2,0 0,7 40.9999999,0 0,-7 -24,0 0,-2.9999999 -14.9999999,0 z"
       inkscape:connector-curvature="0"
       id="rect4251-9-9-0-05"
       style="color:#000000;fill:none;stroke:url(#linearGradient3381-5-5-29-4);stroke-width:1;stroke-linecap:round;stroke-linejoin:round;stroke-miterlimit:4;stroke-opacity:1;stroke-dasharray:none;stroke-dashoffset:0;marker:none;visibility:visible;display:inline;overflow:visible;enable-background:accumulate" />
    <rect
       width="38.333332"
       height="6.0000005"
       x="4.8333745"
       y="41"
       id="rect4173-6-7-7"
       style="opacity:0.3;fill:url(#linearGradient3086-4-4-0);fill-opacity:1;fill-rule:nonzero;stroke:none;stroke-width:1;marker:none;visibility:visible;display:inline;overflow:visible" />
    <path
       d="m 43.166672,41.00021 c 0,0 0,5.99967 0,5.99967 1.58565,0.0113 3.83333,-1.34422 3.83333,-3.00022 0,-1.656 -1.76947,-2.99945 -3.83333,-2.99945 z"
       inkscape:connector-curvature="0"
       id="path5058-7-9-1"
       style="opacity:0.3;fill:url(#radialGradient3083-4-5-6);fill-opacity:1;fill-rule:nonzero;stroke:none;stroke-width:1;marker:none;visibility:visible;display:inline;overflow:visible" />
    <path
       d="m 4.8333321,41.00021 c 0,0 0,5.99967 0,5.99967 -1.58565,0.0113 -3.83333,-1.34422 -3.83333,-3.00022 0,-1.656 1.76947,-2.99945 3.83333,-2.99945 z"
       inkscape:connector-curvature="0"
       id="path5018-8-1-1"
       style="opacity:0.3;fill:url(#radialGradient3080-2-3-9);fill-opacity:1;fill-rule:nonzero;stroke:none;stroke-width:1;marker:none;visibility:visible;display:inline;overflow:visible" />
    <path
       d="m 2.1626121,15.500189 c -1.07231,0.12829 -0.49959,1.45416 -0.58508,2.19974 0.12444,0.48182 0.92748,26.176431 0.92748,26.176431 0,0.7414 0.35172,0.61579 1.24292,0.61579 13.1885599,0 27.7725299,0 40.9610899,0 0.96008,0.0231 0.75718,0.0121 0.75718,-0.62748 0,0 0.99298,-27.354211 1.0285,-27.781101 0,-0.44949 0.0902,-0.58338 -0.47316,-0.58338 -14.08405,0 -29.77488,0 -43.8589299,0 z"
       inkscape:connector-curvature="0"
       id="path3388-1-43-0"
       style="fill:url(#linearGradient4638-4-6-8);fill-opacity:1;stroke:none" />
    <path
       d="m 2.0582421,16.065149 43.8964799,4e-4 c 0.63416,0 1.04515,0.44461 1.04515,0.99737 l -1.03241,26.960371 c 0.0147,0.6994 -0.20909,0.97671 -0.9459,0.96204 L 3.2408421,44.96773 c -0.63416,0 -1.27363,-0.41276 -1.27363,-0.96551 l -0.95412,-26.939321 c 0,-0.55276 0.41099,-0.99775 1.04515,-0.99775 z"
       inkscape:connector-curvature="0"
       id="path6127-7-1-6"
       style="opacity:0.4;fill:url(#linearGradient3072-0-3-0);fill-opacity:1;stroke:none" />
    <path
       d="m 2.5,17.5 c 0.016793,0.176427 0.022163,0.517935 0.03125,0.875 0.023112,0.08641 0.025524,0.05923 0.03125,0.09375 0.011058,0.06665 0.027034,0.138257 0.03125,0.1875 0.0064,0.07474 -0.00668,0.173042 0,0.28125 0.013352,0.216416 0.045306,0.510844 0.0625,0.875 0.034388,0.728313 0.078083,1.708883 0.125,2.90625 0.093834,2.394734 0.2030642,5.55569 0.3125,8.6875 C 3.3060459,37.481691 3.4883163,43.143759 3.5,43.5 c 0.1225025,0.0036 0.071108,0 0.25,0 l 40.71875,0 c 0.0124,-0.328836 0.253182,-6.426721 0.5,-12.90625 0.126691,-3.325928 0.245386,-6.68527 0.34375,-9.21875 0.04918,-1.26674 0.09434,-2.331501 0.125,-3.09375 0.01322,-0.328618 0.02246,-0.572975 0.03125,-0.78125 L 2.5,17.5 z"
       transform="matrix(1,0,0,1.0383977,2.0849371e-6,-1.6703609)"
       id="path4587-4-6-3"
       style="opacity:0.5;color:#000000;fill:none;stroke:url(#linearGradient3381-56-2-7-5);stroke-width:0.98133707;stroke-linecap:round;stroke-linejoin:miter;stroke-miterlimit:4;stroke-opacity:1;stroke-dasharray:none;stroke-dashoffset:0;marker:none;visibility:visible;display:inline;overflow:visible;enable-background:accumulate" />
    <g
       transform="matrix(1.0666667,0,0,1.0748361,15.451042,23.850329)"
       id="layer1-0-7-3"
       style="opacity:0.3;color:#000000;fill:#ffffff;fill-opacity:1;fill-rule:nonzero;stroke:none;stroke-width:1.70000005;marker:none;visibility:visible;display:inline;overflow:visible;enable-background:accumulate">
      <g
         transform="translate(-0.02867384,-0.7867384)"
         id="layer1-6-1-86"
         style="opacity:0.9;color:#000000;fill:#ffffff;fill-opacity:1;fill-rule:nonzero;stroke:none;stroke-width:1.70000005;marker:none;visibility:visible;display:inline;overflow:visible;enable-background:accumulate">
        <path
           d="m 8.0286738,10.786738 c -0.8837844,0 -1.7582785,0.463138 -2.1184755,0.860829 l 2.1184755,2.303665 2.1390372,-2.283103 C 9.8075138,11.249876 8.9124582,10.786738 8.0286738,10.786738 z m 0,-3.9999996 c -1.847888,0 -3.5041267,0.736481 -4.8649357,1.861156 l 1.3245282,1.4137196 c 0.90637,-0.6491716 2.3168195,-1.2748756 3.4869315,-1.2748756 1.198417,0 2.6760272,0.639835 3.5952572,1.3180686 L 12.935091,8.6271534 C 11.574282,7.5024784 9.8765618,6.7867384 8.0286738,6.7867384 z m 0,-3.999999 c -2.853422,0 -5.468321,1.09634 -7.49999996,2.922777 l 1.29591676,1.459363 c 1.8117159,-1.588448 3.7176605,-2.382141 6.2040832,-2.382141 2.4864232,0 4.3343812,0.747499 6.2328602,2.414286 l 1.26714,-1.491508 C 13.496995,3.8830794 10.882095,2.7867394 8.0286738,2.7867394 z"
           inkscape:connector-curvature="0"
           id="path4112-19-69-3-1-4-6"
           style="color:#000000;fill:#ffffff;fill-opacity:1;fill-rule:nonzero;stroke:none;stroke-width:1.70000005;marker:none;visibility:visible;display:inline;overflow:visible;enable-background:accumulate" />
      </g>
    </g>
    <g
       transform="matrix(1.0666667,0,0,1.0748361,15.451042,22.850329)"
       id="layer1-0-71"
       style="color:#000000;fill:#175785;fill-opacity:0.5521628;fill-rule:nonzero;stroke:none;stroke-width:1.70000005;marker:none;visibility:visible;display:inline;overflow:visible;enable-background:accumulate">
      <g
         transform="translate(-0.02867384,-0.7867384)"
         id="layer1-6-9"
         style="opacity:0.9;color:#000000;fill:#175785;fill-opacity:0.5521628;fill-rule:nonzero;stroke:none;stroke-width:1.70000005;marker:none;visibility:visible;display:inline;overflow:visible;enable-background:accumulate">
        <path
           d="m 8.0286738,10.786738 c -0.8837844,0 -1.7582785,0.463138 -2.1184755,0.860829 l 2.1184755,2.303665 2.1390372,-2.283103 C 9.8075138,11.249876 8.9124582,10.786738 8.0286738,10.786738 z m 0,-3.9999996 c -1.847888,0 -3.5041267,0.736481 -4.8649357,1.861156 l 1.3245282,1.4137196 c 0.90637,-0.6491716 2.3168195,-1.2748756 3.4869315,-1.2748756 1.198417,0 2.6760272,0.639835 3.5952572,1.3180686 L 12.935091,8.6271534 C 11.574282,7.5024784 9.8765618,6.7867384 8.0286738,6.7867384 z m 0,-3.999999 c -2.853422,0 -5.468321,1.09634 -7.49999996,2.922777 l 1.29591676,1.459363 c 1.8117159,-1.588448 3.7176605,-2.382141 6.2040832,-2.382141 2.4864232,0 4.3343812,0.747499 6.2328602,2.414286 l 1.26714,-1.491508 C 13.496995,3.8830794 10.882095,2.7867394 8.0286738,2.7867394 z"
           inkscape:connector-curvature="0"
           id="path4112-19-69-3-1-46"
           style="color:#000000;fill:#175785;fill-opacity:0.5521628;fill-rule:nonzero;stroke:none;stroke-width:1.70000005;marker:none;visibility:visible;display:inline;overflow:visible;enable-background:accumulate" />
      </g>
    </g>
    <path
       d="m 2.1626121,15.500189 c -1.07231,0.12829 -0.49959,1.45416 -0.58508,2.19974 0.12444,0.48182 0.92748,26.176431 0.92748,26.176431 0,0.7414 0.35172,0.61579 1.24292,0.61579 13.1885599,0 27.7725299,0 40.9610899,0 0.96008,0.0231 0.75718,0.0121 0.75718,-0.62748 0,0 0.99298,-27.354211 1.0285,-27.781101 0,-0.44949 0.0902,-0.58338 -0.47316,-0.58338 -14.08405,0 -29.77488,0 -43.8589299,0 z"
       inkscape:connector-curvature="0"
       id="path3388-1-43-0-3"
       style="opacity:0.3;fill:none;stroke:#000000;stroke-width:1;stroke-linecap:round;stroke-linejoin:round;stroke-miterlimit:4;stroke-opacity:1;stroke-dashoffset:0" />
  </g>
</svg>
