<?xml version="1.0" encoding="UTF-8" standalone="no"?>
<!-- Created with Inkscape (http://www.inkscape.org/) -->

<svg
   xmlns:dc="http://purl.org/dc/elements/1.1/"
   xmlns:cc="http://creativecommons.org/ns#"
   xmlns:rdf="http://www.w3.org/1999/02/22-rdf-syntax-ns#"
   xmlns:svg="http://www.w3.org/2000/svg"
   xmlns="http://www.w3.org/2000/svg"
   xmlns:xlink="http://www.w3.org/1999/xlink"
   xmlns:inkscape="http://www.inkscape.org/namespaces/inkscape"
   version="1.1"
   width="24"
   height="24"
   id="svg3700">
  <defs
     id="defs3702">
    <linearGradient
       x1="21.448364"
       y1="15.5"
       x2="21.448364"
       y2="32.509201"
       id="linearGradient3531"
       xlink:href="#linearGradient3428"
       gradientUnits="userSpaceOnUse"
       gradientTransform="matrix(0.4374999,0,0,0.4374999,1.5,9.4999997)" />
    <linearGradient
       id="linearGradient3428">
      <stop
         id="stop3430"
         style="stop-color:#aaaaaa;stop-opacity:1"
         offset="0" />
      <stop
         id="stop3432"
         style="stop-color:#d4d4d4;stop-opacity:1"
         offset="1" />
    </linearGradient>
    <linearGradient
       x1="18.775953"
       y1="4.0378027"
       x2="18.203465"
       y2="45.962208"
       id="linearGradient3534"
       xlink:href="#linearGradient6036"
       gradientUnits="userSpaceOnUse"
       gradientTransform="matrix(0.2272999,0,0,-0.2272999,6.465927,25.682498)" />
    <linearGradient
       id="linearGradient6036">
      <stop
         id="stop6038"
         style="stop-color:#ffffff;stop-opacity:1"
         offset="0" />
      <stop
         id="stop6040"
         style="stop-color:#ffffff;stop-opacity:0"
         offset="1" />
    </linearGradient>
    <linearGradient
       x1="71.204407"
       y1="6.2375584"
       x2="71.204407"
       y2="44.340794"
       id="linearGradient3537"
       xlink:href="#linearGradient4011"
       gradientUnits="userSpaceOnUse"
       gradientTransform="matrix(0.45945944,0,0,0.45945944,-20.958749,8.349377)" />
    <linearGradient
       id="linearGradient4011">
      <stop
         id="stop4013"
         style="stop-color:#ffffff;stop-opacity:1"
         offset="0" />
      <stop
         id="stop4015"
         style="stop-color:#ffffff;stop-opacity:0.23529412"
         offset="0.507761" />
      <stop
         id="stop4017"
         style="stop-color:#ffffff;stop-opacity:0.15686275"
         offset="0.83456558" />
      <stop
         id="stop4019"
         style="stop-color:#ffffff;stop-opacity:0.39215687"
         offset="1" />
    </linearGradient>
    <linearGradient
       x1="20.580074"
       y1="10.774516"
       x2="24.27351"
       y2="9.8622112"
       id="linearGradient2492"
       xlink:href="#linearGradient3487"
       gradientUnits="userSpaceOnUse"
       spreadMethod="reflect" />
    <linearGradient
       id="linearGradient3487">
      <stop
         id="stop3489"
         style="stop-color:#e6cde2;stop-opacity:1"
         offset="0" />
      <stop
         id="stop3491"
         style="stop-color:#e6cde2;stop-opacity:0"
         offset="1" />
    </linearGradient>
    <linearGradient
       x1="17.494959"
       y1="11.200086"
       x2="21.047453"
       y2="9.7956104"
       id="linearGradient2494"
       xlink:href="#linearGradient3495"
       gradientUnits="userSpaceOnUse"
       spreadMethod="reflect" />
    <linearGradient
       id="linearGradient3495">
      <stop
         id="stop3497"
         style="stop-color:#c1cbe4;stop-opacity:1"
         offset="0" />
      <stop
         id="stop3499"
         style="stop-color:#c1cbe4;stop-opacity:0"
         offset="1" />
    </linearGradient>
    <linearGradient
       x1="14.084608"
       y1="13.045606"
       x2="16.994024"
       y2="10.732353"
       id="linearGradient2496"
       xlink:href="#linearGradient3503"
       gradientUnits="userSpaceOnUse"
       spreadMethod="reflect" />
    <linearGradient
       id="linearGradient3503">
      <stop
         id="stop3505"
         style="stop-color:#c4ebdd;stop-opacity:1"
         offset="0" />
      <stop
         id="stop3507"
         style="stop-color:#c4ebdd;stop-opacity:0"
         offset="1" />
    </linearGradient>
    <linearGradient
       x1="12.371647"
       y1="16.188046"
       x2="14.609327"
       y2="13.461712"
       id="linearGradient2498"
       xlink:href="#linearGradient3511"
       gradientUnits="userSpaceOnUse"
       spreadMethod="reflect" />
    <linearGradient
       id="linearGradient3511">
      <stop
         id="stop3513"
         style="stop-color:#ebeec7;stop-opacity:1"
         offset="0" />
      <stop
         id="stop3515"
         style="stop-color:#ebeec7;stop-opacity:0"
         offset="1" />
    </linearGradient>
    <linearGradient
       x1="10.609375"
       y1="17.886322"
       x2="9.7297754"
       y2="20.612656"
       id="linearGradient2500"
       xlink:href="#linearGradient3519"
       gradientUnits="userSpaceOnUse"
       spreadMethod="reflect" />
    <linearGradient
       id="linearGradient3519">
      <stop
         id="stop3521"
         style="stop-color:#fcd9cd;stop-opacity:1"
         offset="0" />
      <stop
         id="stop3523"
         style="stop-color:#fcd9cd;stop-opacity:0"
         offset="1" />
    </linearGradient>
    <linearGradient
       x1="20.580074"
       y1="10.774516"
       x2="24.27351"
       y2="9.8622112"
       id="linearGradient2480"
       xlink:href="#linearGradient3487"
       gradientUnits="userSpaceOnUse"
       spreadMethod="reflect" />
    <linearGradient
       x1="17.494959"
       y1="11.200086"
       x2="21.047453"
       y2="9.7956104"
       id="linearGradient2482"
       xlink:href="#linearGradient3495"
       gradientUnits="userSpaceOnUse"
       spreadMethod="reflect" />
    <linearGradient
       x1="14.084608"
       y1="13.045606"
       x2="16.994024"
       y2="10.732353"
       id="linearGradient2484"
       xlink:href="#linearGradient3503"
       gradientUnits="userSpaceOnUse"
       spreadMethod="reflect" />
    <linearGradient
       x1="12.371647"
       y1="16.188046"
       x2="14.609327"
       y2="13.461712"
       id="linearGradient2486"
       xlink:href="#linearGradient3511"
       gradientUnits="userSpaceOnUse"
       spreadMethod="reflect" />
    <linearGradient
       x1="10.609375"
       y1="17.886322"
       x2="9.7297754"
       y2="20.612656"
       id="linearGradient2488"
       xlink:href="#linearGradient3519"
       gradientUnits="userSpaceOnUse"
       spreadMethod="reflect" />
    <linearGradient
       x1="12.2744"
       y1="32.4165"
       x2="35.391201"
       y2="14.2033"
       id="linearGradient3553"
       xlink:href="#linearGradient3263"
       gradientUnits="userSpaceOnUse"
       gradientTransform="matrix(0,0.54545936,-0.54545936,0,24.600113,6.9089721)" />
    <linearGradient
       x1="12.2744"
       y1="32.4165"
       x2="35.391201"
       y2="14.2033"
       id="linearGradient3263"
       gradientUnits="userSpaceOnUse">
      <stop
         id="stop3265"
         style="stop-color:#dedbde;stop-opacity:1"
         offset="0" />
      <stop
         id="stop3267"
         style="stop-color:#e6e6e6;stop-opacity:1"
         offset="0.5" />
      <stop
         id="stop3269"
         style="stop-color:#d2d2d2;stop-opacity:1"
         offset="1" />
    </linearGradient>
    <linearGradient
       x1="-21.915663"
       y1="3"
       x2="-21.915663"
       y2="45.032898"
       id="linearGradient3555"
       xlink:href="#linearGradient3772"
       gradientUnits="userSpaceOnUse"
       gradientTransform="matrix(0.4656319,0,0,0.4656319,24.22985,8.8248333)" />
    <linearGradient
       id="linearGradient3772">
      <stop
         id="stop3774"
         style="stop-color:#b4b4b4;stop-opacity:1"
         offset="0" />
      <stop
         id="stop3776"
         style="stop-color:#969696;stop-opacity:1"
         offset="1" />
    </linearGradient>
    <linearGradient
       id="linearGradient23419">
      <stop
         id="stop23421"
         style="stop-color:#000000;stop-opacity:1"
         offset="0" />
      <stop
         id="stop23423"
         style="stop-color:#000000;stop-opacity:0"
         offset="1" />
    </linearGradient>
    <radialGradient
       cx="17.058823"
       cy="41.058823"
       r="5.7384715"
       fx="15.544384"
       fy="39.027378"
       id="radialGradient3524"
       xlink:href="#linearGradient7067-814-120-245"
       gradientUnits="userSpaceOnUse"
       gradientTransform="matrix(0.37667571,-0.06311262,0,0.36451394,6.5537535,14.309346)" />
    <linearGradient
       id="linearGradient7067-814-120-245">
      <stop
         id="stop3877"
         style="stop-color:#aaaaaa;stop-opacity:1"
         offset="0" />
      <stop
         id="stop3879"
         style="stop-color:#4d4d4d;stop-opacity:1"
         offset="1" />
    </linearGradient>
    <radialGradient
       cx="17.058823"
       cy="41.058823"
       r="5.7384715"
       fx="15.970393"
       fy="39.105911"
       id="radialGradient3521"
       xlink:href="#linearGradient7067-814-120-245"
       gradientUnits="userSpaceOnUse"
       gradientTransform="matrix(0.3698584,-0.06212313,0,0.35879901,12.67051,13.485169)" />
    <linearGradient
       x1="28.739122"
       y1="144.11652"
       x2="25.400293"
       y2="119.86452"
       id="linearGradient3518"
       xlink:href="#linearGradient2372"
       gradientUnits="userSpaceOnUse"
       gradientTransform="matrix(0.12649532,0,0,0.12875595,11.114,0.9430724)" />
    <linearGradient
       id="linearGradient2372">
      <stop
         id="stop2374"
         style="stop-color:#ffffff;stop-opacity:1"
         offset="0" />
      <stop
         id="stop2376"
         style="stop-color:#ffffff;stop-opacity:0.37931034"
         offset="1" />
    </linearGradient>
    <linearGradient
       x1="28.739122"
       y1="144.11652"
       x2="26.256771"
       y2="125.39074"
       id="linearGradient3515"
       xlink:href="#linearGradient2372"
       gradientUnits="userSpaceOnUse"
       gradientTransform="matrix(0.2545239,0,0,0.12875595,14.084993,-0.173532)" />
    <radialGradient
       cx="23.334524"
       cy="41.63604"
       r="22.627417"
       fx="23.334524"
       fy="41.63604"
       id="radialGradient3698"
       xlink:href="#linearGradient23419"
       gradientUnits="userSpaceOnUse"
       gradientTransform="matrix(0.48613589,0,0,0.1546652,0.65624961,21.060353)" />
  </defs>
  <metadata
     id="metadata3705">
    <rdf:RDF>
      <cc:Work
         rdf:about="">
        <dc:format>image/svg+xml</dc:format>
        <dc:type
           rdf:resource="http://purl.org/dc/dcmitype/StillImage" />
        <dc:title />
      </cc:Work>
    </rdf:RDF>
  </metadata>
  <g
     transform="translate(0,-8)"
     id="layer1">
    <path
       d="M 23,27.499999 C 23.000565,29.432943 18.075533,31 12,31 5.9244667,31 0.99943355,29.432943 1,27.499999 0.99943355,25.567056 5.9244667,24 12,24 c 6.075533,0 11.000565,1.567056 11,3.499999 z"
       inkscape:connector-curvature="0"
       id="path23417"
       style="opacity:0.3;fill:url(#radialGradient3698);fill-opacity:1;fill-rule:evenodd;stroke:none;stroke-width:2;marker:none;visibility:visible;display:inline;overflow:visible" />
    <path
       d="M 21.545454,20 C 21.545454,14.709042 17.290956,10.454545 12,10.454545 6.7090419,10.454545 2.4545455,14.709043 2.4545455,20 2.4545444,25.290957 6.7090424,29.545454 12,29.545454 17.290956,29.545453 21.545454,25.290957 21.545454,20 z M 15.5,20 c 0,1.791874 -1.745436,3.5 -3.5,3.5 -1.792116,0 -3.5,-1.822747 -3.5,-3.5 0,-1.714806 1.648901,-3.5 3.5,-3.5 1.888644,0 3.5,1.670604 3.5,3.5 z"
       inkscape:connector-curvature="0"
       id="path2781"
       style="fill:url(#linearGradient3553);fill-rule:nonzero;stroke:url(#linearGradient3555);stroke-width:1.00000012;stroke-miterlimit:4;stroke-opacity:1" />
    <path
       d="m 12,16.441 c -1.964568,0 -3.5590002,1.594432 -3.5590002,3.559 0,1.964568 1.5944322,3.559 3.5590002,3.559 1.964568,0 3.559,-1.594432 3.559,-3.559 0,-1.964568 -1.594432,-3.559 -3.559,-3.559 z m 0,1.7795 c 0.982284,0 1.7795,0.797216 1.7795,1.7795 0,0.982284 -0.797216,1.7795 -1.7795,1.7795 -0.982284,0 -1.7795,-0.797216 -1.7795,-1.7795 0,-0.982284 0.797216,-1.7795 1.7795,-1.7795 z"
       inkscape:connector-curvature="0"
       id="path2474"
       style="opacity:0.5;fill:#ffffff;fill-opacity:1;fill-rule:nonzero;stroke:none;stroke-width:1;marker:none;visibility:visible;display:inline;overflow:visible;enable-background:accumulate" />
    <g
       transform="matrix(0.444875,0,0,0.444875,1.323,9.323)"
       id="g3527">
      <path
         d="M 15.856928,5.7307748 20.625,16.34375 C 21.660403,15.885186 22.795334,15.625 24,15.625 c 0.03206,0 0.06178,-3.6e-4 0.09375,0 L 24.10801,4.0047512 c -2.94215,-0.070687 -5.543041,0.6572865 -8.251083,1.7260236 z"
         inkscape:connector-curvature="0"
         transform="matrix(0.9996011,0.02824295,-0.02824295,0.9996011,0.6924114,-0.6708346)"
         id="path3296"
         style="opacity:0.8;fill:url(#linearGradient2480);fill-opacity:1;fill-rule:nonzero;stroke:none" />
      <path
         d="m 12.121471,7.9060109 6.931026,9.3601041 c 0.913109,-0.669755 1.965938,-1.167064 3.142629,-1.425169 0.03132,-0.0069 0.06026,-0.01359 0.09157,-0.02009 L 19.857174,4.426276 c -2.888973,0.5613244 -5.31953,1.8556038 -7.735703,3.4797349 z"
         inkscape:connector-curvature="0"
         id="path3308"
         style="opacity:0.8;fill:url(#linearGradient2482);fill-opacity:1;fill-rule:nonzero;stroke:none" />
      <path
         d="m 8.2523933,11.646535 9.2137237,7.155818 c 0.70865,-0.883264 1.596891,-1.636119 2.666685,-2.18998 0.02847,-0.01474 0.05469,-0.02872 0.08325,-0.0431 L 14.86585,6.2506132 C 12.220599,7.5405321 10.165881,9.452393 8.2523933,11.646535 z"
         inkscape:connector-curvature="0"
         id="path3310"
         style="opacity:0.8;fill:url(#linearGradient2484);fill-opacity:1;fill-rule:nonzero;stroke:none" />
      <path
         d="m 5.6328855,16.073974 c 7.1748065,2.242248 7.8502625,7.031463 12.7767855,1.754127 L 10.499985,9.1321388 C 8.2787249,11.062747 6.9132871,13.459349 5.6328855,16.073974 z"
         inkscape:connector-curvature="0"
         id="path3312"
         style="opacity:0.8;fill:url(#linearGradient2486);fill-opacity:1;fill-rule:nonzero;stroke:none" />
      <path
         d="M 7.155289,13.193173 C 5.9722117,14.945185 5.2475768,16.829547 4.6301929,18.837116 L 15.96875,21.8125 C 16.184264,21.049497 16.486796,20.297733 16.9375,19.59375 16.95479,19.56675 16.98246,19.52673 17,19.5 L 7.155289,13.193173 z"
         inkscape:connector-curvature="0"
         id="path3314"
         style="opacity:0.8;fill:url(#linearGradient2488);fill-opacity:1;fill-rule:nonzero;stroke:none" />
    </g>
    <g
       transform="matrix(-0.444875,0,0,-0.444875,22.677,30.672922)"
       id="g3297">
      <path
         d="M 15.856928,5.7307748 20.625,16.34375 C 21.660403,15.885186 22.795334,15.625 24,15.625 c 0.03206,0 0.06178,-3.6e-4 0.09375,0 L 24.10801,4.0047512 c -2.94215,-0.070687 -5.543041,0.6572865 -8.251083,1.7260236 z"
         inkscape:connector-curvature="0"
         transform="matrix(0.9996011,0.02824295,-0.02824295,0.9996011,0.6924114,-0.6708346)"
         id="path3299"
         style="opacity:0.8;fill:url(#linearGradient2492);fill-opacity:1;fill-rule:nonzero;stroke:none" />
      <path
         d="m 12.121471,7.9060109 6.931026,9.3601041 c 0.913109,-0.669755 1.965938,-1.167064 3.142629,-1.425169 0.03132,-0.0069 0.06026,-0.01359 0.09157,-0.02009 L 19.857174,4.426276 c -2.888973,0.5613244 -5.31953,1.8556038 -7.735703,3.4797349 z"
         inkscape:connector-curvature="0"
         id="path3301"
         style="opacity:0.8;fill:url(#linearGradient2494);fill-opacity:1;fill-rule:nonzero;stroke:none" />
      <path
         d="m 8.2523933,11.646535 9.2137237,7.155818 c 0.70865,-0.883264 1.596891,-1.636119 2.666685,-2.18998 0.02847,-0.01474 0.05469,-0.02872 0.08325,-0.0431 L 14.86585,6.2506132 C 12.220599,7.5405321 10.165881,9.452393 8.2523933,11.646535 z"
         inkscape:connector-curvature="0"
         id="path3303"
         style="opacity:0.8;fill:url(#linearGradient2496);fill-opacity:1;fill-rule:nonzero;stroke:none" />
      <path
         d="m 5.6328855,16.073974 c 7.1748065,2.242248 7.8502625,7.031463 12.7767855,1.754127 L 10.499985,9.1321388 C 8.2787249,11.062747 6.9132871,13.459349 5.6328855,16.073974 z"
         inkscape:connector-curvature="0"
         id="path3305"
         style="opacity:0.8;fill:url(#linearGradient2498);fill-opacity:1;fill-rule:nonzero;stroke:none" />
      <path
         d="M 7.155289,13.193173 C 5.9722117,14.945185 5.2475768,16.829547 4.6301929,18.837116 L 15.96875,21.8125 C 16.184264,21.049497 16.486796,20.297733 16.9375,19.59375 16.95479,19.56675 16.98246,19.52673 17,19.5 L 7.155289,13.193173 z"
         inkscape:connector-curvature="0"
         id="path3307"
         style="opacity:0.8;fill:url(#linearGradient2500);fill-opacity:1;fill-rule:nonzero;stroke:none" />
    </g>
    <path
       d="M 20.499893,19.999699 C 20.499893,24.694271 16.694033,28.5 12,28.5 c -4.6944622,0 -8.5001082,-3.805772 -8.5001082,-8.500301 0,-4.694354 3.805646,-8.499698 8.5001082,-8.499698 4.694033,0 8.499893,3.805344 8.499893,8.499698 l 0,0 z"
       inkscape:connector-curvature="0"
       id="path8655"
       style="opacity:0.55;color:#000000;fill:none;stroke:url(#linearGradient3537);stroke-width:1;stroke-linecap:round;stroke-linejoin:round;stroke-miterlimit:4;stroke-opacity:1;stroke-dasharray:none;stroke-dashoffset:0;marker:none;visibility:visible;display:inline;overflow:visible;enable-background:accumulate" />
    <path
       d="m 12,24.5 c -2.4942862,0 -4.5000006,-2.005714 -4.5000006,-4.500001 0,-2.494285 2.0057143,-4.5 4.5000006,-4.5 2.494287,0 4.5,2.005715 4.5,4.5 C 16.5,22.494286 14.494287,24.5 12,24.5 l 0,0 0,0 z"
       inkscape:connector-curvature="0"
       id="path3281"
       style="opacity:0.4;fill:none;stroke:url(#linearGradient3534);stroke-width:0.99999976;stroke-miterlimit:4;stroke-opacity:1" />
    <path
       d="m 11.999999,16.499999 c -1.932,0 -3.4999993,1.568 -3.4999993,3.500001 0,1.932 1.5679993,3.499999 3.4999993,3.499999 1.932001,0 3.5,-1.567999 3.5,-3.499999 0,-1.932001 -1.567999,-3.500001 -3.5,-3.500001 z m 0,1.750002 c 0.966001,0 1.75,0.783999 1.75,1.749999 0,0.966 -0.783999,1.75 -1.75,1.75 -0.965999,0 -1.749998,-0.784 -1.749998,-1.75 0,-0.965999 0.783999,-1.749999 1.749998,-1.749999 z"
       inkscape:connector-curvature="0"
       id="path3418"
       style="fill:none;stroke:url(#linearGradient3531);stroke-width:1.00000024;stroke-linecap:butt;stroke-linejoin:round;stroke-miterlimit:4;stroke-opacity:1;stroke-dasharray:none;stroke-dashoffset:0;marker:none;visibility:visible;display:inline;overflow:visible;enable-background:accumulate" />
    <path
       d="m 21.887143,26.242639 -0.36668,-2.955046"
       inkscape:connector-curvature="0"
       id="path2931"
       style="fill:none;stroke:none" />
    <path
       d="M 20.889805,16.43023 C 18.532702,16.810065 16.350551,17.201076 14,17.602125 c -0.622438,0.303691 -0.482505,1.085701 -0.510043,1.653122 0,2.531942 0,4.134734 0,6.666677 -1.311726,-0.246608 -2.911356,0.837273 -2.980733,2.553424 -0.113253,1.068438 0.834206,1.998453 1.864481,2.023461 1.844664,0.04478 3.106286,-1.179076 3.126295,-2.726857 -0.02014,-2.599408 0.0057,-4.270688 0,-6.870495 0.285576,-0.02115 3.638654,-0.846503 4.027624,-0.901457 0,1.947147 0,2.965145 0,4.912292 -1.146387,-0.274637 -2.611897,0.478721 -2.97527,2.017254 -0.15337,0.862385 0.136497,1.944831 1.011547,2.309984 1.708237,0.784936 4.053268,-0.805037 3.957931,-2.671065 -0.02646,-3.466173 0.02169,-6.004614 0,-9.471156 -0.04486,-0.325759 -0.265607,-0.690593 -0.632027,-0.667079 z"
       inkscape:connector-curvature="0"
       id="path4031"
       style="fill:#4d4d4d;fill-opacity:1;stroke:#333333;stroke-width:1;stroke-linecap:round;stroke-linejoin:round;stroke-miterlimit:4;stroke-opacity:1;stroke-dasharray:none" />
    <path
       d="m 14.973564,27.865117 a 1.7166647,2.0994822 57.095252 0 1 -3.988331,0.66825 1.7166647,2.0994822 57.095252 0 1 3.988331,-0.66825 z"
       inkscape:connector-curvature="0"
       id="path2937"
       style="fill:url(#radialGradient3524);fill-opacity:1;stroke:none" />
    <path
       d="m 20.937933,26.82841 a 1.6885125,2.0629959 56.769744 0 1 -3.916148,0.657774 1.6885125,2.0629959 56.769744 1 1 3.916148,-0.657774 z"
       inkscape:connector-curvature="0"
       id="path2941"
       style="fill:url(#radialGradient3521);fill-opacity:1;stroke:none" />
    <path
       d="m 14.053687,26.476373 -0.05369,-7.842657 c 0,0 0.05877,-0.663765 0.494716,-0.665788 0.154613,-0.02705 6.931715,-1.156547 6.931715,-1.156547 0,0 0.132983,0.709474 -6.06949,1.629654 -0.516931,0.07707 -0.76544,0.06848 -0.762716,0.558367 0.0073,1.321624 -0.03036,2.956174 -0.03036,7.768476 0,0.03443 -0.325438,-0.243938 -0.510175,-0.291505 z"
       inkscape:connector-curvature="0"
       id="path2945"
       style="opacity:0.4;fill:url(#linearGradient3518);fill-opacity:1;fill-rule:evenodd;stroke:none" />
    <path
       d="m 20,25.271349 0.03393,-6.559021 c 0.357493,-0.0323 0.05489,-0.0052 0.53695,-0.05358 0.0066,1.225158 2.74e-4,2.242096 2.74e-4,6.869194 0,0.03443 -0.199425,-0.209029 -0.571151,-0.256596 z"
       inkscape:connector-curvature="0"
       id="path2947"
       style="opacity:0.4;fill:url(#linearGradient3515);fill-opacity:1;fill-rule:evenodd;stroke:none" />
  </g>
</svg>
