<?xml version="1.0" encoding="UTF-8" standalone="no"?>
<!-- Created with Inkscape (http://www.inkscape.org/) -->

<svg
   xmlns:dc="http://purl.org/dc/elements/1.1/"
   xmlns:cc="http://creativecommons.org/ns#"
   xmlns:rdf="http://www.w3.org/1999/02/22-rdf-syntax-ns#"
   xmlns:svg="http://www.w3.org/2000/svg"
   xmlns="http://www.w3.org/2000/svg"
   xmlns:xlink="http://www.w3.org/1999/xlink"
   xmlns:inkscape="http://www.inkscape.org/namespaces/inkscape"
   version="1.0"
   width="32"
   height="32"
   id="svg3786">
  <metadata
     id="metadata90">
    <rdf:RDF>
      <cc:Work
         rdf:about="">
        <dc:format>image/svg+xml</dc:format>
        <dc:type
           rdf:resource="http://purl.org/dc/dcmitype/StillImage" />
      </cc:Work>
    </rdf:RDF>
  </metadata>
  <defs
     id="defs3788">
    <linearGradient
       id="linearGradient5026">
      <stop
         id="stop5028"
         style="stop-color:#f5f5f5;stop-opacity:1"
         offset="0" />
      <stop
         id="stop5030"
         style="stop-color:#e7e7e7;stop-opacity:1"
         offset="0.27751356" />
      <stop
         id="stop5032"
         style="stop-color:#8c8c8c;stop-opacity:1"
         offset="0.52359134" />
      <stop
         id="stop5034"
         style="stop-color:#dddddd;stop-opacity:1"
         offset="1" />
      <stop
         id="stop5036"
         style="stop-color:#a8a8a8;stop-opacity:1"
         offset="1" />
    </linearGradient>
    <linearGradient
       id="linearGradient5060">
      <stop
         id="stop5062"
         style="stop-color:#000000;stop-opacity:1"
         offset="0" />
      <stop
         id="stop5064"
         style="stop-color:#000000;stop-opacity:0"
         offset="1" />
    </linearGradient>
    <linearGradient
       id="linearGradient5048">
      <stop
         id="stop5050"
         style="stop-color:#000000;stop-opacity:0"
         offset="0" />
      <stop
         id="stop5056"
         style="stop-color:#000000;stop-opacity:1"
         offset="0.5" />
      <stop
         id="stop5052"
         style="stop-color:#000000;stop-opacity:0"
         offset="1" />
    </linearGradient>
    <linearGradient
       x1="19.635744"
       y1="23.297283"
       x2="13.81718"
       y2="9.7483387"
       id="linearGradient2461"
       xlink:href="#linearGradient3484-2"
       gradientUnits="userSpaceOnUse"
       gradientTransform="matrix(0.6874548,0,0,0.6642584,-0.4986866,0.5245843)" />
    <linearGradient
       x1="29.9375"
       y1="41"
       x2="30"
       y2="49.999996"
       id="linearGradient2465"
       xlink:href="#linearGradient2215-9"
       gradientUnits="userSpaceOnUse"
       gradientTransform="matrix(0.6886478,0,0,0.5067185,-3.9708843,4.4552574)" />
    <linearGradient
       x1="302.85715"
       y1="366.64789"
       x2="302.85715"
       y2="609.50507"
       id="linearGradient2471"
       xlink:href="#linearGradient5048"
       gradientUnits="userSpaceOnUse"
       gradientTransform="matrix(0.07635654,0,0,0.02184879,1.4025717,30.138555)" />
    <radialGradient
       cx="605.71429"
       cy="486.64789"
       r="117.14286"
       fx="605.71429"
       fy="486.64789"
       id="radialGradient2473"
       xlink:href="#linearGradient5060"
       gradientUnits="userSpaceOnUse"
       gradientTransform="matrix(0.04484747,0,0,0.02184879,20.38888,30.138555)" />
    <radialGradient
       cx="605.71429"
       cy="486.64789"
       r="117.14286"
       fx="605.71429"
       fy="486.64789"
       id="radialGradient2475"
       xlink:href="#linearGradient5060"
       gradientUnits="userSpaceOnUse"
       gradientTransform="matrix(-0.04484747,0,0,0.02184879,37.61113,30.138555)" />
    <radialGradient
       cx="113.0654"
       cy="97.587898"
       r="2.5631001"
       fx="113.667"
       fy="98"
       id="radialGradient3437"
       gradientUnits="userSpaceOnUse">
      <stop
         id="stop3439"
         style="stop-color:#eeeeee;stop-opacity:1"
         offset="0" />
      <stop
         id="stop3441"
         style="stop-color:#cecece;stop-opacity:1"
         offset="0.16" />
      <stop
         id="stop3443"
         style="stop-color:#888888;stop-opacity:1"
         offset="0.4675" />
      <stop
         id="stop3445"
         style="stop-color:#555555;stop-opacity:1"
         offset="1" />
    </radialGradient>
    <radialGradient
       cx="113.0654"
       cy="97.587898"
       r="2.5631001"
       fx="113.667"
       fy="98"
       id="radialGradient3789"
       xlink:href="#radialGradient3437"
       gradientUnits="userSpaceOnUse"
       gradientTransform="matrix(2.4956521,0,0,2.4956521,-223.97574,-53.226089)" />
    <radialGradient
       cx="113.0654"
       cy="97.587898"
       r="2.5631001"
       fx="113.667"
       fy="98"
       id="radialGradient3793"
       xlink:href="#radialGradient3437"
       gradientUnits="userSpaceOnUse"
       gradientTransform="matrix(2.4956521,0,0,2.4956521,-223.97574,-53.226089)" />
    <radialGradient
       cx="113.0654"
       cy="97.587898"
       r="2.5631001"
       fx="113.667"
       fy="98"
       id="radialGradient3797"
       xlink:href="#radialGradient3437"
       gradientUnits="userSpaceOnUse"
       gradientTransform="matrix(2.4956521,0,0,2.4956521,-223.97574,-53.226089)" />
    <radialGradient
       cx="113.0654"
       cy="97.587898"
       r="2.5631001"
       fx="113.667"
       fy="98"
       id="radialGradient3801"
       xlink:href="#radialGradient3437"
       gradientUnits="userSpaceOnUse"
       gradientTransform="matrix(2.4956521,0,0,2.4956521,-223.97574,-53.226089)" />
    <radialGradient
       cx="142.62215"
       cy="191.85428"
       r="78.728165"
       fx="142.62215"
       fy="191.85428"
       id="radialGradient3820"
       xlink:href="#linearGradient4035"
       gradientUnits="userSpaceOnUse"
       gradientTransform="matrix(0.12330157,0,0,-0.08625852,-2.074113,31.247748)" />
    <radialGradient
       cx="127.31733"
       cy="143.82751"
       r="78.728165"
       fx="127.31733"
       fy="143.82751"
       id="radialGradient3827"
       xlink:href="#linearGradient5026"
       gradientUnits="userSpaceOnUse"
       gradientTransform="matrix(0.12647903,-0.01718782,0.00571677,0.0512009,-5.1165779,6.5256499)" />
    <radialGradient
       cx="141.74666"
       cy="206.42612"
       r="78.728165"
       fx="141.74666"
       fy="206.42612"
       id="radialGradient3831"
       xlink:href="#linearGradient4035"
       gradientUnits="userSpaceOnUse"
       gradientTransform="matrix(0.24819429,-0.00314007,0.00183689,0.18067324,-20.017169,-13.633933)" />
    <linearGradient
       id="linearGradient4236-0">
      <stop
         id="stop4238-4"
         style="stop-color:#eeeeee;stop-opacity:1"
         offset="0" />
      <stop
         id="stop4240-3"
         style="stop-color:#eeeeee;stop-opacity:0"
         offset="1" />
    </linearGradient>
    <linearGradient
       id="linearGradient6309">
      <stop
         id="stop6311"
         style="stop-color:#000000;stop-opacity:1"
         offset="0" />
      <stop
         id="stop6313"
         style="stop-color:#bbbbbb;stop-opacity:0"
         offset="1" />
    </linearGradient>
    <linearGradient
       id="linearGradient4035">
      <stop
         id="stop4037"
         style="stop-color:#f5f5f5;stop-opacity:1"
         offset="0" />
      <stop
         id="stop4039"
         style="stop-color:#e7e7e7;stop-opacity:1"
         offset="0.47025558" />
      <stop
         id="stop4041"
         style="stop-color:#8c8c8c;stop-opacity:1"
         offset="0.69348532" />
      <stop
         id="stop4043"
         style="stop-color:#dddddd;stop-opacity:1"
         offset="0.83542866" />
      <stop
         id="stop4045"
         style="stop-color:#a8a8a8;stop-opacity:1"
         offset="1" />
    </linearGradient>
    <linearGradient
       id="linearGradient2215-9">
      <stop
         id="stop2223-6"
         style="stop-color:#7a7a7a;stop-opacity:1"
         offset="0" />
      <stop
         id="stop2219-1"
         style="stop-color:#474747;stop-opacity:1"
         offset="1" />
    </linearGradient>
    <linearGradient
       id="linearGradient7056-0">
      <stop
         id="stop7064-4"
         style="stop-color:#e6e6e6;stop-opacity:1"
         offset="0" />
      <stop
         id="stop7060-2"
         style="stop-color:#c8c8c8;stop-opacity:1"
         offset="1" />
    </linearGradient>
    <linearGradient
       id="linearGradient3484-2">
      <stop
         id="stop3486-2"
         style="stop-color:#969696;stop-opacity:1"
         offset="0" />
      <stop
         id="stop3488-0"
         style="stop-color:#b4b4b4;stop-opacity:1"
         offset="1" />
    </linearGradient>
    <linearGradient
       id="linearGradient6310-8">
      <stop
         id="stop6312-6"
         style="stop-color:#ffffff;stop-opacity:1"
         offset="0" />
      <stop
         id="stop6314-6"
         style="stop-color:#ffffff;stop-opacity:0"
         offset="1" />
    </linearGradient>
    <radialGradient
       cx="24"
       cy="42"
       r="21"
       fx="24"
       fy="42"
       id="radialGradient4226"
       xlink:href="#linearGradient6310-8"
       gradientUnits="userSpaceOnUse"
       gradientTransform="matrix(0.71428568,0,1.9866158e-8,0.21428567,-1.1428556,18.500001)" />
    <linearGradient
       x1="12.277412"
       y1="37.205811"
       x2="12.221823"
       y2="33.758667"
       id="linearGradient4235"
       xlink:href="#linearGradient4236-0"
       gradientUnits="userSpaceOnUse"
       gradientTransform="matrix(0.79304646,0,0,0.53932582,-1.209199,9.1869586)" />
    <linearGradient
       x1="7.0625"
       y1="35.28125"
       x2="24.6875"
       y2="35.28125"
       id="linearGradient4238"
       xlink:href="#linearGradient6309"
       gradientUnits="userSpaceOnUse"
       gradientTransform="matrix(0.79304646,0,0,0.53932582,-0.57833673,8.4719091)" />
    <radialGradient
       cx="10"
       cy="7.2368369"
       r="16"
       fx="10"
       fy="7.2368369"
       id="radialGradient5024"
       xlink:href="#linearGradient7056-0"
       gradientUnits="userSpaceOnUse"
       gradientTransform="matrix(1.4045128,0,0,0.9375,-4.0451283,4.2154656)" />
  </defs>
  <g
     transform="matrix(0.6666596,0,0,0.6259973,-3.3331284,3.7969778)"
     id="g6029"
     style="display:inline;enable-background:new">
    <rect
       width="36.869301"
       height="5.3061337"
       x="10.565332"
       y="38.149361"
       id="rect2723"
       style="opacity:0.40206185;fill:url(#linearGradient2471);fill-opacity:1;fill-rule:nonzero;stroke:none;stroke-width:0.5;marker:none;visibility:visible;display:inline;overflow:visible" />
    <path
       d="m 47.41667,38.149545 c 0,0 0,5.30584 0,5.30584 2.30953,0.01 5.58333,-1.18877 5.58333,-2.65326 0,-1.46449 -2.57726,-2.65258 -5.58333,-2.65258 z"
       inkscape:connector-curvature="0"
       id="path2725"
       style="opacity:0.40206185;fill:url(#radialGradient2473);fill-opacity:1;fill-rule:nonzero;stroke:none;stroke-width:0.5;marker:none;visibility:visible;display:inline;overflow:visible" />
    <path
       d="m 10.58333,38.149545 c 0,0 0,5.30584 0,5.30584 C 8.2737899,43.465375 5,42.266615 5,40.802125 c 0,-1.46449 2.5772699,-2.65258 5.58333,-2.65258 z"
       inkscape:connector-curvature="0"
       id="path2727"
       style="opacity:0.40206185;fill:url(#radialGradient2475);fill-opacity:1;fill-rule:nonzero;stroke:none;stroke-width:1;marker:none;visibility:visible;display:inline;overflow:visible" />
  </g>
  <path
     d="m 0.50764664,25.485779 30.98450536,0 -0.619526,4.050331 -29.6765863,0 -0.68839306,-4.050331 z"
     inkscape:connector-curvature="0"
     id="rect6431"
     style="fill:url(#linearGradient2465);fill-opacity:1;fill-rule:evenodd;stroke:#353537;stroke-width:0.92799884;stroke-linecap:round;stroke-linejoin:round;stroke-miterlimit:4;stroke-opacity:1;stroke-dasharray:none;stroke-dashoffset:0;display:inline;enable-background:new" />
  <rect
     width="31"
     height="1"
     x="0.5"
     y="25"
     id="rect6381"
     style="fill:#d2d2d3;fill-opacity:1;fill-rule:evenodd;stroke:none;display:inline;enable-background:new" />
  <path
     d="M 31.502339,25.502101 26.821023,8.3812814 C 26.688651,7.8937324 25.995252,7.4978971 25.412312,7.4978971 l -18.9855897,0 c -0.8955749,0 -1.4087718,0.1319037 -1.597617,0.8833843 L 0.49812296,25.485432"
     inkscape:connector-curvature="0"
     id="path6345"
     style="fill:url(#radialGradient5024);fill-opacity:1;fill-rule:nonzero;stroke:url(#linearGradient2461);stroke-width:0.99578333;stroke-linecap:round;stroke-linejoin:round;stroke-miterlimit:4;stroke-opacity:1;stroke-dasharray:none;stroke-dashoffset:0;marker:none;visibility:visible;display:inline;overflow:visible;enable-background:accumulate" />
  <path
     d="M 30.500001,25.507862 1.5000001,25.492138"
     inkscape:connector-curvature="0"
     id="path7046"
     style="opacity:0.35;fill:none;stroke:#ffffff;stroke-width:1.00000012;stroke-linecap:round;stroke-linejoin:miter;stroke-miterlimit:4;stroke-opacity:1;stroke-dasharray:none;stroke-dashoffset:0;marker:none;visibility:visible;display:inline;overflow:visible;enable-background:accumulate" />
  <g
     transform="matrix(0.06707933,0,0,0.04653275,2.4611632,-0.21307687)"
     id="g9164"
     style="display:inline;enable-background:new">
    <path
       d="m 48.2999,190.27968 c 0.31446,4.2476 5.02375,7.71156 10.51419,7.71156 5.48794,0 9.6432,-3.46396 9.27634,-7.71156 -0.36437,-4.22514 -5.07117,-7.6367 -10.5067,-7.6367 -5.43803,0.002 -9.59329,3.41156 -9.28383,7.6367 z"
       inkscape:connector-curvature="0"
       id="path9166"
       style="fill:#f0f0f0;fill-opacity:1" />
    <path
       d="m 51.85122,187.29238 c -0.50163,0.53906 -1.07563,1.40256 -1.07563,2.55056 0,0.0824 0.005,0.16471 0.01,0.25206 0.21713,2.9274 3.89322,5.40059 8.02602,5.40059 2.3534,0 4.50465,-0.81109 5.75248,-2.17371 0.53656,-0.58149 1.148,-1.54481 1.03819,-2.82758 -0.25206,-2.90244 -3.92316,-5.35567 -8.02103,-5.35567 -2.33593,0.002 -4.47969,0.8061 -5.73001,2.15375 l -2e-5,0 z"
       inkscape:connector-curvature="0"
       id="path9168"
       style="fill:url(#radialGradient3789);fill-opacity:1" />
  </g>
  <g
     transform="matrix(0.06707933,0,0,0.04653275,21.361163,-0.21307687)"
     id="g9170"
     style="display:inline;enable-background:new">
    <path
       d="m 48.2999,190.27968 c 0.31446,4.2476 5.02375,7.71156 10.51419,7.71156 5.48794,0 9.6432,-3.46396 9.27634,-7.71156 -0.36437,-4.22514 -5.07117,-7.6367 -10.5067,-7.6367 -5.43803,0.002 -9.59329,3.41156 -9.28383,7.6367 z"
       inkscape:connector-curvature="0"
       id="path9172"
       style="fill:#e6e6e6;fill-opacity:1" />
    <path
       d="m 51.85122,187.29238 c -0.50163,0.53906 -1.07563,1.40256 -1.07563,2.55056 0,0.0824 0.005,0.16471 0.01,0.25206 0.21713,2.9274 3.89322,5.40059 8.02602,5.40059 2.3534,0 4.50465,-0.81109 5.75248,-2.17371 0.53656,-0.58149 1.148,-1.54481 1.03819,-2.82758 -0.25206,-2.90244 -3.92316,-5.35567 -8.02103,-5.35567 -2.33593,0.002 -4.47969,0.8061 -5.73001,2.15375 l -2e-5,0 z"
       inkscape:connector-curvature="0"
       id="path9174"
       style="fill:url(#radialGradient3793);fill-opacity:1" />
  </g>
  <path
     d="m 19.375,8.75 c -0.358936,0 -0.68286,0.081146 -0.9375,0.21875 -0.25464,0.1376039 -0.455501,0.3648875 -0.46875,0.65625 -0.03187,0.69869 -0.539442,1.2256 -1.5,1.71875 -0.954397,0.489987 -2.333704,0.898828 -4,1.28125 -0.01076,0.0025 -0.02047,-0.0025 -0.03125,0 -0.620375,0.09722 -1.655533,0.344339 -2.65625,0.625 -0.9999599,0.280449 -1.9191891,0.592616 -2.34375,0.8125 -0.00506,0.0026 -0.02633,-0.0026 -0.03125,0 -2.1117518,1.002416 -3.437887,2.354926 -3.625,3.875 C 3.6100457,19.328175 4.4284433,20.709111 6,21.78125 8.2980815,23.349089 12.017995,24.25 16,24.25 c 3.982015,0 7.732003,-0.900314 10.03125,-2.46875 1.435486,-0.979116 2.21875,-2.201934 2.21875,-3.46875 0,-0.138591 -0.01938,-0.271465 -0.03125,-0.375 -0.163565,-1.32915 -1.197023,-2.547861 -2.875,-3.5 C 25.291448,13.885956 24.875,9.59375 24.875,9.59375 24.847537,9.3032356 24.633529,9.1050939 24.375,8.96875 24.116471,8.8324061 23.795003,8.75 23.4375,8.75 l -4.0625,0 z m 0,0.65625 4.0625,0 c 0.08285,0 0.142892,0.01974 0.1875,0.03125 l 0.46875,5.09375 a 0.25210854,0.25210854 0 0 0 0,0.03125 0.25210854,0.25210854 0 0 0 0.03125,0.0625 0.25210854,0.25210854 0 0 0 0.09375,0.09375 c 1.645695,0.844333 2.618429,2.117087 2.75,3.1875 0.08201,0.665804 -0.138706,1.277578 -0.625,1.84375 -0.486294,0.566172 -1.259179,1.070089 -2.25,1.5 -1.981642,0.859822 -4.836312,1.375 -8.09375,1.375 -3.257433,0 -6.1121403,-0.515178 -8.09375,-1.375 -0.9908049,-0.429911 -1.7636904,-0.933825 -2.25,-1.5 -0.4863096,-0.566175 -0.7069466,-1.177942 -0.625,-1.84375 0.141263,-1.147218 1.2081576,-2.472347 3.0625,-3.34375 a 0.25210854,0.25210854 0 0 0 0.03125,0 C 8.12919,14.5597 8.225867,14.51522 8.34375,14.46875 8.461633,14.42228 8.6307512,14.342583 8.8125,14.28125 9.1759976,14.158583 9.6327098,14.017053 10.125,13.875 11.10958,13.590895 12.205895,13.326594 12.75,13.25 a 0.25210854,0.25210854 0 0 0 0.03125,0 c 1.610744,-0.367803 3.156787,-0.807728 4.34375,-1.40625 1.141118,-0.575405 1.953845,-1.349386 2.0625,-2.40625 0.02948,-0.011025 0.09513,-0.03125 0.1875,-0.03125 z"
     inkscape:connector-curvature="0"
     transform="matrix(0.99011122,0,0,0.98360656,0.15312187,0.2704918)"
     id="path3829"
     style="fill:url(#radialGradient3831);fill-opacity:1;display:inline;enable-background:new" />
  <path
     d="m 15.999844,19.999941 c -2.243306,0 -3.963027,-0.835988 -3.999283,-1.944843 C 12.00028,18.042688 12,18.031268 12,18.019598 c 0,-0.401251 0.225403,-0.782854 0.653714,-1.105962 0.724529,-0.546168 1.975473,-0.872168 3.34641,-0.872168 1.370667,0 2.6216,0.326 3.34613,0.872168 0.440961,0.332193 0.666925,0.72704 0.653152,1.14131 C 19.962576,19.163813 18.242868,20 15.999844,20 l 0,-6.2e-5 z m 0.06699,-2.717582 c -2.107848,0 -3.248681,0.207967 -3.22338,0.964372 0.02444,0.744615 1.437543,1.33956 3.156421,1.33956 1.718879,0 3.131975,-0.595156 3.156422,-1.33956 0.02502,-0.756604 -0.981616,-0.964372 -3.089463,-0.964372 l 0,0 z"
     inkscape:connector-curvature="0"
     id="path9156"
     style="fill:url(#radialGradient3820);fill-opacity:1;fill-rule:nonzero;stroke-width:1;stroke-linecap:butt;stroke-linejoin:miter;stroke-miterlimit:4;stroke-opacity:1;stroke-dasharray:none;stroke-dashoffset:0;marker:none;visibility:visible;display:inline;overflow:visible;enable-background:accumulate" />
  <path
     d="M 7.25,8.90625 A 0.08979947,0.08979947 0 0 0 7.21875,8.9375 0.08979947,0.08979947 0 0 0 7.1875,8.96875 l -0.09375,0.21875 -1,3.25 -0.1875,0.53125 a 0.08979947,0.08979947 0 0 0 0,0.03125 0.08979947,0.08979947 0 0 0 0,0.03125 0.08979947,0.08979947 0 0 0 0.03125,0.03125 0.08979947,0.08979947 0 0 0 0.03125,0.03125 0.08979947,0.08979947 0 0 0 0.03125,0 0.08979947,0.08979947 0 0 0 0.03125,0 l 0.5,-0.125 8.65625,-2.03125 0.03125,0 a 0.08979947,0.08979947 0 0 0 0.03125,0 c 0.489245,-0.215897 0.781208,-0.687441 0.84375,-1.09375 0.03088,-0.2009175 0.02015,-0.3761222 -0.0625,-0.5625 -0.08817,-0.1989208 -0.319139,-0.3807363 -0.5625,-0.375 l -0.03125,0 -7.96875,0 -0.1875,0 a 0.08979947,0.08979947 0 0 0 -0.03125,0 z m 0.375,0.375 7.84375,0 C 15.4568,9.359007 15.43646,9.5138617 15.375,9.6875 c -0.06146,0.1736383 -0.158384,0.331993 -0.25,0.375 L 6.875,12 7.625,9.28125 z"
     inkscape:connector-curvature="0"
     transform="matrix(0.95606719,0,0,0.89996733,0.47481804,1.0991212)"
     id="path3825"
     style="fill:url(#radialGradient3827);fill-opacity:1;fill-rule:nonzero;stroke:none;stroke-width:1;marker:none;visibility:visible;display:inline;overflow:visible;enable-background:accumulate" />
  <g
     transform="matrix(-0.09781119,0,0,0.1076727,9.1622105,3.1817486)"
     id="g9158"
     style="display:inline;enable-background:new">
    <path
       d="m 48.2999,190.27968 c 0.31446,4.2476 5.02375,7.71156 10.51419,7.71156 5.48794,0 9.6432,-3.46396 9.27634,-7.71156 -0.36437,-4.22514 -5.07117,-7.6367 -10.5067,-7.6367 -5.43803,0.002 -9.59329,3.41156 -9.28383,7.6367 z"
       inkscape:connector-curvature="0"
       id="path9160"
       style="fill:#e6e6e6;fill-opacity:1" />
    <path
       d="m 51.85122,187.29238 c -0.50163,0.53906 -1.07563,1.40256 -1.07563,2.55056 0,0.0824 0.005,0.16471 0.01,0.25206 0.21713,2.9274 3.89322,5.40059 8.02602,5.40059 2.3534,0 4.50465,-0.81109 5.75248,-2.17371 0.53656,-0.58149 1.148,-1.54481 1.03819,-2.82758 -0.25206,-2.90244 -3.92316,-5.35567 -8.02103,-5.35567 -2.33593,0.002 -4.47969,0.8061 -5.73001,2.15375 l -2e-5,0 z"
       inkscape:connector-curvature="0"
       id="path9162"
       style="fill:url(#radialGradient3797);fill-opacity:1" />
  </g>
  <g
     transform="matrix(0.09781119,0,0,0.1076727,22.777316,3.1817486)"
     id="g9190"
     style="display:inline;enable-background:new">
    <path
       d="m 48.2999,190.27968 c 0.31446,4.2476 5.02375,7.71156 10.51419,7.71156 5.48794,0 9.6432,-3.46396 9.27634,-7.71156 -0.36437,-4.22514 -5.07117,-7.6367 -10.5067,-7.6367 -5.43803,0.002 -9.59329,3.41156 -9.28383,7.6367 z"
       inkscape:connector-curvature="0"
       id="path9192"
       style="fill:#e6e6e6;fill-opacity:1" />
    <path
       d="m 51.85122,187.29238 c -0.50163,0.53906 -1.07563,1.40256 -1.07563,2.55056 0,0.0824 0.005,0.16471 0.01,0.25206 0.21713,2.9274 3.89322,5.40059 8.02602,5.40059 2.3534,0 4.50465,-0.81109 5.75248,-2.17371 0.53656,-0.58149 1.148,-1.54481 1.03819,-2.82758 -0.25206,-2.90244 -3.92316,-5.35567 -8.02103,-5.35567 -2.33593,0.002 -4.47969,0.8061 -5.73001,2.15375 l -2e-5,0 z"
       inkscape:connector-curvature="0"
       id="path9194"
       style="fill:url(#radialGradient3801);fill-opacity:1" />
  </g>
  <path
     d="M 4.699999,26 19,26 19,29 5.0225565,29 4.699999,26 z"
     inkscape:connector-curvature="0"
     id="rect9146"
     style="fill:url(#linearGradient4238);fill-opacity:1;fill-rule:evenodd;stroke:none;stroke-width:2.40899992;marker:none;visibility:visible;display:inline;overflow:visible" />
  <path
     d="m 5.0225554,28.999998 c 0,0 -0.2150376,-2.163497 -0.2150376,-2.163497 1.4556584,1.714639 6.7945402,2.163497 10.4750742,2.163497 0,0 -10.2600366,0 -10.2600366,0 z"
     inkscape:connector-curvature="0"
     id="path9148"
     style="opacity:0.81142853;fill:url(#linearGradient4235);fill-opacity:1;fill-rule:evenodd;stroke:none" />
  <rect
     width="30"
     height="3"
     x="1"
     y="26"
     id="rect6300-3"
     style="opacity:0.2;fill:url(#radialGradient4226);fill-opacity:1;stroke:none" />
</svg>
