<?xml version="1.0" encoding="UTF-8" standalone="no"?>
<!-- Created with Inkscape (http://www.inkscape.org/) -->

<svg
   xmlns:dc="http://purl.org/dc/elements/1.1/"
   xmlns:cc="http://creativecommons.org/ns#"
   xmlns:rdf="http://www.w3.org/1999/02/22-rdf-syntax-ns#"
   xmlns:svg="http://www.w3.org/2000/svg"
   xmlns="http://www.w3.org/2000/svg"
   xmlns:xlink="http://www.w3.org/1999/xlink"
   xmlns:inkscape="http://www.inkscape.org/namespaces/inkscape"
   version="1.1"
   width="32"
   height="32"
   id="svg3670">
  <defs
     id="defs3672">
    <linearGradient
       x1="14"
       y1="2"
       x2="32"
       y2="40"
       id="linearGradient3617"
       xlink:href="#linearGradient3208"
       gradientUnits="userSpaceOnUse"
       gradientTransform="matrix(1.4307233,0,0,0.67711807,-15.489987,-2.3730576)" />
    <linearGradient
       id="linearGradient3208">
      <stop
         id="stop3210"
         style="stop-color:#ffffff;stop-opacity:1"
         offset="0" />
      <stop
         id="stop3212"
         style="stop-color:#ffffff;stop-opacity:0"
         offset="1" />
    </linearGradient>
    <linearGradient
       x1="24.117819"
       y1="33.657772"
       x2="-32.011677"
       y2="33.657784"
       id="linearGradient3621"
       xlink:href="#linearGradient3775"
       gradientUnits="userSpaceOnUse"
       gradientTransform="matrix(1.0155223e-7,-0.45626207,0.47872179,2.258382e-7,-0.1127109,14.199153)" />
    <linearGradient
       id="linearGradient3775">
      <stop
         id="stop3777"
         style="stop-color:#ffffff;stop-opacity:1"
         offset="0" />
      <stop
         id="stop3779"
         style="stop-color:#ffffff;stop-opacity:0"
         offset="1" />
    </linearGradient>
    <linearGradient
       x1="18.601307"
       y1="0.85446119"
       x2="18.601307"
       y2="49.956139"
       id="linearGradient3624"
       xlink:href="#linearGradient3600-8"
       gradientUnits="userSpaceOnUse"
       gradientTransform="matrix(0.65456437,0,0,0.56329366,11.650349,1.6893441)" />
    <linearGradient
       id="linearGradient3600-8">
      <stop
         id="stop3602-2"
         style="stop-color:#f4f4f4;stop-opacity:1"
         offset="0" />
      <stop
         id="stop3604-5"
         style="stop-color:#dbdbdb;stop-opacity:1"
         offset="1" />
    </linearGradient>
    <linearGradient
       x1="-74.784531"
       y1="54.702854"
       x2="-74.784531"
       y2="2.103905"
       id="linearGradient3626"
       xlink:href="#linearGradient3104-5"
       gradientUnits="userSpaceOnUse"
       gradientTransform="matrix(0.52855864,0,0,0.52715895,50.538169,1.0615644)" />
    <linearGradient
       id="linearGradient3104-5">
      <stop
         id="stop3106-2"
         style="stop-color:#aaaaaa;stop-opacity:1"
         offset="0" />
      <stop
         id="stop3108-2"
         style="stop-color:#c8c8c8;stop-opacity:1"
         offset="1" />
    </linearGradient>
    <linearGradient
       id="linearGradient23419-5">
      <stop
         id="stop23421-7"
         style="stop-color:#000000;stop-opacity:1"
         offset="0" />
      <stop
         id="stop23423-0"
         style="stop-color:#000000;stop-opacity:0"
         offset="1" />
    </linearGradient>
    <radialGradient
       cx="23.334524"
       cy="41.63604"
       r="22.627417"
       fx="23.334524"
       fy="41.63604"
       id="radialGradient3668"
       xlink:href="#linearGradient23419-5"
       gradientUnits="userSpaceOnUse"
       gradientTransform="matrix(0.41984462,0,0,0.13257013,6.203125,22.480299)" />
  </defs>
  <metadata
     id="metadata3675">
    <rdf:RDF>
      <cc:Work
         rdf:about="">
        <dc:format>image/svg+xml</dc:format>
        <dc:type
           rdf:resource="http://purl.org/dc/dcmitype/StillImage" />
        <dc:title />
      </cc:Work>
    </rdf:RDF>
  </metadata>
  <g
     id="layer1">
    <path
       d="M 25.5,27.999999 C 25.500427,29.65681 21.247054,31 16,31 10.752946,31 6.4995114,29.65681 6.5,27.999999 6.4995725,26.343197 10.752946,25 16,25 c 5.247054,0 9.500482,1.343197 9.5,2.999999 l 0,0 z"
       inkscape:connector-curvature="0"
       id="path23417-6"
       style="opacity:0.3;fill:url(#radialGradient3668);fill-opacity:1;fill-rule:evenodd;stroke:none;stroke-width:2;marker:none;visibility:visible;display:inline;overflow:visible" />
    <path
       d="m 15.971632,2.5002222 c -1.771342,0.04041 -3.766409,0.1444505 -5.441066,1.2588829 a 0.62739771,0.60331751 0 0 0 -0.12273,0.098351 C 8.6681272,5.8104235 8.9840069,8.4009655 8.7100586,10.38791 a 0.62739771,0.60331751 0 0 0 -0.020422,0.03934 c -0.3146364,5.092071 -0.297238,10.255322 0.511378,15.342632 a 0.62739771,0.60331751 0 0 0 0,0.01964 c 0.2630171,1.346897 1.1350874,2.776517 2.7409894,3.147208 0.01564,0.0038 0.02513,0.01624 0.04091,0.01964 l 0,-0.01964 c 2.436602,0.71835 5.067768,0.718544 7.507034,0.177029 1.263382,-0.280888 2.572386,-1.033461 3.027361,-2.399745 0.002,-0.0056 -0.002,-0.01379 0,-0.01964 0.593834,-1.632312 0.582334,-3.312695 0.75684,-4.838832 a 0.62739771,0.60331751 0 0 0 0.02043,-0.01964 C 23.61974,16.940422 23.597491,11.998079 22.946834,7.1030446 22.856754,6.4088398 22.710641,5.6447294 22.353635,4.9393394 22.000498,4.2415973 21.42293,3.6104563 20.574039,3.2673855 c -0.0039,-0.00125 0.0039,-0.018128 0,-0.019639 -0.0059,-0.00252 -0.01427,0.00252 -0.02043,0 -1.48414,-0.6406455 -3.105456,-0.6925682 -4.54104,-0.7474618 a 0.62739771,0.60331751 0 0 0 -0.04091,0 z"
       inkscape:connector-curvature="0"
       id="path4487"
       style="color:#000000;fill:url(#linearGradient3624);fill-opacity:1;fill-rule:nonzero;stroke:url(#linearGradient3626);stroke-width:0.99992198;stroke-linecap:butt;stroke-linejoin:round;stroke-miterlimit:4;stroke-opacity:1;stroke-dasharray:none;stroke-dashoffset:0;marker:none;visibility:visible;display:inline;overflow:visible;enable-background:accumulate" />
    <path
       d="m 16.000712,3.4999986 c -1.659717,0.038782 -3.434657,0.1548333 -4.844409,1.115782 -1.4451411,1.6617308 -1.1987601,3.9825707 -1.4717787,6.0109044 -0.2961401,4.909243 -0.2973348,9.868723 0.4583867,14.738825 0.221371,1.161186 0.956633,2.340763 2.199104,2.615411 2.195881,0.670968 4.589261,0.658615 6.819362,0.151506 1.064032,-0.24232 2.094387,-0.873366 2.437538,-1.950506 0.523677,-1.46275 0.532208,-3.043481 0.702687,-4.570621 C 22.60748,16.894325 22.600156,12.135703 21.991118,7.4424154 21.829876,6.1695883 21.397724,4.7038191 20.075172,4.1708768 18.810203,3.6067485 17.366293,3.5534857 16.000712,3.4999986 z"
       inkscape:connector-curvature="0"
       id="rect1320-6-9-3"
       style="fill:none;stroke:url(#linearGradient3621);stroke-width:0.99999982;stroke-linecap:round;stroke-linejoin:round;stroke-miterlimit:4;stroke-opacity:1;stroke-dasharray:none;stroke-dashoffset:0;marker:none;visibility:visible;display:inline;overflow:visible" />
    <path
       d="m 16,3.0000024 c -1.787387,0.040333 -3.69014,0.16728 -5.208333,1.1666667 -1.556307,1.7282 -1.2893136,4.1405336 -1.5833336,6.2499999 -0.228228,3.653718 -0.3002707,7.32515 -0.020833,10.979167 L 22.520833,7.6041694 c -0.02089,-0.1667647 -0.04011,-0.3333894 -0.0625,-0.5 C 22.284687,5.7804291 21.82012,4.2417624 20.395833,3.6875024 19.03356,3.1008091 17.470627,3.0556291 16,3.0000024 z"
       inkscape:connector-curvature="0"
       id="rect3238"
       style="opacity:0.4;fill:url(#linearGradient3617);fill-opacity:1;fill-rule:nonzero;stroke:none;stroke-width:0.99992186;marker:none;visibility:visible;display:inline;overflow:visible;enable-background:accumulate" />
  </g>
</svg>
