<?xml version="1.0" encoding="UTF-8" standalone="no"?>
<!-- Created with Inkscape (http://www.inkscape.org/) -->

<svg
   xmlns:dc="http://purl.org/dc/elements/1.1/"
   xmlns:cc="http://creativecommons.org/ns#"
   xmlns:rdf="http://www.w3.org/1999/02/22-rdf-syntax-ns#"
   xmlns:svg="http://www.w3.org/2000/svg"
   xmlns="http://www.w3.org/2000/svg"
   xmlns:xlink="http://www.w3.org/1999/xlink"
   xmlns:inkscape="http://www.inkscape.org/namespaces/inkscape"
   version="1.0"
   width="48"
   height="48"
   id="svg5555">
  <metadata
     id="metadata52">
    <rdf:RDF>
      <cc:Work
         rdf:about="">
        <dc:format>image/svg+xml</dc:format>
        <dc:type
           rdf:resource="http://purl.org/dc/dcmitype/StillImage" />
        <dc:title />
      </cc:Work>
    </rdf:RDF>
  </metadata>
  <defs
     id="defs5557">
    <linearGradient
       id="linearGradient4309">
      <stop
         id="stop4311"
         style="stop-color:#0e283b;stop-opacity:1"
         offset="0" />
      <stop
         id="stop4313"
         style="stop-color:#194c70;stop-opacity:1"
         offset="1" />
    </linearGradient>
    <linearGradient
       id="linearGradient2480">
      <stop
         id="stop2482"
         style="stop-color:#3d3e40;stop-opacity:1"
         offset="0" />
      <stop
         id="stop2484"
         style="stop-color:#4e4e4e;stop-opacity:1"
         offset="1" />
    </linearGradient>
    <linearGradient
       id="linearGradient3996">
      <stop
         id="stop3998"
         style="stop-color:#ffffff;stop-opacity:1"
         offset="0" />
      <stop
         id="stop4000"
         style="stop-color:#ffffff;stop-opacity:0"
         offset="1" />
    </linearGradient>
    <radialGradient
       cx="24"
       cy="24"
       r="17"
       id="radialGradient3199"
       gradientUnits="userSpaceOnUse">
      <stop
         id="stop3303"
         style="stop-color:#ffffff;stop-opacity:0"
         offset="0" />
      <stop
         id="stop3309"
         style="stop-color:#ffffff;stop-opacity:0"
         offset="0.69999999" />
      <stop
         id="stop3305"
         style="stop-color:#000000;stop-opacity:1"
         offset="1" />
    </radialGradient>
    <linearGradient
       x1="29.049999"
       y1="7.0279999"
       x2="29.049999"
       y2="26.493999"
       id="linearGradient3201"
       gradientUnits="userSpaceOnUse"
       gradientTransform="matrix(1,0,0,-1,1e-6,48)">
      <stop
         id="stop3710"
         style="stop-color:#000000;stop-opacity:1"
         offset="0" />
      <stop
         id="stop3712"
         style="stop-color:#000000;stop-opacity:1"
         offset="1" />
    </linearGradient>
    <linearGradient
       x1="24.398001"
       y1="16.601999"
       x2="24.398001"
       y2="34.602001"
       id="linearGradient3212"
       xlink:href="#linearGradient3996"
       gradientUnits="userSpaceOnUse"
       gradientTransform="translate(-0.39768,0.39813)" />
    <radialGradient
       cx="30.455"
       cy="12.215"
       r="18"
       id="radialGradient3215"
       gradientUnits="userSpaceOnUse"
       gradientTransform="matrix(0,-1.5556,2.6591,1.0821e-8,-5.4804,83.374)">
      <stop
         id="stop3270"
         style="stop-color:#194c70;stop-opacity:1"
         offset="0" />
      <stop
         id="stop4305"
         style="stop-color:#3b7caf;stop-opacity:1"
         offset="0.62664998" />
      <stop
         id="stop4307"
         style="stop-color:#6396cd;stop-opacity:1"
         offset="0.87730002" />
      <stop
         id="stop3272"
         style="stop-color:#8badea;stop-opacity:1"
         offset="1" />
    </radialGradient>
    <linearGradient
       x1="29.049999"
       y1="7.0279999"
       x2="29.049999"
       y2="40.32"
       id="linearGradient3217"
       xlink:href="#linearGradient2480"
       gradientUnits="userSpaceOnUse"
       gradientTransform="matrix(1.0606,0,0,1.0606,-1.4545,-1.4545)" />
    <radialGradient
       cx="24"
       cy="25.049999"
       r="21"
       id="radialGradient3220"
       gradientUnits="userSpaceOnUse"
       gradientTransform="matrix(0.99943,-1.0912e-8,1.0916e-8,1,0.013862,-0.049659)">
      <stop
         id="stop4299"
         style="stop-color:#ffffff;stop-opacity:1"
         offset="0" />
      <stop
         id="stop4301"
         style="stop-color:#f0f0f0;stop-opacity:1"
         offset="0.85714" />
      <stop
         id="stop4303"
         style="stop-color:#999999;stop-opacity:1"
         offset="1" />
    </radialGradient>
    <linearGradient
       x1="16"
       y1="45"
       x2="16"
       id="linearGradient3222"
       gradientUnits="userSpaceOnUse">
      <stop
         id="stop4108"
         style="stop-color:#787878;stop-opacity:1"
         offset="0" />
      <stop
         id="stop4110"
         style="stop-color:#b4b4b4;stop-opacity:1"
         offset="1" />
    </linearGradient>
    <radialGradient
       cx="62.625"
       cy="4.625"
       r="10.625"
       id="radialGradient3225"
       gradientUnits="userSpaceOnUse"
       gradientTransform="matrix(2.1647,0,0,0.75294,-111.56,36.518)">
      <stop
         id="stop8840"
         style="stop-color:#000000;stop-opacity:1"
         offset="0" />
      <stop
         id="stop8842"
         style="stop-color:#000000;stop-opacity:0"
         offset="1" />
    </radialGradient>
    <radialGradient
       cx="13.5"
       cy="25.700001"
       r="3"
       id="radialGradient4256"
       xlink:href="#linearGradient4309"
       gradientUnits="userSpaceOnUse"
       gradientTransform="matrix(2.3333,-1.0557e-6,1.9607e-6,4.3333,-17.5,-82.367)" />
    <radialGradient
       cx="13.5"
       cy="25.700001"
       r="3"
       id="radialGradient4258"
       xlink:href="#linearGradient4309"
       gradientUnits="userSpaceOnUse"
       gradientTransform="matrix(2.3333,1.2434e-6,-2.3092e-6,4.3333,-17.5,-82.367)" />
    <radialGradient
       cx="13.5"
       cy="25.700001"
       r="3"
       id="radialGradient4260"
       xlink:href="#linearGradient4309"
       gradientUnits="userSpaceOnUse"
       gradientTransform="matrix(2.6667,1.1938e-7,-1.9399e-7,4.3333,-22,-82.367)" />
    <radialGradient
       cx="14"
       cy="25.700001"
       r="3"
       id="radialGradient4262"
       xlink:href="#linearGradient4309"
       gradientUnits="userSpaceOnUse"
       gradientTransform="matrix(2.3333,-1.0331e-6,1.9186e-6,4.3333,-18.667,-82.367)" />
    <radialGradient
       cx="24"
       cy="20"
       r="17"
       id="radialGradient4266"
       xlink:href="#linearGradient3996"
       gradientUnits="userSpaceOnUse"
       gradientTransform="matrix(1.2353,0,0,1,-5.6471,0)" />
    <linearGradient
       x1="17.681"
       y1="2.75"
       x2="17.681"
       y2="-2.25"
       id="linearGradient4538"
       xlink:href="#linearGradient2480"
       gradientUnits="userSpaceOnUse"
       gradientTransform="matrix(2,0,0,-2,4.6379,43.5)" />
    <linearGradient
       x1="23.576"
       y1="25.357"
       x2="23.576"
       y2="31.211"
       id="linearGradient3077"
       gradientUnits="userSpaceOnUse"
       gradientTransform="matrix(-0.011455,-0.90585,1.1745,0.0059683,-8.866,33.546)">
      <stop
         id="stop2646-2"
         style="stop-color:#181818;stop-opacity:1"
         offset="0" />
      <stop
         id="stop2543-3"
         style="stop-color:#dbdbdb;stop-opacity:1"
         offset="0.13483" />
      <stop
         id="stop2545-2"
         style="stop-color:#a4a4a4;stop-opacity:1"
         offset="0.20224001" />
      <stop
         id="stop2650-7"
         style="stop-color:#ffffff;stop-opacity:1"
         offset="0.26966" />
      <stop
         id="stop2652-3"
         style="stop-color:#8d8d8d;stop-opacity:1"
         offset="0.4465" />
      <stop
         id="stop2551-9"
         style="stop-color:#959595;stop-opacity:1"
         offset="0.57113999" />
      <stop
         id="stop2553-0"
         style="stop-color:#cecece;stop-opacity:1"
         offset="0.72038001" />
      <stop
         id="stop2555-15"
         style="stop-color:#181818;stop-opacity:1"
         offset="1" />
    </linearGradient>
    <linearGradient
       id="linearGradient3155-40-6-6">
      <stop
         id="stop2646-8-8"
         style="stop-color:#181818;stop-opacity:1"
         offset="0" />
      <stop
         id="stop2543-8-7"
         style="stop-color:#dbdbdb;stop-opacity:1"
         offset="0.13483" />
      <stop
         id="stop2545-6-4"
         style="stop-color:#a4a4a4;stop-opacity:1"
         offset="0.20224001" />
      <stop
         id="stop2650-2-9"
         style="stop-color:#ffffff;stop-opacity:1"
         offset="0.26966" />
      <stop
         id="stop2652-1-2"
         style="stop-color:#8d8d8d;stop-opacity:1"
         offset="0.4465" />
      <stop
         id="stop2551-3-4"
         style="stop-color:#959595;stop-opacity:1"
         offset="0.57113999" />
      <stop
         id="stop2553-1-4"
         style="stop-color:#cecece;stop-opacity:1"
         offset="0.72038001" />
      <stop
         id="stop2555-1-5"
         style="stop-color:#181818;stop-opacity:1"
         offset="1" />
    </linearGradient>
    <linearGradient
       x1="23.576"
       y1="25.357"
       x2="23.576"
       y2="31.211"
       id="linearGradient3126"
       xlink:href="#linearGradient3155-40-6-6"
       gradientUnits="userSpaceOnUse"
       gradientTransform="matrix(0.64003,-0.64293,0.66266,0.68319,-1.2052,10.256)" />
  </defs>
  <path
     d="m 20.627,8.0857 c 0.08395,-0.53647 1.5856,-0.95464 3.4241,-0.9453 1.8341,0.0093 3.3015,0.44439 3.4055,0.98001 4.13e-4,0.0021 0.0426,-0.0018 0.04296,2.12e-4 l -0.127,-6.5848 c -0.01086,-0.56082 -1.5523,-1.0256 -3.4491,-1.0352 -1.8968,-0.00964 -3.4342,0.43949 -3.4234,1.0003 z"
     inkscape:connector-curvature="0"
     id="rect2383-0"
     style="fill:url(#linearGradient3077);stroke:#666666;stroke-linejoin:round" />
  <g
     transform="translate(-0.0060929,1.0221)"
     id="g4510">
    <g
       id="g4007">
      <path
         d="m 33.715,9.4226 c 0.43057,-0.3283 1.5818,0.24611 2.619,1.3155 1.0348,1.0669 1.5575,2.2208 1.2343,2.6572 -0.0012,0.0017 0.0255,0.02335 0.02424,0.02498 l 4.628,-4.6988 c 0.394,-0.4002 -0.15,-1.6178 -1.22,-2.7212 -1.07,-1.1034 -2.264,-1.6767 -2.658,-1.2765 z"
         inkscape:connector-curvature="0"
         transform="translate(0.0060929,-1.0221)"
         id="rect2383-5"
         style="fill:url(#linearGradient3126);stroke:#0c0c0c;stroke-linejoin:round" />
      <path
         d="m 36.659,5.228 c 0.4303,-0.32838 1.6377,0.2876 2.7472,1.4103 1.1069,1.12 1.6901,2.3185 1.3745,2.7604 -0.0012,0.0017 0.02715,0.02457 0.02592,0.02623 l 1.8855,-1.9269 0.03848,-0.03932 c 0.0012,-0.0017 -0.02713,-0.02455 -0.02592,-0.02623 0.31558,-0.44189 -0.26764,-1.6404 -1.3745,-2.7604 -1.1095,-1.1227 -2.3169,-1.7387 -2.7472,-1.4103 L 38.5445,3.301104 z"
         inkscape:connector-curvature="0"
         id="rect3175"
         style="opacity:0.8;fill:#ffb6ed;stroke:#e28ccd;stroke-width:0.39151999;stroke-linejoin:round" />
    </g>
    <g
       transform="matrix(-1,0,0,1,48.207,0)"
       id="g4011">
      <path
         d="m 33.715,9.4226 c 0.43057,-0.3283 1.5818,0.24611 2.619,1.3155 1.0348,1.0669 1.5575,2.2208 1.2343,2.6572 -0.0012,0.0017 0.0255,0.02335 0.02424,0.02498 l 4.628,-4.6988 c 0.394,-0.4002 -0.15,-1.6178 -1.22,-2.7212 -1.07,-1.1034 -2.264,-1.6767 -2.658,-1.2765 z"
         inkscape:connector-curvature="0"
         transform="translate(0.0060929,-1.0221)"
         id="path4013"
         style="fill:url(#linearGradient3126);stroke:#0c0c0c;stroke-linejoin:round" />
      <path
         d="m 36.659,5.228 c 0.4303,-0.32838 1.6377,0.2876 2.7472,1.4103 1.1069,1.12 1.6901,2.3185 1.3745,2.7604 -0.0012,0.0017 0.02715,0.02457 0.02592,0.02623 l 1.8855,-1.9269 0.03848,-0.03932 c 0.0012,-0.0017 -0.02713,-0.02455 -0.02592,-0.02623 0.31558,-0.44189 -0.26764,-1.6404 -1.3745,-2.7604 -1.1095,-1.1227 -2.3169,-1.7387 -2.7472,-1.4103 L 38.5445,3.301104 z"
         inkscape:connector-curvature="0"
         id="path4015"
         style="opacity:0.8;fill:#ffb6ed;stroke:#e28ccd;stroke-width:0.39151999;stroke-linejoin:round" />
    </g>
  </g>
  <path
     d="m 47,40 c 0,4.4183 -10.297,8 -23,8 -12.703,0 -23,-3.5817 -23,-8 0,-4.4183 10.297,-8 23,-8 12.703,0 23,3.5817 23,8 z"
     inkscape:connector-curvature="0"
     id="path8836"
     style="opacity:0.4;fill:url(#radialGradient3225);fill-rule:evenodd" />
  <path
     d="m 37.838,14.5 c 2.6783,-0.43661 5.108,0.72871 7.8537,1.5955 1.1773,0.37166 -1.7183,9.7762 -0.50715,10.064 1.5415,0.36666 0.59197,7.496 0.4383,8.5285 -0.20628,1.3859 1.9956,1.4299 1.1854,3.1412 -0.74329,1.57 -0.74089,1.8067 -1.3709,3.0292 -0.31829,0.61767 -0.76196,1.2662 -1.7196,2.9956 -2.4328,2.419 -3.9137,2.76 -5.1682,3.0396 -0.82423,0.18366 -1.6726,0.11216 -2.4826,-0.06871 -0.89161,-0.1991 -1.4475,-0.84765 -1.1292,-1.4653 0.62998,-1.2225 1.8221,-2.3798 3.3709,-3.0292 1.7461,-0.73215 3.6078,-1.7553 3.8141,-3.1412 0.15367,-1.0325 -0.89681,-16.162 -2.4383,-16.528 -1.2112,-0.28808 1.7414,-2.0368 0.50715,-2.0643"
     inkscape:connector-curvature="0"
     id="path4536"
     style="fill:none;stroke:url(#linearGradient4538);stroke-width:2" />
  <path
     d="M 44.5,23.999 C 44.5,35.321 35.321,44.5 24,44.5 12.678,44.5 3.5,35.321 3.5,23.999 3.5,12.678 12.678,3.5 24,3.5 c 11.321,0 20.5,9.178 20.5,20.499 z"
     inkscape:connector-curvature="0"
     id="path6495"
     style="fill:url(#radialGradient3220);stroke:url(#linearGradient3222)" />
  <path
     d="M 41.5,23.999 C 41.5,33.6643 33.6644,41.5 24,41.5 14.3349,41.5 6.5,33.6646 6.5,23.999 6.5,14.3341 14.3352,6.5 24,6.5 c 9.6642,0 17.5,7.8345 17.5,17.499 z"
     inkscape:connector-curvature="0"
     id="path3215"
     style="fill:url(#radialGradient3215);stroke:url(#linearGradient3217)" />
  <g
     id="g4138">
    <g
       transform="translate(0,-2)"
       id="g3867">
      <rect
         width="6"
         height="15"
         rx="2.7300999"
         ry="2"
         x="10"
         y="16"
         id="rect3031"
         style="fill:url(#radialGradient4262)" />
      <path
         d="M 14.5,22.616 V 19.5"
         inkscape:connector-curvature="0"
         id="path2308"
         style="fill:none;stroke:#ffffff;stroke-linecap:round" />
      <path
         d="M 14.5,27.616 V 24.5"
         inkscape:connector-curvature="0"
         id="path3825"
         style="opacity:0.2;fill:none;stroke:#ffffff;stroke-linecap:round" />
      <path
         d="M 11.5,22.616 V 19.5"
         inkscape:connector-curvature="0"
         id="path3827"
         style="opacity:0.2;fill:none;stroke:#ffffff;stroke-linecap:round" />
      <path
         d="M 11.5,27.616 V 24.5"
         inkscape:connector-curvature="0"
         id="path3829"
         style="fill:none;stroke:#ffffff;stroke-linecap:round" />
      <path
         d="M 13.5,18.5 H 12.3834"
         inkscape:connector-curvature="0"
         id="path3861"
         style="fill:none;stroke:#ffffff;stroke-linecap:round" />
      <path
         d="M 13.5,23.5 H 12.3834"
         inkscape:connector-curvature="0"
         id="path3863"
         style="fill:none;stroke:#ffffff;stroke-linecap:round" />
      <path
         d="M 13.5,28.5 H 12.3834"
         inkscape:connector-curvature="0"
         id="path3865"
         style="fill:none;stroke:#ffffff;stroke-linecap:round" />
    </g>
    <g
       transform="translate(7,-2)"
       id="g4084">
      <rect
         width="6"
         height="15"
         rx="2.7300999"
         ry="2"
         x="10"
         y="16"
         id="rect4086"
         style="fill:url(#radialGradient4260)" />
      <path
         d="M 14.5,22.616 V 19.5"
         inkscape:connector-curvature="0"
         id="path4088"
         style="fill:none;stroke:#ffffff;stroke-linecap:round" />
      <path
         d="M 14.5,27.616 V 24.5"
         inkscape:connector-curvature="0"
         id="path4090"
         style="fill:none;stroke:#ffffff;stroke-linecap:round" />
      <path
         d="M 11.5,22.616 V 19.5"
         inkscape:connector-curvature="0"
         id="path4092"
         style="fill:none;stroke:#ffffff;stroke-linecap:round" />
      <path
         d="M 11.5,27.616 V 24.5"
         inkscape:connector-curvature="0"
         id="path4094"
         style="fill:none;stroke:#ffffff;stroke-linecap:round" />
      <path
         d="M 13.5,18.5 H 12.3834"
         inkscape:connector-curvature="0"
         id="path4096"
         style="fill:none;stroke:#ffffff;stroke-linecap:round" />
      <path
         d="M 13.5,23.5 H 12.3834"
         inkscape:connector-curvature="0"
         id="path4098"
         style="opacity:0.3;fill:none;stroke:#ffffff;stroke-linecap:round" />
      <path
         d="M 13.5,28.5 H 12.3834"
         inkscape:connector-curvature="0"
         id="path4100"
         style="fill:none;stroke:#ffffff;stroke-linecap:round" />
    </g>
    <g
       transform="translate(15,-2)"
       id="g4102">
      <rect
         width="6"
         height="15"
         rx="2.7300999"
         ry="2"
         x="10"
         y="16"
         id="rect4104"
         style="fill:url(#radialGradient4258)" />
      <path
         d="M 14.5,22.616 V 19.5"
         inkscape:connector-curvature="0"
         id="path4106"
         style="fill:none;stroke:#ffffff;stroke-linecap:round" />
      <path
         d="M 14.5,27.616 V 24.5"
         inkscape:connector-curvature="0"
         id="path4108"
         style="fill:none;stroke:#ffffff;stroke-linecap:round" />
      <path
         d="M 11.5,22.616 V 19.5"
         inkscape:connector-curvature="0"
         id="path4110"
         style="fill:none;stroke:#ffffff;stroke-linecap:round" />
      <path
         d="M 11.5,27.616 V 24.5"
         inkscape:connector-curvature="0"
         id="path4112"
         style="opacity:0.2;fill:none;stroke:#ffffff;stroke-linecap:round" />
      <path
         d="M 13.5,18.5 H 12.3834"
         inkscape:connector-curvature="0"
         id="path4114"
         style="opacity:0.2;fill:none;stroke:#ffffff;stroke-linecap:round" />
      <path
         d="M 13.5,23.5 H 12.3834"
         inkscape:connector-curvature="0"
         id="path4116"
         style="fill:none;stroke:#ffffff;stroke-linecap:round" />
      <path
         d="M 13.5,28.5 H 12.3834"
         inkscape:connector-curvature="0"
         id="path4118"
         style="opacity:0.2;fill:none;stroke:#ffffff;stroke-linecap:round" />
    </g>
    <g
       transform="translate(22,-2)"
       id="g4120">
      <rect
         width="6"
         height="15"
         rx="2.7300999"
         ry="2"
         x="10"
         y="16"
         id="rect4122"
         style="fill:url(#radialGradient4256)" />
      <path
         d="M 14.5,22.616 V 19.5"
         inkscape:connector-curvature="0"
         id="path4124"
         style="fill:none;stroke:#ffffff;stroke-linecap:round" />
      <path
         d="M 14.5,27.616 V 24.5"
         inkscape:connector-curvature="0"
         id="path4126"
         style="fill:none;stroke:#ffffff;stroke-linecap:round" />
      <path
         d="M 11.5,22.616 V 19.5"
         inkscape:connector-curvature="0"
         id="path4128"
         style="fill:none;stroke:#ffffff;stroke-linecap:round" />
      <path
         d="M 11.5,27.616 V 24.5"
         inkscape:connector-curvature="0"
         id="path4130"
         style="fill:none;stroke:#ffffff;stroke-linecap:round" />
      <path
         d="M 13.5,18.5 H 12.3834"
         inkscape:connector-curvature="0"
         id="path4132"
         style="fill:none;stroke:#ffffff;stroke-linecap:round" />
      <path
         d="M 13.5,23.5 H 12.3834"
         inkscape:connector-curvature="0"
         id="path4134"
         style="opacity:0.3;fill:none;stroke:#ffffff;stroke-linecap:round" />
      <path
         d="M 13.5,28.5 H 12.3834"
         inkscape:connector-curvature="0"
         id="path4136"
         style="fill:none;stroke:#ffffff;stroke-linecap:round" />
    </g>
  </g>
  <path
     d="M 43.5,23.999 C 43.5,34.769 34.7689,43.5 24,43.5 13.23,43.5 4.5,34.7691 4.5,23.999 4.5,13.23 13.2306,4.5 24,4.5 c 10.7694,0 19.5,8.73 19.5,19.499 z"
     inkscape:connector-curvature="0"
     id="path3222"
     style="fill:none;stroke:url(#linearGradient3212)" />
  <g
     transform="matrix(0.67857,0,0,0.4,8.2143,25.4)"
     id="g4176">
    <g
       transform="translate(0,-2)"
       id="g4178">
      <rect
         width="6"
         height="15"
         rx="2.7300999"
         ry="4.5892"
         x="10"
         y="16"
         id="rect4180"
         style="fill:#091a27" />
      <path
         d="M 11.792,22.711 V 19.9314"
         inkscape:connector-curvature="0"
         id="path4182"
         style="opacity:0.1;fill:none;stroke:#ffffff;stroke-width:0.82893997;stroke-linecap:round" />
      <path
         d="M 11.792,27.172 V 24.3924"
         inkscape:connector-curvature="0"
         id="path4184"
         style="opacity:0.1;fill:none;stroke:#ffffff;stroke-width:0.82893997;stroke-linecap:round" />
      <path
         d="M 14.103,22.711 V 19.9314"
         inkscape:connector-curvature="0"
         id="path4186"
         style="fill:none;stroke:#ffffff;stroke-width:0.82893997;stroke-linecap:round" />
      <path
         d="M 14.103,27.172 V 24.3924"
         inkscape:connector-curvature="0"
         id="path4188"
         style="fill:none;stroke:#ffffff;stroke-width:0.82893997;stroke-linecap:round" />
      <path
         d="m 12.562,19.04 h 0.86015"
         inkscape:connector-curvature="0"
         id="path4190"
         style="fill:none;stroke:#ffffff;stroke-width:0.82893997;stroke-linecap:round" />
      <path
         d="m 12.562,23.5 h 0.86015"
         inkscape:connector-curvature="0"
         id="path4192"
         style="fill:none;stroke:#ffffff;stroke-width:0.82893997;stroke-linecap:round" />
      <path
         d="m 12.562,27.96 h 0.86015"
         inkscape:connector-curvature="0"
         id="path4194"
         style="fill:none;stroke:#ffffff;stroke-width:0.82893997;stroke-linecap:round" />
    </g>
    <g
       transform="translate(7.3684,-2)"
       id="g4196">
      <rect
         width="6"
         height="15"
         rx="2.7300999"
         ry="4.5892"
         x="10"
         y="16"
         id="rect4198"
         style="fill:#091a27" />
      <path
         d="M 14.103,22.711 V 19.9314"
         inkscape:connector-curvature="0"
         id="path4200"
         style="fill:none;stroke:#ffffff;stroke-width:0.82893997;stroke-linecap:round" />
      <path
         d="M 14.103,27.172 V 24.3924"
         inkscape:connector-curvature="0"
         id="path4202"
         style="fill:none;stroke:#ffffff;stroke-width:0.82893997;stroke-linecap:round" />
      <path
         d="M 11.792,22.711 V 19.9314"
         inkscape:connector-curvature="0"
         id="path4204"
         style="fill:none;stroke:#ffffff;stroke-width:0.82893997;stroke-linecap:round" />
      <path
         d="M 11.792,27.172 V 24.3924"
         inkscape:connector-curvature="0"
         id="path4206"
         style="fill:none;stroke:#ffffff;stroke-width:0.82893997;stroke-linecap:round" />
      <path
         d="M 13.333,19.04 H 12.47285"
         inkscape:connector-curvature="0"
         id="path4208"
         style="fill:none;stroke:#ffffff;stroke-width:0.82893997;stroke-linecap:round" />
      <path
         d="M 13.333,23.5 H 12.47285"
         inkscape:connector-curvature="0"
         id="path4210"
         style="opacity:0.3;fill:none;stroke:#ffffff;stroke-width:0.82893997;stroke-linecap:round" />
      <path
         d="M 13.333,27.96 H 12.47285"
         inkscape:connector-curvature="0"
         id="path4212"
         style="fill:none;stroke:#ffffff;stroke-width:0.82893997;stroke-linecap:round" />
    </g>
    <g
       transform="translate(14.737,-2)"
       id="g4214">
      <rect
         width="6"
         height="15"
         rx="2.7300999"
         ry="3.7261"
         x="10"
         y="16"
         id="rect4216"
         style="fill:#091a27" />
      <path
         d="M 14.103,22.711 V 19.9314"
         inkscape:connector-curvature="0"
         id="path4218"
         style="fill:none;stroke:#ffffff;stroke-width:0.82893997;stroke-linecap:round" />
      <path
         d="M 14.103,27.172 V 24.3924"
         inkscape:connector-curvature="0"
         id="path4220"
         style="fill:none;stroke:#ffffff;stroke-width:0.82893997;stroke-linecap:round" />
      <path
         d="M 11.792,22.711 V 19.9314"
         inkscape:connector-curvature="0"
         id="path4222"
         style="opacity:0.1;fill:none;stroke:#ffffff;stroke-width:0.82893997;stroke-linecap:round" />
      <path
         d="M 11.792,27.172 V 24.3924"
         inkscape:connector-curvature="0"
         id="path4224"
         style="opacity:0.1;fill:none;stroke:#ffffff;stroke-width:0.82893997;stroke-linecap:round" />
      <path
         d="M 13.333,19.04 H 12.47285"
         inkscape:connector-curvature="0"
         id="path4226"
         style="fill:none;stroke:#ffffff;stroke-width:0.82893997;stroke-linecap:round" />
      <path
         d="M 13.333,23.5 H 12.47285"
         inkscape:connector-curvature="0"
         id="path4228"
         style="fill:none;stroke:#ffffff;stroke-width:0.82893997;stroke-linecap:round" />
      <path
         d="M 13.333,27.96 H 12.47285"
         inkscape:connector-curvature="0"
         id="path4230"
         style="fill:none;stroke:#ffffff;stroke-width:0.82893997;stroke-linecap:round" />
    </g>
    <g
       transform="translate(22,-2)"
       id="g4232">
      <rect
         width="6"
         height="15"
         rx="2.7300999"
         ry="4.5892"
         x="10"
         y="16"
         id="rect4234"
         style="fill:#091a27" />
      <path
         d="M 14.208,22.711 V 19.9314"
         inkscape:connector-curvature="0"
         id="path4236"
         style="fill:none;stroke:#ffffff;stroke-width:0.82893997;stroke-linecap:round" />
      <path
         d="M 14.208,27.172 V 24.3924"
         inkscape:connector-curvature="0"
         id="path4238"
         style="fill:none;stroke:#ffffff;stroke-width:0.82893997;stroke-linecap:round" />
      <path
         d="M 11.897,22.711 V 19.9314"
         inkscape:connector-curvature="0"
         id="path4240"
         style="fill:none;stroke:#ffffff;stroke-width:0.82893997;stroke-linecap:round" />
      <path
         d="M 11.897,27.172 V 24.3924"
         inkscape:connector-curvature="0"
         id="path4242"
         style="fill:none;stroke:#ffffff;stroke-width:0.82893997;stroke-linecap:round" />
      <path
         d="M 13.438,19.04 H 12.57785"
         inkscape:connector-curvature="0"
         id="path4244"
         style="fill:none;stroke:#ffffff;stroke-width:0.82893997;stroke-linecap:round" />
      <path
         d="M 13.438,23.5 H 12.57785"
         inkscape:connector-curvature="0"
         id="path4246"
         style="opacity:0.3;fill:none;stroke:#ffffff;stroke-width:0.82893997;stroke-linecap:round" />
      <path
         d="M 13.438,27.96 H 12.57785"
         inkscape:connector-curvature="0"
         id="path4248"
         style="fill:none;stroke:#ffffff;stroke-width:0.82893997;stroke-linecap:round" />
    </g>
  </g>
  <path
     d="M 40.5,24.001 C 40.5,14.888 33.112,7.5 24,7.5 14.887,7.5 7.5,14.888 7.5,24.001 7.5,33.113 14.887,40.5 24,40.5 c 9.112,0 16.5,-7.387 16.5,-16.499 z"
     inkscape:connector-curvature="0"
     id="path3215-4"
     style="opacity:0.4;fill:url(#radialGradient3199);stroke:url(#linearGradient3201)" />
  <path
     d="m 40.04,20.778 c 0,-1.1391 0.34486,0.9708 0.12506,-0.10334 -1.558,-7.697 -9.268,-13.069 -16.165,-13.175 -8.164,0.6188 -14.587,5.614 -16.165,13.175 -0.2198,1.0741 0.01,-1.0358 0.01,0.10332 0,9.1126 7.1573,-2.0921 16.27,-2.0921 9.1119,0 15.924,11.205 15.924,2.0921 z"
     inkscape:connector-curvature="0"
     id="path4264"
     style="opacity:0.7;fill:url(#radialGradient4266)" />
</svg>
