<?xml version="1.0" encoding="UTF-8" standalone="no"?>
<!-- Created with Inkscape (http://www.inkscape.org/) -->

<svg
   xmlns:dc="http://purl.org/dc/elements/1.1/"
   xmlns:cc="http://creativecommons.org/ns#"
   xmlns:rdf="http://www.w3.org/1999/02/22-rdf-syntax-ns#"
   xmlns:svg="http://www.w3.org/2000/svg"
   xmlns="http://www.w3.org/2000/svg"
   xmlns:xlink="http://www.w3.org/1999/xlink"
   xmlns:inkscape="http://www.inkscape.org/namespaces/inkscape"
   version="1.1"
   width="48"
   height="48"
   id="svg2422">
  <metadata
     id="metadata72">
    <rdf:RDF>
      <cc:Work
         rdf:about="">
        <dc:format>image/svg+xml</dc:format>
        <dc:type
           rdf:resource="http://purl.org/dc/dcmitype/StillImage" />
      </cc:Work>
    </rdf:RDF>
  </metadata>
  <defs
     id="defs2424">
    <linearGradient
       id="linearGradient4374">
      <stop
         id="stop4376"
         style="stop-color:#545454;stop-opacity:1"
         offset="0" />
      <stop
         id="stop4378"
         style="stop-color:#000000;stop-opacity:1"
         offset="1" />
    </linearGradient>
    <linearGradient
       id="linearGradient4366">
      <stop
         id="stop4368"
         style="stop-color:#b5b5b5;stop-opacity:1"
         offset="0" />
      <stop
         id="stop4370"
         style="stop-color:#000000;stop-opacity:1"
         offset="1" />
    </linearGradient>
    <radialGradient
       cx="20.039"
       cy="12.61"
       r="22.464001"
       id="radialGradient3521"
       gradientUnits="userSpaceOnUse"
       gradientTransform="matrix(1.9525,-0.050181,0.036509,1.4215,-19.685,-6.2209)">
      <stop
         id="stop4105-2-4"
         style="stop-color:#f4f4f4;stop-opacity:1"
         offset="0" />
      <stop
         id="stop4107-1-4"
         style="stop-color:#bebebe;stop-opacity:1"
         offset="1" />
    </radialGradient>
    <linearGradient
       x1="29.013"
       y1="29"
       x2="29.75"
       y2="50"
       id="linearGradient3523"
       gradientUnits="userSpaceOnUse"
       gradientTransform="translate(-4.2767,-6.312)">
      <stop
         id="stop6495-7-3"
         style="stop-color:#c4c4c4;stop-opacity:1"
         offset="0" />
      <stop
         id="stop6497-5-6"
         style="stop-color:#8c8c8c;stop-opacity:1"
         offset="1" />
    </linearGradient>
    <radialGradient
       cx="62.625"
       cy="4.625"
       r="10.625"
       id="radialGradient4343"
       gradientUnits="userSpaceOnUse"
       gradientTransform="matrix(1.9262,0,0,0.71948,-95.749,37.338)">
      <stop
         id="stop8840-5-4"
         style="stop-color:#000000;stop-opacity:1"
         offset="0" />
      <stop
         id="stop8842-7-3"
         style="stop-color:#000000;stop-opacity:0"
         offset="1" />
    </radialGradient>
    <linearGradient
       x1="75.435997"
       y1="22.037001"
       x2="88.947998"
       y2="29.804001"
       id="linearGradient4372"
       xlink:href="#linearGradient4366"
       gradientUnits="userSpaceOnUse"
       gradientTransform="translate(-49.677,1.4484)" />
    <linearGradient
       x1="75.435997"
       y1="25.344999"
       x2="88.947998"
       y2="29.804001"
       id="linearGradient4380"
       xlink:href="#linearGradient4374"
       gradientUnits="userSpaceOnUse"
       gradientTransform="translate(-49.677,1.4484)" />
    <linearGradient
       x1="69.771004"
       y1="5.2852998"
       x2="84.601997"
       y2="5.2852998"
       id="linearGradient4390"
       xlink:href="#linearGradient4374"
       gradientUnits="userSpaceOnUse"
       gradientTransform="translate(-48.203,1.4237)" />
    <linearGradient
       x1="69.771004"
       y1="5.2852998"
       x2="84.601997"
       y2="5.2852998"
       id="linearGradient4400"
       xlink:href="#linearGradient4366"
       gradientUnits="userSpaceOnUse"
       gradientTransform="translate(-48.203,1.4237)" />
    <linearGradient
       x1="87.763"
       y1="24.518999"
       x2="73.056999"
       y2="28.069"
       id="linearGradient4423"
       gradientUnits="userSpaceOnUse"
       gradientTransform="matrix(-0.77724,-0.46262,-0.45336,0.79312,87.71,38.917)">
      <stop
         id="stop4368-6"
         style="stop-color:#b5b5b5;stop-opacity:1"
         offset="0" />
      <stop
         id="stop4370-1"
         style="stop-color:#000000;stop-opacity:1"
         offset="1" />
    </linearGradient>
    <linearGradient
       x1="87.763"
       y1="24.518999"
       x2="73.056999"
       y2="28.069"
       id="linearGradient4425-6"
       xlink:href="#linearGradient4374"
       gradientUnits="userSpaceOnUse"
       gradientTransform="matrix(-0.77724,-0.46262,-0.45336,0.79312,87.71,38.917)" />
    <linearGradient
       x1="18.822001"
       y1="31.322001"
       x2="17.643999"
       y2="40.474998"
       id="linearGradient4464"
       xlink:href="#linearGradient4374"
       gradientUnits="userSpaceOnUse" />
    <linearGradient
       x1="18.291"
       y1="21.101999"
       x2="27.660999"
       y2="30.660999"
       id="linearGradient4502"
       gradientUnits="userSpaceOnUse">
      <stop
         id="stop4498"
         style="stop-color:#ffffff;stop-opacity:1"
         offset="0" />
      <stop
         id="stop4500"
         style="stop-color:#ffffff;stop-opacity:0"
         offset="1" />
    </linearGradient>
    <linearGradient
       x1="25.219999"
       y1="26.643999"
       x2="37.931999"
       y2="38.237"
       id="linearGradient4512"
       gradientUnits="userSpaceOnUse">
      <stop
         id="stop4508"
         style="stop-color:#ffffff;stop-opacity:1"
         offset="0" />
      <stop
         id="stop4510"
         style="stop-color:#ffffff;stop-opacity:0"
         offset="1" />
    </linearGradient>
    <linearGradient
       x1="21.051001"
       y1="11.008"
       x2="30.254"
       y2="25.424"
       id="linearGradient4522"
       gradientUnits="userSpaceOnUse">
      <stop
         id="stop4518"
         style="stop-color:#ffffff;stop-opacity:1"
         offset="0" />
      <stop
         id="stop4520"
         style="stop-color:#ffffff;stop-opacity:0"
         offset="1" />
    </linearGradient>
    <linearGradient
       x1="31.627001"
       y1="24.813999"
       x2="44.745998"
       y2="28.576"
       id="linearGradient4532"
       gradientUnits="userSpaceOnUse">
      <stop
         id="stop4528"
         style="stop-color:#ffffff;stop-opacity:1"
         offset="0" />
      <stop
         id="stop4530"
         style="stop-color:#ffffff;stop-opacity:0"
         offset="1" />
    </linearGradient>
    <linearGradient
       x1="12.508"
       y1="23.136"
       x2="9.6101999"
       y2="36.305"
       id="linearGradient4542"
       gradientUnits="userSpaceOnUse">
      <stop
         id="stop4538"
         style="stop-color:#ffffff;stop-opacity:1"
         offset="0" />
      <stop
         id="stop4540"
         style="stop-color:#ffffff;stop-opacity:0"
         offset="1" />
    </linearGradient>
    <linearGradient
       x1="15.356"
       y1="9.3814001"
       x2="17.584999"
       y2="10.963"
       id="linearGradient4552"
       gradientUnits="userSpaceOnUse">
      <stop
         id="stop4548"
         style="stop-color:#ffffff;stop-opacity:1"
         offset="0" />
      <stop
         id="stop4550"
         style="stop-color:#ffffff;stop-opacity:0"
         offset="1" />
    </linearGradient>
    <linearGradient
       x1="31.729"
       y1="15.712"
       x2="43.881001"
       y2="15.712"
       id="linearGradient4562"
       gradientUnits="userSpaceOnUse">
      <stop
         id="stop4558"
         style="stop-color:#ffffff;stop-opacity:1"
         offset="0" />
      <stop
         id="stop4560"
         style="stop-color:#ffffff;stop-opacity:0"
         offset="1" />
    </linearGradient>
    <linearGradient
       x1="7.1949"
       y1="15.483"
       x2="11.898"
       y2="25.702999"
       id="linearGradient4572"
       gradientUnits="userSpaceOnUse">
      <stop
         id="stop4568"
         style="stop-color:#ffffff;stop-opacity:1"
         offset="0" />
      <stop
         id="stop4570"
         style="stop-color:#ffffff;stop-opacity:0"
         offset="1" />
    </linearGradient>
  </defs>
  <path
     d="m 45.347,40.665 c 0,4.2219 -9.163,7.6445 -20.466,7.6445 -11.303,0 -20.466,-3.4226 -20.466,-7.6445 0,-4.2219 9.163,-7.6445 20.466,-7.6445 11.303,0 20.466,3.4226 20.466,7.6445 z"
     inkscape:connector-curvature="0"
     id="path8836-8"
     style="opacity:0.4;fill:url(#radialGradient4343);fill-rule:evenodd" />
  <path
     d="m 45.224,22.688 c 0,11.317 -9.1784,20.501 -20.487,20.501 -11.3086,0 -20.487,-9.1844 -20.487,-20.501 0,-11.3166 9.1784,-20.501 20.487,-20.501 11.3086,0 20.487,9.1844 20.487,20.501 z"
     inkscape:connector-curvature="0"
     id="path1307-0"
     style="fill:url(#radialGradient3521);stroke:url(#linearGradient3523);stroke-width:0.99816;stroke-linecap:round;stroke-linejoin:round" />
  <path
     d="m 26.259,25.575 c 0,0 4.9239,-5.4818 6.4718,-5.8966 1.5479,-0.41477 6.0404,4.746 6.0404,4.746 0,0 -2.1599,8.1932 -3.164,8.7729 -1.0041,0.57974 -6.8314,1.0786 -7.4786,0.43146 -0.64718,-0.64718 -1.7258,-7.91 -1.8696,-8.0538 z"
     inkscape:connector-curvature="0"
     id="path4364"
     style="fill:url(#linearGradient4372);stroke:url(#linearGradient4380);stroke-width:1px" />
  <path
     d="m 22.881,7.5254 c 0,0 2.7227,0.18794 4.678,0.71186 1.9553,0.52392 4.1695,2.339 4.1695,2.339 l 4.9831,-3.4068 c 0,0 -3.661,-2.8983 -6.6102,-3.6102 -2.8831,-0.87801 -5.304,-1.0683 -8.0339,0.10169 l 0.81356,3.8644 z"
     inkscape:connector-curvature="0"
     id="path4382"
     style="fill:url(#linearGradient4400);stroke:url(#linearGradient4390);stroke-width:1px" />
  <path
     d="m 17.752,22.923 c 0,0 -1.3418,-6.6256 -2.3569,-7.6707 -1.0151,-1.0451 -6.8465,0.96974 -6.8465,0.96974 0,0 -2.0357,7.4974 -1.5181,8.4218 0.51763,0.92435 4.8206,4.0159 5.617,3.802 0.79642,-0.21389 4.9275,-5.4752 5.1044,-5.5227 z"
     inkscape:connector-curvature="0"
     id="path4364-5"
     style="fill:url(#linearGradient4423);stroke:url(#linearGradient4425-6);stroke-width:0.90894997px" />
  <path
     d="m 11.744,37.569 2.0078,-1.7238 c 0,0 2.7751,1.8251 4.0724,2.1306 1.2973,0.30553 4.5572,0.51135 4.5572,0.51135 l 1.2398,3.7051 -2.6771,-0.34267 c -2.055,-0.406 -4.455,-1.282 -6.546,-2.501 l -2.6558,-1.779 z"
     inkscape:connector-curvature="0"
     id="path4456"
     style="fill:url(#linearGradient4464);stroke:#000000;stroke-width:0.89389002px" />
  <path
     d="m 43.577,16.971 0.25168,3.3797 0.791,1.8696 c 0,0 0.0252,-2.3271 -0.17977,-3.0921 C 44.23493,18.36322 43.577,16.899 43.577,16.9709 z"
     inkscape:connector-curvature="0"
     id="path4466" />
  <path
     d="m 39.767,36.03 -1.7076,0.68122 -2.3252,2.8372 c 0,0 2.0306,-1.1371 2.5918,-1.6958 0.56129,-0.55872 1.5033,-1.8584 1.441,-1.8226 z"
     inkscape:connector-curvature="0"
     id="path4466-6" />
  <path
     d="m 4.9776,26.113 0.46928,1.0154 0.25398,1.9918 c 0,0 -0.43426,-1.0906 -0.46307,-1.4964 C 5.208982,27.21804 4.93408,26.218 4.9776,26.113 z"
     inkscape:connector-curvature="0"
     id="path4490" />
  <path
     d="m 8.0179,11.362 1.7258,-0.86291 2.6606,-3.5955 -2.5528,2.1932 C 9.39697,9.4873 8.88073,10.31929 8.7369,10.39119 8.59308,10.4631 7.98185,11.36196 8.01781,11.36196 z"
     inkscape:connector-curvature="0"
     id="path4492" />
  <path
     d="m 12.8,28.872 c -0.05748,2.5774 1.0067,6.6156 1.0067,6.6156 0,0 2.2928,1.5142 3.5833,1.9359 1.6587,0.54208 5.1864,0.71186 5.1864,0.71186 0,0 1.5763,-0.45763 2.8475,-1.7288 1.2712,-1.27117 2.2373,-2.6441 2.2373,-2.6441 l -1.932,-8.237 -7.526,-2.339 c 0,0 -4.9433,5.6722 -5.4036,5.6857 z"
     inkscape:connector-curvature="0"
     id="path4494"
     style="fill:url(#linearGradient4502)" />
  <path
     d="m 22.78,38.237 4.9831,-3.9661 3.5593,0.1017 4.0678,-0.61017 0.71186,-0.1017 1.8305,2.8475 -2.0339,2.7458 -2.9492,1.7288 -3.0508,1.1186 -4.0678,0.61017 -1.6271,0.1017 -1.4237,-4.5763 z"
     inkscape:connector-curvature="0"
     id="path4504"
     style="fill:url(#linearGradient4512)" />
  <path
     d="m 15.966,14.847 c 0.2827,0.42598 2.2373,8.1356 2.2373,8.1356 l 7.4492,2.4407 5.6695,-5.5932 0.86441,-0.45763 0.50848,-0.17797 c 0,0 -0.88739,-7.8082 -1.0169,-8.0593 -0.246,-0.479 -2.019,-1.8006 -4.219,-2.3902 -2.201,-0.5897 -4.933,-0.7627 -4.933,-0.7627 0,0 -4.8862,2.5373 -6.5593,6.8644 z"
     inkscape:connector-curvature="0"
     id="path4514"
     style="fill:url(#linearGradient4522)" />
  <path
     d="M 35.949,33.61 37.983,36.712 39.661,36 c 0,0 1.5763,-1.9831 2.1356,-2.7966 0.55932,-0.81356 1.4746,-2.6949 1.5254,-2.8983 0.05085,-0.20339 0.91526,-3.1525 0.91526,-3.1525 l 0.50847,-3.3051 -0.1017,-1.6271 -0.86441,-1.7797 -4.4237,4.0169 -0.91526,3.2034 -0.71186,2.2881 -1.0169,2.4915 -0.61017,0.91525 -0.15254,0.25424 z"
     inkscape:connector-curvature="0"
     id="path4524"
     style="fill:url(#linearGradient4532)" />
  <path
     d="m 5.5424,26.949 1.0678,-2.0847 1.8305,1.8814 1.7288,0.9661 1.5763,0.9661 c 0,0 0.93811,0.30549 0.9661,0.20339 0.12668,3.3635 0.9661,6.4576 0.9661,6.4576 l -2.492,2.137 -1.9826,-2.136 -1.4237,-2.034 -1.017,-1.983 -0.9661,-2.288 -0.2542,-2.085 z"
     inkscape:connector-curvature="0"
     id="path4534"
     style="fill:url(#linearGradient4542)" />
  <path
     d="m 8.2373,15.661 5.4915,-1.2203 1.1695,0.05085 0.55932,0.1017 0.35593,0.35593 6.661,-6.8644 -1.017,-4.7797 -0.50847,-0.20339 -3.2034,0.76271 -2.0847,0.9661 -1.9831,1.0678 -1.4746,1.1186 -2.4407,3.5085 -1.5254,5.1356 z"
     inkscape:connector-curvature="0"
     id="path4544"
     style="fill:url(#linearGradient4552)" />
  <path
     d="m 31.729,11.085 c 0.76653,2.6425 1.0169,7.9322 1.0169,7.9322 l 0.91525,0.20339 1.0678,0.61017 4.5254,4.4237 4.627,-3.864 -0.203,-3.814 -0.509,-1.729 -1.627,-3.05 -1.576,-2.136 -1.678,-1.7796 -0.712,-0.7119 c 0,0 -5.8116,3.7932 -5.8475,3.9153 z"
     inkscape:connector-curvature="0"
     id="path4554"
     style="fill:url(#linearGradient4562)" />
  <path
     d="m 5.3898,26.898 1.2203,-2.0339 -0.15254,-0.55932 1.0169,-6.0508 0.66102,-2.339 1.5254,-5.2373 -1.4237,0.61017 -1.5254,2.8475 -0.91525,2.1356 -0.66102,2.3898 -0.40678,2.2373 v 2.0339 2.0339 l 0.66102,1.9322 z"
     inkscape:connector-curvature="0"
     id="path4564"
     style="fill:url(#linearGradient4572)" />
</svg>
