<?xml version="1.0" encoding="UTF-8" standalone="no"?>
<!-- Created with Inkscape (http://www.inkscape.org/) -->

<svg
   xmlns:dc="http://purl.org/dc/elements/1.1/"
   xmlns:cc="http://creativecommons.org/ns#"
   xmlns:rdf="http://www.w3.org/1999/02/22-rdf-syntax-ns#"
   xmlns:svg="http://www.w3.org/2000/svg"
   xmlns="http://www.w3.org/2000/svg"
   xmlns:sodipodi="http://sodipodi.sourceforge.net/DTD/sodipodi-0.dtd"
   xmlns:inkscape="http://www.inkscape.org/namespaces/inkscape"
   version="1.1"
   width="48"
   height="48"
   id="svg4082"
   inkscape:version="0.48.4 r9939"
   sodipodi:docname="applications-internet-symbolic.svg">
  <sodipodi:namedview
     pagecolor="#ffffff"
     bordercolor="#666666"
     borderopacity="1"
     objecttolerance="10"
     gridtolerance="10"
     guidetolerance="10"
     inkscape:pageopacity="0"
     inkscape:pageshadow="2"
     inkscape:window-width="1440"
     inkscape:window-height="845"
     id="namedview54"
     showgrid="true"
     inkscape:zoom="13.395833"
     inkscape:cx="15.004666"
     inkscape:cy="24"
     inkscape:window-x="0"
     inkscape:window-y="30"
     inkscape:window-maximized="1"
     inkscape:current-layer="svg4082">
    <inkscape:grid
       type="xygrid"
       id="grid2982"
       empspacing="5"
       visible="true"
       enabled="true"
       snapvisiblegridlinesonly="true" />
  </sodipodi:namedview>
  <defs
     id="defs4084" />
  <metadata
     id="metadata4087">
    <rdf:RDF>
      <cc:Work
         rdf:about="">
        <dc:format>image/svg+xml</dc:format>
        <dc:type
           rdf:resource="http://purl.org/dc/dcmitype/StillImage" />
        <dc:title></dc:title>
      </cc:Work>
    </rdf:RDF>
  </metadata>
  <path
     d="m 28.085118,6.391305 c -4.54674,0 -8.484384,2.660409 -10.436172,6.521754 -1.265025,-0.821301 -2.762535,-1.304325 -4.372341,-1.304325 -4.51227,0 -8.170203,3.73737 -8.170203,8.347818 0,0.732993 0.11346,1.442139 0.28722,2.119515 C 2.134707,24.321906 0,28.14261 0,32.478213 0,39.415248 5.465874,45 12.255312,45 l 23.489385,0 C 42.534141,45 48,39.415248 48,32.478213 48,26.938707 44.499939,22.268385 39.638286,20.608656 c 0.13191,-0.719943 0.19149,-1.45824 0.19149,-2.217315 0,-6.627486 -5.258247,-12.000039 -11.744655,-12.000039 z"
     id="rect4519"
     style="color:#000000;fill:#bebebe;fill-opacity:1;fill-rule:nonzero;stroke:none;stroke-width:1;marker:none;visibility:visible;display:inline;overflow:visible;enable-background:accumulate"
     inkscape:connector-curvature="0" />
</svg>
