<?xml version="1.0" encoding="UTF-8" standalone="no"?>
<!-- Created with Inkscape (http://www.inkscape.org/) -->

<svg
   xmlns:dc="http://purl.org/dc/elements/1.1/"
   xmlns:cc="http://creativecommons.org/ns#"
   xmlns:rdf="http://www.w3.org/1999/02/22-rdf-syntax-ns#"
   xmlns:svg="http://www.w3.org/2000/svg"
   xmlns="http://www.w3.org/2000/svg"
   xmlns:inkscape="http://www.inkscape.org/namespaces/inkscape"
   version="1.0"
   width="48"
   height="48"
   id="svg2">
  <metadata
     id="metadata47">
    <rdf:RDF>
      <cc:Work
         rdf:about="">
        <dc:format>image/svg+xml</dc:format>
        <dc:type
           rdf:resource="http://purl.org/dc/dcmitype/StillImage" />
        <dc:title />
      </cc:Work>
    </rdf:RDF>
  </metadata>
  <defs
     id="defs4">
    <linearGradient
       x1="27"
       y1="-9"
       x2="29"
       y2="43"
       id="linearGradient3864"
       gradientUnits="userSpaceOnUse">
      <stop
         id="stop3158"
         style="stop-color:#ffffff;stop-opacity:1"
         offset="0" />
      <stop
         id="stop3160"
         style="stop-color:#ffffff;stop-opacity:0"
         offset="1" />
    </linearGradient>
    <radialGradient
       cx="24"
       cy="10.903"
       r="20"
       id="radialGradient3890"
       gradientUnits="userSpaceOnUse"
       gradientTransform="matrix(2,-2.2431e-8,2.4187e-8,0.91216,-24,1.2981)">
      <stop
         id="stop3880"
         style="stop-color:#d67070;stop-opacity:1"
         offset="0" />
      <stop
         id="stop3882"
         style="stop-color:#c55757;stop-opacity:1"
         offset="1" />
    </radialGradient>
    <linearGradient
       x1="34"
       y1="42"
       x2="34"
       y2="7"
       id="linearGradient3892"
       gradientUnits="userSpaceOnUse"
       gradientTransform="translate(0,0.24313)">
      <stop
         id="stop3874"
         style="stop-color:#743b3b;stop-opacity:1"
         offset="0" />
      <stop
         id="stop3876"
         style="stop-color:#984d4d;stop-opacity:1"
         offset="1" />
    </linearGradient>
    <radialGradient
       cx="62.625"
       cy="4.625"
       r="10.625"
       id="radialGradient3032"
       gradientUnits="userSpaceOnUse"
       gradientTransform="matrix(1.9262,0,0,0.37647,-95.164,40.259)">
      <stop
         id="stop8840-3"
         style="stop-color:#000000;stop-opacity:1"
         offset="0" />
      <stop
         id="stop8842-2"
         style="stop-color:#000000;stop-opacity:0"
         offset="1" />
    </radialGradient>
  </defs>
  <g
     id="layer1">
    <g
       id="g6334">
      <path
         d="m 45.932,42 c 0,2.2091 -9.163,4 -20.466,4 C 14.163,46 5,44.209 5,42 c 0,-2.2091 9.163,-4 20.466,-4 11.303,0 20.466,1.7909 20.466,4 z"
         inkscape:connector-curvature="0"
         id="path8836"
         style="opacity:0.3;fill:url(#radialGradient3032);fill-rule:evenodd" />
      <path
         d="m 4.352,16.288 c 0.7968,-0.36074 0.16384,-2.4813 1.3004,-2.9119 2.4656,-2.1212 1.5138,4.5818 3.3153,8.0943 1.3488,1.7699 1.9152,1.9979 4.538,2.5529 1.9096,2.2101 0.28915,4.398 -1.1538,7.549 0.22221,4.0564 6.3805,10.079 2.9097,10.785 l 3.6917,0.0091 c -0.57305,-2.9348 -4.6576,-7.9594 -4.4088,-10.944 0.27084,-1.0965 1.1641,-0.34425 1.8459,-1.6839 0.15206,-1.3077 1.9653,-0.55109 2.123,0.05118 0.90015,0.64537 2.9213,4.879 4.1861,6.9352 1.4197,1.9159 3.1465,2.6081 1.6192,5.654 l 2.0943,-0.12002 c 0.66215,-3.3604 -3.0342,-7.8979 -4.1038,-10.196 l -0.60358,-3.1035 0.44464,-2.2529 5.0256,-0.14918 c 0.40939,1.1546 1.0163,2.7751 2.362,3.4331 2.1823,0.60797 1.8236,4.7618 2.0154,7.5168 0.19767,2.7321 0.62831,3.3566 -2.2883,4.6778 l 1.8054,0.10531 c 2.3737,0.11475 2.2992,-1.9367 2.2704,-5.2115 0.04816,-2.0583 0.06538,-4.3508 0.49261,-7.0463 l 1.9565,0.19217 c 0.72416,1.6168 1.8059,4.6815 2.1521,5.8299 2.8939,4.1268 2.9951,4.7562 -0.08299,6.1295 1.7978,0.10838 3.0336,0.43354 4.6119,0.02371 0.29357,-2.3584 -1.1563,-3.9687 -2.2213,-5.8514 -1.6935,-2.9937 -2.5943,-7.3152 -1.8287,-11.703 0.37075,-1.1639 0.56923,-2.1375 1.7092,-2.225 -0.8261,-1.9135 -1.1338,-1.3883 -1.7669,-2.945 -0.78839,-1.3304 -1.2974,-2.5725 -3.4253,-5.2685 -1.7948,-3.8358 -7.5875,-5.5836 -8.48,-2.622 -0.15037,2.4648 -2.0914,2.2812 -3.8786,-0.2182 -0.71468,-0.69791 -2.0914,-1.8482 -3.6528,-0.01194 -2.4957,4.1829 -0.90076,5.5117 -4.2644,6.3414 -1.663,-0.379 -4.002,-3.001 -4.002,-3.001 -1.1887,-1.645 -0.43,-5.9252 -0.9423,-6.9672 -0.5579,-1.1355 -1.2841,0.7897 -2.4134,0.771 -2.2569,0.9705 -2.5996,1.4485 -3.5371,2.9282 -1.2724,2.009 -2.1535,3.591 -1.3489,4.768 z"
         inkscape:connector-curvature="0"
         id="path3850"
         style="fill:url(#radialGradient3890);stroke:url(#linearGradient3892);stroke-linejoin:round" />
      <path
         d="M 8.9375,8.75 C 8.6493,8.9969 8.234,9.2383 7.6875,9.3438 v 0.03125 c -2.1834,0.93886 -2.1921,1.0898 -3.125,2.5625 -0.63125,0.99643 -1.1426,1.857 -1.375,2.5 -0.1609,0.44518 -0.055913,0.62187 0,0.84375 l 0.65625,0.03125 c 0.030242,-0.15391 0.057401,-0.32987 0.09375,-0.59375 0.045979,-0.3338 0.10211,-0.7097 0.28125,-1.125 0.14331,-0.33224 0.49288,-0.63574 0.875,-0.875 l -0.0625,-0.0625 c 0.0624,-0.054 0.155,-0.044 0.2187,-0.094 0.02264,-0.01013 0.039215,-0.02203 0.0625,-0.03125 0.31706,-0.23629 0.63517,-0.47421 1.0625,-0.5 0.53932,-0.03254 1.0804,0.30097 1.3438,0.65625 0.52677,0.71056 0.62882,1.5122 0.78125,2.4688 0.30125,1.8904 0.54248,4.3258 1.2812,5.8125 0.57811,0.74129 0.17328,0.97811 0.77134,1.253 0.62281,0.28632 1.4713,0.50406 2.7812,0.78125 0.20135,0.0326 0.3911,0.13306 0.53125,0.28125 1.1856,1.3722 1.2589,3.1334 0.875,4.75 -0.35884,1.5109 -1.1046,2.1486 -1.7812,3.6151 0.14047,1.603 2.2773,4.6926 3.2912,6.5069 0.51848,0.9278 0.99244,1.7714 1.0625,2.7188 0.0083,0.11227 -0.08395,0.22472 -0.09375,0.34375 h 0.90625 c -0.415,-1.056 -0.937,-2.167 -1.655,-3.469 -0.9505,-1.7238 -2.7618,-4.4854 -2.6037,-6.3819 0.006,-0.05284 0.01643,-0.10518 0.03125,-0.15625 0.16059,-0.65014 0.41592,-0.246 0.65625,-0.58384 0.24033,-0.33784 0.44191,-0.61338 0.75,-1.2188 l 0.0625,0.03125 c 0.12069,-0.3961 0.27542,-0.81136 0.59375,-1.0312 0.41171,-0.28438 0.89087,-0.34745 1.2812,-0.3125 0.39038,0.03495 0.71777,0.15051 1.0312,0.34375 0.16228,0.10003 0.266,0.33792 0.40625,0.5 0.13068,0.15102 0.30987,0.22004 0.375,0.46875 0.22727,0.27435 0.48825,0.51658 0.6875,0.875 0.31116,0.55971 0.64028,0.34815 0.96875,1.0526 0.65694,1.4089 2.2213,3.9555 2.7912,4.8819 0.58554,0.76812 1.2858,1.4131 1.8125,2.3125 -0.14314,-0.3263 -0.23084,-0.64115 -0.40625,-0.96875 -0.81405,-1.5203 -2.714,-3.9185 -3.3224,-5.2256 -0.04294,-0.0783 -0.07462,-0.16277 -0.09375,-0.25 l -0.59375,-2.9588 c -0.0028,-0.04161 -0.0028,-0.08339 0,-0.125 l -0.0625,-2.375 c -0.01714,-0.48103 0.39471,-0.93701 0.875,-0.96875 l 5.0312,-0.15625 c 0.40227,-0.02285 0.80387,0.24489 0.9375,0.625 0.32075,0.90466 2.0462,2.9746 3.1349,3.5069 0.05496,0.02608 0.10737,0.05753 0.15625,0.09375 0.60524,0.46868 0.93026,1.165 1.0938,1.8438 0.16349,0.67873 0.2008,0.54013 0.1875,1.2713 -0.02661,1.4624 -0.21122,3.0111 -0.125,4.25 0.08483,1.3783 0.14442,2.4199 -0.0625,3.375 -0.06392,0.29503 -0.21223,0.54386 -0.34375,0.8125 h 0.03125 c 0.41365,0.01183 0.57127,-0.07541 0.59375,-0.09375 0.02363,-0.01928 0.11253,-0.05468 0.15625,-0.375 0.08743,-0.64063 -0.07878,-2.0173 -0.09375,-3.7188 -1.74e-4,-0.01042 -1.74e-4,-0.02083 0,-0.03125 0.04779,-2.0425 0.05525,-4.4966 0.5,-7.3026 0.07623,-0.46981 0.55835,-0.83504 1.0312,-0.78125 l 1.9375,0.1875 c 0.32491,0.03912 0.62147,0.26154 0.75,0.5625 0.40991,0.91517 0.87239,1.4643 1.2812,2.8338 0.39316,1.3169 0.73453,2.5163 0.90625,3.0938 1.3929,1.9808 2.2507,3.1386 2.25,4.5 -2.47e-4,0.50117 -0.2282,0.95163 -0.53125,1.3438 0.50482,0.04563 0.90767,-0.0059 1.3438,-0.03125 -0.12378,-1.538 -0.96934,-2.8197 -1.9375,-4.5312 -1.821,-3.2192 -3.2904,-7.8434 -2.4688,-12.553 0.0075,-0.04232 0.01798,-0.08412 0.03125,-0.125 0.2008,-0.63039 0.42603,-2.0332 0.96875,-2.3849 0.07533,-0.04881 0.14552,-0.02704 0.21875,-0.0625 -0.06581,-0.08815 -0.1484,-0.32119 -0.21875,-0.40625 -0.227,-0.27444 -0.58342,-0.73163 -0.90625,-1.4688 -0.02605,-0.05949 -0.03646,-0.06098 -0.0625,-0.125 -0.79051,-1.3484 -1.2711,-2.4138 -3.3125,-5 -0.038,-0.058 -0.069,-0.121 -0.093,-0.187 -0.814,-1.739 -2.117,-2.989 -3.094,-3.406 -0.4886,-0.20858 -0.84918,-0.20578 -1.0625,-0.125 -0.21332,0.08078 -2.3995,0.24037 -2.5625,0.78125 h -0.03125 c -0.06697,0.63315 -0.2066,1.2084 -0.5625,1.6562 -0.40214,0.50601 -1.0653,0.79312 -1.6875,0.75 -1.2014,-0.08328 -2.2065,-0.95762 -3.1562,-2.25 -0.32382,-0.31622 -0.74676,-0.61613 -1.0625,-0.6875 -0.30112,-0.06806 -0.5852,-0.07832 -1.1562,0.5625 -1.141,1.934 -1.337,3.134 -1.719,4.219 -0.1936,0.54967 -0.47506,1.1201 -1,1.5625 -0.52494,0.44241 -1.211,0.71204 -2.125,0.9375 -0.14313,0.03435 -0.29437,0.03435 -0.4375,0 -1.2,-0.275 -2.194,-1.124 -3.032,-1.875 -0.837,-0.751 -1.4372,-1.438 -1.4372,-1.438 -0.0219,-0.019 -0.0427,-0.04 -0.0626,-0.062 -0.8761,-1.212 -0.8838,-2.807 -0.9062,-4.25 -0.0112,-0.722 -0.0134,-1.3996 -0.0312,-1.9375 -0.006,-0.1793 -0.0138,-0.1714 -0.0313,-0.3125 z M 25.4995,39 c 0.26733,0.64846 0.28531,1.4328 0.09375,2.3125 l 0.344,-0.031 c 0.017,-0.732 -0.135,-1.489 -0.438,-2.281 z"
         inkscape:connector-curvature="0"
         id="path3888"
         style="opacity:0.23999999;fill:none;stroke:url(#linearGradient3864)" />
    </g>
  </g>
</svg>
