<?xml version="1.0" encoding="UTF-8" standalone="no"?>
<!-- Created with Inkscape (http://www.inkscape.org/) -->

<svg
   xmlns:dc="http://purl.org/dc/elements/1.1/"
   xmlns:cc="http://creativecommons.org/ns#"
   xmlns:rdf="http://www.w3.org/1999/02/22-rdf-syntax-ns#"
   xmlns:svg="http://www.w3.org/2000/svg"
   xmlns="http://www.w3.org/2000/svg"
   xmlns:xlink="http://www.w3.org/1999/xlink"
   xmlns:inkscape="http://www.inkscape.org/namespaces/inkscape"
   version="1.0"
   width="48"
   height="48"
   id="svg2">
  <metadata
     id="metadata47">
    <rdf:RDF>
      <cc:Work
         rdf:about="">
        <dc:format>image/svg+xml</dc:format>
        <dc:type
           rdf:resource="http://purl.org/dc/dcmitype/StillImage" />
        <dc:title />
      </cc:Work>
    </rdf:RDF>
  </metadata>
  <defs
     id="defs4">
    <linearGradient
       id="linearGradient3793">
      <stop
         id="stop3795"
         style="stop-color:#000000;stop-opacity:1"
         offset="0" />
      <stop
         id="stop3797"
         style="stop-color:#000000;stop-opacity:0"
         offset="1" />
    </linearGradient>
    <radialGradient
       cx="62.625"
       cy="4.625"
       r="10.625"
       id="radialGradient5729"
       xlink:href="#linearGradient3793"
       gradientUnits="userSpaceOnUse"
       gradientTransform="matrix(1,0,0,0.34118,0,3.0471)" />
    <radialGradient
       cx="22.125"
       cy="10.875"
       r="20"
       id="radialGradient5540"
       gradientUnits="userSpaceOnUse"
       gradientTransform="matrix(1.01,-0.112,0.056688,0.51121,-5.8376,1.7935)">
      <stop
         id="stop3158"
         style="stop-color:#ffffff;stop-opacity:1"
         offset="0" />
      <stop
         id="stop3160"
         style="stop-color:#ffffff;stop-opacity:0"
         offset="1" />
    </radialGradient>
    <radialGradient
       cx="20.039"
       cy="12.61"
       r="22.464001"
       id="radialGradient5551"
       gradientUnits="userSpaceOnUse"
       gradientTransform="matrix(1.2251,-0.018811,0.018929,1.2336,-5.611,-4.1683)">
      <stop
         id="stop4105"
         style="stop-color:#94c1fc;stop-opacity:1"
         offset="0" />
      <stop
         id="stop4107"
         style="stop-color:#3465a4;stop-opacity:1"
         offset="1" />
    </radialGradient>
    <linearGradient
       x1="34"
       y1="9"
       x2="34"
       y2="49"
       id="linearGradient5553"
       gradientUnits="userSpaceOnUse"
       gradientTransform="translate(-5,-6)">
      <stop
         id="stop6495"
         style="stop-color:#4580d4;stop-opacity:1"
         offset="0" />
      <stop
         id="stop6497"
         style="stop-color:#114796;stop-opacity:1"
         offset="1" />
    </linearGradient>
    <radialGradient
       cx="17.587999"
       cy="20.684999"
       r="12.939"
       id="radialGradient3799"
       xlink:href="#linearGradient3793"
       gradientUnits="userSpaceOnUse"
       gradientTransform="matrix(0.84922,0.011734,-0.012068,0.87332,2.9745,1.3292)" />
    <radialGradient
       cx="24.628"
       cy="20.961"
       r="12.939"
       id="radialGradient3803"
       xlink:href="#linearGradient3793"
       gradientUnits="userSpaceOnUse"
       gradientTransform="matrix(0.65263,-0.001358,9.001e-4,0.43258,8.1695,6.5163)" />
    <radialGradient
       cx="26.811001"
       cy="26.108999"
       r="12.939"
       id="radialGradient3807"
       xlink:href="#linearGradient3793"
       gradientUnits="userSpaceOnUse"
       gradientTransform="matrix(1.5778,-0.37286,0.072006,0.30471,-17.372,28.241)" />
    <radialGradient
       cx="23.061001"
       cy="25"
       r="12.939"
       id="radialGradient3819"
       xlink:href="#linearGradient3793"
       gradientUnits="userSpaceOnUse"
       gradientTransform="matrix(0.99912,-0.042019,0.034778,0.82696,-0.8491,5.2951)" />
    <radialGradient
       cx="19.806"
       cy="15.585"
       r="12.939"
       id="radialGradient3833"
       xlink:href="#linearGradient3793"
       gradientUnits="userSpaceOnUse"
       gradientTransform="matrix(0.32717,0.0039737,-0.0063916,0.52625,12.331,2.9198)" />
    <radialGradient
       cx="29.987"
       cy="40.088001"
       r="12.939"
       id="radialGradient3839"
       xlink:href="#linearGradient3793"
       gradientUnits="userSpaceOnUse"
       gradientTransform="matrix(0.87303,-0.13931,0.057964,0.36324,0.40774,10.716)" />
    <radialGradient
       cx="9.9090996"
       cy="26.783001"
       r="12.939"
       id="radialGradient3843"
       xlink:href="#linearGradient3793"
       gradientUnits="userSpaceOnUse"
       gradientTransform="matrix(0.93041,-0.0037232,0.0052113,1.3023,0.50192,-8.0422)" />
  </defs>
  <g
     id="layer1">
    <g
       id="g6334">
      <path
         d="M 73.25,4.625 C 73.25,6.627 68.493,8.25 62.625,8.25 56.757,8.25 52,6.627 52,4.625 52,2.623 56.757,1 62.625,1 68.493,1 73.25,2.623 73.25,4.625 z"
         inkscape:connector-curvature="0"
         transform="matrix(1.9262,0,0,2.1088,-97.164,29.602)"
         id="path8836"
         style="opacity:0.4;fill:url(#radialGradient5729);fill-rule:evenodd" />
      <path
         d="m 44.501,23 c 0,11.317 -9.1784,20.501 -20.487,20.501 C 12.7054,43.501 3.527,34.3166 3.527,23 3.527,11.6834 12.7054,2.499 24.014,2.499 35.3226,2.499 44.501,11.6834 44.501,23 z"
         inkscape:connector-curvature="0"
         id="path1307"
         style="fill:url(#radialGradient5551);stroke:url(#linearGradient5553);stroke-width:0.99816;stroke-linecap:round;stroke-linejoin:round" />
      <path
         d="M 43.502,23 C 43.502,33.765 34.7652,42.502 24,42.502 13.2348,42.502 4.498,33.765 4.498,23 4.498,12.235 13.2348,3.498 24,3.498 34.7652,3.498 43.502,12.2348 43.502,23 z"
         inkscape:connector-curvature="0"
         id="path3164"
         style="opacity:0.4;fill:none;stroke:url(#radialGradient5540);stroke-width:0.99646997;stroke-linecap:round;stroke-linejoin:round" />
      <path
         d="m 10.122,14.398 c 0.54701,0.95089 1.7235,1.0196 2.5357,0.87484 -0.89602,3.356 -0.27613,6.4392 1.3737,8.3825 0.9639,1.2572 1.7475,2.7914 4.1654,2.6339 1.2636,1.3461 0.11355,5.1362 0.10034,7.9953 0.057,1.5363 -0.64591,2.9659 -2.312,4.5022 l 2.463,0.214 c 0.91855,-3.3154 1.99,-4.1491 2.4061,-10.961 0.10867,-0.92889 0.29931,-1.8064 1.3282,-1.5855 0.15098,3.0958 -0.68413,4.8556 0.21979,6.3162 l 4.4295,5.249 0.92911,-0.89618 -3.6315,-4.8466 -0.0095,-1.704 0.24062,-4.292 3.0191,-0.36585 c 0.31317,3.0225 -0.37515,4.9147 -0.91373,6.255 -1.0573,1.9305 -1.667,2.8444 -2.9796,4.2705 l 1.2316,1.1096 c 1.5081,-1.7184 2.5223,-2.9226 3.5197,-5.1454 0.95063,-1.3587 1.3123,-5.0879 1.7194,-7.52 l 1.3396,-0.27739 c 0.51752,1.1485 1.0145,3.9055 1.2619,5.2386 0.4393,5.8288 -0.49175,6.6807 -0.75727,8.1737 0.87763,0.69784 1.295,1.0154 2.1175,0 v -14.872 c 1.283,-0.10249 0.98742,1.4356 0.8859,4.3742 1.0208,0.11637 1.3584,-2.3416 1.1236,-5.6331 -3.108,-3.534 -4.082,-11.038 -7.843,-10.884 h -0.86429 c -1.8381,-0.11164 -2.7163,1.6205 -3.6881,2.7423 -1.3252,0.84939 -2.9198,2.1017 -3.9339,3.7166 -0.46012,1.8331 -2.2726,2.3631 -2.1314,0.46914 0.74604,-1.8229 0.7442,-3.2572 0.3974,-4.4102 -0.57278,-1.603 -1.2671,-2.2855 -2.2039,-2.5178 -1.0096,0.33898 -1.893,0.60111 -2.3614,2.0088 h -2.5357 z"
         inkscape:connector-curvature="0"
         id="path3791"
         style="opacity:0.5" />
      <path
         d="m 18.197,26.289 3.9859,0.16415 2.178,-0.17349 3.0191,-0.36585 2.5775,-1.0303 1.3396,-0.27739 2.6222,-1.46 c 1.283,-0.10249 0.98742,1.4356 0.8859,4.3742 1.0208,0.11637 1.3584,-2.3416 1.1236,-5.6331 -3.11,-3.533 -4.084,-11.037 -7.845,-10.883 h -0.86429 c -1.8381,-0.11164 -2.7163,1.6205 -3.6881,2.7423 -1.3252,0.84939 -2.9198,2.1017 -3.9339,3.7166 -2.1208,3.3935 -1.9427,5.9263 -1.4022,8.8251 z"
         inkscape:connector-curvature="0"
         id="path3037"
         style="opacity:0.6;fill:url(#radialGradient3799)" />
      <path
         d="m 18.197,26.289 3.9859,0.16415 2.178,-0.17349 3.0191,-0.36585 2.5775,-1.0303 1.3396,-0.27739 2.6222,-1.46 c 1.283,-0.10249 0.98742,1.4356 0.8859,4.3742 1.0208,0.11637 1.3584,-2.3416 1.1236,-5.6331 -3.1085,-3.5319 -4.683,-4.1366 -8.4434,-3.9821 h -0.86429 c -1.8381,-0.11164 -2.7163,1.6205 -3.6881,2.7423 -1.3252,0.84939 -2.9198,2.1017 -3.9339,3.7166 -2.1208,3.3935 -1.3427,-0.97366 -0.80217,1.9251 z"
         inkscape:connector-curvature="0"
         id="path3805"
         style="opacity:0.23999999;fill:url(#radialGradient3807)" />
      <path
         d="m 18.197,26.289 c 1.2636,1.3461 0.11355,5.1362 0.10034,7.9953 0.057,1.5363 -0.64591,2.9659 -2.312,4.5022 l 2.463,0.213 c 0.91855,-3.3154 1.99,-4.1491 2.4061,-10.961 0.10867,-0.92889 0.29931,-1.8064 1.3282,-1.5855 0.15098,3.0958 -0.68413,4.8556 0.21979,6.3162 l 4.4295,5.249 0.92911,-0.89618 -3.6315,-4.8466 -0.0095,-1.704 0.24062,-4.292 3.0191,-0.36585 c 0.31317,3.0225 -0.37515,4.9147 -0.91373,6.255 -1.0573,1.9305 -1.667,2.8444 -2.9796,4.2705 l 1.2316,1.1096 c 1.5081,-1.7184 2.5223,-2.9226 3.5197,-5.1454 0.95063,-1.3587 1.3123,-5.0879 1.7194,-7.52 l 1.3396,-0.27739 c 0.51752,1.1485 1.0145,3.9055 1.2619,5.2386 0.4393,5.8288 -0.49175,6.6807 -0.75727,8.1737 0.87763,0.69784 1.295,1.0154 2.1175,0 v -14.872 c 1.283,-0.10249 0.98742,1.4356 0.8859,4.3742 1.0208,0.11637 1.3584,-2.3416 1.1236,-5.6331 -6.8396,4.4236 -12.43,5.1649 -17.732,4.4018 z"
         inkscape:connector-curvature="0"
         id="path3811"
         style="opacity:0.6;fill:url(#radialGradient3819)" />
      <path
         d="m 10.122,14.398 c 0.54701,0.95089 1.7235,1.0196 2.5357,0.87484 -0.89602,3.356 -0.27613,6.4392 1.3737,8.3825 0.9639,1.2572 1.7475,2.7914 4.1654,2.6339 -0.49271,-1.8426 -0.53732,-4.082 0.11099,-7.1928 -0.49298,0.12489 -0.91079,-0.2161 -0.84018,-1.1631 0.74604,-1.8229 0.7442,-3.2572 0.3974,-4.4102 -0.57278,-1.603 -1.2671,-2.2855 -2.2039,-2.5178 -1.0096,0.33898 -1.893,0.60111 -2.3614,2.0088 h -2.5357 z"
         inkscape:connector-curvature="0"
         id="path3821"
         style="opacity:0.7;fill:url(#radialGradient3843)" />
      <path
         d="m 10.122,14.398 c 0.54701,0.95089 1.7235,1.0196 2.5357,0.87484 -0.89602,3.356 -0.27613,6.4392 1.3737,8.3825 0.9639,1.2572 1.7475,2.7914 4.1654,2.6339 -0.49271,-1.8426 -0.53732,-4.082 0.11099,-7.1928 -0.49298,0.12489 -0.91079,-0.2161 -0.84018,-1.1631 0.74604,-1.8229 0.7442,-3.2572 0.3974,-4.4102 -0.57278,-1.603 -1.2671,-2.2855 -2.2039,-2.5178 -1.0096,0.33898 -1.893,0.60111 -2.3614,2.0088 h -2.5357 z"
         inkscape:connector-curvature="0"
         id="path3831"
         style="opacity:0.5;fill:url(#radialGradient3833)" />
      <path
         d="m 26.611,20.43 3.4691,0.53415 2.1275,-1.9303 -0.01035,-2.3774 c 0.27597,0.60504 -0.52695,-4.3745 -4.1118,-5.651 h -0.86429 c -1.8381,-0.11164 -2.7163,1.6205 -3.6881,2.7423 -0.16811,3.1304 0.79994,5.4952 3.0779,6.6823 z"
         inkscape:connector-curvature="0"
         id="path3835"
         style="opacity:0.2;fill:url(#radialGradient3839)" />
      <path
         d="m 29.647,13.056 c 1.751,1.8972 1.6705,-0.76116 -1.5618,-2.051 h -0.86429 c -1.8381,-0.11164 -2.7163,1.6205 -3.6881,2.7423 -0.67239,3.4616 1.9951,3.3085 6.1141,-0.69121 z"
         inkscape:connector-curvature="0"
         id="path3801"
         style="opacity:0.3;fill:url(#radialGradient3803)" />
    </g>
  </g>
</svg>
