<?xml version="1.0" encoding="UTF-8" standalone="no"?>
<!-- Created with Inkscape (http://www.inkscape.org/) -->

<svg
   xmlns:dc="http://purl.org/dc/elements/1.1/"
   xmlns:cc="http://creativecommons.org/ns#"
   xmlns:rdf="http://www.w3.org/1999/02/22-rdf-syntax-ns#"
   xmlns:svg="http://www.w3.org/2000/svg"
   xmlns="http://www.w3.org/2000/svg"
   xmlns:xlink="http://www.w3.org/1999/xlink"
   xmlns:inkscape="http://www.inkscape.org/namespaces/inkscape"
   version="1.1"
   width="48"
   height="48"
   id="svg4057">
  <defs
     id="defs4059">
    <linearGradient
       x1="14.850829"
       y1="25.002192"
       x2="30.055248"
       y2="25.002192"
       id="linearGradient3862"
       xlink:href="#linearGradient4120"
       gradientUnits="userSpaceOnUse"
       spreadMethod="reflect" />
    <linearGradient
       id="linearGradient4120">
      <stop
         id="stop4122"
         style="stop-color:#ffffff;stop-opacity:1"
         offset="0" />
      <stop
         id="stop4124"
         style="stop-color:#ffffff;stop-opacity:0.23529412"
         offset="1" />
    </linearGradient>
    <linearGradient
       x1="29.96685"
       y1="21.02429"
       x2="14.850829"
       y2="21.02429"
       id="linearGradient3927"
       xlink:href="#linearGradient3707-319-631-407-324-3-8"
       gradientUnits="userSpaceOnUse"
       gradientTransform="translate(0,-4.8555953e-4)"
       spreadMethod="reflect" />
    <linearGradient
       id="linearGradient3707-319-631-407-324-3-8">
      <stop
         id="stop3760-7-3"
         style="stop-color:#185f9a;stop-opacity:1"
         offset="0" />
      <stop
         id="stop3762-8-4"
         style="stop-color:#599ec9;stop-opacity:1"
         offset="1" />
    </linearGradient>
    <linearGradient
       x1="29.96685"
       y1="21.02429"
       x2="14.850829"
       y2="21.02429"
       id="linearGradient3946"
       xlink:href="#linearGradient3707-319-631-407-324-3-8-3"
       gradientUnits="userSpaceOnUse"
       gradientTransform="translate(0,-4.8555953e-4)"
       spreadMethod="reflect" />
    <linearGradient
       id="linearGradient3707-319-631-407-324-3-8-3">
      <stop
         id="stop3760-7-3-6"
         style="stop-color:#185f9a;stop-opacity:1"
         offset="0" />
      <stop
         id="stop3762-8-4-4"
         style="stop-color:#599ec9;stop-opacity:1"
         offset="1" />
    </linearGradient>
    <linearGradient
       x1="29.96685"
       y1="21.02429"
       x2="14.850829"
       y2="21.02429"
       id="linearGradient3980"
       xlink:href="#linearGradient3707-319-631-407-324-3-8-3-8"
       gradientUnits="userSpaceOnUse"
       gradientTransform="translate(0,-4.8555953e-4)"
       spreadMethod="reflect" />
    <linearGradient
       id="linearGradient3707-319-631-407-324-3-8-3-8">
      <stop
         id="stop3760-7-3-6-1"
         style="stop-color:#185f9a;stop-opacity:1"
         offset="0" />
      <stop
         id="stop3762-8-4-4-0"
         style="stop-color:#599ec9;stop-opacity:1"
         offset="1" />
    </linearGradient>
    <linearGradient
       x1="23.571318"
       y1="5.5534472"
       x2="23.571318"
       y2="39.869995"
       id="linearGradient3865"
       xlink:href="#linearGradient3875"
       gradientUnits="userSpaceOnUse" />
    <linearGradient
       id="linearGradient3875">
      <stop
         id="stop3877"
         style="stop-color:#ffffff;stop-opacity:1"
         offset="0" />
      <stop
         id="stop3879"
         style="stop-color:#ffffff;stop-opacity:0.23529412"
         offset="0.13099068" />
      <stop
         id="stop3881"
         style="stop-color:#ffffff;stop-opacity:0.15686275"
         offset="0.90155029" />
      <stop
         id="stop3883"
         style="stop-color:#ffffff;stop-opacity:0.39215687"
         offset="1" />
    </linearGradient>
    <linearGradient
       x1="0.36465192"
       y1="19.599176"
       x2="28.05953"
       y2="19.599176"
       id="linearGradient3868"
       xlink:href="#linearGradient2867-449-88-871-390-598-476-591-434-148-57-177-3-8"
       gradientUnits="userSpaceOnUse"
       gradientTransform="matrix(1.3263159,0,0,1.335413,-7.2158,-2.1729963)"
       spreadMethod="reflect" />
    <linearGradient
       id="linearGradient2867-449-88-871-390-598-476-591-434-148-57-177-3-8">
      <stop
         id="stop3750-8-9"
         style="stop-color:#90dbec;stop-opacity:1"
         offset="0" />
      <stop
         id="stop3752-3-2"
         style="stop-color:#55c1ec;stop-opacity:1"
         offset="0.26238" />
      <stop
         id="stop3754-7-2"
         style="stop-color:#3689e6;stop-opacity:1"
         offset="0.704952" />
      <stop
         id="stop3756-9-3"
         style="stop-color:#2b63a0;stop-opacity:1"
         offset="1" />
    </linearGradient>
    <linearGradient
       x1="30"
       y1="30"
       x2="-11"
       y2="30"
       id="linearGradient3870"
       xlink:href="#linearGradient3707-319-631-407-324-3-8"
       gradientUnits="userSpaceOnUse"
       spreadMethod="reflect" />
    <linearGradient
       id="linearGradient8838">
      <stop
         id="stop8840"
         style="stop-color:#000000;stop-opacity:1"
         offset="0" />
      <stop
         id="stop8842"
         style="stop-color:#000000;stop-opacity:0"
         offset="1" />
    </linearGradient>
    <radialGradient
       cx="62.625"
       cy="4.625"
       r="10.625"
       fx="62.625"
       fy="4.625"
       id="radialGradient4055"
       xlink:href="#linearGradient8838"
       gradientUnits="userSpaceOnUse"
       gradientTransform="matrix(2.2588238,0,0,0.51764651,-117.45891,38.105883)" />
  </defs>
  <metadata
     id="metadata4062">
    <rdf:RDF>
      <cc:Work
         rdf:about="">
        <dc:format>image/svg+xml</dc:format>
        <dc:type
           rdf:resource="http://purl.org/dc/dcmitype/StillImage" />
        <dc:title />
      </cc:Work>
    </rdf:RDF>
  </metadata>
  <g
     id="layer1">
    <path
       d="M 48,40.499999 C 48,43.537568 37.254828,46 24.000001,46 10.745171,46 0,43.537568 0,40.499999 0,37.462434 10.745171,35 24.000001,35 37.254828,35 48,37.462434 48,40.499999 l 0,0 z"
       inkscape:connector-curvature="0"
       id="path8836"
       style="opacity:0.3;fill:url(#radialGradient4055);fill-opacity:1;fill-rule:evenodd;stroke:none;stroke-width:0.99999988;marker:none;visibility:visible;display:inline;overflow:visible" />
    <path
       d="M 1.4999998,9.7729996 C 1.4558056,8.1997523 8.2098196,6.2630762 15.129731,6.5127188 22.049386,6.7623521 23.896807,9.1697345 31.737521,9.4999996 39,9.8059084 46.544192,6.3000775 46.499998,7.9029996 l 0,31.0280004 c 0.0625,2.118722 -6.843024,3.59206 -14.685591,3.569 C 23.971874,42.47694 22.51516,39.634531 15.129731,39.5 7.7484933,39.365545 1.3125,43.4375 1.4999998,40.477 l 0,-30.7040004 z"
       inkscape:connector-curvature="0"
       id="path4319"
       style="fill:url(#linearGradient3868);fill-opacity:1;fill-rule:evenodd;stroke:url(#linearGradient3870);stroke-width:1;stroke-linecap:butt;stroke-linejoin:round;stroke-miterlimit:4;stroke-opacity:1;stroke-dasharray:none" />
    <path
       d="M 2.5000009,10.092654 C 2.4454395,8.9999996 9.025931,7.2247953 15.637144,7.5132732 22.222248,7.8006119 23.980966,10.238782 31.446891,10.5 38.995455,10.764109 45.532323,7.9999996 45.499996,8.8610594 l 0,30.2211456 C 45.483094,40 38.992591,41.527182 31.520085,41.5 24.05442,41.472843 22.667173,38.463597 15.637144,38.313745 8.6105909,38.163967 2.5000009,42.066952 2.5000009,39.765229 l 0,-29.672575 z"
       inkscape:connector-curvature="0"
       id="path5213"
       style="opacity:0.4;fill:none;stroke:url(#linearGradient3865);stroke-width:1.00000191px;stroke-linecap:butt;stroke-linejoin:miter;stroke-opacity:1" />
    <path
       d="m 23.875,10 a 3.032284,3.032284 0 0 0 -0.1875,0.03125 c -1.218993,0.17352 -2.40676,0.45276 -3.59375,0.84375 a 3.032284,3.032284 0 0 0 -0.15625,0.03125 c -1.277904,0.488393 -2.497326,1.162022 -3.625,2.03125 a 3.032284,3.032284 0 0 0 -0.03125,0 c -0.192679,0.150181 -0.394773,0.426233 -0.59375,0.59375 -0.886478,-0.555862 -1.819643,-0.777148 -2.9375,-0.4375 a 3.032284,3.032284 0 0 0 -0.5,0.21875 c -2.3755863,1.207657 -2.8295742,3.393555 -3.125,4.125 a 3.032284,3.032284 0 0 0 -0.0625,0.125 c -0.3713549,1.069993 -0.7463447,2.311564 -0.90625,3.71875 -0.00538,0.04737 -0.02639,0.07721 -0.03125,0.125 l 0.03125,0 C 7.9635691,22.804059 8.0068361,24.093925 8.125,25.25 c 0.00191,0.02283 -0.00203,0.03977 0,0.0625 0.1404003,1.570971 0.5854129,2.937268 0.96875,4.09375 a 3.032284,3.032284 0 0 0 0.0625,0.15625 c 0.4681089,1.175963 1.038948,2.220207 1.625,3.1875 a 3.032284,3.032284 0 0 0 0.03125,0.0625 c 0.977212,1.546039 2.15563,2.532301 3,3.34375 a 3.032284,3.032284 0 0 0 0.0625,0.0625 c 1.151303,1.034992 2.321192,1.646377 3.25,2.15625 a 3.032284,3.032284 0 0 0 0.03125,0.03125 c 1.312045,0.702351 2.579976,0.995589 3.625,1.25 a 3.032284,3.032284 0 0 0 0.5,0.09375 c -0.380369,-0.02647 -0.222318,-0.01815 0.4375,0.15625 0.589585,0.155834 1.910967,0.183323 3.03125,-0.34375 0.914713,0.713314 2.043658,1.061811 3.375,0.84375 l 0,0.09375 c 0.822648,-0.07105 2.021292,-0.1657 3.3125,-0.46875 l 0,0.03125 c 0.09484,-0.01391 0.158102,-0.04563 0.25,-0.0625 0.0628,-0.0166 0.09259,-0.01317 0.15625,-0.03125 l 0,-0.03125 c 1.420943,-0.294493 2.532649,-0.867211 3.34375,-1.34375 a 3.032284,3.032284 0 0 0 0.0625,-0.0625 c 1.335439,-0.826959 2.7036,-1.853489 3.84375,-3.25 0.01674,-0.01968 0.04572,-0.04264 0.0625,-0.0625 0.665106,-0.787121 1.343214,-1.724724 1.875,-2.875 0.01746,-0.03776 0.04539,-0.05551 0.0625,-0.09375 l -0.03125,0 c 0.757628,-1.553033 1.055298,-2.996988 1.34375,-4.125 a 3.032284,3.032284 0 0 0 0.0625,-0.34375 c 0.139115,-1.050388 0.296649,-2.224702 0.3125,-3.5 a 3.032284,3.032284 0 0 0 0,-0.3125 C 42.671497,22.726205 42.460789,21.482082 42.125,20.25 a 3.032284,3.032284 0 0 0 -0.03125,-0.03125 c -0.410061,-1.436426 -0.950896,-2.478738 -1.25,-3.28125 A 3.032284,3.032284 0 0 0 40.5,16.25 C 40.4429,16.16818 40.17707,15.663838 39.5625,15 38.94793,14.336162 37.410976,13.369684 35.8125,13.65625 A 3.032284,3.032284 0 0 0 34.84375,14 c -0.07359,0.04135 -0.08668,0.140856 -0.15625,0.1875 -0.137148,-0.145229 -0.310267,-0.362555 -0.4375,-0.5 -1.016968,-1.091667 -2.20101,-1.820211 -3.34375,-2.375 l 0.03125,-0.03125 c -0.0206,-0.01034 -0.04192,0.01014 -0.0625,0 C 29.596708,10.651441 28.344324,10.394605 27.28125,10.25 27.27365,10.2489 27.25763,10.2511 27.25,10.25 26.422044,10.128513 25.296412,9.8826735 23.875,10 z m -2.8125,13.25 a 3.032284,3.032284 0 0 0 0.03125,0 c -0.0071,0.01827 -0.02389,0.01391 -0.03125,0.03125 a 3.032284,3.032284 0 0 0 0,-0.03125 z m 7.90625,0.5 c 9.55e-4,0.0048 0.130496,0.352603 0.15625,0.5 -0.139389,-0.29384 -0.157392,-0.505722 -0.15625,-0.5 z m 0.15625,0.1875 0.875,0.25 -0.75,0.21875 C 29.22916,24.3709 29.17253,24.31387 29.15625,24.28125 29.14245,24.14898 29.10286,24.010983 29.125,23.9375 z m 1.3125,0.40625 0.09375,0 -0.65625,0.8125 c -0.03475,-0.02776 -0.03031,-0.03532 -0.0625,-0.0625 L 29.875,25.0625 29.75,25.03125 C 29.629852,24.923782 29.615107,24.846619 29.53125,24.75 L 30.4375,24.34375 z M 26.15625,24.75 c 0.0097,0.02147 0.02156,0.01019 0.03125,0.03125 a 3.032284,3.032284 0 0 0 -0.03125,0.03125 c -0.01247,-0.02941 0.01677,-0.02353 0,-0.0625 z"
       inkscape:connector-curvature="0"
       id="path3925-3-9"
       style="font-size:medium;font-style:normal;font-variant:normal;font-weight:normal;font-stretch:normal;text-indent:0;text-align:start;text-decoration:none;line-height:normal;letter-spacing:normal;word-spacing:normal;text-transform:none;direction:ltr;block-progression:tb;writing-mode:lr-tb;text-anchor:start;opacity:0.1;color:#000000;fill:url(#linearGradient3980);fill-opacity:1;stroke:none;stroke-width:0.99999994;marker:none;visibility:visible;display:inline;overflow:visible;enable-background:accumulate;font-family:Andale Mono;-inkscape-font-specification:Andale Mono" />
    <path
       d="m 23.96875,11.03125 a 1.9917792,1.9917792 0 0 0 -0.125,0.03125 c -1.161685,0.165363 -2.311481,0.410343 -3.4375,0.78125 A 1.9917792,1.9917792 0 0 0 20.3125,11.875 c -1.191111,0.455223 -2.336185,1.105515 -3.375,1.90625 -0.38221,0.297907 -0.742013,0.760446 -1.125,1.125 -0.03171,-0.03704 -0.02863,-0.08938 -0.0625,-0.125 A 1.9917792,1.9917792 0 0 0 15.65625,14.6875 c -0.771945,-0.71416 -1.622248,-0.898424 -2.625,-0.59375 a 1.9917792,1.9917792 0 0 0 -0.3125,0.125 c -1.895925,0.963816 -2.300128,2.789398 -2.625,3.59375 A 1.9917792,1.9917792 0 0 0 10.0625,17.90625 C 9.6980092,18.956465 9.3629684,20.143964 9.21875,21.4375 l -0.03125,0 c -0.00497,0.03322 0.00464,0.06061 0,0.09375 -0.179492,1.2813 -0.1144203,2.503445 0,3.625 l -0.03125,0 c 0.00207,0.02469 0.029024,0.03791 0.03125,0.0625 0.1291384,1.426638 0.5298082,2.70807 0.90625,3.84375 a 1.9917792,1.9917792 0 0 0 0.03125,0.125 c 0.438364,1.101239 0.963354,2.093923 1.53125,3.03125 A 1.9917792,1.9917792 0 0 0 11.6875,32.25 c 0.873288,1.381621 1.979191,2.325399 2.84375,3.15625 a 1.9917792,1.9917792 0 0 0 0.03125,0.03125 c 1.030641,0.92652 2.131091,1.519949 3.0625,2.03125 a 1.9917792,1.9917792 0 0 0 0.03125,0 c 1.171915,0.627337 2.348414,0.937578 3.375,1.1875 a 1.9917792,1.9917792 0 0 0 0.34375,0.0625 c -0.131754,-0.0092 0.07835,0.04301 0.625,0.1875 0.505274,0.13355 1.517359,0.164069 2.375,-0.28125 l 0.03125,0.03125 c 0.01958,-0.01016 0.01183,-0.05176 0.03125,-0.0625 0.0485,-0.02692 0.108986,-7.58e-4 0.15625,-0.03125 L 24.5625,38.5 c 0.136805,-0.08635 0.188895,-0.263467 0.3125,-0.375 0.150137,0.182379 0.237293,0.456136 0.40625,0.59375 0.742517,0.604774 1.672844,0.854873 2.75,0.65625 l 0,0.0625 C 28.92856,39.36 30.05913,39.305887 31.28125,39 l 0,0.03125 c 0.04971,-0.0073 0.07608,-0.02294 0.125,-0.03125 0.04809,-0.01282 0.07653,-0.01748 0.125,-0.03125 l 0,-0.03125 c 1.266751,-0.246724 2.317573,-0.775619 3.125,-1.25 a 1.9917792,1.9917792 0 0 0 0.0625,-0.03125 c 1.278349,-0.791606 2.5477,-1.772642 3.59375,-3.0625 0.0087,-0.01024 0.02254,-0.02098 0.03125,-0.03125 0.637158,-0.75171 1.237342,-1.618286 1.71875,-2.65625 l 0.03125,0 c 0.01677,-0.03352 0.01494,-0.06027 0.03125,-0.09375 0.683195,-1.4031 0.986709,-2.785679 1.28125,-3.9375 a 1.9917792,1.9917792 0 0 0 0.03125,-0.25 c 0.138522,-1.045914 0.297618,-2.14648 0.3125,-3.34375 A 1.9917792,1.9917792 0 0 0 41.71875,24.0625 C 41.613956,22.876104 41.412087,21.699299 41.09375,20.53125 40.720999,19.22552 40.202734,18.191827 39.875,17.3125 A 1.9917792,1.9917792 0 0 0 39.625,16.875 C 39.520227,16.724872 39.275162,16.252257 38.78125,15.71875 38.287338,15.185243 37.190128,14.47414 36,14.6875 a 1.9917792,1.9917792 0 0 0 -0.625,0.21875 c -0.329025,0.184894 -0.496327,0.524846 -0.71875,0.8125 C 34.263606,15.286234 33.855972,14.790794 33.5,14.40625 32.599277,13.439367 31.525277,12.763372 30.46875,12.25 c -0.0052,-0.0025 0.0052,-0.02875 0,-0.03125 -0.01,-0.005 -0.02126,0.005 -0.03125,0 -1.143101,-0.568029 -2.286043,-0.798905 -3.3125,-0.9375 -0.85316,-0.123877 -1.902065,-0.353523 -3.15625,-0.25 z m 1.03125,10 c 0.465889,0.09312 0.796232,0.220938 1.125,0.375 -0.06801,0.356521 -0.253726,0.679152 -0.1875,1 0.134452,0.651387 0.435025,1.063062 0.65625,1.34375 0.44245,0.561375 0.622275,0.887961 0.46875,0.53125 a 1.9917792,1.9917792 0 0 0 0.03125,0.03125 c 0.144557,0.320755 0.22961,0.390881 0.375,0.625 -0.202324,0.224066 -0.269074,0.398725 -0.65625,0.6875 A 1.9917792,1.9917792 0 0 0 26.75,25.65625 c -0.254585,0.205511 -0.639498,0.353292 -1.09375,0.375 -0.01212,-3.43e-4 -0.01918,3.86e-4 -0.03125,0 -0.323379,-0.01033 -0.529708,-0.11446 -0.8125,-0.15625 0.586728,-1.381881 0.342639,-2.64324 0.25,-3.3125 a 1.9917792,1.9917792 0 0 0 -0.59375,-1.15625 l 0.1875,-0.3125 C 24.75366,21.07725 24.932199,21.03332 25,21.03125 z m 7.8125,1.9375 c 0.35018,0.147089 0.352387,0.246233 0.40625,0.46875 0.01183,0.04885 -0.111016,0.162453 -0.125,0.25 l -0.4375,-0.3125 0.15625,-0.40625 z"
       inkscape:connector-curvature="0"
       id="path3925-3"
       style="font-size:medium;font-style:normal;font-variant:normal;font-weight:normal;font-stretch:normal;text-indent:0;text-align:start;text-decoration:none;line-height:normal;letter-spacing:normal;word-spacing:normal;text-transform:none;direction:ltr;block-progression:tb;writing-mode:lr-tb;text-anchor:start;opacity:0.35;color:#000000;fill:url(#linearGradient3946);fill-opacity:1;stroke:none;stroke-width:0.99999994;marker:none;visibility:visible;display:inline;overflow:visible;enable-background:accumulate;font-family:Andale Mono;-inkscape-font-specification:Andale Mono" />
    <path
       d="M 23.96875,11.96875 C 22.858335,12.126814 21.758971,12.397061 20.6875,12.75 a 1.0608796,1.0608796 0 0 0 -0.03125,0 C 19.542789,13.175546 18.459317,13.760543 17.5,14.5 16.832744,15.020082 16.204614,15.687157 15.625,16.40625 15.53041,16.054685 15.369634,15.727648 15.09375,15.4375 A 1.0608796,1.0608796 0 0 0 15.03125,15.375 C 14.539348,14.91992 13.954092,14.80506 13.3125,15 a 1.0608796,1.0608796 0 0 0 -0.15625,0.0625 c -1.466791,0.74566 -1.836283,2.224171 -2.1875,3.09375 a 1.0608796,1.0608796 0 0 0 -0.03125,0.0625 c -0.35957,1.036035 -0.714508,2.149256 -0.84375,3.34375 -0.0023,0.02101 0.0021,0.04143 0,0.0625 -0.1695742,1.187707 -0.1132303,2.368025 0,3.46875 8.92e-4,0.01066 -9.26e-4,0.0206 0,0.03125 0.114499,1.316266 0.500426,2.526203 0.875,3.65625 a 1.0608796,1.0608796 0 0 0 0,0.0625 c 0.411752,1.034386 0.948348,1.995734 1.5,2.90625 0.780311,1.234523 1.804879,2.120541 2.6875,2.96875 A 1.0608796,1.0608796 0 0 0 15.1875,34.75 c 0.92269,0.829474 1.972514,1.393672 2.90625,1.90625 1.046545,0.560226 2.146159,0.847843 3.15625,1.09375 a 1.0608796,1.0608796 0 0 0 0.1875,0.03125 c 0.09067,0.0063 0.367095,0.101025 0.8125,0.21875 0.430267,0.113724 1.129741,0.14636 1.75,-0.21875 0.01945,-0.01042 0.0434,-0.02011 0.0625,-0.03125 0.401088,-0.234014 0.742105,-0.612944 0.875,-1.03125 0.141555,-0.445564 0.09514,-0.881207 -0.03125,-1.25 -0.04467,-0.130337 -0.154755,-0.222978 -0.21875,-0.34375 0.203895,0.02382 0.424668,0.103165 0.625,0.125 0.02711,0.0029 0.06639,-0.0031 0.09375,0 a 1.0608796,1.0608796 0 0 0 -0.125,0.1875 c -0.245287,0.464746 -0.298767,1.044827 -0.15625,1.5 0.142517,0.455173 0.435881,0.806653 0.75,1.0625 0.567092,0.461892 1.302551,0.640941 2.09375,0.46875 l 0,0.0625 c 0.965822,-0.08342 2.04937,-0.104711 3.1875,-0.40625 0.0234,-0.0062 0.03906,-0.02481 0.0625,-0.03125 0.02099,-0.0034 0.04164,0.0036 0.0625,0 l 0,-0.03125 c 1.132139,-0.198522 2.09276,-0.709557 2.90625,-1.1875 a 1.0608796,1.0608796 0 0 0 0.03125,0 C 35.436204,36.121102 36.605679,35.179032 37.5625,34 l 0.03125,0 c 0.0044,-0.0055 -0.0044,-0.02578 0,-0.03125 0.623503,-0.734659 1.220227,-1.540128 1.65625,-2.5 0.0063,-0.01385 0.02502,-0.01733 0.03125,-0.03125 l -0.03125,0 c 0.639922,-1.290349 0.944833,-2.619123 1.25,-3.8125 A 1.0608796,1.0608796 0 0 0 40.53125,27.5 c 0.137992,-1.041911 0.267236,-2.122538 0.28125,-3.25 a 1.0608796,1.0608796 0 0 0 0,-0.09375 C 40.712143,23.020088 40.521474,21.892011 40.21875,20.78125 39.879379,19.592449 39.353348,18.57305 39,17.625 a 1.0608796,1.0608796 0 0 0 -0.125,-0.21875 c -0.147423,-0.21124 -0.364036,-0.645595 -0.75,-1.0625 -0.385964,-0.416905 -1.143956,-0.866615 -1.96875,-0.71875 a 1.0608796,1.0608796 0 0 0 -0.34375,0.09375 c -0.633761,0.35614 -0.897003,1.010993 -1,1.625 -0.657365,-0.842353 -1.344835,-1.604748 -2,-2.3125 -0.807053,-0.866332 -1.789136,-1.521643 -2.78125,-2 l 0,0.03125 C 29.018866,12.554026 27.990422,12.321229 27,12.1875 26.126061,12.060606 25.124112,11.878543 24.03125,11.96875 a 1.0608796,1.0608796 0 0 0 -0.0625,0 z m 1.0625,3.125 a 1.0608796,1.0608796 0 0 0 0.03125,0 c 0.01493,-7.16e-4 0.1207,-2.67e-4 0.21875,0 -0.984204,-0.02583 -1.958376,0.149063 -2.90625,0.40625 -0.03139,0.0085 -0.06244,0.02243 -0.09375,0.03125 A 1.0608796,1.0608796 0 0 0 22.375,15.5 c 0.829051,-0.273897 1.717573,-0.380859 2.65625,-0.40625 z m 2.8125,0.4375 c 0.0366,0.01389 0.08909,0.01641 0.125,0.03125 0.0086,0.0036 0.02268,-0.0036 0.03125,0 0.02774,0.01262 0.0349,0.04976 0.0625,0.0625 -0.07415,-0.0311 -0.144445,-0.06684 -0.21875,-0.09375 z m -7.40625,0.875 c -0.334698,0.216567 -0.702652,0.399758 -1,0.625 0.101251,-0.08008 0.144724,-0.203189 0.25,-0.28125 0.02311,-0.01345 0.03952,-0.01786 0.0625,-0.03125 0.01247,-0.0092 0.01873,-0.02212 0.03125,-0.03125 0.233833,-0.136402 0.434796,-0.156249 0.65625,-0.28125 z m 13.53125,5.90625 c 0.257042,0.866996 0.539781,1.697525 0.5625,2.40625 a 1.0608796,1.0608796 0 0 0 0,0.0625 c 0.06949,0.927001 -0.04718,1.853033 -0.34375,2.75 -0.163938,0.469601 -0.501913,0.896522 -0.78125,1.34375 0.112086,-0.633082 0.61106,-1.44563 0.8125,-2.65625 0.0072,-0.04305 0.02494,-0.04969 0.03125,-0.09375 l -0.03125,0 c 0.246322,-1.152119 0.108127,-2.294232 -0.15625,-3.28125 A 1.0608796,1.0608796 0 0 0 34,22.71875 c -0.05298,-0.123772 -0.07581,-0.300738 -0.0625,-0.375 0.008,-0.04456 0.02923,-0.03022 0.03125,-0.03125 z m -13.5625,8.40625 c 0.245757,0.132882 0.598763,0.223005 0.90625,0.375 -0.23384,-0.09901 -0.488744,-0.134128 -0.71875,-0.25 -0.03078,-0.01834 -0.03243,-0.01334 -0.0625,-0.03125 -0.06825,-0.04066 -0.06066,-0.05521 -0.125,-0.09375 z M 23,31.6875 c 0.288665,0.08392 0.581838,0.12621 0.875,0.1875 -0.249552,-0.04786 -0.460161,-0.07881 -0.71875,-0.125 -0.0095,-0.002 -0.02175,0.002 -0.03125,0 C 23.08021,31.7406 23.04462,31.69758 23,31.6875 z m 6.28125,0.09375 0,0.03125 c 0.04927,-0.01223 0.108305,0.03588 0.15625,0.03125 -0.236258,0.06533 -0.332226,0.144848 -0.59375,0.21875 -0.01211,0.0034 -0.0191,-0.0035 -0.03125,0 -0.809324,0.199539 -1.740408,0.21783 -2.6875,0.15625 1.127312,0.07097 2.193297,-0.132466 3.15625,-0.4375 z"
       inkscape:connector-curvature="0"
       id="path3925"
       style="font-size:medium;font-style:normal;font-variant:normal;font-weight:normal;font-stretch:normal;text-indent:0;text-align:start;text-decoration:none;line-height:normal;letter-spacing:normal;word-spacing:normal;text-transform:none;direction:ltr;block-progression:tb;writing-mode:lr-tb;text-anchor:start;opacity:0.5;color:#000000;fill:url(#linearGradient3927);fill-opacity:1;stroke:none;stroke-width:0.99999994;marker:none;visibility:visible;display:inline;overflow:visible;enable-background:accumulate;font-family:Andale Mono;-inkscape-font-specification:Andale Mono" />
    <path
       d="m 24.125,13.03125 c -1.051985,0.149747 -2.093383,0.390399 -3.102689,0.722861 -1.024969,0.391726 -2.000264,0.931311 -2.868983,1.600933 -0.783836,0.610948 -1.532926,1.283833 -2.090828,2.113706 -0.609843,0.777767 -1.075529,1.663755 -1.433117,2.583036 -0.399369,0.957953 -0.497915,2.009761 -0.552184,3.03652 -0.10184,1.102083 0.03242,2.230137 0.360301,3.286694 0.319967,1.064355 0.816861,2.081353 1.465935,2.983866 0.311919,0.420558 0.520642,0.926117 0.534065,1.453634 0.902494,0.02366 1.568809,0.749272 2.241593,1.263772 0.869169,0.550333 1.813065,1.000875 2.792759,1.320595 1.2749,0.469271 2.630569,0.634349 3.973306,0.780699 0.987843,0.107511 1.989817,0.256751 2.980133,0.08958 0.94908,-0.122396 1.910473,-0.270448 2.80363,-0.624047 0.933697,-0.389262 1.773215,-0.977395 2.528982,-1.643624 0.731881,-0.628089 1.289992,-1.42173 1.773347,-2.24948 0.567634,-0.851859 0.881342,-1.837316 1.03125,-2.84375 0.186667,-0.943866 0.183518,-1.941312 0.09048,-2.898268 C 36.486171,22.96602 36.174896,21.957595 35.8125,20.96875 35.43429,19.999745 34.904605,19.097057 34.244344,18.293358 33.582077,17.383351 32.80104,16.57353 32.038307,15.749576 31.350033,15.010747 30.475854,14.446775 29.570956,14.01047 28.718846,13.582494 27.782881,13.376804 26.84375,13.25 25.94613,13.119668 25.034014,12.956218 24.125,13.03125 z m 1.21875,1 c 1.03881,0.05939 2.106648,0.164076 3.074276,0.572011 0.90059,0.407829 1.793937,0.880527 2.531106,1.549439 0.970762,0.814201 1.813506,1.768173 2.547162,2.799235 0.613334,0.763435 1.001901,1.682212 1.378706,2.579315 0.292608,1.036832 0.691788,2.062563 0.726691,3.151384 0.08075,1.077222 -0.08944,2.160422 -0.427278,3.182215 -0.320876,0.919153 -0.833403,1.778879 -1.431547,2.54764 -0.382826,0.508241 -0.880314,0.913056 -1.399116,1.275011 0.04522,-0.936501 -0.124164,-1.873906 -0.01607,-2.807176 0.118866,-1.013949 0.714917,-1.9003 0.859819,-2.911574 0.2179,-0.933566 0.0818,-1.925907 -0.164262,-2.844547 C 32.766046,22.523366 32.822805,21.735501 33.4375,21.375 33.311243,20.547737 32.364918,20.32076 31.927743,19.688973 31.108172,18.947775 30.295747,18.199115 29.528387,17.403387 29.308684,17.228153 29.048864,16.839983 28.84375,16.78125 c 0.09318,0.390004 -0.658196,0.359925 -0.6875,0 -0.789345,-0.495617 -1.737307,-0.608749 -2.646594,-0.670302 -1.155885,-0.063 -2.3208,0.110668 -3.415906,0.482802 -1.001549,0.39849 -1.839959,1.075861 -2.6875,1.71875 -0.8007,0.771671 -1.528921,1.661613 -1.874973,2.734301 -0.382077,0.89446 -0.500089,1.862061 -0.500027,2.823506 -0.03435,1.069409 0.461659,2.024941 0.82935,2.993559 0.368675,0.907746 -0.2764,1.766121 -0.76685,2.479884 -0.542774,-0.878724 -1.196642,-1.717772 -1.5,-2.71875 -0.408882,-1.028323 -0.501151,-2.150245 -0.5625,-3.245307 0.02996,-0.982345 0.202153,-1.968183 0.526559,-2.896869 0.318564,-0.889461 0.776862,-1.731976 1.36548,-2.471984 0.605167,-0.850886 1.392549,-1.554772 2.232961,-2.16709 0.912912,-0.531311 1.829698,-1.116496 2.875,-1.34375 0.959415,-0.316966 1.973571,-0.440701 2.980594,-0.467941 0.11053,-0.0053 0.221323,0.002 0.331906,-8.09e-4 z M 13.625,16 c -0.977737,0.497044 -1.300447,1.620479 -1.681687,2.564392 -0.35623,1.026413 -0.679613,2.075398 -0.789955,3.160422 -0.162281,1.08487 -0.12034,2.182203 -0.0074,3.269288 0.09899,1.18254 0.451262,2.322524 0.822796,3.443398 0.381425,0.958199 0.883415,1.864089 1.416556,2.744052 0.674352,1.066886 1.617739,1.919208 2.520944,2.787198 0.799665,0.718878 1.759489,1.221691 2.695877,1.735725 0.903671,0.483744 1.897226,0.762794 2.888518,1.004124 C 22.17896,36.756499 22.828484,37.308227 23.5,36.875 24.389831,36.413397 23.817894,35.160585 23,35 22.016261,34.762708 21.024393,34.525732 20.082353,34.14586 19.195047,33.79368 18.364363,33.311473 17.59375,32.75 c -0.7577,-0.657244 -1.512878,-1.323369 -2.12726,-2.121824 -0.583707,-0.738296 -1.039134,-1.561335 -1.394987,-2.431578 -0.555615,-1.221509 -0.838312,-2.551256 -0.991774,-3.878867 -0.113115,-0.995799 0.08257,-1.99343 0.218959,-2.977956 0.177638,-0.999924 0.390991,-2.02133 0.920062,-2.902275 0.37464,-0.696182 0.715666,-1.614988 0.0861,-2.277105 C 14.132093,16.00057 13.855004,15.930116 13.625,16 z m 22.71875,0.65625 c -0.980976,0.551256 -0.476805,1.861011 -0.04839,2.634731 0.492392,0.99121 0.852645,2.037019 1.204643,3.084019 0.114647,0.893823 0.424059,1.777769 0.3125,2.6875 -0.117736,0.945352 -0.117773,1.909053 -0.381034,2.835214 -0.155158,0.971976 -0.718024,1.812206 -1.118966,2.696036 -0.471445,0.955814 -1.114694,1.835438 -1.969728,2.482423 -0.759555,0.657392 -1.591427,1.243012 -2.521816,1.632107 -0.900909,0.434841 -1.87142,0.726763 -2.872807,0.790833 -0.902022,0.175857 -2.008741,-0.311698 -2.729399,0.438387 -0.495318,0.93848 0.801839,1.80324 1.651039,1.517492 C 28.917459,37.364502 29.981643,37.35176 31,37.0625 c 0.95616,-0.140236 1.834955,-0.606972 2.65965,-1.091498 1.160496,-0.718627 2.254354,-1.574053 3.11363,-2.642688 C 37.377316,32.618394 37.930415,31.854063 38.3125,31 38.883451,29.858839 39.154647,28.603321 39.46875,27.375 39.606138,26.337651 39.736975,25.297906 39.75,24.25 39.6547,23.171086 39.472431,22.107974 39.1875,21.0625 38.88617,20.006955 38.382538,19.026369 38,18 37.607945,17.438231 37.160648,16.509801 36.34375,16.65625 z M 25.125,17.0625 c 0.920417,-0.02263 1.854914,0.206411 2.660485,0.650038 0.74595,0.358993 1.707002,0.881884 1.620765,1.849962 -0.764802,0.364917 -1.126073,-0.675204 -1.75,-0.90625 -0.813074,-0.456489 -1.761589,-0.556695 -2.677822,-0.577113 -0.886703,-0.03766 -1.778338,0.190459 -2.584673,0.553673 -0.877155,0.403071 -1.6213,1.066829 -2.268755,1.77344 -0.54846,0.608462 -0.659654,1.693844 -1.613273,1.862721 -0.121865,0.03162 -0.404704,0.07565 -0.23393,-0.168402 0.08412,-0.884316 0.670264,-1.598374 1.16935,-2.292316 0.596008,-0.767083 1.398383,-1.34982 2.211574,-1.867701 0.888443,-0.525931 1.928338,-0.794247 2.94973,-0.898797 0.171714,-0.03005 0.344359,0.01943 0.516549,0.02075 z M 25.21875,19 c 0.936657,0.166455 1.875654,0.4423 2.642748,1.020449 0.484535,0.334834 0.451993,0.980461 0.138502,1.417051 -0.535157,0.839013 0.614874,1.385495 0.90625,2.0625 0.251853,0.558833 0.656837,1.035783 0.96875,1.5625 -0.324585,0.924858 -1.11557,1.574211 -1.876237,2.141553 -0.653005,0.527133 -1.477227,0.799056 -2.311263,0.827197 -0.926871,-0.01959 -1.885827,-0.11302 -2.74374,-0.484371 -0.85152,-0.307556 -1.513393,-0.989466 -2.047325,-1.69752 C 20.650579,25.398293 20.040961,24.94288 20.3125,24.375 c 0.935485,0.04041 1.662515,1.009391 2.65625,0.90625 0.404812,-0.750627 0.236142,-1.634566 0.125,-2.4375 -0.604167,0 -1.208333,0 -1.8125,0 0.635417,-1.0625 1.270833,-2.125 1.90625,-3.1875 -0.677083,0.385417 -1.354167,0.770833 -2.03125,1.15625 0.641365,-0.618112 1.365052,-1.180673 2.205973,-1.491261 C 23.968867,19.150632 24.580755,18.965458 25.21875,19 z m 6.5625,3.78125 c 0.193701,0.154718 0.161991,0.598135 0.276174,0.854698 0.106823,0.383693 0.08823,0.796834 -0.02617,1.176552 -0.730024,-0.306638 -1.139862,-1.482323 -0.34375,-1.9375 l 0.0625,-0.09375 0.03125,0 z M 18.125,23.125 c 0.821006,0.396344 1.178555,1.350605 1.125,2.21875 0.0538,0.306548 -0.139002,0.798748 -0.53125,0.625 -0.651258,-0.253814 -0.339815,-1.107522 -0.58173,-1.630407 -0.09055,-0.409905 -0.125723,-0.825509 -0.10577,-1.244593 L 18.125,23.125 z m 4.28125,5.3125 c 1.107237,0.266464 2.208557,0.685347 3.360921,0.65625 0.787961,-0.03432 1.682485,-0.120343 2.326579,0.4375 0.02267,0.53769 -0.711237,0.363714 -1.057225,0.483328 -0.98868,0.07071 -2.008062,0.18085 -2.974025,-0.108328 -0.977894,-0.234271 -2.041146,-0.430403 -2.8125,-1.125 -0.197677,-0.167036 0.272924,-0.171036 0.34375,-0.28125 0.263473,-0.07997 0.540257,-0.11833 0.8125,-0.0625 z m -2.375,0.96875 c 0.917701,0.313393 1.701526,0.96399 2.667198,1.151174 1.028985,0.37115 2.104692,0.580642 3.196769,0.63349 1.06424,0.129733 2.122451,-0.09159 3.12779,-0.414265 1.07277,-0.266347 2.022847,0.431905 2.81614,1.060049 L 31.96875,31.9375 c -0.783747,0.707836 -1.888942,0.876219 -2.875,1.15625 -0.985112,0.248955 -2.018001,0.23846 -3.025975,0.172922 -1.052786,-0.0682 -2.08493,-0.308962 -3.12141,-0.493006 -1.005636,-0.207955 -1.981495,-0.570986 -2.894903,-1.037699 -0.695897,-0.414592 -1.589937,-0.779142 -1.895212,-1.579717 0.583338,-0.258472 1.170147,-0.810429 1.875,-0.75 z"
       inkscape:connector-curvature="0"
       id="path5577"
       style="font-size:medium;font-style:normal;font-variant:normal;font-weight:normal;font-stretch:normal;text-indent:0;text-align:start;text-decoration:none;line-height:normal;letter-spacing:normal;word-spacing:normal;text-transform:none;direction:ltr;block-progression:tb;writing-mode:lr-tb;text-anchor:start;color:#000000;fill:url(#linearGradient3862);fill-opacity:1;stroke:none;stroke-width:0.99999994;marker:none;visibility:visible;display:inline;overflow:visible;enable-background:accumulate;font-family:Andale Mono;-inkscape-font-specification:Andale Mono" />
  </g>
</svg>
