<?xml version="1.0" encoding="UTF-8" standalone="no"?>
<!-- Created with Inkscape (http://www.inkscape.org/) -->

<svg
   xmlns:dc="http://purl.org/dc/elements/1.1/"
   xmlns:cc="http://creativecommons.org/ns#"
   xmlns:rdf="http://www.w3.org/1999/02/22-rdf-syntax-ns#"
   xmlns:svg="http://www.w3.org/2000/svg"
   xmlns="http://www.w3.org/2000/svg"
   xmlns:xlink="http://www.w3.org/1999/xlink"
   xmlns:inkscape="http://www.inkscape.org/namespaces/inkscape"
   version="1.1"
   width="48"
   height="48"
   id="svg3184">
  <defs
     id="defs3186">
    <linearGradient
       x1="-9.1870375"
       y1="19.330868"
       x2="-9.1870375"
       y2="38.718731"
       id="linearGradient3128"
       xlink:href="#linearGradient4661-1"
       gradientUnits="userSpaceOnUse"
       gradientTransform="translate(44.445266,0)" />
    <linearGradient
       id="linearGradient4661-1">
      <stop
         id="stop4663-7"
         style="stop-color:#000000;stop-opacity:1"
         offset="0" />
      <stop
         id="stop4665-2"
         style="stop-color:#000000;stop-opacity:0"
         offset="1" />
    </linearGradient>
    <linearGradient
       x1="-17.201757"
       y1="13.259109"
       x2="-17.201757"
       y2="18.770651"
       id="linearGradient3126"
       xlink:href="#linearGradient4661-1"
       gradientUnits="userSpaceOnUse"
       gradientTransform="translate(44.445266,0)" />
    <linearGradient
       x1="24.132597"
       y1="44.47514"
       x2="32"
       y2="26"
       id="linearGradient4023-7"
       xlink:href="#linearGradient3707-319-631-407-324-4"
       gradientUnits="userSpaceOnUse"
       gradientTransform="translate(44.445266,-0.9999998)" />
    <linearGradient
       id="linearGradient3707-319-631-407-324-4">
      <stop
         id="stop3760-5"
         style="stop-color:#185f9a;stop-opacity:1"
         offset="0" />
      <stop
         id="stop3762-2"
         style="stop-color:#599ec9;stop-opacity:1"
         offset="1" />
    </linearGradient>
    <linearGradient
       x1="71.204407"
       y1="6.2375584"
       x2="71.204407"
       y2="44.340794"
       id="linearGradient3906-0"
       xlink:href="#linearGradient4011"
       gradientUnits="userSpaceOnUse"
       gradientTransform="translate(-47.733515,-0.3572397)" />
    <linearGradient
       id="linearGradient4011">
      <stop
         id="stop4013"
         style="stop-color:#ffffff;stop-opacity:1"
         offset="0" />
      <stop
         id="stop4015"
         style="stop-color:#ffffff;stop-opacity:0.23529412"
         offset="0.507761" />
      <stop
         id="stop4017"
         style="stop-color:#ffffff;stop-opacity:0.15686275"
         offset="0.83456558" />
      <stop
         id="stop4019"
         style="stop-color:#ffffff;stop-opacity:0.39215687"
         offset="1" />
    </linearGradient>
    <radialGradient
       cx="3.9722471"
       cy="8.4497671"
       r="19.99999"
       fx="3.9722471"
       fy="8.4497671"
       id="radialGradient3909-0"
       xlink:href="#linearGradient2867-449-88-871-390-598-476-591-434-148-57-177-3-8"
       gradientUnits="userSpaceOnUse"
       gradientTransform="matrix(0,2.3767198,-2.5142859,-6.4690655e-8,45.245242,-9.412373)" />
    <linearGradient
       id="linearGradient2867-449-88-871-390-598-476-591-434-148-57-177-3-8">
      <stop
         id="stop3750-8-9"
         style="stop-color:#90dbec;stop-opacity:1"
         offset="0" />
      <stop
         id="stop3752-3-2"
         style="stop-color:#42baea;stop-opacity:1"
         offset="0.26238" />
      <stop
         id="stop3754-7-2"
         style="stop-color:#3689e6;stop-opacity:1"
         offset="0.704952" />
      <stop
         id="stop3756-9-3"
         style="stop-color:#2b63a0;stop-opacity:1"
         offset="1" />
    </linearGradient>
    <linearGradient
       x1="24"
       y1="44"
       x2="24"
       y2="3.8990016"
       id="linearGradient3911-1"
       xlink:href="#linearGradient3707-319-631-407-324-3-8"
       gradientUnits="userSpaceOnUse"
       gradientTransform="translate(2.39e-6,1.0000002)" />
    <linearGradient
       id="linearGradient3707-319-631-407-324-3-8">
      <stop
         id="stop3760-7-3"
         style="stop-color:#185f9a;stop-opacity:1"
         offset="0" />
      <stop
         id="stop3762-8-4"
         style="stop-color:#599ec9;stop-opacity:1"
         offset="1" />
    </linearGradient>
    <linearGradient
       id="linearGradient8838">
      <stop
         id="stop8840"
         style="stop-color:#000000;stop-opacity:1"
         offset="0" />
      <stop
         id="stop8842"
         style="stop-color:#000000;stop-opacity:0"
         offset="1" />
    </linearGradient>
    <radialGradient
       cx="62.625"
       cy="4.625"
       r="10.625"
       fx="62.625"
       fy="4.625"
       id="radialGradient3182"
       xlink:href="#linearGradient8838"
       gradientUnits="userSpaceOnUse"
       gradientTransform="matrix(2.1647059,0,0,0.7529402,-111.56471,36.517647)" />
  </defs>
  <metadata
     id="metadata3189">
    <rdf:RDF>
      <cc:Work
         rdf:about="">
        <dc:format>image/svg+xml</dc:format>
        <dc:type
           rdf:resource="http://purl.org/dc/dcmitype/StillImage" />
        <dc:title />
      </cc:Work>
    </rdf:RDF>
  </metadata>
  <g
     id="layer1">
    <path
       d="m 46.999997,40 c 0,4.418278 -10.297452,8 -23,8 -12.702548,0 -23.0000002,-3.581722 -23.0000002,-8 0,-4.418278 10.2974522,-8 23.0000002,-8 12.702548,0 23,3.581722 23,8 l 0,0 z"
       inkscape:connector-curvature="0"
       id="path8836"
       style="opacity:0.3;fill:url(#radialGradient3182);fill-opacity:1;fill-rule:evenodd;stroke:none;stroke-width:0.99999988;marker:none;visibility:visible;display:inline;overflow:visible" />
    <path
       d="M 24.000002,5.501809 C 13.241573,5.501809 4.5018088,14.24157 4.5018088,25 c 0,10.75843 8.7397642,19.498195 19.4981932,19.498192 10.758425,0 19.498199,-8.739762 19.498189,-19.498192 0,-10.75843 -8.739764,-19.498191 -19.498189,-19.498191 z"
       inkscape:connector-curvature="0"
       id="path2555"
       style="color:#000000;fill:url(#radialGradient3909-0);fill-opacity:1;fill-rule:nonzero;stroke:url(#linearGradient3911-1);stroke-width:1;stroke-linecap:round;stroke-linejoin:round;stroke-miterlimit:4;stroke-opacity:1;stroke-dasharray:none;stroke-dashoffset:0;marker:none;visibility:visible;display:inline;overflow:visible;enable-background:accumulate" />
    <path
       d="M 42.500002,24.999344 C 42.500002,35.216942 34.21666,43.5 24.000235,43.5 13.782875,43.5 5.5000003,35.216848 5.5000003,24.999344 c 0,-10.217125 8.2828747,-18.4993437 18.5002347,-18.4993437 10.216425,0 18.499767,8.2822187 18.499767,18.4993437 l 0,0 z"
       inkscape:connector-curvature="0"
       id="path8655"
       style="opacity:0.5;color:#000000;fill:none;stroke:url(#linearGradient3906-0);stroke-width:1;stroke-linecap:round;stroke-linejoin:round;stroke-miterlimit:4;stroke-opacity:1;stroke-dasharray:none;stroke-dashoffset:0;marker:none;visibility:visible;display:inline;overflow:visible;enable-background:accumulate" />
    <path
       d="m 27.111493,14.977205 c 0,1.643416 -1.330975,2.977204 -2.970926,2.977204 -1.639951,0 -2.970926,-1.333788 -2.970926,-2.977204 0,-1.643417 1.330975,-2.977205 2.970926,-2.977205 1.639951,0 2.970926,1.333788 2.970926,2.977205 z m 7.415019,3.165733 c -0.137411,0.02231 -0.267252,0.07662 -0.378534,0.158436 L 23.99969,19.887241 13.906059,18.279504 c -0.260921,-0.189644 -0.627763,-0.246433 -0.919311,-0.105636 -0.291549,0.140795 -0.482679,0.474505 -0.486699,0.792053 -0.0037,0.317591 0.198775,0.59148 0.486699,0.739259 l 7.909344,2.514371 -0.0541,5.772147 -2.790888,8.644815 c -0.268797,0.393649 -0.186871,0.899205 0.216311,1.161642 0.403199,0.262476 0.974971,0.182503 1.243795,-0.211191 l 4.503932,-9.331234 4.418914,9.315108 c 0.238943,0.4083 0.771577,0.550134 1.189709,0.316829 0.418132,-0.233302 0.5634,-0.753381 0.324466,-1.161684 l -2.739083,-8.682006 -0.108138,-5.434086 8.020324,-2.935639 c 0.324053,-0.22189 0.464832,-0.641962 0.324477,-1.003251 -0.140366,-0.361328 -0.526103,-0.571844 -0.91933,-0.528063 l 2.7e-5,0 z"
       inkscape:connector-curvature="0"
       id="path6668-7"
       style="color:#000000;fill:url(#linearGradient4023-7);fill-opacity:1;fill-rule:nonzero;stroke:none;marker:none;visibility:visible;display:inline;overflow:visible;enable-background:accumulate" />
    <path
       d="m 27.111493,15.977205 c 0,1.643416 -1.330975,2.977204 -2.970926,2.977204 -1.639951,0 -2.970926,-1.333788 -2.970926,-2.977204 0,-1.643417 1.330975,-2.977205 2.970926,-2.977205 1.639951,0 2.970926,1.333788 2.970926,2.977205 z m 7.415019,3.165733 c -0.137411,0.02231 -0.267252,0.07662 -0.378534,0.158436 L 23.99969,20.887241 13.906059,19.279504 c -0.260921,-0.189644 -0.627763,-0.246433 -0.919311,-0.105636 -0.291549,0.140795 -0.482679,0.474505 -0.486699,0.792053 -0.0037,0.317591 0.198775,0.59148 0.486699,0.739259 l 7.909344,2.514371 -0.0541,5.772147 -2.790888,8.644815 c -0.268797,0.393649 -0.186871,0.899205 0.216311,1.161642 0.403199,0.262476 0.974971,0.182503 1.243795,-0.211191 l 4.503932,-9.331234 4.418914,9.315108 c 0.238943,0.4083 0.771577,0.550134 1.189709,0.316829 0.418132,-0.233302 0.5634,-0.753381 0.324466,-1.161684 l -2.739083,-8.682006 -0.108138,-5.434086 8.020324,-2.935639 c 0.324053,-0.22189 0.464832,-0.641962 0.324477,-1.003251 -0.140366,-0.361328 -0.526103,-0.571844 -0.91933,-0.528063 l 2.7e-5,0 z"
       inkscape:connector-curvature="0"
       id="path6668"
       style="fill:#ffffff;fill-opacity:1;stroke:none" />
    <path
       d="m 24.125,13.5625 c -1.767172,-0.08764 -3.019092,2.058055 -2.116245,3.565998 0.755644,1.592152 3.22274,1.696452 4.133453,0.197869 1.12286,-1.54266 -0.123937,-3.82295 -2.017208,-3.763867 z"
       inkscape:connector-curvature="0"
       id="path3124"
       style="opacity:0.1;color:#000000;fill:none;stroke:url(#linearGradient3126);stroke-width:1;stroke-linecap:butt;stroke-linejoin:miter;stroke-miterlimit:4;stroke-opacity:1;stroke-dasharray:none;stroke-dashoffset:0;marker:none;visibility:visible;display:inline;overflow:visible;enable-background:accumulate" />
    <path
       d="m 13.25,19.6875 c -0.528358,0.609155 0.597737,0.661816 0.987112,0.843177 2.323244,0.748512 4.667617,1.446285 6.977709,2.226387 0.465756,0.374834 0.166053,1.054737 0.241992,1.565861 -0.03715,1.620354 0.004,3.249943 -0.08181,4.864575 -0.970907,2.989052 -1.921216,6.002721 -2.905856,8.976134 0.45057,0.669849 0.774777,-0.31824 0.951323,-0.690758 1.383816,-2.853492 2.736561,-5.724729 4.139725,-8.567171 0.328863,-0.433965 0.975181,-0.136235 1.058202,0.343678 1.429285,3.010622 2.858571,6.021245 4.287856,9.031867 0.705143,0.446542 0.593511,-0.47016 0.355713,-0.867305 -0.863052,-2.795476 -1.770143,-5.581018 -2.605713,-8.382695 -0.0239,-1.856519 -0.12387,-3.719234 -0.100712,-5.571933 0.230047,-0.529726 0.936685,-0.494829 1.388469,-0.742933 2.289498,-0.832545 4.578995,-1.665089 6.868493,-2.497634 0.34084,-0.831427 -0.565724,-0.286946 -0.971775,-0.280785 -3.305256,0.493331 -6.606868,1.046768 -9.914401,1.502569 C 20.502708,20.887589 17.067122,20.382859 13.651032,19.799378 13.524183,19.739626 13.403127,19.619713 13.25,19.6875 z"
       inkscape:connector-curvature="0"
       id="path3083"
       style="opacity:0.1;color:#000000;fill:none;stroke:url(#linearGradient3128);stroke-width:1;stroke-linecap:butt;stroke-linejoin:miter;stroke-miterlimit:4;stroke-opacity:1;stroke-dasharray:none;stroke-dashoffset:0;marker:none;visibility:visible;display:inline;overflow:visible;enable-background:accumulate" />
  </g>
</svg>
