<?xml version="1.0" encoding="UTF-8" standalone="no"?>
<!-- Created with Inkscape (http://www.inkscape.org/) -->

<svg
   xmlns:dc="http://purl.org/dc/elements/1.1/"
   xmlns:cc="http://creativecommons.org/ns#"
   xmlns:rdf="http://www.w3.org/1999/02/22-rdf-syntax-ns#"
   xmlns:svg="http://www.w3.org/2000/svg"
   xmlns="http://www.w3.org/2000/svg"
   xmlns:inkscape="http://www.inkscape.org/namespaces/inkscape"
   version="1.1"
   width="16"
   height="16"
   id="svg7384">
  <title
     id="title9167">Gnome Symbolic Icon Theme</title>
  <defs
     id="defs10" />
  <metadata
     id="metadata90">
    <rdf:RDF>
      <cc:Work
         rdf:about="">
        <dc:format>image/svg+xml</dc:format>
        <dc:type
           rdf:resource="http://purl.org/dc/dcmitype/StillImage" />
        <dc:title>Gnome Symbolic Icon Theme</dc:title>
      </cc:Work>
    </rdf:RDF>
  </metadata>
  <g
     transform="translate(-40,-688)"
     id="layer12">
    <path
       d="m 47.5,688.01 c -4.1303,0 -7.4866,3.3563 -7.4866,7.4866 0,4.1303 3.3563,7.4866 7.4866,7.4866 4.1303,0 7.4866,-3.3563 7.4866,-7.4866 0,-4.1303 -3.3563,-7.4866 -7.4866,-7.4866 z m 0,1.9732 c 3.0494,0 5.5134,2.464 5.5134,5.5134 0,3.0494 -2.464,5.5134 -5.5134,5.5134 -3.0494,0 -5.5134,-2.464 -5.5134,-5.5134 0,-3.0494 2.464,-5.5134 5.5134,-5.5134 z"
       inkscape:connector-curvature="0"
       id="path3869"
       style="text-indent:0;text-transform:none;block-progression:tb;color:#000000;fill:#bebebe" />
    <path
       d="m 50.406,692 a 0.50005,0.50005 0 0 0 -0.25,0.15625 l -2.656,2.65 -1.656,-1.65 a 0.50005,0.50005 0 1 0 -0.6875,0.6875 l 2,2 a 0.50005,0.50005 0 0 0 0.6875,0 l 3,-3 a 0.50005,0.50005 0 0 0 -0.438,-0.85 z"
       inkscape:connector-curvature="0"
       id="path4639"
       style="text-indent:0;text-transform:none;block-progression:tb;color:#000000;fill:#bebebe" />
  </g>
</svg>
