<?xml version="1.0" encoding="UTF-8" standalone="no"?>
<!-- Created with Inkscape (http://www.inkscape.org/) -->

<svg
   xmlns:dc="http://purl.org/dc/elements/1.1/"
   xmlns:cc="http://creativecommons.org/ns#"
   xmlns:rdf="http://www.w3.org/1999/02/22-rdf-syntax-ns#"
   xmlns:svg="http://www.w3.org/2000/svg"
   xmlns="http://www.w3.org/2000/svg"
   xmlns:xlink="http://www.w3.org/1999/xlink"
   xmlns:inkscape="http://www.inkscape.org/namespaces/inkscape"
   version="1.1"
   width="16"
   height="16"
   id="svg7278">
  <defs
     id="defs7280">
    <linearGradient
       id="linearGradient3810">
      <stop
         id="stop3812"
         style="stop-color:#b4cee1;stop-opacity:0"
         offset="0" />
      <stop
         id="stop3814"
         style="stop-color:#5d9fcd;stop-opacity:1"
         offset="1" />
    </linearGradient>
    <linearGradient
       id="linearGradient3454-2-5-0-3-8-8">
      <stop
         id="stop3456-4-9-38-1-9-2"
         style="stop-color:#ffffff;stop-opacity:1"
         offset="0" />
      <stop
         id="stop3458-39-80-3-5-6-3"
         style="stop-color:#ffffff;stop-opacity:0.23529412"
         offset="0.0097359" />
      <stop
         id="stop3460-7-0-2-4-4-6"
         style="stop-color:#ffffff;stop-opacity:0.15686275"
         offset="0.99001008" />
      <stop
         id="stop3462-0-9-8-7-8-8"
         style="stop-color:#ffffff;stop-opacity:0.39215687"
         offset="1" />
    </linearGradient>
    <linearGradient
       id="linearGradient6129-963-697-142-998-580-273-44-2-2-2-4">
      <stop
         id="stop2661-01-6-2-4-3"
         style="stop-color:#0a0a0a;stop-opacity:0.498"
         offset="0" />
      <stop
         id="stop2663-64-5-5-3-9"
         style="stop-color:#0a0a0a;stop-opacity:0"
         offset="1" />
    </linearGradient>
    <linearGradient
       x1="84.30883"
       y1="20.724089"
       x2="84.30883"
       y2="42.923553"
       id="linearGradient10262-3-8"
       xlink:href="#linearGradient4632-0-6-4-4-6"
       gradientUnits="userSpaceOnUse"
       gradientTransform="matrix(0.33333327,0,0,0.34148555,-17.08622,-0.60407269)" />
    <linearGradient
       id="linearGradient4632-0-6-4-4-6">
      <stop
         id="stop4634-4-4-7-5-7"
         style="stop-color:#b4cee1;stop-opacity:1"
         offset="0" />
      <stop
         id="stop4636-3-1-5-4-0"
         style="stop-color:#5d9fcd;stop-opacity:1"
         offset="1" />
    </linearGradient>
    <linearGradient
       x1="124.44785"
       y1="45.466164"
       x2="124.44785"
       y2="21.175106"
       id="linearGradient10264-3-5"
       xlink:href="#linearGradient4640-4-4-9-4-9"
       gradientUnits="userSpaceOnUse"
       gradientTransform="matrix(0.3332073,0,0,0.34194813,-35.00106,-0.65937269)" />
    <linearGradient
       id="linearGradient4640-4-4-9-4-9">
      <stop
         id="stop4642-36-1-8-1-0"
         style="stop-color:#567991;stop-opacity:1"
         offset="0" />
      <stop
         id="stop4644-9-1-3-1-9"
         style="stop-color:#7a9ab1;stop-opacity:1"
         offset="1" />
    </linearGradient>
    <linearGradient
       x1="-51.786404"
       y1="53.514328"
       x2="-51.786404"
       y2="2.0612748"
       id="linearGradient10473-4-0-6"
       xlink:href="#linearGradient3104-8-8-97-4-6-11-5-5-4-4-7"
       gradientUnits="userSpaceOnUse"
       gradientTransform="matrix(0.31070043,0,0,0.27489387,20.17717,-0.10316269)" />
    <linearGradient
       id="linearGradient3104-8-8-97-4-6-11-5-5-4-4-7">
      <stop
         id="stop3106-5-4-3-5-0-2-1-0-7-7-6"
         style="stop-color:#000000;stop-opacity:0.32173914"
         offset="0" />
      <stop
         id="stop3108-4-3-7-8-2-0-7-9-0-6-9"
         style="stop-color:#000000;stop-opacity:0.27826086"
         offset="1" />
    </linearGradient>
    <linearGradient
       x1="84.30883"
       y1="20.724089"
       x2="84.30883"
       y2="42.923553"
       id="linearGradient3016"
       xlink:href="#linearGradient4632-0-6-4-4-6"
       gradientUnits="userSpaceOnUse"
       gradientTransform="matrix(0.33333327,0,0,0.34148555,-17.08622,-0.60407269)" />
    <linearGradient
       x1="124.44785"
       y1="45.466164"
       x2="124.44785"
       y2="21.175106"
       id="linearGradient3018"
       xlink:href="#linearGradient4640-4-4-9-4-9"
       gradientUnits="userSpaceOnUse"
       gradientTransform="matrix(0.3332073,0,0,0.34194813,-35.00106,-0.65937269)" />
    <linearGradient
       x1="84.30883"
       y1="20.724089"
       x2="84.30883"
       y2="42.923553"
       id="linearGradient3022"
       xlink:href="#linearGradient4632-0-6-4-4-6"
       gradientUnits="userSpaceOnUse"
       gradientTransform="matrix(0.33333327,0,0,0.34148555,2.91378,-0.6040727)" />
    <linearGradient
       x1="124.44785"
       y1="45.466164"
       x2="124.44785"
       y2="21.175106"
       id="linearGradient3024"
       xlink:href="#linearGradient4640-4-4-9-4-9"
       gradientUnits="userSpaceOnUse"
       gradientTransform="matrix(0.3332073,0,0,0.34194813,-15.00106,-0.6593727)" />
    <linearGradient
       x1="9.5300379"
       y1="6.4292703"
       x2="9.5300379"
       y2="13.901032"
       id="linearGradient3806"
       xlink:href="#linearGradient4632-0-6-4-4-6"
       gradientUnits="userSpaceOnUse" />
  </defs>
  <metadata
     id="metadata7283">
    <rdf:RDF>
      <cc:Work
         rdf:about="">
        <dc:format>image/svg+xml</dc:format>
        <dc:type
           rdf:resource="http://purl.org/dc/dcmitype/StillImage" />
        <dc:title />
      </cc:Work>
    </rdf:RDF>
  </metadata>
  <g
     id="layer1">
    <path
       d="m 1.78125,1 c -0.4068514,0 -0.75,0.3431486 -0.75,0.75 l 0,0.21875 -0.25,0 c -0.40685138,0 -0.75,0.3431486 -0.75,0.75 l 0,3.5 c 0,0.4068514 0.34314862,0.75 0.75,0.75 l 14.5,0 c 0.406851,0 0.75,-0.3431486 0.75,-0.75 l 0,-3.5 c 0,-0.4068514 -0.343149,-0.75 -0.75,-0.75 l -6.25,0 0,-0.21875 C 9.03125,1.3431486 8.6881014,1 8.28125,1 l -6.5,0 z m 0.25,1 6,0 0,0.46875 0,0.5 0.5,0 6.5,0 0,3 -14,0 0,-3 0.5,0 0.5,0 0,-0.5 0,-0.46875 z"
       inkscape:connector-curvature="0"
       id="rect4170-91"
       style="font-size:medium;font-style:normal;font-variant:normal;font-weight:normal;font-stretch:normal;text-indent:0;text-align:start;text-decoration:none;line-height:normal;letter-spacing:normal;word-spacing:normal;text-transform:none;direction:ltr;block-progression:tb;writing-mode:lr-tb;text-anchor:start;baseline-shift:baseline;color:#000000;fill:#bebebe;fill-opacity:1;stroke:none;stroke-width:1;marker:none;visibility:visible;display:inline;overflow:visible;enable-background:accumulate;font-family:Sans;-inkscape-font-specification:Sans" />
    <path
       d="M 0.40625,5.96875 C 0.19972664,6.036411 0.05172055,6.251693 0.0625,6.46875 0.0595663,6.499908 0.0595663,6.531342 0.0625,6.5625 0.06112889,8.9756052 0,13.298049 0,14.46875 c 2.6175297e-5,0.261792 0.23820777,0.499974 0.5,0.5 1.5214827,0 9.703777,0.04882 14.96875,0.03125 0.01099,-3.7e-5 0.02028,3.7e-5 0.03125,0 0.0014,-7.73e-4 -0.0021,-0.03008 0,-0.03125 0.06123,-0.03496 0.406129,-0.218544 0.40625,-0.21875 1.32e-4,-2.25e-4 0.056,-0.102968 0.0625,-0.125 0.013,-0.04406 -0.002,-0.04888 0,-0.0625 0.004,-0.02723 0.03027,-0.04943 0.03125,-0.0625 0.002,-0.02613 -0.0012,-0.03231 0,-0.0625 0.0023,-0.06039 -0.002,-0.146817 0,-0.25 0.0041,-0.206367 -0.0037,-0.491693 0,-0.84375 0.0075,-0.704114 0.02557,-1.662054 0.03125,-2.625 0.01137,-1.9258927 0,-3.9017714 0,-4.21875 -2.6e-5,-0.2617922 -0.238208,-0.4999738 -0.5,-0.5 C 14.967879,6 1.7451122,5.969396 0.71875,5.96875 c -0.0108266,-6.8e-6 -0.14819963,0 -0.15625,0 -0.0516554,-0.00817 -0.10459463,-0.00817 -0.15625,0 z"
       inkscape:connector-curvature="0"
       id="path43"
       style="font-size:medium;font-style:normal;font-variant:normal;font-weight:normal;font-stretch:normal;text-indent:0;text-align:start;text-decoration:none;line-height:normal;letter-spacing:normal;word-spacing:normal;text-transform:none;direction:ltr;block-progression:tb;writing-mode:lr-tb;text-anchor:start;baseline-shift:baseline;color:#000000;fill:#bebebe;fill-opacity:1;fill-rule:nonzero;stroke:none;stroke-width:1;marker:none;visibility:visible;display:inline;overflow:visible;enable-background:accumulate;font-family:Sans;-inkscape-font-specification:Sans" />
  </g>
</svg>
