<?xml version="1.0" encoding="UTF-8" standalone="no"?>
<!-- Created with Inkscape (http://www.inkscape.org/) -->

<svg
   xmlns:dc="http://purl.org/dc/elements/1.1/"
   xmlns:cc="http://creativecommons.org/ns#"
   xmlns:rdf="http://www.w3.org/1999/02/22-rdf-syntax-ns#"
   xmlns:svg="http://www.w3.org/2000/svg"
   xmlns="http://www.w3.org/2000/svg"
   xmlns:inkscape="http://www.inkscape.org/namespaces/inkscape"
   version="1.1"
   width="16"
   height="16"
   id="svg7384">
  <title
     id="title9167">Gnome Symbolic Icon Theme</title>
  <defs
     id="defs11" />
  <metadata
     id="metadata90">
    <rdf:RDF>
      <cc:Work
         rdf:about="">
        <dc:format>image/svg+xml</dc:format>
        <dc:type
           rdf:resource="http://purl.org/dc/dcmitype/StillImage" />
        <dc:title>Gnome Symbolic Icon Theme</dc:title>
      </cc:Work>
    </rdf:RDF>
  </metadata>
  <g
     transform="translate(-40,-668)"
     id="layer12">
    <path
       d="m 43.5,676.99 c -1.9045,0 -3.4923,1.5748 -3.4923,3.5132 0,1.9383 1.5877,3.5132 3.4923,3.5132 1.9045,0 3.4923,-1.5748 3.4923,-3.5132 0,-1.9383 -1.5877,-3.5132 -3.4923,-3.5132 z m 0,2.0263 c 0.8569,0 1.5077,0.66373 1.5077,1.4868 0,0.82312 -0.65083,1.4868 -1.5077,1.4868 -0.8569,0 -1.5077,-0.66372 -1.5077,-1.4868 0,-0.82311 0.65083,-1.4868 1.5077,-1.4868 z"
       inkscape:connector-curvature="0"
       id="path3940"
       style="text-indent:0;text-transform:none;block-progression:tb;color:#000000;fill:#bebebe" />
    <path
       d="m 52.5,676.99 c -1.9045,0 -3.4923,1.5748 -3.4923,3.5132 0,1.9383 1.5877,3.5132 3.4923,3.5132 1.9045,0 3.4923,-1.5748 3.4923,-3.5132 0,-1.9383 -1.5877,-3.5132 -3.4923,-3.5132 z m 0,2.0263 c 0.8569,0 1.5077,0.66373 1.5077,1.4868 0,0.82312 -0.65083,1.4868 -1.5077,1.4868 -0.8569,0 -1.5077,-0.66373 -1.5077,-1.4868 0,-0.82311 0.65083,-1.4868 1.5077,-1.4868 z"
       inkscape:connector-curvature="0"
       id="path3942"
       style="text-indent:0;text-transform:none;block-progression:tb;color:#000000;fill:#bebebe" />
    <path
       d="m 43.096,668 c -1.0604,0.554 -1.4065,1.7592 -0.79429,2.7188 l 4.42,7.28 -1.7463,2.368 1.4141,2.0852 1.61,-2.4844 1.5787,2.4844 1.4011,-1.9968 -1.702,-2.46 4.42,-7.28 c 0.612,-0.96 0.266,-2.17 -0.794,-2.72 l -4.904,8 -4.904,-8 z"
       inkscape:connector-curvature="0"
       id="rect4875"
       style="fill:#bebebe" />
  </g>
</svg>
