<?xml version="1.0" encoding="UTF-8" standalone="no"?>
<!-- Created with Inkscape (http://www.inkscape.org/) -->

<svg
   xmlns:dc="http://purl.org/dc/elements/1.1/"
   xmlns:cc="http://creativecommons.org/ns#"
   xmlns:rdf="http://www.w3.org/1999/02/22-rdf-syntax-ns#"
   xmlns:svg="http://www.w3.org/2000/svg"
   xmlns="http://www.w3.org/2000/svg"
   xmlns:sodipodi="http://sodipodi.sourceforge.net/DTD/sodipodi-0.dtd"
   xmlns:inkscape="http://www.inkscape.org/namespaces/inkscape"
   version="1.1"
   width="16"
   height="16"
   id="svg3925"
   inkscape:version="0.48.4 r9939"
   sodipodi:docname="folder-symbolic.svg">
  <sodipodi:namedview
     pagecolor="#ffffff"
     bordercolor="#666666"
     borderopacity="1"
     objecttolerance="10"
     gridtolerance="10"
     guidetolerance="10"
     inkscape:pageopacity="0"
     inkscape:pageshadow="2"
     inkscape:window-width="1364"
     inkscape:window-height="700"
     id="namedview7"
     showgrid="false"
     inkscape:snap-bbox="true"
     inkscape:bbox-paths="true"
     inkscape:bbox-nodes="true"
     inkscape:snap-bbox-edge-midpoints="true"
     inkscape:snap-bbox-midpoints="true"
     showborder="false"
     inkscape:zoom="1"
     inkscape:cx="13.338892"
     inkscape:cy="5.776321"
     inkscape:window-x="0"
     inkscape:window-y="28"
     inkscape:window-maximized="1"
     inkscape:current-layer="svg3925">
    <inkscape:grid
       type="xygrid"
       id="grid2991"
       empspacing="5"
       visible="true"
       enabled="true"
       snapvisiblegridlinesonly="true" />
  </sodipodi:namedview>
  <defs
     id="defs3927" />
  <metadata
     id="metadata3930">
    <rdf:RDF>
      <cc:Work
         rdf:about="">
        <dc:format>image/svg+xml</dc:format>
        <dc:type
           rdf:resource="http://purl.org/dc/dcmitype/StillImage" />
        <dc:title></dc:title>
      </cc:Work>
    </rdf:RDF>
  </metadata>
  <g
     id="layer1">
    <path
       style="color:#bebebe;fill:#bebebe;fill-opacity:1;fill-rule:nonzero;stroke:none;stroke-width:1;marker:none;visibility:visible;display:inline;overflow:visible;enable-background:accumulate"
       d="M 2.5,2 C 2.223,2 2,2.223 2,2.5 L 2,3 1.5,3 C 1.223,3 1,3.223 1,3.5 l 0,2 C 1,5.223 1.223,5 1.5,5 l 13,0 C 14.777,5 15,5.223 15,5.5 l 0,-2 C 15,3.223 14.777,3 14.5,3 L 8,3 8,2.5 C 8,2.223 7.777,2 7.5,2 z m -1,4 C 1.223,6 1,6.223 1,6.5 l 0,7 C 1,13.777 1.223,14 1.5,14 l 7.5,0 0,-4 2,0 0,-2 4,0 0,-1.5 C 15,6.223 14.777,6 14.5,6 z"
       id="rect3058"
       inkscape:connector-curvature="0"
       sodipodi:nodetypes="sscsscsscsscssssssscccccsss" />
  </g>
  <path
     d="M 12,9.0000004 12,11 l -2,0 0,2 2,0 0,2 2,0 0,-2 2,0 0,-2 -2,0 0,-2 z"
     inkscape:connector-curvature="0"
     id="rect12294"
     style="fill:#bebebe"
     sodipodi:nodetypes="ccccccccccccc" />
</svg>
