<?xml version="1.0" encoding="UTF-8" standalone="no"?>
<!-- Created with Inkscape (http://www.inkscape.org/) -->

<svg
   xmlns:dc="http://purl.org/dc/elements/1.1/"
   xmlns:cc="http://creativecommons.org/ns#"
   xmlns:rdf="http://www.w3.org/1999/02/22-rdf-syntax-ns#"
   xmlns:svg="http://www.w3.org/2000/svg"
   xmlns="http://www.w3.org/2000/svg"
   xmlns:inkscape="http://www.inkscape.org/namespaces/inkscape"
   version="1.1"
   width="16"
   height="15.982"
   id="svg7384">
  <title
     id="title9167">Gnome Symbolic Icon Theme</title>
  <defs
     id="defs12" />
  <metadata
     id="metadata90">
    <rdf:RDF>
      <cc:Work
         rdf:about="">
        <dc:format>image/svg+xml</dc:format>
        <dc:type
           rdf:resource="http://purl.org/dc/dcmitype/StillImage" />
        <dc:title>Gnome Symbolic Icon Theme</dc:title>
      </cc:Work>
    </rdf:RDF>
  </metadata>
  <g
     transform="translate(-61,-807.04)"
     id="layer12">
    <path
       d="m 72.001,819.02 h -1.0001 c -0.25694,10e-6 -0.52852,0.10844 -0.71884,0.26103 l -1.2814,1.0702 -1.2814,-1.0702 c -0.19007,-0.15281 -0.4619,-0.26103 -0.71886,-0.26099 h -1.0001 l -10e-6,0.83531 c 0,0.25848 0.09021,0.46133 0.28133,0.62645 l 2.7415,2.5336 2.6966,-2.5336 c 0.19096,-0.16516 0.28129,-0.368 0.28129,-0.62647 v -0.83531 z"
       inkscape:connector-curvature="0"
       id="path12141"
       style="text-indent:0;text-transform:none;block-progression:tb;color:#bebebe;fill:#bebebe" />
    <path
       d="m 70.804,811.08 a 0.9359,1.0099 0 0 0 0.18513,1.9977 h 4.9368 a 0.9359,1.0099 0 1 0 0,-1.9977 h -4.9368 a 0.9359,1.0099 0 0 0 -0.18513,0 z"
       inkscape:connector-curvature="0"
       id="path12155"
       style="text-indent:0;text-transform:none;block-progression:tb;color:#000000;fill:#bebebe" />
    <path
       d="m 61.813,811.08 c -0.4499,0.10227 -0.78916,0.59895 -0.7434,1.0883 0.04581,0.4894 0.47028,0.9044 0.93022,0.90939 h 4.9161 c 0.53523,0.0854 1.0839,-0.42019 1.0839,-0.99887 0,-0.57867 -0.54865,-1.0843 -1.0839,-0.99886 h -4.9161 c -0.06211,-0.007 -0.12475,-0.007 -0.18682,0 z"
       inkscape:connector-curvature="0"
       id="path12167"
       style="text-indent:0;text-transform:none;block-progression:tb;color:#000000;fill:#bebebe" />
    <path
       d="m 67.059,808 c -0.85418,0.12953 -1.5686,0.69462 -1.9063,1.4688 -0.07101,0.16272 -0.1182,0.34541 -0.15625,0.53125 h 8.0038 c -0.0261,-0.12512 -0.05351,-0.26249 -0.09371,-0.375 -0.34646,-0.96755 -1.2693,-1.625 -2.3437,-1.625 h -3.1288 c -0.12696,0 -0.25298,-0.0185 -0.37499,0 z m -2.0625,6 c 0.23531,1.132 1.2399,2 2.4375,2 h 3.1288 c 1.1976,0 2.2022,-0.86805 2.4375,-2 z"
       inkscape:connector-curvature="0"
       id="path16654"
       style="text-indent:0;text-transform:none;block-progression:tb;color:#000000;fill:#bebebe;enable-background:new" />
  </g>
</svg>
