<?xml version="1.0" encoding="UTF-8" standalone="no"?>
<!-- Created with Inkscape (http://www.inkscape.org/) -->

<svg
   xmlns:dc="http://purl.org/dc/elements/1.1/"
   xmlns:cc="http://creativecommons.org/ns#"
   xmlns:rdf="http://www.w3.org/1999/02/22-rdf-syntax-ns#"
   xmlns:svg="http://www.w3.org/2000/svg"
   xmlns="http://www.w3.org/2000/svg"
   xmlns:inkscape="http://www.inkscape.org/namespaces/inkscape"
   version="1.1"
   width="16"
   height="16"
   id="svg7384">
  <title
     id="title9167">Gnome Symbolic Icon Theme</title>
  <defs
     id="defs10" />
  <metadata
     id="metadata90">
    <rdf:RDF>
      <cc:Work
         rdf:about="">
        <dc:format>image/svg+xml</dc:format>
        <dc:type
           rdf:resource="http://purl.org/dc/dcmitype/StillImage" />
        <dc:title>Gnome Symbolic Icon Theme</dc:title>
      </cc:Work>
    </rdf:RDF>
  </metadata>
  <g
     transform="translate(-81,-807)"
     id="layer12">
    <path
       d="m 92,819 h -0.99999 c -0.2569,10e-6 -0.52845,0.11786 -0.71876,0.28369 l -1.2812,1.1631 -1.2812,-1.1631 c -0.19,-0.16 -0.462,-0.28 -0.719,-0.28 h -0.99999 l -1e-5,0.90779 c 0,0.28091 0.09021,0.50137 0.2813,0.68082 l 2.7187,2.4113 2.7187,-2.4113 c 0.19093,-0.17949 0.28126,-0.39993 0.28126,-0.68084 v -0.90778 z"
       inkscape:connector-curvature="0"
       id="path7325"
       style="text-indent:0;text-transform:none;block-progression:tb;color:#bebebe;fill:#bebebe" />
    <path
       d="m 85,807 v 2 h 6 c 0.42816,0 1,0.61414 1,1 v 1 h -5 c -0.91927,0 -1.7356,0.38396 -2.25,0.96875 -0.5144,0.58479 -0.75639,1.3106 -0.75,2.0312 0.0064,0.72062 0.26893,1.4527 0.78125,2.0312 0.513,0.58 1.311,0.97 2.219,0.97 h 6 1 v -1 -6 c 0,-1.6343 -1.3198,-3 -3,-3 h -6 z m 2,6 h 5 v 2 h -5 c -0.39787,0 -0.56691,-0.10979 -0.71875,-0.28125 -0.152,-0.17 -0.279,-0.44 -0.281,-0.72 -0.0025,-0.27938 0.10467,-0.55354 0.25,-0.71875 0.145,-0.16 0.328,-0.28 0.75,-0.28 z"
       inkscape:connector-curvature="0"
       id="path7493"
       style="text-indent:0;text-transform:none;block-progression:tb;color:#000000;fill:#bebebe" />
  </g>
</svg>
