<?xml version="1.0" encoding="UTF-8" standalone="no"?>
<!-- Created with Inkscape (http://www.inkscape.org/) -->

<svg
   xmlns:dc="http://purl.org/dc/elements/1.1/"
   xmlns:cc="http://creativecommons.org/ns#"
   xmlns:rdf="http://www.w3.org/1999/02/22-rdf-syntax-ns#"
   xmlns:svg="http://www.w3.org/2000/svg"
   xmlns="http://www.w3.org/2000/svg"
   xmlns:inkscape="http://www.inkscape.org/namespaces/inkscape"
   version="1.1"
   width="16"
   height="16"
   id="svg7384">
  <title
     id="title9167">Gnome Symbolic Icon Theme</title>
  <defs
     id="defs9" />
  <metadata
     id="metadata90">
    <rdf:RDF>
      <cc:Work
         rdf:about="">
        <dc:format>image/svg+xml</dc:format>
        <dc:type
           rdf:resource="http://purl.org/dc/dcmitype/StillImage" />
        <dc:title>Gnome Symbolic Icon Theme</dc:title>
      </cc:Work>
    </rdf:RDF>
  </metadata>
  <g
     transform="translate(-221,-767)"
     id="layer12">
    <path
       d="m 229,767 c -2.7614,0 -5,2.2386 -5,5 0,0.34518 0.0272,0.67451 0.0937,1 0.37506,2.8396 3.9326,4.9259 4.9375,8.9688 0.98541,-3.9854 4.9978,-6.918 5,-9.9688 H 234 c 0,-2.7614 -2.2386,-5 -5,-5 z m 0,2 c 1.6569,0 3,1.3431 3,3 0,1.6569 -1.3431,3 -3,3 -1.6569,0 -3,-1.3431 -3,-3 0,-1.6569 1.3431,-3 3,-3 z"
       inkscape:connector-curvature="0"
       id="path45579"
       style="color:#000000;fill:#bebebe;enable-background:new" />
  </g>
</svg>
