<?xml version="1.0" encoding="UTF-8" standalone="no"?>
<!-- Created with Inkscape (http://www.inkscape.org/) -->

<svg
   xmlns:dc="http://purl.org/dc/elements/1.1/"
   xmlns:cc="http://creativecommons.org/ns#"
   xmlns:rdf="http://www.w3.org/1999/02/22-rdf-syntax-ns#"
   xmlns:svg="http://www.w3.org/2000/svg"
   xmlns="http://www.w3.org/2000/svg"
   xmlns:inkscape="http://www.inkscape.org/namespaces/inkscape"
   version="1.1"
   width="16"
   height="16"
   id="svg7384">
  <title
     id="title9167">Gnome Symbolic Icon Theme</title>
  <defs
     id="defs11" />
  <metadata
     id="metadata90">
    <rdf:RDF>
      <cc:Work
         rdf:about="">
        <dc:format>image/svg+xml</dc:format>
        <dc:type
           rdf:resource="http://purl.org/dc/dcmitype/StillImage" />
        <dc:title>Gnome Symbolic Icon Theme</dc:title>
      </cc:Work>
    </rdf:RDF>
  </metadata>
  <g
     transform="translate(-241,-667)"
     id="layer12">
    <path
       d="m 244,674 v 2 h 10 v -2 h -10 z"
       inkscape:connector-curvature="0"
       id="path15405"
       style="text-indent:0;text-transform:none;block-progression:tb;color:#000000;fill:#bebebe" />
    <path
       d="m 251,671 v 1 c 0,0.25689 0.12983,0.52846 0.3125,0.71875 l 2.2812,2.2812 -2.2812,2.2812 C 251.12983,677.47144 251,677.74301 251,677.9999 v 1 h 1 c 0.30945,0 0.55232,-0.0903 0.75,-0.28125 l 3.66,-3.72 -3.66,-3.72 c -0.2,-0.19 -0.44,-0.28 -0.75,-0.28 z"
       inkscape:connector-curvature="0"
       id="rect3217-6-2-2-4-85-5"
       style="text-indent:0;text-transform:none;block-progression:tb;color:#bebebe;fill:#bebebe" />
    <path
       d="m 247,671 v 1 c 0,0.25689 -0.12983,0.52846 -0.3125,0.71875 l -2.28,2.28 2.2812,2.2812 c 0.18267,0.19029 0.3125,0.46186 0.3125,0.71875 v 1 h -1 c -0.30945,0 -0.55232,-0.0903 -0.75,-0.28125 l -3.66,-3.72 3.66,-3.72 c 0.2,-0.19 0.44,-0.28 0.75,-0.28 z"
       inkscape:connector-curvature="0"
       id="rect3217-6-2-2-4-85-5-2"
       style="text-indent:0;text-transform:none;block-progression:tb;color:#bebebe;fill:#bebebe" />
  </g>
</svg>
