<?xml version="1.0" encoding="UTF-8" standalone="no"?>
<!-- Created with Inkscape (http://www.inkscape.org/) -->

<svg
   xmlns:dc="http://purl.org/dc/elements/1.1/"
   xmlns:cc="http://creativecommons.org/ns#"
   xmlns:rdf="http://www.w3.org/1999/02/22-rdf-syntax-ns#"
   xmlns:svg="http://www.w3.org/2000/svg"
   xmlns="http://www.w3.org/2000/svg"
   xmlns:sodipodi="http://sodipodi.sourceforge.net/DTD/sodipodi-0.dtd"
   xmlns:inkscape="http://www.inkscape.org/namespaces/inkscape"
   version="1.1"
   width="16"
   height="16"
   id="svg3495"
   inkscape:version="0.48.4 r9939"
   sodipodi:docname="object-rotate-left-symbolic.svg">
  <sodipodi:namedview
     pagecolor="#ffffff"
     bordercolor="#666666"
     borderopacity="1"
     objecttolerance="10"
     gridtolerance="10"
     guidetolerance="10"
     inkscape:pageopacity="0"
     inkscape:pageshadow="2"
     inkscape:window-width="1440"
     inkscape:window-height="845"
     id="namedview9"
     showgrid="true"
     inkscape:zoom="39.6875"
     inkscape:cx="8"
     inkscape:cy="8"
     inkscape:window-x="0"
     inkscape:window-y="30"
     inkscape:window-maximized="1"
     inkscape:current-layer="svg3495">
    <inkscape:grid
       type="xygrid"
       id="grid2986" />
  </sodipodi:namedview>
  <defs
     id="defs3497" />
  <metadata
     id="metadata3500">
    <rdf:RDF>
      <cc:Work
         rdf:about="">
        <dc:format>image/svg+xml</dc:format>
        <dc:type
           rdf:resource="http://purl.org/dc/dcmitype/StillImage" />
        <dc:title />
      </cc:Work>
    </rdf:RDF>
  </metadata>
  <path
     style="opacity:1;color:#bebebe;fill:#bebebe;fill-opacity:1;fill-rule:nonzero;stroke:none;stroke-width:1;marker:none;visibility:visible;display:inline;overflow:visible;enable-background:accumulate"
     d="M 8 1 C 5.809513 1 3.8752902 2.0210804 2.59375 3.59375 L 1 2 L 1 7 L 6 7 L 4.03125 5.03125 C 4.933595 3.8077551 6.3613841 3 8 3 C 10.761424 3 13 5.2385763 13 8 C 13 10.761424 10.761424 13 8 13 C 6.0711082 13 4.4276713 11.880993 3.59375 10.28125 L 1.71875 11.0625 C 2.85543 13.391856 5.2336247 15 8 15 C 11.865993 15 15 11.865993 15 8 C 15 4.1340068 11.865993 1 8 1 z "
     id="path2988" />
  <path
     sodipodi:type="arc"
     style="color:#bebebe;fill:#bebebe;fill-opacity:1;fill-rule:nonzero;stroke:none;stroke-width:1;marker:none;visibility:visible;display:inline;overflow:visible;enable-background:accumulate"
     id="path3779"
     sodipodi:cx="8"
     sodipodi:cy="8"
     sodipodi:rx="2"
     sodipodi:ry="2"
     d="M 10,8 A 2,2 0 1 1 6,8 2,2 0 1 1 10,8 z"
     transform="matrix(0.75,0,0,0.75,2,2)" />
</svg>
