<?xml version="1.0" encoding="UTF-8" standalone="no"?>
<!-- Created with Inkscape (http://www.inkscape.org/) -->

<svg
   xmlns:dc="http://purl.org/dc/elements/1.1/"
   xmlns:cc="http://creativecommons.org/ns#"
   xmlns:rdf="http://www.w3.org/1999/02/22-rdf-syntax-ns#"
   xmlns:svg="http://www.w3.org/2000/svg"
   xmlns="http://www.w3.org/2000/svg"
   version="1.1"
   width="16"
   height="16"
   id="svg3495">
  <defs
     id="defs3497" />
  <metadata
     id="metadata3500">
    <rdf:RDF>
      <cc:Work
         rdf:about="">
        <dc:format>image/svg+xml</dc:format>
        <dc:type
           rdf:resource="http://purl.org/dc/dcmitype/StillImage" />
        <dc:title></dc:title>
      </cc:Work>
    </rdf:RDF>
  </metadata>
  <path
     d="M 8,1 C 4.134007,1 1,4.1340068 1,8 c 0,3.865993 3.134007,7 7,7 2.766375,0 5.14457,-1.608144 6.28125,-3.9375 l -1.875,-0.78125 C 11.572329,11.880993 9.9288918,13 8,13 5.238576,13 3,10.761424 3,8 3,5.2385763 5.238576,3 8,3 9.6386159,3 11.066405,3.8077551 11.96875,5.03125 L 10,7 15,7 15,2 13.40625,3.59375 C 12.12471,2.0210804 10.190487,1 8,1 z M 8,6.5 C 7.1715729,6.5 6.5,7.1715729 6.5,8 6.5,8.8284271 7.1715729,9.5 8,9.5 8.8284271,9.5 9.5,8.8284271 9.5,8 9.5,7.1715729 8.8284271,6.5 8,6.5 z"
     id="path2988"
     style="color:#bebebe;fill:#bebebe;fill-opacity:1;fill-rule:nonzero;stroke:none;stroke-width:1;marker:none;visibility:visible;display:inline;overflow:visible;enable-background:accumulate" />
</svg>
