<?xml version="1.0" encoding="UTF-8" standalone="no"?>
<!-- Created with Inkscape (http://www.inkscape.org/) -->

<svg
   xmlns:dc="http://purl.org/dc/elements/1.1/"
   xmlns:cc="http://creativecommons.org/ns#"
   xmlns:rdf="http://www.w3.org/1999/02/22-rdf-syntax-ns#"
   xmlns:svg="http://www.w3.org/2000/svg"
   xmlns="http://www.w3.org/2000/svg"
   xmlns:inkscape="http://www.inkscape.org/namespaces/inkscape"
   version="1.1"
   width="16"
   height="16"
   id="svg3808">
  <defs
     id="defs3810" />
  <metadata
     id="metadata3813">
    <rdf:RDF>
      <cc:Work
         rdf:about="">
        <dc:format>image/svg+xml</dc:format>
        <dc:type
           rdf:resource="http://purl.org/dc/dcmitype/StillImage" />
        <dc:title />
      </cc:Work>
    </rdf:RDF>
  </metadata>
  <g
     id="layer1">
    <path
       d="m 1,8 2.625,2.59375 -2,2 C 1.60998,12.60877 1.607846,12.60943 1.59375,12.625 1.1497304,13.115672 1.1518649,13.870614 1.625,14.34375 c 0.4729002,0.4729 1.228059,0.505848 1.71875,0.0625 l 0.25,-0.25 L 5.40625,12.375 8,15 8,8 z"
       inkscape:connector-curvature="0"
       id="path3872"
       style="color:#bebebe;fill:#bebebe;fill-opacity:1;fill-rule:nonzero;stroke:none;stroke-width:1;marker:none;visibility:visible;display:inline;overflow:visible;enable-background:accumulate" />
    <path
       d="m 8,1 0,7 7,0 -2.625,-2.625 2,-2 C 14.39002,3.35998 14.39215,3.35932 14.40625,3.34375 14.850267,2.8530771 14.848135,2.0981352 14.375,1.625 13.902099,1.1520995 13.11569,1.1191556 12.625,1.5625 l -0.21875,0.25 -1.8125,1.8125 z"
       inkscape:connector-curvature="0"
       id="path3288-51-5"
       style="color:#bebebe;fill:#bebebe;fill-opacity:1;fill-rule:nonzero;stroke:none;stroke-width:1;marker:none;visibility:visible;display:inline;overflow:visible;enable-background:accumulate" />
  </g>
</svg>
