<svg height="16" width="16" xmlns="http://www.w3.org/2000/svg"><path style="fill:#555761;fill-opacity:1;stroke-width:4;stroke-linecap:round;stroke-linejoin:round;-inkscape-stroke:none" d="M9.563 2a.716.716 0 0 0-.506 1.225l1.16 1.148-1.992 1.992a.748.748 0 0 0 0 1.06l.353.354a.748.748 0 0 0 1.06 0l2-2 1.118 1.106A.73.73 0 0 0 14 6.367V2.752A.753.753 0 0 0 13.25 2H9.562zM6.896 8a.75.75 0 0 0-.53.22l-2 2-1.118-1.105a.73.73 0 0 0-1.244.518v3.615c0 .414.336.75.75.752H6.44a.716.716 0 0 0 .506-1.225l-1.16-1.148L7.78 9.635a.748.748 0 0 0 0-1.06l-.353-.354A.746.746 0 0 0 6.896 8z"/></svg>