<?xml version="1.0" encoding="UTF-8" standalone="no"?>
<!-- Created with Inkscape (http://www.inkscape.org/) -->

<svg
   xmlns:dc="http://purl.org/dc/elements/1.1/"
   xmlns:cc="http://creativecommons.org/ns#"
   xmlns:rdf="http://www.w3.org/1999/02/22-rdf-syntax-ns#"
   xmlns:svg="http://www.w3.org/2000/svg"
   xmlns="http://www.w3.org/2000/svg"
   xmlns:sodipodi="http://sodipodi.sourceforge.net/DTD/sodipodi-0.dtd"
   xmlns:inkscape="http://www.inkscape.org/namespaces/inkscape"
   version="1.1"
   width="16"
   height="16"
   id="svg3808"
   inkscape:version="0.48.4 r9939"
   sodipodi:docname="window-restore-symbolic-rtl.svg">
  <sodipodi:namedview
     pagecolor="#ffffff"
     bordercolor="#666666"
     borderopacity="1"
     objecttolerance="10"
     gridtolerance="10"
     guidetolerance="10"
     inkscape:pageopacity="0"
     inkscape:pageshadow="2"
     inkscape:window-width="640"
     inkscape:window-height="480"
     id="namedview7"
     showgrid="false"
     inkscape:zoom="14.75"
     inkscape:cx="8"
     inkscape:cy="8"
     inkscape:window-x="0"
     inkscape:window-y="30"
     inkscape:window-maximized="0"
     inkscape:current-layer="svg3808" />
  <defs
     id="defs3810" />
  <metadata
     id="metadata3813">
    <rdf:RDF>
      <cc:Work
         rdf:about="">
        <dc:format>image/svg+xml</dc:format>
        <dc:type
           rdf:resource="http://purl.org/dc/dcmitype/StillImage" />
        <dc:title />
      </cc:Work>
    </rdf:RDF>
  </metadata>
  <path
     style="color:#bebebe;fill:#bebebe;fill-opacity:1;fill-rule:nonzero;stroke:none;stroke-width:1;marker:none;visibility:visible;display:inline;overflow:visible;enable-background:accumulate"
     d="M 8,2 8,8 2,8 4.25,5.78125 2.53125,4.0625 C 2.518376,4.04963 2.512082,4.0446 2.5,4.03125 2.119412,3.610674 2.125706,2.968045 2.53125,2.5625 2.936593,2.157157 3.579407,2.119986 4,2.5 L 4.21875,2.71875 5.78125,4.25 8,2 z m 0,6 6,0 -2.25,2.25 1.71875,1.71875 C 13.48162,11.98162 13.48791,11.98665 13.5,12 c 0.380585,0.420572 0.374298,1.063205 -0.03125,1.46875 -0.405344,0.405343 -1.079408,0.442511 -1.5,0.0625 L 11.78125,13.3125 10.21875,11.75 8,14 8,8 z"
     id="path2987"
     inkscape:connector-curvature="0" />
</svg>
