<?xml version="1.0" encoding="UTF-8" standalone="no"?>
<!-- Created with Inkscape (http://www.inkscape.org/) -->

<svg
   xmlns:dc="http://purl.org/dc/elements/1.1/"
   xmlns:cc="http://creativecommons.org/ns#"
   xmlns:rdf="http://www.w3.org/1999/02/22-rdf-syntax-ns#"
   xmlns:svg="http://www.w3.org/2000/svg"
   xmlns="http://www.w3.org/2000/svg"
   xmlns:inkscape="http://www.inkscape.org/namespaces/inkscape"
   version="1.1"
   width="16"
   height="16"
   id="svg3808">
  <defs
     id="defs3810" />
  <metadata
     id="metadata3813">
    <rdf:RDF>
      <cc:Work
         rdf:about="">
        <dc:format>image/svg+xml</dc:format>
        <dc:type
           rdf:resource="http://purl.org/dc/dcmitype/StillImage" />
        <dc:title />
      </cc:Work>
    </rdf:RDF>
  </metadata>
  <path
     d="M 14,8 11.75,5.776786 13.464286,4.0625 C 13.47716,4.04963 13.47899,4.04906 13.491072,4.03571 13.87166,3.615134 13.86983,2.968041 13.464286,2.562496 13.058943,2.157153 12.411664,2.128912 11.991071,2.508926 L 11.776786,2.723214 10.223214,4.25 8,2 8,8 z"
     inkscape:connector-curvature="0"
     id="path2987"
     style="color:#bebebe;fill:#bebebe;fill-opacity:1;fill-rule:nonzero;stroke:none;stroke-width:1;marker:none;visibility:visible;display:inline;overflow:visible;enable-background:accumulate" />
  <path
     d="M 8,14 8,8 2,8 4.25,10.25 2.535714,11.964286 c -0.01287,0.01287 -0.0147,0.01344 -0.02679,0.02679 -0.380585,0.420572 -0.378758,1.067665 0.02679,1.47321 0.405344,0.405343 1.079408,0.433581 1.5,0.05357 L 4.223214,13.303571 5.776786,11.75 z"
     inkscape:connector-curvature="0"
     id="path3288-51-5"
     style="color:#bebebe;fill:#bebebe;fill-opacity:1;fill-rule:nonzero;stroke:none;stroke-width:1;marker:none;visibility:visible;display:inline;overflow:visible;enable-background:accumulate" />
</svg>
