<?xml version="1.0" encoding="UTF-8" standalone="no"?>
<svg
   xmlns:dc="http://purl.org/dc/elements/1.1/"
   xmlns:cc="http://creativecommons.org/ns#"
   xmlns:rdf="http://www.w3.org/1999/02/22-rdf-syntax-ns#"
   xmlns:svg="http://www.w3.org/2000/svg"
   xmlns="http://www.w3.org/2000/svg"
   xmlns:sodipodi="http://sodipodi.sourceforge.net/DTD/sodipodi-0.dtd"
   xmlns:inkscape="http://www.inkscape.org/namespaces/inkscape"
   id="svg4362"
   height="48"
   width="48"
   version="1.1"
   inkscape:version="0.91 r13725"
   sodipodi:docname="bugs.svg">
  <sodipodi:namedview
     pagecolor="#ffffff"
     bordercolor="#666666"
     borderopacity="1"
     objecttolerance="10"
     gridtolerance="10"
     guidetolerance="10"
     inkscape:pageopacity="0"
     inkscape:pageshadow="2"
     inkscape:window-width="3200"
     inkscape:window-height="1674"
     id="namedview21"
     showgrid="false"
     inkscape:zoom="2"
     inkscape:cx="24"
     inkscape:cy="24"
     inkscape:window-x="0"
     inkscape:window-y="60"
     inkscape:window-maximized="1"
     inkscape:current-layer="svg4362" />
  <defs
     id="defs4364" />
  <metadata
     id="metadata4367">
    <rdf:RDF>
      <cc:Work
         rdf:about="">
        <dc:format>image/svg+xml</dc:format>
        <dc:type
           rdf:resource="http://purl.org/dc/dcmitype/StillImage" />
        <dc:title />
      </cc:Work>
    </rdf:RDF>
  </metadata>
  <rect
     width="39"
     height="39"
     rx="2"
     ry="2"
     x="4.5000081"
     y="5.5"
     id="rect5505-21"
     style="color:#000000;display:inline;overflow:visible;visibility:visible;fill:#919baf;fill-opacity:0.2;fill-rule:nonzero;stroke:#68758e;stroke-width:1;stroke-linecap:round;stroke-linejoin:round;stroke-miterlimit:4;stroke-dasharray:none;stroke-dashoffset:0;stroke-opacity:1;marker:none;enable-background:accumulate" />
  <path
     style="color:#000000;display:inline;overflow:visible;visibility:visible;fill:#919baf;fill-opacity:0.77777779;fill-rule:nonzero;stroke:#68758e;stroke-width:1;stroke-linecap:round;stroke-linejoin:round;stroke-miterlimit:4;stroke-dasharray:none;stroke-dashoffset:0;stroke-opacity:1;marker:none;enable-background:accumulate"
     d="M 24 8.5 C 21.872992 8.5 20.007528 9.3846604 18.943359 10.716797 C 16.707379 11.976021 14.916151 14.037078 13.90625 16.558594 C 15.800431 18.236085 19.604958 19.375 24 19.375 C 28.395042 19.375 32.199569 18.236085 34.09375 16.558594 C 33.083849 14.037078 31.292621 11.976021 29.056641 10.716797 C 27.992472 9.3846604 26.12701 8.5 24 8.5 z M 24 19.5 C 23.922785 19.5 23.848193 19.509693 23.771484 19.511719 L 23.875 20.15625 C 20.864065 24.417881 18.482135 30.197648 16.896484 34.677734 C 18.413602 36.983125 21.02222 38.5 24 38.5 C 26.971762 38.5 29.575291 36.98895 31.09375 34.691406 C 29.508167 30.209489 27.125366 24.422273 24.111328 20.15625 L 24.214844 19.509766 C 24.142716 19.507975 24.072574 19.5 24 19.5 z "
     id="rect4659" />
  <path
     style="fill:#919baf;fill-opacity:0.33625731;stroke:#68758e;stroke-width:1px;stroke-linecap:butt;stroke-linejoin:miter;stroke-opacity:1"
     d="M 13.78125 16.15625 C 10.163497 18.420683 6.8125 22.041212 6.8125 27.71875 C 6.8125 39.852144 14.75 41.4375 14.75 41.4375 C 14.75 41.4375 18.273564 28.084436 23.875 20.15625 L 23.75 19.375 C 19.348714 19.32678 15.586805 18.02256 13.78125 16.15625 z M 34.205078 16.15625 C 32.399523 18.02256 28.637614 19.32678 24.236328 19.375 L 24.111328 20.15625 C 29.712764 28.084436 33.236328 41.4375 33.236328 41.4375 C 33.236328 41.4375 41.173828 39.852144 41.173828 27.71875 C 41.173828 22.041212 37.822831 18.420683 34.205078 16.15625 z "
     id="path3899" />
  <path
     d="M 14.000001,27.5 A 1.4999999,1.4999999 0 1 0 17,27.5 a 1.4999999,1.4999999 0 1 0 -2.999999,0 z"
     id="path4178-0"
     style="fill:#68758e;stroke:none;fill-opacity:1" />
  <path
     d="m 12,22 a 0.99999998,0.99999998 0 1 0 2,0 0.99999998,0.99999998 0 1 0 -2,0 z"
     id="path4178-6-4"
     style="fill:#68758e;stroke:none;fill-opacity:1" />
  <path
     d="m 11,33 a 0.99999998,0.99999998 0 1 0 2,0 0.99999998,0.99999998 0 1 0 -2,0 z"
     id="path4178-6-9-8"
     style="fill:#68758e;stroke:none;fill-opacity:1" />
  <path
     d="m 33.986999,27.5 a 1.4999999,1.4999999 0 1 1 -2.999999,0 1.4999999,1.4999999 0 1 1 2.999999,0 z"
     id="path4178-0-4"
     style="fill:#68758e;stroke:none;fill-opacity:1" />
  <path
     d="m 35.987,22 a 0.99999998,0.99999998 0 1 1 -2,0 0.99999998,0.99999998 0 1 1 2,0 z"
     id="path4178-6-4-8"
     style="fill:#68758e;stroke:none;fill-opacity:1" />
  <path
     d="m 36.987,33 a 0.99999998,0.99999998 0 1 1 -2,0 0.99999998,0.99999998 0 1 1 2,0 z"
     id="path4178-6-9-8-6"
     style="fill:#68758e;stroke:none;fill-opacity:1" />
  <path
     d="m 21.000001,8 a 1.0000007,1.0000007 0 0 1 -2.000002,0 1.0000007,1.0000007 0 1 1 2.000002,0 z"
     id="path5155"
     style="color:#000000;display:inline;overflow:visible;visibility:visible;fill:#68758e;fill-opacity:1;stroke:none;stroke-width:1.72351885px;marker:none;enable-background:accumulate" />
  <path
     d="m 29.000001,8 a 1.0000007,1.0000007 0 0 1 -2.000002,0 1.0000007,1.0000007 0 1 1 2.000002,0 z"
     id="path5155-5"
     style="color:#000000;display:inline;overflow:visible;visibility:visible;fill:#68758e;fill-opacity:1;stroke:none;stroke-width:1.72351885px;marker:none;enable-background:accumulate" />
  <path
     d="m 43.119208,43.351829 c 0,0 -3.051347,-2.362333 -5.676769,-4.781417 M 4.4503769,28.220548 c 0,0 0.9214241,0.982852 2.4904081,2.178314 M 4.450377,17.836334 c 0,0 1.3845616,0.494487 5.1426577,-0.692281 M 4.3514796,12.59478 c 0,0 3.1164755,2.883903 6.7655234,5.525504 M 34.119556,5.375279 c 0,0 3.065815,5.241555 9.296343,6.823911"
     id="path5183"
     style="color:#000000;display:inline;overflow:visible;visibility:visible;opacity:0.3;fill:none;fill-opacity:1;fill-rule:nonzero;stroke:#68758e;stroke-width:1;stroke-linecap:round;stroke-linejoin:round;stroke-miterlimit:4;stroke-dasharray:none;stroke-dashoffset:0;stroke-opacity:1;marker:none;enable-background:accumulate" />
</svg>
