<svg xmlns="http://www.w3.org/2000/svg" height="32" width="32"><path d="M16 0C7.163 0 0 7.163 0 16v15.985h3.714V16C3.714 9.215 9.215 3.714 16 3.714c6.785 0 12.286 5.501 12.286 12.286 0 6.594-5.197 11.974-11.717 12.271-2.072-.017-3.838-.353-4.612-.83v-5.28a7.345 7.345 0 0 0 11.364-6.148 7.347 7.347 0 0 0-7.345-7.347 7.347 7.347 0 0 0-7.345 7.347v15.972h6.699c.222.01.445.015.67.015 8.837 0 16-7.163 16-16S24.837 0 16 0zm-.515 28.273h1.056c-.18.008-.36.013-.541.013-.172 0-.345-.006-.515-.013z"/></svg>