<svg width="32" height="32" xmlns:xlink="http://www.w3.org/1999/xlink" xmlns="http://www.w3.org/2000/svg"><defs><linearGradient x1="24" y1="6.24" x2="24" y2="41.76" id="m" xlink:href="#a" gradientUnits="userSpaceOnUse" gradientTransform="translate(-.216 -.216) scale(.67568)"/><linearGradient id="a"><stop style="stop-color:#fff;stop-opacity:1" offset="0"/><stop style="stop-color:#fff;stop-opacity:.23529412" offset=".042"/><stop style="stop-color:#fff;stop-opacity:.15686275" offset=".958"/><stop style="stop-color:#fff;stop-opacity:.39215687" offset="1"/></linearGradient><linearGradient id="g"><stop style="stop-color:#181818;stop-opacity:1" offset="0"/><stop style="stop-color:#181818;stop-opacity:0" offset="1"/></linearGradient><linearGradient id="h"><stop style="stop-color:#181818;stop-opacity:1" offset="0"/><stop style="stop-color:#181818;stop-opacity:0" offset="1"/></linearGradient><linearGradient x1="25.058" y1="47.028" x2="25.058" y2="39.999" id="k" xlink:href="#b" gradientUnits="userSpaceOnUse"/><linearGradient id="b"><stop style="stop-color:#181818;stop-opacity:0" offset="0"/><stop style="stop-color:#181818;stop-opacity:1" offset=".5"/><stop style="stop-color:#181818;stop-opacity:0" offset="1"/></linearGradient><linearGradient id="e"><stop offset="0" style="stop-color:#64baff;stop-opacity:1"/><stop offset="1" style="stop-color:#3689e6;stop-opacity:1"/></linearGradient><linearGradient id="c"><stop offset="0" style="stop-color:#fff;stop-opacity:1"/><stop offset="1" style="stop-color:#fafafa;stop-opacity:1"/></linearGradient><linearGradient xlink:href="#c" id="o" gradientUnits="userSpaceOnUse" gradientTransform="matrix(.54545 0 0 .55556 -4.636 -2.111)" x1="30" y1="20" x2="30" y2="29"/><linearGradient id="f"><stop offset="0" style="stop-color:#fff;stop-opacity:1"/><stop offset=".042" style="stop-color:#fff;stop-opacity:.23529412"/><stop offset=".951" style="stop-color:#fff;stop-opacity:.15686275"/><stop offset="1" style="stop-color:#fff;stop-opacity:.39215687"/></linearGradient><linearGradient id="d"><stop style="stop-color:#4d4d4d;stop-opacity:1" offset="0"/><stop style="stop-color:#333;stop-opacity:1" offset="1"/></linearGradient><linearGradient xlink:href="#d" id="l" gradientUnits="userSpaceOnUse" gradientTransform="translate(38 -4)" x1="-23.798" y1="6.532" x2="-23.798" y2="33.868"/><linearGradient xlink:href="#e" id="n" gradientUnits="userSpaceOnUse" gradientTransform="matrix(.5926 0 0 .73684 1.778 -2.21)" x1="24" y1="12.5" x2="24" y2="31.5"/><linearGradient xlink:href="#f" id="q" gradientUnits="userSpaceOnUse" gradientTransform="matrix(.65676 0 0 .74404 .238 -1.754)" x1="24" y1="12.951" x2="24" y2="29.396"/><linearGradient xlink:href="#c" id="p" gradientUnits="userSpaceOnUse" gradientTransform="matrix(.54545 0 0 .55556 3.364 1.889)" x1="30" y1="20" x2="30" y2="29"/><radialGradient cx="4.993" cy="43.5" r="2.5" fx="4.993" fy="43.5" id="i" xlink:href="#g" gradientUnits="userSpaceOnUse" gradientTransform="matrix(2.00378 0 0 1.4 27.988 -17.4)"/><radialGradient cx="4.993" cy="43.5" r="2.5" fx="4.993" fy="43.5" id="j" xlink:href="#h" gradientUnits="userSpaceOnUse" gradientTransform="matrix(2.00378 0 0 1.4 -20.012 -104.4)"/></defs><g style="display:inline"><g style="opacity:.4"><path style="fill:url(#i);fill-opacity:1;stroke:none" d="M38 40h5v7h-5z" transform="matrix(.73684 0 0 .42857 -1.684 10.857)"/><path style="fill:url(#j);fill-opacity:1;stroke:none" transform="matrix(-.73684 0 0 -.42857 -1.684 10.857)" d="M-10-47h5v7h-5z"/><path style="fill:url(#k);fill-opacity:1;stroke:none" d="M10 40h28v7H10z" transform="matrix(.73684 0 0 .42857 -1.684 10.857)"/></g></g><rect style="color:#000;display:inline;overflow:visible;visibility:visible;opacity:1;fill:url(#l);fill-opacity:1;fill-rule:nonzero;stroke:#000;stroke-width:1;stroke-opacity:.5;marker:none;enable-background:accumulate;font-variation-settings:normal;vector-effect:none;stroke-linecap:butt;stroke-linejoin:miter;stroke-miterlimit:4;stroke-dasharray:none;stroke-dashoffset:0;-inkscape-stroke:none;stop-color:#000;stop-opacity:1" y="2.5" x="2.5" ry="3" rx="3" height="27" width="27"/><rect style="opacity:.2;fill:none;stroke:url(#m);stroke-width:1;stroke-linecap:round;stroke-linejoin:round;stroke-miterlimit:4;stroke-dasharray:none;stroke-dashoffset:0;stroke-opacity:1" y="3.5" x="3.5" ry="2" rx="2" height="25" width="25"/><rect style="opacity:.3;vector-effect:none;fill:none;fill-opacity:1;stroke:#000;stroke-width:.999999;stroke-linecap:round;stroke-linejoin:round;stroke-miterlimit:4;stroke-dasharray:none;stroke-dashoffset:0;stroke-opacity:1;marker:none" width="4" height="4" x="7.5" y="23.5" rx="1" ry="1"/><rect style="opacity:.3;vector-effect:none;fill:#fafafa;fill-opacity:1;stroke:none;stroke-width:1;stroke-linecap:round;stroke-linejoin:round;stroke-miterlimit:4;stroke-dasharray:none;stroke-dashoffset:0;stroke-opacity:1;marker:none" width="3" height="3" x="8" y="24" rx=".5" ry=".5"/><rect style="opacity:.3;vector-effect:none;fill:none;fill-opacity:1;stroke:#000;stroke-width:.999999;stroke-linecap:round;stroke-linejoin:round;stroke-miterlimit:4;stroke-dasharray:none;stroke-dashoffset:0;stroke-opacity:1;marker:none" width="4" height="4" x="13.5" y="23.5" rx="1" ry="1"/><rect style="opacity:.3;vector-effect:none;fill:#fafafa;fill-opacity:1;stroke:none;stroke-width:1;stroke-linecap:round;stroke-linejoin:round;stroke-miterlimit:4;stroke-dasharray:none;stroke-dashoffset:0;stroke-opacity:1;marker:none" width="3" height="3" x="14" y="24" rx=".5" ry=".5"/><rect style="opacity:.3;vector-effect:none;fill:none;fill-opacity:1;stroke:#000;stroke-width:.999999;stroke-linecap:round;stroke-linejoin:round;stroke-miterlimit:4;stroke-dasharray:none;stroke-dashoffset:0;stroke-opacity:1;marker:none" width="4" height="4" x="19.5" y="23.5" rx="1" ry="1"/><rect style="opacity:.3;fill:#fafafa;fill-opacity:1;stroke:none;stroke-width:1;stroke-linecap:round;stroke-linejoin:round;stroke-miterlimit:4;stroke-dasharray:none;stroke-dashoffset:0;stroke-opacity:1;marker:none" width="3" height="3" x="20" y="24" rx=".5" ry=".5"/><path style="font-variation-settings:normal;opacity:.07;fill:#000;fill-opacity:1;stroke:none;stroke-width:2.99999;stroke-linecap:round;stroke-linejoin:round;stroke-miterlimit:4;stroke-dasharray:none;stroke-dashoffset:0;stroke-opacity:1;marker:none;stop-color:#000" d="M2.5 7v16h2.771C6.217 23 7 22.177 7 21.184 7 22.177 7.783 23 8.729 23H23.27c.946 0 1.729-.823 1.729-1.816 0 .993.783 1.816 1.729 1.816H29.5V7h-2.771C25.783 7 25 7.823 25 8.816 25 7.823 24.217 7 23.271 7H8.73C7.783 7 7 7.823 7 8.816 7 7.823 6.217 7 5.271 7H2.5z"/><path style="opacity:.3;fill:#000;fill-opacity:1;stroke:none;stroke-width:1;stroke-linecap:round;stroke-linejoin:round;stroke-miterlimit:4;stroke-dasharray:none;stroke-dashoffset:0;stroke-opacity:1;marker:none" d="M2.5 8v14H5c.554 0 1-.47 1-1.05V9.05C6 8.47 5.554 8 5 8H2.5zM9 8c-.554 0-1 .47-1 1.05v11.9c0 .58.446 1.05 1 1.05h14c.554 0 1-.47 1-1.05V9.05C24 8.47 23.554 8 23 8H9zm18 0c-.554 0-1 .47-1 1.05v11.9c0 .58.446 1.05 1 1.05h2.5V8H27z"/><path style="fill:url(#n);fill-opacity:1;stroke:none;stroke-width:1;stroke-linecap:round;stroke-linejoin:round;stroke-miterlimit:4;stroke-dasharray:none;stroke-dashoffset:0;stroke-opacity:1;marker:none" d="M2.5 7v14H5c.554 0 1-.47 1-1.05V8.05C6 7.47 5.554 7 5 7H2.5zM9 7c-.554 0-1 .47-1 1.05v11.9c0 .58.446 1.05 1 1.05h14c.554 0 1-.47 1-1.05V8.05C24 7.47 23.554 7 23 7H9zm18 0c-.554 0-1 .47-1 1.05v11.9c0 .58.446 1.05 1 1.05h2.5V7H27z"/><path style="font-variation-settings:normal;opacity:.15;fill:none;fill-opacity:1;stroke:#002e99;stroke-width:2;stroke-linecap:round;stroke-linejoin:round;stroke-miterlimit:4;stroke-dasharray:none;stroke-dashoffset:0;stroke-opacity:1;marker:none;stop-color:#000" d="M9.667 10c-.37 0-.667.279-.667.625v3.75c0 .346.297.625.667.625h4.666c.37 0 .667-.279.667-.625v-3.75c0-.346-.297-.625-.667-.625Z"/><rect ry="1" rx="1" y="10" x="9" height="5" width="6" style="opacity:.3;fill:#002e99;fill-opacity:1;stroke:none;stroke-width:1;stroke-linecap:round;stroke-linejoin:round;stroke-miterlimit:4;stroke-dasharray:none;stroke-dashoffset:0;stroke-opacity:1;marker:none"/><rect style="fill:url(#o);fill-opacity:1;stroke:none;stroke-width:.999999;stroke-linecap:round;stroke-linejoin:round;stroke-miterlimit:4;stroke-dasharray:none;stroke-dashoffset:0;stroke-opacity:1;marker:none" width="6" height="5" x="9" y="9" rx="1" ry="1"/><path style="font-variation-settings:normal;opacity:.15;fill:none;fill-opacity:1;stroke:#002e99;stroke-width:2;stroke-linecap:round;stroke-linejoin:round;stroke-miterlimit:4;stroke-dasharray:none;stroke-dashoffset:0;stroke-opacity:1;marker:none;stop-color:#000" d="M17.667 14c-.37 0-.667.279-.667.625v3.75c0 .346.297.625.667.625h4.666c.37 0 .667-.279.667-.625v-3.75c0-.346-.297-.625-.667-.625Z"/><rect ry="1" rx="1" y="14" x="17" height="5" width="6" style="opacity:.3;fill:#002e99;fill-opacity:1;stroke:none;stroke-width:1;stroke-linecap:round;stroke-linejoin:round;stroke-miterlimit:4;stroke-dasharray:none;stroke-dashoffset:0;stroke-opacity:1;marker:none"/><rect style="fill:url(#p);fill-opacity:1;stroke:none;stroke-width:.999999;stroke-linecap:round;stroke-linejoin:round;stroke-miterlimit:4;stroke-dasharray:none;stroke-dashoffset:0;stroke-opacity:1;marker:none" width="6" height="5" x="17" y="13" rx="1" ry="1"/><path style="opacity:.3;fill:none;fill-opacity:1;stroke:url(#q);stroke-width:1;stroke-linecap:butt;stroke-linejoin:round;stroke-miterlimit:4;stroke-dasharray:none;stroke-dashoffset:0;stroke-opacity:1;marker:none" d="M2.5 20.5h2.348c.361 0 .652-.305.652-.684V8.184c0-.38-.291-.684-.652-.684H2.5m6.652 0c-.361 0-.652.305-.652.684v11.632c0 .38.291.684.652.684h13.696c.361 0 .652-.305.652-.684V8.184c0-.38-.291-.684-.652-.684Zm20.348 0h-2.348c-.361 0-.652.305-.652.684v11.632c0 .38.291.684.652.684H29.5"/></svg>