<svg width="128" height="128" xmlns:xlink="http://www.w3.org/1999/xlink" xmlns="http://www.w3.org/2000/svg"><defs><linearGradient id="b"><stop style="stop-color:#fff;stop-opacity:1" offset="0"/><stop style="stop-color:#fff;stop-opacity:.23529412" offset=".063"/><stop style="stop-color:#fff;stop-opacity:.15686275" offset=".951"/><stop style="stop-color:#fff;stop-opacity:.39215687" offset="1"/></linearGradient><linearGradient id="e"><stop style="stop-color:#181818;stop-opacity:1" offset="0"/><stop style="stop-color:#181818;stop-opacity:0" offset="1"/></linearGradient><linearGradient id="f"><stop style="stop-color:#181818;stop-opacity:1" offset="0"/><stop style="stop-color:#181818;stop-opacity:0" offset="1"/></linearGradient><linearGradient id="a"><stop style="stop-color:#181818;stop-opacity:0" offset="0"/><stop style="stop-color:#181818;stop-opacity:1" offset=".5"/><stop style="stop-color:#181818;stop-opacity:0" offset="1"/></linearGradient><linearGradient id="g"><stop style="stop-color:#000;stop-opacity:1" offset="0"/><stop style="stop-color:#000;stop-opacity:0" offset="1"/></linearGradient><linearGradient xlink:href="#a" id="m" gradientUnits="userSpaceOnUse" x1="25.058" y1="47.028" x2="25.058" y2="39.999"/><linearGradient xlink:href="#b" id="o" gradientUnits="userSpaceOnUse" gradientTransform="translate(-1.514 1.488) scale(2.72973)" x1="24" y1="5" x2="24" y2="43"/><linearGradient xlink:href="#b" id="i" gradientUnits="userSpaceOnUse" gradientTransform="translate(-19.568 10.292) scale(2.72973)" x1="24" y1="5" x2="24" y2="43"/><linearGradient y2="51.422" x2="25.284" y1=".985" x1="25.132" gradientTransform="matrix(3.10243 -.27143 .16665 1.90482 -15.407 24.87)" gradientUnits="userSpaceOnUse" id="h" xlink:href="#c"/><linearGradient id="c"><stop offset="0" style="stop-color:#586e75;stop-opacity:1"/><stop offset="1" style="stop-color:#073642;stop-opacity:1"/></linearGradient><linearGradient x1="25.132" y1=".985" x2="25.284" y2="51.422" id="n" xlink:href="#d" gradientUnits="userSpaceOnUse" gradientTransform="matrix(3.11428 0 0 1.9121 -8.743 19.676)"/><linearGradient id="d"><stop offset="0" style="stop-color:#fdf6e3;stop-opacity:1"/><stop offset="1" style="stop-color:#eee8d5;stop-opacity:1"/></linearGradient><linearGradient xlink:href="#c" id="p" gradientUnits="userSpaceOnUse" gradientTransform="matrix(2.98136 .79278 -.48877 1.81053 4.928 -4.36)" x1="17.234" y1="-1.663" x2="26.343" y2="54.478"/><radialGradient xlink:href="#e" id="k" gradientUnits="userSpaceOnUse" gradientTransform="matrix(2.00378 0 0 1.4 27.988 -17.4)" cx="4.993" cy="43.5" fx="4.993" fy="43.5" r="2.5"/><radialGradient xlink:href="#f" id="l" gradientUnits="userSpaceOnUse" gradientTransform="matrix(2.00378 0 0 1.4 -20.012 -104.4)" cx="4.993" cy="43.5" fx="4.993" fy="43.5" r="2.5"/><radialGradient xlink:href="#g" id="j" gradientUnits="userSpaceOnUse" gradientTransform="matrix(1.5564 0 0 .16979 70.27 102.132)" cx="-4.029" cy="93.468" fx="-4.029" fy="93.468" r="35.338"/></defs><rect style="color:#000;font-variation-settings:normal;display:inline;overflow:visible;visibility:visible;vector-effect:none;fill:url(#h);fill-opacity:1;fill-rule:nonzero;stroke:#001921;stroke-width:1;stroke-linecap:butt;stroke-linejoin:round;stroke-miterlimit:4;stroke-dasharray:none;stroke-dashoffset:0;stroke-opacity:.498039;-inkscape-stroke:none;marker:none;enable-background:accumulate;stop-color:#000;opacity:1;stop-opacity:1" y="24.306" x="-5.554" ry="10" rx="10" height="103" width="103" transform="rotate(-15)"/><rect style="fill:none;stroke:url(#i);stroke-width:1;stroke-linecap:round;stroke-linejoin:round;stroke-miterlimit:4;stroke-dasharray:none;stroke-dashoffset:0;stroke-opacity:1;opacity:.3" y="25.306" x="-4.554" ry="9" rx="9" height="101" width="101" transform="rotate(-15)"/><rect style="color:#000;display:inline;overflow:visible;visibility:visible;opacity:.5;fill:none;stroke:none;stroke-width:1;stroke-linecap:round;stroke-linejoin:round;stroke-miterlimit:4;stroke-dasharray:none;stroke-dashoffset:0;stroke-opacity:1;marker:none;enable-background:accumulate" y="24.306" x="-5.554" ry="10" rx="10" height="103" width="103" transform="rotate(-15)"/><path style="opacity:.2;color:#000;fill:url(#j);fill-opacity:1;fill-rule:nonzero;stroke:none;stroke-width:1;marker:none;visibility:visible;display:inline;overflow:visible;enable-background:accumulate" d="M119 118.002a55 6 0 0 1-110 0 55 6 0 1 1 110 0z"/><g style="display:inline"><g style="opacity:.4"><path style="fill:url(#k);fill-opacity:1;stroke:none" d="M38 40h5v7h-5z" transform="matrix(2.8421 0 0 .71429 -4.21 87.43)"/><path style="fill:url(#l);fill-opacity:1;stroke:none" transform="matrix(-2.8421 0 0 -.71429 -4.21 87.43)" d="M-10-47h5v7h-5z"/><path style="fill:url(#m);fill-opacity:1;stroke:none" d="M10 40h28v7H10z" transform="matrix(2.8421 0 0 .71429 -4.21 87.43)"/></g></g><rect style="color:#000;font-variation-settings:normal;display:inline;overflow:visible;visibility:visible;vector-effect:none;fill:url(#n);fill-opacity:1;fill-rule:nonzero;stroke:#aa8e37;stroke-width:1;stroke-linecap:butt;stroke-linejoin:round;stroke-miterlimit:4;stroke-dasharray:none;stroke-dashoffset:0;stroke-opacity:.498039;marker:none;enable-background:accumulate;stop-color:#000;opacity:1;-inkscape-stroke:none;stop-opacity:1" y="15.502" x="12.5" ry="10" rx="10" height="103" width="103"/><rect style="opacity:1;fill:none;stroke:url(#o);stroke-width:1;stroke-linecap:round;stroke-linejoin:round;stroke-miterlimit:4;stroke-dasharray:none;stroke-dashoffset:0;stroke-opacity:1" y="16.502" x="13.5" ry="9" rx="9" height="101" width="101"/><rect style="color:#000;display:inline;overflow:visible;visibility:visible;opacity:.5;fill:none;stroke:none;stroke-width:1;stroke-linecap:round;stroke-linejoin:round;stroke-miterlimit:4;stroke-dasharray:none;stroke-dashoffset:0;stroke-opacity:1;marker:none;enable-background:accumulate" y="15.502" x="12.5" ry="10" rx="10" height="103" width="103"/><path style="opacity:.2;fill:none;stroke:#aa8e37;stroke-width:1px;stroke-linecap:butt;stroke-linejoin:miter;stroke-opacity:1" d="M32 29.5h6.261m.894 0h5.814m.936 0h5.188m.853 0h2.236m.894 0h5.01m.983 0h13.148m.895 0H85.13m.894 0h3.041M32 34.5h9.708m1.13 0h4.638m.858 0h2.289m.931 0h4.273m.895 0h4.382m.827 0h6.88m.895 0h9.078M32 39.473h8.217m.863 0h13.533m.829 0h6.563m.841 0h6.14m.88 0h5.23m.841 0 8.226.054M32 44.5h11.425m.897 0H56.67m.853 0h4.852m.894 0h11.55m.777 0h7.916m.894 0h3.133m.895 0h1.733M32 49.5h4.264m1.31 0h15.79M32 76.5h9.708m1.13 0h4.638m.858 0h2.289m.931 0h4.273m.895 0h4.382m.827 0h6.88M32 87.418h8.217m.863 0h13.533m.829 0h6.563m23.192.164h13.405M32 71.5h11.425m.897 0H56.67m.853 0h4.852m.894 0h11.55M32 60.5h6.261m.894 0h5.814m.936 0h5.188m.853 0h2.236m.894 0h5.01m.983 0h13.148m.895 0H85.13M32 66.5h10.544m.83 0H54.57m.853 0h4.378m.827 0h10.534m.845 0h11.504M32 92.5h9.854m1.057 0h4.344m1.018 0h2.167m.69 0h4.277m.568 0h22.644m1.066 0h6.045m.813 0h1.526m-44.843 6h3.214M32 98.5h10.285m4.977 0h7.478m.792 0H66.51m.853 0h7.447m.75 0h1.534m.84 0h9.456m.967 0h4.951m-50.082 5h4.538M32 103.5h10.285m6.463 0h6.38"/><path style="color:#000;font-style:normal;font-variant:normal;font-weight:600;font-stretch:normal;font-size:19px;line-height:125%;font-family:'Open Sans';-inkscape-font-specification:'Open Sans Semi-Bold';text-align:start;letter-spacing:0;word-spacing:0;writing-mode:lr-tb;text-anchor:start;clip-rule:nonzero;display:inline;overflow:visible;visibility:visible;isolation:auto;mix-blend-mode:normal;color-interpolation:sRGB;color-interpolation-filters:linearRGB;solid-color:#000;solid-opacity:1;fill:#fff;fill-opacity:1;fill-rule:nonzero;stroke:none;stroke-width:1;stroke-linecap:butt;stroke-linejoin:miter;stroke-miterlimit:4;stroke-dasharray:none;stroke-dashoffset:0;stroke-opacity:1;marker:none;color-rendering:auto;image-rendering:auto;shape-rendering:auto;text-rendering:auto;enable-background:accumulate" d="M54 54c-2.89 0-4.423.428-5.875 1.313-1.439.872-2.125 2.26-2.125 4.124V65c0 1.111-.496 1.888-1.375 2.438-.866.537-2.827.875-4.625.874v3.376c3.543 0 6 1.152 6 3.374v5.063c0 2.043.655 3.592 2 4.5 1.359.92 2.923 1.351 6 1.375v-3.25c-1.532-.024-2.32-.31-3-.813-.68-.501-1-1.207-1-2.187v-5.375c0-2.402-1.2-3.82-4.25-4.25v-.25c3.05-.466 4.25-1.934 4.25-4.313V60.25c0-.98.32-1.635 1-2.125.693-.502 1.481-.815 3-.875zm20 0v3.25c1.519.06 2.307.373 3 .875.68.49 1 1.145 1 2.125v5.313c0 2.378 1.2 3.846 4.25 4.312v.25c-3.05.43-4.25 1.848-4.25 4.25v5.375c0 .98-.32 1.686-1 2.188-.68.501-1.468.788-3 .812V86c3.077-.024 4.641-.455 6-1.375 1.345-.908 2-2.457 2-4.5v-5.063c0-2.222 2.457-3.374 6-3.374v-3.376c-1.798 0-3.76-.337-4.625-.874C82.495 66.888 82 66.11 82 65v-5.563c0-1.864-.686-3.252-2.125-4.124C78.423 54.428 76.891 54 74 54Z"/><path d="M54 53c-2.89 0-4.423.428-5.875 1.313-1.439.872-2.125 2.26-2.125 4.124V64c0 1.111-.496 1.888-1.375 2.438-.866.537-2.827.875-4.625.874v3.376c3.543 0 6 1.152 6 3.374v5.063c0 2.043.655 3.592 2 4.5 1.359.92 2.923 1.351 6 1.375v-3.25c-1.532-.024-2.32-.31-3-.813-.68-.501-1-1.207-1-2.187v-5.375c0-2.402-1.2-3.82-4.25-4.25v-.25c3.05-.466 4.25-1.934 4.25-4.313V59.25c0-.98.32-1.635 1-2.125.693-.502 1.481-.815 3-.875zm20 0v3.25c1.519.06 2.307.373 3 .875.68.49 1 1.145 1 2.125v5.313c0 2.378 1.2 3.846 4.25 4.312v.25c-3.05.43-4.25 1.848-4.25 4.25v5.375c0 .98-.32 1.686-1 2.188-.68.501-1.468.788-3 .812V85c3.077-.024 4.641-.455 6-1.375 1.345-.908 2-2.457 2-4.5v-5.063c0-2.222 2.457-3.374 6-3.374v-3.376c-1.798 0-3.76-.337-4.625-.874C82.495 65.888 82 65.11 82 64v-5.563c0-1.864-.686-3.252-2.125-4.124C78.423 53.428 76.891 53 74 53Z" style="color:#000;font-style:normal;font-variant:normal;font-weight:600;font-stretch:normal;font-size:19px;line-height:125%;font-family:'Open Sans';-inkscape-font-specification:'Open Sans Semi-Bold';text-align:start;letter-spacing:0;word-spacing:0;writing-mode:lr-tb;text-anchor:start;clip-rule:nonzero;display:inline;overflow:visible;visibility:visible;isolation:auto;mix-blend-mode:normal;color-interpolation:sRGB;color-interpolation-filters:linearRGB;solid-color:#000;solid-opacity:1;fill:url(#p);fill-opacity:1;fill-rule:nonzero;stroke:none;stroke-width:1;stroke-linecap:butt;stroke-linejoin:miter;stroke-miterlimit:4;stroke-dasharray:none;stroke-dashoffset:0;stroke-opacity:1;marker:none;color-rendering:auto;image-rendering:auto;shape-rendering:auto;text-rendering:auto;enable-background:accumulate"/></svg>