<svg id="svg2" xmlns:rdf="http://www.w3.org/1999/02/22-rdf-syntax-ns#" xmlns="http://www.w3.org/2000/svg" height="100%" width="100%" version="1.1" xmlns:cc="http://creativecommons.org/ns#" xmlns:xlink="http://www.w3.org/1999/xlink" viewBox="0 0 64 64" xmlns:dc="http://purl.org/dc/elements/1.1/">
 <metadata id="metadata210">
  <rdf:RDF>
   <cc:Work rdf:about="">
    <dc:format>image/svg+xml</dc:format>
    <dc:type rdf:resource="http://purl.org/dc/dcmitype/StillImage"/>
    <dc:title/>
   </cc:Work>
  </rdf:RDF>
 </metadata>
 <defs id="defs4">
  <path id="S" d="m108.11,32.571a16.029,16.029,0,1,1,-32.057,0,16.029,16.029,0,1,1,32.057,0z"/>
  <path id="T" d="m39.65,39.709a3.1589,3.1589,0,1,1,-6.3179,0,3.1589,3.1589,0,1,1,6.3179,0"/>
  <linearGradient id="I" y1="27.375" x2="0" y2="36.725" gradientUnits="userSpaceOnUse">
   <stop id="stop9" stop-color="#170418" offset="0"/>
   <stop id="stop11" stop-color="#50386b" offset="1"/>
  </linearGradient>
  <linearGradient id="L" xlink:href="#D" gradientUnits="userSpaceOnUse" x2="0" y1="16.555" y2="48.984"/>
  <linearGradient id="M" y1="16.543" x2="0" y2="48.631" gradientUnits="userSpaceOnUse">
   <stop id="stop15" stop-color="#7a8498" offset="0"/>
   <stop id="stop17" stop-color="#34405c" offset="1"/>
  </linearGradient>
  <linearGradient id="B" xlink:href="#3" gradientUnits="userSpaceOnUse" x2="0" gradientTransform="matrix(.16581 0 0 .12436 20.905 22.577)" y1="52.925" y2="65.922"/>
  <linearGradient id="D">
   <stop id="stop21" stop-color="#fff" offset="0"/>
   <stop id="stop23" stop-color="#fff" stop-opacity=".235" offset="0.338"/>
   <stop id="stop25" stop-color="#fff" stop-opacity=".157" offset="0.62"/>
   <stop id="stop27" stop-color="#fff" stop-opacity=".392" offset="1"/>
  </linearGradient>
  <linearGradient id="8">
   <stop id="stop32" stop-color="#fff" stop-opacity="0" offset="0"/>
   <stop id="stop34" stop-color="#fff" stop-opacity="0" offset="0.405"/>
   <stop id="stop36" stop-color="#fff" stop-opacity=".478" offset="1"/>
  </linearGradient>
  <linearGradient id="0" y2="37.81" gradientUnits="userSpaceOnUse" x2="34.13" y1="41.608" x1="38.851">
   <stop id="stop39" stop-color="#fbac9b" offset="0"/>
   <stop id="stop41" stop-color="#fcfafc" offset="1"/>
  </linearGradient>
  <linearGradient id="1" y2="37.81" gradientUnits="userSpaceOnUse" x2="34.13" y1="41.608" x1="38.851">
   <stop id="stop44" stop-color="#feffff" offset="0"/>
   <stop id="stop46" stop-color="#fe70ca" offset="1"/>
  </linearGradient>
  <linearGradient id="3">
   <stop id="stop49" stop-color="#fff" offset="0"/>
   <stop id="stop51" stop-color="#fff" stop-opacity="0" offset="1"/>
  </linearGradient>
  <linearGradient id="N" y1="9.11" x2="0" y2="55.11" gradientUnits="userSpaceOnUse">
   <stop id="stop54" stop-color="#b6b6b6" offset="0"/>
   <stop id="stop56" stop-color="#a4a4a4" offset="0.331"/>
   <stop id="stop58" stop-color="#c5c5c5" offset="1"/>
  </linearGradient>
  <linearGradient id="O" y1="2.919" x2="0" y2="61.39" gradientUnits="userSpaceOnUse">
   <stop id="stop61" stop-color="#fff" offset="0"/>
   <stop id="stop63" stop-color="#fff" stop-opacity=".235" offset="0.424"/>
   <stop id="stop65" stop-color="#fff" stop-opacity=".157" offset="0.821"/>
   <stop id="stop67" stop-color="#fff" stop-opacity=".392" offset="1"/>
  </linearGradient>
  <radialGradient id="K" gradientUnits="userSpaceOnUse" cy="16.448" cx="91.35" gradientTransform="matrix(0 1.9804-1.9804 0 123.92-164.46)" r="15.639">
   <stop id="stop70" stop-color="#2d3955" offset="0"/>
   <stop id="stop72" stop-color="#2b3853" offset="0.725"/>
   <stop id="stop74" stop-color="#192640" offset="0.75"/>
   <stop id="stop76" stop-color="#08142e" offset="1"/>
  </radialGradient>
  <radialGradient id="J" gradientUnits="userSpaceOnUse" cy="21.239" cx="32" gradientTransform="matrix(0 2.0115-4.63364 0 130.42-43.13)" r="10.498">
   <stop id="stop79" stop-color="#07132d" offset="0"/>
   <stop id="stop81" stop-color="#425479" offset="1"/>
  </radialGradient>
  <radialGradient id="P" gradientUnits="userSpaceOnUse" cy="3.99" cx="23.896" gradientTransform="matrix(0 4.15665-5.48671 0 53.893-97.44)" r="20.397">
   <stop id="stop84" stop-color="#fff" offset="0"/>
   <stop id="stop86" stop-color="#ddd" offset="0.262"/>
   <stop id="stop88" stop-color="#abacae" offset="0.661"/>
   <stop id="stop90" stop-color="#89898b" offset="1"/>
  </radialGradient>
  <radialGradient id="E" gradientUnits="userSpaceOnUse" cy="31.405" cx="32.373" r="7.971">
   <stop id="stop94" stop-color="#ff54d2" stop-opacity="0" offset="0"/>
   <stop id="stop96" stop-color="#f62b68" offset="0.324"/>
   <stop id="stop98" stop-color="#ff0105" offset="0.561"/>
   <stop id="stop100" stop-color="#ff54d2" stop-opacity=".478" offset="1"/>
  </radialGradient>
  <radialGradient id="H" gradientUnits="userSpaceOnUse" cy="3.99" cx="23.896" gradientTransform="matrix(0 .5277-.69656 0 34.779 14.552)" r="20.397">
   <stop id="stop103" stop-color="#612f91" offset="0"/>
   <stop id="stop105" stop-color="#1a4aa2" offset="1"/>
  </radialGradient>
  <radialGradient id="5" xlink:href="#3" gradientUnits="userSpaceOnUse" cy="39.709" cx="36.491" r="3.159"/>
  <radialGradient id="6" gradientUnits="userSpaceOnUse" cy="31.405" cx="32.373" r="7.971">
   <stop id="stop111" stop-color="#ff54d2" stop-opacity="0" offset="0"/>
   <stop id="stop113" stop-color="#ff54d2" stop-opacity="0" offset="0.324"/>
   <stop id="stop115" stop-color="#ff54d2" stop-opacity=".252" offset="0.561"/>
   <stop id="stop117" stop-color="#ff54d2" stop-opacity=".478" offset="1"/>
  </radialGradient>
  <radialGradient id="G" gradientUnits="userSpaceOnUse" cy="95.39" cx="95.84" gradientTransform="matrix(.57547 0 0 .5407-23.24-19.788)" r="9.498">
   <stop id="stop120" stop-opacity="0" offset="0"/>
   <stop id="stop122" stop-opacity="0" offset="0.5"/>
   <stop id="stop124" offset="1"/>
  </radialGradient>
  <radialGradient id="7" xlink:href="#8" gradientUnits="userSpaceOnUse" cy="31.405" cx="32.373" gradientTransform="matrix(2.06765.55403-.53485 1.99608-17.766-49.22)" r="3.857"/>
  <radialGradient id="R" gradientUnits="userSpaceOnUse" cy="186.17" cx="99.16" gradientTransform="matrix(1 0 0 .16667 0 155.14)" r="62.769">
   <stop id="stop128" stop-color="#3d3d3d" offset="0"/>
   <stop id="stop130" stop-color="#686868" stop-opacity=".498" offset="0.5"/>
   <stop id="stop132" stop-color="#686868" stop-opacity="0" offset="1"/>
  </radialGradient>
 </defs>
 <path id="path136" fill="url(#R)" d="m161.93,186.17a62.769,10.462,0,1,1,-125.54,0,62.769,10.462,0,1,1,125.54,0" transform="matrix(.38235 0 0 .71691-5.913-76.968)"/>
 <g id="g138" color="#000">
  <path id="path140" d="m32,2.5c-16.277,0-29.5,13.223-29.5,29.5s13.223,29.5,29.5,29.5,29.5-13.223,29.5-29.5-13.223-29.5-29.5-29.5" fill="url(#P)"/>
  <g id="g142" stroke-linejoin="round" stroke-linecap="round" fill="none">
   <path id="path144" opacity=".3" stroke="#000" d="m32,2.5c-16.277,0-29.5,13.223-29.5,29.5s13.223,29.5,29.5,29.5,29.5-13.223,29.5-29.5-13.223-29.5-29.5-29.5z"/>
   <path id="path146" opacity=".8" stroke="url(#O)" d="m60.5,32c0,15.74-12.76,28.5-28.5,28.5s-28.5-12.76-28.5-28.5,12.76-28.5,28.5-28.5,28.5,12.76,28.5,28.5z"/>
  </g>
  <path id="path148" d="m32,9c-12.691,0-23,10.31-23,23,0,12.691,10.31,23,23,23,12.691,0,23-10.31,23-23,0-12.691-10.31-23-23-23" fill="url(#N)"/>
  <path id="path150" opacity=".05" stroke="#000" d="m32,9.5c-12.415,0-22.5,10.31-22.5,23,0,12.691,10.09,23,22.5,23,12.415,0,22.5-10.31,22.5-23,0-12.691-10.09-23-22.5-23z" fill="none"/>
  <path id="path152" fill="url(#M)" d="m108.11,32.571a16.029,16.029,0,1,1,-32.057,0,16.029,16.029,0,1,1,32.057,0" transform="matrix(1.15419 0 0 1.15419-74.28-5.594)"/>
  <g id="g154" fill="none">
   <use id="use156" opacity=".3" xlink:href="#S" transform="matrix(1.15419 0 0 1.15419-74.28-5.594)" stroke="#000" stroke-width=".866"/>
   <use id="use158" opacity=".3" xlink:href="#S" transform="matrix(1.0918 0 0 1.0918-68.54-3.561)" stroke="url(#L)" stroke-width=".916"/>
  </g>
  <path id="path160" fill="url(#K)" d="m106.99,31.686a15.639,15.639,0,1,1,-31.279,0,15.639,15.639,0,1,1,31.279,0" transform="matrix(.92715 0 0 .92715-52.695 2.623)"/>
 </g>
 <path id="path162" d="m32,21.502c-5.792,0-10.498,4.706-10.498,10.498s4.706,10.498,10.498,10.498,10.498-4.706,10.498-10.498-4.706-10.498-10.498-10.498" fill="url(#J)"/>
 <path id="path164" opacity=".3" stroke-linejoin="round" d="m32,21.502c-5.792,0-10.498,4.706-10.498,10.498s4.706,10.498,10.498,10.498,10.498-4.706,10.498-10.498-4.706-10.498-10.498-10.498z" stroke="#000" stroke-linecap="round" fill="none"/>
 <path id="path166" d="m32,23.502c-4.689,0-8.498,3.809-8.498,8.498s3.809,8.498,8.498,8.498,8.498-3.809,8.498-8.498-3.809-8.498-8.498-8.498" fill="#2f3b55"/>
 <path id="path168" stroke-linejoin="round" d="m32,27.502c-2.482,0-4.498,2.02-4.498,4.498,0,2.482,2.02,4.498,4.498,4.498,2.482,0,4.498-2.02,4.498-4.498,0-2.482-2.02-4.498-4.498-4.498z" stroke="url(#I)" stroke-linecap="round" fill="url(#H)"/>
 <path id="path170" opacity=".5" d="m32,27.738c-2.352,0-4.262,1.91-4.262,4.262s1.911,4.262,4.262,4.262c2.352,0,4.262-1.91,4.262-4.262s-1.91-4.262-4.262-4.262" fill="url(#G)"/>
 <g id="g172" fill="none">
  <g id="g174" color="#000">
   <use id="use176" opacity=".3" xlink:href="#S" transform="matrix(.84225 0 0-.84225-45.559 59.43)" stroke="url(#L)" stroke-width="1.187"/>
   <path id="path178" opacity=".3" d="m106.99,31.686a15.639,15.639,0,1,1,-31.279,0,15.639,15.639,0,1,1,31.279,0z" transform="matrix(.92715 0 0 .92715-52.695 3.123)" stroke="#000" stroke-width="1.079"/>
  </g>
  <path id="path180" opacity=".3" stroke-linejoin="round" d="m32,23.502c-4.689,0-8.498,3.809-8.498,8.498s3.809,8.498,8.498,8.498,8.498-3.809,8.498-8.498-3.809-8.498-8.498-8.498z" stroke="#000" stroke-linecap="round"/>
 </g>
 <g id="g182" color="#000">
  <path id="path184" opacity=".4" fill="url(#E)" d="m39.956,32.886a7.7149,7.7149,0,0,1,-5.5766,5.9811l-1.997-7.452z" transform="matrix(-1.03696 0 0-1.03696 65.58 64.58)"/>
  <use id="use186" opacity=".3" xlink:href="#S" transform="matrix(.46791 0 0 .46791-11.09 16.759)" stroke="url(#L)" stroke-width="2.137" fill="none"/>
  <path id="path188" opacity=".5" d="m33.894,30.579a1.8943,1.4207,0,0,1,-3.7887,0,1.8943,1.4207,0,1,1,3.7887,0" fill="url(#B)"/>
  <path id="path190" opacity=".4" fill="url(#7)" d="m40.097,31.415a7.7149,7.7149,0,0,1,-0.48712,2.6979l-7.228-2.698z" transform="matrix(1.03696 0 0 1.03696-1.579-.576)"/>
  <path id="path192" opacity=".4" fill="url(#7)" d="m39.984,32.734a7.7149,7.7149,0,0,1,-0.80752,2.3368l-6.794-3.656z" transform="matrix(.26838 1.0016-1.0016.26838 54.775-8.866)"/>
  <path id="path194" opacity=".4" fill="url(#7)" d="m40.033,30.424a7.7149,7.7149,0,0,1,-0.8572,4.6464l-6.794-3.656z" transform="matrix(.80312.65596-.65596.80312 26.6-14.471)"/>
  <path id="path196" opacity=".5" fill="url(#6)" d="m40.097,31.415a7.7149,7.7149,0,0,1,-7.7149,7.7149v-7.715z" transform="matrix(-.73324-.73324.73324-.73324 32.709 76.78)"/>
  <use id="use198" opacity=".2" xlink:href="#T" transform="matrix(2.36938-1.36796.77832 1.34809-80.22 35.17)" fill="url(#5)"/>
  <use id="use200" opacity=".4" xlink:href="#T" transform="matrix(1.90662-1.10079.62631 1.0848-69.06 21.715)" fill="url(#5)"/>
  <use id="use202" opacity=".8" xlink:href="#T" transform="matrix(.54388 0 0 .56897 11.534 8.506)" fill="url(#5)"/>
  <use id="use204" opacity=".4" xlink:href="#T" transform="matrix(.54388 0 0 .56897 6.972 5.744)" fill="url(#1)"/>
  <use id="use206" opacity=".4" xlink:href="#T" transform="matrix(.38038 0 0 .39792 13.914 13.556)" fill="url(#0)"/>
 </g>
</svg>
