<svg xmlns="http://www.w3.org/2000/svg" xmlns:xlink="http://www.w3.org/1999/xlink" height="64" width="64"><defs><radialGradient gradientTransform="matrix(2.00378 0 0 1.4 27.988 -17.4)" gradientUnits="userSpaceOnUse" xlink:href="#a" id="n" fy="43.5" fx="4.993" r="2.5" cy="43.5" cx="4.993"/><linearGradient id="a"><stop offset="0" stop-color="#181818"/><stop offset="1" stop-color="#181818" stop-opacity="0"/></linearGradient><radialGradient gradientTransform="matrix(2.00378 0 0 1.4 -20.012 -104.4)" gradientUnits="userSpaceOnUse" xlink:href="#b" id="o" fy="43.5" fx="4.993" r="2.5" cy="43.5" cx="4.993"/><linearGradient id="b"><stop offset="0" stop-color="#181818"/><stop offset="1" stop-color="#181818" stop-opacity="0"/></linearGradient><linearGradient id="l"><stop offset="0" stop-color="#181818" stop-opacity="0"/><stop offset=".5" stop-color="#181818"/><stop offset="1" stop-color="#181818" stop-opacity="0"/></linearGradient><radialGradient gradientTransform="matrix(0 14.12457 -16.14456 0 193.904 -124.906)" gradientUnits="userSpaceOnUse" xlink:href="#c" id="q" fy="9.957" fx="6.2" r="12.672" cy="9.957" cx="6.73"/><radialGradient gradientTransform="matrix(0 1.23165 -1.62575 0 18.487 -28.722)" gradientUnits="userSpaceOnUse" id="c" r="20.397" cy="3.99" cx="23.896"><stop offset="0" stop-color="#fff"/><stop offset=".262" stop-color="#ddd"/><stop offset=".661" stop-color="#abacae"/><stop offset="1" stop-color="#89898b"/></radialGradient><linearGradient gradientTransform="matrix(1.43243 0 0 1.54054 -2.378 -6.902)" gradientUnits="userSpaceOnUse" xlink:href="#d" id="r" y2="43" x2="24" y1="5" x1="24"/><linearGradient id="d"><stop offset="0" stop-color="#fff"/><stop offset=".063" stop-color="#fff" stop-opacity=".235"/><stop offset=".951" stop-color="#fff" stop-opacity=".157"/><stop offset="1" stop-color="#fff" stop-opacity=".392"/></linearGradient><radialGradient gradientTransform="matrix(0 3.40938 -5.97947 0 104.464 10.109)" gradientUnits="userSpaceOnUse" xlink:href="#e" id="s" fy="9.957" fx="6.2" r="12.672" cy="9.957" cx="6.73"/><linearGradient id="e"><stop offset="0" stop-color="#ffcd7d"/><stop offset=".262" stop-color="#fc8f36"/><stop offset=".705" stop-color="#e23a0e"/><stop offset="1" stop-color="#ac441f"/></linearGradient><linearGradient gradientTransform="matrix(.48649 0 0 .32432 32.824 39.716)" gradientUnits="userSpaceOnUse" xlink:href="#f" id="z" y2="40.9" x2="24" y1="7.052" x1="24"/><linearGradient id="f"><stop offset="0" stop-color="#fff"/><stop offset=".011" stop-color="#fff" stop-opacity=".235"/><stop offset=".994" stop-color="#fff" stop-opacity=".157"/><stop offset="1" stop-color="#fff" stop-opacity=".392"/></linearGradient><linearGradient gradientTransform="matrix(.46192 0 0 .34595 8.695 22.397)" gradientUnits="userSpaceOnUse" xlink:href="#g" id="t" y2="-57.312" x2="43.816" y1="-10.328" x1="43.816"/><linearGradient id="g"><stop offset="0" stop-color="#fff"/><stop offset=".107" stop-color="#fff" stop-opacity=".235"/><stop offset=".994" stop-color="#fff" stop-opacity=".157"/><stop offset="1" stop-color="#fff" stop-opacity=".392"/></linearGradient><linearGradient gradientTransform="matrix(1.39372 0 0 1.33264 -1.08 -1.527)" gradientUnits="userSpaceOnUse" xlink:href="#h" id="u" y2="15" x2="16" y1="4" x1="16"/><linearGradient id="h"><stop offset="0" stop-color="#dad7bd"/><stop offset="1" stop-color="#e8e5d4"/></linearGradient><linearGradient gradientTransform="matrix(1.40625 0 0 1.27273 -1.75 -1.864)" gradientUnits="userSpaceOnUse" xlink:href="#i" id="v" y2="16" x2="15" y1="5" x1="15"/><linearGradient id="i"><stop offset="0" stop-color="#5e5750"/><stop offset="1" stop-color="#756d65"/></linearGradient><linearGradient gradientTransform="translate(55.009 -20.579) scale(1.42105)" gradientUnits="userSpaceOnUse" xlink:href="#j" id="w" y2="39.935" x2="-6.392" y1="30.306" x1="-6.392"/><linearGradient id="j"><stop offset="0" stop-color="#918e88"/><stop offset="1" stop-color="#605c58"/></linearGradient><linearGradient gradientTransform="matrix(.48649 0 0 .32432 32.824 21.716)" gradientUnits="userSpaceOnUse" xlink:href="#k" id="y" y2="40.9" x2="24" y1="7.052" x1="24"/><linearGradient id="k"><stop offset="0" stop-color="#fff"/><stop offset=".011" stop-color="#fff" stop-opacity=".235"/><stop offset=".994" stop-color="#fff" stop-opacity=".157"/><stop offset="1" stop-color="#fff" stop-opacity=".392"/></linearGradient><linearGradient id="m"><stop offset="0" stop-color="#918e88"/><stop offset="1" stop-color="#605c58"/></linearGradient><linearGradient gradientUnits="userSpaceOnUse" xlink:href="#l" id="p" y2="39.999" x2="25.058" y1="47.028" x1="25.058"/><linearGradient gradientTransform="translate(30.009 -2.579) scale(1.42105)" gradientUnits="userSpaceOnUse" xlink:href="#m" id="x" y2="39.935" x2="-6.392" y1="30.306" x1="-6.392"/></defs><g opacity=".4"><path fill="url(#n)" d="M38 40h5v7h-5z" transform="matrix(1.57895 0 0 .71429 -5.895 27.929)"/><path transform="matrix(-1.57895 0 0 -.71429 -5.895 27.929)" fill="url(#o)" d="M-10-47h5v7h-5z"/><path fill="url(#p)" d="M10 40h28v7H10z" transform="matrix(1.57895 0 0 .71429 -5.895 27.929)"/></g><rect style="marker:none" y="1" x="5" ry="2.5" rx="2.5" height="58" width="54" color="#000" fill="url(#q)" overflow="visible"/><rect y="1.571" x="5.5" ry="2" rx="2" height="57" width="53" opacity=".5" fill="none" stroke="url(#r)" stroke-linecap="round" stroke-linejoin="round"/><rect style="marker:none" y=".5" x="4.5" ry="3" rx="3" height="59" width="55" opacity=".4" color="#000" fill="none" stroke="#000" stroke-linecap="round" stroke-linejoin="round" overflow="visible"/><rect style="marker:none" y="40.5" x="34.5" ry="1" rx="1" height="14" width="20" color="#000" fill="url(#s)" overflow="visible"/><rect style="marker:none" y="40.5" x="34.5" ry="1" rx="1" height="14" width="20" opacity=".4" color="#000" fill="none" stroke="#640000" stroke-linecap="round" stroke-linejoin="round" overflow="visible"/><rect style="marker:none" y="3.5" x="8.5" ry="2" rx="2" height="16" width="47" opacity=".5" color="#000" fill="none" stroke="url(#t)" stroke-linecap="round" stroke-linejoin="round" overflow="visible"/><rect style="marker:none" y="4" x="9" ry="2" rx="2" height="15" width="46" color="#000" fill="url(#u)" overflow="visible"/><rect style="marker:none" y="4.5" x="9.5" ry="1" rx="1" height="14" width="45" opacity=".7" color="#000" fill="none" stroke="url(#v)" overflow="visible"/><path style="text-align:end;line-height:125%;-inkscape-font-specification:Open Sans Bold" d="M33.554 7.842c-.884 0-1.626.25-2.265.71l.667 1.022c.29-.188.563-.323.799-.4a2.4 2.4 0 0 1 .71-.133c.665 0 .977.27.977.8 0 .344-.102.566-.355.71-.249.14-.656.222-1.199.222h-.533v1.155h.533c.588 0 1.02.04 1.288.177.268.138.4.382.4.71 0 .368-.122.634-.356.8-.233.166-.621.267-1.11.267-.32 0-.607-.047-.932-.134a4.958 4.958 0 0 1-.933-.355v1.288c.588.252 1.283.355 2.043.355.907 0 1.598-.159 2.087-.533.489-.377.755-.924.755-1.598 0-.464-.153-.84-.444-1.11-.29-.275-.723-.419-1.288-.49v-.043c.48-.115.845-.316 1.11-.622.265-.307.4-.673.4-1.11 0-.524-.2-.95-.622-1.244-.418-.294-1.007-.444-1.732-.444zm8.571.089L39.86 9.75l.71.889.8-.666c.096-.077.287-.243.533-.489l-.044.755v4.708h1.465V7.931zm5.995 0l-3.064 4.53v1.02h2.975v1.466h1.466v-1.465h.843v-1.155h-.843V7.931zm-.044 1.687c-.01.061.016.29 0 .667-.016.376-.045.69-.045.888v1.154h-1.687l1.288-1.91c.166-.248.325-.537.444-.799zm-10.17 3.82c-.274 0-.522.084-.666.222-.144.137-.177.353-.177.621 0 .259.075.434.222.578.146.14.353.222.621.222.262 0 .43-.079.578-.222.146-.147.222-.325.222-.578 0-.262-.076-.48-.222-.621-.144-.141-.313-.222-.578-.223z" font-size="6.905" font-weight="700" letter-spacing="0" word-spacing="0" text-anchor="end" fill="#6d6a59" font-family="Open Sans"/><path style="marker:none" opacity=".05" color="#000" fill="none" stroke="#000" overflow="visible" d="M10.5 5.5h43v12h-43z"/><path style="marker:none" d="M10.5 22.5c-.554 0-1 .446-1 1v12c0 .554.446 1 1 1h18c.554 0 1-.446 1-1v-12c0-.554-.446-1-1-1h-18zm25 0c-.554 0-1 .446-1 1v12c0 .554.446 1 1 1h18c.554 0 1-.446 1-1v-12c0-.554-.446-1-1-1h-18z" color="#000" fill="url(#w)" overflow="visible"/><rect style="marker:none" y="40.5" x="9.5" ry="1" rx="1" height="14" width="20" color="#000" fill="url(#x)" overflow="visible"/><path style="line-height:125%;marker:none;-inkscape-font-specification:Helvetica" d="M19 27v3h-3v1h3v3h1v-3h3v-1h-3v-3h-1zm22 3v1h7v-1h-7zM16 45v1l2.5 2.5L16 51v1h1l2.5-2.5L22 52h1v-1l-2.5-2.5L23 46v-1h-1l-2.5 2.5L17 45h-1zm25 2v1h7v-1h-7zm0 2v1h7v-1h-7z" font-size="9.881" font-weight="400" letter-spacing="0" word-spacing="0" opacity=".2" color="#000" overflow="visible" font-family="Helvetica"/><path style="line-height:125%;-inkscape-font-specification:Helvetica" d="M19 26v3h-3v1h3v3h1v-3h3v-1h-3v-3h-1zm22 3v1h7v-1h-7zM16 44v1l2.5 2.5L16 50v1h1l2.5-2.5L22 51h1v-1l-2.5-2.5L23 45v-1h-1l-2.5 2.5L17 44h-1zm25 2v1h7v-1h-7zm0 2v1h7v-1h-7z" font-size="9.881" font-weight="400" letter-spacing="0" word-spacing="0" fill="#fff" font-family="Helvetica"/><path d="M10.5 23.5v12h18v-12h-18zm25 0v12h18v-12h-18z" opacity=".3" fill="none" stroke="url(#y)" stroke-linecap="round" stroke-linejoin="round"/><path style="marker:none" d="M10.5 22.5c-.554 0-1 .446-1 1v12c0 .554.446 1 1 1h18c.554 0 1-.446 1-1v-12c0-.554-.446-1-1-1h-18zm25 0c-.554 0-1 .446-1 1v12c0 .554.446 1 1 1h18c.554 0 1-.446 1-1v-12c0-.554-.446-1-1-1h-18zm-25 18c-.554 0-1 .446-1 1v12c0 .554.446 1 1 1h18c.554 0 1-.446 1-1v-12c0-.554-.446-1-1-1h-18z" opacity=".4" color="#000" fill="none" stroke="#000" stroke-linecap="round" stroke-linejoin="round" overflow="visible"/><path d="M10.5 41.5v12h18v-12h-18zm25 0v12h18v-12h-18z" opacity=".3" fill="none" stroke="url(#z)" stroke-linecap="round" stroke-linejoin="round"/></svg>