<svg xmlns="http://www.w3.org/2000/svg" xmlns:xlink="http://www.w3.org/1999/xlink" viewBox="0 0 64 64"><defs><linearGradient y1="366.65" x2="0" y2="609.51" id="I" gradientUnits="userSpaceOnUse" gradientTransform="matrix(.08919 0 0 .01647-.235 51.962)"><stop stop-opacity="0"/><stop offset=".5"/><stop offset="1" stop-opacity="0"/></linearGradient><linearGradient y1="25.357" x2="0" y2="31.21" id="A" gradientUnits="userSpaceOnUse" gradientTransform="matrix(.87539-.87968.97933.97445-3.02 27.15)"><stop stop-color="#181818"/><stop offset=".135" stop-color="#dbdbdb"/><stop offset=".202" stop-color="#a4a4a4"/><stop offset=".27" stop-color="#fff"/><stop offset=".447" stop-color="#8d8d8d"/><stop offset=".571" stop-color="#959595"/><stop offset=".72" stop-color="#cecece"/><stop offset="1" stop-color="#181818"/></linearGradient><linearGradient y1="24.99" x2="0" y2="30" id="8" xlink:href="#3" gradientUnits="userSpaceOnUse" gradientTransform="matrix(.85064-.85481 1.14612 1.14042-6.469 22.896)"/><linearGradient y1="60.972" x2="0" y2="5.265" id="B" gradientUnits="userSpaceOnUse"><stop stop-color="#a0a0a0"/><stop offset="1" stop-color="#c8c8c8"/></linearGradient><linearGradient y1="4.411" x2="0" y2="40.928" id="C" gradientUnits="userSpaceOnUse" gradientTransform="matrix(1.21622 0 0 1.43784-59.09.39)"><stop stop-color="#fff"/><stop offset=".01" stop-color="#fff" stop-opacity=".235"/><stop offset=".99" stop-color="#fff" stop-opacity=".157"/><stop offset="1" stop-color="#fff" stop-opacity=".392"/></linearGradient><linearGradient y1="53.51" x2="0" y2="3.634" id="F" gradientUnits="userSpaceOnUse" gradientTransform="matrix(1.08435 0 0 1.11839 79.55 1.153)"><stop stop-opacity=".322"/><stop offset="1" stop-opacity=".278"/></linearGradient><linearGradient id="D"><stop/><stop offset="1" stop-opacity="0"/></linearGradient><linearGradient y1="2.346" x2="0" y2="48.545" id="E" gradientUnits="userSpaceOnUse" gradientTransform="matrix(1.31429 0 0 1.17337.457 3.038)"><stop stop-color="#f4f4f4"/><stop offset="1" stop-color="#dbdbdb"/></linearGradient><linearGradient y1="24.99" x2="0" y2="30" id="9" xlink:href="#5" gradientUnits="userSpaceOnUse" gradientTransform="matrix(.85064-.85481 1.14612 1.14042-6.225 22.651)"/><linearGradient y1="29.06" x2="0" y2="26.03" id="0" gradientUnits="userSpaceOnUse" gradientTransform="matrix(.85064-.85481 1.14612 1.14042-6.548 22.976)"><stop stop-color="#ece5a5"/><stop offset="1" stop-color="#fcfbf2"/></linearGradient><linearGradient y1="24.99" x2="0" y2="30" id="7" xlink:href="#5" gradientUnits="userSpaceOnUse" gradientTransform="matrix(.85064-.85481 1.14612 1.14042-5.378 21.8)"/><linearGradient y1="24.99" x2="0" y2="30" id="2" xlink:href="#3" gradientUnits="userSpaceOnUse" gradientTransform="matrix(.85064-.85481 1.14612 1.14042-4.771 21.19)"/><linearGradient x1="5.518" y1="37.37" x2="9.522" y2="41.39" id="1" gradientUnits="userSpaceOnUse" gradientTransform="matrix(.74712.03225.03221.7462 24.395 18.14)"><stop stop-color="#dbce48"/><stop offset="1" stop-color="#c5b625"/></linearGradient><linearGradient y1="24.99" x2="0" y2="30" id="6" xlink:href="#3" gradientUnits="userSpaceOnUse" gradientTransform="matrix(.85064-.85481 1.14612 1.14042-5.622 22.05)"/><linearGradient id="3"><stop stop-color="#b1b1b1"/><stop offset=".5" stop-color="#fff"/><stop offset="1" stop-color="#8f8f8f"/></linearGradient><linearGradient id="5"><stop stop-color="#565656"/><stop offset=".5" stop-color="#9a9a9a"/><stop offset="1" stop-color="#545454"/></linearGradient><linearGradient y1="24.99" x2="0" y2="30" id="4" xlink:href="#5" gradientUnits="userSpaceOnUse" gradientTransform="matrix(.85064-.85481 1.14612 1.14042-4.528 20.946)"/><radialGradient cx="605.71" cy="486.65" r="117.14" id="H" xlink:href="#D" gradientUnits="userSpaceOnUse" gradientTransform="matrix(-.03052 0 0 .01647 28.862 51.962)"/><radialGradient cx="605.71" cy="486.65" r="117.14" id="G" xlink:href="#D" gradientUnits="userSpaceOnUse" gradientTransform="matrix(.03052 0 0 .01647 35.14 51.962)"/></defs><path opacity=".2" fill="url(#I)" d="m10.468 58h43.06v4h-43.06z"/><path d="m10.468 58c0 0 0 4 0 4-1.572.008-3.8-.896-3.8-2 0-1.104 1.754-2 3.8-2" opacity=".2" fill="url(#H)"/><path d="m53.53 58c0 0 0 4 0 4 1.572.008 3.8-.896 3.8-2 0-1.104-1.754-2-3.8-2" opacity=".2" fill="url(#G)"/><g color="#000"><path d="m9.843 5.502h44.32l1.342 54.998-47-.028z" fill="none" stroke="url(#F)" stroke-linejoin="round"/><path d="m10.314 6h43.37l1.313 54-46-.028z" fill="url(#E)"/><path d="m10.786 6.5h42.43l1.285 53-45-.027z" fill="none" stroke="url(#C)" stroke-linecap="round"/></g><g stroke-linejoin="round" stroke-linecap="round"><g fill="#80b3ff" fill-rule="evenodd"><path d="m16.75 6.835l-.583 52.665" opacity=".591" stroke="#f6abab" stroke-width=".5"/><g stroke="#80b3ff" stroke-width=".25"><path d="m53.24 14.335l-42.905-.246" opacity=".437"/><path d="m53.34 17l-43.02-.246" opacity=".437"/><path d="m53.45 19.668l-43.24-.246" opacity=".437"/><path d="m53.56 22.335l-43.46-.246" opacity=".437"/><path d="m53.56 25l-43.46-.246" opacity=".437"/><path d="m53.671 27.668l-43.676-.246" opacity=".437"/><path d="m53.671 30.335l-43.676-.246" opacity=".437"/><path d="m53.781 33l-43.897-.246" opacity=".437"/><path d="m53.781 35.668l-43.897-.246" opacity=".437"/><path d="m54 38.33l-44.34-.246" opacity=".437"/><path d="m54 40.986l-44.34-.246" opacity=".437"/><path d="m54.33 43.667l-44.998-.246" opacity=".437"/><path d="m54.33 46.27l-44.998-.246" opacity=".437"/><path d="m54.33 48.919l-44.998-.246" opacity=".437"/><path d="m54.33 51.563l-44.998-.246" opacity=".437"/><path d="m54.33 54.21l-44.998-.246" opacity=".437"/><path d="m54.33 57l-44.998-.246" opacity=".437"/></g></g><path d="m46.832 6.725l1.399 52.665" opacity=".591" fill="none" stroke="#b9d5ff" stroke-width=".5"/></g><path d="m17.16 16.5h3.131m.447 0h2.907m.468 0h2.594m.427 0h1.118m.447 0h2.504m.492 0h6.574m.447 0h5.01m.447 0h1.521m-28.532 3h4.854m.565 0h2.319m.429 0h1.145m.466 0h2.136m.447 0h2.191m.414 0h3.44m.447 0h4.539m-23.392 2.987h4.108m.432 0h6.766m.415 0h3.281m.421 0h3.07m.44 0h2.615m.421 0l4.113.027m-26.08 2.987h5.712m.449 0h6.174m.427 0h2.426m.447 0h5.775m.389 0h3.958m.447 0h1.566m.447 0h.866m-29.08 3h2.132m.655 0h7.895m-10.682 13h4.854m.565 0h2.319m.429 0h1.145m.466 0h2.136m.447 0h2.191m.414 0h3.44m-18.406 3.959h4.108m.432 0h6.766m.415 0h3.281m11.596.082h6.702m-33.3-7.04h5.712m.449 0h6.174m.427 0h2.426m.447 0h5.775m-21.409-6h3.131m.447 0h2.907m.468 0h2.594m.427 0h1.118m.447 0h2.504m.492 0h6.574m.447 0h5.01m-26.565 3h5.272m.415 0h5.598m.427 0h2.189m.413 0h5.267m.423 0h5.752m-25.756 13h4.927m.529 0h2.172m.509 0h1.083m.345 0h2.139m.284 0h11.322m.533 0h3.02m.406 0h.763m-22.421 3h1.607m-7.22 0h5.142m2.489 0h3.739m.396 0h5.489m.427 0h3.724m.375 0h.767m.42 0h4.728m.483 0h2.476m-25.04 3h2.269m-7.882 0h5.142m3.231 0h3.19" fill="none" stroke="url(#B)"/><path d="m49.624 32.594c-.231-.136-.41-.101-.528-.025l-15.728 10.01-2.895 1.848-.089.037-3.427 7.722 8.493.256.071-.047 2.913-1.839 15.724-10.1c.472-.303-.275-2.308-1.676-4.507-1.051-1.649-2.166-2.952-2.859-3.36" opacity=".15" fill="#0c0c0c" fill-rule="evenodd"/><g stroke-linejoin="round" stroke-width=".5"><path d="m31.578 42.04c.595-.446 2.263.391 3.796 1.916 1.529 1.522 2.335 3.15 1.899 3.75-.002.002.038.033.036.036l21.346-21.451c.542-.545-.3-2.266-1.882-3.839-1.582-1.574-3.307-2.407-3.849-1.863l-21.346 21.451z" fill="url(#A)" stroke="#0c0c0c"/><path d="m50.32 23.21c.595-.446 2.263.391 3.796 1.916 1.529 1.522 2.335 3.15 1.899 3.75-.002.002.038.033.036.036l2.605-2.618.053-.053c.002-.002-.037-.033-.036-.036.436-.6-.37-2.229-1.899-3.75-1.533-1.525-3.201-2.362-3.796-1.916l-.053.053-2.605 2.618z" opacity=".8" fill="#ffb6ed" stroke="#e28ccd"/></g><path d="m31.578 42.04c.595-.446 2.263.391 3.796 1.916 1.529 1.522 2.335 3.15 1.899 3.75-.002.002.038.033.036.036l14.7-14.772.053-.053c.002-.002-.037-.033-.036-.036.436-.6-.37-2.229-1.899-3.75-1.533-1.525-3.201-2.362-3.796-1.916l-.053.053-14.7 14.772" opacity=".6" fill="#0c0c0c"/><path d="m47.4 26.14c.595-.446 2.263.391 3.796 1.916 1.529 1.522 2.335 3.15 1.899 3.75-.002.002.038.033.036.036l.266-.267c.002-.002-.037-.033-.036-.036.436-.6-.37-2.229-1.899-3.75-1.533-1.525-3.201-2.362-3.796-1.916l-.266.267" fill="url(#9)"/><path d="m47.15 26.385c.595-.446 2.263.391 3.796 1.916 1.529 1.522 2.335 3.15 1.899 3.75-.002.002.038.033.036.036l.266-.267c.002-.002-.037-.033-.036-.036.436-.6-.37-2.229-1.899-3.75-1.533-1.525-3.201-2.362-3.796-1.916l-.266.267" fill="url(#8)"/><path d="m48.25 25.29c.595-.446 2.263.391 3.796 1.916 1.529 1.522 2.335 3.15 1.899 3.75-.002.002.038.033.036.036l.266-.267c.002-.002-.037-.033-.036-.036.436-.6-.37-2.229-1.899-3.75-1.533-1.525-3.201-2.362-3.796-1.916l-.266.267" fill="url(#7)"/><path d="m48 25.535c.595-.446 2.263.391 3.796 1.916 1.529 1.522 2.335 3.15 1.899 3.75-.002.002.038.033.036.036l.266-.267c.002-.002-.037-.033-.036-.036.436-.6-.37-2.229-1.899-3.75-1.533-1.525-3.201-2.362-3.796-1.916l-.266.267" fill="url(#6)"/><path d="m49.1 24.435c.595-.446 2.263.391 3.796 1.916 1.529 1.522 2.335 3.15 1.899 3.75-.002.002.038.033.036.036l.266-.267c.002-.002-.037-.033-.036-.036.436-.6-.37-2.229-1.899-3.75-1.533-1.525-3.201-2.362-3.796-1.916l-.266.267" fill="url(#4)"/><path d="m48.852 24.68c.595-.446 2.263.391 3.796 1.916 1.529 1.522 2.335 3.15 1.899 3.75-.002.002.038.033.036.036l.266-.267c.002-.002-.037-.033-.036-.036.436-.6-.37-2.229-1.899-3.75-1.533-1.525-3.201-2.362-3.796-1.916l-.266.267" fill="url(#2)"/><g fill-rule="evenodd" stroke-width=".5"><path d="m27.487 51.748l9.711-3.961.083-.083c.436-.6-.38-2.229-1.91-3.751-1.533-1.525-3.199-2.358-3.794-1.911l-4.091 9.706z" fill="url(#0)" stroke="url(#1)"/><path d="m28.595 49.12l-1.109 2.618 2.649-1.086c-.212-.254-.408-.513-.663-.766-.293-.292-.582-.529-.877-.766z" fill="#0c0c0c" stroke="#0c0c0c"/></g></svg>