<?xml version="1.0" encoding="UTF-8" standalone="no"?>
<svg
   xmlns:dc="http://purl.org/dc/elements/1.1/"
   xmlns:cc="http://creativecommons.org/ns#"
   xmlns:rdf="http://www.w3.org/1999/02/22-rdf-syntax-ns#"
   xmlns:svg="http://www.w3.org/2000/svg"
   xmlns="http://www.w3.org/2000/svg"
   version="1.1"
   width="64"
   height="64"
   id="svg6333">
  <defs
     id="defs6335">
    <linearGradient
       x1="24"
       y1="5"
       gradientTransform="matrix(1.4324324,0,0,1.4362832,-2.378381,-2.4707782)"
       x2="24"
       gradientUnits="userSpaceOnUse"
       y2="43"
       id="linearGradient4437">
      <stop
         offset="0"
         stop-color="#FFF"
         id="stop3926-9-4-9-6" />
      <stop
         offset="0.063165"
         stop-opacity="0.23529412"
         stop-color="#FFF"
         id="stop3928-9-8-6-5" />
      <stop
         offset="0.95056"
         stop-opacity="0.15686275"
         stop-color="#FFF"
         id="stop3930-3-5-1-7" />
      <stop
         offset="1"
         stop-opacity="0.39215687"
         stop-color="#FFF"
         id="stop3932-8-0-4-8" />
    </linearGradient>
    <radialGradient
       r="12.672"
       gradientTransform="matrix(0,13.393984,-16.443533,0,196.90205,-114.89368)"
       cx="6.7304"
       cy="9.9571"
       gradientUnits="userSpaceOnUse"
       fx="6.2002"
       id="radialGradient4440">
      <stop
         offset="0"
         stop-color="#fcfcfc"
         id="stop3205" />
      <stop
         offset="1"
         stop-color="#c4c4c4"
         id="stop3207" />
    </radialGradient>
    <radialGradient
       r="2.5"
       gradientTransform="matrix(2.003784,0,0,1.4,27.98813,-17.4)"
       cx="4.993"
       cy="43.5"
       gradientUnits="userSpaceOnUse"
       id="radialGradient3337-2-2-6">
      <stop
         offset="0"
         stop-color="#181818"
         id="stop2883-4-0-1-8-2" />
      <stop
         offset="1"
         stop-opacity="0"
         stop-color="#181818"
         id="stop2885-9-2-9-6-5" />
    </radialGradient>
    <radialGradient
       r="2.5"
       gradientTransform="matrix(2.003784,0,0,1.4,-20.01187,-104.4)"
       cx="4.993"
       cy="43.5"
       gradientUnits="userSpaceOnUse"
       id="radialGradient3339-1-4-0">
      <stop
         offset="0"
         stop-color="#181818"
         id="stop2889-7-9-6-9-3" />
      <stop
         offset="1"
         stop-opacity="0"
         stop-color="#181818"
         id="stop2891-6-6-1-7-7" />
    </radialGradient>
    <linearGradient
       x1="25.058"
       x2="25.058"
       y1="47.028"
       gradientUnits="userSpaceOnUse"
       y2="39.999"
       id="linearGradient5775">
      <stop
         offset="0"
         stop-opacity="0"
         stop-color="#181818"
         id="stop2895-8-9-9-1-5" />
      <stop
         offset="0.5"
         stop-color="#181818"
         id="stop2897-7-8-7-7-7" />
      <stop
         offset="1"
         stop-opacity="0"
         stop-color="#181818"
         id="stop2899-4-5-1-5-0" />
    </linearGradient>
  </defs>
  <metadata
     id="metadata6338">
    <rdf:RDF>
      <cc:Work
         rdf:about="">
        <dc:format>image/svg+xml</dc:format>
        <dc:type
           rdf:resource="http://purl.org/dc/dcmitype/StillImage" />
        <dc:title />
      </cc:Work>
    </rdf:RDF>
  </metadata>
  <g
     transform="matrix(1.5789502,0,0,0.7142857,-5.894751,28.428572)"
     opacity="0.6"
     id="g3712-8-2-4-4">
    <rect
       fill="url(#radialGradient3337-2-2-6)"
       x="38"
       y="40"
       width="5"
       height="7"
       id="rect2801-5-5-7-9" />
    <rect
       fill="url(#radialGradient3339-1-4-0)"
       x="-10"
       y="-47"
       width="5"
       height="7"
       transform="scale(-1,-1)"
       id="rect3696-3-0-3-7" />
    <rect
       fill="url(#linearGradient5775)"
       x="10"
       y="40"
       width="28"
       height="7"
       id="rect3700-5-6-8-4" />
  </g>
  <path
     d="M7.5,5c-1.3936,0-2.5,1.1064-2.5,2.5v49c0,1.394,1.1064,2.5,2.5,2.5h49c1.394,0,2.5-1.106,2.5-2.5v-49c0-1.3936-1.106-2.5-2.5-2.5h-49z"
     fill="url(#radialGradient4440)"
     fill-rule="nonzero"
     style="enable-background:accumulate;color:#000000;"
     id="rect5505-21-3-8-5-2" />
  <rect
     fill="none"
     stroke-width="1"
     x="5.5"
     y="5.4288"
     stroke-miterlimit="4"
     stroke-linecap="round"
     stroke="url(#linearGradient4437)"
     width="53"
     height="53.142"
     ry="2"
     rx="2"
     stroke-dashoffset="0"
     stroke-dasharray="none"
     stroke-linejoin="round"
     opacity="0.5"
     id="rect6741-5-0-2-3" />
  <rect
     fill="none"
     stroke-width="1"
     x="4.5"
     y="4.5"
     stroke-miterlimit="4"
     stroke-linecap="round"
     stroke="#000"
     width="55"
     height="55"
     ry="3"
     rx="3"
     stroke-dashoffset="0"
     stroke-dasharray="none"
     style="enable-background:accumulate;color:#000000;"
     stroke-linejoin="round"
     opacity="0.3"
     id="rect5505-21-3-8-9-1-1" />
  <path
     fill="#000"
     stroke="#000"
     d="m32.025,30.493c-1.3765,0-2.5,1.1288-2.5,2.5v4c0,1.3712,1.1235,2.5,2.5,2.5s2.5-1.1288,2.5-2.5v-4c0-1.3712-1.1235-2.5-2.5-2.5zm0,1.5c0.552,0,1,0.4,1,1,0,0.5-0.448,1-1,1s-1-0.5-1-1c0-0.6,0.448-1,1-1zm0,3c0.552,0,1,0.4,1,1v1c0,0.5-0.448,1-1,1s-1-0.5-1-1v-1c0-0.6,0.448-1,1-1z"
     opacity="0.2"
     id="path8689" />
  <path
     fill="#000"
     d="m30.025,20.993v10c0,1.1,0.895,2,2,2s2-0.9,2-2v-10h-4z"
     opacity="0.5"
     id="path14" />
  <path
     fill="#999"
     d="m32.025,20.993v1h1v-1h-1zm0,1h-1v1h1v-1zm0,1v1h1v-1h-1zm0,1h-1v1h1v-1zm0,1v1h1v-1h-1zm0,1h-1v1h1v-1zm0,1v1h1v-1h-1zm0,1h-1v1h1v-1zm0,1v1h1v-1h-1zm0,1h-1v1h1v-1zm0,1v1c0.552,0,1-0.5,1-1h-1z"
     id="path16" />
  <path
     d="m30.031,4.5,0,8,0,0.5,0,8,4,0,0-8,0-0.5,0-8-4,0z"
     fill="#000"
     opacity="0.5"
     id="path8678" />
  <path
     d="m32.025,12.993,0,1,1,0,0-1zm0,1-1,0,0,1,1,0zm0,1,0,1,1,0,0-1zm0,1-1,0,0,1,1,0zm0,1,0,1,1,0,0-1zm0,1-1,0,0,1,1,0zm0,1,0,1,1,0,0-1zm0,1-1,0,0,1,1,0z"
     fill="#999"
     id="path8680" />
  <path
     d="m31.025,21.993,0-1,1,0,0,1zm0-2,0-1,1,0,0,1zm0-2,0-1,1,0,0,1zm0-2,0-1,1,0,0,1zm0-2,0-1,1,0,0,1z"
     fill="#ecf0f1"
     id="path8682" />
  <path
     fill="#ecf0f1"
     d="m31.025,20.993v1h1v-1h-1zm0,2v1h1v-1h-1zm0,2v1h1v-1h-1zm0,2v1h1v-1h-1zm0,2v1h1v-1h-1zm0,2c0,0.5,0.448,1,1,1v-1h-1z"
     id="path18" />
  <path
     fill="#ecf0f1"
     stroke="#000"
     stroke-opacity="0.46296297"
     d="m32.025,29.493c-1.3765,0-2.5,1.1288-2.5,2.5v4c0,1.3712,1.1235,2.5,2.5,2.5s2.5-1.1288,2.5-2.5v-4c0-1.3712-1.1235-2.5-2.5-2.5zm0,1.5c0.552,0,1,0.4,1,1,0,0.5-0.448,1-1,1s-1-0.5-1-1c0-0.6,0.448-1,1-1zm0,3c0.552,0,1,0.4,1,1v1c0,0.5-0.448,1-1,1s-1-0.5-1-1v-1c0-0.6,0.448-1,1-1z"
     id="path22" />
  <path
     fill="#999"
     d="m32.025,4.993,0,1,1,0,0-1zm0,1-1,0,0,1,1,0zm0,1,0,1,1,0,0-1zm0,1-1,0,0,1,1,0zm0,1,0,1,1,0,0-1zm0,1-1,0,0,1,1,0zm0,1,0,1,1,0,0-1zm0,1-1,0,0,1,1,0z"
     id="path3272" />
  <path
     fill="#ecf0f1"
     d="m31.025,13.993,0-1,1,0,0,1zm0-2,0-1,1,0,0,1zm0-2,0-1,1,0,0,1zm0-2,0-1,1,0,0,1zm0-2,0-1,1,0,0,1z"
     id="path3274" />
</svg>
