<!-- Created with Inkscape (http://www.inkscape.org/) -->
<svg id="svg6333" xmlns:rdf="http://www.w3.org/1999/02/22-rdf-syntax-ns#" xmlns="http://www.w3.org/2000/svg" height="64" width="64" version="1.1" xmlns:cc="http://creativecommons.org/ns#" xmlns:xlink="http://www.w3.org/1999/xlink" xmlns:dc="http://purl.org/dc/elements/1.1/">
 <defs id="defs6335">
  <linearGradient id="linearGradient4437" y2="43" gradientUnits="userSpaceOnUse" x2="24" gradientTransform="matrix(1.4324324,0,0,1.4362832,-2.378381,-2.4707782)" y1="5" x1="24">
   <stop id="stop3926-9-4-9-6" stop-color="#FFF" offset="0"/>
   <stop id="stop3928-9-8-6-5" stop-color="#FFF" stop-opacity="0.23529412" offset="0.063165"/>
   <stop id="stop3930-3-5-1-7" stop-color="#FFF" stop-opacity="0.15686275" offset="0.95056"/>
   <stop id="stop3932-8-0-4-8" stop-color="#FFF" stop-opacity="0.39215687" offset="1"/>
  </linearGradient>
  <radialGradient id="radialGradient4440" fx="6.2002" gradientUnits="userSpaceOnUse" cy="9.9571" cx="6.7304" gradientTransform="matrix(0,13.393984,-16.443533,0,196.90205,-114.89368)" r="12.672">
   <stop id="stop3205" stop-color="#fcfcfc" offset="0"/>
   <stop id="stop3207" stop-color="#c4c4c4" offset="1"/>
  </radialGradient>
  <radialGradient id="radialGradient3337-2-2-6" gradientUnits="userSpaceOnUse" cy="43.5" cx="4.993" gradientTransform="matrix(2.003784,0,0,1.4,27.98813,-17.4)" r="2.5">
   <stop id="stop2883-4-0-1-8-2" stop-color="#181818" offset="0"/>
   <stop id="stop2885-9-2-9-6-5" stop-color="#181818" stop-opacity="0" offset="1"/>
  </radialGradient>
  <radialGradient id="radialGradient3339-1-4-0" gradientUnits="userSpaceOnUse" cy="43.5" cx="4.993" gradientTransform="matrix(2.003784,0,0,1.4,-20.01187,-104.4)" r="2.5">
   <stop id="stop2889-7-9-6-9-3" stop-color="#181818" offset="0"/>
   <stop id="stop2891-6-6-1-7-7" stop-color="#181818" stop-opacity="0" offset="1"/>
  </radialGradient>
  <linearGradient id="linearGradient5775" y2="39.999" gradientUnits="userSpaceOnUse" y1="47.028" x2="25.058" x1="25.058">
   <stop id="stop2895-8-9-9-1-5" stop-color="#181818" stop-opacity="0" offset="0"/>
   <stop id="stop2897-7-8-7-7-7" stop-color="#181818" offset="0.5"/>
   <stop id="stop2899-4-5-1-5-0" stop-color="#181818" stop-opacity="0" offset="1"/>
  </linearGradient>
 </defs>
 <metadata id="metadata6338">
  <rdf:RDF>
   <cc:Work rdf:about="">
    <dc:format>image/svg+xml</dc:format>
    <dc:type rdf:resource="http://purl.org/dc/dcmitype/StillImage"/>
    <dc:title/>
   </cc:Work>
  </rdf:RDF>
 </metadata>
 <g id="g3712-8-2-4-4" opacity="0.6" transform="matrix(1.5789502,0,0,0.7142857,-5.894751,28.428572)">
  <rect id="rect2801-5-5-7-9" height="7" width="5" y="40" x="38" fill="url(#radialGradient3337-2-2-6)"/>
  <rect id="rect3696-3-0-3-7" transform="scale(-1,-1)" height="7" width="5" y="-47" x="-10" fill="url(#radialGradient3339-1-4-0)"/>
  <rect id="rect3700-5-6-8-4" height="7" width="28" y="40" x="10" fill="url(#linearGradient5775)"/>
 </g>
 <path id="rect5505-21-3-8-5-2" style="enable-background:accumulate;color:#000000;" fill-rule="nonzero" fill="url(#radialGradient4440)" d="M7.5,5c-1.3936,0-2.5,1.1064-2.5,2.5v49c0,1.394,1.1064,2.5,2.5,2.5h49c1.394,0,2.5-1.106,2.5-2.5v-49c0-1.3936-1.106-2.5-2.5-2.5h-49z"/>
 <rect id="rect6741-5-0-2-3" opacity="0.5" stroke-linejoin="round" stroke-dasharray="none" stroke-dashoffset="0" rx="2" ry="2" height="53.142" width="53" stroke="url(#linearGradient4437)" stroke-linecap="round" stroke-miterlimit="4" y="5.4288" x="5.5" stroke-width="1" fill="none"/>
 <rect id="rect5505-21-3-8-9-1-1" opacity="0.3" stroke-linejoin="round" style="enable-background:accumulate;color:#000000;" stroke-dasharray="none" stroke-dashoffset="0" rx="3" ry="3" height="55" width="55" stroke="#000" stroke-linecap="round" stroke-miterlimit="4" y="4.5" x="4.5" stroke-width="1" fill="none"/>
 <path id="path8689" opacity="0.2" d="m32.025,30.493c-1.3765,0-2.5,1.1288-2.5,2.5v4c0,1.3712,1.1235,2.5,2.5,2.5s2.5-1.1288,2.5-2.5v-4c0-1.3712-1.1235-2.5-2.5-2.5zm0,1.5c0.552,0,1,0.4,1,1,0,0.5-0.448,1-1,1s-1-0.5-1-1c0-0.6,0.448-1,1-1zm0,3c0.552,0,1,0.4,1,1v1c0,0.5-0.448,1-1,1s-1-0.5-1-1v-1c0-0.6,0.448-1,1-1z" stroke="#000" fill="#000"/>
 <path id="path14" opacity="0.5" d="m30.025,20.993v10c0,1.1,0.895,2,2,2s2-0.9,2-2v-10h-4z" fill="#000"/>
 <path id="path16" d="m32.025,20.993v1h1v-1h-1zm0,1h-1v1h1v-1zm0,1v1h1v-1h-1zm0,1h-1v1h1v-1zm0,1v1h1v-1h-1zm0,1h-1v1h1v-1zm0,1v1h1v-1h-1zm0,1h-1v1h1v-1zm0,1v1h1v-1h-1zm0,1h-1v1h1v-1zm0,1v1c0.552,0,1-0.5,1-1h-1z" fill="#999"/>
 <path id="path8678" opacity="0.5" fill="#000" d="m30.031,4.5,0,8,0,0.5,0,8,4,0,0-8,0-0.5,0-8-4,0z"/>
 <path id="path8680" fill="#999" d="m32.025,12.993,0,1,1,0,0-1zm0,1-1,0,0,1,1,0zm0,1,0,1,1,0,0-1zm0,1-1,0,0,1,1,0zm0,1,0,1,1,0,0-1zm0,1-1,0,0,1,1,0zm0,1,0,1,1,0,0-1zm0,1-1,0,0,1,1,0z"/>
 <path id="path8682" fill="#ecf0f1" d="m31.025,21.993,0-1,1,0,0,1zm0-2,0-1,1,0,0,1zm0-2,0-1,1,0,0,1zm0-2,0-1,1,0,0,1zm0-2,0-1,1,0,0,1z"/>
 <path id="path18" d="m31.025,20.993v1h1v-1h-1zm0,2v1h1v-1h-1zm0,2v1h1v-1h-1zm0,2v1h1v-1h-1zm0,2v1h1v-1h-1zm0,2c0,0.5,0.448,1,1,1v-1h-1z" fill="#ecf0f1"/>
 <path id="path22" d="m32.025,29.493c-1.3765,0-2.5,1.1288-2.5,2.5v4c0,1.3712,1.1235,2.5,2.5,2.5s2.5-1.1288,2.5-2.5v-4c0-1.3712-1.1235-2.5-2.5-2.5zm0,1.5c0.552,0,1,0.4,1,1,0,0.5-0.448,1-1,1s-1-0.5-1-1c0-0.6,0.448-1,1-1zm0,3c0.552,0,1,0.4,1,1v1c0,0.5-0.448,1-1,1s-1-0.5-1-1v-1c0-0.6,0.448-1,1-1z" stroke-opacity="0.46296297" stroke="#000" fill="#ecf0f1"/>
 <path id="path3272" d="m32.025,4.993,0,1,1,0,0-1zm0,1-1,0,0,1,1,0zm0,1,0,1,1,0,0-1zm0,1-1,0,0,1,1,0zm0,1,0,1,1,0,0-1zm0,1-1,0,0,1,1,0zm0,1,0,1,1,0,0-1zm0,1-1,0,0,1,1,0z" fill="#999"/>
 <path id="path3274" d="m31.025,13.993,0-1,1,0,0,1zm0-2,0-1,1,0,0,1zm0-2,0-1,1,0,0,1zm0-2,0-1,1,0,0,1zm0-2,0-1,1,0,0,1z" fill="#ecf0f1"/>
</svg>
