<svg xmlns="http://www.w3.org/2000/svg" xmlns:xlink="http://www.w3.org/1999/xlink" width="64" height="64">
    <defs>
        <linearGradient id="a">
            <stop stop-color="#fff" offset="0"/>
            <stop stop-opacity=".235" stop-color="#fff" offset=".424"/>
            <stop stop-opacity=".157" stop-color="#fff" offset=".821"/>
            <stop stop-opacity=".392" stop-color="#fff" offset="1"/>
        </linearGradient>
        <linearGradient x1="71.204" y1="15.369" x2="71.204" y2="40.496" id="g" xlink:href="#a" gradientUnits="userSpaceOnUse" gradientTransform="translate(-135.945 -32.843) scale(2.32687)"/>
        <linearGradient id="b">
            <stop stop-color="#90dbec" offset="0"/>
            <stop stop-color="#42baea" offset=".262"/>
            <stop stop-color="#3689e6" offset=".705"/>
            <stop stop-color="#2b63a0" offset="1"/>
        </linearGradient>
        <radialGradient cx="1.198" cy="8.45" r="20" fx="1.198" fy="8.45" id="f" xlink:href="#b" gradientUnits="userSpaceOnUse" gradientTransform="matrix(0 7.19513 -7.61158 0 96.316 -28.424)"/>
        <radialGradient r="62.769" fy="185.297" fx="99.189" cy="185.297" cx="99.189" gradientTransform="matrix(.38235 0 0 .11152 -5.925 36.336)" gradientUnits="userSpaceOnUse" id="d" xlink:href="#c"/>
        <linearGradient id="c">
            <stop offset="0"/>
            <stop stop-opacity="0" offset="1"/>
        </linearGradient>
        <radialGradient r="62.769" fy="185.297" fx="99.189" cy="185.297" cx="99.189" gradientTransform="matrix(.2549 0 0 .07966 6.716 44.24)" gradientUnits="userSpaceOnUse" id="e" xlink:href="#c"/>
    </defs>
    <path transform="translate(0 -.002)" fill="url(#d)" opacity=".2" d="M56 57.002a24 6.999 0 1 1-48 0 24 6.999 0 1 1 48 0z"/>
    <path transform="translate(0 -.002)" fill="url(#e)" opacity=".4" d="M48 59.002a16 4.999 0 1 1-32 0 16 4.999 0 1 1 32 0z"/>
    <path overflow="visible" fill="url(#f)" color="#000" d="M32 2.5C15.723 2.5 2.5 15.723 2.5 32S15.723 61.5 32 61.5 61.5 48.277 61.5 32 48.277 2.5 32 2.5z" style="marker:none"/>
    <path overflow="visible" color="#000" opacity=".15" d="M32 11.414c-11.921 0-21.585 9.664-21.585 21.586 0 11.92 9.664 21.585 21.585 21.585 11.921 0 21.585-9.664 21.585-21.585 0-11.922-9.664-21.586-21.585-21.586zm0 1.799c9.064 0 16.704 6.094 19.047 14.408a34.331 34.331 0 0 1-8.387 10.94c-1.68 1.454-3.514 2.75-5.54 3.664-2.026.913-4.255 1.431-6.474 1.304a11.2 11.2 0 0 1-4.773-1.37 36.004 36.004 0 0 0 10.217-8.237c1.876-2.197 3.517-4.694 4.148-7.513.316-1.409.37-2.885.075-4.299-.296-1.414-.95-2.76-1.939-3.813-.966-1.028-2.235-1.756-3.595-2.132-1.36-.375-2.808-.404-4.196-.15-2.776.507-5.254 2.12-7.242 4.123-3.504 3.53-5.67 8.513-5.273 13.471.2 2.48 1.03 4.915 2.454 6.955a13.1 13.1 0 0 0 1.04 1.3 32.369 32.369 0 0 1-6.399 1.533A19.691 19.691 0 0 1 12.213 33c0-10.928 8.86-19.787 19.787-19.787zm.126 3.998c1.39.002 2.791.423 3.901 1.261 1 .756 1.74 1.83 2.16 3.01.42 1.182.529 2.464.385 3.709-.286 2.49-1.542 4.773-3.06 6.768-2.687 3.531-6.258 6.358-10.23 8.337-.407.202-.82.395-1.235.58a10.216 10.216 0 0 1-2.17-2.653c-1.18-2.09-1.569-4.57-1.34-6.96.23-2.388 1.049-4.69 2.15-6.821 1.276-2.472 3.016-4.813 5.452-6.156 1.218-.672 2.596-1.077 3.987-1.075zm19.483 13.14c.116.866.178 1.75.178 2.649 0 10.927-8.86 19.786-19.787 19.786-6.137 0-11.622-2.794-15.251-7.18a35.62 35.62 0 0 0 6.53-2.169c.918.7 1.932 1.273 3.01 1.686 3.105 1.19 6.63 1.018 9.772-.07 3.142-1.087 5.928-3.04 8.357-5.31a35.976 35.976 0 0 0 7.191-9.392z" style="marker:none"/>
    <path overflow="visible" color="#000" opacity=".05" d="M32 10.438C19.559 10.438 9.437 20.557 9.437 33 9.438 45.441 19.56 55.563 32 55.563c12.441 0 22.563-10.122 22.563-22.563 0-12.441-10.122-22.563-22.563-22.563zm0 3.75c8.503 0 15.626 5.618 17.969 13.343-1.952 3.915-4.633 7.451-7.938 10.313-1.632 1.413-3.398 2.637-5.312 3.5-1.912.862-3.97 1.335-6 1.218-.962-.055-1.902-.273-2.813-.593 3.325-2.025 6.377-4.475 8.907-7.438 1.927-2.257 3.69-4.857 4.374-7.906.343-1.53.389-3.126.063-4.688-.328-1.569-1.056-3.108-2.188-4.312a8.712 8.712 0 0 0-4.03-2.406c-1.514-.418-3.107-.434-4.626-.156-3.03.553-5.662 2.27-7.75 4.374-3.682 3.71-5.986 8.931-5.562 14.22.212 2.645 1.128 5.279 2.656 7.468.037.054.087.103.125.156-1.377.413-2.767.78-4.188 1-1.56-2.743-2.5-5.89-2.5-9.281 0-10.408 8.405-18.813 18.813-18.813zm.125 4c1.203.001 2.394.368 3.313 1.062a5.472 5.472 0 0 1 1.843 2.531c.362 1.017.442 2.161.313 3.282-.258 2.238-1.387 4.397-2.844 6.312-2.588 3.401-6.053 6.112-9.906 8.031-.188.094-.353.193-.532.282-.603-.597-1.186-1.217-1.593-1.938-1.064-1.884-1.432-4.185-1.219-6.406.214-2.228.97-4.413 2.031-6.469 1.228-2.378 2.872-4.542 5.063-5.75 1.085-.599 2.322-.94 3.531-.938zm18.656 15.218C50.561 43.623 42.27 51.813 32 51.813c-5.312 0-10.016-2.277-13.438-5.813 1.572-.432 3.124-.891 4.625-1.531.86.6 1.76 1.183 2.75 1.562 3.36 1.289 7.114 1.089 10.438-.062 3.313-1.147 6.193-3.2 8.688-5.532 2.218-2.073 4.077-4.476 5.718-7.03z" style="marker:none"/>
    <path overflow="visible" fill="#fff" color="#000" d="M32 10.415c-11.921 0-21.585 9.664-21.585 21.585 0 11.921 9.664 21.585 21.585 21.585 11.921 0 21.585-9.664 21.585-21.585 0-11.921-9.664-21.585-21.585-21.585zm0 1.798c9.064 0 16.704 6.095 19.047 14.409A34.331 34.331 0 0 1 42.66 37.56c-1.68 1.455-3.514 2.752-5.54 3.665-2.026.914-4.255 1.432-6.474 1.305a11.2 11.2 0 0 1-4.773-1.37 36.004 36.004 0 0 0 10.217-8.238c1.876-2.197 3.517-4.694 4.148-7.512.316-1.41.37-2.886.075-4.3-.296-1.413-.95-2.76-1.939-3.813-.966-1.028-2.235-1.756-3.595-2.131-1.36-.376-2.808-.405-4.196-.151-2.776.507-5.254 2.12-7.242 4.124-3.504 3.53-5.67 8.512-5.273 13.47.2 2.48 1.03 4.916 2.454 6.955.317.455.667.889 1.04 1.3a32.369 32.369 0 0 1-6.399 1.533A19.691 19.691 0 0 1 12.213 32c0-10.928 8.86-19.787 19.787-19.787zm.126 3.998c1.39.002 2.791.423 3.901 1.262 1 .755 1.74 1.83 2.16 3.01.42 1.181.529 2.463.385 3.708-.286 2.49-1.542 4.773-3.06 6.768-2.687 3.532-6.258 6.359-10.23 8.337-.407.203-.82.395-1.235.58a10.216 10.216 0 0 1-2.17-2.653c-1.18-2.089-1.569-4.57-1.34-6.959.23-2.388 1.049-4.69 2.15-6.822 1.276-2.471 3.016-4.813 5.452-6.156 1.218-.672 2.596-1.077 3.987-1.075zm19.483 13.14c.116.867.178 1.75.178 2.649 0 10.928-8.86 19.787-19.787 19.787-6.137 0-11.622-2.794-15.251-7.18a35.62 35.62 0 0 0 6.53-2.17c.918.7 1.932 1.273 3.01 1.687 3.105 1.19 6.63 1.018 9.772-.07 3.142-1.088 5.928-3.04 8.357-5.31a35.976 35.976 0 0 0 7.191-9.393z" style="marker:none"/>
    <path overflow="visible" stroke-linejoin="round" stroke-linecap="round" stroke="url(#g)" fill="none" color="#000" opacity=".5" d="M60.5 32c0 15.74-12.76 28.5-28.5 28.5S3.5 47.74 3.5 32 16.26 3.5 32 3.5 60.5 16.26 60.5 32z" style="marker:none"/>
    <path fill="none" overflow="visible" stroke-linejoin="round" stroke-linecap="round" stroke="#00537d" color="#000" opacity=".5" d="M32 2.5C15.723 2.5 2.5 15.723 2.5 32S15.723 61.5 32 61.5 61.5 48.277 61.5 32 48.277 2.5 32 2.5z" style="marker:none"/>
</svg>
