<svg height="16" width="16" version="1.1" xmlns="http://www.w3.org/2000/svg" ><path class="symbolic" d="m379.25-11c-2.899 0-5.25 2.351-5.25 5.25s2.351 5.25 5.25 5.25c1.128 0 2.175-.363 3.03-.969l4.219 4.219c.343.343.907.343 1.25 0s.343-.907 0-1.25l-4.219-4.219c.605-.856.969-1.903.969-3.03 0-2.899-2.351-5.25-5.25-5.25m0 1.375c2.14 0 3.875 1.735 3.875 3.875s-1.735 3.875-3.875 3.875-3.875-1.735-3.875-3.875 1.735-3.875 3.875-3.875" fill="#bebebe" color="#bebebe" transform="translate(-373 12)"/></svg>