<?xml version="1.0" encoding="UTF-8" standalone="no"?>
<svg
   xmlns:dc="http://purl.org/dc/elements/1.1/"
   xmlns:cc="http://creativecommons.org/ns#"
   xmlns:rdf="http://www.w3.org/1999/02/22-rdf-syntax-ns#"
   xmlns:svg="http://www.w3.org/2000/svg"
   xmlns="http://www.w3.org/2000/svg"
   version="1.1"
   width="16.004"
   height="16.004"
   id="svg7384">
  <metadata
     id="metadata8">
    <rdf:RDF>
      <cc:Work
         rdf:about="">
        <dc:format>image/svg+xml</dc:format>
        <dc:type
           rdf:resource="http://purl.org/dc/dcmitype/StillImage" />
      </cc:Work>
    </rdf:RDF>
  </metadata>
  <defs
     id="defs7386" />
  <g
     transform="translate(-772.99828,584)"
     id="layer13">
    <path
       fill="#bebebe"
       fill-rule="nonzero"
       d="m782.94-584c-0.0645,0.008-0.12753,0.0279-0.1875,0.0625l-5.0625,2.9375h3.9688l0.8125-0.46875,0.28125,0.46875h2.2812l-1.5938-2.75c-0.10388-0.17992-0.30663-0.27423-0.5-0.25zm-6.9375,3.9688-2.75,1.5938c-0.23989,0.1385-0.326,0.44761-0.1875,0.6875l2.9375,5.0625v-3.9688l-0.46875-0.8125,0.46875-0.28125v-2.2812zm1.5,0.0312c-0.277,0-0.5,0.223-0.5,0.5v11c0,0.277,0.223,0.5,0.5,0.5h11c0.277,0,0.5-0.223,0.5-0.5v-11c0-0.277-0.223-0.5-0.5-0.5h-11zm1.5,2,8,0,0,7-8,0,0-7z"
       style="enable-background:accumulate;color:#000000;"
       id="rect6430"
       class="svg" />
  </g>
</svg>
