<?xml version="1.0" encoding="UTF-8" standalone="no"?>
<svg
   xmlns:dc="http://purl.org/dc/elements/1.1/"
   xmlns:cc="http://creativecommons.org/ns#"
   xmlns:rdf="http://www.w3.org/1999/02/22-rdf-syntax-ns#"
   xmlns:svg="http://www.w3.org/2000/svg"
   xmlns="http://www.w3.org/2000/svg"
   version="1.1"
   width="16"
   height="16"
   id="svg7384">
  <metadata
     id="metadata8">
    <rdf:RDF>
      <cc:Work
         rdf:about="">
        <dc:format>image/svg+xml</dc:format>
        <dc:type
           rdf:resource="http://purl.org/dc/dcmitype/StillImage" />
      </cc:Work>
    </rdf:RDF>
  </metadata>
  <defs
     id="defs7386" />
  <g
     transform="translate(-793.00018,584)"
     id="layer13">
    <path
       fill="#bebebe"
       fill-rule="nonzero"
       d="m794.75-583c-0.4155,0-0.75,0.3345-0.75,0.75v13.5c0,0.4155,0.3345,0.75,0.75,0.75h12.5c0.4155,0,0.75-0.3345,0.75-0.75v-13.5c0-0.4155-0.3345-0.75-0.75-0.75h-12.5zm0.25,1,1,0,0,1-1,0,0-1zm2.5,0,7,0c0.277,0,0.5,0.223,0.5,0.5v5c0,0.277-0.223,0.5-0.5,0.5h-7c-0.277,0-0.5-0.223-0.5-0.5v-5c0-0.277,0.223-0.5,0.5-0.5zm8.5,0,1,0,0,1-1,0,0-1zm-11,2,1,0,0,1-1,0,0-1zm11,0,1,0,0,1-1,0,0-1zm-11,2,1,0,0,1-1,0,0-1zm11,0,1,0,0,1-1,0,0-1zm-11,2,1,0,0,1-1,0,0-1zm11,0,1,0,0,1-1,0,0-1zm-8.5,1,7,0c0.277,0,0.5,0.223,0.5,0.5v5c0,0.277-0.223,0.5-0.5,0.5h-7c-0.277,0-0.5-0.223-0.5-0.5v-5c0-0.277,0.223-0.5,0.5-0.5zm-2.5,1,1,0,0,1-1,0,0-1zm11,0,1,0,0,1-1,0,0-1zm-11,2,1,0,0,1-1,0,0-1zm11,0,1,0,0,1-1,0,0-1zm-11,2,1,0,0,1-1,0,0-1zm11,0,1,0,0,1-1,0,0-1z"
       style="enable-background:accumulate;color:#bebebe;"
       id="rect3032"
       class="svg" />
  </g>
</svg>
