<?xml version="1.0" encoding="UTF-8" standalone="no"?>
<svg id="svg7384" xmlns:rdf="http://www.w3.org/1999/02/22-rdf-syntax-ns#" xmlns="http://www.w3.org/2000/svg" height="16.008" width="16" version="1.1" xmlns:cc="http://creativecommons.org/ns#" xmlns:dc="http://purl.org/dc/elements/1.1/">
 <defs id="defs7386"></defs>
 <g id="layer13" transform="translate(-713.0004,584)">
  <path class="svg" id="rect2996-2" style="enable-background:accumulate;color:#bebebe;" d="m726.37-584-7.375,1.9062c-0.554,0.14844-1,0.73896-1,1.3125v9.0938c-0.56177-0.29416-1.2833-0.4131-2.0312-0.21875-1.3498,0.35071-2.1956,1.4842-1.9062,2.5312,0.28933,1.0471,1.619,1.632,2.9688,1.2812,1.0768-0.2798,1.8191-1.0714,1.9375-1.9062l0.0312-8.5938,7-1.875v6.7812c-0.56177-0.29416-1.2833-0.4131-2.0312-0.21875-1.3498,0.35071-2.1956,1.4842-1.9062,2.5312,0.28933,1.0471,1.619,1.632,2.9688,1.2812,1.0768-0.2798,1.8191-1.0714,1.9375-1.9062l0.0312-11.188c0-0.43016-0.26584-0.75199-0.625-0.8125z" fill-rule="nonzero" fill="#bebebe"/>
 </g>
</svg>
