<svg xmlns="http://www.w3.org/2000/svg" xmlns:xlink="http://www.w3.org/1999/xlink" viewBox="0 0 64 64"><defs><linearGradient gradientTransform="matrix(.97973 0 0 .994 8.441 5.168)" gradientUnits="userSpaceOnUse" xlink:href="#a" id="o" y2="24.628" x2="20.05" y1="15.298" x1="16.626"/><linearGradient gradientTransform="matrix(1.03423 0 0 .95412 7.278 -1.357)" gradientUnits="userSpaceOnUse" id="m" y2="20.443" x2="0" y1="35.75"><stop/><stop stop-opacity=".498" offset=".5"/><stop stop-opacity="0" offset="1"/></linearGradient><linearGradient id="a"><stop stop-color="#fff"/><stop stop-opacity="0" stop-color="#fff" offset="1"/></linearGradient><linearGradient gradientUnits="userSpaceOnUse" id="g" y2="39.999" x2="0" y1="47.03"><stop stop-opacity="0" stop-color="#181818"/><stop stop-color="#181818" offset=".5"/><stop stop-opacity="0" stop-color="#181818" offset="1"/></linearGradient><linearGradient spreadMethod="reflect" gradientTransform="matrix(1.03629 0 0 .89404 7.129 .078)" gradientUnits="userSpaceOnUse" xlink:href="#a" id="l" y2="15.738" x2="0" y1="30.19"/><linearGradient spreadMethod="reflect" gradientTransform="matrix(1.03629 0 0 .89404 7.129 -1.585)" gradientUnits="userSpaceOnUse" id="k" y2="15.738" x2="0" y1="30.19"><stop stop-color="#a0a0a0"/><stop stop-opacity=".635" stop-color="#8f8f8f" offset=".5"/><stop stop-opacity="0" stop-color="#9d9d9d" offset="1"/></linearGradient><linearGradient id="d"><stop stop-color="#181818"/><stop stop-opacity="0" stop-color="#181818" offset="1"/></linearGradient><linearGradient gradientTransform="matrix(1.02222 0 0 .84848 7.467 1.242)" gradientUnits="userSpaceOnUse" id="j" y2="45.24" x2="0" y1="10.637"><stop stop-color="#f4f4f4"/><stop stop-color="#dbdbdb" offset="1"/></linearGradient><linearGradient gradientUnits="userSpaceOnUse" xlink:href="#b" id="h" y2="3.652" x2="0" y1="60.21"/><linearGradient spreadMethod="reflect" gradientTransform="matrix(1.03629 0 0 .89404 7.129 -3.552)" gradientUnits="userSpaceOnUse" xlink:href="#a" id="n" y2="15.738" x2="0" y1="30.19"/><linearGradient gradientUnits="userSpaceOnUse" id="t" y2="43.96" x2="0" y1="49.25"><stop stop-color="#ffeeb6"/><stop stop-color="#feeeb7" offset="1"/></linearGradient><linearGradient gradientUnits="userSpaceOnUse" xlink:href="#c" id="u" y2="59.22" x2="0" y1="4.784"/><linearGradient gradientUnits="userSpaceOnUse" xlink:href="#c" id="v" y2="61.3" x2="0" y1="14.774"/><linearGradient id="c"><stop stop-color="#fff"/><stop stop-opacity=".235" stop-color="#fff" offset=".063"/><stop stop-opacity=".157" stop-color="#fff" offset=".951"/><stop stop-opacity=".392" stop-color="#fff" offset="1"/></linearGradient><linearGradient gradientTransform="matrix(1.21622 0 0 .72973 2.811 7.486)" gradientUnits="userSpaceOnUse" xlink:href="#c" id="p" y2="43" x2="0" y1="5"/><linearGradient id="b"><stop stop-color="#b67926"/><stop stop-color="#eab41a" offset="1"/></linearGradient><linearGradient gradientUnits="userSpaceOnUse" xlink:href="#b" id="q" y2="3.652" x2="0" y1="60.21"/><linearGradient gradientTransform="matrix(1.42105 0 0 1.43396 -2.105 -3.604)" gradientUnits="userSpaceOnUse" id="s" y2="6" x2="0" y1="32"><stop stop-color="#fff0bf"/><stop stop-color="#fdde76" offset="1"/></linearGradient><linearGradient spreadMethod="reflect" gradientTransform="matrix(1.03629 0 0 .89404 7.129 -1.585)" gradientUnits="userSpaceOnUse" id="r" y2="15.738" x2="0" y1="35.429"><stop stop-color="#969696"/><stop stop-opacity=".635" stop-color="#858585" offset=".5"/><stop stop-opacity="0" stop-color="#939393" offset="1"/></linearGradient><radialGradient gradientTransform="matrix(0 2.16609 -1.58828 0 45.42 -.339)" gradientUnits="userSpaceOnUse" id="i" r="20" cy="8.45" cx="19.74"><stop stop-color="#fff3cb"/><stop stop-color="#fdde76" offset=".262"/><stop stop-color="#f9c440" offset=".661"/><stop stop-color="#e48b20" offset="1"/></radialGradient><radialGradient gradientTransform="matrix(2.0038 0 0 1.4 -20.01 -104.4)" gradientUnits="userSpaceOnUse" xlink:href="#d" id="f" r="2.5" cy="43.5" cx="4.993"/><radialGradient gradientTransform="matrix(2.0038 0 0 1.4 27.988 -17.4)" gradientUnits="userSpaceOnUse" xlink:href="#d" id="e" r="2.5" cy="43.5" cx="4.993"/></defs><g opacity=".4"><path d="M38 40h5v7h-5z" fill="url(#e)" transform="matrix(1.57895 0 0 .71429 -5.895 28.429)"/><path d="M-10-47h5v7h-5z" fill="url(#f)" transform="matrix(-1.57895 0 0 -.71429 -5.895 28.429)"/><path d="M10 40h28v7H10z" fill="url(#g)" transform="matrix(1.57895 0 0 .71429 -5.895 28.429)"/></g><g color="#000"><rect stroke-linecap="round" stroke-linejoin="round" stroke="url(#h)" fill="url(#i)" y="4.5" x="4.5" rx="3" height="55" width="55"/><path fill="#b3b3b3" d="M16 39.06v2.938h3v4.094h26v-4.094h3V39.06H16"/></g><g stroke="#000" fill="none"><path opacity=".2" d="M19.01 43.5h25.977"/><path opacity=".17" d="M19.308 45.4h25.385"/></g><g fill-rule="evenodd"><rect fill="#8f8f8f" y="11" x="9" rx="2.821" height="29" width="46"/><rect fill="url(#j)" y="11" x="9" rx="1.41" height="28" width="46"/></g><g fill="none"><path stroke="url(#k)" d="M26.463 25.683L12.498 37.871zm11.11.056l14.06 11.908z"/><path stroke="url(#l)" opacity=".7" d="M26.463 27.346l-12.796 11zm11.11.056l12.763 10.944z"/><path stroke="url(#m)" opacity=".06" d="M15.899 19.07L32.1 31.587l16-12.517"/><path stroke="url(#n)" opacity=".7" d="M10.484 11.08l21.517 16.662 21.842-16.774"/></g><path fill-rule="evenodd" fill="url(#o)" opacity=".2" d="M10.978 10.846c-.807 0-1.542.446-1.542 1.124l.015 17.21c1.298-.018 44.13-6.758 45.11-7.082v-9.909c0-.518-.679-1.343-1.378-1.343z"/><g fill="none"><rect stroke-linecap="round" stroke-linejoin="round" stroke="url(#p)" y="11.5" x="9.5" rx=".705" height="27" width="45"/><path color="#000" stroke="#b67926" opacity=".3" d="M8.936 8.5c-.464 0-.436.042-.436.38v28.78c0 .627-.08.84.745.84h7.313c1.741 0 2.942 1.351 2.942 3.262V45.5h25v-4.209c0-1.408 1.358-2.791 2.763-2.791h7.738c.511 0 .499-.016.499-.523V8.867c0-.49-.021-.363-.456-.363z"/><rect stroke="#000" opacity=".1" y="10.5" x="8.5" rx="2.115" height="29" width="47"/><path color="#000" stroke-linecap="round" stroke-linejoin="round" stroke="url(#q)" opacity=".1" d="M56.905 42.569c1.349-.073 2.521-1.245 2.595-2.595m-14.06 6.834v-4.099c0-.078.054-.132.132-.132h10.985m-11.126 3.437v.793c0 1.563-1.29 2.692-2.853 2.692h-21.15c-1.563 0-2.857-1.13-2.857-2.692v-4.099a.126.126 0 0 0-.132-.132s-9.795.011-11.331-.008c-1.349-.073-2.521-1.245-2.595-2.595"/><path stroke="url(#r)" d="M10.484 13.04l21.517 16.662 21.842-16.774"/></g><g color="#000"><path fill="url(#s)" d="M7.5 5A2.495 2.495 0 0 0 5 7.5v32C5 40.885 6.115 42 7.5 42h11.499v-.5c0-1.385-1.115-2.5-2.5-2.5H8.498a.499.499 0 0 1-.5-.5v-30c0-.277.223-.5.5-.5h47c.277 0 .5.223.5.5v30c0 .277-.223.5-.5.5h-8.001a2.495 2.495 0 0 0-2.5 2.5v.5h11.501c1.385 0 2.5-1.115 2.5-2.5v-32c0-1.385-1.115-2.5-2.5-2.5h-49"/><path fill="url(#t)" d="M19 43.5v3c0 1.385 1.115 2.5 2.5 2.5h21c1.385 0 2.5-1.115 2.5-2.5v-3c0 1.385-1.115 2.5-2.5 2.5h-21a2.495 2.495 0 0 1-2.5-2.5"/></g><g fill="none"><rect stroke-linecap="round" stroke-linejoin="round" stroke="url(#u)" opacity=".8" y="5.5" x="5.5" rx="2" height="53" width="53"/><path stroke="#000" opacity=".2" d="M19.01 41.5h25.977"/><path color="#000" stroke-linecap="round" stroke-linejoin="round" stroke="url(#v)" d="M56.905 43.569c.282-.015.556-.079.814-.182m-51.46-.014c.268.111.554.179.848.195 1.536.019 10.331.008 10.331.008.078 0 .132.054.132.132v3.499c0 1.563 1.839 3.292 3.402 3.292h22.16c1.563 0 3.299-1.754 3.299-3.316l.008-3.475c0-.078.054-.132.132-.132h9.985"/></g></svg>