<svg xmlns="http://www.w3.org/2000/svg" xmlns:xlink="http://www.w3.org/1999/xlink" viewBox="0 0 64 64"><defs><linearGradient x1="16.626" y1="15.298" x2="20.05" y2="24.628" id="9" xlink:href="#A" gradientUnits="userSpaceOnUse" gradientTransform="matrix(.97973 0 0 .994 8.441 5.168)"/><linearGradient y1="35.75" x2="0" y2="20.443" id="C" gradientUnits="userSpaceOnUse" gradientTransform="matrix(1.03423 0 0 .95412 7.278-1.357)"><stop/><stop offset=".5" stop-opacity=".498"/><stop offset="1" stop-opacity="0"/></linearGradient><linearGradient id="A"><stop stop-color="#fff"/><stop offset="1" stop-color="#fff" stop-opacity="0"/></linearGradient><linearGradient y1="47.03" x2="0" y2="39.999" id="L" gradientUnits="userSpaceOnUse"><stop stop-color="#181818" stop-opacity="0"/><stop offset=".5" stop-color="#181818"/><stop offset="1" stop-color="#181818" stop-opacity="0"/></linearGradient><linearGradient y1="30.19" x2="0" y2="15.738" id="D" xlink:href="#A" gradientUnits="userSpaceOnUse" gradientTransform="matrix(1.03629 0 0 .89404 7.129.078)" spreadMethod="reflect"/><linearGradient y1="30.19" x2="0" y2="15.738" id="E" gradientUnits="userSpaceOnUse" gradientTransform="matrix(1.03629 0 0 .89404 7.129-1.585)" spreadMethod="reflect"><stop stop-color="#a0a0a0"/><stop offset=".5" stop-color="#8f8f8f" stop-opacity=".635"/><stop offset="1" stop-color="#9d9d9d" stop-opacity="0"/></linearGradient><linearGradient id="J"><stop stop-color="#181818"/><stop offset="1" stop-color="#181818" stop-opacity="0"/></linearGradient><linearGradient y1="10.637" x2="0" y2="45.24" id="F" gradientUnits="userSpaceOnUse" gradientTransform="matrix(1.02222 0 0 .84848 7.467 1.242)"><stop stop-color="#f4f4f4"/><stop offset="1" stop-color="#dbdbdb"/></linearGradient><linearGradient y1="60.21" x2="0" y2="3.652" id="H" xlink:href="#7" gradientUnits="userSpaceOnUse"/><linearGradient y1="30.19" x2="0" y2="15.738" id="B" xlink:href="#A" gradientUnits="userSpaceOnUse" gradientTransform="matrix(1.03629 0 0 .89404 7.129-3.552)" spreadMethod="reflect"/><linearGradient y1="49.25" x2="0" y2="43.96" id="3" gradientUnits="userSpaceOnUse"><stop stop-color="#ffeeb6"/><stop offset="1" stop-color="#feeeb7"/></linearGradient><linearGradient y1="4.784" x2="0" y2="59.22" id="2" xlink:href="#1" gradientUnits="userSpaceOnUse"/><linearGradient y1="14.774" x2="0" y2="61.3" id="0" xlink:href="#1" gradientUnits="userSpaceOnUse"/><linearGradient id="1"><stop stop-color="#fff"/><stop offset=".063" stop-color="#fff" stop-opacity=".235"/><stop offset=".951" stop-color="#fff" stop-opacity=".157"/><stop offset="1" stop-color="#fff" stop-opacity=".392"/></linearGradient><linearGradient y1="5" x2="0" y2="43" id="8" xlink:href="#1" gradientUnits="userSpaceOnUse" gradientTransform="matrix(1.21622 0 0 .72973 2.811 7.486)"/><linearGradient id="7"><stop stop-color="#b67926"/><stop offset="1" stop-color="#eab41a"/></linearGradient><linearGradient y1="60.21" x2="0" y2="3.652" id="6" xlink:href="#7" gradientUnits="userSpaceOnUse"/><linearGradient y1="32" x2="0" y2="6" id="4" gradientUnits="userSpaceOnUse" gradientTransform="matrix(1.42105 0 0 1.43396-2.105-3.604)"><stop stop-color="#fff0bf"/><stop offset="1" stop-color="#fdde76"/></linearGradient><linearGradient y1="35.429" x2="0" y2="15.738" id="5" gradientUnits="userSpaceOnUse" gradientTransform="matrix(1.03629 0 0 .89404 7.129-1.585)" spreadMethod="reflect"><stop stop-color="#969696"/><stop offset=".5" stop-color="#858585" stop-opacity=".635"/><stop offset="1" stop-color="#939393" stop-opacity="0"/></linearGradient><radialGradient cx="19.74" cy="8.45" r="20" id="G" gradientUnits="userSpaceOnUse" gradientTransform="matrix(0 2.16609-1.58828 0 45.42-.339)"><stop stop-color="#fff3cb"/><stop offset=".262" stop-color="#fdde76"/><stop offset=".661" stop-color="#f9c440"/><stop offset="1" stop-color="#e48b20"/></radialGradient><radialGradient cx="4.993" cy="43.5" r="2.5" id="K" xlink:href="#J" gradientUnits="userSpaceOnUse" gradientTransform="matrix(2.0038 0 0 1.4-20.01-104.4)"/><radialGradient cx="4.993" cy="43.5" r="2.5" id="I" xlink:href="#J" gradientUnits="userSpaceOnUse" gradientTransform="matrix(2.0038 0 0 1.4 27.988-17.4)"/></defs><g transform="matrix(1.57895 0 0 .71429-5.895 28.429)" opacity=".4"><path fill="url(#I)" d="m38 40h5v7h-5z"/><path transform="scale(-1-1)" fill="url(#K)" d="m-10-47h5v7h-5z"/><path fill="url(#L)" d="m10 40h28v7h-28z"/></g><g color="#000"><rect width="55" height="55" rx="3" x="4.5" y="4.5" fill="url(#G)" stroke="url(#H)" stroke-linejoin="round" stroke-linecap="round"/><path d="m16 39.06v2.938h3v4.094h26v-4.094h3v-2.938h-3-26-3" fill="#b3b3b3"/></g><g fill="none" stroke="#000"><path d="m19.01 43.5h25.977" opacity=".2"/><path d="m19.308 45.4h25.385" opacity=".17"/></g><g fill-rule="evenodd"><rect width="46" height="29" rx="2.821" x="9" y="11" fill="#8f8f8f"/><rect width="46" height="28" rx="1.41" x="9" y="11" fill="url(#F)"/></g><g fill="none"><path d="m26.463 25.683l-13.965 12.188zm11.11.056l14.06 11.908z" stroke="url(#E)"/><path d="m26.463 27.346l-12.796 11zm11.11.056l12.763 10.944z" opacity=".7" stroke="url(#D)"/><path d="m15.899 19.07l16.201 12.517 16-12.517" opacity=".06" stroke="url(#C)"/><path d="m10.484 11.08l21.517 16.662 21.842-16.774" opacity=".7" stroke="url(#B)"/></g><path d="m10.978 10.846c-.807 0-1.542.446-1.542 1.124l.015 17.21c1.298-.018 44.13-6.758 45.11-7.082v-9.909c0-.518-.679-1.343-1.378-1.343z" opacity=".2" fill="url(#9)" fill-rule="evenodd"/><g fill="none"><rect width="45" height="27" rx=".705" x="9.5" y="11.5" stroke="url(#8)" stroke-linejoin="round" stroke-linecap="round"/><path d="m8.936 8.5c-.464 0-.436.042-.436.38v28.78c0 .627-.08.84.745.84h7.313c1.741 0 2.942 1.351 2.942 3.262v3.738h25v-4.209c0-1.408 1.358-2.791 2.763-2.791h7.738c.511 0 .499-.016.499-.523v-29.11c0-.49-.021-.363-.456-.363z" opacity=".3" stroke="#b67926" color="#000"/><rect width="47" height="29" rx="2.115" x="8.5" y="10.5" opacity=".1" stroke="#000"/><path d="m56.905 42.569c1.349-.073 2.521-1.245 2.595-2.595m-14.06 6.834v-4.099c0-.078.054-.132.132-.132h10.985m-11.126 3.437v.793c0 1.563-1.29 2.692-2.853 2.692h-21.15c-1.563 0-2.857-1.13-2.857-2.692v-4.099c0-.078-.054-.132-.132-.132 0 0-9.795.011-11.331-.008-1.349-.073-2.521-1.245-2.595-2.595" opacity=".1" stroke="url(#6)" stroke-linejoin="round" stroke-linecap="round" color="#000"/><path d="m10.484 13.04l21.517 16.662 21.842-16.774" stroke="url(#5)"/></g><g color="#000"><path d="m7.5 5c-1.385 0-2.5 1.115-2.5 2.5v32c0 1.385 1.115 2.5 2.5 2.5h2.563 3.906 5.03v-.5c0-1.385-1.115-2.5-2.5-2.5h-2.438-1.5-4.063c-.277 0-.5-.223-.5-.5v-30c0-.277.223-.5.5-.5h47c.277 0 .5.223.5.5v30c0 .277-.223.5-.5.5h-4.063-3.938c-1.385 0-2.5 1.115-2.5 2.5v.5h8.938 2.563c1.385 0 2.5-1.115 2.5-2.5v-32c0-1.385-1.115-2.5-2.5-2.5h-49" fill="url(#4)"/><path d="m19 43.5v3c0 1.385 1.115 2.5 2.5 2.5h21c1.385 0 2.5-1.115 2.5-2.5v-3c0 1.385-1.115 2.5-2.5 2.5h-21c-1.385 0-2.5-1.115-2.5-2.5" fill="url(#3)"/></g><g fill="none"><rect width="53" height="53" rx="2" x="5.5" y="5.5" opacity=".8" stroke="url(#2)" stroke-linejoin="round" stroke-linecap="round"/><path d="m19.01 41.5h25.977" opacity=".2" stroke="#000"/><path d="m56.905 43.569c.282-.015.556-.079.814-.182m-51.46-.014c.268.111.554.179.848.195 1.536.019 10.331.008 10.331.008.078 0 .132.054.132.132v3.499c0 1.563 1.839 3.292 3.402 3.292h22.16c1.563 0 3.299-1.754 3.299-3.316l.008-3.475c0-.078.054-.132.132-.132h9.985" stroke="url(#0)" stroke-linejoin="round" stroke-linecap="round" color="#000"/></g></svg>