<?xml version="1.0" encoding="UTF-8" standalone="no"?>
<svg
   xmlns:dc="http://purl.org/dc/elements/1.1/"
   xmlns:cc="http://creativecommons.org/ns#"
   xmlns:rdf="http://www.w3.org/1999/02/22-rdf-syntax-ns#"
   xmlns:svg="http://www.w3.org/2000/svg"
   xmlns="http://www.w3.org/2000/svg"
   xmlns:xlink="http://www.w3.org/1999/xlink"
   version="1.1"
   id="svg2"
   viewBox="0 0 64 64">
  <metadata
     id="metadata68">
    <rdf:RDF>
      <cc:Work
         rdf:about="">
        <dc:format>image/svg+xml</dc:format>
        <dc:type
           rdf:resource="http://purl.org/dc/dcmitype/StillImage" />
      </cc:Work>
    </rdf:RDF>
  </metadata>
  <defs
     id="defs4">
    <linearGradient
       gradientUnits="userSpaceOnUse"
       id="4"
       y2="61.39"
       x2="0"
       y1="2.919">
      <stop
         id="stop7"
         stop-color="#fff" />
      <stop
         id="stop9"
         stop-opacity=".235"
         stop-color="#fff"
         offset=".424" />
      <stop
         id="stop11"
         stop-opacity=".157"
         stop-color="#fff"
         offset=".821" />
      <stop
         id="stop13"
         stop-opacity=".392"
         stop-color="#fff"
         offset="1" />
    </linearGradient>
    <linearGradient
       gradientTransform="matrix(.10116 0 0 .08501 118.69-5.561)"
       gradientUnits="userSpaceOnUse"
       xlink:href="#0"
       id="2"
       y2="375.62"
       x2="-474.68"
       y1="539.41"
       x1="-1085.96" />
    <radialGradient
       gradientTransform="matrix(1 0 0 .16667 0 155.14)"
       gradientUnits="userSpaceOnUse"
       id="5"
       r="62.769"
       cy="186.17"
       cx="99.16">
      <stop
         id="stop17"
         stop-color="#3d3d3d" />
      <stop
         id="stop19"
         stop-opacity=".498"
         stop-color="#686868"
         offset=".5" />
      <stop
         id="stop21"
         stop-opacity="0"
         stop-color="#686868"
         offset="1" />
    </radialGradient>
    <radialGradient
       gradientTransform="matrix(0 1.99153-1.87724 0 47.862-4.461)"
       gradientUnits="userSpaceOnUse"
       id="3"
       fy="8.599"
       fx="8.895"
       r="20"
       cy="8.45"
       cx="18.16">
      <stop
         id="stop24"
         stop-color="#eef87e" />
      <stop
         id="stop26"
         stop-color="#cde34f"
         offset=".262" />
      <stop
         id="stop28"
         stop-color="#93b723"
         offset=".661" />
      <stop
         id="stop30"
         stop-color="#5a7e0d"
         offset="1" />
    </radialGradient>
    <radialGradient
       gradientTransform="matrix(.8232.2312.2703-.9626-96.23-315.34)"
       gradientUnits="userSpaceOnUse"
       id="0"
       fy="-289.91"
       fx="297.45"
       r="17.15"
       cy="-290.59"
       cx="299.45">
      <stop
         id="stop33" />
      <stop
         id="stop35"
         stop-opacity="0"
         offset="1" />
    </radialGradient>
    <radialGradient
       gradientTransform="matrix(0 1.58769-1.49583 0 44.64 2.874)"
       gradientUnits="userSpaceOnUse"
       id="1"
       fx="-.223"
       r="20"
       cy="8.45"
       cx="15.645">
      <stop
         id="stop38"
         stop-color="#5bc2ee" />
      <stop
         id="stop40"
         stop-color="#42baea"
         offset=".262" />
      <stop
         id="stop42"
         stop-color="#3689e6"
         offset=".705" />
      <stop
         id="stop44"
         stop-color="#2b63a0"
         offset="1" />
    </radialGradient>
  </defs>
  <path
     id="path46"
     fill="url(#5)"
     transform="matrix(.38235 0 0 .71691-5.913-76.968)"
     d="m161.92613 186.17059a62.769119 10.461519 0 1 1 -125.53824 0 62.769119 10.461519 0 1 1 125.53824 0" />
  <g
     id="g48"
     color="#000">
    <path
       id="path50"
       fill="url(#1)"
       d="m32 2.5c-16.277 0-29.5 13.223-29.5 29.5 0 16.277 13.223 29.5 29.5 29.5 16.277 0 29.5-13.223 29.5-29.5 0-16.277-13.223-29.5-29.5-29.5" />
    <path
       id="path52"
       fill="url(#2)"
       opacity=".5"
       d="m32.469 2.5l-3.406.375-3.969 1.031c.338-.112.681-.237 1.031-.344l-.281-.406c-2.24.477-4.385 1.202-6.406 2.156l-.281.563-.188-.344c-.199.098-.397.21-.594.313l.063.656-1 .781-.563 1.406h1.188l.469-.906.156-.344c.522-.349 1.031-.727 1.563-1.063l1.219.375c.806.518 1.631 1.045 2.438 1.563l1.188-1.031-1.344-.531-.625-1.188-2.281-.219-.031-.25.969.188.563-.531 1.25-.25c.293-.135.579-.234.875-.344l-.781.688 2.781 1.813v1.063l-1.063 1.031 1.438 2.719.969-.531 1.25-1.812c1.741-.509 3.294-1.077 4.938-1.781l-.094.688.844.5 1.438-.906-.719-.781-1 .531-.313-.094c.071-.031.147-.063.219-.094l1.438-3.5-3.094-1.188c-.083-.002-.167.001-.25 0m-13.938 5.281l1.188.75h.969v-.906l-1.188-.5-.969.656m-3.406.031c-.103.072-.21.145-.313.219l-.406 1.031c0 0-.893.102-1.125.156-.011.009-.02.022-.031.031-.01.009-.021.023-.031.031-1.105.965-2.623 2.331-4.156 4.219-.26.32-.522.65-.781 1-.506.683-1.017 1.418-1.5 2.219-.012.02-.019.042-.031.063-1.731 2.883-3.205 6.557-3.813 11.156.055.244 1 1.625 1 1.625l2.25 1.281 2.281.594.969 1.125 1.5 1.063.875-.156.625.313v.188l-.813 2.188-.688.938.219.438-.531 1.75 1.906 3.344 1.969 1.594.875 1.156-.094 2.469.625 1.344-.625 2.625c0 0-.083.016 0 .281.083.266 3.442 2.026 3.656 1.875.049-.035.049-.03.094-.063-1.19-2.125-1.875-4.578-1.875-7.188 0-4.153 1.736-7.883 4.5-10.563l-.813-1.5-1.594-.344-.875-2.188-2.125.219-1.844-1.25-1.969 1.625v.219c-.587-.16-1.29-.165-1.813-.469l-.406-1.188v-1.25l-1.344.125c.108-.808.266-1.63.375-2.438h-.781l-.781.938-.719.344-1.094-.594-.094-1.281.219-1.344 1.594-1.188h1.281l.281-.688 1.594.375 1.188 1.406.188-2.375 2.063-1.594.719-1.688 1.563-.594.813-1.188 1.969-.313 1-1.406h-2.969l1.875-.813h1.281l1.656-.531.313 1.5.719-1.063-.813-.531.188-.656-.656-.594-.719-.156.188-.75-.563-1.031-1.281.5.188-.938-1.5-.813-1.188 1.938.125.688-1.188.5-.719 1.5-.375-1.438-2-.75-.375-1.063 2.75-1.469 1.188-1.062.094-1.281-.656-.344-.688-.063m27.594.5l-.25.156v.719l-2.125 1.281.438 1.875 1.219-.813.781.813.875.5.563-1.406-.313-.813.156-.313c-.412-.701-.841-1.369-1.344-2m-5.656 1.812v.781l.469.469v1.188l-.281 1.563 1.344-.281 1-.906-.875-.75c-.284-.716-.581-1.375-.938-2.063h-.719m-1.156 1.563l-.813.219.219 1.406 1.063-.531-.469-1.094m6.219.813l-.781.5.344.813h-1.219l-.688 1.063-.813.906-1.5.281.875.844.219.813h-1.094l-1.438.75v2.156h.656l.625.594 1.406-.594.5-1.344 1.031-.594.219-.469 1.656-.406.906.969 1 .5-.563 1.063.875-.25.438-1.031-1.125-1.25h.469l1.125.875.219 1.188.563.594c.196-.946.313-1.934.313-2.938-.109-1.689-.52-3.309-1.125-4.844l-1.406 1.125-1.688-.375v-.938m-.781 8.563l-2.125.219-1.844.469c-1.06 1.136-2.153 2.32-3.156 3.5l-1.188 2.719.563.563-1.031 1.438.844 1.906c5.415-.551 9.953-4.135 11.906-9l-.469.5-2.063-1.938-1.438-.375" />
    <path
       id="path54"
       opacity=".15"
       d="m32 2.5c-.844 0-1.673.055-2.5.125 7.167 0 13.893 4.581 15 16 .001.01-.001.021 0 .031-.068 6.886-5.659 12.438-12.563 12.438-.021 0-.042 0-.063 0l-.75.031c-.01 0-.021 0-.031 0-8.77.445-15.781 7.721-15.781 16.594 0 4.25 1.636 8.113 4.281 11.03 3.776 1.757 7.972 2.75 12.406 2.75 16.277 0 29.5-13.223 29.5-29.5 0-16.277-13.223-29.5-29.5-29.5" />
    <path
       id="path56"
       opacity=".3"
       d="m31.19 2.777c11.843 0 14.257 12.556 14.422 15.12 0 12.08-12.664 15.311-13.672 15.04l-.75.031c-7.805.396-14.03 6.849-14.03 14.75 0 5.547 3.066 10.355 7.594 12.875 2.318.587 4.751.906 7.25.906 16.12 0 29.25-12.969 29.5-29.03-.25-16.1-13.406-29.691-29.563-29.691-.255 0-.497-.006-.75 0" />
    <path
       id="path58"
       fill="url(#3)"
       d="m31.18 2.373c7.68 0 14.636 6.966 15.16 15.16 0 7.947-6.457 14.402-14.404 14.402l-.758.047c-7.805.396-14.03 6.833-14.03 14.734 0 7.901 6.221 14.337 14.03 14.734v.047c.253.006.503 0 .758 0 16.312 0 29.567-13.252 29.567-29.562 0-16.31-13.254-29.562-29.567-29.562-.255 0-.505-.006-.758 0" />
    <g
       id="g60"
       stroke-linecap="round"
       stroke-linejoin="round"
       fill="none">
      <path
         id="path62"
         stroke="#000"
         opacity=".3"
         d="m32 2.5c-16.277 0-29.5 13.223-29.5 29.5 0 16.277 13.223 29.5 29.5 29.5 16.277 0 29.5-13.223 29.5-29.5 0-16.277-13.223-29.5-29.5-29.5z" />
      <path
         id="path64"
         stroke="url(#4)"
         opacity=".5"
         d="m60.5 32c0 15.74-12.76 28.5-28.5 28.5-15.74 0-28.5-12.76-28.5-28.5 0-15.74 12.76-28.5 28.5-28.5 15.74 0 28.5 12.76 28.5 28.5zm-23.25-28.656c5.214 2.492 9.165 7.963 9.563 14.156a.472343 .472343 0 0 1 0 .03125c0 8.192-6.655 14.858-14.844 14.875-.011 0-.021 0-.031 0l-.719.031c-7.558.384-13.594 6.629-13.594 14.281 0 7.653 6.03 13.866 13.594 14.25a.472343 .472343 0 0 1 .21874 .0625c.16 0 .325 0 .5 0 16.06 0 29.09-13.04 29.09-29.09 0-14.242-10.256-26.1-23.781-28.594z" />
    </g>
  </g>
</svg>
