<?xml version="1.0" encoding="UTF-8" standalone="no"?>
<svg
   xmlns:dc="http://purl.org/dc/elements/1.1/"
   xmlns:cc="http://creativecommons.org/ns#"
   xmlns:rdf="http://www.w3.org/1999/02/22-rdf-syntax-ns#"
   xmlns:svg="http://www.w3.org/2000/svg"
   xmlns="http://www.w3.org/2000/svg"
   xmlns:xlink="http://www.w3.org/1999/xlink"
   id="svg2"
   version="1.0"
   width="64"
   height="64">
  <metadata
     id="metadata95">
    <rdf:RDF>
      <cc:Work
         rdf:about="">
        <dc:format>image/svg+xml</dc:format>
        <dc:type
           rdf:resource="http://purl.org/dc/dcmitype/StillImage" />
      </cc:Work>
    </rdf:RDF>
  </metadata>
  <defs
     id="defs4">
    <linearGradient
       id="linearGradient5060-2">
      <stop
         id="stop7"
         offset="0"
         stop-color="#000" />
      <stop
         id="stop9"
         offset="1"
         stop-opacity="0"
         stop-color="#000" />
    </linearGradient>
    <radialGradient
       r="117.14"
       gradientTransform="matrix(0.03212956,0,0,0.02058823,40.136784,48.451416)"
       cx="605.71"
       cy="486.65"
       gradientUnits="userSpaceOnUse"
       xlink:href="#linearGradient5060-2"
       id="radialGradient3172" />
    <radialGradient
       r="117.14"
       gradientTransform="matrix(-0.03212956,0,0,0.02058823,23.863217,48.451416)"
       cx="605.71"
       cy="486.65"
       gradientUnits="userSpaceOnUse"
       xlink:href="#linearGradient5060-2"
       id="radialGradient3175" />
    <linearGradient
       y2="609.51"
       x2="302.86"
       gradientTransform="matrix(0.11390532,0,0,0.02058823,-9.1686406,48.522667)"
       y1="366.65"
       gradientUnits="userSpaceOnUse"
       x1="302.86"
       id="linearGradient3178">
      <stop
         id="stop14"
         offset="0"
         stop-opacity="0"
         stop-color="#000" />
      <stop
         id="stop16"
         offset="0.5"
         stop-color="#000" />
      <stop
         id="stop18"
         offset="1"
         stop-opacity="0"
         stop-color="#000" />
    </linearGradient>
    <radialGradient
       r="12.672"
       gradientTransform="matrix(0,11.015167,-16.975815,0,202.28727,-88.992668)"
       cx="7.1184"
       cy="9.9571"
       gradientUnits="userSpaceOnUse"
       id="radialGradient3136">
      <stop
         id="stop21"
         offset="0"
         stop-color="#f8b17e" />
      <stop
         id="stop23"
         offset="0.26238"
         stop-color="#e35d4f" />
      <stop
         id="stop25"
         offset="0.66094"
         stop-color="#c6262e" />
      <stop
         id="stop27"
         offset="1"
         stop-color="#690b54" />
    </radialGradient>
    <linearGradient
       y2="49"
       y1="59"
       x2="36"
       gradientUnits="userSpaceOnUse"
       xlink:href="#linearGradient4215-8-4-07-7"
       x1="36"
       id="linearGradient4489" />
    <linearGradient
       y2="44.341"
       y1="6.2376"
       gradientTransform="matrix(-0.05405404,0,0,0.05405404,22.44,53.223089)"
       x2="71.204"
       gradientUnits="userSpaceOnUse"
       x1="71.204"
       id="linearGradient14699">
      <stop
         id="stop31"
         offset="0"
         stop-color="#FFF" />
      <stop
         id="stop33"
         offset="0.50776"
         stop-opacity="0.23529412"
         stop-color="#FFF" />
      <stop
         id="stop35"
         offset="0.83457"
         stop-opacity="0.15686275"
         stop-color="#FFF" />
      <stop
         id="stop37"
         offset="1"
         stop-opacity="0.39215687"
         stop-color="#FFF" />
    </linearGradient>
    <linearGradient
       y2="8.0929"
       y1="59.968"
       gradientTransform="matrix(-0.07843137,0,0,0.07843137,21.009804,51.833334)"
       x2="38.977"
       gradientUnits="userSpaceOnUse"
       xlink:href="#linearGradient4215-8-4-07-7"
       x1="38.977"
       id="linearGradient14702" />
    <linearGradient
       id="linearGradient4215-8-4-07-7">
      <stop
         id="stop41"
         offset="0"
         stop-color="#2b3235" />
      <stop
         id="stop43"
         offset="1"
         stop-color="#374044" />
    </linearGradient>
    <linearGradient
       y2="4"
       x2="30"
       gradientTransform="matrix(2.641026,0,0,2.641026,0.6153903,-60.384616)"
       y1="49"
       gradientUnits="userSpaceOnUse"
       x1="30"
       id="linearGradient10973">
      <stop
         id="stop46"
         offset="0"
         stop-color="#791235" />
      <stop
         id="stop48"
         offset="1"
         stop-color="#bf1d09" />
    </linearGradient>
    <linearGradient
       y2="42.438"
       x2="40.29"
       gradientTransform="matrix(1.5405405,0,0,1.2162162,-4.9729751,5.8820652)"
       y1="5.4143"
       gradientUnits="userSpaceOnUse"
       x1="40.29"
       id="linearGradient3133-5">
      <stop
         id="stop51"
         offset="0"
         stop-color="#FFF" />
      <stop
         id="stop53"
         offset="0.034578"
         stop-opacity="0.23529412"
         stop-color="#FFF" />
      <stop
         id="stop55"
         offset="0.96376"
         stop-opacity="0.15686275"
         stop-color="#FFF" />
      <stop
         id="stop57"
         offset="1"
         stop-opacity="0.39215687"
         stop-color="#FFF" />
    </linearGradient>
  </defs>
  <rect
     id="rect59"
     fill="url(#linearGradient3178)"
     x="4.5"
     y="56.071"
     width="55"
     height="5"
     fill-rule="nonzero"
     opacity="0.3" />
  <path
     id="path61"
     fill-rule="nonzero"
     d="m4.5,56v4.9997c-1.6546,0.01-4-1.1202-4-2.5002s1.8464-2.4995,4-2.4995z"
     fill="url(#radialGradient3175)"
     opacity="0.3" />
  <path
     id="path63"
     fill-rule="nonzero"
     d="m59.5,56v4.9997c1.6546,0.01,4-1.1202,4-2.5002s-1.8464-2.4995-4-2.4995z"
     fill="url(#radialGradient3172)"
     opacity="0.3" />
  <path
     id="path65"
     fill="url(#linearGradient4489)"
     fill-rule="nonzero"
     d="m2.5,51,0,5.5c0,1.108,0.892,2,2,2h55c1.108,0,2-0.892,2-2v-5.5z"
     style="color:#000000;enable-background:accumulate;"
     opacity="0.9" />
  <path
     id="path67"
     fill-rule="nonzero"
     d="m4.5,11.5c-1.108,0-2,0.892-2,2v37.5h59v-37.5c0-1.108-0.892-2-2-2z"
     fill="url(#radialGradient3136)"
     style="color:#000000;enable-background:accumulate;" />
  <rect
     id="rect69"
     fill="#FFF"
     x="6"
     y="55"
     width="52"
     height="1"
     ry="0.46274"
     opacity="0.05" />
  <path
     id="path71"
     fill="url(#linearGradient10973)"
     clip-rule="nonzero"
     fill-rule="nonzero"
     d="M4.5,11c-1.3764,0-2.5,1.124-2.5,2.5v37.5h1v-37.5c0-0.84,0.6604-1.5,1.5-1.5h55c0.84,0,1.5,0.66,1.5,1.5v37.5h1v-37.5c0-1.376-1.124-2.5-2.5-2.5h-55z"
     style="solid-opacity:1;direction:ltr;enable-background:accumulate;baseline-shift:baseline;color-rendering:auto;text-decoration-color:#000000;color:#000000;isolation:auto;mix-blend-mode:normal;shape-rendering:auto;solid-color:#000000;block-progression:tb;color-interpolation:sRGB;text-decoration-line:none;text-decoration-style:solid;image-rendering:auto;white-space:normal;text-indent:0;text-transform:none;color-interpolation-filters:linearRGB;text-align:start;"
     opacity="0.7" />
  <path
     id="path73"
     fill="#000"
     transform="matrix(0.90311408,0,0,0.91167666,3.2001538,3.8304482)"
     fill-rule="evenodd"
     d="m24.281,19.938c-0.01167,0.001-0.23847,0.02913-0.25,0.03125-0.01153,0.0021-0.20747,0.05932-0.21875,0.0625-0.01128,0.0032-0.20781,0.05829-0.21875,0.0625-0.01094,0.0042-0.20824,0.08855-0.21875,0.09375-0.0105,0.0052-0.20877,0.11885-0.21875,0.125-0.01,0.0061-0.17813,0.11796-0.1875,0.125-0.0094,0.007-0.17882,0.14837-0.1875,0.15625-0.0087,0.0079-0.14834,0.1476-0.15625,0.15625-0.0079,0.0086-0.14917,0.17816-0.15625,0.1875-0.0071,0.0093-0.15006,0.20879-0.15625,0.21875-0.0062,0.01-0.08851,0.17702-0.09375,0.1875-0.0052,0.01048-0.0895,0.20783-0.09375,0.21875-0.0042,0.01092-0.09053,0.20748-0.09375,0.21875-0.0032,0.01127-0.06033,0.23848-0.0625,0.25-0.0022,0.01152-0.03016,0.20708-0.03125,0.21875-0.0011,0.01167,0.000008,0.23828,0,0.25v19c0.000063,0.0082-0.000591,0.17934,0,0.1875,0.000591,0.0082,0.03013,0.14815,0.03125,0.15625,0.0011,0.0081,0.02961,0.14824,0.03125,0.15625,0.0016,0.008,0.0291,0.14836,0.03125,0.15625,0.0022,0.0079,0.02859,0.14851,0.03125,0.15625,0.0027,0.0077,0.05935,0.1487,0.0625,0.15625,0.0031,0.0075,0.05887,0.14892,0.0625,0.15625,0.0036,0.0073,0.08966,0.14917,0.09375,0.15625,0.0041,0.0071,0.08921,0.1182,0.09375,0.125,0.0045,0.0068,0.08878,0.14976,0.09375,0.15625,0.005,0.0065,0.08837,0.11884,0.09375,0.125,0.0054,0.0062,0.11923,0.1192,0.125,0.125,0.0058,0.0058,0.11887,0.08833,0.125,0.09375,0.0061,0.0054,0.11853,0.11999,0.125,0.125,0.0065,0.005,0.11822,0.08917,0.125,0.09375,0.0068,0.0046,0.14919,0.08962,0.15625,0.09375,0.0071,0.0041,0.11769,0.05883,0.125,0.0625,0.0073,0.0037,0.14872,0.05931,0.15625,0.0625,0.0075,0.0032,0.14853,0.0598,0.15625,0.0625,0.0077,0.0027,0.14837,0.06031,0.15625,0.0625,0.0079,0.0022,0.14824,0.02957,0.15625,0.03125,0.008,0.0017,0.1794,0.03009,0.1875,0.03125,0.0081,0.0012,0.1481,0.03061,0.15625,0.03125,0.0082,0.000636,0.14807-0.000108,0.15625,0,0.0082,0.000108,0.14808,0.00042,0.15625,0,0.0082-0.00042,0.17938-0.0303,0.1875-0.03125,0.0081-0.000946,0.1482,0.0015,0.15625,0,0.008-0.0015,0.14832-0.06052,0.15625-0.0625,0.0079-0.002,0.14846-0.02876,0.15625-0.03125,0.0078-0.0025,0.14864-0.05951,0.15625-0.0625,0.0076-0.003,0.14884-0.05902,0.15625-0.0625,0.0074-0.0035,0.14908-0.05855,0.15625-0.0625l17-9.5a1.0958,1.0958,0,0,0,0,-0.03125c0.0072-0.0041,0.14931-0.0579,0.15625-0.0625,0.0069-0.0046,0.11838-0.11996,0.125-0.125,0.0066-0.005,0.14997-0.08828,0.15625-0.09375,0.0063-0.0055,0.11909-0.11913,0.125-0.125,0.0059-0.0059,0.08824-0.11876,0.09375-0.125,0.0055-0.0062,0.11991-0.11841,0.125-0.125,0.0051-0.0066,0.08911-0.11809,0.09375-0.125,0.0046-0.0069,0.08957-0.14905,0.09375-0.15625,0.0042-0.0072,0.0588-0.11754,0.0625-0.125,0.0037-0.0075,0.09055-0.14856,0.09375-0.15625,0.0032-0.0077,0.02856-0.14837,0.03125-0.15625,0.0027-0.0079,0.06034-0.17946,0.0625-0.1875,0.0022-0.008,0.02962-0.14809,0.03125-0.15625,0.0016-0.0082,0.03016-0.148,0.03125-0.15625,0.0011-0.0083,0.0307-0.17919,0.03125-0.1875,0.000547-0.0083,0-0.14792,0-0.15625,0-0.0083,0.000547-0.14794,0-0.15625-0.000547-0.0083-0.03016-0.17925-0.03125-0.1875,0.002-0.006-0.026-0.146-0.028-0.154-0.0016-0.0082-0.02909-0.14821-0.03125-0.15625-0.0022-0.008-0.05981-0.17962-0.0625-0.1875-0.0027-0.0079-0.02805-0.14856-0.03125-0.15625-0.0032-0.0077-0.09005-0.14879-0.09375-0.15625-0.0037-0.0075-0.05832-0.1178-0.0625-0.125-0.0042-0.0072-0.08911-0.14934-0.09375-0.15625-0.0046-0.0069-0.08866-0.11841-0.09375-0.125-0.0051-0.0066-0.11949-0.11876-0.125-0.125-0.0055-0.0062-0.08784-0.11913-0.09375-0.125l-0.125-0.125c-0.0063-0.0055-0.14962-0.08871-0.15625-0.09375-0.0066-0.005-0.11806-0.1204-0.125-0.125-0.0069-0.0046-0.14902-0.05837-0.15625-0.0625a1.0958,1.0958,0,0,0,0,-0.03125l-17-9.5v0.03125c-0.0082-0.0046-0.14774-0.08973-0.15625-0.09375-0.0085-0.004-0.17872-0.09037-0.1875-0.09375-0.0088-0.0034-0.17849-0.05978-0.1875-0.0625-0.009-0.0027-0.14706-0.02921-0.15625-0.03125-0.0092-0.002-0.17819-0.0299-0.1875-0.03125-0.0093-0.0014-0.20936-0.03059-0.21875-0.03125-0.0094-0.000659-0.17809-0.00004-0.1875,0-0.0094,0.00004-0.17812-0.000738-0.1875,0z"
     opacity="0.07" />
  <path
     id="path75"
     fill="#000"
     transform="matrix(0.90311408,0,0,0.91167666,3.2001538,3.8304481)"
     fill-rule="evenodd"
     d="M24.375,21.031a1.4757,1.4757,0,0,0,-1.344,1.469v19a1.4757,1.4757,0,0,0,2.1875,1.2812l17-9.5a1.4757,1.4757,0,0,0,0,-2.5625l-17-9.5a1.4757,1.4757,0,0,0,-0.843,-0.187z"
     opacity="0.15" />
  <path
     id="path77"
     fill-rule="evenodd"
     d="M24.375,21.031a1.4757,1.4757,0,0,0,-1.344,1.469v19a1.4757,1.4757,0,0,0,2.1875,1.2812l17-9.5a1.4757,1.4757,0,0,0,0,-2.5625l-17-9.5a1.4757,1.4757,0,0,0,-0.843,-0.187z"
     fill="#fafafa"
     transform="matrix(0.90311408,0,0,0.91167666,3.2001539,2.8304481)" />
  <path
     id="path79"
     fill="none"
     stroke-width="1px"
     stroke-linecap="butt"
     stroke="#000"
     d="m2.5,51.5,58.5,0"
     stroke-linejoin="miter"
     opacity="0.2" />
  <rect
     id="rect81"
     fill="#000"
     x="6"
     y="54"
     width="52"
     height="1"
     ry="0.46274"
     opacity="0.4" />
  <path
     id="path83"
     fill-rule="nonzero"
     d="m18.5,52.5c1.1035,0,2,0.89647,2,2s-0.89647,2-2,2-2-0.89647-2-2,0.89647-2,2-2z"
     fill="url(#linearGradient14702)"
     style="color:#000000;enable-background:accumulate;" />
  <path
     id="path85"
     fill="none"
     stroke-width="1"
     stroke-dasharray="none"
     stroke-miterlimit="4"
     stroke-linecap="round"
     stroke="url(#linearGradient14699)"
     stroke-dashoffset="0"
     d="m17.563,54.594c0,0.5523,0.44775,1,0.99999,1,0.55229,0,1-0.44774,1-1,0-0.55228-0.44772-0.99996-1-0.99996-0.55224,0-0.99999,0.44769-0.99999,0.99996z"
     style="color:#000000;enable-background:accumulate;"
     stroke-linejoin="round"
     opacity="0.15" />
  <path
     id="path87"
     fill="none"
     stroke-width="1"
     stroke-dasharray="none"
     stroke-miterlimit="4"
     stroke-linecap="round"
     stroke="#292e2f"
     stroke-dashoffset="0"
     d="m18.5,52.5c1.1035,0,2,0.89647,2,2s-0.89647,2-2,2-2-0.89647-2-2,0.89647-2,2-2z"
     style="color:#000000;enable-background:accumulate;"
     stroke-linejoin="round" />
  <path
     id="path89"
     fill="#000"
     clip-rule="nonzero"
     fill-rule="nonzero"
     d="m2,51,0,5.5c0,1.376,1.1236,2.5,2.5,2.5h55c1.3764,0,2.5-1.1236,2.5-2.5v-5.5h-1v5.5c0,0.83965-0.66035,1.5-1.5,1.5h-55c-0.8396,0-1.5-0.66-1.5-1.5v-5.5z"
     style="solid-opacity:1;direction:ltr;enable-background:accumulate;baseline-shift:baseline;color-rendering:auto;text-decoration-color:#000000;color:#000000;isolation:auto;mix-blend-mode:normal;shape-rendering:auto;solid-color:#000000;block-progression:tb;color-interpolation:sRGB;text-decoration-line:none;text-decoration-style:solid;image-rendering:auto;white-space:normal;text-indent:0;text-transform:none;color-interpolation-filters:linearRGB;text-align:start;"
     opacity="0.5" />
  <path
     id="path91"
     fill="none"
     stroke-width="1"
     stroke-miterlimit="4"
     stroke-dasharray="none"
     stroke-linecap="round"
     stroke="url(#linearGradient3133-5)"
     stroke-dashoffset="0"
     d="m4,52.5,56,0m-56-2,56,0m-55.5-37.929h55c0.554,0,1,0.446,1,1v43c0,0.554-0.446,1-1,1h-55c-0.554,0-1-0.446-1-1v-43c0-0.554,0.446-1,1-1z"
     style="color:#000000;enable-background:accumulate;"
     opacity="0.29999999999999999"
     stroke-linejoin="round" />
</svg>
