<svg xmlns:rdf="http://www.w3.org/1999/02/22-rdf-syntax-ns#" xmlns="http://www.w3.org/2000/svg" height="64" width="64" version="1.0" xmlns:cc="http://creativecommons.org/ns#" xmlns:xlink="http://www.w3.org/1999/xlink" xmlns:dc="http://purl.org/dc/elements/1.1/">
 <defs>
  <linearGradient id="linearGradient5060-2">
   <stop stop-color="#000" offset="0"/>
   <stop stop-color="#000" stop-opacity="0" offset="1"/>
  </linearGradient>
  <radialGradient id="radialGradient3172" xlink:href="#linearGradient5060-2" gradientUnits="userSpaceOnUse" cy="486.65" cx="605.71" gradientTransform="matrix(0.03212956,0,0,0.02058823,40.136784,48.451416)" r="117.14"/>
  <radialGradient id="radialGradient3175" xlink:href="#linearGradient5060-2" gradientUnits="userSpaceOnUse" cy="486.65" cx="605.71" gradientTransform="matrix(-0.03212956,0,0,0.02058823,23.863217,48.451416)" r="117.14"/>
  <linearGradient id="linearGradient3178" x1="302.86" gradientUnits="userSpaceOnUse" y1="366.65" gradientTransform="matrix(0.11390532,0,0,0.02058823,-9.1686406,48.522667)" x2="302.86" y2="609.51">
   <stop stop-color="#000" stop-opacity="0" offset="0"/>
   <stop stop-color="#000" offset="0.5"/>
   <stop stop-color="#000" stop-opacity="0" offset="1"/>
  </linearGradient>
  <radialGradient id="radialGradient3136" gradientUnits="userSpaceOnUse" cy="9.9571" cx="7.1184" gradientTransform="matrix(0,11.015167,-16.975815,0,202.28727,-88.992668)" r="12.672">
   <stop stop-color="#f8b17e" offset="0"/>
   <stop stop-color="#e35d4f" offset="0.26238"/>
   <stop stop-color="#c6262e" offset="0.66094"/>
   <stop stop-color="#690b54" offset="1"/>
  </radialGradient>
  <linearGradient id="linearGradient4489" x1="36" xlink:href="#linearGradient4215-8-4-07-7" gradientUnits="userSpaceOnUse" x2="36" y1="59" y2="49"/>
  <linearGradient id="linearGradient14699" x1="71.204" gradientUnits="userSpaceOnUse" x2="71.204" gradientTransform="matrix(-0.05405404,0,0,0.05405404,22.44,53.223089)" y1="6.2376" y2="44.341">
   <stop stop-color="#FFF" offset="0"/>
   <stop stop-color="#FFF" stop-opacity="0.23529412" offset="0.50776"/>
   <stop stop-color="#FFF" stop-opacity="0.15686275" offset="0.83457"/>
   <stop stop-color="#FFF" stop-opacity="0.39215687" offset="1"/>
  </linearGradient>
  <linearGradient id="linearGradient14702" x1="38.977" xlink:href="#linearGradient4215-8-4-07-7" gradientUnits="userSpaceOnUse" x2="38.977" gradientTransform="matrix(-0.07843137,0,0,0.07843137,21.009804,51.833334)" y1="59.968" y2="8.0929"/>
  <linearGradient id="linearGradient4215-8-4-07-7">
   <stop stop-color="#2b3235" offset="0"/>
   <stop stop-color="#374044" offset="1"/>
  </linearGradient>
  <linearGradient id="linearGradient10973" x1="30" gradientUnits="userSpaceOnUse" y1="49" gradientTransform="matrix(2.641026,0,0,2.641026,0.6153903,-60.384616)" x2="30" y2="4">
   <stop stop-color="#791235" offset="0"/>
   <stop stop-color="#bf1d09" offset="1"/>
  </linearGradient>
  <linearGradient id="linearGradient3133-5" x1="40.29" gradientUnits="userSpaceOnUse" y1="5.4143" gradientTransform="matrix(1.5405405,0,0,1.2162162,-4.9729751,5.8820652)" x2="40.29" y2="42.438">
   <stop stop-color="#FFF" offset="0"/>
   <stop stop-color="#FFF" stop-opacity="0.23529412" offset="0.034578"/>
   <stop stop-color="#FFF" stop-opacity="0.15686275" offset="0.96376"/>
   <stop stop-color="#FFF" stop-opacity="0.39215687" offset="1"/>
  </linearGradient>
 </defs>
 <rect opacity="0.3" fill-rule="nonzero" height="5" width="55" y="56.071" x="4.5" fill="url(#linearGradient3178)"/>
 <path opacity="0.3" fill="url(#radialGradient3175)" d="m4.5,56v4.9997c-1.6546,0.01-4-1.1202-4-2.5002s1.8464-2.4995,4-2.4995z" fill-rule="nonzero"/>
 <path opacity="0.3" fill="url(#radialGradient3172)" d="m59.5,56v4.9997c1.6546,0.01,4-1.1202,4-2.5002s-1.8464-2.4995-4-2.4995z" fill-rule="nonzero"/>
 <path opacity="0.9" style="color:#000000;enable-background:accumulate;" d="m2.5,51,0,5.5c0,1.108,0.892,2,2,2h55c1.108,0,2-0.892,2-2v-5.5z" fill-rule="nonzero" fill="url(#linearGradient4489)"/>
 <path style="color:#000000;enable-background:accumulate;" fill="url(#radialGradient3136)" d="m4.5,11.5c-1.108,0-2,0.892-2,2v37.5h59v-37.5c0-1.108-0.892-2-2-2z" fill-rule="nonzero"/>
 <rect opacity="0.05" ry="0.46274" height="1" width="52" y="55" x="6" fill="#FFF"/>
 <path opacity="0.7" style="solid-opacity:1;direction:ltr;enable-background:accumulate;baseline-shift:baseline;color-rendering:auto;text-decoration-color:#000000;color:#000000;isolation:auto;mix-blend-mode:normal;shape-rendering:auto;solid-color:#000000;block-progression:tb;color-interpolation:sRGB;text-decoration-line:none;text-decoration-style:solid;image-rendering:auto;white-space:normal;text-indent:0;text-transform:none;color-interpolation-filters:linearRGB;text-align:start;" d="M4.5,11c-1.3764,0-2.5,1.124-2.5,2.5v37.5h1v-37.5c0-0.84,0.6604-1.5,1.5-1.5h55c0.84,0,1.5,0.66,1.5,1.5v37.5h1v-37.5c0-1.376-1.124-2.5-2.5-2.5h-55z" fill-rule="nonzero" clip-rule="nonzero" fill="url(#linearGradient10973)"/>
 <path opacity="0.07" d="m24.281,19.938c-0.01167,0.001-0.23847,0.02913-0.25,0.03125-0.01153,0.0021-0.20747,0.05932-0.21875,0.0625-0.01128,0.0032-0.20781,0.05829-0.21875,0.0625-0.01094,0.0042-0.20824,0.08855-0.21875,0.09375-0.0105,0.0052-0.20877,0.11885-0.21875,0.125-0.01,0.0061-0.17813,0.11796-0.1875,0.125-0.0094,0.007-0.17882,0.14837-0.1875,0.15625-0.0087,0.0079-0.14834,0.1476-0.15625,0.15625-0.0079,0.0086-0.14917,0.17816-0.15625,0.1875-0.0071,0.0093-0.15006,0.20879-0.15625,0.21875-0.0062,0.01-0.08851,0.17702-0.09375,0.1875-0.0052,0.01048-0.0895,0.20783-0.09375,0.21875-0.0042,0.01092-0.09053,0.20748-0.09375,0.21875-0.0032,0.01127-0.06033,0.23848-0.0625,0.25-0.0022,0.01152-0.03016,0.20708-0.03125,0.21875-0.0011,0.01167,0.000008,0.23828,0,0.25v19c0.000063,0.0082-0.000591,0.17934,0,0.1875,0.000591,0.0082,0.03013,0.14815,0.03125,0.15625,0.0011,0.0081,0.02961,0.14824,0.03125,0.15625,0.0016,0.008,0.0291,0.14836,0.03125,0.15625,0.0022,0.0079,0.02859,0.14851,0.03125,0.15625,0.0027,0.0077,0.05935,0.1487,0.0625,0.15625,0.0031,0.0075,0.05887,0.14892,0.0625,0.15625,0.0036,0.0073,0.08966,0.14917,0.09375,0.15625,0.0041,0.0071,0.08921,0.1182,0.09375,0.125,0.0045,0.0068,0.08878,0.14976,0.09375,0.15625,0.005,0.0065,0.08837,0.11884,0.09375,0.125,0.0054,0.0062,0.11923,0.1192,0.125,0.125,0.0058,0.0058,0.11887,0.08833,0.125,0.09375,0.0061,0.0054,0.11853,0.11999,0.125,0.125,0.0065,0.005,0.11822,0.08917,0.125,0.09375,0.0068,0.0046,0.14919,0.08962,0.15625,0.09375,0.0071,0.0041,0.11769,0.05883,0.125,0.0625,0.0073,0.0037,0.14872,0.05931,0.15625,0.0625,0.0075,0.0032,0.14853,0.0598,0.15625,0.0625,0.0077,0.0027,0.14837,0.06031,0.15625,0.0625,0.0079,0.0022,0.14824,0.02957,0.15625,0.03125,0.008,0.0017,0.1794,0.03009,0.1875,0.03125,0.0081,0.0012,0.1481,0.03061,0.15625,0.03125,0.0082,0.000636,0.14807-0.000108,0.15625,0,0.0082,0.000108,0.14808,0.00042,0.15625,0,0.0082-0.00042,0.17938-0.0303,0.1875-0.03125,0.0081-0.000946,0.1482,0.0015,0.15625,0,0.008-0.0015,0.14832-0.06052,0.15625-0.0625,0.0079-0.002,0.14846-0.02876,0.15625-0.03125,0.0078-0.0025,0.14864-0.05951,0.15625-0.0625,0.0076-0.003,0.14884-0.05902,0.15625-0.0625,0.0074-0.0035,0.14908-0.05855,0.15625-0.0625l17-9.5a1.0958,1.0958,0,0,0,0,-0.03125c0.0072-0.0041,0.14931-0.0579,0.15625-0.0625,0.0069-0.0046,0.11838-0.11996,0.125-0.125,0.0066-0.005,0.14997-0.08828,0.15625-0.09375,0.0063-0.0055,0.11909-0.11913,0.125-0.125,0.0059-0.0059,0.08824-0.11876,0.09375-0.125,0.0055-0.0062,0.11991-0.11841,0.125-0.125,0.0051-0.0066,0.08911-0.11809,0.09375-0.125,0.0046-0.0069,0.08957-0.14905,0.09375-0.15625,0.0042-0.0072,0.0588-0.11754,0.0625-0.125,0.0037-0.0075,0.09055-0.14856,0.09375-0.15625,0.0032-0.0077,0.02856-0.14837,0.03125-0.15625,0.0027-0.0079,0.06034-0.17946,0.0625-0.1875,0.0022-0.008,0.02962-0.14809,0.03125-0.15625,0.0016-0.0082,0.03016-0.148,0.03125-0.15625,0.0011-0.0083,0.0307-0.17919,0.03125-0.1875,0.000547-0.0083,0-0.14792,0-0.15625,0-0.0083,0.000547-0.14794,0-0.15625-0.000547-0.0083-0.03016-0.17925-0.03125-0.1875,0.002-0.006-0.026-0.146-0.028-0.154-0.0016-0.0082-0.02909-0.14821-0.03125-0.15625-0.0022-0.008-0.05981-0.17962-0.0625-0.1875-0.0027-0.0079-0.02805-0.14856-0.03125-0.15625-0.0032-0.0077-0.09005-0.14879-0.09375-0.15625-0.0037-0.0075-0.05832-0.1178-0.0625-0.125-0.0042-0.0072-0.08911-0.14934-0.09375-0.15625-0.0046-0.0069-0.08866-0.11841-0.09375-0.125-0.0051-0.0066-0.11949-0.11876-0.125-0.125-0.0055-0.0062-0.08784-0.11913-0.09375-0.125l-0.125-0.125c-0.0063-0.0055-0.14962-0.08871-0.15625-0.09375-0.0066-0.005-0.11806-0.1204-0.125-0.125-0.0069-0.0046-0.14902-0.05837-0.15625-0.0625a1.0958,1.0958,0,0,0,0,-0.03125l-17-9.5v0.03125c-0.0082-0.0046-0.14774-0.08973-0.15625-0.09375-0.0085-0.004-0.17872-0.09037-0.1875-0.09375-0.0088-0.0034-0.17849-0.05978-0.1875-0.0625-0.009-0.0027-0.14706-0.02921-0.15625-0.03125-0.0092-0.002-0.17819-0.0299-0.1875-0.03125-0.0093-0.0014-0.20936-0.03059-0.21875-0.03125-0.0094-0.000659-0.17809-0.00004-0.1875,0-0.0094,0.00004-0.17812-0.000738-0.1875,0z" fill-rule="evenodd" transform="matrix(0.90311408,0,0,0.91167666,3.2001538,3.8304482)" fill="#000"/>
 <path opacity="0.15" d="M24.375,21.031a1.4757,1.4757,0,0,0,-1.344,1.469v19a1.4757,1.4757,0,0,0,2.1875,1.2812l17-9.5a1.4757,1.4757,0,0,0,0,-2.5625l-17-9.5a1.4757,1.4757,0,0,0,-0.843,-0.187z" fill-rule="evenodd" transform="matrix(0.90311408,0,0,0.91167666,3.2001538,3.8304481)" fill="#000"/>
 <path transform="matrix(0.90311408,0,0,0.91167666,3.2001539,2.8304481)" fill="#fafafa" d="M24.375,21.031a1.4757,1.4757,0,0,0,-1.344,1.469v19a1.4757,1.4757,0,0,0,2.1875,1.2812l17-9.5a1.4757,1.4757,0,0,0,0,-2.5625l-17-9.5a1.4757,1.4757,0,0,0,-0.843,-0.187z" fill-rule="evenodd"/>
 <path opacity="0.2" stroke-linejoin="miter" d="m2.5,51.5,58.5,0" stroke="#000" stroke-linecap="butt" stroke-width="1px" fill="none"/>
 <rect opacity="0.4" ry="0.46274" height="1" width="52" y="54" x="6" fill="#000"/>
 <path style="color:#000000;enable-background:accumulate;" fill="url(#linearGradient14702)" d="m18.5,52.5c1.1035,0,2,0.89647,2,2s-0.89647,2-2,2-2-0.89647-2-2,0.89647-2,2-2z" fill-rule="nonzero"/>
 <path opacity="0.15" stroke-linejoin="round" style="color:#000000;enable-background:accumulate;" d="m17.563,54.594c0,0.5523,0.44775,1,0.99999,1,0.55229,0,1-0.44774,1-1,0-0.55228-0.44772-0.99996-1-0.99996-0.55224,0-0.99999,0.44769-0.99999,0.99996z" stroke-dashoffset="0" stroke="url(#linearGradient14699)" stroke-linecap="round" stroke-miterlimit="4" stroke-dasharray="none" stroke-width="1" fill="none"/>
 <path stroke-linejoin="round" style="color:#000000;enable-background:accumulate;" d="m18.5,52.5c1.1035,0,2,0.89647,2,2s-0.89647,2-2,2-2-0.89647-2-2,0.89647-2,2-2z" stroke-dashoffset="0" stroke="#292e2f" stroke-linecap="round" stroke-miterlimit="4" stroke-dasharray="none" stroke-width="1" fill="none"/>
 <path opacity="0.5" style="solid-opacity:1;direction:ltr;enable-background:accumulate;baseline-shift:baseline;color-rendering:auto;text-decoration-color:#000000;color:#000000;isolation:auto;mix-blend-mode:normal;shape-rendering:auto;solid-color:#000000;block-progression:tb;color-interpolation:sRGB;text-decoration-line:none;text-decoration-style:solid;image-rendering:auto;white-space:normal;text-indent:0;text-transform:none;color-interpolation-filters:linearRGB;text-align:start;" d="m2,51,0,5.5c0,1.376,1.1236,2.5,2.5,2.5h55c1.3764,0,2.5-1.1236,2.5-2.5v-5.5h-1v5.5c0,0.83965-0.66035,1.5-1.5,1.5h-55c-0.8396,0-1.5-0.66-1.5-1.5v-5.5z" fill-rule="nonzero" clip-rule="nonzero" fill="#000"/>
 <path stroke-linejoin="round" opacity="0.29999999999999999" style="color:#000000;enable-background:accumulate;" d="m4,52.5,56,0m-56-2,56,0m-55.5-37.929h55c0.554,0,1,0.446,1,1v43c0,0.554-0.446,1-1,1h-55c-0.554,0-1-0.446-1-1v-43c0-0.554,0.446-1,1-1z" stroke-dashoffset="0" stroke="url(#linearGradient3133-5)" stroke-linecap="round" stroke-dasharray="none" stroke-miterlimit="4" stroke-width="1" fill="none"/>
</svg>
