<?xml version="1.0" encoding="UTF-8" standalone="no"?>
<svg
   xmlns:dc="http://purl.org/dc/elements/1.1/"
   xmlns:cc="http://creativecommons.org/ns#"
   xmlns:rdf="http://www.w3.org/1999/02/22-rdf-syntax-ns#"
   xmlns:svg="http://www.w3.org/2000/svg"
   xmlns="http://www.w3.org/2000/svg"
   xmlns:xlink="http://www.w3.org/1999/xlink"
   version="1.1"
   id="svg2"
   viewBox="0 0 64 64">
  <metadata
     id="metadata70">
    <rdf:RDF>
      <cc:Work
         rdf:about="">
        <dc:format>image/svg+xml</dc:format>
        <dc:type
           rdf:resource="http://purl.org/dc/dcmitype/StillImage" />
      </cc:Work>
    </rdf:RDF>
  </metadata>
  <defs
     id="defs4">
    <linearGradient
       id="5">
      <stop
         id="stop7"
         stop-color="#181818" />
      <stop
         id="stop9"
         stop-opacity="0"
         stop-color="#181818"
         offset="1" />
    </linearGradient>
    <linearGradient
       gradientTransform="matrix(1.43243 0 0 1.43628-2.378-2.471)"
       gradientUnits="userSpaceOnUse"
       id="2"
       y2="43"
       x2="0"
       y1="5">
      <stop
         id="stop12"
         stop-color="#fff" />
      <stop
         id="stop14"
         stop-opacity=".235"
         stop-color="#fff"
         offset=".063" />
      <stop
         id="stop16"
         stop-opacity=".157"
         stop-color="#fff"
         offset=".951" />
      <stop
         id="stop18"
         stop-opacity=".392"
         stop-color="#fff"
         offset="1" />
    </linearGradient>
    <linearGradient
       gradientUnits="userSpaceOnUse"
       id="7"
       y2="39.999"
       x2="0"
       y1="47.03">
      <stop
         id="stop21"
         stop-opacity="0"
         stop-color="#181818" />
      <stop
         id="stop23"
         stop-color="#181818"
         offset=".5" />
      <stop
         id="stop25"
         stop-opacity="0"
         stop-color="#181818"
         offset="1" />
    </linearGradient>
    <linearGradient
       gradientUnits="userSpaceOnUse"
       id="0"
       y2="54.78"
       x2="0"
       y1="8.508">
      <stop
         id="stop28"
         stop-color="#fff5ef" />
      <stop
         id="stop30"
         stop-color="#fef8dd"
         offset="1" />
    </linearGradient>
    <linearGradient
       gradientUnits="userSpaceOnUse"
       id="1"
       y2="52.957"
       x2="0"
       y1="13.09">
      <stop
         id="stop33"
         stop-color="#dc5639" />
      <stop
         id="stop35"
         stop-color="#9d0f0f"
         offset="1" />
    </linearGradient>
    <radialGradient
       gradientTransform="matrix(2.0038 0 0 1.4 27.988-17.4)"
       gradientUnits="userSpaceOnUse"
       xlink:href="#5"
       id="4"
       r="2.5"
       cy="43.5"
       cx="4.993" />
    <radialGradient
       gradientTransform="matrix(2.0038 0 0 1.4-20.01-104.4)"
       gradientUnits="userSpaceOnUse"
       xlink:href="#5"
       id="6"
       r="2.5"
       cy="43.5"
       cx="4.993" />
    <radialGradient
       gradientTransform="matrix(0 13.39398-16.44353 0 196.9-114.89)"
       gradientUnits="userSpaceOnUse"
       id="3"
       fx="6.2"
       r="12.672"
       cy="9.957"
       cx="6.73">
      <stop
         id="stop40"
         stop-color="#ffcd7d" />
      <stop
         id="stop42"
         stop-color="#fc8f36"
         offset=".262" />
      <stop
         id="stop44"
         stop-color="#e23a0e"
         offset=".705" />
      <stop
         id="stop46"
         stop-color="#ac441f"
         offset="1" />
    </radialGradient>
  </defs>
  <g
     id="g48"
     opacity=".6"
     transform="matrix(1.57895 0 0 .71429-5.895 27.929)">
    <path
       id="path50"
       d="m38 40h5v7h-5z"
       fill="url(#4)" />
    <path
       id="path52"
       d="m-10-47h5v7h-5z"
       fill="url(#6)"
       transform="scale(-1-1)" />
    <path
       id="path54"
       d="m10 40h28v7h-28z"
       fill="url(#7)" />
  </g>
  <rect
     id="rect56"
     color="#000"
     fill="url(#3)"
     y="4.5"
     x="4.5"
     rx="3"
     height="55"
     width="55" />
  <rect
     id="rect58"
     stroke-linecap="round"
     stroke-linejoin="round"
     stroke="url(#2)"
     fill="none"
     opacity=".5"
     y="5.429"
     x="5.5"
     rx="2"
     height="53.14"
     width="53" />
  <path
     id="path60"
     color="#000"
     fill="url(#1)"
     opacity=".15"
     d="m33.5 10c-1.918-.153-2.812 1.831-2.5 3.461 0 9.263 0 18.526 0 27.789-1.301-.156-2.991.115-4.365.598-3.412 1.136-6.256 4.238-6.604 7.839-.626 4.48 4.332 8.228 8.489 7.153 4.707-.751 8.114-5.638 7.479-10.31.011-7.167-.029-14.333 0-21.5 3.475 2.075 6.409 5.773 6.123 10.01-.017 2.924-1.06 5.701-1.916 8.444-.042 1.052 1.518 1.371 1.951.434 4.192-5.255 5.136-13.01 1.846-18.947-1.776-3.247-5.01-5.426-6.571-8.821-1.331-1.664-.855-4.152-2.189-5.696-.495-.381-1.135-.479-1.742-.456" />
  <path
     id="path62"
     fill="#ae2109"
     opacity=".3"
     d="m33.501 11c-1.525 0-1.491 1.01-1.491 2.036l-.019 29.2c-.32.335-.801-.216-1.209-.073-4.447-.271-9.306 2.954-9.751 7.608-.524 3.7 3.386 6.745 6.872 6.169 4.393-.467 7.661-4.899 7.088-9.276.012-7.706-.025-15.422.019-23.12.299-.343.91.387 1.226.423 3.533 2.09 6.658 5.537 6.869 9.83.232 3.354-.784 6.636-1.926 9.746 3.829-4.713 5.05-11.589 2.394-17.16-1.361-3.232-4.43-5.223-6.148-8.225-1.268-2.01-2.233-4.245-2.535-6.613-.249-.494-.904-.554-1.388-.549" />
  <path
     id="path64"
     fill="url(#0)"
     d="m33.501 10c-1.525 0-1.491 1.01-1.491 2.036l-.019 29.2c0 0-.623-.073-1.209-.073-4.447-.271-9.306 2.954-9.751 7.608-.524 3.7 3.386 6.745 6.872 6.169 4.393-.467 7.661-4.899 7.088-9.276.012-7.706-.025-15.422.019-23.12.299-.343.91.387 1.226.423 3.533 2.09 6.658 5.537 6.869 9.83.232 3.354-.784 6.636-1.926 9.746 3.829-4.713 5.05-11.589 2.394-17.16-1.361-3.232-4.43-5.223-6.148-8.225-1.268-2.01-2.233-4.245-2.535-6.613-.249-.494-.904-.554-1.388-.549" />
  <rect
     id="rect66"
     color="#000"
     stroke-linecap="round"
     stroke-linejoin="round"
     stroke="#640000"
     fill="none"
     opacity=".4"
     y="4.5"
     x="4.5"
     rx="3"
     height="55"
     width="55" />
</svg>
