<svg xmlns="http://www.w3.org/2000/svg" xmlns:xlink="http://www.w3.org/1999/xlink" viewBox="0 0 64 64">
    <defs>
        <path d="M108.114 32.571a16.029 16.029 0 1 1-32.057 0 16.029 16.029 0 1 1 32.057 0z" id="z"/>
        <path d="M39.65 39.709a3.159 3.159 0 1 1-6.318 0 3.159 3.159 0 1 1 6.318 0" id="O"/>
        <linearGradient gradientUnits="userSpaceOnUse" id="r" y2="75.19" x2="-208.5" y1="88.75" x1="-211.29">
            <stop stop-color="#ec4502"/>
            <stop stop-color="#fe7617" offset="1"/>
        </linearGradient>
        <linearGradient gradientUnits="userSpaceOnUse" id="s" y2="44.723" x2="18.461" y1="49.818" x1="16.504">
            <stop stop-color="#7a0f01"/>
            <stop stop-color="#d31807" offset="1"/>
        </linearGradient>
        <linearGradient gradientUnits="userSpaceOnUse" id="D" y2="50.624" x2="0" y1="45.43">
            <stop stop-color="#170418"/>
            <stop stop-color="#50386b" offset="1"/>
        </linearGradient>
        <linearGradient spreadMethod="reflect" gradientUnits="userSpaceOnUse" id="t" y2="24.766" x2="32.817" y1="33.366" x1="29.999">
            <stop stop-color="#fff"/>
            <stop stop-opacity=".543" stop-color="#fff" offset="1"/>
        </linearGradient>
        <linearGradient gradientUnits="userSpaceOnUse" id="w" y2="62.14" x2="0" y1="34.01">
            <stop stop-color="#fff"/>
            <stop stop-opacity=".235" stop-color="#fff" offset=".424"/>
            <stop stop-opacity=".157" stop-color="#fff" offset=".821"/>
            <stop stop-opacity=".392" stop-color="#fff" offset="1"/>
        </linearGradient>
        <linearGradient gradientUnits="userSpaceOnUse" xlink:href="#a" id="A" y2="48.984" x2="0" y1="16.555"/>
        <linearGradient gradientUnits="userSpaceOnUse" id="x" y2="60.06" x2="0" y1="36.06">
            <stop stop-color="#b6b6b6"/>
            <stop stop-color="#a4a4a4" offset=".331"/>
            <stop stop-color="#c5c5c5" offset="1"/>
        </linearGradient>
        <linearGradient gradientTransform="matrix(1.2616 .33625 -.2414 .89515 162.03 39.643)" gradientUnits="userSpaceOnUse" xlink:href="#b" id="i" y2="52.888" x2="-76.844" y1="6.681" x1="-76.83"/>
        <linearGradient gradientTransform="matrix(.31576 0 0 .31579 73.09 22.926)" gradientUnits="userSpaceOnUse" id="q" y2="38.561" x2="0" y1="-37.39">
            <stop stop-color="#0b85e9"/>
            <stop stop-color="#69d1ef" offset="1"/>
        </linearGradient>
        <linearGradient gradientTransform="matrix(.31576 0 0 .31579 73.09 22.926)" gradientUnits="userSpaceOnUse" id="p" y2="39.992" x2="0" y1="110.92">
            <stop stop-color="#e89c42"/>
            <stop stop-color="#faca67" offset="1"/>
        </linearGradient>
        <linearGradient id="b">
            <stop stop-opacity=".271"/>
            <stop stop-opacity=".368" offset="1"/>
        </linearGradient>
        <linearGradient gradientTransform="matrix(1.45584 .38716 -.23623 .87499 3.091 1.746)" gradientUnits="userSpaceOnUse" xlink:href="#c" id="j" y2="47.01" x2="0" y1=".985"/>
        <linearGradient gradientTransform="matrix(1.35165 .35945 -.28701 1.06306 6.448 -.761)" gradientUnits="userSpaceOnUse" xlink:href="#d" id="k" y2="42.38" x2="0" y1="5.54"/>
        <linearGradient gradientTransform="matrix(1.3372 .00075 .00027 .95577 162.24 6.291)" gradientUnits="userSpaceOnUse" xlink:href="#b" id="m" y2="52.888" x2="-76.844" y1="6.681" x1="-76.83"/>
        <linearGradient id="c">
            <stop stop-color="#f4f4f4"/>
            <stop stop-color="#dbdbdb" offset="1"/>
        </linearGradient>
        <linearGradient gradientTransform="matrix(1.43243 0 0 1.13514 -2.379 7.257)" gradientUnits="userSpaceOnUse" xlink:href="#d" id="o" y2="42.38" x2="0" y1="5.54"/>
        <linearGradient gradientTransform="matrix(1.54285 0 0 .93432 -5.03 10.643)" gradientUnits="userSpaceOnUse" xlink:href="#c" id="n" y2="47.01" x2="0" y1=".985"/>
        <linearGradient id="d">
            <stop stop-color="#fff"/>
            <stop stop-opacity=".235" stop-color="#fff" offset=".005"/>
            <stop stop-opacity=".157" stop-color="#fff" offset=".991"/>
            <stop stop-opacity=".392" stop-color="#fff" offset="1"/>
        </linearGradient>
        <linearGradient gradientUnits="userSpaceOnUse" id="y" y2="48.631" x2="0" y1="16.543">
            <stop stop-color="#7a8498"/>
            <stop stop-color="#34405c" offset="1"/>
        </linearGradient>
        <linearGradient id="a">
            <stop stop-color="#fff"/>
            <stop stop-opacity=".235" stop-color="#fff" offset=".338"/>
            <stop stop-opacity=".157" stop-color="#fff" offset=".62"/>
            <stop stop-opacity=".392" stop-color="#fff" offset="1"/>
        </linearGradient>
        <linearGradient id="e">
            <stop stop-color="#fff"/>
            <stop stop-opacity="0" stop-color="#fff" offset="1"/>
        </linearGradient>
        <linearGradient gradientTransform="matrix(.07464 0 0 .05598 43.01 43.758)" gradientUnits="userSpaceOnUse" xlink:href="#e" id="J" y2="65.922" x2="0" y1="52.925"/>
        <linearGradient gradientUnits="userSpaceOnUse" xlink:href="#a" id="I" y2="48.984" x2="0" y1="16.555"/>
        <linearGradient id="f">
            <stop stop-opacity="0" stop-color="#fff"/>
            <stop stop-opacity="0" stop-color="#fff" offset=".405"/>
            <stop stop-opacity=".478" stop-color="#fff" offset="1"/>
        </linearGradient>
        <linearGradient gradientUnits="userSpaceOnUse" id="S" y2="37.81" x2="34.13" y1="41.608" x1="38.851">
            <stop stop-color="#feffff"/>
            <stop stop-color="#fe70ca" offset="1"/>
        </linearGradient>
        <linearGradient gradientUnits="userSpaceOnUse" id="T" y2="37.81" x2="34.13" y1="41.608" x1="38.851">
            <stop stop-color="#fbac9b"/>
            <stop stop-color="#fcfafc" offset="1"/>
        </linearGradient>
        <linearGradient gradientUnits="userSpaceOnUse" xlink:href="#a" id="G" y2="48.984" x2="0" y1="16.555"/>
        <radialGradient gradientTransform="matrix(2.06765 .55403 -.53485 1.99608 -17.766 -49.22)" gradientUnits="userSpaceOnUse" xlink:href="#f" id="M" r="3.857" cy="31.405" cx="32.373"/>
        <radialGradient gradientUnits="userSpaceOnUse" id="N" r="7.971" cy="31.405" cx="32.373">
            <stop stop-opacity="0" stop-color="#ff54d2"/>
            <stop stop-opacity="0" stop-color="#ff54d2" offset=".324"/>
            <stop stop-opacity=".252" stop-color="#ff54d2" offset=".561"/>
            <stop stop-opacity=".478" stop-color="#ff54d2" offset="1"/>
        </radialGradient>
        <radialGradient gradientUnits="userSpaceOnUse" xlink:href="#e" id="R" r="3.159" cy="39.709" cx="36.491"/>
        <radialGradient xlink:href="#g" gradientTransform="matrix(1.23278 0 0 .08358 5.418 53.621)" gradientUnits="userSpaceOnUse" id="l" r="23.93" cy="40.43" cx="19.534"/>
        <radialGradient gradientUnits="userSpaceOnUse" xlink:href="#e" id="P" r="3.159" cy="39.709" cx="36.491"/>
        <radialGradient gradientUnits="userSpaceOnUse" xlink:href="#e" id="Q" r="3.159" cy="39.709" cx="36.491"/>
        <radialGradient gradientTransform="matrix(2.06765 .55403 -.53485 1.99608 -17.766 -49.22)" gradientUnits="userSpaceOnUse" xlink:href="#f" id="K" r="3.857" cy="31.405" cx="32.373"/>
        <radialGradient gradientTransform="matrix(2.06765 .55403 -.53485 1.99608 -17.766 -49.22)" gradientUnits="userSpaceOnUse" xlink:href="#f" id="L" r="3.857" cy="31.405" cx="32.373"/>
        <radialGradient gradientTransform="matrix(.27003 0 0 .25371 22.08 23.699)" gradientUnits="userSpaceOnUse" id="F" r="9.498" cy="95.39" cx="95.84">
            <stop stop-opacity="0"/>
            <stop stop-opacity="0" offset=".5"/>
            <stop offset="1"/>
        </radialGradient>
        <radialGradient gradientTransform="matrix(0 .92988 -2.14202 0 93.49 13.27)" gradientUnits="userSpaceOnUse" id="C" r="10.498" cy="21.239" cx="32">
            <stop stop-color="#07132d"/>
            <stop stop-color="#425479" offset="1"/>
        </radialGradient>
        <radialGradient gradientTransform="rotate(90 144.19 -20.27) scale(1.9804)" gradientUnits="userSpaceOnUse" id="B" r="15.639" cy="16.448" cx="91.35">
            <stop stop-color="#2d3955"/>
            <stop stop-color="#2b3853" offset=".725"/>
            <stop stop-color="#192640" offset=".75"/>
            <stop stop-color="#08142e" offset="1"/>
        </radialGradient>
        <radialGradient gradientUnits="userSpaceOnUse" id="H" r="7.971" cy="31.405" cx="32.373">
            <stop stop-opacity="0" stop-color="#ff54d2"/>
            <stop stop-color="#f62b68" offset=".324"/>
            <stop stop-color="#ff0105" offset=".561"/>
            <stop stop-opacity=".478" stop-color="#ff54d2" offset="1"/>
        </radialGradient>
        <radialGradient gradientTransform="matrix(0 .29307 -.38685 0 49.543 38.31)" gradientUnits="userSpaceOnUse" id="E" r="20.397" cy="3.99" cx="23.896">
            <stop stop-color="#612f91"/>
            <stop stop-color="#1a4aa2" offset="1"/>
        </radialGradient>
        <radialGradient gradientTransform="matrix(0 2.04308 -2.69683 0 58.76 -15.622)" gradientUnits="userSpaceOnUse" xlink:href="#h" id="v" r="20.397" cy="3.99" cx="23.896"/>
        <radialGradient gradientTransform="matrix(1.12941 0 0 .28235 -58.729 19.694)" gradientUnits="userSpaceOnUse" id="g" r="10.625" cy="4.625" cx="62.63">
            <stop/>
            <stop stop-opacity="0" offset="1"/>
        </radialGradient>
        <radialGradient gradientTransform="matrix(0 1.23165 -1.62575 0 18.487 -28.722)" gradientUnits="userSpaceOnUse" id="h" r="20.397" cy="3.99" cx="23.896">
            <stop stop-color="#fff"/>
            <stop stop-color="#ddd" offset=".262"/>
            <stop stop-color="#abacae" offset=".661"/>
            <stop stop-color="#89898b" offset="1"/>
        </radialGradient>
        <radialGradient gradientTransform="matrix(1.12045 0 0 .30345 -22.297 58.62)" gradientUnits="userSpaceOnUse" xlink:href="#g" id="u" r="10.625" cy="4.625" cx="62.63"/>
    </defs>
    <path color="#000" stroke-linejoin="round" stroke="url(#i)" fill="none" d="M52.39 60.883L.492 47.082l11.125-41.21 51.898 13.801z"/>
    <path fill="url(#j)" d="M11.958 6.469l50.954 13.553-10.871 40.27s-33.97-9.03-50.955-13.55l10.872-40.27"/>
    <path color="#000" stroke="#158bb9" fill="#49bdea" d="M14.376 10.625l44.35 11.796-9.102 33.712-44.35-11.794 9.102-33.714z"/>
    <path stroke-linecap="round" stroke="url(#k)" fill="none" d="M51.695 59.696l-50.01-13.3 10.619-39.33 50.01 13.3z"/>
    <g color="#000">
        <path fill="url(#l)" opacity=".2" d="M59 57a29.5 2 0 0 1-59 0 29.5 2 0 1 1 59 0"/>
        <path stroke-linejoin="round" stroke="url(#m)" fill="none" d="M59.5 56.5h-55v-44h55z"/>
    </g>
    <path fill="url(#n)" d="M5 13l54 .003V56H5V13"/>
    <path stroke-linecap="round" stroke="url(#o)" fill="none" d="M58.5 55.5h-53v-42h53z"/>
    <g color="#000">
        <path fill="url(#p)" d="M8 16v37h48V16z"/>
        <path opacity=".03" d="M8 17.12v21.473c1.109.276 2.49.491 4.118.491 2.216 0 3.377-.401 4.227-.764.85-.362 1.331-.655 3.03-.655 1.619 0 2.932.532 4.555 1.118 1.623.586 3.532 1.2 6.136 1.2 3.235 0 5.33-1.018 7.06-1.964 1.733-.946 3.07-1.773 5.236-1.773 1.711 0 2.478.411 3.545.927 1.068.516 2.413 1.118 4.636 1.118 2.798 0 4.075-1.02 5.455-1.664V17.118z"/>
        <path opacity=".1" d="M8 17.12v20.518c1.072.285 2.462.518 4.118.518 4.222 0 3.619-1.418 7.255-1.418 3.635 0 5.776 2.318 10.691 2.318 6.087 0 7.484-3.736 12.3-3.736 3.761 0 4.04 2.045 8.182 2.045 2.796 0 3.725-1.075 5.455-1.773V17.119z"/>
    </g>
    <path fill="url(#q)" d="M8 16v18.882c.713.329 1.615.627 2.591.627 2.228 0 4.407-1.8 8.127-1.8 3.72 0 6.518 2.264 11.209 2.264S35.673 32.7 41.654 32.7s5.419 2.073 9.164 2.073c2.58 0 3.681-.901 5.182-1.473V16z"/>
    <g color="#000">
        <g fill="#fff">
            <path opacity=".1" d="M41.654 31.01c-3.142 0-5.118.89-6.736 1.718-1.618.829-2.839 1.555-4.991 1.555-2.212 0-3.96-.528-5.7-1.091-1.74-.562-3.481-1.173-5.509-1.173-1.994 0-3.597.469-4.909.927-1.312.458-2.328.873-3.218.873-.806 0-1.592-.276-2.236-.573A.83.83 0 0 0 8 33.164v3.573c1.104.276 2.49.491 4.118.491 2.204 0 3.325-.402 4.173-.764.848-.36 1.372-.655 3.082-.655 1.641 0 2.961.533 4.582 1.118 1.621.586 3.521 1.2 6.11 1.2 3.212 0 5.304-1.019 7.04-1.964 1.73-.944 3.07-1.773 5.263-1.773 1.73 0 2.533.44 3.6.955 1.067.516 2.376 1.091 4.582 1.091 2.81 0 4.04-1.042 5.455-1.69v-3.137a.83.83 0 0 0-.3.055c-1.645.627-2.495 1.418-4.882 1.418-1.719 0-2.256-.412-3.382-.955-1.126-.543-2.695-1.118-5.782-1.118"/>
            <path opacity=".3" d="M41.654 31.828c-5.981 0-7.04 3.273-11.727 3.273-4.691 0-7.489-2.264-11.209-2.264-3.72 0-5.899 1.8-8.127 1.8-.976 0-1.878-.299-2.591-.627v1.882c1.072.285 2.462.518 4.118.518 4.222 0 3.619-1.418 7.255-1.418 3.635 0 5.776 2.318 10.691 2.318 6.087 0 7.484-3.736 12.3-3.736 3.761 0 4.04 2.045 8.182 2.045 2.796 0 3.725-1.075 5.455-1.773v-1.418c-1.5.572-2.602 1.473-5.182 1.473-3.745 0-3.183-2.073-9.164-2.073"/>
            <path d="M41.654 32.7c-5.981 0-7.04 3.273-11.727 3.273-4.691 0-7.489-2.264-11.209-2.264-3.72 0-5.899 1.8-8.127 1.8-.976 0-1.878-.299-2.591-.627v1.882c1.072.285 2.462.518 4.118.518 4.222 0 3.619-1.418 7.255-1.418 3.635 0 5.776 2.318 10.691 2.318 6.087 0 7.484-3.736 12.3-3.736 3.761 0 4.04 2.045 8.182 2.045 2.796 0 3.725-1.075 5.455-1.773V33.3c-1.5.572-2.602 1.473-5.182 1.473-3.745 0-3.183-2.073-9.164-2.073"/>
        </g>
        <path stroke="#000" fill="none" opacity=".3" d="M8.5 16.5l47 .002V52.5h-47v-36z"/>
        <path opacity=".05" d="M16.773 38.972a1.249 1.249 0 0 0-.482.06c-.648.217-.734.65-.8.883a2.862 2.862 0 0 0-.095.65c-.024.434-.002.919.02 1.403.021.485.05.963.053 1.314 0 .044-.002.059-.003.098l-.072.018c-.348.088-.834.184-1.321.288-.487.103-.972.21-1.397.342-.212.067-.407.13-.628.256-.111.063-.237.143-.374.294a1.113 1.113 0 0 0-.292.758c.018.65.434.858.649.988.214.13.411.209.626.286.43.155.92.285 1.414.415.495.13.987.254 1.342.36.042.012.056.02.094.031-.001.029.002.037 0 .068-.02.34-.07.806-.117 1.276s-.09.94-.087 1.364c.001.211.008.407.066.645.029.119.067.251.176.422.11.17.335.402.672.496.66.185 1-.12 1.198-.272.198-.152.334-.3.479-.469.29-.338.577-.74.86-1.146.284-.404.557-.811.774-1.097.026-.035.04-.044.064-.074l.069.023c.336.122.788.313 1.246.499.458.186.916.366 1.343.494.213.064.414.122.671.144.129.01.275.016.48-.03a1.22 1.22 0 0 0 .703-.452c.39-.534.187-.937.095-1.162a2.89 2.89 0 0 0-.324-.573c-.25-.364-.568-.744-.888-1.123-.32-.38-.643-.754-.864-1.036-.024-.031-.03-.042-.052-.071.02-.024.023-.033.044-.058.227-.264.555-.618.885-.973.33-.355.655-.706.917-1.05.13-.172.25-.333.351-.558.051-.112.1-.243.116-.442a1.101 1.101 0 0 0-.235-.773c-.419-.515-.88-.46-1.135-.448a3.31 3.31 0 0 0-.68.118c-.445.112-.932.281-1.413.451-.481.17-.957.342-1.31.453-.04.013-.055.012-.092.023-.016-.023-.024-.027-.04-.052-.196-.285-.444-.69-.698-1.096-.255-.405-.512-.81-.777-1.15a2.82 2.82 0 0 0-.454-.487 1.383 1.383 0 0 0-.404-.244 1.294 1.294 0 0 0-.373-.084"/>
        <path opacity=".15" d="M16.641 39.96c-.491.165.083 3.705-.229 4.102-.3.382-3.997.77-3.983 1.245.014.492 3.761 1.065 4.063 1.466.291.388-.462 3.833.021 3.968.5.14 2.238-3.046 2.735-3.194.48-.142 3.71 1.592 3.996 1.2.295-.406-2.375-2.944-2.37-3.437.006-.476 2.755-2.845 2.448-3.222-.317-.391-3.705 1.22-4.2 1.063-.477-.152-2.006-3.349-2.48-3.19"/>
        <path fill="url(#r)" transform="matrix(.20493 .01589 -.0169 .19365 62.976 31.06)" d="M-221.2 59.52c2.233-1 11.02 14.801 13.398 15.39 2.462.61 18.19-9.02 19.889-7.142 1.645 1.814-10.671 15.06-10.497 17.498.181 2.53 14.199 14.508 12.939 16.709-1.217 2.125-17.616-5.497-19.885-4.576-2.35.953-9.41 17.987-11.893 17.469-2.397-.5-.216-18.453-1.793-20.326-1.633-1.94-20.01-3.392-20.289-5.913-.265-2.434 17.483-5.908 18.777-7.986 1.341-2.153-2.959-20.08-.646-21.12"/>
    </g>
    <path fill="#9d0f06" opacity=".5" d="M16.672 39.07l-.139.133c-.001.003-.005.004-.006.006-.279.671.168 3.607-.114 3.965a.245.245 0 0 1-.051.051l.114.076c2.281.678.284-4.09.228-4.224-.011-.002-.021-.007-.032-.006"/>
    <path fill="url(#s)" opacity=".75" d="M13.156 44.34c-.449.004-.708.025-.708.025V44.472c.263.48 3.75 1.029 4.04 1.417.291.388-.457 3.83.025 3.965.5.14 2.234-3.046 2.732-3.194.478-.141 3.671 1.571 3.99 1.208l-.006-.006c-2.693-3.276-8.13-3.539-10.07-3.523"/>
    <path fill="url(#t)" opacity=".07" d="M23.296 16l-.766.266a.43.43 0 0 0-.031.016l-8.484 3.516-5.97-.72a.43.43 0 0 0-.046 0v2.314a.43.43 0 0 0 .219-.063 5.086 5.086 0 0 1 1.047-.14 24.91 24.91 0 0 1 1.922.046c1.203.064 2.105.151 2.313.172l.984 2.11-1.922.921a.43.43 0 0 0-.22.234l-.796 2.047h-.75a.43.43 0 0 0-.39.25l-.314.72-2.063-.157a.43.43 0 0 0-.03 0v1.875l4.733.188a.43.43 0 0 0 .266-.078l.875-.625 9.437-.344a.43.43 0 0 0 .03 0l2.657-.328 2.484.734a.43.43 0 0 0 .469-.14l.156-.188c.03-.011.054-.036.156-.063.142-.037.33-.067.547-.11.43-.083.975-.185 1.5-.265a98.9 98.9 0 0 1 1.984-.281h.047c.322.007 1.305.173 2.172.344.744.147 1.21.254 1.406.297.158.55.34 1.515.484 2.5.157 1.072.277 2.083.313 2.39a.43.43 0 0 0 .015.079 11.65 11.65 0 0 1 2.828-.547.43.43 0 0 0-.093-.235c-.456-.517-1.117-1.778-1.031-4.547l1.625-.063a.43.43 0 0 0 .171-.03s1.358-.669 2.875-1.392c1.517-.723 3.217-1.509 3.797-1.734.198-.077.8-.169 1.516-.219.717-.05 1.568-.079 2.422-.109.854-.03 1.704-.064 2.406-.125.702-.06 1.212-.105 1.625-.359a.43.43 0 0 0 .125-.11v-1.562c-.016-.013-.047-.031-.047-.031a.43.43 0 0 0-.64.219c-.024.013.01-.001-.094.03-.193.062-.534.129-1.063.204-1.057.15-2.892.312-6 .39a.43.43 0 0 0-.156.032s-1.775.788-3.578 1.609c-.902.41-1.81.82-2.516 1.156-.353.168-.648.32-.875.438-.113.058-.204.112-.281.156-.016.009-.033.024-.047.03l-1.016.048 1.078-1.453 4.469-2.406a.43.43 0 0 0 .14-.625l-2.906-3.922 6.578-.438a.43.43 0 0 0 .14-.031l3.298-1.5a.43.43 0 0 0 .093-.063.43.43 0 0 0 .016 0 .43.43 0 0 0 .219.094l2.594.172a.43.43 0 0 0 .453-.5L55.839 16h-6.797l-.703.25-5.453.25-.594-.5h-3.03a.43.43 0 0 0 .031.172c.04.095.06.164.078.234-.378.133-2.083.74-3.39.75l-1.298-.22a.43.43 0 0 0-.062 0c-.447 0-1.64-.24-2.813-.53A80.477 80.477 0 0 1 30.23 16h-6.938m3.047.594l.656.375a.43.43 0 0 0 .125.047l8.875 1.953a.43.43 0 0 0 .218-.016l3.313-1.047.984.594 2.813 3.734-3.656 1.797a.43.43 0 0 0-.14.11l-2.11 2.5-3.812-.267a.43.43 0 0 0-.125 0l-5 1.031-2.266-.734a.43.43 0 0 0-.14-.015l-12.454.453c.267-.655.671-1.061 1.125-1.234.581-.221 1.125-.188 1.125-.188a.43.43 0 0 0 .453-.516l-.844-4.063 10.86-4.516"/>
    <path fill-rule="evenodd" fill="url(#u)" opacity=".6" d="M59.775 60.03c0 1.781-5.33 3.224-11.905 3.224-6.575 0-11.905-1.443-11.905-3.224 0-1.781 5.33-3.224 11.905-3.224 6.575 0 11.905 1.443 11.905 3.224"/>
    <g color="#000">
        <path fill="url(#v)" d="M48 33.5c-8 0-14.5 6.499-14.5 14.5 0 8 6.499 14.5 14.5 14.5 8 0 14.5-6.499 14.5-14.5 0-8-6.499-14.5-14.5-14.5"/>
        <path stroke-linecap="round" stroke-linejoin="round" stroke="url(#w)" fill="none" opacity=".8" d="M61.5 48c0 7.456-6.04 13.5-13.5 13.5-7.456 0-13.5-6.04-13.5-13.5 0-7.456 6.04-13.5 13.5-13.5 7.456 0 13.5 6.04 13.5 13.5z"/>
        <path fill="url(#x)" d="M48 36c-6.622 0-12 5.379-12 12s5.379 12 12 12 12-5.379 12-12-5.379-12-12-12"/>
        <path stroke="#000" fill="none" opacity=".05" d="M48 36.5c-6.346 0-11.5 5.379-11.5 12s5.155 12 11.5 12c6.346 0 11.5-5.379 11.5-12s-5.155-12-11.5-12z"/>
        <path fill="url(#y)" transform="translate(-8.02 28.19) scale(.60829)" d="M108.114 32.571a16.029 16.029 0 1 1-32.057 0 16.029 16.029 0 1 1 32.057 0"/>
        <g fill="none">
            <use xlink:href="#z" stroke-width="1.687" stroke="#000" opacity=".3" transform="translate(-6.579 28.695) scale(.59269)"/>
            <use xlink:href="#z" stroke-width="1.886" stroke="url(#A)" opacity=".3" transform="matrix(.53031 0 0 .5303 -.834 30.727)"/>
        </g>
        <path fill="url(#B)" transform="translate(10.03 34.831) scale(.41562)" d="M106.99 31.686a15.64 15.64 0 1 1-31.28 0 15.64 15.64 0 1 1 31.28 0"/>
        <g stroke="#000" fill="none">
            <path stroke-width=".9999817200000001" opacity=".3" d="M54.497 48a6.5 6.5 0 1 1-13 0 6.5 6.5 0 1 1 13 0z"/>
            <path opacity=".3" d="M48 33.5c-8 0-14.5 6.499-14.5 14.5 0 8 6.499 14.5 14.5 14.5 8 0 14.5-6.499 14.5-14.5 0-8-6.499-14.5-14.5-14.5z"/>
        </g>
    </g>
    <path fill="url(#C)" d="M48 43.15a4.856 4.856 0 0 0-4.853 4.853A4.856 4.856 0 0 0 48 52.856a4.856 4.856 0 0 0 4.853-4.853A4.856 4.856 0 0 0 48 43.15"/>
    <path stroke-linecap="round" stroke-linejoin="round" stroke="#000" fill="none" opacity=".3" d="M48 43.502A4.503 4.503 0 0 0 43.502 48 4.503 4.503 0 0 0 48 52.498 4.503 4.503 0 0 0 52.498 48 4.503 4.503 0 0 0 48 43.502z"/>
    <path fill="#2f3b55" d="M47.999 44.17a3.828 3.828 0 0 0-3.825 3.825 3.828 3.828 0 0 0 3.825 3.825 3.828 3.828 0 0 0 3.825-3.825 3.828 3.828 0 0 0-3.825-3.825"/>
    <path stroke-linecap="round" stroke-linejoin="round" stroke="url(#D)" fill="url(#E)" d="M48 45.502A2.5 2.5 0 0 0 45.502 48 2.5 2.5 0 0 0 48 50.498 2.5 2.5 0 0 0 50.498 48 2.5 2.5 0 0 0 48 45.502z"/>
    <path fill="url(#F)" opacity=".5" d="M48 46a2 2 0 1 0 .001 4.001A2 2 0 0 0 48 46"/>
    <g fill="none">
        <use xlink:href="#z" stroke-width="2.914" color="#000" stroke="url(#G)" opacity=".3" transform="matrix(.34314 0 0 -.34314 16.401 59.18)"/>
        <path stroke-linecap="round" stroke-linejoin="round" stroke="#000" opacity=".3" d="M48 44.502A3.5 3.5 0 0 0 44.502 48 3.5 3.5 0 0 0 48 51.498 3.5 3.5 0 0 0 51.498 48 3.5 3.5 0 0 0 48 44.502z"/>
    </g>
    <g color="#000">
        <path fill="url(#H)" opacity=".4" transform="rotate(180 31.555 31.33) scale(.46677)" d="M39.956 32.886a7.715 7.715 0 0 1-5.577 5.98l-1.997-7.451z"/>
        <use xlink:href="#z" stroke-width="6.411" stroke="url(#I)" fill="none" opacity=".3" transform="translate(33.637 42.92) scale(.15597)"/>
        <path fill="url(#J)" opacity=".5" d="M48.852 47.36a.853.64 0 0 1-1.705 0 .853.64 0 1 1 1.705 0"/>
        <path fill="url(#K)" opacity=".4" transform="translate(32.884 33.34) scale(.46677)" d="M40.097 31.415a7.715 7.715 0 0 1-.487 2.698l-7.228-2.698z"/>
        <path fill="url(#L)" opacity=".4" transform="scale(.46677) rotate(75 21.068 113.031)" d="M39.984 32.734a7.715 7.715 0 0 1-.808 2.336l-6.794-3.656z"/>
        <path fill="url(#M)" opacity=".4" transform="rotate(39.241 -15.197 77.454) scale(.46677)" d="M40.033 30.424a7.715 7.715 0 0 1-.857 4.646l-6.794-3.656z"/>
        <path fill="url(#N)" opacity=".5" transform="rotate(-135 38.276 24.073) scale(.46676)" d="M40.097 31.415a7.715 7.715 0 0 1-7.715 7.715v-7.715z"/>
        <use xlink:href="#O" fill="url(#P)" opacity=".2" transform="matrix(1.06654 -.61576 .35035 .60682 -2.516 49.43)"/>
        <use xlink:href="#O" fill="url(#Q)" opacity=".4" transform="matrix(.85823 -.4955 .28192 .4883 2.507 43.37)"/>
        <use xlink:href="#O" fill="url(#R)" opacity=".8" transform="matrix(.24482 0 0 .25611 38.787 37.425)"/>
        <use xlink:href="#O" fill="url(#S)" opacity=".4" transform="matrix(.24482 0 0 .25611 36.733 36.18)"/>
        <use xlink:href="#O" fill="url(#T)" opacity=".4" transform="matrix(.17122 0 0 .17912 39.858 39.698)"/>
    </g>
</svg>
