<svg xmlns="http://www.w3.org/2000/svg" xmlns:xlink="http://www.w3.org/1999/xlink" viewBox="0 0 64 64"><defs><path id="I" d="m599.62 474.79v-25.573l22.15 12.787z"/><linearGradient y1="-47.964" x2="0" y2="54.865" id="A" gradientUnits="userSpaceOnUse"><stop stop-color="#fff"/><stop offset=".03" stop-color="#fff" stop-opacity=".235"/><stop offset=".961" stop-color="#fff" stop-opacity=".157"/><stop offset="1" stop-color="#fff" stop-opacity=".392"/></linearGradient><linearGradient y1="5.42" x2="0" y2="43" id="B" xlink:href="#A" gradientUnits="userSpaceOnUse" gradientTransform="matrix(.40541 0 0 1.37839 523.27 721.28)"/><linearGradient y1="475.46" x2="0" y2="448.54" id="8" xlink:href="#7" gradientUnits="userSpaceOnUse"/><linearGradient x1="-776.36" x2="-768.36" id="C" xlink:href="#D" gradientUnits="userSpaceOnUse"/><linearGradient id="D"><stop stop-color="#fff"/><stop offset="1" stop-color="#fff" stop-opacity="0"/></linearGradient><linearGradient x1="-740.36" x2="-732.36" id="G" xlink:href="#D" gradientUnits="userSpaceOnUse"/><linearGradient x1="-764.36" x2="-756.36" id="E" xlink:href="#D" gradientUnits="userSpaceOnUse"/><linearGradient x1="-752.36" x2="-744.36" id="F" xlink:href="#D" gradientUnits="userSpaceOnUse"/><linearGradient y1="5.42" x2="0" y2="43" id="9" xlink:href="#A" gradientUnits="userSpaceOnUse" gradientTransform="matrix(.72973 0 0 1.37839 534.49 721.28)"/><linearGradient y1="5.42" x2="0" y2="43" id="H" xlink:href="#A" gradientUnits="userSpaceOnUse" gradientTransform="matrix(-.40541 0 0 1.37839 580.73 721.28)"/><linearGradient id="1"><stop/><stop offset="1" stop-opacity="0"/></linearGradient><linearGradient y1="43.5" x2="0" y2="40" id="3" xlink:href="#1" gradientUnits="userSpaceOnUse" gradientTransform="matrix(1.57895 0 0 .71429 514.11 749.79)" spreadMethod="reflect"/><linearGradient y1="781.36" x2="0" y2="727.36" id="6" xlink:href="#7" gradientUnits="userSpaceOnUse"/><linearGradient y1="55.821" x2="0" y2="-50.09" id="7" gradientUnits="userSpaceOnUse"><stop stop-color="#791235"/><stop offset="1" stop-color="#bf1d09"/></linearGradient><radialGradient cx="7.496" cy="8.45" r="20" id="5" gradientUnits="userSpaceOnUse" gradientTransform="matrix(0 3.29576-5.38092 0 77.47-19.382)"><stop stop-color="#f8b17e"/><stop offset=".262" stop-color="#e35d4f"/><stop offset=".661" stop-color="#c6262e"/><stop offset="1" stop-color="#690b54"/></radialGradient><radialGradient cx="7.496" cy="8.45" r="20" id="4" xlink:href="#5" gradientUnits="userSpaceOnUse" gradientTransform="matrix(0 3.17591-2.83721 0 575.97 704.85)"/><radialGradient cx="4.993" cy="43.5" r="2.5" id="0" xlink:href="#1" gradientUnits="userSpaceOnUse" gradientTransform="matrix(3.16388 0 0 1 558.3 737.36)"/><radialGradient cx="4.993" cy="43.5" r="2.5" id="2" xlink:href="#1" gradientUnits="userSpaceOnUse" gradientTransform="matrix(3.16388 0 0 1-545.7-824.36)"/></defs><g transform="translate(-520-721.36)"><path opacity=".4" fill="url(#0)" d="m574.11 778.36h7.895v5h-7.895z"/><path transform="scale(-1-1)" opacity=".4" fill="url(#2)" d="m-529.89-783.36h7.895v5h-7.895z"/><path opacity=".4" fill="url(#3)" d="m529.89 778.36h44.21v5h-44.21z"/><g stroke-linejoin="round"><path fill="url(#4)" stroke="url(#6)" stroke-linecap="round" color="#000" d="m537.5 727.86h29v53h-29z"/><use transform="matrix(1.0385 0 0 .74296-82.21 414.12)" opacity=".06" fill="url(#8)" fill-rule="evenodd" stroke="url(#8)" stroke-width="1.138" xlink:href="#I"/></g><path opacity=".5" fill="none" stroke="url(#9)" stroke-linecap="round" d="m538.5 728.86h27v51h-27z"/><path d="m526.5 727.86c-1.108 0-2 .892-2 2v49c0 1.108.892 2 2 2h11v-53h-11zm3 6h3c.554 0 1 .446 1 1v3c0 .554-.446 1-1 1h-3c-.554 0-1-.446-1-1v-3c0-.554.446-1 1-1zm-.5 12h4c.277 0 .5.223.5.5v4c0 .277-.223.5-.5.5h-4c-.277 0-.5-.223-.5-.5v-4c0-.277.223-.5.5-.5zm0 12h4c.277 0 .5.223.5.5v4c0 .277-.223.5-.5.5h-4c-.277 0-.5-.223-.5-.5v-4c0-.277.223-.5.5-.5zm0 12h4c.277 0 .5.223.5.5v4c0 .277-.223.5-.5.5h-4c-.277 0-.5-.223-.5-.5v-4c0-.277.223-.5.5-.5z" stroke="#000" stroke-linejoin="round" fill-opacity=".784"/><path d="m526.5 728.86c-.554 0-1 .446-1 1v49c0 .554.446 1 1 1 4.667 0 5.333 0 10 0 0-17.615 0-35.861 0-51-4.667 0-5.333 0-10 0z" opacity=".3" fill="none" stroke="url(#B)" stroke-linecap="round"/><rect width="6" height="6" rx="1" x="528" y="769.36" opacity=".4" fill-rule="evenodd"/><rect width="7" height="7" rx="2" x="-775.86" y="-534.5" transform="matrix(0-1-1 0 0 0)" opacity=".12" fill="none" stroke="url(#C)"/><rect width="6" height="6" rx="1" x="528" y="757.36" opacity=".4" fill-rule="evenodd"/><rect width="7" height="7" rx="2" x="-763.86" y="-534.5" transform="matrix(0-1-1 0 0 0)" opacity=".12" fill="none" stroke="url(#E)"/><rect width="6" height="6" rx="1" x="528" y="745.36" opacity=".4" fill-rule="evenodd"/><g fill="none"><rect width="7" height="7" rx="2" x="-751.86" y="-534.5" transform="matrix(0-1-1 0 0 0)" opacity=".12" stroke="url(#F)"/><rect width="7" height="7" rx="2" x="-739.86" y="-534.5" transform="matrix(0-1-1 0 0 0)" opacity=".12" stroke="url(#G)"/></g><path d="m566.5 727.86v53h11c1.108 0 2-.892 2-2v-49c0-1.108-.892-2-2-2h-11zm4.5 6h4c.277 0 .5.223.5.5v4c0 .277-.223.5-.5.5h-4c-.277 0-.5-.223-.5-.5v-4c0-.277.223-.5.5-.5zm0 12h4c.277 0 .5.223.5.5v4c0 .277-.223.5-.5.5h-4c-.277 0-.5-.223-.5-.5v-4c0-.277.223-.5.5-.5zm0 12h4c.277 0 .5.223.5.5v4c0 .277-.223.5-.5.5h-4c-.277 0-.5-.223-.5-.5v-4c0-.277.223-.5.5-.5zm0 12h4c.277 0 .5.223.5.5v4c0 .277-.223.5-.5.5h-4c-.277 0-.5-.223-.5-.5v-4c0-.277.223-.5.5-.5z" stroke="#000" stroke-linejoin="round" fill-opacity=".784"/><path d="m577.5 728.86c.554 0 1 .446 1 1v49c0 .554-.446 1-1 1-4.667 0-5.333 0-10 0 0-17.615 0-35.861 0-51 4.667 0 5.333 0 10 0z" opacity=".3" fill="none" stroke="url(#H)" stroke-linecap="round"/><rect width="6" height="6" rx="1" x="-576" y="769.36" transform="scale(-1 1)" opacity=".4" fill-rule="evenodd"/><rect width="7" height="7" rx="2" x="-775.86" y="569.5" transform="matrix(0-1 1 0 0 0)" opacity=".12" fill="none" stroke="url(#C)"/><rect width="6" height="6" rx="1" x="-576" y="757.36" transform="scale(-1 1)" opacity=".4" fill-rule="evenodd"/><rect width="7" height="7" rx="2" x="-763.86" y="569.5" transform="matrix(0-1 1 0 0 0)" opacity=".12" fill="none" stroke="url(#E)"/><rect width="6" height="6" rx="1" x="-576" y="745.36" transform="scale(-1 1)" opacity=".4" fill-rule="evenodd"/><rect width="7" height="7" rx="2" x="-751.86" y="569.5" transform="matrix(0-1 1 0 0 0)" opacity=".12" fill="none" stroke="url(#F)"/><rect width="6" height="6" rx="1" x="-576" y="733.36" transform="scale(-1 1)" opacity=".4" fill-rule="evenodd"/><rect width="7" height="7" rx="2" x="-739.86" y="569.5" transform="matrix(0-1 1 0 0 0)" opacity=".12" fill="none" stroke="url(#G)"/><g fill-rule="evenodd"><g stroke-linejoin="round"><g fill="url(#8)" stroke="url(#8)"><use transform="matrix(.9482 0 0 .74296-27.06 413.12)" opacity=".12" stroke-width="1.191" xlink:href="#I"/><use transform="matrix(.85789 0 0 .74296 28.09 412.12)" opacity=".25" stroke-width="1.253" xlink:href="#I"/></g><use transform="matrix(.76759 0 0 .74296 83.24 411.12)" fill="#fafafa" stroke="#fff" stroke-width="1.324" xlink:href="#I"/></g><rect width="6" height="6" rx="1" x="528" y="733.36" opacity=".4"/></g></g></svg>