<?xml version="1.0" encoding="UTF-8" standalone="no"?>
<svg
   xmlns:dc="http://purl.org/dc/elements/1.1/"
   xmlns:cc="http://creativecommons.org/ns#"
   xmlns:rdf="http://www.w3.org/1999/02/22-rdf-syntax-ns#"
   xmlns:svg="http://www.w3.org/2000/svg"
   xmlns="http://www.w3.org/2000/svg"
   xmlns:xlink="http://www.w3.org/1999/xlink"
   version="1.1"
   id="svg2"
   viewBox="0 0 64 64">
  <metadata
     id="metadata93">
    <rdf:RDF>
      <cc:Work
         rdf:about="">
        <dc:format>image/svg+xml</dc:format>
        <dc:type
           rdf:resource="http://purl.org/dc/dcmitype/StillImage" />
      </cc:Work>
    </rdf:RDF>
  </metadata>
  <defs
     id="defs4">
    <path
       color="#000"
       d="m11.464567 11.472441a1.102362 1.047244 0 1 1 -2.204725 0 1.102362 1.047244 0 1 1 2.204725 0"
       id="A" />
    <linearGradient
       id="4">
      <stop
         id="stop8"
         stop-color="#fff" />
      <stop
         id="stop10"
         stop-opacity=".235"
         stop-color="#fff"
         offset=".063" />
      <stop
         id="stop12"
         stop-opacity=".157"
         stop-color="#fff"
         offset=".951" />
      <stop
         id="stop14"
         stop-opacity=".392"
         stop-color="#fff"
         offset="1" />
    </linearGradient>
    <linearGradient
       y2="59.22"
       x2="0"
       y1="4.784"
       gradientUnits="userSpaceOnUse"
       id="6"
       xlink:href="#4" />
    <linearGradient
       gradientUnits="userSpaceOnUse"
       y2="48.934"
       x2="0"
       y1="-12.242"
       id="8">
      <stop
         id="stop18"
         stop-color="#cdf87e" />
      <stop
         id="stop20"
         stop-color="#a2e34f"
         offset=".262" />
      <stop
         id="stop22"
         stop-color="#68b723"
         offset=".661" />
      <stop
         id="stop24"
         stop-color="#1d7e0d"
         offset="1" />
    </linearGradient>
    <linearGradient
       y2="48.4"
       x2="0"
       y1="15.5"
       gradientTransform="matrix(1.29039 0 0 1.23733 1.031-1.067)"
       gradientUnits="userSpaceOnUse"
       id="7">
      <stop
         id="stop27"
         stop-color="#fafafa" />
      <stop
         id="stop29"
         stop-color="#e2e1de"
         offset="1" />
    </linearGradient>
    <linearGradient
       y2="59.22"
       x2="0"
       y1="4.784"
       gradientUnits="userSpaceOnUse"
       id="5"
       xlink:href="#4" />
    <linearGradient
       y2="19.963"
       x2="0"
       y1="15.999"
       gradientTransform="matrix(1.4 0 0 .5-1.6 10)"
       gradientUnits="userSpaceOnUse"
       id="9">
      <stop
         id="stop33" />
      <stop
         id="stop35"
         stop-opacity="0"
         offset="1" />
    </linearGradient>
    <linearGradient
       id="1">
      <stop
         id="stop38"
         stop-color="#181818" />
      <stop
         id="stop40"
         stop-opacity="0"
         stop-color="#181818"
         offset="1" />
    </linearGradient>
    <linearGradient
       gradientUnits="userSpaceOnUse"
       id="3"
       y2="39.999"
       x2="0"
       y1="47.03">
      <stop
         id="stop43"
         stop-opacity="0"
         stop-color="#181818" />
      <stop
         id="stop45"
         stop-color="#181818"
         offset=".5" />
      <stop
         id="stop47"
         stop-opacity="0"
         stop-color="#181818"
         offset="1" />
    </linearGradient>
    <radialGradient
       gradientTransform="matrix(2.0038 0 0 1.4 27.988-17.4)"
       gradientUnits="userSpaceOnUse"
       xlink:href="#1"
       id="0"
       r="2.5"
       cy="43.5"
       cx="4.993" />
    <radialGradient
       gradientTransform="matrix(2.0038 0 0 1.4-20.01-104.4)"
       gradientUnits="userSpaceOnUse"
       xlink:href="#1"
       id="2"
       r="2.5"
       cy="43.5"
       cx="4.993" />
  </defs>
  <g
     id="g51"
     opacity=".35"
     transform="matrix(1.57895 0 0 .71429-5.895 27.929)">
    <path
       id="path53"
       d="m38 40h5v7h-5z"
       fill="url(#0)" />
    <path
       id="path55"
       d="m-10-47h5v7h-5z"
       fill="url(#2)"
       transform="scale(-1-1)" />
    <path
       id="path57"
       d="m10 40h28v7h-28z"
       fill="url(#3)" />
  </g>
  <rect
     id="rect59"
     color="#000"
     fill="url(#7)"
     y="5"
     x="5"
     rx="2.5"
     height="54"
     width="54" />
  <path
     id="path61"
     d="m4 18h56v2h-56z"
     fill="url(#9)"
     opacity=".15" />
  <g
     id="g63"
     fill="none">
    <rect
       id="rect65"
       stroke-linecap="round"
       stroke-linejoin="round"
       stroke="url(#5)"
       opacity="1"
       y="5.5"
       x="5.5"
       rx="2"
       height="53"
       width="53" />
    <path
       id="path67"
       stroke="#000"
       opacity=".3"
       d="m4.5 18v38.5c0 1.662 1.338 3 3 3h49c1.662 0 3-1.338 3-3v-38.5" />
  </g>
  <g
     id="g69"
     color="#000">
    <path
       id="path71"
       fill="url(#8)"
       d="m7.5 4.5c-1.662 0-3 1.338-3 3v10h55v-10c0-1.662-1.338-3-3-3z" />
    <path
       id="path73"
       stroke-linecap="round"
       stroke="#126400"
       fill="none"
       opacity=".4"
       d="m7.5 4.5c-1.662 0-3 1.338-3 3v10h55v-10c0-1.662-1.338-3-3-3z" />
  </g>
  <g
     id="g75"
     fill="none">
    <path
       id="path77"
       stroke-linecap="round"
       stroke-linejoin="round"
       stroke="url(#6)"
       opacity=".5"
       d="m7.5 5.5c-1.108 0-2 .892-2 2v9h53v-9c0-1.108-.892-2-2-2z" />
    <path
       id="path79"
       stroke="#fff"
       opacity=".2"
       d="m52.5 45.5h-41zm-.03-18.97l-40.97-.03v26h41zm.03 12.969h-41m41-6h-41m8.03-6.942l-.056 25.942m8.04-25.829l-.011 25.829m7.994-25.92l.011 25.92m7.953-26.01l.041 26.01" />
    <path
       id="path81"
       stroke="#5e553c"
       opacity=".25"
       d="m52.5 44.5h-41zm-.03-18.97l-40.97-.03v26h41zm.03 12.969h-41m41-6h-41m8.03-6.942l-.056 25.942m8.04-25.829l-.011 25.829m7.994-25.92l.011 25.92m7.953-26.01l.041 26.01" />
  </g>
  <use
     id="use83"
     xlink:href="#A"
     fill="#fff"
     opacity=".3"
     transform="matrix(1.36071 0 0 1.43233-1.6-4.432)" />
  <use
     id="use85"
     xlink:href="#A"
     fill="#126400"
     opacity=".4"
     transform="matrix(1.36071 0 0 1.43233-1.6-5.432)" />
  <use
     id="use87"
     xlink:href="#A"
     fill="#fff"
     opacity=".3"
     transform="matrix(1.36071 0 0 1.43233 36.9-4.432)" />
  <use
     id="use89"
     xlink:href="#A"
     fill="#126400"
     opacity=".4"
     transform="matrix(1.36071 0 0 1.43233 36.9-5.432)" />
</svg>
