<svg xmlns="http://www.w3.org/2000/svg" xmlns:xlink="http://www.w3.org/1999/xlink" viewBox="0 0 64 64" height="64" width="64" version="1"><defs><linearGradient id="c"><stop offset="0" stop-color="#fff"/><stop offset=".035" stop-color="#fff" stop-opacity=".235"/><stop offset=".964" stop-color="#fff" stop-opacity=".157"/><stop offset="1" stop-color="#fff" stop-opacity=".392"/></linearGradient><linearGradient id="a"><stop offset="0"/><stop offset="1" stop-opacity="0"/></linearGradient><linearGradient id="b"><stop offset="0" stop-opacity="0"/><stop offset=".5"/><stop offset="1" stop-opacity="0"/></linearGradient><radialGradient gradientTransform="matrix(.03213 0 0 .02059 40.137 48.451)" gradientUnits="userSpaceOnUse" xlink:href="#a" id="g" fy="486.648" fx="605.714" r="117.143" cy="486.648" cx="605.714"/><radialGradient gradientTransform="matrix(-.03213 0 0 .02059 23.863 48.451)" gradientUnits="userSpaceOnUse" xlink:href="#a" id="f" fy="486.648" fx="605.714" r="117.143" cy="486.648" cx="605.714"/><linearGradient gradientTransform="matrix(.1139 0 0 .02059 -9.169 48.451)" gradientUnits="userSpaceOnUse" xlink:href="#b" id="e" y2="609.505" x2="302.857" y1="366.648" x1="302.857"/><linearGradient y2="42.438" x2="40.29" y1="5.414" x1="40.29" gradientTransform="matrix(1.54054 0 0 1.32432 -4.973 1.287)" gradientUnits="userSpaceOnUse" id="i" xlink:href="#c"/><radialGradient cx="4.599" cy="8.45" r="20" fx="4.599" fy="8.45" id="h" xlink:href="#d" gradientUnits="userSpaceOnUse" gradientTransform="matrix(0 3.64698 -4.43405 0 69.467 -17.585)"/><linearGradient id="d"><stop offset="0" stop-color="#90dbec"/><stop offset=".262" stop-color="#55c1ec"/><stop offset=".705" stop-color="#3689e6"/><stop offset="1" stop-color="#2b63a0"/></linearGradient></defs><path style="marker:none" overflow="visible" opacity=".3" fill="url(#e)" d="M4.5 56h55v5h-55z"/><path style="marker:none" d="M4.5 56v5c-1.655.01-4-1.12-4-2.5s1.846-2.5 4-2.5z" overflow="visible" opacity=".3" fill="url(#f)"/><path style="marker:none" d="M59.5 56v5c1.655.01 4-1.12 4-2.5s-1.846-2.5-4-2.5z" overflow="visible" opacity=".3" fill="url(#g)"/><rect style="marker:none;font-variant-east_asian:normal" y="7.5" x="2.5" ry="2" rx="2" height="51" width="59" color="#000" overflow="visible" fill="url(#h)"/><rect y="8.571" x="3.5" ry="1" rx="1" height="49" width="57" opacity=".5" fill="none" stroke="url(#i)" stroke-linecap="round" stroke-linejoin="round"/><path d="M10.543 52.5c-1.132 0-2.043.892-2.043 2v4h47v-4c0-1.108-.911-2-2.043-2z" opacity=".7" fill="#fff" fill-opacity=".588" stroke="#fff"/><rect style="isolation:auto;mix-blend-mode:normal;marker:none" y="7.5" x="2.5" ry="2" rx="2" height="51" width="59" color="#000" overflow="visible" opacity=".5" stroke="#00537d" stroke-linecap="round" stroke-linejoin="round" fill="none"/><path d="M16.678 47.04c-1.724.014-3.45-.025-5.172.02-1.05.1-1.63 1.208-1.473 2.18.036 1.81-.072 3.634.055 5.437.195 1.01 1.305 1.437 2.234 1.297 1.781-.036 3.575.073 5.348-.054 1.01-.195 1.436-1.306 1.297-2.235-.036-1.78.072-3.574-.055-5.347-.195-1.01-1.305-1.437-2.234-1.297zm12 0c-1.724.014-3.45-.025-5.172.02-1.05.1-1.63 1.208-1.473 2.18.036 1.81-.072 3.634.055 5.437.195 1.01 1.305 1.437 2.234 1.297 1.781-.036 3.575.073 5.348-.054 1.01-.195 1.436-1.306 1.297-2.235-.036-1.78.072-3.574-.055-5.347-.195-1.01-1.305-1.437-2.234-1.297zm11 0c-1.724.014-3.45-.025-5.172.02-1.05.1-1.63 1.208-1.473 2.18.036 1.81-.072 3.634.055 5.437.195 1.01 1.305 1.437 2.234 1.297 1.781-.036 3.575.073 5.348-.054 1.01-.195 1.436-1.306 1.297-2.235-.036-1.78.072-3.574-.055-5.347-.195-1.01-1.305-1.437-2.234-1.297zm12 0c-1.724.014-3.45-.025-5.172.02-1.05.1-1.63 1.208-1.473 2.18.036 1.81-.072 3.634.055 5.437.195 1.01 1.305 1.437 2.234 1.297 1.781-.036 3.575.073 5.348-.054 1.01-.195 1.436-1.306 1.297-2.235-.036-1.78.072-3.574-.055-5.347-.195-1.01-1.305-1.437-2.234-1.297z" style="marker:none" color="#000" overflow="visible" opacity=".15"/><path d="M11.697 47c-.386 0-.697.4-.697.896v7.208c0 .497.31.896.697.896h5.606c.386 0 .697-.4.697-.896v-7.208c0-.497-.31-.896-.697-.896zm12 0c-.386 0-.697.4-.697.896v7.208c0 .497.31.896.697.896h5.606c.386 0 .697-.4.697-.896v-7.208c0-.497-.31-.896-.697-.896zm11 0c-.386 0-.697.4-.697.896v7.208c0 .497.31.896.697.896h5.606c.386 0 .697-.4.697-.896v-7.208c0-.497-.31-.896-.697-.896zm12 0c-.386 0-.697.4-.697.896v7.208c0 .497.31.896.697.896h5.606c.386 0 .697-.4.697-.896v-7.208c0-.497-.31-.896-.697-.896z" style="marker:none" color="#000" overflow="visible" opacity=".15"/><path d="M12.092 48.492a.6.6 0 0 0-.6.6v4.816a.6.6 0 0 0 .6.6h4.816a.6.6 0 0 0 .6-.6v-4.816a.6.6 0 0 0-.6-.6h-4.816zm12 0a.6.6 0 0 0-.6.6v4.816a.6.6 0 0 0 .6.6h4.816a.6.6 0 0 0 .6-.6v-4.816a.6.6 0 0 0-.6-.6h-4.816zm11 0a.6.6 0 0 0-.6.6v4.816a.6.6 0 0 0 .6.6h4.816a.6.6 0 0 0 .6-.6v-4.816a.6.6 0 0 0-.6-.6h-4.816zm12 0a.6.6 0 0 0-.6.6v4.816a.6.6 0 0 0 .6.6h4.816a.6.6 0 0 0 .6-.6v-4.816a.6.6 0 0 0-.6-.6h-4.816z" style="marker:none" color="#000" overflow="visible" fill="#f7f7f7" stroke="#fff" stroke-width=".985"/></svg>