<?xml version="1.0" encoding="UTF-8" standalone="no"?>
<svg
   xmlns:dc="http://purl.org/dc/elements/1.1/"
   xmlns:cc="http://creativecommons.org/ns#"
   xmlns:rdf="http://www.w3.org/1999/02/22-rdf-syntax-ns#"
   xmlns:svg="http://www.w3.org/2000/svg"
   xmlns="http://www.w3.org/2000/svg"
   xmlns:xlink="http://www.w3.org/1999/xlink"
   version="1.1"
   width="64px"
   height="64px"
   id="svg3329">
  <defs
     id="defs3331">
    <radialGradient
       r="27.5"
       gradientTransform="matrix(-2.1006405e-6,0.51054555,-0.51054545,-2.1006402e-6,74.933373,-3.1399516)"
       cx="43.754"
       cy="4.3419"
       gradientUnits="userSpaceOnUse"
       fy="3.8574"
       fx="33.336"
       id="radialGradient4850">
      <stop
         offset="0"
         stop-opacity="0"
         stop-color="#181818"
         id="stop4856" />
      <stop
         offset="0.72347"
         stop-opacity="0"
         stop-color="#181818"
         id="stop4858" />
      <stop
         offset="1"
         stop-color="#181818"
         id="stop4860" />
    </radialGradient>
    <linearGradient
       y2="1026.4"
       x2="49"
       gradientTransform="matrix(0.83333333,0,0,1.1666667,2.16667,-1240.4226)"
       y1="1026.4"
       gradientUnits="userSpaceOnUse"
       x1="37"
       id="linearGradient4852">
      <stop
         offset="0"
         stop-color="#FFF"
         id="stop12741" />
      <stop
         offset="1"
         stop-opacity="0"
         stop-color="#FFF"
         id="stop12743" />
    </linearGradient>
    <filter
       color-interpolation-filters="sRGB"
       height="1.3456"
       x="-0.12342857"
       y="-0.1728"
       width="1.246857"
       id="filter5230">
      <feGaussianBlur
         stdDeviation="0.72"
         id="feGaussianBlur5232" />
    </filter>
    <radialGradient
       r="27.5"
       gradientTransform="matrix(1.0056172e-8,2.3103361,-2.310336,1.0056172e-8,42.031285,-69.085963)"
       cx="32"
       cy="4.3419"
       gradientUnits="userSpaceOnUse"
       id="radialGradient3651">
      <stop
         offset="0"
         stop-color="#fafafa"
         id="stop4634-68-8-0-2-9" />
      <stop
         offset="1"
         stop-color="#e1e1e1"
         id="stop4636-8-21-7-1-4" />
    </radialGradient>
    <linearGradient
       y2="44.341"
       x2="71.204"
       gradientTransform="matrix(0.72972969,0,0,0.72972969,-3.346075,29.496069)"
       y1="6.2376"
       gradientUnits="userSpaceOnUse"
       x1="71.204"
       id="linearGradient3902">
      <stop
         offset="0"
         stop-color="#FFF"
         id="stop4013-8" />
      <stop
         offset="0.50776"
         stop-opacity="0.23529412"
         stop-color="#FFF"
         id="stop4015-5" />
      <stop
         offset="0.83457"
         stop-opacity="0.15686275"
         stop-color="#FFF"
         id="stop4017-6" />
      <stop
         offset="1"
         stop-opacity="0.39215687"
         stop-color="#FFF"
         id="stop4019-1" />
    </linearGradient>
    <linearGradient
       y2="48.631"
       x2="91.566"
       gradientTransform="matrix(0.92454038,0,0,0.92454038,-36.136961,17.889385)"
       y1="16.543"
       gradientUnits="userSpaceOnUse"
       x1="91.566"
       id="linearGradient3467-0">
      <stop
         offset="0"
         stop-color="#7a8498"
         id="stop4222-7-9" />
      <stop
         offset="1"
         stop-color="#34405c"
         id="stop4224-0-2" />
    </linearGradient>
    <linearGradient
       y2="42.088"
       x2="24"
       gradientTransform="matrix(1.4324324,0,0,1.4362832,-2.378381,-2.4707781)"
       y1="5.7017"
       gradientUnits="userSpaceOnUse"
       x1="24"
       id="linearGradient3647">
      <stop
         offset="0"
         stop-color="#FFF"
         id="stop3926-9-4-9-6" />
      <stop
         offset="0.053758"
         stop-opacity="0.23529412"
         stop-color="#FFF"
         id="stop3928-9-8-6-5" />
      <stop
         offset="0.95056"
         stop-opacity="0.15686275"
         stop-color="#FFF"
         id="stop3930-3-5-1-7" />
      <stop
         offset="1"
         stop-opacity="0.39215687"
         stop-color="#FFF"
         id="stop3932-8-0-4-8" />
    </linearGradient>
    <radialGradient
       r="2.5"
       gradientTransform="matrix(2.003784,0,0,1.4,27.98813,-17.4)"
       cx="4.993"
       cy="43.5"
       gradientUnits="userSpaceOnUse"
       id="radialGradient3337-2-2">
      <stop
         offset="0"
         stop-color="#181818"
         id="stop2883-4-0-1-8" />
      <stop
         offset="1"
         stop-opacity="0"
         stop-color="#181818"
         id="stop2885-9-2-9-6" />
    </radialGradient>
    <radialGradient
       r="2.5"
       gradientTransform="matrix(2.003784,0,0,1.4,-20.01187,-104.4)"
       cx="4.993"
       cy="43.5"
       gradientUnits="userSpaceOnUse"
       id="radialGradient3339-1-4">
      <stop
         offset="0"
         stop-color="#181818"
         id="stop2889-7-9-6-9" />
      <stop
         offset="1"
         stop-opacity="0"
         stop-color="#181818"
         id="stop2891-6-6-1-7" />
    </radialGradient>
    <linearGradient
       x1="25.058"
       x2="25.058"
       y1="47.028"
       gradientUnits="userSpaceOnUse"
       y2="39.999"
       id="linearGradient13984">
      <stop
         offset="0"
         stop-opacity="0"
         stop-color="#181818"
         id="stop2895-8-9-9-1" />
      <stop
         offset="0.5"
         stop-color="#181818"
         id="stop2897-7-8-7-7" />
      <stop
         offset="1"
         stop-opacity="0"
         stop-color="#181818"
         id="stop2899-4-5-1-5" />
    </linearGradient>
    <radialGradient
       r="62.769"
       gradientTransform="matrix(0.17524541,0,0,0.05575992,31.62319,50.118568)"
       cx="99.157"
       cy="186.17"
       gradientUnits="userSpaceOnUse"
       id="radialGradient3323">
      <stop
         offset="0"
         stop-color="#3d3d3d"
         id="stop3822-2-6-36" />
      <stop
         offset="0.5"
         stop-opacity="0.49803922"
         stop-color="#686868"
         id="stop3864-8-7-6" />
      <stop
         offset="1"
         stop-opacity="0"
         stop-color="#686868"
         id="stop3824-1-2-4" />
    </radialGradient>
    <radialGradient
       r="27.5"
       gradientTransform="matrix(1.0056172e-8,2.3103361,-2.310336,1.0056172e-8,42.031285,-69.085963)"
       cx="32"
       cy="4.3419"
       gradientUnits="userSpaceOnUse"
       xlink:href="#radialGradient3651"
       id="radialGradient3325" />
  </defs>
  <metadata
     id="metadata3334">
    <rdf:RDF>
      <cc:Work
         rdf:about="">
        <dc:format>image/svg+xml</dc:format>
        <dc:type
           rdf:resource="http://purl.org/dc/dcmitype/StillImage" />
        <dc:title />
      </cc:Work>
    </rdf:RDF>
  </metadata>
  <g
     id="layer1">
    <path
       fill="url(#radialGradient3323)"
       d="m60,60.499a11,3.5,0,0,1,-22,0,11,3.5,0,1,1,22,0z"
       id="path3818-0-2" />
    <g
       transform="matrix(1.5789502,0,0,0.7142857,-5.894751,27.928572)"
       opacity="0.4"
       id="g3712-8-2-4-4">
      <rect
         fill="url(#radialGradient3337-2-2)"
         x="38"
         y="40"
         width="5"
         height="7"
         id="rect2801-5-5-7-9" />
      <rect
         fill="url(#radialGradient3339-1-4)"
         x="-10"
         y="-47"
         width="5"
         height="7"
         transform="scale(-1,-1)"
         id="rect3696-3-0-3-7" />
      <rect
         fill="url(#linearGradient13984)"
         x="10"
         y="40"
         width="28"
         height="7"
         id="rect3700-5-6-8-4" />
    </g>
    <rect
       fill="url(#radialGradient3325)"
       x="5"
       y="5"
       width="54"
       height="54"
       ry="2.5"
       rx="2.5"
       fill-rule="nonzero"
       style="color:#000000;enable-background:accumulate;"
       id="rect5505-21-3-8-5-2" />
    <path
       fill="#000"
       fill-rule="nonzero"
       d="m20.526,19.981-8.0626,23.01,5.2097,0,1.6746-5.4578,8.3417,0,1.6746,5.4578,5.2407,0-8.1247-23.01zm3.008,3.5662,3.008,9.9233-5.985,0c1.6296-5.2752,2.6322-8.5862,2.977-9.9233zm19.816,1.5815c-2.1,0.11541-4.0348,0.65837-5.7989,1.5815l1.5815,3.2251c1.8907-0.84611,3.5309-1.2714,4.9306-1.2714,1.8176,0.000014,2.7289,0.89108,2.7289,2.6669v0.74424l-3.039,0.09303c-2.6219,0.09402-4.5862,0.60059-5.8919,1.4885-1.2953,0.87747-1.9226,2.234-1.9226,4.0933,0,1.7758,0.46544,3.1633,1.4265,4.1244,0.97147,0.96103,2.2875,1.4265,3.9693,1.4265,1.3684,0,2.503-0.17168,3.3491-0.55818,0.85656-0.39694,1.6765-1.1264,2.4808-2.1397h0.12404l0.9303,2.3878h3.3181v-11.66c-0.000017-2.0892-0.60711-3.6588-1.8606-4.6825s-3.0765-1.5195-5.4268-1.5195c-0.30685,0.000002-0.5993-0.01648-0.8993,0zm3.4421,9.7372,0,1.4575c-0.000012,1.055-0.3238,1.9056-0.99233,2.5428-0.6581,0.63721-1.5286,0.96132-2.6359,0.96132-1.546,0.000003-2.3258-0.69914-2.3258-2.0467-0.000006-0.94013,0.34434-1.6181,1.0233-2.0777,0.67898-0.45961,1.7117-0.73346,3.101-0.77525z"
       style="color:#000000;text-align:start;enable-background:accumulate;"
       opacity="0.65"
       id="text3911" />
    <rect
       fill="none"
       stroke-width="1"
       x="5.5"
       y="5.4288"
       stroke-miterlimit="4"
       stroke-linecap="round"
       stroke="url(#linearGradient3647)"
       width="53"
       height="53.142"
       ry="2"
       rx="2"
       stroke-dashoffset="0"
       stroke-dasharray="none"
       stroke-linejoin="round"
       id="rect6741-5-0-2-3" />
    <rect
       fill="none"
       stroke-width="1"
       x="4.5"
       y="4.5"
       stroke-miterlimit="4"
       stroke-linecap="butt"
       stroke="#000"
       width="55"
       height="55"
       ry="3"
       rx="3"
       stroke-dashoffset="0"
       stroke-dasharray="none"
       style="enable-background:accumulate;color:#000000;"
       stroke-linejoin="miter"
       opacity="0.3"
       id="rect5505-21-3-8-9-1-1" />
    <path
       fill="url(#linearGradient3467-0)"
       fill-rule="nonzero"
       d="m49,33.5c-8.001,0-14.5,6.499-14.5,14.5s6.499,14.5,14.5,14.5,14.5-6.499,14.5-14.5c0-8.0006-6.4994-14.5-14.5-14.5z"
       style="color:#000000;enable-background:accumulate;"
       id="path2555" />
    <path
       fill="none"
       stroke-width="1"
       stroke-dasharray="none"
       stroke-miterlimit="4"
       stroke-linecap="round"
       stroke="#32434b"
       stroke-dashoffset="0"
       d="m49,33.5c-8.0006,0-14.5,6.4994-14.5,14.5s6.4994,14.5,14.5,14.5,14.5-6.4994,14.5-14.5-6.4994-14.5-14.5-14.5z"
       style="enable-background:accumulate;color:#000000;"
       stroke-linejoin="round"
       opacity="0.5"
       id="path2555-6" />
    <path
       fill="none"
       stroke-width="1"
       stroke-dasharray="none"
       stroke-miterlimit="4"
       stroke-linecap="round"
       stroke="url(#linearGradient3902)"
       stroke-dashoffset="0"
       d="m62.5,48c0,7.4561-6.0446,13.5-13.5,13.5-7.456,0-13.5-6.044-13.5-13.5s6.044-13.5,13.5-13.5c7.455,0,13.5,6.044,13.5,13.5z"
       style="enable-background:accumulate;color:#000000;"
       stroke-linejoin="round"
       opacity="0.3"
       id="path8655" />
    <path
       fill="url(#radialGradient3325)"
       fill-rule="nonzero"
       d="m49,36.5c-6.345,0-11.5,5.155-11.5,11.5s5.155,11.5,11.5,11.5,11.5-5.155,11.5-11.5-5.155-11.5-11.5-11.5z"
       style="color:#000000;enable-background:accumulate;"
       id="path2555-68" />
    <path
       fill="none"
       stroke-width="1"
       stroke-dasharray="none"
       stroke-miterlimit="4"
       stroke-linecap="round"
       stroke="#32434b"
       stroke-dashoffset="0"
       d="m49,36.5c-6.345,0-11.5,5.155-11.5,11.5,0,6.3453,5.1547,11.5,11.5,11.5s11.5-5.1547,11.5-11.5-5.1547-11.5-11.5-11.5z"
       style="enable-background:accumulate;color:#000000;"
       stroke-linejoin="round"
       opacity="0.5"
       id="path2555-6-0" />
    <path
       fill="#000"
       fill-rule="nonzero"
       d="m49,36.5c-1.5863,0-3.0932,0.32385-4.4688,0.90625,0.51559-0.11082,1.0891-0.16762,1.75-0.1875l2.0625-0.0625v1.625c-0.00001,1.1827-0.37557,2.1294-1.125,2.8438-0.73774,0.71432-1.6962,1.0938-2.9375,1.0938-1.7331,0.000004-2.625-0.77064-2.625-2.2812-0.000004-0.65352,0.17183-1.1815,0.46875-1.625-2.0511,1.5371-3.5824,3.7319-4.25,6.2812,1.0787,1.0169,2.5125,1.5312,4.3438,1.5312,1.534,0,2.8015-0.19173,3.75-0.625,0.9602-0.44498,1.8796-1.2704,2.7812-2.4062h0.125l1.0625,2.6562h3.7188v-8.75c-1.428-0.636-2.995-1-4.657-1z"
       style="color:#000000;text-align:start;enable-background:accumulate;"
       opacity="0.65"
       id="text3911-1" />
    <g
       transform="matrix(0.81481481,0,0,0.81481481,-10.250512,32.356841)"
       fill-rule="nonzero"
       id="g4846">
      <rect
         fill="url(#radialGradient4850)"
         x="59.217"
         y="5.6984"
         width="27"
         height="27"
         ry="122.73"
         rx="122.73"
         style="color:#000000;enable-background:accumulate;"
         opacity="0.2"
         id="rect12723" />
      <rect
         fill="url(#linearGradient4852)"
         height="14"
         x="33"
         y="-50"
         width="10"
         filter="url(#filter5230)"
         ry="30.682"
         transform="matrix(0,1,-1,0,29.716536,-23.801569)"
         rx="30.682"
         style="color:#000000;enable-background:accumulate;"
         opacity="0.5"
         id="rect12733" />
    </g>
  </g>
</svg>
