<svg xmlns="http://www.w3.org/2000/svg" xmlns:xlink="http://www.w3.org/1999/xlink" height="64" width="64">
    <defs>
        <linearGradient id="j">
            <stop offset="0"/>
            <stop offset="1" stop-opacity="0"/>
        </linearGradient>
        <linearGradient id="k">
            <stop offset="0" stop-color="#c00"/>
            <stop offset="1" stop-color="#c00" stop-opacity="0"/>
        </linearGradient>
        <linearGradient y2="42.728" x2="16.806" y1="20.62" x1="16.806" gradientTransform="matrix(2.26567 0 0 2.63557 -3.989 934.883)" gradientUnits="userSpaceOnUse" id="q" xlink:href="#a"/>
        <linearGradient id="a">
            <stop offset="0" stop-color="#fff"/>
            <stop offset=".056" stop-color="#fff" stop-opacity=".235"/>
            <stop offset=".944" stop-color="#fff" stop-opacity=".157"/>
            <stop offset="1" stop-color="#fff" stop-opacity=".392"/>
        </linearGradient>
        <linearGradient id="b">
            <stop offset="0" stop-color="#181818"/>
            <stop offset="1" stop-color="#181818" stop-opacity="0"/>
        </linearGradient>
        <linearGradient id="c">
            <stop offset="0" stop-color="#181818"/>
            <stop offset="1" stop-color="#181818" stop-opacity="0"/>
        </linearGradient>
        <linearGradient id="d">
            <stop offset="0" stop-color="#181818" stop-opacity="0"/>
            <stop offset=".5" stop-color="#181818"/>
            <stop offset="1" stop-color="#181818" stop-opacity="0"/>
        </linearGradient>
        <radialGradient r="2.5" fy="43.5" fx="4.996" cy="43.5" cx="4.996" gradientTransform="matrix(3.20605 0 0 1 33.981 1004.279)" gradientUnits="userSpaceOnUse" id="l" xlink:href="#b"/>
        <radialGradient r="2.5" fy="43.5" fx="4.993" cy="43.5" cx="4.993" gradientTransform="matrix(3.16387 0 0 1 -26.703 -1091.362)" gradientUnits="userSpaceOnUse" id="m" xlink:href="#c"/>
        <linearGradient y2="39.999" x2="25.058" y1="47.028" x1="25.058" gradientTransform="matrix(1.39286 0 0 .71429 -3.021 1016.79)" gradientUnits="userSpaceOnUse" id="n" xlink:href="#d"/>
        <linearGradient gradientUnits="userSpaceOnUse" y2="1048.362" x2="33" y1="988.362" x1="33" id="o" xlink:href="#e"/>
        <linearGradient y2="42.728" x2="16.806" y1="20.62" x1="16.806" gradientTransform="matrix(1.89576 0 0 2.26567 2.05 946.6)" gradientUnits="userSpaceOnUse" id="s" xlink:href="#a"/>
        <linearGradient id="f">
            <stop offset="0" stop-color="#505050"/>
            <stop offset=".262" stop-color="#2b2b2b"/>
            <stop offset=".705" stop-color="#0a0a0a"/>
            <stop offset="1"/>
        </linearGradient>
        <radialGradient xlink:href="#f" id="r" gradientUnits="userSpaceOnUse" gradientTransform="matrix(0 11.95263 -12.3722 0 157.108 883.817)" cx="7.118" cy="9.957" fx="7.118" fy="9.957" r="12.672"/>
        <linearGradient id="h">
            <stop offset="0" stop-color="#f4f4f4"/>
            <stop offset="1" stop-color="#dbdbdb"/>
        </linearGradient>
        <linearGradient id="i">
            <stop offset="0" stop-color="#fff"/>
            <stop offset=".015" stop-color="#fff" stop-opacity=".235"/>
            <stop offset=".985" stop-color="#fff" stop-opacity=".157"/>
            <stop offset="1" stop-color="#fff" stop-opacity=".392"/>
        </linearGradient>
        <linearGradient gradientTransform="translate(7.018 992.312)" gradientUnits="userSpaceOnUse" xlink:href="#g" id="w" y2="3.364" x2="22.004" y1="47.813" x1="22.004"/>
        <linearGradient id="g">
            <stop offset="0" stop-color="#aaa"/>
            <stop offset="1" stop-color="#c8c8c8"/>
        </linearGradient>
        <linearGradient xlink:href="#h" id="u" gradientUnits="userSpaceOnUse" gradientTransform="matrix(.97143 0 0 .91259 9.686 995.06)" x1="25.132" y1=".985" x2="25.132" y2="47.013"/>
        <linearGradient y2="42.111" x2="24" y1="5.564" x1="24" gradientTransform="matrix(.8919 0 0 1.1081 11.595 991.765)" gradientUnits="userSpaceOnUse" id="v" xlink:href="#i"/>
        <linearGradient gradientUnits="userSpaceOnUse" y2="991.362" x2="33" y1="1045.362" x1="33" id="p" xlink:href="#j"/>
        <linearGradient gradientTransform="matrix(.82222 0 0 .84906 5.867 153.715)" y2="991.362" x2="33" y1="1045.362" x1="33" gradientUnits="userSpaceOnUse" id="t" xlink:href="#j"/>
        <linearGradient id="e">
            <stop offset="0" stop-color="#f0f0f0"/>
            <stop offset=".086" stop-color="#d7d7d8"/>
            <stop offset=".922" stop-color="#b2b2b3"/>
            <stop offset="1" stop-color="#979798"/>
        </linearGradient>
        <linearGradient gradientTransform="matrix(1 0 0 1.4 0 -400.144)" y2="1015.362" x2="32" y1="1017.87" x1="32" spreadMethod="reflect" gradientUnits="userSpaceOnUse" id="x" xlink:href="#k"/>
    </defs>
    <g transform="translate(0 -988.362)">
        <path opacity=".4" fill="url(#l)" d="M50 1045.279h8v5h-8z" transform="translate(3)"/>
        <path transform="rotate(180 1.5 0)" opacity=".4" fill="url(#m)" d="M-11-1050.362h8v5h-8z"/>
        <path opacity=".4" fill="url(#n)" d="M11 1045.362h39v5H11z" transform="translate(3)"/>
        <rect width="51" height="59" rx="3" ry="3" x="7.5" y="988.862" fill="url(#o)"/>
        <rect y="991.862" x="10.5" ry="2" rx="2" height="53" width="45" opacity=".35" fill="none" stroke="url(#p)"/>
        <rect y="988.862" x="7.5" ry="3" rx="3" height="59" width="51" opacity=".5" fill="none" stroke="#000"/>
        <rect y="989.862" x="8.5" ry="2" rx="2" height="57" width="49" fill="none" stroke="url(#q)" stroke-linecap="round" stroke-linejoin="round"/>
        <rect style="marker:none" y="992.862" x="11.5" ry="1" rx="1" height="51" width="43" opacity=".9" color="#000" fill="url(#r)" overflow="visible"/>
        <rect width="43" height="51" rx="1" ry="1" x="11.5" y="992.862" opacity=".7" fill="none" stroke="#000"/>
        <path opacity=".3" fill="none" stroke="url(#s)" stroke-linecap="round" stroke-linejoin="round" d="M12.5 993.862h41v49h-41z"/>
        <rect width="37" height="45" rx="1" ry="1" x="14.5" y="995.862" opacity=".15" fill="none" stroke="url(#t)"/>
        <path d="M16 997.362l34 .003v41.997H16v-42z" fill="url(#u)"/>
        <path d="M49.5 1038.86h-33v-41h33z" fill="none" stroke="url(#v)" stroke-linecap="round"/>
        <path d="M15.5 996.862l35 .003v42.997h-35v-43z" opacity=".3" fill="none" stroke="#000" stroke-linejoin="round"/>
        <path d="M20 1003.86h2.344zm2.688 0h2.187zm2.53 0h1.938zm2.25 0h.845zm1.188 0h1.875zm2.25 0h4.938zm5.25 0h3.782zm4.094 0h1.156zm-20.25 2h3.656zm4.063 0h1.75zm2.062 0H27zm1.219 0h1.594zm1.937 0h1.625zm1.938 0h2.594zm2.937 0h3.375zm3.688 0h2.25zm2.562 0h.563zM20 1007.842h3.094zm3.406 0h5.063zm5.375 0h2.469zm2.782 0h2.312zm2.625 0h1.968zm2.28 0l3.095.032zm3.376.032h5.031zM20 1009.859h4.281zm4.625 0h4.625zm4.938 0h1.843zm2.156 0h4.344zm4.625 0h2.969zm3.312 0h1.188zm1.5 0h.657zm1 0H44zm-22.156 2h1.594zm2.094 0H28zM20 1015.843h3.094zm3.406 0h5.063zm5.375 0h2.469zm2.782 0h2.312zm2.625 0h1.968zm2.28 0l3.095.032zm3.376.032h5.031zM20 1017.859h2.344zm2.688 0h2.156zm2.53 0h1.938zm2.25 0h.845zm1.188 0h1.875zm2.25 0h4.907zm5.25 0h3.75zm4.063 0h1.187zm1.5 0h2.812zm-21.719 2h3.938zm4.25 0h4.219zm4.531 0h1.625zm1.938 0h3.969zm4.281 0h5zm5.344 0h1.844zm-20.344 2h4.281zm4.625 0h4.625zm4.938 0h1.843zm2.156 0h4.344zm4.625 0h2.969zm3.312 0h1.188zm1.5 0h.657zm1 0H44zm-22.156 2h3.656zm4.063 0h1.75zm2.062 0H27zm1.219 0h1.594zm1.937 0h1.625zm1.938 0h2.594zm2.937 0h3.375zm3.688 0h2.25zm2.562 0h.563zM20 1027.843h3.094zm3.406 0h5.063zm5.375 0h2.469zm2.782 0h2.312zm2.625 0h1.968zm2.28 0l3.095.031zm3.376.031h5.031zM20 1029.86h3.656zm4.063 0h1.75zm2.062 0H27zm1.219 0h1.594zm1.937 0h1.625zm1.938 0h2.594zm2.937 0h3.375zm3.688 0h2.25zm2.562 0h.563zm-20.406 2h3.875zm4.219 0h1.219zm1.531 0h2.781zm3.094 0h4.094zm4.437 0h2.782zm3.063 0h.594zm.906 0h3.531zm3.906 0H43zm-21.156 2h3.875zm4.219 0h1.75zm2.062 0h2.75zm3.063 0h2.969zm3.312 0h1.188zm1.5 0h.657zm1 0H37z" fill="none" stroke="url(#w)"/>
        <path opacity=".8" fill="url(#x)" d="M11 1021.362h44v7H11z"/>
        <path opacity=".8" fill="#fff" d="M11 1024.362h44v1H11z"/>
    </g>
</svg>
