<?xml version="1.0" encoding="UTF-8" standalone="no"?>
<svg
   xmlns:dc="http://purl.org/dc/elements/1.1/"
   xmlns:cc="http://creativecommons.org/ns#"
   xmlns:rdf="http://www.w3.org/1999/02/22-rdf-syntax-ns#"
   xmlns:svg="http://www.w3.org/2000/svg"
   xmlns="http://www.w3.org/2000/svg"
   xmlns:xlink="http://www.w3.org/1999/xlink"
   version="1.1"
   id="svg2"
   viewBox="0 0 64 64">
  <metadata
     id="metadata90">
    <rdf:RDF>
      <cc:Work
         rdf:about="">
        <dc:format>image/svg+xml</dc:format>
        <dc:type
           rdf:resource="http://purl.org/dc/dcmitype/StillImage" />
      </cc:Work>
    </rdf:RDF>
  </metadata>
  <defs
     id="defs4">
    <linearGradient
       id="4">
      <stop
         id="stop7" />
      <stop
         id="stop9"
         stop-opacity="0"
         offset="1" />
    </linearGradient>
    <linearGradient
       gradientTransform="matrix(1.31355 0 0 1.29006-55.48-1.222)"
       gradientUnits="userSpaceOnUse"
       id="9"
       y2="16.998"
       x2="0"
       y1="14.09">
      <stop
         id="stop12"
         stop-color="#f9f9f9" />
      <stop
         id="stop14"
         stop-color="#c9c9c9"
         offset="1" />
    </linearGradient>
    <linearGradient
       gradientTransform="matrix(1.05638 0 0 1.07706 69.976-2.53)"
       gradientUnits="userSpaceOnUse"
       id="8"
       y2="3.634"
       x2="0"
       y1="53.51">
      <stop
         id="stop17"
         stop-opacity=".322" />
      <stop
         id="stop19"
         stop-opacity=".278"
         offset="1" />
    </linearGradient>
    <linearGradient
       gradientTransform="matrix(1.27497 0 0 1.21829-67.16-.339)"
       gradientUnits="userSpaceOnUse"
       id="7"
       y2="44.26"
       x2="0"
       y1="8.81">
      <stop
         id="stop22"
         stop-color="#fff" />
      <stop
         id="stop24"
         stop-opacity=".235"
         stop-color="#fff"
         offset=".109" />
      <stop
         id="stop26"
         stop-opacity=".157"
         stop-color="#fff"
         offset=".979" />
      <stop
         id="stop28"
         stop-opacity=".392"
         stop-color="#fff"
         offset="1" />
    </linearGradient>
    <linearGradient
       gradientTransform="matrix(.10769 0 0 .03294-6.922 40.922)"
       gradientUnits="userSpaceOnUse"
       id="5"
       y2="609.51"
       x2="0"
       y1="366.65">
      <stop
         id="stop31"
         stop-opacity="0" />
      <stop
         id="stop33"
         offset=".5" />
      <stop
         id="stop35"
         stop-opacity="0"
         offset="1" />
    </linearGradient>
    <linearGradient
       gradientTransform="matrix(1.32103 0 0 1.26798-70.73.174)"
       gradientUnits="userSpaceOnUse"
       id="0"
       y2="44.26"
       x2="0"
       y1="16.962">
      <stop
         id="stop38"
         stop-color="#fff" />
      <stop
         id="stop40"
         stop-opacity=".235"
         stop-color="#fff"
         offset=".022" />
      <stop
         id="stop42"
         stop-opacity=".157"
         stop-color="#fff"
         offset=".979" />
      <stop
         id="stop44"
         stop-opacity=".392"
         stop-color="#fff"
         offset="1" />
    </linearGradient>
    <linearGradient
       gradientTransform="matrix(1.54329 0 0 1.31034-5.04.345)"
       gradientUnits="userSpaceOnUse"
       id="1"
       y2="36.658"
       x2="22.809"
       y1="49.629"
       x1="22.935">
      <stop
         id="stop47"
         stop-opacity=".498"
         stop-color="#0a0a0a" />
      <stop
         id="stop49"
         stop-opacity="0"
         stop-color="#0a0a0a"
         offset="1" />
    </linearGradient>
    <linearGradient
       gradientTransform="matrix(.50413 0 0 .49333 73.844-1.453)"
       gradientUnits="userSpaceOnUse"
       id="2"
       y2="119.06"
       x2="0"
       y1="44">
      <stop
         id="stop52"
         stop-color="#e9e9e9" />
      <stop
         id="stop54"
         stop-color="#b4b4b4"
         offset="1" />
    </linearGradient>
    <radialGradient
       gradientTransform="matrix(-.04016 0 0 .03294 30.2 40.921)"
       gradientUnits="userSpaceOnUse"
       xlink:href="#4"
       id="3"
       r="117.14"
       cy="486.65"
       cx="605.71" />
    <radialGradient
       gradientTransform="matrix(.04016 0 0 .03294 33.797 40.921)"
       gradientUnits="userSpaceOnUse"
       xlink:href="#4"
       id="6"
       r="117.14"
       cy="486.65"
       cx="605.71" />
  </defs>
  <g
     id="g58"
     color="#000">
    <path
       id="path60"
       fill="url(#9)"
       d="m7.501 10c-.277 0-.5.223-.5.5v3.5h-2.5c-.277 0-.5.223-.5.5v9.5c0 .277.223.5.5.5h55c.277 0 .5-.223.5-.5v-9.5c0-.277-.223-.5-.5-.5h-31.5v-3.5c0-.277-.223-.5-.5-.5h-20" />
    <g
       id="g62"
       fill="none">
      <path
         id="path64"
         stroke="url(#8)"
         opacity=".8"
         d="m8 9.5c-.915.01-1.5.456-1.5 1.333v2.667h-1.506c-.995 0-1.494.474-1.494 1.342.046 13.72 0 14.493 0 15.658 1.903 0 57-4.933 57-7.06v-8.444c0-1-.5-1.5-1.5-1.5h-30.5v-2.667c0-.877-.225-1.344-1.14-1.333z" />
      <path
         id="path66"
         stroke-linecap="round"
         stroke-linejoin="round"
         stroke="url(#7)"
         d="m7.501 10.5v4h-3v10h55v-10h-32v-4h-20z" />
    </g>
  </g>
  <path
     id="path68"
     fill="url(#6)"
     opacity=".3"
     d="m58 53c0 0 0 8 0 8 2.068.015 5-1.792 5-4 0-2.208-2.308-3.999-5-3.999" />
  <path
     id="path70"
     d="m6 53h52v8h-52z"
     fill="url(#5)"
     opacity=".3" />
  <path
     id="path72"
     fill="url(#3)"
     opacity=".3"
     d="m6 53c0 0 0 8 0 8-2.068.015-5-1.792-5-4 0-2.208 2.308-3.999 5-3.999" />
  <path
     id="path74"
     color="#000"
     fill="url(#2)"
     d="m2.504 20.532c-1.44.163-.871 1.853-.986 2.803.527 11.193 1.26 21.809 1.783 33 0 1.19 1.195 1.137 1.865 1.137 0 0 36.774 0 54.49 0 1.463-.141.855-1.86 1.06-2.844.527-11.193 1.26-21.569 1.784-32.762.018-.752-.501-1.335-1.215-1.335 0 0-39.863 0-58.782 0" />
  <path
     id="path76"
     fill="url(#1)"
     opacity=".4"
     d="m2.41 20h59.18c.855 0 1.409.584 1.409 1.31l-1.678 35.38c0 .726-.688 1.31-1.543 1.31h-55.56c-.855 0-1.543-.584-1.543-1.31l-1.677-35.38c0-.726.554-1.31 1.409-1.31" />
  <g
     id="g78"
     color="#000">
    <path
       id="path80"
       stroke-linecap="round"
       stroke-linejoin="round"
       stroke="url(#0)"
       fill="none"
       opacity=".8"
       d="m61.07 21.5l-57.12.031c-1.709 0-1.434.034-1.434 1.076l1.621 32.914c.016.943-.066.979 1.073.979 0 0 36.778 0 54.44 0 .54-11.582 1.258-22.682 1.815-34.32.052-.555.013-.678-.396-.678z" />
    <path
       id="path82"
       fill="#fff"
       opacity=".3"
       d="m32 30l-12.188 12.187 2.375 2.344 1.813-1.781v9.25h6v-5c0-1.105.895-2 2-2 1.105 0 2 .895 2 2v5h6v-9.25l1.813 1.781 2.375-2.344-3.406-3.375v-.031l-6.344-6.344-2.438-2.438m5 1v1.219l3 2.969v-4.188h-3" />
    <path
       id="path84"
       fill-opacity=".552"
       fill="#6c6c6c"
       d="m32 29l-12.188 12.187 2.375 2.344 1.813-1.781v9.25h6v-5c0-1.105.895-2 2-2 1.105 0 2 .895 2 2v5h6v-9.25l1.813 1.781 2.375-2.344-3.406-3.375v-.031l-6.344-6.344-2.438-2.438m5 1v1.219l3 2.969v-4.188h-3" />
    <path
       id="path86"
       stroke="#000"
       fill="none"
       opacity=".3"
       d="m2.504 20.532c-1.44.163-.871 1.853-.986 2.803.527 11.193 1.26 21.809 1.783 33 0 1.19 1.195 1.137 1.865 1.137 0 0 36.774 0 54.49 0 1.463-.141.855-1.86 1.06-2.844.527-11.193 1.26-21.569 1.784-32.762.018-.752-.501-1.335-1.215-1.335 0 0-39.863 0-58.782 0z" />
  </g>
</svg>
