<?xml version="1.0" encoding="UTF-8" standalone="no"?>
<svg
   xmlns:dc="http://purl.org/dc/elements/1.1/"
   xmlns:cc="http://creativecommons.org/ns#"
   xmlns:rdf="http://www.w3.org/1999/02/22-rdf-syntax-ns#"
   xmlns:svg="http://www.w3.org/2000/svg"
   xmlns="http://www.w3.org/2000/svg"
   xmlns:xlink="http://www.w3.org/1999/xlink"
   version="1.1"
   id="svg2"
   viewBox="0 0 64 64">
  <metadata
     id="metadata69">
    <rdf:RDF>
      <cc:Work
         rdf:about="">
        <dc:format>image/svg+xml</dc:format>
        <dc:type
           rdf:resource="http://purl.org/dc/dcmitype/StillImage" />
      </cc:Work>
    </rdf:RDF>
  </metadata>
  <defs
     id="defs4">
    <linearGradient
       id="4">
      <stop
         id="stop7"
         stop-color="#181818" />
      <stop
         id="stop9"
         stop-opacity="0"
         stop-color="#181818"
         offset="1" />
    </linearGradient>
    <linearGradient
       gradientUnits="userSpaceOnUse"
       id="6"
       y2="39.999"
       x2="0"
       y1="47.03">
      <stop
         id="stop12"
         stop-opacity="0"
         stop-color="#181818" />
      <stop
         id="stop14"
         stop-color="#181818"
         offset=".5" />
      <stop
         id="stop16"
         stop-opacity="0"
         stop-color="#181818"
         offset="1" />
    </linearGradient>
    <linearGradient
       gradientUnits="userSpaceOnUse"
       id="0"
       y2="17.02"
       x2="0"
       y1="34.27">
      <stop
         id="stop19"
         stop-color="#dcdcdc" />
      <stop
         id="stop21"
         stop-color="#fff"
         offset="1" />
    </linearGradient>
    <linearGradient
       gradientTransform="matrix(1.43243 0 0 1.43628-2.378-2.471)"
       gradientUnits="userSpaceOnUse"
       id="1"
       y2="43"
       x2="0"
       y1="5">
      <stop
         id="stop24"
         stop-color="#fff" />
      <stop
         id="stop26"
         stop-opacity=".235"
         stop-color="#fff"
         offset=".063" />
      <stop
         id="stop28"
         stop-opacity=".157"
         stop-color="#fff"
         offset=".951" />
      <stop
         id="stop30"
         stop-opacity=".392"
         stop-color="#fff"
         offset="1" />
    </linearGradient>
    <radialGradient
       gradientTransform="matrix(2.0038 0 0 1.4 27.988-17.4)"
       gradientUnits="userSpaceOnUse"
       xlink:href="#4"
       id="3"
       r="2.5"
       cy="43.5"
       cx="4.993" />
    <radialGradient
       gradientTransform="matrix(2.0038 0 0 1.4-20.01-104.4)"
       gradientUnits="userSpaceOnUse"
       xlink:href="#4"
       id="5"
       r="2.5"
       cy="43.5"
       cx="4.993" />
    <radialGradient
       gradientTransform="matrix(0 12.89009-15.82491 0 190.74-113.1)"
       gradientUnits="userSpaceOnUse"
       id="2"
       r="12.672"
       cy="9.957"
       cx="7.118">
      <stop
         id="stop35"
         stop-color="#505050" />
      <stop
         id="stop37"
         stop-color="#2b2b2b"
         offset=".262" />
      <stop
         id="stop39"
         stop-color="#0a0a0a"
         offset=".705" />
      <stop
         id="stop41"
         offset="1" />
    </radialGradient>
  </defs>
  <g
     id="g43"
     opacity=".6"
     transform="matrix(1.57895 0 0 .71429-5.895 27.929)">
    <path
       id="path45"
       d="m38 40h5v7h-5z"
       fill="url(#3)" />
    <path
       id="path47"
       d="m-10-47h5v7h-5z"
       fill="url(#5)"
       transform="scale(-1-1)" />
    <path
       id="path49"
       d="m10 40h28v7h-28z"
       fill="url(#6)" />
  </g>
  <rect
     id="rect51"
     color="#000"
     fill="url(#2)"
     opacity=".9"
     y="4.5"
     x="4.5"
     rx="3"
     height="55"
     width="55" />
  <g
     id="g53"
     stroke-linecap="round"
     stroke-linejoin="round"
     fill="none">
    <rect
       id="rect55"
       stroke="url(#1)"
       opacity=".3"
       y="5.429"
       x="5.5"
       rx="2"
       height="53.14"
       width="53" />
    <rect
       id="rect57"
       color="#000"
       stroke="#000"
       opacity=".7"
       y="4.5"
       x="4.5"
       rx="3"
       height="55"
       width="55" />
  </g>
  <g
     id="g59"
     color="#000">
    <path
       id="path61"
       opacity=".15"
       d="M17 16.0625A.925952 .925952 0 0 0 16.0625 17v.313c-.921.174-1.829.472-2.625 1.125-.007.006-.024-.006-.031 0v.031c-1.631 1.295-1.751 3.663-.563 5.219a.925952 .925952 0 0 0 .03125 .03125c.893 1.083 2.09 1.576 3.188 2v1.031C15.15 26.582 14.239 26.421 13.375 26.03A.925952 .925952 0 0 0 12.0625 26.875v2.375a.925952 .925952 0 0 0 .5625 .84375c1.103.468 2.272.615 3.438.719v1.188A.925952 .925952 0 0 0 17 32.9375h1A.925952 .925952 0 0 0 18.9375 32v-1.281c.705-.095 1.426-.165 2.125-.531v.031c.013-.007.018-.025.031-.031 1.319-.665 2.268-2.01 2.219-3.531 0-.01 0-.021 0-.031-.001-.743-.263-1.439-.688-2.031a.925952 .925952 0 0 0 0 -.03125c-.985-1.314-2.485-1.807-3.688-2.25v-.906c.695.121 1.413.217 1.969.438a.925952 .925952 0 0 0 1.1875 -.53125l.875-2.125A.925952 .925952 0 0 0 22.5 18c-1.118-.479-2.375-.705-3.563-.813v-.188A.925952 .925952 0 0 0 18 16.0625h-1m9 16A.925952 .925952 0 0 0 25.0625 33v3A.925952 .925952 0 0 0 26 36.9375h11A.925952 .925952 0 0 0 37.9375 36v-3A.925952 .925952 0 0 0 37 32.0625h-11" />
    <path
       id="path63"
       opacity=".3"
       d="m17 17v1.063c-1.089.104-2.154.391-3 1.094-1.214.938-1.298 2.801-.406 3.969.862 1.046 2.155 1.527 3.406 2v2.813c-1.396-.114-2.732-.49-4-1.063v2.375c1.269.539 2.62.786 4 .813v1.938h1v-2c.845-.076 1.908-.226 2.656-.625 1.039-.51 1.765-1.59 1.719-2.719.004-.546-.176-1.079-.5-1.531-.867-1.157-2.566-1.66-3.875-2.188v-2.688c1.038.084 2.287.337 3.25.719l.875-2.125c-1.229-.527-2.785-.757-4.125-.813v-1.031h-1m0 3.281v2.156c-.528-.232-1.274-.524-1.25-1.188-.025-.626.715-.909 1.25-.969m1 5.344c.524.256 1.488.459 1.5 1.125.03.68-.907 1.015-1.5 1.094v-2.219m8 7.375v3h11v-3h-11" />
    <path
       id="path65"
       fill="url(#0)"
       d="m17 16v1.063c-1.089.104-2.154.391-3 1.094-1.214.938-1.298 2.801-.406 3.969.862 1.046 2.155 1.527 3.406 2v2.813c-1.396-.114-2.732-.49-4-1.063v2.375c1.269.539 2.62.786 4 .813v1.938h1v-2c.845-.076 1.908-.226 2.656-.625 1.039-.51 1.765-1.59 1.719-2.719.004-.546-.176-1.079-.5-1.531-.867-1.157-2.566-1.66-3.875-2.188v-2.688c1.038.084 2.287.337 3.25.719l.875-2.125c-1.229-.527-2.785-.757-4.125-.813v-1.031h-1m0 3.281v2.156c-.528-.232-1.274-.524-1.25-1.188-.025-.626.715-.909 1.25-.969m1 5.344c.524.256 1.488.459 1.5 1.125.03.68-.907 1.015-1.5 1.094v-2.219m8 7.375v3h11v-3h-11" />
  </g>
</svg>
