<svg xmlns="http://www.w3.org/2000/svg" xmlns:xlink="http://www.w3.org/1999/xlink" viewBox="0 0 64 64"><defs><linearGradient id="a"><stop stop-color="#181818"/><stop stop-opacity="0" stop-color="#181818" offset="1"/></linearGradient><linearGradient gradientUnits="userSpaceOnUse" id="d" y2="39.999" x2="0" y1="47.03"><stop stop-opacity="0" stop-color="#181818"/><stop stop-color="#181818" offset=".5"/><stop stop-opacity="0" stop-color="#181818" offset="1"/></linearGradient><linearGradient gradientUnits="userSpaceOnUse" id="g" y2="17.02" x2="0" y1="34.27"><stop stop-color="#dcdcdc"/><stop stop-color="#fff" offset="1"/></linearGradient><linearGradient gradientTransform="matrix(1.43243 0 0 1.43628 -2.378 -2.471)" gradientUnits="userSpaceOnUse" id="f" y2="43" x2="0" y1="5"><stop stop-color="#fff"/><stop stop-opacity=".235" stop-color="#fff" offset=".063"/><stop stop-opacity=".157" stop-color="#fff" offset=".951"/><stop stop-opacity=".392" stop-color="#fff" offset="1"/></linearGradient><radialGradient gradientTransform="matrix(2.0038 0 0 1.4 27.988 -17.4)" gradientUnits="userSpaceOnUse" xlink:href="#a" id="b" r="2.5" cy="43.5" cx="4.993"/><radialGradient gradientTransform="matrix(2.0038 0 0 1.4 -20.01 -104.4)" gradientUnits="userSpaceOnUse" xlink:href="#a" id="c" r="2.5" cy="43.5" cx="4.993"/><radialGradient gradientTransform="matrix(0 12.89009 -15.82491 0 190.74 -113.1)" gradientUnits="userSpaceOnUse" id="e" r="12.672" cy="9.957" cx="7.118"><stop stop-color="#505050"/><stop stop-color="#2b2b2b" offset=".262"/><stop stop-color="#0a0a0a" offset=".705"/><stop offset="1"/></radialGradient></defs><g opacity=".6"><path d="M38 40h5v7h-5z" fill="url(#b)" transform="matrix(1.57895 0 0 .71429 -5.895 27.929)"/><path d="M-10-47h5v7h-5z" fill="url(#c)" transform="matrix(-1.57895 0 0 -.71429 -5.895 27.929)"/><path d="M10 40h28v7H10z" fill="url(#d)" transform="matrix(1.57895 0 0 .71429 -5.895 27.929)"/></g><rect color="#000" fill="url(#e)" opacity=".9" y="4.5" x="4.5" rx="3" height="55" width="55"/><g stroke-linecap="round" stroke-linejoin="round" fill="none"><rect stroke="url(#f)" opacity=".3" y="5.429" x="5.5" rx="2" height="53.14" width="53"/><rect color="#000" stroke="#000" opacity=".7" y="4.5" x="4.5" rx="3" height="55" width="55"/></g><g color="#000"><path opacity=".15" d="M17 16.063a.926.926 0 0 0-.938.937v.313c-.92.174-1.829.472-2.625 1.125-.006.006-.023-.006-.03 0v.031c-1.632 1.295-1.752 3.663-.564 5.219a.926.926 0 0 0 .032.031c.893 1.083 2.09 1.576 3.188 2v1.031c-.913-.168-1.824-.329-2.688-.72a.926.926 0 0 0-1.313.845v2.375a.926.926 0 0 0 .563.844c1.103.468 2.272.615 3.438.719V32a.926.926 0 0 0 .937.937h1a.926.926 0 0 0 .938-.938v-1.281c.705-.095 1.426-.165 2.125-.531v.031c.013-.007.018-.025.03-.031 1.32-.665 2.268-2.01 2.22-3.531v-.031c-.001-.743-.263-1.439-.688-2.031a.926.926 0 0 0 0-.031c-.985-1.314-2.485-1.807-3.688-2.25v-.906c.695.12 1.413.217 1.969.438a.926.926 0 0 0 1.187-.531l.875-2.125A.926.926 0 0 0 22.5 18c-1.118-.479-2.375-.705-3.563-.813v-.188a.926.926 0 0 0-.937-.936h-1m9 16a.926.926 0 0 0-.938.937v3a.926.926 0 0 0 .938.938h11a.926.926 0 0 0 .938-.938v-3a.926.926 0 0 0-.938-.938H26"/><path opacity=".3" d="M17 17v1.063c-1.089.104-2.154.391-3 1.094-1.214.938-1.298 2.801-.406 3.969.862 1.046 2.155 1.527 3.406 2v2.813c-1.396-.114-2.732-.49-4-1.063v2.375c1.269.539 2.62.786 4 .813v1.938h1v-2c.845-.076 1.908-.226 2.656-.625 1.039-.51 1.765-1.59 1.719-2.719a2.6 2.6 0 0 0-.5-1.531c-.867-1.157-2.566-1.66-3.875-2.188v-2.688c1.038.084 2.287.337 3.25.719l.875-2.125c-1.229-.527-2.785-.757-4.125-.813v-1.031h-1m0 3.281v2.156c-.528-.232-1.274-.524-1.25-1.188-.025-.626.715-.909 1.25-.969m1 5.344c.524.256 1.488.459 1.5 1.125.03.68-.907 1.015-1.5 1.094v-2.219M26 33v3h11v-3H26"/><path fill="url(#g)" d="M17 16v1.063c-1.089.104-2.154.391-3 1.094-1.214.938-1.298 2.801-.406 3.969.862 1.046 2.155 1.527 3.406 2v2.813c-1.396-.114-2.732-.49-4-1.063v2.375c1.269.539 2.62.786 4 .813v1.938h1v-2c.845-.076 1.908-.226 2.656-.625 1.039-.51 1.765-1.59 1.719-2.719a2.6 2.6 0 0 0-.5-1.531c-.867-1.157-2.566-1.66-3.875-2.188v-2.688c1.038.084 2.287.337 3.25.719l.875-2.125c-1.229-.527-2.785-.757-4.125-.813v-1.031h-1m0 3.281v2.156c-.528-.232-1.274-.524-1.25-1.188-.025-.626.715-.909 1.25-.969m1 5.344c.524.256 1.488.459 1.5 1.125.03.68-.907 1.015-1.5 1.094v-2.219M26 32v3h11v-3H26"/></g></svg>