<svg xmlns="http://www.w3.org/2000/svg" width="16" height="16"><g fill="#bebebe"><path d="M8 0C3.582 0 0 3.582 0 8s3.231 7.072 7.013 7.9l.018-.855c-1.112-.113-1.24-.316-2.187-.795.051-.04.125-.094.125-.094l-.063-.125.219-.22.063-.217.343-.094.25-.688-.062-.156.156-.281.406-.094.188-.47-.032-.623.313-.438.031-.438c-.426-.215-.826-.434-1.25-.656l-.218-.437-.375-.094-.22-.563-.5.063-.468-.344-.469.438v.062c-.141-.042-.311-.046-.437-.125l-.094-.312V8.03l-.312.031c.026-.21.067-.446.093-.656h-.187l-.188.25-.187.094-.25-.156-.031-.313.03-.375.407-.281h.313l.062-.188.375.094.281.344.063-.594.5-.406.156-.469.375-.156.219-.281.469-.094.218-.375H4.47l.437-.188h.313l.406-.156.063.406.187-.28-.219-.157.063-.156-.156-.157-.188-.03.063-.188-.157-.282-.312.125.062-.25-.375-.218-.28.53.03.157-.28.125-.188.406-.063-.375-.5-.187-.094-.281.657-.375.28-.282.032-.343-.156-.094H4.03c.228-.158.442-.307.688-.438v.094l-.219.188-.156.375h.312l.094-.25.031-.063c.126-.09.247-.194.375-.281l.313.094c.194.134.368.271.562.406l.313-.281L6 1.969l-.125-.313-.562-.062v-.062c.009-.005.022.003.03 0l.188.062.157-.157.28-.062c.071-.035.148-.065.22-.094L6 1.469l.656.468v.282l-.25.28.344.688.25-.125.281-.468c.42-.133.823-.286 1.22-.47l-.032.188.187.125.344-.25L8.844 2l-.25.125-.031-.031.343-.938-.343-.125c1.266.1 2.42.534 3.406 1.219l-.281-.063-.344-.125-.5.125-.312.219v.187L10 2.937l.125.5.28-.218.188.218.22.125.124-.375-.063-.219.063-.156.312-.281h.125l-.125.312v.282c.123-.035.25-.047.375-.063l-.344.25-.03.156-.407.344-.406-.094v-.25l-.187.125.093.22h-.312l-.157.28-.188.22-.375.062.219.218.063.22-.247-.035.437.406.216-.122.031-.125.406-.094.22.25.25.125-.157.282.219-.063.125-.281-.281-.313h.125l.25.22.062.312.219.28.062-.405.125-.063c.132.14.232.311.343.469l.438.031.218.156L12.56 6l-.25.218h-.343l-.468-.156-.22.031-.187.188-.5-.5-.344-.094-.028-.033 3.315 3.312s.168-.136.525-.31v-.22c-.16.022-.31.052-.468.064l.313-.344.437-.313.25-.281v-.281c-.054-.103-.103-.24-.156-.344l-.219.281L14.06 7l-.25-.188v-.375l.282.313.312-.032c.14.13.283.227.406.375l.094-.125c.05.338.094.68.094 1.032-.112 1.123.037 1.154-.478 2.095l.672.79c.699-1.143.795-1.37.807-2.886a8 8 0 0 0-8-8zM4.75 2.219l.281.219h.25v-.25l-.28-.126zm-.938.187l-.062.156s-.103.015-.188.032c.081-.067.167-.125.25-.188zm8.438.031c.065.05.124.105.188.157l-.25.281-.345-.375h.344zm-3.031.407v.187l.125.156v.282l-.063.406.313-.063.25-.218-.219-.219a5.827 5.827 0 0 0-.219-.531zm-.281.406l-.188.062.031.375.281-.156zm3.656 3.344l.281.343.375.782.219.25-.125.281.218.25c-.09.006-.187 0-.28 0a10.966 10.966 0 0 1-.439-1.125l-.219-.25-.125-.469zM1.03 7.5c.041.1.218.406.218.406l.532.313.562.156.219.312.375.282.187-.063L3.28 9v.031l-.188.594-.156.219.031.125-.125.468.469.844.469.438.218.28-.03.656.155.344-.156.688s.003.024 0 .031A7.01 7.01 0 0 1 1 7.998c0-.167.02-.334.032-.5z" class="svg" color="#bebebe"/><path display="block" d="M8 4.842v10.38l2.344-2.288 1.34 2.735c.327.74 2.033.145 1.548-.844l-1.325-2.84h2.957L8 4.841z" class="svg" color="#000"/></g></svg>