<?xml version="1.0" encoding="UTF-8" standalone="no"?>
<svg id="svg3862" xmlns:rdf="http://www.w3.org/1999/02/22-rdf-syntax-ns#" xmlns="http://www.w3.org/2000/svg" height="16" width="16" version="1.1" xmlns:cc="http://creativecommons.org/ns#" xmlns:dc="http://purl.org/dc/elements/1.1/">
 <g id="layer1" fill="#bebebe">
  <path class="svg" id="path6534" style="enable-background:accumulate;color:#bebebe;" d="M8,0c-4.4183,0-8,3.5817-8,8s3.2313,7.0723,7.0125,7.9006l0.0187-0.856c-1.1118-0.113-1.2399-0.316-2.1874-0.795,0.051459-0.03988,0.125-0.09375,0.125-0.09375l-0.0626-0.125,0.2188-0.219,0.0625-0.218,0.3437-0.094,0.25-0.688-0.0624-0.156,0.1562-0.281,0.4062-0.094,0.1876-0.469-0.0313-0.624,0.3125-0.438,0.0312-0.438c-0.4264-0.215-0.8267-0.4336-1.25-0.6558l-0.2187-0.4374-0.375-0.0938-0.2187-0.5625-0.5,0.0625-0.4688-0.3438-0.46875,0.4375v0.0625c-0.1414-0.0416-0.3115-0.0459-0.4374-0.125l-0.0938-0.3124v-0.3126l-0.3125,0.0313c0.026-0.2101,0.0676-0.4462,0.0937-0.6563h-0.1875l-0.1875,0.25-0.1874,0.0938-0.25-0.1562-0.0313-0.3126,0.0313-0.375,0.4062-0.2812h0.3125l0.0625-0.1875,0.375,0.0937,0.2812,0.3438,0.0626-0.5938,0.5-0.4062,0.1562-0.4688,0.375-0.1562,0.2188-0.2812,0.4687-0.0938,0.2187-0.375h-0.6875l0.4375-0.1875h0.3125l0.4063-0.1563,0.0625,0.4063,0.1875-0.2813-0.2188-0.1562,0.0626-0.1562-0.1563-0.1563-0.1875-0.0313,0.0625-0.1874-0.1563-0.2813-0.3124,0.125,0.0624-0.25-0.375-0.2187-0.2812,0.5312,0.0312,0.1562-0.2812,0.125-0.1875,0.4063-0.0625-0.375-0.5-0.1875-0.0938-0.2812,0.6563-0.375,0.2813-0.2813,0.0312-0.3437-0.1562-0.0938h-0.0625c0.2274-0.1579,0.4414-0.307,0.6875-0.4375v0.09375l-0.21875,0.1875-0.15625,0.375h0.3125l0.09375-0.25,0.03125-0.0625c0.1258-0.0907,0.247-0.1939,0.375-0.2812l0.3125,0.09375c0.1943,0.1346,0.3681,0.2717,0.5625,0.4062l0.3126-0.2812-0.3438-0.125-0.125-0.3126-0.5625-0.0624v-0.03125-0.03125c0.00905-0.00377,0.022179,0.00373,0.03125,0l0.1874,0.0624,0.1563-0.1563,0.2813-0.0625c0.0706-0.035,0.1474-0.0652,0.2187-0.0938l-0.1875,0.1876,0.6562,0.4687v0.28125l-0.25,0.2812,0.3438,0.6875,0.25-0.125,0.2812-0.4687c0.4195-0.1324,0.8229-0.2858,1.2188-0.4688l-0.0312,0.1875,0.1874,0.125,0.3438-0.25-0.1562-0.1875-0.25,0.125-0.0313-0.0312,0.3437-0.9376-0.3437-0.125c1.2663,0.1007,2.4195,0.5339,3.4065,1.2188l-0.28125-0.0625-0.34375-0.125-0.5,0.125-0.3125,0.21875v0.1875l-0.532,0.3438,0.125,0.5,0.28125-0.21875,0.1875,0.21875,0.21875,0.125,0.125-0.375-0.063-0.2188,0.063-0.1563,0.312-0.2813h0.125l-0.125,0.3125v0.28125c0.123-0.0342,0.249-0.0465,0.375-0.0625l-0.344,0.25-0.031,0.1563-0.406,0.3437-0.406-0.0937v-0.25l-0.1875,0.125,0.09375,0.21875h-0.3125l-0.157,0.2812-0.1875,0.2187-0.375,0.0625,0.2187,0.2188,0.0626,0.2187-0.247-0.0343,0.4375,0.40625,0.2157-0.1219,0.03125-0.125,0.40625-0.09375,0.21875,0.25,0.25,0.125-0.156,0.2812,0.21875-0.0625,0.125-0.28125-0.28125-0.3125h0.125l0.25,0.21875,0.0625,0.3125,0.21875,0.28125,0.0625-0.40625,0.125-0.0625c0.132,0.1402,0.232,0.311,0.343,0.4687l0.438,0.0313,0.218,0.1563-0.094,0.1562-0.25,0.21875h-0.34375l-0.468-0.1563-0.21875,0.03125-0.1875,0.1875-0.5-0.5-0.344-0.0938-0.028-0.0331,3.3143,3.3125s0.16822-0.13633,0.52581-0.31069v-0.21875c-0.16,0.0208-0.311,0.0512-0.468,0.0626l0.3125-0.34375,0.4375-0.3125,0.25-0.28125v-0.28125c-0.054-0.103-0.103-0.2406-0.156-0.3437l-0.219,0.2813-0.157-0.2188-0.25-0.1875v-0.375l0.28125,0.3125,0.3125-0.03125c0.14021,0.12987,0.28327,0.22713,0.40625,0.375l0.09375-0.125c0.05,0.3378,0.094,0.6794,0.094,1.0312-0.11262,1.1233,0.03718,1.1541-0.47782,2.0956l0.67137,0.78952c0.699-1.1426,0.795-1.3696,0.807-2.886,0-4.4183-3.582-8-8-8zm-3.25,2.2188,0.28125,0.21875,0.25,0,0-0.25l-0.2812-0.1251zm-0.9375,0.1874-0.0625,0.1563s-0.10273,0.014953-0.1875,0.03125c0.080768-0.066656,0.16625-0.12446,0.25-0.1875zm8.4375,0.0313c0.06485,0.049824,0.12447,0.10423,0.1875,0.15625l-0.25,0.2812-0.344-0.375h0.34375zm-3.0312,0.40625,0,0.1875,0.125,0.15625,0,0.28125l-0.0626,0.4062,0.3126-0.0625,0.25-0.2187-0.2188-0.2188c-0.0685-0.1862-0.133-0.3526-0.2188-0.5312zm-0.2813,0.4062-0.1875,0.0625,0.0312,0.375,0.2813-0.1563zm3.6562,3.3438,0.28125,0.34375,0.375,0.78125,0.21875,0.25-0.125,0.28125,0.21875,0.25c-0.09128,0.0061-0.18743,0-0.28125,0-0.171-0.3654-0.308-0.7427-0.438-1.125l-0.219-0.25-0.125-0.4688zm-11.563,0.9062c0.0418,0.1004,0.2188,0.4062,0.2188,0.4062l0.5312,0.3126,0.5626,0.1562,0.2187,0.3125,0.375,0.2813,0.1875-0.0626,0.1562,0.0938v0.03125l-0.1875,0.59375-0.15625,0.21875,0.03125,0.125-0.125,0.46875,0.46875,0.84375,0.46875,0.4375,0.2188,0.28-0.0312,0.656,0.1562,0.344-0.1562,0.688s0.00249,0.0238,0,0.03125c-1.7891-1.268-2.9688-3.359-2.9688-5.719,0-0.1682,0.0196-0.3347,0.0312-0.5z" fill-rule="nonzero"/>
  <path class="svg" id="path3049" style="color:#000000;" d="m8,4.8424,0,10.38,2.344-2.2882,1.3394,2.7346c0.32808,0.73962,2.0337,0.14492,1.5487-0.84412l-1.3255-2.8393h2.9579l-6.864-7.1442z" display="block"/>
 </g>
</svg>
