<svg height="64" width="64" xml:space="preserve" xmlns:xlink="http://www.w3.org/1999/xlink" xmlns="http://www.w3.org/2000/svg"><defs><linearGradient id="f"><stop offset="0" style="stop-color:#fff;stop-opacity:1"/><stop offset="0" style="stop-color:#fff;stop-opacity:.23529412"/><stop offset=".836" style="stop-color:#fff;stop-opacity:.15686275"/><stop offset="1" style="stop-color:#fff;stop-opacity:.39215687"/></linearGradient><linearGradient id="d"><stop offset="0" style="stop-color:#fff;stop-opacity:1"/><stop offset=".088" style="stop-color:#fff;stop-opacity:.23529412"/><stop offset=".916" style="stop-color:#fff;stop-opacity:.15686275"/><stop offset="1" style="stop-color:#fff;stop-opacity:.39215687"/></linearGradient><linearGradient id="g"><stop offset="0" style="stop-color:#181818;stop-opacity:1"/><stop offset="1" style="stop-color:#181818;stop-opacity:0"/></linearGradient><linearGradient id="b"><stop offset="0" style="stop-color:#181818;stop-opacity:0"/><stop offset=".5" style="stop-color:#181818;stop-opacity:1"/><stop offset="1" style="stop-color:#181818;stop-opacity:0"/></linearGradient><linearGradient id="e"><stop offset="0" style="stop-color:#000;stop-opacity:.31782946"/><stop offset="1" style="stop-color:#000;stop-opacity:.24031007"/></linearGradient><linearGradient id="c"><stop offset="0" style="stop-color:#f4f4f4;stop-opacity:1"/><stop offset="1" style="stop-color:#dbdbdb;stop-opacity:1"/></linearGradient><linearGradient xlink:href="#a" id="q" gradientUnits="userSpaceOnUse" gradientTransform="matrix(1.38625 0 0 1.3334 -70.644 -1.611)" x1="74.839" y1="4.536" x2="74.839" y2="49.779"/><linearGradient id="a"><stop offset="0" style="stop-color:#43d6b5;stop-opacity:1"/><stop offset="1" style="stop-color:#28bca3;stop-opacity:1"/></linearGradient><linearGradient xlink:href="#b" id="j" gradientUnits="userSpaceOnUse" gradientTransform="matrix(1.57143 0 0 .71429 -5.714 27.929)" x1="25.058" y1="47.028" x2="25.058" y2="39.999"/><linearGradient xlink:href="#c" id="k" gradientUnits="userSpaceOnUse" gradientTransform="matrix(1.38045 0 0 1.32772 -70.158 -1.412)" x1="74.839" y1="4.536" x2="74.839" y2="49.779"/><linearGradient xlink:href="#d" id="l" gradientUnits="userSpaceOnUse" gradientTransform="translate(-2.378 -2.378) scale(1.43243)" x1="24" y1="5.915" x2="24" y2="42.187"/><linearGradient xlink:href="#e" id="m" gradientUnits="userSpaceOnUse" gradientTransform="matrix(.8075 0 0 .89472 10.835 -.132)" x1="12.879" y1="66.951" x2="12.879" y2="4.78"/><linearGradient xlink:href="#d" id="n" gradientUnits="userSpaceOnUse" gradientTransform="translate(-2.378 -2.378) scale(1.43243)" x1="20.394" y1="24.801" x2="20.394" y2="42.106"/><linearGradient xlink:href="#d" id="o" gradientUnits="userSpaceOnUse" gradientTransform="translate(-2.378 -2.378) scale(1.43243)" x1="24" y1="5.915" x2="24" y2="42.187"/><linearGradient xlink:href="#e" id="p" gradientUnits="userSpaceOnUse" gradientTransform="matrix(-.8075 0 0 .89472 52.195 -.132)" x1="12.879" y1="66.951" x2="12.879" y2="4.78"/><linearGradient xlink:href="#f" id="r" gradientUnits="userSpaceOnUse" gradientTransform="translate(-2.378 -2.378) scale(1.43243)" x1="34.55" y1="24.708" x2="34.55" y2="42.047"/><radialGradient cx="4.993" cy="43.5" r="2.5" fx="4.993" fy="43.5" id="h" xlink:href="#g" gradientUnits="userSpaceOnUse" gradientTransform="matrix(2.40454 0 0 1 41.986 15.5)"/><radialGradient cx="4.993" cy="43.5" r="2.5" fx="4.993" fy="43.5" id="i" xlink:href="#g" gradientUnits="userSpaceOnUse" gradientTransform="matrix(2.40454 0 0 1 -22.014 -102.5)"/></defs><path style="opacity:.4;fill:url(#h);fill-opacity:1;stroke:none;stroke-width:1.06199" d="M54 56.5h6v5h-6z"/><path style="opacity:.4;fill:url(#i);fill-opacity:1;stroke:none;stroke-width:1.06199" transform="scale(-1)" d="M-10-61.5h6v5h-6z"/><path style="opacity:.4;fill:url(#j);fill-opacity:1;stroke:none;stroke-width:1.06199" d="M10 56.5h44v5H10z"/><rect style="color:#000;font-variation-settings:normal;display:inline;overflow:visible;visibility:visible;fill:url(#k);fill-opacity:1;fill-rule:nonzero;stroke:none;stroke-width:1;stroke-linecap:butt;stroke-linejoin:miter;stroke-miterlimit:4;stroke-dasharray:none;stroke-dashoffset:0;stroke-opacity:1;marker:none;enable-background:accumulate;stop-color:#000" y="5" x="5" ry="5.5" rx="5.5" height="54" width="54"/><rect width="53" height="53" rx="5" ry="5" x="5.5" y="5.5" style="fill:none;stroke:url(#l);stroke-width:.999997;stroke-linecap:round;stroke-linejoin:round;stroke-miterlimit:4;stroke-dasharray:none;stroke-dashoffset:0;stroke-opacity:1"/><path style="color:#000;font-variation-settings:normal;display:inline;overflow:visible;visibility:visible;fill:none;fill-opacity:1;stroke:url(#m);stroke-width:.999922;stroke-linecap:butt;stroke-linejoin:round;stroke-miterlimit:4;stroke-dasharray:none;stroke-dashoffset:0;stroke-opacity:1;marker:none;enable-background:accumulate;stop-color:#000" d="M59.5 31.5v-21c0-3.324-2.676-6-6-6h-43c-3.324 0-6 2.676-6 6v43c0 3.324 2.676 6 6 6h21"/><path style="font-variation-settings:normal;opacity:.5;fill:none;fill-opacity:1;stroke:url(#n);stroke-width:.999997;stroke-linecap:butt;stroke-linejoin:round;stroke-miterlimit:4;stroke-dasharray:none;stroke-dashoffset:0;stroke-opacity:1;marker:none;stop-color:#000" d="M31 32.5H5"/><path style="font-variation-settings:normal;fill:none;fill-opacity:1;stroke:url(#o);stroke-width:.999997;stroke-linecap:butt;stroke-linejoin:round;stroke-miterlimit:4;stroke-dasharray:none;stroke-dashoffset:0;stroke-opacity:1;marker:none;stop-color:#000" d="M32.5 58.5V6"/><path style="font-variation-settings:normal;opacity:.5;fill:none;fill-opacity:1;stroke:url(#p);stroke-width:1;stroke-linecap:butt;stroke-linejoin:miter;stroke-miterlimit:4;stroke-dasharray:none;stroke-dashoffset:0;stroke-opacity:1;marker:none;stop-color:#000" d="M31.5 5v26ZM5 31.5h26z"/><path style="color:#000;font-variation-settings:normal;display:inline;overflow:visible;visibility:visible;fill:url(#q);fill-opacity:1;fill-rule:nonzero;stroke:#007367;stroke-width:1;stroke-linecap:butt;stroke-linejoin:miter;stroke-miterlimit:4;stroke-dasharray:none;stroke-dashoffset:0;stroke-opacity:.5;marker:none;enable-background:accumulate;stop-color:#000" d="M31.5 31.5v28.002h22.033a5.964 5.964 0 0 0 5.967-5.967V31.5Z"/><path style="opacity:.3;fill:none;stroke:url(#r);stroke-width:.999997;stroke-linecap:round;stroke-linejoin:miter;stroke-miterlimit:4;stroke-dasharray:none;stroke-dashoffset:0;stroke-opacity:1" d="M32.5 58.5h21c2.77 0 5-2.23 5-5v-21h-26z"/><path style="opacity:.5;fill:#fafafa;stroke:none;stroke-width:4;stroke-linecap:round;stroke-linejoin:round;stop-color:#000" d="M17.75 13a.763.763 0 0 0-.75.78V18h-4.22c-.432 0-.78.334-.78.75v1.5c0 .416.348.75.78.75H17v4.217c0 .431.334.78.75.78h1.5c.416 0 .75-.349.75-.78V21h4.217c.431 0 .78-.334.78-.75v-1.5a.763.763 0 0 0-.78-.75H20v-4.22c0-.432-.334-.78-.75-.78Zm23.031 5a.763.763 0 0 0-.779.75v1.5c0 .416.348.75.78.75h9.437a.763.763 0 0 0 .779-.75v-1.5a.763.763 0 0 0-.78-.75zm-25.81 23.16a.734.734 0 0 0-.537.213l-1.06 1.06a.764.764 0 0 0 .02 1.083L16.38 46.5l-2.983 2.982a.764.764 0 0 0-.019 1.082l1.06 1.061c.294.294.776.283 1.08-.021L18.5 48.62l2.982 2.983c.305.304.787.315 1.08.021l1.061-1.06a.764.764 0 0 0-.02-1.083L20.622 46.5l2.984-2.984c.305-.305.316-.788.022-1.082l-1.06-1.061a.765.765 0 0 0-1.083.022L18.5 44.379l-2.984-2.984a.792.792 0 0 0-.545-.235Z"/><path style="opacity:.15;fill:#007367;stroke:none;stroke-width:4;stroke-linecap:round;stroke-linejoin:round;stop-color:#000" d="M39.684 41.004c-1.132.023-1.87 1.188-1.682 2.246-.083.949-.01 2.15 1.012 2.578 1.11.358 2.317.088 3.467.172 3.031-.026 6.07.053 9.096-.04 1.07-.168 1.589-1.321 1.425-2.31.093-.922-.034-2.067-1.012-2.478-1.11-.358-2.317-.088-3.467-.172-2.947.003-5.893-.005-8.84.004zm0 6c-1.132.023-1.87 1.188-1.682 2.246-.083.949-.01 2.15 1.012 2.578 1.11.358 2.317.088 3.467.172 3.031-.026 6.07.053 9.096-.04 1.07-.168 1.589-1.321 1.425-2.31.093-.922-.034-2.067-1.012-2.478-1.11-.358-2.317-.088-3.467-.172-2.947.003-5.893-.005-8.84.004z"/><path style="opacity:.3;fill:#007367;stroke:none;stroke-width:4;stroke-linecap:round;stroke-linejoin:round;stop-color:#000" d="M39.781 42a.763.763 0 0 0-.779.75v1.5c0 .416.348.75.78.75h11.44c.432 0 .78-.334.78-.75v-1.5a.763.763 0 0 0-.78-.75zm0 6a.763.763 0 0 0-.779.75v1.5c0 .416.348.75.78.75h11.44c.432 0 .78-.334.78-.75v-1.5a.763.763 0 0 0-.78-.75z"/><path style="opacity:.8;fill:#555761;stroke:none;stroke-width:4;stroke-linecap:round;stroke-linejoin:round;stop-color:#000" d="M17.75 12a.763.763 0 0 0-.75.78V17h-4.22c-.432 0-.78.334-.78.75v1.5c0 .416.348.75.78.75H17v4.217c0 .431.334.78.75.78h1.5c.416 0 .75-.349.75-.78V20h4.217c.431 0 .78-.334.78-.75v-1.5a.763.763 0 0 0-.78-.75H20v-4.22c0-.432-.334-.78-.75-.78Zm23.031 5a.763.763 0 0 0-.779.75v1.5c0 .416.348.75.78.75h9.437a.763.763 0 0 0 .779-.75v-1.5a.763.763 0 0 0-.78-.75zm-25.81 23.16a.734.734 0 0 0-.537.213l-1.06 1.06a.764.764 0 0 0 .02 1.083L16.38 45.5l-2.983 2.982a.764.764 0 0 0-.019 1.082l1.06 1.061c.294.294.776.283 1.08-.021L18.5 47.62l2.982 2.983c.305.304.787.315 1.08.021l1.061-1.06a.764.764 0 0 0-.02-1.083L20.622 45.5l2.984-2.984c.305-.305.316-.788.022-1.082l-1.06-1.061a.765.765 0 0 0-1.083.022L18.5 43.379l-2.984-2.984a.792.792 0 0 0-.545-.235Z"/><path style="opacity:.8;fill:#555761;stroke:none;stroke-width:4;stroke-linecap:round;stroke-linejoin:round;stop-color:#000" d="M17.75 12a.763.763 0 0 0-.75.78v1c0-.432.334-.78.75-.78h1.5c.416 0 .75.348.75.78v-1c0-.432-.334-.78-.75-.78Zm-4.97 5c-.432 0-.78.334-.78.75v1c0-.416.348-.75.78-.75H17v-1ZM20 17v1h4.217c.431 0 .78.334.78.75v-1a.763.763 0 0 0-.78-.75zm20.781 0a.763.763 0 0 0-.779.75v1c0-.416.348-.75.78-.75h9.437c.431 0 .779.334.779.75v-1a.763.763 0 0 0-.78-.75zM22.03 40.158a.794.794 0 0 0-.545.237L18.5 43.379l-2.984-2.984a.792.792 0 0 0-.545-.235.734.734 0 0 0-.537.213l-1.061 1.06a.762.762 0 0 0-.027 1.032c.009-.01.017-.022.027-.031l1.06-1.061c.295-.294.778-.283 1.083.022l2.984 2.984 2.984-2.984c.305-.306.788-.316 1.082-.022l1.061 1.06c.01.01.018.022.027.032a.763.763 0 0 0-.027-1.031l-1.06-1.061a.735.735 0 0 0-.538-.215ZM15.88 46l-2.483 2.482a.765.765 0 0 0-.046 1.053l.046-.053L16.38 46.5Zm5.242 0-.5.5 2.983 2.982c.017.017.031.035.046.053a.765.765 0 0 0-.046-1.053z"/><path style="fill:#fafafa;stroke:none;stroke-width:4;stroke-linecap:round;stroke-linejoin:round;stop-color:#000" d="M39.781 41a.763.763 0 0 0-.779.75v1.5c0 .416.348.75.78.75h11.44c.432 0 .78-.334.78-.75v-1.5a.763.763 0 0 0-.78-.75zm0 6a.763.763 0 0 0-.779.75v1.5c0 .416.348.75.78.75h11.44c.432 0 .78-.334.78-.75v-1.5a.763.763 0 0 0-.78-.75z"/><path style="font-variation-settings:normal;opacity:.15;fill:#007367;fill-opacity:1;stroke:none;stroke-width:4;stroke-linecap:round;stroke-linejoin:round;stroke-miterlimit:4;stroke-dasharray:none;stroke-dashoffset:0;stroke-opacity:1;stop-color:#000" d="M39.002 42.25v1c0 .416.348.75.78.75h11.44c.432 0 .78-.334.78-.75v-1c0 .416-.348.75-.78.75h-11.44a.763.763 0 0 1-.78-.75zm0 6v1c0 .416.348.75.78.75h11.44c.432 0 .78-.334.78-.75v-1c0 .416-.348.75-.78.75h-11.44a.763.763 0 0 1-.78-.75z"/></svg>