<?xml version="1.0" encoding="UTF-8" standalone="no"?>
<!-- Created with Inkscape (http://www.inkscape.org/) -->

<svg
   xmlns:dc="http://purl.org/dc/elements/1.1/"
   xmlns:cc="http://creativecommons.org/ns#"
   xmlns:rdf="http://www.w3.org/1999/02/22-rdf-syntax-ns#"
   xmlns:svg="http://www.w3.org/2000/svg"
   xmlns="http://www.w3.org/2000/svg"
   xmlns:xlink="http://www.w3.org/1999/xlink"
   xmlns:inkscape="http://www.inkscape.org/namespaces/inkscape"
   version="1.1"
   width="64"
   height="64"
   id="svg4845">
  <defs
     id="defs4847">
    <linearGradient
       id="linearGradient4806">
      <stop
         id="stop4808"
         style="stop-color:#ffffff;stop-opacity:1"
         offset="0" />
      <stop
         id="stop4810"
         style="stop-color:#ffffff;stop-opacity:0.23529412"
         offset="0.42447853" />
      <stop
         id="stop4812"
         style="stop-color:#ffffff;stop-opacity:0.15686275"
         offset="0.82089913" />
      <stop
         id="stop4814"
         style="stop-color:#ffffff;stop-opacity:0.39215687"
         offset="1" />
    </linearGradient>
    <linearGradient
       id="linearGradient3242-7-3-8-9">
      <stop
         id="stop3244-5-8-5-3"
         style="stop-color:#eef87e;stop-opacity:1"
         offset="0" />
      <stop
         id="stop3246-9-5-1-2"
         style="stop-color:#cde34f;stop-opacity:1"
         offset="0.26238" />
      <stop
         id="stop3248-7-2-0-84"
         style="stop-color:#93b723;stop-opacity:1"
         offset="0.66093999" />
      <stop
         id="stop3250-8-2-8-3"
         style="stop-color:#5a7e0d;stop-opacity:1"
         offset="1" />
    </linearGradient>
    <radialGradient
       cx="299.44821"
       cy="-290.5918"
       r="17.1528"
       fx="297.44989"
       fy="-289.9133"
       id="XMLID_2_-8-6-1"
       gradientUnits="userSpaceOnUse"
       gradientTransform="matrix(0.8232,0.2312,0.2703,-0.9626,-96.2274,-315.3433)">
      <stop
         id="stop228-2-7-9"
         style="stop-color:#000000;stop-opacity:1"
         offset="0" />
      <stop
         id="stop230-7-5-7"
         style="stop-color:#000000;stop-opacity:0"
         offset="1" />
    </radialGradient>
    <linearGradient
       id="linearGradient2867-449-88-871-390-598-476-591-434-148-57-177-3-8">
      <stop
         id="stop3750-8-9"
         style="stop-color:#5bc2ee;stop-opacity:1"
         offset="0" />
      <stop
         id="stop3752-3-2"
         style="stop-color:#42baea;stop-opacity:1"
         offset="0.26238" />
      <stop
         id="stop3754-7-2"
         style="stop-color:#3689e6;stop-opacity:1"
         offset="0.704952" />
      <stop
         id="stop3756-9-3"
         style="stop-color:#2b63a0;stop-opacity:1"
         offset="1" />
    </linearGradient>
    <linearGradient
       id="linearGradient3820-7-2">
      <stop
         id="stop3822-2-6"
         style="stop-color:#3d3d3d;stop-opacity:1"
         offset="0" />
      <stop
         id="stop3864-8-7"
         style="stop-color:#686868;stop-opacity:0.49803922"
         offset="0.5" />
      <stop
         id="stop3824-1-2"
         style="stop-color:#686868;stop-opacity:0"
         offset="1" />
    </linearGradient>
    <radialGradient
       cx="15.645058"
       cy="8.449769"
       r="19.99999"
       fx="-0.22334664"
       fy="8.44977"
       id="radialGradient5007"
       xlink:href="#linearGradient2867-449-88-871-390-598-476-591-434-148-57-177-3-8"
       gradientUnits="userSpaceOnUse"
       gradientTransform="matrix(-9.6613255e-8,1.5876869,-1.495831,-1.0935756e-7,44.6396,2.8743392)" />
    <linearGradient
       x1="-1085.9586"
       y1="539.40955"
       x2="-474.68497"
       y2="375.61926"
       id="linearGradient5009"
       xlink:href="#XMLID_2_-8-6-1"
       gradientUnits="userSpaceOnUse"
       gradientTransform="matrix(0.1011621,0,0,0.08500722,118.6948,-5.5605522)" />
    <radialGradient
       cx="18.164446"
       cy="8.449769"
       r="19.99999"
       fx="8.894803"
       fy="8.5985041"
       id="radialGradient5011"
       xlink:href="#linearGradient3242-7-3-8-9"
       gradientUnits="userSpaceOnUse"
       gradientTransform="matrix(0,1.9915335,-1.8772441,-2.2997302e-8,47.862448,-4.4613112)" />
    <linearGradient
       x1="71.204407"
       y1="15.369057"
       x2="71.204407"
       y2="40.495617"
       id="linearGradient5013"
       xlink:href="#linearGradient4806"
       gradientUnits="userSpaceOnUse"
       gradientTransform="matrix(2.3268746,0,0,2.3268746,-135.94475,-32.842783)" />
    <radialGradient
       cx="99.157013"
       cy="186.17059"
       r="62.769119"
       fx="99.157013"
       fy="186.17059"
       id="radialGradient5015"
       xlink:href="#linearGradient3820-7-2"
       gradientUnits="userSpaceOnUse"
       gradientTransform="matrix(1,0,0,0.1666667,0,155.14216)" />
  </defs>
  <metadata
     id="metadata4850">
    <rdf:RDF>
      <cc:Work
         rdf:about="">
        <dc:format>image/svg+xml</dc:format>
        <dc:type
           rdf:resource="http://purl.org/dc/dcmitype/StillImage" />
        <dc:title />
      </cc:Work>
    </rdf:RDF>
  </metadata>
  <g
     id="layer1">
    <path
       d="m 161.92613,186.17059 a 62.769119,10.461519 0 1 1 -125.538236,0 62.769119,10.461519 0 1 1 125.538236,0 z"
       transform="matrix(0.38235362,0,0,0.71691308,-5.913044,-76.968133)"
       id="path3818-0"
       style="fill:url(#radialGradient5015);fill-opacity:1;stroke:none" />
    <path
       d="m 32,2.4999994 c -16.277082,0 -29.5,13.2229146 -29.5,29.4999976 0,16.277083 13.222918,29.500005 29.5,29.5 16.27708,0 29.50001,-13.222917 29.5,-29.5 C 61.5,15.722914 48.27708,2.4999994 32,2.4999994 z"
       inkscape:connector-curvature="0"
       id="path2555-7"
       style="color:#000000;fill:url(#radialGradient5007);fill-opacity:1;fill-rule:nonzero;stroke:none;stroke-width:1;marker:none;visibility:visible;display:inline;overflow:visible;enable-background:accumulate" />
    <path
       d="m 32.46875,2.5000004 -3.40625,0.375 -3.96875,1.03125 c 0.33845,-0.1119921 0.68054,-0.236506 1.03125,-0.34375 l -0.28125,-0.40625 c -2.240005,0.4770977 -4.385276,1.2015693 -6.40625,2.15625 l -0.28125,0.5625 -0.1875,-0.34375 c -0.199283,0.098441 -0.397034,0.2097197 -0.59375,0.3125 l 0.0625,0.65625 -1,0.78125 -0.5625,1.40625 1.1875,0 0.46875,-0.90625 0.15625,-0.34375 c 0.52184,-0.3489217 1.03102,-0.7266247 1.5625,-1.0625 l 1.21875,0.375 c 0.80628,0.5179634 1.63054,1.045316 2.4375,1.5625 l 1.1875,-1.03125 -1.34375,-0.53125 -0.625,-1.1875 -2.28125,-0.21875 -0.03125,-0.25 0.96875,0.1875 0.5625,-0.53125 1.25,-0.25 c 0.29306,-0.1347946 0.57916,-0.2340525 0.875,-0.34375 l -0.78125,0.6875 2.78125,1.8125 0,1.0625 -1.0625,1.03125 1.4375,2.7187496 0.96875,-0.53125 1.25,-1.8124996 C 30.80361,8.6160142 32.35665,8.0477274 34,7.3437504 l -0.09375,0.6875 0.84375,0.5 1.4375,-0.90625 -0.71875,-0.78125 -1,0.53125 -0.3125,-0.09375 c 0.0712,-0.03074 0.14735,-0.062577 0.21875,-0.09375 l 1.4375,-3.5 -3.09375,-1.1875 c -0.08254,-0.00197 -0.167291,0.00128 -0.25,0 z m -13.9375,5.28125 1.1875,0.75 0.96875,0 0,-0.90625 -1.1875,-0.5 -0.96875,0.65625 z m -3.40625,0.03125 c -0.103371,0.072262 -0.210102,0.1452033 -0.3125,0.21875 l -0.40625,1.03125 c 0,0 -0.893188,0.1021013 -1.125,0.15625 -0.01144,0.00941 -0.01983,0.021819 -0.03125,0.03125 -0.0098,0.00853 -0.02141,0.022657 -0.03125,0.03125 C 12.113456,10.246401 10.595707,11.612273 9.0625,13.5 c -0.2600847,0.320224 -0.5217076,0.650135 -0.78125,1 -0.5064151,0.682651 -1.0165984,1.418211 -1.5,2.21875 -0.012094,0.02003 -0.019179,0.0424 -0.03125,0.0625 -1.730895,2.882873 -3.2045124,6.557167 -3.8125,11.15625 0.05503,0.243711 1,1.625 1,1.625 l 2.25,1.28125 2.28125,0.59375 0.96875,1.125 1.5,1.0625 0.875,-0.15625 0.625,0.3125 0,0.1875 -0.8125,2.1875 -0.6875,0.9375 0.21875,0.4375 -0.53125,1.75 1.90625,3.34375 1.96875,1.59375 0.875,1.15625 -0.09375,2.46875 0.625,1.34375 -0.625,2.625 c 0,0 -0.08257,0.01566 0,0.28125 0.08333,0.265749 3.44195,2.025612 3.65625,1.875 0.04869,-0.03498 0.04926,-0.03029 0.09375,-0.0625 -1.190442,-2.125377 -1.875,-4.57763 -1.875,-7.1875 0,-4.15286 1.736032,-7.883259 4.5,-10.5625 l -0.8125,-1.5 L 19.25,34.3125 18.375,32.125 l -2.125,0.21875 -1.84375,-1.25 -1.96875,1.625 0,0.21875 C 11.850196,32.777203 11.14795,32.772774 10.625,32.46875 l -0.40625,-1.1875 0,-1.25 -1.34375,0.125 c 0.107948,-0.808031 0.266288,-1.629613 0.375,-2.4375 l -0.78125,0 L 7.6875,28.65625 6.96875,29 5.875,28.40625 5.78125,27.125 6,25.78125 l 1.59375,-1.1875 1.28125,0 0.28125,-0.6875 1.59375,0.375 1.1875,1.40625 0.1875,-2.375 2.0625,-1.59375 0.71875,-1.6875 1.5625,-0.59375 0.8125,-1.1875 1.96875,-0.3125 1,-1.40625 -2.96875,0 1.875,-0.8125 1.28125,0 1.65625,-0.53125 0.3125,1.5 L 23.125,15.625 22.3125,15.09375 22.5,14.4375 21.84375,13.84375 21.125,13.6875 l 0.1875,-0.75 -0.5625,-1.03125 -1.28125,0.5 0.1875,-0.9375 -1.5,-0.8125 -1.1875,1.9375 0.125,0.6875 -1.1875,0.5 -0.71875,1.5 -0.375,-1.4375 -2,-0.75 -0.375,-1.0625 2.75,-1.46875 1.1875,-1.0624996 0.09375,-1.28125 -0.65625,-0.34375 -0.6875,-0.0625 z m 27.59375,0.5 -0.25,0.15625 0,0.71875 -2.125,1.2812496 0.4375,1.875 1.21875,-0.8125 0.78125,0.8125 0.875,0.5 0.5625,-1.40625 -0.3125,-0.8125 0.15625,-0.3125 C 43.650472,9.6112823 43.221758,8.9436805 42.71875,8.3125004 z M 37.0625,10.125 l 0,0.78125 0.46875,0.46875 0,1.1875 -0.28125,1.5625 1.34375,-0.28125 1,-0.90625 -0.875,-0.75 c -0.28448,-0.716271 -0.58146,-1.375494 -0.9375,-2.0625 l -0.71875,0 z m -1.15625,1.5625 -0.8125,0.21875 0.21875,1.40625 1.0625,-0.53125 -0.46875,-1.09375 z M 42.125,12.5 41.34375,13 l 0.34375,0.8125 -1.21875,0 -0.6875,1.0625 -0.8125,0.90625 -1.5,0.28125 0.875,0.84375 0.21875,0.8125 -1.09375,0 -1.4375,0.75 0,2.15625 0.65625,0 0.625,0.59375 1.40625,-0.59375 0.5,-1.34375 1.03125,-0.59375 0.21875,-0.46875 1.65625,-0.40625 0.90625,0.96875 1,0.5 -0.5625,1.0625 0.875,-0.25 0.4375,-1.03125 -1.125,-1.25 0.46875,0 1.125,0.875 0.21875,1.1875 0.5625,0.59375 c 0.196093,-0.946335 0.312501,-1.933556 0.3125,-2.9375 -0.108544,-1.689309 -0.519914,-3.309101 -1.125,-4.84375 l -1.40625,1.125 -1.6875,-0.375 0,-0.9375 z m -0.78125,8.5625 -2.125,0.21875 L 37.375,21.75 c -1.05971,1.13594 -2.15325,2.320272 -3.15625,3.5 l -1.1875,2.71875 0.5625,0.5625 -1.03125,1.4375 0.84375,1.90625 c 5.415323,-0.550865 9.95308,-4.134851 11.90625,-9 l -0.46875,0.5 -2.0625,-1.9375 -1.4375,-0.375 z"
       inkscape:connector-curvature="0"
       id="path6534"
       style="opacity:0.5;color:#000000;fill:url(#linearGradient5009);fill-opacity:1;fill-rule:nonzero;stroke:none;stroke-width:1;marker:none;visibility:visible;display:inline;overflow:visible;enable-background:accumulate" />
    <path
       d="m 32,2.499997 c -0.84449,0 -1.67337,0.055235 -2.5,0.125 7.16696,0 13.89316,4.5806511 15,16 6.9e-4,0.01034 -6.6e-4,0.02091 0,0.03125 -0.068,6.885625 -5.65931,12.4375 -12.5625,12.4375 -0.0208,-3.52e-4 -0.0417,-3.52e-4 -0.0625,0 l -0.75,0.03125 c -0.0104,-8.8e-5 -0.0208,-8.8e-5 -0.0312,0 -8.77037,0.445371 -15.78125,7.721177 -15.78125,16.59375 0,4.249775 1.635679,8.113495 4.28125,11.03125 3.77553,1.757291 7.9717,2.750001 12.40625,2.75 16.27708,0 29.50001,-13.222917 29.5,-29.5 C 61.5,15.722914 48.27708,2.499997 32,2.499997 z"
       inkscape:connector-curvature="0"
       id="path4653"
       style="opacity:0.15;color:#000000;fill:#000000;fill-opacity:1;fill-rule:nonzero;stroke:none;stroke-width:1;marker:none;visibility:visible;display:inline;overflow:visible;enable-background:accumulate" />
    <path
       d="m 31.1875,2.7773375 c 11.84291,0 14.25737,12.5560615 14.42207,15.1193355 0,12.080473 -12.66353,15.31106 -13.67207,15.040824 l -0.75,0.03125 c -7.80458,0.396327 -14.03125,6.849192 -14.03125,14.75 0,5.546576 3.0664,10.354944 7.59375,12.875 2.31818,0.586536 4.75105,0.906251 7.25,0.90625 16.12143,0 29.25046,-12.968586 29.5,-29.03125 C 61.24986,16.373707 48.09395,2.7773375 31.9375,2.7773375 c -0.25463,0 -0.4969,-0.00639 -0.75,0 z"
       inkscape:connector-curvature="0"
       id="path2555-1-8"
       style="opacity:0.3;color:#000000;fill:#000000;fill-opacity:1;fill-rule:nonzero;stroke:none;stroke-width:1;marker:none;visibility:visible;display:inline;overflow:visible;enable-background:accumulate" />
    <path
       d="m 31.17504,2.3729545 c 7.68041,0 14.63599,6.9661126 15.16248,15.1600535 1e-5,7.946559 -6.45653,14.402054 -14.40435,14.402054 l -0.75813,0.04738 c -7.80458,0.396327 -14.025287,6.832871 -14.025287,14.733679 0,7.900813 6.220707,14.337355 14.025287,14.733682 l 0,0.04736 c 0.2531,0.0064 0.5035,0 0.75813,0 16.31244,0 29.56684,-13.25227 29.56683,-29.56211 0,-16.30984 -13.25439,-29.5621089 -29.56683,-29.5621089 -0.25463,0 -0.50503,-0.00638 -0.75813,1.04e-5 z"
       inkscape:connector-curvature="0"
       id="path2555-1"
       style="color:#000000;fill:url(#radialGradient5011);fill-opacity:1;fill-rule:nonzero;stroke:none;stroke-width:1;marker:none;visibility:visible;display:inline;overflow:visible;enable-background:accumulate" />
    <path
       d="m 32,2.499999 c -16.277082,0 -29.5,13.222915 -29.5,29.499998 0,16.277083 13.222918,29.500005 29.5,29.5 16.27708,0 29.50001,-13.222917 29.5,-29.5 C 61.5,15.722914 48.27708,2.499999 32,2.499999 z"
       inkscape:connector-curvature="0"
       id="path2555-7-1"
       style="opacity:0.3;color:#000000;fill:none;stroke:#000000;stroke-width:1;stroke-linecap:round;stroke-linejoin:round;stroke-miterlimit:4;stroke-opacity:1;stroke-dasharray:none;stroke-dashoffset:0;marker:none;visibility:visible;display:inline;overflow:visible;enable-background:accumulate" />
    <path
       d="m 60.50001,31.999999 c 0,15.740115 -12.7599,28.499999 -28.50002,28.499999 -15.740099,0 -28.499991,-12.759884 -28.499991,-28.499999 0,-15.740116 12.759892,-28.5000013 28.499991,-28.5000013 15.74012,0 28.50002,12.7598853 28.50002,28.5000013 z M 37.25,3.343747 c 5.21433,2.4915059 9.16458,7.963171 9.5625,14.15625 a 0.47234332,0.47234332 0 0 1 0,0.03125 c 1e-5,8.191894 -6.65454,14.857832 -14.84376,14.875001 -0.0106,2.1e-5 -0.0207,0 -0.0313,0 l -0.71875,0.03125 c -7.55802,0.383803 -13.593806,6.628588 -13.593806,14.28125 0,7.652668 6.034536,13.866133 13.593756,14.25 a 0.47234332,0.47234332 0 0 1 0.21874,0.0625 c 0.16035,-4.5e-5 0.32497,0 0.5,0 16.05664,0 29.09376,-13.039706 29.09376,-29.09375 0,-14.241953 -10.25558,-26.0962613 -23.78126,-28.59375 z"
       inkscape:connector-curvature="0"
       id="path4762"
       style="opacity:0.5;color:#000000;fill:none;stroke:url(#linearGradient5013);stroke-width:1;stroke-linecap:round;stroke-linejoin:round;stroke-miterlimit:4;stroke-opacity:1;stroke-dasharray:none;stroke-dashoffset:0;marker:none;visibility:visible;display:inline;overflow:visible;enable-background:accumulate" />
  </g>
</svg>
