<svg height="64" width="64" xml:space="preserve" xmlns:xlink="http://www.w3.org/1999/xlink" xmlns="http://www.w3.org/2000/svg"><defs><linearGradient id="e"><stop style="stop-color:#fff;stop-opacity:1" offset="0"/><stop style="stop-color:#fff;stop-opacity:.23529412" offset=".095"/><stop style="stop-color:#fff;stop-opacity:.15686275" offset=".943"/><stop style="stop-color:#fff;stop-opacity:.39215687" offset="1"/></linearGradient><linearGradient id="b"><stop style="stop-color:#fff;stop-opacity:1" offset="0"/><stop style="stop-color:#fff;stop-opacity:.23529412" offset=".083"/><stop style="stop-color:#fff;stop-opacity:.15686275" offset=".943"/><stop style="stop-color:#fff;stop-opacity:.39215687" offset="1"/></linearGradient><linearGradient id="h"><stop offset="0" style="stop-color:#181818;stop-opacity:1"/><stop offset="1" style="stop-color:#181818;stop-opacity:0"/></linearGradient><linearGradient id="a"><stop offset="0" style="stop-color:#181818;stop-opacity:0"/><stop offset=".5" style="stop-color:#181818;stop-opacity:1"/><stop offset="1" style="stop-color:#181818;stop-opacity:0"/></linearGradient><linearGradient x1="25.058" y1="47.028" x2="25.058" y2="39.999" id="o" xlink:href="#a" gradientUnits="userSpaceOnUse" gradientTransform="matrix(1.57143 0 0 .71429 -5.714 27.929)"/><linearGradient id="f"><stop offset="0" style="stop-color:#000;stop-opacity:.31782946"/><stop offset="1" style="stop-color:#000;stop-opacity:.24031007"/></linearGradient><linearGradient id="g"><stop offset="0" style="stop-color:#f4f4f4;stop-opacity:1"/><stop offset="1" style="stop-color:#dbdbdb;stop-opacity:1"/></linearGradient><linearGradient id="c"><stop style="stop-color:#64baff;stop-opacity:1" offset="0"/><stop style="stop-color:#3689e6;stop-opacity:1" offset="1"/></linearGradient><linearGradient id="d"><stop style="stop-color:#fff;stop-opacity:1" offset="0"/><stop style="stop-color:#fff;stop-opacity:.23529412" offset=".097"/><stop style="stop-color:#fff;stop-opacity:.15686275" offset=".943"/><stop style="stop-color:#fff;stop-opacity:.39215687" offset="1"/></linearGradient><linearGradient xlink:href="#b" id="k" gradientUnits="userSpaceOnUse" gradientTransform="matrix(1.43243 0 0 1.1081 -2.378 11.334)" x1="24" y1="-1.222" x2="24" y2="42.092"/><linearGradient xlink:href="#c" id="p" gradientUnits="userSpaceOnUse" gradientTransform="matrix(1 0 0 .81818 0 10.818)" x1="31.781" y1="-11.234" x2="31.781" y2="67.801"/><linearGradient xlink:href="#d" id="q" gradientUnits="userSpaceOnUse" gradientTransform="matrix(1.43243 0 0 1.16216 -2.378 9.037)" x1="24" y1="5.909" x2="24" y2="42.092"/><linearGradient xlink:href="#e" id="l" gradientUnits="userSpaceOnUse" gradientTransform="matrix(1.43243 0 0 1.1081 -2.378 11.334)" x1="11.576" y1="-4.784" x2="11.576" y2="42.194"/><linearGradient xlink:href="#f" id="j" gradientUnits="userSpaceOnUse" gradientTransform="matrix(.8075 0 0 .89472 10.835 -.132)" x1="12.879" y1="66.951" x2="12.879" y2="4.78"/><linearGradient xlink:href="#g" id="i" gradientUnits="userSpaceOnUse" gradientTransform="matrix(1.38045 0 0 1.32772 -70.158 -1.412)" x1="74.839" y1="4.536" x2="74.839" y2="49.779"/><radialGradient cx="4.993" cy="43.5" r="2.5" fx="4.993" fy="43.5" id="m" xlink:href="#h" gradientUnits="userSpaceOnUse" gradientTransform="matrix(2.40454 0 0 1 41.986 15.5)"/><radialGradient cx="4.993" cy="43.5" r="2.5" fx="4.993" fy="43.5" id="n" xlink:href="#h" gradientUnits="userSpaceOnUse" gradientTransform="matrix(2.40454 0 0 1 -22.014 -102.5)"/></defs><path style="color:#000;font-variation-settings:normal;display:inline;overflow:visible;visibility:visible;fill:url(#i);fill-opacity:1;fill-rule:nonzero;stroke:none;stroke-width:.99983468;stroke-linecap:butt;stroke-linejoin:miter;stroke-miterlimit:4;stroke-dasharray:none;stroke-dashoffset:0;stroke-opacity:1;marker:none;enable-background:accumulate;stop-color:#000;opacity:1;vector-effect:none;-inkscape-stroke:none;stop-opacity:1" d="M10.5 5.004A5.472 5.472 0 0 0 5.004 10.5v36.496h53.992V14.5A5.472 5.472 0 0 0 53.5 9.004H30.047A.503.503 0 0 1 29.998 9s-2.421-.248-4.705-2.486l-.004-.004A5.467 5.467 0 0 0 21.5 5.004Z" transform="matrix(1.00014 0 0 1.00019 -.005 -.005)"/><path style="color:#000;font-variation-settings:normal;display:inline;overflow:visible;visibility:visible;fill:none;fill-opacity:1;fill-rule:nonzero;stroke:url(#j);stroke-width:.999922;stroke-linecap:butt;stroke-linejoin:round;stroke-miterlimit:4;stroke-dasharray:none;stroke-dashoffset:0;stroke-opacity:1;marker:none;enable-background:accumulate;stop-color:#000;opacity:1;vector-effect:none;-inkscape-stroke:none;stop-opacity:1" d="M59.5 19.5v-5c0-3.324-2.676-6-6-6H30.046s-2.231-.215-4.405-2.35A5.98 5.98 0 0 0 21.5 4.5h-11c-3.324 0-6 2.676-6 6v9"/><path style="color:#000;font-variation-settings:normal;display:inline;overflow:visible;visibility:visible;fill:none;fill-opacity:1;fill-rule:nonzero;stroke:url(#k);stroke-width:1;stroke-linecap:round;stroke-linejoin:round;stroke-miterlimit:4;stroke-dasharray:none;stroke-dashoffset:0;stroke-opacity:1;marker:none;enable-background:accumulate;stop-color:#000" d="M58.5 47.275c-.01-11.053.02-22.107-.016-33.16-.136-2.616-2.601-4.78-5.21-4.615-7.82-.016-15.643.031-23.462-.023"/><path style="color:#000;font-variation-settings:normal;display:inline;overflow:visible;visibility:visible;fill:none;fill-opacity:1;fill-rule:nonzero;stroke:url(#l);stroke-width:1;stroke-linecap:round;stroke-linejoin:round;stroke-miterlimit:4;stroke-dasharray:none;stroke-dashoffset:0;stroke-opacity:1;marker:none;enable-background:accumulate;stop-color:#000" d="M29.813 9.477c-2.057-.327-3.81-1.563-5.29-2.961-1.414-1.173-3.318-1.038-5.033-1.016-3.092.005-6.184-.01-9.275.008v0C7.6 5.596 5.373 8.012 5.5 10.625c.01 12.42-.02 24.84.015 37.26"/><path style="opacity:.6;fill:url(#m);fill-opacity:1;stroke:none;stroke-width:1.06199" d="M54 56.5h6v5h-6z"/><path style="opacity:.6;fill:url(#n);fill-opacity:1;stroke:none;stroke-width:1.06199" transform="scale(-1)" d="M-10-61.5h6v5h-6z"/><path style="opacity:.6;fill:url(#o);fill-opacity:1;stroke:none;stroke-width:1.06199" d="M10 56.5h44v5H10z"/><path style="color:#000;font-variation-settings:normal;display:inline;overflow:visible;visibility:visible;opacity:.05;fill:#002e99;fill-opacity:1;fill-rule:nonzero;stroke:none;stroke-width:1;stroke-linecap:butt;stroke-linejoin:miter;stroke-miterlimit:4;stroke-dasharray:none;stroke-dashoffset:0;stroke-opacity:1;marker:none;enable-background:accumulate;stop-color:#000" d="M10.455 12.002c-2.997-.051-6.008 2.158-6.397 5.217-.463 2.868 1.626 5.702 4.363 6.464 1.905.564 3.923.223 5.879.317 13.215-.013 26.43.027 39.645-.02 3.001-.102 5.891-2.528 6.036-5.615.258-2.97-2.15-5.68-5.005-6.206-1.938-.323-3.92-.087-5.876-.159-12.882.001-25.763-.003-38.645.002Z"/><rect style="color:#000;font-variation-settings:normal;display:inline;overflow:visible;visibility:visible;opacity:.1;fill:#002e99;fill-opacity:1;fill-rule:nonzero;stroke:none;stroke-width:1;stroke-linecap:butt;stroke-linejoin:miter;stroke-miterlimit:4;stroke-dasharray:none;stroke-dashoffset:0;stroke-opacity:1;marker:none;enable-background:accumulate;stop-color:#000" y="13" x="5" ry="5.5" rx="5.5" height="10" width="54"/><rect width="55" height="45" rx="6" ry="6" x="4.5" y="14.5" style="color:#000;display:inline;overflow:visible;visibility:visible;fill:url(#p);fill-opacity:1;fill-rule:nonzero;stroke:#0d52bf;stroke-width:.999999;stroke-opacity:.5;marker:none;enable-background:accumulate"/><rect style="opacity:.3;fill:none;stroke:url(#q);stroke-width:1;stroke-linecap:round;stroke-linejoin:round;stroke-miterlimit:4;stroke-dasharray:none;stroke-dashoffset:0;stroke-opacity:1" y="15.429" x="5.5" ry="5" rx="5" height="43" width="53"/><path style="color:#000;line-height:normal;font-variant-ligatures:normal;font-variant-position:normal;font-variant-caps:normal;font-variant-numeric:normal;font-variant-alternates:normal;font-feature-settings:normal;font-variation-settings:normal;text-indent:0;text-align:start;text-decoration-line:none;text-decoration-style:solid;text-decoration-color:#000;text-transform:none;text-orientation:mixed;shape-padding:0;opacity:.07;isolation:auto;mix-blend-mode:normal;fill:#002e99;fill-opacity:1;stroke:none;stroke-width:1.7;stroke-linecap:butt;stroke-linejoin:miter;stroke-miterlimit:4;stroke-dasharray:none;stroke-dashoffset:0;stroke-opacity:1;marker:none;stop-color:#000;stop-opacity:1" d="M29.914 26.012c-4.38.157-8.412 3.393-9.533 7.626-1.196 4.071.454 8.748 3.911 11.198 2.943 2.208 7.077 2.61 10.405 1.063.54-.246 1.014-.724 1.388.02 1.858 1.817 3.64 3.725 5.546 5.486 1.091.938 2.9.703 3.767-.43.889-1.067.74-2.764-.285-3.698l-5.687-5.689c1.984-3.305 1.852-7.734-.328-10.92-1.982-3.02-5.57-4.858-9.184-4.656Zm1.592 4.229c2.732.471 4.994 2.9 5.147 5.685.398 3.273-2.3 6.47-5.567 6.735-2.716.302-5.5-1.355-6.479-3.915-1.13-2.687-.056-6.068 2.436-7.59 1.302-.862 2.928-1.152 4.463-.915z"/><path d="M30.42 27C25.237 27 21 31.239 21 36.42c0 5.184 4.237 9.421 9.42 9.421a9.352 9.352 0 0 0 5.33-1.67l6.305 6.307a1.713 1.713 0 1 0 2.422-2.422l-6.305-6.307a9.352 9.352 0 0 0 1.669-5.328c0-5.183-4.238-9.42-9.42-9.42zm0 2.142a7.28 7.28 0 0 1 7.28 7.279 7.28 7.28 0 0 1-7.28 7.28 7.28 7.28 0 0 1-7.279-7.28 7.28 7.28 0 0 1 7.28-7.28z" fill="#666" font-family="sans-serif" font-weight="400" overflow="visible" style="color:#000;line-height:normal;font-variant-ligatures:normal;font-variant-position:normal;font-variant-caps:normal;font-variant-numeric:normal;font-variant-alternates:normal;font-feature-settings:normal;font-variation-settings:normal;text-indent:0;text-align:start;text-decoration-line:none;text-decoration-style:solid;text-decoration-color:#000;text-transform:none;text-orientation:mixed;shape-padding:0;opacity:.15;isolation:auto;mix-blend-mode:normal;fill:#002e99;fill-opacity:1;stroke:none;stroke-width:1.7;stroke-linecap:butt;stroke-linejoin:miter;stroke-miterlimit:4;stroke-dasharray:none;stroke-dashoffset:0;stroke-opacity:1;marker:none;stop-color:#000;stop-opacity:1"/><path d="M30.42 26C25.237 26 21 30.238 21 35.42c0 5.184 4.237 9.42 9.42 9.42a9.352 9.352 0 0 0 5.33-1.669l6.305 6.306a1.713 1.713 0 1 0 2.422-2.421l-6.305-6.307a9.352 9.352 0 0 0 1.669-5.328c0-5.183-4.238-9.42-9.42-9.42zm0 2.141a7.28 7.28 0 0 1 7.28 7.28 7.28 7.28 0 0 1-7.28 7.279 7.28 7.28 0 0 1-7.279-7.28 7.28 7.28 0 0 1 7.28-7.279z" fill="#666" font-family="sans-serif" font-weight="400" overflow="visible" style="color:#000;line-height:normal;font-variant-ligatures:normal;font-variant-position:normal;font-variant-caps:normal;font-variant-numeric:normal;font-variant-alternates:normal;font-feature-settings:normal;font-variation-settings:normal;text-indent:0;text-align:start;text-decoration-line:none;text-decoration-style:solid;text-decoration-color:#000;text-transform:none;text-orientation:mixed;shape-padding:0;isolation:auto;mix-blend-mode:normal;fill:#fafafa;fill-opacity:1;stroke:none;stroke-width:1.7;stroke-linecap:butt;stroke-linejoin:miter;stroke-miterlimit:4;stroke-dasharray:none;stroke-dashoffset:0;stroke-opacity:1;marker:none;stop-color:#000"/><path style="color:#000;line-height:normal;font-variant-ligatures:normal;font-variant-position:normal;font-variant-caps:normal;font-variant-numeric:normal;font-variant-alternates:normal;font-feature-settings:normal;font-variation-settings:normal;text-indent:0;text-align:start;text-decoration-line:none;text-decoration-style:solid;text-decoration-color:#000;text-transform:none;text-orientation:mixed;shape-padding:0;opacity:.15;isolation:auto;mix-blend-mode:normal;fill:#002e99;fill-opacity:1;stroke:none;stroke-width:1.7;stroke-linecap:butt;stroke-linejoin:miter;stroke-miterlimit:4;stroke-dasharray:none;stroke-dashoffset:0;stroke-opacity:1;marker:none;stop-color:#000;stop-opacity:1" d="M30.42 27.141a7.28 7.28 0 0 0-7.28 7.28 7.28 7.28 0 0 0 .046.5 7.28 7.28 0 0 1 7.234-6.78 7.28 7.28 0 0 1 7.248 6.92 7.28 7.28 0 0 0 .031-.64 7.28 7.28 0 0 0-7.28-7.28zm9.394 7.617a9.352 9.352 0 0 1-1.642 4.99l.369.37a9.352 9.352 0 0 0 1.299-4.698c0-.223-.01-.443-.026-.662zm-18.8.162a9.42 9.42 0 0 0-.014.5c0 5.183 4.237 9.42 9.42 9.42a9.352 9.352 0 0 0 5.33-1.67l6.305 6.307a1.713 1.713 0 0 0 2.845-1.682 1.713 1.713 0 0 1-2.845.682L35.75 42.17a9.352 9.352 0 0 1-5.33 1.67c-5.015 0-9.144-3.967-9.406-8.92z"/></svg>