<svg xmlns="http://www.w3.org/2000/svg" height="48" width="48" xmlns:xlink="http://www.w3.org/1999/xlink">
    <defs>
        <radialGradient id="b" gradientUnits="userSpaceOnUse" cy="43.5" cx="4.993" gradientTransform="matrix(2.0038 0 0 1.4 27.988 -17.4)" r="2.5">
            <stop stop-color="#181818" offset="0"/>
            <stop stop-color="#181818" stop-opacity="0" offset="1"/>
        </radialGradient>
        <radialGradient id="c" gradientUnits="userSpaceOnUse" cy="43.5" cx="4.993" gradientTransform="matrix(2.0038 0 0 1.4 -20.012 -104.4)" r="2.5">
            <stop stop-color="#181818" offset="0"/>
            <stop stop-color="#181818" stop-opacity="0" offset="1"/>
        </radialGradient>
        <linearGradient id="d" y2="39.999" gradientUnits="userSpaceOnUse" x2="25.058" y1="47.028" x1="25.058">
            <stop stop-color="#181818" stop-opacity="0" offset="0"/>
            <stop stop-color="#181818" offset=".5"/>
            <stop stop-color="#181818" stop-opacity="0" offset="1"/>
        </linearGradient>
        <filter id="m" color-interpolation-filters="sRGB">
            <feGaussianBlur stdDeviation=".637"/>
        </filter>
        <clipPath id="n">
            <path fill="#fff" d="M108.81 58a2.803 2.803 0 0 0-2.81 2.812v24.375A2.803 2.803 0 0 0 108.81 88h24.375c1.57 0 2.82-1.254 2.82-2.812V60.813a2.803 2.803 0 0 0-2.81-2.813H108.82zm7.188 4.5h10v8.75h5l-10 13.75-10-13.75h5V62.5z"/>
        </clipPath>
        <linearGradient id="o" y2="50.069" gradientUnits="userSpaceOnUse" x2="65.263" gradientTransform="matrix(.625 0 0 .625 78.5 32.25)" y1="64.205" x1="65.263">
            <stop offset="0"/>
            <stop stop-opacity="0" offset="1"/>
        </linearGradient>
        <filter id="j" color-interpolation-filters="sRGB">
            <feGaussianBlur stdDeviation="1.2"/>
        </filter>
        <linearGradient id="l" y2="75.095" xlink:href="#a" gradientUnits="userSpaceOnUse" x2="70" gradientTransform="translate(0 4)" y1="54" x1="70"/>
        <linearGradient id="k" y2="72" gradientUnits="userSpaceOnUse" x2="88" gradientTransform="translate(-140.5 3.5) scale(.9375)" y1="72" x1="56">
            <stop stop-color="#499119" offset="0"/>
            <stop stop-color="#8fd625" offset="1"/>
        </linearGradient>
        <linearGradient id="p" y2="50.069" xlink:href="#a" gradientUnits="userSpaceOnUse" x2="65.263" gradientTransform="matrix(.625 0 0 .625 28.5 31.25)" y1="64.205" x1="65.263"/>
        <filter id="h" color-interpolation-filters="sRGB">
            <feGaussianBlur stdDeviation="1.71"/>
        </filter>
        <linearGradient id="a">
            <stop stop-color="#fff" offset="0"/>
            <stop stop-color="#fff" stop-opacity="0" offset="1"/>
        </linearGradient>
        <linearGradient id="i" y2="7.016" gradientUnits="userSpaceOnUse" x2="45.448" gradientTransform="scale(1.0059 .99417)" y1="92.54" x1="45.448">
            <stop offset="0"/>
            <stop stop-opacity=".588" offset="1"/>
        </linearGradient>
        <linearGradient id="g" y2="43" gradientUnits="userSpaceOnUse" x2="24" gradientTransform="translate(0 .967)" y1="5" x1="24">
            <stop stop-color="#fff" offset="0"/>
            <stop stop-color="#fff" stop-opacity=".235" offset=".063"/>
            <stop stop-color="#fff" stop-opacity=".157" offset=".951"/>
            <stop stop-color="#fff" stop-opacity=".392" offset="1"/>
        </linearGradient>
        <radialGradient id="f" gradientUnits="userSpaceOnUse" cy="8.45" cx="7.496" gradientTransform="matrix(0 1.8896 -1.9989 0 40.891 -7.596)" r="20">
            <stop stop-color="#f4f4f4" offset="0"/>
            <stop stop-color="#dbdbdb" offset="1"/>
        </radialGradient>
        <linearGradient id="e" y2="3" gradientUnits="userSpaceOnUse" x2="20" y1="43" x1="20">
            <stop stop-color="#aaa" offset="0"/>
            <stop stop-color="#c8c8c8" offset="1"/>
        </linearGradient>
        <linearGradient id="s" y2="46.971" gradientUnits="userSpaceOnUse" x2="18.681" gradientTransform="matrix(0 -.89777 .96425 0 -19.31 51.771)" y1="46.971" x1="40.958">
            <stop stop-color="#fff" offset="0"/>
            <stop stop-color="#fff" stop-opacity=".235" offset=".45"/>
            <stop stop-color="#fff" stop-opacity=".157" offset=".65"/>
            <stop stop-color="#fff" stop-opacity=".392" offset="1"/>
        </linearGradient>
        <linearGradient id="r" y2="39.735" gradientUnits="userSpaceOnUse" x2="23.732" gradientTransform="matrix(.82279 0 0 .76607 14.971 10.56)" y1="5.394" x1="23.732">
            <stop stop-color="#90dbec" offset="0"/>
            <stop stop-color="#55c1ec" offset=".262"/>
            <stop stop-color="#3689e6" offset=".705"/>
            <stop stop-color="#2b63a0" offset="1"/>
        </linearGradient>
        <radialGradient id="q" gradientUnits="userSpaceOnUse" cy="36.421" cx="24.837" gradientTransform="matrix(-.56546 0 0 -.60723 49.215 51.281)" r="15.645">
            <stop offset="0"/>
            <stop stop-opacity="0" offset="1"/>
        </radialGradient>
    </defs>
    <g opacity=".4">
        <path fill="url(#b)" d="M38 40h5v7h-5z" transform="matrix(1.15786 0 0 .57142 -3.79 19.143)"/>
        <path transform="matrix(-1.15786 0 0 -.57142 -3.79 19.143)" fill="url(#c)" d="M-10-47h5v7h-5z"/>
        <path fill="url(#d)" d="M10 40h28v7H10z" transform="matrix(1.15786 0 0 .57142 -3.79 19.143)"/>
    </g>
    <path opacity=".05" d="M22.969 8.188a2.936 2.936 0 0 0-1.407.406l-11.031 6.375a2.936 2.936 0 0 0-1.406 2.03 2.936 2.936 0 0 0-.031 0 2.936 2.936 0 0 0-.969 2.189l-.063 12.718a2.936 2.936 0 0 0 1 2.187 2.936 2.936 0 0 0 0 .032 2.936 2.936 0 0 0 1.438 2.093l11 6.313a2.936 2.936 0 0 0 2.406.219 2.936 2.936 0 0 0 .031 0 2.936 2.936 0 0 0 2.5-.188l11-6.344a2.936 2.936 0 0 0 1.407-2 2.936 2.936 0 0 0 1.093-2.25V19.25a2.936 2.936 0 0 0-1-2.187 2.936 2.936 0 0 0-1.437-2.093L26.47 8.625a2.936 2.936 0 0 0-2.408-.25 2.936 2.936 0 0 0-1.093-.188z" fill="url(#e)" color="#000"/>
    <rect rx="1.5" ry="1.5" height="38" width="38" y="6" x="5" fill="url(#f)" color="#000"/>
    <rect stroke-linejoin="round" rx="1" ry="1" height="37" width="37" stroke="url(#g)" stroke-linecap="round" y="6.467" x="5.5" fill="none"/>
    <rect opacity=".3" stroke-linejoin="round" rx="2" ry="2" height="39" width="39" stroke="#000" stroke-linecap="round" y="5.467" x="4.5" fill="none" color="#000"/>
    <path opacity=".141" d="M26.324 29.164a8.846 9.5 0 1 1 17.693 0 8.846 9.5 0 0 1-17.693 0z" fill-rule="evenodd" fill="url(#q)"/>
    <path d="M35.482 33.983l11-9.492-11-9.508V21.5h-11v6h11z" display="block" fill="url(#r)" color="#000"/>
    <path opacity=".5" stroke-linejoin="round" d="M35.482 33.983l11-9.492-11-9.508V21.5h-11v6h11z" display="block" stroke="#004372" stroke-miterlimit="7" stroke-width=".964" fill="none" color="#000"/>
    <path opacity=".401" d="M36.482 31.819l8.5-7.319-8.5-7.389v5.39h-11v4h11z" display="block" stroke="url(#s)" stroke-miterlimit="7" stroke-width=".964" fill="none" color="#000"/>
</svg>
