<?xml version="1.0" encoding="UTF-8" standalone="no"?>
<svg
   xmlns:dc="http://purl.org/dc/elements/1.1/"
   xmlns:cc="http://creativecommons.org/ns#"
   xmlns:rdf="http://www.w3.org/1999/02/22-rdf-syntax-ns#"
   xmlns:svg="http://www.w3.org/2000/svg"
   xmlns="http://www.w3.org/2000/svg"
   xmlns:xlink="http://www.w3.org/1999/xlink"
   id="svg4379"
   height="128"
   width="128"
   version="1.1">
  <defs
     id="defs4381">
    <linearGradient
       id="linearGradient4469">
      <stop
         id="stop4471"
         offset="0"
         style="stop-color:#ffffff;stop-opacity:1;" />
      <stop
         id="stop4473"
         offset="1"
         style="stop-color:#ffffff;stop-opacity:0;" />
    </linearGradient>
    <linearGradient
       id="linearGradient4459">
      <stop
         id="stop4461"
         offset="0"
         style="stop-color:#ffffff;stop-opacity:1;" />
      <stop
         id="stop4463"
         offset="1"
         style="stop-color:#ffffff;stop-opacity:0;" />
    </linearGradient>
    <linearGradient
       id="linearGradient4411">
      <stop
         id="stop4413"
         offset="0"
         style="stop-color:#ffffff;stop-opacity:1;" />
      <stop
         id="stop4415"
         offset="1"
         style="stop-color:#000000;stop-opacity:0.14492753" />
    </linearGradient>
    <linearGradient
       id="linearGradient4403">
      <stop
         id="stop4405"
         offset="0"
         style="stop-color:#000000;stop-opacity:0.05098039" />
      <stop
         id="stop4407"
         offset="1"
         style="stop-color:#ffffff;stop-opacity:0.49803922" />
    </linearGradient>
    <linearGradient
       id="linearGradient4379">
      <stop
         id="stop4381"
         offset="0"
         style="stop-color:#1c2c38;stop-opacity:1;" />
      <stop
         id="stop4383"
         offset="1"
         style="stop-color:#ffffff;stop-opacity:0.56038648" />
    </linearGradient>
    <linearGradient
       id="linearGradient4240">
      <stop
         id="stop4242"
         offset="0"
         style="stop-color:#ffffff;stop-opacity:1;" />
      <stop
         id="stop4244"
         offset="1"
         style="stop-color:#ffffff;stop-opacity:0;" />
    </linearGradient>
    <linearGradient
       gradientTransform="matrix(2.7297298,0,0,2.7297298,-1.5135124,1.486514)"
       gradientUnits="userSpaceOnUse"
       xlink:href="#linearGradient3924-776"
       id="linearGradient3159"
       y2="43"
       x2="23.99999"
       y1="4.999989"
       x1="23.99999" />
    <linearGradient
       id="linearGradient3924-776">
      <stop
         offset="0"
         style="stop-color:#ffffff;stop-opacity:1"
         id="stop3124" />
      <stop
         offset="0.06316455"
         style="stop-color:#ffffff;stop-opacity:0.23529412"
         id="stop3126" />
      <stop
         offset="0.95056331"
         style="stop-color:#ffffff;stop-opacity:0.15686275"
         id="stop3128" />
      <stop
         offset="1"
         style="stop-color:#ffffff;stop-opacity:0.39215687"
         id="stop3130" />
    </linearGradient>
    <radialGradient
       gradientTransform="matrix(0,25.083279,-30.794253,0,372.81658,-208.0918)"
       gradientUnits="userSpaceOnUse"
       xlink:href="#linearGradient2867-449-88-871-390-598-476-591-434-148-57-177-8-3-3-6-4-8-8-8-5"
       id="radialGradient3395"
       fy="9.9571075"
       fx="6.2001843"
       r="12.671875"
       cy="9.9571075"
       cx="6.7304144" />
    <linearGradient
       id="linearGradient2867-449-88-871-390-598-476-591-434-148-57-177-8-3-3-6-4-8-8-8-5">
      <stop
         offset="0"
         style="stop-color:#919caf;stop-opacity:1"
         id="stop3750-1-0-7-6-6-1-3-9-3" />
      <stop
         offset="0.26238"
         style="stop-color:#68758e;stop-opacity:1"
         id="stop3752-3-7-4-0-32-8-923-0-7" />
      <stop
         offset="0.704952"
         style="stop-color:#485a6c;stop-opacity:1"
         id="stop3754-1-8-5-2-7-6-7-1-9" />
      <stop
         offset="1"
         style="stop-color:#444c5c;stop-opacity:1"
         id="stop3756-1-6-2-6-6-1-96-6-0" />
    </linearGradient>
    <radialGradient
       gradientTransform="matrix(2.003784,0,0,1.4,27.98813,-17.4)"
       gradientUnits="userSpaceOnUse"
       xlink:href="#linearGradient3688-166-749-5"
       id="radialGradient2455-1"
       fy="43.5"
       fx="4.9929786"
       r="2.5"
       cy="43.5"
       cx="4.9929786" />
    <linearGradient
       id="linearGradient3688-166-749-5">
      <stop
         offset="0"
         style="stop-color:#181818;stop-opacity:1"
         id="stop2883-0" />
      <stop
         offset="1"
         style="stop-color:#181818;stop-opacity:0"
         id="stop2885-5" />
    </linearGradient>
    <radialGradient
       gradientTransform="matrix(2.003784,0,0,1.4,-20.01187,-104.4)"
       gradientUnits="userSpaceOnUse"
       xlink:href="#linearGradient3688-464-309-8"
       id="radialGradient2457-5"
       fy="43.5"
       fx="4.9929786"
       r="2.5"
       cy="43.5"
       cx="4.9929786" />
    <linearGradient
       id="linearGradient3688-464-309-8">
      <stop
         offset="0"
         style="stop-color:#181818;stop-opacity:1"
         id="stop2889-9" />
      <stop
         offset="1"
         style="stop-color:#181818;stop-opacity:0"
         id="stop2891-4" />
    </linearGradient>
    <linearGradient
       gradientUnits="userSpaceOnUse"
       xlink:href="#linearGradient3702-501-757-0"
       id="linearGradient2459-7"
       y2="39.999443"
       x2="25.058096"
       y1="47.027729"
       x1="25.058096" />
    <linearGradient
       id="linearGradient3702-501-757-0">
      <stop
         offset="0"
         style="stop-color:#181818;stop-opacity:0"
         id="stop2895-0" />
      <stop
         offset="0.5"
         style="stop-color:#181818;stop-opacity:1"
         id="stop2897-2" />
      <stop
         offset="1"
         style="stop-color:#181818;stop-opacity:0"
         id="stop2899-6" />
    </linearGradient>
    <linearGradient
       id="linearGradient3811">
      <stop
         offset="0"
         style="stop-color:#000000;stop-opacity:1"
         id="stop3813" />
      <stop
         offset="1"
         style="stop-color:#000000;stop-opacity:0"
         id="stop3815" />
    </linearGradient>
    <radialGradient
       gradientTransform="matrix(1.5563924,0,0,0.16978827,70.270358,102.13029)"
       gradientUnits="userSpaceOnUse"
       xlink:href="#linearGradient3811"
       id="radialGradient4377"
       fy="93.467628"
       fx="-4.0287771"
       r="35.338131"
       cy="93.467628"
       cx="-4.0287771" />
    <linearGradient
       y2="67"
       x2="78"
       y1="67"
       x1="13"
       gradientTransform="translate(-128,0)"
       gradientUnits="userSpaceOnUse"
       id="linearGradient4343"
       xlink:href="#linearGradient4240" />
    <mask
       id="mask4339"
       maskUnits="userSpaceOnUse">
      <rect
         transform="scale(-1,1)"
         width="103"
         height="103"
         rx="6.0545406"
         ry="6.0545406"
         x="-115.5"
         y="15.5"
         id="rect4341"
         style="color:#000000;display:inline;overflow:visible;visibility:visible;fill:url(#linearGradient4343);fill-opacity:1;fill-rule:nonzero;stroke:none;stroke-width:0.99999994;marker:none;enable-background:accumulate" />
    </mask>
    <linearGradient
       y2="67"
       x2="78"
       y1="67"
       x1="13"
       gradientTransform="translate(-128,0)"
       gradientUnits="userSpaceOnUse"
       id="linearGradient4360"
       xlink:href="#linearGradient4240" />
    <mask
       id="mask4356"
       maskUnits="userSpaceOnUse">
      <rect
         transform="scale(-1,1)"
         width="103"
         height="103"
         rx="6.0545406"
         ry="6.0545406"
         x="-115.5"
         y="15.5"
         id="rect4358"
         style="color:#000000;display:inline;overflow:visible;visibility:visible;fill:url(#linearGradient4360);fill-opacity:1;fill-rule:nonzero;stroke:none;stroke-width:0.99999994;marker:none;enable-background:accumulate" />
    </mask>
    <linearGradient
       y2="67"
       x2="78"
       y1="67"
       x1="13"
       gradientTransform="translate(-128,0)"
       gradientUnits="userSpaceOnUse"
       id="linearGradient4377"
       xlink:href="#linearGradient4240" />
    <mask
       id="mask4373"
       maskUnits="userSpaceOnUse">
      <rect
         transform="scale(-1,1)"
         width="103"
         height="103"
         rx="6.0545406"
         ry="6.0545406"
         x="-115.5"
         y="15.5"
         id="rect4375"
         style="color:#000000;display:inline;overflow:visible;visibility:visible;fill:url(#linearGradient4377);fill-opacity:1;fill-rule:nonzero;stroke:none;stroke-width:0.99999994;marker:none;enable-background:accumulate" />
    </mask>
    <linearGradient
       gradientTransform="translate(-128,0)"
       gradientUnits="userSpaceOnUse"
       y2="67"
       x2="95.760124"
       y1="67"
       x1="11.853584"
       id="linearGradient4385"
       xlink:href="#linearGradient4379" />
    <linearGradient
       gradientTransform="matrix(-1,0,0,1,128,0)"
       gradientUnits="userSpaceOnUse"
       y2="67"
       x2="78"
       y1="67"
       x1="32.0625"
       id="linearGradient4409"
       xlink:href="#linearGradient4403" />
    <linearGradient
       gradientUnits="userSpaceOnUse"
       y2="67.014107"
       x2="67.836288"
       y1="67.014107"
       x1="51.795773"
       id="linearGradient4417"
       xlink:href="#linearGradient4411" />
    <linearGradient
       y2="67"
       x2="95.227417"
       y1="67"
       x1="13"
       gradientTransform="translate(-128,0)"
       gradientUnits="userSpaceOnUse"
       id="linearGradient4424"
       xlink:href="#linearGradient4240" />
    <mask
       id="mask4420"
       maskUnits="userSpaceOnUse">
      <rect
         style="color:#000000;display:inline;overflow:visible;visibility:visible;fill:url(#linearGradient4424);fill-opacity:1;fill-rule:nonzero;stroke:none;stroke-width:0.99999994;marker:none;enable-background:accumulate"
         id="rect4422"
         y="15.5"
         x="-115.5"
         ry="6.0545406"
         rx="6.0545406"
         height="103"
         width="103"
         transform="scale(-1,1)" />
    </mask>
    <linearGradient
       y2="67"
       x2="95.760124"
       y1="67"
       x1="13"
       gradientTransform="translate(-128,0)"
       gradientUnits="userSpaceOnUse"
       id="linearGradient4431"
       xlink:href="#linearGradient4240" />
    <mask
       id="mask4427"
       maskUnits="userSpaceOnUse">
      <rect
         style="color:#000000;display:inline;overflow:visible;visibility:visible;fill:url(#linearGradient4431);fill-opacity:1;fill-rule:nonzero;stroke:none;stroke-width:0.99999994;marker:none;enable-background:accumulate"
         id="rect4429"
         y="15.5"
         x="-115.5"
         ry="6.0545406"
         rx="6.0545406"
         height="103"
         width="103"
         transform="scale(-1,1)" />
    </mask>
    <linearGradient
       gradientTransform="matrix(0.97916667,0,0,0.97916667,0.84375,0.90625003)"
       gradientUnits="userSpaceOnUse"
       y2="67.5"
       x2="66.173988"
       y1="67.5"
       x1="40"
       id="linearGradient4465"
       xlink:href="#linearGradient4459" />
    <linearGradient
       gradientTransform="matrix(-1.3045099,0,0,-1.3045099,28.847493,38.387851)"
       gradientUnits="userSpaceOnUse"
       y2="19.235928"
       x2="14.555413"
       y1="13.303357"
       x1="8.6228428"
       id="linearGradient4475-9"
       xlink:href="#linearGradient4469" />
    <linearGradient
       gradientTransform="matrix(-1.3045099,0,0,1.3045099,28.847493,95.59969)"
       gradientUnits="userSpaceOnUse"
       y2="19.235928"
       x2="14.555413"
       y1="13.303357"
       x1="8.6228428"
       id="linearGradient4475-9-5"
       xlink:href="#linearGradient4469" />
  </defs>
  <metadata
     id="metadata4384">
    <rdf:RDF>
      <cc:Work
         rdf:about="">
        <dc:format>image/svg+xml</dc:format>
        <dc:type
           rdf:resource="http://purl.org/dc/dcmitype/StillImage" />
        <dc:title></dc:title>
      </cc:Work>
    </rdf:RDF>
  </metadata>
  <path
     mask="url(#mask4339)"
     d="M 119,118 A 55,6 0 0 1 9.0000016,118 55,6 0 1 1 119,118 Z"
     id="path3041"
     style="color:#000000;display:inline;overflow:visible;visibility:visible;opacity:0.2;fill:url(#radialGradient4377);fill-opacity:1;fill-rule:nonzero;stroke:none;stroke-width:1;marker:none;enable-background:accumulate" />
  <g
     style="opacity:0.4"
     id="g3712"
     transform="matrix(2.8421052,0,0,0.71428566,-4.2105271,87.428575)">
    <rect
       style="fill:url(#radialGradient2455-1);fill-opacity:1;stroke:none"
       id="rect2801"
       y="40"
       x="38"
       height="7"
       width="5" />
    <rect
       style="fill:url(#radialGradient2457-5);fill-opacity:1;stroke:none"
       id="rect3696"
       transform="scale(-1,-1)"
       y="-47"
       x="-10"
       height="7"
       width="5" />
    <rect
       style="fill:url(#linearGradient2459-7);fill-opacity:1;stroke:none"
       id="rect3700"
       y="40"
       x="10"
       height="7.0000005"
       width="28" />
  </g>
  <rect
     mask="url(#mask4420)"
     width="103"
     height="103"
     rx="6.0545406"
     ry="6.0545406"
     x="12.5"
     y="15.5"
     id="rect5505-21-3"
     style="color:#000000;display:inline;overflow:visible;visibility:visible;fill:url(#radialGradient3395);fill-opacity:1;fill-rule:nonzero;stroke:none;stroke-width:0.99999994;marker:none;enable-background:accumulate" />
  <rect
     mask="url(#mask4427)"
     width="101"
     height="101"
     rx="5"
     ry="5"
     x="13.5"
     y="16.5"
     id="rect6741-7"
     style="opacity:0.3;fill:none;stroke:url(#linearGradient3159);stroke-width:0.99999994;stroke-linecap:round;stroke-linejoin:round;stroke-miterlimit:4;stroke-dasharray:none;stroke-dashoffset:0;stroke-opacity:1" />
  <path
     mask="url(#mask4373)"
     d="m 60.000002,36.000011 c -0.554,0 -1,0.446 -1,1 l 0,7.53125 c -2.917284,0.61801 -5.610077,1.770601 -8.03125,3.34375 l -5.34375,-5.34375 c -0.195869,-0.195869 -0.463131,-0.28125 -0.71875,-0.28125 -0.255619,0 -0.522881,0.08538 -0.71875,0.28125 l -5.65625,5.65625 c -0.391737,0.391737 -0.391739,1.045762 0,1.4375 l 5.34375,5.343751 c -1.573149,2.421173 -2.72574,5.113966 -3.34375,8.03125 l -7.53125,0 c -0.554,0 -1,0.446 -1,1 l 0,8 c 0,0.554 0.446,1 1,1 l 7.53125,0 c 0.61801,2.917283 1.770601,5.610076 3.34375,8.031249 l -5.34375,5.34375 c -0.391737,0.391737 -0.391739,1.04576 0,1.4375 l 5.65625,5.65625 c 0.391737,0.391737 1.045761,0.391736 1.4375,0 l 5.34375,-5.34375 c 2.421173,1.573149 5.113966,2.72574 8.03125,3.34375 l 0,7.53125 c 0,0.554 0.446,0.999999 1,0.999999 l 8,0 c 0.554,0 1,-0.445999 1,-0.999999 l 0,-7.53125 c 2.917284,-0.61801 5.610077,-1.770601 8.03125,-3.34375 l 5.34375,5.34375 c 0.391737,0.391737 1.04576,0.391736 1.4375,0 l 5.65625,-5.65625 c 0.391737,-0.391737 0.391736,-1.045765 0,-1.4375 l -5.34375,-5.34375 c 1.573149,-2.421173 2.72574,-5.113966 3.34375,-8.031249 l 7.53125,0 c 0.554,0 1,-0.446 1,-1 l 0,-8 c 0,-0.554 -0.446,-1 -1,-1 l -7.53125,0 c -0.61801,-2.917284 -1.770601,-5.610077 -3.34375,-8.03125 l 5.34375,-5.343751 c 0.391737,-0.391737 0.391735,-1.045762 0,-1.4375 l -5.65625,-5.65625 c -0.391737,-0.391737 -1.045765,-0.391738 -1.4375,0 l -5.34375,5.34375 c -2.421173,-1.573149 -5.113966,-2.72574 -8.03125,-3.34375 l 0,-7.53125 c 0,-0.554 -0.446,-1 -1,-1 l -8,0 z m 4,21.000001 c 6.072,0 11,4.928 11,11 0,6.072 -4.928,10.999999 -11,10.999999 -6.072,0 -11,-4.927999 -11,-10.999999 0,-6.072 4.928,-11 11,-11 z"
     id="path2502"
     style="display:inline;overflow:visible;visibility:visible;opacity:0.1;fill:#ffffff;fill-opacity:1;fill-rule:nonzero;stroke:none;stroke-width:1.70000005;marker:none;enable-background:accumulate" />
  <path
     mask="url(#mask4356)"
     d="m 60.000002,35.000011 c -0.554,0 -1,0.446 -1,1 l 0,7.53125 c -2.917284,0.61801 -5.610077,1.770601 -8.03125,3.34375 l -5.34375,-5.34375 c -0.195869,-0.195869 -0.463131,-0.28125 -0.71875,-0.28125 -0.255619,0 -0.522881,0.08538 -0.71875,0.28125 l -5.65625,5.65625 c -0.391737,0.391737 -0.391739,1.045762 0,1.4375 l 5.34375,5.34375 c -1.573149,2.421174 -2.72574,5.113967 -3.34375,8.031251 l -7.53125,0 c -0.554,0 -1,0.446 -1,1 l 0,8 c 0,0.554 0.446,1 1,1 l 7.53125,0 c 0.61801,2.917283 1.770601,5.610076 3.34375,8.031249 l -5.34375,5.34375 c -0.391737,0.391737 -0.391739,1.04576 0,1.4375 l 5.65625,5.65625 c 0.391737,0.391737 1.045761,0.391736 1.4375,0 l 5.34375,-5.34375 c 2.421173,1.573149 5.113966,2.72574 8.03125,3.34375 l 0,7.53125 c 0,0.554 0.446,1 1,1 l 8,0 c 0.554,0 1,-0.446 1,-1 l 0,-7.53125 c 2.917284,-0.61801 5.610077,-1.770601 8.03125,-3.34375 l 5.34375,5.34375 c 0.391737,0.391737 1.04576,0.391736 1.4375,0 l 5.65625,-5.65625 c 0.391737,-0.391737 0.391736,-1.045765 0,-1.4375 l -5.34375,-5.34375 c 1.573149,-2.421173 2.72574,-5.113966 3.34375,-8.031249 l 7.53125,0 c 0.554,0 1,-0.446 1,-1 l 0,-8 c 0,-0.554 -0.446,-1 -1,-1 l -7.53125,0 c -0.61801,-2.917284 -1.770601,-5.610077 -3.34375,-8.031251 l 5.34375,-5.34375 c 0.391737,-0.391737 0.391735,-1.045762 0,-1.4375 l -5.65625,-5.65625 c -0.391737,-0.391737 -1.045765,-0.391738 -1.4375,0 l -5.34375,5.34375 c -2.421173,-1.573149 -5.113966,-2.72574 -8.03125,-3.34375 l 0,-7.53125 c 0,-0.554 -0.446,-1 -1,-1 l -8,0 z m 4,21.000001 c 6.072,0 11,4.928 11,11 0,6.072 -4.928,10.999999 -11,10.999999 -6.072,0 -11,-4.927999 -11,-10.999999 0,-6.072 4.928,-11 11,-11 z"
     id="rect2484"
     style="color:#000000;display:inline;overflow:visible;visibility:visible;fill:#455365;fill-opacity:1;fill-rule:nonzero;stroke:none;stroke-width:1;marker:none;enable-background:accumulate" />
  <path
     d="m 52.300972,67.011528 c -0.220261,6.90718 6.670671,12.822128 13.466062,11.552696 6.62403,-0.825158 11.401081,-8.054144 9.540629,-14.471665 -1.482534,-6.502866 -9.135192,-10.539307 -15.335441,-8.058691 -4.519316,1.59944 -7.738461,6.176887 -7.67125,10.97766 z"
     id="path4110"
     style="display:inline;overflow:visible;visibility:visible;opacity:0.5;fill:none;stroke:url(#linearGradient4417);stroke-width:1;stroke-miterlimit:4;stroke-dasharray:none;stroke-opacity:1;marker:none;enable-background:accumulate" />
  <rect
     transform="scale(-1,1)"
     width="103"
     height="103"
     rx="6"
     ry="6"
     x="-115.5"
     y="15.5"
     id="rect5505-21-6"
     style="color:#000000;display:inline;overflow:visible;visibility:visible;opacity:0.8;fill:none;stroke:url(#linearGradient4385);stroke-width:1;stroke-linecap:round;stroke-linejoin:round;stroke-miterlimit:4;stroke-dasharray:none;stroke-dashoffset:0;stroke-opacity:1;marker:none;enable-background:accumulate" />
  <path
     d="m 68,35.5625 c 0.256627,0 0.4375,0.180873 0.4375,0.4375 l 0,7.53125 a 0.55412934,0.55412934 0 0 0 0.4375,0.53125 c 2.848272,0.60339 5.476284,1.742997 7.84375,3.28125 a 0.55412934,0.55412934 0 0 0 0.71875,-0.0625 l 5.34375,-5.34375 c 0.0746,-0.0746 0.180261,-0.125 0.3125,-0.125 0.132241,0 0.237902,0.0504 0.3125,0.125 l 5.65625,5.65625 c 0.1737,0.1737 0.173701,0.451299 0,0.625 l -5.34375,5.34375 a 0.55412934,0.55412934 0 0 0 -0.0625,0.71875 c 1.538253,2.367467 2.67786,4.995478 3.28125,7.84375 a 0.55412934,0.55412934 0 0 0 0.53125,0.4375 l 7.53125,0 c 0.256627,0 0.4375,0.180873 0.4375,0.4375 l 0,8 c 0,0.256627 -0.180873,0.4375 -0.4375,0.4375 l -7.53125,0 A 0.55412934,0.55412934 0 0 0 86.9375,71.875 c -0.60339,2.848271 -1.742997,5.476284 -3.28125,7.84375 a 0.55412934,0.55412934 0 0 0 0.0625,0.71875 l 5.34375,5.34375 c 0.173701,0.173701 0.173703,0.451296 0,0.625 l -5.65625,5.65625 c -0.173699,0.173699 -0.451298,0.173701 -0.625,0 L 77.4375,86.71875 a 0.55412934,0.55412934 0 0 0 -0.71875,-0.0625 c -2.367466,1.538253 -4.995478,2.67786 -7.84375,3.28125 a 0.55412934,0.55412934 0 0 0 -0.4375,0.53125 l 0,7.53125 c 0,0.256627 -0.180873,0.4375 -0.4375,0.4375 l -8,0 c -0.256627,0 -0.4375,-0.180873 -0.4375,-0.4375 l 0,-7.53125 A 0.55412934,0.55412934 0 0 0 59.125,89.9375 c -2.848272,-0.60339 -5.476284,-1.742997 -7.84375,-3.28125 a 0.55412934,0.55412934 0 0 0 -0.71875,0.0625 l -5.34375,5.34375 c -0.1737,0.1737 -0.451296,0.173702 -0.625,0 L 38.9375,86.40625 c -0.173698,-0.173698 -0.173696,-0.451304 0,-0.625 l 5.34375,-5.34375 a 0.55412934,0.55412934 0 0 0 0.0625,-0.71875 C 42.805497,77.351284 41.66589,74.723271 41.0625,71.875 a 0.55412934,0.55412934 0 0 0 -0.53125,-0.4375 l -7.53125,0 c -0.256627,0 -0.4375,-0.180873 -0.4375,-0.4375 l 0,-8 c 0,-0.256627 0.180873,-0.4375 0.4375,-0.4375 l 7.53125,0 A 0.55412934,0.55412934 0 0 0 41.0625,62.125 c 0.60339,-2.848272 1.742997,-5.476283 3.28125,-7.84375 A 0.55412934,0.55412934 0 0 0 44.28125,53.5625 L 38.9375,48.21875 c -0.173699,-0.173699 -0.1737,-0.451299 0,-0.625 l 5.65625,-5.65625 c 0.173699,-0.173699 0.451304,-0.173697 0.625,0 l 5.34375,5.34375 a 0.55412934,0.55412934 0 0 0 0.71875,0.0625 c 2.367466,-1.538253 4.995478,-2.67786 7.84375,-3.28125 a 0.55412934,0.55412934 0 0 0 0.4375,-0.53125 l 0,-7.53125 c 0,-0.256627 0.180873,-0.4375 0.4375,-0.4375 l 8,0 z"
     id="path4241"
     style="color:#000000;display:inline;overflow:visible;visibility:visible;opacity:1;fill:none;stroke:url(#linearGradient4409);stroke-width:1;stroke-linecap:butt;stroke-linejoin:miter;stroke-miterlimit:4;stroke-dasharray:none;stroke-dashoffset:0;stroke-opacity:1;marker:none;enable-background:accumulate" />
  <circle
     r="23.5"
     cy="67"
     cx="64"
     id="path4457"
     style="color:#000000;clip-rule:nonzero;display:inline;overflow:visible;visibility:visible;opacity:0.5;isolation:auto;mix-blend-mode:normal;color-interpolation:sRGB;color-interpolation-filters:linearRGB;solid-color:#000000;solid-opacity:1;fill:none;fill-opacity:1;fill-rule:nonzero;stroke:url(#linearGradient4465);stroke-width:1;stroke-linecap:butt;stroke-linejoin:miter;stroke-miterlimit:4;stroke-dasharray:none;stroke-dashoffset:0;stroke-opacity:0.49803922;marker:none;color-rendering:auto;image-rendering:auto;shape-rendering:auto;text-rendering:auto;enable-background:accumulate" />
  <path
     d="M 18.443924,15.5 7,15.5 m 5.5,6.431464 0,-11.443925 M 24.5,21.5 a 6,6 0 0 1 -6,6 6,6 0 0 1 -6,-6 6,6 0 0 1 6,-6 6,6 0 0 1 6,6 z"
     style="opacity:0.4;fill:none;fill-rule:evenodd;stroke:url(#linearGradient4475-9);stroke-width:1px;stroke-linecap:butt;stroke-linejoin:miter;stroke-opacity:1"
     id="path4467-1" />
  <path
     d="M 18.443924,118.48754 7,118.48754 m 5.5,-6.43146 0,11.44392 m 12,-11.01246 a 6,6 0 0 0 -6,-6 6,6 0 0 0 -6,6 6,6 0 0 0 6,6 6,6 0 0 0 6,-6 z"
     style="opacity:0.4;fill:none;fill-rule:evenodd;stroke:url(#linearGradient4475-9-5);stroke-width:1px;stroke-linecap:butt;stroke-linejoin:miter;stroke-opacity:1"
     id="path4467-1-7" />
</svg>
