<svg xmlns="http://www.w3.org/2000/svg" height="48" width="48" xmlns:xlink="http://www.w3.org/1999/xlink"><defs><linearGradient id="f" y2="43" gradientUnits="userSpaceOnUse" x2="24" gradientTransform="translate(0 1)" y1="5" x1="24"><stop stop-color="#fff" offset="0"/><stop stop-color="#fff" stop-opacity=".235" offset=".063"/><stop stop-color="#fff" stop-opacity=".157" offset=".951"/><stop stop-color="#fff" stop-opacity=".392" offset="1"/></linearGradient><radialGradient id="e" fx="7.32" gradientUnits="userSpaceOnUse" cy="9.957" cx="7.85" gradientTransform="matrix(0 5.9186 -11.66 0 140.93 -53.462)" r="12.672"><stop stop-color="#90dbec" offset="0"/><stop stop-color="#42baea" offset=".262"/><stop stop-color="#3689e6" offset=".705"/><stop stop-color="#2b63a0" offset="1"/></radialGradient><radialGradient id="b" xlink:href="#a" gradientUnits="userSpaceOnUse" cy="43.5" cx="4.993" gradientTransform="matrix(2.0038 0 0 1.4 27.988 -17.4)" r="2.5"/><linearGradient id="a"><stop stop-color="#181818" offset="0"/><stop stop-color="#181818" stop-opacity="0" offset="1"/></linearGradient><radialGradient id="c" xlink:href="#a" gradientUnits="userSpaceOnUse" cy="43.5" cx="4.993" gradientTransform="matrix(2.0038 0 0 1.4 -20.012 -104.4)" r="2.5"/><linearGradient id="d" y2="39.999" gradientUnits="userSpaceOnUse" x2="25.058" y1="47.028" x1="25.058"><stop stop-color="#181818" stop-opacity="0" offset="0"/><stop stop-color="#181818" offset=".5"/><stop stop-color="#181818" stop-opacity="0" offset="1"/></linearGradient></defs><g opacity=".6"><path fill="url(#b)" d="M38 40h5v7h-5z" transform="matrix(1.1579 0 0 .64286 -3.79 16.036)"/><path transform="matrix(-1.1579 0 0 -.64286 -3.79 16.036)" fill="url(#c)" d="M-10-47h5v7h-5z"/><path fill="url(#d)" d="M10 40h28v7H10z" transform="matrix(1.1579 0 0 .64286 -3.79 16.036)"/></g><rect rx="2" ry="2" height="39" width="39" y="5.5" x="4.5" fill="url(#e)" color="#000"/><rect opacity=".5" stroke-linejoin="round" rx="1" ry="1" height="37" width="37" stroke="url(#f)" stroke-linecap="round" y="6.5" x="5.5" fill="none"/><rect opacity=".4" stroke-linejoin="round" style="isolation:auto;mix-blend-mode:normal" rx="2" ry="2" height="39" width="39" stroke="#004264" stroke-linecap="round" y="5.5" x="4.5" color="#000" fill="none"/><path opacity=".15" d="M14.583 17.997a.499.499 0 0 0 0 .707l.354.354 2.12-2.122-.353-.353a.499.499 0 0 0-.707 0l-1.414 1.414zm.778 2.05c-.236.236-.211.638.055.904l.333.333c-1.861 2.24-4.787 6.261-6.116 10.855-1.432 4.952 1.22 1.28 3.446-1.581 2.148-2.762 3.53-4.498 5.424-6.52l.197.197c.266.266.668.29.903.055l2.688-2.687c.235-.235.21-.638-.055-.903l-.198-.198c2.023-1.893 3.758-3.275 6.52-5.423 2.861-2.226 6.534-4.878 1.581-3.446-4.593 1.328-8.616 4.254-10.855 6.115l-.332-.333c-.266-.265-.668-.29-.904-.055l-2.687 2.688zm5.232 4.667l15.91 15.91a.499.499 0 0 0 .708 0l1.414-1.414a.499.499 0 0 0 0-.707l-15.91-15.91-2.122 2.121z"/><path opacity=".05" stroke-linejoin="round" d="M14.583 17.997a.499.499 0 0 0 0 .707l.354.354 2.12-2.122-.353-.353a.499.499 0 0 0-.707 0l-1.414 1.414zm.778 2.05c-.236.236-.211.638.055.904l.333.333c-1.861 2.24-4.787 6.261-6.116 10.855-1.432 4.952 1.22 1.28 3.446-1.581 2.148-2.762 3.53-4.498 5.424-6.52l.197.197c.266.266.668.29.903.055l2.688-2.687c.235-.235.21-.638-.055-.903l-.198-.198c2.023-1.893 3.758-3.275 6.52-5.423 2.861-2.226 6.534-4.878 1.581-3.446-4.593 1.328-8.616 4.254-10.855 6.115l-.332-.333c-.266-.265-.668-.29-.904-.055l-2.687 2.688zm5.232 4.667l15.91 15.91a.499.499 0 0 0 .708 0l1.414-1.414a.499.499 0 0 0 0-.707l-15.91-15.91-2.122 2.121z" stroke="#000" stroke-linecap="round" stroke-width="2"/><path fill="#fff" d="M14.583 16.997a.499.499 0 0 0 0 .707l.354.354 2.12-2.122-.353-.353a.499.499 0 0 0-.707 0l-1.414 1.414zm.778 2.05c-.236.236-.211.638.055.904l.333.333c-1.861 2.24-4.787 6.261-6.116 10.855-1.432 4.952 1.22 1.28 3.446-1.581 2.148-2.762 3.53-4.498 5.424-6.52l.197.197c.266.266.668.29.903.055l2.688-2.687c.235-.235.21-.638-.055-.903l-.198-.198c2.023-1.893 3.758-3.275 6.52-5.423 2.861-2.226 6.534-4.878 1.581-3.446-4.593 1.328-8.616 4.254-10.855 6.115l-.332-.333c-.266-.265-.668-.29-.904-.055l-2.687 2.688zm5.232 4.667l15.91 15.91a.499.499 0 0 0 .708 0l1.414-1.414a.499.499 0 0 0 0-.707l-15.91-15.91-2.122 2.121z"/></svg>