<?xml version="1.0" encoding="UTF-8" standalone="no"?>
<svg
   xmlns:dc="http://purl.org/dc/elements/1.1/"
   xmlns:cc="http://creativecommons.org/ns#"
   xmlns:rdf="http://www.w3.org/1999/02/22-rdf-syntax-ns#"
   xmlns:svg="http://www.w3.org/2000/svg"
   xmlns="http://www.w3.org/2000/svg"
   xmlns:xlink="http://www.w3.org/1999/xlink"
   version="1.1"
   width="64"
   height="64"
   id="svg3266">
  <defs
     id="defs3268">
    <linearGradient
       x1="-10.106312"
       y1="15.035473"
       x2="-10.106312"
       y2="37.037334"
       id="linearGradient3103"
       xlink:href="#linearGradient4141"
       gradientUnits="userSpaceOnUse"
       gradientTransform="matrix(1,0,0,0.99408284,42.97324,5.047582)" />
    <linearGradient
       id="linearGradient4141">
      <stop
         id="stop4143"
         style="stop-color:#ffffff;stop-opacity:1"
         offset="0" />
      <stop
         id="stop4145"
         style="stop-color:#ffffff;stop-opacity:0.23529412"
         offset="0.05959737" />
      <stop
         id="stop4147"
         style="stop-color:#ffffff;stop-opacity:0.15686275"
         offset="0.85599428" />
      <stop
         id="stop4149"
         style="stop-color:#ffffff;stop-opacity:0.39215687"
         offset="1" />
    </linearGradient>
    <radialGradient
       cx="11.227573"
       cy="10.190869"
       r="12.671875"
       fx="10.697345"
       fy="10.190869"
       id="radialGradient3106"
       xlink:href="#linearGradient3671-580"
       gradientUnits="userSpaceOnUse"
       gradientTransform="matrix(0,3.6779651,-3.8474058,0,71.644811,-21.193407)" />
    <linearGradient
       id="linearGradient3671-580">
      <stop
         id="stop4088"
         style="stop-color:#fc93dc;stop-opacity:1"
         offset="0" />
      <stop
         id="stop4090"
         style="stop-color:#da72d3;stop-opacity:1"
         offset="0.26238" />
      <stop
         id="stop4092"
         style="stop-color:#a33fab;stop-opacity:1"
         offset="0.704952" />
      <stop
         id="stop4094"
         style="stop-color:#502b58;stop-opacity:1"
         offset="1" />
    </linearGradient>
    <linearGradient
       x1="25"
       y1="73.14209"
       x2="25"
       y2="12.114751"
       id="linearGradient3108"
       xlink:href="#linearGradient3707-662"
       gradientUnits="userSpaceOnUse"
       gradientTransform="matrix(0.99999997,0,0,1.0068399,10.12391,6.677054)" />
    <linearGradient
       id="linearGradient3707-662">
      <stop
         id="stop4098"
         style="stop-color:#542f57;stop-opacity:1"
         offset="0" />
      <stop
         id="stop4100"
         style="stop-color:#bb5ca4;stop-opacity:1"
         offset="1" />
    </linearGradient>
    <linearGradient
       x1="23.748692"
       y1="44.758724"
       x2="23.748692"
       y2="0.49759647"
       id="linearGradient3134-6"
       xlink:href="#linearGradient5031-1-2"
       gradientUnits="userSpaceOnUse"
       gradientTransform="matrix(1.3254237,0,0,1.3305085,0.4881354,0.12711868)" />
    <linearGradient
       id="linearGradient5031-1-2">
      <stop
         id="stop5033-6-3"
         style="stop-color:#a3a3a3;stop-opacity:1"
         offset="0" />
      <stop
         id="stop5035-2-1"
         style="stop-color:#bababa;stop-opacity:1"
         offset="1" />
    </linearGradient>
    <linearGradient
       x1="-51.786404"
       y1="50.786446"
       x2="-51.786404"
       y2="2.9062471"
       id="linearGradient3158"
       xlink:href="#linearGradient3104-6"
       gradientUnits="userSpaceOnUse"
       gradientTransform="matrix(1.0843523,0,0,1.1997367,79.550862,-4.1628601)" />
    <linearGradient
       id="linearGradient3104-6">
      <stop
         id="stop3106-3"
         style="stop-color:#000000;stop-opacity:0.31782946"
         offset="0" />
      <stop
         id="stop3108-9"
         style="stop-color:#000000;stop-opacity:0.24031007"
         offset="1" />
    </linearGradient>
    <linearGradient
       x1="23.99999"
       y1="5.8641062"
       x2="23.99999"
       y2="42.100208"
       id="linearGradient3161"
       xlink:href="#linearGradient3977-4"
       gradientUnits="userSpaceOnUse"
       gradientTransform="matrix(1.2162162,0,0,1.5405376,2.8108184,-6.9729501)" />
    <linearGradient
       id="linearGradient3977-4">
      <stop
         id="stop3979-7"
         style="stop-color:#ffffff;stop-opacity:1"
         offset="0" />
      <stop
         id="stop3981-6"
         style="stop-color:#ffffff;stop-opacity:0.23529412"
         offset="0.01214366" />
      <stop
         id="stop3983-5"
         style="stop-color:#ffffff;stop-opacity:0.15686275"
         offset="0.98781353" />
      <stop
         id="stop3985-6"
         style="stop-color:#ffffff;stop-opacity:0.39215687"
         offset="1" />
    </linearGradient>
    <linearGradient
       x1="25.132275"
       y1="0.98520643"
       x2="25.132275"
       y2="47.013336"
       id="linearGradient3164"
       xlink:href="#linearGradient3600-9"
       gradientUnits="userSpaceOnUse"
       gradientTransform="matrix(1.3142827,0,0,1.2602393,0.4572141,-2.1793201)" />
    <linearGradient
       id="linearGradient3600-9">
      <stop
         id="stop3602-3"
         style="stop-color:#f4f4f4;stop-opacity:1"
         offset="0" />
      <stop
         id="stop3604-7"
         style="stop-color:#dbdbdb;stop-opacity:1"
         offset="1" />
    </linearGradient>
    <radialGradient
       cx="605.71429"
       cy="486.64789"
       r="117.14286"
       fx="605.71429"
       fy="486.64789"
       id="radialGradient3167"
       xlink:href="#linearGradient5060"
       gradientUnits="userSpaceOnUse"
       gradientTransform="matrix(0.03132633,0,0,0.02058823,35.220859,49.45142)" />
    <linearGradient
       id="linearGradient5060">
      <stop
         id="stop5062"
         style="stop-color:#000000;stop-opacity:1"
         offset="0" />
      <stop
         id="stop5064"
         style="stop-color:#000000;stop-opacity:0"
         offset="1" />
    </linearGradient>
    <radialGradient
       cx="605.71429"
       cy="486.64789"
       r="117.14286"
       fx="605.71429"
       fy="486.64789"
       id="radialGradient3170"
       xlink:href="#linearGradient5060"
       gradientUnits="userSpaceOnUse"
       gradientTransform="matrix(-0.03132632,0,0,0.02058823,28.779136,49.45142)" />
    <linearGradient
       id="linearGradient5048">
      <stop
         id="stop5050"
         style="stop-color:#000000;stop-opacity:0"
         offset="0" />
      <stop
         id="stop5056"
         style="stop-color:#000000;stop-opacity:1"
         offset="0.5" />
      <stop
         id="stop5052"
         style="stop-color:#000000;stop-opacity:0"
         offset="1" />
    </linearGradient>
    <linearGradient
       x1="302.85715"
       y1="366.64789"
       x2="302.85715"
       y2="609.50507"
       id="linearGradient3264"
       xlink:href="#linearGradient5048"
       gradientUnits="userSpaceOnUse"
       gradientTransform="matrix(0.09153846,0,0,0.02058823,-1.084616,49.45142)" />
    <radialGradient
       cx="15.115514"
       cy="63.965389"
       r="12.289036"
       fx="15.115514"
       fy="63.965389"
       id="radialGradient3113"
       xlink:href="#linearGradient4114-3"
       gradientUnits="userSpaceOnUse"
       gradientTransform="matrix(1.139227,0,0,0.4068666,14.779999,15.746616)" />
    <linearGradient
       id="linearGradient4114-3">
      <stop
         id="stop4116-7"
         style="stop-color:#000000;stop-opacity:1"
         offset="0" />
      <stop
         id="stop4118-4"
         style="stop-color:#000000;stop-opacity:0"
         offset="1" />
    </linearGradient>
    <radialGradient
       cx="15.115514"
       cy="63.965389"
       r="12.289036"
       fx="15.115514"
       fy="63.965389"
       id="radialGradient3054"
       xlink:href="#linearGradient4114-3"
       gradientUnits="userSpaceOnUse"
       gradientTransform="matrix(0.50303536,0,0,0.28852896,24.396362,23.316132)" />
  </defs>
  <metadata
     id="metadata3271">
    <rdf:RDF>
      <cc:Work
         rdf:about="">
        <dc:format>image/svg+xml</dc:format>
        <dc:type
           rdf:resource="http://purl.org/dc/dcmitype/StillImage" />
        <dc:title />
      </cc:Work>
    </rdf:RDF>
  </metadata>
  <g
     id="layer1">
    <rect
       width="44.199997"
       height="5"
       x="9.8999996"
       y="57.000004"
       id="rect2879"
       style="opacity:0.3;fill:url(#linearGradient3264);fill-opacity:1;fill-rule:nonzero;stroke:none;stroke-width:1;marker:none;visibility:visible;display:inline;overflow:visible" />
    <path
       d="m 9.9,57.00022 c 0,0 0,4.9997 0,4.9997 -1.6132281,0.01 -3.9,-1.1202 -3.9,-2.5002 0,-1.38 1.8002408,-2.4995 3.9,-2.4995 z"
       id="path2881"
       style="opacity:0.3;fill:url(#radialGradient3170);fill-opacity:1;fill-rule:nonzero;stroke:none;stroke-width:1;marker:none;visibility:visible;display:inline;overflow:visible" />
    <path
       d="m 54.099999,57.00022 c 0,0 0,4.9997 0,4.9997 C 55.713227,62.00992 58,60.87972 58,59.49972 c 0,-1.38 -1.800241,-2.4995 -3.900001,-2.4995 z"
       id="path2883"
       style="opacity:0.3;fill:url(#radialGradient3167);fill-opacity:1;fill-rule:nonzero;stroke:none;stroke-width:1;marker:none;visibility:visible;display:inline;overflow:visible" />
    <path
       d="m 9,0.9998799 c 10.540935,0 45.999945,0.004 45.999945,0.004 L 55,59.00002 c 0,0 -30.666666,0 -46,0 0,-19.3334 0,-38.6665 0,-57.9998201 z"
       id="path4160-6"
       style="fill:url(#linearGradient3164);fill-opacity:1;stroke:none;display:inline" />
    <path
       d="m 54.499999,58.50002 -44.9999992,0 0,-57.0000401 44.9999992,0 z"
       id="rect6741-1-8"
       style="fill:none;stroke:url(#linearGradient3161);stroke-width:1;stroke-linecap:round;stroke-linejoin:miter;stroke-miterlimit:4;stroke-opacity:1;stroke-dasharray:none;stroke-dashoffset:0" />
    <path
       d="m 8.4999684,0.4998999 c 10.7700936,0 47.0000286,0.004 47.0000286,0.004 l 4.9e-5,58.9962201 c 0,0 -31.333384,0 -47.0000776,0 0,-19.6668 0,-39.3334 0,-58.9999701 z"
       id="path4160-6-1"
       style="fill:none;stroke:url(#linearGradient3158);stroke-width:0.9999218;stroke-linecap:butt;stroke-linejoin:round;stroke-miterlimit:4;stroke-opacity:1;stroke-dasharray:none;stroke-dashoffset:0;display:inline" />
    <path
       d="m 15,9 0,1 3.1875,0 0,-1 L 15,9 z m 3.59375,0 0,1 3.03125,0 0,-1 -3.03125,0 z m 3.46875,0 0,1 2.625,0 0,-1 -2.625,0 z m 3.0625,0 0,1 1.15625,0 0,-1 -1.15625,0 z m 1.59375,0 0,1 2.59375,0 0,-1 -2.59375,0 z m 3.0625,0 0,1 6.71875,0 0,-1 -6.71875,0 z M 15,12 l 0,1 5.0625,0 0,-1 L 15,12 z m 5.59375,0 0,1 2.40625,0 0,-1 -2.40625,0 z m 2.875,0 0,1 1.15625,0 0,-1 -1.15625,0 z m 1.65625,0 0,1 2.15625,0 0,-1 -2.15625,0 z m 2.6875,0 0,1 2.15625,0 0,-1 -2.15625,0 z m 2.625,0 0,1 3.5625,0 0,-1 -3.5625,0 z m 4.0625,0 0,1 4.65625,0 0,-1 L 34.5,12 z m -19.5,3 0,1 5.625,0 0,-1 L 15,15 z m 6.03125,0 0,1 6.0625,0 0,-1 -6.0625,0 z M 15,18 l 0,1 3.09375,0 0,-1 L 15,18 z m 3.53125,0 0,1 2.875,0 0,-1 -2.875,0 z m 3.3125,0 0,1 2.5625,0 0,-1 -2.5625,0 z M 15,21 l 0,1 4.125,0 0,-1 L 15,21 z m 4.5625,0 0,1 7.53125,0 0,-1 -7.53125,0 z M 15,24 l 0,1 4.15625,0 0,-1 L 15,24 z m 4.625,0 0,1 6.84375,0 0,-1 -6.84375,0 z m 7.34375,0 0,1 2.5625,0 0,-1 -2.5625,0 z m 2.96875,0 0,1 2.5625,0 0,-1 -2.5625,0 z m 2.96875,0 0,1 3.71875,0 0,-1 -3.71875,0 z m 4.15625,0 0,1 0.78125,0 0,-1 -0.78125,0 z M 15,27 l 0,1 3.15625,0 0,-1 L 15,27 z m 3.6875,0 0,1 3.03125,0 0,-1 -3.03125,0 z M 15,30 l 0,1 1.34375,0 0,-1 L 15,30 z m 0,3 0,1 3.6875,0 0,-1 L 15,33 z m 4.25,0 0,1 2.46875,0 0,-1 -2.46875,0 z m 7.84375,0 0,1 3.125,0 0,-1 -3.125,0 z m 3.5625,0 0,1 2.9375,0 0,-1 -2.9375,0 z M 34,33 l 0,1 2.5,0 0,-1 -2.5,0 z m -19,3 0,1 3.9375,0 0,-1 L 15,36 z m 4.40625,0 0,1 3.65625,0 0,-1 -3.65625,0 z m 7.6875,0 0,1 2.5,0 0,-1 -2.5,0 z m 2.9375,0 0,1 6.46875,0 0,-1 -6.46875,0 z m 6.875,0 0,1 4.9375,0 0,-1 -4.9375,0 z M 15,39 l 0,1 3.40625,0 0,-1 L 15,39 z m 3.9375,0 0,1 2.78125,0 0,-1 -2.78125,0 z m 8.15625,0 0,1 3.25,0 0,-1 -3.25,0 z m 3.71875,0 0,1 5.75,0 0,-1 -5.75,0 z M 37,39 l 0,1 3.9375,0 0,-1 L 37,39 z m -22,3 0,1 2.96875,0 0,-1 L 15,42 z m 3.4375,0 0,1 2.84375,0 0,-1 -2.84375,0 z m 8.65625,0 0,1 2.5,0 0,-1 -2.5,0 z m 2.9375,0 0,1 2.5625,0 0,-1 -2.5625,0 z M 33,42 l 0,1 3.65625,0 0,-1 L 33,42 z m 4.0625,0 0,1 0.78125,0 0,-1 -0.78125,0 z m 1.1875,0 0,1 4.75,0 0,-1 -4.75,0 z M 15,45 l 0,1 5.75,0 0,-1 -5.75,0 z m 6.21875,0 0,1 6.15625,0 0,-1 -6.15625,0 z m 6.625,0 0,1 2.4375,0 0,-1 -2.4375,0 z m 2.90625,0 0,1 5.78125,0 0,-1 -5.78125,0 z m 6.25,0 0,1 3.96875,0 0,-1 L 37,45 z m 4.40625,0 0,1 1.53125,0 0,-1 -1.53125,0 z m 2,0 0,1 0.9375,0 0,-1 -0.9375,0 z m 1.34375,0 0,1 2.46875,0 0,-1 L 44.75,45 z M 15,48 l 0,1 4.9375,0 0,-1 L 15,48 z m 5.34375,0 0,1 2.375,0 0,-1 -2.375,0 z m 2.875,0 0,1 1.09375,0 0,-1 -1.09375,0 z m 1.40625,0 0,1 2.15625,0 0,-1 -2.15625,0 z m 2.5,0 0,1 2.1875,0 0,-1 -2.1875,0 z m 2.84375,0 0,1 3.5,0 0,-1 -3.5,0 z m 3.90625,0 0,1 4.53125,0 0,-1 -4.53125,0 z m 5.15625,0 0,1 3.0625,0 0,-1 -3.0625,0 z m 3.46875,0 0,1 0.6875,0 0,-1 -0.6875,0 z m -27.5,3 0,1 4.0625,0 0,-1 L 15,51 z m 4.5,0 0,1 4.46875,0 0,-1 L 19.5,51 z m 7.5,0 0,1 3.28125,0 0,-1 L 27,51 z m 3.6875,0 0,1 3.03125,0 0,-1 -3.03125,0 z m 3.5,0 0,1 2.59375,0 0,-1 -2.59375,0 z m 3,0 0,1 4.15625,0 0,-1 -4.15625,0 z m 4.625,0 0,1 6.75,0 0,-1 -6.75,0 z"
       id="path4149"
       style="color:#000000;fill:url(#linearGradient3134-6);fill-opacity:1;fill-rule:nonzero;stroke:none;marker:none;visibility:visible;display:inline;overflow:visible;enable-background:accumulate" />
    <path
       d="m 38.181819,41.772005 c 6.63e-4,1.958536 -2.767214,3.54645 -6.181819,3.54645 -3.414605,0 -6.182498,-1.587914 -6.181819,-3.54645 -6.8e-4,-1.958536 2.767214,-3.54645 6.181819,-3.54645 3.414605,0 6.182499,1.587914 6.181819,3.54645 z"
       id="path2917"
       style="opacity:0.3;fill:url(#radialGradient3054);fill-opacity:1;stroke:none;display:inline" />
    <path
       d="m 36.86719,19.500001 4.89062,0 -7.125,22.999999 -5.28125,0 -7.10937,-22.999999 4.89062,0 3.875,13.844049 c 0.0521,0.178303 0.11978,0.477209 0.20313,0.896716 0.0937,0.419525 0.18749,0.880993 0.28125,1.384406 0.10415,0.503426 0.20311,1.006845 0.29687,1.510259 0.0937,0.503425 0.16666,0.928185 0.21875,1.274282 0.0521,-0.346097 0.12499,-0.770857 0.21875,-1.274282 0.0937,-0.503414 0.1927,-1.00159 0.29688,-1.494528 0.10415,-0.503413 0.20311,-0.96488 0.29687,-1.384404 0.10416,-0.419509 0.18228,-0.723657 0.23438,-0.912449 l 3.8125,-13.844049"
       id="path4163"
       style="font-size:32.10925293px;font-style:normal;font-variant:normal;font-weight:bold;font-stretch:normal;line-height:125%;letter-spacing:0px;word-spacing:0px;color:#000000;fill:url(#radialGradient3106);fill-opacity:1;fill-rule:nonzero;stroke:url(#linearGradient3108);stroke-width:1;stroke-linecap:butt;stroke-linejoin:round;stroke-miterlimit:4;stroke-opacity:1;stroke-dashoffset:0;marker:none;visibility:visible;font-family:Droid Sans;-inkscape-font-specification:Droid Sans Bold" />
    <path
       d="m 23.4375,20.500004 6.5625,21 3.96875,0 6.59375,-21 -3.03125,0 -3.625,13.016272 a 0.87580777,0.87062548 0 0 1 0,0.03106 c -0.0513,0.18349 -0.15309,0.486832 -0.25,0.869823 -0.002,0.0084 0.002,0.02253 0,0.03107 -0.0859,0.382927 -0.17666,0.83667 -0.28125,1.335799 -0.10718,0.500695 -0.19266,0.959233 -0.28125,1.428994 -0.0919,0.486992 -0.16833,0.911726 -0.21875,1.242603 a 0.87580777,0.87062548 0 0 1 -1.75,0 c -0.0504,-0.330915 -0.1269,-0.755591 -0.21875,-1.242603 -0.0959,-0.508526 -0.1506,-0.985688 -0.25,-1.460059 a 0.87580777,0.87062548 0 0 1 -0.0312,-0.03107 c -0.0921,-0.488434 -0.159,-0.933701 -0.25,-1.335798 a 0.87580777,0.87062548 0 0 1 0,-0.03107 c -0.0778,-0.386839 -0.174,-0.656413 -0.21875,-0.807688 L 26.4688,20.5 l -3.03125,0 z"
       id="path4096"
       style="font-size:32px;font-style:normal;font-variant:normal;font-weight:bold;font-stretch:normal;line-height:125%;letter-spacing:0px;word-spacing:0px;opacity:0.5;color:#000000;fill:none;stroke:url(#linearGradient3103);stroke-width:1;stroke-linecap:butt;stroke-linejoin:round;stroke-miterlimit:4;stroke-opacity:1;stroke-dasharray:none;stroke-dashoffset:0;marker:none;visibility:visible;display:inline;overflow:visible;enable-background:accumulate;font-family:Droid Sans;-inkscape-font-specification:Droid Sans Bold" />
  </g>
</svg>
