<svg xmlns="http://www.w3.org/2000/svg" xmlns:xlink="http://www.w3.org/1999/xlink" viewBox="0 0 2470.93 530.39"><defs><style>.cls-4{opacity:0.6;}.cls-5{opacity:0.7;}.cls-6{opacity:0.5;}.cls-7{clip-path:url(#clip-path);}</style><clipPath id="clip-path"><circle class="cls-1" cx="230.32" cy="231.34" r="71.49"/></clipPath></defs><title>Bountysource Logos_Main</title><g id="Layer_1" data-name="Layer 1"><path class="cls-2" d="M612.21,154.61c33.22,0,53.84,15.12,53.84,40.1,0,18.1-10.77,31.62-28.18,35.74,21.54,3.67,34.37,19,34.37,40.56,0,27.49-22.22,44-58.43,44H542.55V154.61Zm-42.62,66.45h41.24c17.19,0,27.5-8,27.5-21.54s-10.31-20.85-27.5-20.85H569.59Zm0,69.88h41.24c21.08,0,33.68-8.25,33.68-23.37,0-14.21-12.6-22.68-33.68-22.68H569.59Z"/><path class="cls-2" d="M861.05,234.8c0,45.83-37.13,81.35-85,81.35s-85-35.52-85-81.35c0-46.05,37.12-80.88,85-80.88S861.05,189,861.05,234.8Zm-142.53,0c0,31.85,26.35,57.06,57.75,57.06a56.92,56.92,0,0,0,57.05-57.06c0-31.84-25.66-56.59-57.05-56.59C744.64,178.21,718.52,203,718.52,234.8Z"/><path class="cls-2" d="M1026.25,248.55c0,41.93-26.35,67.6-69.66,67.6s-69.88-25.67-69.88-67.6V154.61h27v93.94c0,27,16.73,43.31,43.08,43.31,26.12,0,42.39-16,42.39-43.31V154.61h27Z"/><path class="cls-2" d="M1177.47,315,1092,200V315h-27V154.61h26.58l85.92,115.25V154.61h26.58V315Z"/><path class="cls-2" d="M1305.1,178.9V315h-27V178.9h-50.64V154.61H1356V178.9Z"/><path class="cls-2" d="M1444.87,315h-26.81V262.53l-59.8-107.92h27.27l45.82,78.13,44.91-78.13h27.5l-58.89,107Z"/><path class="cls-2" d="M1633.91,170l-11.23,23.83c-17.41-10.54-34.83-14.89-47-14.89-15.81,0-26.12,5.95-26.12,16.72,0,35.06,86.61,16.27,86.38,74,0,28.65-25.2,46.29-60.49,46.29A98.61,98.61,0,0,1,1510,290.48l11.68-23.37c16.5,15.13,37.12,23.37,54.31,23.37,18.79,0,30-7.1,30-19.47,0-35.75-86.61-15.81-86.61-72.87,0-27.49,23.6-44.68,58.43-44.68C1598.62,153.46,1619,160.11,1633.91,170Z"/><path class="cls-2" d="M1824.32,234.8c0,45.83-37.12,81.35-85,81.35s-85-35.52-85-81.35c0-46.05,37.12-80.88,85-80.88S1824.32,189,1824.32,234.8Zm-142.52,0c0,31.85,26.35,57.06,57.74,57.06a56.92,56.92,0,0,0,57-57.06c0-31.84-25.66-56.59-57-56.59C1707.92,178.21,1681.8,203,1681.8,234.8Z"/><path class="cls-2" d="M1989.52,248.55c0,41.93-26.34,67.6-69.65,67.6S1850,290.48,1850,248.55V154.61h27v93.94c0,27,16.72,43.31,43.08,43.31,26.12,0,42.39-16,42.39-43.31V154.61h27Z"/><path class="cls-2" d="M2100.65,266.42c-2.29.23-4.81.23-7.33.23h-38V315h-27V154.61h65.07c41,0,64.61,19.93,64.61,54.76,0,25.66-11.91,43.76-33.22,52l36,53.62H2130Zm-7.33-24.05c24.74,0,38.95-10.54,38.95-32.31,0-21.08-14.21-31.16-38.95-31.16h-38v63.47Z"/><path class="cls-2" d="M2325.89,178.67l-15.81,19.7c-11.69-12.6-28.42-20.39-44.68-20.39-32.08,0-57.29,24.75-57.29,56.37s25.21,56.59,57.29,56.59c16,0,32.54-7.33,44.68-19l16,17.87c-16.27,16-39.41,26.35-62.1,26.35-47,0-83.4-35.52-83.4-81.57,0-45.6,36.89-80.66,84.32-80.66C2287.62,153.92,2310.31,163.32,2325.89,178.67Z"/><path class="cls-2" d="M2380.65,178.9v43.3H2459v24.29h-78.36v44.22h90.28V315H2353.61V154.61h114.57V178.9Z"/><path class="cls-1" d="M2282.45,428.65A27.67,27.67,0,0,0,2271,420.1q-7.24-3.08-18.57-3.07A40.26,40.26,0,0,0,2235,421.1a30.05,30.05,0,0,0-7.21,4.81,32.54,32.54,0,0,0-7.12,9.5,74.63,74.63,0,0,1-27,29.34v42.88a14.88,14.88,0,0,0,14.87,14.88h13.34V468.67q0-15.69,5.16-22.54t16.69-6.86q10.13,0,14.1,6.26t4,19V508a14.51,14.51,0,0,0,14.5,14.51H2290V459.34a83.13,83.13,0,0,0-1.68-17.38A33.13,33.13,0,0,0,2282.45,428.65Z"/><path class="cls-1" d="M2193.65,419.81V455A74.07,74.07,0,0,0,2214,419.81Z"/><path class="cls-1" d="M2327.82,428.25l-23.64-40.17a15.06,15.06,0,0,0-13-7.41h-26.17L2310,455.26A74.31,74.31,0,0,1,2327.82,428.25Z"/><path class="cls-1" d="M2384.73,407.62l16.2-26.95h-26.41a15,15,0,0,0-12.91,7.36l-16.42,27.72-12.39,20.93h0a73.94,73.94,0,0,0-15.1,41.56v29.41a14.85,14.85,0,0,0,14.85,14.85h16.34V471.34a14.65,14.65,0,0,1,2.09-7.54l33.67-56Z"/><path class="cls-1" d="M2470.72,452.79c0,.1,0,.21,0,.31C2470.68,453,2470.7,452.89,2470.72,452.79Z"/><circle class="cls-1" cx="2390.66" cy="504.89" r="14.85"/><path class="cls-1" d="M2440.63,495a20.2,20.2,0,0,0,.93-2.48A20.2,20.2,0,0,1,2440.63,495Z"/><path class="cls-1" d="M2444,512.69a.49.49,0,0,1,0-.12h0s0,.08,0,.12a14.91,14.91,0,0,0,4.23,6.15A14.83,14.83,0,0,1,2444,512.69Z"/><path class="cls-1" d="M2449.38,519.77l-.05,0Z"/><path class="cls-1" d="M2448.77,519.3c-.11-.09-.23-.17-.33-.26C2448.54,519.13,2448.66,519.21,2448.77,519.3Z"/><path class="cls-1" d="M2414.2,506l.8.12,1.09.14.63.06.65,0a.11.11,0,0,0,.08,0c.31,0,.61,0,.92.05.48,0,1,0,1.45,0h.06c1,0,2,0,3-.1s1.85-.16,2.72-.29a19.26,19.26,0,0,0,7.28-2.39,18.58,18.58,0,0,0,6.75-6.66,19.8,19.8,0,0,0,1-1.9,18.18,18.18,0,0,1-7.71,8.55,19.14,19.14,0,0,1-7.28,2.39c-.86.13-1.77.23-2.72.29s-2,.1-3,.1h-.06c-.48,0-1,0-1.45,0-.31,0-.61,0-.92-.05a.11.11,0,0,1-.08,0c-.22,0-.44,0-.65,0s-.42,0-.63-.06l-1.08-.14q-.4,0-.81-.12c-.26,0-.53-.08-.8-.14a3.77,3.77,0,0,1-.43-.1h0l.44.1Z"/><path class="cls-1" d="M2470.92,486.38V522.5h-13a14.8,14.8,0,0,1-8.54-2.73,14.83,14.83,0,0,0,8.47,2.74h13.08V472h0v14.42Z"/><path class="cls-1" d="M2441.56,492.48c.06-.18.11-.35.16-.53C2441.67,492.13,2441.62,492.3,2441.56,492.48Z"/><path class="cls-1" d="M2440.57,495.08l.06-.12Z"/><path class="cls-1" d="M2449.33,519.73l-.56-.43Z"/><path class="cls-1" d="M2448.44,519c-.08-.06-.14-.13-.21-.19S2448.36,519,2448.44,519Z"/><path class="cls-1" d="M2034.21,490.85l-.07.07c-.46.51-1,1-1.44,1.44q-1.58,1.62-3,3.34-1.62,2.21-3.41,4.28a74.19,74.19,0,0,1-35.53,23,77.51,77.51,0,0,0,20.62,2.74h.46c.77,0,1.53,0,2.28-.05a68.6,68.6,0,0,0,21.76-3.93,55.51,55.51,0,0,0,19.07-11.52A57.51,57.51,0,0,0,2068,491.92a70.76,70.76,0,0,0,5.84-21.15,73.87,73.87,0,0,0-32.73,14.11A75.44,75.44,0,0,0,2034.21,490.85Z"/><path class="cls-1" d="M2011.79,499.66q-10.53,0-17.88-4.07A34,34,0,0,1,1982,484.77a47,47,0,0,1-6.66-15.2,72.22,72.22,0,0,1-2.09-17.38,77.65,77.65,0,0,1,2.09-18.08,51.38,51.38,0,0,1,3.11-9.16q.38-.84.78-1.65a.41.41,0,0,0,0-.09c.26-.51.52-1,.79-1.5.08-.16.17-.3.25-.45.22-.39.43-.77.66-1.14.33-.54.66-1.08,1-1.6a33.73,33.73,0,0,1,11.91-10.93q7.35-4.06,17.88-4.07l1,0h0a32.46,32.46,0,0,1,10,1.87,32,32,0,0,1,9.43,5.26,31.5,31.5,0,0,1,7,7.85h0l0,.09a20.1,20.1,0,0,0,17.07,9.74H2073a57.11,57.11,0,0,0-6.76-21.85,55,55,0,0,0-6.15-8.84,51.46,51.46,0,0,0-7.46-7.15,60,60,0,0,0-18.67-9.84,76.13,76.13,0,0,0-51.45,2.39,65.81,65.81,0,0,0-11.92,6.82h0l-.6.45-.72.55c-.5.38-1,.78-1.49,1.18l-.69.56q-.75.63-1.47,1.29c-.2.18-.41.35-.61.54-.67.61-1.33,1.24-2,1.89,0,.05-.1.09-.14.14-.79.8-1.56,1.62-2.31,2.47-.61.69-1.2,1.41-1.78,2.13-.2.24-.41.49-.6.74h0a71.68,71.68,0,0,0-11.33,20.87,88.81,88.81,0,0,0-4.76,29.5,85.85,85.85,0,0,0,4.76,28.9,69,69,0,0,0,13.71,23.34,60.81,60.81,0,0,0,10.22,9.05A74,74,0,0,0,2013,499.64Z"/><path class="cls-1" d="M2470.92,450.36a15,15,0,0,1-.2,2.43A13.82,13.82,0,0,0,2470.92,450.36Z"/><path class="cls-1" d="M2470.67,453.1l0,.1Z"/><path class="cls-1" d="M2466.75,431.22a28.63,28.63,0,0,0-10.73-8.84,47.9,47.9,0,0,0-14.5-4.27c-2.65-.36-5.28-.64-7.89-.82l-2-.12c-2-.1-3.9-.16-5.84-.16-1.39,0-2.8,0-4.19.11a87,87,0,0,0-12.72,1.58,48.39,48.39,0,0,0-15.2,5.67,33.89,33.89,0,0,0-11.12,10.52q-4.36,6.57-5,16.5h17.6A14.53,14.53,0,0,0,2408,443.5a12.28,12.28,0,0,1,3.42-4q4.17-3.12,11.07-3.51c.64,0,1.29-.06,2-.06,1.25,0,2.48,0,3.65.12s2.36.21,3.47.37a15.9,15.9,0,0,1,5.77,2,10.88,10.88,0,0,1,4,4.18,15,15,0,0,1,1.49,7.24c.13,2.92-.73,5.13-2.58,6.66a19.06,19.06,0,0,1-7.55,3.47,76.25,76.25,0,0,1-10.92,1.8q-6.16.58-12.52,1.58a116.94,116.94,0,0,0-12.61,2.69,37.41,37.41,0,0,0-7.57,2.92,31.08,31.08,0,0,0-3.56,2.14,25.37,25.37,0,0,0-10.69,18.06,22.26,22.26,0,0,1,29.23-2.3l0-.07a13,13,0,0,1,3.68-4.27,18.56,18.56,0,0,1,5.36-2.68,51.7,51.7,0,0,1,6.26-1.59c2.25-.4,4.5-.72,6.76-1a124.68,124.68,0,0,0,13.21-2.85c8.59-2.32,19.36-6.23,25.85-12.24a17,17,0,0,0,5.47-8.92l0-.1c0-.1,0-.21,0-.31a15,15,0,0,0,.2-2.43v-4.14Q2470.92,436.89,2466.75,431.22Z"/><path class="cls-1" d="M2084.4,482.44v0Z"/><path class="cls-1" d="M2083.93,483.75c0-.05,0-.1,0-.15S2083.94,483.7,2083.93,483.75Z"/><path class="cls-1" d="M2083.21,486.39c0-.06,0-.1,0-.16S2083.22,486.33,2083.21,486.39Z"/><path class="cls-1" d="M2083.54,485.06a1.46,1.46,0,0,1,.05-.2A1.46,1.46,0,0,0,2083.54,485.06Z"/><path class="cls-1" d="M2083.59,484.86c.11-.37.22-.75.34-1.11C2083.81,484.11,2083.7,484.49,2083.59,484.86Z"/><path class="cls-1" d="M2083.25,486.23c.09-.4.18-.79.29-1.17C2083.43,485.44,2083.34,485.83,2083.25,486.23Z"/><path class="cls-1" d="M2082.74,489.11h0c.12-.94.27-1.84.46-2.71C2083,487.26,2082.86,488.17,2082.74,489.11Z"/><path class="cls-1" d="M2084,483.6c.14-.39.28-.78.43-1.16C2084.25,482.82,2084.11,483.21,2084,483.6Z"/><path class="cls-1" d="M2115.68,482.47a18.43,18.43,0,0,1,5.36-2.68,51.7,51.7,0,0,1,6.26-1.59c2.24-.4,4.5-.72,6.75-1a124.68,124.68,0,0,0,13.21-2.85l.13,0c8.51-2.32,19.11-6.18,25.58-12.09a14.68,14.68,0,0,0,5.9-11.75v-4.26a29.38,29.38,0,0,0-1.63-10.24,19.4,19.4,0,0,0-2.54-4.77,28.63,28.63,0,0,0-10.73-8.84,48.07,48.07,0,0,0-14.5-4.27c-2.65-.36-5.28-.64-7.89-.82-.66,0-1.31-.09-2-.12-2-.1-3.89-.16-5.83-.16-1.4,0-2.8,0-4.19.11a87.33,87.33,0,0,0-12.73,1.58,48.24,48.24,0,0,0-15.19,5.67,33.89,33.89,0,0,0-11.12,10.52q-4.38,6.57-5,16.5h17.75a14.23,14.23,0,0,0,12.55-7.76,12.16,12.16,0,0,1,3.47-4.17q4.18-3.12,11.08-3.51c.64,0,1.29-.06,2-.06,1.25,0,2.48,0,3.65.12s2.36.21,3.47.37a15.9,15.9,0,0,1,5.77,2,10.92,10.92,0,0,1,4,4.17,9.76,9.76,0,0,1,.65,1.46,17.34,17.34,0,0,1,.84,5.78c.13,2.92-.74,5.13-2.59,6.66a19,19,0,0,1-7.55,3.47,75.77,75.77,0,0,1-10.92,1.8q-6.16.58-12.52,1.58a117.45,117.45,0,0,0-12.61,2.69,37.09,37.09,0,0,0-7.56,2.92,32.1,32.1,0,0,0-3.57,2.14,25.79,25.79,0,0,0-7.94,9,20.51,20.51,0,0,0-1.07,2.32v0c-.15.38-.29.77-.43,1.16,0,0,0,.1,0,.15-.12.36-.23.74-.34,1.11a1.46,1.46,0,0,0-.05.2c-.11.38-.2.77-.29,1.17,0,.06,0,.1,0,.16-.19.87-.34,1.77-.46,2.71-.08.56-.14,1.12-.19,1.69-.1,1.19-.15,2.42-.15,3.7a32.23,32.23,0,0,0,2.68,13.72,26,26,0,0,0,7.45,9.54,31.6,31.6,0,0,0,11.12,5.56,50.26,50.26,0,0,0,12.23,1.76l1.4,0c1.2,0,2.38,0,3.56-.1l1.19-.07c1.23-.09,2.46-.22,3.68-.38a64.84,64.84,0,0,0,10.32-2.23,36.7,36.7,0,0,0,15.83-9.67l0,0,0,0a.49.49,0,0,0,0,.12,14.84,14.84,0,0,0,13.84,9.82h13.08V472a73.89,73.89,0,0,0-22.61,10.12l-.43.29a14.88,14.88,0,0,0-6.22,10.18c0-.29.08-.58.13-.86a22.32,22.32,0,0,1-2.18,5.3,18.58,18.58,0,0,1-6.75,6.66,19.26,19.26,0,0,1-7.28,2.39c-.87.13-1.77.23-2.72.29s-1.95.1-3,.1h-.06c-.49,0-1,0-1.45,0-.31,0-.61,0-.92-.05a.11.11,0,0,1-.08,0l-.65,0c-.21,0-.42,0-.63-.06l-1.09-.14-.8-.12-.8-.14a15.83,15.83,0,0,1-5.56-2.08,10.7,10.7,0,0,1-3.78-4.08,13.19,13.19,0,0,1-1.38-6.35,13.75,13.75,0,0,1,1.38-6.56h0A12.87,12.87,0,0,1,2115.68,482.47Z"/><path class="cls-1" d="M2448.32,482.07l-.43.29a14.84,14.84,0,0,0-6,9h0l-.09.31a2.76,2.76,0,0,1-.08.27c0,.18-.1.35-.16.53a20.2,20.2,0,0,1-.93,2.48l-.06.12a19.8,19.8,0,0,1-1,1.9,18.58,18.58,0,0,1-6.75,6.66,19.26,19.26,0,0,1-7.28,2.39c-.87.13-1.77.23-2.72.29s-1.95.1-3,.1h-.06c-.49,0-1,0-1.45,0-.31,0-.61,0-.92-.05a.11.11,0,0,1-.08,0l-.65,0-.63-.06-1.09-.14-.8-.12-.8-.14-.44-.1a22.26,22.26,0,0,1-12,18.71,51.72,51.72,0,0,0,7,.63l1.4,0c1.2,0,2.38,0,3.56-.1l1.19-.07c1.23-.09,2.46-.22,3.68-.38a64.84,64.84,0,0,0,10.32-2.23,36.7,36.7,0,0,0,15.83-9.67l0,0,0,0v0h0a.49.49,0,0,0,0,.12,14.83,14.83,0,0,0,4.22,6.16c.07.06.13.13.21.19s.22.17.33.26l.56.43.05,0a14.8,14.8,0,0,0,8.54,2.73h13V472A73.92,73.92,0,0,0,2448.32,482.07Z"/><path class="cls-3" d="M1332.5,431.61c0,17.19-10.81,29-27.24,29-9.19,0-16.1-3.68-20.32-10.38v30.91h-12.43V402.65h12.43v9.94c4.22-6.7,11.13-10.38,20.1-10.38C1321.36,402.21,1332.5,414.1,1332.5,431.61Zm-12.54-.43c0-10.7-7.24-18.59-17.51-18.59s-17.51,7.78-17.51,18.59c0,11.13,7.24,18.81,17.51,18.81S1320,442.2,1320,431.18Z"/><path class="cls-3" d="M1400,431.4c0,17.29-12.21,29.18-29.94,29.18s-30-11.89-30-29.18,12.22-29.19,30-29.19S1400,414,1400,431.4Zm-47.56.11c0,11.13,7.24,18.69,17.62,18.69s17.51-7.56,17.51-18.69-7.24-18.59-17.51-18.59S1352.48,420.48,1352.48,431.51Z"/><path class="cls-3" d="M1464.88,460.15l-14.59-42.59-14.59,42.59H1423l-21.18-57.5h12.75l14.92,45.18,14.48-45.18h12.86l14.59,45.18,14.7-45.18h12.64l-21,57.5Z"/><path class="cls-3" d="M1555.78,436.15h-43.46c2,8.86,8.76,14.38,17.84,14.38a22.35,22.35,0,0,0,16.21-6.7l6.6,7c-5.62,6.16-13.84,9.73-23.79,9.73-17.72,0-29.39-11.78-29.39-29.07s12-29.19,29.07-29.3C1549.07,402.21,1557.29,415.4,1555.78,436.15ZM1545,427.07c-.43-9.29-6.59-14.91-16-14.91-9.08,0-15.45,5.73-16.86,14.91Z"/><path class="cls-3" d="M1581.17,414.1c3.88-7.78,10.8-11.89,19.88-11.89V414.1c-11.56-.64-18.91,6.16-19.88,16v30h-12.43v-57.5h12.43Z"/><path class="cls-3" d="M1661.91,436.15h-43.46c2,8.86,8.76,14.38,17.84,14.38a22.35,22.35,0,0,0,16.21-6.7l6.6,7c-5.62,6.16-13.84,9.73-23.79,9.73-17.72,0-29.39-11.78-29.39-29.07s12-29.19,29.07-29.3C1655.2,402.21,1663.42,415.4,1661.91,436.15Zm-10.81-9.08c-.43-9.29-6.6-14.91-16-14.91-9.08,0-15.45,5.73-16.86,14.91Z"/><path class="cls-3" d="M1729.66,460.15h-12.42v-9.84c-4.11,6.7-11,10.38-20.22,10.38-16.53,0-27.56-12-27.56-29.51,0-17.29,11.14-29.07,27.34-29.07,9.3,0,16.22,3.78,20.44,10.48V380h12.42Zm-12.42-28.54c0-11.13-7.25-18.91-17.62-18.91s-17.62,7.89-17.73,18.91c.11,10.92,7.24,18.7,17.73,18.7S1717.24,442.53,1717.24,431.61Z"/><path class="cls-3" d="M1837,431.61c0,17.19-10.81,29-27.23,29-9.19,0-16.11-3.68-20.32-10.38v9.95H1777V380h12.43v32.64c4.21-6.7,11.13-10.38,20.1-10.38C1825.85,402.21,1837,414.1,1837,431.61Zm-12.53-.43c0-10.7-7.25-18.59-17.51-18.59s-17.51,7.78-17.51,18.59c0,11.13,7.24,18.81,17.51,18.81S1824.45,442.2,1824.45,431.18Z"/><path class="cls-3" d="M1870.37,468c-3.56,9.08-10,13.62-18.69,13.62a19.48,19.48,0,0,1-13.3-4.87l5.3-9.62c2.7,1.95,4.86,2.81,7.46,2.81,3.78,0,6.8-2.05,8.75-6.37l1.94-4.33-23.77-56.63h12.86l17.19,43.55,16-43.55h12.43Z"/><path class="cls-1" d="M308.17,370.1a7.53,7.53,0,0,1-3.88-14A144.49,144.49,0,0,0,332,334.43c56.14-56.14,56.14-147.47,0-203.6a143.57,143.57,0,0,0-95.56-42,7.53,7.53,0,0,1,.65-15A159.08,159.08,0,0,1,312,369,7.48,7.48,0,0,1,308.17,370.1Z"/><g class="cls-4"><path class="cls-1" d="M187.87,385.65a7.67,7.67,0,0,1-2.1-.3,159.22,159.22,0,0,1-68-40.28c-62-62-62-162.88,0-224.89a158.49,158.49,0,0,1,78.68-43,7.53,7.53,0,0,1,3.18,14.72,143.37,143.37,0,0,0-71.22,38.9c-56.13,56.13-56.13,147.46,0,203.6A144.07,144.07,0,0,0,190,370.88a7.54,7.54,0,0,1-2.1,14.77Z"/></g><path class="cls-1" d="M230,426.3A194.21,194.21,0,0,1,51.39,306.51a7.53,7.53,0,0,1,13.92-5.75A178.56,178.56,0,0,0,313.17,390.6a7.53,7.53,0,0,1,7,13.33A193.51,193.51,0,0,1,230,426.3Z"/><path class="cls-1" d="M340.38,389.94a7.52,7.52,0,0,1-4.47-13.58,181.46,181.46,0,0,0,20.44-17.6,178.15,178.15,0,0,0,33.86-47.14,7.53,7.53,0,1,1,13.5,6.66,194.75,194.75,0,0,1-58.87,70.19A7.43,7.43,0,0,1,340.38,389.94Z"/><g class="cls-5"><path class="cls-1" d="M406.19,300.24a7.68,7.68,0,0,1-2.43-.4,7.53,7.53,0,0,1-4.7-9.55,177.4,177.4,0,0,0-42.71-183.8c-69.55-69.55-182.71-69.54-252.27,0a177.56,177.56,0,0,0-52.2,122.44,7.53,7.53,0,0,1-7.53,7.37h-.16a7.53,7.53,0,0,1-7.37-7.68A192.53,192.53,0,0,1,93.44,95.85c75.42-75.43,198.13-75.42,273.55,0,52.55,52.54,70.3,128.9,46.33,199.29A7.54,7.54,0,0,1,406.19,300.24Z"/></g><path class="cls-1" d="M120.31,49a7.53,7.53,0,0,1-3.77-14.05A228.77,228.77,0,0,1,298.15,15a7.53,7.53,0,0,1-4.47,14.38A213.61,213.61,0,0,0,124.06,48,7.53,7.53,0,0,1,120.31,49Z"/><path class="cls-1" d="M37.07,133.74a7.53,7.53,0,0,1-6.58-11.17A228.17,228.17,0,0,1,69,71.42,231.79,231.79,0,0,1,93.44,50.19a7.53,7.53,0,1,1,9,12A216.46,216.46,0,0,0,79.65,82.07a213.27,213.27,0,0,0-36,47.77A7.52,7.52,0,0,1,37.07,133.74Z"/><g class="cls-6"><path class="cls-1" d="M230.61,460.58A228,228,0,0,1,18.17,148.73a7.53,7.53,0,0,1,14,5.53A213,213,0,0,0,262.23,443.15,7.53,7.53,0,0,1,264.48,458,227.25,227.25,0,0,1,230.61,460.58Z"/></g><path class="cls-1" d="M301.81,448.72a7.53,7.53,0,0,1-2.44-14.65,210.85,210.85,0,0,0,81.41-50.88,216.42,216.42,0,0,0,16-17.89,7.52,7.52,0,1,1,11.76,9.39,231.24,231.24,0,0,1-17.13,19.15,225.77,225.77,0,0,1-87.17,54.47A7.44,7.44,0,0,1,301.81,448.72Z"/><g class="cls-4"><path class="cls-1" d="M444.65,291.48a7.6,7.6,0,0,1-1.75-.21,7.52,7.52,0,0,1-5.57-9.07c17.3-72.6-3.84-147.42-56.55-200.13a7.53,7.53,0,0,1,10.64-10.65C447.86,127.86,470.5,208,452,285.7A7.53,7.53,0,0,1,444.65,291.48Z"/></g><circle class="cls-1" cx="230.32" cy="231.34" r="71.49"/><g class="cls-7"><polygon class="cls-1" points="158.83 272.63 211.14 302.83 158.83 302.83 158.83 272.63"/><polygon class="cls-1" points="158.83 269.51 216.53 302.83 211.14 302.83 158.83 272.63 158.83 269.51"/><polygon class="cls-1" points="158.83 266.4 221.93 302.83 216.53 302.83 158.83 269.51 158.83 266.4"/><polygon class="cls-1" points="158.83 263.28 227.33 302.83 221.93 302.83 158.83 266.4 158.83 263.28"/><polygon class="cls-1" points="158.83 260.17 232.72 302.83 227.33 302.83 158.83 263.28 158.83 260.17"/><polygon class="cls-1" points="158.83 257.05 238.12 302.83 232.72 302.83 158.83 260.17 158.83 257.05"/><polygon class="cls-1" points="158.83 253.94 243.52 302.83 238.12 302.83 158.83 257.05 158.83 253.94"/><polygon class="cls-1" points="158.83 250.82 248.91 302.83 243.52 302.83 158.83 253.94 158.83 250.82"/><polygon class="cls-1" points="158.83 247.71 254.31 302.83 248.91 302.83 158.83 250.82 158.83 247.71"/><polygon class="cls-1" points="158.83 244.59 259.71 302.83 254.31 302.83 158.83 247.71 158.83 244.59"/><polygon class="cls-1" points="158.83 241.47 265.1 302.83 259.71 302.83 158.83 244.59 158.83 241.47"/><polygon class="cls-1" points="158.83 238.36 270.5 302.83 265.1 302.83 158.83 241.47 158.83 238.36"/><polygon class="cls-1" points="158.83 235.24 275.89 302.83 270.5 302.83 158.83 238.36 158.83 235.24"/><polygon class="cls-1" points="158.83 232.13 281.29 302.83 275.89 302.83 158.83 235.24 158.83 232.13"/><polygon class="cls-1" points="158.83 229.01 286.69 302.83 281.29 302.83 158.83 232.13 158.83 229.01"/><polygon class="cls-1" points="158.83 225.9 290.73 302.05 290.28 302.83 286.69 302.83 158.83 229.01 158.83 225.9"/><polygon class="cls-1" points="158.83 222.78 292.08 299.71 290.73 302.05 158.83 225.9 158.83 222.78"/><polygon class="cls-1" points="158.83 219.66 293.43 297.38 292.08 299.71 158.83 222.78 158.83 219.66"/><polygon class="cls-1" points="158.83 216.55 294.78 295.04 293.43 297.38 158.83 219.66 158.83 216.55"/><polygon class="cls-1" points="158.83 213.43 296.13 292.7 294.78 295.04 158.83 216.55 158.83 213.43"/><polygon class="cls-1" points="158.83 210.32 297.48 290.37 296.13 292.7 158.83 213.43 158.83 210.32"/><polygon class="cls-1" points="158.83 207.2 298.83 288.03 297.48 290.37 158.83 210.32 158.83 207.2"/><polygon class="cls-1" points="158.83 204.09 300.18 285.69 298.83 288.03 158.83 207.2 158.83 204.09"/><polygon class="cls-1" points="158.83 200.97 301.53 283.36 300.18 285.69 158.83 204.09 158.83 200.97"/><polygon class="cls-1" points="158.83 197.86 301.81 280.4 301.81 282.87 301.53 283.36 158.83 200.97 158.83 197.86"/><polygon class="cls-1" points="158.83 194.74 301.81 277.29 301.81 280.4 158.83 197.86 158.83 194.74"/><polygon class="cls-1" points="158.83 191.63 301.81 274.17 301.81 277.29 158.83 194.74 158.83 191.63"/><polygon class="cls-1" points="158.83 188.51 301.81 271.06 301.81 274.17 158.83 191.63 158.83 188.51"/><polygon class="cls-1" points="158.83 185.39 301.81 267.94 301.81 271.06 158.83 188.51 158.83 185.39"/><polygon class="cls-1" points="158.83 182.28 301.81 264.83 301.81 267.94 158.83 185.39 158.83 182.28"/><polygon class="cls-1" points="158.83 179.81 159.11 179.33 301.81 261.71 301.81 264.83 158.83 182.28 158.83 179.81"/><polygon class="cls-1" points="159.11 179.33 160.46 176.99 301.81 258.6 301.81 261.71 159.11 179.33"/><polygon class="cls-1" points="160.46 176.99 161.81 174.65 301.81 255.48 301.81 258.6 160.46 176.99"/><polygon class="cls-1" points="161.81 174.65 163.16 172.32 301.81 252.37 301.81 255.48 161.81 174.65"/><polygon class="cls-1" points="163.16 172.32 164.51 169.98 301.81 249.25 301.81 252.37 163.16 172.32"/><polygon class="cls-1" points="164.51 169.98 165.86 167.64 301.81 246.13 301.81 249.25 164.51 169.98"/><polygon class="cls-1" points="165.86 167.64 167.21 165.31 301.81 243.02 301.81 246.13 165.86 167.64"/><polygon class="cls-1" points="167.21 165.31 168.55 162.97 301.81 239.9 301.81 243.02 167.21 165.31"/><polygon class="cls-1" points="168.55 162.97 169.9 160.63 301.81 236.79 301.81 239.9 168.55 162.97"/><polygon class="cls-1" points="169.9 160.63 170.35 159.85 173.95 159.85 301.81 233.67 301.81 236.79 169.9 160.63"/><polygon class="cls-1" points="179.34 159.85 301.81 230.56 301.81 233.67 173.95 159.85 179.34 159.85"/><polygon class="cls-1" points="184.74 159.85 301.81 227.44 301.81 230.56 179.34 159.85 184.74 159.85"/><polygon class="cls-1" points="190.14 159.85 301.81 224.32 301.81 227.44 184.74 159.85 190.14 159.85"/><polygon class="cls-1" points="195.53 159.85 301.81 221.21 301.81 224.32 190.14 159.85 195.53 159.85"/><polygon class="cls-1" points="200.93 159.85 301.81 218.09 301.81 221.21 195.53 159.85 200.93 159.85"/><polygon class="cls-1" points="206.33 159.85 301.81 214.98 301.81 218.09 200.93 159.85 206.33 159.85"/><polygon class="cls-1" points="211.72 159.85 301.81 211.86 301.81 214.98 206.33 159.85 211.72 159.85"/><polygon class="cls-1" points="217.12 159.85 301.81 208.75 301.81 211.86 211.72 159.85 217.12 159.85"/><polygon class="cls-1" points="222.52 159.85 301.81 205.63 301.81 208.75 217.12 159.85 222.52 159.85"/><polygon class="cls-1" points="227.91 159.85 301.81 202.52 301.81 205.63 222.52 159.85 227.91 159.85"/><polygon class="cls-1" points="233.31 159.85 301.81 199.4 301.81 202.52 227.91 159.85 233.31 159.85"/><polygon class="cls-1" points="238.71 159.85 301.81 196.28 301.81 199.4 233.31 159.85 238.71 159.85"/><polygon class="cls-1" points="244.1 159.85 301.81 193.17 301.81 196.28 238.71 159.85 244.1 159.85"/><polygon class="cls-1" points="249.5 159.85 301.81 190.05 301.81 193.17 244.1 159.85 249.5 159.85"/><polygon class="cls-1" points="301.81 190.05 249.5 159.85 301.81 159.85 301.81 190.05"/></g><path class="cls-1" d="M229.25,345.23A113.89,113.89,0,1,1,330.49,179.12a8.06,8.06,0,0,1-14.31,7.4A97.81,97.81,0,1,0,327,231.34a8,8,0,0,1,16.1,0A114,114,0,0,1,229.25,345.23Z"/></g></svg>
