<svg xmlns="http://www.w3.org/2000/svg" height="64" width="51.416" viewBox="-60 -75 51.415539 64"><g fill="#333"><path d="M-29.272-41.186c-1.06.015.2.546 1.585.76.382-.3.73-.601 1.038-.895-.862.21-1.739.215-2.623.135m5.692-1.419c.631-.872 1.091-1.826 1.254-2.812-.142.703-.523 1.31-.883 1.951-1.983 1.248-.187-.74-.001-1.497-2.132 2.683-.293 1.609-.37 2.358m2.101-5.467c.128-1.91-.376-1.306-.545-.577.197.103.354 1.346.545.577m-11.814-26.102c.565.101 1.222.18 1.13.314.619-.135.76-.26-1.13-.314m1.13.314l-.4.083.372-.033.028-.05"/><path d="M-14.514-47.348c.063 1.715-.502 2.547-1.011 4.02l-.916.458c-.75 1.457.072.925-.465 2.084-1.171 1.04-3.554 3.257-4.316 3.46-.556-.013.378-.657.5-.91-1.568 1.077-1.259 1.616-3.656 2.27l-.07-.156c-5.913 2.781-14.126-2.73-14.017-10.252-.064.478-.18.359-.311.552-.305-3.87 1.787-7.757 5.315-9.344 3.452-1.708 7.497-1.007 9.97 1.297-1.358-1.779-4.06-3.664-7.264-3.488-3.138.05-6.074 2.044-7.053 4.208-1.608 1.013-1.795 3.902-2.495 4.43-.942 6.927 1.773 9.92 6.366 13.44.723.487.203.561.301.932-1.526-.714-2.923-1.793-4.072-3.114.61.893 1.268 1.76 2.118 2.442-1.439-.488-3.361-3.487-3.922-3.61 2.48 4.442 10.063 7.79 14.033 6.129-1.837.067-4.171.037-6.235-.726-.867-.446-2.046-1.37-1.836-1.543 5.419 2.024 11.017 1.533 15.705-2.225 1.193-.93 2.496-2.51 2.873-2.531-.568.852.096.41-.34 1.162 1.19-1.916-.516-.78 1.23-3.31l.644.888c-.24-1.591 1.976-3.523 1.751-6.04.508-.77.567.828.028 2.599.748-1.965.197-2.28.39-3.9.208.544.48 1.123.62 1.698-.488-1.898.5-3.197.745-4.3-.241-.106-.753.84-.87-1.403.017-.974.27-.51.369-.75-.191-.11-.693-.856-.998-2.288.221-.336.592.873.892.922-.193-1.138-.526-2.006-.54-2.88-.88-1.837-.311.245-1.025-.789-.936-2.92.777-.677.892-2.004 1.42 2.056 2.229 5.241 2.6 6.56-.284-1.608-.742-3.167-1.3-4.674.43.18-.695-3.31.56-.998-1.34-4.93-5.734-9.535-9.776-11.696.495.453 1.12 1.021.895 1.11-2.01-1.197-1.657-1.29-1.945-1.796-1.637-.666-1.745.054-2.83.001-3.086-1.637-3.68-1.462-6.521-2.488l.129.603c-2.045-.68-2.382.259-4.592.003-.135-.105.708-.38 1.401-.481-1.977.26-1.884-.39-3.818.071.477-.334.98-.555 1.489-.84-1.612.098-3.849.938-3.159.174-2.63 1.175-7.301 2.822-9.922 5.28l-.083-.551c-1.2 1.441-5.237 4.305-5.558 6.172l-.321.075c-.625 1.058-1.03 2.258-1.525 3.346-.818 1.393-1.199.536-1.082.755-1.608 3.26-2.406 5.998-3.096 8.244.491.735.012 4.423.197 7.375-.807 14.58 10.232 28.734 22.299 32.002 1.769.632 4.399.608 6.636.673-2.64-.755-2.98-.4-5.552-1.297-1.854-.873-2.261-1.87-3.575-3.01l.52.918c-2.576-.912-1.499-1.128-3.595-1.792l.556-.725c-.836-.063-2.212-1.408-2.589-2.152l-.913.036c-1.098-1.355-1.683-2.33-1.64-3.087l-.295.527c-.335-.575-4.039-5.08-2.117-4.031-.357-.327-.832-.531-1.346-1.466l.39-.447c-.924-1.19-1.701-2.716-1.642-3.223.493.666.835.79 1.174.905-2.335-5.795-2.466-.32-4.235-5.898l.374-.03c-.287-.432-.46-.901-.691-1.362l.162-1.623c-1.681-1.944-.47-8.265-.228-11.732.169-1.41 1.404-2.911 2.343-5.265l-.572-.098c1.094-1.909 6.247-7.665 8.634-7.369 1.156-1.452-.23-.005-.456-.37 2.54-2.63 3.338-1.858 5.052-2.33 1.848-1.098-1.587.427-.71-.419 3.195-.816 2.264-1.855 6.432-2.27.44.25-1.02.387-1.387.712 2.662-1.303 8.425-1.007 12.167.722 4.343 2.03 9.222 8.03 9.415 13.674l.219.06c-.11 2.243.343 4.838-.444 7.222l.54-1.128"/><path d="M-40.847-39.73l-.149.743c.697.947 1.25 1.973 2.14 2.713-.64-1.25-1.116-1.767-1.991-3.457m1.647-.064c-.369-.408-.587-.9-.831-1.388.233.86.712 1.598 1.158 2.35l-.327-.962m29.156-6.337l-.155.39a18.856 18.856 0 0 1-1.848 5.898 18.535 18.535 0 0 0 2.002-6.288m-23.039-28.551c.717-.263 1.762-.144 2.523-.317-.991.083-1.978.133-2.952.258l.43.059m-25.174 13.386c.165 1.53-1.15 2.123.292 1.114.773-1.74-.302-.48-.292-1.114m-1.695 7.079c.332-1.02.393-1.632.52-2.222-.918 1.173-.423 1.424-.52 2.222"/></g></svg>