<svg xmlns="http://www.w3.org/2000/svg" viewBox="0 0 83.999999 63.999994" height="64" width="84"><g color="#000" fill="#333"><path d="M64.445 0c-.802 0-1.454.652-1.454 1.455V6.47a1.455 1.455 0 0 0 2.908 0V1.455A1.454 1.454 0 0 0 64.445 0zM51.803 5.202a1.46 1.46 0 0 0-1.251.516c-.502.652-.402 1.555.2 2.056l3.913 3.21c.25.251.601.352.902.352.401 0 .803-.201 1.154-.552.502-.652.401-1.555-.2-2.057l-3.913-3.21a1.53 1.53 0 0 0-.805-.315zm25.262 0a1.403 1.403 0 0 0-.783.315l-3.913 3.21c-.601.502-.702 1.455-.2 2.057.25.35.702.552 1.104.552.35 0 .652-.1.953-.352l3.911-3.21c.602-.501.703-1.454.201-2.056a1.499 1.499 0 0 0-1.273-.516zm-12.62 5.432c-4.564 0-8.326 3.711-8.326 8.325v2.458h4.764V18.96a3.575 3.575 0 0 1 3.562-3.56 3.574 3.574 0 0 1 3.561 3.56v2.458h4.765V18.96c0-4.564-3.711-8.325-8.326-8.325zM47.091 16.25a1.455 1.455 0 0 0 0 2.91h4.965a1.456 1.456 0 0 0 0-2.91h-4.965zm29.643 0a1.456 1.456 0 0 0 0 2.91h5.015a1.455 1.455 0 0 0 0-2.91h-5.015z" style="isolation:auto;mix-blend-mode:normal" overflow="visible" opacity=".4" fill-rule="evenodd"/><path d="M54.163 21.417c-.902 0-1.605.702-1.605 1.605V38.22c0 .902.703 1.604 1.605 1.604h20.564c.903 0 1.605-.702 1.605-1.604V23.022c-.05-.903-.752-1.605-1.605-1.605H54.163zm-18.107 1.706c-1.103 0-2.006.802-2.006 1.855 0 1.104.753 1.806 1.856 1.806.1 0 .2 0 .251-.05-.2.802-.953 1.404-1.705 1.504H34.3v1.756h.2a4.277 4.277 0 0 0 2.408-1.103c.853-.803 1.304-2.007 1.304-3.411 0-1.355-.903-2.357-2.157-2.357zm-35.259.3v16.2h10.181v-3.41h-6.27v-12.79H.798zm25.429 1.806v3.01H24.42v2.808h1.856v4.815c0 .601.1 1.154.2 1.655.1.502.352.953.653 1.304.3.351.752.602 1.254.802.501.201 1.153.302 1.905.302.401 0 .803-.05 1.204-.1.401-.101.753-.151 1.003-.252l-.05-2.758c-.1.05-.3.1-.501.15-.2.05-.401.05-.602.05-.551 0-.903-.15-1.104-.401-.2-.25-.3-.651-.3-1.203v-4.364h2.658v-2.809h-2.658V25.23h-3.712zm38.168 2.207a2.12 2.12 0 0 1 2.108 2.106c.05.803-.401 1.505-1.054 1.856v2.057a1.06 1.06 0 0 1-1.054 1.053 1.06 1.06 0 0 1-1.053-1.053v-2.057c-.652-.35-1.053-1.053-1.053-1.856a2.12 2.12 0 0 1 2.106-2.106zm-46.193.452c-.853 0-1.655.15-2.407.45-.752.251-1.405.703-1.956 1.204a5.163 5.163 0 0 0-1.304 1.906c-.351.753-.502 1.555-.502 2.508 0 .953.15 1.806.502 2.558.35.752.802 1.405 1.354 1.906.601.502 1.253.903 2.006 1.153a7.567 7.567 0 0 0 2.408.402c1.153 0 2.206-.251 3.059-.652.853-.452 1.554-1.003 2.106-1.806l-2.608-1.655c-.25.35-.601.652-1.003.853-.4.25-.902.35-1.504.35-.301 0-.653-.05-.953-.15-.301-.1-.602-.25-.853-.45-.25-.151-.452-.403-.602-.653a2.477 2.477 0 0 1-.3-.853h8.275v-.903c0-.953-.15-1.805-.452-2.608a5.464 5.464 0 0 0-1.153-1.956 5.695 5.695 0 0 0-1.806-1.204 6.742 6.742 0 0 0-2.307-.4zm24.075.05c-.552 0-1.103.05-1.655.2-.552.1-1.053.35-1.504.652-.452.3-.804.652-1.105 1.154-.3.501-.451 1.053-.451 1.755 0 .502.101.953.302 1.354.2.351.451.702.752.953.3.251.652.451 1.053.602.401.15.803.251 1.204.351.752.15 1.353.351 1.705.502.35.2.552.451.552.802 0 .351-.15.602-.452.753-.3.15-.602.2-.903.2a3.36 3.36 0 0 1-1.554-.351 4.726 4.726 0 0 1-1.254-.902l-2.107 2.207c.552.551 1.304 1.003 2.207 1.303a8.08 8.08 0 0 0 2.708.452c.602 0 1.154-.05 1.756-.2.551-.151 1.103-.352 1.554-.653.502-.301.853-.703 1.154-1.204.301-.502.452-1.103.452-1.806 0-.551-.1-1.002-.3-1.403a2.766 2.766 0 0 0-.854-1.003 6.294 6.294 0 0 0-1.153-.653c-.452-.2-.854-.301-1.305-.402-.752-.15-1.253-.3-1.605-.45-.35-.15-.501-.402-.501-.703 0-.35.15-.551.451-.702.301-.15.603-.2.954-.2.451 0 .902.1 1.304.3.4.2.752.451 1.053.752l2.106-2.056c-.552-.552-1.254-.953-2.056-1.204a8.46 8.46 0 0 0-2.508-.4zM18.2 30.445c.752 0 1.354.2 1.705.652.341.438.537.926.548 1.504h-4.86c.05-.3.1-.601.25-.852.15-.25.3-.502.551-.702.251-.2.502-.351.803-.452.3-.1.652-.15 1.003-.15zM.797 42.182v16.2h11.285v-3.36H4.56V51.66h6.72v-3.11H4.56v-3.059h7.122v-3.31H.797zm75.435 1.806v3.009h-1.806v2.808h1.806v4.815c0 .602.1 1.154.2 1.656.1.501.351.953.652 1.304.301.35.753.601 1.254.802.502.2 1.154.3 1.907.3.4 0 .801-.05 1.202-.1.402-.1.753-.15 1.004-.25l-.05-2.759c-.1.05-.301.101-.502.151-.2.05-.4.05-.601.05-.552 0-.904-.15-1.104-.401-.201-.251-.301-.653-.301-1.204v-4.364h2.659v-2.808h-2.66v-3.01h-3.66zm-42.734 2.657c-.902 0-1.705.1-2.507.402a5.576 5.576 0 0 0-2.057 1.204c-.551.501-1.002 1.153-1.353 1.905s-.502 1.555-.502 2.508c0 .953.15 1.806.502 2.559.35.752.802 1.403 1.353 1.905a5.309 5.309 0 0 0 2.057 1.204c.752.25 1.605.402 2.507.402.803 0 1.606-.151 2.358-.402.703-.25 1.354-.602 1.806-1.053l-2.056-2.558a2.332 2.332 0 0 1-.904.652c-.4.15-.752.2-1.154.2-.4 0-.752-.1-1.103-.25-.35-.15-.601-.402-.852-.653a2.098 2.098 0 0 1-.552-.902c-.15-.351-.2-.703-.2-1.104 0-.401.05-.752.2-1.103.15-.351.351-.602.552-.903.2-.301.501-.501.802-.652.301-.15.652-.25 1.053-.25.352 0 .752.1 1.104.25.35.15.652.401.853.652l2.307-2.457c-.2-.25-.502-.452-.803-.653-.35-.2-.702-.35-1.053-.501-.35-.1-.752-.2-1.154-.3-.4-.05-.802-.102-1.204-.102zm12.239.051c-.702 0-1.304.2-1.856.552a3.402 3.402 0 0 0-1.254 1.403h-.05v-1.654h-3.611v11.385h3.761v-5.818c0-.25.05-.501.151-.802.1-.301.25-.603.45-.853.201-.251.453-.451.804-.652.351-.15.752-.25 1.254-.25h.45c.151 0 .352.05.502.1l.201-3.36c-.1 0-.2-.05-.35-.05h-.452zm-24.326.05c-.401 0-.752.05-1.103.15-.351.1-.652.251-.953.402-.251.15-.552.35-.753.601-.25.2-.4.452-.551.703H18v-1.555h-3.61v11.385h3.76v-6.169c0-.3.051-.602.152-.903.1-.3.25-.551.4-.802.201-.25.402-.401.653-.552.25-.15.55-.2.902-.2.351 0 .653.05.853.2.2.1.402.301.502.502.1.2.2.451.25.752.05.301.1.602.1.902v6.27h3.612V51.41c0-.602-.05-1.153-.2-1.704-.15-.552-.352-1.054-.703-1.505-.35-.401-.752-.803-1.304-1.054a4.69 4.69 0 0 0-1.956-.4zm47.097.1c-.853 0-1.605.15-2.207.502-.602.35-1.104.752-1.455 1.204h-.05v-1.405h-3.56V64h3.76v-6.77h.05c.352.5.854.851 1.456 1.152.652.25 1.304.402 2.006.402.852 0 1.655-.15 2.307-.502.652-.35 1.254-.803 1.705-1.355.452-.601.803-1.203 1.053-1.955.251-.752.351-1.505.351-2.308 0-.802-.15-1.554-.4-2.106a6.41 6.41 0 0 0-1.054-1.906 4.845 4.845 0 0 0-1.705-1.304c-.702-.351-1.455-.502-2.257-.502zm-21.267.151l4.765 11.184-.35.953c-.15.502-.402.904-.653 1.154-.25.251-.652.401-1.254.401-.2 0-.4 0-.601-.05l-.603-.15-.4 3.16c.25.1.6.15.952.2.401.05.753.05 1.104.05.702 0 1.354-.1 1.855-.25.502-.201.954-.402 1.355-.753.401-.35.702-.752 1.003-1.204.25-.501.502-1.003.752-1.604l5.066-13.09H56.27l-2.258 7.322h-.05l-2.557-7.323H47.24zm20.364 2.809c.451 0 .802.1 1.154.25.35.15.651.402.852.653.2.25.401.551.501.902.1.351.151.702.151 1.053s-.05.703-.15 1.104c-.1.351-.302.703-.502.953-.25.251-.501.501-.852.652-.301.15-.703.25-1.154.25-.452 0-.802-.1-1.153-.25s-.603-.4-.854-.652c-.25-.3-.4-.602-.551-.953-.15-.35-.201-.702-.201-1.053s.05-.703.2-1.054c.151-.351.302-.701.552-.952.251-.25.503-.502.854-.653.35-.15.701-.25 1.153-.25z" style="isolation:auto;mix-blend-mode:normal" overflow="visible"/></g></svg>