<svg xmlns="http://www.w3.org/2000/svg" xmlns:xlink="http://www.w3.org/1999/xlink" height="243.625" width="244.307"><title>OpenStreetMap logo 2011</title><defs><filter id="c" color-interpolation-filters="sRGB"><feBlend mode="multiply" in2="BackgroundImage"/></filter><clipPath id="b"><use xlink:href="#a" height="1" width="1"/></clipPath></defs><g clip-path="url(#b)" fill="none" transform="translate(-2.287 -1.858)" stroke="#333" filter="url(#c)"><path d="M17.41 152.32c33-2.5 38.25-3.5 36.25-10.25s-8.75-23.5-23-22.5-22.75-6.75-22.75-6.75" stroke-linecap="round" stroke-linejoin="round"/><path d="M19.16 178.32c18.25-10 28.75-8.5 35-11.5s13.25-5.75 15.75-9.5 5.75-11.5 5.75-18-3.5-36 3.25-43.5 17.25-26 26-23.25c2.188.688 4.047 1.64 5.758 2.68m24.493-28.43c-.25-7 5.5-14.25 20.25-17s23.5-11.5 23.5-11.5"/><path d="M16.16 162.07c15.25-1.5 22.25 3.5 31.5 1.75s13.25-3 17.75-5.75 6-3.75 6.25-6.5 1-12.5-3-22-12.5-31.5-8.25-38.75 5.25-21.5 15.75-24.5 21-6.25 27.75-1.25c3.376 2.5 6.563 6.063 9.813 9.031m9.188-22.28c-1.75-4-10.75-17-.25-26.75s36.25-8.25 36.25-8.25" stroke-linecap="round" stroke-linejoin="round"/><path d="M22.91 160.07c13.75 1 21.5 4.25 33.5-.5s13.5-5.25 13.75-8.75-.25-15.75-3-20-13-13.75-15.75-24.25.25-41 8.5-48.25 32-7.25 37.5-10.5 5.25-16.75 13-24.5 27-12.25 27-12.25m54.25 8.5c11.75 5 39 9.75 47.25 40.25M11.41 215.07c19-12.5 36-1.25 49-4s38.25-37.25 46-37m8.5-13.25c3-1.5 5.5 6 11.75 8s24.5-2.75 23.5-5.75-7-7.75-5.5-8.5 8.5 5 12.75 3.5m-78.25 76.5c13.5-11.5 23.25-25 28.5-27s12.75-3.75 15.75-8 2.5-10.75 5.25-12 3.75 5.75 8.75 6 36.75-5 42.75-11.75 32.25-12.5 32.5-14.5-1-4.75.25-5.5 24.75-6 24.75-6m-67.25 81.25c9-13.75 20.5-41 29.5-42s10.25-2.5 12.5-4.25 17 2.25 17 2.25" stroke-linecap="round" stroke-linejoin="round"/></g><path style="marker:none" id="a" d="M215.688 7.25s-24.25 9-31.75 10.5-21 5.25-21 5.25-9.75-4.25-22-8.5-29.75-5.5-29.75-5.5-3.25 3.5-22 8-27.5 5.75-27.5 5.75-18.5-9-31.5-11.5-24-2-24.75-1.75c0 0 7.5 13 11.75 27.75s6.25 25.5 6.25 25.5-5.5 12.75-8.25 24.75-5.75 23-5.75 23 5.75 16 9.25 30 3.75 24.25 3.75 24.25-4 10.25-7.5 24.25-5 30.75-5 30.75 5.52-1.16 16.843-.219L28.406 218c3.374-3.174 5.484-1.114 7.532 2.625.819.125 1.64.23 2.5.375 19.25 3.25 32.25 6 32.25 6s12.75-2.75 24-6.25 16.25-6.5 16.25-6.5 5.5.5 22.5 6.25 29.25 8.5 29.25 8.5 13-2.75 26-5.75 26.5-8 26.5-8-.75-5 4.25-24.5 8.75-28 8.75-28-.5-4.5-3.75-19.75c-.418-1.96-.895-3.907-1.407-5.813-12.46 15.145-31.18 24.782-52.125 24.782-37.516 0-67.937-30.904-67.937-69.031 0-38.128 30.42-69.032 67.937-69.032 25.793 0 48.216 14.605 59.719 36.125-1.474-5.004-4.635-16.207-6.688-27.031-2.75-14.5-8.25-25.75-8.25-25.75z" color="#000" overflow="visible" fill="none" stroke="#333" stroke-width="6" filter="url(#c)" enable-background="accumulate"/><path d="M54.192 17.258l-8.5 28.25 18 6.25 7.75 36.25-21 22.25 9 10.5-12 11.5.5 4.5 20.25 24.5 14-6.75 20.5 18.5-10.5 28.25 10.25 8.5-2.75 13" fill="none" stroke="#333" stroke-width="2" stroke-linecap="round" filter="url(#c)"/><path d="M102.192 209.508l12.5-27.75 11-7 27.5 15.75 20.5-3.75-.25-15.75-10.25-6 3.187-6.563" fill="none" stroke="#333" stroke-width="2" stroke-linecap="round" filter="url(#c)"/><g fill="none" stroke-width="3.75" stroke="#333"><path d="M215.688 7.25s-24.25 9-31.75 10.5-21 5.25-21 5.25c.565-.156 1.15.363 1.75 1.344a67.508 67.508 0 0 1 6.625-.313c25.246 0 47.259 14.007 58.968 34.782-1.568-5.39-4.416-15.649-6.344-25.813-2.75-14.5-8.25-25.75-8.25-25.75zM23.442 62.758s-5.5 12.75-8.25 24.75-5.75 23-5.75 23l50.625 16.28 15.781-58.905-52.406-5.125zm-1 102s-4 10.25-7.5 24.25-5 30.75-5 30.75.147-.046.437-.094c2.034-.338 11.219-1.5 28.063 1.344 19.25 3.25 32.25 6 32.25 6l1.469-52.5-.75.125-48.97-9.875zM111.188 9s-3.25 3.5-22 8-27.5 5.75-27.5 5.75c5.182 14.704 12.03 29.27 14.25 44.75l-.094.313 33.844-2.782c3.048-6.756 7.109-12.941 12.03-18.312-2.846-16.801-6.29-37.343-10.53-37.719z"/><path d="M105.75 113.594l-45.344 13.281-.343-.094-.126.469 12.25 46.5-.03.75 1.28-.219 24.5-24.531c5.064 3.748 12.12 10.4 15.75 15.75l-1.874 1.875 9.812-1.75.531.188.031-.063-4.53-29.812a67.73 67.73 0 0 1-11.907-22.344z"/><path d="M121.973 165.758l-11.031 48.5s5.5.5 22.5 6.25c2.125.718 4.163 1.405 6.125 2.03 1.962.626 3.855 1.186 5.625 1.72 10.617 3.199 17.5 4.75 17.5 4.75L175.41 183.6c-.513.183-1.019.381-1.532.563l-51.906-18.406zm100.808-29.477c-12.237 14.992-30.604 24.628-51.187 24.969l3.844 22.25-.032.094c17.84-6.36 35.382-13.387 52.782-20.844 0 0-.5-4.5-3.75-19.75a116.371 116.371 0 0 0-1.657-6.719z"/></g><path d="M97.94 149.762L31.87 215.83c.178.324.309.562.47.86-.668.216-1.387.663-2.179 1.408l-6.098 5.738c4.84 5.427 9.975 10.427 15.666 15.547l5.483-5.43c-1.62-1.767-2.936-4.034-4.11-6.344 1.98 1.562 3.727 2.435 6.516 3.97l66.069-66.067c-3.632-5.35-10.685-12.002-15.749-15.75z" stroke="#333" stroke-width="4" fill="none"/><path d="M121.506 141.944c-27.18-27.18-27.18-71.248 0-98.428 27.18-27.18 71.247-27.18 98.427 0 27.18 27.18 27.18 71.248 0 98.428-27.18 27.18-71.247 27.18-98.427 0zm2.953-2.953c26.093 26.092 67.413 27.077 93.506.984 26.092-26.093 25.108-67.413-.985-93.506-26.092-26.093-67.413-27.077-93.505-.984-26.093 26.093-25.109 67.413.984 93.506z" fill="#00080a" stroke="#333" stroke-width="6"/><path d="M170.719 25.916c-2.193 0-4.385.11-6.569.324l.377 2.414 4.27-1.793 2.193 14.016-4.771.746.588 3.762 13.697-2.145-.588-3.761-4.773.748-2.233-14.258c-.73-.024-1.46-.053-2.191-.053zm10.97.92c-.094 1.484.005 3.19.31 5.129.583 3.732 1.616 6.44 3.095 8.125 1.477 1.675 3.407 2.326 5.789 1.953 2.391-.374 4.035-1.584 4.93-3.63.785-1.797.999-4.246.644-7.347a66.444 66.444 0 0 0-4.672-1.74c.066.354.133.69.194 1.076.413 2.642.489 4.601.224 5.877-.264 1.277-.893 1.993-1.887 2.149-.983.154-1.795-.337-2.437-1.471-.642-1.134-1.17-3.022-1.584-5.664-.22-1.403-.34-2.601-.37-3.62a66.923 66.923 0 0 0-4.236-.837zm-26.75.963a66.62 66.62 0 0 0-8.388 2.642l.158 1.004 4.268-1.795 2.195 14.016-4.774.748.588 3.76 13.698-2.145-.588-3.76-4.774.747-2.383-15.217zm34.28 1.217a2.028 2.028 0 0 0-.371.025 1.751 1.751 0 0 0-1.192.719 1.77 1.77 0 0 0-.32 1.369 1.773 1.773 0 0 0 2.074 1.514c.511-.08.914-.322 1.207-.723a1.75 1.75 0 0 0 .32-1.354 1.773 1.773 0 0 0-.722-1.207 1.736 1.736 0 0 0-.996-.343zm-47.846 3.691a66.235 66.235 0 0 0-3.777 1.996c.35 1.068.662 2.401.924 4.07.413 2.643.489 4.601.224 5.877-.264 1.277-.893 1.993-1.887 2.149-.983.154-1.795-.336-2.437-1.47-.642-1.135-1.17-3.023-1.584-5.665-.1-.64-.18-1.235-.24-1.795a66.625 66.625 0 0 0-3.967 2.969c.597 3.468 1.595 6.016 3.006 7.623 1.477 1.675 3.407 2.328 5.789 1.955 2.391-.374 4.035-1.586 4.93-3.633.894-2.047 1.048-4.94.462-8.681-.335-2.14-.818-3.93-1.443-5.395zm59.316.309c.572 1.815 1.314 3.246 2.225 4.285 1.478 1.675 3.407 2.326 5.79 1.953a7.848 7.848 0 0 0 1.544-.402 66.308 66.308 0 0 0-9.559-5.836zm-64.93 4.37a2.05 2.05 0 0 0-.372.026 1.76 1.76 0 0 0-1.192.72 1.766 1.766 0 0 0-.318 1.368 1.773 1.773 0 0 0 2.074 1.514c.511-.08.912-.321 1.205-.723.293-.401.401-.852.323-1.353a1.773 1.773 0 0 0-.723-1.208 1.736 1.736 0 0 0-.996-.343zm-14.241 10.157a67.173 67.173 0 0 0-4.682 5.666l10.209-1.598-.588-3.761-4.773.748-.166-1.055zm102.892 5.416l-1.226.506.601 3.847 2.836-1.19a66.57 66.57 0 0 0-2.21-3.163zm-11.812.824a7.271 7.271 0 0 0-.73.002 8.501 8.501 0 0 0-.876.092c-2.382.373-4.019 1.588-4.912 3.644-.895 2.047-1.049 4.94-.463 8.682.585 3.732 1.617 6.44 3.096 8.125 1.477 1.675 3.405 2.326 5.787 1.953 2.391-.374 4.035-1.584 4.93-3.63.894-2.047 1.048-4.943.463-8.684-.588-3.751-1.62-6.464-3.098-8.139-1.131-1.283-2.53-1.964-4.197-2.045zm-16.631 2.846l-4.121.646-4.303 1.77.603 3.848 4.268-1.795 2.195 14.015-4.773.748.588 3.76 13.7-2.144-.59-3.76-4.774.746-2.793-17.834zm15.957.836c.83.005 1.526.503 2.088 1.496.642 1.134 1.17 3.028 1.586 5.68.413 2.642.487 4.6.222 5.877-.264 1.276-.891 1.992-1.884 2.148-.984.154-1.798-.336-2.44-1.47-.642-1.135-1.17-3.023-1.584-5.665-.415-2.651-.489-4.616-.225-5.892.265-1.277.888-1.993 1.872-2.147.124-.02.246-.028.365-.027zm-34.965 1.898a7.271 7.271 0 0 0-.73.002 8.502 8.502 0 0 0-.875.092c-2.382.373-4.02 1.588-4.913 3.645-.894 2.046-1.05 4.94-.464 8.681.584 3.732 1.616 6.44 3.095 8.125 1.478 1.676 3.408 2.328 5.79 1.955 2.39-.374 4.034-1.586 4.929-3.633.895-2.046 1.049-4.94.463-8.681-.587-3.751-1.62-6.465-3.098-8.14-1.131-1.283-2.53-1.965-4.197-2.046zm51.715.114l1.574 10.056-4.773.748.59 3.76 8.4-1.314a66.343 66.343 0 0 0-5.791-13.25zm-68.346 2.734l-4.123.644-4.3 1.772.6 3.846 4.27-1.793 2.194 14.015-4.772.746.588 3.762 13.697-2.144-.587-3.762-4.774.748-2.793-17.834zm15.955.834c.83.005 1.526.503 2.088 1.496.642 1.134 1.17 3.028 1.586 5.68.414 2.642.49 4.6.225 5.877-.265 1.276-.894 1.993-1.887 2.148-.984.154-1.796-.336-2.438-1.47-.642-1.135-1.17-3.023-1.584-5.665-.415-2.651-.49-4.616-.226-5.892.264-1.277.89-1.99 1.873-2.145.124-.02.245-.03.363-.03zm36.555.209a2.05 2.05 0 0 0-.373.025 1.751 1.751 0 0 0-1.192.719 1.77 1.77 0 0 0-.318 1.37c.08.51.32.911.72 1.204.4.283.853.387 1.354.309.511-.08.913-.321 1.205-.723.293-.401.401-.854.323-1.355a1.77 1.77 0 0 0-.723-1.205 1.736 1.736 0 0 0-.996-.344zM142.508 65l-4.121.646-4.303 1.77.603 3.848 4.268-1.795 2.195 14.015-4.773.748.588 3.76 13.697-2.144-.588-3.76-4.773.746L142.508 65zM123.5 67.734a7.272 7.272 0 0 0-.73.002 8.502 8.502 0 0 0-.875.092c-2.382.373-4.021 1.588-4.915 3.645-.894 2.046-1.048 4.94-.462 8.681.584 3.732 1.616 6.44 3.095 8.125 1.478 1.676 3.408 2.328 5.79 1.955 2.39-.374 4.032-1.586 4.927-3.632.895-2.047 1.05-4.94.465-8.682-.587-3.751-1.62-6.465-3.098-8.14-1.13-1.283-2.53-1.965-4.197-2.046zm53.697 1.1a2.05 2.05 0 0 0-.373.025 1.75 1.75 0 0 0-1.19.721 1.77 1.77 0 0 0-.32 1.367 1.773 1.773 0 0 0 2.075 1.514c.51-.08.914-.321 1.207-.723a1.75 1.75 0 0 0 .32-1.353 1.773 1.773 0 0 0-.723-1.207 1.736 1.736 0 0 0-.996-.344zm-69.64 2.086a67.324 67.324 0 0 0-1.192 3.867c.262.237.509.528.729.916.642 1.135 1.168 3.028 1.584 5.68.413 2.642.489 4.6.224 5.877-.264 1.276-.893 1.993-1.886 2.148-.984.154-1.796-.336-2.438-1.47a7.583 7.583 0 0 1-.418-.9 67.208 67.208 0 0 0-.254 5.593c1.076.47 2.298.608 3.676.392 2.391-.374 4.035-1.584 4.93-3.63.894-2.047 1.048-4.943.463-8.684-.588-3.751-1.62-6.463-3.098-8.139-.677-.767-1.452-1.313-2.32-1.65zm15.267.496c.83.005 1.526.504 2.088 1.496.642 1.134 1.17 3.028 1.586 5.68.414 2.642.49 4.602.225 5.879-.265 1.276-.894 1.99-1.887 2.146-.984.154-1.796-.336-2.438-1.47-.642-1.135-1.17-3.022-1.584-5.665-.415-2.651-.49-4.616-.226-5.892.264-1.276.887-1.99 1.871-2.145.124-.02.247-.03.365-.029zm.914 5.79a2.05 2.05 0 0 0-.373.024c-.501.079-.898.32-1.191.721a1.766 1.766 0 0 0-.319 1.367 1.773 1.773 0 0 0 2.075 1.514 1.77 1.77 0 0 0 1.205-.723c.293-.401.4-.852.322-1.353a1.773 1.773 0 0 0-.723-1.207 1.736 1.736 0 0 0-.996-.344zm-17.818 2.79a1.922 1.922 0 0 0-.822.158 67.098 67.098 0 0 0-.508 3.012c.054.05.106.103.168.148.4.284.85.388 1.351.309a1.77 1.77 0 0 0 1.207-.723c.293-.401.4-.854.32-1.355a1.77 1.77 0 0 0-.722-1.205 1.73 1.73 0 0 0-.994-.344zm131.434 8.088l-4.07.639-4.304 1.77.604 3.847 4.268-1.795 2.195 14.016-4.774.748.59 3.76 3.24-.508a67.086 67.086 0 0 0 2.25-22.477zm-17.768 2.783l-4.123.647-4.3 1.77.6 3.847 4.27-1.795 2.194 14.016-4.774.748.59 3.76 13.697-2.145-.59-3.762-4.771.748-2.793-17.834zm-19.01 2.735a7.272 7.272 0 0 0-.73.002 8.502 8.502 0 0 0-.875.091c-2.382.373-4.02 1.588-4.912 3.645-.895 2.047-1.05 4.94-.463 8.681.584 3.732 1.614 6.44 3.093 8.125 1.478 1.676 3.408 2.327 5.79 1.954 2.39-.375 4.035-1.584 4.93-3.631.894-2.047 1.048-4.942.462-8.684-.587-3.75-1.62-6.463-3.098-8.139-1.13-1.282-2.53-1.963-4.197-2.044zm-17.818 2.789a7.256 7.256 0 0 0-.73.002 8.553 8.553 0 0 0-.878.093c-2.381.373-4.019 1.587-4.912 3.643-.894 2.047-1.048 4.942-.463 8.683.585 3.732 1.617 6.44 3.096 8.126 1.478 1.675 3.407 2.326 5.79 1.953 2.39-.375 4.032-1.586 4.927-3.633.895-2.047 1.049-4.94.463-8.682-.588-3.75-1.618-6.463-3.096-8.138-1.131-1.283-2.53-1.966-4.197-2.047zm17.142.892c.831.005 1.529.504 2.09 1.496.642 1.135 1.17 3.028 1.586 5.68.414 2.642.487 4.6.223 5.877-.265 1.276-.894 1.993-1.887 2.148-.983.154-1.795-.336-2.437-1.47-.642-1.135-1.17-3.022-1.584-5.664-.416-2.652-.49-4.617-.225-5.893.264-1.276.888-1.992 1.871-2.146a2.25 2.25 0 0 1 .363-.028zm-33.773 1.955l-4.123.647-4.303 1.77.604 3.847 4.267-1.795 2.196 14.016-4.774.748.59 3.76 13.697-2.145-.59-3.76-4.773.746-2.791-17.834zm15.955.836c.83.005 1.526.504 2.088 1.496.642 1.135 1.17 3.028 1.586 5.68.414 2.642.489 4.6.224 5.877-.264 1.276-.893 1.993-1.886 2.148-.984.154-1.798-.336-2.44-1.47-.642-1.135-1.168-3.024-1.582-5.666-.415-2.652-.49-4.615-.226-5.89.264-1.277.887-1.993 1.87-2.147.125-.02.247-.029.366-.028zm-34.965 1.899a7.272 7.272 0 0 0-.73.002 8.5 8.5 0 0 0-.875.091c-2.382.373-4.02 1.589-4.912 3.645-.895 2.047-1.05 4.94-.463 8.682.584 3.731 1.614 6.44 3.093 8.125 1.478 1.675 3.408 2.326 5.79 1.953 2.39-.375 4.035-1.584 4.93-3.631.894-2.047 1.048-4.942.462-8.684-.587-3.75-1.62-6.463-3.098-8.138-1.13-1.283-2.53-1.964-4.197-2.045zm53.7 1.1a2.05 2.05 0 0 0-.374.025 1.751 1.751 0 0 0-1.191.718 1.77 1.77 0 0 0-.318 1.37c.08.51.319.912.72 1.205.4.283.852.387 1.354.308.51-.08.912-.32 1.205-.722.293-.402.4-.854.322-1.356a1.77 1.77 0 0 0-.722-1.205 1.736 1.736 0 0 0-.997-.344zm-71.52 1.689a7.254 7.254 0 0 0-.73.002 8.518 8.518 0 0 0-.876.093c-2.381.373-4.019 1.587-4.912 3.643-.894 2.047-1.048 4.942-.463 8.684.585 3.731 1.617 6.44 3.096 8.125 1.478 1.675 3.405 2.326 5.787 1.953 2.392-.375 4.035-1.586 4.93-3.633.895-2.047 1.049-4.94.463-8.682-.588-3.75-1.618-6.463-3.096-8.138-1.131-1.283-2.532-1.966-4.2-2.047zm17.144.892c.831.005 1.529.504 2.09 1.496.642 1.135 1.171 3.028 1.586 5.68.414 2.642.487 4.6.223 5.877-.265 1.276-.894 1.993-1.887 2.148-.983.154-1.795-.336-2.437-1.47-.642-1.135-1.17-3.022-1.584-5.664-.416-2.652-.491-4.617-.227-5.893.265-1.276.89-1.992 1.873-2.146a2.25 2.25 0 0 1 .363-.028zm36.555.207a2.05 2.05 0 0 0-.373.026 1.751 1.751 0 0 0-1.191.72 1.77 1.77 0 0 0-.319 1.37 1.777 1.777 0 0 0 2.074 1.512c.512-.08.913-.322 1.206-.723.292-.402.4-.852.322-1.354a1.77 1.77 0 0 0-.723-1.205 1.739 1.739 0 0 0-.996-.346zm-70.33 1.748l-4.121.647-2.549 1.049a66.712 66.712 0 0 0 1.047 3.644l2.07-.87 1.559 9.944a66.255 66.255 0 0 0 4.176 7.37l5.974-.936-.59-3.76-4.773.746-2.793-17.834zm15.957.836c.83.005 1.526.504 2.088 1.496.642 1.135 1.17 3.028 1.586 5.68.414 2.642.487 4.6.223 5.877-.265 1.276-.892 1.993-1.885 2.148-.984.154-1.798-.336-2.44-1.47-.642-1.135-1.17-3.024-1.584-5.666-.415-2.652-.489-4.615-.224-5.89.264-1.277.887-1.993 1.87-2.147.125-.02.247-.028.366-.028zm18.734 2.998a2.05 2.05 0 0 0-.373.026 1.751 1.751 0 0 0-1.191.719 1.77 1.77 0 0 0-.32 1.369 1.778 1.778 0 0 0 2.074 1.514c.51-.08.914-.322 1.207-.723.293-.402.399-.854.32-1.356a1.767 1.767 0 0 0-.72-1.205 1.737 1.737 0 0 0-.997-.344zm-17.82 2.79a2.05 2.05 0 0 0-.373.025c-.501.078-.899.32-1.191.72a1.77 1.77 0 0 0-.319 1.37 1.771 1.771 0 0 0 2.075 1.511c.51-.08.912-.32 1.205-.722.292-.402.4-.852.322-1.354a1.77 1.77 0 0 0-.723-1.205 1.739 1.739 0 0 0-.996-.346zm94.785 12.433a7.27 7.27 0 0 0-.73.002 8.5 8.5 0 0 0-.875.092c-2.382.373-4.02 1.588-4.912 3.644-.895 2.047-1.049 4.94-.463 8.682.068.437.144.858.224 1.268.132-.13.269-.25.399-.38a67.541 67.541 0 0 0 3.402-3.697c-.153-1.589-.144-2.853.043-3.756.265-1.276.89-1.992 1.873-2.146a2.25 2.25 0 0 1 .363-.027c.636.003 1.19.302 1.668.884a66.455 66.455 0 0 0 2.254-3.406c-.937-.711-2.018-1.1-3.246-1.16zm-17.82 2.79a7.254 7.254 0 0 0-.73.001 8.516 8.516 0 0 0-.876.094c-2.381.373-4.018 1.586-4.912 3.642-.894 2.047-1.048 4.943-.463 8.684.585 3.732 1.615 6.44 3.094 8.125a6.5 6.5 0 0 0 .977.894 66.262 66.262 0 0 0 4.168-2.552c-.948.116-1.735-.371-2.36-1.475-.642-1.134-1.17-3.024-1.584-5.666-.415-2.652-.49-4.616-.226-5.892.264-1.277.89-1.99 1.873-2.145.124-.02.245-.028.363-.027.83.005 1.528.503 2.09 1.496.642 1.134 1.17 3.026 1.586 5.678.414 2.642.487 4.602.223 5.878a3.798 3.798 0 0 1-.366 1.038 66.902 66.902 0 0 0 4.786-3.743c-.012-1.163-.129-2.445-.348-3.845-.588-3.751-1.62-6.464-3.098-8.139-1.131-1.283-2.53-1.966-4.197-2.047zm-16.63 2.847l-4.122.646-4.303 1.77.604 3.847 4.267-1.795 2.196 14.016-4.774.748.588 3.76 13.7-2.145-.59-3.761-4.774.748-2.793-17.834zm-17.82 2.79l-4.122.645-4.303 1.772.603 3.845 4.268-1.792 2.195 14.015-4.773.746.59 3.762 13.697-2.145-.59-3.761-4.773.748-2.791-17.834zm-19.009 2.733a7.257 7.257 0 0 0-.73.002 8.516 8.516 0 0 0-.875.094c-2.382.373-4.02 1.586-4.913 3.642-.894 2.047-1.048 4.943-.463 8.684.312 1.988.754 3.677 1.319 5.084a66.706 66.706 0 0 0 11.344 3.12 6.16 6.16 0 0 0 1.15-1.759c.895-2.046 1.049-4.94.463-8.681-.587-3.751-1.62-6.464-3.098-8.139-1.131-1.283-2.53-1.965-4.197-2.047zm53.7 1.1a2.05 2.05 0 0 0-.374.025 1.76 1.76 0 0 0-1.191.72c-.293.402-.4.859-.32 1.37.08.511.32.912.722 1.205.4.283.852.385 1.354.307a1.77 1.77 0 0 0 1.205-.723 1.75 1.75 0 0 0 .32-1.353 1.767 1.767 0 0 0-.72-1.206 1.739 1.739 0 0 0-.997-.345zm-70.33 1.748l-4.122.646-4.303 1.77.18 1.144a66.811 66.811 0 0 0 2.383 1.88l2.308-.971.463 2.953a66.339 66.339 0 0 0 4.707 2.902l-1.617-10.324zm15.954.836c.83.005 1.528.503 2.09 1.496.642 1.134 1.17 3.028 1.586 5.68.414 2.642.487 4.6.223 5.876-.265 1.277-.894 1.993-1.887 2.149-.984.154-1.796-.336-2.438-1.47-.642-1.135-1.17-3.025-1.584-5.667-.415-2.652-.49-4.614-.226-5.89.264-1.277.89-1.993 1.873-2.147a2.25 2.25 0 0 1 .363-.027zm.916 5.787a2.05 2.05 0 0 0-.373.025c-.501.079-.898.32-1.191.721-.293.401-.4.858-.32 1.37.08.51.32.911.722 1.204.4.283.85.385 1.352.307.51-.08.914-.321 1.207-.723a1.75 1.75 0 0 0 .32-1.353 1.77 1.77 0 0 0-.723-1.205 1.733 1.733 0 0 0-.994-.346z" fill="#333"/><path d="M112.494 122.535l-5.752 4.09a72.149 72.149 0 0 0 8.117 12.123l-12.423 12.424c2.384 1.921-.859.195 4.912 4.732 5.259 4.756 1.798 3.093 4.931 5.11l12.422-12.424a72.142 72.142 0 0 0 12.123 8.117l4.09-5.752a65.282 65.282 0 0 1-16.455-11.965 65.282 65.282 0 0 1-11.965-16.455zm-21.44 30.174l-64.099 64.1c5.13 6.894 13.17 14.53 19.686 19.685l64.1-64.1c-1.085-4.352-5.062-7.56-8.52-11.019l-.05-.049c-3.457-3.458-7.625-8.394-11.116-8.617z" fill="#333" stroke="#333" stroke-width="4"/></svg>