<svg xmlns="http://www.w3.org/2000/svg" width="207.236" height="68.264" viewBox="0 0 194.28414 63.997057"><g fill="#333"><path d="M23.611.482v.002a23.72 23.72 0 0 0-5.01.489C10.328 2.693 3.48 9.083 1.249 17.17.605 19.5.484 20.48.486 23.348c.002 2.868.106 3.71.752 6.05 2.523 9.136 10.646 15.84 20.19 16.665 3.248.28 6.54-.165 9.617-1.25l-.426.232 9.693 16.478.024-.011a3.567 3.567 0 0 0 3.094 2c1.964.069 3.616-1.432 3.691-3.356l-3.562-.133 3.562.106a3.436 3.436 0 0 0-.58-2.008l.016-.01-9.631-16.37c.325-.235.647-.476.96-.727 3.531-2.838 6.297-6.984 7.553-11.323.739-2.738.666-5.168.666-5.168-.036-1.653-1.48-2.992-3.287-3.046-1.786-.051-3.514.616-3.785 3.082l-.066.521c-.39 3.778-2.5 7.706-5.46 10.16-3.09 2.565-6.767 3.806-10.823 3.656-2.718-.1-5.134-.794-7.372-2.117-3.771-2.23-6.491-5.955-7.398-10.13-1.234-5.682.788-11.678 5.162-15.297C15.742 9.145 18.6 7.982 22.1 7.67c4.032-.359 8.257 1.006 11.464 3.703l.674.566-3.71 3.49 14.808 2.71-2.98-14.221-3.002 2.945-.792-.683c-2.952-2.554-6.253-4.237-10.04-5.123a22.48 22.48 0 0 0-4.91-.575zm113.793 6.082c-1.929 0-3.135 1.103-3.472 3.165l-4.389 26.076c-.048.335-.098.671-.098.959 0 1.677.917 2.59 2.557 2.59 2.315 0 3.232-1.057 3.666-3.55l4.437-26.075c.049-.24.05-.48.05-.72 0-1.533-.966-2.445-2.75-2.445zm-50.74.143c-3.376 0-4.486.768-4.969 3.645L77.5 35.088c-.096.48-.098.86-.098 1.244 0 2.301 1.544 2.926 4.631 2.926h13.022c2.652 0 4.244-1.344 4.244-3.453 0-1.486-1.06-2.301-3.086-2.301H83.914l1.93-11.649h11.574c2.99 0 4.34-.91 4.34-3.115 0-1.63-.963-2.3-3.037-2.3H86.76l.722-4.124h11.432c3.039 0 4.533-1.008 4.533-3.117 0-1.821-1.013-2.492-3.183-2.492h-13.6zm27.035 0c-3.376 0-4.486.768-4.969 3.645l-4.341 25.453c-.049.335-.096.624-.096.912 0 1.726.964 2.637 2.748 2.637 2.122 0 3.04-1.152 3.475-3.55l2.363-13.949h9.451c2.99 0 4.39-.91 4.39-3.115 0-1.63-1.013-2.3-3.087-2.3h-9.838l.723-4.124h9.548c3.039 0 4.582-1.008 4.582-3.117 0-1.821-1.01-2.492-3.181-2.492h-11.768z"/><path style="isolation:auto;mix-blend-mode:normal;marker:none" d="M191.68 5.893c-1.737 0-2.893 1.006-3.23 2.828l-1.159 6.424h-.387c-4.582 0-8.296.864-11.045 2.59-4.63 2.876-7.474 7.86-7.474 12.75 0 3.115 1.253 5.705 3.568 7.286 1.785 1.199 4.535 1.487 8.442 1.487h6.125c1.736 0 2.748-.96 3.085-2.877l4.631-27.42c.049-.288.047-.528.047-.768 0-1.486-.915-2.3-2.603-2.3zM74.004 14.857c-2.17 0-4.004.911-5.547 2.733v-.287c0-1.726-.771-2.303-2.17-2.303-1.93 0-2.942.912-3.28 3.021l-2.99 18.073a4.35 4.35 0 0 0-.048.765c0 1.582.917 2.541 2.556 2.541 1.833 0 2.845-1.101 3.23-3.306l1.593-9.205c.675-3.98 1.11-5.848 4.293-6.184 1.205-.144 2.652.145 3.955-.67.916-.575 1.447-1.487 1.447-2.59 0-1.725-1.013-2.588-3.04-2.588zm83.79.05c-2.459 0-4.775.958-7.187 2.827.049-.191.05-.383.05-.527 0-1.438-.916-2.254-2.46-2.254-2.074 0-3.137.911-3.474 3.068l-3.037 18.073a4.353 4.353 0 0 0-.05.765c0 1.582.964 2.541 2.604 2.541 1.833 0 2.847-1.101 3.233-3.306l1.687-9.875c.675-3.931 3.04-6.184 6.367-6.184 2.364 0 3.52 1.103 3.52 3.26 0 .431-.047 1.245-.24 2.348l-1.688 10.45c-.048.24-.049.48-.049.72 0 1.534 1.013 2.54 2.702 2.54 1.784 0 2.846-1.054 3.232-3.26l1.928-11.456c.144-.96.193-1.919.193-2.877 0-4.123-2.893-6.854-7.33-6.854zm28.628 5.366l-2.219 13.471c-1.399.096-2.506.096-3.326.096-4.244 0-6.174-.958-6.174-3.93 0-5.273 4.436-9.445 11.719-9.637z" color="#bebebe" overflow="visible"/></g></svg>