<?xml version="1.0" encoding="UTF-8" standalone="no"?>
<!-- Created with Inkscape (http://www.inkscape.org/) -->

<svg
   xmlns:dc="http://purl.org/dc/elements/1.1/"
   xmlns:cc="http://creativecommons.org/ns#"
   xmlns:rdf="http://www.w3.org/1999/02/22-rdf-syntax-ns#"
   xmlns:svg="http://www.w3.org/2000/svg"
   xmlns="http://www.w3.org/2000/svg"
   xmlns:sodipodi="http://sodipodi.sourceforge.net/DTD/sodipodi-0.dtd"
   xmlns:inkscape="http://www.inkscape.org/namespaces/inkscape"
   viewBox="0 0 640 128"
   id="svg2"
   inkscape:label="Weblate logo"
   version="1.1"
   inkscape:version="0.92.4 (5da689c313, 2019-01-14)"
   sodipodi:docname="weblate_old.svg">
  <defs
     id="defs3">
    <linearGradient
       id="linearGradient-1"
       y2="27.62641"
       x2="49.404206"
       y1="27.62641"
       x1="0.19824974"
       gradientTransform="scale(0.98308439,1.0172067)"
       gradientUnits="userSpaceOnUse">
      <stop
         id="stop3817"
         offset="0%"
         stop-color="#00D2E6" />
      <stop
         id="stop3819"
         offset="100%"
         stop-color="#2ECCAA" />
    </linearGradient>
    <linearGradient
       id="linearGradient-2"
       y2="56.981044"
       x2="49.896334"
       y1="68.943423"
       x1="24.5086"
       gradientTransform="scale(1.1630616,0.85979966)"
       gradientUnits="userSpaceOnUse">
      <stop
         id="stop3822"
         offset="0%"
         stop-opacity="0"
         stop-color="#000000" />
      <stop
         id="stop3824"
         offset="51.4125333%"
         stop-color="#000000" />
      <stop
         id="stop3826"
         offset="100%"
         stop-opacity="0"
         stop-color="#000000" />
    </linearGradient>
    <linearGradient
       id="linearGradient-3"
       y2="28.824478"
       x2="51.788335"
       y1="28.824478"
       x1="100.91104"
       gradientTransform="scale(0.98308418,1.0172069)"
       gradientUnits="userSpaceOnUse">
      <stop
         id="stop3829"
         offset="0%"
         stop-color="#1FA385" />
      <stop
         id="stop3831"
         offset="100%"
         stop-color="#2ECCAA" />
    </linearGradient>
    <linearGradient
       id="linearGradient-1-3"
       y2="27.62641"
       x2="49.404206"
       y1="27.62641"
       x1="0.19824974"
       gradientTransform="scale(0.98308439,1.0172067)"
       gradientUnits="userSpaceOnUse">
      <stop
         id="stop3875"
         offset="0%"
         stop-color="#00D2E6" />
      <stop
         id="stop3877"
         offset="100%"
         stop-color="#2ECCAA" />
    </linearGradient>
    <linearGradient
       id="linearGradient-2-6"
       y2="56.981044"
       x2="49.896334"
       y1="68.943423"
       x1="24.5086"
       gradientTransform="scale(1.1630616,0.85979966)"
       gradientUnits="userSpaceOnUse">
      <stop
         id="stop3880"
         offset="0%"
         stop-opacity="0"
         stop-color="#000000" />
      <stop
         id="stop3882"
         offset="51.4125333%"
         stop-color="#000000" />
      <stop
         id="stop3884"
         offset="100%"
         stop-opacity="0"
         stop-color="#000000" />
    </linearGradient>
    <linearGradient
       id="linearGradient-3-7"
       y2="28.824478"
       x2="51.788335"
       y1="28.824478"
       x1="100.91104"
       gradientTransform="scale(0.98308418,1.0172069)"
       gradientUnits="userSpaceOnUse">
      <stop
         id="stop3887"
         offset="0%"
         stop-color="#1FA385" />
      <stop
         id="stop3889"
         offset="100%"
         stop-color="#2ECCAA" />
    </linearGradient>
  </defs>
  <sodipodi:namedview
     id="base"
     pagecolor="#ffffff"
     bordercolor="#666666"
     borderopacity="1.0"
     inkscape:pageopacity="0.0"
     inkscape:pageshadow="2"
     inkscape:zoom="1.53125"
     inkscape:cx="294.53061"
     inkscape:cy="90.122449"
     inkscape:document-units="px"
     inkscape:current-layer="layer1"
     showgrid="false"
     inkscape:window-width="1920"
     inkscape:window-height="1050"
     inkscape:window-x="0"
     inkscape:window-y="0"
     inkscape:window-maximized="1"
     showguides="true"
     inkscape:guide-bbox="true">
    <sodipodi:guide
       position="166.53061,235.10204"
       orientation="0,1"
       id="guide3867"
       inkscape:locked="false" />
    <sodipodi:guide
       position="285.49414,10.25586"
       orientation="0,1"
       id="guide3869"
       inkscape:locked="false" />
  </sodipodi:namedview>
  <metadata
     id="metadata6">
    <rdf:RDF>
      <cc:Work
         rdf:about="">
        <dc:format>image/svg+xml</dc:format>
        <dc:type
           rdf:resource="http://purl.org/dc/dcmitype/StillImage" />
        <dc:title />
      </cc:Work>
    </rdf:RDF>
  </metadata>
  <g
     inkscape:label="Vrstva 1"
     inkscape:groupmode="layer"
     id="layer1"
     transform="translate(0,-924.36218)">
    <path
       id="text2996"
       transform="translate(0,924.36218)"
       style="color:#000000;font-style:oblique;font-variant:normal;font-weight:normal;font-stretch:normal;font-size:100px;line-height:125%;font-family:'Latin Modern Roman Caps';-inkscape-font-specification:'Latin Modern Roman Caps, Oblique';text-indent:0;text-align:start;text-decoration:none;text-decoration-line:none;text-decoration-style:solid;text-decoration-color:#000000;letter-spacing:0px;word-spacing:0px;text-transform:none;direction:ltr;block-progression:tb;writing-mode:lr-tb;baseline-shift:baseline;text-anchor:start;white-space:normal;clip-rule:nonzero;display:inline;overflow:visible;visibility:visible;opacity:1;isolation:auto;mix-blend-mode:normal;color-interpolation:sRGB;color-interpolation-filters:linearRGB;solid-color:#000000;solid-opacity:1;fill:#333333;fill-opacity:1;fill-rule:nonzero;stroke:none;stroke-width:1;stroke-linecap:butt;stroke-linejoin:miter;stroke-miterlimit:4;stroke-dasharray:none;stroke-dashoffset:0;stroke-opacity:1;color-rendering:auto;image-rendering:auto;shape-rendering:auto;text-rendering:auto;enable-background:accumulate"
       d="M 361.62305,3.3046875 V 79.28125 h 17.48047 v -7.910156 c 2.40885,3.190104 5.07812,5.55013 8.00781,7.080078 2.92969,1.497396 6.29883,2.246094 10.10742,2.246094 6.73828,0 12.27214,-2.669271 16.60156,-8.007813 4.32943,-5.371094 6.49414,-12.272135 6.49414,-20.703125 0,-8.430989 -2.16471,-15.315755 -6.49414,-20.654297 -4.32942,-5.371093 -9.86328,-8.05664 -16.60156,-8.05664 -3.80859,0 -7.17773,0.764977 -10.10742,2.294921 -2.92969,1.497396 -5.59896,3.841147 -8.00781,7.03125 V 3.3046875 Z m 71.67968,0 V 79.28125 H 450.7832 V 3.3046875 Z M 181.59375,6.3808594 198.92773,79.28125 h 21.67969 l 13.08594,-55.419922 13.23242,55.419922 h 21.67969 l 17.1875,-72.9003906 h -17.87109 l -12.59766,52.9785156 -12.5,-52.9785156 h -18.11524 l -12.5,52.9785156 L 199.61133,6.3808594 Z M 536.86719,9.0664062 V 24.59375 h -8.69141 v 12.5 h 8.69141 v 23.193359 c 0,6.901042 1.43229,11.800131 4.29687,14.697266 2.89714,2.864583 7.79623,4.296875 14.69727,4.296875 h 14.99023 v -12.5 h -8.98437 c -2.99479,0 -4.99675,-0.439453 -6.00586,-1.318359 -1.00912,-0.911459 -1.29553,-2.646107 -1.51367,-5.175782 V 37.09375 h 18.01757 v -12.5 H 554.34766 V 9.0664062 Z M 320.07031,23.275391 c -9.4401,0 -16.86198,2.555338 -22.26562,7.666015 -5.3711,5.110677 -8.05664,12.125651 -8.05664,21.044922 0,9.082031 2.73437,16.145833 8.20312,21.191406 5.5013,5.013021 13.19984,7.519532 23.09571,7.519532 4.13411,0 8.26822,-0.406901 12.40234,-1.220704 4.13411,-0.78125 8.26823,-1.953124 12.40234,-3.515624 V 62.484375 c -4.06901,2.213542 -8.04036,3.873698 -11.91406,4.980469 -3.84115,1.074218 -7.60091,1.611328 -11.2793,1.611328 -4.55729,0 -8.10547,-1.025391 -10.64453,-3.076172 -2.53906,-2.050781 -4.02018,-5.126953 -4.44336,-9.228516 h 40.86914 v -4.980468 c 0,-8.658855 -2.58789,-15.576172 -7.76367,-20.751954 -5.14323,-5.175781 -12.01172,-7.763671 -20.60547,-7.763671 z m 170.89844,0 c -3.77604,0 -7.55207,0.24414 -11.32813,0.732421 -3.77604,0.45573 -7.5358,1.139323 -11.27929,2.050782 v 13.330078 c 2.76693,-1.497396 5.76172,-2.620443 8.98437,-3.369141 3.22266,-0.748698 6.70573,-1.123047 10.44922,-1.123047 4.6224,0 8.02409,0.651042 10.20508,1.953125 2.18099,1.269532 5.5557,4.493209 3.27148,6.054688 v 1.367187 h -10.30273 c -9.4401,0 -16.3737,1.497396 -20.80078,4.492188 -4.39453,2.994792 -6.5918,7.698568 -6.5918,14.111328 0,5.273438 1.75781,9.570312 5.27344,12.890625 3.54818,3.28776 8.1543,4.931641 13.81836,4.931641 4.19922,0 7.76367,-0.748698 10.69336,-2.246094 2.92969,-1.529948 5.5664,-3.955078 7.91015,-7.275391 v 8.105469 h 17.62696 V 48.080078 c 0,-8.75651 -2.19727,-15.071614 -6.5918,-18.945312 -4.36198,-3.90625 -11.47461,-5.859375 -21.33789,-5.859375 z m 118.35937,0 c -9.4401,0 -16.86197,2.555338 -22.26562,7.666015 -5.37109,5.110677 -8.05664,12.125651 -8.05664,21.044922 0,9.082031 2.73437,16.145833 8.20312,21.191406 5.50131,5.013021 13.19987,7.519532 23.09571,7.519532 4.13411,0 8.26823,-0.406901 12.40234,-1.220704 4.13412,-0.78125 8.2682,-1.953124 12.40235,-3.515624 V 62.484375 c -4.06903,2.213542 -8.04037,3.873698 -11.91407,4.980469 -3.84114,1.074218 -7.60091,1.611328 -11.27929,1.611328 -4.5573,0 -8.10547,-1.025391 -10.64454,-3.076172 -2.53906,-2.050781 -4.02013,-5.126953 -4.44336,-9.228516 h 40.86915 v -4.980468 c 0,-8.658855 -2.58789,-15.576172 -7.76368,-20.751954 -5.14323,-5.175781 -12.01171,-7.763671 -20.60547,-7.763671 z M 319.97266,34.896484 c 3.125,0 5.64778,1.025391 7.56836,3.076172 1.95312,2.018229 2.92968,4.6875 2.92968,8.007813 h -22.70508 c 0.52085,-3.580729 1.8392,-6.315104 3.95508,-8.203125 2.11589,-1.920573 4.86654,-2.88086 8.25196,-2.88086 z m 289.25781,0 c 3.125,0 5.64779,1.025391 7.56836,3.076172 1.95312,2.018229 2.92969,4.6875 2.92969,8.007813 h -22.70508 c 0.52083,-3.580729 1.83919,-6.315104 3.95508,-8.203125 2.11588,-1.920573 4.86653,-2.88086 8.25195,-2.88086 z m -218.50586,1.074219 c 3.74349,0 6.5918,1.367188 8.54492,4.101563 1.98568,2.734375 2.97852,6.705729 2.97852,11.914062 0,5.208333 -0.99284,9.179688 -2.97852,11.914063 -1.95312,2.734375 -4.80143,4.101562 -8.54492,4.101562 -3.74349,0 -6.62435,-1.367187 -8.64258,-4.101562 -1.98568,-2.766927 -2.97851,-6.738282 -2.97851,-11.914063 0,-5.175781 0.99283,-9.130859 2.97851,-11.865234 2.01823,-2.766927 4.89909,-4.150391 8.64258,-4.150391 z m 101.46484,18.701172 h 9.08203 v 2.001953 c 0,3.548177 -1.12304,6.510417 -3.36914,8.886719 -2.24609,2.34375 -5.01302,3.515625 -8.30078,3.515625 -2.63672,0 -4.70377,-0.61849 -6.20117,-1.855469 -1.46484,-1.269531 -2.19726,-3.011068 -2.19727,-5.224609 10e-6,-2.408854 0.91146,-4.231771 2.73438,-5.46875 1.85547,-1.236979 4.60612,-1.855469 8.25195,-1.855469 z M 281.90039,87.353516 v 4.550781 h 3.59375 v -4.550781 z m 248.28125,0 v 30.390624 h 3.59375 V 87.353516 Z m 51.32813,0 v 4.550781 h 3.59375 v -4.550781 z m -380.41016,0.703125 c -4.41406,0 -7.89063,1.354166 -10.42969,4.0625 -2.53906,2.695312 -3.80859,6.386711 -3.80859,11.074219 0,4.67448 1.26953,8.36588 3.80859,11.07422 2.53906,2.69531 6.01563,4.04297 10.42969,4.04297 1.71875,0 3.34635,-0.23438 4.88281,-0.70313 1.54948,-0.46875 3.01432,-1.17187 4.39453,-2.10937 v -4.1211 c -1.32812,1.23698 -2.74739,2.16146 -4.25781,2.77344 -1.4974,0.61198 -3.09245,0.91797 -4.78516,0.91797 -3.33333,0 -5.88541,-1.01563 -7.65625,-3.04688 -1.77083,-2.04427 -2.65625,-4.98697 -2.65625,-8.82812 0,-3.854174 0.88542,-6.796876 2.65625,-8.828126 1.77084,-2.04427 4.32292,-3.066406 7.65625,-3.066406 1.69271,0 3.28776,0.30599 4.78516,0.917969 1.51042,0.611979 2.92969,1.536458 4.25781,2.773437 v -4.160156 c -1.35416,-0.924479 -2.80599,-1.614583 -4.35547,-2.070312 -1.53645,-0.46875 -3.17708,-0.703125 -4.92187,-0.703125 z m 65.03906,1.601562 v 6.210938 h -2.63672 v 2.792968 h 2.63672 v 11.875001 c 0,2.73437 0.52735,4.6224 1.58203,5.66406 1.05469,1.02865 2.96875,1.54297 5.74219,1.54297 h 3.69141 v -3.00781 h -3.69141 c -1.4974,0 -2.49349,-0.25391 -2.98828,-0.76172 -0.48177,-0.50781 -0.72266,-1.65365 -0.72266,-3.4375 V 98.662109 h 7.40235 v -2.792968 h -7.40235 v -6.210938 z m 161.01563,0 v 6.210938 h -2.63672 v 2.792968 h 2.63672 v 11.875001 c 0,2.73437 0.52734,4.6224 1.58203,5.66406 1.05469,1.02865 2.96875,1.54297 5.74219,1.54297 h 3.6914 v -3.00781 h -3.6914 c -1.4974,0 -2.49349,-0.25391 -2.98829,-0.76172 -0.48177,-0.50781 -0.72265,-1.65365 -0.72265,-3.4375 V 98.662109 h 7.40234 v -2.792968 h -7.40234 v -6.210938 z m 138.59375,0 v 6.210938 h -2.63672 v 2.792968 h 2.63672 v 11.875001 c 0,2.73437 0.52734,4.6224 1.58203,5.66406 1.05469,1.02865 2.96875,1.54297 5.74219,1.54297 h 3.6914 v -3.00781 h -3.6914 c -1.4974,0 -2.49349,-0.25391 -2.98829,-0.76172 -0.48177,-0.50781 -0.72265,-1.65365 -0.72265,-3.4375 V 98.662109 h 7.40234 v -2.792968 h -7.40234 v -6.210938 z m -340.91797,5.683594 c -3.13802,0 -5.59896,1.015625 -7.38281,3.046875 -1.77084,2.031248 -2.65625,4.843748 -2.65625,8.437498 0,3.58073 0.88541,6.39323 2.65625,8.4375 1.78385,2.03125 4.24479,3.04688 7.38281,3.04688 3.125,0 5.57943,-1.01563 7.36328,-3.04688 1.78385,-2.04427 2.67578,-4.85677 2.67578,-8.4375 0,-3.59375 -0.89193,-6.40625 -2.67578,-8.437498 -1.78385,-2.03125 -4.23828,-3.046875 -7.36328,-3.046875 z m 26.52344,0 c -1.52344,0 -2.8711,0.325521 -4.04297,0.976562 -1.15886,0.651042 -2.16797,1.634115 -3.02735,2.949219 v -3.398437 h -3.61328 v 21.874999 h 3.61328 v -12.36328 c 0,-2.13542 0.5599,-3.82162 1.67969,-5.05859 1.11979,-1.237012 2.64974,-1.855473 4.58984,-1.855473 1.61459,0 2.82553,0.514295 3.63282,1.542973 0.80729,1.02864 1.21093,2.57812 1.21093,4.64843 v 13.08594 h 3.59375 v -13.20312 c 0,-3.02084 -0.64453,-5.305994 -1.93359,-6.855473 -1.28906,-1.5625 -3.1901,-2.34375 -5.70312,-2.34375 z m 52.1875,0 c -1.52344,0 -2.8711,0.325521 -4.04297,0.976562 -1.15886,0.651042 -2.16797,1.634115 -3.02735,2.949219 v -3.398437 h -3.61328 v 21.874999 h 3.61328 v -12.36328 c 0,-2.13542 0.5599,-3.82162 1.67969,-5.05859 1.11979,-1.237012 2.64974,-1.855473 4.58984,-1.855473 1.61459,0 2.82553,0.514295 3.63282,1.542973 0.80729,1.02864 1.21093,2.57812 1.21093,4.64843 v 13.08594 h 3.59375 v -13.20312 c 0,-3.02084 -0.64453,-5.305994 -1.93359,-6.855473 -1.28906,-1.5625 -3.1901,-2.34375 -5.70312,-2.34375 z m 48.71093,0 c -3.13802,0 -5.59896,1.015625 -7.38281,3.046875 -1.77083,2.031248 -2.65625,4.843748 -2.65625,8.437498 0,3.58073 0.88542,6.39323 2.65625,8.4375 1.78385,2.03125 4.24479,3.04688 7.38281,3.04688 3.125,0 5.57943,-1.01563 7.36328,-3.04688 1.78386,-2.04427 2.67579,-4.85677 2.67579,-8.4375 0,-3.59375 -0.89193,-6.40625 -2.67579,-8.437498 -1.78385,-2.03125 -4.23828,-3.046875 -7.36328,-3.046875 z m 48.32032,0 c -2.6823,0 -4.75261,0.559896 -6.21094,1.679687 -1.45834,1.119792 -2.1875,2.708327 -2.1875,4.765626 0,1.69271 0.49479,3.02734 1.48437,4.00391 0.98959,0.96354 2.59766,1.67968 4.82422,2.14843 l 1.25,0.29297 c 2.22656,0.48177 3.66537,0.98307 4.31641,1.50391 0.66406,0.52083 0.99609,1.26953 0.99609,2.24609 0,1.05469 -0.45573,1.875 -1.36719,2.46094 -0.91145,0.57292 -2.21354,0.85937 -3.90625,0.85937 -1.26302,0 -2.53906,-0.16927 -3.82812,-0.50781 -1.28906,-0.35156 -2.59766,-0.87239 -3.92578,-1.5625 v 3.71094 c 1.40625,0.45573 2.74088,0.79427 4.0039,1.01562 1.27605,0.23438 2.5,0.35157 3.67188,0.35157 2.8125,0 5.01953,-0.59245 6.62109,-1.77735 1.61459,-1.18489 2.42188,-2.79297 2.42188,-4.82422 0,-1.78385 -0.54037,-3.17057 -1.6211,-4.16015 -1.0677,-1.00261 -2.8776,-1.77735 -5.42968,-2.32422 l -1.23047,-0.27344 c -1.92709,-0.42969 -3.20964,-0.8789 -3.84766,-1.34765 -0.63802,-0.48178 -0.95703,-1.13933 -0.95703,-1.97266 0,-1.09375 0.44271,-1.914063 1.32813,-2.460938 0.89843,-0.546875 2.23958,-0.820313 4.02343,-0.820313 1.17188,0 2.30469,0.130209 3.39844,0.390625 1.09375,0.260417 2.14844,0.651042 3.16406,1.171875 v -3.398437 c -0.98958,-0.390625 -2.07031,-0.683594 -3.24218,-0.878906 -1.17188,-0.195313 -2.42188,-0.292969 -3.75,-0.292969 z m 53.18359,0 c -1.73177,0 -3.20313,0.325521 -4.41406,0.976562 -1.21094,0.638021 -2.19401,1.621094 -2.94922,2.949219 v -3.398437 h -3.61328 v 21.874999 h 3.61328 V 106.2207 c 0,-2.47396 0.54036,-4.36849 1.62109,-5.68359 1.09375,-1.328133 2.65625,-1.992188 4.6875,-1.992188 0.57292,0 1.09375,0.05859 1.5625,0.175781 0.48177,0.104167 0.92448,0.273438 1.32813,0.507813 l -0.0195,-3.691407 c -0.36459,-0.0651 -0.69662,-0.110677 -0.9961,-0.136718 -0.29948,-0.03906 -0.57291,-0.05859 -0.82031,-0.05859 z m 13.32031,0 c -1.17187,0 -2.3763,0.130208 -3.61328,0.390625 -1.23698,0.247396 -2.51302,0.625 -3.82812,1.132812 v 3.320316 c 1.09375,-0.598982 2.23307,-1.04818 3.41796,-1.347659 1.1849,-0.29948 2.40235,-0.449219 3.65235,-0.449219 1.96614,0 3.48958,0.455729 4.57031,1.367187 1.09375,0.898441 1.64063,2.174481 1.64063,3.828121 v 0.35157 h -5.03907 c -3.26823,0 -5.72916,0.625 -7.38281,1.875 -1.64062,1.25 -2.46094,3.10547 -2.46094,5.5664 0,2.10938 0.65756,3.79558 1.97266,5.0586 1.32812,1.25 3.11198,1.875 5.35156,1.875 1.77084,0 3.26823,-0.3125 4.49219,-0.9375 1.22396,-0.63802 2.24609,-1.6211 3.06641,-2.94922 v 3.32031 h 3.59375 v -12.48047 c 0,-3.33333 -0.78125,-5.820311 -2.34375,-7.460936 -1.5625,-1.640625 -3.92579,-2.460937 -7.08985,-2.460937 z m 27.40235,0 c -1.52344,0 -2.8711,0.325521 -4.04297,0.976562 -1.15886,0.651042 -2.16797,1.634115 -3.02735,2.949219 v -3.398437 h -3.61328 v 21.874999 h 3.61328 v -12.36328 c 0,-2.13542 0.5599,-3.82162 1.67969,-5.05859 1.11979,-1.237012 2.64974,-1.855473 4.58984,-1.855473 1.61459,0 2.82553,0.514295 3.63282,1.542973 0.80729,1.02864 1.21093,2.57812 1.21093,4.64843 v 13.08594 h 3.59375 v -13.20312 c 0,-3.02084 -0.64453,-5.305994 -1.93359,-6.855473 -1.28906,-1.5625 -3.1901,-2.34375 -5.70312,-2.34375 z m 21.79687,0 c -2.68229,0 -4.7526,0.559896 -6.21094,1.679687 -1.45833,1.119792 -2.1875,2.708327 -2.1875,4.765626 0,1.69271 0.49479,3.02734 1.48438,4.00391 0.98958,0.96354 2.59765,1.67968 4.82422,2.14843 l 1.25,0.29297 c 2.22656,0.48177 3.66536,0.98307 4.3164,1.50391 0.66407,0.52083 0.9961,1.26953 0.9961,2.24609 0,1.05469 -0.45573,1.875 -1.36719,2.46094 -0.91146,0.57292 -2.21354,0.85937 -3.90625,0.85937 -1.26302,0 -2.53906,-0.16927 -3.82813,-0.50781 -1.28906,-0.35156 -2.59765,-0.87239 -3.92578,-1.5625 v 3.71094 c 1.40625,0.45573 2.74089,0.79427 4.00391,1.01562 1.27604,0.23438 2.5,0.35157 3.67187,0.35157 2.8125,0 5.01954,-0.59245 6.6211,-1.77735 1.61458,-1.18489 2.42187,-2.79297 2.42187,-4.82422 0,-1.78385 -0.54036,-3.17057 -1.62109,-4.16015 -1.06771,-1.00261 -2.8776,-1.77735 -5.42969,-2.32422 l -1.23047,-0.27344 c -1.92708,-0.42969 -3.20963,-0.8789 -3.84765,-1.34765 -0.63802,-0.48178 -0.95703,-1.13933 -0.95703,-1.97266 0,-1.09375 0.4427,-1.914063 1.32812,-2.460938 0.89844,-0.546875 2.23958,-0.820313 4.02344,-0.820313 1.17187,0 2.30469,0.130209 3.39844,0.390625 1.09375,0.260417 2.14843,0.651042 3.16406,1.171875 v -3.398437 c -0.98959,-0.390625 -2.07031,-0.683594 -3.24219,-0.878906 -1.17187,-0.195313 -2.42187,-0.292969 -3.75,-0.292969 z m 32.67578,0 c -1.17187,0 -2.3763,0.130208 -3.61328,0.390625 -1.23698,0.247396 -2.51302,0.625 -3.82812,1.132812 v 3.320316 c 1.09375,-0.598982 2.23307,-1.04818 3.41796,-1.347659 1.1849,-0.29948 2.40235,-0.449219 3.65235,-0.449219 1.96614,0 3.48958,0.455729 4.57031,1.367187 1.09375,0.898441 1.64063,2.174481 1.64063,3.828121 v 0.35157 h -5.03907 c -3.26823,0 -5.72916,0.625 -7.38281,1.875 -1.64062,1.25 -2.46094,3.10547 -2.46094,5.5664 0,2.10938 0.65756,3.79558 1.97266,5.0586 1.32812,1.25 3.11198,1.875 5.35156,1.875 1.77084,0 3.26823,-0.3125 4.49219,-0.9375 1.22396,-0.63802 2.24609,-1.6211 3.06641,-2.94922 v 3.32031 h 3.59375 v -12.48047 c 0,-3.33333 -0.78125,-5.820311 -2.34375,-7.460936 -1.5625,-1.640625 -3.92579,-2.460937 -7.08985,-2.460937 z m 52.12891,0 c -3.13802,0 -5.59896,1.015625 -7.38281,3.046875 -1.77084,2.031248 -2.65625,4.843748 -2.65625,8.437498 0,3.58073 0.88541,6.39323 2.65625,8.4375 1.78385,2.03125 4.24479,3.04688 7.38281,3.04688 3.125,0 5.57943,-1.01563 7.36328,-3.04688 1.78385,-2.04427 2.67578,-4.85677 2.67578,-8.4375 0,-3.59375 -0.89193,-6.40625 -2.67578,-8.437498 -1.78385,-2.03125 -4.23828,-3.046875 -7.36328,-3.046875 z m 26.52344,0 c -1.52344,0 -2.8711,0.325521 -4.04297,0.976562 -1.15886,0.651042 -2.16797,1.634115 -3.02735,2.949219 v -3.398437 h -3.61328 v 21.874999 h 3.61328 v -12.36328 c 0,-2.13542 0.5599,-3.82162 1.67969,-5.05859 1.11979,-1.237012 2.64974,-1.855473 4.58984,-1.855473 1.61459,0 2.82553,0.514295 3.63282,1.542973 0.80729,1.02864 1.21093,2.57812 1.21093,4.64843 v 13.08594 h 3.59375 v -13.20312 c 0,-3.02084 -0.64453,-5.305994 -1.93359,-6.855473 -1.28906,-1.5625 -3.1901,-2.34375 -5.70312,-2.34375 z m -345.70313,0.527344 v 21.874999 h 3.59375 V 95.869141 Z m 36.11328,0 v 13.242189 c 0,3.00781 0.65104,5.29297 1.95313,6.85547 1.30208,1.5625 3.20963,2.34375 5.72265,2.34375 1.52344,0 2.85808,-0.31901 4.00391,-0.95703 1.15885,-0.65105 2.17448,-1.64063 3.04687,-2.96875 v 3.35937 h 3.59375 V 95.869141 h -3.59375 v 12.402339 c 0,2.13542 -0.5664,3.82162 -1.69921,5.0586 -1.1198,1.23698 -2.64974,1.85547 -4.58985,1.85547 -1.61458,0 -2.82552,-0.51433 -3.63281,-1.54297 -0.80729,-1.04167 -1.21094,-2.59766 -1.21094,-4.66797 V 95.869141 Z m 49.84375,0 v 13.242189 c 0,3.00781 0.65104,5.29297 1.95313,6.85547 1.30208,1.5625 3.20963,2.34375 5.72265,2.34375 1.52344,0 2.85808,-0.31901 4.00391,-0.95703 1.15885,-0.65105 2.17448,-1.64063 3.04687,-2.96875 v 3.35937 h 3.59375 V 95.869141 h -3.59375 v 12.402339 c 0,2.13542 -0.5664,3.82162 -1.69921,5.0586 -1.1198,1.23698 -2.64974,1.85547 -4.58985,1.85547 -1.61458,0 -2.82552,-0.51433 -3.63281,-1.54297 -0.80729,-1.04167 -1.21094,-2.59766 -1.21094,-4.66797 V 95.869141 Z m 213.65235,0 v 21.874999 h 3.59375 V 95.869141 Z m -356.67969,2.519531 c 1.91406,0 3.43099,0.761705 4.55078,2.285158 1.11979,1.51041 1.67969,3.5612 1.67969,6.15234 0,2.60417 -0.5599,4.66146 -1.67969,6.17188 -1.11979,1.51041 -2.63672,2.26562 -4.55078,2.26562 -1.94011,0 -3.47005,-0.7487 -4.58985,-2.24609 -1.10677,-1.51042 -1.66015,-3.57422 -1.66015,-6.19141 0,-2.61719 0.55989,-4.67448 1.67969,-6.17187 1.11979,-1.510441 2.64322,-2.265628 4.57031,-2.265628 z m 127.42187,0 c 1.91407,0 3.43099,0.761705 4.55078,2.285158 1.1198,1.51041 1.67969,3.5612 1.67969,6.15234 0,2.60417 -0.55989,4.66146 -1.67969,6.17188 -1.11979,1.51041 -2.63671,2.26562 -4.55078,2.26562 -1.9401,0 -3.47005,-0.7487 -4.58984,-2.24609 -1.10677,-1.51042 -1.66016,-3.57422 -1.66016,-6.19141 0,-2.61719 0.5599,-4.67448 1.67969,-6.17187 1.11979,-1.510441 2.64323,-2.265628 4.57031,-2.265628 z m 248.82813,0 c 1.91406,0 3.43099,0.761705 4.55078,2.285158 1.11979,1.51041 1.67969,3.5612 1.67969,6.15234 0,2.60417 -0.5599,4.66146 -1.67969,6.17188 -1.11979,1.51041 -2.63672,2.26562 -4.55078,2.26562 -1.94011,0 -3.47005,-0.7487 -4.58985,-2.24609 -1.10677,-1.51042 -1.66015,-3.57422 -1.66015,-6.19141 0,-2.61719 0.55989,-4.67448 1.67969,-6.17187 1.11979,-1.510441 2.64322,-2.265628 4.57031,-2.265628 z M 469.3418,106.74805 h 3.57422 v 0.80078 c 0,2.34375 -0.60547,4.22526 -1.81641,5.64453 -1.19792,1.40625 -2.79297,2.10937 -4.78516,2.10937 -1.44531,0 -2.59114,-0.37109 -3.4375,-1.11328 -0.83333,-0.75521 -1.25,-1.77083 -1.25,-3.04687 0,-1.60156 0.5599,-2.73438 1.67969,-3.39844 1.11979,-0.66406 3.13151,-0.99609 6.03516,-0.99609 z m 81.875,0 h 3.57422 v 0.80078 c 0,2.34375 -0.60547,4.22526 -1.81641,5.64453 -1.19792,1.40625 -2.79297,2.10937 -4.78516,2.10937 -1.44531,0 -2.59114,-0.37109 -3.4375,-1.11328 -0.83333,-0.75521 -1.25,-1.77083 -1.25,-3.04687 0,-1.60156 0.5599,-2.73438 1.67969,-3.39844 1.11979,-0.66406 3.13151,-0.99609 6.03516,-0.99609 z M 63.814453,121.50391 c -0.0046,0.003 -0.01325,0.009 -0.01953,0.0137 h 0.01953 c 9e-5,-0.005 -9.3e-5,-0.009 0,-0.0137 z" />
    <text
       xml:space="preserve"
       style="font-style:normal;font-weight:normal;line-height:0%;font-family:'Bitstream Vera Sans';letter-spacing:0px;word-spacing:0px;fill:#000000;fill-opacity:1;stroke:none"
       x="266.66666"
       y="166.46153"
       id="text2986"
       transform="translate(0,924.36218)"><tspan
         sodipodi:role="line"
         id="tspan2988"
         x="266.66666"
         y="166.46153"
         style="font-size:22px;line-height:1.25"> </tspan></text>
    <g
       style="fill:#333333;fill-opacity:1;fill-rule:evenodd;stroke:none;stroke-width:1"
       transform="matrix(1.1823904,0,0,1.2293649,27.766431,938.99131)"
       id="g3939">
      <g
         style="fill:#333333;fill-opacity:1"
         id="g3937"
         transform="translate(-315,-40)">
        <g
           style="fill:#333333;fill-opacity:1"
           id="g3935"
           transform="translate(315,40)">
          <g
             style="fill:#333333;fill-opacity:1"
             id="g3933">
            <path
               inkscape:connector-curvature="0"
               d="m 63.623624,55.803204 c -1.44418,-0.0073 -2.883279,-0.3012 -4.239863,-0.892337 -3.055838,-1.331293 -5.746709,-3.845579 -7.935781,-7.247396 0.624281,-1.109654 1.1869,-2.258669 1.689214,-3.426732 2.202532,-5.121611 3.250014,-10.729863 3.330351,-16.29666 -0.01167,-0.110413 -0.02081,-0.221218 -0.02762,-0.332417 l -0.006,-0.285658 c -0.0049,-2.182711 -0.337295,-4.394892 -1.088331,-6.454421 -0.865218,-2.372888 -2.244354,-4.74774 -4.432492,-5.67387 -0.397596,-0.167976 -0.815811,-0.238507 -1.23208,-0.228683 -2.752437,-5.1444013 -2.83997,-10.0742638 0,-14.76856635 0.05057,0 0.103094,1.9647e-4 0.153669,5.894e-4 3.350581,0.0369352 6.670039,1.07092335 9.510592,2.87681725 7.734638,4.9174853 11.590966,14.5003927 11.675971,23.9090377 0.0012,0.110412 -1.95e-4,0.220628 -0.0035,0.330844 h 0.04338 c -0.01128,9.943401 -2.402441,20.026806 -7.437474,28.489452 z M 46.473812,71.411129 C 39.249877,74.382361 30.859717,74.222927 23.699158,70.898625 15.461301,67.074853 9.1666829,59.642633 5.2899298,51.159136 -1.3412048,36.64833 -1.4929292,19.301572 4.7958529,4.5683693 9.5187613,6.4577603 13.718415,3.4485265 13.718415,3.4485265 c 0,0 -0.0097,4.6302554 4.473925,6.9524555 -4.600362,10.778193 -4.489486,23.583301 0.120601,34.086444 2.219456,5.053635 5.609913,9.759529 10.309479,12.420825 1.677366,0.949798 3.520499,1.56301 5.416509,1.793088 0.007,0.01097 0.01404,0.02194 0.02107,0.0329 3.348261,5.224488 7.566104,9.578402 12.413816,12.676889 z"
               id="path3927"
               style="fill:#333333;fill-opacity:1;fill-rule:nonzero" />
            <path
               inkscape:connector-curvature="0"
               d="m 63.621487,55.80673 c -1.443462,-0.0075 -2.881812,-0.301482 -4.237726,-0.892326 -3.056332,-1.331508 -5.747579,-3.846393 -7.936843,-7.249046 0.624706,-1.110238 1.187677,-2.259894 1.690276,-3.428619 0.664086,-1.544205 1.223132,-3.132417 1.682196,-4.750492 1.064016,-3.748919 15.19092,1.009038 13.035849,7.185462 -1.111931,3.186491 -2.519713,6.254611 -4.233752,9.135021 z M 46.470446,71.412513 c -7.223176,2.969798 -15.611841,2.809897 -22.771288,-0.513888 -8.237857,-3.823772 0.223696,-16.65167 4.923262,-13.990374 1.676643,0.949389 3.51891,1.562481 5.414056,1.79279 0.0078,0.01225 0.01568,0.02449 0.02352,0.03674 3.347486,5.223278 7.564151,9.576385 12.41045,12.674736 z"
               id="path3929"
               style="opacity:0.7;mix-blend-mode:soft-light;fill:#333333;fill-opacity:1" />
            <path
               inkscape:connector-curvature="0"
               d="m 28.381217,27.313752 c -0.0033,-0.110216 -0.0047,-0.220432 -0.0035,-0.330844 0.085,-9.408645 3.941333,-18.9915524 11.675971,-23.9090377 2.840553,-1.8058939 6.160011,-2.83988209 9.510592,-2.87681725 0.05057,-3.9293e-4 0.103094,-5.894e-4 0.153669,-5.894e-4 V 14.96503 c -0.416269,-0.0098 -0.834484,0.06071 -1.23208,0.228683 -2.188138,0.92613 -3.567274,3.300982 -4.432492,5.67387 -0.751036,2.059529 -1.083468,4.27171 -1.088331,6.454421 l -0.006,0.285658 c -0.0068,0.111199 -0.01595,0.222004 -0.02762,0.332417 0.08034,5.566797 1.127818,11.175049 3.330351,16.29666 2.466689,5.735953 6.387598,11.012573 11.923593,13.424361 4.176312,1.819843 8.805851,1.39057 12.591181,-0.752849 4.699566,-2.661296 8.090023,-7.36719 10.309479,-12.420825 4.610087,-10.503143 4.720963,-23.308251 0.120601,-34.086444 4.483651,-2.3222001 4.473925,-6.9524555 4.473925,-6.9524555 0,0 4.199654,3.0092338 8.922562,1.1198428 C 100.89187,19.301572 100.74014,36.64833 94.109008,51.159136 90.232255,59.642633 83.937637,67.074853 75.69978,70.898625 68.366434,74.303143 59.74343,74.388212 52.404248,71.19057 45.8091,68.31611 40.445058,63.137328 36.585812,57.115521 30.996518,48.394106 28.349705,37.776424 28.33784,27.313752 Z"
               id="path3931"
               style="fill:#333333;fill-opacity:1;fill-rule:nonzero" />
          </g>
        </g>
      </g>
    </g>
  </g>
</svg>
