<?xml version="1.0" encoding="UTF-8" standalone="no"?>
<!-- Created with Inkscape (http://www.inkscape.org/) -->

<svg
   xmlns:dc="http://purl.org/dc/elements/1.1/"
   xmlns:cc="http://creativecommons.org/ns#"
   xmlns:rdf="http://www.w3.org/1999/02/22-rdf-syntax-ns#"
   xmlns:svg="http://www.w3.org/2000/svg"
   xmlns="http://www.w3.org/2000/svg"
   xmlns:inkscape="http://www.inkscape.org/namespaces/inkscape"
   version="1.1"
   width="16"
   height="16"
   id="svg7384">
  <title
     id="title9167">Gnome Symbolic Icon Theme</title>
  <defs
     id="defs10" />
  <metadata
     id="metadata90">
    <rdf:RDF>
      <cc:Work
         rdf:about="">
        <dc:format>image/svg+xml</dc:format>
        <dc:type
           rdf:resource="http://purl.org/dc/dcmitype/StillImage" />
        <dc:title>Gnome Symbolic Icon Theme</dc:title>
      </cc:Work>
    </rdf:RDF>
  </metadata>
  <g
     transform="translate(-61,-467)"
     id="layer10">
    <path
       d="m 65.469,468 c -0.82099,0 -1.4688,0.64776 -1.4688,1.4688 v 11.062 c 0,0.82099 0.64776,1.4688 1.4688,1.4688 h 7.0625 c 0.82099,0 1.4688,-0.64776 1.4688,-1.4688 v -11.062 C 74.0003,468.64781 73.35254,468 72.5315,468 H 65.469 z m -0.46875,1 h 8 v 5 h -8 v -5 z m 4,6 c 1.6568,0 3,1.3432 3,3 0,1.6568 -1.3432,3 -3,3 -1.6568,0 -3,-1.3432 -3,-3 0,-1.6568 1.3432,-3 3,-3 z"
       inkscape:connector-curvature="0"
       id="path16980"
       style="fill:#bebebe" />
    <path
       d="m -170,261 a 1,1 0 1 1 -2,0 1,1 0 1 1 2,0 z"
       inkscape:connector-curvature="0"
       transform="matrix(1.5,0,0,1.5,325.5,86.5)"
       id="path16982"
       style="fill:#bebebe" />
  </g>
</svg>
