<?xml version="1.0" encoding="UTF-8" standalone="no"?>
<!-- Created with Inkscape (http://www.inkscape.org/) -->

<svg
   xmlns:dc="http://purl.org/dc/elements/1.1/"
   xmlns:cc="http://creativecommons.org/ns#"
   xmlns:rdf="http://www.w3.org/1999/02/22-rdf-syntax-ns#"
   xmlns:svg="http://www.w3.org/2000/svg"
   xmlns="http://www.w3.org/2000/svg"
   xmlns:xlink="http://www.w3.org/1999/xlink"
   xmlns:sodipodi="http://sodipodi.sourceforge.net/DTD/sodipodi-0.dtd"
   xmlns:inkscape="http://www.inkscape.org/namespaces/inkscape"
   version="1.1"
   width="128"
   height="128"
   id="svg4082"
   inkscape:version="0.48.4 r9939"
   sodipodi:docname="preferences-desktop-online-accounts.svg">
  <sodipodi:namedview
     pagecolor="#ffffff"
     bordercolor="#666666"
     borderopacity="1"
     objecttolerance="10"
     gridtolerance="10"
     guidetolerance="10"
     inkscape:pageopacity="0"
     inkscape:pageshadow="2"
     inkscape:window-width="1440"
     inkscape:window-height="845"
     id="namedview56"
     showgrid="false"
     inkscape:zoom="4.9609375"
     inkscape:cx="64"
     inkscape:cy="64"
     inkscape:window-x="0"
     inkscape:window-y="30"
     inkscape:window-maximized="1"
     inkscape:current-layer="svg4082" />
  <defs
     id="defs4084">
    <linearGradient
       id="linearGradient9165-5-1">
      <stop
         id="stop9167-7-12"
         style="stop-color:#acb9bf;stop-opacity:1"
         offset="0" />
      <stop
         id="stop9169-0-4"
         style="stop-color:#acb9bf;stop-opacity:0"
         offset="1" />
    </linearGradient>
    <linearGradient
       id="linearGradient9165-59">
      <stop
         id="stop9167-6"
         style="stop-color:#b6c5cc;stop-opacity:1"
         offset="0" />
      <stop
         id="stop9169-9"
         style="stop-color:#e5f0f6;stop-opacity:0"
         offset="1" />
    </linearGradient>
    <linearGradient
       id="linearGradient4747-3">
      <stop
         id="stop4749-7"
         style="stop-color:#ffffff;stop-opacity:1"
         offset="0" />
      <stop
         id="stop9072-8"
         style="stop-color:#f7f7f7;stop-opacity:1"
         offset="0.5" />
      <stop
         id="stop4751-3"
         style="stop-color:#dbe0e1;stop-opacity:1"
         offset="1" />
    </linearGradient>
    <radialGradient
       cx="680.5658"
       cy="365.6579"
       r="12.052631"
       fx="681.32629"
       fy="354.21619"
       id="radialGradient3030"
       xlink:href="#linearGradient9165-5-1"
       gradientUnits="userSpaceOnUse"
       gradientTransform="matrix(1.9849597,0,0,1.9712634,-1314.7319,-668.37231)" />
    <radialGradient
       cx="680.5658"
       cy="365.6579"
       r="12.052631"
       fx="680.60205"
       fy="355.25784"
       id="radialGradient3033"
       xlink:href="#linearGradient9165-59"
       gradientUnits="userSpaceOnUse"
       gradientTransform="matrix(2.6547671,0,0,2.6364491,-1732.0007,-917.86229)" />
    <radialGradient
       cx="676"
       cy="-233.5"
       r="29.5"
       fx="680.40613"
       fy="-249.59378"
       id="radialGradient3037"
       xlink:href="#linearGradient4747-3"
       gradientUnits="userSpaceOnUse"
       gradientTransform="matrix(3.3239744,7.7796619e-8,-6.3607663e-8,2.6908362,-2183.0066,696.31014)" />
    <linearGradient
       id="linearGradient4017-9-5">
      <stop
         id="stop4019-8-8"
         style="stop-color:#ffffff;stop-opacity:1"
         offset="0" />
      <stop
         id="stop4021-9-8"
         style="stop-color:#ffffff;stop-opacity:0.23529412"
         offset="0.49550432" />
      <stop
         id="stop4023-5-3"
         style="stop-color:#ffffff;stop-opacity:0.15686275"
         offset="0.88038814" />
      <stop
         id="stop4025-8-0"
         style="stop-color:#ffffff;stop-opacity:0.39215687"
         offset="1" />
    </linearGradient>
    <linearGradient
       inkscape:collect="always"
       xlink:href="#linearGradient4017-9-5"
       id="linearGradient3862"
       gradientUnits="userSpaceOnUse"
       gradientTransform="matrix(4.031746,0,0,4.0392156,-0.50793648,7.4117726)"
       x1="20.153708"
       y1="3.0216999"
       x2="20.153708"
       y2="26.666777" />
    <radialGradient
       cx="4.9929786"
       cy="43.5"
       r="2.5"
       fx="4.9929786"
       fy="43.5"
       id="radialGradient4093"
       xlink:href="#linearGradient3688-166-749-5"
       gradientUnits="userSpaceOnUse"
       gradientTransform="matrix(2.003784,0,0,1.4,27.98813,-17.4)" />
    <linearGradient
       id="linearGradient3688-166-749-5">
      <stop
         id="stop2883-0"
         style="stop-color:#181818;stop-opacity:1"
         offset="0" />
      <stop
         id="stop2885-5"
         style="stop-color:#181818;stop-opacity:0"
         offset="1" />
    </linearGradient>
    <radialGradient
       cx="4.9929786"
       cy="43.5"
       r="2.5"
       fx="4.9929786"
       fy="43.5"
       id="radialGradient4095"
       xlink:href="#linearGradient3688-464-309-8"
       gradientUnits="userSpaceOnUse"
       gradientTransform="matrix(2.003784,0,0,1.4,-20.01187,-104.4)" />
    <linearGradient
       id="linearGradient3688-464-309-8">
      <stop
         id="stop2889-9"
         style="stop-color:#181818;stop-opacity:1"
         offset="0" />
      <stop
         id="stop2891-4"
         style="stop-color:#181818;stop-opacity:0"
         offset="1" />
    </linearGradient>
    <linearGradient
       x1="25.058096"
       y1="47.027729"
       x2="25.058096"
       y2="39.999443"
       id="linearGradient4097"
       xlink:href="#linearGradient3702-501-757-0"
       gradientUnits="userSpaceOnUse" />
    <linearGradient
       id="linearGradient3702-501-757-0">
      <stop
         id="stop2895-0"
         style="stop-color:#181818;stop-opacity:0"
         offset="0" />
      <stop
         id="stop2897-2"
         style="stop-color:#181818;stop-opacity:1"
         offset="0.5" />
      <stop
         id="stop2899-6"
         style="stop-color:#181818;stop-opacity:0"
         offset="1" />
    </linearGradient>
    <linearGradient
       id="linearGradient3811">
      <stop
         id="stop3813"
         style="stop-color:#000000;stop-opacity:1"
         offset="0" />
      <stop
         id="stop3815"
         style="stop-color:#000000;stop-opacity:0"
         offset="1" />
    </linearGradient>
    <radialGradient
       r="35.338131"
       fy="93.467628"
       fx="-4.0287771"
       cy="93.467628"
       cx="-4.0287771"
       gradientTransform="matrix(1.5563924,0,0,0.16978827,70.270355,102.13172)"
       gradientUnits="userSpaceOnUse"
       id="radialGradient3061"
       xlink:href="#linearGradient3811"
       inkscape:collect="always" />
  </defs>
  <metadata
     id="metadata4087">
    <rdf:RDF>
      <cc:Work
         rdf:about="">
        <dc:format>image/svg+xml</dc:format>
        <dc:type
           rdf:resource="http://purl.org/dc/dcmitype/StillImage" />
        <dc:title></dc:title>
      </cc:Work>
    </rdf:RDF>
  </metadata>
  <path
     d="m 119,118.00143 a 55,6 0 0 1 -109.9999982,0 55,6 0 1 1 109.9999982,0 z"
     inkscape:connector-curvature="0"
     id="path3041"
     style="opacity:0.2;color:#000000;fill:url(#radialGradient3061);fill-opacity:1;fill-rule:nonzero;stroke:none;stroke-width:1;marker:none;visibility:visible;display:inline;overflow:visible;enable-background:accumulate" />
  <g
     transform="matrix(2.6999989,0,0,0.55555607,-0.80000812,94.890314)"
     id="g2036"
     style="display:inline">
    <g
       transform="matrix(1.052632,0,0,1.285713,-1.263158,-13.42854)"
       id="g3712"
       style="opacity:0.4">
      <rect
         width="5"
         height="7"
         x="38"
         y="40"
         id="rect2801"
         style="fill:url(#radialGradient4093);fill-opacity:1;stroke:none" />
      <rect
         width="5"
         height="7"
         x="-10"
         y="-47"
         transform="scale(-1,-1)"
         id="rect3696"
         style="fill:url(#radialGradient4095);fill-opacity:1;stroke:none" />
      <rect
         width="28"
         height="7.0000005"
         x="10"
         y="40"
         id="rect3700"
         style="fill:url(#linearGradient4097);fill-opacity:1;stroke:none" />
    </g>
  </g>
  <path
     d="M 74.723436,17 C 62.788244,17 52.451931,24.028526 47.328487,34.229773 44.007793,32.05998 40.076824,30.783885 35.851085,30.783885 c -11.844703,0 -21.44678,9.87374 -21.44678,22.054033 0,1.936491 0.297831,3.809974 0.753974,5.599536 C 6.6036059,64.370712 1,74.464598 1,85.918798 1,104.2457 15.347918,119 33.170191,119 l 61.659639,0 C 112.65212,119 127,104.2457 127,85.918798 c 0,-14.634774 -9.18767,-26.97327 -21.94951,-31.358078 0.34626,-1.902028 0.50266,-3.852521 0.50266,-5.857911 C 105.55315,31.193702 91.75026,17 74.723436,17 z"
     id="rect4519"
     style="color:#000000;fill:url(#radialGradient3037);fill-opacity:1;fill-rule:nonzero;stroke:none;stroke-width:1;marker:none;visibility:visible;display:inline;overflow:visible;enable-background:accumulate"
     inkscape:connector-curvature="0" />
  <path
     d="m 74.808516,16.500009 c -12.029892,0 -22.44824,7.097405 -27.612362,17.398696 -3.347049,-2.191093 -7.309191,-3.479684 -11.56847,-3.479684 -11.938738,0 -21.617042,9.970546 -21.617042,22.270252 0,1.955475 0.300281,3.847355 0.759979,5.654462 C 6.1480746,64.335111 0.50000002,74.527979 0.50000002,86.094516 0.50000002,104.6011 14.961768,119.5 32.925527,119.5 l 62.148981,0 C 113.03823,119.5 127.5,104.6011 127.5,86.094516 c 0,-14.778275 -9.2606,-27.237733 -22.12368,-31.665533 0.34901,-1.920695 0.50662,-3.890309 0.50662,-5.91533 0,-17.680763 -13.912455,-32.013644 -31.074424,-32.013644 z"
     id="rect4519-6"
     style="opacity:0.4;color:#000000;fill:none;stroke:#000000;stroke-width:1;stroke-linecap:round;stroke-linejoin:round;stroke-miterlimit:4;stroke-opacity:1;stroke-dasharray:none;stroke-dashoffset:0;marker:none;visibility:visible;display:inline;overflow:visible;enable-background:accumulate"
     inkscape:connector-curvature="0" />
  <path
     d="m 74.708345,17.029763 c -12.299954,0 -22.76831,7.534737 -27.130326,18.194354 6.018751,4.634241 9.901012,11.903754 9.901012,20.052496 0,4.3361 -1.029201,8.432046 -2.962502,12.00053 5.264377,4.979582 12.347656,8.05198 20.191816,8.05198 16.205232,0 29.391195,-13.094975 29.391195,-29.188391 0,-16.09341 -13.185963,-29.110969 -29.391195,-29.110969 z"
     id="path9151"
     style="opacity:0.15;color:#000000;fill:url(#radialGradient3033);fill-opacity:1;fill-rule:nonzero;stroke:none;stroke-width:1.87944353;marker:none;visibility:visible;display:inline;overflow:visible;enable-background:accumulate"
     inkscape:connector-curvature="0" />
  <path
     d="m 58.1028,52.435717 a 21.939035,21.787656 0 0 1 -43.87807,0 21.939035,21.787656 0 1 1 43.87807,0 z"
     id="path9151-6"
     style="opacity:0.15;color:#000000;fill:url(#radialGradient3030);fill-opacity:1;fill-rule:nonzero;stroke:none;stroke-width:1.1760155;marker:none;visibility:visible;display:inline;overflow:visible;enable-background:accumulate"
     inkscape:connector-curvature="0" />
  <path
     sodipodi:type="inkscape:offset"
     inkscape:radius="-1.001617"
     inkscape:original="M 74.8125 16.5 C 62.782608 16.5 52.351622 23.604959 47.1875 33.90625 C 43.840451 31.715157 39.884279 30.40625 35.625 30.40625 C 23.686262 30.40625 14 40.387794 14 52.6875 C 14 54.642975 14.321552 56.536643 14.78125 58.34375 C 6.1587036 64.335126 0.5 74.527213 0.5 86.09375 C 0.5 104.60033 14.973741 119.5 32.9375 119.5 L 95.0625 119.5 C 113.02622 119.5 127.5 104.60033 127.5 86.09375 C 127.5 71.315475 118.23808 58.8653 105.375 54.4375 C 105.72401 52.516805 105.875 50.525021 105.875 48.5 C 105.875 30.819237 91.974469 16.5 74.8125 16.5 z "
     style="opacity:0.4;color:#000000;fill:none;stroke:url(#linearGradient3862);stroke-width:1;stroke-linecap:round;stroke-linejoin:round;stroke-miterlimit:4;stroke-opacity:1;stroke-dasharray:none;stroke-dashoffset:0;marker:none;visibility:visible;display:inline;overflow:visible;enable-background:accumulate"
     id="path3860"
     d="m 74.8125,17.5 c -11.635516,0 -21.7141,6.86057 -26.71875,16.84375 A 1.0017171,1.0017171 0 0 1 46.625,34.75 c -3.197379,-2.093114 -6.945924,-3.34375 -11,-3.34375 -11.380461,0 -20.625,9.507406 -20.625,21.28125 0,1.845673 0.304006,3.653013 0.75,5.40625 a 1.0017171,1.0017171 0 0 1 -0.40625,1.0625 C 6.9896933,64.961066 1.5,74.853894 1.5,86.09375 1.5,104.0781 15.527588,118.5 32.9375,118.5 l 62.125,0 C 112.47237,118.5 126.5,104.07809 126.5,86.09375 126.5,71.733968 117.51912,59.662885 105.0625,55.375 A 1.0017171,1.0017171 0 0 1 104.375,54.25 c 0.33632,-1.850849 0.5,-3.774768 0.5,-5.75 0,-17.155785 -13.45767,-31 -30.0625,-31 z" />
</svg>
