<svg xmlns="http://www.w3.org/2000/svg" xmlns:xlink="http://www.w3.org/1999/xlink" height="48" width="48">
    <defs>
        <linearGradient gradientTransform="matrix(.75 0 0 .75 -10 1.75)" gradientUnits="userSpaceOnUse" xlink:href="#a" id="k" y2="-5.497" x2="44.424" y1="60.535" x1="44.424"/>
        <linearGradient id="a">
            <stop offset="0" stop-color="#634215"/>
            <stop offset="1" stop-color="#93700d"/>
        </linearGradient>
        <linearGradient gradientTransform="matrix(1.03685 0 -.00451 1.0846 -6.11 -18.45)" gradientUnits="userSpaceOnUse" xlink:href="#b" id="j" y2="57.567" x2="29.291" y1="19.788" x1="29.127"/>
        <linearGradient id="b">
            <stop offset="0" stop-color="#fff"/>
            <stop offset=".569" stop-color="#fff" stop-opacity=".235"/>
            <stop offset=".933" stop-color="#fff" stop-opacity=".157"/>
            <stop offset="1" stop-color="#fff" stop-opacity=".392"/>
        </linearGradient>
        <linearGradient gradientTransform="matrix(.97782 0 0 .9768 .532 .985)" gradientUnits="userSpaceOnUse" xlink:href="#c" id="i" y2="54.67" x2="24" y1="-14.604" x1="24"/>
        <linearGradient id="c">
            <stop offset="0" stop-color="#fff3cb"/>
            <stop offset=".262" stop-color="#fdde76"/>
            <stop offset=".661" stop-color="#f9c440"/>
            <stop offset="1" stop-color="#e48b20"/>
        </linearGradient>
        <radialGradient gradientTransform="matrix(.0241 0 0 .01544 28.978 36.589)" gradientUnits="userSpaceOnUse" xlink:href="#d" id="h" fy="486.648" fx="605.714" r="117.143" cy="486.648" cx="605.714"/>
        <linearGradient id="d">
            <stop offset="0"/>
            <stop offset="1" stop-opacity="0"/>
        </linearGradient>
        <radialGradient gradientTransform="matrix(-.0241 0 0 .01544 19.023 36.589)" gradientUnits="userSpaceOnUse" xlink:href="#d" id="g" fy="486.648" fx="605.714" r="117.143" cy="486.648" cx="605.714"/>
        <linearGradient id="e">
            <stop offset="0" stop-opacity="0"/>
            <stop offset=".5"/>
            <stop offset="1" stop-opacity="0"/>
        </linearGradient>
        <linearGradient gradientTransform="matrix(.08077 0 0 .01544 -5.192 36.589)" gradientUnits="userSpaceOnUse" xlink:href="#e" id="f" y2="609.505" x2="302.857" y1="366.648" x1="302.857"/>
    </defs>
    <path style="marker:none" opacity=".3" fill="url(#f)" overflow="visible" d="M4.5 42.25h39V46h-39z"/>
    <path style="marker:none" d="M4.5 42.25V46c-1.24.007-3-.84-3-1.875 0-1.035 1.385-1.875 3-1.875z" opacity=".3" fill="url(#g)" overflow="visible"/>
    <path style="marker:none" d="M43.5 42.25V46c1.241.007 3-.84 3-1.875 0-1.035-1.385-1.875-3-1.875z" opacity=".3" fill="url(#h)" overflow="visible"/>
    <path d="M45.687 40.056l-19.097-36c-.549-1-1.542-1.556-2.648-1.556s-2.105.666-2.662 1.666l-18.955 36c-.446.89-.451 2.112.098 3 .55.89 1.433 1.334 2.539 1.334h38.052c1.106 0 2.104-.556 2.55-1.444.557-.89.561-2 .123-3z" fill="url(#i)"/>
    <path d="M44.065 39.314L26.12 5.428c-.765-1.46-1.039-1.928-2.2-1.928-1 0-1.522.682-2.244 2.06L3.931 39.418c-1.03 1.901-1.141 2.397-.645 3.234.496.836 1.133.79 3.486.845H41.65c2.19.028 2.684-.14 3.087-.977.503-.837.289-1.5-.673-3.206z" opacity=".6" fill="none" stroke="url(#j)"/>
    <path style="text-align:start;line-height:125%" d="M21.582 15.123c.563 5.5 1.208 10.961 1.687 16.482h1.53c.397-5.302 1.038-10.572 1.5-15.867.237-1.254-.407-2.742-1.731-3.047-1.309-.382-2.77.565-2.944 1.918-.03.17-.042.342-.042.514zm-.167 22.359c-.06 1.637 1.742 2.92 3.28 2.401 1.49-.38 2.274-2.252 1.51-3.583-.683-1.376-2.687-1.829-3.84-.776-.582.479-.969 1.193-.95 1.958z" font-size="62.458" font-weight="400" opacity=".3" fill="#fff" font-family="Georgia"/>
    <path style="text-align:start;line-height:125%;marker:none" d="M21.582 14.123c.563 5.5 1.208 10.96 1.687 16.482h1.53c.397-5.302 1.038-10.572 1.5-15.867.237-1.254-.407-2.743-1.731-3.047-1.309-.383-2.77.564-2.944 1.918-.03.17-.042.342-.042.514zm-.167 22.359c-.06 1.637 1.742 2.92 3.28 2.4 1.49-.38 2.274-2.251 1.51-3.582-.683-1.376-2.687-1.83-3.84-.776-.582.478-.969 1.193-.95 1.958z" font-size="62.458" font-weight="400" color="#000" fill="url(#k)" overflow="visible" font-family="Georgia"/>
    <path d="M45.687 40.056l-19.097-36c-.549-1-1.542-1.556-2.648-1.556s-2.105.666-2.662 1.666l-18.955 36c-.446.89-.451 2.112.098 3 .55.89 1.433 1.334 2.539 1.334h38.052c1.106 0 2.104-.556 2.55-1.444.557-.89.561-2 .123-3z" opacity=".4" fill="none" stroke="#311d00"/>
</svg>
