<?xml version="1.0" encoding="UTF-8" standalone="no"?>
<!-- Created with Inkscape (http://www.inkscape.org/) -->

<svg
   xmlns:dc="http://purl.org/dc/elements/1.1/"
   xmlns:cc="http://creativecommons.org/ns#"
   xmlns:rdf="http://www.w3.org/1999/02/22-rdf-syntax-ns#"
   xmlns:svg="http://www.w3.org/2000/svg"
   xmlns="http://www.w3.org/2000/svg"
   xmlns:inkscape="http://www.inkscape.org/namespaces/inkscape"
   version="1.1"
   width="24"
   height="24"
   id="svg3004">
  <defs
     id="defs3006" />
  <metadata
     id="metadata3009">
    <rdf:RDF>
      <cc:Work
         rdf:about="">
        <dc:format>image/svg+xml</dc:format>
        <dc:type
           rdf:resource="http://purl.org/dc/dcmitype/StillImage" />
        <dc:title />
      </cc:Work>
    </rdf:RDF>
  </metadata>
  <g
     transform="translate(1,7)"
     id="layer1"
     style="color:#bebebe;fill:#bebebe;fill-opacity:1;fill-rule:nonzero;stroke-width:1;stroke-linecap:butt;stroke-linejoin:miter;stroke-miterlimit:4;stroke-opacity:1;stroke-dasharray:none;stroke-dashoffset:0;marker:none;visibility:visible;display:inline;overflow:visible;enable-background:accumulate">
    <path
       d="M 4,0 C 3.446,0 3,0.446 3,1 l 0,8 c 0,0.554 0.446,1 1,1 l 12,0 c 0.554,0 1,-0.446 1,-1 l 0,-2 1,0 c 0.554,0 1,-0.446 1,-1 L 19,4 C 19,3.446 18.554,3 18,3 L 17,3 17,1 C 17,0.446 16.554,0 16,0 z m 0.5,1 11,0 C 15.777,1 16,1.223 16,1.5 l 0,7 C 16,8.777 15.777,9 15.5,9 L 4.5,9 C 4.223,9 4,8.777 4,8.5 l 0,-7 C 4,1.223 4.223,1 4.5,1 z M 17,4 17.5,4 C 17.777,4 18,4.223 18,4.5 l 0,1 C 18,5.777 17.777,6 17.5,6 L 17,6 z"
       inkscape:connector-curvature="0"
       id="rect3206"
       style="color:#bebebe;fill:#bebebe;fill-opacity:1;fill-rule:nonzero;stroke:none;stroke-width:1;marker:none;visibility:visible;display:inline;overflow:visible;enable-background:accumulate" />
  </g>
  <path
     d="M 6.25,9 C 6.1115,9 6,9.1115 6,9.25 l 0,0.75 4,3 0.0625,-3 C 12.019898,11.36509 16,14 16,14 L 16,9.25 C 16,9.1115 15.8885,9 15.75,9 z M 15.90625,14.9375 12,13 l 0,2 3.75,0 c 0.05886,0 0.113628,-0.02871 0.15625,-0.0625 z M 6,11 6,14.75 C 6,14.8885 6.1115,15 6.25,15 l 4.5625,0 z"
     inkscape:connector-curvature="0"
     id="rect3085"
     style="opacity:0.3;color:#bebebe;fill:#bebebe;fill-opacity:1;fill-rule:nonzero;stroke:none;stroke-width:1;marker:none;visibility:visible;display:inline;overflow:visible;enable-background:accumulate" />
  <path
     d="M 16,14 10.047499,9 10,12 6,10 l 6,5 0,-3 z"
     inkscape:connector-curvature="0"
     id="path3172"
     style="color:#bebebe;fill:#bebebe;fill-opacity:1;fill-rule:nonzero;stroke:none;stroke-width:1;marker:none;visibility:visible;display:inline;overflow:visible;enable-background:accumulate" />
</svg>
