<?xml version="1.0" encoding="UTF-8" standalone="no"?>
<!-- Created with Inkscape (http://www.inkscape.org/) -->

<svg
   xmlns:dc="http://purl.org/dc/elements/1.1/"
   xmlns:cc="http://creativecommons.org/ns#"
   xmlns:rdf="http://www.w3.org/1999/02/22-rdf-syntax-ns#"
   xmlns:svg="http://www.w3.org/2000/svg"
   xmlns="http://www.w3.org/2000/svg"
   xmlns:inkscape="http://www.inkscape.org/namespaces/inkscape"
   version="1.1"
   width="24"
   height="24"
   id="svg3004">
  <defs
     id="defs3006" />
  <metadata
     id="metadata3009">
    <rdf:RDF>
      <cc:Work
         rdf:about="">
        <dc:format>image/svg+xml</dc:format>
        <dc:type
           rdf:resource="http://purl.org/dc/dcmitype/StillImage" />
        <dc:title />
      </cc:Work>
    </rdf:RDF>
  </metadata>
  <path
     d="M 5,7 C 4.446,7 4,7.446 4,8 l 0,8 c 0,0.554 0.446,1 1,1 l 12,0 c 0.554,0 1,-0.446 1,-1 l 0,-2 1,0 c 0.554,0 1,-0.446 1,-1 l 0,-2 c 0,-0.554 -0.446,-1 -1,-1 l -1,0 0,-2 C 18,7.446 17.554,7 17,7 z m 0.5,1 11,0 C 16.777,8 17,8.223 17,8.5 l 0,7 c 0,0.277 -0.223,0.5 -0.5,0.5 l -11,0 C 5.223,16 5,15.777 5,15.5 l 0,-7 C 5,8.223 5.223,8 5.5,8 z m 12.5,3 0.5,0 c 0.277,0 0.5,0.223 0.5,0.5 l 0,1 C 19,12.777 18.777,13 18.5,13 L 18,13 z"
     inkscape:connector-curvature="0"
     id="rect3206"
     style="color:#bebebe;fill:#bebebe;fill-opacity:1;fill-rule:nonzero;stroke:none;stroke-width:1;marker:none;visibility:visible;display:inline;overflow:visible;enable-background:accumulate" />
  <path
     d="M 6.25,9 C 6.1115,9 6,9.1115 6,9.25 L 6,10 10,13 10.0625,10 11,10.78125 11,9.25 C 11,9.1115 10.8885,9 10.75,9 z M 6,11 6,14.75 C 6,14.8885 6.1115,15 6.25,15 l 4.5,0 c 0.01039,0 0.0212,0.0012 0.03125,0 z"
     inkscape:connector-curvature="0"
     id="rect3002"
     style="opacity:0.3;color:#bebebe;fill:#bebebe;fill-opacity:1;fill-rule:nonzero;stroke:none;stroke-width:1;marker:none;visibility:visible;display:inline;overflow:visible;enable-background:accumulate" />
  <path
     d="M 16,14 10.047499,9 10,12 6,10 l 6,5 0,-3 z"
     inkscape:connector-curvature="0"
     id="path3172"
     style="color:#bebebe;fill:#bebebe;fill-opacity:1;fill-rule:nonzero;stroke:none;stroke-width:1;marker:none;visibility:visible;display:inline;overflow:visible;enable-background:accumulate" />
</svg>
