<?xml version="1.0" encoding="UTF-8" standalone="no"?>
<!-- Created with Inkscape (http://www.inkscape.org/) -->

<svg
   xmlns:dc="http://purl.org/dc/elements/1.1/"
   xmlns:cc="http://creativecommons.org/ns#"
   xmlns:rdf="http://www.w3.org/1999/02/22-rdf-syntax-ns#"
   xmlns:svg="http://www.w3.org/2000/svg"
   xmlns="http://www.w3.org/2000/svg"
   xmlns:inkscape="http://www.inkscape.org/namespaces/inkscape"
   version="1.1"
   width="24"
   height="24"
   id="svg4598">
  <defs
     id="defs4600" />
  <metadata
     id="metadata4603">
    <rdf:RDF>
      <cc:Work
         rdf:about="">
        <dc:format>image/svg+xml</dc:format>
        <dc:type
           rdf:resource="http://purl.org/dc/dcmitype/StillImage" />
        <dc:title />
      </cc:Work>
    </rdf:RDF>
  </metadata>
  <path
     d="M 5,7 C 4.446,7 4,7.446 4,8 L 4,9 5,9 5,8.5 C 5,8.223 5.223,8 5.5,8 L 6,8 6,7 5,7 z m 3,0 0,1 2,0 0,-1 -2,0 z m 4,0 0,1 2,0 0,-1 -2,0 z m 4,0 0,1 0.5,0 C 16.777,8 17,8.223 17,8.5 L 17,9 18,9 18,8 C 18,7.446 17.554,7 17,7 l -1,0 z m -8,2 0,1 2,2 -2,2 0,1 1,0 2,-2 2,2 1,0 0,-1 -2,-2 2,-2 0,-1 -1,0 -2,2 L 9,9 8,9 z m 10,1 0,1 0.5,0 c 0.277,0 0.5,0.223 0.5,0.5 l 0,1 c 0,0.277 -0.223,0.5 -0.5,0.5 l -0.5,0 0,1 1,0 c 0.554,0 1,-0.446 1,-1 l 0,-2 c 0,-0.554 -0.446,-1 -1,-1 l -1,0 z m 0,3 0,-2 -1,0 0,2 1,0 z m -14,-2 0,2 1,0 0,-2 -1,0 z m 0,4 0,1 c 0,0.554 0.446,1 1,1 l 1,0 0,-1 -0.5,0 C 5.223,16 5,15.777 5,15.5 L 5,15 4,15 z m 13,0 0,0.5 c 0,0.277 -0.223,0.5 -0.5,0.5 l -0.5,0 0,1 1,0 c 0.554,0 1,-0.446 1,-1 l 0,-1 -1,0 z m -9,1 0,1 2,0 0,-1 -2,0 z m 4,0 0,1 2,0 0,-1 -2,0 z"
     inkscape:connector-curvature="0"
     id="rect2998"
     style="color:#bebebe;fill:#bebebe;fill-opacity:1;fill-rule:nonzero;stroke:none;stroke-width:1;marker:none;visibility:visible;display:inline;overflow:visible;enable-background:accumulate" />
</svg>
