<?xml version="1.0" encoding="UTF-8" standalone="no"?>
<!-- Created with Inkscape (http://www.inkscape.org/) -->

<svg
   xmlns:dc="http://purl.org/dc/elements/1.1/"
   xmlns:cc="http://creativecommons.org/ns#"
   xmlns:rdf="http://www.w3.org/1999/02/22-rdf-syntax-ns#"
   xmlns:svg="http://www.w3.org/2000/svg"
   xmlns="http://www.w3.org/2000/svg"
   xmlns:xlink="http://www.w3.org/1999/xlink"
   xmlns:inkscape="http://www.inkscape.org/namespaces/inkscape"
   version="1.0"
   width="24"
   height="24"
   id="svg2">
  <metadata
     id="metadata29">
    <rdf:RDF>
      <cc:Work
         rdf:about="">
        <dc:format>image/svg+xml</dc:format>
        <dc:type
           rdf:resource="http://purl.org/dc/dcmitype/StillImage" />
        <dc:title />
      </cc:Work>
    </rdf:RDF>
  </metadata>
  <defs
     id="defs4">
    <linearGradient
       id="linearGradient8838">
      <stop
         id="stop8840"
         style="stop-color:#000000;stop-opacity:1"
         offset="0" />
      <stop
         id="stop8842"
         style="stop-color:#000000;stop-opacity:0"
         offset="1" />
    </linearGradient>
    <linearGradient
       id="linearGradient2490">
      <stop
         id="stop2492"
         style="stop-color:#791235;stop-opacity:1"
         offset="0" />
      <stop
         id="stop2494"
         style="stop-color:#dd3b27;stop-opacity:1"
         offset="1" />
    </linearGradient>
    <linearGradient
       id="linearGradient3242">
      <stop
         id="stop3244"
         style="stop-color:#f8b17e;stop-opacity:1"
         offset="0" />
      <stop
         id="stop3246"
         style="stop-color:#e35d4f;stop-opacity:1"
         offset="0.26238" />
      <stop
         id="stop3248"
         style="stop-color:#c6262e;stop-opacity:1"
         offset="0.66093999" />
      <stop
         id="stop3250"
         style="stop-color:#690b54;stop-opacity:1"
         offset="1" />
    </linearGradient>
    <linearGradient
       id="linearGradient4873">
      <stop
         id="stop4875"
         style="stop-color:#ffffff;stop-opacity:1"
         offset="0" />
      <stop
         id="stop4877"
         style="stop-color:#ffffff;stop-opacity:0"
         offset="1" />
    </linearGradient>
    <radialGradient
       cx="62.625"
       cy="4.625"
       r="10.625"
       fx="62.625"
       fy="4.625"
       id="radialGradient2415"
       xlink:href="#linearGradient8838"
       gradientUnits="userSpaceOnUse"
       gradientTransform="matrix(1.1294118,0,0,0.12941156,-58.729414,22.026471)" />
    <linearGradient
       x1="302.85715"
       y1="366.64789"
       x2="302.85715"
       y2="609.50507"
       id="linearGradient3962"
       xlink:href="#linearGradient5048-2"
       gradientUnits="userSpaceOnUse"
       gradientTransform="matrix(0.0807696,0,0,0.01544124,-5.19233,36.588514)" />
    <linearGradient
       id="linearGradient5048-2">
      <stop
         id="stop5050-6"
         style="stop-color:#000000;stop-opacity:0"
         offset="0" />
      <stop
         id="stop5056-4"
         style="stop-color:#000000;stop-opacity:1"
         offset="0.5" />
      <stop
         id="stop5052-5"
         style="stop-color:#000000;stop-opacity:0"
         offset="1" />
    </linearGradient>
    <radialGradient
       cx="605.71429"
       cy="486.64789"
       r="117.14286"
       fx="605.71429"
       fy="486.64789"
       id="radialGradient3139"
       xlink:href="#linearGradient5060-6"
       gradientUnits="userSpaceOnUse"
       gradientTransform="matrix(-0.02409728,0,0,0.01544124,19.0225,36.588514)" />
    <linearGradient
       id="linearGradient5060-6">
      <stop
         id="stop5062-0"
         style="stop-color:#000000;stop-opacity:1"
         offset="0" />
      <stop
         id="stop5064-0"
         style="stop-color:#000000;stop-opacity:0"
         offset="1" />
    </linearGradient>
    <radialGradient
       cx="605.71429"
       cy="486.64789"
       r="117.14286"
       fx="605.71429"
       fy="486.64789"
       id="radialGradient3136"
       xlink:href="#linearGradient5060-6"
       gradientUnits="userSpaceOnUse"
       gradientTransform="matrix(0.02409728,0,0,0.01544124,28.97772,36.588514)" />
    <linearGradient
       id="linearGradient3037">
      <stop
         id="stop3039"
         style="stop-color:#000000;stop-opacity:1"
         offset="0" />
      <stop
         id="stop3041"
         style="stop-color:#000000;stop-opacity:0"
         offset="1" />
    </linearGradient>
    <linearGradient
       x1="24"
       y1="-14.603537"
       x2="24"
       y2="54.669891"
       id="linearGradient3133"
       xlink:href="#linearGradient3846-7"
       gradientUnits="userSpaceOnUse"
       gradientTransform="matrix(0.97781815,0,0,0.97679637,0.53247,0.9846339)" />
    <linearGradient
       id="linearGradient3846-7">
      <stop
         id="stop3848-7"
         style="stop-color:#fff3cb;stop-opacity:1"
         offset="0" />
      <stop
         id="stop3850-5"
         style="stop-color:#fdde76;stop-opacity:1"
         offset="0.26238" />
      <stop
         id="stop3852-9"
         style="stop-color:#f9c440;stop-opacity:1"
         offset="0.66093999" />
      <stop
         id="stop3854-2"
         style="stop-color:#e48b20;stop-opacity:1"
         offset="1" />
    </linearGradient>
    <linearGradient
       x1="29.126724"
       y1="19.787613"
       x2="29.291178"
       y2="57.567127"
       id="linearGradient3130"
       xlink:href="#linearGradient3117-8"
       gradientUnits="userSpaceOnUse"
       gradientTransform="matrix(1.0368452,0,-0.00451336,1.0845986,-6.11049,-18.449436)" />
    <linearGradient
       id="linearGradient3117-8">
      <stop
         id="stop3119-9"
         style="stop-color:#ffffff;stop-opacity:1"
         offset="0" />
      <stop
         id="stop3121-9"
         style="stop-color:#ffffff;stop-opacity:0.23529412"
         offset="0.56911701" />
      <stop
         id="stop3123-6"
         style="stop-color:#ffffff;stop-opacity:0.15686275"
         offset="0.93297637" />
      <stop
         id="stop3125-3"
         style="stop-color:#ffffff;stop-opacity:0.39215687"
         offset="1" />
    </linearGradient>
    <linearGradient
       x1="44.424442"
       y1="60.535198"
       x2="44.424442"
       y2="-5.496769"
       id="linearGradient3126"
       xlink:href="#linearGradient3856-1-6"
       gradientUnits="userSpaceOnUse"
       gradientTransform="matrix(0.75000339,0,0,0.75000339,-10,1.7500839)" />
    <linearGradient
       id="linearGradient3856-1-6">
      <stop
         id="stop3858-0-6"
         style="stop-color:#634215;stop-opacity:1"
         offset="0" />
      <stop
         id="stop3860-2-8"
         style="stop-color:#93700d;stop-opacity:1"
         offset="1" />
    </linearGradient>
    <linearGradient
       x1="44.424442"
       y1="60.535198"
       x2="44.424442"
       y2="-5.496769"
       id="linearGradient3087"
       xlink:href="#linearGradient3856-1-6"
       gradientUnits="userSpaceOnUse"
       gradientTransform="matrix(0.3750017,0,0,0.3750017,-4.9788628,1.3752029)" />
    <linearGradient
       x1="29.126724"
       y1="19.787613"
       x2="29.291178"
       y2="57.567127"
       id="linearGradient3091"
       xlink:href="#linearGradient3117-8"
       gradientUnits="userSpaceOnUse"
       gradientTransform="matrix(0.49373581,0,-0.00214922,0.51518426,-2.3383831,-7.425973)" />
    <linearGradient
       x1="24"
       y1="-14.603537"
       x2="24"
       y2="54.669891"
       id="linearGradient3094"
       xlink:href="#linearGradient3846-7"
       gradientUnits="userSpaceOnUse"
       gradientTransform="matrix(0.48890916,0,0,0.48839827,0.26618161,0.74232159)" />
    <radialGradient
       cx="605.71429"
       cy="486.64789"
       r="117.14286"
       fx="605.71429"
       fy="486.64789"
       id="radialGradient3097"
       xlink:href="#linearGradient5060-6"
       gradientUnits="userSpaceOnUse"
       gradientTransform="matrix(0.02409728,0,0,0.01544124,-28.609962,20.32516)" />
    <radialGradient
       cx="605.71429"
       cy="486.64789"
       r="117.14286"
       fx="605.71429"
       fy="486.64789"
       id="radialGradient3100"
       xlink:href="#linearGradient5060-6"
       gradientUnits="userSpaceOnUse"
       gradientTransform="matrix(-0.02409728,0,0,0.01544124,-38.565182,20.32516)" />
    <linearGradient
       x1="302.85715"
       y1="366.64789"
       x2="302.85715"
       y2="609.50507"
       id="linearGradient3103"
       xlink:href="#linearGradient5048-2"
       gradientUnits="userSpaceOnUse"
       gradientTransform="matrix(0.0807696,0,0,0.01544124,-62.780012,20.32516)" />
    <linearGradient
       x1="11.375"
       y1="25.25"
       x2="11.375"
       y2="-4.8752604"
       id="linearGradient3879"
       xlink:href="#linearGradient3856-1-6"
       gradientUnits="userSpaceOnUse"
       gradientTransform="translate(-20,1.0000008)" />
  </defs>
  <path
     d="M 24,22.625 C 24,23.384391 18.627417,24 12,24 5.3725828,24 -2.5e-7,23.384391 -2.5e-7,22.625 -2.5e-7,21.865609 5.3725828,21.25 12,21.25 c 6.627417,0 12,0.615609 12,1.375 l 0,0 z"
     inkscape:connector-curvature="0"
     id="path8836"
     style="opacity:0.3;fill:url(#radialGradient2415);fill-opacity:1;fill-rule:evenodd;stroke:none;stroke-width:0.99999988;marker:none;visibility:visible;display:inline;overflow:visible" />
  <path
     d="M 22.843441,20.277765 13.294944,2.2776819 C 13.020489,1.7776818 12.523879,1.4999018 11.970799,1.4999018 c -0.553075,0 -1.052235,0.33333 -1.330855,0.8333351 L 1.1625466,20.333325 c -0.22308499,0.444445 -0.22563499,1.05556 0.04905,1.500005 0.27468,0.44445 0.716215,0.66667 1.269296,0.66667 l 19.0258884,0 c 0.55308,0 1.052005,-0.27778 1.275095,-0.722225 0.278385,-0.444445 0.280705,-1.000005 0.06156,-1.50001 z"
     inkscape:connector-curvature="0"
     id="path11155-5"
     style="fill:url(#linearGradient3094);fill-opacity:1;fill-rule:nonzero;stroke:none" />
  <path
     d="M 21.554469,19.506436 13.009293,3.9158521 c -0.363933,-0.6933859 -0.494462,-1.415852 -1.047538,-1.415852 -0.475681,0 -0.724576,0.8239925 -1.068333,1.4784949 l -8.4503241,15.57762 c -0.490695,0.902951 -0.543267,1.138323 -0.307081,1.535746 0.236181,0.397428 0.539433,0.375782 1.659914,0.401703 l 16.6086101,0 c 1.043148,0.01297 1.278124,-0.06692 1.470057,-0.464346 0.2395,-0.397427 0.137629,-0.712731 -0.320129,-1.522782 z"
     inkscape:connector-curvature="0"
     id="path11159-4"
     style="opacity:0.6;fill:none;stroke:url(#linearGradient3091);stroke-width:1;stroke-miterlimit:4;stroke-opacity:1;stroke-dasharray:none" />
  <path
     d="m 10.812132,8.5616499 c 0.28149,2.7496611 0.603925,5.4804011 0.84355,8.2408311 0.241015,0 0.523695,0 0.76471,0 0.19876,-2.65089 0.519345,-5.285765 0.75061,-7.9333661 0.117885,-0.62692 -0.203995,-1.37126 -0.866,-1.523575 -0.654165,-0.1912546 -1.38503,0.282355 -1.472015,0.95888 -0.0144,0.08493 -0.02085,0.171115 -0.02085,0.25723 l -5e-6,0 z m -0.08343,11.1793511 c -0.02975,0.81847 0.870815,1.46007 1.63974,1.20058 0.744755,-0.19007 1.13703,-1.12614 0.75534,-1.791525 -0.341675,-0.687825 -1.343625,-0.914445 -1.920005,-0.38803 -0.291345,0.23936 -0.484455,0.596695 -0.475075,0.978975 l 0,0 z"
     inkscape:connector-curvature="0"
     id="text2315-7-2"
     style="font-size:62.4582634px;font-style:normal;font-variant:normal;font-weight:normal;font-stretch:normal;text-align:start;line-height:125%;writing-mode:lr-tb;text-anchor:start;opacity:0.3;fill:#ffffff;fill-opacity:1;stroke:none;font-family:Georgia" />
  <path
     d="m 10.812132,7.5616475 c 0.28149,2.7496605 0.603925,5.4804005 0.84355,8.2408305 0.241015,0 0.523695,0 0.76471,0 0.19876,-2.65089 0.519345,-5.28576 0.75061,-7.9333655 0.117885,-0.6269146 -0.203995,-1.3712596 -0.866,-1.5235746 -0.654165,-0.191255 -1.38503,0.28236 -1.472015,0.9588796 -0.0144,0.08493 -0.02085,0.171115 -0.02085,0.25723 l -5e-6,0 z m -0.08343,11.1793505 c -0.02975,0.81847 0.870815,1.46007 1.63974,1.200585 0.744755,-0.190075 1.13703,-1.126145 0.75534,-1.79153 -0.341675,-0.68782 -1.343625,-0.914445 -1.920005,-0.38803 -0.291345,0.239365 -0.484455,0.596695 -0.475075,0.978975 l 0,0 z"
     inkscape:connector-curvature="0"
     id="path3295-1-9"
     style="font-size:62.4582634px;font-style:normal;font-variant:normal;font-weight:normal;font-stretch:normal;text-align:start;line-height:125%;writing-mode:lr-tb;text-anchor:start;color:#000000;fill:url(#linearGradient3087);fill-opacity:1;fill-rule:nonzero;stroke:none;marker:none;visibility:visible;display:inline;overflow:visible;enable-background:accumulate;font-family:Georgia" />
  <path
     d="M 22.843441,20.277775 13.294944,2.2777769 C 13.020489,1.7777792 12.523879,1.5000004 11.970799,1.5000004 c -0.553075,0 -1.052235,0.3333285 -1.330855,0.8333312 L 1.1625466,20.333335 C 0.93946161,20.777778 0.93691161,21.38889 1.2115966,21.833333 1.4862766,22.277781 1.9278116,22.5 2.4808916,22.5 l 19.0258894,0 c 0.55308,0 1.052005,-0.277779 1.275095,-0.722222 0.278385,-0.444443 0.280705,-1 0.06156,-1.500003 z"
     inkscape:connector-curvature="0"
     id="path11155-8"
     style="opacity:0.4;fill:none;stroke:#311d00;stroke-width:0.99999982;stroke-miterlimit:4;stroke-opacity:1;stroke-dasharray:none" />
</svg>
