<?xml version="1.0" encoding="UTF-8" standalone="no"?>
<!-- Created with Inkscape (http://www.inkscape.org/) -->

<svg
   xmlns:dc="http://purl.org/dc/elements/1.1/"
   xmlns:cc="http://creativecommons.org/ns#"
   xmlns:rdf="http://www.w3.org/1999/02/22-rdf-syntax-ns#"
   xmlns:svg="http://www.w3.org/2000/svg"
   xmlns="http://www.w3.org/2000/svg"
   xmlns:xlink="http://www.w3.org/1999/xlink"
   xmlns:inkscape="http://www.inkscape.org/namespaces/inkscape"
   version="1.1"
   width="16"
   height="16"
   id="svg4060">
  <defs
     id="defs4062">
    <linearGradient
       x1="20"
       y1="26.000008"
       x2="20"
       y2="13.000008"
       id="linearGradient3965"
       xlink:href="#linearGradient3680-6-6-6-3-7-4"
       gradientUnits="userSpaceOnUse"
       gradientTransform="matrix(0.34453791,0,0,0.34453791,-0.032751,-0.124165)" />
    <linearGradient
       id="linearGradient3680-6-6-6-3-7-4">
      <stop
         id="stop3682-4-6-1-3-7-5"
         style="stop-color:#dcdcdc;stop-opacity:1"
         offset="0" />
      <stop
         id="stop3684-8-5-8-0-2-3"
         style="stop-color:#ffffff;stop-opacity:1"
         offset="1" />
    </linearGradient>
    <linearGradient
       x1="23.99999"
       y1="4.999989"
       x2="23.99999"
       y2="43"
       id="linearGradient3896"
       xlink:href="#linearGradient3924-4-8"
       gradientUnits="userSpaceOnUse"
       gradientTransform="matrix(0.2972973,0,0,0.2972973,0.86486973,0.8648672)" />
    <linearGradient
       id="linearGradient3924-4-8">
      <stop
         id="stop3926-0-4"
         style="stop-color:#ffffff;stop-opacity:1"
         offset="0" />
      <stop
         id="stop3928-6-8"
         style="stop-color:#ffffff;stop-opacity:0.23529412"
         offset="0.06316455" />
      <stop
         id="stop3930-2-1"
         style="stop-color:#ffffff;stop-opacity:0.15686275"
         offset="0.95056331" />
      <stop
         id="stop3932-9-0"
         style="stop-color:#ffffff;stop-opacity:0.39215687"
         offset="1" />
    </linearGradient>
    <linearGradient
       id="linearGradient2867-449-88-871-390-598-476-591-434-148-57-177-8-3-3-6-4-8-8-8-5-7">
      <stop
         id="stop3750-1-0-7-6-6-1-3-9-3-0"
         style="stop-color:#505050;stop-opacity:1"
         offset="0" />
      <stop
         id="stop3752-3-7-4-0-32-8-923-0-7-8"
         style="stop-color:#2b2b2b;stop-opacity:1"
         offset="0.26238" />
      <stop
         id="stop3754-1-8-5-2-7-6-7-1-9-4"
         style="stop-color:#0a0a0a;stop-opacity:1"
         offset="0.704952" />
      <stop
         id="stop3756-1-6-2-6-6-1-96-6-0-0"
         style="stop-color:#000000;stop-opacity:1"
         offset="1" />
    </linearGradient>
    <radialGradient
       cx="7.1183534"
       cy="9.9571075"
       r="12.671875"
       fx="7.1183534"
       fy="9.9571075"
       id="radialGradient4058"
       xlink:href="#linearGradient2867-449-88-871-390-598-476-591-434-148-57-177-8-3-3-6-4-8-8-8-5-7"
       gradientUnits="userSpaceOnUse"
       gradientTransform="matrix(0,3.0467483,-3.7404337,0,45.520924,-26.295845)" />
  </defs>
  <metadata
     id="metadata4065">
    <rdf:RDF>
      <cc:Work
         rdf:about="">
        <dc:format>image/svg+xml</dc:format>
        <dc:type
           rdf:resource="http://purl.org/dc/dcmitype/StillImage" />
        <dc:title />
      </cc:Work>
    </rdf:RDF>
  </metadata>
  <g
     id="layer1">
    <rect
       width="13"
       height="13"
       rx="1"
       ry="1"
       x="1.5000014"
       y="1.4999985"
       id="rect5505-21-7"
       style="opacity:0.9;color:#000000;fill:url(#radialGradient4058);fill-opacity:1;fill-rule:nonzero;stroke:none;stroke-width:0.99999994;marker:none;visibility:visible;display:inline;overflow:visible;enable-background:accumulate" />
    <rect
       width="11"
       height="11"
       x="2.5"
       y="2.4999969"
       id="rect6741-0-3"
       style="opacity:0.3;fill:none;stroke:url(#linearGradient3896);stroke-width:1;stroke-linecap:round;stroke-linejoin:round;stroke-miterlimit:4;stroke-opacity:1;stroke-dasharray:none;stroke-dashoffset:0" />
    <rect
       width="13.000003"
       height="13.000003"
       rx="1"
       ry="1"
       x="1.5"
       y="1.499997"
       id="rect5505-21-2-8"
       style="opacity:0.7;color:#000000;fill:none;stroke:#000000;stroke-width:1;stroke-linecap:round;stroke-linejoin:round;stroke-miterlimit:4;stroke-opacity:1;stroke-dasharray:none;stroke-dashoffset:0;marker:none;visibility:visible;display:inline;overflow:visible;enable-background:accumulate" />
    <path
       d="m 4.375,3.84375 a 0.98882561,0.98882561 0 0 0 -1,0.9375 C 3.2741896,4.8364108 3.1527954,4.8035406 3.0625,4.875 c -0.00827,0.00639 0.0081,0.024768 0,0.03125 -0.0046,0.00368 -0.026705,-0.00371 -0.03125,0 C 2.3582994,5.4553027 2.3404587,6.2870405 2.6875,6.96875 a 0.98882561,0.98882561 0 0 0 -0.28125,0.6875 l 0,0.625 a 0.98882561,0.98882561 0 0 0 0.625,0.90625 C 3.1716666,9.247083 3.2968324,9.2439383 3.4375,9.28125 A 0.98882561,0.98882561 0 0 0 4.375,10 l 0.5,0 A 0.98882561,0.98882561 0 0 0 5.5,9.75 0.98882561,0.98882561 0 0 0 6.4375,10.53125 l 2.59375,0 a 0.98882561,0.98882561 0 0 0 1,-1 l 0,-0.53125 a 0.98882561,0.98882561 0 0 0 -1,-1 L 6.75,8 c 0.032056,-0.140735 0.1286113,-0.2535188 0.125,-0.40625 7.75e-5,-0.00999 8.4e-5,-0.021265 0,-0.03125 C 6.8722105,7.2307413 6.7773994,6.9247795 6.5625,6.625 A 0.98882561,0.98882561 0 0 0 6.53125,6.59375 C 6.5191976,6.5776673 6.5122826,6.5779503 6.5,6.5625 a 0.98882561,0.98882561 0 0 0 0,-0.09375 L 6.71875,5.90625 A 0.98882561,0.98882561 0 0 0 6.1875,4.65625 C 6.0713385,4.6064862 5.9348331,4.6011159 5.8125,4.5625 A 0.98882561,0.98882561 0 0 0 4.875,3.84375 l -0.5,0 z m 0.40625,1.75 c 0.00739,0.00325 0.108762,0.046734 0.21875,0.1875 0.039815,0.050956 0.03866,0.094841 0.0625,0.15625 l -0.1875,0 -0.09375,0.875 C 4.6266373,6.9108214 4.5017367,6.9373044 4.5,6.9375 L 4.4375,6.375 4.78125,5.59375 z M 4.75,6.9375 l 0.0625,0.5 -0.375,0.75 C 4.472147,8.2044076 4.4123317,8.2004161 4.3125,8.09375 4.2772147,8.0560491 4.2793141,7.9963015 4.25,7.9375 l 0.125,0 0.09375,-0.875 C 4.5740087,6.9976164 4.7021241,6.9438801 4.75,6.9375 z"
       id="path4024"
       style="font-size:14.31169891px;font-style:normal;font-variant:normal;font-weight:bold;font-stretch:normal;line-height:125%;letter-spacing:0px;word-spacing:0px;opacity:0.15;color:#000000;fill:#000000;fill-opacity:1;fill-rule:nonzero;stroke:none;marker:none;visibility:visible;display:inline;overflow:visible;enable-background:accumulate;font-family:Open Sans;-inkscape-font-specification:Open Sans Bold" />
    <path
       d="m 4.360002,4.8400002 0,0.52 c -0.282763,0.027014 -0.479124,0.1101469 -0.69875,0.2924997 -0.315222,0.243626 -0.329103,0.720503 -0.0975,1.02375 0.223939,0.27171 0.47124,0.397251 0.79625,0.52 l 0,0.73125 c -0.362391,-0.0296 -0.613209,-0.111423 -0.9425,-0.26 l 0,0.60125 c 0.329595,0.139857 0.584205,0.204243 0.9425,0.21125 l 0,0.52 0.52,0 0,-0.52 c 0.219319,-0.01971 0.358306,-0.07518 0.5525,-0.17875 0.269774,-0.132446 0.466997,-0.405565 0.455,-0.69875 0.0011,-0.141751 -0.04581,-0.288807 -0.13,-0.40625 -0.225225,-0.300541 -0.537697,-0.415502 -0.8775,-0.5525 l 0,-0.715 c 0.269418,0.02191 0.448797,0.0959 0.69875,0.195 l 0.24375,-0.5525 C 5.503328,5.4345152 5.227974,5.3580486 4.880002,5.3437502 l 0,-0.50375 -0.52,0 z m 0,1.1212497 0,0.5525 c -0.137175,-0.06033 -0.21749,-0.152682 -0.21125,-0.325 -0.0064,-0.162659 0.07238,-0.211858 0.21125,-0.2275 z m 0.52,1.365 c 0.136046,0.06639 0.240684,0.135734 0.24375,0.30875 0.0078,0.17655 -0.08974,0.239476 -0.24375,0.26 l 0,-0.56875 z m 1.56,1.67375 0,0.52 2.6,0 0,-0.52 -2.6,0 z"
       inkscape:connector-curvature="0"
       id="path3987-0-6"
       style="font-size:14.31169891px;font-style:normal;font-variant:normal;font-weight:bold;font-stretch:normal;line-height:125%;letter-spacing:0px;word-spacing:0px;opacity:0.3;color:#000000;fill:#000000;fill-opacity:1;fill-rule:nonzero;stroke:none;marker:none;visibility:visible;display:inline;overflow:visible;enable-background:accumulate;font-family:Open Sans;-inkscape-font-specification:Open Sans Bold" />
    <path
       d="m 4.360002,3.8399985 0,0.52 c -0.282763,0.027014 -0.479124,0.1101469 -0.69875,0.2924997 -0.315222,0.243626 -0.329103,0.720503 -0.0975,1.02375 0.223939,0.27171 0.47124,0.397251 0.79625,0.52 l 0,0.73125 c -0.362391,-0.0296 -0.613209,-0.111423 -0.9425,-0.26 l 0,0.60125 c 0.329595,0.139857 0.584205,0.204243 0.9425,0.21125 l 0,0.52 0.52,0 0,-0.52 c 0.219319,-0.01971 0.358306,-0.07518 0.5525,-0.17875 0.269774,-0.132446 0.466997,-0.405565 0.455,-0.69875 0.0011,-0.141751 -0.04581,-0.288807 -0.13,-0.40625 -0.225225,-0.300541 -0.537697,-0.415502 -0.8775,-0.5525 l 0,-0.715 c 0.269418,0.02191 0.448797,0.0959 0.69875,0.195 l 0.24375,-0.5525 C 5.503328,4.4345135 5.227974,4.3580469 4.880002,4.3437485 l 0,-0.50375 -0.52,0 z m 0,1.1212497 0,0.5525 c -0.137175,-0.06033 -0.21749,-0.152682 -0.21125,-0.325 -0.0064,-0.162659 0.07238,-0.211858 0.21125,-0.2275 z m 0.52,1.365 c 0.136046,0.06639 0.240684,0.135734 0.24375,0.30875 0.0078,0.17655 -0.08974,0.239476 -0.24375,0.26 l 0,-0.56875 z m 1.56,1.67375 0,0.52 2.6,0 0,-0.52 -2.6,0 z"
       inkscape:connector-curvature="0"
       id="path3987-0"
       style="font-size:14.31169891px;font-style:normal;font-variant:normal;font-weight:bold;font-stretch:normal;line-height:125%;letter-spacing:0px;word-spacing:0px;color:#000000;fill:url(#linearGradient3965);fill-opacity:1;fill-rule:nonzero;stroke:none;marker:none;visibility:visible;display:inline;overflow:visible;enable-background:accumulate;font-family:Open Sans;-inkscape-font-specification:Open Sans Bold" />
  </g>
</svg>
