<svg width="16" height="16" xmlns:xlink="http://www.w3.org/1999/xlink" xmlns="http://www.w3.org/2000/svg"><defs><linearGradient x1="24" y1="7.182" x2="24" y2="40.818" id="d" xlink:href="#a" gradientUnits="userSpaceOnUse" gradientTransform="translate(.865 .865) scale(.2973)"/><linearGradient id="a"><stop style="stop-color:#fff;stop-opacity:1" offset="0"/><stop style="stop-color:#fff;stop-opacity:.23529412" offset=".05"/><stop style="stop-color:#fff;stop-opacity:.15686275" offset=".95"/><stop style="stop-color:#fff;stop-opacity:.39215687" offset="1"/></linearGradient><linearGradient id="b"><stop offset="0" style="stop-color:#404648;stop-opacity:1"/><stop offset="1" style="stop-color:#0c1011;stop-opacity:1"/></linearGradient><radialGradient gradientTransform="matrix(0 1.97934 -2.43 0 32.473 -18.417)" gradientUnits="userSpaceOnUse" xlink:href="#b" id="c" fy="9.957" fx="6.953" r="12.672" cy="9.957" cx="6.953"/></defs><rect style="color:#000;clip-rule:nonzero;display:inline;overflow:visible;visibility:visible;opacity:.9;isolation:auto;mix-blend-mode:normal;color-interpolation:sRGB;color-interpolation-filters:linearRGB;solid-color:#000;solid-opacity:1;fill:url(#c);fill-opacity:1;fill-rule:nonzero;stroke:none;stroke-width:1;stroke-linecap:butt;stroke-linejoin:miter;stroke-miterlimit:4;stroke-dasharray:none;stroke-dashoffset:0;stroke-opacity:1;marker:none;color-rendering:auto;image-rendering:auto;shape-rendering:auto;text-rendering:auto;enable-background:accumulate" y="1.5" x="1.5" ry="2" rx="2" height="13" width="13"/><rect style="opacity:.3;fill:none;stroke:url(#d);stroke-width:1;stroke-linecap:round;stroke-linejoin:round;stroke-miterlimit:4;stroke-dasharray:none;stroke-dashoffset:0;stroke-opacity:1" y="2.5" x="2.5" height="11" width="11" rx="1" ry="1"/><rect style="color:#000;display:inline;overflow:visible;visibility:visible;opacity:.7;fill:none;stroke:#000;stroke-width:1;stroke-linecap:round;stroke-linejoin:round;stroke-miterlimit:4;stroke-dasharray:none;stroke-dashoffset:0;stroke-opacity:1;marker:none;enable-background:accumulate" y="1.5" x="1.5" ry="2" rx="2" height="13" width="13"/><path style="color:#000;font-style:normal;font-variant:normal;font-weight:700;font-stretch:normal;font-size:5.92781496px;line-height:125%;font-family:'Open Sans';-inkscape-font-specification:'Open Sans Bold';letter-spacing:0;word-spacing:0;clip-rule:nonzero;display:inline;overflow:visible;visibility:visible;opacity:.15;isolation:auto;mix-blend-mode:normal;color-interpolation:sRGB;color-interpolation-filters:linearRGB;solid-color:#000;solid-opacity:1;fill:#000;fill-opacity:1;fill-rule:nonzero;stroke:none;stroke-width:1;stroke-linecap:butt;stroke-linejoin:miter;stroke-miterlimit:4;stroke-dasharray:none;stroke-dashoffset:0;stroke-opacity:1;marker:none;color-rendering:auto;image-rendering:auto;shape-rendering:auto;text-rendering:auto;enable-background:accumulate" d="M4.025 3.01a1 1 0 0 0-1 1v.324c-.064.036-.128.037-.191.082a1 1 0 0 0-.002.002 2.157 2.157 0 0 0-.87 1.7c0 .341.083.717.286 1.048.027.043.07.067.1.107-.209.192-.437.402-.44.725a1 1 0 0 0 0 .01v.763c-.002.48.339.875.688 1.018v.002c.144.06.285.052.43.09v.129a1 1 0 0 0 1 1h1a1 1 0 0 0 1-1v-.322c.048-.027.097-.039.146-.061a.942.942 0 0 0-.121.44v1c.007.505.463.96.969.968h4c.505-.008.96-.463.968-.969v-1c-.007-.505-.463-.96-.968-.968h-4a.979.979 0 0 0-.188 0c-.058.012-.11.043-.164.066.29-.37.475-.828.475-1.289 0-.48-.181-.998-.526-1.375-.005-.006-.012-.006-.017-.012.026-.04.075-.044.097-.09l.313-.634c.138-.282.141-.657.008-.942a1.114 1.114 0 0 0-.614-.564 1 1 0 0 0-.01-.004c-.122-.045-.246-.072-.369-.11V4.01a1 1 0 0 0-1-1h-1z"/><path style="color:#000;font-style:normal;font-variant:normal;font-weight:700;font-stretch:normal;font-size:14.31169891px;line-height:125%;font-family:'Open Sans';-inkscape-font-specification:'Open Sans Bold';letter-spacing:0;word-spacing:0;display:inline;overflow:visible;visibility:visible;opacity:.3;fill:#000;fill-opacity:1;fill-rule:nonzero;stroke:none;marker:none;enable-background:accumulate" d="M4.025 4.01v.97c-.233.053-.443.13-.61.25-.302.216-.452.52-.452.887 0 .196.043.373.137.526.09.148.214.276.365.386.154.113.37.224.658.338.299.12.498.21.58.256a.118.1 0 0 0 .002 0c.09.05.152.1.191.148a.118.1 0 0 0 0 .002.206.206 0 0 1 .057.143c0 .113-.041.175-.127.227-.085.052-.223.087-.422.087a2.64 2.64 0 0 1-.562-.07 5.949 5.949 0 0 1-.768-.242.118.1 0 0 0-.166.09v.767a.118.1 0 0 0 .067.09c.312.13.67.19 1.05.217v.928h1v-.977c.239-.053.45-.133.623-.25.326-.22.495-.533.495-.908 0-.271-.086-.509-.262-.701-.18-.198-.489-.375-.928-.553a7.262 7.262 0 0 1-.603-.264h-.002a.56.56 0 0 1-.157-.13.22.22 0 0 1-.04-.137c0-.093.032-.154.107-.21.071-.052.181-.085.347-.085.145 0 .294.017.446.049.153.032.352.09.594.174a.118.1 0 0 0 .152-.055l.314-.64a.118.1 0 0 0-.06-.13 5.435 5.435 0 0 0-.701-.209c-.104-.022-.217-.02-.325-.033V4.01h-1zm2.995 6.056v1h4v-1h-4z"/><path style="color:#000;font-style:normal;font-variant:normal;font-weight:700;font-stretch:normal;font-size:14.31169891px;line-height:125%;font-family:'Open Sans';-inkscape-font-specification:'Open Sans Bold';letter-spacing:0;word-spacing:0;clip-rule:nonzero;display:inline;overflow:visible;visibility:visible;opacity:1;isolation:auto;mix-blend-mode:normal;color-interpolation:sRGB;color-interpolation-filters:linearRGB;solid-color:#000;solid-opacity:1;fill:#fff;fill-opacity:1;fill-rule:nonzero;stroke:none;stroke-width:5;stroke-linecap:butt;stroke-linejoin:miter;stroke-miterlimit:4;stroke-dasharray:none;stroke-dashoffset:0;stroke-opacity:1;marker:none;color-rendering:auto;image-rendering:auto;shape-rendering:auto;text-rendering:auto;enable-background:accumulate" d="M4.025 3.01v.97c-.233.053-.443.13-.61.25-.302.216-.452.52-.452.887 0 .196.043.373.137.526.09.148.214.276.365.386.154.113.37.224.658.338.299.12.498.21.58.256a.118.1 0 0 0 .002 0c.09.05.152.1.191.148a.118.1 0 0 0 0 .002.206.206 0 0 1 .057.143c0 .113-.041.175-.127.227-.085.052-.223.087-.422.087a2.64 2.64 0 0 1-.562-.07 5.946 5.946 0 0 1-.768-.242.118.1 0 0 0-.166.09v.767a.118.1 0 0 0 .067.09c.312.13.67.19 1.05.217v.928h1v-.977c.239-.053.45-.133.623-.25.326-.22.495-.533.495-.908 0-.271-.086-.509-.262-.701-.18-.198-.489-.375-.928-.553a7.262 7.262 0 0 1-.603-.264h-.002a.56.56 0 0 1-.157-.13.22.22 0 0 1-.04-.137c0-.093.032-.154.107-.21.071-.052.181-.085.347-.085.145 0 .294.017.446.049.153.032.352.09.594.174a.118.1 0 0 0 .152-.055l.314-.64a.118.1 0 0 0-.06-.13 5.435 5.435 0 0 0-.701-.209c-.104-.022-.217-.02-.325-.033V3.01h-1zM7.02 9.064v1h4v-1h-4z"/></svg>