<?xml version="1.0" encoding="UTF-8" standalone="no"?>
<!-- Created with Inkscape (http://www.inkscape.org/) -->

<svg
   xmlns:dc="http://purl.org/dc/elements/1.1/"
   xmlns:cc="http://creativecommons.org/ns#"
   xmlns:rdf="http://www.w3.org/1999/02/22-rdf-syntax-ns#"
   xmlns:svg="http://www.w3.org/2000/svg"
   xmlns="http://www.w3.org/2000/svg"
   xmlns:xlink="http://www.w3.org/1999/xlink"
   xmlns:sodipodi="http://sodipodi.sourceforge.net/DTD/sodipodi-0.dtd"
   xmlns:inkscape="http://www.inkscape.org/namespaces/inkscape"
   version="1.1"
   width="64"
   height="64"
   id="svg3952"
   inkscape:version="0.48.4 r9939"
   sodipodi:docname="dialog-password.svg">
  <sodipodi:namedview
     pagecolor="#ffffff"
     bordercolor="#666666"
     borderopacity="1"
     objecttolerance="10"
     gridtolerance="10"
     guidetolerance="10"
     inkscape:pageopacity="0"
     inkscape:pageshadow="2"
     inkscape:window-width="1440"
     inkscape:window-height="845"
     id="namedview39"
     showgrid="false"
     inkscape:zoom="7.0158251"
     inkscape:cx="32"
     inkscape:cy="32"
     inkscape:window-x="0"
     inkscape:window-y="30"
     inkscape:window-maximized="1"
     inkscape:current-layer="svg3952">
    <inkscape:grid
       type="xygrid"
       id="grid3157" />
  </sodipodi:namedview>
  <defs
     id="defs3954">
    <linearGradient
       id="linearGradient8838">
      <stop
         id="stop8840"
         style="stop-color:#000000;stop-opacity:1"
         offset="0" />
      <stop
         id="stop8842"
         style="stop-color:#000000;stop-opacity:0"
         offset="1" />
    </linearGradient>
    <radialGradient
       inkscape:collect="always"
       xlink:href="#linearGradient8838"
       id="radialGradient3103"
       gradientUnits="userSpaceOnUse"
       gradientTransform="matrix(2.9176471,0,0,0.988234,-150.71765,48.92941)"
       cx="62.625"
       cy="4.625"
       fx="62.625"
       fy="4.625"
       r="10.625" />
    <linearGradient
       id="linearGradient4011-6-9">
      <stop
         offset="0"
         style="stop-color:#ffffff;stop-opacity:1"
         id="stop4013-5-4" />
      <stop
         offset="0.507761"
         style="stop-color:#ffffff;stop-opacity:0.23529412"
         id="stop4015-4-8" />
      <stop
         offset="0.83456558"
         style="stop-color:#ffffff;stop-opacity:0.15686275"
         id="stop4017-7-8" />
      <stop
         offset="1"
         style="stop-color:#ffffff;stop-opacity:0.39215687"
         id="stop4019-0-4" />
    </linearGradient>
    <linearGradient
       id="linearGradient4011-6">
      <stop
         offset="0"
         style="stop-color:#ffffff;stop-opacity:1"
         id="stop4013-5" />
      <stop
         offset="0.507761"
         style="stop-color:#ffffff;stop-opacity:0.23529412"
         id="stop4015-4" />
      <stop
         offset="0.83456558"
         style="stop-color:#ffffff;stop-opacity:0.15686275"
         id="stop4017-7" />
      <stop
         offset="1"
         style="stop-color:#ffffff;stop-opacity:0.39215687"
         id="stop4019-0" />
    </linearGradient>
    <linearGradient
       id="linearGradient3907">
      <stop
         id="stop3909"
         offset="0"
         style="stop-color:#ffffff;stop-opacity:1;" />
      <stop
         id="stop3911"
         offset="1"
         style="stop-color:#b6b6b6;stop-opacity:1" />
    </linearGradient>
    <linearGradient
       id="outerBackgroundGradient-0">
      <stop
         id="stop3864-8-6-3"
         offset="0"
         style="stop-color:#c3c3c3;stop-opacity:1;" />
      <stop
         id="stop3866-9-1-7"
         offset="1"
         style="stop-color:#ebebeb;stop-opacity:1;" />
    </linearGradient>
    <clipPath
       id="clipPath3865"
       clipPathUnits="userSpaceOnUse">
      <path
         sodipodi:type="arc"
         style="opacity:0.2;fill:#000000;fill-opacity:1;stroke:none"
         id="path3867"
         sodipodi:cx="24"
         sodipodi:cy="24"
         sodipodi:rx="8"
         sodipodi:ry="8"
         d="m 32,24 a 8,8 0 1 1 -16,0 8,8 0 1 1 16,0 z" />
    </clipPath>
    <linearGradient
       id="linearGradient3881">
      <stop
         id="stop3883"
         offset="0"
         style="stop-color:#2d2d2d;stop-opacity:1" />
      <stop
         id="stop3885"
         offset="1"
         style="stop-color:#3f3f3f;stop-opacity:1" />
    </linearGradient>
    <linearGradient
       id="linearGradient4011-7">
      <stop
         offset="0"
         style="stop-color:#ffffff;stop-opacity:1"
         id="stop4013-8" />
      <stop
         offset="0.507761"
         style="stop-color:#ffffff;stop-opacity:0.23529412"
         id="stop4015-57" />
      <stop
         offset="0.83456558"
         style="stop-color:#ffffff;stop-opacity:0.15686275"
         id="stop4017-0" />
      <stop
         offset="1"
         style="stop-color:#ffffff;stop-opacity:0.39215687"
         id="stop4019-9" />
    </linearGradient>
    <linearGradient
       inkscape:collect="always"
       xlink:href="#linearGradient3881"
       id="linearGradient3198"
       gradientUnits="userSpaceOnUse"
       gradientTransform="matrix(1.3333337,0,0,1.3636363,-1.179e-5,1.2727296)"
       x1="24"
       y1="14"
       x2="24"
       y2="33" />
    <linearGradient
       inkscape:collect="always"
       xlink:href="#linearGradient4011-6-9"
       id="linearGradient3202"
       gradientUnits="userSpaceOnUse"
       gradientTransform="matrix(0.62162177,0,0,-0.62162177,-12.591113,49.762613)"
       x1="71.204407"
       y1="6.2375584"
       x2="71.204407"
       y2="44.340794" />
    <linearGradient
       inkscape:collect="always"
       xlink:href="#linearGradient4011-6"
       id="linearGradient3205"
       gradientUnits="userSpaceOnUse"
       gradientTransform="matrix(1.0540541,0,0,-1.0540541,-43.611006,60.727901)"
       x1="71.204407"
       y1="6.2375584"
       x2="71.204407"
       y2="44.340794" />
    <linearGradient
       inkscape:collect="always"
       xlink:href="#linearGradient4011-7"
       id="linearGradient3209"
       gradientUnits="userSpaceOnUse"
       gradientTransform="matrix(1.3243242,0,0,1.3243242,-62.998437,0.41879327)"
       x1="71.204407"
       y1="6.2375584"
       x2="71.204407"
       y2="44.340794" />
    <linearGradient
       inkscape:collect="always"
       xlink:href="#outerBackgroundGradient-0"
       id="linearGradient3214"
       gradientUnits="userSpaceOnUse"
       gradientTransform="matrix(0,1.3571428,-1.3571428,0,63.214294,2.7857139)"
       x1="9"
       y1="23"
       x2="37"
       y2="23" />
    <linearGradient
       inkscape:collect="always"
       xlink:href="#linearGradient3907"
       id="linearGradient3217"
       gradientUnits="userSpaceOnUse"
       gradientTransform="matrix(0,1.8214283,-1.8214283,0,73.892848,-7.8928516)"
       x1="9"
       y1="23"
       x2="37"
       y2="23" />
  </defs>
  <metadata
     id="metadata3957">
    <rdf:RDF>
      <cc:Work
         rdf:about="">
        <dc:format>image/svg+xml</dc:format>
        <dc:type
           rdf:resource="http://purl.org/dc/dcmitype/StillImage" />
        <dc:title></dc:title>
      </cc:Work>
    </rdf:RDF>
  </metadata>
  <path
     style="opacity:0.3;fill:url(#radialGradient3103);fill-opacity:1;fill-rule:evenodd;stroke:none;stroke-width:0.99999988;marker:none;visibility:visible;display:inline;overflow:visible"
     id="path8836"
     inkscape:connector-curvature="0"
     d="m 63,53.499998 c 0,5.79899 -13.879175,10.5 -31,10.5 -17.120825,0 -31,-4.70101 -31,-10.5 0,-5.79899 13.879175,-10.5 31,-10.5 17.120825,0 31,4.70101 31,10.5 l 0,0 z" />
  <path
     style="fill:url(#linearGradient3217);fill-opacity:1;fill-rule:nonzero;stroke:none"
     id="path3902"
     inkscape:connector-curvature="0"
     d="m 32.000901,8.5000036 c -14.083706,0 -25.5009015,11.4175774 -25.5009015,25.4996744 0,14.083386 11.4173165,25.500318 25.5009015,25.500318 C 46.083957,59.499996 57.5,48.083064 57.5,33.999678 57.5,19.917581 46.083957,8.5000036 32.000901,8.5000036 l 0,0 z" />
  <path
     style="fill:url(#linearGradient3214);fill-opacity:1;fill-rule:nonzero;stroke:none"
     id="path3824"
     inkscape:connector-curvature="0"
     d="M 32.000679,15.000001 C 21.506925,15.000001 13,23.507217 13,33.999761 13,44.493266 21.507018,52.999999 32.000679,52.999999 42.493939,52.999999 51,44.493266 51,33.999761 51,23.507217 42.493939,15.000001 32.000679,15.000001 l 0,0 z" />
  <path
     transform="matrix(1.375,0,0,1.375,-1,0.9999995)"
     sodipodi:type="arc"
     style="opacity:0.1;fill:#000000;fill-opacity:1;stroke:none"
     id="path3857"
     sodipodi:cx="24"
     sodipodi:cy="24"
     sodipodi:rx="8"
     sodipodi:ry="8"
     d="m 32,24 a 8,8 0 1 1 -16,0 8,8 0 1 1 16,0 z" />
  <path
     transform="matrix(1.3726093,0,0,1.3726093,-0.94262345,1.0573766)"
     d="m 32,24 a 8,8 0 1 1 -16,0 8,8 0 1 1 16,0 z"
     sodipodi:ry="8"
     sodipodi:rx="8"
     sodipodi:cy="24"
     sodipodi:cx="24"
     id="path3859"
     style="opacity:0.1;fill:none;stroke:#000000;stroke-width:1.45707893;stroke-miterlimit:4;stroke-opacity:1;stroke-dasharray:none"
     sodipodi:type="arc"
     clip-path="url(#clipPath3865)" />
  <path
     style="opacity:0.3;color:#000000;fill:none;stroke:#000000;stroke-width:1;stroke-linecap:round;stroke-linejoin:round;stroke-miterlimit:4;stroke-opacity:1;stroke-dasharray:none;stroke-dashoffset:0;marker:none;visibility:visible;display:inline;overflow:visible;enable-background:accumulate"
     id="path2555-6"
     inkscape:connector-curvature="0"
     d="m 31.999994,8.5000647 c -14.069975,0 -25.499929,11.4299483 -25.499929,25.4999333 0,14.069986 11.429954,25.499941 25.499929,25.499937 14.06999,0 25.49995,-11.429951 25.49994,-25.499937 0,-14.069985 -11.42995,-25.4999333 -25.49994,-25.4999333 z" />
  <path
     style="color:#000000;fill:none;stroke:url(#linearGradient3205);stroke-width:1;stroke-linecap:round;stroke-linejoin:round;stroke-miterlimit:4;stroke-opacity:1;stroke-dasharray:none;stroke-dashoffset:0;marker:none;visibility:visible;display:inline;overflow:visible;enable-background:accumulate"
     id="path8655-1"
     inkscape:connector-curvature="0"
     d="M 51.5,34.000691 C 51.5,23.23079 42.768901,14.499999 32.00025,14.499999 21.230599,14.499999 12.5,23.230889 12.5,34.000691 12.5,44.770094 21.230599,53.5 32.00025,53.5 42.768901,53.5 51.5,44.770094 51.5,34.000691 l 0,0 z" />
  <path
     style="opacity:0.5;color:#000000;fill:none;stroke:url(#linearGradient3202);stroke-width:1;stroke-linecap:round;stroke-linejoin:round;stroke-miterlimit:4;stroke-opacity:1;stroke-dasharray:none;stroke-dashoffset:0;marker:none;visibility:visible;display:inline;overflow:visible;enable-background:accumulate"
     id="path8655-1-6"
     inkscape:connector-curvature="0"
     d="m 43.5,34.000408 c 0,-6.35148 -5.149107,-11.500411 -11.499855,-11.500411 -6.351328,0 -11.500145,5.148988 -11.500145,11.500411 0,6.351188 5.148817,11.499595 11.500145,11.499595 6.350748,0 11.499855,-5.148407 11.499855,-11.499595 l 0,0 z" />
  <path
     style="opacity:0.5;color:#000000;fill:#ffffff;fill-opacity:1;fill-rule:nonzero;stroke:none;marker:none;visibility:visible;display:inline;overflow:visible;enable-background:accumulate"
     d="m 28,20 8,0 0,16.250001 -2.66667,2.5 2.66667,2.5 L 36,50 l -8,0 0,-16.249999 2.66666,-2.5 -2.66666,-2.5 z"
     id="rect3030-23"
     inkscape:connector-curvature="0"
     sodipodi:nodetypes="ccccccccccc" />
  <path
     style="fill:url(#linearGradient3198);fill-opacity:1;stroke:none"
     d="m 28,19 8,0 0,16.250001 -2.66667,2.5 2.66667,2.5 L 36,49 l -8,0 0,-16.249999 2.66666,-2.5 -2.66666,-2.5 z"
     id="rect3030"
     inkscape:connector-curvature="0"
     sodipodi:nodetypes="ccccccccccc" />
  <path
     style="opacity:0.3;fill:none;stroke:#000000;stroke-width:1;stroke-opacity:1"
     d="m 28.5,19.500001 7,0 0,15.531504 -2.90854,2.72958 2.90854,2.724609 0,8.014308 -7,0 0,-15.520743 L 31.415233,30.24968 28.5,27.514309 z"
     id="rect3030-2"
     inkscape:connector-curvature="0"
     sodipodi:nodetypes="ccccccccccc" />
  <path
     style="color:#000000;fill:none;stroke:url(#linearGradient3209);stroke-width:1;stroke-linecap:round;stroke-linejoin:round;stroke-miterlimit:4;stroke-opacity:1;stroke-dasharray:none;stroke-dashoffset:0;marker:none;visibility:visible;display:inline;overflow:visible;enable-background:accumulate"
     id="path8655"
     inkscape:connector-curvature="0"
     d="m 56.499999,33.999132 c 0,13.531412 -10.969824,24.500866 -24.499691,24.500866 C 18.469213,58.499998 7.5,47.53042 7.5,33.999132 7.5,20.468345 18.469213,9.500002 32.000308,9.500002 c 13.529867,0 24.499691,10.968343 24.499691,24.49913 l 0,0 z" />
</svg>
