<?xml version="1.0" encoding="UTF-8" standalone="no"?>
<!-- Created with Inkscape (http://www.inkscape.org/) -->

<svg
   xmlns:dc="http://purl.org/dc/elements/1.1/"
   xmlns:cc="http://creativecommons.org/ns#"
   xmlns:rdf="http://www.w3.org/1999/02/22-rdf-syntax-ns#"
   xmlns:svg="http://www.w3.org/2000/svg"
   xmlns="http://www.w3.org/2000/svg"
   xmlns:xlink="http://www.w3.org/1999/xlink"
   version="1.1"
   width="24"
   height="24"
   id="svg3943">
  <defs
     id="defs3945">
    <linearGradient
       x1="23.99999"
       y1="5.5641499"
       x2="23.99999"
       y2="43"
       id="linearGradient3013"
       xlink:href="#linearGradient3977"
       gradientUnits="userSpaceOnUse"
       gradientTransform="matrix(0.40540511,0,0,0.51351351,2.2696871,7.6756805)" />
    <linearGradient
       id="linearGradient3977">
      <stop
         id="stop3979"
         style="stop-color:#ffffff;stop-opacity:1"
         offset="0" />
      <stop
         id="stop3981"
         style="stop-color:#ffffff;stop-opacity:0.23529412"
         offset="0.03626217" />
      <stop
         id="stop3983"
         style="stop-color:#ffffff;stop-opacity:0.15686275"
         offset="0.95056331" />
      <stop
         id="stop3985"
         style="stop-color:#ffffff;stop-opacity:0.39215687"
         offset="1" />
    </linearGradient>
    <radialGradient
       cx="7.8060555"
       cy="9.9571075"
       r="12.671875"
       fx="7.2758255"
       fy="9.9571075"
       id="radialGradient3094"
       xlink:href="#linearGradient2867-449-88-871-390-598-476-591-434-148-57-177-8-3"
       gradientUnits="userSpaceOnUse"
       gradientTransform="matrix(-7.8526751e-8,3.1504889,-3.9304935,-9.4569199e-8,51.131135,-19.404765)" />
    <linearGradient
       id="linearGradient2867-449-88-871-390-598-476-591-434-148-57-177-8-3">
      <stop
         id="stop3750-1-0"
         style="stop-color:#90dbec;stop-opacity:1"
         offset="0" />
      <stop
         id="stop3752-3-7"
         style="stop-color:#55c1ec;stop-opacity:1"
         offset="0.26238" />
      <stop
         id="stop3754-1-8"
         style="stop-color:#3689e6;stop-opacity:1"
         offset="0.704952" />
      <stop
         id="stop3756-1-6"
         style="stop-color:#2b63a0;stop-opacity:1"
         offset="1" />
    </linearGradient>
    <radialGradient
       cx="605.71429"
       cy="486.64789"
       r="117.14286"
       fx="605.71429"
       fy="486.64789"
       id="radialGradient3021"
       xlink:href="#linearGradient5060"
       gradientUnits="userSpaceOnUse"
       gradientTransform="matrix(0.01204859,0,0,0.0082353,13.238793,26.980564)" />
    <linearGradient
       id="linearGradient5060">
      <stop
         id="stop5062"
         style="stop-color:#000000;stop-opacity:1"
         offset="0" />
      <stop
         id="stop5064"
         style="stop-color:#000000;stop-opacity:0"
         offset="1" />
    </linearGradient>
    <radialGradient
       cx="605.71429"
       cy="486.64789"
       r="117.14286"
       fx="605.71429"
       fy="486.64789"
       id="radialGradient3024"
       xlink:href="#linearGradient5060"
       gradientUnits="userSpaceOnUse"
       gradientTransform="matrix(-0.01204859,0,0,0.0082353,10.761206,26.980564)" />
    <linearGradient
       id="linearGradient5048">
      <stop
         id="stop5050"
         style="stop-color:#000000;stop-opacity:0"
         offset="0" />
      <stop
         id="stop5056"
         style="stop-color:#000000;stop-opacity:1"
         offset="0.5" />
      <stop
         id="stop5052"
         style="stop-color:#000000;stop-opacity:0"
         offset="1" />
    </linearGradient>
    <linearGradient
       x1="302.85715"
       y1="366.64789"
       x2="302.85715"
       y2="609.50507"
       id="linearGradient3941"
       xlink:href="#linearGradient5048"
       gradientUnits="userSpaceOnUse"
       gradientTransform="matrix(0.0352071,0,0,0.0082353,-0.724852,26.980547)" />
    <linearGradient
       x1="23.99999"
       y1="5.5641499"
       x2="23.99999"
       y2="43"
       id="linearGradient3019"
       xlink:href="#linearGradient3977"
       gradientUnits="userSpaceOnUse"
       gradientTransform="matrix(0.40540511,0,0,0.51351351,2.2696871,-0.3243195)" />
    <radialGradient
       cx="7.8060555"
       cy="9.9571075"
       r="12.671875"
       fx="7.2758255"
       fy="9.9571075"
       id="radialGradient3022"
       xlink:href="#linearGradient2867-449-88-871-390-598-476-591-434-148-57-177-8-3"
       gradientUnits="userSpaceOnUse"
       gradientTransform="matrix(-7.8526751e-8,3.1504889,-3.9304935,-9.4569199e-8,51.131135,-27.404765)" />
    <radialGradient
       cx="605.71429"
       cy="486.64789"
       r="117.14286"
       fx="605.71429"
       fy="486.64789"
       id="radialGradient3025"
       xlink:href="#linearGradient5060"
       gradientUnits="userSpaceOnUse"
       gradientTransform="matrix(0.01204859,0,0,0.0082353,13.238793,18.980564)" />
    <radialGradient
       cx="605.71429"
       cy="486.64789"
       r="117.14286"
       fx="605.71429"
       fy="486.64789"
       id="radialGradient3028"
       xlink:href="#linearGradient5060"
       gradientUnits="userSpaceOnUse"
       gradientTransform="matrix(-0.01204859,0,0,0.0082353,10.761206,18.980564)" />
    <linearGradient
       x1="302.85715"
       y1="366.64789"
       x2="302.85715"
       y2="609.50507"
       id="linearGradient3031"
       xlink:href="#linearGradient5048"
       gradientUnits="userSpaceOnUse"
       gradientTransform="matrix(0.0352071,0,0,0.0082353,-0.724852,18.980547)" />
  </defs>
  <metadata
     id="metadata3948">
    <rdf:RDF>
      <cc:Work
         rdf:about="">
        <dc:format>image/svg+xml</dc:format>
        <dc:type
           rdf:resource="http://purl.org/dc/dcmitype/StillImage" />
        <dc:title></dc:title>
      </cc:Work>
    </rdf:RDF>
  </metadata>
  <rect
     width="16.999998"
     height="2"
     x="3.5000007"
     y="22"
     id="rect2879"
     style="opacity:0.15;fill:url(#linearGradient3031);fill-opacity:1;fill-rule:nonzero;stroke:none;stroke-width:1;marker:none;visibility:visible;display:inline;overflow:visible" />
  <path
     d="m 3.4999999,22.000085 c 0,0 0,1.999891 0,1.999891 C 2.8795275,24.003776 2,23.551901 2,22.999901 2,22.447902 2.6924,22.000085 3.4999999,22.000085 z"
     id="path2881"
     style="opacity:0.15;fill:url(#radialGradient3028);fill-opacity:1;fill-rule:nonzero;stroke:none;stroke-width:1;marker:none;visibility:visible;display:inline;overflow:visible" />
  <path
     d="m 20.5,22.000085 c 0,0 0,1.999891 0,1.999891 0.620472,0.0038 1.5,-0.448075 1.5,-1.000075 0,-0.551999 -0.692402,-0.999816 -1.5,-0.999816 z"
     id="path2883"
     style="opacity:0.15;fill:url(#radialGradient3025);fill-opacity:1;fill-rule:nonzero;stroke:none;stroke-width:1;marker:none;visibility:visible;display:inline;overflow:visible" />
  <path
     d="m 3.5000001,1.500032 c 3.895563,0 16.9999789,0.0013 16.9999789,0.0013 L 20.5,22.499995 c 0,0 -11.333333,0 -17,0 0,-7.000001 0,-14.000001 0,-20.9999998 z"
     id="path4160"
     style="color:#000000;fill:url(#radialGradient3022);fill-opacity:1;fill-rule:nonzero;stroke:none;stroke-width:1;marker:none;visibility:visible;display:inline;overflow:visible;enable-background:accumulate" />
  <path
     d="m 19.5,21.5 -15.0000004,0 0,-19 L 19.5,2.5 z"
     id="rect6741-1"
     style="opacity:0.5;fill:none;stroke:url(#linearGradient3019);stroke-width:1;stroke-linecap:round;stroke-linejoin:miter;stroke-miterlimit:4;stroke-opacity:1;stroke-dasharray:none;stroke-dashoffset:0" />
  <path
     d="m 3.4999601,1.4999569 c 3.8955809,0 17.0000589,0.00136 17.0000589,0.00136 l 2.1e-5,20.9987161 c 0,0 -11.3333862,0 -17.0000799,0 0,-7.000018 0,-14.000035 0,-21.0000538 z"
     id="path4160-3-1"
     style="opacity:0.3;fill:none;stroke:#000000;stroke-width:0.99992186;stroke-linecap:butt;stroke-linejoin:round;stroke-miterlimit:4;stroke-opacity:1;stroke-dasharray:none;stroke-dashoffset:0;display:inline" />
  <path
     d="M 17.309848,7.5002978 C 17.257118,7.5261388 17.210308,7.609968 17.164756,7.7462216 17.043282,8.1095648 16.188528,10.619591 11.346578,10.740706 9.0360727,10.797992 8.0529952,8.7733153 8.0529952,8.7733153 l -0.058037,2.6038997 c 0,0 0.2483521,0.580284 -0.246656,1.18622 -0.026907,-0.04192 -0.042993,-0.08936 -0.072546,-0.130195 C 7.4975943,12.187075 7.2887388,11.979939 7.0663714,11.825664 6.8108707,11.6484 6.5451077,11.531363 6.2828761,11.492943 c -0.3023257,-0.04429 -0.5947434,0.02098 -0.8270229,0.18806 -0.2323503,0.167126 -0.3676123,0.423173 -0.4207661,0.723305 -0.04608,0.260188 -0.030092,0.541456 0.058037,0.839034 0.076709,0.259016 0.1991553,0.52053 0.3772385,0.766704 0.1881327,0.260064 0.4225132,0.490358 0.6674221,0.650974 0.2762063,0.181142 0.5690307,0.287255 0.8560412,0.303788 0.088815,0.0051 0.1795585,-0.0166 0.2611651,-0.02893 1.8589524,1.469333 5.3837,2.937034 7.829471,1.485086 0.0529,0.01795 0.106421,0.03954 0.159601,0.05786 0.0013,0.0251 -0.0066,0.04997 0,0.07233 l 0.116073,-0.0434 c 0.362492,0.191163 0.815717,0.32015 1.218772,0.462916 -0.04524,0.381752 0.14414,0.702121 0.623894,0.885143 0.863986,0.329602 1.833638,0.653187 1.833638,0.653187 -0.412131,-1.394823 -0.404843,-2.605521 -1.473426,-2.683588 -0.181466,-0.01326 -0.407314,0.167884 -0.464293,0.216992 l -0.972115,-0.622043 -0.04353,0 -0.01451,-0.01447 c 1.30908,-1.284502 1.908472,-3.430967 1.444408,-7.6307448 -0.02685,-0.2098686 -0.115237,-0.3179168 -0.203126,-0.2748484 z"
     id="path4323-5"
     style="opacity:0.3;color:#000000;fill:#10283f;fill-opacity:0.63137255;fill-rule:nonzero;stroke:none;stroke-width:0.99999994;marker:none;visibility:visible;display:inline;overflow:visible;enable-background:accumulate" />
  <path
     d="M 17.309848,6.5003258 C 17.257118,6.5261668 17.210308,6.609996 17.164756,6.7462496 17.043282,7.1095928 16.188528,9.619619 11.346578,9.740734 9.0360727,9.79802 8.0529952,7.7733433 8.0529952,7.7733433 l -0.058037,2.6038997 c 0,0 0.2483521,0.580284 -0.246656,1.18622 -0.026907,-0.04192 -0.042993,-0.08936 -0.072546,-0.130195 C 7.4975943,11.187103 7.2887388,10.979967 7.0663714,10.825692 6.8108707,10.648428 6.5451077,10.531391 6.2828761,10.492971 c -0.3023257,-0.04429 -0.5947434,0.02098 -0.8270229,0.18806 -0.2323503,0.167126 -0.3676123,0.423173 -0.4207661,0.723305 -0.04608,0.260188 -0.030092,0.541456 0.058037,0.839034 0.076709,0.259016 0.1991553,0.52053 0.3772385,0.766704 0.1881327,0.260064 0.4225132,0.490358 0.6674221,0.650974 0.2762063,0.181142 0.5690307,0.287255 0.8560412,0.303788 0.088815,0.0051 0.1795585,-0.0166 0.2611651,-0.02893 1.8589524,1.469333 5.3837,2.937034 7.829471,1.485086 0.0529,0.01795 0.106421,0.03954 0.159601,0.05786 0.0013,0.0251 -0.0066,0.04997 0,0.07233 l 0.116073,-0.0434 c 0.362492,0.191163 0.815717,0.32015 1.218772,0.462916 -0.04524,0.381752 0.14414,0.702121 0.623894,0.885143 0.863986,0.329602 1.833638,0.653187 1.833638,0.653187 -0.412131,-1.394823 -0.404843,-2.605521 -1.473426,-2.683588 -0.181466,-0.01326 -0.407314,0.167884 -0.464293,0.216992 l -0.972115,-0.622043 -0.04353,0 -0.01451,-0.01447 c 1.30908,-1.284502 1.908472,-3.430967 1.444408,-7.6307448 -0.02685,-0.2098686 -0.115237,-0.3179168 -0.203126,-0.2748484 z"
     id="path4323"
     style="color:#000000;fill:#ffffff;fill-opacity:1;fill-rule:nonzero;stroke:none;stroke-width:0.99999994;marker:none;visibility:visible;display:inline;overflow:visible;enable-background:accumulate" />
</svg>
