<svg xmlns="http://www.w3.org/2000/svg" xmlns:xlink="http://www.w3.org/1999/xlink" width="32" height="32">
    <defs>
        <linearGradient x1="397.07" y1="87.076" gradientTransform="matrix(.68184 0 0 .60634 -254.25 -27.798)" x2="397.07" gradientUnits="userSpaceOnUse" y2="95.366" id="c">
            <stop offset="0" stop-color="#787878"/>
            <stop offset=".24" stop-color="#c8c8c8"/>
            <stop offset=".335" stop-color="#e6e6e6"/>
            <stop offset="1" stop-color="#8c8c8c"/>
        </linearGradient>
        <radialGradient r="7.228" gradientTransform="matrix(1.24509 0 0 .27669 7.655 8.632)" cx="6.703" cy="73.616" gradientUnits="userSpaceOnUse" id="b">
            <stop offset="0"/>
            <stop offset="1" stop-opacity="0"/>
        </radialGradient>
        <linearGradient x1="24.81" y1="51.15" gradientTransform="matrix(.76735 0 0 .5174 -2.416 1.59)" x2="24.81" gradientUnits="userSpaceOnUse" y2="42.989" id="d">
            <stop offset="0" stop-color="#FFF"/>
            <stop offset=".034" stop-opacity=".235" stop-color="#FFF"/>
            <stop offset=".969" stop-opacity=".157" stop-color="#FFF"/>
            <stop offset="1" stop-opacity=".392" stop-color="#FFF"/>
        </linearGradient>
        <linearGradient x1="24" y1="6.392" gradientTransform="matrix(.78378 0 0 .54054 -2.81 .527)" x2="24" gradientUnits="userSpaceOnUse" y2="41.423" id="e">
            <stop offset="0" stop-color="#FFF"/>
            <stop offset=".015" stop-opacity=".235" stop-color="#FFF"/>
            <stop offset=".996" stop-opacity=".157" stop-color="#FFF"/>
            <stop offset="1" stop-opacity=".392" stop-color="#FFF"/>
        </linearGradient>
        <linearGradient x1="15" y1="24.619" gradientTransform="matrix(.7 0 0 .82609 1.3 10.609)" x2="15" gradientUnits="userSpaceOnUse" y2="2" id="f">
            <stop offset="0" stop-color="#261e2b"/>
            <stop offset="1" stop-color="#352f39"/>
        </linearGradient>
        <linearGradient x1="10" y1="-3" gradientTransform="matrix(.75 0 0 .77778 .271 9.222)" x2="20" gradientUnits="userSpaceOnUse" y2="12" id="g">
            <stop offset="0" stop-color="#FFF"/>
            <stop offset="1" stop-opacity="0" stop-color="#FFF"/>
        </linearGradient>
        <linearGradient id="a">
            <stop offset="0" stop-color="#d1d1d1"/>
            <stop offset="1" stop-color="#eaeaea"/>
        </linearGradient>
        <radialGradient r="3.527" gradientTransform="matrix(-.39995 -.79806 -1.19983 .59855 1276.255 -586.231)" cx="15" cy="1039.7" gradientUnits="userSpaceOnUse" xlink:href="#a" id="h"/>
        <radialGradient r="3.527" gradientTransform="matrix(.39995 -.79806 1.19983 .59855 -1225.064 -586.231)" cx="15" cy="1039.7" gradientUnits="userSpaceOnUse" xlink:href="#a" id="i"/>
        <radialGradient r="12.672" gradientTransform="matrix(0 2.08567 -2.57665 0 51.562 1.954)" cx="8.863" cy="9.994" gradientUnits="userSpaceOnUse" id="j">
            <stop offset="0" stop-color="#f89b7e"/>
            <stop offset=".262" stop-color="#e35d4f"/>
            <stop offset=".661" stop-color="#c6262e"/>
            <stop offset="1" stop-color="#690b2c"/>
        </radialGradient>
        <linearGradient x1="56" y1="40" gradientTransform="matrix(.49043 0 0 .50046 1.007 .78)" x2="58.033" gradientUnits="userSpaceOnUse" y2="42.054" id="k">
            <stop offset="0" stop-color="#FFF"/>
            <stop offset="1" stop-opacity="0" stop-color="#FFF"/>
        </linearGradient>
        <linearGradient x1="56" y1="40" gradientTransform="matrix(-.49043 0 0 .50046 50.231 .78)" x2="58.033" gradientUnits="userSpaceOnUse" y2="42.054" id="l">
            <stop offset="0" stop-color="#FFF"/>
            <stop offset="1" stop-opacity="0" stop-color="#FFF"/>
        </linearGradient>
    </defs>
    <path fill="url(#b)" d="M25 29c0 1.105-4.03 2-9 2-4.971 0-9-.895-9-2s4.029-2 9-2 9 .895 9 2z" opacity=".3"/>
    <path d="M11.799 24.5s.097 1.899-.387 2.5-1.446.5-1.446.5c-.618.063-.623 2 0 2h12.069c.623 0 .618-1.938 0-2 0 0-.963.101-1.447-.5-.484-.601-.387-2.5-.387-2.5H11.8z" fill="url(#c)" color="#000"/>
    <path fill="none" stroke-linecap="round" stroke="url(#d)" d="M12.786 22.209s.002 2.844-.02 3.261c-.02.382-.055.787-.118 1.158-.063.372-.197.652-.442.988-.54.742-1.337.865-1.664.884h10.916c-.327-.019-1.09-.212-1.63-.953-.244-.337-.414-.547-.476-.919a10.07 10.07 0 0 1-.118-1.158c-.022-.417-.02-3.26-.02-3.26z" stroke-linejoin="round" color="#000"/>
    <path fill="none" stroke-width=".998" stroke-linecap="round" stroke="#000" stroke-dashoffset=".5" d="M11.799 24.5s.097 1.899-.387 2.5-1.446.5-1.446.5c-.618.063-.623 2 0 2h12.069c.623 0 .618-1.938 0-2 0 0-.963.101-1.447-.5-.484-.601-.387-2.5-.387-2.5H11.8z" stroke-linejoin="round" opacity=".4" color="#000"/>
    <rect fill="#1a1a1a" x=".5" y="2.5" stroke-linecap="round" stroke="#000" width="31" height="22" ry=".667" rx=".689" stroke-dashoffset=".5" stroke-linejoin="round"/>
    <rect fill="none" x="1.5" y="3.5" stroke-linecap="round" stroke="url(#e)" width="29" height="20" ry="0" rx="0" stroke-linejoin="round" opacity=".2"/>
    <path d="M2 4h28v19H2z" fill="url(#f)"/>
    <path d="M2 4v19h28V4zm-27 1H1v17h-26z" opacity=".3" color="#000"/>
    <path d="M1.021 3v14l30-10.208V3z" fill="url(#g)" opacity=".2"/>
    <path fill-rule="evenodd" d="M11 7v1h4V7h-4zm6 0v1h4V7h-4zM6 12v4h1v-4H6zm19 0v4h1v-4h-1zm-14 8v1h4v-1h-4zm6 0v1h4v-1h-4z" opacity=".3"/>
    <path fill="#FFF" fill-rule="evenodd" d="M11 6v1h4V6h-4zm6 0v1h4V6h-4zM6 11v4h1v-4H6zm19 0v4h1v-4h-1zm-14 8v1h4v-1h-4zm6 0v1h4v-1h-4z" opacity=".5"/>
    <path fill="none" stroke-linecap="round" stroke="#000" d="M25.467 18.5c0 2 0 2-1.967 2m-15-.017c-2 0-2 0-2-1.966m18.967-9c0-2 0-2-1.967-2m-15 .017c-2 0-2 0-2 1.967" opacity=".3"/>
    <path fill="none" stroke-linecap="round" stroke="#FFF" d="M25.467 17.5c0 2 0 2-1.967 2m-15-.017c-2 0-2 0-2-1.966m18.967-9c0-2 0-2-1.967-2m-15 .017c-2 0-2 0-2 1.967" opacity=".5"/>
    <path d="M25.262 24.112l-3.738-6.896s-2.61 5.489 3.738 9.007z" fill="url(#h)" transform="translate(-3.074 -3.784) scale(1.12014)"/>
    <path d="M25.929 24.112l3.738-6.896s2.61 5.489-3.738 9.007z" fill="url(#i)" transform="translate(-3.074 -3.784) scale(1.12014)"/>
    <path d="M23.858 26.223c-.974.052-3.57.641-3.57 2.463 0 2.081 1.542 2.814 2.468 2.814.926 0 2.432-.704 2.468-2.814.029-1.683-.575-2.36-1.058-2.463a1.506 1.506 0 0 0-.308 0zm3.13 0c-.483.104-1.087.78-1.058 2.463.036 2.11 1.542 2.814 2.468 2.814.926 0 2.468-.733 2.468-2.814 0-2.082-3.396-2.567-3.879-2.463zm-3.13 1.32s.31 3.611-1.587 2.198c-2.108-1.571 1.587-2.199 1.587-2.199zm3.438 0s3.695.627 1.587 2.198c-1.896 1.414-1.587-2.199-1.587-2.199z" fill="url(#j)" color="#000" transform="translate(-3.074 -3.784) scale(1.12014)"/>
    <path fill="none" stroke-width="1.00028502" stroke="#000" d="M25.223 23.225L21.036 15.5s-2.923 6.147 4.187 10.088zM25.97 23.225l4.187-7.724s2.923 6.147-4.187 10.088z" opacity=".5"/>
    <path fill="none" stroke-width=".893" stroke="url(#k)" d="M29.468 18.969l-2.744 5.354-.045.65c2.139-1.487 2.641-3.243 2.746-4.65.047-.631.132-.9.043-1.354z" transform="translate(-3.074 -3.784) scale(1.12014)"/>
    <path fill="none" stroke-width=".893" stroke="url(#l)" d="M21.771 18.969l2.744 5.354.045.65c-2.139-1.487-2.641-3.243-2.746-4.65-.047-.631-.132-.9-.043-1.354z" transform="translate(-3.074 -3.784) scale(1.12014)"/>
    <path fill="none" stroke-width="1.00028502" stroke-linecap="round" stroke="#640000" d="M23.65 25.59c-1.09.057-3.999.718-3.999 2.758 0 2.332 1.728 3.153 2.765 3.153 1.037 0 2.725-.789 2.765-3.153.032-1.885-.644-2.643-1.185-2.759a1.687 1.687 0 0 0-.346 0zm3.506 0c-.541.115-1.217.873-1.185 2.758.04 2.364 1.728 3.153 2.765 3.153 1.037 0 2.765-.821 2.765-3.153s-3.804-2.875-4.345-2.759zm-3.506 1.477s.347 4.046-1.777 2.463c-2.362-1.76 1.777-2.463 1.777-2.463zm3.851 0s4.14.703 1.778 2.463c-2.124 1.584-1.778-2.463-1.778-2.463z" stroke-linejoin="round" opacity=".6" color="#000"/>
</svg>
