<svg xmlns="http://www.w3.org/2000/svg" xmlns:xlink="http://www.w3.org/1999/xlink" height="32" width="32">
    <defs>
        <linearGradient id="a">
            <stop offset="0" stop-color="#fff"/>
            <stop offset=".063" stop-color="#fff" stop-opacity=".235"/>
            <stop offset=".951" stop-color="#fff" stop-opacity=".157"/>
            <stop offset="1" stop-color="#fff" stop-opacity=".392"/>
        </linearGradient>
        <linearGradient id="b">
            <stop offset="0" stop-color="#181818"/>
            <stop offset="1" stop-color="#181818" stop-opacity="0"/>
        </linearGradient>
        <linearGradient id="c">
            <stop offset="0" stop-color="#181818"/>
            <stop offset="1" stop-color="#181818" stop-opacity="0"/>
        </linearGradient>
        <linearGradient id="d">
            <stop offset="0" stop-color="#181818" stop-opacity="0"/>
            <stop offset=".5" stop-color="#181818"/>
            <stop offset="1" stop-color="#181818" stop-opacity="0"/>
        </linearGradient>
        <linearGradient id="e">
            <stop offset="0"/>
            <stop offset="1" stop-opacity="0"/>
        </linearGradient>
        <linearGradient gradientTransform="translate(1.081 2.081) scale(.62162)" gradientUnits="userSpaceOnUse" xlink:href="#a" id="m" y2="43" x2="24" y1="5" x1="24"/>
        <radialGradient gradientTransform="matrix(2.00378 0 0 1.4 27.988 -17.4)" gradientUnits="userSpaceOnUse" xlink:href="#b" id="i" fy="43.5" fx="4.993" r="2.5" cy="43.5" cx="4.993"/>
        <radialGradient gradientTransform="matrix(2.00378 0 0 1.4 -20.012 -104.4)" gradientUnits="userSpaceOnUse" xlink:href="#c" id="j" fy="43.5" fx="4.993" r="2.5" cy="43.5" cx="4.993"/>
        <linearGradient gradientUnits="userSpaceOnUse" xlink:href="#d" id="k" y2="39.999" x2="25.058" y1="47.028" x1="25.058"/>
        <linearGradient gradientTransform="matrix(.65 0 0 .25 .4 7)" gradientUnits="userSpaceOnUse" xlink:href="#e" id="n" y2="19.963" x2="23.954" y1="15.999" x1="23.954"/>
        <linearGradient gradientTransform="matrix(.56308 0 0 .53992 2.486 2.57)" gradientUnits="userSpaceOnUse" xlink:href="#f" id="l" y2="48.396" x2="25.132" y1="15.5" x1="25.132"/>
        <linearGradient id="f">
            <stop offset="0" stop-color="#fafafa"/>
            <stop offset="1" stop-color="#e2e1de"/>
        </linearGradient>
        <linearGradient gradientTransform="matrix(.45455 0 0 .45455 1.455 2.455)" gradientUnits="userSpaceOnUse" xlink:href="#g" id="o" y2="48.934" x2="24.17" y1="-12.242" x1="24.17"/>
        <linearGradient id="g">
            <stop offset="0" stop-color="#cdf87e"/>
            <stop offset=".262" stop-color="#a2e34f"/>
            <stop offset=".661" stop-color="#68b723"/>
            <stop offset="1" stop-color="#1d7e0d"/>
        </linearGradient>
        <linearGradient id="h">
            <stop offset="0" stop-color="#fff"/>
            <stop offset=".063" stop-color="#fff" stop-opacity=".235"/>
            <stop offset=".951" stop-color="#fff" stop-opacity=".157"/>
            <stop offset="1" stop-color="#fff" stop-opacity=".392"/>
        </linearGradient>
        <linearGradient gradientTransform="translate(1.081 2.081) scale(.62162)" gradientUnits="userSpaceOnUse" xlink:href="#h" id="p" y2="43" x2="24" y1="5" x1="24"/>
    </defs>
    <g opacity=".35">
        <path fill="url(#i)" d="M38 40h5v7h-5z" transform="matrix(.73684 0 0 .42857 -1.684 10.857)"/>
        <path transform="matrix(-.73684 0 0 -.42857 -1.684 10.857)" fill="url(#j)" d="M-10-47h5v7h-5z"/>
        <path fill="url(#k)" d="M10 40h28v7H10z" transform="matrix(.73684 0 0 .42857 -1.684 10.857)"/>
    </g>
    <rect style="marker:none" y="5" x="4" ry="1.5" rx="1.5" height="24" width="24" color="#000" fill="url(#l)" overflow="visible"/>
    <rect y="5.5" x="4.5" ry="1" rx="1" height="23" width="23" fill="none" stroke="url(#m)" stroke-linecap="round" stroke-linejoin="round"/>
    <path style="marker:none" d="M3.5 11v16.5c0 1.108.892 2 2 2h21c1.108 0 2-.892 2-2V11" opacity=".3" color="#000" fill="none" stroke="#000" overflow="visible"/>
    <rect style="marker:none" y="11" x="3" ry="0" rx="0" height="1" width="26" opacity=".15" fill="url(#n)" overflow="visible"/>
    <path style="marker:none" d="M25.5 23.5h-19zm-.014-8.981L6.5 14.505V26.5h19zM25.5 20.5h-19m19-3h-19m3.013-2.969L9.487 26.5m4.016-11.917L13.498 26.5m4-11.958l.005 11.958m3.987-12l.02 12" opacity=".2" color="#000" fill="none" stroke="#fff" overflow="visible"/>
    <path d="M25.5 22.5h-19zm-.014-8.981L6.5 13.505V25.5h19zM25.5 19.5h-19m19-3h-19m3.013-2.969L9.487 25.5m4.016-11.917L13.498 25.5m4-11.958l.005 11.958m3.987-12l.02 12" opacity=".25" fill="none" stroke="#5e553c"/>
    <path style="marker:none" d="M5.5 4.5c-1.108 0-2 .892-2 2v4h25v-4c0-1.108-.892-2-2-2z" color="#000" fill="url(#o)" overflow="visible"/>
    <path style="marker:none" d="M3.5 10.5v-4c0-1.108.892-2 2-2h21c1.108 0 2 .892 2 2v4z" opacity=".4" color="#000" fill="none" stroke="#126400" overflow="visible"/>
    <path d="M5.5 5.5c-.554 0-1 .446-1 1v3h23v-3c0-.554-.446-1-1-1z" opacity=".5" fill="none" stroke="url(#p)" stroke-linecap="round"/>
    <path style="marker:none" d="M7.26 8.5a.75.75 NaN 1 1-1.5 0 .75.75 NaN 1 1 1.5 0z" opacity=".3" color="#000" fill="#fff" overflow="visible"/>
    <path style="marker:none" d="M7.26 7.5a.75.75 NaN 1 1-1.5 0 .75.75 NaN 1 1 1.5 0z" opacity=".4" color="#000" fill="#126400" overflow="visible"/>
    <path style="marker:none" d="M26.25 8.5a.75.75 NaN 1 1-1.5 0 .75.75 NaN 1 1 1.5 0z" opacity=".3" color="#000" fill="#fff" overflow="visible"/>
    <path style="marker:none" d="M26.25 7.5a.75.75 NaN 1 1-1.5 0 .75.75 NaN 1 1 1.5 0z" opacity=".4" color="#000" fill="#126400" overflow="visible"/>
</svg>
