<svg xmlns="http://www.w3.org/2000/svg" xmlns:xlink="http://www.w3.org/1999/xlink" width="32" height="32"><defs><linearGradient id="a"><stop offset="0" stop-color="#fff"/><stop offset=".063" stop-color="#fff" stop-opacity=".235"/><stop offset=".951" stop-color="#fff" stop-opacity=".157"/><stop offset="1" stop-color="#fff" stop-opacity=".392"/></linearGradient><linearGradient id="b"><stop offset="0" stop-color="#181818"/><stop offset="1" stop-color="#181818" stop-opacity="0"/></linearGradient><linearGradient id="c"><stop offset="0" stop-color="#181818"/><stop offset="1" stop-color="#181818" stop-opacity="0"/></linearGradient><linearGradient id="d"><stop offset="0" stop-color="#181818" stop-opacity="0"/><stop offset=".5" stop-color="#181818"/><stop offset="1" stop-color="#181818" stop-opacity="0"/></linearGradient><linearGradient id="e"><stop offset="0"/><stop offset="1" stop-opacity="0"/></linearGradient><linearGradient x1="24" y1="5" x2="24" y2="43" id="m" xlink:href="#a" gradientUnits="userSpaceOnUse" gradientTransform="matrix(.67568 0 0 .64865 -.216 .932)"/><radialGradient cx="4.993" cy="43.5" r="2.5" fx="4.993" fy="43.5" id="i" xlink:href="#b" gradientUnits="userSpaceOnUse" gradientTransform="matrix(2.00378 0 0 1.4 27.988 -17.4)"/><radialGradient cx="4.993" cy="43.5" r="2.5" fx="4.993" fy="43.5" id="j" xlink:href="#c" gradientUnits="userSpaceOnUse" gradientTransform="matrix(2.00378 0 0 1.4 -20.012 -104.4)"/><linearGradient x1="25.058" y1="47.028" x2="25.058" y2="39.999" id="k" xlink:href="#d" gradientUnits="userSpaceOnUse"/><linearGradient x1="23.954" y1="15.999" x2="23.954" y2="19.963" id="n" xlink:href="#e" gradientUnits="userSpaceOnUse" gradientTransform="matrix(.7 0 0 .26923 -.8 5.615)"/><linearGradient x1="25.132" y1="15.5" x2="25.132" y2="48.396" id="l" xlink:href="#f" gradientUnits="userSpaceOnUse" gradientTransform="matrix(.56308 0 0 .53992 2.486 2.57)"/><linearGradient id="f"><stop offset="0" stop-color="#fafafa"/><stop offset="1" stop-color="#e2e1de"/></linearGradient><linearGradient x1="24.17" y1="-12.242" x2="24.17" y2="48.934" id="o" xlink:href="#g" gradientUnits="userSpaceOnUse" gradientTransform="matrix(.45455 0 0 .45455 .455 1.455)"/><linearGradient id="g"><stop offset="0" stop-color="#cdf87e"/><stop offset=".262" stop-color="#a2e34f"/><stop offset=".661" stop-color="#68b723"/><stop offset="1" stop-color="#1d7e0d"/></linearGradient><linearGradient id="h"><stop offset="0" stop-color="#fff"/><stop offset=".063" stop-color="#fff" stop-opacity=".235"/><stop offset=".951" stop-color="#fff" stop-opacity=".157"/><stop offset="1" stop-color="#fff" stop-opacity=".392"/></linearGradient><linearGradient x1="24" y1="5" x2="24" y2="43" id="p" xlink:href="#h" gradientUnits="userSpaceOnUse" gradientTransform="translate(.081 1.081) scale(.62162)"/></defs><g opacity=".35"><path fill="url(#i)" d="M38 40h5v7h-5z" transform="matrix(.73684 0 0 .42857 -1.684 10.857)"/><path transform="matrix(-.73684 0 0 -.42857 -1.684 10.857)" fill="url(#j)" d="M-10-47h5v7h-5z"/><path fill="url(#k)" d="M10 40h28v7H10z" transform="matrix(.73684 0 0 .42857 -1.684 10.857)"/></g><rect width="26" height="25" rx="1.5" ry="1.5" x="3" y="4" style="marker:none" color="#000" overflow="visible" fill="url(#l)"/><rect width="25" height="24" rx="1.087" ry="1.043" x="3.5" y="4.5" fill="none" stroke="url(#m)" stroke-linecap="round" stroke-linejoin="round"/><path d="M2.5 10v17.5c0 1.108.892 2 2 2h23c1.108 0 2-.892 2-2V10" style="marker:none" color="#000" overflow="visible" opacity=".3" fill="none" stroke="#000"/><rect width="28" height="1.077" rx="0" ry="0" x="2" y="9.923" style="marker:none" overflow="visible" opacity=".15" fill="url(#n)"/><path d="M25.5 23.5h-19zm-.014-8.981L6.5 14.505V26.5h19zM25.5 20.5h-19m19-3h-19m3.013-2.969L9.487 26.5m4.016-11.917L13.498 26.5m4-11.958l.005 11.958m3.987-12l.02 12" style="marker:none" opacity=".2" color="#000" fill="none" stroke="#fff" overflow="visible"/><path d="M25.5 22.5h-19zm-.014-8.981L6.5 13.505V25.5h19zM25.5 19.5h-19m19-3h-19m3.013-2.969L9.487 25.5m4.016-11.917L13.498 25.5m4-11.958l.005 11.958m3.987-12l.02 12" opacity=".25" fill="none" stroke="#5e553c"/><path d="M4.5 3.5c-1.108 0-2 .892-2 2v4h27v-4c0-1.108-.892-2-2-2z" style="marker:none" color="#000" overflow="visible" fill="url(#o)"/><path d="M2.5 9.5v-4c0-1.108.892-2 2-2h23c1.108 0 2 .892 2 2v4z" style="marker:none" color="#000" overflow="visible" opacity=".4" fill="none" stroke="#126400"/><path d="M4.5 4.5c-.554 0-1 .446-1 1v3h25v-3c0-.554-.446-1-1-1z" opacity=".5" fill="none" stroke="url(#p)" stroke-linecap="round"/><path d="M6.26 7.5c0 1-1.5 1-1.5 0s1.5-1 1.5 0z" style="marker:none" color="#000" overflow="visible" opacity=".3" fill="#fff"/><path d="M6.26 6.5c0 1-1.5 1-1.5 0s1.5-1 1.5 0z" style="marker:none" color="#000" overflow="visible" opacity=".4" fill="#126400"/><path d="M27.25 7.5c0 1-1.5 1-1.5 0s1.5-1 1.5 0z" style="marker:none" color="#000" overflow="visible" opacity=".3" fill="#fff"/><path d="M27.25 6.5c0 1-1.5 1-1.5 0s1.5-1 1.5 0z" style="marker:none" color="#000" overflow="visible" opacity=".4" fill="#126400"/></svg>