<svg xmlns="http://www.w3.org/2000/svg" xmlns:xlink="http://www.w3.org/1999/xlink" width="32" height="32">
    <defs>
        <radialGradient r="5" gradientTransform="matrix(.59382 0 0 1.53665 -6.66 -103.936)" cx="5" cy="41.5" gradientUnits="userSpaceOnUse" xlink:href="#a" id="b"/>
        <linearGradient id="a">
            <stop offset="0"/>
            <stop offset="1" stop-opacity="0"/>
        </linearGradient>
        <linearGradient x1="17.554" y1="46" gradientTransform="matrix(1.75703 0 0 1.39696 -17.394 -16.412)" x2="17.554" gradientUnits="userSpaceOnUse" y2="35" id="c">
            <stop offset="0" stop-opacity="0"/>
            <stop offset=".5"/>
            <stop offset="1" stop-opacity="0"/>
        </linearGradient>
        <radialGradient r="5" gradientTransform="matrix(.59382 0 0 1.53665 41.14 -103.936)" cx="5" cy="41.5" gradientUnits="userSpaceOnUse" xlink:href="#a" id="d"/>
        <linearGradient x1="71.204" y1="6.238" gradientTransform="translate(-1.204 15.09) scale(.35135)" x2="71.204" gradientUnits="userSpaceOnUse" y2="44.341" id="l">
            <stop offset="0" stop-color="#FFF"/>
            <stop offset=".508" stop-opacity=".235" stop-color="#FFF"/>
            <stop offset=".835" stop-opacity=".157" stop-color="#FFF"/>
            <stop offset="1" stop-opacity=".392" stop-color="#FFF"/>
        </linearGradient>
        <linearGradient x1="7.856" y1="15.856" gradientTransform="translate(16 18.155)" x2="7.856" gradientUnits="userSpaceOnUse" y2="-.122" id="k">
            <stop offset="0" stop-color="#185f9a"/>
            <stop offset="1" stop-color="#599ec9"/>
        </linearGradient>
        <radialGradient r="20" gradientTransform="matrix(0 .89893 -.95096 0 32.035 9.985)" cx="5.78" cy="8.45" gradientUnits="userSpaceOnUse" id="j">
            <stop offset="0" stop-color="#90dbec"/>
            <stop offset=".262" stop-color="#55c1ec"/>
            <stop offset=".705" stop-color="#3689e6"/>
            <stop offset="1" stop-color="#2b63a0"/>
        </radialGradient>
        <linearGradient x1="24" y1="11.5" gradientTransform="matrix(.70167 0 0 .11039 -.664 4.685)" x2="24" gradientUnits="userSpaceOnUse" y2="43" id="i">
            <stop offset="0" stop-color="#FFF"/>
            <stop offset=".018" stop-opacity=".235" stop-color="#FFF"/>
            <stop offset=".951" stop-opacity=".157" stop-color="#FFF"/>
            <stop offset="1" stop-opacity=".392" stop-color="#FFF"/>
        </linearGradient>
        <linearGradient x1="24" y1="6.742" gradientTransform="matrix(.72973 0 0 .48649 -1.514 7.824)" x2="24" gradientUnits="userSpaceOnUse" y2="41.116" id="h">
            <stop offset="0" stop-color="#FFF"/>
            <stop offset=".01" stop-opacity=".235" stop-color="#FFF"/>
            <stop offset=".999" stop-opacity=".157" stop-color="#FFF"/>
            <stop offset="1" stop-opacity=".392" stop-color="#FFF"/>
        </linearGradient>
        <linearGradient x1="23.452" y1="30.555" gradientTransform="matrix(.90695 0 0 .81527 -5.27 -5.064)" x2="43.007" gradientUnits="userSpaceOnUse" y2="45.934" id="f">
            <stop offset="0" stop-opacity="0" stop-color="#FFF"/>
            <stop offset="1" stop-opacity="0" stop-color="#FFF"/>
        </linearGradient>
        <linearGradient x1="24.823" y1="15.378" gradientTransform="matrix(.90695 0 0 1.08078 -5.27 -11.995)" x2="24.997" gradientUnits="userSpaceOnUse" y2="37.277" id="e">
            <stop offset="0" stop-color="#dac197"/>
            <stop offset=".23" stop-color="#c1a581"/>
            <stop offset=".254" stop-color="#dbc298"/>
            <stop offset="1" stop-color="#a68b60"/>
        </linearGradient>
        <linearGradient x1="26" y1="22" gradientTransform="matrix(1 0 0 .71429 -8 -1.217)" x2="26" gradientUnits="userSpaceOnUse" y2="8" id="g">
            <stop offset="0" stop-color="#FFF"/>
            <stop offset=".302" stop-color="#FFF"/>
            <stop offset=".344" stop-opacity=".643" stop-color="#FFF"/>
            <stop offset="1" stop-opacity=".391" stop-color="#FFF"/>
        </linearGradient>
    </defs>
    <g opacity=".4">
        <path fill="url(#b)" transform="matrix(-.69054 0 0 -.67815 -.504 -.449)" d="M-3.69-47.848h2.96v15.367h-2.96z"/>
        <path fill="url(#c)" d="M3.69 32.482h40.412v15.367H3.69z" transform="matrix(.69054 0 0 .67815 -.504 -.449)"/>
        <path fill="url(#d)" transform="matrix(.69054 0 0 -.67815 -.504 -.449)" d="M44.11-47.848h2.96v15.367h-2.96z"/>
    </g>
    <path fill="url(#e)" display="block" d="M5.398 4.516h20.864c1.218 0 1.766-.199 2.116.694L30.5 10.5v18.08c0 1.079.073.914-1.145.914H2.644c-1.218 0-1.145.165-1.145-.913V10.5l2.123-5.29c.34-.875.558-.694 1.776-.694z"/>
    <path fill="none" stroke-width=".742" stroke="url(#f)" display="block" d="M6.06 5.219h19.56c1.143 0 1.85.386 2.328 1.448l1.647 4.455v16.063c0 1.014-.58 1.524-1.721 1.524H4.014c-1.142 0-1.608-.561-1.608-1.575V11.122L4 6.572c.32-.823.92-1.353 2.062-1.353z" opacity=".505"/>
    <path fill="url(#g)" d="M14 4.497h4v10c-.394 0-.787-.55-1.181-.55-.403 0-.806.55-1.21.55-.324 0-.649-.482-.973-.482-.212 0-.424.482-.636.482v-10z" opacity=".3"/>
    <path fill="none" stroke-linecap="round" stroke="url(#h)" d="M29.5 28.5h-27v-18h27z" stroke-linejoin="round" opacity=".3"/>
    <path fill="none" stroke-linecap="round" stroke="url(#i)" d="M3.023 9.377L4.574 5.5h22.802l1.38 3.877" stroke-linejoin="round" opacity=".2"/>
    <path fill="none" stroke-width=".994" stroke-linecap="round" stroke="#5a3700" display="block" d="M5.398 4.516h20.864c1.218 0 1.766-.199 2.116.694L30.5 10.5v18.08c0 1.079.073.914-1.145.914H2.644c-1.218 0-1.145.165-1.145-.913V10.5l2.123-5.29c.34-.875.558-.694 1.776-.694z" opacity=".35" color="#000"/>
    <path d="M24 16.5a7.505 7.505 0 0 0-7.5 7.5c0 4.138 3.362 7.5 7.5 7.5s7.5-3.362 7.5-7.5-3.362-7.5-7.5-7.5z" fill="url(#j)" color="#000"/>
    <path fill="url(#k)" d="M21.881 24.759c.111.273.233.493.461.176.291-.192 1.26-1.022 1.19-.245-.264 1.444-.597 2.876-.839 4.323-.28.799.455 1.48 1.173.94.772-.36 1.426-.923 2.096-1.441-.103-.23-.18-.565-.427-.248-.335.171-1.052.943-1.214.337.225-1.56.698-3.074.977-4.625.285-.72-.26-1.592-1.002-.976-.9.442-1.64 1.134-2.415 1.759zm3.192-5.349c-.936-.012-1.364 1.536-.46 1.918.732.27 1.487-.51 1.281-1.253-.07-.388-.427-.694-.82-.665z" style="text-align:start"/>
    <path fill="none" stroke-linecap="round" stroke="url(#l)" d="M30.5 24a6.5 6.5 0 1 1-13 0 6.5 6.5 0 0 1 13 0z" stroke-linejoin="round" opacity=".5" color="#000"/>
    <path fill="#FFF" d="M21.881 23.759c.111.273.233.493.461.176.291-.192 1.26-1.022 1.19-.245-.264 1.444-.597 2.876-.839 4.323-.28.799.455 1.48 1.173.94.772-.36 1.426-.923 2.096-1.441-.103-.23-.18-.565-.427-.248-.335.171-1.052.943-1.214.337.225-1.56.698-3.074.977-4.625.283-.72-.263-1.592-1.004-.976-.9.442-1.64 1.134-2.415 1.759zm3.192-5.349c-.936-.012-1.364 1.536-.46 1.918.732.27 1.487-.51 1.281-1.253-.07-.388-.427-.694-.82-.665z" style="text-align:start"/>
    <path stroke-linecap="round" stroke="#00537d" d="M24 16.5a7.505 7.505 0 0 0-7.5 7.5c0 4.138 3.362 7.5 7.5 7.5s7.5-3.362 7.5-7.5-3.362-7.5-7.5-7.5z" opacity=".5" stroke-linejoin="round" color="#000" fill="none"/>
</svg>
