<svg xmlns="http://www.w3.org/2000/svg" width="32" height="32"><defs><linearGradient x1="167.98" y1="8.508" gradientTransform="matrix(.444 0 0 .444 -57.048 2.792)" x2="167.98" gradientUnits="userSpaceOnUse" y2="54.78" id="f"><stop offset="0" stop-color="#fff5ef"/><stop offset="1" stop-color="#fef8dd"/></linearGradient><linearGradient x1="24" y1="5" gradientTransform="translate(1.081 2.081) scale(.62162)" x2="24" gradientUnits="userSpaceOnUse" y2="43" id="e"><stop offset="0" stop-color="#FFF"/><stop offset=".063" stop-opacity=".235" stop-color="#FFF"/><stop offset=".951" stop-opacity=".157" stop-color="#FFF"/><stop offset="1" stop-opacity=".392" stop-color="#FFF"/></linearGradient><radialGradient r="2.5" gradientTransform="matrix(2.00378 0 0 1.4 27.988 -17.4)" cx="4.993" cy="43.5" gradientUnits="userSpaceOnUse" id="b"><stop offset="0" stop-color="#181818"/><stop offset="1" stop-opacity="0" stop-color="#181818"/></radialGradient><radialGradient r="2.5" gradientTransform="matrix(2.00378 0 0 1.4 -20.012 -104.4)" cx="4.993" cy="43.5" gradientUnits="userSpaceOnUse" id="c"><stop offset="0" stop-color="#181818"/><stop offset="1" stop-opacity="0" stop-color="#181818"/></radialGradient><linearGradient x1="25.058" y1="47.028" x2="25.058" gradientUnits="userSpaceOnUse" y2="39.999" id="d"><stop offset="0" stop-opacity="0" stop-color="#181818"/><stop offset=".5" stop-color="#181818"/><stop offset="1" stop-opacity="0" stop-color="#181818"/></linearGradient><radialGradient r="12.672" gradientTransform="matrix(0 6.08817 -7.47433 0 90.955 -49.77)" cx="6.73" cy="9.957" gradientUnits="userSpaceOnUse" fx="6.2" id="a"><stop offset="0" stop-color="#ffcd7d"/><stop offset=".262" stop-color="#fc8f36"/><stop offset=".705" stop-color="#e23a0e"/><stop offset="1" stop-color="#ac441f"/></radialGradient></defs><rect fill="url(#a)" x="3.5" y="4.5" width="25" height="25" ry="2" rx="2" color="#000"/><g opacity=".4"><path fill="url(#b)" d="M38 40h5v7h-5z" transform="matrix(.73684 0 0 .42857 -1.684 10.857)"/><path fill="url(#c)" transform="matrix(-.73684 0 0 -.42857 -1.684 10.857)" d="M-10-47h5v7h-5z"/><path fill="url(#d)" d="M10 40h28v7H10z" transform="matrix(.73684 0 0 .42857 -1.684 10.857)"/></g><rect fill="none" x="4.5" y="5.5" stroke-linecap="round" stroke="url(#e)" width="23" height="23" ry="1" rx="1" stroke-linejoin="round" opacity=".5"/><rect fill="none" x="3.5" y="4.5" stroke-linecap="round" stroke="#640000" width="25" height="25" ry="2" rx="2" stroke-linejoin="round" opacity=".4" color="#000"/><path fill="#ae2109" d="M16 9.031a8.96 8.96 0 0 0-8.688 6.719.979.979 0 0 0 .938 1.219h2.094a.979.979 0 0 0 .937-.656A4.988 4.988 0 0 1 16 12.969c1.03 0 1.926.395 2.72.937l-1.408 1.406A.979.979 0 0 0 18 16.97h6a.979.979 0 0 0 .97-.969v-6a.979.979 0 0 0-1.658-.687l-1.781 1.781C19.994 9.865 18.118 9.032 16 9.032zm-8.188 10a.979.979 0 0 0-.78.97v6a.979.979 0 0 0 1.655.687l1.782-1.781c1.537 1.229 3.413 2.062 5.53 2.062a8.96 8.96 0 0 0 8.688-6.719.979.979 0 0 0-.938-1.22h-2.093a.979.979 0 0 0-.938.656A4.988 4.988 0 0 1 16 23.03c-1.03 0-1.926-.395-2.719-.937l1.407-1.406A.979.979 0 0 0 14 19.03H8a.979.979 0 0 0-.187 0z" opacity=".15" color="#000"/><path fill="#ae2109" d="M16 10a8 8 0 0 0-7.75 6h2.094A5.997 5.997 0 0 1 16 12c1.657 0 3.134.695 4.219 1.781l-2.22 2.22h6v-6l-2.343 2.343A7.992 7.992 0 0 0 16 10zM8 20v6l2.344-2.344A8 8 0 0 0 23.75 20h-2.094A5.997 5.997 0 0 1 16 24c-1.657 0-3.134-.695-4.219-1.78L14 20z" opacity=".3" color="#000"/><path d="M16 9a8 8 0 0 0-7.75 6h2.094A5.997 5.997 0 0 1 16 11c1.657 0 3.134.695 4.219 1.781l-2.22 2.22h6V9l-2.343 2.343A7.993 7.993 0 0 0 16 9zM8 19v6l2.344-2.344A8 8 0 0 0 23.75 19h-2.094A5.997 5.997 0 0 1 16 23c-1.657 0-3.134-.695-4.219-1.78L14 19z" fill="url(#f)" color="#000"/></svg>