<?xml version="1.0" encoding="UTF-8" standalone="no"?>
<svg
   version="1.1"
   width="24"
   height="24"
   id="svg4296"
   sodipodi:docname="edit-cut.svg"
   inkscape:version="1.2.2 (b0a8486541, 2022-12-01)"
   xmlns:inkscape="http://www.inkscape.org/namespaces/inkscape"
   xmlns:sodipodi="http://sodipodi.sourceforge.net/DTD/sodipodi-0.dtd"
   xmlns:xlink="http://www.w3.org/1999/xlink"
   xmlns="http://www.w3.org/2000/svg"
   xmlns:svg="http://www.w3.org/2000/svg"
   xmlns:rdf="http://www.w3.org/1999/02/22-rdf-syntax-ns#"
   xmlns:cc="http://creativecommons.org/ns#"
   xmlns:dc="http://purl.org/dc/elements/1.1/">
  <sodipodi:namedview
     id="namedview38593"
     pagecolor="#ffffff"
     bordercolor="#000000"
     borderopacity="0.25"
     inkscape:showpageshadow="2"
     inkscape:pageopacity="0.0"
     inkscape:pagecheckerboard="0"
     inkscape:deskcolor="#d1d1d1"
     showgrid="false"
     inkscape:zoom="11.844039"
     inkscape:cx="18.448099"
     inkscape:cy="18.490315"
     inkscape:window-width="1278"
     inkscape:window-height="1005"
     inkscape:window-x="568"
     inkscape:window-y="1"
     inkscape:window-maximized="0"
     inkscape:current-layer="g4011" />
  <defs
     id="defs4298">
    <linearGradient
       id="linearGradient51694">
      <stop
         id="stop51690"
         style="stop-color:#000000;stop-opacity:0.56;"
         offset="0" />
      <stop
         id="stop51692"
         style="stop-color:#000000;stop-opacity:0.36000001;"
         offset="1" />
    </linearGradient>
    <linearGradient
       id="linearGradient39137">
      <stop
         id="stop39133"
         style="stop-color:#7a0000;stop-opacity:0.60000002;"
         offset="0" />
      <stop
         id="stop39135"
         style="stop-color:#7a0000;stop-opacity:0.80000001;"
         offset="1" />
    </linearGradient>
    <linearGradient
       id="linearGradient3764">
      <stop
         id="stop3766"
         style="stop-color:#d1d1d1;stop-opacity:1"
         offset="0" />
      <stop
         id="stop3768"
         style="stop-color:#eaeaea;stop-opacity:1"
         offset="1" />
    </linearGradient>
    <radialGradient
       cx="14.999991"
       cy="1039.7"
       r="3.5266583"
       fx="14.999991"
       fy="1039.7"
       id="radialGradient3772"
       xlink:href="#linearGradient3764"
       gradientUnits="userSpaceOnUse"
       gradientTransform="matrix(0.56710644,-1.1342033,1.7012993,0.85065685,-1761.3473,171.9473)" />
    <linearGradient
       x1="17"
       y1="1042.3622"
       x2="15"
       y2="1038.3622"
       id="linearGradient3780"
       xlink:href="#linearGradient51694"
       gradientUnits="userSpaceOnUse"
       gradientTransform="translate(1,-2.0000083)" />
    <radialGradient
       cx="14.999991"
       cy="1039.7"
       r="3.5266583"
       fx="14.999991"
       fy="1039.7"
       id="radialGradient3784"
       xlink:href="#linearGradient3764"
       gradientUnits="userSpaceOnUse"
       gradientTransform="matrix(-0.56710644,-1.1342033,-1.7012993,0.85065685,1785.4006,171.9473)" />
    <linearGradient
       x1="17"
       y1="1042.3622"
       x2="15"
       y2="1038.3622"
       id="linearGradient3786"
       xlink:href="#linearGradient51694"
       gradientUnits="userSpaceOnUse"
       gradientTransform="matrix(-1,0,0,1,23.053316,-2.0000083)" />
    <radialGradient
       cx="12"
       cy="15.166395"
       r="4.0006957"
       fx="12"
       fy="15.166395"
       id="radialGradient3816"
       xlink:href="#linearGradient39137"
       gradientUnits="userSpaceOnUse"
       gradientTransform="matrix(-0.55698928,1.3924728,-2.4995652,-0.99982634,57.593265,1041.8163)" />
    <radialGradient
       cx="9"
       cy="1035.5266"
       r="4.0006957"
       fx="9"
       fy="1035.5266"
       id="radialGradient3824"
       xlink:href="#linearGradient39137"
       gradientUnits="userSpaceOnUse"
       gradientTransform="matrix(-1.9795548,0.28278205,-0.24994327,-1.749674,286.6389,2852.6513)" />
    <linearGradient
       id="linearGradient8838">
      <stop
         id="stop8840"
         style="stop-color:#000000;stop-opacity:1"
         offset="0" />
      <stop
         id="stop8842"
         style="stop-color:#000000;stop-opacity:0"
         offset="1" />
    </linearGradient>
    <radialGradient
       cx="62.625"
       cy="4.625"
       r="10.625"
       fx="62.625"
       fy="4.625"
       id="radialGradient3986"
       xlink:href="#linearGradient8838"
       gradientUnits="userSpaceOnUse"
       gradientTransform="matrix(0.5647059,0,0,0.2823525,-27.364705,1048.0563)" />
    <radialGradient
       cx="62.625"
       cy="4.625"
       r="10.625"
       fx="62.625"
       fy="4.625"
       id="radialGradient4009"
       xlink:href="#linearGradient8838"
       gradientUnits="userSpaceOnUse"
       gradientTransform="matrix(0.5647059,0,0,0.2823525,-19.364705,1048.0563)" />
  </defs>
  <metadata
     id="metadata4301">
    <rdf:RDF>
      <cc:Work
         rdf:about="">
        <dc:format>image/svg+xml</dc:format>
        <dc:type
           rdf:resource="http://purl.org/dc/dcmitype/StillImage" />
      </cc:Work>
    </rdf:RDF>
  </metadata>
  <g
     id="g4011"
     transform="translate(0,-1028.3622)">
    <path
       d="m 11.553316,1039.3622 -5.2999997,-9.8 c 0,0 -3.6999995,7.8 5.2999997,12.8 z"
       id="path3782"
       style="fill:url(#radialGradient3784);fill-opacity:1;stroke:url(#linearGradient3786);stroke-width:1px;stroke-linecap:butt;stroke-linejoin:miter;stroke-opacity:1" />
    <path
       d="m 12.5,1039.3622 5.3,-9.8 c 0,0 3.7,7.8 -5.3,12.8 z"
       id="path2990"
       style="fill:url(#radialGradient3772);fill-opacity:1;stroke:url(#linearGradient3780);stroke-width:1px;stroke-linecap:butt;stroke-linejoin:miter;stroke-opacity:1" />
    <path
       d="m 14,1049.3622 c 0,1.6569 -2.686291,3 -6,3 -3.3137085,0 -6,-1.3431 -6,-3 0,-1.6569 2.6862915,-3 6,-3 3.313709,0 6,1.3431 6,3 z"
       id="path8836"
       style="display:inline;overflow:visible;visibility:visible;opacity:0.4;fill:url(#radialGradient3986);fill-opacity:1;fill-rule:evenodd;stroke:none;stroke-width:1;marker:none" />
    <path
       d="m 22,1049.3622 c 0,1.6569 -2.686291,3 -6,3 -3.313709,0 -6,-1.3431 -6,-3 0,-1.6569 2.686291,-3 6,-3 3.313709,0 6,1.3431 6,3 z"
       id="path4007"
       style="display:inline;overflow:visible;visibility:visible;opacity:0.4;fill:url(#radialGradient4009);fill-opacity:1;fill-rule:evenodd;stroke:none;stroke-width:1;marker:none" />
    <path
       d="m 14,1042.3622 c -0.684728,0.1472 -1.54059,1.1088 -1.5,3.5 0.05092,2.9996 2.187468,4 3.5,4 1.312532,0 3.5,-1.0415 3.5,-4 0,-2.9586 -4.815272,-3.6472 -5.5,-3.5 z m 0.4375,1.875 c 0,0 5.23936,0.8914 2.25,3.125 -2.688286,2.0087 -2.25,-3.125 -2.25,-3.125 z"
       id="path3788"
       style="fill:#ee5050;fill-opacity:1;stroke:url(#radialGradient3816);stroke-width:1px;stroke-linecap:butt;stroke-linejoin:miter;stroke-opacity:1" />
    <path
       d="m 9.5625,1042.3622 c -1.3803873,0.074 -5.0625,0.9112 -5.0625,3.5 0,2.9585 2.1874677,4.0034 3.5,4 1.3125323,0 3.449081,-1.0004 3.5,-4 0.04059,-2.3912 -0.815272,-3.3528 -1.5,-3.5 -0.085591,-0.018 -0.2403018,-0.011 -0.4375,0 z m 0,1.875 c 0,0 0.438286,5.1337 -2.25,3.125 -2.9893599,-2.2336 2.25,-3.125 2.25,-3.125 z"
       id="path3793"
       style="fill:#ee5050;fill-opacity:1;stroke:url(#radialGradient3824);stroke-width:1px;stroke-linecap:butt;stroke-linejoin:miter;stroke-opacity:1" />
  </g>
</svg>
