<?xml version="1.0" encoding="UTF-8" standalone="no"?>
<svg
   version="1.1"
   width="24"
   height="24"
   id="svg3879"
   sodipodi:docname="open-menu.svg"
   inkscape:version="1.2.2 (b0a8486541, 2022-12-01)"
   xmlns:inkscape="http://www.inkscape.org/namespaces/inkscape"
   xmlns:sodipodi="http://sodipodi.sourceforge.net/DTD/sodipodi-0.dtd"
   xmlns:xlink="http://www.w3.org/1999/xlink"
   xmlns="http://www.w3.org/2000/svg"
   xmlns:svg="http://www.w3.org/2000/svg"
   xmlns:rdf="http://www.w3.org/1999/02/22-rdf-syntax-ns#"
   xmlns:cc="http://creativecommons.org/ns#"
   xmlns:dc="http://purl.org/dc/elements/1.1/">
  <sodipodi:namedview
     id="namedview51816"
     pagecolor="#ffffff"
     bordercolor="#666666"
     borderopacity="1.0"
     inkscape:showpageshadow="2"
     inkscape:pageopacity="0.0"
     inkscape:pagecheckerboard="0"
     inkscape:deskcolor="#d1d1d1"
     showgrid="false"
     inkscape:zoom="9.8333338"
     inkscape:cx="7.7796607"
     inkscape:cy="5.7457624"
     inkscape:window-width="1322"
     inkscape:window-height="842"
     inkscape:window-x="141"
     inkscape:window-y="172"
     inkscape:window-maximized="0"
     inkscape:current-layer="svg3879" />
  <defs
     id="defs3881">
    <linearGradient
       inkscape:collect="always"
       id="linearGradient1944">
      <stop
         style="stop-color:#000000;stop-opacity:0.31999999;"
         offset="0"
         id="stop1940" />
      <stop
         style="stop-color:#000000;stop-opacity:0.38;"
         offset="1"
         id="stop1942" />
    </linearGradient>
    <linearGradient
       id="linearGradient2683">
      <stop
         id="stop2679"
         style="stop-color:#ffffff;stop-opacity:1"
         offset="0" />
      <stop
         id="stop2681"
         style="stop-color:#ffffff;stop-opacity:0.2;"
         offset="1" />
    </linearGradient>
    <linearGradient
       id="linearGradient5128">
      <stop
         id="stop5130"
         style="stop-color:#fafafa;stop-opacity:1;"
         offset="0" />
      <stop
         id="stop5132"
         style="stop-color:#959595;stop-opacity:1"
         offset="1" />
    </linearGradient>
    <linearGradient
       x1="63.9995"
       y1="3.1001"
       x2="63.9995"
       y2="122.8994"
       id="linearGradient3309-1"
       gradientUnits="userSpaceOnUse">
      <stop
         id="stop3311-5"
         style="stop-color:#f6f6f6;stop-opacity:1"
         offset="0" />
      <stop
         id="stop3313-0"
         style="stop-color:#d2d2d2;stop-opacity:1"
         offset="1" />
    </linearGradient>
    <linearGradient
       id="linearGradient10691">
      <stop
         id="stop10693"
         style="stop-color:#000000;stop-opacity:1"
         offset="0" />
      <stop
         id="stop10695"
         style="stop-color:#000000;stop-opacity:0"
         offset="1" />
    </linearGradient>
    <linearGradient
       xlink:href="#linearGradient2683"
       id="linearGradient3011"
       gradientUnits="userSpaceOnUse"
       x1="12"
       y1="16"
       x2="12"
       y2="8"
       gradientTransform="matrix(1.0116033,0,0,1.0116033,-0.13923977,-0.1392394)" />
    <linearGradient
       xlink:href="#linearGradient5128"
       id="linearGradient3017"
       gradientUnits="userSpaceOnUse"
       gradientTransform="matrix(0.14421338,0,0,0.14421349,2.7703386,2.9145506)"
       x1="86.132919"
       y1="105.105"
       x2="84.63858"
       y2="20.895" />
    <linearGradient
       xlink:href="#linearGradient3309-1"
       id="linearGradient3021"
       gradientUnits="userSpaceOnUse"
       gradientTransform="matrix(0.77777782,0,0,0.77777782,-12.111112,-13.666669)"
       x1="32.036148"
       y1="19"
       x2="32.036148"
       y2="47.012184" />
    <radialGradient
       xlink:href="#linearGradient10691"
       id="radialGradient3026"
       gradientUnits="userSpaceOnUse"
       gradientTransform="matrix(1.6600963,0,0,0.36315008,0.8728521,-5.3585521)"
       cx="6.702713"
       cy="73.615715"
       fx="6.702713"
       fy="73.615715"
       r="7.228416" />
    <linearGradient
       inkscape:collect="always"
       xlink:href="#linearGradient1944"
       id="linearGradient1946"
       x1="12"
       y1="1.5"
       x2="12"
       y2="22.5"
       gradientUnits="userSpaceOnUse" />
    <linearGradient
       x1="12.47939"
       y1="2"
       x2="12.47939"
       y2="22.006775"
       id="linearGradient3014"
       xlink:href="#linearGradient3805"
       gradientUnits="userSpaceOnUse"
       gradientTransform="matrix(0.99417375,0,0,0.99430428,0.07114044,0.06834886)" />
    <linearGradient
       id="linearGradient3805">
      <stop
         id="stop3807"
         style="stop-color:#ffffff;stop-opacity:1"
         offset="0" />
      <stop
         id="stop3809"
         style="stop-color:#ffffff;stop-opacity:0"
         offset="1" />
    </linearGradient>
  </defs>
  <metadata
     id="metadata3884">
    <rdf:RDF>
      <cc:Work
         rdf:about="">
        <dc:format>image/svg+xml</dc:format>
        <dc:type
           rdf:resource="http://purl.org/dc/dcmitype/StillImage" />
      </cc:Work>
    </rdf:RDF>
  </metadata>
  <path
     style="opacity:0.2;fill:url(#radialGradient3026);fill-opacity:1;fill-rule:nonzero;stroke:none;stroke-width:0.80000001;marker:none;visibility:visible;display:inline;overflow:visible"
     id="path10689"
     d="M 23.999865,21.375 C 23.999865,22.824748 18.627342,24 12,24 5.3726571,24 1.348125e-4,22.824748 1.348125e-4,21.375 1.348125e-4,19.925253 5.3726571,18.75 12,18.75 c 6.627342,0 11.999865,1.175253 11.999865,2.625 z" />
  <path
     style="color:#000000;fill:url(#linearGradient3021);fill-opacity:1;fill-rule:nonzero;stroke:none;stroke-width:1;stroke-linecap:butt;stroke-linejoin:round;stroke-miterlimit:4;stroke-opacity:1;stroke-dasharray:none;stroke-dashoffset:0;marker:none;visibility:visible;display:block;overflow:visible;enable-background:accumulate"
     id="rect3623"
     d="m 10.5,1.5 c -0.554,0 -1,0.446 -1,1 l 0,1.375 C 8.9926705,4.030783 8.4932312,4.225474 8.03125,4.46875 L 7.0625,3.5 C 6.6707628,3.108263 6.0167372,3.108263 5.625,3.5 L 3.5,5.625 C 3.1082628,6.016737 3.1082628,6.670763 3.5,7.0625 L 4.46875,8.03125 C 4.2254741,8.493231 4.0307828,8.99267 3.875,9.5 L 2.5,9.5 c -0.554,0 -1,0.446 -1,1 l 0,3 c 0,0.554 0.446,1 1,1 l 1.375,0 c 0.1557828,0.507329 0.3504741,1.006769 0.59375,1.46875 L 3.5,16.9375 c -0.3917372,0.391737 -0.3917372,1.045763 0,1.4375 L 5.625,20.5 c 0.3917372,0.391737 1.0457628,0.391737 1.4375,0 L 8.03125,19.53125 C 8.4932312,19.774526 8.9926705,19.969217 9.5,20.125 l 0,1.375 c 0,0.554 0.446,1 1,1 l 3,0 c 0.554,0 1,-0.446 1,-1 l 0,-1.375 c 0.507329,-0.155783 1.006769,-0.350474 1.46875,-0.59375 L 16.9375,20.5 c 0.391737,0.391737 1.045763,0.391737 1.4375,0 L 20.5,18.375 c 0.391737,-0.391737 0.391737,-1.045763 0,-1.4375 L 19.53125,15.96875 C 19.774526,15.506769 19.969217,15.007329 20.125,14.5 l 1.375,0 c 0.554,0 1,-0.446 1,-1 l 0,-3 c 0,-0.554 -0.446,-1 -1,-1 l -1.375,0 C 19.969217,8.99267 19.774526,8.493231 19.53125,8.03125 L 20.5,7.0625 c 0.391737,-0.391737 0.391737,-1.045763 0,-1.4375 L 18.375,3.5 C 17.983263,3.108263 17.329237,3.108263 16.9375,3.5 L 15.96875,4.46875 C 15.506769,4.225474 15.007329,4.030783 14.5,3.875 l 0,-1.375 c 0,-0.554 -0.446,-1 -1,-1 l -3,0 z m 1.5,8 c 1.380712,0 2.5,1.119288 2.5,2.5 0,1.380712 -1.119288,2.5 -2.5,2.5 -1.380712,0 -2.5,-1.119288 -2.5,-2.5 0,-1.380712 1.119288,-2.5 2.5,-2.5 z" />
  <path
     style="opacity:0.05;fill:#000000;fill-opacity:1;stroke:none"
     id="path3315"
     d="m 12,6 c -3.310303,0 -6,2.689698 -6,6 0,3.310302 2.689697,6 6,6 3.310301,0 6,-2.689698 6,-6 0,-3.310302 -2.689699,-6 -6,-6 z m 0,3 c 1.656854,0 3,1.343146 3,3 0,1.656854 -1.343146,3 -3,3 -1.656854,0 -3,-1.343146 -3,-3 0,-1.656854 1.343146,-3 3,-3 z" />
  <path
     style="fill:none;stroke:url(#linearGradient3017);stroke-width:0.999997;stroke-miterlimit:4;stroke-dasharray:none"
     id="path28"
     d="m 12,5.9999985 c -3.3084017,0 -6,2.6916005 -6,6.0000005 0,3.308403 2.6915983,6.000002 6,6.000002 3.308401,0 6,-2.6916 6,-6.000002 0,-3.3084 -2.691599,-6.0000005 -6,-6.0000005 z" />
  <path
     style="opacity:0.4;color:#000000;fill:none;stroke:url(#linearGradient3011);stroke-width:0.99999994;stroke-opacity:1;marker:none;visibility:visible;display:block;overflow:visible;enable-background:accumulate"
     id="path3822"
     d="m 15.5,12 a 3.5,3.5 0 1 1 -7,0 3.5,3.5 0 1 1 7,0 z" />
  <path
     style="enable-background:accumulate;marker:none;stroke-dashoffset:0;stroke-dasharray:none;stroke-miterlimit:4;stroke-linejoin:round;stroke-linecap:butt;stroke-width:1;fill-rule:nonzero;fill-opacity:1;fill:none;opacity:1;visibility:visible;overflow:visible;display:block;color:#000000;stroke:url(#linearGradient1946);stroke-opacity:1"
     id="rect3623-2"
     d="m 10.5,1.5 c -0.554,0 -1,0.446 -1,1 l 0,1.375 C 8.9926705,4.030783 8.4932312,4.225474 8.03125,4.46875 L 7.0625,3.5 C 6.6707628,3.108263 6.0167372,3.108263 5.625,3.5 L 3.5,5.625 C 3.1082628,6.016737 3.1082628,6.670763 3.5,7.0625 L 4.46875,8.03125 C 4.2254741,8.493231 4.0307828,8.99267 3.875,9.5 L 2.5,9.5 c -0.554,0 -1,0.446 -1,1 l 0,3 c 0,0.554 0.446,1 1,1 l 1.375,0 c 0.1557828,0.507329 0.3504741,1.006769 0.59375,1.46875 L 3.5,16.9375 c -0.3917372,0.391737 -0.3917372,1.045763 0,1.4375 L 5.625,20.5 c 0.3917372,0.391737 1.0457628,0.391737 1.4375,0 L 8.03125,19.53125 C 8.4932312,19.774526 8.9926705,19.969217 9.5,20.125 l 0,1.375 c 0,0.554 0.446,1 1,1 l 3,0 c 0.554,0 1,-0.446 1,-1 l 0,-1.375 c 0.507329,-0.155783 1.006769,-0.350474 1.46875,-0.59375 L 16.9375,20.5 c 0.391737,0.391737 1.045763,0.391737 1.4375,0 L 20.5,18.375 c 0.391737,-0.391737 0.391737,-1.045763 0,-1.4375 L 19.53125,15.96875 C 19.774526,15.506769 19.969217,15.007329 20.125,14.5 l 1.375,0 c 0.554,0 1,-0.446 1,-1 l 0,-3 c 0,-0.554 -0.446,-1 -1,-1 l -1.375,0 C 19.969217,8.99267 19.774526,8.493231 19.53125,8.03125 L 20.5,7.0625 c 0.391737,-0.391737 0.391737,-1.045763 0,-1.4375 L 18.375,3.5 C 17.983263,3.108263 17.329237,3.108263 16.9375,3.5 L 15.96875,4.46875 C 15.506769,4.225474 15.007329,4.030783 14.5,3.875 l 0,-1.375 c 0,-0.554 -0.446,-1 -1,-1 l -3,0 z m 1.5,8 c 1.380712,0 2.5,1.119288 2.5,2.5 0,1.380712 -1.119288,2.5 -2.5,2.5 -1.380712,0 -2.5,-1.119288 -2.5,-2.5 0,-1.380712 1.119288,-2.5 2.5,-2.5 z" />
  <path
     d="m 10.509965,2.5230375 c -0.07374,0.3865049 -0.0094,0.8959755 -0.03107,1.328821 C 10.54321,4.6255058 9.713108,4.8987158 9.1185836,5.0615391 8.5747472,5.3710024 7.7774485,5.7296101 7.2923189,5.1154304 6.9978787,4.8209562 6.7034383,4.5264771 6.4089981,4.231998 5.9797841,4.5170371 5.6288127,4.9909952 5.2298736,5.3491336 4.9122707,5.7076817 4.4787379,6.018204 4.234243,6.4070386 4.638892,6.8943779 5.27665,7.2398589 5.4528992,7.8755952 c -0.02452,0.7939161 -0.5370128,1.520508 -0.8076548,2.2541128 -0.4988971,0.561136 -1.3073795,0.279069 -1.9628425,0.347764 -0.3425598,-0.01281 -0.069919,0.583007 -0.1568951,0.821006 0.0012,0.740738 -0.00239,1.481621 0.00178,2.222268 0.6417986,0.06382 1.3490798,-0.149723 1.9341588,0.178645 0.5523749,0.575913 0.671699,1.465727 1.0009068,2.176299 0.041527,0.748452 -0.7280468,1.120015 -1.1426403,1.631788 -0.2161212,0.270855 0.3830323,0.501275 0.5129148,0.746093 0.5047442,0.50481 1.0094883,1.009621 1.5142325,1.514431 0.5194193,-0.303133 0.8348353,-0.983327 1.4370131,-1.198079 0.81039,-0.106041 1.504868,0.543336 2.2705215,0.729796 0.646903,0.449507 0.361411,1.302963 0.424501,1.963904 -0.08799,0.416092 0.524782,0.12913 0.76448,0.21334 0.759446,-0.0012 1.519037,0.0024 2.278393,-0.0018 0.06382,-0.641883 -0.149704,-1.349257 0.178621,-1.934413 0.575838,-0.552448 1.465536,-0.671787 2.176014,-1.001038 0.748354,-0.04153 1.119868,0.728142 1.631574,1.14279 0.270819,0.21615 0.501209,-0.383083 0.745996,-0.512983 0.504744,-0.50481 1.009488,-1.00962 1.514232,-1.514431 -0.303093,-0.519487 -0.983199,-0.834945 -1.197922,-1.437202 -0.106027,-0.810495 0.543264,-1.505065 0.7297,-2.270818 0.449448,-0.646988 1.302792,-0.361459 1.963646,-0.424556 0.416038,0.08801 0.129113,-0.524853 0.213312,-0.764582 -0.0012,-0.759545 0.0024,-1.519237 -0.0018,-2.278692 -0.641799,-0.06381 -1.34908,0.149733 -1.934159,-0.178635 C 18.988617,9.7246969 18.869293,8.834882 18.540086,8.1243104 18.498556,7.3758578 19.268132,7.0042953 19.682725,6.4925219 19.898847,6.2216674 19.299693,5.9912474 19.16981,5.7464298 18.665066,5.2416185 18.160322,4.7368082 17.655578,4.231998 17.136159,4.5351305 16.820743,5.2153251 16.218565,5.430077 15.408175,5.5361175 14.713697,4.8867414 13.948044,4.7002815 13.301141,4.2507744 13.586633,3.3973183 13.523544,2.7363774 13.611534,2.3202849 12.99876,2.6072471 12.759062,2.5230375 c -0.749703,0 -1.499405,0 -2.249107,0 z"
     id="path3799"
     style="color:#000000;display:block;overflow:visible;visibility:visible;opacity:0.8;fill:none;stroke:url(#linearGradient3014);stroke-width:1;stroke-linecap:butt;stroke-linejoin:round;stroke-miterlimit:4;stroke-dasharray:none;stroke-dashoffset:0;stroke-opacity:1;marker:none;enable-background:accumulate" />
</svg>
