<svg height="128" width="128" xmlns:xlink="http://www.w3.org/1999/xlink" xmlns="http://www.w3.org/2000/svg"><defs><linearGradient gradientTransform="translate(-1.514 1.488) scale(2.72973)" gradientUnits="userSpaceOnUse" xlink:href="#a" id="l" y2="42.316" x2="24" y1="5.682" x1="24"/><linearGradient id="a"><stop offset="0" style="stop-color:#fff;stop-opacity:1"/><stop offset=".085" style="stop-color:#fff;stop-opacity:.23529412"/><stop offset=".915" style="stop-color:#fff;stop-opacity:.15686275"/><stop offset="1" style="stop-color:#fff;stop-opacity:.39215687"/></linearGradient><linearGradient id="c"><stop offset="0" style="stop-color:#404648;stop-opacity:1"/><stop offset="1" style="stop-color:#0c1011;stop-opacity:1"/></linearGradient><linearGradient id="d"><stop offset="0" style="stop-color:#181818;stop-opacity:1"/><stop offset="1" style="stop-color:#181818;stop-opacity:0"/></linearGradient><linearGradient id="e"><stop offset="0" style="stop-color:#181818;stop-opacity:1"/><stop offset="1" style="stop-color:#181818;stop-opacity:0"/></linearGradient><linearGradient gradientUnits="userSpaceOnUse" xlink:href="#b" id="j" y2="39.999" x2="25.058" y1="47.028" x1="25.058"/><linearGradient id="b"><stop offset="0" style="stop-color:#181818;stop-opacity:0"/><stop offset=".5" style="stop-color:#181818;stop-opacity:1"/><stop offset="1" style="stop-color:#181818;stop-opacity:0"/></linearGradient><linearGradient id="f"><stop offset="0" style="stop-color:#000;stop-opacity:1"/><stop offset="1" style="stop-color:#000;stop-opacity:0"/></linearGradient><radialGradient gradientTransform="matrix(0 24.13962 -29.63575 0 361.281 -204.727)" gradientUnits="userSpaceOnUse" xlink:href="#c" id="k" fy="9.957" fx="7.118" r="8.933" cy="9.957" cx="7.118"/><radialGradient gradientTransform="matrix(2.00378 0 0 1.4 27.988 -17.4)" gradientUnits="userSpaceOnUse" xlink:href="#d" id="h" fy="43.5" fx="4.993" r="2.5" cy="43.5" cx="4.993"/><radialGradient gradientTransform="matrix(2.00378 0 0 1.4 -20.012 -104.4)" gradientUnits="userSpaceOnUse" xlink:href="#e" id="i" fy="43.5" fx="4.993" r="2.5" cy="43.5" cx="4.993"/><radialGradient gradientTransform="matrix(1.5564 0 0 .16979 70.27 102.132)" gradientUnits="userSpaceOnUse" xlink:href="#f" id="g" fy="93.468" fx="-4.029" r="35.338" cy="93.468" cx="-4.029"/></defs><path d="M119 118.002a55 6 0 0 1-110 0 55 6 0 1 1 110 0z" style="color:#000;display:inline;overflow:visible;visibility:visible;opacity:.2;fill:url(#g);fill-opacity:1;fill-rule:nonzero;stroke:none;stroke-width:1;marker:none;enable-background:accumulate"/><g style="display:inline"><g style="opacity:.4"><path style="fill:url(#h);fill-opacity:1;stroke:none" d="M38 40h5v7h-5z" transform="matrix(2.8421 0 0 .71429 -4.21 87.43)"/><path transform="matrix(-2.8421 0 0 -.71429 -4.21 87.43)" style="fill:url(#i);fill-opacity:1;stroke:none" d="M-10-47h5v7h-5z"/><path style="fill:url(#j);fill-opacity:1;stroke:none" d="M10 40h28v7H10z" transform="matrix(2.8421 0 0 .71429 -4.21 87.43)"/></g></g><rect width="103" height="103" rx="10" ry="10" x="12.5" y="15.502" style="color:#000;display:inline;overflow:visible;visibility:visible;opacity:.9;fill:url(#k);fill-opacity:1;fill-rule:nonzero;stroke:none;stroke-width:1;marker:none;enable-background:accumulate"/><rect width="101" height="101" rx="9" ry="9" x="13.5" y="16.502" style="opacity:.3;fill:none;stroke:url(#l);stroke-width:1;stroke-linecap:round;stroke-linejoin:round;stroke-miterlimit:4;stroke-dasharray:none;stroke-dashoffset:0;stroke-opacity:1"/><rect width="103" height="103" rx="10" ry="10" x="12.5" y="15.502" style="color:#000;display:inline;overflow:visible;visibility:visible;opacity:.7;fill:none;stroke:#000;stroke-width:1;stroke-linecap:round;stroke-linejoin:round;stroke-miterlimit:4;stroke-dasharray:none;stroke-dashoffset:0;stroke-opacity:1;marker:none;enable-background:accumulate"/><path d="M35 32.984A1.016 1.016 0 0 0 33.984 34v3.488c-1.174.327-2.254.786-3.134 1.49a1.016 1.016 0 0 0-.002.003c-1.692 1.363-2.579 3.356-2.579 5.662 0 1.235.256 2.374.795 3.361a8.37 8.37 0 0 0 2.043 2.453c.866.713 2.058 1.383 3.604 2.074 1.585.717 2.645 1.256 3.04 1.51a1.016 1.016 0 0 0 .01.006c.452.283.75.557.917.781a1.016 1.016 0 0 0 .01.012c.138.18.193.338.193.598 0 .565-.117.767-.477 1.01a1.016 1.016 0 0 0-.007.003c-.359.246-1.025.446-2.043.446-.849 0-1.82-.132-2.909-.403h-.002c-1.064-.268-2.422-.744-4.047-1.433a1.016 1.016 0 0 0-1.412.935v4.6a1.016 1.016 0 0 0 .588.922c1.63.758 3.465 1.15 5.412 1.33V66A1.016 1.016 0 0 0 35 67.016h4A1.016 1.016 0 0 0 40.016 66v-3.535c1.196-.332 2.295-.787 3.197-1.475 1.826-1.385 2.803-3.428 2.803-5.793 0-1.711-.5-3.26-1.504-4.49-1.029-1.272-2.72-2.354-5.086-3.43-1.715-.778-2.828-1.338-3.168-1.552-.376-.255-.606-.487-.715-.649-.1-.156-.154-.324-.154-.594 0-.449.1-.66.422-.925.287-.239.783-.422 1.617-.422.744 0 1.506.092 2.285.277a1.016 1.016 0 0 0 .002 0c.789.185 1.838.528 3.119 1.027a1.016 1.016 0 0 0 1.3-.54l1.68-3.848a1.016 1.016 0 0 0-.544-1.346 26.828 26.828 0 0 0-3.786-1.26h-.002c-.477-.119-.975-.17-1.466-.24V34A1.016 1.016 0 0 0 39 32.984h-4zm18 35A1.016 1.016 0 0 0 51.984 69v4A1.016 1.016 0 0 0 53 74.016h21A1.016 1.016 0 0 0 75.016 73v-4A1.016 1.016 0 0 0 74 67.984H53z" style="color:#000;clip-rule:nonzero;display:inline;overflow:visible;visibility:visible;opacity:.15;isolation:auto;mix-blend-mode:normal;color-interpolation:sRGB;color-interpolation-filters:linearRGB;solid-color:#000;solid-opacity:1;fill:#000;fill-opacity:1;fill-rule:nonzero;stroke:none;stroke-width:1;stroke-linecap:butt;stroke-linejoin:miter;stroke-miterlimit:4;stroke-dasharray:none;stroke-dashoffset:0;stroke-opacity:1;marker:none;color-rendering:auto;image-rendering:auto;shape-rendering:auto;text-rendering:auto;enable-background:accumulate"/><path style="color:#000;clip-rule:nonzero;display:inline;overflow:visible;visibility:visible;opacity:.3;isolation:auto;mix-blend-mode:normal;color-interpolation:sRGB;color-interpolation-filters:linearRGB;solid-color:#000;solid-opacity:1;fill:#000;fill-opacity:1;fill-rule:nonzero;stroke:none;stroke-width:1;stroke-linecap:butt;stroke-linejoin:miter;stroke-miterlimit:4;stroke-dasharray:none;stroke-dashoffset:0;stroke-opacity:1;marker:none;color-rendering:auto;image-rendering:auto;shape-rendering:auto;text-rendering:auto;enable-background:accumulate;filter-blend-mode:normal;filter-gaussianBlur-deviation:0" d="M35 34v4.234c-1.4.273-2.573.783-3.516 1.537-1.466 1.182-2.199 2.806-2.199 4.872 0 1.096.224 2.055.672 2.875a7.321 7.321 0 0 0 1.797 2.154c.75.617 1.875 1.263 3.375 1.933 1.6.724 2.657 1.25 3.172 1.58.526.33.925.676 1.193 1.038.269.351.402.757.402 1.215 0 .82-.308 1.436-.923 1.851-.605.415-1.478.623-2.62.623-.95 0-2.003-.144-3.156-.432-1.141-.287-2.54-.781-4.197-1.484v4.6c1.764.82 3.773 1.259 6 1.361V66h4v-4.283c1.43-.29 2.633-.8 3.6-1.537 1.6-1.214 2.4-2.875 2.4-4.983 0-1.522-.425-2.804-1.275-3.847-.851-1.054-2.425-2.104-4.72-3.147-1.734-.788-2.836-1.33-3.306-1.629-.459-.308-.795-.622-1.008-.941a2.077 2.077 0 0 1-.318-1.15c0-.703.263-1.271.79-1.708.525-.436 1.28-.656 2.265-.656.828 0 1.669.103 2.52.305.861.202 1.946.557 3.255 1.068l1.68-3.847a25.836 25.836 0 0 0-3.645-1.213A14.457 14.457 0 0 0 39 38.066V34Zm18 35v4h21v-4z"/><path style="color:#000;clip-rule:nonzero;display:inline;overflow:visible;visibility:visible;opacity:1;isolation:auto;mix-blend-mode:normal;color-interpolation:sRGB;color-interpolation-filters:linearRGB;solid-color:#000;solid-opacity:1;fill:#fff;fill-opacity:1;fill-rule:nonzero;stroke:none;stroke-width:5;stroke-linecap:butt;stroke-linejoin:miter;stroke-miterlimit:4;stroke-dasharray:none;stroke-dashoffset:0;stroke-opacity:1;marker:none;color-rendering:auto;image-rendering:auto;shape-rendering:auto;text-rendering:auto;enable-background:accumulate" d="M35 33v4.234c-1.4.273-2.573.783-3.516 1.537-1.466 1.182-2.199 2.806-2.199 4.872 0 1.096.224 2.055.672 2.875a7.321 7.321 0 0 0 1.797 2.154c.75.617 1.875 1.263 3.375 1.933 1.6.724 2.657 1.25 3.172 1.58.526.33.925.676 1.193 1.038.269.351.402.757.402 1.215 0 .82-.308 1.436-.923 1.851-.605.415-1.478.623-2.62.623-.95 0-2.003-.144-3.156-.432-1.141-.287-2.54-.781-4.197-1.484v4.6c1.764.82 3.773 1.259 6 1.361V65h4v-4.283c1.43-.29 2.633-.8 3.6-1.537 1.6-1.214 2.4-2.875 2.4-4.983 0-1.522-.425-2.804-1.275-3.847-.851-1.054-2.425-2.104-4.72-3.147-1.734-.788-2.836-1.33-3.306-1.629-.459-.308-.795-.622-1.008-.941a2.077 2.077 0 0 1-.318-1.15c0-.703.263-1.271.79-1.708.525-.436 1.28-.656 2.265-.656.828 0 1.669.103 2.52.305.861.202 1.946.557 3.255 1.068l1.68-3.847a25.836 25.836 0 0 0-3.645-1.213A14.457 14.457 0 0 0 39 37.066V33zm18 35v4h21v-4z"/><path style="color:#000;clip-rule:nonzero;display:inline;overflow:visible;visibility:visible;opacity:.07;isolation:auto;mix-blend-mode:normal;color-interpolation:sRGB;color-interpolation-filters:linearRGB;solid-color:#000;solid-opacity:1;fill:#000;fill-opacity:1;fill-rule:nonzero;stroke:none;stroke-width:5;stroke-linecap:butt;stroke-linejoin:miter;stroke-miterlimit:4;stroke-dasharray:none;stroke-dashoffset:0;stroke-opacity:1;marker:none;color-rendering:auto;image-rendering:auto;shape-rendering:auto;text-rendering:auto;enable-background:accumulate" d="m44.133 38.365-.93 2.127c-1.31-.51-2.394-.866-3.256-1.068a10.872 10.872 0 0 0-2.52-.305c-.984 0-1.739.22-2.265.656-.526.437-.789 1.005-.789 1.707 0 .366.091.686.24.977.13-.254.31-.484.55-.684.525-.436 1.28-.656 2.265-.656.828 0 1.669.103 2.52.305.861.202 1.946.557 3.255 1.068l1.68-3.847c-.255-.106-.5-.184-.75-.28zm-14.774 4.256a7.756 7.756 0 0 0-.074 1.022c0 1.096.224 2.055.672 2.875a7.321 7.321 0 0 0 1.797 2.154c.75.617 1.875 1.263 3.375 1.933 1.6.724 2.657 1.25 3.172 1.58.526.33.925.676 1.193 1.038.068.089.127.181.178.277.15-.305.224-.66.224-1.063 0-.457-.133-.863-.402-1.214-.268-.362-.667-.707-1.193-1.037-.515-.33-1.572-.857-3.172-1.58-1.5-.671-2.625-1.317-3.375-1.934a7.321 7.321 0 0 1-1.797-2.154c-.308-.565-.502-1.2-.598-1.897zm15.569 10.576c-.22 1.638-.991 2.969-2.328 3.983-.967.738-2.17 1.248-3.6 1.537v2c1.43-.29 2.633-.8 3.6-1.537 1.6-1.214 2.4-2.875 2.4-4.983a7.33 7.33 0 0 0-.072-1zM29 57.596v2c1.764.82 3.773 1.259 6 1.361v-2c-2.227-.102-4.236-.541-6-1.361zM35 63v2h4v-2h-4zm18 7v2h21v-2H53z"/><path style="color:#000;clip-rule:nonzero;display:inline;overflow:visible;visibility:visible;opacity:.15;isolation:auto;mix-blend-mode:normal;color-interpolation:sRGB;color-interpolation-filters:linearRGB;solid-color:#000;solid-opacity:1;fill:#000;fill-opacity:1;fill-rule:nonzero;stroke:none;stroke-width:5;stroke-linecap:butt;stroke-linejoin:miter;stroke-miterlimit:4;stroke-dasharray:none;stroke-dashoffset:0;stroke-opacity:1;marker:none;color-rendering:auto;image-rendering:auto;shape-rendering:auto;text-rendering:auto;enable-background:accumulate" d="m44.508 38.504-1.305 2.988c-1.31-.51-2.394-.866-3.256-1.068a10.872 10.872 0 0 0-2.52-.305c-.984 0-1.739.22-2.265.656-.526.437-.789 1.005-.789 1.707 0 .165.03.314.06.463a2.08 2.08 0 0 1 .73-1.17c.525-.436 1.28-.656 2.265-.656.828 0 1.669.103 2.52.305.861.202 1.946.557 3.255 1.068l1.68-3.847c-.128-.053-.249-.09-.375-.141zM29.31 43.105c-.012.177-.026.354-.026.538 0 1.096.224 2.055.672 2.875a7.321 7.321 0 0 0 1.797 2.154c.75.617 1.875 1.263 3.375 1.933 1.6.724 2.657 1.25 3.172 1.58.526.33.925.676 1.193 1.038.175.228.287.482.348.756a2.74 2.74 0 0 0 .054-.541c0-.458-.133-.864-.402-1.215-.268-.362-.667-.707-1.193-1.037-.515-.33-1.572-.857-3.172-1.58-1.5-.671-2.625-1.317-3.375-1.934a7.321 7.321 0 0 1-1.797-2.154c-.383-.701-.59-1.51-.646-2.413zM44.97 53.8c-.141 1.823-.927 3.286-2.371 4.38-.967.739-2.17 1.249-3.6 1.538v1c1.43-.29 2.633-.8 3.6-1.537 1.6-1.214 2.4-2.875 2.4-4.983 0-.138-.022-.264-.03-.398zM29 58.596v1c1.764.82 3.773 1.259 6 1.361v-1c-2.227-.102-4.236-.541-6-1.361zM35 64v1h4v-1h-4zm18 7v1h21v-1H53z"/></svg>