<?xml version="1.0" encoding="UTF-8" standalone="no"?>
<svg
   version="1.1"
   id="svg4332"
   height="64px"
   width="64px"
   xml:space="preserve"
   xmlns:xlink="http://www.w3.org/1999/xlink"
   xmlns="http://www.w3.org/2000/svg"
   xmlns:svg="http://www.w3.org/2000/svg"
   xmlns:rdf="http://www.w3.org/1999/02/22-rdf-syntax-ns#"
   xmlns:cc="http://creativecommons.org/ns#"
   xmlns:dc="http://purl.org/dc/elements/1.1/"><defs
     id="defs4334"><linearGradient
       id="linearGradient2084"><stop
         id="stop2076"
         style="stop-color:#ffffff;stop-opacity:1"
         offset="0" /><stop
         id="stop2078"
         style="stop-color:#ffffff;stop-opacity:0.23529412"
         offset="0.07892177" /><stop
         id="stop2080"
         style="stop-color:#ffffff;stop-opacity:0.15686275"
         offset="0.99989998" /><stop
         id="stop2082"
         style="stop-color:#ffffff;stop-opacity:0.39215687"
         offset="1" /></linearGradient><linearGradient
       y2="43.047047"
       x2="23.99999"
       y1="5.9093657"
       x1="23.99999"
       gradientTransform="matrix(1.4324324,0,0,1.4362832,-2.3783747,-2.4707827)"
       gradientUnits="userSpaceOnUse"
       id="linearGradient3904"
       xlink:href="#linearGradient2084" /><linearGradient
       id="linearGradient4270"><stop
         id="stop4272"
         style="stop-color:#ffffff;stop-opacity:1"
         offset="0" /><stop
         id="stop4274"
         style="stop-color:#ffffff;stop-opacity:0.23529412"
         offset="0.0348749" /><stop
         id="stop4276"
         style="stop-color:#ffffff;stop-opacity:0.15686275"
         offset="0.96216321" /><stop
         id="stop4278"
         style="stop-color:#ffffff;stop-opacity:0.39215687"
         offset="1" /></linearGradient><linearGradient
       id="linearGradient3688-166-749-654"><stop
         offset="0"
         style="stop-color:#181818;stop-opacity:1"
         id="stop3088" /><stop
         offset="1"
         style="stop-color:#181818;stop-opacity:0"
         id="stop3090" /></linearGradient><linearGradient
       id="linearGradient3702-501-757-795"><stop
         offset="0"
         style="stop-color:#181818;stop-opacity:0"
         id="stop3100" /><stop
         offset="0.5"
         style="stop-color:#181818;stop-opacity:1"
         id="stop3102" /><stop
         offset="1"
         style="stop-color:#181818;stop-opacity:0"
         id="stop3104" /></linearGradient><radialGradient
       cx="4.9929786"
       cy="43.5"
       r="2.5"
       fx="4.9929786"
       fy="43.5"
       id="radialGradient3337-2-2"
       xlink:href="#linearGradient3688-166-749-654"
       gradientUnits="userSpaceOnUse"
       gradientTransform="matrix(2.4045407,0,0,0.99999998,41.985755,15.500001)" /><radialGradient
       cx="4.9929786"
       cy="43.5"
       r="2.5"
       fx="4.9929786"
       fy="43.5"
       id="radialGradient3339-1-4"
       xlink:href="#linearGradient3688-166-749-654"
       gradientUnits="userSpaceOnUse"
       gradientTransform="matrix(2.4045407,0,0,0.99999998,-22.014244,-102.5)" /><linearGradient
       x1="25.058096"
       y1="47.027729"
       x2="25.058096"
       y2="39.999443"
       id="linearGradient6394"
       xlink:href="#linearGradient3702-501-757-795"
       gradientUnits="userSpaceOnUse"
       gradientTransform="matrix(1.5714286,0,0,0.7142857,-5.7142853,27.928572)" /><linearGradient
       xlink:href="#linearGradient870"
       id="linearGradient899"
       x1="31.781376"
       y1="4.9266648"
       x2="31.781376"
       y2="59.148476"
       gradientUnits="userSpaceOnUse" /><linearGradient
       id="linearGradient870"><stop
         id="stop866"
         offset="0"
         style="stop-color:#ed5353;stop-opacity:1" /><stop
         id="stop868"
         offset="1"
         style="stop-color:#c6262e;stop-opacity:1" /></linearGradient><linearGradient
       y2="44.340794"
       x2="71.204407"
       y1="6.2375584"
       x1="71.204407"
       gradientTransform="matrix(-0.05405404,0,0,0.05405404,24.57559,51.223089)"
       gradientUnits="userSpaceOnUse"
       id="linearGradient14699"
       xlink:href="#linearGradient4011-9-9-70-61-7" /><linearGradient
       id="linearGradient4011-9-9-70-61-7"><stop
         offset="0"
         style="stop-color:#ffffff;stop-opacity:1;"
         id="stop4013-5-4-3-8-3" /><stop
         id="stop4015-1-5-70-9-5"
         style="stop-color:#ffffff;stop-opacity:0.23529412;"
         offset="0.507761" /><stop
         offset="0.83456558"
         style="stop-color:#ffffff;stop-opacity:0.15686275;"
         id="stop4017-7-0-13-0-1" /><stop
         offset="1"
         style="stop-color:#ffffff;stop-opacity:0.39215687;"
         id="stop4019-1-12-7-0-7" /></linearGradient><linearGradient
       y2="8.0928917"
       x2="38.976662"
       y1="59.967686"
       x1="38.976662"
       gradientTransform="matrix(-0.07843137,0,0,0.07843137,23.145394,49.833334)"
       gradientUnits="userSpaceOnUse"
       id="linearGradient14702"
       xlink:href="#linearGradient4215-8-4-07-7" /><linearGradient
       id="linearGradient4215-8-4-07-7"><stop
         id="stop4217-1-2-1-2"
         offset="0"
         style="stop-color:#2b3235;stop-opacity:1" /><stop
         id="stop4219-3-4-0-96"
         offset="1"
         style="stop-color:#374044;stop-opacity:1" /></linearGradient><linearGradient
       id="linearGradient854-7"><stop
         style="stop-color:#4d4d4d;stop-opacity:1"
         offset="0"
         id="stop850-3" /><stop
         style="stop-color:#333333;stop-opacity:1"
         offset="1"
         id="stop852-6" /></linearGradient><linearGradient
       xlink:href="#linearGradient854-7"
       id="linearGradient1876"
       gradientUnits="userSpaceOnUse"
       gradientTransform="translate(61.935172,18.776057)"
       x1="-19.844183"
       y1="-12.423767"
       x2="-19.844183"
       y2="40.816319" /><linearGradient
       xlink:href="#linearGradient4270"
       id="linearGradient1977"
       gradientUnits="userSpaceOnUse"
       gradientTransform="matrix(1.4324324,0,0,1.4362832,-2.3783747,-2.4707827)"
       x1="23.99999"
       y1="5.9093657"
       x2="23.99999"
       y2="42.091705" /></defs><metadata
     id="metadata4337"><rdf:RDF><cc:Work
         rdf:about=""><dc:format>image/svg+xml</dc:format><dc:type
           rdf:resource="http://purl.org/dc/dcmitype/StillImage" /></cc:Work></rdf:RDF></metadata><g
     id="g866"><rect
       style="opacity:0.6;fill:url(#radialGradient3337-2-2);fill-opacity:1;stroke:none;stroke-width:1.06199"
       id="rect2801-5-5-7-9"
       y="56.5"
       x="54"
       height="5"
       width="6" /><rect
       style="opacity:0.6;fill:url(#radialGradient3339-1-4);fill-opacity:1;stroke:none;stroke-width:1.06199"
       id="rect3696-3-0-3-7"
       transform="scale(-1)"
       y="-61.5"
       x="-10"
       height="5"
       width="6" /><rect
       style="opacity:0.6;fill:url(#linearGradient6394);fill-opacity:1;stroke:none;stroke-width:1.06199"
       id="rect3700-5-6-8-4"
       y="56.5"
       x="10"
       height="5.0000005"
       width="44" /></g><path
     id="rect5505-21-3-8-5-2-9"
     style="color:#000000;display:inline;overflow:visible;visibility:visible;fill:url(#linearGradient899);fill-opacity:1;fill-rule:nonzero;stroke:#7a0000;stroke-width:1;stroke-opacity:0.5;marker:none;enable-background:accumulate"
     d="M 59.5,47 V 10.5 c 0,-3.3239967 -2.676003,-6 -6,-6 h -43 c -3.3239967,0 -6,2.6760033 -6,6 V 47" /><path
     id="rect6741"
     style="opacity:0.3;fill:none;stroke:url(#linearGradient3904);stroke-width:1;stroke-linecap:round;stroke-linejoin:miter;stroke-miterlimit:4;stroke-dasharray:none;stroke-dashoffset:0;stroke-opacity:1"
     d="m 10.5,5.4296875 c -2.7699972,0 -5,2.2300028 -5,5.0000005 V 45.5 h 53 V 10.429688 c 0,-2.7699977 -2.230003,-5.0000005 -5,-5.0000005 z" /><path
     style="opacity:0.15;fill:#7a0000;fill-opacity:1;fill-rule:evenodd;stroke:none;stroke-width:1;font-variation-settings:normal;vector-effect:none;stroke-linecap:butt;stroke-linejoin:miter;stroke-miterlimit:4;stroke-dasharray:none;stroke-dashoffset:0;stroke-opacity:1;-inkscape-stroke:none;marker:none;stop-color:#000000;stop-opacity:1"
     id="path4082"
     d="m 25.117116,17.361207 c -0.01054,9.11e-4 -0.215368,0.02656 -0.225779,0.02849 -0.01041,0.0019 -0.187367,0.05408 -0.197556,0.05698 -0.01019,0.0029 -0.187676,0.05314 -0.197556,0.05698 -0.0099,0.0038 -0.188069,0.08073 -0.197556,0.08547 -0.0095,0.0047 -0.188544,0.108354 -0.197557,0.113959 -0.009,0.0056 -0.160873,0.107538 -0.169333,0.11396 -0.0085,0.0064 -0.161498,0.135266 -0.169334,0.14245 -0.0079,0.0072 -0.133967,0.134565 -0.141112,0.142449 -0.0071,0.0078 -0.134718,0.162422 -0.141112,0.170939 -0.0064,0.0085 -0.135525,0.190353 -0.141111,0.19943 -0.0056,0.0091 -0.07994,0.16138 -0.08467,0.170939 -0.0047,0.0096 -0.08083,0.18947 -0.08467,0.199429 -0.0038,0.01 -0.08176,0.189155 -0.08467,0.19943 -0.0029,0.01027 -0.05448,0.217416 -0.05644,0.227919 -0.002,0.0105 -0.02724,0.18879 -0.02822,0.199429 -9.93e-4,0.01064 7e-6,0.217233 0,0.227919 v 17.321857 c 5.7e-5,0.0075 -5.34e-4,0.163502 0,0.170939 5.34e-4,0.0075 0.02721,0.135062 0.02822,0.14245 9.94e-4,0.0074 0.02674,0.135143 0.02822,0.142449 0.0014,0.0073 0.02628,0.135255 0.02822,0.142449 0.002,0.0072 0.02582,0.135396 0.02822,0.14245 0.0024,0.007 0.0536,0.135567 0.05644,0.142449 0.0028,0.0068 0.05317,0.135767 0.05644,0.14245 0.0033,0.0067 0.08097,0.135994 0.08467,0.142449 0.0037,0.0065 0.08057,0.107759 0.08467,0.11396 0.0041,0.0062 0.08018,0.136529 0.08467,0.142449 0.0045,0.0059 0.07981,0.108344 0.08467,0.11396 0.0049,0.0057 0.107681,0.108672 0.11289,0.11396 0.0052,0.0053 0.107353,0.08053 0.112889,0.08547 0.0055,0.0049 0.107049,0.109393 0.112889,0.11396 0.0059,0.0046 0.106769,0.08129 0.112889,0.08547 0.0061,0.0042 0.134738,0.0817 0.141112,0.08547 0.0064,0.0037 0.106288,0.05363 0.112889,0.05698 0.0066,0.0034 0.13431,0.05407 0.141112,0.05698 0.0068,0.0029 0.134138,0.05452 0.141111,0.05698 0.007,0.0025 0.133995,0.05498 0.141112,0.05698 0.0071,0.002 0.133882,0.02696 0.141112,0.02849 0.0072,0.0016 0.162021,0.02743 0.169333,0.02849 0.0073,0.0011 0.133747,0.02791 0.141112,0.02849 0.0074,5.8e-4 0.133725,-9.8e-5 0.141112,0 0.0074,9.9e-5 0.133734,3.83e-4 0.141111,0 0.0074,-3.83e-4 0.161996,-0.02762 0.169334,-0.02849 0.0073,-8.62e-4 0.133844,0.0014 0.141112,0 0.0072,-0.0014 0.133945,-0.05517 0.141111,-0.05698 0.0071,-0.0018 0.134076,-0.02622 0.141112,-0.02849 0.007,-0.0023 0.134235,-0.05425 0.141111,-0.05698 0.0069,-0.0027 0.134424,-0.05381 0.141112,-0.05698 0.0067,-0.0032 0.134641,-0.05338 0.141112,-0.05698 l 15.352939,-8.660928 a 0.98962591,0.99900872 0 0 0 0,-0.02849 c 0.0065,-0.0037 0.134842,-0.05279 0.141111,-0.05698 0.0062,-0.0042 0.106907,-0.109362 0.11289,-0.113959 0.006,-0.0046 0.135441,-0.08048 0.141111,-0.08547 0.0057,-0.005 0.107555,-0.108611 0.11289,-0.11396 0.0053,-0.0054 0.07969,-0.108268 0.08467,-0.113959 0.005,-0.0057 0.108295,-0.107951 0.112889,-0.11396 0.0046,-0.006 0.08048,-0.107659 0.08467,-0.113959 0.0042,-0.0063 0.08089,-0.135885 0.08467,-0.14245 0.0038,-0.0066 0.0531,-0.107158 0.05644,-0.113959 0.0033,-0.0068 0.08178,-0.135443 0.08467,-0.14245 0.0029,-0.007 0.02579,-0.135265 0.02822,-0.142449 0.0024,-0.0072 0.05449,-0.163611 0.05644,-0.17094 0.002,-0.0073 0.02675,-0.135006 0.02822,-0.142449 0.0014,-0.0075 0.02724,-0.134925 0.02822,-0.14245 9.93e-4,-0.0076 0.02773,-0.163365 0.02822,-0.170939 4.94e-4,-0.0076 0,-0.134859 0,-0.14245 0,-0.0076 4.94e-4,-0.134875 0,-0.142449 -4.94e-4,-0.0076 -0.02724,-0.163414 -0.02822,-0.170939 -9.85e-4,-0.0075 -0.02675,-0.135007 -0.02822,-0.14245 -0.0014,-0.0075 -0.02627,-0.13512 -0.02822,-0.142449 -0.002,-0.0073 -0.05402,-0.163756 -0.05644,-0.17094 -0.0024,-0.0072 -0.02533,-0.135442 -0.02822,-0.142449 -0.0029,-0.007 -0.08132,-0.135649 -0.08467,-0.14245 -0.0033,-0.0068 -0.05267,-0.107394 -0.05644,-0.113959 -0.0038,-0.0066 -0.08048,-0.136149 -0.08467,-0.14245 -0.0042,-0.0063 -0.08007,-0.107951 -0.08467,-0.113959 -0.0046,-0.006 -0.107914,-0.108268 -0.112889,-0.11396 -0.005,-0.0057 -0.07933,-0.108611 -0.08467,-0.11396 -0.0053,-0.0054 -0.107219,-0.108975 -0.11289,-0.113959 -0.0057,-0.005 -0.135128,-0.08088 -0.141111,-0.08547 -0.006,-0.0046 -0.10662,-0.109769 -0.11289,-0.113959 -0.0062,-0.0042 -0.134582,-0.05321 -0.141111,-0.05698 a 0.98962591,0.99900872 0 0 0 0,-0.02849 L 26.443557,17.646109 v 0.02849 c -0.0074,-0.0042 -0.133427,-0.0818 -0.141112,-0.08547 -0.0077,-0.0036 -0.161401,-0.08239 -0.169334,-0.08547 -0.0079,-0.0031 -0.161196,-0.0545 -0.169334,-0.05698 -0.0081,-0.0025 -0.132814,-0.02663 -0.141111,-0.02849 -0.0083,-0.0018 -0.160923,-0.02726 -0.169334,-0.02849 -0.0084,-0.0013 -0.189077,-0.02789 -0.197556,-0.02849 -0.0085,-6.01e-4 -0.160834,-3.7e-5 -0.169334,0 -0.0085,3.6e-5 -0.16086,-6.73e-4 -0.169334,0 z" /><path
     style="opacity:0.3;fill:#7a0000;fill-opacity:1;fill-rule:evenodd;stroke:none;stroke-width:1;font-variation-settings:normal;vector-effect:none;stroke-linecap:butt;stroke-linejoin:miter;stroke-miterlimit:4;stroke-dasharray:none;stroke-dashoffset:0;stroke-opacity:1;-inkscape-stroke:none;marker:none;stop-color:#000000;stop-opacity:1"
     id="path4044-8"
     d="m 25.201783,18.358353 a 1.3327096,1.3453452 0 0 0 -1.21356,1.339025 v 17.321857 a 1.3327096,1.3453452 0 0 0 1.975562,1.168085 l 15.35294,-8.660928 a 1.3327096,1.3453452 0 0 0 0,-2.336171 l -15.35294,-8.660929 a 1.3327096,1.3453452 0 0 0 -0.762002,-0.170939 z" /><path
     style="fill:#fafafa;fill-opacity:1;fill-rule:evenodd;stroke:none;stroke-width:0.907385"
     id="path4044"
     d="m 25.201783,17.358353 a 1.3327096,1.3453452 0 0 0 -1.21356,1.339025 v 17.321857 a 1.3327096,1.3453452 0 0 0 1.975562,1.168085 l 15.35294,-8.660928 a 1.3327096,1.3453452 0 0 0 0,-2.336171 l -15.35294,-8.660929 a 1.3327096,1.3453452 0 0 0 -0.762002,-0.170939 z" /><path
     id="path4044-1"
     style="fill:#7a0000;fill-opacity:1;fill-rule:evenodd;stroke:none;stroke-width:1;font-variation-settings:normal;opacity:0.15;vector-effect:none;stroke-linecap:butt;stroke-linejoin:miter;stroke-miterlimit:4;stroke-dasharray:none;stroke-dashoffset:0;stroke-opacity:1;-inkscape-stroke:none;marker:none;stop-color:#000000;stop-opacity:1"
     d="M 41.884766 26.859375 A 1.3327096 1.3453452 0 0 1 41.316406 27.525391 L 25.962891 36.1875 A 1.3327096 1.3453452 0 0 1 23.988281 35.019531 L 23.988281 36.019531 A 1.3327096 1.3453452 0 0 0 25.962891 37.1875 L 41.316406 28.527344 A 1.3327096 1.3453452 0 0 0 41.884766 26.859375 z " /><path
     id="rect5505-21-3-8-5-2-9-6"
     style="color:#000000;display:inline;overflow:visible;visibility:visible;fill:url(#linearGradient1876);fill-opacity:1;fill-rule:nonzero;stroke:#000000;stroke-width:1;stroke-opacity:0.5;marker:none;enable-background:accumulate;font-variation-settings:normal;opacity:1;stroke-linecap:butt;stroke-linejoin:miter;stroke-miterlimit:4;stroke-dasharray:none;stroke-dashoffset:0;stop-color:#000000;stop-opacity:1"
     d="m 4.5,46.5 v 7 c 0,3.323997 2.6760033,6 6,6 h 43 c 3.323997,0 6,-2.676003 6,-6 v -7 z" /><path
     id="rect6741-6"
     style="opacity:0.2;fill:none;stroke:url(#linearGradient1977);stroke-width:1;stroke-linecap:square;stroke-linejoin:round;stroke-miterlimit:4;stroke-dasharray:none;stroke-dashoffset:0;stroke-opacity:1"
     d="m 5.5,47.5 v 6.070312 c 0,2.769998 2.2300028,5 5,5 h 43 c 2.769997,0 5,-2.230002 5,-5 V 47.5" /><rect
     ry="0.46273786"
     y="53"
     x="9"
     height="1"
     width="46"
     id="rect10944"
     style="opacity:0.05;fill:#ffffff;fill-opacity:1;stroke:none;stroke-width:2;stroke-linecap:round;stroke-linejoin:round;stroke-miterlimit:4;stroke-dasharray:none;stroke-opacity:1"
     rx="0.46273783" /><rect
     style="opacity:0.4;fill:#000000;fill-opacity:1;stroke:none;stroke-width:2;stroke-linecap:round;stroke-linejoin:round;stroke-miterlimit:4;stroke-dasharray:none;stroke-opacity:1"
     id="rect4497"
     width="46"
     height="1"
     x="9"
     y="52"
     ry="0.46273786"
     rx="0.46273783" /><path
     d="m 20.63559,50.5 c 1.10353,0 2,0.896469 2,2 0,1.103532 -0.89647,2 -2,2 -1.10353,0 -2,-0.896468 -2,-2 0,-1.103531 0.89647,-2 2,-2 z"
     id="path2555-7-1-9-4"
     style="color:#000000;display:inline;overflow:visible;visibility:visible;fill:url(#linearGradient14702);fill-opacity:1;fill-rule:nonzero;stroke:none;stroke-width:1;marker:none;enable-background:accumulate" /><path
     d="m 19.6981,52.593714 c 0,0.552303 0.44775,1.000036 0.99999,1.000036 0.55229,0 1.00001,-0.447738 1.00001,-1.000036 0,-0.552277 -0.44772,-0.999964 -1.00001,-0.999964 -0.55224,0 -0.99999,0.447687 -0.99999,0.999964 z"
     id="path8655-6-0-5-2"
     style="color:#000000;display:inline;overflow:visible;visibility:visible;opacity:0.15;fill:none;stroke:url(#linearGradient14699);stroke-width:1;stroke-linecap:round;stroke-linejoin:round;stroke-miterlimit:4;stroke-dasharray:none;stroke-dashoffset:0;stroke-opacity:1;marker:none;enable-background:accumulate" /><path
     d="m 20.63559,50.5 c 1.10353,0 2,0.896469 2,2 0,1.103532 -0.89647,2 -2,2 -1.10353,0 -2,-0.896468 -2,-2 0,-1.103531 0.89647,-2 2,-2 z"
     id="path2555-7-1-9-9-41"
     style="color:#000000;display:inline;overflow:visible;visibility:visible;fill:none;stroke:#292e2f;stroke-width:1;stroke-linecap:round;stroke-linejoin:round;stroke-miterlimit:4;stroke-dasharray:none;stroke-dashoffset:0;stroke-opacity:1;marker:none;enable-background:accumulate" /></svg>
