<?xml version="1.0" encoding="UTF-8" standalone="no"?>
<!-- Created with Inkscape (http://www.inkscape.org/) -->

<svg
   xmlns:dc="http://purl.org/dc/elements/1.1/"
   xmlns:cc="http://creativecommons.org/ns#"
   xmlns:rdf="http://www.w3.org/1999/02/22-rdf-syntax-ns#"
   xmlns:svg="http://www.w3.org/2000/svg"
   xmlns="http://www.w3.org/2000/svg"
   xmlns:xlink="http://www.w3.org/1999/xlink"
   xmlns:inkscape="http://www.inkscape.org/namespaces/inkscape"
   version="1.1"
   width="64"
   height="64"
   id="svg3130">
  <defs
     id="defs3132">
    <linearGradient
       x1="22.004084"
       y1="47.813133"
       x2="22.004084"
       y2="3.3638515"
       id="linearGradient3072"
       xlink:href="#linearGradient3104-5"
       gradientUnits="userSpaceOnUse"
       gradientTransform="matrix(1.3428566,0,0,1.3407401,-2.433093,-4.2520302)" />
    <linearGradient
       id="linearGradient3104-5">
      <stop
         id="stop3106-2"
         style="stop-color:#aaaaaa;stop-opacity:1"
         offset="0" />
      <stop
         id="stop3108-5"
         style="stop-color:#c8c8c8;stop-opacity:1"
         offset="1" />
    </linearGradient>
    <linearGradient
       x1="-51.786404"
       y1="50.786446"
       x2="-51.786404"
       y2="2.9062471"
       id="linearGradient3048"
       xlink:href="#linearGradient3104-6"
       gradientUnits="userSpaceOnUse"
       gradientTransform="matrix(1.0843523,0,0,1.1997367,79.550862,-4.1628601)" />
    <linearGradient
       id="linearGradient3104-6">
      <stop
         id="stop3106-3"
         style="stop-color:#000000;stop-opacity:0.31782946"
         offset="0" />
      <stop
         id="stop3108-9"
         style="stop-color:#000000;stop-opacity:0.24031007"
         offset="1" />
    </linearGradient>
    <linearGradient
       x1="23.99999"
       y1="5.8641062"
       x2="23.99999"
       y2="42.100208"
       id="linearGradient3051"
       xlink:href="#linearGradient3977-4"
       gradientUnits="userSpaceOnUse"
       gradientTransform="matrix(1.2162162,0,0,1.5405376,2.8108184,-6.9729501)" />
    <linearGradient
       id="linearGradient3977-4">
      <stop
         id="stop3979-7"
         style="stop-color:#ffffff;stop-opacity:1"
         offset="0" />
      <stop
         id="stop3981-6"
         style="stop-color:#ffffff;stop-opacity:0.23529412"
         offset="0.01214366" />
      <stop
         id="stop3983-5"
         style="stop-color:#ffffff;stop-opacity:0.15686275"
         offset="0.98781353" />
      <stop
         id="stop3985-6"
         style="stop-color:#ffffff;stop-opacity:0.39215687"
         offset="1" />
    </linearGradient>
    <linearGradient
       x1="25.132275"
       y1="0.98520643"
       x2="25.132275"
       y2="47.013336"
       id="linearGradient3054"
       xlink:href="#linearGradient3600-9"
       gradientUnits="userSpaceOnUse"
       gradientTransform="matrix(1.3142827,0,0,1.2602393,0.4572141,-2.1793201)" />
    <linearGradient
       id="linearGradient3600-9">
      <stop
         id="stop3602-3"
         style="stop-color:#f4f4f4;stop-opacity:1"
         offset="0" />
      <stop
         id="stop3604-7"
         style="stop-color:#dbdbdb;stop-opacity:1"
         offset="1" />
    </linearGradient>
    <radialGradient
       cx="605.71429"
       cy="486.64789"
       r="117.14286"
       fx="605.71429"
       fy="486.64789"
       id="radialGradient3057"
       xlink:href="#linearGradient5060"
       gradientUnits="userSpaceOnUse"
       gradientTransform="matrix(0.03132633,0,0,0.02058823,35.220859,49.45142)" />
    <linearGradient
       id="linearGradient5060">
      <stop
         id="stop5062"
         style="stop-color:#000000;stop-opacity:1"
         offset="0" />
      <stop
         id="stop5064"
         style="stop-color:#000000;stop-opacity:0"
         offset="1" />
    </linearGradient>
    <radialGradient
       cx="605.71429"
       cy="486.64789"
       r="117.14286"
       fx="605.71429"
       fy="486.64789"
       id="radialGradient3060"
       xlink:href="#linearGradient5060"
       gradientUnits="userSpaceOnUse"
       gradientTransform="matrix(-0.03132632,0,0,0.02058823,28.779136,49.45142)" />
    <linearGradient
       id="linearGradient5048">
      <stop
         id="stop5050"
         style="stop-color:#000000;stop-opacity:0"
         offset="0" />
      <stop
         id="stop5056"
         style="stop-color:#000000;stop-opacity:1"
         offset="0.5" />
      <stop
         id="stop5052"
         style="stop-color:#000000;stop-opacity:0"
         offset="1" />
    </linearGradient>
    <linearGradient
       x1="302.85715"
       y1="366.64789"
       x2="302.85715"
       y2="609.50507"
       id="linearGradient3128"
       xlink:href="#linearGradient5048"
       gradientUnits="userSpaceOnUse"
       gradientTransform="matrix(0.09153846,0,0,0.02058823,-1.084616,49.45142)" />
  </defs>
  <metadata
     id="metadata3135">
    <rdf:RDF>
      <cc:Work
         rdf:about="">
        <dc:format>image/svg+xml</dc:format>
        <dc:type
           rdf:resource="http://purl.org/dc/dcmitype/StillImage" />
        <dc:title />
      </cc:Work>
    </rdf:RDF>
  </metadata>
  <g
     id="layer1">
    <rect
       width="44.199997"
       height="5"
       x="9.8999996"
       y="57.000004"
       id="rect2879"
       style="opacity:0.3;fill:url(#linearGradient3128);fill-opacity:1;fill-rule:nonzero;stroke:none;stroke-width:1;marker:none;visibility:visible;display:inline;overflow:visible" />
    <path
       d="m 9.9,57.00022 c 0,0 0,4.9997 0,4.9997 -1.6132281,0.01 -3.9,-1.1202 -3.9,-2.5002 0,-1.38 1.8002408,-2.4995 3.9,-2.4995 z"
       inkscape:connector-curvature="0"
       id="path2881"
       style="opacity:0.3;fill:url(#radialGradient3060);fill-opacity:1;fill-rule:nonzero;stroke:none;stroke-width:1;marker:none;visibility:visible;display:inline;overflow:visible" />
    <path
       d="m 54.099999,57.00022 c 0,0 0,4.9997 0,4.9997 C 55.713227,62.00992 58,60.87972 58,59.49972 c 0,-1.38 -1.800241,-2.4995 -3.900001,-2.4995 z"
       inkscape:connector-curvature="0"
       id="path2883"
       style="opacity:0.3;fill:url(#radialGradient3057);fill-opacity:1;fill-rule:nonzero;stroke:none;stroke-width:1;marker:none;visibility:visible;display:inline;overflow:visible" />
    <path
       d="m 9,0.9998799 c 10.540935,0 45.999945,0.004 45.999945,0.004 L 55,59.00002 c 0,0 -30.666666,0 -46,0 0,-19.3334 0,-38.6665 0,-57.9998201 z"
       inkscape:connector-curvature="0"
       id="path4160-6"
       style="fill:url(#linearGradient3054);fill-opacity:1;stroke:none;display:inline" />
    <path
       d="m 54.499999,58.50002 -44.9999992,0 0,-57.0000401 44.9999992,0 z"
       inkscape:connector-curvature="0"
       id="rect6741-1-8"
       style="fill:none;stroke:url(#linearGradient3051);stroke-width:1;stroke-linecap:round;stroke-linejoin:miter;stroke-miterlimit:4;stroke-opacity:1;stroke-dasharray:none;stroke-dashoffset:0" />
    <path
       d="m 8.4999684,0.4998999 c 10.7700936,0 47.0000286,0.004 47.0000286,0.004 l 4.9e-5,58.9962201 c 0,0 -31.333384,0 -47.0000776,0 0,-19.6668 0,-39.3334 0,-58.9999701 z"
       inkscape:connector-curvature="0"
       id="path4160-6-1"
       style="fill:none;stroke:url(#linearGradient3048);stroke-width:0.9999218;stroke-linecap:butt;stroke-linejoin:round;stroke-miterlimit:4;stroke-opacity:1;stroke-dasharray:none;stroke-dashoffset:0;display:inline" />
    <path
       d="m 31.875,24.37475 c -1.359378,1.3e-5 -2.623048,0.306653 -3.8125,0.96875 l 0.71875,1.5625 c 0.451171,-0.222646 0.931639,-0.404286 1.40625,-0.5625 0.474607,-0.158192 0.974606,-0.249989 1.53125,-0.25 0.61523,1.1e-5 1.10937,0.142589 1.4375,0.40625 0.328119,0.263683 0.468744,0.632823 0.46875,1.125 -6e-6,0.421884 -0.07618,0.789071 -0.28125,1.09375 -0.199224,0.304696 -0.646489,0.730477 -1.34375,1.28125 -0.585941,0.457038 -1.015628,0.884772 -1.25,1.3125 -0.234378,0.42774 -0.343752,0.980474 -0.34375,1.625 l 0,0.5625 1.71875,0 0,-0.40625 c -4e-6,-0.474605 0.0996,-0.843745 0.28125,-1.125 0.187495,-0.281244 0.548823,-0.63476 1.09375,-1.0625 0.638666,-0.49804 1.085931,-0.908196 1.34375,-1.21875 0.263665,-0.310539 0.464836,-0.628898 0.59375,-0.96875 0.128899,-0.345694 0.187492,-0.748037 0.1875,-1.1875 -8e-6,-0.990224 -0.326179,-1.749988 -1,-2.3125 -0.673834,-0.562487 -1.601568,-0.843737 -2.75,-0.84375 z m -5.78125,1.9375 -8.59375,4.3125 0,1.0625 8.59375,3.78125 0,-1.75 L 19.625,31.06225 26.09375,28.031 z m 11.8125,0 0,1.71875 6.46875,3.03125 -6.46875,2.65625 0,1.75 8.59375,-3.78125 0,-1.0625 z m -6.5625,8.65625 c -0.861331,2e-6 -1.312502,0.458986 -1.3125,1.34375 -2e-6,0.427735 0.121092,0.759766 0.34375,1 0.222654,0.234375 0.552731,0.34375 0.96875,0.34375 0.416012,0 0.71484,-0.134766 0.9375,-0.375 0.228511,-0.246093 0.343745,-0.552734 0.34375,-0.96875 -5e-6,-0.421873 -0.08985,-0.771483 -0.3125,-1 -0.22266,-0.234373 -0.546879,-0.343748 -0.96875,-0.34375 z"
       inkscape:connector-curvature="0"
       id="text3028-0-6"
       style="font-size:18px;font-style:normal;font-variant:normal;font-weight:600;font-stretch:normal;text-align:center;line-height:125%;letter-spacing:0px;word-spacing:0px;writing-mode:lr-tb;text-anchor:middle;opacity:0.4;fill:#ffffff;fill-opacity:1;stroke:none;font-family:Open Sans;-inkscape-font-specification:Open Sans Semi-Bold" />
    <path
       d="m 31.875,23.375 c -1.359378,1.3e-5 -2.623048,0.306653 -3.8125,0.96875 l 0.71875,1.5625 c 0.451171,-0.222646 0.931639,-0.404286 1.40625,-0.5625 0.474607,-0.158192 0.974606,-0.249989 1.53125,-0.25 0.61523,1.1e-5 1.10937,0.142589 1.4375,0.40625 0.328119,0.263683 0.468744,0.632823 0.46875,1.125 -6e-6,0.421884 -0.07618,0.789071 -0.28125,1.09375 C 33.144526,28.023446 32.697261,28.449227 32,29 c -0.585941,0.457038 -1.015628,0.884772 -1.25,1.3125 -0.234378,0.42774 -0.343752,0.980474 -0.34375,1.625 l 0,0.5625 1.71875,0 0,-0.40625 c -4e-6,-0.474605 0.0996,-0.843745 0.28125,-1.125 0.187495,-0.281244 0.548823,-0.63476 1.09375,-1.0625 0.638666,-0.49804 1.085931,-0.908196 1.34375,-1.21875 0.263665,-0.310539 0.464836,-0.628898 0.59375,-0.96875 0.128899,-0.345694 0.187492,-0.748037 0.1875,-1.1875 -8e-6,-0.990224 -0.326179,-1.749988 -1,-2.3125 -0.673834,-0.562487 -1.601568,-0.843737 -2.75,-0.84375 z M 26.09375,25.3125 17.5,29.625 l 0,1.0625 8.59375,3.78125 0,-1.75 -6.46875,-2.65625 6.46875,-3.03125 z m 11.8125,0 0,1.71875 6.46875,3.03125 -6.46875,2.65625 0,1.75 8.59375,-3.78125 0,-1.0625 z m -6.5625,8.65625 c -0.861331,2e-6 -1.312502,0.458986 -1.3125,1.34375 -2e-6,0.427735 0.121092,0.759766 0.34375,1 0.222654,0.234375 0.552731,0.34375 0.96875,0.34375 0.416012,0 0.71484,-0.134766 0.9375,-0.375 0.228511,-0.246093 0.343745,-0.552734 0.34375,-0.96875 -5e-6,-0.421873 -0.08985,-0.771483 -0.3125,-1 -0.22266,-0.234373 -0.546879,-0.343748 -0.96875,-0.34375 z"
       inkscape:connector-curvature="0"
       id="text3028-0"
       style="font-size:18px;font-style:normal;font-variant:normal;font-weight:600;font-stretch:normal;text-align:center;line-height:125%;letter-spacing:0px;word-spacing:0px;writing-mode:lr-tb;text-anchor:middle;fill:#999999;fill-opacity:1;stroke:none;font-family:Open Sans;-inkscape-font-specification:Open Sans Semi-Bold" />
  </g>
</svg>
