<?xml version="1.0" encoding="UTF-8" standalone="no"?>
<!-- Created with Inkscape (http://www.inkscape.org/) -->

<svg
   xmlns:dc="http://purl.org/dc/elements/1.1/"
   xmlns:cc="http://creativecommons.org/ns#"
   xmlns:rdf="http://www.w3.org/1999/02/22-rdf-syntax-ns#"
   xmlns:svg="http://www.w3.org/2000/svg"
   xmlns="http://www.w3.org/2000/svg"
   xmlns:xlink="http://www.w3.org/1999/xlink"
   xmlns:inkscape="http://www.inkscape.org/namespaces/inkscape"
   version="1.1"
   width="64"
   height="64"
   id="svg3854">
  <defs
     id="defs3856">
    <linearGradient
       x1="23.99999"
       y1="5.5641499"
       x2="23.99999"
       y2="43"
       id="linearGradient3027"
       xlink:href="#linearGradient3977-4"
       gradientUnits="userSpaceOnUse"
       gradientTransform="matrix(1.2162162,0,0,1.5405376,2.8108184,-6.97295)" />
    <linearGradient
       id="linearGradient3977-4">
      <stop
         id="stop3979-7"
         style="stop-color:#ffffff;stop-opacity:1"
         offset="0" />
      <stop
         id="stop3981-6"
         style="stop-color:#ffffff;stop-opacity:0.23529412"
         offset="0.03626217" />
      <stop
         id="stop3983-5"
         style="stop-color:#ffffff;stop-opacity:0.15686275"
         offset="0.95056331" />
      <stop
         id="stop3985-6"
         style="stop-color:#ffffff;stop-opacity:0.39215687"
         offset="1" />
    </linearGradient>
    <radialGradient
       cx="7.8060555"
       cy="9.9571075"
       r="12.671875"
       fx="7.2758255"
       fy="9.9571075"
       id="radialGradient3030"
       xlink:href="#linearGradient2867-449-88-871-390-598-476-591-434-148-57-177-8-3-3"
       gradientUnits="userSpaceOnUse"
       gradientTransform="matrix(-2.1710338e-7,8.8513747,-10.866659,-2.6569444e-7,140.18608,-80.70502)" />
    <linearGradient
       id="linearGradient2867-449-88-871-390-598-476-591-434-148-57-177-8-3-3">
      <stop
         id="stop3750-1-0-7"
         style="stop-color:#ffcd7d;stop-opacity:1"
         offset="0" />
      <stop
         id="stop3752-3-7-4"
         style="stop-color:#fc8f36;stop-opacity:1"
         offset="0.26238" />
      <stop
         id="stop3754-1-8-5"
         style="stop-color:#e23a0e;stop-opacity:1"
         offset="0.704952" />
      <stop
         id="stop3756-1-6-2"
         style="stop-color:#ac441f;stop-opacity:1"
         offset="1" />
    </linearGradient>
    <radialGradient
       cx="605.71429"
       cy="486.64789"
       r="117.14286"
       fx="605.71429"
       fy="486.64789"
       id="radialGradient3035"
       xlink:href="#linearGradient5060"
       gradientUnits="userSpaceOnUse"
       gradientTransform="matrix(0.03132633,0,0,0.02058823,35.220859,49.45142)" />
    <linearGradient
       id="linearGradient5060">
      <stop
         id="stop5062"
         style="stop-color:#000000;stop-opacity:1"
         offset="0" />
      <stop
         id="stop5064"
         style="stop-color:#000000;stop-opacity:0"
         offset="1" />
    </linearGradient>
    <radialGradient
       cx="605.71429"
       cy="486.64789"
       r="117.14286"
       fx="605.71429"
       fy="486.64789"
       id="radialGradient3038"
       xlink:href="#linearGradient5060"
       gradientUnits="userSpaceOnUse"
       gradientTransform="matrix(-0.03132632,0,0,0.02058823,28.779136,49.45142)" />
    <linearGradient
       id="linearGradient5048">
      <stop
         id="stop5050"
         style="stop-color:#000000;stop-opacity:0"
         offset="0" />
      <stop
         id="stop5056"
         style="stop-color:#000000;stop-opacity:1"
         offset="0.5" />
      <stop
         id="stop5052"
         style="stop-color:#000000;stop-opacity:0"
         offset="1" />
    </linearGradient>
    <linearGradient
       x1="302.85715"
       y1="366.64789"
       x2="302.85715"
       y2="609.50507"
       id="linearGradient3852"
       xlink:href="#linearGradient5048"
       gradientUnits="userSpaceOnUse"
       gradientTransform="matrix(0.09153846,0,0,0.02058823,-1.084616,49.45142)" />
  </defs>
  <metadata
     id="metadata3859">
    <rdf:RDF>
      <cc:Work
         rdf:about="">
        <dc:format>image/svg+xml</dc:format>
        <dc:type
           rdf:resource="http://purl.org/dc/dcmitype/StillImage" />
        <dc:title />
      </cc:Work>
    </rdf:RDF>
  </metadata>
  <g
     id="layer1">
    <rect
       width="44.199997"
       height="5"
       x="9.8999996"
       y="57.000004"
       id="rect2879"
       style="opacity:0.3;fill:url(#linearGradient3852);fill-opacity:1;fill-rule:nonzero;stroke:none;stroke-width:1;marker:none;visibility:visible;display:inline;overflow:visible" />
    <path
       d="m 9.9,57.00022 c 0,0 0,4.9997 0,4.9997 -1.6132281,0.01 -3.9,-1.1202 -3.9,-2.5002 0,-1.38 1.8002408,-2.4995 3.9,-2.4995 z"
       inkscape:connector-curvature="0"
       id="path2881"
       style="opacity:0.3;fill:url(#radialGradient3038);fill-opacity:1;fill-rule:nonzero;stroke:none;stroke-width:1;marker:none;visibility:visible;display:inline;overflow:visible" />
    <path
       d="m 54.099999,57.00022 c 0,0 0,4.9997 0,4.9997 C 55.713227,62.00992 58,60.87972 58,59.49972 c 0,-1.38 -1.800241,-2.4995 -3.900001,-2.4995 z"
       inkscape:connector-curvature="0"
       id="path2883"
       style="opacity:0.3;fill:url(#radialGradient3035);fill-opacity:1;fill-rule:nonzero;stroke:none;stroke-width:1;marker:none;visibility:visible;display:inline;overflow:visible" />
    <path
       d="m 8.5000081,0.50371 c 10.7700849,0 46.9999419,0 46.9999419,0 l 5.7e-5,58.99631 c 0,0 -31.333332,0 -46.9999989,0 0,-19.6667 0,-39.3334 0,-59.00006 z"
       inkscape:connector-curvature="0"
       id="path4160"
       style="color:#000000;fill:url(#radialGradient3030);fill-opacity:1;fill-rule:nonzero;stroke:none;stroke-width:0.99999994;marker:none;visibility:visible;display:inline;overflow:visible;enable-background:accumulate" />
    <path
       d="m 54.499999,58.50002 -44.9999992,0 0,-57.00004 44.9999992,0 z"
       inkscape:connector-curvature="0"
       id="rect6741-1-8"
       style="opacity:0.5;fill:none;stroke:url(#linearGradient3027);stroke-width:1;stroke-linecap:round;stroke-linejoin:miter;stroke-miterlimit:4;stroke-opacity:1;stroke-dasharray:none;stroke-dashoffset:0" />
    <path
       d="m 8.5000081,0.50371 c 10.7700849,0 46.9999419,0 46.9999419,0 l 5.7e-5,58.99631 c 0,0 -31.333332,0 -46.9999989,0 0,-19.6667 0,-39.3334 0,-59.00006 z"
       inkscape:connector-curvature="0"
       id="path4160-1"
       style="opacity:0.35;color:#000000;fill:none;stroke:#770000;stroke-width:1;stroke-linecap:round;stroke-linejoin:round;stroke-miterlimit:4;stroke-opacity:1;stroke-dasharray:none;stroke-dashoffset:0;marker:none;visibility:visible;display:inline;overflow:visible;enable-background:accumulate" />
    <path
       d="m 43.53125,17 c -0.34137,2.9e-5 -0.688759,0.04698 -1,0.125 -0.301208,0.07806 -0.55033,0.205607 -0.78125,0.40625 -0.220887,0.189547 -0.400731,0.457975 -0.53125,0.78125 -0.130523,0.312176 -0.187503,0.708147 -0.1875,1.1875 -3e-6,0.46825 0.05698,0.864222 0.1875,1.1875 0.130519,0.323322 0.310363,0.580603 0.53125,0.78125 0.23092,0.189542 0.480042,0.31709 0.78125,0.40625 0.311241,0.07805 0.65863,0.125021 1,0.125 0.341361,2.9e-5 0.667539,-0.04694 0.96875,-0.125 0.301198,-0.08917 0.56036,-0.216708 0.78125,-0.40625 0.230917,-0.200647 0.400721,-0.457928 0.53125,-0.78125 0.140563,-0.323278 0.218743,-0.71925 0.21875,-1.1875 -7e-6,-0.479353 -0.0782,-0.875324 -0.21875,-1.1875 C 45.681971,17.989225 45.512167,17.720797 45.28125,17.53125 45.06036,17.330607 44.801198,17.20307 44.5,17.125 44.198789,17.04699 43.872611,17.000026 43.53125,17 z m -18.3125,2 -7.46875,23 4.9375,0 2,-6 7.21875,0 1.875,6 4.90625,0 -7.5,-23 -5.96875,0 z m 3,3.15625 c 0.05244,0.366627 0.155359,0.820043 0.28125,1.34375 0.125866,0.523745 0.269872,1.070042 0.40625,1.59375 0.146844,0.513268 0.28036,0.97681 0.40625,1.40625 0.125866,0.42947 0.21831,0.717724 0.28125,0.90625 L 31.0625,32 l -5.625,0 1.46875,-4.59375 c 0.03146,-0.115204 0.09331,-0.290322 0.15625,-0.53125 0.07342,-0.240898 0.13482,-0.49825 0.21875,-0.8125 0.08391,-0.31422 0.18683,-0.64385 0.28125,-1 0.0944,-0.356116 0.16607,-0.716824 0.25,-1.0625 0.0944,-0.356116 0.18706,-0.685747 0.25,-1 0.07341,-0.314217 0.11428,-0.613292 0.15625,-0.84375 z M 41,24 l 0,18 5,0 0,-18 -5,0 z"
       inkscape:connector-curvature="0"
       id="path3031"
       style="color:#000000;fill:#ffffff;fill-opacity:1;fill-rule:nonzero;stroke:none;stroke-width:1;marker:none;visibility:visible;display:inline;overflow:visible;enable-background:accumulate" />
  </g>
</svg>
