<?xml version="1.0" encoding="UTF-8" standalone="no"?>
<!-- Created with Inkscape (http://www.inkscape.org/) -->

<svg
   xmlns:dc="http://purl.org/dc/elements/1.1/"
   xmlns:cc="http://creativecommons.org/ns#"
   xmlns:rdf="http://www.w3.org/1999/02/22-rdf-syntax-ns#"
   xmlns:svg="http://www.w3.org/2000/svg"
   xmlns="http://www.w3.org/2000/svg"
   xmlns:xlink="http://www.w3.org/1999/xlink"
   version="1.1"
   width="64"
   height="64"
   id="svg4347">
  <defs
     id="defs4349">
    <linearGradient
       x1="23.99999"
       y1="5.8641062"
       x2="23.99999"
       y2="42.100208"
       id="linearGradient3132"
       xlink:href="#linearGradient3977-4"
       gradientUnits="userSpaceOnUse"
       gradientTransform="matrix(1.2162162,0,0,1.5405376,2.8108184,-6.97295)" />
    <linearGradient
       id="linearGradient3977-4">
      <stop
         id="stop3979-7"
         style="stop-color:#ffffff;stop-opacity:1"
         offset="0" />
      <stop
         id="stop3981-6"
         style="stop-color:#ffffff;stop-opacity:0.23529412"
         offset="0.00349237" />
      <stop
         id="stop3983-5"
         style="stop-color:#ffffff;stop-opacity:0.15686275"
         offset="0.99592412" />
      <stop
         id="stop3985-6"
         style="stop-color:#ffffff;stop-opacity:0.39215687"
         offset="1" />
    </linearGradient>
    <linearGradient
       x1="167.98311"
       y1="8.50811"
       x2="167.98311"
       y2="54.780239"
       id="linearGradient3983"
       xlink:href="#linearGradient5803-2-7"
       gradientUnits="userSpaceOnUse"
       gradientTransform="matrix(1.075707,0,0,1.075707,-56.405966,0.89419237)" />
    <linearGradient
       id="linearGradient5803-2-7">
      <stop
         id="stop5805-3-6"
         style="stop-color:#fffdf3;stop-opacity:1"
         offset="0" />
      <stop
         id="stop5807-0-0"
         style="stop-color:#fbebeb;stop-opacity:1"
         offset="1" />
    </linearGradient>
    <radialGradient
       cx="8.276144"
       cy="9.9941158"
       r="12.671875"
       fx="8.276144"
       fy="9.9941158"
       id="radialGradient3988-4"
       xlink:href="#linearGradient3242-4"
       gradientUnits="userSpaceOnUse"
       gradientTransform="matrix(0,10.087121,-12.383763,0,155.87414,-97.777008)" />
    <linearGradient
       id="linearGradient3242-4">
      <stop
         id="stop3244-7"
         style="stop-color:#f89b7e;stop-opacity:1"
         offset="0" />
      <stop
         id="stop3246-1"
         style="stop-color:#e35d4f;stop-opacity:1"
         offset="0.26238" />
      <stop
         id="stop3248-5"
         style="stop-color:#c6262e;stop-opacity:1"
         offset="0.66093999" />
      <stop
         id="stop3250-7"
         style="stop-color:#690b2c;stop-opacity:1"
         offset="1" />
    </linearGradient>
    <radialGradient
       cx="605.71429"
       cy="486.64789"
       r="117.14286"
       fx="605.71429"
       fy="486.64789"
       id="radialGradient3138"
       xlink:href="#linearGradient5060"
       gradientUnits="userSpaceOnUse"
       gradientTransform="matrix(0.03132633,0,0,0.02058823,35.220859,49.45142)" />
    <linearGradient
       id="linearGradient5060">
      <stop
         id="stop5062"
         style="stop-color:#000000;stop-opacity:1"
         offset="0" />
      <stop
         id="stop5064"
         style="stop-color:#000000;stop-opacity:0"
         offset="1" />
    </linearGradient>
    <radialGradient
       cx="605.71429"
       cy="486.64789"
       r="117.14286"
       fx="605.71429"
       fy="486.64789"
       id="radialGradient3141"
       xlink:href="#linearGradient5060"
       gradientUnits="userSpaceOnUse"
       gradientTransform="matrix(-0.03132632,0,0,0.02058823,28.779136,49.45142)" />
    <linearGradient
       id="linearGradient5048">
      <stop
         id="stop5050"
         style="stop-color:#000000;stop-opacity:0"
         offset="0" />
      <stop
         id="stop5056"
         style="stop-color:#000000;stop-opacity:1"
         offset="0.5" />
      <stop
         id="stop5052"
         style="stop-color:#000000;stop-opacity:0"
         offset="1" />
    </linearGradient>
    <linearGradient
       x1="302.85715"
       y1="366.64789"
       x2="302.85715"
       y2="609.50507"
       id="linearGradient4345"
       xlink:href="#linearGradient5048"
       gradientUnits="userSpaceOnUse"
       gradientTransform="matrix(0.09153846,0,0,0.02058823,-1.084616,49.45142)" />
  </defs>
  <metadata
     id="metadata4352">
    <rdf:RDF>
      <cc:Work
         rdf:about="">
        <dc:format>image/svg+xml</dc:format>
        <dc:type
           rdf:resource="http://purl.org/dc/dcmitype/StillImage" />
        <dc:title></dc:title>
      </cc:Work>
    </rdf:RDF>
  </metadata>
  <g
     id="layer1">
    <rect
       width="44.199997"
       height="5"
       x="9.8999996"
       y="57.000004"
       id="rect2879"
       style="opacity:0.3;fill:url(#linearGradient4345);fill-opacity:1;fill-rule:nonzero;stroke:none;stroke-width:1;marker:none;visibility:visible;display:inline;overflow:visible" />
    <path
       d="m 9.9,57.00022 c 0,0 0,4.9997 0,4.9997 -1.6132281,0.01 -3.9,-1.1202 -3.9,-2.5002 0,-1.38 1.8002408,-2.4995 3.9,-2.4995 z"
       id="path2881"
       style="opacity:0.3;fill:url(#radialGradient3141);fill-opacity:1;fill-rule:nonzero;stroke:none;stroke-width:1;marker:none;visibility:visible;display:inline;overflow:visible" />
    <path
       d="m 54.099999,57.00022 c 0,0 0,4.9997 0,4.9997 C 55.713227,62.00992 58,60.87972 58,59.49972 c 0,-1.38 -1.800241,-2.4995 -3.900001,-2.4995 z"
       id="path2883"
       style="opacity:0.3;fill:url(#radialGradient3138);fill-opacity:1;fill-rule:nonzero;stroke:none;stroke-width:1;marker:none;visibility:visible;display:inline;overflow:visible" />
    <path
       d="m 8.5,0.5000001 c 10.770086,0 46.999944,0.004069 46.999944,0.004069 L 55.5,59.5 c 0,0 -31.333333,0 -47,0 0,-19.666687 0,-39.333069 0,-58.99967438 z"
       id="path4160-6"
       style="color:#000000;fill:url(#radialGradient3988-4);fill-opacity:1;fill-rule:nonzero;stroke:none;stroke-width:0.99999994;marker:none;visibility:visible;display:inline;overflow:visible;enable-background:accumulate" />
    <path
       d="m 8.4999684,0.4999 c 10.7700936,0 47.0000286,0.004 47.0000286,0.004 l 4.9e-5,58.99622 c 0,0 -31.333384,0 -47.0000776,0 0,-19.6668 0,-39.3334 0,-58.99997 z"
       id="path4160-6-1"
       style="opacity:0.35;color:#000000;fill:none;stroke:#410000;stroke-width:1;stroke-linecap:round;stroke-linejoin:round;stroke-miterlimit:4;stroke-opacity:1;stroke-dasharray:none;stroke-dashoffset:0;marker:none;visibility:visible;display:inline;overflow:visible;enable-background:accumulate" />
    <path
       d="m 54.499999,58.50002 -44.9999992,0 0,-57.00004 44.9999992,0 z"
       id="rect6741-1-8"
       style="opacity:0.5;fill:none;stroke:url(#linearGradient3132);stroke-width:1;stroke-linecap:round;stroke-linejoin:miter;stroke-miterlimit:4;stroke-opacity:1;stroke-dasharray:none;stroke-dashoffset:0" />
    <path
       d="m 33.96875,17 a 0.99097761,0.99097761 0 0 0 -0.15625,0.03125 l -17,3 A 0.99097761,0.99097761 0 0 0 16,21 l 0,22 a 0.99097761,0.99097761 0 0 0 0.8125,0.96875 l 17,3 A 0.99097761,0.99097761 0 0 0 35,46 l 0,-4.125 0.6875,0.0625 a 0.99097761,0.99097761 0 0 0 0.03125,0 c 1.60993,0.113931 2.277116,0.08733 4.21875,-0.0625 1.684588,-0.129996 3.186306,-0.390577 4.40625,-0.71875 1.219944,-0.328173 2.175301,-0.669895 2.84375,-1.375 L 47.625,39.3125 a 0.99097761,0.99097761 0 0 0 0.28125,-0.65625 l 0.0625,-2.03125 a 0.99097761,0.99097761 0 0 0 0,-0.03125 L 48,34.5625 a 0.99097761,0.99097761 0 0 0 -0.09375,-0.3125 0.99097761,0.99097761 0 0 0 0,-0.03125 l 0,-0.03125 0.0625,-2.03125 a 0.99097761,0.99097761 0 0 0 0,-0.03125 L 48,30.0625 a 0.99097761,0.99097761 0 0 0 -0.125,-0.4375 0.99097761,0.99097761 0 0 0 0,-0.03125 0.99097761,0.99097761 0 0 0 0.03125,-0.0625 L 47.96875,27.5 a 0.99097761,0.99097761 0 0 0 0,-0.03125 L 48,25.4375 a 0.99097761,0.99097761 0 0 0 -0.21875,-0.625 C 47.819792,24.536147 47.848178,24.263479 47.75,24 47.480294,23.276202 46.901892,22.876229 46.25,22.53125 45.598108,22.186271 44.788721,21.910614 43.875,21.6875 42.047558,21.241273 39.75273,20.978895 37.28125,21 c -0.346111,0.0034 -0.683273,0.01922 -1,0.03125 L 35,21.0625 35,18 A 0.99097761,0.99097761 0 0 0 33.96875,17 z M 25.5,28.1875 l 0.21875,0 c 0.180472,0 0.175268,-0.0055 0.28125,0 0.02385,0.08706 0.05326,0.2274 0.09375,0.375 a 0.99097761,0.99097761 0 0 0 -0.6875,-0.09375 c -4.8e-5,1.3e-5 -0.02479,-0.0024 -0.03125,0 0.0077,-0.02717 0.05692,-0.199181 0.0625,-0.21875 a 0.99097761,0.99097761 0 0 0 0.03125,0 L 25.5,28.1875 z m -1.46875,5.25 c 0.125063,0.148836 0.242351,0.277057 0.375,0.34375 l -0.09375,0 A 0.99097761,0.99097761 0 0 0 23.90625,33.875 c 0.0417,-0.15186 0.0818,-0.279586 0.125,-0.4375 z m 3.40625,0.03125 c 0.05313,0.191281 0.105644,0.349396 0.15625,0.53125 a 0.99097761,0.99097761 0 0 0 -0.40625,-0.1875 0.99097761,0.99097761 0 0 0 0.25,-0.34375 z"
       id="path3097"
       style="opacity:0.15;color:#000000;fill:#661215;fill-opacity:1;fill-rule:evenodd;stroke:none;stroke-width:1;marker:none;visibility:visible;display:inline;overflow:visible;enable-background:accumulate" />
    <path
       d="m 34,18 -17,3 0,22 17,3 0,-28 z m 3.28125,4 c -0.319888,0.0031 -0.644885,0.01895 -0.96875,0.03125 L 35,22.0625 l 0,2.53125 0,2.53125 0.5,0.0625 c 0.996801,0.125138 3.34182,0.08761 4.90625,-0.0625 4.208562,-0.403711 6.861305,-1.560031 6.40625,-2.78125 C 46.301967,22.973657 42.079577,21.959025 37.28125,22 z M 47,25.4375 46.625,25.875 c -0.494047,0.59395 -1.857936,1.225961 -3.53125,1.59375 -1.033905,0.227245 -2.150895,0.313264 -4.71875,0.375 l -3.375,0.0625 0,1.96875 0,1.9375 3.28125,-0.09375 c 2.599344,-0.06154 3.613005,-0.150631 4.78125,-0.40625 1.685699,-0.368841 2.998984,-0.898683 3.5,-1.4375 L 46.90625,29.5 46.96875,27.46875 47,25.4375 z m -22.28125,1.75 1,0 c 0.83294,0 1.03116,0.03889 1.09375,0.25 0.0416,0.140363 0.62412,2.294792 1.3125,4.78125 0.68838,2.486458 1.27763,4.58724 1.3125,4.6875 0.0462,0.132786 -0.17378,0.195887 -0.78125,0.1875 -0.45868,-0.0063 -0.90546,-0.0552 -1,-0.09375 -0.0945,-0.03855 -0.26556,-0.559467 -0.40625,-1.15625 l -0.28125,-1.0625 -1.3125,0 -1.34375,0 -0.21875,0.96875 -0.1875,1 -0.9375,0.03125 -0.90625,0.03125 0.0625,-0.25 c 0.0439,-0.144366 0.55821,-1.977084 1.125,-4.0625 0.56679,-2.085417 1.1299,-4.110156 1.25,-4.53125 l 0.21875,-0.78125 z m 0.9375,2.25 c -0.0411,0.01143 -0.23301,0.644101 -0.4375,1.46875 -0.21811,0.879628 -0.42658,1.703385 -0.46875,1.84375 -0.0675,0.224624 0.04607,0.28125 0.875,0.28125 l 0.9375,0 -0.4375,-1.71875 c -0.23507,-0.942448 -0.44613,-1.797456 -0.46875,-1.875 z M 47,30.0625 46.5625,30.53125 C 45.421644,31.766701 41.739767,32.544616 37.21875,32.5 l -2.125,-0.03125 -0.0625,1.875 -0.03125,1.875 0.25,0.09375 c 0.546399,0.164935 5.759998,-0.04534 7.0625,-0.28125 1.818255,-0.329329 3.484358,-0.892028 4.09375,-1.40625 l 0.5,-0.4375 0.0625,-2.0625 L 47,30.0625 z m 0,4.5 -0.4375,0.53125 c -1.065221,1.227286 -4.339321,1.951088 -8.9375,1.96875 l -2.625,0 0,1.90625 0,1.90625 0.78125,0.0625 c 1.582615,0.111998 2.15864,0.08683 4.09375,-0.0625 3.274768,-0.252707 5.775253,-0.917868 6.59375,-1.78125 L 46.90625,38.625 46.96875,36.59375 47,34.5625 z"
       id="path4255-7"
       style="opacity:0.3;color:#000000;fill:#661215;fill-opacity:1;fill-rule:evenodd;stroke:none;stroke-width:1;marker:none;visibility:visible;display:inline;overflow:visible;enable-background:accumulate" />
    <path
       d="m 34,17 -17,3 0,22 17,3 0,-28 z m 3.28125,4 c -0.319888,0.0031 -0.644885,0.01895 -0.96875,0.03125 L 35,21.0625 l 0,2.53125 0,2.53125 0.5,0.0625 c 0.996801,0.125138 3.34182,0.08761 4.90625,-0.0625 4.208562,-0.403711 6.861305,-1.560031 6.40625,-2.78125 C 46.301967,21.973657 42.079577,20.959025 37.28125,21 z M 47,24.4375 46.625,24.875 c -0.494047,0.59395 -1.857936,1.225961 -3.53125,1.59375 -1.033905,0.227245 -2.150895,0.313264 -4.71875,0.375 l -3.375,0.0625 0,1.96875 0,1.9375 3.28125,-0.09375 c 2.599344,-0.06154 3.613005,-0.150631 4.78125,-0.40625 1.685699,-0.368841 2.998984,-0.898683 3.5,-1.4375 L 46.90625,28.5 46.96875,26.46875 47,24.4375 z m -22.28125,1.75 1,0 c 0.83294,0 1.03116,0.03889 1.09375,0.25 0.0416,0.140363 0.62412,2.294792 1.3125,4.78125 0.68838,2.486458 1.27763,4.58724 1.3125,4.6875 0.0462,0.132786 -0.17378,0.195887 -0.78125,0.1875 -0.45868,-0.0063 -0.90546,-0.0552 -1,-0.09375 -0.0945,-0.03855 -0.26556,-0.559467 -0.40625,-1.15625 l -0.28125,-1.0625 -1.3125,0 -1.34375,0 -0.21875,0.96875 -0.1875,1 -0.9375,0.03125 -0.90625,0.03125 0.0625,-0.25 c 0.0439,-0.144366 0.55821,-1.977084 1.125,-4.0625 0.56679,-2.085417 1.1299,-4.110156 1.25,-4.53125 l 0.21875,-0.78125 z m 0.9375,2.25 c -0.0411,0.01143 -0.23301,0.644101 -0.4375,1.46875 -0.21811,0.879628 -0.42658,1.703385 -0.46875,1.84375 -0.0675,0.224624 0.04607,0.28125 0.875,0.28125 l 0.9375,0 -0.4375,-1.71875 c -0.23507,-0.942448 -0.44613,-1.797456 -0.46875,-1.875 z M 47,29.0625 46.5625,29.53125 C 45.421644,30.766701 41.739767,31.544616 37.21875,31.5 l -2.125,-0.03125 -0.0625,1.875 -0.03125,1.875 0.25,0.09375 c 0.546399,0.164935 5.759998,-0.04534 7.0625,-0.28125 1.818255,-0.329329 3.484358,-0.892028 4.09375,-1.40625 l 0.5,-0.4375 0.0625,-2.0625 L 47,29.0625 z m 0,4.5 -0.4375,0.53125 c -1.065221,1.227286 -4.339321,1.951088 -8.9375,1.96875 l -2.625,0 0,1.90625 0,1.90625 0.78125,0.0625 c 1.582615,0.111998 2.15864,0.08683 4.09375,-0.0625 3.274768,-0.252707 5.775253,-0.917868 6.59375,-1.78125 L 46.90625,37.625 46.96875,35.59375 47,33.5625 z"
       id="path4255"
       style="color:#000000;fill:#ffffff;fill-opacity:1;fill-rule:nonzero;stroke:none;stroke-width:0.99999994;marker:none;visibility:visible;display:inline;overflow:visible;enable-background:accumulate" />
  </g>
</svg>
