<?xml version="1.0" encoding="UTF-8" standalone="no"?>
<!-- Created with Inkscape (http://www.inkscape.org/) -->

<svg
   xmlns:dc="http://purl.org/dc/elements/1.1/"
   xmlns:cc="http://creativecommons.org/ns#"
   xmlns:rdf="http://www.w3.org/1999/02/22-rdf-syntax-ns#"
   xmlns:svg="http://www.w3.org/2000/svg"
   xmlns="http://www.w3.org/2000/svg"
   xmlns:xlink="http://www.w3.org/1999/xlink"
   xmlns:sodipodi="http://sodipodi.sourceforge.net/DTD/sodipodi-0.dtd"
   xmlns:inkscape="http://www.inkscape.org/namespaces/inkscape"
   version="1.1"
   width="64"
   height="64"
   id="svg3854"
   inkscape:version="0.48.4 r9939"
   sodipodi:docname="application-vnd.ms-excel.svg">
  <sodipodi:namedview
     pagecolor="#ffffff"
     bordercolor="#666666"
     borderopacity="1"
     objecttolerance="10"
     gridtolerance="10"
     guidetolerance="10"
     inkscape:pageopacity="0"
     inkscape:pageshadow="2"
     inkscape:window-width="1440"
     inkscape:window-height="845"
     id="namedview35"
     showgrid="true"
     inkscape:zoom="17.501085"
     inkscape:cx="46.110236"
     inkscape:cy="31.445669"
     inkscape:window-x="0"
     inkscape:window-y="30"
     inkscape:window-maximized="1"
     inkscape:current-layer="svg3854"
     showborder="false">
    <inkscape:grid
       type="xygrid"
       id="grid4877"
       empspacing="5"
       visible="true"
       enabled="true"
       snapvisiblegridlinesonly="true" />
  </sodipodi:namedview>
  <defs
     id="defs3856">
    <linearGradient
       id="linearGradient3977-4">
      <stop
         id="stop3979-7"
         style="stop-color:#ffffff;stop-opacity:1"
         offset="0" />
      <stop
         id="stop3981-6"
         style="stop-color:#ffffff;stop-opacity:0.23529412"
         offset="0.03626217" />
      <stop
         id="stop3983-5"
         style="stop-color:#ffffff;stop-opacity:0.15686275"
         offset="0.95056331" />
      <stop
         id="stop3985-6"
         style="stop-color:#ffffff;stop-opacity:0.39215687"
         offset="1" />
    </linearGradient>
    <linearGradient
       id="linearGradient5060">
      <stop
         id="stop5062"
         style="stop-color:#000000;stop-opacity:1"
         offset="0" />
      <stop
         id="stop5064"
         style="stop-color:#000000;stop-opacity:0"
         offset="1" />
    </linearGradient>
    <linearGradient
       id="linearGradient5048">
      <stop
         id="stop5050"
         style="stop-color:#000000;stop-opacity:0"
         offset="0" />
      <stop
         id="stop5056"
         style="stop-color:#000000;stop-opacity:1"
         offset="0.5" />
      <stop
         id="stop5052"
         style="stop-color:#000000;stop-opacity:0"
         offset="1" />
    </linearGradient>
    <linearGradient
       id="linearGradient3242-7-3-8-0-4-58">
      <stop
         offset="0"
         style="stop-color:#bdff69;stop-opacity:1;"
         id="stop3244-5-8-5-6-4-3" />
      <stop
         offset="0.26238"
         style="stop-color:#8ed451;stop-opacity:1;"
         id="stop3246-9-5-1-5-3-0" />
      <stop
         offset="0.66093999"
         style="stop-color:#58aa30;stop-opacity:1;"
         id="stop3248-7-2-0-7-5-35" />
      <stop
         offset="1"
         style="stop-color:#2a6c1f;stop-opacity:1;"
         id="stop3250-8-2-8-5-6-40" />
    </linearGradient>
    <linearGradient
       inkscape:collect="always"
       xlink:href="#linearGradient3977-4"
       id="linearGradient4774"
       gradientUnits="userSpaceOnUse"
       gradientTransform="matrix(1.2162162,0,0,1.5405376,2.8108184,-6.97295)"
       x1="23.99999"
       y1="5.5641499"
       x2="23.99999"
       y2="43" />
    <radialGradient
       inkscape:collect="always"
       xlink:href="#linearGradient3242-7-3-8-0-4-58"
       id="radialGradient4777"
       gradientUnits="userSpaceOnUse"
       gradientTransform="matrix(-2.1710338e-7,8.8513747,-10.866659,-2.6569444e-7,140.18608,-80.70502)"
       cx="7.8060555"
       cy="9.9571075"
       fx="7.2758255"
       fy="9.9571075"
       r="12.671875" />
    <radialGradient
       inkscape:collect="always"
       xlink:href="#linearGradient5060"
       id="radialGradient4780"
       gradientUnits="userSpaceOnUse"
       gradientTransform="matrix(0.03132633,0,0,0.02058823,35.220859,49.45142)"
       cx="605.71429"
       cy="486.64789"
       fx="605.71429"
       fy="486.64789"
       r="117.14286" />
    <radialGradient
       inkscape:collect="always"
       xlink:href="#linearGradient5060"
       id="radialGradient4783"
       gradientUnits="userSpaceOnUse"
       gradientTransform="matrix(-0.03132632,0,0,0.02058823,28.779136,49.45142)"
       cx="605.71429"
       cy="486.64789"
       fx="605.71429"
       fy="486.64789"
       r="117.14286" />
    <linearGradient
       inkscape:collect="always"
       xlink:href="#linearGradient5048"
       id="linearGradient4786"
       gradientUnits="userSpaceOnUse"
       gradientTransform="matrix(0.09153846,0,0,0.02058823,-1.084616,49.45142)"
       x1="302.85715"
       y1="366.64789"
       x2="302.85715"
       y2="609.50507" />
    <linearGradient
       gradientTransform="matrix(0.09153846,0,0,0.02058823,-1.084616,49.45142)"
       gradientUnits="userSpaceOnUse"
       xlink:href="#linearGradient5048-8"
       id="linearGradient3852"
       y2="609.50507"
       x2="302.85715"
       y1="366.64789"
       x1="302.85715" />
    <linearGradient
       id="linearGradient5048-8">
      <stop
         offset="0"
         style="stop-color:#000000;stop-opacity:0"
         id="stop5050-2" />
      <stop
         offset="0.5"
         style="stop-color:#000000;stop-opacity:1"
         id="stop5056-8" />
      <stop
         offset="1"
         style="stop-color:#000000;stop-opacity:0"
         id="stop5052-7" />
    </linearGradient>
    <radialGradient
       gradientTransform="matrix(-0.03132632,0,0,0.02058823,28.779136,49.45142)"
       gradientUnits="userSpaceOnUse"
       xlink:href="#linearGradient5060-9"
       id="radialGradient3038"
       fy="486.64789"
       fx="605.71429"
       r="117.14286"
       cy="486.64789"
       cx="605.71429" />
    <linearGradient
       id="linearGradient5060-9">
      <stop
         offset="0"
         style="stop-color:#000000;stop-opacity:1"
         id="stop5062-4" />
      <stop
         offset="1"
         style="stop-color:#000000;stop-opacity:0"
         id="stop5064-7" />
    </linearGradient>
    <radialGradient
       gradientTransform="matrix(0.03132633,0,0,0.02058823,35.220859,49.45142)"
       gradientUnits="userSpaceOnUse"
       xlink:href="#linearGradient5060-9"
       id="radialGradient3035"
       fy="486.64789"
       fx="605.71429"
       r="117.14286"
       cy="486.64789"
       cx="605.71429" />
    <linearGradient
       id="linearGradient2867-449-88-871-390-598-476-591-434-148-57-177-8-3-3">
      <stop
         offset="0"
         style="stop-color:#ffcd7d;stop-opacity:1"
         id="stop3750-1-0-7" />
      <stop
         offset="0.26238"
         style="stop-color:#fc8f36;stop-opacity:1"
         id="stop3752-3-7-4" />
      <stop
         offset="0.704952"
         style="stop-color:#e23a0e;stop-opacity:1"
         id="stop3754-1-8-5" />
      <stop
         offset="1"
         style="stop-color:#ac441f;stop-opacity:1"
         id="stop3756-1-6-2" />
    </linearGradient>
    <radialGradient
       gradientTransform="matrix(-2.1710338e-7,8.8513747,-10.866659,-2.6569444e-7,140.18608,-80.70502)"
       gradientUnits="userSpaceOnUse"
       xlink:href="#linearGradient2867-449-88-871-390-598-476-591-434-148-57-177-8-3-3"
       id="radialGradient3030"
       fy="9.9571075"
       fx="7.2758255"
       r="12.671875"
       cy="9.9571075"
       cx="7.8060555" />
    <linearGradient
       id="linearGradient3977-4-8">
      <stop
         offset="0"
         style="stop-color:#ffffff;stop-opacity:1"
         id="stop3979-7-9" />
      <stop
         offset="0.03626217"
         style="stop-color:#ffffff;stop-opacity:0.23529412"
         id="stop3981-6-2" />
      <stop
         offset="0.95056331"
         style="stop-color:#ffffff;stop-opacity:0.15686275"
         id="stop3983-5-2" />
      <stop
         offset="1"
         style="stop-color:#ffffff;stop-opacity:0.39215687"
         id="stop3985-6-6" />
    </linearGradient>
    <linearGradient
       gradientTransform="matrix(1.2162162,0,0,1.5405376,2.8108184,-6.97295)"
       gradientUnits="userSpaceOnUse"
       xlink:href="#linearGradient3977-4-8"
       id="linearGradient3027"
       y2="43"
       x2="23.99999"
       y1="5.5641499"
       x1="23.99999" />
  </defs>
  <metadata
     id="metadata3859">
    <rdf:RDF>
      <cc:Work
         rdf:about="">
        <dc:format>image/svg+xml</dc:format>
        <dc:type
           rdf:resource="http://purl.org/dc/dcmitype/StillImage" />
        <dc:title />
      </cc:Work>
    </rdf:RDF>
  </metadata>
  <rect
     style="opacity:0.3;fill:url(#linearGradient4786);fill-opacity:1;fill-rule:nonzero;stroke:none;stroke-width:1;marker:none;visibility:visible;display:inline;overflow:visible"
     id="rect2879"
     y="57.000004"
     x="9.8999996"
     height="5"
     width="44.199997" />
  <path
     style="opacity:0.3;fill:url(#radialGradient4783);fill-opacity:1;fill-rule:nonzero;stroke:none;stroke-width:1;marker:none;visibility:visible;display:inline;overflow:visible"
     id="path2881"
     inkscape:connector-curvature="0"
     d="m 9.9,57.00022 c 0,0 0,4.9997 0,4.9997 -1.6132281,0.01 -3.9,-1.1202 -3.9,-2.5002 0,-1.38 1.8002408,-2.4995 3.9,-2.4995 z" />
  <path
     style="opacity:0.3;fill:url(#radialGradient4780);fill-opacity:1;fill-rule:nonzero;stroke:none;stroke-width:1;marker:none;visibility:visible;display:inline;overflow:visible"
     id="path2883"
     inkscape:connector-curvature="0"
     d="m 54.099999,57.00022 c 0,0 0,4.9997 0,4.9997 C 55.713227,62.00992 58,60.87972 58,59.49972 c 0,-1.38 -1.800241,-2.4995 -3.900001,-2.4995 z" />
  <path
     style="color:#000000;fill:url(#radialGradient4777);fill-opacity:1.0;fill-rule:nonzero;stroke:none;stroke-width:0.99999994000000003;marker:none;visibility:visible;display:inline;overflow:visible;enable-background:accumulate"
     id="path4160"
     inkscape:connector-curvature="0"
     d="m 8.5000081,0.50371 c 10.7700849,0 46.9999419,0 46.9999419,0 l 5.7e-5,58.99631 c 0,0 -31.333332,0 -46.9999989,0 0,-19.6667 0,-39.3334 0,-59.00006 z" />
  <path
     style="opacity:0.5;fill:none;stroke:url(#linearGradient4774);stroke-width:1;stroke-linecap:round;stroke-linejoin:miter;stroke-miterlimit:4;stroke-opacity:1;stroke-dasharray:none;stroke-dashoffset:0"
     id="rect6741-1-8"
     inkscape:connector-curvature="0"
     d="m 54.499999,58.50002 -44.9999992,0 0,-57.00004 44.9999992,0 z" />
  <path
     style="opacity:0.40000000000000002;color:#000000;fill:none;stroke:#126400;stroke-width:1;stroke-linecap:round;stroke-linejoin:round;stroke-miterlimit:4;stroke-opacity:1;stroke-dasharray:none;stroke-dashoffset:0;marker:none;visibility:visible;display:inline;overflow:visible;enable-background:accumulate"
     id="path4160-1"
     inkscape:connector-curvature="0"
     d="m 8.5000081,0.50371 c 10.7700849,0 46.9999419,0 46.9999419,0 l 5.7e-5,58.99631 c 0,0 -31.333332,0 -46.9999989,0 0,-19.6667 0,-39.3334 0,-59.00006 z" />
  <path
     sodipodi:type="inkscape:offset"
     inkscape:radius="0.97811615"
     inkscape:original="M 34 18 L 17 21 L 17 43 L 34 46 L 34 18 z M 35 21 L 35 22 L 39 22 L 39 25 L 35 25 L 35 26 L 39 26 L 39 29 L 35 29 L 35 30 L 39 30 L 39 33 L 35 33 L 35 34 L 39 34 L 39 37 L 35 37 L 35 38 L 39 38 L 39 41 L 35 41 L 35 43 L 47 43 L 47 21 L 35 21 z M 40 22 L 45 22 L 45 25 L 40 25 L 40 22 z M 40 26 L 45 26 L 45 29 L 40 29 L 40 26 z M 28.65625 26.71875 C 28.83787 26.71515 28.93759 26.71115 28.9375 26.71875 C 28.93736 26.73393 28.42606 27.896309 27.78125 29.28125 L 26.59375 31.78125 L 27.78125 34.28125 C 28.42606 35.64762 28.9375 36.81781 28.9375 36.875 C 28.9375 36.99509 28.07588 36.97505 27.34375 36.84375 C 26.85913 36.75685 26.83491 36.70245 26.21875 35.15625 C 25.86762 34.275105 25.52788 33.499132 25.46875 33.4375 C 25.40965 33.37587 25.06664 34.043573 24.71875 34.90625 C 24.37086 35.76892 24.04707 36.510649 24 36.5625 C 23.9529 36.6144 23.52516 36.6144 23.03125 36.5625 L 22.125 36.46875 L 23.21875 34.15625 L 24.3125 31.84375 L 23.34375 29.625 C 22.81334 28.400871 22.375 27.305577 22.375 27.21875 C 22.375 27.12183 22.74123 27.0625 23.3125 27.0625 L 24.25 27.0625 L 24.78125 28.5625 C 25.07983 29.383566 25.38231 30.095736 25.4375 30.15625 C 25.4927 30.21676 25.86435 29.486737 26.25 28.53125 L 26.9375 26.8125 L 27.9375 26.75 C 28.21316 26.73689 28.47462 26.72239 28.65625 26.71875 z M 40 30 L 45 30 L 45 33 L 40 33 L 40 30 z M 40 34 L 45 34 L 45 37 L 40 37 L 40 34 z M 40 38 L 45 38 L 45 41 L 40 41 L 40 38 z "
     style="opacity:0.05;color:#000000;fill:#126400;fill-opacity:1;fill-rule:nonzero;stroke:none;stroke-width:1;marker:none;visibility:visible;display:inline;overflow:visible;enable-background:accumulate"
     id="path5028"
     d="m 33.84375,17.03125 -17,3 A 0.97821397,0.97821397 0 0 0 16.03125,21 l 0,22 a 0.97821397,0.97821397 0 0 0 0.8125,0.96875 l 17,3 A 0.97821397,0.97821397 0 0 0 34.96875,46 l 0,-2.03125 a 0.97821397,0.97821397 0 0 0 0.03125,0 l 12,0 A 0.97821397,0.97821397 0 0 0 47.96875,43 l 0,-22 A 0.97821397,0.97821397 0 0 0 47,20.03125 l -12,0 a 0.97821397,0.97821397 0 0 0 -0.03125,0 l 0,-2.03125 a 0.97821397,0.97821397 0 0 0 -1.125,-0.96875 z m 1.125,5.9375 a 0.97821397,0.97821397 0 0 0 0.03125,0 l 3.03125,0 0,1.0625 -3.03125,0 a 0.97821397,0.97821397 0 0 0 -0.03125,0 l 0,-1.0625 z m 6,0 3.0625,0 0,1.0625 -3.0625,0 0,-1.0625 z m -6,4 a 0.97821397,0.97821397 0 0 0 0.03125,0 l 3.03125,0 0,1.0625 -3.03125,0 a 0.97821397,0.97821397 0 0 0 -0.03125,0 l 0,-1.0625 z m 6,0 3.0625,0 0,1.0625 -3.0625,0 0,-1.0625 z m -16,3.90625 c 0.290922,0.143177 0.664741,0.256558 0.84375,0.1875 0.06424,-0.02478 0.05154,-0.03883 0.09375,-0.0625 l -0.1875,0.375 a 0.97821397,0.97821397 0 0 0 0,0.8125 l 0.25,0.5 C 25.708994,32.549082 25.377435,32.444239 25.1875,32.5 c -0.09614,0.02822 -0.100651,0.06258 -0.15625,0.09375 L 25.1875,32.25 a 0.97821397,0.97821397 0 0 0 0.03125,-0.8125 l -0.25,-0.5625 z m 10,0.09375 a 0.97821397,0.97821397 0 0 0 0.03125,0 l 3.03125,0 0,1.0625 -3.03125,0 a 0.97821397,0.97821397 0 0 0 -0.03125,0 l 0,-1.0625 z m 6,0 3.0625,0 0,1.0625 -3.0625,0 0,-1.0625 z m -6,4 a 0.97821397,0.97821397 0 0 0 0.03125,0 l 3.03125,0 0,1.0625 -3.03125,0 a 0.97821397,0.97821397 0 0 0 -0.03125,0 l 0,-1.0625 z m 6,0 3.0625,0 0,1.0625 -3.0625,0 0,-1.0625 z m -6,4 a 0.97821397,0.97821397 0 0 0 0.03125,0 l 3.03125,0 0,1.0625 -3.03125,0 a 0.97821397,0.97821397 0 0 0 -0.03125,0 l 0,-1.0625 z m 6,0 3.0625,0 0,1.0625 -3.0625,0 0,-1.0625 z" />
  <path
     inkscape:connector-curvature="0"
     style="color:#000000;fill:#126400;fill-opacity:1;fill-rule:nonzero;stroke:none;stroke-width:1;marker:none;visibility:visible;display:inline;overflow:visible;enable-background:accumulate;opacity:0.14999999999999999"
     d="m 34,18 -17,3 0,22 17,3 0,-28 z m 1,3 0,1 4,0 0,3 -4,0 0,1 4,0 0,3 -4,0 0,1 4,0 0,3 -4,0 0,1 4,0 0,3 -4,0 0,1 4,0 0,3 -4,0 0,2 12,0 0,-22 -12,0 z m 5,1 5,0 0,3 -5,0 0,-3 z m 0,4 5,0 0,3 -5,0 0,-3 z m -11.34375,0.71875 c 0.18162,-0.0036 0.28134,-0.0076 0.28125,0 -1.4e-4,0.01518 -0.51144,1.177559 -1.15625,2.5625 l -1.1875,2.5 1.1875,2.5 c 0.64481,1.36637 1.15625,2.53656 1.15625,2.59375 0,0.12009 -0.86162,0.10005 -1.59375,-0.03125 -0.48462,-0.0869 -0.50884,-0.1413 -1.125,-1.6875 -0.35113,-0.881145 -0.69087,-1.657118 -0.75,-1.71875 -0.0591,-0.06163 -0.40211,0.606073 -0.75,1.46875 -0.34789,0.86267 -0.67168,1.604399 -0.71875,1.65625 -0.0471,0.0519 -0.47484,0.0519 -0.96875,0 L 22.125,36.46875 23.21875,34.15625 24.3125,31.84375 23.34375,29.625 C 22.81334,28.400871 22.375,27.305577 22.375,27.21875 c 0,-0.09692 0.36623,-0.15625 0.9375,-0.15625 l 0.9375,0 0.53125,1.5 c 0.29858,0.821066 0.60106,1.533236 0.65625,1.59375 0.0552,0.06051 0.42685,-0.669513 0.8125,-1.625 l 0.6875,-1.71875 1,-0.0625 c 0.27566,-0.01311 0.53712,-0.02761 0.71875,-0.03125 z M 40,30 l 5,0 0,3 -5,0 0,-3 z m 0,4 5,0 0,3 -5,0 0,-3 z m 0,4 5,0 0,3 -5,0 0,-3 z"
     id="path4881-6" />
  <path
     style="color:#000000;fill:#ffffff;fill-opacity:1;fill-rule:nonzero;stroke:none;stroke-width:0.99999994;marker:none;visibility:visible;display:inline;overflow:visible;enable-background:accumulate"
     d="m 34,17 -17,3 0,22 17,3 z m 1,2 0,2 4,0 0,3 -4,0 0,1 4,0 0,3 -4,0 0,1 4,0 0,3 -4,0 0,1 4,0 0,3 -4,0 0,1 4,0 0,3 -4,0 0,2 12,0 0,-23 z m 5,2 5,0 0,3 -5,0 z m 0,4 5,0 0,3 -5,0 z m -11.34375,0.71875 c 0.18162,-0.0036 0.28134,-0.0076 0.28125,0 -1.4e-4,0.01518 -0.51144,1.177559 -1.15625,2.5625 l -1.1875,2.5 1.1875,2.5 c 0.64481,1.36637 1.15625,2.53656 1.15625,2.59375 0,0.12009 -0.86162,0.10005 -1.59375,-0.03125 -0.48462,-0.0869 -0.50884,-0.1413 -1.125,-1.6875 -0.35113,-0.881145 -0.69087,-1.657118 -0.75,-1.71875 -0.0591,-0.06163 -0.40211,0.606073 -0.75,1.46875 -0.34789,0.86267 -0.67168,1.604399 -0.71875,1.65625 -0.0471,0.0519 -0.47484,0.0519 -0.96875,0 L 22.125,35.46875 23.21875,33.15625 24.3125,30.84375 23.34375,28.625 C 22.81334,27.400871 22.375,26.305577 22.375,26.21875 c 0,-0.09692 0.36623,-0.15625 0.9375,-0.15625 l 0.9375,0 0.53125,1.5 c 0.29858,0.821066 0.60106,1.533236 0.65625,1.59375 0.0552,0.06051 0.42685,-0.669513 0.8125,-1.625 l 0.6875,-1.71875 1,-0.0625 c 0.27566,-0.01311 0.53712,-0.02761 0.71875,-0.03125 z M 40,29 l 5,0 0,3 -5,0 z m 0,4 5,0 0,3 -5,0 z m 0,4 5,0 0,3 -5,0 z"
     id="path4881"
     inkscape:connector-curvature="0"
     sodipodi:nodetypes="cccccccccccccccccccccccccccccccccccccccccccccscscsccccccsscccccccccccccccccccccc" />
</svg>
