<?xml version="1.0" encoding="UTF-8" standalone="no"?>
<!-- Created with Inkscape (http://www.inkscape.org/) -->

<svg
   xmlns:dc="http://purl.org/dc/elements/1.1/"
   xmlns:cc="http://creativecommons.org/ns#"
   xmlns:rdf="http://www.w3.org/1999/02/22-rdf-syntax-ns#"
   xmlns:svg="http://www.w3.org/2000/svg"
   xmlns="http://www.w3.org/2000/svg"
   xmlns:xlink="http://www.w3.org/1999/xlink"
   xmlns:sodipodi="http://sodipodi.sourceforge.net/DTD/sodipodi-0.dtd"
   xmlns:inkscape="http://www.inkscape.org/namespaces/inkscape"
   version="1.1"
   width="64"
   height="64"
   id="svg3916"
   inkscape:version="0.48.4 r9939"
   sodipodi:docname="image-x-xcf.svg">
  <sodipodi:namedview
     pagecolor="#ffffff"
     bordercolor="#666666"
     borderopacity="1"
     objecttolerance="10"
     gridtolerance="10"
     guidetolerance="10"
     inkscape:pageopacity="0"
     inkscape:pageshadow="2"
     inkscape:window-width="1440"
     inkscape:window-height="845"
     id="namedview37"
     showgrid="false"
     inkscape:zoom="9.921875"
     inkscape:cx="32"
     inkscape:cy="32"
     inkscape:window-x="0"
     inkscape:window-y="30"
     inkscape:window-maximized="1"
     inkscape:current-layer="svg3916" />
  <defs
     id="defs3918">
    <linearGradient
       id="linearGradient3026">
      <stop
         offset="0"
         style="stop-color:#ffffff;stop-opacity:1"
         id="stop3028" />
      <stop
         offset="0.0030506"
         style="stop-color:#ffffff;stop-opacity:0.23529412"
         id="stop3030" />
      <stop
         offset="0.98781353"
         style="stop-color:#ffffff;stop-opacity:0.15686275"
         id="stop3032" />
      <stop
         offset="1"
         style="stop-color:#ffffff;stop-opacity:0.39215687"
         id="stop3034" />
    </linearGradient>
    <linearGradient
       x1="23.99999"
       y1="5.8641062"
       x2="23.99999"
       y2="42.100208"
       id="linearGradient3102"
       xlink:href="#linearGradient3977-4"
       gradientUnits="userSpaceOnUse"
       gradientTransform="matrix(1.2162162,0,0,1.5405376,2.8108184,-6.9729501)" />
    <linearGradient
       id="linearGradient3977-4">
      <stop
         id="stop3979-7"
         style="stop-color:#ffffff;stop-opacity:1"
         offset="0" />
      <stop
         id="stop3981-6"
         style="stop-color:#ffffff;stop-opacity:0.23529412"
         offset="0.01214366" />
      <stop
         id="stop3983-5"
         style="stop-color:#ffffff;stop-opacity:0.15686275"
         offset="0.98781353" />
      <stop
         id="stop3985-6"
         style="stop-color:#ffffff;stop-opacity:0.39215687"
         offset="1" />
    </linearGradient>
    <radialGradient
       cx="7.8060555"
       cy="9.9571075"
       r="12.671875"
       fx="7.2758255"
       fy="9.9571075"
       id="radialGradient3124"
       xlink:href="#linearGradient2867-449-88-871-390-598-476-591-434-148-57-177-8-3"
       gradientUnits="userSpaceOnUse"
       gradientTransform="matrix(-2.1710338e-7,8.8513721,-10.866659,-2.6569437e-7,140.18608,-80.708701)" />
    <linearGradient
       id="linearGradient2867-449-88-871-390-598-476-591-434-148-57-177-8-3">
      <stop
         id="stop3750-1-0"
         style="stop-color:#90dbec;stop-opacity:1"
         offset="0" />
      <stop
         id="stop3752-3-7"
         style="stop-color:#55c1ec;stop-opacity:1"
         offset="0.26238" />
      <stop
         id="stop3754-1-8"
         style="stop-color:#3689e6;stop-opacity:1"
         offset="0.704952" />
      <stop
         id="stop3756-1-6"
         style="stop-color:#2b63a0;stop-opacity:1"
         offset="1" />
    </linearGradient>
    <radialGradient
       cx="605.71429"
       cy="486.64789"
       r="117.14286"
       fx="605.71429"
       fy="486.64789"
       id="radialGradient3108"
       xlink:href="#linearGradient5060"
       gradientUnits="userSpaceOnUse"
       gradientTransform="matrix(0.03132633,0,0,0.02058823,35.220859,49.45142)" />
    <linearGradient
       id="linearGradient5060">
      <stop
         id="stop5062"
         style="stop-color:#000000;stop-opacity:1"
         offset="0" />
      <stop
         id="stop5064"
         style="stop-color:#000000;stop-opacity:0"
         offset="1" />
    </linearGradient>
    <radialGradient
       cx="605.71429"
       cy="486.64789"
       r="117.14286"
       fx="605.71429"
       fy="486.64789"
       id="radialGradient3111"
       xlink:href="#linearGradient5060"
       gradientUnits="userSpaceOnUse"
       gradientTransform="matrix(-0.03132632,0,0,0.02058823,28.779136,49.45142)" />
    <linearGradient
       id="linearGradient5048">
      <stop
         id="stop5050"
         style="stop-color:#000000;stop-opacity:0"
         offset="0" />
      <stop
         id="stop5056"
         style="stop-color:#000000;stop-opacity:1"
         offset="0.5" />
      <stop
         id="stop5052"
         style="stop-color:#000000;stop-opacity:0"
         offset="1" />
    </linearGradient>
    <linearGradient
       x1="302.85715"
       y1="366.64789"
       x2="302.85715"
       y2="609.50507"
       id="linearGradient3914"
       xlink:href="#linearGradient5048"
       gradientUnits="userSpaceOnUse"
       gradientTransform="matrix(0.09153846,0,0,0.02058823,-1.084616,49.45142)" />
    <linearGradient
       inkscape:collect="always"
       xlink:href="#linearGradient3026"
       id="linearGradient3019"
       gradientUnits="userSpaceOnUse"
       gradientTransform="matrix(1.2162162,0,0,1.5405376,2.8108184,-6.9729501)"
       x1="23.99999"
       y1="5.7986827"
       x2="23.99999"
       y2="42.231113" />
    <radialGradient
       inkscape:collect="always"
       xlink:href="#linearGradient2867-449-88-871-390-598-476-591-434-148-57-177-8-3"
       id="radialGradient3022"
       gradientUnits="userSpaceOnUse"
       gradientTransform="matrix(-2.1710338e-7,8.8513721,-10.866659,-2.6569437e-7,140.18608,-80.708701)"
       cx="7.8060555"
       cy="9.9571075"
       fx="7.2758255"
       fy="9.9571075"
       r="12.671875" />
    <radialGradient
       inkscape:collect="always"
       xlink:href="#linearGradient5060"
       id="radialGradient3025"
       gradientUnits="userSpaceOnUse"
       gradientTransform="matrix(0.03132633,0,0,0.02058823,35.220859,49.45142)"
       cx="605.71429"
       cy="486.64789"
       fx="605.71429"
       fy="486.64789"
       r="117.14286" />
    <radialGradient
       inkscape:collect="always"
       xlink:href="#linearGradient5060"
       id="radialGradient3028"
       gradientUnits="userSpaceOnUse"
       gradientTransform="matrix(-0.03132632,0,0,0.02058823,28.779136,49.45142)"
       cx="605.71429"
       cy="486.64789"
       fx="605.71429"
       fy="486.64789"
       r="117.14286" />
    <linearGradient
       inkscape:collect="always"
       xlink:href="#linearGradient5048"
       id="linearGradient3031"
       gradientUnits="userSpaceOnUse"
       gradientTransform="matrix(0.09153846,0,0,0.02058823,-1.084616,49.45142)"
       x1="302.85715"
       y1="366.64789"
       x2="302.85715"
       y2="609.50507" />
  </defs>
  <metadata
     id="metadata3921">
    <rdf:RDF>
      <cc:Work
         rdf:about="">
        <dc:format>image/svg+xml</dc:format>
        <dc:type
           rdf:resource="http://purl.org/dc/dcmitype/StillImage" />
        <dc:title />
      </cc:Work>
    </rdf:RDF>
  </metadata>
  <rect
     style="opacity:0.3;fill:url(#linearGradient3031);fill-opacity:1;fill-rule:nonzero;stroke:none;stroke-width:1;marker:none;visibility:visible;display:inline;overflow:visible"
     id="rect2879"
     y="57.000004"
     x="9.8999996"
     height="5"
     width="44.199997" />
  <path
     style="opacity:0.3;fill:url(#radialGradient3028);fill-opacity:1;fill-rule:nonzero;stroke:none;stroke-width:1;marker:none;visibility:visible;display:inline;overflow:visible"
     id="path2881"
     inkscape:connector-curvature="0"
     d="m 9.9,57.00022 c 0,0 0,4.9997 0,4.9997 -1.6132281,0.01 -3.9,-1.1202 -3.9,-2.5002 0,-1.38 1.8002408,-2.4995 3.9,-2.4995 z" />
  <path
     style="opacity:0.3;fill:url(#radialGradient3025);fill-opacity:1;fill-rule:nonzero;stroke:none;stroke-width:1;marker:none;visibility:visible;display:inline;overflow:visible"
     id="path2883"
     inkscape:connector-curvature="0"
     d="m 54.099999,57.00022 c 0,0 0,4.9997 0,4.9997 C 55.713227,62.00992 58,60.87972 58,59.49972 c 0,-1.38 -1.800241,-2.4995 -3.900001,-2.4995 z" />
  <path
     style="color:#000000;fill:url(#radialGradient3022);fill-opacity:1;fill-rule:nonzero;stroke:none;stroke-width:1;marker:none;visibility:visible;display:inline;overflow:visible;enable-background:accumulate"
     id="path4160"
     inkscape:connector-curvature="0"
     d="m 8.5,0.5 c 10.770086,0 46.999939,0.003763 46.999939,0.003763 L 55.5,59.5 c 0,0 -31.333333,0 -47,0 0,-19.666667 0,-39.333327 0,-58.99999344 z" />
  <path
     style="opacity:0.50000000000000000;fill:none;stroke:url(#linearGradient3019);stroke-width:1;stroke-linecap:round;stroke-linejoin:miter;stroke-miterlimit:4;stroke-opacity:1;stroke-dasharray:none;stroke-dashoffset:0"
     id="rect6741-1-8"
     inkscape:connector-curvature="0"
     d="m 54.499999,58.50002 -44.9999992,0 0,-57.0000401 44.9999992,0 z" />
  <path
     style="opacity:0.3;fill:none;stroke:#000000;stroke-width:0.9999218;stroke-linecap:butt;stroke-linejoin:round;stroke-miterlimit:4;stroke-opacity:1;stroke-dasharray:none;stroke-dashoffset:0;display:inline"
     id="path4160-6-1"
     inkscape:connector-curvature="0"
     d="m 8.4999684,0.4998999 c 10.7700936,0 47.0000286,0.004 47.0000286,0.004 l 4.9e-5,58.9962201 c 0,0 -31.333384,0 -47.0000776,0 0,-19.6668 0,-39.3334 0,-58.9999701 z" />
  <path
     style="opacity:0.3;color:#000000;fill:#10283f;fill-opacity:0.63137255;fill-rule:nonzero;stroke:none;stroke-width:0.68663466;marker:none;visibility:visible;display:inline;overflow:visible;enable-background:accumulate"
     id="path4323-3"
     inkscape:connector-curvature="0"
     d="m 44.060965,20.436464 c -0.120306,0.05903 -0.227087,0.250533 -0.331012,0.561794 -0.277131,0.830029 -2.22716,6.56399 -13.273553,6.840666 -5.271169,0.130865 -7.513956,-4.49435 -7.513956,-4.49435 l -0.132404,5.948405 c 0,0 0.566589,1.325615 -0.562719,2.709828 -0.06139,-0.09577 -0.09809,-0.20414 -0.165506,-0.297419 -0.406459,-0.562345 -0.88294,-1.035531 -1.390247,-1.387962 -0.582898,-0.404944 -1.189208,-0.672307 -1.787461,-0.760073 -0.689724,-0.101186 -1.356844,0.04793 -1.886765,0.429606 -0.530082,0.381789 -0.838668,0.966707 -0.959932,1.652335 -0.105126,0.594379 -0.06865,1.236916 0.132404,1.916708 0.175003,0.591704 0.454352,1.189111 0.860629,1.751476 0.429205,0.594097 0.963919,1.120186 1.522652,1.487101 0.630136,0.413803 1.298183,0.656211 1.952967,0.693981 0.202622,0.01169 0.409644,-0.03793 0.59582,-0.06609 4.241002,3.356578 12.658956,6.488956 18.238722,2.90811 0.120697,0.04101 0.242788,0.09033 0.364113,0.132187 0.003,0.05733 -0.01507,0.114157 0,0.165233 l 0.264809,-0.09914 c 0.04712,0.01495 0.08428,0.05199 0.132404,0.06609 0.01031,0.0031 0.02273,-0.003 0.0331,0 l 0.0993,0.09914 2.515686,0.892261 c -0.103205,0.872083 0.32884,1.862124 1.423349,2.280222 C 46.164463,44.619522 48,45.585 48,45.585 c -0.940234,-3.186364 -1.283288,-5.743927 -3.740427,-5.518798 -0.457174,0.04189 -0.802616,0.229042 -1.059236,0.4957 l -2.217776,-1.421007 -0.0993,0 -0.0331,-0.03305 c 2.986528,-2.934345 4.73294,-8.449431 3.674226,-18.043496 -0.06127,-0.479447 -0.262907,-0.726274 -0.463415,-0.627887 z" />
  <path
     style="color:#000000;fill:#ffffff;fill-opacity:1;fill-rule:nonzero;stroke:none;stroke-width:0.68663466;marker:none;visibility:visible;display:inline;overflow:visible;enable-background:accumulate"
     id="path4323"
     inkscape:connector-curvature="0"
     d="m 44.060965,19.436416 c -0.120306,0.05903 -0.227087,0.250533 -0.331012,0.561794 -0.277131,0.830029 -2.22716,6.56399 -13.273553,6.840666 -5.271169,0.130865 -7.513956,-4.49435 -7.513956,-4.49435 l -0.132404,5.948405 c 0,0 0.566589,1.325615 -0.562719,2.709828 -0.06139,-0.09577 -0.09809,-0.20414 -0.165506,-0.297419 -0.406459,-0.562345 -0.88294,-1.035531 -1.390247,-1.387962 -0.582898,-0.404944 -1.189208,-0.672307 -1.787461,-0.760073 -0.689724,-0.101186 -1.356844,0.04793 -1.886765,0.429606 -0.530082,0.381789 -0.838668,0.966707 -0.959932,1.652335 -0.105126,0.594379 -0.06865,1.236916 0.132404,1.916708 0.175003,0.591704 0.454352,1.189111 0.860629,1.751476 0.429205,0.594097 0.963919,1.120186 1.522652,1.487101 0.630136,0.413803 1.298183,0.656211 1.952967,0.693981 0.202622,0.01169 0.409644,-0.03793 0.59582,-0.06609 4.241002,3.356578 12.658956,6.488956 18.238722,2.90811 0.120697,0.04101 0.242788,0.09033 0.364113,0.132187 0.003,0.05733 -0.01507,0.114157 0,0.165233 l 0.264809,-0.09914 c 0.04712,0.01495 0.08428,0.05199 0.132404,0.06609 0.01031,0.0031 0.02273,-0.003 0.0331,0 l 0.0993,0.09914 2.515686,0.892261 c -0.103205,0.872083 0.32884,1.862124 1.423349,2.280222 C 46.164463,43.619474 48,44.584952 48,44.584952 c -0.940234,-3.186364 -1.283288,-5.743927 -3.740427,-5.518798 -0.457174,0.04189 -0.802616,0.229042 -1.059236,0.4957 l -2.217776,-1.421007 -0.0993,0 -0.0331,-0.03305 c 2.986528,-2.934345 4.73294,-8.449431 3.674226,-18.043496 -0.06127,-0.479447 -0.262907,-0.726274 -0.463415,-0.627887 z" />
</svg>
