<?xml version="1.0" encoding="UTF-8" standalone="no"?>
<!-- Created with Inkscape (http://www.inkscape.org/) -->

<svg
   xmlns:dc="http://purl.org/dc/elements/1.1/"
   xmlns:cc="http://creativecommons.org/ns#"
   xmlns:rdf="http://www.w3.org/1999/02/22-rdf-syntax-ns#"
   xmlns:svg="http://www.w3.org/2000/svg"
   xmlns="http://www.w3.org/2000/svg"
   xmlns:xlink="http://www.w3.org/1999/xlink"
   version="1.0"
   width="64"
   height="64"
   id="svg2453">
  <metadata
     id="metadata35">
    <rdf:RDF>
      <cc:Work
         rdf:about="">
        <dc:format>image/svg+xml</dc:format>
        <dc:type
           rdf:resource="http://purl.org/dc/dcmitype/StillImage" />
        <dc:title></dc:title>
      </cc:Work>
    </rdf:RDF>
  </metadata>
  <defs
     id="defs2455">
    <linearGradient
       x1="16.626165"
       y1="15.298182"
       x2="20.054544"
       y2="24.627615"
       id="linearGradient3371"
       xlink:href="#linearGradient8265-821-176-38-919-66-249-7-7-1"
       gradientUnits="userSpaceOnUse"
       gradientTransform="matrix(1.1723453,0,0,1.3554515,248.80878,73.257374)" />
    <linearGradient
       id="linearGradient8265-821-176-38-919-66-249-7-7-1">
      <stop
         id="stop2687-1-9-6"
         style="stop-color:#ffffff;stop-opacity:1"
         offset="0" />
      <stop
         id="stop2689-5-4-4"
         style="stop-color:#ffffff;stop-opacity:0"
         offset="1" />
    </linearGradient>
    <linearGradient
       x1="149.98465"
       y1="-104.23534"
       x2="149.98465"
       y2="-174.9679"
       id="linearGradient5104-88-8"
       xlink:href="#linearGradient3707-319-631-407-324-616-674-812-821-107-178-392-400-7-3-5-8"
       gradientUnits="userSpaceOnUse"
       gradientTransform="matrix(0.56177019,0,0,0.56551129,-44.256849,102.94624)" />
    <linearGradient
       id="linearGradient3707-319-631-407-324-616-674-812-821-107-178-392-400-7-3-5-8">
      <stop
         id="stop5440-9-8-4-9"
         style="stop-color:#272727;stop-opacity:1"
         offset="0" />
      <stop
         id="stop5442-0-9-2-7"
         style="stop-color:#454545;stop-opacity:1"
         offset="1" />
    </linearGradient>
    <linearGradient
       id="linearGradient3104-6">
      <stop
         id="stop3106-3"
         style="stop-color:#000000;stop-opacity:0.31782946"
         offset="0" />
      <stop
         id="stop3108-9"
         style="stop-color:#000000;stop-opacity:0.24031007"
         offset="1" />
    </linearGradient>
    <linearGradient
       id="linearGradient3977-4">
      <stop
         id="stop3979-7"
         style="stop-color:#ffffff;stop-opacity:1"
         offset="0" />
      <stop
         id="stop3981-6"
         style="stop-color:#ffffff;stop-opacity:0.23529412"
         offset="0.01214366" />
      <stop
         id="stop3983-5"
         style="stop-color:#ffffff;stop-opacity:0.15686275"
         offset="0.98781353" />
      <stop
         id="stop3985-6"
         style="stop-color:#ffffff;stop-opacity:0.39215687"
         offset="1" />
    </linearGradient>
    <linearGradient
       id="linearGradient3600-9">
      <stop
         id="stop3602-3"
         style="stop-color:#f4f4f4;stop-opacity:1"
         offset="0" />
      <stop
         id="stop3604-7"
         style="stop-color:#dbdbdb;stop-opacity:1"
         offset="1" />
    </linearGradient>
    <linearGradient
       id="linearGradient5060-2">
      <stop
         id="stop5062-3"
         style="stop-color:#000000;stop-opacity:1"
         offset="0" />
      <stop
         id="stop5064-1"
         style="stop-color:#000000;stop-opacity:0"
         offset="1" />
    </linearGradient>
    <linearGradient
       id="linearGradient5048-8">
      <stop
         id="stop5050-4"
         style="stop-color:#000000;stop-opacity:0"
         offset="0" />
      <stop
         id="stop5056-5"
         style="stop-color:#000000;stop-opacity:1"
         offset="0.5" />
      <stop
         id="stop5052-1"
         style="stop-color:#000000;stop-opacity:0"
         offset="1" />
    </linearGradient>
    <linearGradient
       x1="-51.786404"
       y1="50.786446"
       x2="-51.786404"
       y2="2.9062471"
       id="linearGradient3163"
       xlink:href="#linearGradient3104-6"
       gradientUnits="userSpaceOnUse"
       gradientTransform="matrix(1.3612077,0,0,0.95572049,91.691477,7.7856436)" />
    <linearGradient
       x1="23.99999"
       y1="5.8641062"
       x2="23.99999"
       y2="42.100208"
       id="linearGradient3166"
       xlink:href="#linearGradient3977-4"
       gradientUnits="userSpaceOnUse"
       gradientTransform="matrix(1.5405406,0,0,1.216213,-4.9729707,5.8108651)" />
    <linearGradient
       x1="25.132275"
       y1="0.98520643"
       x2="25.132275"
       y2="47.013336"
       id="linearGradient3169"
       xlink:href="#linearGradient3600-9"
       gradientUnits="userSpaceOnUse"
       gradientTransform="matrix(1.6571391,0,0,0.99949772,-7.7713459,9.4785876)" />
    <radialGradient
       cx="605.71429"
       cy="486.64789"
       r="117.14286"
       fx="605.71429"
       fy="486.64789"
       id="radialGradient3172"
       xlink:href="#linearGradient5060-2"
       gradientUnits="userSpaceOnUse"
       gradientTransform="matrix(0.03212956,0,0,0.02058823,40.136784,48.451416)" />
    <radialGradient
       cx="605.71429"
       cy="486.64789"
       r="117.14286"
       fx="605.71429"
       fy="486.64789"
       id="radialGradient3175"
       xlink:href="#linearGradient5060-2"
       gradientUnits="userSpaceOnUse"
       gradientTransform="matrix(-0.03212956,0,0,0.02058823,23.863217,48.451416)" />
    <linearGradient
       x1="302.85715"
       y1="366.64789"
       x2="302.85715"
       y2="609.50507"
       id="linearGradient3178"
       xlink:href="#linearGradient5048-8"
       gradientUnits="userSpaceOnUse"
       gradientTransform="matrix(0.11390532,0,0,0.02058823,-9.1686406,48.451416)" />
    <linearGradient
       x1="164.28023"
       y1="241.65149"
       x2="164.28023"
       y2="156.78416"
       id="linearGradient3077-9"
       xlink:href="#linearGradient4785-3-8"
       gradientUnits="userSpaceOnUse"
       gradientTransform="matrix(0.62259178,0,0,0.47976456,-72.256838,-60.499888)" />
    <linearGradient
       id="linearGradient4785-3-8">
      <stop
         id="stop4787-5-5"
         style="stop-color:#262626;stop-opacity:1"
         offset="0" />
      <stop
         id="stop4789-1-1"
         style="stop-color:#4d4d4d;stop-opacity:1"
         offset="1" />
    </linearGradient>
    <linearGradient
       x1="30.305618"
       y1="6.9420786"
       x2="30.305618"
       y2="36.268814"
       id="linearGradient3079-1"
       xlink:href="#linearGradient3610-302-9-7-6"
       gradientUnits="userSpaceOnUse"
       gradientTransform="matrix(1.4133846,0,0,1.4015846,3.9862641,4.9034405)" />
    <linearGradient
       id="linearGradient3610-302-9-7-6">
      <stop
         id="stop3796-3-8-6"
         style="stop-color:#1d1d1d;stop-opacity:1"
         offset="0" />
      <stop
         id="stop3798-1-9-9"
         style="stop-color:#000000;stop-opacity:1"
         offset="1" />
    </linearGradient>
  </defs>
  <rect
     width="55"
     height="5"
     x="4.5"
     y="56"
     id="rect2879-0"
     style="opacity:0.3;fill:url(#linearGradient3178);fill-opacity:1;fill-rule:nonzero;stroke:none;stroke-width:1;marker:none;visibility:visible;display:inline;overflow:visible" />
  <path
     d="m 4.5,56.000216 c 0,0 0,4.9997 0,4.9997 -1.654593,0.01 -4,-1.1202 -4,-2.5002 0,-1.38 1.8464008,-2.4995 4,-2.4995 z"
     id="path2881-4"
     style="opacity:0.3;fill:url(#radialGradient3175);fill-opacity:1;fill-rule:nonzero;stroke:none;stroke-width:1;marker:none;visibility:visible;display:inline;overflow:visible" />
  <path
     d="m 59.5,56.000216 c 0,0 0,4.9997 0,4.9997 1.654592,0.01 4,-1.1202 4,-2.5002 0,-1.38 -1.846401,-2.4995 -4,-2.4995 z"
     id="path2883-6"
     style="opacity:0.3;fill:url(#radialGradient3172);fill-opacity:1;fill-rule:nonzero;stroke:none;stroke-width:1;marker:none;visibility:visible;display:inline;overflow:visible" />
  <path
     d="m 2.9999928,12.000016 c 13.2907442,0 57.9999312,0.0032 57.9999312,0.0032 l 6.9e-5,45.996828 c 0,0 -38.666666,0 -58.0000002,0 0,-15.333349 0,-30.666461 0,-45.999746 z"
     id="path4160-6"
     style="fill:url(#linearGradient3169);fill-opacity:1;stroke:none;display:inline" />
  <rect
     width="53"
     height="41"
     x="5.5000005"
     y="14.5"
     id="rect3180"
     style="color:#000000;fill:url(#linearGradient3077-9);fill-opacity:1;fill-rule:nonzero;stroke:url(#linearGradient3079-1);stroke-width:1.00000072;stroke-linecap:round;stroke-linejoin:miter;stroke-miterlimit:4;stroke-opacity:1;stroke-dasharray:none;stroke-dashoffset:0;marker:none;visibility:visible;display:inline;overflow:visible;enable-background:accumulate" />
  <path
     d="m 60.499993,57.500016 -57.0000004,0 0,-45 57.0000004,0 z"
     id="rect6741-1-8"
     style="fill:none;stroke:url(#linearGradient3166);stroke-width:1;stroke-linecap:round;stroke-linejoin:miter;stroke-miterlimit:4;stroke-opacity:1;stroke-dasharray:none;stroke-dashoffset:0" />
  <path
     d="m 2.499962,11.500038 c 13.5199,0 59.000015,0.0032 59.000015,0.0032 l 6.1e-5,46.996892 c 0,0 -39.333383,0 -59.0000761,0 0,-15.66674 0,-31.333322 0,-46.999879 z"
     id="path4160-6-1"
     style="fill:none;stroke:url(#linearGradient3163);stroke-width:0.9999218;stroke-linecap:butt;stroke-linejoin:round;stroke-miterlimit:4;stroke-opacity:1;stroke-dasharray:none;stroke-dashoffset:0;display:inline" />
  <path
     d="m 28.90625,25.15625 c -1.241493,0 -2.152525,0.930052 -2.71875,2.0625 -0.492472,0.984943 -0.743221,2.239048 -0.8125,3.59375 -1.114251,-0.764105 -2.260749,-1.325125 -3.34375,-1.53125 -1.252879,-0.238457 -2.551567,-0.08275 -3.3125,0.90625 -0.762988,0.991674 -0.560448,2.293171 0,3.4375 0.501258,1.023473 1.392624,2.005079 2.46875,2.90625 -1.354035,0.452091 -2.563012,1.083091 -3.40625,1.875 -0.93142,0.874723 -1.568333,2.020009 -1.21875,3.21875 0.349894,1.199807 1.529778,1.814591 2.78125,2.03125 0.880834,0.152493 1.890392,0.08317 2.9375,-0.09375 C 17.841977,48.313481 14.518257,54.614558 13.8125,56 l 3.96875,0 c 1.020648,-2.209397 2.713338,-5.447176 5.03125,-8.625 0.01495,0.105316 -0.05139,0.241524 -0.03125,0.34375 0.20652,1.048045 0.757725,2.03713 1.78125,2.40625 1.176197,0.424179 2.354893,-0.152515 3.28125,-1.03125 0.687668,-0.652316 1.256165,-1.574026 1.75,-2.59375 0.6444,0.935636 1.345918,1.771326 2.125,2.3125 1.045356,0.726135 2.280156,1.099428 3.375,0.5 1.097011,-0.600615 1.461711,-1.853929 1.40625,-3.125 -0.03845,-0.881284 -0.331997,-1.841722 -0.71875,-2.8125 1.026975,0.134699 2.018226,0.177726 2.875,0 1.245196,-0.258299 2.403479,-0.885393 2.71875,-2.09375 0.314937,-1.207042 -0.383948,-2.325647 -1.34375,-3.15625 -0.593088,-0.513252 -1.347682,-0.94896 -2.1875,-1.3125 0.71255,-0.578739 1.34973,-1.184671 1.78125,-1.84375 0.698452,-1.066775 1.061356,-2.325699 0.4375,-3.40625 -0.625451,-1.083313 -1.916112,-1.393733 -3.1875,-1.3125 -1.271388,0.08123 -2.677379,0.544052 -4.0625,1.34375 -0.13465,0.07774 -0.216796,0.168528 -0.34375,0.25 0.0066,-0.155078 0.0625,-0.279633 0.0625,-0.4375 0,-1.602374 -0.299709,-3.055346 -0.875,-4.1875 -0.575291,-1.132154 -1.508506,-2.0625 -2.75,-2.0625 z M 29,35.9375 c 1.327834,0 2.40625,1.078414 2.40625,2.40625 0,1.327836 -1.067746,2.375 -2.40625,2.375 -1.338513,0 -2.40625,-1.047162 -2.40625,-2.375 0,-1.327838 1.078407,-2.40625 2.40625,-2.40625 z"
     id="path4039"
     style="opacity:0.15;fill:#000000;fill-opacity:1;stroke:none" />
  <path
     d="m 28.90625,26.09375 c -1.472755,0 -2.65625,2.366977 -2.65625,5.3125 0,0.490092 0.03184,0.986718 0.09375,1.4375 -0.316514,-0.319782 -0.616311,-0.673541 -1,-0.96875 -2.334506,-1.796157 -4.976921,-2.292254 -5.875,-1.125 -0.898077,1.167253 0.290496,3.578841 2.625,5.375 0.442959,0.340809 0.862667,0.598233 1.3125,0.84375 -0.509578,0.06514 -1.024496,0.155605 -1.5625,0.3125 -2.827733,0.824639 -4.787319,2.679882 -4.375,4.09375 0.412319,1.413867 3.047267,1.855888 5.875,1.03125 0.530199,-0.15462 1.040839,-0.316187 1.5,-0.53125 C 24.73167,42.07904 24.601432,42.279071 24.5,42.5 19.803396,46.691699 15.997695,53.799097 14.875,56 l 1.84375,0 c 1.21811,-2.759449 3.603787,-7.477991 7.15625,-11.59375 -0.561707,2.33687 -0.198413,4.411559 1,4.84375 1.385421,0.499633 3.34448,-1.354158 4.34375,-4.125 0.0899,-0.249232 0.11868,-0.504182 0.1875,-0.75 0.10792,0.237823 0.21345,0.480758 0.34375,0.71875 1.41454,2.583636 3.61443,4.113522 4.90625,3.40625 1.29182,-0.707273 1.16454,-3.385114 -0.25,-5.96875 -0.0807,-0.147381 -0.16455,-0.265999 -0.25,-0.40625 0.15671,0.04873 0.3063,0.08261 0.46875,0.125 2.85011,0.743627 5.47194,0.206306 5.84375,-1.21875 0.37182,-1.425054 -1.64989,-3.162623 -4.5,-3.90625 -0.0436,-0.01133 -0.0815,-0.02045 -0.125,-0.03125 0.0384,-0.02156 0.0866,-0.04034 0.125,-0.0625 2.5509,-1.472762 4.01763,-3.724552 3.28125,-5 -0.73638,-1.275448 -3.41785,-1.09776 -5.96875,0.375 C 32.46416,32.877994 31.80843,33.429425 31.25,34 c 0.21178,-0.764674 0.34375,-1.657697 0.34375,-2.59375 0,-2.945523 -1.21474,-5.3125 -2.6875,-5.3125 z M 29,35 c 1.84095,0 3.34375,1.502798 3.34375,3.34375 0,1.840952 -1.5028,3.3125 -3.34375,3.3125 -1.840957,0 -3.34375,-1.471548 -3.34375,-3.3125 C 25.65625,36.502798 27.159043,35 29,35 z"
     id="path4019-9"
     style="opacity:0.3;fill:#000000;fill-opacity:1;stroke:none" />
  <path
     d="m 28.9167,25.083299 c -1.472755,0 -2.666664,2.387817 -2.666664,5.33334 0,0.490092 0.02143,0.965887 0.08334,1.416669 -0.316514,-0.319782 -0.616312,-0.663127 -1.000001,-0.958336 -2.334506,-1.796157 -4.97693,-2.292254 -5.875009,-1.125 -0.898077,1.167253 0.290499,3.578848 2.625003,5.375007 0.442959,0.340809 0.883504,0.587817 1.333337,0.833334 -0.509578,0.06514 -1.045332,0.176438 -1.583336,0.333333 -2.827733,0.824639 -4.787325,2.669472 -4.375006,4.08334 0.412319,1.413867 3.047275,1.866306 5.875008,1.041668 0.530199,-0.15462 1.040841,-0.326604 1.500002,-0.541667 -0.11208,0.20404 -0.231902,0.404072 -0.333334,0.625001 C 18.943544,46.459137 14.375026,55.95834 14.375026,55.95834 L 16.291696,56 c 1.040778,-2.498637 3.614661,-7.985376 7.583343,-12.583352 -0.561707,2.33687 -0.198411,4.40115 1.000002,4.833341 1.385421,0.499633 3.334069,-1.354164 4.333339,-4.125006 0.0899,-0.249232 0.13951,-0.504183 0.20833,-0.750001 0.10792,0.237823 0.20304,0.470342 0.33334,0.708334 1.41454,2.583636 3.62485,4.123944 4.91667,3.416672 1.29182,-0.707273 1.16454,-3.374706 -0.25,-5.958342 -0.0807,-0.147381 -0.16455,-0.276416 -0.25,-0.416667 0.15671,0.04873 0.29588,0.08261 0.45833,0.125 2.85011,0.743627 5.46153,0.216721 5.83334,-1.208335 0.37182,-1.425054 -1.64989,-3.173045 -4.5,-3.916672 -0.0436,-0.01133 -0.0815,-0.03087 -0.125,-0.04167 0.0384,-0.02156 0.0866,-0.0195 0.125,-0.04166 2.5509,-1.472762 4.02805,-3.724559 3.29167,-5.000007 -0.73638,-1.275448 -3.40744,-1.09776 -5.95834,0.375 -0.81709,0.471744 -1.48324,1.012761 -2.04167,1.583336 0.21178,-0.764674 0.33333,-1.647284 0.33333,-2.583337 0,-2.945523 -1.19391,-5.33334 -2.66667,-5.33334 z M 29,33.999977 c 1.84095,0 3.33333,1.492386 3.33333,3.333338 0,1.840952 -1.49238,3.333338 -3.33333,3.333338 -1.840957,0 -3.333343,-1.492386 -3.333343,-3.333338 0,-1.840952 1.492386,-3.333338 3.333343,-3.333338 z"
     id="path4019"
     style="fill:#d2d2d2;fill-opacity:1;stroke:none" />
</svg>
