<?xml version="1.0" encoding="UTF-8" standalone="no"?>
<!-- Created with Inkscape (http://www.inkscape.org/) -->

<svg
   xmlns:dc="http://purl.org/dc/elements/1.1/"
   xmlns:cc="http://creativecommons.org/ns#"
   xmlns:rdf="http://www.w3.org/1999/02/22-rdf-syntax-ns#"
   xmlns:svg="http://www.w3.org/2000/svg"
   xmlns="http://www.w3.org/2000/svg"
   xmlns:xlink="http://www.w3.org/1999/xlink"
   xmlns:sodipodi="http://sodipodi.sourceforge.net/DTD/sodipodi-0.dtd"
   xmlns:inkscape="http://www.inkscape.org/namespaces/inkscape"
   width="64px"
   height="64px"
   id="svg4132"
   version="1.1"
   inkscape:version="0.48.3.1 r9886"
   sodipodi:docname="text-x-chdr.svg">
  <defs
     id="defs4134">
    <linearGradient
       id="linearGradient3195">
      <stop
         offset="0"
         style="stop-color:#f8b17e;stop-opacity:1"
         id="stop3197" />
      <stop
         offset="0.26437598"
         style="stop-color:#e35d4f;stop-opacity:1"
         id="stop3199" />
      <stop
         offset="0.66093999"
         style="stop-color:#c6262e;stop-opacity:1"
         id="stop3201" />
      <stop
         offset="1"
         style="stop-color:#690b54;stop-opacity:1"
         id="stop3203" />
    </linearGradient>
    <linearGradient
       id="linearGradient3908">
      <stop
         style="stop-color:#aaaaaa;stop-opacity:1;"
         offset="0"
         id="stop3910" />
      <stop
         style="stop-color:#c8c8c8;stop-opacity:1;"
         offset="1"
         id="stop3912" />
    </linearGradient>
    <linearGradient
       id="linearGradient5031">
      <stop
         id="stop5033"
         style="stop-color:#a3a3a3;stop-opacity:1"
         offset="0" />
      <stop
         id="stop5035"
         style="stop-color:#bababa;stop-opacity:1"
         offset="1" />
    </linearGradient>
    <linearGradient
       y2="2.9062471"
       x2="-51.786404"
       y1="50.786446"
       x1="-51.786404"
       gradientTransform="matrix(1.0843523,0,0,1.1997367,79.550862,-4.1628601)"
       gradientUnits="userSpaceOnUse"
       id="linearGradient3033"
       xlink:href="#linearGradient3104-6"
       inkscape:collect="always" />
    <linearGradient
       id="linearGradient3104-6">
      <stop
         offset="0"
         style="stop-color:#000000;stop-opacity:0.31782946;"
         id="stop3106-3" />
      <stop
         offset="1"
         style="stop-color:#000000;stop-opacity:0.24031007;"
         id="stop3108-9" />
    </linearGradient>
    <linearGradient
       inkscape:collect="always"
       xlink:href="#linearGradient3977-4"
       id="linearGradient3093"
       gradientUnits="userSpaceOnUse"
       gradientTransform="matrix(1.2162162,0,0,1.5405376,2.8108184,-6.9729501)"
       x1="23.99999"
       y1="5.8641062"
       x2="23.99999"
       y2="42.100208" />
    <linearGradient
       id="linearGradient3977-4">
      <stop
         id="stop3979-7"
         style="stop-color:#ffffff;stop-opacity:1;"
         offset="0" />
      <stop
         offset="0.01214366"
         style="stop-color:#ffffff;stop-opacity:0.23529412;"
         id="stop3981-6" />
      <stop
         id="stop3983-5"
         style="stop-color:#ffffff;stop-opacity:0.15686275;"
         offset="0.98781353" />
      <stop
         id="stop3985-6"
         style="stop-color:#ffffff;stop-opacity:0.39215687;"
         offset="1" />
    </linearGradient>
    <linearGradient
       inkscape:collect="always"
       xlink:href="#linearGradient3600-9"
       id="linearGradient3096"
       gradientUnits="userSpaceOnUse"
       gradientTransform="matrix(1.3142827,0,0,1.2602393,0.4572141,-2.1793201)"
       x1="25.132275"
       y1="0.98520643"
       x2="25.132275"
       y2="47.013336" />
    <linearGradient
       id="linearGradient3600-9">
      <stop
         offset="0"
         style="stop-color:#f4f4f4;stop-opacity:1"
         id="stop3602-3" />
      <stop
         offset="1"
         style="stop-color:#dbdbdb;stop-opacity:1"
         id="stop3604-7" />
    </linearGradient>
    <radialGradient
       inkscape:collect="always"
       xlink:href="#linearGradient5060"
       id="radialGradient3153"
       gradientUnits="userSpaceOnUse"
       gradientTransform="matrix(0.03132633,0,0,0.02058823,35.220859,49.45142)"
       cx="605.71429"
       cy="486.64789"
       fx="605.71429"
       fy="486.64789"
       r="117.14286" />
    <linearGradient
       id="linearGradient5060">
      <stop
         id="stop5062"
         style="stop-color:#000000;stop-opacity:1"
         offset="0" />
      <stop
         id="stop5064"
         style="stop-color:#000000;stop-opacity:0"
         offset="1" />
    </linearGradient>
    <radialGradient
       inkscape:collect="always"
       xlink:href="#linearGradient5060"
       id="radialGradient3156"
       gradientUnits="userSpaceOnUse"
       gradientTransform="matrix(-0.03132632,0,0,0.02058823,28.779136,49.45142)"
       cx="605.71429"
       cy="486.64789"
       fx="605.71429"
       fy="486.64789"
       r="117.14286" />
    <linearGradient
       id="linearGradient5048">
      <stop
         id="stop5050"
         style="stop-color:#000000;stop-opacity:0"
         offset="0" />
      <stop
         id="stop5056"
         style="stop-color:#000000;stop-opacity:1"
         offset="0.5" />
      <stop
         id="stop5052"
         style="stop-color:#000000;stop-opacity:0"
         offset="1" />
    </linearGradient>
    <linearGradient
       y2="609.50507"
       x2="302.85715"
       y1="366.64789"
       x1="302.85715"
       gradientTransform="matrix(0.09153846,0,0,0.02058823,-1.084616,49.45142)"
       gradientUnits="userSpaceOnUse"
       id="linearGradient4130"
       xlink:href="#linearGradient5048"
       inkscape:collect="always" />
    <linearGradient
       id="linearGradient3830">
      <stop
         id="stop3832"
         style="stop-color:#ffffff;stop-opacity:1"
         offset="0" />
      <stop
         id="stop3834"
         style="stop-color:#ffffff;stop-opacity:0"
         offset="1" />
    </linearGradient>
    <linearGradient
       id="linearGradient3054">
      <stop
         id="stop3056"
         style="stop-color:#ffffff;stop-opacity:1"
         offset="0" />
      <stop
         id="stop3058"
         style="stop-color:#ffffff;stop-opacity:0"
         offset="1" />
    </linearGradient>
    <linearGradient
       id="linearGradient2867-449-88-871-390-598-476-591-434-148-57-177">
      <stop
         offset="0"
         style="stop-color:#90dbec;stop-opacity:1;"
         id="stop3750" />
      <stop
         offset="0.39060768"
         style="stop-color:#55c1ec;stop-opacity:1;"
         id="stop3752" />
      <stop
         offset="0.84839314"
         style="stop-color:#3689e6;stop-opacity:1;"
         id="stop3754" />
      <stop
         offset="1"
         style="stop-color:#2b63a0;stop-opacity:1;"
         id="stop3756" />
    </linearGradient>
    <linearGradient
       id="linearGradient3707-319-631-407-324">
      <stop
         offset="0"
         style="stop-color:#185f9a;stop-opacity:1;"
         id="stop3760" />
      <stop
         offset="1"
         style="stop-color:#599ec9;stop-opacity:1;"
         id="stop3762" />
    </linearGradient>
    <radialGradient
       inkscape:collect="always"
       xlink:href="#linearGradient4114-3"
       id="radialGradient3172"
       gradientUnits="userSpaceOnUse"
       gradientTransform="matrix(1.139227,0,0,0.4068666,6.7799989,7.7466159)"
       cx="15.115514"
       cy="63.965389"
       fx="15.115514"
       fy="63.965389"
       r="12.289036" />
    <linearGradient
       id="linearGradient4114-3">
      <stop
         id="stop4116-7"
         style="stop-color:#000000;stop-opacity:1"
         offset="0" />
      <stop
         id="stop4118-4"
         style="stop-color:#000000;stop-opacity:0"
         offset="1" />
    </linearGradient>
    <linearGradient
       inkscape:collect="always"
       xlink:href="#linearGradient3908"
       id="linearGradient3930"
       x1="51.298679"
       y1="52.904591"
       x2="51.298679"
       y2="9.590909"
       gradientUnits="userSpaceOnUse" />
    <linearGradient
       inkscape:collect="always"
       xlink:href="#linearGradient3908"
       id="linearGradient3932"
       x1="51.298679"
       y1="52.904591"
       x2="51.298679"
       y2="9.590909"
       gradientUnits="userSpaceOnUse" />
    <linearGradient
       inkscape:collect="always"
       xlink:href="#linearGradient3908"
       id="linearGradient3934"
       x1="51.298679"
       y1="52.904591"
       x2="51.298679"
       y2="9.590909"
       gradientUnits="userSpaceOnUse" />
    <linearGradient
       inkscape:collect="always"
       xlink:href="#linearGradient3908"
       id="linearGradient3936"
       x1="51.298679"
       y1="52.904591"
       x2="51.298679"
       y2="9.590909"
       gradientUnits="userSpaceOnUse" />
    <linearGradient
       inkscape:collect="always"
       xlink:href="#linearGradient3908"
       id="linearGradient3938"
       x1="51.298679"
       y1="52.904591"
       x2="51.298679"
       y2="9.590909"
       gradientUnits="userSpaceOnUse" />
    <linearGradient
       inkscape:collect="always"
       xlink:href="#linearGradient3908"
       id="linearGradient3940"
       x1="51.298679"
       y1="52.904591"
       x2="51.298679"
       y2="9.590909"
       gradientUnits="userSpaceOnUse" />
    <linearGradient
       inkscape:collect="always"
       xlink:href="#linearGradient4598"
       id="linearGradient4596"
       gradientUnits="userSpaceOnUse"
       gradientTransform="translate(4.116099,-1.6069012)"
       x1="29.465117"
       y1="17.606901"
       x2="29.465117"
       y2="34.606899" />
    <linearGradient
       id="linearGradient4598">
      <stop
         id="stop4600"
         style="stop-color:#ffffff;stop-opacity:1;"
         offset="0" />
      <stop
         offset="0.17647059"
         style="stop-color:#ffffff;stop-opacity:0.23529412;"
         id="stop4602" />
      <stop
         id="stop4604"
         style="stop-color:#ffffff;stop-opacity:0.15686275;"
         offset="0.82352948" />
      <stop
         id="stop4606"
         style="stop-color:#ffffff;stop-opacity:0.39215687;"
         offset="1" />
    </linearGradient>
    <linearGradient
       inkscape:collect="always"
       xlink:href="#linearGradient3977-0-2"
       id="linearGradient4467-5"
       gradientUnits="userSpaceOnUse"
       gradientTransform="translate(4.116099,-1.6069012)"
       x1="13.883902"
       y1="12.606901"
       x2="13.883902"
       y2="41.606899" />
    <linearGradient
       id="linearGradient3977-0-2">
      <stop
         offset="0"
         style="stop-color:#ffffff;stop-opacity:1;"
         id="stop3979-5-6" />
      <stop
         id="stop3981-7-1"
         style="stop-color:#ffffff;stop-opacity:0.23529412;"
         offset="0.03626217" />
      <stop
         offset="0.82758623"
         style="stop-color:#ffffff;stop-opacity:0.15686275;"
         id="stop3983-6-1" />
      <stop
         offset="1"
         style="stop-color:#ffffff;stop-opacity:0.39215687;"
         id="stop3985-4-7" />
    </linearGradient>
    <radialGradient
       inkscape:collect="always"
       xlink:href="#linearGradient2867-449-88-871-390-598-476-591-434-148-57-177-8-3"
       id="radialGradient3815"
       gradientUnits="userSpaceOnUse"
       gradientTransform="matrix(0,7.0760926,-7.4527115,0,100.32061,-66.261922)"
       cx="9.0815544"
       cy="10.243929"
       fx="8.5513258"
       fy="10.243929"
       r="12.671875" />
    <linearGradient
       id="linearGradient2867-449-88-871-390-598-476-591-434-148-57-177-8-3">
      <stop
         offset="0"
         style="stop-color:#ffcd7d;stop-opacity:1;"
         id="stop3750-1-0" />
      <stop
         offset="0.26238"
         style="stop-color:#fc8f36;stop-opacity:1;"
         id="stop3752-3-7" />
      <stop
         offset="0.704952"
         style="stop-color:#e23a0e;stop-opacity:1;"
         id="stop3754-1-8" />
      <stop
         offset="1"
         style="stop-color:#ac441f;stop-opacity:1;"
         id="stop3756-1-6" />
    </linearGradient>
    <linearGradient
       inkscape:collect="always"
       xlink:href="#linearGradient4039"
       id="linearGradient3817"
       gradientUnits="userSpaceOnUse"
       gradientTransform="translate(2.123909,-1.9451008)"
       x1="25"
       y1="49.945103"
       x2="25"
       y2="4.9451008" />
    <linearGradient
       id="linearGradient4039">
      <stop
         offset="0"
         style="stop-color:#ba3d12;stop-opacity:1"
         id="stop4041" />
      <stop
         offset="1"
         style="stop-color:#db6737;stop-opacity:1"
         id="stop4043" />
    </linearGradient>
    <radialGradient
       r="12.671875"
       fy="10.243929"
       fx="8.5513258"
       cy="10.243929"
       cx="9.0815544"
       gradientTransform="matrix(0,7.0760926,-7.4527115,0,100.32061,-66.261922)"
       gradientUnits="userSpaceOnUse"
       id="radialGradient3077"
       xlink:href="#linearGradient2867-449-88-871-390-598-476-591-434-148-57-177-8-3"
       inkscape:collect="always" />
    <linearGradient
       y2="4.9451008"
       x2="25"
       y1="49.945103"
       x1="25"
       gradientTransform="translate(2.123909,-1.9451012)"
       gradientUnits="userSpaceOnUse"
       id="linearGradient3079"
       xlink:href="#linearGradient4039"
       inkscape:collect="always" />
    <linearGradient
       id="linearGradient4328">
      <stop
         id="stop4330"
         style="stop-color:#ffffff;stop-opacity:1;"
         offset="0" />
      <stop
         offset="0.09704833"
         style="stop-color:#ffffff;stop-opacity:0.23529412;"
         id="stop4332" />
      <stop
         id="stop4334"
         style="stop-color:#ffffff;stop-opacity:0.15686275;"
         offset="0.66666669" />
      <stop
         id="stop4336"
         style="stop-color:#ffffff;stop-opacity:0.39215687;"
         offset="1" />
    </linearGradient>
    <linearGradient
       id="linearGradient4354">
      <stop
         id="stop4356"
         style="stop-color:#ffffff;stop-opacity:1;"
         offset="0" />
      <stop
         offset="0.38322371"
         style="stop-color:#ffffff;stop-opacity:0.23529412;"
         id="stop4358" />
      <stop
         id="stop4360"
         style="stop-color:#ffffff;stop-opacity:0.15686275;"
         offset="0.95056331" />
      <stop
         id="stop4362"
         style="stop-color:#ffffff;stop-opacity:0.39215687;"
         offset="1" />
    </linearGradient>
    <linearGradient
       id="linearGradient4340">
      <stop
         id="stop4342"
         style="stop-color:#ffffff;stop-opacity:1;"
         offset="0" />
      <stop
         offset="0.27889803"
         style="stop-color:#ffffff;stop-opacity:0.23529412;"
         id="stop4344" />
      <stop
         id="stop4346"
         style="stop-color:#ffffff;stop-opacity:0.15686275;"
         offset="0.95056331" />
      <stop
         id="stop4348"
         style="stop-color:#ffffff;stop-opacity:0.39215687;"
         offset="1" />
    </linearGradient>
    <radialGradient
       inkscape:collect="always"
       xlink:href="#linearGradient3846-5"
       id="radialGradient3352"
       gradientUnits="userSpaceOnUse"
       gradientTransform="matrix(0,4.6309229,-4.1186673,0,114.37606,-52.028739)"
       cx="9.9660025"
       cy="23.403069"
       fx="9.9660025"
       fy="23.403069"
       r="13.931416" />
    <linearGradient
       id="linearGradient3846-5">
      <stop
         offset="0"
         style="stop-color:#fff3cb;stop-opacity:1"
         id="stop3848-48" />
      <stop
         offset="0.26238"
         style="stop-color:#fdde76;stop-opacity:1"
         id="stop3850-1" />
      <stop
         offset="0.66093999"
         style="stop-color:#f9c440;stop-opacity:1"
         id="stop3852-28" />
      <stop
         offset="1"
         style="stop-color:#e48b20;stop-opacity:1"
         id="stop3854-9" />
    </linearGradient>
    <linearGradient
       inkscape:collect="always"
       xlink:href="#linearGradient3856-6"
       id="linearGradient3354"
       gradientUnits="userSpaceOnUse"
       gradientTransform="matrix(1.6508808,0,0,1.6568311,-16.628817,-20.281567)"
       x1="21.483376"
       y1="44.154785"
       x2="21.483376"
       y2="8.404891" />
    <linearGradient
       id="linearGradient3856-6">
      <stop
         offset="0"
         style="stop-color:#b67926;stop-opacity:1"
         id="stop3858-8" />
      <stop
         offset="1"
         style="stop-color:#eab41a;stop-opacity:1"
         id="stop3860-0" />
    </linearGradient>
    <radialGradient
       r="13.931416"
       fy="23.403069"
       fx="9.9660025"
       cy="23.403069"
       cx="9.9660025"
       gradientTransform="matrix(0,3.4561718,-4.1186673,0,121.20805,-33.840698)"
       gradientUnits="userSpaceOnUse"
       id="radialGradient4476"
       xlink:href="#linearGradient3846-5"
       inkscape:collect="always" />
    <linearGradient
       id="linearGradient3090">
      <stop
         offset="0"
         style="stop-color:#fff3cb;stop-opacity:1"
         id="stop3092" />
      <stop
         offset="0.26238"
         style="stop-color:#fdde76;stop-opacity:1"
         id="stop3094" />
      <stop
         offset="0.66093999"
         style="stop-color:#f9c440;stop-opacity:1"
         id="stop3096" />
      <stop
         offset="1"
         style="stop-color:#e48b20;stop-opacity:1"
         id="stop3098" />
    </linearGradient>
    <linearGradient
       y2="8.404891"
       x2="21.483376"
       y1="35.375534"
       x1="21.483376"
       gradientTransform="matrix(1.6508808,0,0,1.6568311,-9.7968269,-13.801098)"
       gradientUnits="userSpaceOnUse"
       id="linearGradient4478"
       xlink:href="#linearGradient3856-6"
       inkscape:collect="always" />
    <linearGradient
       id="linearGradient3101">
      <stop
         offset="0"
         style="stop-color:#b67926;stop-opacity:1"
         id="stop3103" />
      <stop
         offset="1"
         style="stop-color:#eab41a;stop-opacity:1"
         id="stop3105" />
    </linearGradient>
    <linearGradient
       inkscape:collect="always"
       xlink:href="#linearGradient3781-1"
       id="linearGradient3471"
       gradientUnits="userSpaceOnUse"
       gradientTransform="matrix(0.58514285,0,0,0.60235363,3.8713635,10.911281)"
       x1="21.037846"
       y1="44.613377"
       x2="21.037846"
       y2="54.059887" />
    <linearGradient
       id="linearGradient3781-1">
      <stop
         id="stop3783-5"
         style="stop-color:#ffffff;stop-opacity:1"
         offset="0" />
      <stop
         id="stop3785-5"
         style="stop-color:#ffffff;stop-opacity:0"
         offset="1" />
    </linearGradient>
    <linearGradient
       inkscape:collect="always"
       xlink:href="#linearGradient3316"
       id="linearGradient4596-7"
       gradientUnits="userSpaceOnUse"
       gradientTransform="translate(-2.8552521,-10.486361)"
       x1="35.883442"
       y1="22.754343"
       x2="35.883442"
       y2="44.560955" />
    <linearGradient
       id="linearGradient3316">
      <stop
         offset="0"
         style="stop-color:#ffffff;stop-opacity:1;"
         id="stop3318" />
      <stop
         id="stop3320"
         style="stop-color:#ffffff;stop-opacity:0.23529412;"
         offset="0.16986552" />
      <stop
         offset="0.9545455"
         style="stop-color:#ffffff;stop-opacity:0.15686275;"
         id="stop3322" />
      <stop
         offset="1"
         style="stop-color:#ffffff;stop-opacity:0.39215687;"
         id="stop3324" />
    </linearGradient>
    <radialGradient
       inkscape:collect="always"
       xlink:href="#linearGradient3195"
       id="radialGradient3394"
       gradientUnits="userSpaceOnUse"
       gradientTransform="matrix(0,7.1403659,-7.3430977,0,93.723111,-67.567174)"
       cx="9.8367758"
       cy="10.243929"
       fx="9.3065472"
       fy="10.243929"
       r="12.671875" />
    <linearGradient
       id="linearGradient3242-6-6">
      <stop
         id="stop3244-3-4"
         style="stop-color:#f8b17e;stop-opacity:1"
         offset="0" />
      <stop
         id="stop3246-2-3"
         style="stop-color:#e35d4f;stop-opacity:1"
         offset="0.26238" />
      <stop
         id="stop3248-0-3"
         style="stop-color:#c6262e;stop-opacity:1"
         offset="0.66093999" />
      <stop
         id="stop3250-6-3"
         style="stop-color:#690b54;stop-opacity:1"
         offset="1" />
    </linearGradient>
    <linearGradient
       inkscape:collect="always"
       xlink:href="#linearGradient2490-6-6"
       id="linearGradient3396"
       gradientUnits="userSpaceOnUse"
       gradientTransform="matrix(0.98529211,0,0,1.0090832,-3.0293205,-2.6661519)"
       x1="25"
       y1="62.873146"
       x2="25"
       y2="4.9451008" />
    <linearGradient
       id="linearGradient2490-6-6">
      <stop
         id="stop2492-1-04"
         style="stop-color:#791235;stop-opacity:1"
         offset="0" />
      <stop
         id="stop2494-0-8"
         style="stop-color:#dd3b27;stop-opacity:1"
         offset="1" />
    </linearGradient>
    <radialGradient
       inkscape:collect="always"
       xlink:href="#linearGradient3242-6-6"
       id="radialGradient3399"
       gradientUnits="userSpaceOnUse"
       gradientTransform="matrix(0,7.1403659,-7.3430977,0,93.723115,-67.168075)"
       cx="9.8367758"
       cy="10.243929"
       fx="9.3065472"
       fy="10.243929"
       r="12.671875" />
    <linearGradient
       id="linearGradient3073">
      <stop
         id="stop3075"
         style="stop-color:#f8b17e;stop-opacity:1"
         offset="0" />
      <stop
         id="stop3077"
         style="stop-color:#e35d4f;stop-opacity:1"
         offset="0.26238" />
      <stop
         id="stop3079"
         style="stop-color:#c6262e;stop-opacity:1"
         offset="0.66093999" />
      <stop
         id="stop3081"
         style="stop-color:#690b54;stop-opacity:1"
         offset="1" />
    </linearGradient>
    <linearGradient
       inkscape:collect="always"
       xlink:href="#linearGradient2490-6-6"
       id="linearGradient3401"
       gradientUnits="userSpaceOnUse"
       gradientTransform="matrix(0.98529211,0,0,1.0090832,-3.0293205,-2.2670529)"
       x1="25"
       y1="49.945103"
       x2="25"
       y2="4.9451008" />
    <linearGradient
       id="linearGradient3084">
      <stop
         id="stop3086"
         style="stop-color:#791235;stop-opacity:1"
         offset="0" />
      <stop
         id="stop3088"
         style="stop-color:#dd3b27;stop-opacity:1"
         offset="1" />
    </linearGradient>
    <radialGradient
       r="12.671875"
       fy="10.243929"
       fx="9.3065472"
       cy="10.243929"
       cx="9.8367758"
       gradientTransform="matrix(0,7.1403659,-7.3430977,0,93.723111,-67.168075)"
       gradientUnits="userSpaceOnUse"
       id="radialGradient3094"
       xlink:href="#linearGradient3242-6-6"
       inkscape:collect="always" />
    <linearGradient
       y2="4.9451008"
       x2="25"
       y1="62.477642"
       x1="25"
       gradientTransform="matrix(0.98529211,0,0,1.0090832,-3.0293205,-2.267053)"
       gradientUnits="userSpaceOnUse"
       id="linearGradient3096-9"
       xlink:href="#linearGradient2490-6-6"
       inkscape:collect="always" />
  </defs>
  <sodipodi:namedview
     id="base"
     pagecolor="#ffffff"
     bordercolor="#666666"
     borderopacity="1.0"
     inkscape:pageopacity="0.0"
     inkscape:pageshadow="2"
     inkscape:zoom="44"
     inkscape:cx="32.983641"
     inkscape:cy="25.333344"
     inkscape:current-layer="layer1"
     showgrid="true"
     inkscape:document-units="px"
     inkscape:grid-bbox="true"
     inkscape:window-width="811"
     inkscape:window-height="609"
     inkscape:window-x="45"
     inkscape:window-y="115"
     inkscape:window-maximized="0">
    <inkscape:grid
       type="xygrid"
       id="grid3205" />
  </sodipodi:namedview>
  <metadata
     id="metadata4137">
    <rdf:RDF>
      <cc:Work
         rdf:about="">
        <dc:format>image/svg+xml</dc:format>
        <dc:type
           rdf:resource="http://purl.org/dc/dcmitype/StillImage" />
        <dc:title />
      </cc:Work>
    </rdf:RDF>
  </metadata>
  <g
     id="layer1"
     inkscape:label="Layer 1"
     inkscape:groupmode="layer">
    <rect
       style="opacity:0.3;fill:url(#linearGradient4130);fill-opacity:1;fill-rule:nonzero;stroke:none;stroke-width:1;marker:none;visibility:visible;display:inline;overflow:visible"
       id="rect2879"
       y="57.000004"
       x="9.8999996"
       height="5"
       width="44.199997" />
    <path
       inkscape:connector-curvature="0"
       style="opacity:0.3;fill:url(#radialGradient3156);fill-opacity:1;fill-rule:nonzero;stroke:none;stroke-width:1;marker:none;visibility:visible;display:inline;overflow:visible"
       id="path2881"
       d="m 9.9,57.00022 c 0,0 0,4.9997 0,4.9997 -1.6132281,0.01 -3.9,-1.1202 -3.9,-2.5002 0,-1.38 1.8002408,-2.4995 3.9,-2.4995 z" />
    <path
       inkscape:connector-curvature="0"
       style="opacity:0.3;fill:url(#radialGradient3153);fill-opacity:1;fill-rule:nonzero;stroke:none;stroke-width:1;marker:none;visibility:visible;display:inline;overflow:visible"
       id="path2883"
       d="m 54.099999,57.00022 c 0,0 0,4.9997 0,4.9997 C 55.713227,62.00992 58,60.87972 58,59.49972 c 0,-1.38 -1.800241,-2.4995 -3.900001,-2.4995 z" />
    <path
       inkscape:connector-curvature="0"
       style="fill:url(#linearGradient3096);fill-opacity:1;stroke:none;display:inline"
       id="path4160-6"
       d="m 9,0.9998799 c 10.540935,0 45.999945,0.004 45.999945,0.004 L 55,59.00002 c 0,0 -30.666666,0 -46,0 0,-19.3334 0,-38.6665 0,-57.9998201 z"
       sodipodi:nodetypes="ccccc" />
    <path
       style="fill:none;stroke:url(#linearGradient3093);stroke-width:1;stroke-linecap:round;stroke-linejoin:miter;stroke-miterlimit:4;stroke-opacity:1;stroke-dasharray:none;stroke-dashoffset:0"
       d="m 54.499999,58.50002 -44.9999992,0 0,-57.0000401 44.9999992,0 z"
       id="rect6741-1-8"
       inkscape:connector-curvature="0"
       sodipodi:nodetypes="ccccc" />
    <path
       inkscape:connector-curvature="0"
       style="fill:none;stroke:url(#linearGradient3033);stroke-width:0.9999218;stroke-linecap:butt;stroke-linejoin:round;stroke-miterlimit:4;stroke-opacity:1;stroke-dasharray:none;stroke-dashoffset:0;display:inline"
       id="path4160-6-1"
       d="m 8.4999684,0.4998999 c 10.7700936,0 47.0000286,0.004 47.0000286,0.004 l 4.9e-5,58.9962201 c 0,0 -31.333384,0 -47.0000776,0 0,-19.6668 0,-39.3334 0,-58.9999701 z"
       sodipodi:nodetypes="ccccc" />
    <g
       id="g3942">
      <path
         sodipodi:nodetypes="ccccccccccccccccccccccccccccccccccccccccccccccccccccccccccccccccccccccccccccccccccccccccccccccccccccccccccccccccccccccccccccccccccccccccccccccccccccccccccccccccccccccccccccccccccccccccccccccccccccccccccccc"
         id="path4149"
         d="m 15,9 0,1 3.189283,0 0,-1 z m 3.608926,0 0,1 3.021426,0 0,-1 z m 3.441069,0 0,1 2.643748,0 0,-1 z m 3.063391,0 0,1 1.174999,0 0,-1 z m 1.594642,0 0,1 2.601784,0 0,-1 z m 3.063391,0 0,1 6.714281,0 0,-1 z M 15,12 l 0,1 5.077675,0 0,-1 z m 5.581246,0 0,1 2.433927,0 0,-1 z m 2.895534,0 0,1 1.133035,0 0,-1 z m 1.636606,0 0,1 2.182141,0 0,-1 z m 2.685712,0 0,1 2.182142,0 0,-1 z m 2.643749,0 0,1 3.566962,0 0,-1 z m 4.070533,0 0,1 4.658032,0 0,-1 z M 15,15 l 0,1 5.62321,0 0,-1 z m 6.042853,0 0,1 6.042853,0 0,-1 z M 15,18 l 0,1 3.105355,0 0,-1 z m 3.524997,0 0,1 2.895534,0 0,-1 z m 3.315177,0 0,1 2.559819,0 0,-1 z m 5.119639,6 0,1 2.55982,0 0,-1 z m 2.979463,0 0,1 2.559819,0 0,-1 z m 2.979462,0 0,1 3.692855,0 0,-1 z m 4.154462,0 0,1 0.755356,0 0,-1 z m -9.987494,9 0,1 3.147319,0 0,-1 z m 3.566962,0 0,1 2.937498,0 0,-1 z m 3.357141,0 0,1 2.475891,0 0,-1 z m -6.924103,3 0,1 2.517856,0 0,-1 z m 2.937498,0 0,1 6.462496,0 0,-1 z m 6.882139,0 0,1 4.951782,0 0,-1 z m -9.819637,3 0,1 3.273212,0 0,-1 z m 3.734819,0 0,1 5.749103,0 0,-1 z m 6.168746,0 0,1 3.94464,0 0,-1 z m -9.903565,3 0,1 2.517856,0 0,-1 z m 2.937498,0 0,1 2.55982,0 0,-1 z m 2.979462,0 0,1 3.650891,0 0,-1 z m 4.070534,0 0,1 0.755356,0 0,-1 z m 1.174999,0 0,1 4.741961,0 0,-1 z m -11.246421,9 0,1 3.273212,0 0,-1 z m 3.692854,0 0,1 3.021427,0 0,-1 z m 3.483034,0 0,1 2.601784,0 0,-1 z m 3.021426,0 0,1 4.154462,0 0,-1 z m 4.616069,0 0,1 6.756245,0 0,-1 z"
         style="fill:url(#linearGradient3940);fill-opacity:1;stroke:none;display:inline"
         inkscape:connector-curvature="0" />
      <path
         sodipodi:nodetypes="cccccccccc"
         id="path4063"
         d="m 15,21 0,1 4.112497,0 0,-1 z m 0,3 0,1 4.154461,0 0,-1 z"
         style="fill:url(#linearGradient3938);fill-opacity:1;stroke:none;display:inline"
         inkscape:connector-curvature="0" />
      <path
         sodipodi:nodetypes="cccccccccccccccccccccccccccccccccccccccccccccccccccccccccccccccccccccccccccccccc"
         id="path4061"
         d="m 19.574104,21 0,1 7.511602,0 0,-1 z m 0.04196,3 0,1 6.840174,0 0,-1 z m 1.594642,21 0,1 6.168746,0 0,-1 z m 6.630353,0 0,1 2.433927,0 0,-1 z m 2.895534,0 0,1 5.791067,0 0,-1 z m 6.252674,0 0,1 3.986605,0 0,-1 z m 4.406247,0 0,1 1.552678,0 0,-1 z m 2.014285,0 0,1 0.923213,0 0,-1 z m 1.342856,0 0,1 2.475891,0 0,-1 z m -21.527665,3 0,1 1.091071,0 0,-1 z m 1.384821,0 0,1 2.182141,0 0,-1 z m 2.517855,0 0,1 2.182142,0 0,-1 z m 2.85357,0 0,1 3.483033,0 0,-1 z m 3.902676,0 0,1 4.53214,0 0,-1 z m 5.161604,0 0,1 3.063391,0 0,-1 z m 3.441069,0 0,1 0.713392,0 0,-1 z"
         style="fill:url(#linearGradient3934);fill-opacity:1;stroke:none;display:inline"
         inkscape:connector-curvature="0" />
      <path
         sodipodi:nodetypes="ccccc"
         d="m 15,51 4.077913,0 0,1 L 15,52 z"
         id="path4009"
         style="fill:url(#linearGradient3936);fill-opacity:1;stroke:none;display:inline"
         inkscape:connector-curvature="0" />
      <path
         sodipodi:nodetypes="cccccccccccccccccccccccccccccccccccccccccccccccccc"
         id="path4007"
         d="m 18.692854,27 0,1 3.021427,0 0,-1 z M 15,30 l 0,1 1.342856,0 0,-1 z m 4.23839,3 0,1 2.475891,0 0,-1 z m 0.167857,3 0,1 3.65089,0 0,-1 z m -0.461607,3 0,1 2.769641,0 0,-1 z m -0.503571,3 0,1 2.853569,0 0,-1 z M 15,45 l 0,1 5.749103,0 0,-1 z m 0,3 0,1 4.951782,0 0,-1 z m 5.32946,0 0,1 2.391963,0 0,-1 z m -0.839285,3 0,1 4.490176,0 0,-1 z"
         style="fill:url(#linearGradient3930);fill-opacity:1;stroke:none;display:inline"
         inkscape:connector-curvature="0" />
      <path
         sodipodi:nodetypes="ccccccccccccccccccccccccc"
         id="path5302"
         d="m 15,27 0,1 3.147319,0 0,-1 z m 0,6 0,1 3.692854,0 0,-1 z m 0,3 0,1 3.94464,0 0,-1 z m 0,3 0,1 3.399105,0 0,-1 z m 0,3 0,1 2.979462,0 0,-1 z"
         style="fill:url(#linearGradient3932);fill-opacity:1;stroke:none;display:inline"
         inkscape:connector-curvature="0" />
    </g>
    <path
       inkscape:connector-curvature="0"
       id="path3354"
       d="m 41.520839,42.49999 -4.402062,0 0,-9.652315 c -1.2e-5,-1.192361 -0.182829,-2.084177 -0.548453,-2.675449 -0.356025,-0.601101 -0.90929,-0.901658 -1.659795,-0.901671 -0.567706,1.3e-5 -1.043994,0.118265 -1.428865,0.354756 -0.384888,0.236516 -0.692792,0.586344 -0.923711,1.049486 -0.230936,0.463164 -0.394509,1.034715 -0.490722,1.714652 -0.09623,0.679959 -0.144337,1.45845 -0.14433,2.335476 l 0,7.775065 -4.402061,0 0,-23.000001 4.402061,0 0.02888,8.588047 c 0.47147,-0.857312 1.072844,-1.473206 1.804123,-1.847686 0.731263,-0.384303 1.558753,-0.576462 2.482475,-0.576479 0.798613,1.7e-5 1.520262,0.118269 2.164948,0.354756 0.654282,0.226665 1.212356,0.586349 1.674226,1.079048 0.461841,0.492732 0.817854,1.123409 1.068042,1.892032 0.250156,0.758796 0.375241,1.67032 0.375258,2.734575 l 0,10.775708 z"
       style="font-size:29.91349983px;font-style:normal;font-variant:normal;font-weight:bold;font-stretch:normal;line-height:125%;letter-spacing:0px;word-spacing:0px;color:#000000;fill:url(#radialGradient3094);fill-opacity:1;fill-rule:nonzero;stroke:url(#linearGradient3096-9);stroke-width:0.99999994;stroke-linecap:butt;stroke-linejoin:round;stroke-miterlimit:4;stroke-opacity:1;stroke-dashoffset:0;marker:none;visibility:visible;display:inline;overflow:visible;enable-background:accumulate;font-family:Droid Sans;-inkscape-font-specification:Droid Sans Bold"
       sodipodi:nodetypes="ccccccscsccccccccccccc" />
    <path
       inkscape:connector-curvature="0"
       id="path3352"
       d="m 18.539535,39.987138 c -1e-6,-0.463151 0.06254,-0.852397 0.18763,-1.167738 0.134705,-0.32519 0.317523,-0.586328 0.548453,-0.78342 0.230925,-0.197082 0.500341,-0.339969 0.808248,-0.428662 0.3079,-0.08868 0.639858,-0.13303 0.995876,-0.133034 0.336765,4e-6 0.65429,0.04435 0.952577,0.133034 0.307898,0.08869 0.577314,0.23158 0.808247,0.428662 0.230922,0.197092 0.41374,0.45823 0.548454,0.78342 0.134702,0.315341 0.202055,0.704587 0.202062,1.167738 -7e-6,0.443446 -0.06736,0.822837 -0.202062,1.138175 -0.134714,0.315339 -0.317532,0.576478 -0.548454,0.783418 -0.230933,0.206941 -0.500349,0.354756 -0.808247,0.443445 -0.298287,0.09854 -0.615812,0.147815 -0.952577,0.147815 -0.356018,0 -0.687976,-0.04927 -0.995876,-0.147815 -0.307907,-0.08869 -0.577323,-0.236504 -0.808248,-0.443445 -0.23093,-0.20694 -0.413748,-0.468079 -0.548453,-0.783418 -0.125088,-0.315338 -0.187631,-0.694729 -0.18763,-1.138175"
       style="font-size:29.91349983px;font-style:normal;font-variant:normal;font-weight:bold;font-stretch:normal;line-height:125%;letter-spacing:0px;word-spacing:0px;color:#000000;fill:url(#radialGradient3394);fill-opacity:1;fill-rule:nonzero;stroke:url(#linearGradient3396);stroke-width:0.99999994;stroke-linecap:butt;stroke-linejoin:round;stroke-miterlimit:4;stroke-opacity:1;stroke-dashoffset:0;marker:none;visibility:visible;display:inline;overflow:visible;enable-background:accumulate;font-family:Droid Sans;-inkscape-font-specification:Droid Sans Bold" />
    <path
       sodipodi:type="inkscape:offset"
       inkscape:radius="-1.0304115"
       inkscape:original="M 17.5 10.71875 L 17.5 33.5 L 21.96875 33.5 L 21.96875 25.78125 C 21.968743 24.912118 22.027337 24.142587 22.125 23.46875 C 22.222649 22.794933 22.390618 22.240246 22.625 21.78125 C 22.859367 21.322278 23.171867 20.984388 23.5625 20.75 C 23.953116 20.515638 24.423819 20.375013 25 20.375 C 25.761708 20.375013 26.326161 20.68556 26.6875 21.28125 C 27.058582 21.867199 27.249988 22.75587 27.25 23.9375 L 27.25 33.5 L 31.71875 33.5 L 31.71875 22.8125 C 31.718733 21.757824 31.56639 20.876966 31.3125 20.125 C 31.058578 19.363295 30.718734 18.738296 30.25 18.25 C 29.781235 17.761735 29.195298 17.380875 28.53125 17.15625 C 27.87694 16.921892 27.154285 16.812517 26.34375 16.8125 C 25.40624 16.812517 24.554678 16.994157 23.8125 17.375 C 23.070305 17.746109 22.478508 18.369156 22 19.21875 L 21.75 19.21875 C 21.77929 18.789077 21.835931 18.355484 21.875 17.90625 C 21.90429 17.525407 21.917962 17.105485 21.9375 16.65625 C 21.957024 16.197283 21.968743 15.753924 21.96875 15.34375 L 21.96875 10.71875 L 17.5 10.71875 z "
       style="font-size:30px;font-style:normal;font-variant:normal;font-weight:bold;font-stretch:normal;line-height:125%;letter-spacing:0px;word-spacing:0px;opacity:0.5;color:#000000;fill:none;stroke:url(#linearGradient4596-7);stroke-width:0.99328101;stroke-linecap:butt;stroke-linejoin:round;stroke-miterlimit:4;stroke-opacity:1;stroke-dasharray:none;stroke-dashoffset:0;marker:none;visibility:visible;display:inline;overflow:visible;enable-background:accumulate;font-family:Droid Sans;-inkscape-font-specification:Droid Sans Bold"
       id="path3216"
       d="m 18.53125,11.75 0,20.71875 2.40625,0 0,-6.6875 c -7e-6,-0.915448 0.051,-1.742602 0.15625,-2.46875 0.110192,-0.760366 0.328385,-1.419131 0.625,-2 0.30993,-0.606951 0.755131,-1.103067 1.3125,-1.4375 0.547837,-0.328692 1.224924,-0.531233 1.96875,-0.53125 1.026457,1.8e-5 1.999545,0.530616 2.53125,1.375 l 0.03125,0 c 0.0051,0.008 -0.005,0.02321 0,0.03125 0.525721,0.844559 0.718737,1.906788 0.71875,3.1875 l 0,8.53125 2.40625,0 0,-9.65625 c -1.5e-5,-0.95546 -0.127915,-1.704493 -0.34375,-2.34375 a 1.0305145,1.0305145 0 0 1 0,-0.03125 C 30.123581,19.777045 29.83685,19.319658 29.5,18.96875 29.142926,18.596822 28.690935,18.295295 28.1875,18.125 c -0.523381,-0.187462 -1.125899,-0.281235 -1.84375,-0.28125 -0.804428,1.5e-5 -1.486759,0.142063 -2.0625,0.4375 -0.525544,0.26278 -0.969054,0.71674 -1.375,1.4375 A 1.0305145,1.0305145 0 0 1 22,20.25 l -0.25,0 a 1.0305145,1.0305145 0 0 1 -1.03125,-1.09375 c 0.03222,-0.472673 0.08842,-0.923141 0.125,-1.34375 0.02673,-0.347547 0.04266,-0.731264 0.0625,-1.1875 0.01907,-0.448308 0.03124,-0.89069 0.03125,-1.28125 l 0,-3.59375 -2.40625,0 z"
       transform="matrix(1,0,0,1.0135747,9.9401031,8.55925)" />
    <path
       inkscape:connector-curvature="0"
       id="path3352-4"
       d="m 19.539536,39.999989 c -10e-7,-0.276469 0.03714,-0.508822 0.111429,-0.697059 0.08,-0.194116 0.18857,-0.349998 0.325714,-0.467649 0.137141,-0.117644 0.297141,-0.202938 0.48,-0.255881 0.182855,-0.05293 0.379998,-0.07941 0.591429,-0.07941 0.199997,3e-6 0.388568,0.02647 0.565714,0.07941 0.182854,0.05294 0.342854,0.138237 0.48,0.255881 0.137139,0.117651 0.245711,0.273533 0.325714,0.467649 0.08,0.188237 0.119996,0.42059 0.12,0.697059 -4e-6,0.264707 -0.04001,0.491177 -0.12,0.679412 -0.08,0.188237 -0.188575,0.344118 -0.325714,0.467648 -0.137146,0.123529 -0.297146,0.211765 -0.48,0.264706 -0.177146,0.05882 -0.365717,0.08823 -0.565714,0.08823 -0.211431,0 -0.408574,-0.02941 -0.591429,-0.08823 -0.182859,-0.05294 -0.342859,-0.141177 -0.48,-0.264706 -0.137144,-0.12353 -0.245715,-0.279411 -0.325714,-0.467648 -0.07429,-0.188235 -0.11143,-0.414705 -0.111429,-0.679412"
       style="font-size:29.91349983px;font-style:normal;font-variant:normal;font-weight:bold;font-stretch:normal;line-height:125%;letter-spacing:0px;word-spacing:0px;opacity:0.5;color:#000000;fill:none;stroke:url(#linearGradient3471);stroke-width:0.99999994;stroke-linecap:butt;stroke-linejoin:round;stroke-miterlimit:4;stroke-opacity:1;stroke-dashoffset:0;marker:none;visibility:visible;display:inline;overflow:visible;enable-background:accumulate;font-family:Droid Sans;-inkscape-font-specification:Droid Sans Bold" />
  </g>
</svg>
