<?xml version="1.0" encoding="UTF-8" standalone="no"?>
<!-- Created with Inkscape (http://www.inkscape.org/) -->

<svg
   xmlns:dc="http://purl.org/dc/elements/1.1/"
   xmlns:cc="http://creativecommons.org/ns#"
   xmlns:rdf="http://www.w3.org/1999/02/22-rdf-syntax-ns#"
   xmlns:svg="http://www.w3.org/2000/svg"
   xmlns="http://www.w3.org/2000/svg"
   xmlns:xlink="http://www.w3.org/1999/xlink"
   xmlns:inkscape="http://www.inkscape.org/namespaces/inkscape"
   version="1.1"
   width="48"
   height="48"
   id="svg3964">
  <defs
     id="defs3966">
    <linearGradient
       x1="44.424442"
       y1="60.535198"
       x2="44.424442"
       y2="-5.496769"
       id="linearGradient3126"
       xlink:href="#linearGradient3856-1-6"
       gradientUnits="userSpaceOnUse"
       gradientTransform="matrix(0.75000339,0,0,0.75000339,-10,1.7500839)" />
    <linearGradient
       id="linearGradient3856-1-6">
      <stop
         id="stop3858-0-6"
         style="stop-color:#634215;stop-opacity:1"
         offset="0" />
      <stop
         id="stop3860-2-8"
         style="stop-color:#93700d;stop-opacity:1"
         offset="1" />
    </linearGradient>
    <linearGradient
       x1="29.126724"
       y1="19.787613"
       x2="29.291178"
       y2="57.567127"
       id="linearGradient3130"
       xlink:href="#linearGradient3117-8"
       gradientUnits="userSpaceOnUse"
       gradientTransform="matrix(1.0368452,0,-0.00451336,1.0845986,-6.11049,-18.449436)" />
    <linearGradient
       id="linearGradient3117-8">
      <stop
         id="stop3119-9"
         style="stop-color:#ffffff;stop-opacity:1"
         offset="0" />
      <stop
         id="stop3121-9"
         style="stop-color:#ffffff;stop-opacity:0.23529412"
         offset="0.56911701" />
      <stop
         id="stop3123-6"
         style="stop-color:#ffffff;stop-opacity:0.15686275"
         offset="0.93297637" />
      <stop
         id="stop3125-3"
         style="stop-color:#ffffff;stop-opacity:0.39215687"
         offset="1" />
    </linearGradient>
    <linearGradient
       x1="24"
       y1="-14.603537"
       x2="24"
       y2="54.669891"
       id="linearGradient3133"
       xlink:href="#linearGradient3846-7"
       gradientUnits="userSpaceOnUse"
       gradientTransform="matrix(0.97781815,0,0,0.97679637,0.53247,0.9846339)" />
    <linearGradient
       id="linearGradient3846-7">
      <stop
         id="stop3848-7"
         style="stop-color:#fff3cb;stop-opacity:1"
         offset="0" />
      <stop
         id="stop3850-5"
         style="stop-color:#fdde76;stop-opacity:1"
         offset="0.26238" />
      <stop
         id="stop3852-9"
         style="stop-color:#f9c440;stop-opacity:1"
         offset="0.66093999" />
      <stop
         id="stop3854-2"
         style="stop-color:#e48b20;stop-opacity:1"
         offset="1" />
    </linearGradient>
    <radialGradient
       cx="605.71429"
       cy="486.64789"
       r="117.14286"
       fx="605.71429"
       fy="486.64789"
       id="radialGradient3136"
       xlink:href="#linearGradient5060-6"
       gradientUnits="userSpaceOnUse"
       gradientTransform="matrix(0.02409728,0,0,0.01544124,28.97772,36.588514)" />
    <linearGradient
       id="linearGradient5060-6">
      <stop
         id="stop5062-0"
         style="stop-color:#000000;stop-opacity:1"
         offset="0" />
      <stop
         id="stop5064-0"
         style="stop-color:#000000;stop-opacity:0"
         offset="1" />
    </linearGradient>
    <radialGradient
       cx="605.71429"
       cy="486.64789"
       r="117.14286"
       fx="605.71429"
       fy="486.64789"
       id="radialGradient3139"
       xlink:href="#linearGradient5060-6"
       gradientUnits="userSpaceOnUse"
       gradientTransform="matrix(-0.02409728,0,0,0.01544124,19.0225,36.588514)" />
    <linearGradient
       id="linearGradient5048-2">
      <stop
         id="stop5050-6"
         style="stop-color:#000000;stop-opacity:0"
         offset="0" />
      <stop
         id="stop5056-4"
         style="stop-color:#000000;stop-opacity:1"
         offset="0.5" />
      <stop
         id="stop5052-5"
         style="stop-color:#000000;stop-opacity:0"
         offset="1" />
    </linearGradient>
    <linearGradient
       x1="302.85715"
       y1="366.64789"
       x2="302.85715"
       y2="609.50507"
       id="linearGradient3962"
       xlink:href="#linearGradient5048-2"
       gradientUnits="userSpaceOnUse"
       gradientTransform="matrix(0.0807696,0,0,0.01544124,-5.19233,36.588514)" />
  </defs>
  <metadata
     id="metadata3969">
    <rdf:RDF>
      <cc:Work
         rdf:about="">
        <dc:format>image/svg+xml</dc:format>
        <dc:type
           rdf:resource="http://purl.org/dc/dcmitype/StillImage" />
        <dc:title />
      </cc:Work>
    </rdf:RDF>
  </metadata>
  <g
     id="layer1">
    <rect
       width="39.000179"
       height="3.7500169"
       x="4.5000091"
       y="42.249985"
       id="rect2879-1"
       style="opacity:0.3;fill:url(#linearGradient3962);fill-opacity:1;fill-rule:nonzero;stroke:none;stroke-width:1;marker:none;visibility:visible;display:inline;overflow:visible" />
    <path
       d="m 4.50002,42.250134 c 0,0 0,3.7498 0,3.7498 -1.24095,0.007 -3.00001,-0.84016 -3.00001,-1.87516 0,-1.03501 1.3848,-1.87464 3.00001,-1.87464 z"
       inkscape:connector-curvature="0"
       id="path2881-5"
       style="opacity:0.3;fill:url(#radialGradient3139);fill-opacity:1;fill-rule:nonzero;stroke:none;stroke-width:1;marker:none;visibility:visible;display:inline;overflow:visible" />
    <path
       d="m 43.5002,42.250134 c 0,0 0,3.7498 0,3.7498 1.24094,0.007 3.00001,-0.84016 3.00001,-1.87516 0,-1.03501 -1.38481,-1.87464 -3.00001,-1.87464 z"
       inkscape:connector-curvature="0"
       id="path2883-9"
       style="opacity:0.3;fill:url(#radialGradient3136);fill-opacity:1;fill-rule:nonzero;stroke:none;stroke-width:1;marker:none;visibility:visible;display:inline;overflow:visible" />
    <path
       d="M 45.68698,40.055514 26.58999,4.0553539 c -0.54891,-1 -1.54213,-1.55556 -2.64829,-1.55556 -1.10615,0 -2.10447,0.66666 -2.66171,1.66667 L 2.3252,40.166634 c -0.44617,0.88889 -0.45127,2.11112 0.0981,3.00001 0.54936,0.8889 1.43243,1.33334 2.53859,1.33334 l 38.05177,0 c 1.10616,0 2.10401,-0.55556 2.55019,-1.44445 0.55677,-0.88889 0.56141,-2.00001 0.12312,-3.00002 z"
       inkscape:connector-curvature="0"
       id="path11155-5"
       style="fill:url(#linearGradient3133);fill-opacity:1;fill-rule:nonzero;stroke:none" />
    <path
       d="M 44.0645,39.313844 26.11963,5.4280939 c -0.76426,-1.45976 -1.03837,-1.92811 -2.19983,-1.92811 -0.99893,0 -1.52161,0.68209 -2.2435,2.05999 L 3.93062,39.418434 c -1.03046,1.90095 -1.14086,2.39647 -0.64487,3.23315 0.49598,0.83669 1.13281,0.79112 3.48582,0.84569 l 34.87808,0 c 2.19061,0.0273 2.68406,-0.14089 3.08712,-0.97757 0.50295,-0.83669 0.28902,-1.50049 -0.67227,-3.20586 z"
       inkscape:connector-curvature="0"
       id="path11159-4"
       style="opacity:0.6;fill:none;stroke:url(#linearGradient3130);stroke-width:1;stroke-miterlimit:4;stroke-opacity:1;stroke-dasharray:none" />
    <path
       d="m 21.58199,15.123284 c 0.56298,5.49932 1.20785,10.9608 1.6871,16.48166 0.48203,0 1.04739,0 1.52942,0 0.39752,-5.30178 1.03869,-10.57153 1.50122,-15.86673 0.23577,-1.25384 -0.40799,-2.74252 -1.732,-3.04715 -1.30833,-0.38251 -2.77006,0.56471 -2.94403,1.91776 -0.0288,0.16985 -0.0417,0.34223 -0.0417,0.51446 l -10e-6,0 z m -0.16686,22.3587 c -0.0595,1.63694 1.74163,2.92014 3.27948,2.40116 1.48951,-0.38014 2.27406,-2.25228 1.51068,-3.58305 -0.68335,-1.37565 -2.68725,-1.82889 -3.84001,-0.77606 -0.58269,0.47872 -0.96891,1.19339 -0.95015,1.95795 l 0,0 z"
       inkscape:connector-curvature="0"
       id="text2315-7-2"
       style="font-size:62.4582634px;font-style:normal;font-variant:normal;font-weight:normal;font-stretch:normal;text-align:start;line-height:125%;writing-mode:lr-tb;text-anchor:start;opacity:0.3;fill:#ffffff;fill-opacity:1;stroke:none;font-family:Georgia" />
    <path
       d="m 21.58199,14.122974 c 0.56298,5.49932 1.20785,10.9608 1.6871,16.48166 0.48203,0 1.04739,0 1.52942,0 0.39752,-5.30178 1.03869,-10.57152 1.50122,-15.86673 0.23577,-1.25383 -0.40799,-2.74252 -1.732,-3.04715 -1.30833,-0.38251 -2.77006,0.56472 -2.94403,1.91776 -0.0288,0.16985 -0.0417,0.34223 -0.0417,0.51446 l -10e-6,0 z m -0.16686,22.3587 c -0.0595,1.63694 1.74163,2.92014 3.27948,2.40117 1.48951,-0.38015 2.27406,-2.25229 1.51068,-3.58306 -0.68335,-1.37564 -2.68725,-1.82889 -3.84001,-0.77606 -0.58269,0.47873 -0.96891,1.19339 -0.95015,1.95795 l 0,0 z"
       inkscape:connector-curvature="0"
       id="path3295-1-9"
       style="font-size:62.4582634px;font-style:normal;font-variant:normal;font-weight:normal;font-stretch:normal;text-align:start;line-height:125%;writing-mode:lr-tb;text-anchor:start;color:#000000;fill:url(#linearGradient3126);fill-opacity:1;fill-rule:nonzero;stroke:none;marker:none;visibility:visible;display:inline;overflow:visible;enable-background:accumulate;font-family:Georgia" />
    <path
       d="M 45.68698,40.055514 26.58999,4.0553539 c -0.54891,-1 -1.54213,-1.55556 -2.64829,-1.55556 -1.10615,0 -2.10447,0.66666 -2.66171,1.66667 L 2.3252,40.166634 c -0.44617,0.88889 -0.45127,2.11112 0.0981,3.00001 0.54936,0.8889 1.43243,1.33334 2.53859,1.33334 l 38.05177,0 c 1.10616,0 2.10401,-0.55556 2.55019,-1.44445 0.55677,-0.88889 0.56141,-2.00001 0.12312,-3.00002 z"
       inkscape:connector-curvature="0"
       id="path11155-8"
       style="opacity:0.4;fill:none;stroke:#311d00;stroke-width:0.99999982;stroke-miterlimit:4;stroke-opacity:1;stroke-dasharray:none" />
  </g>
</svg>
