<?xml version="1.0" encoding="UTF-8" standalone="no"?>
<!-- Created with Inkscape (http://www.inkscape.org/) -->

<svg
   xmlns:dc="http://purl.org/dc/elements/1.1/"
   xmlns:cc="http://creativecommons.org/ns#"
   xmlns:rdf="http://www.w3.org/1999/02/22-rdf-syntax-ns#"
   xmlns:svg="http://www.w3.org/2000/svg"
   xmlns="http://www.w3.org/2000/svg"
   xmlns:xlink="http://www.w3.org/1999/xlink"
   xmlns:sodipodi="http://sodipodi.sourceforge.net/DTD/sodipodi-0.dtd"
   xmlns:inkscape="http://www.inkscape.org/namespaces/inkscape"
   version="1.1"
   width="48"
   height="48"
   id="svg4460"
   inkscape:version="0.48.4 r9939"
   sodipodi:docname="network-error.svg">
  <sodipodi:namedview
     pagecolor="#ffffff"
     bordercolor="#666666"
     borderopacity="1"
     objecttolerance="10"
     gridtolerance="10"
     guidetolerance="10"
     inkscape:pageopacity="0"
     inkscape:pageshadow="2"
     inkscape:window-width="1440"
     inkscape:window-height="845"
     id="namedview66"
     showgrid="false"
     inkscape:zoom="4.9166667"
     inkscape:cx="-8.440678"
     inkscape:cy="24"
     inkscape:window-x="0"
     inkscape:window-y="30"
     inkscape:window-maximized="1"
     inkscape:current-layer="svg4460" />
  <defs
     id="defs4462">
    <linearGradient
       x1="37.5"
       y1="23"
       x2="49.089928"
       y2="23.172663"
       id="linearGradient4340"
       xlink:href="#linearGradient3678"
       gradientUnits="userSpaceOnUse"
       gradientTransform="matrix(0.91421579,0,0,-0.91421579,0.7038908,45.027255)" />
    <linearGradient
       id="linearGradient3678">
      <stop
         id="stop3680"
         style="stop-color:#ffffff;stop-opacity:0.13368984"
         offset="0" />
      <stop
         id="stop3682"
         style="stop-color:#ffffff;stop-opacity:0"
         offset="1" />
    </linearGradient>
    <linearGradient
       x1="4.4897356"
       y1="23"
       x2="47.500416"
       y2="23"
       id="linearGradient4344"
       xlink:href="#linearGradient3672"
       gradientUnits="userSpaceOnUse"
       gradientTransform="matrix(0.91421579,0,0,-0.91421579,0.7038908,45.027255)" />
    <linearGradient
       id="linearGradient3672">
      <stop
         id="stop3674"
         style="stop-color:#ffffff;stop-opacity:0.49197862"
         offset="0" />
      <stop
         id="stop3676"
         style="stop-color:#ffffff;stop-opacity:1"
         offset="1" />
    </linearGradient>
    <linearGradient
       x1="14.893399"
       y1="23.707106"
       x2="2.8318863"
       y2="24.108988"
       id="linearGradient4347"
       xlink:href="#linearGradient3678"
       gradientUnits="userSpaceOnUse"
       gradientTransform="matrix(0.64644818,-0.64644818,-0.64644818,-0.64644818,22.231006,55.436572)" />
    <linearGradient
       x1="48.127419"
       y1="25.828426"
       x2="2.8725832"
       y2="24.414213"
       id="linearGradient4351"
       xlink:href="#linearGradient3672"
       gradientUnits="userSpaceOnUse"
       gradientTransform="matrix(0.64644818,-0.64644818,-0.64644818,-0.64644818,22.231006,55.436572)" />
    <linearGradient
       x1="46.006096"
       y1="23.707108"
       x2="4.2867966"
       y2="27.242641"
       id="linearGradient4355"
       xlink:href="#linearGradient3672"
       gradientUnits="userSpaceOnUse"
       gradientTransform="matrix(0.64644818,0.64644818,-0.64644818,0.64644818,22.400273,-7.35245)" />
    <linearGradient
       x1="14.893399"
       y1="22.292894"
       x2="4.0629644"
       y2="21.829967"
       id="linearGradient4358"
       xlink:href="#linearGradient3678"
       gradientUnits="userSpaceOnUse"
       gradientTransform="matrix(0.64644818,0.64644818,-0.64644818,0.64644818,22.400273,-7.35245)" />
    <linearGradient
       x1="3.5"
       y1="23"
       x2="47.5"
       y2="23"
       id="linearGradient4362"
       xlink:href="#linearGradient3672"
       gradientUnits="userSpaceOnUse"
       gradientTransform="matrix(0,0.91421579,0.91421579,0,2.9894266,0.6877848)" />
    <linearGradient
       x1="35.5"
       y1="22"
       x2="48.262592"
       y2="21.91367"
       id="linearGradient4365"
       xlink:href="#linearGradient3678"
       gradientUnits="userSpaceOnUse"
       gradientTransform="matrix(0,0.91421579,0.91421579,0,2.9894266,0.6877848)" />
    <linearGradient
       x1="71.204407"
       y1="15.369057"
       x2="71.204407"
       y2="40.495617"
       id="linearGradient4338-5-6"
       xlink:href="#linearGradient4806-2"
       gradientUnits="userSpaceOnUse"
       gradientTransform="matrix(1.6169806,0,0,1.6169806,-92.70737,-21.060237)" />
    <linearGradient
       id="linearGradient4806-2">
      <stop
         id="stop4808-4"
         style="stop-color:#ffffff;stop-opacity:1"
         offset="0" />
      <stop
         id="stop4810-0"
         style="stop-color:#ffffff;stop-opacity:0.23529412"
         offset="0.42447853" />
      <stop
         id="stop4812-8"
         style="stop-color:#ffffff;stop-opacity:0.15686275"
         offset="0.82089913" />
      <stop
         id="stop4814-0"
         style="stop-color:#ffffff;stop-opacity:0.39215687"
         offset="1" />
    </linearGradient>
    <radialGradient
       cx="15.026252"
       cy="8.6257601"
       r="19.99999"
       fx="-0.94055694"
       fy="8.625761"
       id="radialGradient3126-3"
       xlink:href="#linearGradient4632-92-3-0-8"
       gradientUnits="userSpaceOnUse"
       gradientTransform="matrix(-6.7138025e-8,1.1033078,-1.0394758,-7.5994237e-8,32.783451,3.760134)" />
    <linearGradient
       id="linearGradient4632-92-3-0-8">
      <stop
         id="stop4634-68-8-0-2"
         style="stop-color:#cdc9e3;stop-opacity:1"
         offset="0" />
      <stop
         id="stop4636-8-21-7-1"
         style="stop-color:#9389cb;stop-opacity:1"
         offset="1" />
    </linearGradient>
    <linearGradient
       id="linearGradient3820-7-2-1">
      <stop
         id="stop3822-2-6-3"
         style="stop-color:#3d3d3d;stop-opacity:1"
         offset="0" />
      <stop
         id="stop3864-8-7-7"
         style="stop-color:#686868;stop-opacity:0.49803922"
         offset="0.5" />
      <stop
         id="stop3824-1-2-5"
         style="stop-color:#686868;stop-opacity:0"
         offset="1" />
    </linearGradient>
    <radialGradient
       cx="99.157013"
       cy="186.17059"
       r="62.769119"
       fx="99.157013"
       fy="186.17059"
       id="radialGradient4458"
       xlink:href="#linearGradient3820-7-2-1"
       gradientUnits="userSpaceOnUse"
       gradientTransform="matrix(1,0,0,0.1666667,0,155.14216)" />
    <linearGradient
       x1="63.397362"
       y1="-12.489107"
       x2="63.397362"
       y2="5.4675598"
       id="linearGradient3066"
       xlink:href="#linearGradient4873"
       gradientUnits="userSpaceOnUse"
       gradientTransform="matrix(1.0862728,0,0,1.0862481,-31.56661,39.813638)" />
    <linearGradient
       id="linearGradient4873">
      <stop
         id="stop4875"
         style="stop-color:#ffffff;stop-opacity:1"
         offset="0" />
      <stop
         id="stop4877"
         style="stop-color:#ffffff;stop-opacity:0"
         offset="1" />
    </linearGradient>
    <linearGradient
       id="linearGradient3242">
      <stop
         id="stop3244"
         style="stop-color:#f8b17e;stop-opacity:1"
         offset="0" />
      <stop
         id="stop3246"
         style="stop-color:#e35d4f;stop-opacity:1"
         offset="0.26238" />
      <stop
         id="stop3248"
         style="stop-color:#c6262e;stop-opacity:1"
         offset="0.66093999" />
      <stop
         id="stop3250"
         style="stop-color:#690b54;stop-opacity:1"
         offset="1" />
    </linearGradient>
    <radialGradient
       cx="23.407145"
       cy="3.9900031"
       r="20.397499"
       fx="23.407145"
       fy="3.9900031"
       id="radialGradient3071"
       xlink:href="#linearGradient3242"
       gradientUnits="userSpaceOnUse"
       gradientTransform="matrix(0,1.4039288,-1.8531612,0,43.394119,-8.838349)" />
    <linearGradient
       gradientTransform="matrix(0.48890916,0,0,0.48839827,0.26618161,0.74232159)"
       gradientUnits="userSpaceOnUse"
       xlink:href="#linearGradient3846-7"
       id="linearGradient3094"
       y2="54.669891"
       x2="24"
       y1="-14.603537"
       x1="24" />
    <linearGradient
       gradientTransform="matrix(0.49373581,0,-0.00214922,0.51518426,-2.3383831,-7.425973)"
       gradientUnits="userSpaceOnUse"
       xlink:href="#linearGradient3117-8"
       id="linearGradient3091"
       y2="57.567127"
       x2="29.291178"
       y1="19.787613"
       x1="29.126724" />
    <linearGradient
       gradientTransform="matrix(0.3750017,0,0,0.3750017,-4.9788628,1.3752029)"
       gradientUnits="userSpaceOnUse"
       xlink:href="#linearGradient3856-1-6"
       id="linearGradient3087"
       y2="-5.496769"
       x2="44.424442"
       y1="60.535198"
       x1="44.424442" />
    <linearGradient
       id="linearGradient3856-1-6">
      <stop
         offset="0"
         style="stop-color:#634215;stop-opacity:1"
         id="stop3858-0-6" />
      <stop
         offset="1"
         style="stop-color:#93700d;stop-opacity:1"
         id="stop3860-2-8" />
    </linearGradient>
    <linearGradient
       id="linearGradient3117-8">
      <stop
         offset="0"
         style="stop-color:#ffffff;stop-opacity:1"
         id="stop3119-9" />
      <stop
         offset="0.56911701"
         style="stop-color:#ffffff;stop-opacity:0.23529412"
         id="stop3121-9" />
      <stop
         offset="0.93297637"
         style="stop-color:#ffffff;stop-opacity:0.15686275"
         id="stop3123-6" />
      <stop
         offset="1"
         style="stop-color:#ffffff;stop-opacity:0.39215687"
         id="stop3125-3" />
    </linearGradient>
    <linearGradient
       id="linearGradient3846-7">
      <stop
         offset="0"
         style="stop-color:#fff3cb;stop-opacity:1"
         id="stop3848-7" />
      <stop
         offset="0.26238"
         style="stop-color:#fdde76;stop-opacity:1"
         id="stop3850-5" />
      <stop
         offset="0.66093999"
         style="stop-color:#f9c440;stop-opacity:1"
         id="stop3852-9" />
      <stop
         offset="1"
         style="stop-color:#e48b20;stop-opacity:1"
         id="stop3854-2" />
    </linearGradient>
    <radialGradient
       gradientTransform="matrix(1.1294118,0,0,0.12941156,-58.729414,22.026471)"
       gradientUnits="userSpaceOnUse"
       xlink:href="#linearGradient8838"
       id="radialGradient2415"
       fy="4.625"
       fx="62.625"
       r="10.625"
       cy="4.625"
       cx="62.625" />
    <linearGradient
       id="linearGradient8838">
      <stop
         offset="0"
         style="stop-color:#000000;stop-opacity:1"
         id="stop8840" />
      <stop
         offset="1"
         style="stop-color:#000000;stop-opacity:0"
         id="stop8842" />
    </linearGradient>
  </defs>
  <metadata
     id="metadata4465">
    <rdf:RDF>
      <cc:Work
         rdf:about="">
        <dc:format>image/svg+xml</dc:format>
        <dc:type
           rdf:resource="http://purl.org/dc/dcmitype/StillImage" />
        <dc:title />
      </cc:Work>
    </rdf:RDF>
  </metadata>
  <g
     id="layer1">
    <path
       d="m 161.92613,186.17059 a 62.769119,10.461519 0 1 1 -125.538236,0 62.769119,10.461519 0 1 1 125.538236,0 z"
       inkscape:connector-curvature="0"
       transform="matrix(0.27083381,0,0,0.52573626,-2.855072,-56.376631)"
       id="path3818-0-5"
       style="fill:url(#radialGradient4458);fill-opacity:1;stroke:none" />
    <path
       d="m 24,3.499999 c -11.311193,0 -20.5,9.188807 -20.5,20.5 0,11.311193 9.188807,20.500003 20.5,20.5 11.311191,0 20.500007,-9.188807 20.5,-20.5 0,-11.311193 -9.188809,-20.5 -20.5,-20.5 z"
       inkscape:connector-curvature="0"
       id="path2555-7-65"
       style="color:#000000;fill:url(#radialGradient3126-3);fill-opacity:1;fill-rule:nonzero;stroke:none;stroke-width:1;marker:none;visibility:visible;display:inline;overflow:visible;enable-background:accumulate" />
    <path
       d="m 24,3.5 c -11.311193,0 -20.5,9.188806 -20.5,20.499999 0,11.311193 9.188807,20.500004 20.5,20.5 11.311191,0 20.500007,-9.188807 20.5,-20.5 C 44.5,12.688806 35.311191,3.5 24,3.5 z"
       inkscape:connector-curvature="0"
       id="path3871"
       style="opacity:0.3;color:#000000;fill:none;stroke:#2b2200;stroke-width:1;marker:none;visibility:visible;display:inline;overflow:visible;enable-background:accumulate" />
    <path
       d="M 43.5,24.000001 C 43.5,34.769552 34.769544,43.499997 23.999991,43.499997 13.230451,43.499997 4.5,34.769552 4.5,24.000001 4.5,13.23045 13.230451,4.500002 23.999991,4.500002 34.769544,4.500002 43.5,13.23045 43.5,24.000001 z"
       inkscape:connector-curvature="0"
       id="path3026"
       style="opacity:0.5;color:#000000;fill:none;stroke:url(#linearGradient4338-5-6);stroke-width:1;stroke-linecap:round;stroke-linejoin:round;stroke-miterlimit:4;stroke-opacity:1;stroke-dasharray:none;stroke-dashoffset:0;marker:none;visibility:visible;display:inline;overflow:visible;enable-background:accumulate" />
    <path
       d="M 23.985743,4.3447704 A 8.68505,19.655639 0 0 0 22.245314,43.242905"
       inkscape:connector-curvature="0"
       id="path3805"
       style="fill:none;stroke:url(#linearGradient4365);stroke-width:1;stroke-linecap:round;stroke-linejoin:round;stroke-miterlimit:4;stroke-opacity:1;stroke-dasharray:none;stroke-dashoffset:0" />
    <path
       d="M 27.695302,41.805415 A 8.68505,19.655639 0 0 0 23.995534,4.3447046"
       inkscape:connector-curvature="0"
       id="path3609"
       style="opacity:0.8;fill:none;stroke:url(#linearGradient4362);stroke-width:1;stroke-linecap:round;stroke-linejoin:round;stroke-miterlimit:4;stroke-opacity:1;stroke-dasharray:none;stroke-dashoffset:0" />
    <path
       d="m 26.073619,41.227497 a 1.8282365,1.8282365 0 0 0 3.656473,0 1.8282365,1.8282365 0 1 0 -3.656473,0 z"
       inkscape:connector-curvature="0"
       id="path3775"
       style="opacity:0.8;color:#000000;fill:#ffffff;fill-opacity:1;fill-rule:nonzero;stroke:#ffffff;stroke-width:1.00042665;stroke-linecap:round;stroke-linejoin:round;stroke-miterlimit:4;stroke-opacity:0.52127662;stroke-dasharray:none;stroke-dashoffset:0;marker:none;visibility:visible;display:inline;overflow:visible;enable-background:accumulate" />
    <path
       d="m 12.563235,8.905818 a 19.655639,8.68505 45 0 1 24.966723,29.3301"
       inkscape:connector-curvature="0"
       id="path3801"
       style="fill:none;stroke:url(#linearGradient4358);stroke-width:1;stroke-linecap:round;stroke-linejoin:round;stroke-miterlimit:4;stroke-opacity:1;stroke-dasharray:none;stroke-dashoffset:0" />
    <path
       d="M 37.91503,37.898924 A 19.655639,8.68505 45 0 1 8.8409434,13.213319"
       inkscape:connector-curvature="0"
       id="path3611"
       style="opacity:0.8;fill:none;stroke:url(#linearGradient4355);stroke-width:1;stroke-linecap:round;stroke-linejoin:round;stroke-miterlimit:4;stroke-opacity:1;stroke-dasharray:none;stroke-dashoffset:0" />
    <path
       d="m 10.76007,13.858304 a 1.8282366,1.8282366 0 0 1 -3.6564731,0 1.8282366,1.8282366 0 1 1 3.6564731,0 z"
       inkscape:connector-curvature="0"
       id="path3781"
       style="opacity:0.8;color:#000000;fill:#ffffff;fill-opacity:1;fill-rule:nonzero;stroke:#ffffff;stroke-width:1.00042665;stroke-linecap:round;stroke-linejoin:round;stroke-miterlimit:4;stroke-opacity:0.52127662;stroke-dasharray:none;stroke-dashoffset:0;marker:none;visibility:visible;display:inline;overflow:visible;enable-background:accumulate" />
    <path
       d="M 38.090981,10.581063 A 8.68505,19.655639 45 0 0 9.0314403,31.564803"
       inkscape:connector-curvature="0"
       id="path3613"
       style="opacity:0.8;fill:none;stroke:url(#linearGradient4351);stroke-width:1;stroke-linecap:round;stroke-linejoin:round;stroke-miterlimit:4;stroke-opacity:1;stroke-dasharray:none;stroke-dashoffset:0" />
    <path
       d="m 8.7625667,34.625766 a 1.8282365,1.8282365 0 0 0 0,-3.656473 1.8282365,1.8282365 0 1 0 0,3.656473 z"
       inkscape:connector-curvature="0"
       id="path3615"
       style="opacity:0.8;fill:#ffffff;fill-opacity:1;stroke:#ffffff;stroke-width:1.00042665;stroke-linecap:round;stroke-linejoin:round;stroke-miterlimit:4;stroke-opacity:0.52127662;stroke-dasharray:none;stroke-dashoffset:0" />
    <path
       d="M 9.9838274,38.017354 A 8.68505,19.655639 45 0 0 38.345658,10.959664"
       inkscape:connector-curvature="0"
       id="path3787"
       style="fill:none;stroke:url(#linearGradient4347);stroke-width:1;stroke-linecap:round;stroke-linejoin:round;stroke-miterlimit:4;stroke-opacity:1;stroke-dasharray:none;stroke-dashoffset:0" />
    <path
       d="M 40.757683,19.449482 A 19.655639,8.68505 0 0 0 4.3822544,24.406406"
       inkscape:connector-curvature="0"
       id="path2835"
       style="fill:none;stroke:url(#linearGradient4344);stroke-width:1;stroke-linecap:round;stroke-linejoin:round;stroke-miterlimit:4;stroke-opacity:1;stroke-dasharray:none;stroke-dashoffset:0" />
    <path
       d="m 42.929046,19.800607 a 1.8282365,1.8282365 0 0 0 -3.656468,0 1.8282365,1.8282365 0 1 0 3.656468,0 z"
       inkscape:connector-curvature="0"
       id="path3722"
       style="opacity:0.8;color:#000000;fill:#ffffff;fill-opacity:1;fill-rule:nonzero;stroke:#ffffff;stroke-width:1.00042665;stroke-linecap:round;stroke-linejoin:round;stroke-miterlimit:4;stroke-opacity:0.52127662;stroke-dasharray:none;stroke-dashoffset:0;marker:none;visibility:visible;display:inline;overflow:visible;enable-background:accumulate" />
    <path
       d="M 4.479048,24.95171 A 19.655639,8.68505 0 0 0 43.639245,24.501724"
       inkscape:connector-curvature="0"
       id="path3797"
       style="fill:none;stroke:url(#linearGradient4340);stroke-width:1;stroke-linecap:round;stroke-linejoin:round;stroke-miterlimit:4;stroke-opacity:1;stroke-dasharray:none;stroke-dashoffset:0" />
  </g>
  <g
     id="g3156"
     transform="translate(24,24)">
    <path
       style="opacity:0.3;fill:url(#radialGradient2415);fill-opacity:1;fill-rule:evenodd;stroke:none;stroke-width:0.99999988;marker:none;visibility:visible;display:inline;overflow:visible"
       id="path8836"
       inkscape:connector-curvature="0"
       d="M 24,22.625 C 24,23.384391 18.627417,24 12,24 5.3725828,24 -2.5e-7,23.384391 -2.5e-7,22.625 -2.5e-7,21.865609 5.3725828,21.25 12,21.25 c 6.627417,0 12,0.615609 12,1.375 l 0,0 z" />
    <path
       style="fill:url(#linearGradient3094);fill-opacity:1;fill-rule:nonzero;stroke:none"
       id="path11155-5"
       inkscape:connector-curvature="0"
       d="M 22.843441,20.277765 13.294944,2.2776819 C 13.020489,1.7776818 12.523879,1.4999018 11.970799,1.4999018 c -0.553075,0 -1.052235,0.33333 -1.330855,0.8333351 L 1.1625466,20.333325 c -0.22308499,0.444445 -0.22563499,1.05556 0.04905,1.500005 0.27468,0.44445 0.716215,0.66667 1.269296,0.66667 l 19.0258884,0 c 0.55308,0 1.052005,-0.27778 1.275095,-0.722225 0.278385,-0.444445 0.280705,-1.000005 0.06156,-1.50001 z" />
    <path
       style="opacity:0.6;fill:none;stroke:url(#linearGradient3091);stroke-width:1;stroke-miterlimit:4;stroke-opacity:1;stroke-dasharray:none"
       id="path11159-4"
       inkscape:connector-curvature="0"
       d="M 21.554469,19.506436 13.009293,3.9158521 c -0.363933,-0.6933859 -0.494462,-1.415852 -1.047538,-1.415852 -0.475681,0 -0.724576,0.8239925 -1.068333,1.4784949 l -8.4503241,15.57762 c -0.490695,0.902951 -0.543267,1.138323 -0.307081,1.535746 0.236181,0.397428 0.539433,0.375782 1.659914,0.401703 l 16.6086101,0 c 1.043148,0.01297 1.278124,-0.06692 1.470057,-0.464346 0.2395,-0.397427 0.137629,-0.712731 -0.320129,-1.522782 z" />
    <path
       style="font-size:62.4582634px;font-style:normal;font-variant:normal;font-weight:normal;font-stretch:normal;text-align:start;line-height:125%;writing-mode:lr-tb;text-anchor:start;opacity:0.3;fill:#ffffff;fill-opacity:1;stroke:none;font-family:Georgia"
       id="text2315-7-2"
       inkscape:connector-curvature="0"
       d="m 10.812132,8.5616499 c 0.28149,2.7496611 0.603925,5.4804011 0.84355,8.2408311 0.241015,0 0.523695,0 0.76471,0 0.19876,-2.65089 0.519345,-5.285765 0.75061,-7.9333661 0.117885,-0.62692 -0.203995,-1.37126 -0.866,-1.523575 -0.654165,-0.1912546 -1.38503,0.282355 -1.472015,0.95888 -0.0144,0.08493 -0.02085,0.171115 -0.02085,0.25723 l -5e-6,0 z m -0.08343,11.1793511 c -0.02975,0.81847 0.870815,1.46007 1.63974,1.20058 0.744755,-0.19007 1.13703,-1.12614 0.75534,-1.791525 -0.341675,-0.687825 -1.343625,-0.914445 -1.920005,-0.38803 -0.291345,0.23936 -0.484455,0.596695 -0.475075,0.978975 l 0,0 z" />
    <path
       style="font-size:62.4582634px;font-style:normal;font-variant:normal;font-weight:normal;font-stretch:normal;text-align:start;line-height:125%;writing-mode:lr-tb;text-anchor:start;color:#000000;fill:url(#linearGradient3087);fill-opacity:1;fill-rule:nonzero;stroke:none;marker:none;visibility:visible;display:inline;overflow:visible;enable-background:accumulate;font-family:Georgia"
       id="path3295-1-9"
       inkscape:connector-curvature="0"
       d="m 10.812132,7.5616475 c 0.28149,2.7496605 0.603925,5.4804005 0.84355,8.2408305 0.241015,0 0.523695,0 0.76471,0 0.19876,-2.65089 0.519345,-5.28576 0.75061,-7.9333655 0.117885,-0.6269146 -0.203995,-1.3712596 -0.866,-1.5235746 -0.654165,-0.191255 -1.38503,0.28236 -1.472015,0.9588796 -0.0144,0.08493 -0.02085,0.171115 -0.02085,0.25723 l -5e-6,0 z m -0.08343,11.1793505 c -0.02975,0.81847 0.870815,1.46007 1.63974,1.200585 0.744755,-0.190075 1.13703,-1.126145 0.75534,-1.79153 -0.341675,-0.68782 -1.343625,-0.914445 -1.920005,-0.38803 -0.291345,0.239365 -0.484455,0.596695 -0.475075,0.978975 l 0,0 z" />
    <path
       style="opacity:0.4;fill:none;stroke:#311d00;stroke-width:0.99999982;stroke-miterlimit:4;stroke-opacity:1;stroke-dasharray:none"
       id="path11155-8"
       inkscape:connector-curvature="0"
       d="M 22.843441,20.277775 13.294944,2.2777769 C 13.020489,1.7777792 12.523879,1.5000004 11.970799,1.5000004 c -0.553075,0 -1.052235,0.3333285 -1.330855,0.8333312 L 1.1625466,20.333335 C 0.93946161,20.777778 0.93691161,21.38889 1.2115966,21.833333 1.4862766,22.277781 1.9278116,22.5 2.4808916,22.5 l 19.0258894,0 c 0.55308,0 1.052005,-0.277779 1.275095,-0.722222 0.278385,-0.444443 0.280705,-1 0.06156,-1.500003 z" />
  </g>
</svg>
