<svg xmlns="http://www.w3.org/2000/svg" xmlns:xlink="http://www.w3.org/1999/xlink" viewBox="0 0 64 64"><defs><path id="S" d="m108.11429 32.57143a16.02857 16.02857 0 1 1 -32.05715 0 16.02857 16.02857 0 1 1 32.05715 0z"/><path id="T" d="m39.649998 39.708927a3.158929 3.158929 0 1 1 -6.317857 0 3.158929 3.158929 0 1 1 6.317857 0"/><linearGradient y1="27.375" x2="0" y2="36.725" id="I" gradientUnits="userSpaceOnUse"><stop stop-color="#170418"/><stop offset="1" stop-color="#50386b"/></linearGradient><linearGradient y1="16.555" x2="0" y2="48.984" id="L" xlink:href="#D" gradientUnits="userSpaceOnUse"/><linearGradient y1="16.543" x2="0" y2="48.631" id="M" gradientUnits="userSpaceOnUse"><stop stop-color="#7a8498"/><stop offset="1" stop-color="#34405c"/></linearGradient><linearGradient y1="52.925" x2="0" y2="65.922" id="B" xlink:href="#3" gradientUnits="userSpaceOnUse" gradientTransform="matrix(.16581 0 0 .12436 20.905 22.577)"/><linearGradient id="D"><stop stop-color="#fff"/><stop offset=".338" stop-color="#fff" stop-opacity=".235"/><stop offset=".62" stop-color="#fff" stop-opacity=".157"/><stop offset="1" stop-color="#fff" stop-opacity=".392"/></linearGradient><linearGradient y1="16.555" x2="0" y2="48.984" id="F" xlink:href="#D" gradientUnits="userSpaceOnUse"/><linearGradient y1="16.555" x2="0" y2="48.984" id="C" xlink:href="#D" gradientUnits="userSpaceOnUse"/><linearGradient id="8"><stop stop-color="#fff" stop-opacity="0"/><stop offset=".405" stop-color="#fff" stop-opacity="0"/><stop offset="1" stop-color="#fff" stop-opacity=".478"/></linearGradient><linearGradient x1="38.851" y1="41.608" x2="34.13" y2="37.81" id="0" gradientUnits="userSpaceOnUse"><stop stop-color="#fbac9b"/><stop offset="1" stop-color="#fcfafc"/></linearGradient><linearGradient x1="38.851" y1="41.608" x2="34.13" y2="37.81" id="1" gradientUnits="userSpaceOnUse"><stop stop-color="#feffff"/><stop offset="1" stop-color="#fe70ca"/></linearGradient><linearGradient id="3"><stop stop-color="#fff"/><stop offset="1" stop-color="#fff" stop-opacity="0"/></linearGradient><linearGradient y1="9.11" x2="0" y2="55.11" id="N" gradientUnits="userSpaceOnUse"><stop stop-color="#b6b6b6"/><stop offset=".331" stop-color="#a4a4a4"/><stop offset="1" stop-color="#c5c5c5"/></linearGradient><linearGradient y1="2.919" x2="0" y2="61.39" id="O" gradientUnits="userSpaceOnUse"><stop stop-color="#fff"/><stop offset=".424" stop-color="#fff" stop-opacity=".235"/><stop offset=".821" stop-color="#fff" stop-opacity=".157"/><stop offset="1" stop-color="#fff" stop-opacity=".392"/></linearGradient><radialGradient cx="91.35" cy="16.448" r="15.639" id="K" gradientUnits="userSpaceOnUse" gradientTransform="matrix(0 1.9804-1.9804 0 123.92-164.46)"><stop stop-color="#2d3955"/><stop offset=".725" stop-color="#2b3853"/><stop offset=".75" stop-color="#192640"/><stop offset="1" stop-color="#08142e"/></radialGradient><radialGradient cx="32" cy="21.239" r="10.498" id="J" gradientUnits="userSpaceOnUse" gradientTransform="matrix(0 2.0115-4.63364 0 130.42-43.13)"><stop stop-color="#07132d"/><stop offset="1" stop-color="#425479"/></radialGradient><radialGradient cx="23.896" cy="3.99" r="20.397" id="Q" gradientUnits="userSpaceOnUse" gradientTransform="matrix(0 1.23165-1.62575 0 18.487-28.722)"><stop stop-color="#fff"/><stop offset=".262" stop-color="#ddd"/><stop offset=".661" stop-color="#abacae"/><stop offset="1" stop-color="#89898b"/></radialGradient><radialGradient cx="23.896" cy="3.99" r="20.397" id="P" xlink:href="#Q" gradientUnits="userSpaceOnUse" gradientTransform="matrix(0 4.15665-5.48671 0 53.893-97.44)"/><radialGradient cx="32.373" cy="31.405" r="7.971" id="E" gradientUnits="userSpaceOnUse"><stop stop-color="#ff54d2" stop-opacity="0"/><stop offset=".324" stop-color="#f62b68"/><stop offset=".561" stop-color="#ff0105"/><stop offset="1" stop-color="#ff54d2" stop-opacity=".478"/></radialGradient><radialGradient cx="23.896" cy="3.99" r="20.397" id="H" gradientUnits="userSpaceOnUse" gradientTransform="matrix(0 .5277-.69656 0 34.779 14.552)"><stop stop-color="#612f91"/><stop offset="1" stop-color="#1a4aa2"/></radialGradient><radialGradient cx="36.491" cy="39.709" r="3.159" id="5" xlink:href="#3" gradientUnits="userSpaceOnUse"/><radialGradient cx="36.491" cy="39.709" r="3.159" id="2" xlink:href="#3" gradientUnits="userSpaceOnUse"/><radialGradient cx="36.491" cy="39.709" r="3.159" id="4" xlink:href="#3" gradientUnits="userSpaceOnUse"/><radialGradient cx="32.373" cy="31.405" r="7.971" id="6" gradientUnits="userSpaceOnUse"><stop stop-color="#ff54d2" stop-opacity="0"/><stop offset=".324" stop-color="#ff54d2" stop-opacity="0"/><stop offset=".561" stop-color="#ff54d2" stop-opacity=".252"/><stop offset="1" stop-color="#ff54d2" stop-opacity=".478"/></radialGradient><radialGradient cx="95.84" cy="95.39" r="9.498" id="G" gradientUnits="userSpaceOnUse" gradientTransform="matrix(.57547 0 0 .5407-23.24-19.788)"><stop stop-opacity="0"/><stop offset=".5" stop-opacity="0"/><stop offset="1"/></radialGradient><radialGradient cx="32.373" cy="31.405" r="3.857" id="7" xlink:href="#8" gradientUnits="userSpaceOnUse" gradientTransform="matrix(2.06765.55403-.53485 1.99608-17.766-49.22)"/><radialGradient cx="99.16" cy="186.17" r="62.769" id="R" gradientUnits="userSpaceOnUse" gradientTransform="matrix(1 0 0 .16667 0 155.14)"><stop stop-color="#3d3d3d"/><stop offset=".5" stop-color="#686868" stop-opacity=".498"/><stop offset="1" stop-color="#686868" stop-opacity="0"/></radialGradient><radialGradient cx="32.373" cy="31.405" r="3.857" id="9" xlink:href="#8" gradientUnits="userSpaceOnUse" gradientTransform="matrix(2.06765.55403-.53485 1.99608-17.766-49.22)"/><radialGradient cx="32.373" cy="31.405" r="3.857" id="A" xlink:href="#8" gradientUnits="userSpaceOnUse" gradientTransform="matrix(2.06765.55403-.53485 1.99608-17.766-49.22)"/></defs><path d="m161.92613 186.17059a62.769119 10.461519 0 1 1 -125.53824 0 62.769119 10.461519 0 1 1 125.53824 0" transform="matrix(.38235 0 0 .71691-5.913-76.968)" fill="url(#R)"/><g color="#000"><path d="m32 2.5c-16.277 0-29.5 13.223-29.5 29.5 0 16.277 13.223 29.5 29.5 29.5 16.277 0 29.5-13.223 29.5-29.5 0-16.277-13.223-29.5-29.5-29.5" fill="url(#P)"/><g fill="none" stroke-linejoin="round" stroke-linecap="round"><path d="m32 2.5c-16.277 0-29.5 13.223-29.5 29.5 0 16.277 13.223 29.5 29.5 29.5 16.277 0 29.5-13.223 29.5-29.5 0-16.277-13.223-29.5-29.5-29.5z" opacity=".3" stroke="#000"/><path d="m60.5 32c0 15.74-12.76 28.5-28.5 28.5-15.74 0-28.5-12.76-28.5-28.5 0-15.74 12.76-28.5 28.5-28.5 15.74 0 28.5 12.76 28.5 28.5z" opacity=".8" stroke="url(#O)"/></g><path d="m32 9c-12.691 0-23 10.31-23 23 0 12.691 10.31 23 23 23 12.691 0 23-10.31 23-23 0-12.691-10.31-23-23-23" fill="url(#N)"/><path d="m32 9.5c-12.415 0-22.5 10.31-22.5 23 0 12.691 10.09 23 22.5 23 12.415 0 22.5-10.31 22.5-23 0-12.691-10.09-23-22.5-23z" opacity=".05" fill="none" stroke="#000"/><path d="m108.11429 32.57143a16.02857 16.02857 0 1 1 -32.05715 0 16.02857 16.02857 0 1 1 32.05715 0" transform="matrix(1.15419 0 0 1.15419-74.28-5.594)" fill="url(#M)"/><g fill="none"><use transform="matrix(1.15419 0 0 1.15419-74.28-5.594)" opacity=".3" stroke="#000" stroke-width=".866" xlink:href="#S"/><use transform="matrix(1.0918 0 0 1.0918-68.54-3.561)" opacity=".3" stroke="url(#L)" stroke-width=".916" xlink:href="#S"/></g><path d="m106.98928 31.685715a15.639286 15.639286 0 1 1 -31.27857 0 15.639286 15.639286 0 1 1 31.27857 0" transform="matrix(.92715 0 0 .92715-52.695 2.623)" fill="url(#K)"/></g><path d="m32 21.502c-5.792 0-10.498 4.706-10.498 10.498 0 5.792 4.706 10.498 10.498 10.498 5.792 0 10.498-4.706 10.498-10.498 0-5.792-4.706-10.498-10.498-10.498" fill="url(#J)"/><path d="m32 21.502c-5.792 0-10.498 4.706-10.498 10.498 0 5.792 4.706 10.498 10.498 10.498 5.792 0 10.498-4.706 10.498-10.498 0-5.792-4.706-10.498-10.498-10.498z" opacity=".3" fill="none" stroke="#000" stroke-linejoin="round" stroke-linecap="round"/><path d="m32 23.502c-4.689 0-8.498 3.809-8.498 8.498 0 4.689 3.809 8.498 8.498 8.498 4.689 0 8.498-3.809 8.498-8.498 0-4.689-3.809-8.498-8.498-8.498" fill="#2f3b55"/><path d="m32 27.502c-2.482 0-4.498 2.02-4.498 4.498 0 2.482 2.02 4.498 4.498 4.498 2.482 0 4.498-2.02 4.498-4.498 0-2.482-2.02-4.498-4.498-4.498z" fill="url(#H)" stroke="url(#I)" stroke-linejoin="round" stroke-linecap="round"/><path d="m32 27.738c-2.352 0-4.262 1.91-4.262 4.262 0 2.352 1.911 4.262 4.262 4.262 2.352 0 4.262-1.91 4.262-4.262 0-2.352-1.91-4.262-4.262-4.262" opacity=".5" fill="url(#G)"/><g fill="none"><g color="#000"><use transform="matrix(.84225 0 0-.84225-45.559 59.43)" opacity=".3" stroke="url(#F)" stroke-width="1.187" xlink:href="#S"/><path d="m106.98928 31.685715a15.639286 15.639286 0 1 1 -31.27857 0 15.639286 15.639286 0 1 1 31.27857 0z" transform="matrix(.92715 0 0 .92715-52.695 3.123)" opacity=".3" stroke="#000" stroke-width="1.079"/></g><path d="m32 23.502c-4.689 0-8.498 3.809-8.498 8.498 0 4.689 3.809 8.498 8.498 8.498 4.689 0 8.498-3.809 8.498-8.498 0-4.689-3.809-8.498-8.498-8.498z" opacity=".3" stroke="#000" stroke-linejoin="round" stroke-linecap="round"/></g><g color="#000"><path d="m39.955616 32.885651a7.714892 7.714892 0 0 1 -5.576611 5.981096l-1.997-7.452z" transform="matrix(-1.03696 0 0-1.03696 65.58 64.58)" opacity=".4" fill="url(#E)"/><use transform="matrix(.46791 0 0 .46791-11.09 16.759)" opacity=".3" fill="none" stroke="url(#C)" stroke-width="2.137" xlink:href="#S"/><path d="m33.894331 30.57925a1.894332 1.420749 0 0 1 -3.788664 0 1.894332 1.420749 0 1 1 3.788664 0" opacity=".5" fill="url(#B)"/><path d="m40.09714 31.414734a7.714892 7.714892 0 0 1 -.487121 2.697941l-7.228-2.698z" transform="matrix(1.03696 0 0 1.03696-1.579-.576)" opacity=".4" fill="url(#A)"/><path d="m39.983572 32.733587a7.714892 7.714892 0 0 1 -.807525 2.336799l-6.794-3.656z" transform="matrix(.26838 1.0016-1.0016.26838 54.775-8.866)" opacity=".4" fill="url(#9)"/><path d="m40.03325 30.423941a7.714892 7.714892 0 0 1 -.857203 4.646445l-6.794-3.656z" transform="matrix(.80312.65596-.65596.80312 26.6-14.471)" opacity=".4" fill="url(#7)"/><path d="m40.09714 31.414734a7.714892 7.714892 0 0 1 -7.714892 7.714892v-7.715z" transform="matrix(-.73324-.73324.73324-.73324 32.709 76.78)" opacity=".5" fill="url(#6)"/><use transform="matrix(2.36938-1.36796.77832 1.34809-80.22 35.17)" opacity=".2" fill="url(#5)" xlink:href="#T"/><use transform="matrix(1.90662-1.10079.62631 1.0848-69.06 21.715)" opacity=".4" fill="url(#4)" xlink:href="#T"/><use transform="matrix(.54388 0 0 .56897 11.534 8.506)" opacity=".8" fill="url(#2)" xlink:href="#T"/><use transform="matrix(.54388 0 0 .56897 6.972 5.744)" opacity=".4" fill="url(#1)" xlink:href="#T"/><use transform="matrix(.38038 0 0 .39792 13.914 13.556)" opacity=".4" fill="url(#0)" xlink:href="#T"/></g></svg>