<?xml version="1.0" encoding="UTF-8" standalone="no"?>
<!-- Created with Inkscape (http://www.inkscape.org/) -->

<svg
   xmlns:dc="http://purl.org/dc/elements/1.1/"
   xmlns:cc="http://creativecommons.org/ns#"
   xmlns:rdf="http://www.w3.org/1999/02/22-rdf-syntax-ns#"
   xmlns:svg="http://www.w3.org/2000/svg"
   xmlns="http://www.w3.org/2000/svg"
   xmlns:xlink="http://www.w3.org/1999/xlink"
   xmlns:inkscape="http://www.inkscape.org/namespaces/inkscape"
   version="1.1"
   width="24"
   height="24"
   id="svg3946">
  <defs
     id="defs3948">
    <linearGradient
       x1="24.693371"
       y1="34.39452"
       x2="24.693371"
       y2="39.173557"
       id="linearGradient3080"
       xlink:href="#linearGradient4661"
       gradientUnits="userSpaceOnUse"
       gradientTransform="matrix(0.37458362,0,0,0.38811022,23.006877,11.5961)" />
    <linearGradient
       id="linearGradient4661">
      <stop
         id="stop4663"
         style="stop-color:#000000;stop-opacity:1"
         offset="0" />
      <stop
         id="stop4665"
         style="stop-color:#000000;stop-opacity:0"
         offset="1" />
    </linearGradient>
    <linearGradient
       x1="24.693371"
       y1="12.651934"
       x2="24.693371"
       y2="31.394552"
       id="linearGradient3083"
       xlink:href="#linearGradient4661"
       gradientUnits="userSpaceOnUse"
       gradientTransform="matrix(0.47239738,0,0,0.47485202,20.616957,8.0689273)" />
    <linearGradient
       x1="71.204407"
       y1="6.2375584"
       x2="71.204407"
       y2="44.340794"
       id="linearGradient3090"
       xlink:href="#linearGradient4011"
       gradientUnits="userSpaceOnUse"
       gradientTransform="matrix(0.5135135,0,0,0.5135135,-24.836132,6.978716)" />
    <linearGradient
       id="linearGradient4011">
      <stop
         id="stop4013"
         style="stop-color:#ffffff;stop-opacity:1"
         offset="0" />
      <stop
         id="stop4015"
         style="stop-color:#ffffff;stop-opacity:0.23529412"
         offset="0.507761" />
      <stop
         id="stop4017"
         style="stop-color:#ffffff;stop-opacity:0.15686275"
         offset="0.83456558" />
      <stop
         id="stop4019"
         style="stop-color:#ffffff;stop-opacity:0.39215687"
         offset="1" />
    </linearGradient>
    <linearGradient
       x1="11.801105"
       y1="19.013813"
       x2="11.801105"
       y2="0.86377394"
       id="linearGradient3887"
       xlink:href="#linearGradient3707-319-631-407-324-3-8"
       gradientUnits="userSpaceOnUse"
       gradientTransform="translate(20,8.0000005)" />
    <linearGradient
       id="linearGradient3707-319-631-407-324-3-8">
      <stop
         id="stop3760-7-3"
         style="stop-color:#185f9a;stop-opacity:1"
         offset="0" />
      <stop
         id="stop3762-8-4"
         style="stop-color:#599ec9;stop-opacity:1"
         offset="1" />
    </linearGradient>
    <radialGradient
       cx="6.0693989"
       cy="8.4497671"
       r="19.99999"
       fx="6.0693989"
       fy="8.4497671"
       id="radialGradient3093"
       xlink:href="#linearGradient2867-449-88-871-390-598-476-591-434-148-57-177-3-8"
       gradientUnits="userSpaceOnUse"
       gradientTransform="matrix(0,1.1468756,-1.2132576,-3.1216191e-8,22.251804,1.0569109)" />
    <linearGradient
       id="linearGradient2867-449-88-871-390-598-476-591-434-148-57-177-3-8">
      <stop
         id="stop3750-8-9"
         style="stop-color:#90dbec;stop-opacity:1"
         offset="0" />
      <stop
         id="stop3752-3-2"
         style="stop-color:#42baea;stop-opacity:1"
         offset="0.26238" />
      <stop
         id="stop3754-7-2"
         style="stop-color:#3689e6;stop-opacity:1"
         offset="0.704952" />
      <stop
         id="stop3756-9-3"
         style="stop-color:#2b63a0;stop-opacity:1"
         offset="1" />
    </linearGradient>
    <linearGradient
       x1="24"
       y1="44"
       x2="24"
       y2="3.8990016"
       id="linearGradient3095"
       xlink:href="#linearGradient3707-319-631-407-324-3-8"
       gradientUnits="userSpaceOnUse"
       gradientTransform="matrix(0.53851149,0,0,0.53851149,-0.924275,7.0757243)" />
    <linearGradient
       id="linearGradient8838">
      <stop
         id="stop8840"
         style="stop-color:#000000;stop-opacity:1"
         offset="0" />
      <stop
         id="stop8842"
         style="stop-color:#000000;stop-opacity:0"
         offset="1" />
    </linearGradient>
    <radialGradient
       cx="62.625"
       cy="4.625"
       r="10.625"
       fx="62.625"
       fy="4.625"
       id="radialGradient3944"
       xlink:href="#linearGradient8838"
       gradientUnits="userSpaceOnUse"
       gradientTransform="matrix(1.1294118,0,0,0.2823525,-58.729414,27.694118)" />
    <linearGradient
       x1="11.801105"
       y1="19.013813"
       x2="11.801105"
       y2="0.86377394"
       id="linearGradient3887-6"
       xlink:href="#linearGradient3707-319-631-407-324-3-8-4"
       gradientUnits="userSpaceOnUse"
       gradientTransform="translate(20,8.0000005)" />
    <linearGradient
       id="linearGradient3707-319-631-407-324-3-8-4">
      <stop
         id="stop3760-7-3-9"
         style="stop-color:#185f9a;stop-opacity:1"
         offset="0" />
      <stop
         id="stop3762-8-4-5"
         style="stop-color:#599ec9;stop-opacity:1"
         offset="1" />
    </linearGradient>
  </defs>
  <metadata
     id="metadata3951">
    <rdf:RDF>
      <cc:Work
         rdf:about="">
        <dc:format>image/svg+xml</dc:format>
        <dc:type
           rdf:resource="http://purl.org/dc/dcmitype/StillImage" />
        <dc:title />
      </cc:Work>
    </rdf:RDF>
  </metadata>
  <g
     transform="translate(0,-8)"
     id="layer1">
    <path
       d="m 12,12 c -4.9705629,0 -9,4.029437 -9,9 0,4.970563 4.0294371,9 9,9 4.970563,0 9,-4.029437 9,-9 0,-4.970563 -4.029437,-9 -9,-9 z m 0,2 c 3.865993,0 7,3.134006 7,7 0,3.865993 -3.134007,7 -7,7 -3.8659932,0 -7,-3.134007 -7,-7 0,-3.865994 3.1340068,-7 7,-7 z m 0.0625,1.5 c -0.713022,0 -1.28125,0.554708 -1.28125,1.25 0,0.695291 0.568228,1.28125 1.28125,1.28125 0.713022,0 1.28125,-0.585959 1.28125,-1.28125 0,-0.695292 -0.568228,-1.25 -1.28125,-1.25 z M 7.40625,18.09375 C 7.33635,18.08515 7.2821301,18.09525 7.21875,18.125 7.09199,18.184567 7.0017477,18.303153 7,18.4375 6.9984,18.571866 7.0935658,18.687478 7.21875,18.75 l 3.4375,1.0625 L 10.625,22.28125 9.40625,25.9375 C 9.2893824,26.104044 9.324703,26.295219 9.5,26.40625 9.6753044,26.517298 9.94562,26.47906 10.0625,26.3125 L 12,22.375 l 1.9375,3.9375 c 0.103888,0.172743 0.318204,0.223706 0.5,0.125 0.181797,-0.09871 0.260134,-0.296006 0.15625,-0.46875 L 13.40625,22.28125 13.34375,20 l 3.5,-1.25 c 0.140894,-0.09388 0.186025,-0.284647 0.125,-0.4375 -0.06103,-0.15287 -0.23528,-0.237273 -0.40625,-0.21875 -0.05974,0.0094 -0.107867,0.02789 -0.15625,0.0625 L 12,18.84375 7.625,18.15625 C 7.568278,18.11613 7.4761498,18.10234 7.40625,18.09375 z"
       inkscape:connector-curvature="0"
       id="path3009-5"
       style="opacity:0.4;color:#bebebe;fill:#000000;fill-opacity:1;fill-rule:nonzero;stroke:none;stroke-width:1;marker:none;visibility:visible;display:inline;overflow:visible;enable-background:accumulate" />
    <path
       d="m 12,11 c -4.9705629,0 -9,4.029437 -9,9 0,4.970563 4.0294371,9 9,9 4.970563,0 9,-4.029437 9,-9 0,-4.970563 -4.029437,-9 -9,-9 z m 0,2 c 3.865993,0 7,3.134006 7,7 0,3.865993 -3.134007,7 -7,7 -3.8659932,0 -7,-3.134007 -7,-7 0,-3.865994 3.1340068,-7 7,-7 z m 0.0625,1.5 c -0.713022,0 -1.28125,0.554708 -1.28125,1.25 0,0.695291 0.568228,1.28125 1.28125,1.28125 0.713022,0 1.28125,-0.585959 1.28125,-1.28125 0,-0.695292 -0.568228,-1.25 -1.28125,-1.25 z M 7.40625,17.09375 C 7.33635,17.08515 7.2821301,17.09525 7.21875,17.125 7.09199,17.184567 7.0017477,17.303153 7,17.4375 6.9984,17.571866 7.0935658,17.687478 7.21875,17.75 l 3.4375,1.0625 L 10.625,21.28125 9.40625,24.9375 C 9.2893824,25.104044 9.324703,25.295219 9.5,25.40625 9.6753044,25.517298 9.94562,25.47906 10.0625,25.3125 L 12,21.375 l 1.9375,3.9375 c 0.103888,0.172743 0.318204,0.223706 0.5,0.125 0.181797,-0.09871 0.260134,-0.296006 0.15625,-0.46875 L 13.40625,21.28125 13.34375,19 l 3.5,-1.25 c 0.140894,-0.09388 0.186025,-0.284647 0.125,-0.4375 -0.06103,-0.15287 -0.23528,-0.237273 -0.40625,-0.21875 -0.05974,0.0094 -0.107867,0.02789 -0.15625,0.0625 L 12,17.84375 7.625,17.15625 C 7.568278,17.11613 7.4761498,17.10234 7.40625,17.09375 z"
       inkscape:connector-curvature="0"
       id="path3009"
       style="color:#bebebe;fill:#ffffff;fill-opacity:1;fill-rule:nonzero;stroke:none;stroke-width:1;marker:none;visibility:visible;display:inline;overflow:visible;enable-background:accumulate" />
  </g>
</svg>
