<svg width="32" height="32" xmlns:xlink="http://www.w3.org/1999/xlink" xmlns="http://www.w3.org/2000/svg"><defs><linearGradient x1="24" y1="6.24" x2="24" y2="41.76" id="j" xlink:href="#a" gradientUnits="userSpaceOnUse" gradientTransform="translate(-.216 -.216) scale(.67568)"/><linearGradient id="a"><stop style="stop-color:#fff;stop-opacity:1" offset="0"/><stop style="stop-color:#fff;stop-opacity:.23529412" offset=".042"/><stop style="stop-color:#fff;stop-opacity:.15686275" offset=".958"/><stop style="stop-color:#fff;stop-opacity:.39215687" offset="1"/></linearGradient><linearGradient id="d"><stop style="stop-color:#181818;stop-opacity:1" offset="0"/><stop style="stop-color:#181818;stop-opacity:0" offset="1"/></linearGradient><linearGradient id="e"><stop style="stop-color:#181818;stop-opacity:1" offset="0"/><stop style="stop-color:#181818;stop-opacity:0" offset="1"/></linearGradient><linearGradient x1="25.058" y1="47.028" x2="25.058" y2="39.999" id="h" xlink:href="#b" gradientUnits="userSpaceOnUse"/><linearGradient id="b"><stop style="stop-color:#181818;stop-opacity:0" offset="0"/><stop style="stop-color:#181818;stop-opacity:1" offset=".5"/><stop style="stop-color:#181818;stop-opacity:0" offset="1"/></linearGradient><linearGradient id="c"><stop style="stop-color:#4d4d4d;stop-opacity:1" offset="0"/><stop style="stop-color:#333;stop-opacity:1" offset="1"/></linearGradient><linearGradient xlink:href="#c" id="i" gradientUnits="userSpaceOnUse" gradientTransform="translate(38 -4)" x1="-23.798" y1="6.532" x2="-23.798" y2="33.868"/><radialGradient cx="4.993" cy="43.5" r="2.5" fx="4.993" fy="43.5" id="f" xlink:href="#d" gradientUnits="userSpaceOnUse" gradientTransform="matrix(2.00378 0 0 1.4 27.988 -17.4)"/><radialGradient cx="4.993" cy="43.5" r="2.5" fx="4.993" fy="43.5" id="g" xlink:href="#e" gradientUnits="userSpaceOnUse" gradientTransform="matrix(2.00378 0 0 1.4 -20.012 -104.4)"/></defs><g style="display:inline"><g style="opacity:.4"><path style="fill:url(#f);fill-opacity:1;stroke:none" d="M38 40h5v7h-5z" transform="matrix(.73684 0 0 .42857 -1.684 10.857)"/><path style="fill:url(#g);fill-opacity:1;stroke:none" transform="matrix(-.73684 0 0 -.42857 -1.684 10.857)" d="M-10-47h5v7h-5z"/><path style="fill:url(#h);fill-opacity:1;stroke:none" d="M10 40h28v7H10z" transform="matrix(.73684 0 0 .42857 -1.684 10.857)"/></g></g><rect style="color:#000;display:inline;overflow:visible;visibility:visible;opacity:1;fill:url(#i);fill-opacity:1;fill-rule:nonzero;stroke:#000;stroke-width:1;stroke-opacity:.5;marker:none;enable-background:accumulate;font-variation-settings:normal;vector-effect:none;stroke-linecap:butt;stroke-linejoin:miter;stroke-miterlimit:4;stroke-dasharray:none;stroke-dashoffset:0;-inkscape-stroke:none;stop-color:#000;stop-opacity:1" y="2.5" x="2.5" ry="3" rx="3" height="27" width="27"/><rect style="opacity:.2;fill:none;stroke:url(#j);stroke-width:1;stroke-linecap:round;stroke-linejoin:round;stroke-miterlimit:4;stroke-dasharray:none;stroke-dashoffset:0;stroke-opacity:1" y="3.5" x="3.5" ry="2" rx="2" height="25" width="25"/><path style="font-variation-settings:normal;opacity:.15;vector-effect:none;fill:#000;fill-opacity:1;stroke:none;stroke-width:4;stroke-linecap:round;stroke-linejoin:round;stroke-miterlimit:4;stroke-dasharray:none;stroke-dashoffset:0;stroke-opacity:1;-inkscape-stroke:none;stop-color:#000;stop-opacity:1" d="M11.162 5.227c-.974.404-1.512 1.422-2.289 2.098-.783.54-1.011 1.777-.19 2.392.334.492 1.372-.026 1.317.583V20c-.73.106-1.174.013-1.042-.805-.225-1.092-1.774-1.397-2.43-.514-.71.757-1.61 1.368-2.195 2.224-.495.903.326 1.717.975 2.246.793.592 1.379 1.808 2.514 1.683.91-.493.17.26.36.807.31.956 1.279 1.507 1.879 2.28.476.709 1.468 1.227 2.236.63.815-.826 1.675-1.635 2.394-2.545.56-.977-.416-2.21-1.493-2.006-.43-.182-.302-1.403.502-1h9.292c-.214.97.602 2.06 1.641 1.819.957-.311 1.506-1.284 2.278-1.886.706-.476 1.221-1.46.638-2.23-.823-.82-1.64-1.674-2.551-2.394-.977-.56-2.21.416-2.006 1.493-.192.44-1.183.082-1.7.198H13V10c.97.216 2.06-.603 1.818-1.64-.313-.956-1.28-1.509-1.885-2.279-.436-.53-1.027-1.06-1.77-.854ZM10 23c.106.73.013 1.174-.805 1.042-.764.483 0-.444-.195-.844-.1-.4.769-.108 1-.198Z"/><path style="fill:#000;stroke:none;stroke-width:4;stroke-linecap:round;stroke-linejoin:round;stop-color:#000;font-variation-settings:normal;opacity:.3;vector-effect:none;fill-opacity:1;stroke-miterlimit:4;stroke-dasharray:none;stroke-dashoffset:0;stroke-opacity:1;-inkscape-stroke:none;stop-opacity:1" d="M11.496 6.178a.345.345 0 0 0-.242.1L9.268 8.362a.37.37 0 0 0-.12.273.36.36 0 0 0 .354.365H11v12H8v-1.498a.359.359 0 0 0-.365-.353.37.37 0 0 0-.274.119l-2.084 1.986a.345.345 0 0 0 0 .483l2.084 1.996a.37.37 0 0 0 .274.119.359.359 0 0 0 .365-.354V22h3v3H9.502a.359.359 0 0 0-.354.365c0 .11.047.207.12.274l1.986 2.084a.345.345 0 0 0 .482 0l1.996-2.084a.37.37 0 0 0 .12-.273.359.359 0 0 0-.354-.366H12v-3h11.992v1.498c0 .196.163.354.365.354a.37.37 0 0 0 .274-.12l2.084-1.995a.34.34 0 0 0 0-.483l-2.084-1.986a.37.37 0 0 0-.274-.12.359.359 0 0 0-.365.354V21H12V9h1.498a.359.359 0 0 0 .354-.365.37.37 0 0 0-.12-.273l-1.996-2.084a.34.34 0 0 0-.24-.1Z"/><path style="fill:#fafafa;stroke:none;stroke-width:1.88077;stroke-linecap:round;stroke-linejoin:round;stop-color:#000" d="M11.496 5.178a.345.345 0 0 0-.242.1L9.268 7.36a.37.37 0 0 0-.12.274.36.36 0 0 0 .354.365H11v12H8v-1.498a.359.359 0 0 0-.365-.354.37.37 0 0 0-.274.12l-2.084 1.986a.345.345 0 0 0 0 .482l2.084 1.996a.37.37 0 0 0 .274.12.359.359 0 0 0 .365-.354V21h3v3H9.502a.359.359 0 0 0-.354.365c0 .11.047.207.12.274l1.986 2.084a.345.345 0 0 0 .482 0l1.996-2.084a.37.37 0 0 0 .12-.274.359.359 0 0 0-.354-.365H12v-3h11.992v1.498a.36.36 0 0 0 .365.354.37.37 0 0 0 .274-.12l2.084-1.996a.34.34 0 0 0 0-.482l-2.084-1.986a.37.37 0 0 0-.274-.12.359.359 0 0 0-.365.354V20H12V8h1.498a.359.359 0 0 0 .354-.365.37.37 0 0 0-.12-.274l-1.996-2.084a.34.34 0 0 0-.24-.1z"/></svg>