<?xml version="1.0" encoding="UTF-8" standalone="no"?>
<!-- Created with Inkscape (http://www.inkscape.org/) -->

<svg
   xmlns:dc="http://purl.org/dc/elements/1.1/"
   xmlns:cc="http://creativecommons.org/ns#"
   xmlns:rdf="http://www.w3.org/1999/02/22-rdf-syntax-ns#"
   xmlns:svg="http://www.w3.org/2000/svg"
   xmlns="http://www.w3.org/2000/svg"
   xmlns:xlink="http://www.w3.org/1999/xlink"
   xmlns:sodipodi="http://sodipodi.sourceforge.net/DTD/sodipodi-0.dtd"
   xmlns:inkscape="http://www.inkscape.org/namespaces/inkscape"
   version="1.1"
   width="32"
   height="32"
   id="svg4248"
   inkscape:version="0.48.4 r9939"
   sodipodi:docname="preferences-desktop-accessibility.svg">
  <sodipodi:namedview
     pagecolor="#ffffff"
     bordercolor="#666666"
     borderopacity="1"
     objecttolerance="10"
     gridtolerance="10"
     guidetolerance="10"
     inkscape:pageopacity="0"
     inkscape:pageshadow="2"
     inkscape:window-width="1440"
     inkscape:window-height="845"
     id="namedview46"
     showgrid="true"
     inkscape:zoom="9.30856"
     inkscape:cx="16.363963"
     inkscape:cy="17.136043"
     inkscape:window-x="0"
     inkscape:window-y="30"
     inkscape:window-maximized="1"
     inkscape:current-layer="svg4248">
    <inkscape:grid
       type="xygrid"
       id="grid3173" />
  </sodipodi:namedview>
  <defs
     id="defs4250">
    <linearGradient
       id="linearGradient3707-319-631-407-324-3-8">
      <stop
         id="stop3760-7-3"
         style="stop-color:#185f9a;stop-opacity:1"
         offset="0" />
      <stop
         id="stop3762-8-4"
         style="stop-color:#599ec9;stop-opacity:1"
         offset="1" />
    </linearGradient>
    <linearGradient
       x1="71.204407"
       y1="6.2375584"
       x2="71.204407"
       y2="44.340794"
       id="linearGradient3096"
       xlink:href="#linearGradient4011"
       gradientUnits="userSpaceOnUse"
       gradientTransform="matrix(0.72972967,0,0,0.72972967,-36.346078,-2.5039298)" />
    <linearGradient
       id="linearGradient4011">
      <stop
         id="stop4013"
         style="stop-color:#ffffff;stop-opacity:1"
         offset="0" />
      <stop
         id="stop4015"
         style="stop-color:#ffffff;stop-opacity:0.23529412"
         offset="0.507761" />
      <stop
         id="stop4017"
         style="stop-color:#ffffff;stop-opacity:0.15686275"
         offset="0.83456558" />
      <stop
         id="stop4019"
         style="stop-color:#ffffff;stop-opacity:0.39215687"
         offset="1" />
    </linearGradient>
    <radialGradient
       cx="6.1596723"
       cy="8.4497671"
       r="19.99999"
       fx="6.1596723"
       fy="8.4497671"
       id="radialGradient3099"
       xlink:href="#linearGradient2867-449-88-871-390-598-476-591-434-148-57-177-3-8"
       gradientUnits="userSpaceOnUse"
       gradientTransform="matrix(4.5367027e-8,1.7632481,-1.8653063,0,31.761486,-11.251052)" />
    <linearGradient
       id="linearGradient2867-449-88-871-390-598-476-591-434-148-57-177-3-8">
      <stop
         id="stop3750-8-9"
         style="stop-color:#90dbec;stop-opacity:1"
         offset="0" />
      <stop
         id="stop3752-3-2"
         style="stop-color:#55c1ec;stop-opacity:1"
         offset="0.26238" />
      <stop
         id="stop3754-7-2"
         style="stop-color:#3689e6;stop-opacity:1"
         offset="0.704952" />
      <stop
         id="stop3756-9-3"
         style="stop-color:#2b63a0;stop-opacity:1"
         offset="1" />
    </linearGradient>
    <linearGradient
       x1="24"
       y1="44"
       x2="24"
       y2="3.8990016"
       id="linearGradient3101"
       xlink:href="#linearGradient3707-319-631-407-324-3-8"
       gradientUnits="userSpaceOnUse"
       gradientTransform="matrix(0.74365873,0,0,0.74365873,-1.847808,-1.8478104)" />
    <linearGradient
       id="linearGradient8838">
      <stop
         id="stop8840"
         style="stop-color:#000000;stop-opacity:1"
         offset="0" />
      <stop
         id="stop8842"
         style="stop-color:#000000;stop-opacity:0"
         offset="1" />
    </linearGradient>
    <radialGradient
       cx="62.625"
       cy="4.625"
       r="10.625"
       fx="62.625"
       fy="4.625"
       id="radialGradient4246"
       xlink:href="#linearGradient8838"
       gradientUnits="userSpaceOnUse"
       gradientTransform="matrix(1.5058824,0,0,0.37647,-78.305888,26.258824)" />
    <linearGradient
       x1="15.550736"
       y1="30.895977"
       x2="15.550736"
       y2="0.23165128"
       id="linearGradient4060-4"
       xlink:href="#linearGradient3707-319-631-407-324-3-8-7"
       gradientUnits="userSpaceOnUse"
       gradientTransform="translate(24,0)" />
    <linearGradient
       id="linearGradient3707-319-631-407-324-3-8-7">
      <stop
         id="stop3760-7-3-6"
         style="stop-color:#185f9a;stop-opacity:1"
         offset="0" />
      <stop
         id="stop3762-8-4-5"
         style="stop-color:#599ec9;stop-opacity:1"
         offset="1" />
    </linearGradient>
    <linearGradient
       id="linearGradient4062-2">
      <stop
         id="stop4064-5"
         style="stop-color:#000000;stop-opacity:1"
         offset="0" />
      <stop
         id="stop4066-4"
         style="stop-color:#000000;stop-opacity:0"
         offset="1" />
    </linearGradient>
    <linearGradient
       x1="-40.587261"
       y1="-35.402748"
       x2="-39.8311"
       y2="-15.912916"
       id="linearGradient3897"
       xlink:href="#linearGradient4062-2"
       gradientUnits="userSpaceOnUse"
       gradientTransform="matrix(0.21412596,0,0,0.22795278,26.756506,15.018422)" />
    <linearGradient
       x1="-50.417347"
       y1="-14.804217"
       x2="-50.417347"
       y2="48.049694"
       id="linearGradient3899"
       xlink:href="#linearGradient4062-2"
       gradientUnits="userSpaceOnUse"
       gradientTransform="matrix(0.21412596,0,0,0.22795278,26.756506,15.018422)" />
    <radialGradient
       gradientTransform="matrix(0.27083381,0,0,0.08762273,-2.855072,25.187228)"
       gradientUnits="userSpaceOnUse"
       xlink:href="#linearGradient3820-7-2-1"
       id="radialGradient3025"
       fy="186.17059"
       fx="99.157013"
       r="62.769119"
       cy="186.17059"
       cx="99.157013" />
    <radialGradient
       gradientTransform="matrix(0,2.4988347,-2.6434689,-6.8014435e-8,46.336814,-12.180468)"
       gradientUnits="userSpaceOnUse"
       xlink:href="#linearGradient2867-449-88-871-390-598-476-591-434-148-57-177-3-8-9"
       id="radialGradient3022"
       fy="8.4497671"
       fx="3.9722471"
       r="19.99999"
       cy="8.4497671"
       cx="3.9722471" />
    <linearGradient
       gradientTransform="matrix(1.054054,0,0,1.054054,-51.611001,-2.7279009)"
       gradientUnits="userSpaceOnUse"
       xlink:href="#linearGradient4011-4"
       id="linearGradient3019"
       y2="44.340794"
       x2="71.204407"
       y1="6.2375584"
       x1="71.204407" />
    <linearGradient
       id="linearGradient3820-7-2-1">
      <stop
         offset="0"
         style="stop-color:#3d3d3d;stop-opacity:1"
         id="stop3822-2-6-3" />
      <stop
         offset="0.5"
         style="stop-color:#686868;stop-opacity:0.49803922"
         id="stop3864-8-7-7" />
      <stop
         offset="1"
         style="stop-color:#686868;stop-opacity:0"
         id="stop3824-1-2-5" />
    </linearGradient>
    <linearGradient
       id="linearGradient2867-449-88-871-390-598-476-591-434-148-57-177-3-8-9">
      <stop
         offset="0"
         style="stop-color:#90dbec;stop-opacity:1"
         id="stop3750-8-9-6" />
      <stop
         offset="0.26238"
         style="stop-color:#42baea;stop-opacity:1"
         id="stop3752-3-2-0" />
      <stop
         offset="0.704952"
         style="stop-color:#3689e6;stop-opacity:1"
         id="stop3754-7-2-8" />
      <stop
         offset="1"
         style="stop-color:#2b63a0;stop-opacity:1"
         id="stop3756-9-3-2" />
    </linearGradient>
    <linearGradient
       id="linearGradient4011-4">
      <stop
         offset="0"
         style="stop-color:#ffffff;stop-opacity:1"
         id="stop4013-8" />
      <stop
         offset="0.507761"
         style="stop-color:#ffffff;stop-opacity:0.23529412"
         id="stop4015-5" />
      <stop
         offset="0.83456558"
         style="stop-color:#ffffff;stop-opacity:0.15686275"
         id="stop4017-6" />
      <stop
         offset="1"
         style="stop-color:#ffffff;stop-opacity:0.39215687"
         id="stop4019-1" />
    </linearGradient>
    <linearGradient
       inkscape:collect="always"
       xlink:href="#linearGradient4011-4"
       id="linearGradient3089"
       gradientUnits="userSpaceOnUse"
       gradientTransform="matrix(0.72972969,0,0,0.72972969,-36.346075,-2.5039314)"
       x1="71.204407"
       y1="6.2375584"
       x2="71.204407"
       y2="44.340794" />
    <radialGradient
       inkscape:collect="always"
       xlink:href="#linearGradient2867-449-88-871-390-598-476-591-434-148-57-177-3-8-9"
       id="radialGradient3092"
       gradientUnits="userSpaceOnUse"
       gradientTransform="matrix(0,1.7674684,-1.8697707,-4.8107771e-8,31.79921,-9.5910622)"
       cx="3.9722471"
       cy="8.4497671"
       fx="3.9722471"
       fy="8.4497671"
       r="19.99999" />
    <radialGradient
       inkscape:collect="always"
       xlink:href="#linearGradient3820-7-2-1"
       id="radialGradient3095"
       gradientUnits="userSpaceOnUse"
       gradientTransform="matrix(0.27083381,0,0,0.08762273,-56.414394,17.135715)"
       cx="99.157013"
       cy="186.17059"
       fx="99.157013"
       fy="186.17059"
       r="62.769119" />
    <linearGradient
       inkscape:collect="always"
       xlink:href="#linearGradient4062-2"
       id="linearGradient3098"
       gradientUnits="userSpaceOnUse"
       gradientTransform="matrix(0.21412596,0,0,0.22795278,44.790404,17.86588)"
       x1="-50.417347"
       y1="-14.804217"
       x2="-50.417347"
       y2="48.049694" />
    <linearGradient
       inkscape:collect="always"
       xlink:href="#linearGradient4062-2"
       id="linearGradient3102"
       gradientUnits="userSpaceOnUse"
       gradientTransform="matrix(0.21412596,0,0,0.22795278,47.637862,21.526897)"
       x1="-40.587261"
       y1="-35.402748"
       x2="-39.8311"
       y2="-15.912916" />
    <linearGradient
       inkscape:collect="always"
       xlink:href="#linearGradient3707-319-631-407-324-3-8-7"
       id="linearGradient3106"
       gradientUnits="userSpaceOnUse"
       gradientTransform="translate(24,0)"
       x1="15.550736"
       y1="30.895977"
       x2="15.550736"
       y2="0.23165128" />
    <linearGradient
       inkscape:collect="always"
       xlink:href="#linearGradient4011"
       id="linearGradient3109"
       gradientUnits="userSpaceOnUse"
       gradientTransform="matrix(0.72972967,0,0,0.72972967,-36.346078,-2.5039298)"
       x1="71.204407"
       y1="6.2375584"
       x2="71.204407"
       y2="44.340794" />
    <radialGradient
       inkscape:collect="always"
       xlink:href="#linearGradient2867-449-88-871-390-598-476-591-434-148-57-177-3-8"
       id="radialGradient3112"
       gradientUnits="userSpaceOnUse"
       gradientTransform="matrix(4.5367027e-8,1.7632481,-1.8653063,0,31.761486,-11.251052)"
       cx="6.1596723"
       cy="8.4497671"
       fx="6.1596723"
       fy="8.4497671"
       r="19.99999" />
    <linearGradient
       inkscape:collect="always"
       xlink:href="#linearGradient3707-319-631-407-324-3-8"
       id="linearGradient3115"
       gradientUnits="userSpaceOnUse"
       gradientTransform="matrix(0.74365873,0,0,0.74365873,-1.847808,-1.8478104)"
       x1="24"
       y1="44"
       x2="24"
       y2="3.8990016" />
    <radialGradient
       inkscape:collect="always"
       xlink:href="#linearGradient8838"
       id="radialGradient3118"
       gradientUnits="userSpaceOnUse"
       gradientTransform="matrix(1.5058824,0,0,0.37647,-78.305888,26.258824)"
       cx="62.625"
       cy="4.625"
       fx="62.625"
       fy="4.625"
       r="10.625" />
    <radialGradient
       gradientTransform="matrix(0.17524541,0,0,0.05575992,-1.37681,18.119145)"
       gradientUnits="userSpaceOnUse"
       xlink:href="#linearGradient3820-7-2-2"
       id="radialGradient3043"
       fy="186.17059"
       fx="99.157013"
       r="62.769119"
       cy="186.17059"
       cx="99.157013" />
    <linearGradient
       id="linearGradient3820-7-2-2">
      <stop
         offset="0"
         style="stop-color:#3d3d3d;stop-opacity:1"
         id="stop3822-2-6-36" />
      <stop
         offset="0.5"
         style="stop-color:#686868;stop-opacity:0.49803922"
         id="stop3864-8-7-6" />
      <stop
         offset="1"
         style="stop-color:#686868;stop-opacity:0"
         id="stop3824-1-2-4" />
    </linearGradient>
    <radialGradient
       r="62.769119"
       fy="186.17059"
       fx="99.157013"
       cy="186.17059"
       cx="99.157013"
       gradientTransform="matrix(0.17524541,0,0,0.05575992,-1.3768101,18.118568)"
       gradientUnits="userSpaceOnUse"
       id="radialGradient3315"
       xlink:href="#linearGradient3820-7-2-2"
       inkscape:collect="always" />
  </defs>
  <metadata
     id="metadata4253">
    <rdf:RDF>
      <cc:Work
         rdf:about="">
        <dc:format>image/svg+xml</dc:format>
        <dc:type
           rdf:resource="http://purl.org/dc/dcmitype/StillImage" />
        <dc:title />
      </cc:Work>
    </rdf:RDF>
  </metadata>
  <path
     style="fill:url(#radialGradient3315);fill-opacity:1;stroke:none"
     id="path3818-0-2"
     inkscape:connector-curvature="0"
     d="m 27.000001,28.499422 a 11,3.4999999 0 1 1 -21.9999997,0 11,3.4999999 0 1 1 21.9999997,0 z" />
  <path
     inkscape:connector-curvature="0"
     d="M 16.000002,1.4999989 C 7.9994024,1.4999989 1.5,7.9993978 1.5,15.999998 1.5,24.0006 7.9994024,30.500002 16.000002,30.5 24.000599,30.5 30.500007,24.0006 30.5,15.999998 30.5,7.9993978 24.000599,1.4999989 16.000002,1.4999989 z"
     id="path2555"
     style="color:#000000;fill:url(#radialGradient3092);fill-opacity:1;fill-rule:nonzero;stroke:none;stroke-width:1;marker:none;visibility:visible;display:inline;overflow:visible;enable-background:accumulate" />
  <path
     inkscape:connector-curvature="0"
     d="M 16.000002,1.4999989 C 7.999402,1.4999989 1.5,7.9993981 1.5,15.999999 1.5,24.000599 7.999402,30.500002 16.000002,30.5 24.000598,30.5 30.500008,24.000599 30.5,15.999999 30.5,7.9993981 24.000598,1.4999989 16.000002,1.4999989 z"
     id="path2555-6"
     style="opacity:0.5;color:#000000;fill:#000000;fill-opacity:0;fill-rule:nonzero;stroke:#00537d;stroke-width:1;stroke-linecap:round;stroke-linejoin:round;stroke-miterlimit:4;stroke-opacity:1;stroke-dasharray:none;stroke-dashoffset:0;marker:none;visibility:visible;display:inline;overflow:visible;enable-background:accumulate" />
  <path
     sodipodi:type="inkscape:offset"
     inkscape:radius="0.99370903"
     inkscape:original="M 16.09375 8 C 14.881611 8 13.90625 8.9865422 13.90625 10.1875 C 13.90625 11.388459 14.881611 12.34375 16.09375 12.34375 C 17.305887 12.34375 18.3125 11.388459 18.3125 10.1875 C 18.3125 8.9865422 17.305887 8 16.09375 8 z M 7.875 12.5 C 7.6595069 12.602889 7.5029712 12.861696 7.5 13.09375 C 7.49728 13.325836 7.6621868 13.517008 7.875 13.625 L 13.71875 15.46875 L 13.65625 19.6875 L 11.59375 26 C 11.395074 26.287667 11.451996 26.651969 11.75 26.84375 C 12.048017 27.035559 12.488804 26.975199 12.6875 26.6875 L 16 19.875 L 19.28125 26.6875 C 19.45786 26.985873 19.847196 27.076742 20.15625 26.90625 C 20.465304 26.735761 20.582854 26.360875 20.40625 26.0625 L 18.375 19.71875 L 18.28125 15.75 L 24.21875 13.59375 C 24.458267 13.4316 24.57249 13.139019 24.46875 12.875 C 24.365001 12.610952 24.071897 12.468006 23.78125 12.5 C 23.679686 12.5163 23.582252 12.53396 23.5 12.59375 L 16 13.75 L 8.53125 12.59375 C 8.3383961 12.455165 8.0904921 12.397106 7.875 12.5 z "
     style="opacity:0.05000000000000000;color:#000000;fill:#000000;fill-opacity:1;fill-rule:nonzero;stroke:none;stroke-width:1;marker:none;visibility:visible;display:inline;overflow:visible;enable-background:accumulate"
     id="path3175"
     d="m 16.09375,7 c -1.751316,0 -3.1875,1.4485133 -3.1875,3.1875 0,0.869494 0.358977,1.648634 0.9375,2.21875 L 8.75,11.625 c -0.017483,-0.0076 -0.044638,0.0071 -0.0625,0 -0.3750928,-0.148645 -0.8053279,-0.243574 -1.25,-0.03125 -0.631339,0.301438 -0.9289295,0.830632 -0.9375,1.5 -0.00831,0.709098 0.4874002,1.177847 0.9375,1.40625 a 0.9938084,0.9938084 0 0 0 0.125,0.0625 l 5.15625,1.625 -0.0625,3.375 -2,6.125 0.0625,0.03125 c -0.281394,0.674682 -0.144363,1.554069 0.5,1.96875 0.752767,0.484494 1.728964,0.362174 2.28125,-0.4375 a 0.9938084,0.9938084 0 0 0 0.09375,-0.125 L 16,22.1875 18.375,27.125 a 0.9938084,0.9938084 0 0 0 0.0625,0.0625 c 0.457637,0.773153 1.438623,1.006873 2.1875,0.59375 0.688975,-0.380072 0.952616,-1.256236 0.65625,-2 L 21.34375,25.75 19.375,19.59375 19.3125,16.4375 l 5.25,-1.90625 a 0.9938084,0.9938084 0 0 0 0.21875,-0.125 c 0.577587,-0.391019 0.910921,-1.17858 0.625,-1.90625 -0.292069,-0.743334 -1.035895,-1.075168 -1.71875,-1 a 0.9938084,0.9938084 0 0 0 -0.0625,0.03125 c -0.04451,0.0071 -0.193617,0.07258 -0.28125,0.09375 l -5,0.78125 C 18.930085,11.838289 19.3125,11.065613 19.3125,10.1875 19.3125,8.431274 17.845065,7 16.09375,7 z" />
  <path
     style="fill:#000000;fill-opacity:1;stroke:none;opacity:0.14999999999999999;color:#000000;fill-rule:nonzero;stroke-width:1;marker:none;visibility:visible;display:inline;overflow:visible;enable-background:accumulate"
     id="path6668-1"
     inkscape:connector-curvature="0"
     d="m 18.299799,10.175644 c 0,1.200959 -0.983764,2.17565 -2.195901,2.17565 -1.212139,0 -2.195902,-0.974691 -2.195902,-2.17565 0,-1.200958 0.983763,-2.1756492 2.195902,-2.1756492 1.212137,0 2.195901,0.9746912 2.195901,2.1756492 z m 5.480666,2.313422 c -0.101564,0.0163 -0.197533,0.05599 -0.279785,0.11578 l -7.500909,1.158902 -7.4605106,-1.174885 c -0.1928539,-0.138585 -0.4639981,-0.180084 -0.6794902,-0.07719 -0.2154931,0.102889 -0.3567625,0.346754 -0.3597337,0.578808 -0.00272,0.232086 0.1469205,0.432236 0.3597337,0.540228 l 5.8460378,1.837425 -0.03998,4.218107 -2.062831,6.317365 c -0.198676,0.287667 -0.138122,0.657112 0.159882,0.848893 0.298017,0.191809 0.720631,0.133367 0.919327,-0.154332 l 3.328993,-6.818979 3.266154,6.807194 c 0.17661,0.298373 0.570296,0.402021 0.87935,0.231529 0.309054,-0.170489 0.416427,-0.550548 0.239823,-0.848923 l -2.02454,-6.344543 -0.07993,-3.971062 5.928066,-2.145275 c 0.239517,-0.16215 0.343571,-0.469126 0.239831,-0.733145 -0.103749,-0.264048 -0.388859,-0.417886 -0.679506,-0.385892 l 2e-5,0 z" />
  <path
     style="fill:#ffffff;fill-opacity:1;stroke:none"
     id="path6668"
     inkscape:connector-curvature="0"
     d="m 18.299799,9.1756491 c 0,1.2009589 -0.983764,2.1756499 -2.195901,2.1756499 -1.212139,0 -2.195902,-0.974691 -2.195902,-2.1756499 0,-1.2009577 0.983763,-2.1756489 2.195902,-2.1756489 1.212137,0 2.195901,0.9746912 2.195901,2.1756489 z m 5.480666,2.3134219 c -0.101564,0.0163 -0.197533,0.05599 -0.279785,0.11578 l -7.500909,1.158902 -7.4605106,-1.174885 c -0.1928539,-0.138585 -0.4639981,-0.180084 -0.6794902,-0.07719 -0.2154931,0.102889 -0.3567625,0.346754 -0.3597337,0.578808 -0.00272,0.232086 0.1469205,0.432236 0.3597337,0.540228 l 5.8460378,1.837425 -0.03998,4.218107 -2.062831,6.317365 c -0.198676,0.287667 -0.138122,0.657112 0.159882,0.848893 0.298017,0.191809 0.720631,0.133367 0.919327,-0.154332 l 3.328993,-6.818979 3.266154,6.807194 c 0.17661,0.298373 0.570296,0.402021 0.87935,0.231529 0.309054,-0.170489 0.416427,-0.550548 0.239823,-0.848923 l -2.02454,-6.344543 -0.07993,-3.971062 5.928066,-2.145275 c 0.239517,-0.16215 0.343571,-0.469126 0.239831,-0.733145 -0.103749,-0.264048 -0.388859,-0.417886 -0.679506,-0.385892 l 2e-5,0 z" />
  <path
     inkscape:connector-curvature="0"
     d="m 29.5,15.999521 c 0,7.456085 -6.044601,13.500478 -13.499829,13.500478 C 8.54426,29.499999 2.5,23.455537 2.5,15.999521 2.5,8.5437808 8.54426,2.5000002 16.000171,2.5000002 23.455399,2.5000002 29.5,8.5437808 29.5,15.999521 l 0,0 z"
     id="path8655"
     style="opacity:0.5;color:#000000;fill:none;stroke:url(#linearGradient3089);stroke-width:1;stroke-linecap:round;stroke-linejoin:round;stroke-miterlimit:4;stroke-opacity:1;stroke-dasharray:none;stroke-dashoffset:0;marker:none;visibility:visible;display:inline;overflow:visible;enable-background:accumulate" />
</svg>
