<?xml version="1.0" encoding="UTF-8" standalone="no"?>
<!-- Created with Inkscape (http://www.inkscape.org/) -->

<svg
   xmlns:dc="http://purl.org/dc/elements/1.1/"
   xmlns:cc="http://creativecommons.org/ns#"
   xmlns:rdf="http://www.w3.org/1999/02/22-rdf-syntax-ns#"
   xmlns:svg="http://www.w3.org/2000/svg"
   xmlns="http://www.w3.org/2000/svg"
   xmlns:xlink="http://www.w3.org/1999/xlink"
   xmlns:inkscape="http://www.inkscape.org/namespaces/inkscape"
   version="1.1"
   width="32"
   height="32"
   id="svg4354">
  <defs
     id="defs4356">
    <linearGradient
       x1="19.874987"
       y1="38.245197"
       x2="19.874987"
       y2="-61.256123"
       id="linearGradient4251"
       xlink:href="#linearGradient3707-319-631-407-1-846-5-4-5-44"
       gradientUnits="userSpaceOnUse"
       gradientTransform="matrix(-0.29999995,0,0,0.29999995,34.258887,19.300002)" />
    <linearGradient
       id="linearGradient3707-319-631-407-1-846-5-4-5-44">
      <stop
         id="stop3788-4-8-9-7"
         style="stop-color:#365a7c;stop-opacity:1"
         offset="0" />
      <stop
         id="stop3790-2-1-9-6"
         style="stop-color:#5ea1ca;stop-opacity:1"
         offset="1" />
    </linearGradient>
    <linearGradient
       x1="19.874987"
       y1="38.245197"
       x2="19.874987"
       y2="-61.256123"
       id="linearGradient4253"
       xlink:href="#linearGradient3707-319-631-407-1-846-5-4-5-4"
       gradientUnits="userSpaceOnUse"
       gradientTransform="matrix(-0.29999995,0,0,0.29999995,28.258887,19.300002)" />
    <linearGradient
       id="linearGradient3707-319-631-407-1-846-5-4-5-4">
      <stop
         id="stop3788-4-8-9-8"
         style="stop-color:#365a7c;stop-opacity:1"
         offset="0" />
      <stop
         id="stop3790-2-1-9-10"
         style="stop-color:#5ea1ca;stop-opacity:1"
         offset="1" />
    </linearGradient>
    <linearGradient
       x1="19.874987"
       y1="38.245197"
       x2="19.874987"
       y2="-61.256123"
       id="linearGradient4255"
       xlink:href="#linearGradient3707-319-631-407-1-846-5-4-5-6"
       gradientUnits="userSpaceOnUse"
       gradientTransform="matrix(-0.29999995,0,0,0.29999995,22.258887,19.300002)" />
    <linearGradient
       id="linearGradient3707-319-631-407-1-846-5-4-5-6">
      <stop
         id="stop3788-4-8-9-1"
         style="stop-color:#365a7c;stop-opacity:1"
         offset="0" />
      <stop
         id="stop3790-2-1-9-1"
         style="stop-color:#5ea1ca;stop-opacity:1"
         offset="1" />
    </linearGradient>
    <linearGradient
       x1="19.874987"
       y1="38.245197"
       x2="19.874987"
       y2="-61.256123"
       id="linearGradient4257"
       xlink:href="#linearGradient3707-319-631-407-1-846-5-4-5"
       gradientUnits="userSpaceOnUse"
       gradientTransform="matrix(-0.29999995,0,0,0.29999995,16.258887,19.300002)" />
    <linearGradient
       id="linearGradient3707-319-631-407-1-846-5-4-5">
      <stop
         id="stop3788-4-8-9"
         style="stop-color:#365a7c;stop-opacity:1"
         offset="0" />
      <stop
         id="stop3790-2-1-9"
         style="stop-color:#5ea1ca;stop-opacity:1"
         offset="1" />
    </linearGradient>
    <linearGradient
       x1="33.497383"
       y1="8.0590115"
       x2="39.020798"
       y2="3.0796025"
       id="linearGradient3034-5"
       xlink:href="#linearGradient8589-4-3-1"
       gradientUnits="userSpaceOnUse"
       gradientTransform="matrix(0.9511534,0,0,1.0169682,-9.2136599,4.3110136)" />
    <linearGradient
       id="linearGradient8589-4-3-1">
      <stop
         id="stop8591-7-2-8"
         style="stop-color:#fefefe;stop-opacity:1"
         offset="0" />
      <stop
         id="stop8593-2-4-0"
         style="stop-color:#cbcbcb;stop-opacity:1"
         offset="1" />
    </linearGradient>
    <linearGradient
       x1="16.626165"
       y1="15.298182"
       x2="20.054544"
       y2="24.627615"
       id="linearGradient3174"
       xlink:href="#linearGradient8265-821-176-38-919-66-249-7-7"
       gradientUnits="userSpaceOnUse"
       gradientTransform="matrix(0.60788032,0,0,0.81327108,1.3824371,0.354424)" />
    <linearGradient
       id="linearGradient8265-821-176-38-919-66-249-7-7">
      <stop
         id="stop2687-1-9"
         style="stop-color:#ffffff;stop-opacity:1"
         offset="0" />
      <stop
         id="stop2689-5-4"
         style="stop-color:#ffffff;stop-opacity:0"
         offset="1" />
    </linearGradient>
    <linearGradient
       x1="23.99999"
       y1="4.999989"
       x2="23.99999"
       y2="43"
       id="linearGradient3141"
       xlink:href="#linearGradient3924"
       gradientUnits="userSpaceOnUse"
       gradientTransform="matrix(0.72972972,0,0,0.62162164,-1.5135104,2.0810873)" />
    <linearGradient
       id="linearGradient3924">
      <stop
         id="stop3926"
         style="stop-color:#ffffff;stop-opacity:1"
         offset="0" />
      <stop
         id="stop3928"
         style="stop-color:#ffffff;stop-opacity:0.23529412"
         offset="0.06316455" />
      <stop
         id="stop3930"
         style="stop-color:#ffffff;stop-opacity:0.15686275"
         offset="0.95056331" />
      <stop
         id="stop3932"
         style="stop-color:#ffffff;stop-opacity:0.39215687"
         offset="1" />
    </linearGradient>
    <radialGradient
       cx="7.4956832"
       cy="8.4497671"
       r="19.99999"
       fx="7.4956832"
       fy="8.4497671"
       id="radialGradient2900"
       xlink:href="#linearGradient4157-401-351-3-5"
       gradientUnits="userSpaceOnUse"
       gradientTransform="matrix(0,1.0615086,-1.8154563,-4.479145e-8,54.189164,0.52372)" />
    <linearGradient
       id="linearGradient4157-401-351-3-5">
      <stop
         id="stop3790-0-0"
         style="stop-color:#505050;stop-opacity:1"
         offset="0" />
      <stop
         id="stop3792-0-2"
         style="stop-color:#141414;stop-opacity:1"
         offset="1" />
    </linearGradient>
    <linearGradient
       x1="16.142857"
       y1="4.000001"
       x2="16.142857"
       y2="44.000256"
       id="linearGradient2902"
       xlink:href="#linearGradient3610-302-5-8"
       gradientUnits="userSpaceOnUse"
       gradientTransform="matrix(0.58977758,0,0,0.46157243,24.69426,6.1344931)" />
    <linearGradient
       id="linearGradient3610-302-5-8">
      <stop
         id="stop3796-3-0"
         style="stop-color:#323232;stop-opacity:1"
         offset="0" />
      <stop
         id="stop3798-8-6"
         style="stop-color:#000000;stop-opacity:1"
         offset="1" />
    </linearGradient>
    <radialGradient
       cx="7.4956832"
       cy="8.4497671"
       r="19.99999"
       fx="7.4956832"
       fy="8.4497671"
       id="radialGradient3166-9"
       xlink:href="#linearGradient2867-449-88-871-390-598-476-591-434-148-57-177-8"
       gradientUnits="userSpaceOnUse"
       gradientTransform="matrix(1.4446809e-8,1.4980705,-1.8383448,-2.7600178e-8,31.533668,-6.355641)" />
    <linearGradient
       id="linearGradient2867-449-88-871-390-598-476-591-434-148-57-177-8">
      <stop
         id="stop3750-4"
         style="stop-color:#90dbec;stop-opacity:1"
         offset="0" />
      <stop
         id="stop3752-8"
         style="stop-color:#55c1ec;stop-opacity:1"
         offset="0.26238" />
      <stop
         id="stop3754-1"
         style="stop-color:#3689e6;stop-opacity:1"
         offset="0.704952" />
      <stop
         id="stop3756-0"
         style="stop-color:#2b63a0;stop-opacity:1"
         offset="1" />
    </linearGradient>
    <linearGradient
       x1="24"
       y1="44"
       x2="24"
       y2="3.8990016"
       id="linearGradient3168-3"
       xlink:href="#linearGradient3707-319-631-407-324-0"
       gradientUnits="userSpaceOnUse"
       gradientTransform="matrix(0.74358978,0,0,0.64102567,-1.8461529,1.6153843)" />
    <linearGradient
       id="linearGradient3707-319-631-407-324-0">
      <stop
         id="stop3760-4"
         style="stop-color:#185f9a;stop-opacity:1"
         offset="0" />
      <stop
         id="stop3762-4"
         style="stop-color:#599ec9;stop-opacity:1"
         offset="1" />
    </linearGradient>
    <radialGradient
       cx="605.71429"
       cy="486.64789"
       r="117.14286"
       fx="605.71429"
       fy="486.64789"
       id="radialGradient2910"
       xlink:href="#linearGradient5060-6-6-5"
       gradientUnits="userSpaceOnUse"
       gradientTransform="matrix(-0.04372487,0,0,0.01647059,31.794815,21.294422)" />
    <linearGradient
       id="linearGradient5060-6-6-5">
      <stop
         id="stop5062-3-0-3"
         style="stop-color:#000000;stop-opacity:1"
         offset="0" />
      <stop
         id="stop5064-1-4-9"
         style="stop-color:#000000;stop-opacity:0"
         offset="1" />
    </linearGradient>
    <radialGradient
       cx="605.71429"
       cy="486.64789"
       r="117.14286"
       fx="605.71429"
       fy="486.64789"
       id="radialGradient2913"
       xlink:href="#linearGradient5060-6-6-5"
       gradientUnits="userSpaceOnUse"
       gradientTransform="matrix(0.04372487,0,0,0.01647059,0.20519206,21.294422)" />
    <linearGradient
       id="linearGradient5048-7-7-5">
      <stop
         id="stop5050-5-6-4"
         style="stop-color:#000000;stop-opacity:0"
         offset="0" />
      <stop
         id="stop5056-9-0-1"
         style="stop-color:#000000;stop-opacity:1"
         offset="0.5" />
      <stop
         id="stop5052-6-9-5"
         style="stop-color:#000000;stop-opacity:0"
         offset="1" />
    </linearGradient>
    <linearGradient
       x1="302.85715"
       y1="366.64789"
       x2="302.85715"
       y2="609.50507"
       id="linearGradient4352"
       xlink:href="#linearGradient5048-7-7-5"
       gradientUnits="userSpaceOnUse"
       gradientTransform="matrix(0.04372487,0,0,0.01647059,0.19658512,21.294422)" />
  </defs>
  <metadata
     id="metadata4359">
    <rdf:RDF>
      <cc:Work
         rdf:about="">
        <dc:format>image/svg+xml</dc:format>
        <dc:type
           rdf:resource="http://purl.org/dc/dcmitype/StillImage" />
        <dc:title />
      </cc:Work>
    </rdf:RDF>
  </metadata>
  <g
     id="layer1">
    <rect
       width="21.11286"
       height="4.0000005"
       x="5.4435763"
       y="27.333334"
       id="rect2512-9-5"
       style="opacity:0.40206185;fill:url(#linearGradient4352);fill-opacity:1;fill-rule:nonzero;stroke:none;stroke-width:1;marker:none;visibility:visible;display:inline;overflow:visible" />
    <path
       d="m 26.556432,27.333467 c 0,0 0,3.999779 0,3.999779 C 28.808154,31.340773 32,30.437099 32,29.333099 c 0,-1.104 -2.512752,-1.999632 -5.443568,-1.999632 z"
       inkscape:connector-curvature="0"
       id="path2514-7-4"
       style="opacity:0.40206185;fill:url(#radialGradient2913);fill-opacity:1;fill-rule:nonzero;stroke:none;stroke-width:1;marker:none;visibility:visible;display:inline;overflow:visible" />
    <path
       d="m 5.4435678,27.333467 c 0,0 0,3.999779 0,3.999779 C 3.1918461,31.340773 0,30.437099 0,29.333099 c 0,-1.104 2.5127521,-1.999632 5.4435678,-1.999632 z"
       inkscape:connector-curvature="0"
       id="path2516-8-9"
       style="opacity:0.40206185;fill:url(#radialGradient2910);fill-opacity:1;fill-rule:nonzero;stroke:none;stroke-width:1;marker:none;visibility:visible;display:inline;overflow:visible" />
    <rect
       width="29"
       height="25"
       rx="2"
       ry="2"
       x="1.5"
       y="4.5"
       id="rect5505"
       style="color:#000000;fill:url(#radialGradient3166-9);fill-opacity:1;fill-rule:nonzero;stroke:url(#linearGradient3168-3);stroke-width:1;stroke-linecap:round;stroke-linejoin:round;stroke-miterlimit:4;stroke-opacity:1;stroke-dasharray:none;stroke-dashoffset:0;marker:none;visibility:visible;display:inline;overflow:visible;enable-background:accumulate" />
    <path
       d="m 5.5,25.5 c -0.554,0 -1,0.446 -1,1 l 0,2 23,0 0,-2 c 0,-0.554 -0.446,-1 -1,-1 z"
       inkscape:connector-curvature="0"
       id="path4306"
       style="opacity:0.7;fill:#ffffff;fill-opacity:0.58823529;stroke:#ffffff;stroke-width:0.99999994px;stroke-linecap:butt;stroke-linejoin:miter;stroke-opacity:1" />
    <path
       d="m 9.118401,22.000001 -4.2368038,0 C 4.3931925,22.000001 4,22.393194 4,22.881598 l 0,4.236805 C 4,27.606808 4.3931925,28 4.8815972,28 L 9.118401,28 C 9.606807,28 10,27.606808 10,27.118403 l 0,-4.236805 C 10,22.393194 9.606807,22.000001 9.118401,22.000001 z"
       inkscape:connector-curvature="0"
       id="path3184"
       style="opacity:0.3;color:#000000;fill:url(#linearGradient4257);fill-opacity:1;fill-rule:nonzero;stroke:none;stroke-width:1;marker:none;visibility:visible;display:inline;overflow:visible;enable-background:accumulate" />
    <path
       d="m 8.206706,23.492713 -2.4134109,0 c -0.1665219,0 -0.3005814,0.13406 -0.3005814,0.300581 l 0,2.413411 c 0,0.166522 0.1340595,0.300581 0.3005814,0.300581 l 2.4134109,0 c 0.1665209,0 0.3005805,-0.134059 0.3005805,-0.300581 l 0,-2.413411 c 0,-0.166521 -0.1340596,-0.300581 -0.3005805,-0.300581 z"
       inkscape:connector-curvature="0"
       id="path3176"
       style="color:#000000;fill:#f7f7f7;fill-opacity:1;fill-rule:nonzero;stroke:#ffffff;stroke-width:0.98542714;stroke-linecap:butt;stroke-linejoin:miter;stroke-miterlimit:4;stroke-opacity:1;stroke-dashoffset:0;marker:none;visibility:visible;display:inline;overflow:visible;enable-background:accumulate" />
    <path
       d="m 15.118401,22.000001 -4.236804,0 C 10.393193,22.000001 10,22.393194 10,22.881598 l 0,4.236805 C 10,27.606808 10.393193,28 10.881597,28 l 4.236804,0 C 15.606807,28 16,27.606808 16,27.118403 l 0,-4.236805 c 0,-0.488404 -0.393193,-0.881597 -0.881599,-0.881597 z"
       inkscape:connector-curvature="0"
       id="path3184-5"
       style="opacity:0.3;color:#000000;fill:url(#linearGradient4255);fill-opacity:1;fill-rule:nonzero;stroke:none;stroke-width:1;marker:none;visibility:visible;display:inline;overflow:visible;enable-background:accumulate" />
    <path
       d="m 14.206706,23.492713 -2.413411,0 c -0.166522,0 -0.300581,0.13406 -0.300581,0.300581 l 0,2.413411 c 0,0.166522 0.134059,0.300581 0.300581,0.300581 l 2.413411,0 c 0.166521,0 0.300581,-0.134059 0.300581,-0.300581 l 0,-2.413411 c 0,-0.166521 -0.13406,-0.300581 -0.300581,-0.300581 z"
       inkscape:connector-curvature="0"
       id="path3176-9"
       style="color:#000000;fill:#f7f7f7;fill-opacity:1;fill-rule:nonzero;stroke:#ffffff;stroke-width:0.98542714;stroke-linecap:butt;stroke-linejoin:miter;stroke-miterlimit:4;stroke-opacity:1;stroke-dashoffset:0;marker:none;visibility:visible;display:inline;overflow:visible;enable-background:accumulate" />
    <path
       d="m 21.118401,22.000001 -4.236804,0 C 16.393193,22.000001 16,22.393194 16,22.881598 l 0,4.236805 C 16,27.606808 16.393193,28 16.881597,28 l 4.236804,0 C 21.606807,28 22,27.606808 22,27.118403 l 0,-4.236805 c 0,-0.488404 -0.393193,-0.881597 -0.881599,-0.881597 z"
       inkscape:connector-curvature="0"
       id="path3184-0"
       style="opacity:0.3;color:#000000;fill:url(#linearGradient4253);fill-opacity:1;fill-rule:nonzero;stroke:none;stroke-width:1;marker:none;visibility:visible;display:inline;overflow:visible;enable-background:accumulate" />
    <path
       d="m 20.206706,23.492713 -2.413411,0 c -0.166522,0 -0.300581,0.13406 -0.300581,0.300581 l 0,2.413411 c 0,0.166522 0.134059,0.300581 0.300581,0.300581 l 2.413411,0 c 0.166521,0 0.300581,-0.134059 0.300581,-0.300581 l 0,-2.413411 c 0,-0.166521 -0.13406,-0.300581 -0.300581,-0.300581 z"
       inkscape:connector-curvature="0"
       id="path3176-4"
       style="color:#000000;fill:#f7f7f7;fill-opacity:1;fill-rule:nonzero;stroke:#ffffff;stroke-width:0.98542714;stroke-linecap:butt;stroke-linejoin:miter;stroke-miterlimit:4;stroke-opacity:1;stroke-dashoffset:0;marker:none;visibility:visible;display:inline;overflow:visible;enable-background:accumulate" />
    <path
       d="m 27.118401,22.000001 -4.236804,0 C 22.393193,22.000001 22,22.393194 22,22.881598 l 0,4.236805 C 22,27.606808 22.393193,28 22.881597,28 l 4.236804,0 C 27.606807,28 28,27.606808 28,27.118403 l 0,-4.236805 c 0,-0.488404 -0.393193,-0.881597 -0.881599,-0.881597 z"
       inkscape:connector-curvature="0"
       id="path3184-7"
       style="opacity:0.3;color:#000000;fill:url(#linearGradient4251);fill-opacity:1;fill-rule:nonzero;stroke:none;stroke-width:1;marker:none;visibility:visible;display:inline;overflow:visible;enable-background:accumulate" />
    <path
       d="m 26.206706,23.492713 -2.413411,0 c -0.166522,0 -0.300581,0.13406 -0.300581,0.300581 l 0,2.413411 c 0,0.166522 0.134059,0.300581 0.300581,0.300581 l 2.413411,0 c 0.166521,0 0.300581,-0.134059 0.300581,-0.300581 l 0,-2.413411 c 0,-0.166521 -0.13406,-0.300581 -0.300581,-0.300581 z"
       inkscape:connector-curvature="0"
       id="path3176-5"
       style="color:#000000;fill:#f7f7f7;fill-opacity:1;fill-rule:nonzero;stroke:#ffffff;stroke-width:0.98542714;stroke-linecap:butt;stroke-linejoin:miter;stroke-miterlimit:4;stroke-opacity:1;stroke-dashoffset:0;marker:none;visibility:visible;display:inline;overflow:visible;enable-background:accumulate" />
    <path
       d="M 3.5842142,5 C 3.0837585,5 2,5.5702913 2,6.125 L 2.0093107,20 C 2.8148034,19.984887 29.388613,14.470682 30,14.205444 L 30,6.125 C 30,5.7009978 28.783556,5 28.350213,5 z"
       inkscape:connector-curvature="0"
       id="path3333"
       style="opacity:0.2;fill:url(#linearGradient3174);fill-opacity:1;fill-rule:evenodd;stroke:none" />
    <path
       d="m 18.5,4.5 12,10.25 0,-8.25 c 0,-1.108 -0.892,-2 -2,-2 z"
       inkscape:connector-curvature="0"
       id="rect5505-4"
       style="color:#000000;fill:url(#radialGradient2900);fill-opacity:1;fill-rule:nonzero;stroke:url(#linearGradient2902);stroke-width:1;stroke-linecap:butt;stroke-linejoin:round;stroke-miterlimit:4;stroke-opacity:1;stroke-dasharray:none;stroke-dashoffset:0;marker:none;visibility:visible;display:inline;overflow:visible;enable-background:accumulate" />
    <path
       d="m 17,5 c 0,0 0.920863,3.1151079 1,6 0.07914,2.884892 0,5 0,5 0,0 1.324008,-0.356432 5,-0.5 3.675992,-0.143568 7,0.5 7,0.5 z"
       inkscape:connector-curvature="0"
       id="path3353-9"
       style="opacity:0.25;fill:#000000;fill-opacity:1;stroke:none" />
    <path
       d="m 16,6 c 0,0 0.920863,3.1151079 1,6 0.07914,2.884892 0,5 0,5 0,0 1.324008,-0.356432 5,-0.5 3.675992,-0.143568 7,0.5 7,0.5 z"
       inkscape:connector-curvature="0"
       id="path3353-9-5"
       style="opacity:0.05;fill:#000000;fill-opacity:1;stroke:none" />
    <path
       d="m 18,4 c 0,0 0.920863,3.1151079 1,6 0.07914,2.884892 0,5 0,5 0,0 1.324008,-0.356432 5,-0.5 3.675992,-0.143568 7,0.5 7,0.5 z"
       inkscape:connector-curvature="0"
       id="path3353"
       style="color:#000000;fill:url(#linearGradient3034-5);fill-opacity:1;fill-rule:evenodd;stroke:none;marker:none;visibility:visible;display:inline;overflow:visible;enable-background:accumulate" />
    <rect
       width="26.999998"
       height="23"
       rx="1"
       ry="1"
       x="2.5"
       y="5.5"
       id="rect6741-7"
       style="opacity:0.5;fill:none;stroke:url(#linearGradient3141);stroke-width:0.99999994;stroke-linecap:round;stroke-linejoin:round;stroke-miterlimit:4;stroke-opacity:1;stroke-dasharray:none;stroke-dashoffset:0" />
  </g>
</svg>
