<?xml version="1.0" encoding="UTF-8" standalone="no"?>
<!-- Created with Inkscape (http://www.inkscape.org/) -->

<svg
   xmlns:dc="http://purl.org/dc/elements/1.1/"
   xmlns:cc="http://creativecommons.org/ns#"
   xmlns:rdf="http://www.w3.org/1999/02/22-rdf-syntax-ns#"
   xmlns:svg="http://www.w3.org/2000/svg"
   xmlns="http://www.w3.org/2000/svg"
   xmlns:xlink="http://www.w3.org/1999/xlink"
   xmlns:inkscape="http://www.inkscape.org/namespaces/inkscape"
   version="1.1"
   width="32"
   height="32"
   id="svg4769">
  <defs
     id="defs4771">
    <linearGradient
       id="linearGradient4687">
      <stop
         id="stop4689"
         style="stop-color:#000000;stop-opacity:1"
         offset="0" />
      <stop
         id="stop4691"
         style="stop-color:#000000;stop-opacity:0"
         offset="1" />
    </linearGradient>
    <linearGradient
       id="linearGradient3707-319-631-407-324-616-4-2">
      <stop
         id="stop3246-4-3-3"
         style="stop-color:#505050;stop-opacity:1"
         offset="0" />
      <stop
         id="stop3248-4-9-1"
         style="stop-color:#8e8e8e;stop-opacity:1"
         offset="1" />
    </linearGradient>
    <linearGradient
       id="linearGradient3924-118">
      <stop
         id="stop3216"
         style="stop-color:#ffffff;stop-opacity:1"
         offset="0" />
      <stop
         id="stop3218"
         style="stop-color:#ffffff;stop-opacity:0.23529412"
         offset="0.06316455" />
      <stop
         id="stop3220"
         style="stop-color:#ffffff;stop-opacity:0.15686275"
         offset="0.95056331" />
      <stop
         id="stop3222"
         style="stop-color:#ffffff;stop-opacity:0.39215687"
         offset="1" />
    </linearGradient>
    <radialGradient
       cx="4.9929786"
       cy="43.5"
       r="2.5"
       fx="4.9929786"
       fy="43.5"
       id="radialGradient2976-573"
       xlink:href="#linearGradient3688-166-749-57"
       gradientUnits="userSpaceOnUse"
       gradientTransform="matrix(2.003784,0,0,1.4,27.98813,-17.4)" />
    <linearGradient
       id="linearGradient3688-166-749-57">
      <stop
         id="stop3180"
         style="stop-color:#181818;stop-opacity:1"
         offset="0" />
      <stop
         id="stop3182"
         style="stop-color:#181818;stop-opacity:0"
         offset="1" />
    </linearGradient>
    <radialGradient
       cx="4.9929786"
       cy="43.5"
       r="2.5"
       fx="4.9929786"
       fy="43.5"
       id="radialGradient2978-786"
       xlink:href="#linearGradient3688-464-309-665"
       gradientUnits="userSpaceOnUse"
       gradientTransform="matrix(2.003784,0,0,1.4,-20.01187,-104.4)" />
    <linearGradient
       id="linearGradient3688-464-309-665">
      <stop
         id="stop3186"
         style="stop-color:#181818;stop-opacity:1"
         offset="0" />
      <stop
         id="stop3188"
         style="stop-color:#181818;stop-opacity:0"
         offset="1" />
    </linearGradient>
    <linearGradient
       x1="25.058096"
       y1="47.027729"
       x2="25.058096"
       y2="39.999443"
       id="linearGradient2980-983"
       xlink:href="#linearGradient3702-501-757-17"
       gradientUnits="userSpaceOnUse" />
    <linearGradient
       id="linearGradient3702-501-757-17">
      <stop
         id="stop3192"
         style="stop-color:#181818;stop-opacity:0"
         offset="0" />
      <stop
         id="stop3194"
         style="stop-color:#181818;stop-opacity:1"
         offset="0.5" />
      <stop
         id="stop3196"
         style="stop-color:#181818;stop-opacity:0"
         offset="1" />
    </linearGradient>
    <linearGradient
       x1="16"
       y1="9"
       x2="16"
       y2="25"
       id="linearGradient3033"
       xlink:href="#linearGradient4687"
       gradientUnits="userSpaceOnUse"
       gradientTransform="matrix(1,0,0,-1,-27.661017,34.00359)" />
    <linearGradient
       x1="16"
       y1="9"
       x2="16"
       y2="25"
       id="linearGradient3036"
       xlink:href="#linearGradient4687"
       gradientUnits="userSpaceOnUse"
       gradientTransform="translate(-27.661017,0)" />
    <linearGradient
       x1="19.927404"
       y1="44.949184"
       x2="19.927404"
       y2="4.9969058"
       id="linearGradient3039"
       xlink:href="#linearGradient3707-319-631-407-324-616-4-2"
       gradientUnits="userSpaceOnUse"
       gradientTransform="matrix(0.66666666,0,0,0.66666666,-27.661016,0.3333326)" />
    <linearGradient
       x1="23.99999"
       y1="4.999989"
       x2="23.99999"
       y2="43"
       id="linearGradient3043"
       xlink:href="#linearGradient3924-118"
       gradientUnits="userSpaceOnUse"
       gradientTransform="matrix(0.62162164,0,0,0.62162164,1.0810837,2.0810873)" />
    <linearGradient
       x1="24"
       y1="44"
       x2="24"
       y2="3.8990016"
       id="linearGradient3048"
       xlink:href="#linearGradient3851"
       gradientUnits="userSpaceOnUse"
       gradientTransform="matrix(0.64102567,0,0,0.64102567,0.6153854,-32.384616)" />
    <linearGradient
       id="linearGradient2867-449-88-871-390-598-476-591-434-148-57-177-8-802-7">
      <stop
         id="stop3200-4"
         style="stop-color:#c7c7c7;stop-opacity:1"
         offset="0" />
      <stop
         id="stop3202-7"
         style="stop-color:#a6a6a6;stop-opacity:1"
         offset="0.26238" />
      <stop
         id="stop3204-2"
         style="stop-color:#7b7b7b;stop-opacity:1"
         offset="0.704952" />
      <stop
         id="stop3206-8"
         style="stop-color:#595959;stop-opacity:1"
         offset="1" />
    </linearGradient>
    <radialGradient
       cx="7.4956832"
       cy="8.4497671"
       r="19.99999"
       fx="7.4956832"
       fy="8.4497671"
       id="radialGradient4196"
       xlink:href="#linearGradient2867-449-88-871-390-598-476-591-434-148-57-177-8-802-7"
       gradientUnits="userSpaceOnUse"
       gradientTransform="matrix(1.195598e-8,1.4381477,-1.5213888,-2.6496171e-8,28.855449,-5.4214154)" />
    <linearGradient
       x1="0.85715157"
       y1="5.7142859"
       x2="0.85715157"
       y2="44.858185"
       id="linearGradient3857"
       xlink:href="#linearGradient3851"
       gradientUnits="userSpaceOnUse"
       gradientTransform="translate(41.285715,0)" />
    <linearGradient
       x1="25.058096"
       y1="47.027729"
       x2="25.058096"
       y2="39.999443"
       id="linearGradient4395"
       xlink:href="#linearGradient3702-501-757-6-946"
       gradientUnits="userSpaceOnUse" />
    <linearGradient
       id="linearGradient3702-501-757-6-946">
      <stop
         id="stop3228"
         style="stop-color:#181818;stop-opacity:0"
         offset="0" />
      <stop
         id="stop3230"
         style="stop-color:#181818;stop-opacity:1"
         offset="0.5" />
      <stop
         id="stop3232"
         style="stop-color:#181818;stop-opacity:0"
         offset="1" />
    </linearGradient>
    <linearGradient
       id="linearGradient3688-464-309-8-331">
      <stop
         id="stop3222-1"
         style="stop-color:#181818;stop-opacity:1"
         offset="0" />
      <stop
         id="stop3224"
         style="stop-color:#181818;stop-opacity:0"
         offset="1" />
    </linearGradient>
    <radialGradient
       cx="4.9929786"
       cy="43.5"
       r="2.5"
       fx="4.9929786"
       fy="43.5"
       id="radialGradient3015-826"
       xlink:href="#linearGradient3688-464-309-8-331"
       gradientUnits="userSpaceOnUse"
       gradientTransform="matrix(2.003784,0,0,1.4,-20.01187,-104.4)" />
    <linearGradient
       id="linearGradient3688-166-749-2-324">
      <stop
         id="stop3216-5"
         style="stop-color:#181818;stop-opacity:1"
         offset="0" />
      <stop
         id="stop3218-9"
         style="stop-color:#181818;stop-opacity:0"
         offset="1" />
    </linearGradient>
    <radialGradient
       cx="4.9929786"
       cy="43.5"
       r="2.5"
       fx="4.9929786"
       fy="43.5"
       id="radialGradient3013-896"
       xlink:href="#linearGradient3688-166-749-2-324"
       gradientUnits="userSpaceOnUse"
       gradientTransform="matrix(2.003784,0,0,1.4,27.98813,-17.4)" />
    <linearGradient
       id="linearGradient2867-449-88-871-390-598-476-591-434-148-57-177-641">
      <stop
         id="stop3236"
         style="stop-color:#c7c7c7;stop-opacity:1"
         offset="0" />
      <stop
         id="stop3238"
         style="stop-color:#a6a6a6;stop-opacity:1"
         offset="0.26238" />
      <stop
         id="stop3240"
         style="stop-color:#7b7b7b;stop-opacity:1"
         offset="0.704952" />
      <stop
         id="stop3242"
         style="stop-color:#595959;stop-opacity:1"
         offset="1" />
    </linearGradient>
    <radialGradient
       cx="7.4956832"
       cy="8.4497671"
       r="19.99999"
       fx="7.4956832"
       fy="8.4497671"
       id="radialGradient3476"
       xlink:href="#linearGradient2867-449-88-871-390-598-476-591-434-148-57-177-641"
       gradientUnits="userSpaceOnUse"
       gradientTransform="matrix(1.8930301e-8,2.2770672,-2.4088655,-4.1952268e-8,44.35446,-10.500573)" />
    <linearGradient
       id="linearGradient3924-803">
      <stop
         id="stop3252"
         style="stop-color:#ffffff;stop-opacity:1"
         offset="0" />
      <stop
         id="stop3254"
         style="stop-color:#ffffff;stop-opacity:0.23529412"
         offset="0.06316455" />
      <stop
         id="stop3256"
         style="stop-color:#ffffff;stop-opacity:0.15686275"
         offset="0.95056331" />
      <stop
         id="stop3258"
         style="stop-color:#ffffff;stop-opacity:0.39215687"
         offset="1" />
    </linearGradient>
    <linearGradient
       x1="23.99999"
       y1="4.999989"
       x2="23.99999"
       y2="43"
       id="linearGradient3473"
       xlink:href="#linearGradient3924-803"
       gradientUnits="userSpaceOnUse"
       gradientTransform="translate(1.17e-5,1.00001)" />
    <linearGradient
       id="linearGradient3707-319-631-407-324-616">
      <stop
         id="stop3246"
         style="stop-color:#505050;stop-opacity:1"
         offset="0" />
      <stop
         id="stop3248"
         style="stop-color:#8e8e8e;stop-opacity:1"
         offset="1" />
    </linearGradient>
    <linearGradient
       x1="19.927404"
       y1="44.949184"
       x2="19.927404"
       y2="4.9969058"
       id="linearGradient4273"
       xlink:href="#linearGradient3707-319-631-407-324-616"
       gradientUnits="userSpaceOnUse" />
    <linearGradient
       x1="23.06352"
       y1="12.978221"
       x2="23.06352"
       y2="36.949589"
       id="linearGradient4320"
       xlink:href="#linearGradient4311"
       gradientUnits="userSpaceOnUse" />
    <linearGradient
       id="linearGradient4311">
      <stop
         id="stop4313"
         style="stop-color:#000000;stop-opacity:1"
         offset="0" />
      <stop
         id="stop4315"
         style="stop-color:#000000;stop-opacity:0"
         offset="1" />
    </linearGradient>
    <linearGradient
       x1="23.06352"
       y1="12.978221"
       x2="23.06352"
       y2="36.949589"
       id="linearGradient4326"
       xlink:href="#linearGradient4311"
       gradientUnits="userSpaceOnUse"
       gradientTransform="matrix(1,0,0,-1,0,50.012147)" />
    <linearGradient
       id="linearGradient3851">
      <stop
         id="stop3853"
         style="stop-color:#000000;stop-opacity:0.43200001"
         offset="0" />
      <stop
         id="stop3855"
         style="stop-color:#000000;stop-opacity:0.627451"
         offset="1" />
    </linearGradient>
    <linearGradient
       x1="0.85715157"
       y1="5.7142859"
       x2="0.85715157"
       y2="44.858185"
       id="linearGradient4336"
       xlink:href="#linearGradient3851"
       gradientUnits="userSpaceOnUse"
       gradientTransform="translate(71.823341,-6.0017918)" />
    <linearGradient
       x1="23.06352"
       y1="12.978221"
       x2="23.06352"
       y2="36.949589"
       id="linearGradient4339"
       xlink:href="#linearGradient4311"
       gradientUnits="userSpaceOnUse"
       gradientTransform="matrix(1,0,0,-1,-49.290331,46.763043)" />
    <linearGradient
       x1="23.06352"
       y1="12.978221"
       x2="23.06352"
       y2="36.949589"
       id="linearGradient4342"
       xlink:href="#linearGradient4311"
       gradientUnits="userSpaceOnUse"
       gradientTransform="translate(-49.290331,-3.2491036)" />
    <linearGradient
       x1="19.927404"
       y1="44.949184"
       x2="19.927404"
       y2="4.9969058"
       id="linearGradient4345"
       xlink:href="#linearGradient3707-319-631-407-324-616"
       gradientUnits="userSpaceOnUse"
       gradientTransform="translate(-49.290331,-3.2491036)" />
    <linearGradient
       x1="23.99999"
       y1="4.999989"
       x2="23.99999"
       y2="43"
       id="linearGradient4349"
       xlink:href="#linearGradient3924-803"
       gradientUnits="userSpaceOnUse"
       gradientTransform="translate(-49.290319,-2.2490936)" />
    <radialGradient
       cx="7.4956832"
       cy="8.4497671"
       r="19.99999"
       fx="7.4956832"
       fy="8.4497671"
       id="radialGradient4352"
       xlink:href="#linearGradient2867-449-88-871-390-598-476-591-434-148-57-177-641"
       gradientUnits="userSpaceOnUse"
       gradientTransform="matrix(1.8930301e-8,2.2770672,-2.4088655,-4.1952268e-8,-4.935871,-13.749677)" />
  </defs>
  <metadata
     id="metadata4774">
    <rdf:RDF>
      <cc:Work
         rdf:about="">
        <dc:format>image/svg+xml</dc:format>
        <dc:type
           rdf:resource="http://purl.org/dc/dcmitype/StillImage" />
        <dc:title />
      </cc:Work>
    </rdf:RDF>
  </metadata>
  <rect
     width="24"
     height="24"
     rx="1.5"
     ry="1.5"
     x="4"
     y="5"
     id="rect5505-2"
     style="color:#000000;fill:url(#radialGradient4196);fill-opacity:1;fill-rule:nonzero;stroke:none;stroke-width:1;marker:none;visibility:visible;display:inline;overflow:visible;enable-background:accumulate" />
  <g
     transform="matrix(0.6999997,0,0,0.3333336,-0.8000003,15.33333)"
     id="g2036"
     style="display:inline">
    <g
       transform="matrix(1.052632,0,0,1.285713,-1.263158,-13.42854)"
       id="g3712"
       style="opacity:0.4">
      <rect
         width="5"
         height="7"
         x="38"
         y="40"
         id="rect2801"
         style="fill:url(#radialGradient2976-573);fill-opacity:1;stroke:none" />
      <rect
         width="5"
         height="7"
         x="-10"
         y="-47"
         transform="scale(-1,-1)"
         id="rect3696"
         style="fill:url(#radialGradient2978-786);fill-opacity:1;stroke:none" />
      <rect
         width="28"
         height="7.0000005"
         x="10"
         y="40"
         id="rect3700"
         style="fill:url(#linearGradient2980-983);fill-opacity:1;stroke:none" />
    </g>
  </g>
  <rect
     width="25"
     height="25"
     rx="2"
     ry="2"
     x="3.5"
     y="-29.5"
     transform="scale(1,-1)"
     id="rect5505"
     style="color:#000000;fill:none;stroke:url(#linearGradient3048);stroke-width:1;stroke-linecap:round;stroke-linejoin:round;stroke-miterlimit:4;stroke-opacity:1;stroke-dasharray:none;stroke-dashoffset:0;marker:none;visibility:visible;display:inline;overflow:visible;enable-background:accumulate" />
  <rect
     width="23"
     height="23"
     rx="1"
     ry="1"
     x="4.5"
     y="5.5"
     id="rect6741-7"
     style="opacity:0.5;fill:none;stroke:url(#linearGradient3043);stroke-width:1;stroke-linecap:round;stroke-linejoin:round;stroke-miterlimit:4;stroke-opacity:1;stroke-dasharray:none;stroke-dashoffset:0" />
  <g
     transform="matrix(0.57142857,0,0,0.6,16.428571,14)"
     id="layer1-8-8"
     style="opacity:0.3;color:#000000;fill:#ffffff;fill-opacity:1;fill-rule:nonzero;stroke:none;marker:none;visibility:visible;display:inline;overflow:visible;enable-background:accumulate">
    <path
       d="M 1.75,0 C 1.3345,0 1,0.3345 1,0.75 l 0,13.5 C 1,14.6655 1.3345,15 1.75,15 l 12.5,0 C 14.6655,15 15,14.6655 15,14.25 L 15,0.75 C 15,0.3345 14.6655,0 14.25,0 L 1.75,0 z M 2,1 3,1 3,2 2,2 2,1 z m 2.5,0 7,0 C 11.777,1 12,1.223 12,1.5 l 0,5 C 12,6.777 11.777,7 11.5,7 l -7,0 C 4.223,7 4,6.777 4,6.5 l 0,-5 C 4,1.223 4.223,1 4.5,1 z m 8.5,0 1,0 0,1 -1,0 0,-1 z M 2,3 3,3 3,4 2,4 2,3 z m 11,0 1,0 0,1 -1,0 0,-1 z M 2,5 3,5 3,6 2,6 2,5 z m 11,0 1,0 0,1 -1,0 0,-1 z M 2,7 3,7 3,8 2,8 2,7 z m 11,0 1,0 0,1 -1,0 0,-1 z m -8.5,1 7,0 C 11.777,8 12,8.223 12,8.5 l 0,5 c 0,0.277 -0.223,0.5 -0.5,0.5 l -7,0 C 4.223,14 4,13.777 4,13.5 l 0,-5 C 4,8.223 4.223,8 4.5,8 z M 2,9 3,9 3,10 2,10 2,9 z m 11,0 1,0 0,1 -1,0 0,-1 z m -11,2 1,0 0,1 -1,0 0,-1 z m 11,0 1,0 0,1 -1,0 0,-1 z m -11,2 1,0 0,1 -1,0 0,-1 z m 11,0 1,0 0,1 -1,0 0,-1 z"
       inkscape:connector-curvature="0"
       id="rect3032-6"
       style="color:#000000;fill:#ffffff;fill-opacity:1;fill-rule:nonzero;stroke:none;stroke-width:1;marker:none;visibility:visible;display:inline;overflow:visible;enable-background:accumulate" />
  </g>
  <g
     transform="matrix(0.57142857,0,0,0.6,16.428571,13)"
     id="layer1-8"
     style="opacity:0.5;color:#000000;fill:#000000;fill-opacity:1;fill-rule:nonzero;stroke:none;marker:none;visibility:visible;display:inline;overflow:visible;enable-background:accumulate">
    <path
       d="M 1.75,0 C 1.3345,0 1,0.3345 1,0.75 l 0,13.5 C 1,14.6655 1.3345,15 1.75,15 l 12.5,0 C 14.6655,15 15,14.6655 15,14.25 L 15,0.75 C 15,0.3345 14.6655,0 14.25,0 z M 2,1 3,1 3,2 2,2 z m 2.5,0.5833335 7,0 c 0.277,0 0.5,0.223 0.5,0.5 l 0,4.1666667 c 0,0.277 -0.223,0.5 -0.5,0.5 l -7,0 c -0.277,0 -0.5,-0.223 -0.5,-0.5 L 4,2.0833335 c 0,-0.277 0.223,-0.5 0.5,-0.5 z M 13,1 14,1 14,2 13,2 z M 2,3 3,3 3,4 2,4 z m 11,0 1,0 0,1 -1,0 z M 2,5 3,5 3,6 2,6 z m 11,0 1,0 0,1 -1,0 z M 2,7 3,7 3,8 2,8 z m 11,0 1,0 0,1 -1,0 z m -8.5,1.2500002 7,0 c 0.277,0 0.5,0.223 0.5,0.5 l 0,4.1666668 c 0,0.277 -0.223,0.5 -0.5,0.5 l -7,0 c -0.277,0 -0.5,-0.223 -0.5,-0.5 L 4,8.7500002 c 0,-0.277 0.223,-0.5 0.5,-0.5 z M 2,9 3,9 3,10 2,10 z m 11,0 1,0 0,1 -1,0 z m -11,2 1,0 0,1 -1,0 z m 11,0 1,0 0,1 -1,0 z m -11,2 1,0 0,1 -1,0 z m 11,0 1,0 0,1 -1,0 z"
       inkscape:connector-curvature="0"
       id="rect3032"
       style="color:#000000;fill:#000000;fill-opacity:1;fill-rule:nonzero;stroke:none;stroke-width:1;marker:none;visibility:visible;display:inline;overflow:visible;enable-background:accumulate" />
  </g>
  <path
     d="m 13,20.000445 v 7.442067 l -1.707335,-1.640553 -0.975599,1.960605 c -0.238969,0.530279 -1.481317,0.103902 -1.12805,-0.605202 L 10.15449,25.121691 H 8 L 13,20 z"
     inkscape:connector-curvature="0"
     id="path6242-1"
     style="opacity:0.3;color:#000000;fill:#ffffff;fill-opacity:1;fill-rule:nonzero;stroke:none;stroke-width:0.84323651;marker:none;visibility:visible;display:inline;overflow:visible;enable-background:accumulate" />
  <path
     d="m 13,19.000445 v 7.442067 l -1.707335,-1.640553 -0.975599,1.960605 c -0.238969,0.530279 -1.481317,0.103902 -1.12805,-0.605202 L 10.15449,24.121691 H 8 L 13,19 z"
     inkscape:connector-curvature="0"
     id="path6242"
     style="opacity:0.5;color:#000000;fill:#000000;fill-opacity:1;fill-rule:nonzero;stroke:none;stroke-width:0.84323651;marker:none;visibility:visible;display:inline;overflow:visible;enable-background:accumulate" />
  <path
     d="m 12.444289,8.0009025 c -0.425538,-0.02402 -0.490969,0.436761 -0.446059,0.742765 l 0,6.0140435 c -0.261051,-0.05485 -0.601669,-0.0314 -0.895984,0.05544 -0.884306,0.235263 -1.6704595,1.034726 -1.5975445,1.955666 0.102194,0.862408 1.1239345,1.425071 1.9662975,1.168943 0.954266,-0.225906 1.507545,-1.055033 1.507545,-2.125189 l 0,-4.761128 c 0.792764,0.41916 1.506656,1.202437 1.490343,2.125221 0.0086,0.667036 -0.178415,1.334072 -0.442652,1.941264 -0.03556,0.0733 0.04188,0.14513 0.09903,0.172957 0.153015,0.04274 0.232515,-0.15786 0.318996,-0.25231 0.920959,-1.234782 0.980534,-3.049417 -0.01351,-4.262566 -0.352776,-0.430797 -0.812199,-0.7976995 -1.052795,-1.2980705 -0.240863,-0.384855 -0.393509,-0.820265 -0.467678,-1.259412 -0.09716,-0.158728 -0.28241,-0.219084 -0.465992,-0.217625 z"
     inkscape:connector-curvature="0"
     id="path3926-5"
     style="opacity:0.3;fill:#ffffff;fill-opacity:1;stroke:none" />
  <path
     d="m 12.444289,7.0009023 c -0.425538,-0.02402 -0.490969,0.436761 -0.446059,0.742765 l 0,6.0140437 c -0.261051,-0.05485 -0.601669,-0.0314 -0.895984,0.05544 -0.884306,0.235263 -1.6704595,1.034726 -1.5975445,1.955666 0.102194,0.862408 1.1239345,1.425071 1.9662975,1.168943 0.954266,-0.225906 1.507545,-1.055033 1.507545,-2.125189 l 0,-4.761128 c 0.792764,0.41916 1.506656,1.202437 1.490343,2.125221 0.0086,0.667036 -0.178415,1.334072 -0.442652,1.941264 -0.03556,0.0733 0.04188,0.14513 0.09903,0.172957 0.153015,0.04274 0.232515,-0.15786 0.318996,-0.25231 0.920959,-1.234782 0.980534,-3.049417 -0.01351,-4.2625667 -0.352776,-0.430797 -0.812199,-0.797699 -1.052795,-1.29807 -0.240863,-0.384855 -0.393509,-0.820265 -0.467678,-1.259412 -0.09716,-0.158728 -0.28241,-0.219084 -0.465992,-0.217625 z"
     inkscape:connector-curvature="0"
     id="path3926"
     style="opacity:0.5;fill:#000000;fill-opacity:1;stroke:none" />
</svg>
