<?xml version="1.0" encoding="UTF-8" standalone="no"?>
<!-- Created with Inkscape (http://www.inkscape.org/) -->

<svg
   xmlns:dc="http://purl.org/dc/elements/1.1/"
   xmlns:cc="http://creativecommons.org/ns#"
   xmlns:rdf="http://www.w3.org/1999/02/22-rdf-syntax-ns#"
   xmlns:svg="http://www.w3.org/2000/svg"
   xmlns="http://www.w3.org/2000/svg"
   xmlns:xlink="http://www.w3.org/1999/xlink"
   xmlns:sodipodi="http://sodipodi.sourceforge.net/DTD/sodipodi-0.dtd"
   xmlns:inkscape="http://www.inkscape.org/namespaces/inkscape"
   version="1.1"
   width="48"
   height="48"
   id="svg2"
   inkscape:version="0.48.4 r9939"
   sodipodi:docname="preferences-desktop-font.svg">
  <sodipodi:namedview
     pagecolor="#ffffff"
     bordercolor="#666666"
     borderopacity="1"
     objecttolerance="10"
     gridtolerance="10"
     guidetolerance="10"
     inkscape:pageopacity="0"
     inkscape:pageshadow="2"
     inkscape:window-width="640"
     inkscape:window-height="480"
     id="namedview214"
     showgrid="false"
     inkscape:zoom="1"
     inkscape:cx="24"
     inkscape:cy="24"
     inkscape:window-x="0"
     inkscape:window-y="30"
     inkscape:window-maximized="0"
     inkscape:current-layer="svg2" />
  <defs
     id="defs4">
    <linearGradient
       id="linearGradient3878">
      <stop
         id="stop3880"
         style="stop-color:#ffffff;stop-opacity:1"
         offset="0" />
      <stop
         id="stop3882"
         style="stop-color:#ffffff;stop-opacity:0.23529412"
         offset="0.07692312" />
      <stop
         id="stop3884"
         style="stop-color:#ffffff;stop-opacity:0.15686275"
         offset="0.92307693" />
      <stop
         id="stop3886"
         style="stop-color:#ffffff;stop-opacity:0.39215687"
         offset="1" />
    </linearGradient>
    <linearGradient
       id="linearGradient12739">
      <stop
         id="stop12741"
         style="stop-color:#ffffff;stop-opacity:1"
         offset="0" />
      <stop
         id="stop12743"
         style="stop-color:#ffffff;stop-opacity:0"
         offset="1" />
    </linearGradient>
    <linearGradient
       id="linearGradient12727">
      <stop
         id="stop12729"
         style="stop-color:#181818;stop-opacity:0"
         offset="0" />
      <stop
         id="stop12745"
         style="stop-color:#181818;stop-opacity:0"
         offset="0.53846145" />
      <stop
         id="stop12731"
         style="stop-color:#181818;stop-opacity:1"
         offset="1" />
    </linearGradient>
    <linearGradient
       id="linearGradient4035">
      <stop
         id="stop4037"
         style="stop-color:#ffffff;stop-opacity:1"
         offset="0" />
      <stop
         id="stop4039"
         style="stop-color:#ffffff;stop-opacity:0.23529412"
         offset="0.05555556" />
      <stop
         id="stop4041"
         style="stop-color:#ffffff;stop-opacity:0.15686275"
         offset="0.94444442" />
      <stop
         id="stop4043"
         style="stop-color:#ffffff;stop-opacity:0.39215687"
         offset="1" />
    </linearGradient>
    <linearGradient
       id="linearGradient3688-166-749-654">
      <stop
         id="stop3088"
         style="stop-color:#181818;stop-opacity:1"
         offset="0" />
      <stop
         id="stop3090"
         style="stop-color:#181818;stop-opacity:0"
         offset="1" />
    </linearGradient>
    <linearGradient
       id="linearGradient3688-464-309-604">
      <stop
         id="stop3094"
         style="stop-color:#181818;stop-opacity:1"
         offset="0" />
      <stop
         id="stop3096"
         style="stop-color:#181818;stop-opacity:0"
         offset="1" />
    </linearGradient>
    <linearGradient
       id="linearGradient3702-501-757-795">
      <stop
         id="stop3100"
         style="stop-color:#181818;stop-opacity:0"
         offset="0" />
      <stop
         id="stop3102"
         style="stop-color:#181818;stop-opacity:1"
         offset="0.5" />
      <stop
         id="stop3104"
         style="stop-color:#181818;stop-opacity:0"
         offset="1" />
    </linearGradient>
    <linearGradient
       id="linearGradient4632-92-3-0-8-1-7">
      <stop
         id="stop4634-68-8-0-2-9-4"
         style="stop-color:#fafafa;stop-opacity:1"
         offset="0" />
      <stop
         id="stop4636-8-21-7-1-4-0"
         style="stop-color:#e1e1e1;stop-opacity:1"
         offset="1" />
    </linearGradient>
    <linearGradient
       id="linearGradient4220-7">
      <stop
         id="stop4222-7"
         style="stop-color:#7a8498;stop-opacity:1"
         offset="0" />
      <stop
         id="stop4224-0"
         style="stop-color:#34405c;stop-opacity:1"
         offset="1" />
    </linearGradient>
    <linearGradient
       x1="16.80644"
       y1="20.620281"
       x2="16.80644"
       y2="42.728077"
       id="linearGradient3159"
       xlink:href="#linearGradient4035"
       gradientUnits="userSpaceOnUse"
       gradientTransform="matrix(1.7108092,0,0,1.7108093,-3.9303923,-30.188506)" />
    <radialGradient
       cx="31.999998"
       cy="4.3419166"
       r="27.5"
       fx="31.999998"
       fy="4.3419166"
       id="radialGradient3163"
       xlink:href="#linearGradient4632-92-3-0-8-1-7"
       gradientUnits="userSpaceOnUse"
       gradientTransform="matrix(0,1.6257921,-1.625792,0,31.059052,-47.134601)" />
    <radialGradient
       cx="4.9964824"
       cy="43.5"
       r="2.5"
       fx="4.9964824"
       fy="43.5"
       id="radialGradient3548"
       xlink:href="#linearGradient3688-166-749-654"
       gradientUnits="userSpaceOnUse"
       gradientTransform="matrix(2.4045407,2.1079248e-7,-6.1639462e-8,0.80000616,27.985744,9.1997753)" />
    <radialGradient
       cx="4.9929786"
       cy="43.5"
       r="2.5"
       fx="4.9929786"
       fy="43.5"
       id="radialGradient3550"
       xlink:href="#linearGradient3688-464-309-604"
       gradientUnits="userSpaceOnUse"
       gradientTransform="matrix(2.3729063,0,0,0.79999998,-19.777246,-78.800015)" />
    <linearGradient
       x1="25.058096"
       y1="47.027729"
       x2="25.058096"
       y2="39.999443"
       id="linearGradient3552"
       xlink:href="#linearGradient3702-501-757-795"
       gradientUnits="userSpaceOnUse"
       gradientTransform="matrix(1.1428574,0,0,0.57142851,-3.5047499,19.142898)" />
    <clipPath
       id="clipPath3324">
      <rect
         width="17"
         height="17"
         rx="25"
         ry="25"
         x="-20.500547"
         y="25.500153"
         id="rect3326"
         style="color:#000000;fill:url(#linearGradient3328);fill-opacity:1;fill-rule:nonzero;stroke:none;stroke-width:0.99999994;marker:none;visibility:visible;display:inline;overflow:visible;enable-background:accumulate" />
    </clipPath>
    <linearGradient
       x1="30.5"
       y1="29.999983"
       x2="49.5"
       y2="29.999983"
       id="linearGradient3328"
       xlink:href="#linearGradient4632-92-3-0-8-1-7"
       gradientUnits="userSpaceOnUse"
       gradientTransform="matrix(0.89473686,0,0,0.89473686,-47.790024,7.1580622)" />
    <linearGradient
       x1="44.200016"
       y1="1037.505"
       x2="53.800014"
       y2="1037.505"
       id="linearGradient3333"
       xlink:href="#linearGradient12739"
       gradientUnits="userSpaceOnUse"
       gradientTransform="matrix(0.72916668,0,0,0.7777778,-5.2292042,-840.94838)" />
    <linearGradient
       x1="32.139999"
       y1="29.5"
       x2="65.260002"
       y2="29.5"
       id="linearGradient3336"
       xlink:href="#linearGradient3688-166-749-654"
       gradientUnits="userSpaceOnUse"
       gradientTransform="matrix(0,0.56521735,0.56521735,0,28.594643,3.0073553)" />
    <linearGradient
       x1="32.139999"
       y1="29.5"
       x2="65.260002"
       y2="29.5"
       id="linearGradient3339"
       xlink:href="#linearGradient3688-166-749-654"
       gradientUnits="userSpaceOnUse"
       gradientTransform="matrix(0,0.63025208,0.63025208,0,26.878223,-0.22257793)" />
    <radialGradient
       cx="51.91"
       cy="38.188026"
       r="27.5"
       fx="51.91"
       fy="38.188026"
       id="radialGradient3343"
       xlink:href="#linearGradient12727"
       gradientUnits="userSpaceOnUse"
       gradientTransform="matrix(0,0.32535882,-0.3253589,1.3972489e-8,46.424424,17.110747)"
       spreadMethod="pad" />
    <linearGradient
       x1="30.5"
       y1="29.999983"
       x2="49.5"
       y2="29.999983"
       id="linearGradient3348"
       xlink:href="#linearGradient4632-92-3-0-8-1-7"
       gradientUnits="userSpaceOnUse"
       gradientTransform="matrix(0.89473686,0,0,0.89473686,-1.789864,7.1580419)" />
    <linearGradient
       x1="33.243969"
       y1="42.379356"
       x2="66.731972"
       y2="42.379356"
       id="linearGradient3351"
       xlink:href="#linearGradient3878"
       gradientUnits="userSpaceOnUse"
       gradientTransform="matrix(0,0.65217386,-0.65197269,0,61.631892,1.3991607)" />
    <linearGradient
       x1="79.457138"
       y1="22.857172"
       x2="79.457138"
       y2="50.057175"
       id="linearGradient3355"
       xlink:href="#linearGradient4220-7"
       gradientUnits="userSpaceOnUse"
       gradientTransform="matrix(0.87690624,0,0,0.87690624,-35.67725,2.0319726)" />
    <linearGradient
       x1="32.139999"
       y1="29.5"
       x2="65.260002"
       y2="29.5"
       id="linearGradient3358"
       xlink:href="#linearGradient3688-166-749-654"
       gradientUnits="userSpaceOnUse"
       gradientTransform="matrix(0,-0.93703138,0.9372054,0,17.56224,76.185179)" />
    <linearGradient
       x1="32.139999"
       y1="29.5"
       x2="65.260002"
       y2="29.5"
       id="linearGradient3361"
       xlink:href="#linearGradient3688-166-749-654"
       gradientUnits="userSpaceOnUse"
       gradientTransform="matrix(0,-1.0008014,1.0008564,0,15.797939,79.255135)" />
  </defs>
  <metadata
     id="metadata7">
    <rdf:RDF>
      <cc:Work
         rdf:about="">
        <dc:format>image/svg+xml</dc:format>
        <dc:type
           rdf:resource="http://purl.org/dc/dcmitype/StillImage" />
        <dc:title />
      </cc:Work>
    </rdf:RDF>
  </metadata>
  <text
     x="35.5"
     y="63.499981"
     id="text12747"
     xml:space="preserve"
     style="font-size:24px;font-style:normal;font-variant:normal;font-weight:normal;font-stretch:normal;text-align:start;line-height:125%;letter-spacing:0px;word-spacing:0px;text-anchor:start;fill:#000000;fill-opacity:1;stroke:none;font-family:Open Sans;-inkscape-font-specification:Open Sans"><tspan
       x="35.5"
       y="63.499981"
       id="tspan12749" /></text>
  <g
     id="g3373">
    <g
       id="g3268">
      <rect
         width="6"
         height="4"
         x="40"
         y="42"
         id="rect2801"
         style="opacity:0.4;fill:url(#radialGradient3548);fill-opacity:1;stroke:none" />
      <rect
         width="6"
         height="4"
         x="-8"
         y="-46"
         transform="scale(-1,-1)"
         id="rect3696"
         style="opacity:0.4;fill:url(#radialGradient3550);fill-opacity:1;stroke:none" />
      <rect
         width="32"
         height="4"
         x="8"
         y="42"
         id="rect3700"
         style="opacity:0.4;fill:url(#linearGradient3552);fill-opacity:1;stroke:none" />
    </g>
    <rect
       width="38"
       height="38"
       rx="2.5"
       ry="2.5"
       x="5"
       y="5.0000191"
       id="rect5505-21-3-8-5-2"
       style="color:#000000;fill:url(#radialGradient3163);fill-opacity:1;fill-rule:nonzero;stroke:none;stroke-width:0.99999994;marker:none;visibility:visible;display:inline;overflow:visible;enable-background:accumulate" />
    <rect
       width="39"
       height="39"
       rx="2.9999998"
       ry="2.9999998"
       x="4.5"
       y="4.5000038"
       id="rect3993"
       style="opacity:0.3;fill:none;stroke:#000000;stroke-width:1;stroke-opacity:1" />
    <rect
       width="37"
       height="37"
       rx="1.9999996"
       ry="1.9999996"
       x="5.4999986"
       y="5.4999886"
       id="rect6741-5-0-2-3"
       style="fill:none;stroke:url(#linearGradient3159);stroke-width:1.00000012;stroke-linecap:round;stroke-linejoin:round;stroke-miterlimit:4;stroke-opacity:1;stroke-dasharray:none;stroke-dashoffset:0" />
    <g
       id="text7620"
       style="font-size:24px;font-style:normal;font-variant:normal;font-weight:bold;font-stretch:normal;text-align:center;line-height:125%;letter-spacing:0px;word-spacing:0px;text-anchor:middle;opacity:0.6;fill:#000000;fill-opacity:1;stroke:none;font-family:Open Sans;-inkscape-font-specification:Open Sans Bold">
      <path
         d="m 22.025391,32.484394 -1.242188,-4.078125 -6.246094,0 -1.242187,4.078125 -3.9140626,0 6.0468746,-17.203125 4.441407,0 6.070312,17.203125 -3.914062,0 m -2.109375,-7.125 c -1.148447,-3.695302 -1.796884,-5.785143 -1.945313,-6.269531 -0.140633,-0.484361 -0.242196,-0.867173 -0.304687,-1.148438 -0.257821,1.000014 -0.996101,3.472668 -2.214844,7.417969 l 4.464844,0"
         id="path3369" />
      <path
         d="m 36.123047,32.484394 -0.691406,-1.78125 -0.09375,0 c -0.601572,0.757814 -1.222665,1.285157 -1.863282,1.582031 -0.632819,0.289063 -1.460943,0.433594 -2.484375,0.433594 -1.257816,0 -2.250002,-0.359375 -2.976562,-1.078125 -0.718751,-0.718748 -1.078126,-1.742185 -1.078125,-3.070312 -1e-6,-1.39062 0.484373,-2.414057 1.453125,-3.070313 0.976559,-0.664055 2.445307,-1.031242 4.40625,-1.101562 l 2.273437,-0.07031 0,-0.574219 c -9e-6,-1.328115 -0.679696,-1.992176 -2.039062,-1.992187 -1.046881,1.1e-5 -2.277349,0.316416 -3.691406,0.949219 l -1.183594,-2.414063 c 1.507809,-0.789049 3.179682,-1.18358 5.015625,-1.183594 1.757803,1.4e-5 3.105458,0.382826 4.042969,1.148438 0.937487,0.765636 1.406237,1.929698 1.40625,3.492187 l 0,8.730469 -2.496094,0 m -1.054688,-6.070312 -1.382812,0.04687 c -1.039069,0.03126 -1.812506,0.218755 -2.320313,0.5625 -0.507817,0.343755 -0.761723,0.867192 -0.761718,1.570312 -5e-6,1.007815 0.578119,1.511721 1.734375,1.511719 0.828117,2e-6 1.488273,-0.238279 1.980468,-0.714844 0.499991,-0.476559 0.749991,-1.109371 0.75,-1.898437 l 0,-1.078125"
         id="path3371" />
    </g>
    <path
       d="m 34.004684,20.500002 a 13.499487,13.499999 0 0 1 0,26.999997 13.499488,13.5 0 1 1 0,-26.999998 z"
       id="path8109"
       style="opacity:0.07999998;fill:none;stroke:url(#linearGradient3361);stroke-width:1;stroke-miterlimit:4;stroke-opacity:1;stroke-dasharray:none" />
    <path
       d="m 34.003145,21.500048 a 12.5,12.5 0 0 1 0,24.999999 12.500001,12.5 0 1 1 0,-24.999999 z"
       id="path8105"
       style="opacity:0.15;fill:none;stroke:url(#linearGradient3358);stroke-width:1;stroke-miterlimit:4;stroke-opacity:1;stroke-dasharray:none" />
    <path
       d="m 45.499215,34.001517 a 11.5,11.5 0 0 1 -23,0 11.5,11.5 0 1 1 23,0 z"
       id="path4218"
       style="color:#000000;fill:url(#linearGradient3355);fill-opacity:1;fill-rule:nonzero;stroke:none;stroke-width:0.79069769;marker:none;visibility:visible;display:inline;overflow:visible;enable-background:accumulate" />
    <path
       d="m 45.499215,34.002275 a 11.499999,11.497725 0 0 1 -22.999998,0 11.5,11.497726 0 1 1 22.999998,0 z"
       id="path7624"
       style="opacity:0.3;fill:none;stroke:#000000;stroke-width:0.99999982;stroke-miterlimit:4;stroke-opacity:1;stroke-dasharray:none" />
    <path
       d="m 33.999608,44.50005 a 10.49676,10.5 0 1 1 0,-20.999999 10.496761,10.5 0 1 1 0,20.999999 z"
       id="path7681"
       style="opacity:0.3;fill:none;stroke:url(#linearGradient3351);stroke-width:0.99999994;stroke-miterlimit:4;stroke-opacity:1;stroke-dasharray:none" />
    <rect
       width="17"
       height="17"
       rx="25"
       ry="25"
       x="25.499613"
       y="25.500132"
       id="rect8115"
       style="color:#000000;fill:url(#linearGradient3348);fill-opacity:1;fill-rule:nonzero;stroke:none;stroke-width:0.99999994;marker:none;visibility:visible;display:inline;overflow:visible;enable-background:accumulate" />
    <g
       transform="translate(46.00016,-2.03e-5)"
       clip-path="url(#clipPath3324)"
       id="text3386"
       style="font-size:27px;font-style:normal;font-variant:normal;font-weight:bold;font-stretch:normal;text-align:center;line-height:125%;letter-spacing:0px;word-spacing:0px;text-anchor:middle;opacity:0.6;fill:#000000;fill-opacity:1;stroke:none;font-family:Open Sans;-inkscape-font-specification:Open Sans Bold">
      <path
         d="m -24.221596,33.54496 -1.397461,-4.587891 -7.026855,0 -1.397461,4.587891 -4.40332,0 6.802734,-19.353516 4.996582,0 6.829102,19.353516 -4.403321,0 m -2.373047,-8.015625 c -1.292002,-4.157214 -2.021494,-6.508286 -2.188476,-7.053223 -0.158213,-0.544906 -0.272471,-0.97557 -0.342774,-1.291992 -0.290048,1.125015 -1.120613,3.906751 -2.491699,8.345215 l 5.022949,0"
         id="path3364" />
      <path
         d="m -8.3617325,33.54496 -0.777832,-2.003906 -0.1054688,0 c -0.6767677,0.85254 -1.3754977,1.445801 -2.0961917,1.779785 -0.711922,0.325195 -1.643561,0.487793 -2.794922,0.487793 -1.415043,0 -2.531253,-0.404297 -3.348632,-1.212891 -0.808596,-0.808592 -1.212892,-1.959958 -1.212891,-3.454101 -1e-6,-1.564447 0.54492,-2.715813 1.634766,-3.454102 1.098629,-0.747062 2.750971,-1.160147 4.957031,-1.239258 l 2.5576171,-0.0791 0,-0.645996 c -1.03e-5,-1.49413 -0.7646581,-2.241199 -2.2939451,-2.241211 -1.177741,1.2e-5 -2.562017,0.355968 -4.152832,1.067871 l -1.331543,-2.71582 c 1.696285,-0.887681 3.577142,-1.331528 5.642578,-1.331543 1.9775288,1.5e-5 3.4936406,0.430678 4.5483397,1.291992 1.0546738,0.861341 1.582017,2.17091 1.5820313,3.928711 l 0,9.821777 -2.8081055,0 m -1.1865234,-6.829102 -1.5556641,0.05273 c -1.168953,0.03516 -2.039069,0.2461 -2.610352,0.632812 -0.571294,0.386725 -0.856938,0.975591 -0.856933,1.766602 -5e-6,1.133792 0.650385,1.700686 1.951172,1.700683 0.931632,3e-6 1.674307,-0.268063 2.228027,-0.804199 0.5624901,-0.536129 0.8437398,-1.248042 0.8437501,-2.135742 l 0,-1.212891"
         id="path3366" />
    </g>
    <rect
       width="17"
       height="17"
       rx="25"
       ry="25"
       x="25.499613"
       y="25.500132"
       id="rect12723"
       style="opacity:0.4;color:#000000;fill:url(#radialGradient3343);fill-opacity:1;fill-rule:nonzero;stroke:none;stroke-width:0.99999994;marker:none;visibility:visible;display:inline;overflow:visible;enable-background:accumulate" />
    <path
       d="m 42.499607,34.003834 a 8.4999993,8.4992237 0 0 1 -16.999998,0 8.5,8.4992243 0 1 1 16.999998,0 z"
       id="path8113"
       style="opacity:0.3;fill:none;stroke:#000000;stroke-width:1.00000012;stroke-miterlimit:4;stroke-opacity:1;stroke-dasharray:none" />
    <path
       d="m 34.001221,41.500133 a 7.5000001,7.5000001 0 0 0 0,-15 7.5000001,7.5000001 0 1 0 0,15 z"
       id="path8123"
       style="opacity:0.15;fill:none;stroke:url(#linearGradient3339);stroke-width:0.99999994;stroke-miterlimit:4;stroke-opacity:1;stroke-dasharray:none" />
    <path
       d="m 34.001888,40.500129 a 6.4999999,6.4999999 0 0 0 0,-12.999999 6.4999999,6.4999999 0 1 0 0,12.999999 z"
       id="path8127"
       style="opacity:0.07999998;fill:none;stroke:url(#linearGradient3336);stroke-width:1.00000012;stroke-miterlimit:4;stroke-opacity:1;stroke-dasharray:none" />
    <rect
       width="7"
       height="8"
       rx="25"
       ry="25"
       x="27"
       y="-38.000004"
       transform="matrix(0,1,-1,0,0,0)"
       id="rect12733"
       style="opacity:0.5;color:#000000;fill:url(#linearGradient3333);fill-opacity:1;fill-rule:nonzero;stroke:none;stroke-width:0.99999994;marker:none;visibility:visible;display:inline;overflow:visible;enable-background:accumulate" />
  </g>
</svg>
