<svg xmlns="http://www.w3.org/2000/svg" xmlns:xlink="http://www.w3.org/1999/xlink" width="48" height="48"><defs><linearGradient id="a"><stop style="stop-color:#fff;stop-opacity:1" offset="0"/><stop style="stop-color:#fff;stop-opacity:.23529412" offset=".03"/><stop style="stop-color:#fff;stop-opacity:.15686275" offset=".978"/><stop style="stop-color:#fff;stop-opacity:.39215687" offset="1"/></linearGradient><linearGradient id="c"><stop style="stop-color:#181818;stop-opacity:1" offset="0"/><stop style="stop-color:#181818;stop-opacity:0" offset="1"/></linearGradient><linearGradient id="d"><stop style="stop-color:#181818;stop-opacity:1" offset="0"/><stop style="stop-color:#181818;stop-opacity:0" offset="1"/></linearGradient><linearGradient id="b"><stop style="stop-color:#181818;stop-opacity:0" offset="0"/><stop style="stop-color:#181818;stop-opacity:1" offset=".5"/><stop style="stop-color:#181818;stop-opacity:0" offset="1"/></linearGradient><linearGradient x1="24" y1="6.032" x2="24" y2="41.934" id="j" xlink:href="#a" gradientUnits="userSpaceOnUse" gradientTransform="translate(0 1)"/><linearGradient x1="25.058" y1="47.028" x2="25.058" y2="39.999" id="h" xlink:href="#b" gradientUnits="userSpaceOnUse"/><linearGradient id="e"><stop style="stop-color:#404648;stop-opacity:1" offset="0"/><stop style="stop-color:#0c1011;stop-opacity:1" offset="1"/></linearGradient><radialGradient cx="4.993" cy="43.5" r="2.5" fx="4.993" fy="43.5" id="f" xlink:href="#c" gradientUnits="userSpaceOnUse" gradientTransform="matrix(2.00378 0 0 1.4 27.988 -17.4)"/><radialGradient cx="4.993" cy="43.5" r="2.5" fx="4.993" fy="43.5" id="g" xlink:href="#d" gradientUnits="userSpaceOnUse" gradientTransform="matrix(2.00378 0 0 1.4 -20.012 -104.4)"/><radialGradient cx="6.953" cy="9.957" r="12.672" fx="6.953" fy="9.957" id="i" xlink:href="#e" gradientUnits="userSpaceOnUse" gradientTransform="matrix(0 5.93803 -7.29 0 97.418 -54.25)"/></defs><g style="opacity:.6"><path style="fill:url(#f);fill-opacity:1;stroke:none" d="M38 40h5v7h-5z" transform="matrix(1.1579 0 0 .64286 -3.79 16.036)"/><path transform="matrix(-1.1579 0 0 -.64286 -3.79 16.036)" style="fill:url(#g);fill-opacity:1;stroke:none" d="M-10-47h5v7h-5z"/><path style="fill:url(#h);fill-opacity:1;stroke:none" d="M10 40h28v7H10z" transform="matrix(1.1579 0 0 .64286 -3.79 16.036)"/></g><rect width="39" height="39" rx="4" ry="4" x="4.5" y="5.5" style="color:#000;clip-rule:nonzero;display:inline;overflow:visible;visibility:visible;opacity:.9;isolation:auto;mix-blend-mode:normal;color-interpolation:sRGB;color-interpolation-filters:linearRGB;solid-color:#000;solid-opacity:1;fill:url(#i);fill-opacity:1;fill-rule:nonzero;stroke:none;stroke-width:1;stroke-linecap:butt;stroke-linejoin:miter;stroke-miterlimit:4;stroke-dasharray:none;stroke-dashoffset:0;stroke-opacity:1;marker:none;color-rendering:auto;image-rendering:auto;shape-rendering:auto;text-rendering:auto;enable-background:accumulate"/><rect width="39" height="39" rx="4" ry="4" x="4.5" y="5.5" style="color:#000;display:inline;overflow:visible;visibility:visible;opacity:.7;fill:none;stroke:#000;stroke-width:1;stroke-linecap:round;stroke-linejoin:round;stroke-miterlimit:4;stroke-dasharray:none;stroke-dashoffset:0;stroke-opacity:1;marker:none;enable-background:accumulate"/><rect width="37" height="37" rx="3" ry="3" x="5.5" y="6.5" style="opacity:.3;fill:none;stroke:url(#j);stroke-width:1;stroke-linecap:round;stroke-linejoin:round;stroke-miterlimit:4;stroke-dasharray:none;stroke-dashoffset:0;stroke-opacity:1"/><path style="color:#000;clip-rule:nonzero;display:inline;overflow:visible;visibility:visible;opacity:.15;isolation:auto;mix-blend-mode:normal;color-interpolation:sRGB;color-interpolation-filters:linearRGB;solid-color:#000;solid-opacity:1;fill:#000;fill-opacity:1;fill-rule:nonzero;stroke:none;stroke-width:1;stroke-linecap:butt;stroke-linejoin:miter;stroke-miterlimit:4;stroke-dasharray:none;stroke-dashoffset:0;stroke-opacity:1;marker:none;color-rendering:auto;image-rendering:auto;shape-rendering:auto;text-rendering:auto;enable-background:accumulate" d="M12 12.984A1.017 1.017 0 0 0 10.984 14v.535c-.23.113-.484.173-.687.336a1.017 1.017 0 0 0-.004.002c-.775.625-1.201 1.603-1.201 2.617 0 .55.115 1.09.375 1.565.23.423.545.798.92 1.107.397.327.885.593 1.494.865.468.212.69.333.85.42a3.936 3.936 0 0 1-.909-.129h-.002a10.342 10.342 0 0 1-1.424-.506 1.017 1.017 0 0 0-1.412.936v1.725a1.017 1.017 0 0 0 .588.922c.433.2.933.254 1.412.355V25A1.017 1.017 0 0 0 12 26.016h2A1.017 1.017 0 0 0 15.016 25v-.541c.232-.112.493-.177.697-.332.825-.626 1.303-1.63 1.303-2.678 0-.76-.236-1.505-.707-2.084-.497-.614-1.204-1.04-2.137-1.465-.338-.153-.396-.19-.592-.289.098.014.19.012.291.035a1.017 1.017 0 0 0 .002.002c.247.058.62.179 1.084.36a1.017 1.017 0 0 0 1.3-.541l.63-1.444a1.017 1.017 0 0 0-.545-1.345 10.732 10.732 0 0 0-1.326-.442V14A1.017 1.017 0 0 0 14 12.984h-2zm7 12A1.017 1.017 0 0 0 17.984 26v2A1.017 1.017 0 0 0 19 29.016h8A1.017 1.017 0 0 0 28.016 28v-2A1.017 1.017 0 0 0 27 24.984h-8z"/><path style="color:#000;clip-rule:nonzero;display:inline;overflow:visible;visibility:visible;opacity:.3;isolation:auto;mix-blend-mode:normal;color-interpolation:sRGB;color-interpolation-filters:linearRGB;solid-color:#000;solid-opacity:1;fill:#000;fill-opacity:1;fill-rule:nonzero;stroke:none;stroke-width:1;stroke-linecap:butt;stroke-linejoin:miter;stroke-miterlimit:4;stroke-dasharray:none;stroke-dashoffset:0;stroke-opacity:1;marker:none;color-rendering:auto;image-rendering:auto;shape-rendering:auto;text-rendering:auto;enable-background:accumulate;filter-blend-mode:normal;filter-gaussianBlur-deviation:0" d="M12 14v1.15c-.414.11-.773.278-1.068.514-.55.443-.825 1.052-.825 1.826 0 .411.084.771.252 1.078.168.308.393.577.674.809.281.231.703.473 1.266.725.6.271.996.47 1.19.593.197.124.346.253.447.389.1.132.15.283.15.455 0 .307-.115.54-.346.695-.226.156-.554.233-.982.233a4.93 4.93 0 0 1-1.184-.162A11.131 11.131 0 0 1 10 21.748v1.725c.595.277 1.264.441 2 .5V25h2v-1.164a3.11 3.11 0 0 0 1.1-.52c.6-.455.9-1.076.9-1.867 0-.57-.16-1.052-.479-1.443-.319-.395-.909-.789-1.769-1.18-.65-.295-1.064-.5-1.24-.611a1.348 1.348 0 0 1-.377-.354.773.773 0 0 1-.12-.43.79.79 0 0 1 .296-.64c.197-.164.48-.246.85-.246.31 0 .625.037.944.113.324.076.73.21 1.221.403l.63-1.444a9.675 9.675 0 0 0-1.366-.455 5.349 5.349 0 0 0-.59-.107V14h-2Zm7 12v2h8v-2h-8z"/><path style="color:#000;clip-rule:nonzero;display:inline;overflow:visible;visibility:visible;opacity:1;isolation:auto;mix-blend-mode:normal;color-interpolation:sRGB;color-interpolation-filters:linearRGB;solid-color:#000;solid-opacity:1;fill:#fff;fill-opacity:1;fill-rule:nonzero;stroke:none;stroke-width:5;stroke-linecap:butt;stroke-linejoin:miter;stroke-miterlimit:4;stroke-dasharray:none;stroke-dashoffset:0;stroke-opacity:1;marker:none;color-rendering:auto;image-rendering:auto;shape-rendering:auto;text-rendering:auto;enable-background:accumulate" d="M12 13v1.15c-.414.11-.773.278-1.068.514-.55.443-.825 1.052-.825 1.826 0 .411.084.771.252 1.078.168.308.393.577.674.809.281.231.703.473 1.266.725.6.271.996.47 1.19.593.197.124.346.253.447.389.1.132.15.283.15.455 0 .307-.115.54-.346.695-.226.156-.554.233-.982.233a4.93 4.93 0 0 1-1.184-.162A11.131 11.131 0 0 1 10 20.748v1.725c.595.277 1.264.441 2 .5V24h2v-1.164a3.11 3.11 0 0 0 1.1-.52c.6-.455.9-1.076.9-1.867 0-.57-.16-1.052-.479-1.443-.319-.395-.909-.789-1.769-1.18-.65-.295-1.064-.5-1.24-.611a1.348 1.348 0 0 1-.377-.354.773.773 0 0 1-.12-.43.79.79 0 0 1 .296-.64c.197-.164.48-.246.85-.246.31 0 .625.037.944.113.324.076.73.21 1.221.403l.63-1.444a9.675 9.675 0 0 0-1.366-.455 5.349 5.349 0 0 0-.59-.107V13h-2zm7 12v2h8v-2h-8z"/><path style="color:#000;clip-rule:nonzero;display:inline;overflow:visible;visibility:visible;opacity:.15;isolation:auto;mix-blend-mode:normal;color-interpolation:sRGB;color-interpolation-filters:linearRGB;solid-color:#000;solid-opacity:1;fill:#000;fill-opacity:1;fill-rule:nonzero;stroke:none;stroke-width:5;stroke-linecap:butt;stroke-linejoin:miter;stroke-miterlimit:4;stroke-dasharray:none;stroke-dashoffset:0;stroke-opacity:1;marker:none;color-rendering:auto;image-rendering:auto;shape-rendering:auto;text-rendering:auto;enable-background:accumulate" d="m15.58 14.477-.254.584a9.48 9.48 0 0 0-1.22-.403 4.08 4.08 0 0 0-.946-.113c-.37 0-.652.082-.85.246a.792.792 0 0 0-.294.64.77.77 0 0 0 .119.43c.015.023.052.044.07.067.036-.045.058-.098.106-.137.197-.164.48-.246.85-.246.31 0 .625.037.944.113.324.076.73.21 1.221.403l.63-1.444c-.129-.052-.251-.094-.376-.14zm-5.422 1.474a2.81 2.81 0 0 0-.05.54c0 .41.083.77.251 1.077.168.308.393.577.674.809.281.231.703.473 1.266.725.6.271.996.47 1.19.593.188.118.329.242.429.371a.826.826 0 0 0 .168-.527.728.728 0 0 0-.15-.455 1.62 1.62 0 0 0-.448-.389c-.193-.123-.589-.322-1.19-.593-.562-.252-.984-.494-1.265-.725a2.748 2.748 0 0 1-.674-.809c-.1-.184-.16-.394-.2-.617zm5.791 3.998a2.161 2.161 0 0 1-.85 1.367 3.11 3.11 0 0 1-1.099.52v1a3.11 3.11 0 0 0 1.1-.52c.6-.455.9-1.076.9-1.867 0-.176-.02-.34-.05-.5zM10 21.473v1c.595.277 1.264.441 2 .5v-1c-.736-.059-1.405-.223-2-.5zM12 23v1h2v-1h-2zm7 3v1h8v-1h-8z"/></svg>