<?xml version="1.0" encoding="UTF-8" standalone="no"?>
<!-- Created with Inkscape (http://www.inkscape.org/) -->

<svg
   xmlns:dc="http://purl.org/dc/elements/1.1/"
   xmlns:cc="http://creativecommons.org/ns#"
   xmlns:rdf="http://www.w3.org/1999/02/22-rdf-syntax-ns#"
   xmlns:svg="http://www.w3.org/2000/svg"
   xmlns="http://www.w3.org/2000/svg"
   version="1.1"
   width="24"
   height="24"
   id="svg3004">
  <defs
     id="defs3006" />
  <metadata
     id="metadata3009">
    <rdf:RDF>
      <cc:Work
         rdf:about="">
        <dc:format>image/svg+xml</dc:format>
        <dc:type
           rdf:resource="http://purl.org/dc/dcmitype/StillImage" />
        <dc:title></dc:title>
      </cc:Work>
    </rdf:RDF>
  </metadata>
  <rect
     width="6"
     height="2"
     rx="0.25"
     ry="0.25"
     x="9"
     y="-8"
     transform="matrix(0,1,-1,0,0,0)"
     id="rect3206"
     style="color:#000000;fill:#d33636;fill-opacity:1;fill-rule:nonzero;stroke:none;stroke-width:4;marker:none;visibility:visible;display:inline;overflow:visible;enable-background:accumulate" />
  <path
     d="m 20,11 c 0,-0.554 -0.446,-1 -1,-1 l -1,0 0,-2 C 18,7.446 17.554,7 17,7 L 5,7 C 4.446,7 4,7.446 4,8 l 0,8 c 0,0.554 0.446,1 1,1 l 12,0 c 0.554,0 1,-0.446 1,-1 l 0,-2 1,0 c 0.554,0 1,-0.446 1,-1 z m -1,0.5 0,1 c 0,0.277 -0.223,0.5 -0.5,0.5 l -0.5,0 0,-2 0.5,0 c 0.277,0 0.5,0.223 0.5,0.5 z m -2,-3 0,7 c 0,0.277 -0.223,0.5 -0.5,0.5 l -11,0 C 5.223,16 5,15.777 5,15.5 l 0,-7 C 5,8.223 5.223,8 5.5,8 l 11,0 C 16.777,8 17,8.223 17,8.5 z"
     id="rect2998"
     style="color:#bebebe;fill:#ffffff;fill-opacity:1;fill-rule:nonzero;stroke:none;stroke-width:1;marker:none;visibility:visible;display:inline;overflow:visible;enable-background:accumulate" />
</svg>
