<?xml version="1.0" encoding="UTF-8" standalone="no"?>
<!-- Created with Inkscape (http://www.inkscape.org/) -->

<svg
   xmlns:dc="http://purl.org/dc/elements/1.1/"
   xmlns:cc="http://creativecommons.org/ns#"
   xmlns:rdf="http://www.w3.org/1999/02/22-rdf-syntax-ns#"
   xmlns:svg="http://www.w3.org/2000/svg"
   xmlns="http://www.w3.org/2000/svg"
   xmlns:inkscape="http://www.inkscape.org/namespaces/inkscape"
   version="1.0"
   width="24"
   height="24"
   id="svg3205">
  <metadata
     id="metadata13">
    <rdf:RDF>
      <cc:Work
         rdf:about="">
        <dc:format>image/svg+xml</dc:format>
        <dc:type
           rdf:resource="http://purl.org/dc/dcmitype/StillImage" />
        <dc:title />
      </cc:Work>
    </rdf:RDF>
  </metadata>
  <defs
     id="defs3207" />
  <g
     transform="translate(0,2)"
     id="layer1">
    <path
       d="M 8.25,14.450001 C 8.252844,11.443791 8.2443067,8.437377 8.254278,5.4312954 8.3659022,4.2690397 9.5191399,3.5697645 10.566642,3.3530654 11.038101,3.263253 11.75,3.245207 11.75,3.245207 c 0,0 0,3.254793 0,3.254793 0,0 0.0583,0.75 0.798532,0.75 C 13.271982,7.25 13.25,6.5 13.25,6.5 c 0,0 0,-3.2452164 0,-3.2452164 1.562167,-0.078009 2.75,0.5175975 3.35212,1.6098018 0.244364,0.6091286 0.115217,1.2771243 0.14788,1.9170201 -0.0028,2.5956745 0.0057,5.1915535 -0.0043,7.7870995 -0.111624,1.162256 -1.264862,1.86153 -2.312364,2.07823 C 13.50619,16.823555 12.55717,16.723575 11.619123,16.75 10.387631,16.764194 8.9779253,16.310668 8.3978805,15.135415 8.3019013,14.920455 8.2495712,14.685646 8.25,14.450001 z"
       inkscape:connector-curvature="0"
       id="rect3236"
       style="opacity:0.3;fill:none;stroke:#ffffff;stroke-width:0.49999994;stroke-linecap:round;stroke-linejoin:miter;stroke-miterlimit:4;stroke-opacity:1;stroke-dasharray:none;stroke-dashoffset:0;marker:none;visibility:visible;display:inline;overflow:visible;enable-background:accumulate" />
    <path
       d="m 11.5,2.499999 2,0 c 2.216,0 4,1.338 4,3 L 17.5,14.5 c 0,1.662 -1.784,3 -4,3 l -2,0 c -2.2160001,0 -4,-1.338 -4,-3 l 0,-9.000001 c 0,-1.662 1.7839999,-3 4,-3 z m 1,1e-6 0,4"
       inkscape:connector-curvature="0"
       id="path3231"
       style="fill:none;stroke:#d33636;stroke-width:0.99999994;stroke-linecap:round;stroke-linejoin:miter;stroke-miterlimit:4;stroke-opacity:1;stroke-dashoffset:0;marker:none;visibility:visible;display:inline;overflow:visible;enable-background:accumulate" />
  </g>
</svg>
