<?xml version="1.0" encoding="UTF-8" standalone="no"?>
<!-- Created with Inkscape (http://www.inkscape.org/) -->

<svg
   xmlns:dc="http://purl.org/dc/elements/1.1/"
   xmlns:cc="http://creativecommons.org/ns#"
   xmlns:rdf="http://www.w3.org/1999/02/22-rdf-syntax-ns#"
   xmlns:svg="http://www.w3.org/2000/svg"
   xmlns="http://www.w3.org/2000/svg"
   xmlns:xlink="http://www.w3.org/1999/xlink"
   xmlns:inkscape="http://www.inkscape.org/namespaces/inkscape"
   version="1.1"
   width="24"
   height="24"
   id="svg3942">
  <defs
     id="defs3944">
    <linearGradient
       x1="107.94199"
       y1="11.285784"
       x2="107.94199"
       y2="34.752571"
       id="linearGradient3839-1"
       xlink:href="#linearGradient3678-3"
       gradientUnits="userSpaceOnUse"
       gradientTransform="matrix(0.4342346,0,0,0.5947449,-34.566178,-8.7462096)" />
    <linearGradient
       id="linearGradient3678-3">
      <stop
         id="stop3680-5"
         style="stop-color:#ffffff;stop-opacity:1"
         offset="0" />
      <stop
         id="stop3682-5"
         style="stop-color:#e6e6e6;stop-opacity:1"
         offset="1" />
    </linearGradient>
  </defs>
  <metadata
     id="metadata3947">
    <rdf:RDF>
      <cc:Work
         rdf:about="">
        <dc:format>image/svg+xml</dc:format>
        <dc:type
           rdf:resource="http://purl.org/dc/dcmitype/StillImage" />
        <dc:title />
      </cc:Work>
    </rdf:RDF>
  </metadata>
  <path
     d="M 7,5 C 5.892,5 5,5.892 5,7 l 0,10 c 0,1.108 0.892,2 2,2 l 10,0 c 1.108,0 2,-0.892 2,-2 L 19,7 C 19,5.892 18.108,5 17,5 z m 0,1 10,0 c 0.554,0 1,0.446 1,1 l 0,9 c 0,0.554 -0.446,1 -1,1 L 7,17 C 6.446,17 6,16.554 6,16 L 6,7 C 6,6.446 6.446,6 7,6 z m 7,1 -1,2 1,0 2,-2 z m -0.34375,2.994125 c -0.790271,5.8e-6 -1.548983,0.256994 -2.28125,0.75 l 0.375,0.849625 c 0.311756,-0.210251 0.616241,-0.359993 0.90625,-0.46875 0.297255,-0.115998 0.57049,-0.156245 0.875,-0.15625 0.449508,5e-6 0.791991,0.104499 1.03125,0.34375 C 14.801752,11.54451 15,11.860744 15,12.28125 l 0,0.3065 c -0.210259,-0.07975 -0.520247,-0.143996 -0.78125,-0.1875 -0.26101,-0.05075 -0.512996,-0.0625 -0.78125,-0.0625 -0.355261,3e-6 -0.671495,0.038 -0.96875,0.125 -0.290009,0.087 -0.563746,0.215499 -0.78125,0.375 -0.210256,0.159507 -0.352748,0.344997 -0.46875,0.5625 -0.116003,0.217508 -0.1875,0.550245 -0.1875,0.8185 0,0.253758 0.062,0.501246 0.15625,0.71875 0.101502,0.217506 0.208245,0.402997 0.375,0.5625 0.174003,0.159504 0.392993,0.280748 0.625,0.375 0.239254,0.087 0.505741,0.125 0.78125,0.125 0.427758,0 0.817738,-0.076 1.1875,-0.25 0.377005,-0.181254 0.68374,-0.447741 0.9375,-0.78125 L 15.125,15.3125 c 0.029,0.181255 0.102743,0.328748 0.21875,0.4375 0.123248,0.108753 0.299239,0.173 0.53125,0.1875 0.07975,0 0.186992,0.0073 0.28125,0 0.101497,-0.0073 0.196492,-0.0095 0.3125,-0.03125 l 0,-1.03125 C 16.345491,14.8678 16.165567,14.83925 16.114821,14.78125 16.064061,14.72325 16,14.606505 16,14.46875 l 0,-2.130875 c 0,-0.746764 -0.09624,-1.319985 -0.53125,-1.71875 -0.435015,-0.398754 -1.029485,-0.6249942 -1.8125,-0.625 z m -0.09004,3.07023 c 0.217502,3e-6 0.607864,0.05025 0.832623,0.09375 C 14.630834,13.201605 14.796991,13.264 15,13.34375 l 0,0.75 c -4e-6,0.145005 -0.129,0.306998 -0.28125,0.4375 -0.426996,0.37916 -0.940912,0.429426 -1.4375,0.468753 -0.32626,1e-6 -0.734527,0.01755 -0.94478,-0.170948 C 12.126213,14.633301 11.999999,14.407761 12,14.125003 c -10e-7,-0.304505 0.294242,-0.568743 0.5625,-0.75 0.275505,-0.188502 0.575946,-0.310642 1.003709,-0.310648 z"
     inkscape:connector-curvature="0"
     id="rect2989"
     style="color:#000000;fill:#ffffff;fill-opacity:1;fill-rule:nonzero;stroke:none;stroke-width:1;marker:none;visibility:visible;display:inline;overflow:visible;enable-background:accumulate" />
</svg>
