<?xml version="1.0" encoding="UTF-8" standalone="no"?>
<!-- Created with Inkscape (http://www.inkscape.org/) -->

<svg
   xmlns:dc="http://purl.org/dc/elements/1.1/"
   xmlns:cc="http://creativecommons.org/ns#"
   xmlns:rdf="http://www.w3.org/1999/02/22-rdf-syntax-ns#"
   xmlns:svg="http://www.w3.org/2000/svg"
   xmlns="http://www.w3.org/2000/svg"
   xmlns:inkscape="http://www.inkscape.org/namespaces/inkscape"
   version="1.0"
   width="24"
   height="24"
   id="svg4073">
  <metadata
     id="metadata18">
    <rdf:RDF>
      <cc:Work
         rdf:about="">
        <dc:format>image/svg+xml</dc:format>
        <dc:type
           rdf:resource="http://purl.org/dc/dcmitype/StillImage" />
        <dc:title />
      </cc:Work>
    </rdf:RDF>
  </metadata>
  <defs
     id="defs4075" />
  <path
     d="m 9,6 0,5 2,0 0,1 -7,0 0,1 3,0 0,1 -2,0 0,5 6,0 0,-5 -2,0 0,-1 6,0 0,1 -2,0 0,5 6,0 0,-5 -2,0 0,-1 3,0 0,-1 -7,0 0,-1 2,0 0,-5 z m 1,1 4,0 0,3 -4,0 z m -4,8 4,0 0,3 -4,0 z m 8,0 4,0 0,3 -4,0 z"
     inkscape:connector-curvature="0"
     id="rect2986"
     style="color:#000000;fill:#ffffff;fill-opacity:1;fill-rule:nonzero;stroke:none;stroke-width:1;marker:none;visibility:visible;display:inline;overflow:visible;enable-background:accumulate" />
</svg>
