<?xml version="1.0" encoding="UTF-8" standalone="no"?>
<!-- Created with Inkscape (http://www.inkscape.org/) -->

<svg
   xmlns:dc="http://purl.org/dc/elements/1.1/"
   xmlns:cc="http://creativecommons.org/ns#"
   xmlns:rdf="http://www.w3.org/1999/02/22-rdf-syntax-ns#"
   xmlns:svg="http://www.w3.org/2000/svg"
   xmlns="http://www.w3.org/2000/svg"
   xmlns:sodipodi="http://sodipodi.sourceforge.net/DTD/sodipodi-0.dtd"
   xmlns:inkscape="http://www.inkscape.org/namespaces/inkscape"
   version="1.1"
   width="24"
   height="24"
   id="svg3773"
   inkscape:version="0.48.4 r9939"
   sodipodi:docname="nm-no-connection.svg">
  <sodipodi:namedview
     pagecolor="#545454"
     bordercolor="#666666"
     borderopacity="1"
     objecttolerance="10"
     gridtolerance="10"
     guidetolerance="10"
     inkscape:pageopacity="0"
     inkscape:pageshadow="2"
     inkscape:window-width="1440"
     inkscape:window-height="845"
     id="namedview7"
     showgrid="true"
     inkscape:zoom="26.458333"
     inkscape:cx="12"
     inkscape:cy="12"
     inkscape:window-x="0"
     inkscape:window-y="30"
     inkscape:window-maximized="1"
     inkscape:current-layer="svg3773">
    <inkscape:grid
       type="xygrid"
       id="grid3051"
       empspacing="5"
       visible="true"
       enabled="true"
       snapvisiblegridlinesonly="true" />
  </sodipodi:namedview>
  <defs
     id="defs3775" />
  <metadata
     id="metadata3778">
    <rdf:RDF>
      <cc:Work
         rdf:about="">
        <dc:format>image/svg+xml</dc:format>
        <dc:type
           rdf:resource="http://purl.org/dc/dcmitype/StillImage" />
        <dc:title></dc:title>
      </cc:Work>
    </rdf:RDF>
  </metadata>
  <g
     id="layer1-2"
     transform="translate(4,4)"
     style="fill:#ffffff" />
  <path
     sodipodi:type="inkscape:offset"
     inkscape:radius="0.18897638"
     inkscape:original="M 11.84375 6 C 8.7365925 6.039827 5.9454106 7.2816118 3.84375 9.25 L 3.125 9.9375 L 12 19.6875 L 20.90625 9.9375 L 20.15625 9.25 C 17.978457 7.2128956 15.061997 5.9587494 11.84375 6 z M 11.84375 7 C 14.800685 6.9620988 17.499461 8.0964893 19.5 9.96875 L 12 18.1875 L 4.5 9.96875 C 6.4231311 8.1684203 8.9955567 7.0365074 11.84375 7 z "
     style="opacity:0.8;color:#000000;fill:#ffffff;fill-opacity:1;fill-rule:nonzero;stroke:none;stroke-width:2;marker:none;visibility:visible;display:inline;overflow:visible;enable-background:accumulate"
     id="path3943"
     d="M 11.84375,5.8125 C 8.6877052,5.8529536 5.8523974,7.1266534 3.71875,9.125 L 3,9.8125 A 0.18899527,0.18899527 0 0 0 2.96875,9.84375 0.18899527,0.18899527 0 0 0 2.9375,9.875 a 0.18899527,0.18899527 0 0 0 0,0.03125 0.18899527,0.18899527 0 0 0 0,0.0625 0.18899527,0.18899527 0 0 0 0,0.03125 0.18899527,0.18899527 0 0 0 0.03125,0.03125 A 0.18899527,0.18899527 0 0 0 3,10.0625 l 8.875,9.75 a 0.18899527,0.18899527 0 0 0 0.03125,0.03125 0.18899527,0.18899527 0 0 0 0.0625,0.03125 0.18899527,0.18899527 0 0 0 0.03125,0 0.18899527,0.18899527 0 0 0 0.0625,0 0.18899527,0.18899527 0 0 0 0.03125,-0.03125 0.18899527,0.18899527 0 0 0 0.03125,-0.03125 l 8.90625,-9.75 a 0.18899527,0.18899527 0 0 0 0.03125,-0.03125 0.18899527,0.18899527 0 0 0 0.03125,-0.0625 0.18899527,0.18899527 0 0 0 0,-0.03125 0.18899527,0.18899527 0 0 0 0,-0.0625 A 0.18899527,0.18899527 0 0 0 21.0625,9.84375 0.18899527,0.18899527 0 0 0 21.03125,9.8125 l -0.75,-0.6875 C 18.070246,7.0568304 15.112544,5.7706015 11.84375,5.8125 z m 0,1.375 C 14.694293,7.1509625 17.295867,8.2233487 19.25,10 L 12,17.9375 4.75,10 C 6.6274812,8.2919486 9.100583,7.2226612 11.84375,7.1875 z" />
</svg>
