<svg xmlns="http://www.w3.org/2000/svg" xmlns:xlink="http://www.w3.org/1999/xlink" width="128" height="128"><defs><linearGradient id="b"><stop style="stop-color:#3d3d3d;stop-opacity:1" offset="0"/><stop style="stop-color:#686868;stop-opacity:.49803922" offset=".5"/><stop style="stop-color:#686868;stop-opacity:0" offset="1"/></linearGradient><linearGradient id="c"><stop style="stop-color:#90dbec;stop-opacity:1" offset="0"/><stop style="stop-color:#42baea;stop-opacity:1" offset=".262"/><stop style="stop-color:#3689e6;stop-opacity:1" offset=".705"/><stop style="stop-color:#2b63a0;stop-opacity:1" offset="1"/></linearGradient><linearGradient id="a"><stop offset="0" style="stop-color:#fff;stop-opacity:1"/><stop offset=".424" style="stop-color:#fff;stop-opacity:.23529412"/><stop offset=".821" style="stop-color:#fff;stop-opacity:.15686275"/><stop offset="1" style="stop-color:#fff;stop-opacity:.39215687"/></linearGradient><linearGradient xlink:href="#a" id="f" gradientUnits="userSpaceOnUse" gradientTransform="translate(-236.033 -50.036) scale(4.16388)" x1="71.204" y1="15.369" x2="71.204" y2="40.496"/><radialGradient xlink:href="#b" id="d" gradientUnits="userSpaceOnUse" gradientTransform="matrix(.68694 0 0 .21462 -4.022 68.573)" cx="99.157" cy="186.171" fx="99.157" fy="186.171" r="62.769"/><radialGradient cx="1.198" cy="8.45" r="20" fx="1.198" fy="8.45" id="e" xlink:href="#c" gradientUnits="userSpaceOnUse" gradientTransform="matrix(0 12.68293 -13.41703 0 177.871 -40.512)"/></defs><path style="fill:url(#d);fill-opacity:1;stroke:none" d="M107.212 108.529a43.119 13.471 0 1 1-86.237 0 43.119 13.471 0 1 1 86.237 0z"/><path style="color:#000;display:inline;overflow:visible;visibility:visible;fill:url(#e);fill-opacity:1;fill-rule:nonzero;stroke:none;stroke-width:1;marker:none;enable-background:accumulate" d="M64.5 13.998c-28.692 0-52 23.308-52 52s23.308 52 52 52 52-23.308 52-52-23.308-52-52-52z"/><path style="opacity:.5;color:#000;fill:#000;fill-opacity:0;fill-rule:nonzero;stroke:#00537d;stroke-width:1;stroke-linecap:round;stroke-linejoin:round;stroke-miterlimit:4;stroke-opacity:1;stroke-dasharray:none;stroke-dashoffset:0;marker:none;visibility:visible;display:inline;overflow:visible;enable-background:accumulate;clip-rule:nonzero;isolation:auto;mix-blend-mode:normal;color-interpolation:sRGB;color-interpolation-filters:linearRGB;solid-color:#000;solid-opacity:1;filter-blend-mode:normal;filter-gaussianBlur-deviation:0;color-rendering:auto;image-rendering:auto;shape-rendering:auto;text-rendering:auto" d="M64.5 13.998c-28.692 0-52 23.308-52 52s23.308 52 52 52 52-23.308 52-52-23.308-52-52-52z" fill="none"/><path style="opacity:.5;color:#000;fill:none;stroke:url(#f);stroke-width:1;stroke-linecap:round;stroke-linejoin:round;stroke-miterlimit:4;stroke-opacity:1;stroke-dasharray:none;stroke-dashoffset:0;marker:none;visibility:visible;display:inline;overflow:visible;enable-background:accumulate" d="M115.5 65.998c0 28.167-22.834 51-51 51-28.167 0-51-22.833-51-51 0-28.166 22.833-51 51-51 28.166 0 51 22.834 51 51z"/><path style="color:#000;clip-rule:nonzero;display:inline;overflow:visible;visibility:visible;opacity:.05;isolation:auto;mix-blend-mode:normal;color-interpolation:sRGB;color-interpolation-filters:linearRGB;solid-color:#000;solid-opacity:1;fill:#000;fill-opacity:1;fill-rule:nonzero;stroke:none;stroke-width:1;stroke-linecap:butt;stroke-linejoin:miter;stroke-miterlimit:4;stroke-dasharray:none;stroke-dashoffset:0;stroke-opacity:1;marker:none;color-rendering:auto;image-rendering:auto;shape-rendering:auto;text-rendering:auto;enable-background:accumulate;filter-blend-mode:normal;filter-gaussianBlur-deviation:0" d="M64.5 27.994C42.97 27.994 25.494 45.47 25.494 67s17.475 39.006 39.006 39.006c21.53 0 39.006-17.475 39.006-39.006 0-21.53-17.475-39.006-39.006-39.006zm0 5.178c15.37 0 28.304 10.254 32.43 24.275-3.483 7.059-8.373 13.428-14.323 18.58-2.907 2.518-6.059 4.74-9.507 6.295-3.445 1.553-7.215 2.424-10.926 2.211-2.16-.124-4.253-.726-6.238-1.57 6.21-3.62 11.858-8.213 16.53-13.686 3.359-3.933 6.354-8.457 7.52-13.658.584-2.604.687-5.344.133-7.994-.554-2.655-1.78-5.194-3.664-7.197-1.84-1.957-4.233-3.329-6.795-4.035-2.558-.706-5.258-.755-7.836-.284-5.154.942-9.679 3.908-13.283 7.54-6.356 6.404-10.297 15.43-9.57 24.503.363 4.535 1.881 8.993 4.498 12.74.287.411.623.78.935 1.17A55.882 55.882 0 0 1 35.4 84.18c-2.983-5.04-4.728-10.895-4.728-17.18 0-18.694 15.134-33.828 33.828-33.828Zm.219 7.039c2.246.003 4.505.69 6.263 2.018 1.585 1.197 2.784 2.925 3.463 4.833.68 1.914.862 4.018.625 6.075-.474 4.12-2.578 7.992-5.187 11.422-4.627 6.081-10.794 10.966-17.66 14.386-.477.238-.966.458-1.453.682-1.242-1.167-2.38-2.45-3.213-3.926-1.956-3.463-2.621-7.631-2.235-11.662.387-4.038 1.782-7.973 3.678-11.644 2.195-4.25 5.157-8.194 9.19-10.418 2.012-1.11 4.276-1.77 6.529-1.766zm33.504 25.227c.024.523.105 1.032.105 1.562 0 18.694-15.134 33.828-33.828 33.828-9.91 0-18.716-4.352-24.902-11.135 3.237-.833 6.415-1.886 9.48-3.214 1.556 1.12 3.21 2.115 5.008 2.804 5.734 2.198 12.172 1.87 17.893-.111 5.71-1.977 10.723-5.503 15.07-9.567 4.414-4.126 8.083-8.976 11.174-14.168z"/><path style="color:#000;clip-rule:nonzero;display:inline;overflow:visible;visibility:visible;opacity:.15;isolation:auto;mix-blend-mode:normal;color-interpolation:sRGB;color-interpolation-filters:linearRGB;solid-color:#000;solid-opacity:1;fill:#000;fill-opacity:1;fill-rule:nonzero;stroke:none;stroke-width:1;stroke-linecap:butt;stroke-linejoin:miter;stroke-miterlimit:4;stroke-dasharray:none;stroke-dashoffset:0;stroke-opacity:1;marker:none;color-rendering:auto;image-rendering:auto;shape-rendering:auto;text-rendering:auto;enable-background:accumulate" d="M64.5 29c-20.987 0-38 17.013-38 38s17.013 38 38 38 38-17.013 38-38-17.013-38-38-38Zm0 3.167c15.956 0 29.406 10.728 33.531 25.365a60.438 60.438 0 0 1-14.765 19.257c-2.957 2.561-6.186 4.844-9.753 6.452-3.567 1.608-7.49 2.52-11.396 2.296a19.717 19.717 0 0 1-8.403-2.41c6.81-3.691 12.956-8.612 17.986-14.504 3.302-3.868 6.191-8.263 7.303-13.225.557-2.48.65-5.08.131-7.568-.52-2.49-1.67-4.861-3.412-6.714-1.701-1.81-3.935-3.091-6.33-3.752-2.394-.66-4.942-.712-7.386-.265-4.887.893-9.25 3.733-12.75 7.26-6.168 6.215-9.981 14.985-9.282 23.714.35 4.364 1.812 8.653 4.319 12.243.56.801 1.174 1.564 1.832 2.288a56.984 56.984 0 0 1-11.265 2.7A34.665 34.665 0 0 1 29.667 67c0-19.238 15.595-34.833 34.833-34.833zm.222 7.038c2.448.003 4.914.744 6.867 2.22 1.76 1.33 3.065 3.222 3.804 5.3.74 2.079.93 4.336.677 6.528-.504 4.383-2.716 8.403-5.387 11.914-4.73 6.218-11.018 11.194-18.01 14.678-.716.356-1.443.695-2.174 1.021a17.984 17.984 0 0 1-3.82-4.67c-2.077-3.679-2.762-8.047-2.359-12.252.403-4.204 1.846-8.257 3.785-12.01 2.247-4.35 5.31-8.472 9.599-10.837 2.144-1.183 4.569-1.896 7.018-1.892zM99.02 62.337A35.16 35.16 0 0 1 99.332 67c0 19.238-15.595 34.833-34.833 34.833-10.804 0-20.46-4.918-26.85-12.639a62.708 62.708 0 0 0 11.496-3.82 21.434 21.434 0 0 0 5.3 2.97c5.466 2.095 11.671 1.792 17.203-.123 5.531-1.915 10.437-5.353 14.713-9.35A63.333 63.333 0 0 0 99.02 62.337z"/><path style="color:#000;display:inline;overflow:visible;visibility:visible;fill:#fff;fill-opacity:1;fill-rule:nonzero;stroke:none;stroke-width:1;marker:none;enable-background:accumulate" d="M64.5 28c-20.987 0-38 17.013-38 38s17.013 38 38 38 38-17.013 38-38-17.013-38-38-38Zm0 3.167c15.956 0 29.406 10.728 33.531 25.365a60.438 60.438 0 0 1-14.765 19.257c-2.957 2.561-6.186 4.844-9.753 6.452-3.567 1.608-7.49 2.52-11.396 2.296a19.717 19.717 0 0 1-8.403-2.41c6.81-3.691 12.956-8.612 17.986-14.504 3.302-3.868 6.191-8.263 7.303-13.225.556-2.48.65-5.08.131-7.568-.52-2.49-1.67-4.861-3.412-6.714-1.701-1.81-3.935-3.091-6.33-3.752-2.394-.66-4.942-.712-7.386-.265-4.887.893-9.25 3.733-12.75 7.26-6.168 6.215-9.981 14.985-9.282 23.714.35 4.364 1.812 8.653 4.319 12.243.56.801 1.174 1.564 1.832 2.288a56.984 56.984 0 0 1-11.265 2.7A34.665 34.665 0 0 1 29.667 66c0-19.238 15.595-34.833 34.833-34.833zm.222 7.038c2.448.003 4.914.744 6.867 2.22 1.76 1.33 3.065 3.222 3.804 5.3.74 2.079.93 4.336.677 6.528-.504 4.383-2.716 8.403-5.387 11.914-4.73 6.218-11.018 11.194-18.01 14.678-.716.356-1.443.695-2.174 1.021a17.984 17.984 0 0 1-3.82-4.67c-2.077-3.679-2.762-8.047-2.359-12.252.403-4.204 1.846-8.257 3.785-12.01 2.247-4.35 5.31-8.472 9.599-10.837 2.144-1.183 4.569-1.896 7.018-1.892zM99.02 61.337A35.16 35.16 0 0 1 99.332 66c0 19.238-15.595 34.833-34.833 34.833-10.804 0-20.46-4.918-26.85-12.639a62.708 62.708 0 0 0 11.496-3.82 21.434 21.434 0 0 0 5.3 2.97c5.466 2.095 11.671 1.792 17.203-.123 5.531-1.915 10.437-5.353 14.713-9.35A63.333 63.333 0 0 0 99.02 61.337z"/></svg>