<?xml version="1.0" encoding="UTF-8" standalone="no"?>
<!-- Created with Inkscape (http://www.inkscape.org/) -->

<svg
   xmlns:dc="http://purl.org/dc/elements/1.1/"
   xmlns:cc="http://creativecommons.org/ns#"
   xmlns:rdf="http://www.w3.org/1999/02/22-rdf-syntax-ns#"
   xmlns:svg="http://www.w3.org/2000/svg"
   xmlns="http://www.w3.org/2000/svg"
   xmlns:sodipodi="http://sodipodi.sourceforge.net/DTD/sodipodi-0.dtd"
   xmlns:inkscape="http://www.inkscape.org/namespaces/inkscape"
   version="1.1"
   width="16"
   height="16"
   id="svg7384"
   inkscape:version="0.48.4 r9939"
   sodipodi:docname="edit-find-symbolic.svg">
  <sodipodi:namedview
     pagecolor="#ffffff"
     bordercolor="#666666"
     borderopacity="1"
     objecttolerance="10"
     gridtolerance="10"
     guidetolerance="10"
     inkscape:pageopacity="0"
     inkscape:pageshadow="2"
     inkscape:window-width="1440"
     inkscape:window-height="845"
     id="namedview7"
     showgrid="true"
     showguides="true"
     inkscape:guide-bbox="true"
     inkscape:zoom="39.6875"
     inkscape:cx="11.011024"
     inkscape:cy="8"
     inkscape:window-x="0"
     inkscape:window-y="30"
     inkscape:window-maximized="1"
     inkscape:current-layer="svg7384">
    <inkscape:grid
       type="xygrid"
       id="grid2984" />
  </sodipodi:namedview>
  <title
     id="title9167">Gnome Symbolic Icon Theme</title>
  <defs
     id="defs11" />
  <metadata
     id="metadata90">
    <rdf:RDF>
      <cc:Work
         rdf:about="">
        <dc:format>image/svg+xml</dc:format>
        <dc:type
           rdf:resource="http://purl.org/dc/dcmitype/StillImage" />
        <dc:title>Gnome Symbolic Icon Theme</dc:title>
      </cc:Work>
    </rdf:RDF>
  </metadata>
  <path
     d="m 23.209448,1.2015748 c -2.761423,0 -4.999999,2.2385763 -4.999999,5 0,2.7614237 2.238576,5.0000002 4.999999,5.0000002 0.984784,0 1.882274,-0.289667 2.65625,-0.78125 l 4.46875,4.625 c 0.09558,0.105267 0.226186,0.164519 0.375,0.15625 0.148816,-0.0083 0.303095,-0.07119 0.40625,-0.1875 l 0.9375,-1.0625 c 0.191938,-0.220889 0.195486,-0.535924 0,-0.71875 l -4.59375,-4.4062502 c 0.477599,-0.7663478 0.75,-1.6555164 0.75,-2.625 0,-2.7614237 -2.238576,-5 -5,-5 z m 0,2 c 1.656855,0 3,1.3431458 3,3 0,1.6568542 -1.343145,3 -3,3 -1.656854,0 -3,-1.3431458 -3,-3 0,-1.6568542 1.343146,-3 3,-3 z"
     inkscape:connector-curvature="0"
     id="path3220"
     style="color:#bebebe;fill:#bebebe;fill-opacity:1;fill-rule:nonzero;stroke:none;stroke-width:1;marker:none;visibility:visible;display:inline;overflow:visible;enable-background:accumulate" />
  <path
     style="opacity:1;color:#bebebe;fill:#bebebe;fill-opacity:1;fill-rule:nonzero;stroke:none;stroke-width:1;marker:none;visibility:visible;display:inline;overflow:visible;enable-background:accumulate"
     d="M 6.25 1 C 3.3505053 1 1 3.3505053 1 6.25 C 1 9.1494947 3.3505053 11.5 6.25 11.5 C 7.3779742 11.5 8.4255081 11.136637 9.28125 10.53125 L 13.5 14.75 C 13.84277 15.09277 14.40723 15.09277 14.75 14.75 C 15.09277 14.40723 15.09277 13.84277 14.75 13.5 L 10.53125 9.28125 C 11.136637 8.4255081 11.5 7.3779742 11.5 6.25 C 11.5 3.3505053 9.1494947 1 6.25 1 z M 6.25 2.375 C 8.3901034 2.375 10.125 4.1098966 10.125 6.25 C 10.125 8.3901034 8.3901034 10.125 6.25 10.125 C 4.1098966 10.125 2.375 8.3901034 2.375 6.25 C 2.375 4.1098966 4.1098966 2.375 6.25 2.375 z "
     id="path2986-0" />
</svg>
