<?xml version="1.0" encoding="UTF-8" standalone="no"?>
<!-- Created with Inkscape (http://www.inkscape.org/) -->

<svg
   xmlns:dc="http://purl.org/dc/elements/1.1/"
   xmlns:cc="http://creativecommons.org/ns#"
   xmlns:rdf="http://www.w3.org/1999/02/22-rdf-syntax-ns#"
   xmlns:svg="http://www.w3.org/2000/svg"
   xmlns="http://www.w3.org/2000/svg"
   xmlns:inkscape="http://www.inkscape.org/namespaces/inkscape"
   version="1.1"
   width="16"
   height="16"
   id="svg3828">
  <defs
     id="defs3830" />
  <metadata
     id="metadata3833">
    <rdf:RDF>
      <cc:Work
         rdf:about="">
        <dc:format>image/svg+xml</dc:format>
        <dc:type
           rdf:resource="http://purl.org/dc/dcmitype/StillImage" />
        <dc:title />
      </cc:Work>
    </rdf:RDF>
  </metadata>
  <g
     id="layer1">
    <g
       transform="translate(-0.02867384,-0.7867384)"
       id="layer1-6"
       style="opacity:0.9;color:#bebebe;fill:#bebebe;fill-opacity:1;fill-rule:nonzero;stroke:none;stroke-width:1;marker:none;visibility:visible;display:inline;overflow:visible;enable-background:accumulate">
      <path
         d="m 8.0286738,10.786738 c -0.8837844,0 -1.7582785,0.463138 -2.1184755,0.860829 l 2.1184755,2.303665 2.1390372,-2.283103 C 9.8075138,11.249876 8.9124582,10.786738 8.0286738,10.786738 z m 0,-3.9999996 c -1.847888,0 -3.5041267,0.736481 -4.8649357,1.861156 l 1.3245282,1.4137196 c 0.90637,-0.6491716 2.3168195,-1.2748756 3.4869315,-1.2748756 1.198417,0 2.6760272,0.639835 3.5952572,1.3180686 L 12.935091,8.6271534 C 11.574282,7.5024784 9.8765618,6.7867384 8.0286738,6.7867384 z m 0,-3.999999 c -2.853422,0 -5.468321,1.09634 -7.49999996,2.922777 l 1.29591676,1.459363 c 1.8117159,-1.588448 3.7176605,-2.382141 6.2040832,-2.382141 2.4864232,0 4.3343812,0.747499 6.2328602,2.414286 l 1.26714,-1.491508 C 13.496995,3.8830794 10.882095,2.7867394 8.0286738,2.7867394 z"
         inkscape:connector-curvature="0"
         id="path4112-19-69-3"
         style="color:#bebebe;fill:#bebebe;fill-opacity:1;fill-rule:nonzero;stroke:none;stroke-width:1;marker:none;visibility:visible;display:inline;overflow:visible;enable-background:accumulate" />
    </g>
  </g>
</svg>
