<?xml version="1.0" encoding="UTF-8" standalone="no"?>
<!-- Created with Inkscape (http://www.inkscape.org/) -->

<svg
   xmlns:dc="http://purl.org/dc/elements/1.1/"
   xmlns:cc="http://creativecommons.org/ns#"
   xmlns:rdf="http://www.w3.org/1999/02/22-rdf-syntax-ns#"
   xmlns:svg="http://www.w3.org/2000/svg"
   xmlns="http://www.w3.org/2000/svg"
   xmlns:xlink="http://www.w3.org/1999/xlink"
   xmlns:inkscape="http://www.inkscape.org/namespaces/inkscape"
   version="1.0"
   width="24"
   height="24"
   id="svg3567">
  <metadata
     id="metadata40">
    <rdf:RDF>
      <cc:Work
         rdf:about="">
        <dc:format>image/svg+xml</dc:format>
        <dc:type
           rdf:resource="http://purl.org/dc/dcmitype/StillImage" />
      </cc:Work>
    </rdf:RDF>
  </metadata>
  <defs
     id="defs3569">
    <linearGradient
       x1="21.628975"
       y1="2.1102102"
       x2="22.245434"
       y2="43.366352"
       id="linearGradient2926"
       xlink:href="#linearGradient4873"
       gradientUnits="userSpaceOnUse"
       gradientTransform="matrix(-0.4873978,0,0,-0.4781595,23.842396,23.296914)" />
    <linearGradient
       id="linearGradient3533">
      <stop
         id="stop3535"
         style="stop-color:#b0cce6;stop-opacity:1"
         offset="0" />
      <stop
         id="stop3545"
         style="stop-color:#83acd5;stop-opacity:1"
         offset="1" />
    </linearGradient>
    <linearGradient
       x1="15.372947"
       y1="5.0471625"
       x2="15.372947"
       y2="22.599676"
       id="linearGradient2918"
       xlink:href="#linearGradient3533"
       gradientUnits="userSpaceOnUse"
       gradientTransform="matrix(-0.4873978,0,0,-0.4781595,23.842396,23.296914)" />
    <linearGradient
       x1="18"
       y1="17"
       x2="21"
       y2="12"
       id="linearGradient3743"
       xlink:href="#linearGradient3705"
       gradientUnits="userSpaceOnUse" />
    <mask
       id="mask3739">
      <rect
         width="22"
         height="12"
         x="1"
         y="12"
         id="rect3741"
         style="fill:url(#linearGradient3743);fill-opacity:1;stroke:none" />
    </mask>
    <linearGradient
       id="linearGradient4873">
      <stop
         id="stop4875"
         style="stop-color:#ffffff;stop-opacity:1"
         offset="0" />
      <stop
         id="stop4877"
         style="stop-color:#ffffff;stop-opacity:0"
         offset="1" />
    </linearGradient>
    <linearGradient
       x1="21.628975"
       y1="2.1102102"
       x2="22.245434"
       y2="43.366352"
       id="linearGradient2901"
       xlink:href="#linearGradient4873"
       gradientUnits="userSpaceOnUse"
       gradientTransform="matrix(0.4873978,0,0,0.4781595,-0.345297,0.700712)" />
    <linearGradient
       id="linearGradient3429">
      <stop
         id="stop3431"
         style="stop-color:#9853c6;stop-opacity:1"
         offset="0" />
      <stop
         id="stop3435"
         style="stop-color:#7d38aa;stop-opacity:1"
         offset="1" />
    </linearGradient>
    <linearGradient
       x1="16.945866"
       y1="0.99177527"
       x2="16.945866"
       y2="11.730221"
       id="linearGradient3565"
       xlink:href="#linearGradient3429"
       gradientUnits="userSpaceOnUse" />
    <linearGradient
       id="linearGradient3437">
      <stop
         id="stop3439"
         style="stop-color:#be93db;stop-opacity:1"
         offset="0" />
      <stop
         id="stop3443"
         style="stop-color:#dcb6f6;stop-opacity:1"
         offset="1" />
    </linearGradient>
    <linearGradient
       x1="13.610957"
       y1="9.8964491"
       x2="15.372947"
       y2="22.599676"
       id="linearGradient2904"
       xlink:href="#linearGradient3437"
       gradientUnits="userSpaceOnUse"
       gradientTransform="matrix(0.4873978,0,0,0.4781595,-0.345297,0.700712)" />
    <linearGradient
       id="linearGradient3705">
      <stop
         id="stop3707"
         style="stop-color:#ffffff;stop-opacity:1"
         offset="0" />
      <stop
         id="stop3713"
         style="stop-color:#000000;stop-opacity:1"
         offset="0.51867628" />
      <stop
         id="stop3709"
         style="stop-color:#000000;stop-opacity:1"
         offset="1" />
    </linearGradient>
    <linearGradient
       x1="18"
       y1="17"
       x2="21"
       y2="12"
       id="linearGradient3753"
       xlink:href="#linearGradient3705"
       gradientUnits="userSpaceOnUse"
       gradientTransform="translate(-24,-24)" />
    <mask
       id="mask3749">
      <rect
         width="22"
         height="12"
         x="-23"
         y="-12"
         transform="scale(-1,-1)"
         id="rect3751"
         style="fill:url(#linearGradient3753);fill-opacity:1;stroke:none" />
    </mask>
  </defs>
  <g
     id="layer1">
    <g
       mask="url(#mask3739)"
       id="g3731">
      <path
         d="M 16.96875,12.78125 C 16.813534,15.319623 13.94201,17.150169 11.6875,17 10.480174,17 9.30456,16.726823 8.4375,15.90625 L 10.84375,13.5 l -9,0 0,9 2.84375,-2.8125 c 1.893804,1.825725 4.079985,2.782319 6.875,2.8125 l 0,-0.03125 c 4.752004,0.168344 10.292725,-3.27161 10.4375,-9.5 l -5.03125,-0.1875 0,0 z"
         inkscape:connector-curvature="0"
         id="path3372"
         style="fill:url(#linearGradient2918);fill-opacity:1;stroke:#538ec6;stroke-width:1.00474763;stroke-linecap:butt;stroke-linejoin:round;stroke-miterlimit:4;stroke-opacity:1;stroke-dasharray:none" />
      <path
         d="m 17.84375,12.75 c -0.07062,2.868458 -2.40943,5.343011 -6.1875,5.25 -1.365148,-0.01958 -3.039493,-0.265347 -4.75,-1.875 l 1.5625,-1.625 -5.625,0 0,5.625 2,-1.8125 c 1.8020961,1.972022 3.9362225,3.178557 6.75,3.1875 0.01066,3.4e-5 0.02057,0 0.03125,0 3.634267,0.06435 9.132588,-2.523862 9.28125,-8.5625 L 17.84375,12.75 z"
         inkscape:connector-curvature="0"
         id="path3370"
         style="opacity:0.4;fill:none;stroke:url(#linearGradient2926);stroke-width:1.00474763;stroke-linecap:butt;stroke-linejoin:miter;stroke-miterlimit:4;stroke-opacity:1;stroke-dasharray:none" />
    </g>
    <g
       mask="url(#mask3749)"
       id="g3745">
      <path
         d="M 11.9375,1.5 C 7.185496,1.331656 1.644775,4.80286 1.5,11.03125 l 5.03125,0.1875 C 6.686466,8.680377 9.55799,6.849831 11.8125,7 c 1.207326,0 2.38294,0.273177 3.25,1.09375 L 12.65625,10.5 l 9,0 0,-9 -2.84375,2.8125 C 16.918696,2.486775 14.732515,1.530181 11.9375,1.5 z"
         inkscape:connector-curvature="0"
         id="path3595"
         style="fill:url(#linearGradient2904);fill-opacity:1;stroke:url(#linearGradient3565);stroke-width:1.00474763;stroke-linecap:butt;stroke-linejoin:round;stroke-miterlimit:4;stroke-opacity:1;stroke-dasharray:none" />
      <path
         d="M 11.1875,2.5 C 7.5878629,2.7409187 2.7335003,5.3858513 2.59375,11.0625 l 3.0625,0.15625 c 0.07062,-2.868458 2.40943,-5.343011 6.1875,-5.25 l 0,0.03125 c 1.365148,0.01958 3.039493,0.265347 4.75,1.875 l -1.5625,1.625 5.625,0 0,-5.625 L 18.625,5.65625 C 16.822904,3.6842276 14.720027,2.5089433 11.90625,2.5 11.89635,2.4997853 11.8849,2.5001753 11.875,2.5 11.657142,2.49614 11.417042,2.484637 11.1875,2.5 z"
         inkscape:connector-curvature="0"
         id="path3597"
         style="opacity:0.4;fill:none;stroke:url(#linearGradient2901);stroke-width:1.00474763;stroke-linecap:butt;stroke-linejoin:miter;stroke-miterlimit:4;stroke-opacity:1;stroke-dasharray:none" />
    </g>
  </g>
</svg>
