<?xml version="1.0" encoding="UTF-8" standalone="no"?>
<!-- Created with Inkscape (http://www.inkscape.org/) -->

<svg
   xmlns:dc="http://purl.org/dc/elements/1.1/"
   xmlns:cc="http://creativecommons.org/ns#"
   xmlns:rdf="http://www.w3.org/1999/02/22-rdf-syntax-ns#"
   xmlns:svg="http://www.w3.org/2000/svg"
   xmlns="http://www.w3.org/2000/svg"
   xmlns:xlink="http://www.w3.org/1999/xlink"
   version="1.1"
   width="16"
   height="16"
   id="svg4114">
  <defs
     id="defs4116">
    <linearGradient
       x1="24.001757"
       y1="9.2952671"
       x2="22.875973"
       y2="37.167572"
       id="linearGradient3167"
       xlink:href="#linearGradient3875"
       gradientUnits="userSpaceOnUse"
       gradientTransform="matrix(0.46662086,0,0,0.4720986,0.80193311,1.4356834)" />
    <linearGradient
       id="linearGradient3875">
      <stop
         id="stop3877"
         style="stop-color:#ffffff;stop-opacity:1"
         offset="0" />
      <stop
         id="stop3879"
         style="stop-color:#ffffff;stop-opacity:0.23529412"
         offset="0.13099068" />
      <stop
         id="stop3881"
         style="stop-color:#ffffff;stop-opacity:0.15686275"
         offset="0.90155029" />
      <stop
         id="stop3883"
         style="stop-color:#ffffff;stop-opacity:0.39215687"
         offset="1" />
    </linearGradient>
    <linearGradient
       x1="0.36465192"
       y1="19.599176"
       x2="28.05953"
       y2="19.599176"
       id="linearGradient3160"
       xlink:href="#linearGradient2867-449-88-871-390-598-476-591-434-148-57-177-8-3-4"
       gradientUnits="userSpaceOnUse"
       gradientTransform="matrix(0.50100354,0,0.12917999,0.48210629,-1.3703677,6.3724142)"
       spreadMethod="reflect" />
    <linearGradient
       id="linearGradient2867-449-88-871-390-598-476-591-434-148-57-177-8-3-4">
      <stop
         id="stop3750-1-0-7"
         style="stop-color:#ffcd7d;stop-opacity:1"
         offset="0" />
      <stop
         id="stop3752-3-7-6"
         style="stop-color:#fc8f36;stop-opacity:1"
         offset="0.26238" />
      <stop
         id="stop3754-1-8-5"
         style="stop-color:#e23a0e;stop-opacity:1"
         offset="1" />
    </linearGradient>
    <linearGradient
       x1="30"
       y1="30"
       x2="-11"
       y2="30"
       id="linearGradient3162"
       xlink:href="#linearGradient4039"
       gradientUnits="userSpaceOnUse"
       gradientTransform="matrix(0.37774073,0,0.09673411,0.36101661,1.5655367,7.1569019)"
       spreadMethod="reflect" />
    <linearGradient
       id="linearGradient4039">
      <stop
         id="stop4041"
         style="stop-color:#ba3d12;stop-opacity:1"
         offset="0" />
      <stop
         id="stop4043"
         style="stop-color:#db6737;stop-opacity:1"
         offset="1" />
    </linearGradient>
    <linearGradient
       id="linearGradient4034">
      <stop
         id="stop4036"
         style="stop-color:#000000;stop-opacity:1"
         offset="0" />
      <stop
         id="stop4038"
         style="stop-color:#000000;stop-opacity:0"
         offset="1" />
    </linearGradient>
    <linearGradient
       x1="10.824209"
       y1="31.999737"
       x2="10.824209"
       y2="14.232251"
       id="linearGradient4112"
       xlink:href="#linearGradient4034"
       gradientUnits="userSpaceOnUse"
       gradientTransform="translate(1.4827512e-8,7.0001866)" />
    <linearGradient
       x1="24.001757"
       y1="9.2952671"
       x2="22.875973"
       y2="37.167572"
       id="linearGradient3008"
       xlink:href="#linearGradient3875"
       gradientUnits="userSpaceOnUse"
       gradientTransform="matrix(0.23131058,0,0.05895323,0.24867611,2.2825251,-0.97508782)" />
    <linearGradient
       x1="0.36465192"
       y1="19.599176"
       x2="28.05953"
       y2="19.599176"
       id="linearGradient3011"
       xlink:href="#linearGradient2867-449-88-871-390-598-476-591-434-148-57-177-8-3-4"
       gradientUnits="userSpaceOnUse"
       gradientTransform="matrix(0.31458248,0,0.08111273,0.34214914,0.25352162,-1.7197806)"
       spreadMethod="reflect" />
    <linearGradient
       x1="30"
       y1="30"
       x2="-11"
       y2="30"
       id="linearGradient3013"
       xlink:href="#linearGradient4039"
       gradientUnits="userSpaceOnUse"
       gradientTransform="matrix(0.23718519,0,0.0607398,0.25621222,2.0969899,-1.1630324)"
       spreadMethod="reflect" />
    <linearGradient
       x1="10.824209"
       y1="31.999737"
       x2="10.824209"
       y2="14.232251"
       id="linearGradient3018"
       xlink:href="#linearGradient4034"
       gradientUnits="userSpaceOnUse"
       gradientTransform="translate(1.4827512e-8,-0.9998134)" />
    <linearGradient
       x1="24.001757"
       y1="9.2952671"
       x2="22.875973"
       y2="37.167572"
       id="linearGradient3025"
       xlink:href="#linearGradient3875"
       gradientUnits="userSpaceOnUse"
       gradientTransform="matrix(0.23131058,0,0.05895323,0.24867611,2.2825251,-0.97508782)" />
  </defs>
  <metadata
     id="metadata4119">
    <rdf:RDF>
      <cc:Work
         rdf:about="">
        <dc:format>image/svg+xml</dc:format>
        <dc:type
           rdf:resource="http://purl.org/dc/dcmitype/StillImage" />
        <dc:title></dc:title>
      </cc:Work>
    </rdf:RDF>
  </metadata>
  <rect
     width="0.68377876"
     height="14.659303"
     x="0.68792713"
     y="0.98241025"
     transform="matrix(1,0,0.24996821,0.96825405,0,0)"
     id="rect3941-5"
     style="color:#000000;fill:#ffffff;stroke:none;stroke-width:1;marker:none;visibility:visible;display:inline;overflow:visible;enable-background:accumulate" />
  <path
     d="m 0.5000001,0.49999995 c 0.43704764,0 1.8819693,0 2.3190169,0 C 4.048636,5.5 5.2782552,10.500001 6.5078743,15.500001 c -0.4370476,0 -1.8819693,0 -2.3190169,0 C 2.9592383,10.500001 1.7296192,5.5 0.5000001,0.49999995 z"
     id="rect3941"
     style="opacity:0.36600001;color:#000000;fill:none;stroke:#000000;stroke-width:1.00000012;stroke-linejoin:round;stroke-miterlimit:4;stroke-opacity:1;stroke-dasharray:none;marker:none;visibility:visible;display:inline;overflow:visible;enable-background:accumulate" />
  <path
     d="M 3.0463781,1.3409294 C 2.9403381,0.93784452 4.424656,0.44164423 6.0811194,0.50560576 7.7375216,0.56956428 8.321927,1.1863653 10.201689,1.2709831 c 1.741132,0.078378 3.31756,-0.81985889 3.404438,-0.40917051 L 15.490762,8.8115649 C 15.634277,9.3544075 14.08588,9.7318943 12.224338,9.7259861 10.362792,9.7200246 9.8446468,8.9918186 8.0847605,8.9573507 6.3258736,8.922902 5.0466808,9.9661854 4.9113332,9.20767 L 3.0463781,1.3409294 z"
     id="path4319-6"
     style="fill:url(#linearGradient3011);fill-opacity:1;fill-rule:evenodd;stroke:url(#linearGradient3013);stroke-width:1;stroke-linecap:butt;stroke-linejoin:round;stroke-miterlimit:4;stroke-opacity:1;stroke-dasharray:none" />
  <path
     d="M 6.34375,1.53125 C 5.6515649,1.4991364 4.9896876,1.6265255 4.5,1.75 4.3366007,1.7912011 4.2737334,1.812092 4.1875,1.84375 l 1.53125,6.5 c 0.060365,-0.01863 0.053767,-0.00825 0.125,-0.03125 0.5192504,-0.1676688 1.3100215,-0.4276739 2.25,-0.40625 0.9092995,0.020728 1.5499362,0.245624 2.09375,0.4375 0.542426,0.1913855 0.976169,0.3407249 1.75,0.34375 0.814816,0.00321 1.581406,-0.1054471 2.09375,-0.21875 C 14.191801,8.433245 14.277358,8.4101445 14.375,8.375 L 12.84375,1.96875 C 12.764094,1.9904557 12.728079,2.0060227 12.625,2.03125 12.043274,2.1736207 11.192091,2.3487881 10.21875,2.3125 9.2688625,2.2770861 8.5796128,2.0471924 8.03125,1.875 7.4747749,1.70026 7.0312097,1.5631445 6.34375,1.53125 z"
     id="path3023"
     style="opacity:0.5;fill:none;stroke:url(#linearGradient3025);stroke-width:1.00000203px;stroke-linecap:butt;stroke-linejoin:miter;stroke-opacity:1" />
</svg>
