<?xml version="1.0" encoding="UTF-8" standalone="no"?>
<!-- Created with Inkscape (http://www.inkscape.org/) -->

<svg
   xmlns:dc="http://purl.org/dc/elements/1.1/"
   xmlns:cc="http://creativecommons.org/ns#"
   xmlns:rdf="http://www.w3.org/1999/02/22-rdf-syntax-ns#"
   xmlns:svg="http://www.w3.org/2000/svg"
   xmlns="http://www.w3.org/2000/svg"
   xmlns:xlink="http://www.w3.org/1999/xlink"
   xmlns:inkscape="http://www.inkscape.org/namespaces/inkscape"
   version="1.1"
   width="16"
   height="16"
   id="svg3803">
  <metadata
     id="metadata25386">
    <rdf:RDF>
      <cc:Work
         rdf:about="">
        <dc:format>image/svg+xml</dc:format>
        <dc:type
           rdf:resource="http://purl.org/dc/dcmitype/StillImage" />
        <dc:title />
      </cc:Work>
    </rdf:RDF>
  </metadata>
  <defs
     id="defs3805">
    <linearGradient
       id="linearGradient4873-275-174-730-0">
      <stop
         id="stop3091-4"
         style="stop-color:#ffffff;stop-opacity:1"
         offset="0" />
      <stop
         id="stop3093-4"
         style="stop-color:#ffffff;stop-opacity:0"
         offset="1" />
    </linearGradient>
    <linearGradient
       id="linearGradient3242-141-111-307-57-927">
      <stop
         id="stop3881"
         style="stop-color:#ffffff;stop-opacity:1"
         offset="0" />
      <stop
         id="stop3883"
         style="stop-color:#b4b4b4;stop-opacity:1"
         offset="1" />
    </linearGradient>
    <linearGradient
       id="linearGradient2490-322-551-880-5-882">
      <stop
         id="stop3887"
         style="stop-color:#8c8c8c;stop-opacity:1"
         offset="0" />
      <stop
         id="stop3889"
         style="stop-color:#b4b4b4;stop-opacity:1"
         offset="1" />
    </linearGradient>
    <radialGradient
       cx="20.572538"
       cy="-35.521912"
       r="20.397499"
       fx="20.572538"
       fy="-35.521912"
       id="radialGradient3799"
       xlink:href="#linearGradient3242-141-111-307-57-927"
       gradientUnits="userSpaceOnUse"
       gradientTransform="matrix(0,0.49633911,0.63877963,0,31.860165,-8.0955713)" />
    <linearGradient
       x1="128.7184"
       y1="46.304459"
       x2="128.7184"
       y2="-5.810328"
       id="linearGradient3801"
       xlink:href="#linearGradient2490-322-551-880-5-882"
       gradientUnits="userSpaceOnUse"
       gradientTransform="matrix(-0.20276498,0,0,0.20796414,39.275256,3.3237245)" />
    <linearGradient
       x1="139.23001"
       y1="-1.7069025"
       x2="139.23001"
       y2="41.870323"
       id="linearGradient2901"
       xlink:href="#linearGradient4873-275-174-730-0"
       gradientUnits="userSpaceOnUse"
       gradientTransform="matrix(-0.20276498,0,0,0.20796414,39.275256,3.3237245)" />
    <linearGradient
       id="linearGradient3242-7-9">
      <stop
         id="stop3244-5-2"
         style="stop-color:#eef87e;stop-opacity:1"
         offset="0" />
      <stop
         id="stop3246-9-2"
         style="stop-color:#cde34f;stop-opacity:1"
         offset="0.26238" />
      <stop
         id="stop3248-7-3"
         style="stop-color:#93b723;stop-opacity:1"
         offset="0.66093999" />
      <stop
         id="stop3250-8-1"
         style="stop-color:#5a7e0d;stop-opacity:1"
         offset="1" />
    </linearGradient>
    <linearGradient
       id="linearGradient2490-3-8">
      <stop
         id="stop2492-3-3"
         style="stop-color:#365f0e;stop-opacity:1"
         offset="0" />
      <stop
         id="stop2494-8-4"
         style="stop-color:#84a718;stop-opacity:1"
         offset="1" />
    </linearGradient>
    <linearGradient
       x1="24.138529"
       y1="7.0478544"
       x2="24.138529"
       y2="39.268391"
       id="linearGradient5530"
       xlink:href="#linearGradient3943-2"
       gradientUnits="userSpaceOnUse"
       gradientTransform="matrix(0.20131127,0,0,0.1999165,7.4133025,7.3088517)" />
    <linearGradient
       id="linearGradient3943-2">
      <stop
         id="stop3945-2"
         style="stop-color:#ffffff;stop-opacity:1"
         offset="0" />
      <stop
         id="stop3947-4"
         style="stop-color:#ffffff;stop-opacity:0"
         offset="1" />
    </linearGradient>
    <radialGradient
       cx="69.447609"
       cy="51.694645"
       r="31.000002"
       fx="69.447609"
       fy="51.694645"
       id="radialGradient3893"
       xlink:href="#linearGradient3242-7-9"
       gradientUnits="userSpaceOnUse"
       gradientTransform="matrix(0,0.25030935,-0.27259303,0,25.244726,-8.076711)" />
    <linearGradient
       x1="72.421684"
       y1="124.75623"
       x2="72.421684"
       y2="51.244411"
       id="linearGradient3895"
       xlink:href="#linearGradient2490-3-8"
       gradientUnits="userSpaceOnUse"
       gradientTransform="matrix(0.10408428,0,0,0.10482496,2.8405826,2.7754018)" />
    <linearGradient
       x1="24.138529"
       y1="7.0478544"
       x2="24.138529"
       y2="39.268391"
       id="linearGradient3013"
       xlink:href="#linearGradient3943-2"
       gradientUnits="userSpaceOnUse"
       gradientTransform="matrix(0.20131127,0,0,0.1999165,7.4133025,7.3088517)" />
    <radialGradient
       cx="69.447609"
       cy="51.694645"
       r="31.000002"
       fx="69.447609"
       fy="51.694645"
       id="radialGradient3016"
       xlink:href="#linearGradient3242-7-9"
       gradientUnits="userSpaceOnUse"
       gradientTransform="matrix(0,0.25030935,-0.27259303,0,25.244726,-8.076711)" />
    <linearGradient
       x1="72.421684"
       y1="124.75623"
       x2="72.421684"
       y2="51.244411"
       id="linearGradient3018"
       xlink:href="#linearGradient2490-3-8"
       gradientUnits="userSpaceOnUse"
       gradientTransform="matrix(0.10408428,0,0,0.10482496,2.8405826,2.7754018)" />
    <linearGradient
       x1="0.63340867"
       y1="3.0903029"
       x2="79.104187"
       y2="170.28906"
       id="linearGradient3205"
       xlink:href="#linearGradient3997-1"
       gradientUnits="userSpaceOnUse"
       gradientTransform="matrix(0.13481389,0,3.002247e-8,0.11703343,4.4013823,0.27736601)" />
    <linearGradient
       id="linearGradient3997-1">
      <stop
         id="stop3999-3"
         style="stop-color:#f3f7fa;stop-opacity:1"
         offset="0" />
      <stop
         id="stop4001-1"
         style="stop-color:#fdfeff;stop-opacity:1"
         offset="1" />
    </linearGradient>
    <linearGradient
       x1="20.252666"
       y1="40.522579"
       x2="5.5249739"
       y2="11.734877"
       id="linearGradient3207"
       xlink:href="#linearGradient4157-401-0"
       gradientUnits="userSpaceOnUse"
       gradientTransform="matrix(0.3333929,0,0,0.3359124,2.9801845,-1.4923359)" />
    <linearGradient
       id="linearGradient4157-401-0">
      <stop
         id="stop3688-3"
         style="stop-color:#262626;stop-opacity:1"
         offset="0" />
      <stop
         id="stop3690-4"
         style="stop-color:#828282;stop-opacity:1"
         offset="1" />
    </linearGradient>
    <radialGradient
       cx="34.828457"
       cy="65.617027"
       r="42.271381"
       fx="34.828457"
       fy="65.617027"
       id="radialGradient3209"
       xlink:href="#linearGradient4342-3"
       gradientUnits="userSpaceOnUse"
       gradientTransform="matrix(0.1481826,0.01025688,-0.00894678,0.1326541,2.7080247,-1.8757458)" />
    <linearGradient
       id="linearGradient4342-3">
      <stop
         id="stop4344-9"
         style="stop-color:#6e8d5d;stop-opacity:1"
         offset="0" />
      <stop
         id="stop4350-1"
         style="stop-color:#a2ac34;stop-opacity:0.49803922"
         offset="0.5" />
      <stop
         id="stop4352-9"
         style="stop-color:#cbbd40;stop-opacity:0.24705882"
         offset="0.75" />
      <stop
         id="stop4354-6"
         style="stop-color:#dbc146;stop-opacity:0.12156863"
         offset="0.875" />
      <stop
         id="stop4346-9"
         style="stop-color:#ff480f;stop-opacity:0.13265306"
         offset="1" />
    </linearGradient>
    <linearGradient
       x1="0.63340867"
       y1="3.0903029"
       x2="79.104187"
       y2="170.28906"
       id="linearGradient3107"
       xlink:href="#linearGradient3997"
       gradientUnits="userSpaceOnUse"
       gradientTransform="matrix(0.13481389,0,3.002247e-8,0.11703343,4.4013823,0.27736638)" />
    <linearGradient
       id="linearGradient3997">
      <stop
         id="stop3999"
         style="stop-color:#f3f7fa;stop-opacity:1"
         offset="0" />
      <stop
         id="stop4001"
         style="stop-color:#fdfeff;stop-opacity:1"
         offset="1" />
    </linearGradient>
    <linearGradient
       x1="20.252666"
       y1="40.522579"
       x2="5.5249739"
       y2="11.734877"
       id="linearGradient3109"
       xlink:href="#linearGradient4157-401"
       gradientUnits="userSpaceOnUse"
       gradientTransform="matrix(0.3333929,0,0,0.3359124,2.9801845,-1.4923359)" />
    <linearGradient
       id="linearGradient4157-401">
      <stop
         id="stop3688"
         style="stop-color:#262626;stop-opacity:1"
         offset="0" />
      <stop
         id="stop3690"
         style="stop-color:#828282;stop-opacity:1"
         offset="1" />
    </linearGradient>
    <radialGradient
       cx="34.828457"
       cy="65.617027"
       r="42.271381"
       fx="34.828457"
       fy="65.617027"
       id="radialGradient3111"
       xlink:href="#linearGradient4342"
       gradientUnits="userSpaceOnUse"
       gradientTransform="matrix(0.1481826,0.01025688,-0.00894678,0.1326541,2.7080247,-1.8757458)" />
    <linearGradient
       id="linearGradient4342">
      <stop
         id="stop4344"
         style="stop-color:#6e8d5d;stop-opacity:1"
         offset="0" />
      <stop
         id="stop4350"
         style="stop-color:#a2ac34;stop-opacity:0.49803922"
         offset="0.5" />
      <stop
         id="stop4352"
         style="stop-color:#cbbd40;stop-opacity:0.24705882"
         offset="0.75" />
      <stop
         id="stop4354"
         style="stop-color:#dbc146;stop-opacity:0.12156863"
         offset="0.875" />
      <stop
         id="stop4346"
         style="stop-color:#ff480f;stop-opacity:0.13265306"
         offset="1" />
    </linearGradient>
    <linearGradient
       x1="28.938274"
       y1="17.33289"
       x2="105.36545"
       y2="92.823723"
       id="linearGradient2521"
       xlink:href="#linearGradient4157-401-351"
       gradientUnits="userSpaceOnUse"
       gradientTransform="matrix(0.2391271,0,0,0.1901676,-28.247959,-22.920364)" />
    <linearGradient
       id="linearGradient4157-401-351">
      <stop
         id="stop3790"
         style="stop-color:#262626;stop-opacity:1"
         offset="0" />
      <stop
         id="stop3792"
         style="stop-color:#828282;stop-opacity:1"
         offset="1" />
    </linearGradient>
    <linearGradient
       x1="-24.032034"
       y1="-13.090545"
       x2="-24.097931"
       y2="-40.163883"
       id="linearGradient2523"
       xlink:href="#linearGradient3610-302"
       gradientUnits="userSpaceOnUse"
       gradientTransform="matrix(0.5428573,0,0,0.5555556,1.0357211,3.004001)" />
    <linearGradient
       id="linearGradient3610-302">
      <stop
         id="stop3796"
         style="stop-color:#333333;stop-opacity:1"
         offset="0" />
      <stop
         id="stop3798"
         style="stop-color:#292929;stop-opacity:1"
         offset="1" />
    </linearGradient>
    <linearGradient
       x1="108.26451"
       y1="110.28094"
       x2="25.817675"
       y2="14.029031"
       id="linearGradient2526"
       xlink:href="#linearGradient259-942"
       gradientUnits="userSpaceOnUse"
       gradientTransform="matrix(0.2589474,0,0,0.1853811,-29.552425,-23.919907)" />
    <linearGradient
       id="linearGradient259-942">
      <stop
         id="stop3802"
         style="stop-color:#ffffff;stop-opacity:1"
         offset="0" />
      <stop
         id="stop3804"
         style="stop-color:#e0e0e0;stop-opacity:1"
         offset="1" />
    </linearGradient>
    <linearGradient
       x1="302.85715"
       y1="366.64789"
       x2="302.85715"
       y2="609.50507"
       id="linearGradient2514"
       xlink:href="#linearGradient5048"
       gradientUnits="userSpaceOnUse"
       gradientTransform="matrix(0.03345303,0,0,0.01508077,-25.772132,20.02493)" />
    <linearGradient
       id="linearGradient5048">
      <stop
         id="stop5050"
         style="stop-color:#000000;stop-opacity:0"
         offset="0" />
      <stop
         id="stop5056"
         style="stop-color:#000000;stop-opacity:1"
         offset="0.5" />
      <stop
         id="stop5052"
         style="stop-color:#000000;stop-opacity:0"
         offset="1" />
    </linearGradient>
    <radialGradient
       cx="605.71429"
       cy="486.64789"
       r="117.14286"
       fx="605.71429"
       fy="486.64789"
       id="radialGradient2516"
       xlink:href="#linearGradient5060"
       gradientUnits="userSpaceOnUse"
       gradientTransform="matrix(0.03142725,0,0,0.01508077,-24.517756,20.02493)" />
    <linearGradient
       id="linearGradient5060">
      <stop
         id="stop5062"
         style="stop-color:#000000;stop-opacity:1"
         offset="0" />
      <stop
         id="stop5064"
         style="stop-color:#000000;stop-opacity:0"
         offset="1" />
    </linearGradient>
    <radialGradient
       cx="605.71429"
       cy="486.64789"
       r="117.14286"
       fx="605.71429"
       fy="486.64789"
       id="radialGradient2518"
       xlink:href="#linearGradient5060"
       gradientUnits="userSpaceOnUse"
       gradientTransform="matrix(-0.03142725,0,0,0.01508077,-2.812712,20.02493)" />
    <linearGradient
       id="linearGradient4873">
      <stop
         id="stop4875"
         style="stop-color:#ffffff;stop-opacity:1"
         offset="0" />
      <stop
         id="stop4877"
         style="stop-color:#ffffff;stop-opacity:0"
         offset="1" />
    </linearGradient>
    <linearGradient
       x1="63.397362"
       y1="-12.489107"
       x2="63.397362"
       y2="5.4675598"
       id="linearGradient2464"
       xlink:href="#linearGradient4873"
       gradientUnits="userSpaceOnUse"
       gradientTransform="matrix(0.7432394,0,0,0.7432224,-38.229789,10.609333)" />
    <linearGradient
       id="linearGradient3707-319-631">
      <stop
         id="stop4637"
         style="stop-color:#254b6d;stop-opacity:1"
         offset="0" />
      <stop
         id="stop4639"
         style="stop-color:#415b73;stop-opacity:1"
         offset="0.5" />
      <stop
         id="stop4641"
         style="stop-color:#6195b5;stop-opacity:1"
         offset="1" />
    </linearGradient>
    <linearGradient
       x1="20"
       y1="43"
       x2="20"
       y2="2.6887112"
       id="linearGradient2483"
       xlink:href="#linearGradient3707-319-631"
       gradientUnits="userSpaceOnUse"
       gradientTransform="matrix(0.3769285,0,0,0.3769199,-1.196178,-0.8960149)" />
    <linearGradient
       id="linearGradient2867-449-88-871-390-598-476-591-434-148">
      <stop
         id="stop4627"
         style="stop-color:#51cfee;stop-opacity:1"
         offset="0" />
      <stop
         id="stop4629"
         style="stop-color:#49a3d2;stop-opacity:1"
         offset="0.26238" />
      <stop
         id="stop4631"
         style="stop-color:#3470b4;stop-opacity:1"
         offset="0.704952" />
      <stop
         id="stop4633"
         style="stop-color:#273567;stop-opacity:1"
         offset="1" />
    </linearGradient>
    <radialGradient
       cx="61.240059"
       cy="-8.7256308"
       r="9.7552834"
       fx="61.240059"
       fy="-8.7256308"
       id="radialGradient2481"
       xlink:href="#linearGradient2867-449-88-871-390-598-476-591-434-148"
       gradientUnits="userSpaceOnUse"
       gradientTransform="matrix(0,1.3551574,-1.3551567,0,-3.824604,-80.384092)" />
    <linearGradient
       id="linearGradient4457">
      <stop
         id="stop4459"
         style="stop-color:#ffffff;stop-opacity:1"
         offset="0" />
      <stop
         id="stop4461"
         style="stop-color:#ffffff;stop-opacity:0"
         offset="1" />
    </linearGradient>
    <linearGradient
       x1="6.375"
       y1="1043.0184"
       x2="7.53125"
       y2="1046.9559"
       id="linearGradient4463"
       xlink:href="#linearGradient4457"
       gradientUnits="userSpaceOnUse" />
    <linearGradient
       id="linearGradient4352">
      <stop
         id="stop4354-3"
         style="stop-color:#425e7b;stop-opacity:1"
         offset="0" />
      <stop
         id="stop4356"
         style="stop-color:#7a91a7;stop-opacity:1"
         offset="1" />
    </linearGradient>
    <linearGradient
       x1="10.25"
       y1="1051.3309"
       x2="4.09375"
       y2="1040.4247"
       id="linearGradient4358"
       xlink:href="#linearGradient4352"
       gradientUnits="userSpaceOnUse" />
    <linearGradient
       id="linearGradient4344">
      <stop
         id="stop4346-3"
         style="stop-color:#9cbbd9;stop-opacity:1"
         offset="0" />
      <stop
         id="stop4348"
         style="stop-color:#5c82ab;stop-opacity:1"
         offset="1" />
    </linearGradient>
    <linearGradient
       x1="6.0625"
       y1="1040.9247"
       x2="8.8125"
       y2="1050.9559"
       id="linearGradient4350"
       xlink:href="#linearGradient4344"
       gradientUnits="userSpaceOnUse" />
    <radialGradient
       cx="605.71429"
       cy="486.64789"
       r="117.14286"
       fx="605.71429"
       fy="486.64789"
       id="radialGradient2574"
       xlink:href="#linearGradient5060-9"
       gradientUnits="userSpaceOnUse"
       gradientTransform="matrix(-2.774389,0,0,1.969706,112.7623,-872.8854)" />
    <linearGradient
       id="linearGradient5060-9">
      <stop
         id="stop5062-2"
         style="stop-color:#000000;stop-opacity:1"
         offset="0" />
      <stop
         id="stop5064-4"
         style="stop-color:#000000;stop-opacity:0"
         offset="1" />
    </linearGradient>
    <radialGradient
       cx="605.71429"
       cy="486.64789"
       r="117.14286"
       fx="605.71429"
       fy="486.64789"
       id="radialGradient2572"
       xlink:href="#linearGradient5060-9"
       gradientUnits="userSpaceOnUse"
       gradientTransform="matrix(2.774389,0,0,1.969706,-1891.633,-872.8854)" />
    <linearGradient
       id="linearGradient5048-8">
      <stop
         id="stop5050-2"
         style="stop-color:#000000;stop-opacity:0"
         offset="0" />
      <stop
         id="stop5056-8"
         style="stop-color:#000000;stop-opacity:1"
         offset="0.5" />
      <stop
         id="stop5052-8"
         style="stop-color:#000000;stop-opacity:0"
         offset="1" />
    </linearGradient>
    <linearGradient
       x1="302.85715"
       y1="366.64789"
       x2="302.85715"
       y2="609.50507"
       id="linearGradient2570"
       xlink:href="#linearGradient5048-8"
       gradientUnits="userSpaceOnUse"
       gradientTransform="matrix(2.774389,0,0,1.969706,-1892.179,-872.8854)" />
    <linearGradient
       id="linearGradient4845">
      <stop
         id="stop4847"
         style="stop-color:#ffffff;stop-opacity:1"
         offset="0" />
      <stop
         id="stop4849"
         style="stop-color:#b6b6b6;stop-opacity:1"
         offset="1" />
    </linearGradient>
    <linearGradient
       x1="126.69791"
       y1="58.583481"
       x2="169.22964"
       y2="238.3999"
       id="linearGradient4749"
       xlink:href="#linearGradient10889"
       gradientUnits="userSpaceOnUse"
       gradientTransform="matrix(0.05489342,0.01385132,0.00257263,0.05248166,-11.212261,-26.738461)" />
    <linearGradient
       id="linearGradient10889">
      <stop
         id="stop10891"
         style="stop-color:#b0cbdd;stop-opacity:1"
         offset="0" />
      <stop
         id="stop10893"
         style="stop-color:#4d89b6;stop-opacity:1"
         offset="1" />
    </linearGradient>
    <linearGradient
       x1="3.5136399"
       y1="4"
       x2="3.5136399"
       y2="15.035971"
       id="linearGradient4751"
       xlink:href="#linearGradient10897"
       gradientUnits="userSpaceOnUse"
       gradientTransform="matrix(1.0083043,0,0,1.0006232,-10.500284,-26.477671)" />
    <linearGradient
       id="linearGradient10897">
      <stop
         id="stop10899"
         style="stop-color:#7aa8c6;stop-opacity:1"
         offset="0" />
      <stop
         id="stop10901"
         style="stop-color:#40759c;stop-opacity:1"
         offset="1" />
    </linearGradient>
    <linearGradient
       x1="302.85715"
       y1="366.64789"
       x2="302.85715"
       y2="609.50507"
       id="linearGradient3709"
       xlink:href="#linearGradient5048-6"
       gradientUnits="userSpaceOnUse"
       gradientTransform="matrix(2.774389,0,0,1.969706,-1892.179,-872.8854)" />
    <linearGradient
       id="linearGradient5048-6">
      <stop
         id="stop5050-8"
         style="stop-color:#000000;stop-opacity:0"
         offset="0" />
      <stop
         id="stop5056-6"
         style="stop-color:#000000;stop-opacity:1"
         offset="0.5" />
      <stop
         id="stop5052-87"
         style="stop-color:#000000;stop-opacity:0"
         offset="1" />
    </linearGradient>
    <radialGradient
       cx="605.71429"
       cy="486.64789"
       r="117.14286"
       fx="605.71429"
       fy="486.64789"
       id="radialGradient3711"
       xlink:href="#linearGradient5060-95"
       gradientUnits="userSpaceOnUse"
       gradientTransform="matrix(2.774389,0,0,1.969706,-1891.633,-872.8854)" />
    <linearGradient
       id="linearGradient5060-95">
      <stop
         id="stop5062-9"
         style="stop-color:#000000;stop-opacity:1"
         offset="0" />
      <stop
         id="stop5064-2"
         style="stop-color:#000000;stop-opacity:0"
         offset="1" />
    </linearGradient>
    <radialGradient
       cx="605.71429"
       cy="486.64789"
       r="117.14286"
       fx="605.71429"
       fy="486.64789"
       id="radialGradient3713"
       xlink:href="#linearGradient5060-95"
       gradientUnits="userSpaceOnUse"
       gradientTransform="matrix(-2.774389,0,0,1.969706,112.7623,-872.8854)" />
    <radialGradient
       cx="61.240059"
       cy="-8.7256308"
       r="9.7552834"
       fx="61.240059"
       fy="-8.7256308"
       id="radialGradient3382"
       xlink:href="#linearGradient2867-449-88-871-390-598-476-591-434-148"
       gradientUnits="userSpaceOnUse"
       gradientTransform="matrix(0,1.3551574,-1.3551567,0,-3.824604,-80.384092)" />
    <linearGradient
       x1="20"
       y1="43"
       x2="20"
       y2="2.6887112"
       id="linearGradient3384"
       xlink:href="#linearGradient3707-319-631"
       gradientUnits="userSpaceOnUse"
       gradientTransform="matrix(0.3769285,0,0,0.3769199,-1.196178,-0.8960149)" />
    <linearGradient
       x1="63.397362"
       y1="-12.489107"
       x2="63.397362"
       y2="5.4675598"
       id="linearGradient3386"
       xlink:href="#linearGradient4873"
       gradientUnits="userSpaceOnUse"
       gradientTransform="matrix(0.7432394,0,0,0.7432224,-38.229789,10.609333)" />
    <linearGradient
       x1="24.138529"
       y1="7.0478544"
       x2="24.138529"
       y2="39.268391"
       id="linearGradient3408"
       xlink:href="#linearGradient3943-2"
       gradientUnits="userSpaceOnUse"
       gradientTransform="matrix(0.20131127,0,0,0.1999165,7.4133025,7.3088517)" />
    <radialGradient
       cx="69.447609"
       cy="51.694645"
       r="31.000002"
       fx="69.447609"
       fy="51.694645"
       id="radialGradient3411"
       xlink:href="#linearGradient3242-7-9"
       gradientUnits="userSpaceOnUse"
       gradientTransform="matrix(0,0.25030935,-0.27259303,0,25.244726,-8.076711)" />
    <linearGradient
       x1="72.421684"
       y1="124.75623"
       x2="72.421684"
       y2="51.244411"
       id="linearGradient3413"
       xlink:href="#linearGradient2490-3-8"
       gradientUnits="userSpaceOnUse"
       gradientTransform="matrix(0.10408428,0,0,0.10482496,2.8405826,2.7754018)" />
  </defs>
  <g
     id="layer1-3">
    <path
       d="M 15.5,7.999735 C 15.5,12.142003 12.141888,15.5 8.000094,15.5 3.857922,15.5 0.5,12.141965 0.5,7.999735 0.5,3.8576552 3.857922,0.4999997 8.000094,0.4999997 12.141888,0.4999997 15.5,3.8576552 15.5,7.999735 l 0,0 z"
       inkscape:connector-curvature="0"
       id="path6495"
       style="fill:url(#radialGradient3382);fill-opacity:1;fill-rule:nonzero;stroke:url(#linearGradient3384);stroke-width:0.99999994;stroke-miterlimit:4;stroke-dasharray:none" />
    <path
       d="M 8.1022062,0.95621712 7.236144,1.0568701 6.2834735,1.3210847 C 6.3646244,1.2921995 6.446834,1.2606694 6.5309208,1.2330132 L 6.4195696,1.0317069 6.048401,1.0946151 5.8628152,1.2707582 5.5782512,1.3085031 5.318433,1.4343196 5.1947098,1.4972277 5.157592,1.5475543 4.9720082,1.5852992 4.8606579,1.8243504 4.712189,1.522391 4.662699,1.6482076 4.687446,1.9879118 4.4523726,2.1892181 4.3162764,2.5540857 l 0.2845641,0 0.1113503,-0.2390512 0.037118,-0.088071 C 4.8744282,2.136984 4.9930427,2.0367771 5.1204782,1.9501669 L 5.4174142,2.05082 C 5.6107409,2.1843878 5.8054259,2.3200676 5.9989133,2.4534326 L 6.2834735,2.1892181 5.9617936,2.05082 5.8133266,1.7488605 5.2689442,1.6859524 5.2565714,1.6230443 5.4916438,1.6733709 5.6277409,1.5349726 5.9246759,1.4720643 C 5.9949454,1.4373108 6.06407,1.4122795 6.1350055,1.3839929 l -0.1855848,0.1761431 0.6681055,0.4655208 0,0.2767962 L 6.357707,2.5666673 6.7041325,3.2712399 6.9392071,3.1328408 7.2361431,2.6673207 C 7.6536127,2.5360677 8.0298636,2.383337 8.423888,2.2017997 L 8.3991411,2.3779426 8.5970969,2.5163408 8.9435226,2.2772895 8.7703107,2.0759833 8.5352353,2.2143814 8.4610018,2.1892185 c 0.017052,-0.00792 0.032364,-0.017109 0.04949,-0.025163 L 8.8569181,1.2581766 8.1022062,0.95621712 z M 4.712189,2.3150345 l 0.2845631,0.2013063 0.2350744,0 0,-0.2390513 -0.2845631,-0.1258162 -0.2350744,0.1635612 0,0 z m 6.569706,-0.1635612 -0.507267,0.1258162 -0.321677,0.2138881 0,0.1887243 -0.5072681,0.3271224 0.098978,0.4906852 0.296936,-0.2138887 0.185586,0.2138887 0.210331,0.1258164 0.136094,-0.3648684 -0.07423,-0.2138876 0.07423,-0.1509803 0.296936,-0.2767955 0.136096,0 -0.136096,0.3019602 0,0.2767953 c 0.122388,-0.033878 0.245923,-0.047072 0.371169,-0.062909 l -0.346425,0.2516338 -0.02474,0.1509791 -0.395915,0.3397051 -0.408287,-0.1006539 0,-0.2390512 -0.185585,0.1258166 0.08661,0.2138885 -0.2969405,0 -0.1608399,0.276796 -0.1979568,0.2264696 -0.3587976,0.075489 0.2103296,0.213888 0.049489,0.2138881 -0.2598183,0 -0.3464256,0.1887243 0,0.5535916 0.160839,0 0.14847,0.1635617 0.334054,-0.1635617 0.1237223,-0.3397046 0.2474463,-0.1509795 0.04949,-0.1258161 0.3959165,-0.1006531 0.222701,0.2516328 0.235075,0.1258159 -0.136096,0.2767966 0.21033,-0.062908 0.11135,-0.2767966 -0.272189,-0.3145408 0.11135,0 0.272192,0.2264692 0.04949,0.3019603 0.235072,0.276796 0.06186,-0.4026124 0.123723,-0.062909 c 0.131695,0.1390299 0.235504,0.3090531 0.346424,0.4655215 l 0.408287,0.025165 0.235074,0.1509801 -0.11135,0.1635607 -0.235073,0.2138886 -0.346429,0 L 11.430361,6.1146942 11.195287,6.1398593 11.022074,6.3411657 10.527181,5.8378996 10.180756,5.7372462 9.6734907,5.8001547 9.2280866,5.9259711 C 8.974001,6.2188978 8.7138634,6.5150518 8.4733747,6.8192683 L 8.1888107,7.5238405 8.3249076,7.6748196 8.0774604,8.0396877 8.3496515,8.6813514 C 8.5761437,8.9418962 8.8039678,9.2006825 9.030129,9.461412 l 0.3340537,-0.2893772 0.1360951,0.1761447 0.3587986,-0.2390518 0.1237209,0.1383971 0.3587977,0 0.210332,0.2390509 -0.123724,0.4277763 0.247446,0.289379 -0.01237,0.503264 0.185586,0.364869 -0.136095,0.314541 c -0.01327,0.225592 -0.02475,0.4412 -0.02475,0.666826 0.10916,0.305671 0.218601,0.610592 0.32168,0.918462 l 0.07423,0.490682 0,0.251634 0.197957,0 0.284562,-0.188726 0.346427,0 0.519637,-0.591336 -0.06186,-0.201308 0.346427,-0.314538 -0.259821,-0.289379 0.309308,-0.251633 0.296936,-0.188725 0.136096,-0.15098 -0.08661,-0.339704 c 0,-0.285996 10e-7,-0.569519 0,-0.855553 L 13.348063,9.8136993 13.645,9.4865757 l 0.321679,-0.8052243 0,-0.2138884 C 13.806601,8.487969 13.653165,8.506459 13.496531,8.51779 l 0.321681,-0.3271227 0.445403,-0.30196 0.235075,-0.2767953 0,-0.3019591 C 14.445379,7.2077028 14.391536,7.0976601 14.337854,6.9954116 l -0.210329,0.2516315 -0.16084,-0.1887234 -0.235076,-0.1887233 0,-0.3900316 0.272193,0.3145399 0.309309,-0.037745 c 0.139537,0.1288198 0.273525,0.2433636 0.395913,0.3900326 l 0.197962,-0.2264767 c 0,-0.2438137 -0.270036,-1.4474482 -0.85369,-2.466002 C 13.46964,3.4356954 12.444894,2.5037591 12.444895,2.5037591 l -0.07423,0.1383981 -0.272192,0.3019595 -0.346426,-0.3648677 0.346426,0 L 12.259308,2.4031061 11.615949,2.2772895 11.281895,2.1514733 z M 3.8461259,2.3150345 3.7224027,2.6421572 c 0,0 -0.2166086,0.036366 -0.2721911,0.050327 C 2.7403769,3.3576613 1.3089548,4.8004591 0.97574709,7.5112538 0.98894063,7.5741032 1.2108206,7.9390292 1.2108206,7.9390292 l 0.5443833,0.3271217 0.5443813,0.1509801 0.2350744,0.2893781 0.3587977,0.2767963 0.2103295,-0.037745 0.148469,0.07549 0,0.050326 -0.1979586,0.5661735 -0.1608399,0.2390518 0.049489,0.113235 -0.1237222,0.4529393 0.4577758,0.855551 0.470148,0.415195 0.2103284,0.30196 -0.024746,0.629081 0.1484679,0.352287 -0.1484679,0.67941 c 0,0 -0.019811,-0.0056 0,0.06291 0.019988,0.06853 0.8270507,0.529522 0.8784351,0.490683 0.051209,-0.03956 0.098979,-0.07549 0.098979,-0.07549 l -0.049489,-0.150981 0.2103287,-0.201305 0.074234,-0.213887 0.3340518,-0.113235 0.2598192,-0.654247 -0.074233,-0.176143 0.1732127,-0.276796 0.3959144,-0.08807 0.1979577,-0.478102 -0.049491,-0.591338 0.3093088,-0.440357 0.049489,-0.452939 C 6.3168632,10.102948 5.9004921,9.8830534 5.4792709,9.6627135 L 5.2689423,9.2475198 4.8853999,9.1594491 4.6750703,8.5932746 4.1678047,8.6561827 3.7224017,8.32906 3.2522529,8.7442535 l 0,0.062909 C 3.1114329,8.7658292 2.9446126,8.7597462 2.8192238,8.6813464 l -0.098978,-0.301959 0,-0.3271237 -0.3216799,0.037745 c 0.025887,-0.2083697 0.06054,-0.4207485 0.086605,-0.6290818 l -0.1855858,0 -0.1855847,0.2390518 -0.1732118,0.088072 -0.2598193,-0.1509809 -0.024745,-0.3271236 0.04949,-0.352285 0.3835414,-0.3019601 0.3093088,0 L 2.4604275,6.4795588 2.843969,6.5676298 3.1285316,6.932497 3.1780203,6.3285781 3.672914,5.9133853 3.8461259,5.4730269 4.2172963,5.3220476 4.415253,5.0200879 4.8854018,4.9320161 5.1204763,4.57973 c -0.2326763,0 -0.472546,0 -0.7052233,0 l 0.4454049,-0.2138879 0.309307,0 L 5.5658793,4.2274443 5.6401139,4.6174752 5.8133266,4.3406788 5.615369,4.2022808 5.6648596,4.0387201 5.5040187,3.8877395 5.3308048,3.8374132 5.3802955,3.6486888 5.2441994,3.3844746 4.9348905,3.5102908 4.9843801,3.2712399 4.6255827,3.0573516 4.3410204,3.5606172 4.3657663,3.7367603 4.0812032,3.8625768 3.9079904,4.2526078 3.821384,3.8877395 3.3388631,3.6864335 3.2522568,3.4096375 3.9079904,3.0321885 4.1925535,2.755392 4.2173002,2.4282694 4.0564593,2.3401977 3.8461298,2.315035 l -3.9e-6,-5e-7 z m 5.3077282,0.6039198 0,0.2013049 0.1113521,0.1258168 0,0.3019596 L 9.2033438,3.9506479 9.5250246,3.8877395 9.760098,3.6486888 9.5497694,3.4473819 C 9.4815603,3.2626763 9.4124355,3.0961113 9.3270669,2.9189543 l -0.1732128,0 z M 8.881662,3.3215656 8.6837063,3.3844746 8.7331959,3.7493421 8.9930152,3.6109428 8.881662,3.3215656 l 0,0 z m 3.625092,3.308973 0.296937,0.3522842 0.358798,0.7800638 0.2227,0.2516317 -0.11135,0.2642164 0.197958,0.2390499 c -0.09084,0.00611 -0.17882,0.012584 -0.272192,0.012584 -0.169621,-0.362459 -0.303864,-0.7279946 -0.43303,-1.1071857 l -0.222704,-0.2516326 -0.123722,-0.4529392 0.08661,-0.088071 0,-1.3e-6 z"
       inkscape:connector-curvature="0"
       id="path6534"
       style="opacity:0.4;fill:#000000;fill-opacity:1;fill-rule:nonzero;stroke:none" />
    <path
       d="M 14.500001,7.9997709 C 14.500001,11.589737 11.589636,14.5 8.0000818,14.5 4.4101984,14.5 1.5000001,11.589705 1.5000001,7.9997709 c 0,-3.5898006 2.9101983,-6.4997695 6.5000817,-6.4997695 3.5895542,0 6.4999192,2.9099689 6.4999192,6.4997695 l 0,0 z"
       inkscape:connector-curvature="0"
       id="path2451"
       style="opacity:0.4;fill:none;stroke:url(#linearGradient3386);stroke-width:1;stroke-miterlimit:4;stroke-opacity:1;stroke-dasharray:none" />
  </g>
  <path
     d="m 10.5,10.5 0,-2.0072863 3,0 0,2.0072863 2.007286,0 0,3 -2.007286,0 0,2.007286 -3,0 0,-2.007286 -2.0072863,0 0,-3 2.0072863,0 z"
     inkscape:connector-curvature="0"
     id="path2262"
     style="color:#000000;fill:url(#radialGradient3411);fill-opacity:1;fill-rule:nonzero;stroke:url(#linearGradient3413);stroke-width:0.98542738;stroke-linecap:round;stroke-linejoin:round;stroke-miterlimit:4;stroke-opacity:1;stroke-dasharray:none;stroke-dashoffset:0;marker:none;visibility:visible;display:inline;overflow:visible;enable-background:accumulate" />
  <path
     d="m 11.5,11.5 0,-1.9999997 1,0 0,1.9999997 2,0 0,1 -2,0 0,2.292538 -1,0 0,-2.292538 -2,0 0,-1 2,0 z"
     inkscape:connector-curvature="0"
     id="path2272"
     style="opacity:0.4;fill:none;stroke:url(#linearGradient3408);stroke-width:1;stroke-linecap:butt;stroke-linejoin:miter;stroke-miterlimit:4;stroke-opacity:1;stroke-dasharray:none;display:inline" />
</svg>
