<?xml version="1.0" encoding="UTF-8" standalone="no"?>
<!-- Created with Inkscape (http://www.inkscape.org/) -->

<svg
   xmlns:dc="http://purl.org/dc/elements/1.1/"
   xmlns:cc="http://creativecommons.org/ns#"
   xmlns:rdf="http://www.w3.org/1999/02/22-rdf-syntax-ns#"
   xmlns:svg="http://www.w3.org/2000/svg"
   xmlns="http://www.w3.org/2000/svg"
   xmlns:xlink="http://www.w3.org/1999/xlink"
   xmlns:sodipodi="http://sodipodi.sourceforge.net/DTD/sodipodi-0.dtd"
   xmlns:inkscape="http://www.inkscape.org/namespaces/inkscape"
   width="16px"
   height="16px"
   id="svg5400"
   version="1.1"
   inkscape:version="0.48.4 r9939"
   sodipodi:docname="package-available-locked.svg">
  <defs
     id="defs5402">
    <linearGradient
       id="linearGradient3821">
      <stop
         style="stop-color:#ffffff;stop-opacity:1;"
         offset="0"
         id="stop3823" />
      <stop
         style="stop-color:#ffffff;stop-opacity:1;"
         offset="1"
         id="stop3825" />
    </linearGradient>
    <linearGradient
       id="linearGradient3904">
      <stop
         id="stop3906"
         offset="0"
         style="stop-color:#104b88;stop-opacity:1;" />
      <stop
         id="stop3908"
         offset="1"
         style="stop-color:#0e7398;stop-opacity:1;" />
    </linearGradient>
    <linearGradient
       inkscape:collect="always"
       id="linearGradient3886">
      <stop
         style="stop-color:#5097e1;stop-opacity:1;"
         offset="0"
         id="stop3888" />
      <stop
         style="stop-color:#53d0ff;stop-opacity:1"
         offset="1"
         id="stop3890" />
    </linearGradient>
    <linearGradient
       inkscape:collect="always"
       id="linearGradient3804">
      <stop
         style="stop-color:#ffffff;stop-opacity:1;"
         offset="0"
         id="stop3806" />
      <stop
         style="stop-color:#ffffff;stop-opacity:0;"
         offset="1"
         id="stop3808" />
    </linearGradient>
    <linearGradient
       inkscape:collect="always"
       xlink:href="#linearGradient6744"
       id="linearGradient6750"
       x1="443.5"
       y1="-178.50027"
       x2="444"
       y2="-175.50027"
       gradientUnits="userSpaceOnUse"
       gradientTransform="translate(-433,180.00027)" />
    <linearGradient
       inkscape:collect="always"
       id="linearGradient6744">
      <stop
         style="stop-color:#ffffff;stop-opacity:1;"
         offset="0"
         id="stop6746" />
      <stop
         style="stop-color:#ffffff;stop-opacity:0;"
         offset="1"
         id="stop6748" />
    </linearGradient>
    <linearGradient
       inkscape:collect="always"
       xlink:href="#linearGradient6728"
       id="linearGradient6736"
       x1="435"
       y1="-163.5"
       x2="438"
       y2="-163.5"
       gradientUnits="userSpaceOnUse" />
    <linearGradient
       inkscape:collect="always"
       id="linearGradient6728">
      <stop
         style="stop-color:#ffffff;stop-opacity:1;"
         offset="0"
         id="stop6730" />
      <stop
         style="stop-color:#ffffff;stop-opacity:0;"
         offset="1"
         id="stop6732" />
    </linearGradient>
    <linearGradient
       inkscape:collect="always"
       xlink:href="#linearGradient6728"
       id="linearGradient6734"
       x1="435"
       y1="-163.5"
       x2="438"
       y2="-163.5"
       gradientUnits="userSpaceOnUse" />
    <linearGradient
       inkscape:collect="always"
       xlink:href="#linearGradient5621"
       id="linearGradient5956"
       x1="1407.9375"
       y1="63.937489"
       x2="1407.9375"
       y2="47.937496"
       gradientUnits="userSpaceOnUse"
       gradientTransform="translate(-1400.9375,-47.937495)" />
    <linearGradient
       id="linearGradient5621">
      <stop
         style="stop-color:#0b0b0b;stop-opacity:1"
         offset="0"
         id="stop5623" />
      <stop
         style="stop-color:#585858;stop-opacity:1"
         offset="1"
         id="stop5625" />
    </linearGradient>
    <linearGradient
       id="linearGradient8589">
      <stop
         id="stop8591"
         style="stop-color:#fefefe;stop-opacity:1"
         offset="0" />
      <stop
         id="stop8593"
         style="stop-color:#cbcbcb;stop-opacity:1"
         offset="1" />
    </linearGradient>
    <radialGradient
       cx="102"
       cy="112.3047"
       r="139.55859"
       id="XMLID_8_"
       gradientUnits="userSpaceOnUse">
      <stop
         id="stop41"
         style="stop-color:#b7b8b9;stop-opacity:1"
         offset="0" />
      <stop
         id="stop47"
         style="stop-color:#ececec;stop-opacity:1"
         offset="0.18851049" />
      <stop
         id="stop49"
         style="stop-color:#fafafa;stop-opacity:0"
         offset="0.25718147" />
      <stop
         id="stop51"
         style="stop-color:#ffffff;stop-opacity:0"
         offset="0.30111277" />
      <stop
         id="stop53"
         style="stop-color:#fafafa;stop-opacity:0"
         offset="0.53130001" />
      <stop
         id="stop55"
         style="stop-color:#ebecec;stop-opacity:0"
         offset="0.84490001" />
      <stop
         id="stop57"
         style="stop-color:#e1e2e3;stop-opacity:0"
         offset="1" />
    </radialGradient>
    <linearGradient
       inkscape:collect="always"
       xlink:href="#linearGradient6582"
       id="linearGradient6701"
       x1="920"
       y1="-180.00027"
       x2="920"
       y2="-164.00027"
       gradientUnits="userSpaceOnUse" />
    <linearGradient
       inkscape:collect="always"
       id="linearGradient6582">
      <stop
         style="stop-color:#ffffff;stop-opacity:1;"
         offset="0"
         id="stop6584" />
      <stop
         style="stop-color:#ffffff;stop-opacity:0;"
         offset="1"
         id="stop6586" />
    </linearGradient>
    <clipPath
       clipPathUnits="userSpaceOnUse"
       id="clipPath6691">
      <path
         sodipodi:nodetypes="cccccc"
         inkscape:connector-curvature="0"
         id="path6693"
         d="m 914,-179.00027 8,-1e-5 4,3 0,11 -12,0 z"
         style="color:#bebebe;fill:#ffffff;fill-opacity:0.57671958;fill-rule:nonzero;stroke:none;stroke-width:0;marker:none;visibility:visible;display:inline;overflow:visible;enable-background:accumulate" />
    </clipPath>
    <linearGradient
       id="outerBackgroundGradient-4">
      <stop
         style="stop-color:#f0f0f0;stop-opacity:1;"
         offset="0"
         id="stop3864-8-6-6" />
      <stop
         style="stop-color:#f9f9f9;stop-opacity:1;"
         offset="1"
         id="stop3866-9-1-7" />
    </linearGradient>
    <linearGradient
       inkscape:collect="always"
       xlink:href="#outerBackgroundGradient-4"
       id="linearGradient3829"
       gradientUnits="userSpaceOnUse"
       gradientTransform="matrix(0,-0.05555556,0.05714289,0,-3.1428659,15)"
       x1="144"
       y1="280.00003"
       x2="144"
       y2="40.00005" />
    <linearGradient
       inkscape:collect="always"
       xlink:href="#linearGradient3804"
       id="linearGradient3831"
       gradientUnits="userSpaceOnUse"
       x1="5"
       y1="1"
       x2="5"
       y2="14"
       gradientTransform="matrix(0,-1,1,0,-1,13)" />
    <linearGradient
       inkscape:collect="always"
       xlink:href="#linearGradient3886"
       id="linearGradient3892"
       x1="12"
       y1="15"
       x2="12"
       y2="9"
       gradientUnits="userSpaceOnUse"
       gradientTransform="translate(0.5,0.5)" />
    <linearGradient
       inkscape:collect="always"
       xlink:href="#linearGradient3886"
       id="linearGradient4041"
       x1="16"
       y1="16"
       x2="16"
       y2="0"
       gradientUnits="userSpaceOnUse" />
    <linearGradient
       inkscape:collect="always"
       xlink:href="#linearGradient3886"
       id="linearGradient4148"
       gradientUnits="userSpaceOnUse"
       x1="16"
       y1="16"
       x2="16"
       y2="0" />
    <linearGradient
       inkscape:collect="always"
       xlink:href="#linearGradient3904"
       id="linearGradient4156"
       x1="8"
       y1="16"
       x2="8"
       y2="0"
       gradientUnits="userSpaceOnUse" />
    <linearGradient
       inkscape:collect="always"
       xlink:href="#linearGradient3821"
       id="linearGradient4377"
       x1="8"
       y1="16"
       x2="8"
       y2="0"
       gradientUnits="userSpaceOnUse" />
    <linearGradient
       inkscape:collect="always"
       xlink:href="#linearGradient3821"
       id="linearGradient4448"
       x1="8"
       y1="16"
       x2="8"
       y2="0"
       gradientUnits="userSpaceOnUse" />
    <linearGradient
       inkscape:collect="always"
       xlink:href="#linearGradient3821"
       id="linearGradient3819"
       gradientUnits="userSpaceOnUse"
       x1="8"
       y1="16"
       x2="8"
       y2="0" />
    <linearGradient
       inkscape:collect="always"
       xlink:href="#linearGradient3821"
       id="linearGradient3833"
       gradientUnits="userSpaceOnUse"
       x1="8"
       y1="16"
       x2="8"
       y2="0" />
    <linearGradient
       inkscape:collect="always"
       xlink:href="#linearGradient3821"
       id="linearGradient3847"
       gradientUnits="userSpaceOnUse"
       x1="8"
       y1="16"
       x2="8"
       y2="0" />
    <clipPath
       clipPathUnits="userSpaceOnUse"
       id="clipPath3852">
      <path
         style="font-size:medium;font-style:normal;font-variant:normal;font-weight:normal;font-stretch:normal;text-indent:0;text-align:start;text-decoration:none;line-height:normal;letter-spacing:normal;word-spacing:normal;text-transform:none;direction:ltr;block-progression:tb;writing-mode:lr-tb;text-anchor:start;baseline-shift:baseline;color:#000000;fill:#000000;fill-opacity:1;stroke:none;stroke-width:1;marker:none;visibility:visible;display:inline;overflow:visible;enable-background:accumulate;font-family:Sans;-inkscape-font-specification:Sans"
         d="M 3.5,2 C 3.5,2 3.099493,1.9971285 2.71875,2.1875 2.338007,2.3778715 2,2.6666667 2,3.5 l 0,9 c 0,0 -0.00287,0.400507 0.1875,0.78125 C 2.3778715,13.661993 2.6666667,14 3.5,14 l 9,0 c 0,0 0.400507,0.0029 0.78125,-0.1875 C 13.661993,13.622128 14,13.333333 14,12.5 l 0,-9 c 0,0 0.0029,-0.400507 -0.1875,-0.78125 C 13.622128,2.338007 13.333333,2 12.5,2 l -9,0 z"
         id="path3854"
         inkscape:connector-curvature="0" />
    </clipPath>
    <linearGradient
       inkscape:collect="always"
       xlink:href="#linearGradient3848"
       id="linearGradient3915"
       x1="10"
       y1="5"
       x2="10"
       y2="14"
       gradientUnits="userSpaceOnUse"
       gradientTransform="translate(12.015625,9.21875)" />
    <linearGradient
       id="linearGradient3848">
      <stop
         id="stop3850"
         offset="0"
         style="stop-color:#6e660d;stop-opacity:1;" />
      <stop
         id="stop3852"
         offset="1"
         style="stop-color:#75611c;stop-opacity:1;" />
    </linearGradient>
    <linearGradient
       inkscape:collect="always"
       xlink:href="#linearGradient3832"
       id="linearGradient3917"
       gradientUnits="userSpaceOnUse"
       x1="12"
       y1="5"
       x2="12"
       y2="14"
       gradientTransform="translate(1,1)" />
    <linearGradient
       id="linearGradient3832">
      <stop
         style="stop-color:#eedc1b;stop-opacity:1"
         offset="0"
         id="stop3834" />
      <stop
         style="stop-color:#e8c348;stop-opacity:1;"
         offset="1"
         id="stop3836" />
    </linearGradient>
    <linearGradient
       y2="14"
       x2="12"
       y1="5"
       x1="12"
       gradientTransform="translate(12.015625,9.21875)"
       gradientUnits="userSpaceOnUse"
       id="linearGradient3090"
       xlink:href="#linearGradient3832"
       inkscape:collect="always" />
    <linearGradient
       inkscape:collect="always"
       xlink:href="#linearGradient3832"
       id="linearGradient3855"
       x1="12"
       y1="6.5"
       x2="12"
       y2="15.5"
       gradientUnits="userSpaceOnUse" />
    <linearGradient
       inkscape:collect="always"
       xlink:href="#linearGradient3848"
       id="linearGradient3863"
       x1="12"
       y1="16"
       x2="12"
       y2="7"
       gradientUnits="userSpaceOnUse" />
    <linearGradient
       inkscape:collect="always"
       xlink:href="#linearGradient3848"
       id="linearGradient3068"
       gradientUnits="userSpaceOnUse"
       x1="12"
       y1="16"
       x2="12"
       y2="7" />
  </defs>
  <sodipodi:namedview
     id="base"
     pagecolor="#ffffff"
     bordercolor="#666666"
     borderopacity="1.0"
     inkscape:pageopacity="0.0"
     inkscape:pageshadow="2"
     inkscape:zoom="11.313708"
     inkscape:cx="-2.7915126"
     inkscape:cy="3.959087"
     inkscape:current-layer="layer2"
     showgrid="false"
     inkscape:grid-bbox="true"
     inkscape:document-units="px"
     inkscape:window-width="1364"
     inkscape:window-height="700"
     inkscape:window-x="0"
     inkscape:window-y="28"
     inkscape:window-maximized="1"
     inkscape:snap-bbox="true"
     inkscape:bbox-paths="true"
     inkscape:bbox-nodes="true"
     inkscape:snap-bbox-midpoints="true"
     inkscape:snap-bbox-edge-midpoints="true"
     showborder="false">
    <inkscape:grid
       type="xygrid"
       id="grid3025"
       empspacing="4"
       visible="true"
       enabled="true"
       snapvisiblegridlinesonly="true" />
    <inkscape:grid
       type="xygrid"
       id="grid3039"
       empspacing="5"
       visible="true"
       enabled="true"
       snapvisiblegridlinesonly="true"
       spacingx="0.5px"
       spacingy="0.5px"
       dotted="true" />
  </sodipodi:namedview>
  <metadata
     id="metadata5405">
    <rdf:RDF>
      <cc:Work
         rdf:about="">
        <dc:format>image/svg+xml</dc:format>
        <dc:type
           rdf:resource="http://purl.org/dc/dcmitype/StillImage" />
        <dc:title />
      </cc:Work>
    </rdf:RDF>
  </metadata>
  <g
     id="layer1"
     inkscape:label="Background"
     inkscape:groupmode="layer"
     style="opacity:1">
    <path
       style="font-size:medium;font-style:normal;font-variant:normal;font-weight:normal;font-stretch:normal;text-indent:0;text-align:start;text-decoration:none;line-height:normal;letter-spacing:normal;word-spacing:normal;text-transform:none;direction:ltr;block-progression:tb;writing-mode:lr-tb;text-anchor:start;baseline-shift:baseline;color:#000000;fill:url(#linearGradient4448);fill-opacity:1;stroke:none;stroke-width:1;marker:none;visibility:visible;display:inline;overflow:visible;enable-background:accumulate;font-family:Sans;-inkscape-font-specification:Sans"
       d="m 1.5,3.5 0,9 c 0,2 2,2 2,2 l 9,0 c 2,0 2,-2 2,-2 l 0,-9 c 0,-2 -2,-2 -2,-2 l -9,0 c -2,0 -2,2 -2,2 z"
       id="path4436"
       inkscape:connector-curvature="0"
       sodipodi:nodetypes="ccccccccc" />
    <path
       sodipodi:nodetypes="ccccccccc"
       inkscape:connector-curvature="0"
       id="path3832"
       d="m 1.5,12.5 0,-9 c 0,-2 2,-2 2,-2 l 9,0 c 2,0 2,2 2,2 l 0,9 c 0,2 -2,2 -2,2 l -9,0 c -2,0 -2,-2 -2,-2 z"
       style="font-size:medium;font-style:normal;font-variant:normal;font-weight:normal;font-stretch:normal;text-indent:0;text-align:start;text-decoration:none;line-height:normal;letter-spacing:normal;word-spacing:normal;text-transform:none;direction:ltr;block-progression:tb;writing-mode:lr-tb;text-anchor:start;baseline-shift:baseline;color:#000000;fill:none;fill-opacity:1;stroke:#000000;stroke-width:1;marker:none;visibility:visible;display:inline;overflow:visible;enable-background:accumulate;font-family:Sans;-inkscape-font-specification:Sans;stroke-opacity:1;opacity:0.40999999999999998" />
    <path
       style="font-size:medium;font-style:normal;font-variant:normal;font-weight:normal;font-stretch:normal;text-indent:0;text-align:start;text-decoration:none;line-height:normal;letter-spacing:normal;word-spacing:normal;text-transform:none;direction:ltr;block-progression:tb;writing-mode:lr-tb;text-anchor:start;baseline-shift:baseline;color:#000000;fill:#000000;fill-opacity:1;stroke:none;stroke-width:1;marker:none;visibility:visible;display:inline;overflow:visible;enable-background:accumulate;font-family:Sans;-inkscape-font-specification:Sans;opacity:0.10000000000000001"
       d="M 3.5 2 C 3.5 2 3.099493 1.9971285 2.71875 2.1875 C 2.338007 2.3778715 2 2.6666667 2 3.5 L 2 4.5 C 2 3.6666667 2.338007 3.3778715 2.71875 3.1875 C 3.099493 2.99713 3.5 3 3.5 3 L 12.5 3 C 13.333333 3 13.622128 3.338007 13.8125 3.71875 C 14.0029 4.099493 14 4.5 14 4.5 L 14 3.5 C 14 3.5 14.002872 3.099493 13.8125 2.71875 C 13.622128 2.338007 13.333333 2 12.5 2 L 3.5 2 z "
       id="path3811" />
    <path
       style="font-size:medium;font-style:normal;font-variant:normal;font-weight:normal;font-stretch:normal;text-indent:0;text-align:start;text-decoration:none;line-height:normal;letter-spacing:normal;word-spacing:normal;text-transform:none;direction:ltr;block-progression:tb;writing-mode:lr-tb;text-anchor:start;baseline-shift:baseline;color:#000000;fill:#000000;fill-opacity:1;stroke:none;stroke-width:1;marker:none;visibility:visible;display:inline;overflow:visible;enable-background:accumulate;font-family:Sans;-inkscape-font-specification:Sans;opacity:0.05000000000000000"
       d="M 3.5 2 C 3.5 2 3.099493 1.9971285 2.71875 2.1875 C 2.338007 2.3778715 2 2.6666667 2 3.5 L 2 5.5 C 2 4.6666667 2.338007 4.3778715 2.71875 4.1875 C 3.099493 3.99713 3.5 4 3.5 4 L 12.5 4 C 13.333333 4 13.622128 4.338007 13.8125 4.71875 C 14.0029 5.099493 14 5.5 14 5.5 L 14 3.5 C 14 3.5 14.002872 3.099493 13.8125 2.71875 C 13.622128 2.338007 13.333333 2 12.5 2 L 3.5 2 z "
       id="path3825" />
    <path
       id="path3850"
       d="M 3.5 2 C 3.5 2 3.099493 1.9971285 2.71875 2.1875 C 2.338007 2.3778715 2 2.6666667 2 3.5 L 2 12.5 C 2 12.5 1.9971285 12.900507 2.1875 13.28125 C 2.3778715 13.661993 2.6666667 14 3.5 14 L 12.5 14 C 12.5 14 12.900507 14.002872 13.28125 13.8125 C 13.661993 13.622128 14 13.333333 14 12.5 L 14 3.5 C 14 3.5 14.002872 3.099493 13.8125 2.71875 C 13.622128 2.338007 13.333333 2 12.5 2 L 3.5 2 z "
       style="font-size:medium;font-style:normal;font-variant:normal;font-weight:normal;font-stretch:normal;text-indent:0;text-align:start;text-decoration:none;line-height:normal;letter-spacing:normal;word-spacing:normal;text-transform:none;direction:ltr;block-progression:tb;writing-mode:lr-tb;text-anchor:start;baseline-shift:baseline;color:#000000;fill:none;fill-opacity:1;stroke:#000000;stroke-width:2;marker:none;visibility:visible;display:inline;overflow:visible;enable-background:accumulate;font-family:Sans;-inkscape-font-specification:Sans;stroke-opacity:1;stroke-miterlimit:4;stroke-dasharray:none;opacity:0.05000000000000000"
       clip-path="url(#clipPath3852)" />
  </g>
  <g
     inkscape:groupmode="layer"
     id="layer2"
     inkscape:label="Symbol">
    <g
       id="g3839"
       transform="translate(-4,-3)">
      <path
         id="path5739"
         d="m 12,8 c -1.105815,0 -2,0.9147203 -2,2.03125 L 10,10.5 10,11 9.5,11 9,11 l 0,1 0,2 0,1 1,0 4,0 1,0 0,-1 0,-2 0,-1 -0.5,0 -0.5,0 0,-0.5 0,-0.46875 C 14,8.9143515 13.105737,8 12,8 z m 0,1 c 0.529826,0 1,0.4659682 1,1 l 0,0.5 0,0.5 -0.5,0 -1,0 -0.5,0 0,-0.5 0,-0.5 c 0,-0.5340318 0.470174,-1 1,-1 z"
         style="color:#000000;fill:#ffffff;fill-opacity:1;fill-rule:nonzero;stroke:none;stroke-width:1;marker:none;visibility:visible;display:inline;overflow:visible;enable-background:accumulate"
         inkscape:connector-curvature="0" />
      <path
         inkscape:connector-curvature="0"
         style="opacity:0.41000001;color:#000000;fill:none;stroke:#000000;stroke-width:1;stroke-opacity:1;marker:none;visibility:visible;display:inline;overflow:visible;enable-background:accumulate"
         d="m 12,7.5 c -1.382143,0 -2.5,1.1457738 -2.5,2.53125 l 0,0.46875 -0.5,0 -0.5,0 0,0.5 0,1 0,2 0,1 0,0.5 0.5,0 1,0 4,0 1,0 0.5,0 0,-0.5 0,-1 0,-2 0,-1 0,-0.5 -0.5,0 -0.5,0 0,-0.46875 C 14.5,8.6454381 13.38201,7.5 12,7.5 z m 0,2 c 0.287839,0 0.5,0.20896 0.5,0.5 l 0,0.5 -1,0 0,-0.5 c 0,-0.29104 0.212161,-0.5 0.5,-0.5 z"
         id="path3970" />
    </g>
  </g>
</svg>
