<?xml version="1.0" encoding="UTF-8" standalone="no"?>
<!-- Created with Inkscape (http://www.inkscape.org/) -->

<svg
   xmlns:dc="http://purl.org/dc/elements/1.1/"
   xmlns:cc="http://creativecommons.org/ns#"
   xmlns:rdf="http://www.w3.org/1999/02/22-rdf-syntax-ns#"
   xmlns:svg="http://www.w3.org/2000/svg"
   xmlns="http://www.w3.org/2000/svg"
   xmlns:xlink="http://www.w3.org/1999/xlink"
   xmlns:inkscape="http://www.inkscape.org/namespaces/inkscape"
   version="1.0"
   width="32"
   height="32"
   id="svg3783">
  <metadata
     id="metadata43">
    <rdf:RDF>
      <cc:Work
         rdf:about="">
        <dc:format>image/svg+xml</dc:format>
        <dc:type
           rdf:resource="http://purl.org/dc/dcmitype/StillImage" />
        <dc:title />
      </cc:Work>
    </rdf:RDF>
  </metadata>
  <defs
     id="defs3785">
    <linearGradient
       id="linearGradient3702">
      <stop
         id="stop3704"
         style="stop-color:#000000;stop-opacity:0"
         offset="0" />
      <stop
         id="stop3710"
         style="stop-color:#000000;stop-opacity:1"
         offset="0.5" />
      <stop
         id="stop3706"
         style="stop-color:#000000;stop-opacity:0"
         offset="1" />
    </linearGradient>
    <linearGradient
       id="linearGradient3688">
      <stop
         id="stop3690"
         style="stop-color:#000000;stop-opacity:1"
         offset="0" />
      <stop
         id="stop3692"
         style="stop-color:#000000;stop-opacity:0"
         offset="1" />
    </linearGradient>
    <linearGradient
       id="linearGradient2490">
      <stop
         id="stop2492"
         style="stop-color:#455f0e;stop-opacity:1"
         offset="0" />
      <stop
         id="stop2494"
         style="stop-color:#84a718;stop-opacity:1"
         offset="1" />
    </linearGradient>
    <linearGradient
       id="linearGradient3242">
      <stop
         id="stop3244"
         style="stop-color:#eef87e;stop-opacity:1"
         offset="0" />
      <stop
         id="stop3246"
         style="stop-color:#cde34f;stop-opacity:1"
         offset="0.26238" />
      <stop
         id="stop3248"
         style="stop-color:#93b723;stop-opacity:1"
         offset="0.66093999" />
      <stop
         id="stop3250"
         style="stop-color:#5a7e0d;stop-opacity:1"
         offset="1" />
    </linearGradient>
    <linearGradient
       id="linearGradient4222">
      <stop
         id="stop4224"
         style="stop-color:#ffffff;stop-opacity:1"
         offset="0" />
      <stop
         id="stop4226"
         style="stop-color:#ffffff;stop-opacity:0"
         offset="1" />
    </linearGradient>
    <radialGradient
       cx="4.9929786"
       cy="43.5"
       r="2.5"
       fx="4.9929786"
       fy="43.5"
       id="radialGradient2470"
       xlink:href="#linearGradient3688"
       gradientUnits="userSpaceOnUse"
       gradientTransform="matrix(2.003784,0,0,1.4,27.98813,-17.4)" />
    <radialGradient
       cx="4.9929786"
       cy="43.5"
       r="2.5"
       fx="4.9929786"
       fy="43.5"
       id="radialGradient2472"
       xlink:href="#linearGradient3688"
       gradientUnits="userSpaceOnUse"
       gradientTransform="matrix(2.003784,0,0,1.4,-20.01187,-104.4)" />
    <linearGradient
       x1="25.058096"
       y1="47.027729"
       x2="25.058096"
       y2="39.999443"
       id="linearGradient2474"
       xlink:href="#linearGradient3702"
       gradientUnits="userSpaceOnUse" />
    <radialGradient
       cx="4.9929786"
       cy="43.5"
       r="2.5"
       fx="4.9929786"
       fy="43.5"
       id="radialGradient2476"
       xlink:href="#linearGradient3688"
       gradientUnits="userSpaceOnUse"
       gradientTransform="matrix(2.003784,0,0,1.4,27.98813,-17.4)" />
    <radialGradient
       cx="4.9929786"
       cy="43.5"
       r="2.5"
       fx="4.9929786"
       fy="43.5"
       id="radialGradient2478"
       xlink:href="#linearGradient3688"
       gradientUnits="userSpaceOnUse"
       gradientTransform="matrix(2.003784,0,0,1.4,-20.01187,-104.4)" />
    <linearGradient
       x1="25.058096"
       y1="47.027729"
       x2="25.058096"
       y2="39.999443"
       id="linearGradient2480"
       xlink:href="#linearGradient3702"
       gradientUnits="userSpaceOnUse" />
    <linearGradient
       x1="26.95891"
       y1="-0.00034927591"
       x2="26.95891"
       y2="39.089828"
       id="linearGradient2489"
       xlink:href="#linearGradient4222"
       gradientUnits="userSpaceOnUse"
       gradientTransform="matrix(0.7480349,0,0,0.75387595,-5.7689846,0.90793303)" />
    <radialGradient
       cx="7.4404225"
       cy="15.377086"
       r="19.99999"
       fx="7.4404225"
       fy="15.377086"
       id="radialGradient2492"
       xlink:href="#linearGradient3242"
       gradientUnits="userSpaceOnUse"
       gradientTransform="matrix(0,1.5409474,-2.2227541,-5.0892457e-8,40.921168,-4.188575)" />
    <linearGradient
       x1="24"
       y1="44"
       x2="24"
       y2="3.8990016"
       id="linearGradient2494"
       xlink:href="#linearGradient2490"
       gradientUnits="userSpaceOnUse"
       gradientTransform="matrix(0.56595215,0,0,0.56597108,-0.96888732,6.1713511)" />
  </defs>
  <g
     transform="matrix(0.26760532,0,0,0.31190147,12.547987,17.340631)"
     id="g3761"
     style="opacity:0.3">
    <rect
       width="5"
       height="7"
       x="38"
       y="40"
       id="rect3763"
       style="fill:url(#radialGradient2470);fill-opacity:1;stroke:none" />
    <rect
       width="5"
       height="7"
       x="-10"
       y="-47"
       transform="scale(-1,-1)"
       id="rect3765"
       style="fill:url(#radialGradient2472);fill-opacity:1;stroke:none" />
    <rect
       width="28"
       height="7.0000005"
       x="10"
       y="40"
       id="rect3767"
       style="fill:url(#linearGradient2474);fill-opacity:1;stroke:none" />
  </g>
  <g
     transform="matrix(0.28733436,0,0,0.31190147,-0.4366718,17.340631)"
     id="g3550"
     style="opacity:0.3">
    <rect
       width="5"
       height="7"
       x="38"
       y="40"
       id="rect3552"
       style="fill:url(#radialGradient2476);fill-opacity:1;stroke:none" />
    <rect
       width="5"
       height="7"
       x="-10"
       y="-47"
       transform="scale(-1,-1)"
       id="rect3554"
       style="fill:url(#radialGradient2478);fill-opacity:1;stroke:none" />
    <rect
       width="28"
       height="7.0000005"
       x="10"
       y="40"
       id="rect3556"
       style="fill:url(#linearGradient2480);fill-opacity:1;stroke:none" />
  </g>
  <path
     d="m 12.613961,1.5769264 c -1.890593,0 -3.4249864,1.5525672 -3.4249864,3.443223 0,1.181659 0.6111171,2.4877217 1.5222154,3.1034361 l 3.91e-4,0.3397869 -7.6110789,0 C 2.2571944,8.4633724 1.5,9.3971524 1.5,10.240489 l 0,7.397264 c 0.6276864,-0.787682 1.6570664,-1.308197 2.7417724,-1.308197 1.8905924,0 3.4558215,1.534445 3.4558215,3.4251 0,1.890656 -1.5652291,3.425101 -3.4558215,3.425101 -1.084706,0 -2.114086,-0.520516 -2.7417724,-1.308197 l 0,7.397266 C 1.5,30.112162 2.2568028,30.5 3.1001106,30.5 l 7.3970194,0 C 9.7094724,29.872292 9.1889746,29.211868 9.1889746,28.127126 c 0,-1.890656 1.5343934,-3.425102 3.4249864,-3.425102 1.890592,0 3.424986,1.534446 3.424986,3.425102 0,1.084742 -0.520499,1.745166 -1.308156,2.372874 l 7.397019,0 c 0.843308,0 1.40808,-0.388105 1.40808,-1.231442 l 0,-7.032427 0.708751,2.67e-4 c 0.615695,0.911129 1.64875,1.359033 2.830371,1.359033 1.890592,0 3.424987,-1.534445 3.424987,-3.4251 0,-1.890656 -1.534395,-3.425101 -3.424987,-3.425101 -1.181621,0 -2.214676,0.44817 -2.830371,1.3593 l -0.708751,-2.67e-4 0,-7.864043 c 0,-0.8433361 -0.564853,-1.8050696 -1.407689,-1.7768476 l -7.611079,0 -3.91e-4,-0.3397869 c 0.911098,-0.6157144 1.522216,-1.9217771 1.522216,-3.1034361 0,-1.8906558 -1.534394,-3.443223 -3.424986,-3.443223 z"
     inkscape:connector-curvature="0"
     id="rect3558"
     style="fill:url(#radialGradient2492);fill-opacity:1;stroke:url(#linearGradient2494);stroke-width:1.00000012;stroke-linecap:round;stroke-linejoin:round;stroke-miterlimit:4;stroke-opacity:1;stroke-dasharray:none;stroke-dashoffset:0" />
  <path
     d="m 12.744484,2.6022321 c -1.411661,0 -2.52421,0.9250163 -2.52421,2.3476997 0,0.8836661 0.428853,1.8599263 1.111351,2.3247413 0.22063,0.1563081 0.351553,0.4114039 0.35064,0.6831989 l 0,0.5889654 C 11.678465,9.0006129 11.518826,9.4961279 11.068567,9.5 l -7.5031091,0 C 3.1794957,9.5 2.5000001,9.9262873 2.5000001,10.315263 L 2.5,15.520273 c 3.4246222,-1.08325 6.2959744,1.465619 6.3124532,4.303866 C 8.828932,22.662386 6.1853607,24.748945 2.5,23.916634 l 10e-8,5.239947 c 0,0.388976 1.1623959,0.343419 1.5483591,0.343419 l 4.1575411,0 c -0.626506,-2.871644 0.9759218,-5.837346 4.3150117,-5.864624 3.339089,-0.02728 4.954526,2.289671 4.272305,5.864624 l 4.741073,0 C 21.920254,29.5 22.5,29.54556 22.5,29.156581 l 0,-7.009928 c 0.10512,-1.057883 1.211146,-0.928453 1.211146,-0.928453 0.269691,-9.04e-4 0.981042,-0.207021 1.13614,0.01534 0.461212,0.687827 1.227902,1.347832 2.104721,1.347832 1.411662,0 2.596187,-0.993111 2.596187,-2.415796 0,-1.422684 -1.184525,-2.415797 -2.596187,-2.415797 -0.876819,0 -1.6438,0.612274 -2.105013,1.300098 -0.155097,0.222356 -1.155314,0.06399 -1.425005,0.06308 0,0 -0.785511,0.01008 -0.921989,-0.735688 l 0,-8.06201 C 22.5,9.9262873 21.920254,9.5 21.53429,9.5 l -7.105267,0 C 13.978763,9.49614 13.478392,9.1028452 13.474551,8.6490697 l 0,-0.5889654 c -9.14e-4,-0.271795 0.130011,-0.5268908 0.350642,-0.6831989 0.682495,-0.464815 1.213583,-1.2366106 1.213583,-2.1202767 0,-1.4226834 -0.882632,-2.6543966 -2.294292,-2.6543966 z"
     inkscape:connector-curvature="0"
     id="path3741"
     style="opacity:0.4;fill:none;stroke:url(#linearGradient2489);stroke-width:1.00000012;stroke-linecap:round;stroke-linejoin:round;stroke-miterlimit:4;stroke-opacity:1;stroke-dasharray:none;stroke-dashoffset:0" />
</svg>
