<?xml version="1.0" encoding="UTF-8" standalone="no"?>
<!-- Created with Inkscape (http://www.inkscape.org/) -->

<svg
   xmlns:dc="http://purl.org/dc/elements/1.1/"
   xmlns:cc="http://creativecommons.org/ns#"
   xmlns:rdf="http://www.w3.org/1999/02/22-rdf-syntax-ns#"
   xmlns:svg="http://www.w3.org/2000/svg"
   xmlns="http://www.w3.org/2000/svg"
   xmlns:xlink="http://www.w3.org/1999/xlink"
   version="1.1"
   width="32"
   height="32"
   id="svg3155">
  <defs
     id="defs3157">
    <linearGradient
       x1="22.004084"
       y1="47.813133"
       x2="22.004084"
       y2="3.3638515"
       id="linearGradient3084"
       xlink:href="#linearGradient3104-5"
       gradientUnits="userSpaceOnUse"
       gradientTransform="matrix(0.66858377,0,0,0.67036989,-0.6796189,-2.3082683)" />
    <linearGradient
       id="linearGradient3104-5">
      <stop
         id="stop3106-2"
         style="stop-color:#aaaaaa;stop-opacity:1"
         offset="0" />
      <stop
         id="stop3108-5"
         style="stop-color:#c8c8c8;stop-opacity:1"
         offset="1" />
    </linearGradient>
    <linearGradient
       x1="23.99999"
       y1="5.5641499"
       x2="23.99999"
       y2="43"
       id="linearGradient3013"
       xlink:href="#linearGradient3977"
       gradientUnits="userSpaceOnUse"
       gradientTransform="matrix(0.56756757,0,0,0.72972971,2.378382,-2.5135063)" />
    <linearGradient
       id="linearGradient3977">
      <stop
         id="stop3979"
         style="stop-color:#ffffff;stop-opacity:1"
         offset="0" />
      <stop
         id="stop3981"
         style="stop-color:#ffffff;stop-opacity:0.23529412"
         offset="0.03626217" />
      <stop
         id="stop3983"
         style="stop-color:#ffffff;stop-opacity:0.15686275"
         offset="0.95056331" />
      <stop
         id="stop3985"
         style="stop-color:#ffffff;stop-opacity:0.39215687"
         offset="1" />
    </linearGradient>
    <linearGradient
       x1="25.132275"
       y1="0.98520643"
       x2="25.132275"
       y2="47.013336"
       id="linearGradient3016"
       xlink:href="#linearGradient3600-4"
       gradientUnits="userSpaceOnUse"
       gradientTransform="matrix(0.65714319,0,0,0.63012397,0.228556,-1.0896478)" />
    <linearGradient
       id="linearGradient3600-4">
      <stop
         id="stop3602-7"
         style="stop-color:#f4f4f4;stop-opacity:1"
         offset="0" />
      <stop
         id="stop3604-6"
         style="stop-color:#dbdbdb;stop-opacity:1"
         offset="1" />
    </linearGradient>
    <radialGradient
       cx="605.71429"
       cy="486.64789"
       r="117.14286"
       fx="605.71429"
       fy="486.64789"
       id="radialGradient3021"
       xlink:href="#linearGradient5060"
       gradientUnits="userSpaceOnUse"
       gradientTransform="matrix(0.01566318,0,0,0.00823529,17.610433,25.980565)" />
    <linearGradient
       id="linearGradient5060">
      <stop
         id="stop5062"
         style="stop-color:#000000;stop-opacity:1"
         offset="0" />
      <stop
         id="stop5064"
         style="stop-color:#000000;stop-opacity:0"
         offset="1" />
    </linearGradient>
    <radialGradient
       cx="605.71429"
       cy="486.64789"
       r="117.14286"
       fx="605.71429"
       fy="486.64789"
       id="radialGradient3024"
       xlink:href="#linearGradient5060"
       gradientUnits="userSpaceOnUse"
       gradientTransform="matrix(-0.01566318,0,0,0.00823529,14.389566,25.980565)" />
    <linearGradient
       id="linearGradient5048">
      <stop
         id="stop5050"
         style="stop-color:#000000;stop-opacity:0"
         offset="0" />
      <stop
         id="stop5056"
         style="stop-color:#000000;stop-opacity:1"
         offset="0.5" />
      <stop
         id="stop5052"
         style="stop-color:#000000;stop-opacity:0"
         offset="1" />
    </linearGradient>
    <linearGradient
       x1="302.85715"
       y1="366.64789"
       x2="302.85715"
       y2="609.50507"
       id="linearGradient3153"
       xlink:href="#linearGradient5048"
       gradientUnits="userSpaceOnUse"
       gradientTransform="matrix(0.04576928,0,0,0.00823529,-0.5423243,25.980548)" />
    <linearGradient
       x1="42.783993"
       y1="32.537422"
       x2="38.972309"
       y2="18.12406"
       id="linearGradient3273"
       xlink:href="#linearGradient3412"
       gradientUnits="userSpaceOnUse"
       gradientTransform="matrix(1,0,0,-1,-16.999999,48.999999)" />
    <linearGradient
       id="linearGradient3412">
      <stop
         id="stop3414"
         style="stop-color:#fcfcfc;stop-opacity:1"
         offset="0" />
      <stop
         id="stop3416"
         style="stop-color:#cbcdd9;stop-opacity:1"
         offset="1" />
    </linearGradient>
    <linearGradient
       x1="40.105618"
       y1="31.65719"
       x2="33.811069"
       y2="18.353575"
       id="linearGradient3270"
       xlink:href="#linearGradient3428"
       gradientUnits="userSpaceOnUse"
       gradientTransform="matrix(0.99749995,0,0,-0.99749995,-16.923748,48.896056)" />
    <linearGradient
       id="linearGradient3428">
      <stop
         id="stop3430"
         style="stop-color:#ffffff;stop-opacity:1"
         offset="0" />
      <stop
         id="stop3432"
         style="stop-color:#ffffff;stop-opacity:0"
         offset="1" />
    </linearGradient>
    <linearGradient
       x1="40.105618"
       y1="31.65719"
       x2="33.811069"
       y2="18.353575"
       id="linearGradient3166"
       xlink:href="#linearGradient3428"
       gradientUnits="userSpaceOnUse"
       gradientTransform="matrix(0.99749995,0,0,-0.99749995,-16.923748,48.896056)" />
  </defs>
  <metadata
     id="metadata3160">
    <rdf:RDF>
      <cc:Work
         rdf:about="">
        <dc:format>image/svg+xml</dc:format>
        <dc:type
           rdf:resource="http://purl.org/dc/dcmitype/StillImage" />
        <dc:title></dc:title>
      </cc:Work>
    </rdf:RDF>
  </metadata>
  <g
     id="layer1">
    <rect
       width="22.100021"
       height="2"
       x="4.9499893"
       y="29"
       id="rect2879"
       style="opacity:0.15;fill:url(#linearGradient3153);fill-opacity:1;fill-rule:nonzero;stroke:none;stroke-width:1;marker:none;visibility:visible;display:inline;overflow:visible" />
    <path
       d="m 4.9499887,29.000086 c 0,0 0,1.99989 0,1.99989 -0.806615,0.0038 -1.950002,-0.448074 -1.950002,-1.000074 0,-0.552 0.900121,-0.999816 1.950002,-0.999816 z"
       id="path2881"
       style="opacity:0.15;fill:url(#radialGradient3024);fill-opacity:1;fill-rule:nonzero;stroke:none;stroke-width:1;marker:none;visibility:visible;display:inline;overflow:visible" />
    <path
       d="m 27.050011,29.000086 c 0,0 0,1.99989 0,1.99989 0.806614,0.0038 1.950002,-0.448074 1.950002,-1.000074 0,-0.552 -0.900122,-0.999816 -1.950002,-0.999816 z"
       id="path2883"
       style="opacity:0.15;fill:url(#radialGradient3021);fill-opacity:1;fill-rule:nonzero;stroke:none;stroke-width:1;marker:none;visibility:visible;display:inline;overflow:visible" />
    <path
       d="m 4.499961,0.49996093 c 5.270482,0 23.000037,0.00185 23.000037,0.00185 l 2.8e-5,28.99822807 c 0,0 -15.333376,0 -23.000065,0 0,-9.666692 0,-19.333383 0,-29.00007387 z"
       id="path4160-3"
       style="fill:url(#linearGradient3016);fill-opacity:1;stroke:none;display:inline" />
    <path
       d="m 26.5,28.5 -21,0 0,-27 21,0 z"
       id="rect6741-1"
       style="fill:none;stroke:url(#linearGradient3013);stroke-width:0.99999994;stroke-linecap:round;stroke-linejoin:round;stroke-miterlimit:4;stroke-opacity:1;stroke-dasharray:none;stroke-dashoffset:0" />
    <path
       d="m 4.499961,0.49996093 c 5.270482,0 23.000037,0.00185 23.000037,0.00185 l 2.8e-5,28.99822807 c 0,0 -15.333376,0 -23.000065,0 0,-9.666692 0,-19.333383 0,-29.00007387 z"
       id="path4160-3-4"
       style="opacity:0.3;fill:none;stroke:#000000;stroke-width:0.99992186;stroke-linecap:butt;stroke-linejoin:round;stroke-miterlimit:4;stroke-opacity:1;stroke-dasharray:none;stroke-dashoffset:0;display:inline" />
    <path
       d="m 8.0000001,5.567745 1.5669929,0 z m 1.7968186,0 1.4625273,0 z m 1.6923533,0 1.295381,0 z m 1.504313,0 0.564117,0 z m 0.793943,0 1.253595,0 z m 1.504313,0 3.301133,0 z m 3.510065,0 2.528083,0 z m 2.737015,0 0.77305,0 z m -13.5388209,1.9217775 2.0684299,0 z m 2.2773639,0 3.384705,0 z m 3.593637,0 1.650566,0 z m 1.859499,0 1.546099,0 z m 1.755032,0 1.316274,0 z m 1.525206,0 2.068432,0.020955 z m 2.25647,0.020955 3.363813,0 z M 8.0000001,9.5 l 2.8623739,0 z m 3.0921999,0 3.0922,0 z m 3.301132,0 1.232701,0 z m 1.441634,0 2.904161,0 z m 3.092199,0 1.984859,0 z m 2.214684,0 0.793944,0 z m 1.002876,0 0.438758,0 z m 0.668584,0 1.232701,0 z m -14.8133089,2 1.0655555,0 z m 1.3998467,0 3.9488232,0 z m -1.3998467,3 2.6325479,0 z m 2.8414809,0 2.820588,0 z m 3.02952,0 1.086449,0 z m 1.295381,0 2.653442,0 z m 2.862374,0 3.342919,0 z m 3.572745,0 1.232701,0 z m -13.6015009,2 2.8623739,0 z m 3.0921999,0 3.0922,0 z m 3.301132,0 1.232701,0 z m 1.441634,0 2.904161,0 z m 3.092199,0 1.984859,0 z m 2.214684,0 0.793944,0 z m 1.002876,0 0.438758,0 z m 0.668584,0 1.232701,0 z m -14.8133089,2 2.4445099,0 z m 2.7161219,0 1.170021,0 z m 1.378954,0 0.58501,0 z m 0.814836,0 1.065555,0 z m 1.295381,0 1.086448,0 z m 1.295381,0 1.734139,0 z m 1.963965,0 2.25647,0 z m 2.465402,0 1.504314,0 z m 1.713247,0 0.376078,0 z m -13.6432879,2.989525 2.0684299,0 z m 2.2773639,0 3.384705,0 z m 3.593637,0 1.650566,0 z m 1.859499,0 1.546099,0 z m 1.755032,0 1.316274,0 z m 1.525206,0 2.068432,0.02095 z m 2.25647,0.02095 3.363813,0 z M 8.0000001,23.5 l 2.5907619,0 z m 2.8205879,0 0.814836,0 z m 1.023769,0 1.859499,0 z m 2.06843,0 2.737016,0 z m 2.966842,0 1.859498,0 z m 2.047536,0 0.396972,0 z m 0.605905,0 2.360936,0 z m 2.611655,0 1.232702,0 z m -14.1447249,2 2.5907619,0 z m 2.8205879,0 1.170021,0 z m 1.378953,0 1.838606,0 z m 2.047538,0 1.984858,0 z m 2.214684,0 0.793943,0 z m 1.002876,0 0.438758,0 z m 0.668584,0 1.232701,0 z"
       id="path3475"
       style="fill:none;stroke:url(#linearGradient3084);stroke-width:0.99999994px;stroke-linecap:butt;stroke-linejoin:miter;stroke-opacity:1" />
  </g>
  <g
     id="g3297">
    <path
       d="m 13.5,30.5 15,-15 0,15 -15,0 z m 6.999999,-3.000001 5,0 0,-4.999999 -5,4.999999 z"
       id="path3410"
       style="opacity:0.8;fill:url(#linearGradient3273);fill-opacity:1;fill-rule:evenodd;stroke:#83899a;stroke-width:1;stroke-linecap:butt;stroke-linejoin:miter;stroke-miterlimit:4;stroke-opacity:1;stroke-dasharray:none" />
    <path
       d="m 15.713203,29.538323 11.845312,-11.845312 0,11.845312 -11.845312,0 z"
       id="path3424"
       style="opacity:0.4;fill:none;stroke:url(#linearGradient3166);stroke-width:1;stroke-linecap:butt;stroke-linejoin:miter;stroke-miterlimit:4;stroke-opacity:1;stroke-dasharray:none" />
  </g>
</svg>
