<?xml version="1.0" encoding="UTF-8" standalone="no"?>
<svg
   xmlns:dc="http://purl.org/dc/elements/1.1/"
   xmlns:cc="http://creativecommons.org/ns#"
   xmlns:rdf="http://www.w3.org/1999/02/22-rdf-syntax-ns#"
   xmlns:svg="http://www.w3.org/2000/svg"
   xmlns="http://www.w3.org/2000/svg"
   version="1.1"
   id="svg3147"
   height="63.999996"
   width="216">
  <defs
     id="defs3149" />
  <metadata
     id="metadata3152">
    <rdf:RDF>
      <cc:Work
         rdf:about="">
        <dc:format>image/svg+xml</dc:format>
        <dc:type
           rdf:resource="http://purl.org/dc/dcmitype/StillImage" />
        <dc:title></dc:title>
      </cc:Work>
    </rdf:RDF>
  </metadata>
  <g
     transform="translate(261.02892,-175.31709)"
     id="layer1">
    <path
       id="path4211"
       d="m -157.83269,239.18981 c -1.70426,-0.43376 -3.67619,-2.43366 -4.97364,-5.0442 l -0.84411,-1.69838 0,-2.33357 c 0,-2.16584 0.0434,-2.42756 0.60326,-3.64109 1.48411,-3.21673 4.70091,-6.04968 9.28557,-8.17756 1.51636,-0.70379 1.90465,-0.96998 1.90465,-1.3057 0,-0.45715 0.0164,-0.46253 -1.31039,0.43024 -2.48314,1.67088 -5.23403,1.48257 -7.12623,-0.48782 l -0.67509,-0.70299 -1.10558,0.50615 c -2.29271,1.04964 -4.86175,0.27438 -6.29711,-1.90028 l -0.68897,-1.04383 -0.51555,0.66143 c -1.69714,2.17737 -7.20381,4.63375 -8.92276,3.9802 -0.63188,-0.24024 -1.27337,-1.09674 -1.70861,-2.28128 -0.48567,-1.32177 -0.58328,-5.23301 -0.20255,-8.11643 0.17487,-1.32439 0.29643,-2.42949 0.27013,-2.45579 -0.0263,-0.0263 -1.48718,2.76788 -3.24641,6.20928 -2.98026,5.82995 -3.24719,6.27738 -3.91034,6.55446 -0.94947,0.39671 -1.96457,0.18731 -2.71115,-0.55927 l -0.59275,-0.59275 -1.4433,0.5208 c -1.84839,0.66697 -3.59992,0.73928 -4.52615,0.18684 -0.66197,-0.39482 -1.85629,-2.40209 -1.85629,-3.11985 0,-0.18556 -0.0417,-0.37909 -0.0926,-0.43005 -0.051,-0.051 -0.8015,0.59163 -1.66786,1.42799 -2.58262,2.49317 -4.91886,3.34205 -6.75352,2.45391 -1.9896,-0.96315 -2.35016,-3.04357 -1.47196,-8.49319 0.29482,-1.8295 0.5799,-3.47896 0.6335,-3.66546 0.0837,-0.29135 0.004,-0.31523 -0.56696,-0.16963 -0.36544,0.0932 -1.00463,0.22723 -1.42042,0.29783 l -0.75599,0.12837 0,1.66209 c 0,4.26622 -2.21499,8.18692 -5.55377,9.83059 -1.19654,0.58906 -1.54202,0.66556 -3.00577,0.66556 -1.39212,0 -1.83184,-0.0871 -2.77865,-0.55032 -2.78502,-1.36258 -4.18485,-4.31831 -4.18485,-8.83626 0,-2.85517 0.22618,-4.04804 1.12784,-5.9483 1.5801,-3.33009 4.8616,-5.50033 8.32823,-5.50794 1.40427,-0.003 1.98855,0.43359 3.76731,2.81557 1.23674,1.65614 1.41304,1.81215 2.17553,1.92505 1.45415,0.21531 3.75289,-0.51609 3.75289,-1.19408 0,-0.46815 0.79369,-2.09172 1.33986,-2.74081 1.00172,-1.19049 2.42027,-1.49306 3.72533,-0.79461 0.56922,0.30463 0.49843,1.0643 -0.74237,7.96684 -0.63812,3.54978 -1.07095,6.48691 -1.0056,6.82385 0.23421,1.20764 1.01523,1.59725 2.08553,1.04037 1.57602,-0.82 1.86847,-1.58402 3.26384,-8.52671 0.66408,-3.30411 1.25712,-6.2182 1.31788,-6.47574 0.2586,-1.09624 2.96901,-1.5849 4.22526,-0.76177 0.46909,0.30736 0.5069,0.44834 0.50686,1.88987 -2e-5,0.9831 -0.33468,3.3717 -0.90719,6.47504 -0.94206,5.10659 -1.0422,6.09149 -0.70857,6.96901 0.24319,0.63965 0.60939,0.79594 1.4815,0.63234 1.21527,-0.22799 1.31451,-0.41732 1.5426,-2.94276 0.54169,-5.99796 1.38804,-10.95438 2.05768,-12.05036 0.56214,-0.92002 1.4258,-1.32423 2.55701,-1.19673 1.83046,0.20632 2.0508,1.20873 1.36087,6.19117 -0.44486,3.21261 -0.48881,3.85957 -0.24534,3.61196 0.0454,-0.0462 0.9421,-1.85302 1.9926,-4.01516 1.05051,-2.16214 2.11752,-4.19203 2.37114,-4.51088 0.97961,-1.23155 3.26543,-1.72826 4.28014,-0.93009 0.28343,0.22295 0.67116,0.81338 0.86161,1.31206 0.38612,1.01103 0.35551,1.54517 -0.30495,5.32186 -0.97588,5.58036 -0.97976,8.10979 -0.0138,8.98399 0.36109,0.32679 0.44294,0.31081 1.61874,-0.31588 1.40347,-0.74804 2.30095,-1.70026 3.17509,-3.36873 0.5947,-1.13512 0.60407,-1.20238 0.72516,-5.2037 0.12506,-4.13271 0.52176,-8.63725 1.00303,-11.3895 l 0.26807,-1.53297 -2.73778,-0.13198 c -5.90854,-0.28484 -8.22353,-1.20363 -7.75329,-3.07718 0.319,-1.27101 1.90372,-1.53028 7.40011,-1.2107 l 3.92614,0.22827 0.73095,-2.82237 c 0.80646,-3.11394 1.55184,-4.82195 2.35877,-5.405 0.3358,-0.24263 1.01318,-0.42184 1.84771,-0.48883 1.21858,-0.0978 1.35669,-0.0666 1.83861,0.4153 0.45066,0.45065 0.52107,0.69358 0.52107,1.79787 0,0.70225 -0.13536,2.36199 -0.30079,3.68833 -0.16543,1.32633 -0.30151,2.5047 -0.3024,2.61859 -0.002,0.24443 2.85825,0.0683 6.65112,-0.40968 2.25694,-0.2844 3.47435,-0.51117 8.83766,-1.64622 1.71484,-0.36292 2.11679,-0.2057 1.57769,0.61707 -0.66698,1.01794 -3.63684,2.68266 -6.4828,3.63386 -2.58284,0.86325 -8.72294,1.93224 -11.09852,1.93224 -0.13289,0 -0.30162,0.38556 -0.37495,0.85679 -0.31868,2.04787 -2.03724,9.35106 -2.87825,12.2314 -0.50432,1.72724 -0.90364,3.43491 -0.88737,3.79482 0.0359,0.79412 0.86578,3.30607 1.32255,4.00318 0.49061,0.74876 0.78969,0.77655 1.89323,0.17593 0.99812,-0.54324 1.00083,-0.54751 1.13188,-1.78183 0.2484,-2.33975 1.1514,-7.28681 1.54649,-8.47246 0.63881,-1.917 1.71643,-3.8782 2.3974,-4.36309 1.43796,-1.02392 3.35474,-0.91859 3.82223,0.21003 0.20446,0.49362 0.17748,0.81139 -0.16612,1.95682 -0.22562,0.75213 -0.7939,3.31796 -1.26285,5.70185 -0.96424,4.90173 -1.10565,7.04732 -0.52305,7.93648 1.03156,1.57436 2.74632,0.74803 3.91899,-1.88854 0.27124,-0.60983 0.98061,-3.37676 1.57639,-6.14873 0.59577,-2.77197 1.13199,-5.2424 1.19159,-5.48985 0.29919,-1.24205 2.3008,-2.66167 3.76522,-2.67044 1.97633,-0.0118 1.96965,-0.10357 0.57478,7.89556 -1.74327,9.99705 -1.80832,10.44541 -1.51548,10.44541 0.13583,0 0.7025,-0.0864 1.25926,-0.19197 0.55677,-0.10559 2.74761,-0.38107 4.86853,-0.61218 4.17704,-0.45515 6.1077,-0.92907 6.94462,-1.7047 0.67616,-0.62664 0.67255,-0.91719 -0.0194,-1.55765 -0.65896,-0.60997 -1.08723,-0.84541 -3.92565,-2.15807 -3.5459,-1.63986 -5.23781,-3.58727 -5.23622,-6.02699 0.001,-1.61974 0.49412,-2.6905 1.78015,-3.86586 1.44316,-1.31896 3.19599,-2.15504 5.52579,-2.63575 4.14891,-0.85602 6.52594,-0.28781 7.6161,1.82059 0.38227,0.73933 0.45036,1.12044 0.37088,2.07614 -0.17713,2.12989 -1.81789,4.57496 -3.07003,4.57496 -0.69477,0 -0.76828,-0.33342 -0.5593,-2.53668 0.10001,-1.05432 0.12004,-2.01692 0.0445,-2.13913 -0.20772,-0.3361 -2.2454,-0.0777 -4.12685,0.52326 -1.81483,0.57972 -3.30813,1.53416 -3.30813,2.11437 0,0.64939 1.52962,1.79953 3.90813,2.9386 2.5945,1.2425 4.2704,2.60972 4.96973,4.05434 0.35678,0.73701 0.42523,1.17316 0.36139,2.30288 -0.0948,1.67765 -0.73917,2.75484 -2.25993,3.77786 -1.78784,1.20269 -3.36208,1.53248 -10.30568,2.15901 -1.77406,0.16007 -3.86531,0.43774 -4.64722,0.61704 l -1.42165,0.326 -0.44724,2.88723 c -0.76571,4.94322 -2.13584,9.9631 -3.4143,12.5093 -1.62603,3.23841 -3.88834,4.74717 -6.22601,4.1522 z m 1.52292,-3.77949 c 1.28714,-0.90155 3.09171,-6.69859 4.15212,-13.33833 l 0.1389,-0.86974 -1.27989,0.64534 c -1.93241,0.97434 -3.36512,2.01739 -4.72972,3.44337 -1.76092,1.84011 -2.18573,2.73565 -2.18489,4.6059 6.1e-4,1.30983 0.0879,1.68031 0.65288,2.77089 0.63016,1.21637 2.19219,3.07545 2.58405,3.07545 0.10521,0 0.40516,-0.1498 0.66655,-0.33288 z m -60.61394,-21.79248 c 1.33657,-1.37292 2.36983,-4.53554 2.36983,-7.25358 0,-1.13999 -0.02,-1.18304 -0.72864,-1.56464 -0.40075,-0.21581 -1.21795,-0.93311 -1.81601,-1.59398 l -1.08737,-1.20159 -0.58685,0.56224 c -1.47538,1.4135 -2.49242,4.31479 -2.5137,7.17079 -0.0171,2.29324 0.44286,3.56602 1.52771,4.22742 1.07243,0.65384 1.96759,0.54438 2.83503,-0.34666 z m -26.45866,4.87596 c -0.2772,-0.0478 -1.32046,-0.18688 -2.31837,-0.30905 -1.93591,-0.237 -6.49362,-1.33098 -7.91455,-1.89971 -0.61126,-0.24466 -0.8961,-0.49296 -0.98868,-0.86183 -0.1996,-0.79524 0.098,-9.07933 0.43601,-12.13726 0.6015,-5.44166 1.49545,-9.0477 2.97362,-11.99507 1.6412,-3.27246 2.52326,-4.13066 4.24686,-4.132 0.53397,-4e-4 1.169,0.1013 1.41119,0.22604 0.68606,0.35334 1.34753,1.02186 1.34753,1.3619 0,0.16985 -0.41241,1.33954 -0.91647,2.59932 -2.15902,5.39597 -3.52212,12.74888 -3.51756,18.97461 0.002,2.19164 0.25694,2.96696 1.06294,3.22761 2.65154,0.85747 6.0428,1.06892 8.3645,0.52153 3.77258,-0.88946 5.99753,-3.37019 6.24368,-6.96144 0.2463,-3.59344 -1.22572,-4.94884 -6.70114,-6.17024 -3.1024,-0.69205 -3.94231,-1.40079 -3.51104,-2.9627 0.28177,-1.02051 1.12345,-1.52818 4.41823,-2.66495 4.87751,-1.68283 7.31944,-3.27308 8.39182,-5.46495 0.99207,-2.02772 0.58546,-3.94587 -1.25311,-5.91145 -1.71486,-1.83332 -4.83409,-3.29432 -8.18878,-3.83549 -2.49258,-0.4021 -6.90181,-0.16711 -9.13062,0.4866 -3.93277,1.1535 -6.27806,2.73356 -8.5482,5.75907 -1.74173,2.32128 -2.74503,2.18332 -2.73722,-0.37638 0.01,-3.17137 2.68276,-6.48602 6.85027,-8.49442 9.67408,-4.66209 23.44604,-1.4241 27.37888,6.43719 2.53068,5.05852 0.44019,10.87936 -5.14385,14.32272 l -1.5535,0.95796 1.14365,0.78728 c 1.3505,0.92967 2.45928,2.4324 2.99125,4.05403 0.52031,1.58609 0.52071,4.75839 8.1e-4,6.30915 -1.30187,3.88305 -4.51885,6.77805 -8.62655,7.76315 -1.26879,0.30427 -5.25502,0.55377 -6.21157,0.38878 z m 121.27031,-0.10101 c -3.45905,-0.86527 -5.60042,-4.98475 -5.28341,-10.16403 0.20959,-3.42413 1.01535,-5.54158 2.8718,-7.54677 1.72871,-1.86721 4.37477,-3.04078 6.85609,-3.04078 0.79497,0 1.02414,0.11059 1.87137,0.90308 0.531,0.49668 1.41087,1.533 1.95528,2.30292 1.02524,1.44995 1.35693,1.64349 2.78232,1.62353 0.3465,-0.005 1.06826,-0.16362 1.60392,-0.3528 0.89664,-0.31668 1.00991,-0.43369 1.42743,-1.47451 0.73982,-1.84425 1.31063,-2.61392 2.24513,-3.02729 1.34912,-0.59678 3.11503,-0.0777 3.11503,0.91568 0,0.26296 -0.49866,3.23192 -1.10813,6.59768 -0.60947,3.36576 -1.10843,6.48493 -1.10879,6.9315 -10e-4,1.62933 1.0606,2.17301 2.43911,1.24877 1.28255,-0.85991 1.65092,-1.92837 3.00403,-8.71343 0.727127,-3.64612 1.371444,-6.38979 1.546687,-6.58622 0.478561,-0.53642 2.084888,-0.841 3.056107,-0.57947 1.391612,0.37472 1.518711,0.62667 1.373244,2.72218 -0.06959,1.0025 -0.490199,3.72783 -0.934684,6.05629 -0.80803,4.2329 -0.992351,6.43641 -0.599763,7.16997 0.133792,0.25 0.421742,0.38995 0.802313,0.38995 0.880692,0 2.214562,-0.5907 2.214562,-0.98072 0,-2.20996 1.433483,-10.30354 2.318508,-13.0905 0.639534,-2.01391 0.89104,-2.25821 2.324801,-2.25821 1.670889,0 1.685342,0.0347 1.511966,3.63005 -0.08017,1.66248 -0.101807,3.02268 -0.04808,3.02268 0.05372,0 0.552779,-0.92987 1.109017,-2.06638 1.156357,-2.36267 2.216889,-3.84523 3.063995,-4.28329 0.765882,-0.39605 1.71601,-0.38472 2.416065,0.0288 0.64025,0.37821 1.882579,2.16774 2.224843,3.2048 0.275595,0.83507 0.441504,0.86932 0.816522,0.16859 0.416856,-0.7789 1.960537,-2.07949 3.111761,-2.62174 1.436142,-0.67645 4.00373,-0.67726 5.443141,-0.002 1.912846,0.89774 2.791958,2.17652 2.790349,4.05894 -0.0012,1.38989 -0.630932,2.83795 -1.658464,3.81355 -0.494447,0.46946 -0.800882,0.588 -1.520042,0.588 -0.49541,0 -1.030725,-0.10788 -1.189588,-0.23972 -0.482978,-0.40084 -0.555535,-1.415 -0.205104,-2.86689 0.385092,-1.59549 0.225479,-2.00054 -0.788334,-2.00054 -1.004136,0 -2.190785,1.37973 -2.860886,3.32637 -0.728621,2.11664 -0.939249,5.30614 -0.437216,6.62069 0.412772,1.08083 1.277719,1.93168 2.167618,2.13231 1.35255,0.30492 3.975191,-0.55489 6.441496,-2.1118 0.72244,-0.45606 0.735052,-0.48559 0.570632,-1.33621 -0.260766,-1.34907 -0.208466,-3.95492 0.109492,-5.45533 0.441703,-2.08435 1.403921,-3.90115 2.812536,-5.31045 1.555456,-1.55621 2.94392,-2.12971 5.182886,-2.14076 5.129616,-0.0253 8.417978,3.83152 6.517858,7.64459 -0.703515,1.41176 -4.534156,4.9639 -8.237387,7.63847 l -0.585641,0.42297 1.190435,0.58451 c 0.953376,0.46811 1.451383,0.58274 2.50082,0.57562 1.705659,-0.0115 2.942441,-0.62167 5.347241,-2.63779 2.229087,-1.86881 2.96248,-2.27086 3.43184,-1.88132 1.13304,0.94032 -1.591373,5.48326 -4.349876,7.25338 -3.369707,2.16233 -8.215352,1.78002 -11.02519,-0.86988 l -0.648849,-0.61192 -1.971923,0.9224 c -1.084556,0.50731 -2.470875,1.06993 -3.080709,1.25025 -6.982538,2.06469 -12.735433,-2.69306 -11.723033,-9.69516 l 0.242143,-1.67476 -0.722063,-1.4663 c -0.397136,-0.80646 -0.857351,-1.60237 -1.022702,-1.76869 -0.267054,-0.26862 -0.343889,-0.2461 -0.687882,0.2016 -0.212986,0.27719 -1.352781,2.63589 -2.532879,5.24154 -3.054706,6.74479 -4.291084,8.91712 -5.293512,9.30077 -0.686169,0.2626 -1.961323,-0.0923 -2.24655,-0.62523 -0.197098,-0.36827 -0.263761,-0.36052 -1.837673,0.21389 -3.870087,1.41241 -5.568512,0.80409 -6.562948,-2.35062 l -0.33645,-1.06732 -0.90141,1.00259 c -1.10741,1.23171 -3.04722,2.62278 -4.32219,3.09951 -1.16829,0.43684 -2.76926,0.33211 -3.54662,-0.23202 -0.29666,-0.21528 -0.74997,-0.8111 -1.00737,-1.32404 -0.63563,-1.26667 -0.61895,-3.55652 0.0546,-7.49904 0.2828,-1.6553 0.51417,-3.11153 0.51417,-3.23614 0,-0.15988 -0.38573,-0.13743 -1.31038,0.0763 l -1.31039,0.30286 -0.004,1.3204 c -0.015,5.6578 -3.69978,10.52558 -8.17257,10.79637 -0.7699,0.0466 -1.75855,-0.005 -2.19699,-0.11466 z m 3.86841,-4.67415 c 1.24293,-1.29189 2.12106,-3.77491 2.37059,-6.70313 0.0661,-0.77615 0.0481,-1.50789 -0.04,-1.62609 -0.0881,-0.11819 -0.58202,-0.5018 -1.09749,-0.85246 -0.7679,-0.52237 -1.35159,-1.13526 -2.33025,-2.44682 -0.0357,-0.0479 -0.38461,0.22282 -0.77532,0.60151 -1.58055,1.53193 -2.62486,4.79595 -2.47119,7.72376 0.13683,2.60703 1.11439,3.94136 2.89607,3.95306 0.66211,0.004 0.9369,-0.11901 1.44761,-0.64983 z m 59.499273,-6.33466 c 2.128165,-1.50042 4.855542,-3.70562 5.063349,-4.09394 0.555886,-1.03865 -2.537633,-1.88448 -4.04375,-1.10564 -0.785727,0.40631 -1.733602,1.73564 -2.087624,2.92776 -0.353499,1.19037 -0.615909,3.21374 -0.416787,3.21374 0.08185,0 0.750018,-0.42387 1.484812,-0.94192 z"
       style="fill:#333333" />
  </g>
</svg>
