<?xml version="1.0" encoding="UTF-8" standalone="no"?>
<svg
   xmlns:dc="http://purl.org/dc/elements/1.1/"
   xmlns:cc="http://creativecommons.org/ns#"
   xmlns:rdf="http://www.w3.org/1999/02/22-rdf-syntax-ns#"
   xmlns:svg="http://www.w3.org/2000/svg"
   xmlns="http://www.w3.org/2000/svg"
   xmlns:sodipodi="http://sodipodi.sourceforge.net/DTD/sodipodi-0.dtd"
   xmlns:inkscape="http://www.inkscape.org/namespaces/inkscape"
   width="442"
   height="64"
   viewBox="0 0 442.00001 63.999998"
   id="svg2"
   version="1.1"
   inkscape:version="0.91 r13725"
   sodipodi:docname="fontawesome.svg">
  <sodipodi:namedview
     pagecolor="#ffffff"
     bordercolor="#666666"
     borderopacity="1"
     objecttolerance="10"
     gridtolerance="10"
     guidetolerance="10"
     inkscape:pageopacity="0"
     inkscape:pageshadow="2"
     inkscape:window-width="3200"
     inkscape:window-height="1688"
     id="namedview9"
     showgrid="false"
     inkscape:zoom="1.4660633"
     inkscape:cx="52.180556"
     inkscape:cy="32"
     inkscape:window-x="0"
     inkscape:window-y="60"
     inkscape:window-maximized="1"
     inkscape:current-layer="svg2" />
  <defs
     id="defs4" />
  <metadata
     id="metadata7">
    <rdf:RDF>
      <cc:Work
         rdf:about="">
        <dc:format>image/svg+xml</dc:format>
        <dc:type
           rdf:resource="http://purl.org/dc/dcmitype/StillImage" />
        <dc:title />
      </cc:Work>
    </rdf:RDF>
  </metadata>
  <g
     id="layer1"
     transform="matrix(0.78125,0,0,0.78125,1687.7295,-165.7765)"
     style="fill:#333333">
    <g
       id="g4227"
       transform="matrix(0.40260075,0,0,0.40260075,-1289.8561,170.35074)"
       style="fill:#333333">
      <path
         id="rect4173-3-6"
         d="m -2054.1191,142.24805 0,6.5 0,16.5 -7,0 0,2 0,8 8.5,0 8.5,0 0,-16.5 0,-16.5 -10,0 z m 453.705,0.34179 18.6817,52.15821 22.209,62 6.5879,0.47461 -18.7969,-52.47461 -22.2071,-62 -6.4746,-0.15821 z m -540.705,4.65821 0,2.5 0,7.5 7,0 0,-10 -7,0 z m 27,2 0,23.5 0,23.5 10,0 0,-13.5 0,-23.5 21.5,0 11.5,0 0,-2 0,-8 -21.5,0 -21.5,0 z m 498.3535,0.5 -0.6856,4.23242 c -0.3772,2.32749 -4.7326,15.63542 -9.6777,29.57422 -4.9451,13.9388 -8.9902,25.64833 -8.9902,26.01953 0,0.29336 5.5559,0.53673 13.1484,0.6289 1.5877,-4.58164 3.5672,-10.23705 5.8418,-16.64843 2.864,-8.07275 5.4223,-15.65202 7.2324,-21.29102 -2.5188,-7.43287 -4.5747,-13.74868 -5.168,-16.01562 l -1.7011,-6.5 z m -145.3535,4.5 0,4 0,14 10,0 0,-4 0,-14 -10,0 z m 24,28 0,5 -12.045,0 -12.0429,0 0.2929,28.82617 0.295,28.82422 2.8144,4.2539 c 1.926,2.90875 4.4467,5.01451 7.584,6.34766 l -0.3984,-0.60156 -0.295,-28.82422 -0.2929,-28.82617 12.0429,0 12.045,0 0,-7.5 0,-7.5 -10,0 z m 229,0 0,5 -6.5684,0 c -5.7952,0 -6.5034,0.20576 -6.0234,1.75 5.7136,18.38262 17.5918,60.7238 17.5918,62.70898 0,1.51887 0.429,2.39388 1,2.04102 0.55,-0.33992 1,-1.62909 1,-2.86524 0,-0.66929 0.8621,-4.04309 2.5546,-10.03125 -3.8928,-14.00572 -8.957,-31.59188 -12.1464,-41.85351 -0.48,-1.54424 0.2282,-1.75 6.0234,-1.75 l 6.5684,0 0,-7.5 0,-7.5 -10,0 z m 50.6777,0 8.6621,28.75 c 6.4201,21.3125 11.7165,40.1 11.7695,41.75 0.089,2.76145 0.1757,2.68193 1.0957,-1 0.2813,-1.1256 1.4542,-5.25986 3.0332,-10.74414 -1.7648,-6.10177 -3.7087,-12.73691 -5.8984,-20.00586 l -11.6738,-38.75 -6.9883,0 z m 71.3223,0 0,4.90429 -6.1758,0.29883 -6.1739,0.29688 -11.3203,37.5 c -6.2266,20.625 -12.0106,39.8625 -12.8535,42.75 l -1.5332,5.25 -10.9336,0 -3.9726,0 c 0.5068,1.64154 1.457,4.6931 1.623,5.25 l 1.416,4.75 10.9336,0 10.9336,0 1.5332,-5.25 c 0.8429,-2.8875 6.6269,-22.125 12.8535,-42.75 l 11.3203,-37.5 6.1739,-0.29688 6.1758,-0.29883 0,-7.45117 0,-7.45312 -10,0 z m -504.0957,0.39453 c 0.069,1.14262 0.1024,2.38666 0.1035,3.79101 l 0,7.31446 2.0957,-3.5 c 1.263,-2.10915 2.6909,-4.05036 4.2422,-5.84961 -1.485,-0.91022 -3.5617,-1.44712 -6.4414,-1.75586 z m 865.996,0 c 0.068,1.12838 0.1,2.35287 0.1,3.73633 l 0,7.26171 2.8379,-4.44726 c 1.0782,-1.68904 2.274,-3.27288 3.5507,-4.76758 -1.4886,-0.92613 -3.5784,-1.47105 -6.4883,-1.7832 z m 62.0372,0.83203 c 0.7846,1.46328 1.4735,3.03507 2.0507,4.74023 l 1.711,5.0586 2.9961,-4.51367 c -1.8921,-2.15468 -4.1426,-3.91164 -6.7578,-5.28516 z m 68.0625,0.37109 c 4.2433,7.18674 5,15.134 5,45.34961 l 0,29.05274 8,0 2,0 0,-19.05274 c 0,-32.38613 -0.8662,-39.19197 -5.9668,-46.89648 -2.4057,-3.63375 -5.3966,-6.44151 -9.0332,-8.45313 z m -928.3008,0.0254 c 0.8745,1.52162 1.6734,3.16479 2.3867,4.95899 2.265,5.69713 2.3659,7.1071 2.709,37.66797 l 0.3574,31.75 7.9258,0 1.9609,0 -0.2441,-21.75 c -0.3431,-30.56087 -0.444,-31.97084 -2.709,-37.66797 -2.7985,-7.03935 -6.8027,-11.92984 -12.3867,-14.95899 z m 1010.0371,1.45118 c -1.0368,-0.006 -2.203,0.05 -3.6016,0.15039 -7.4837,0.53723 -12.9499,2.93753 -17.9707,7.89062 -3.6848,3.63507 -7.5369,10.61977 -8.6211,15.63477 l -0.7031,3.25 13.2227,0 c 1.6901,-3.39873 3.9185,-6.73126 6.1015,-8.88477 5.0208,-4.95309 10.487,-7.35339 17.9707,-7.89062 1.3986,-0.10041 2.5648,-0.15675 3.6016,-0.15039 3.1103,0.0191 5.0432,0.59529 8.5039,2.17968 0.3106,0.14219 0.6108,0.30597 0.9141,0.46289 -2.4343,-4.53049 -6.2723,-8.3378 -10.9141,-10.46289 -3.4607,-1.58439 -5.3936,-2.16058 -8.5039,-2.17968 z m -516.6055,0.0234 c -7.0062,-0.01 -14.2367,2.59596 -19.9394,7.39453 -3.4669,2.91719 -9.1914,13.60992 -9.1914,17.16797 l 0,2.33985 12.7129,0 c 1.9514,-3.86658 4.5509,-7.88586 6.4785,-9.50782 5.7027,-4.79857 12.9332,-7.40428 19.9394,-7.39453 2.3354,0.003 4.6469,0.29598 6.8672,0.89649 1.08,0.29209 2.1531,0.72759 3.2051,1.28125 -3.2335,-5.42871 -8.1408,-9.91156 -13.2051,-11.28125 -2.2203,-0.60051 -4.5318,-0.89349 -6.8672,-0.89649 z m 131.6778,0.0781 c 0.6666,2.01932 1.1894,6.21353 1.1894,9.79297 l 0,7.03125 -8.5,0 -0.023,0 c 1.0078,1.77983 1.5234,3.92023 1.5234,6.45117 l 0,3.54883 8.5,0 8.5,0 0,-7.03125 c 0,-3.86766 -0.6086,-8.4872 -1.3516,-10.26563 -1.556,-3.72411 -5.1091,-6.99021 -9.8378,-9.52734 z m -33.8106,0.35742 c -11.7667,0 -18,4.25371 -18,12.2832 0,4.36444 3.0561,8.00205 10.1816,11.69336 -0.1091,-0.55393 -0.1816,-1.11577 -0.1816,-1.69336 0,-8.02949 6.2333,-12.2832 18,-12.2832 2.9975,0 5.611,0.26127 7.8516,0.7832 -0.9306,-7.23887 -6.7879,-10.7832 -17.8516,-10.7832 z m -761.4297,0.75195 c -9.4304,0.33823 -21.2805,5.77476 -26.2383,12.48047 -11.0597,14.95902 -10.4933,35.05328 1.3594,48.23633 2.2484,2.50067 4.4904,4.48112 6.9317,6.06836 -8.7858,-13.02098 -8.301,-30.76555 1.7089,-44.30469 5.2883,-7.15276 18.4192,-12.86091 28.0899,-12.47851 0.6447,0.0255 1.2741,0.0791 1.8847,0.16015 5.9102,0.78401 11.1216,2.6203 15.5293,5.41016 -5.4438,-8.54639 -14.2053,-13.90798 -25.5293,-15.41016 -0.6106,-0.0811 -1.24,-0.13465 -1.8847,-0.16015 -0.6044,-0.0239 -1.2229,-0.0245 -1.8516,-0.002 z m 866,0 c -9.4304,0.33823 -21.2804,5.77476 -26.2383,12.48047 -11.0596,14.95902 -10.4933,35.05328 1.3594,48.23633 2.2483,2.50067 4.4904,4.48112 6.9317,6.06836 -8.7857,-13.02098 -8.3009,-30.76555 1.7089,-44.30469 5.2884,-7.15276 18.4192,-12.86091 28.0899,-12.47851 0.6447,0.0255 1.2741,0.0791 1.8847,0.16015 5.9102,0.78401 11.1216,2.6203 15.5293,5.41016 -5.4437,-8.54639 -14.2052,-13.90798 -25.5293,-15.41016 -0.6106,-0.0811 -1.24,-0.13465 -1.8847,-0.16015 -0.6044,-0.0239 -1.2229,-0.0245 -1.8516,-0.002 z m 348.4317,0.50391 c 4.1143,6.04074 6.833,13.57781 7.957,22.45508 0.4697,3.70926 0.6119,8.54676 0.3164,10.75 l -0.5371,4.00586 -36.8691,0 c -41.7563,0 -38.0222,-0.92367 -35.4434,8.76367 2.4603,9.24224 7.6535,16.18752 14.5293,20.48242 -1.9433,-3.0679 -3.4864,-6.56483 -4.5293,-10.48242 -2.5788,-9.68734 -6.3129,-8.76367 35.4434,-8.76367 l 36.8691,0 0.5371,-4.00586 c 0.2955,-2.20324 0.1533,-7.04074 -0.3164,-10.75 -1.8707,-14.77448 -8.1465,-25.84834 -17.957,-32.45508 z m -515.6543,0.13867 c 5.482,7.84176 8.6126,18.00309 8.6367,29.82227 l 0.016,7.25 -37.1406,0 -37.1387,0 0.6016,5.07812 c 1.1524,9.73112 7.1924,19.1368 15.3535,24.32422 -2.8358,-4.33002 -4.7563,-9.28125 -5.3535,-14.32422 l -0.6016,-5.07812 37.1387,0 37.1406,0 -0.016,-7.25 c -0.036,-17.78045 -7.0869,-31.8205 -18.6367,-39.82227 z m -494.3457,0.0723 0,2.5 0,7.5 7,0 0,-10 -7,0 z m 245,0 0,2.5 0,7.5 5.8984,0 c -0.072,-0.2392 -0.4699,-1.55981 -0.5273,-1.75 l -2.4922,-8.25 -2.8789,0 z m 549.7832,0.0351 c -3.0667,-0.005 -6.1539,0.66111 -9.1016,1.92774 -3.382,2.78973 -6.391,6.14017 -8.8437,9.98242 l -2.8379,4.44726 0,-5.01953 c -1.0163,1.35568 -1.9539,2.81581 -2.7891,4.38282 -5.2544,9.85824 -6.2109,15.47352 -6.2109,36.45507 l 0,18.78907 8,0 2,0 0,-8.78907 c 0,-20.98155 0.9565,-26.59683 6.2109,-36.45507 6.5464,-12.28227 19.153,-18.27801 29.9687,-14.68164 -0.273,-0.77355 -0.5964,-1.46418 -0.9902,-2.26368 -1.7309,-3.51406 -3.3778,-5.2064 -6.5664,-6.75 -2.8244,-1.36729 -5.8221,-2.02015 -8.8398,-2.02539 z m -427.7832,0.0117 0,2.45313 0,7.5 1.0449,0 c 1.368,-4.59127 2.3902,-7.9733 2.5781,-8.46289 0.3966,-1.03351 -0.3166,-1.38606 -3.623,-1.49024 z m 496.1933,0.125 c -1.2531,-0.0469 -2.5785,0.002 -3.9765,0.14649 -3.6679,0.37855 -7.1974,1.69464 -10.4278,3.75195 -2.0441,1.96066 -3.8917,4.1259 -5.4629,6.49219 l -3.6269,5.46289 -0.666,-1.96875 c -1.7042,2.68771 -3.1307,5.68754 -4.1973,8.94336 -1.8093,5.52327 -2.1985,9.61802 -2.5957,27.25 l -0.4688,20.75 8.1153,0 2.1113,0 0.2422,-10.75 c 0.3972,-17.63198 0.7864,-21.72673 2.5957,-27.25 4.1586,-12.69439 13.7123,-21.58054 24.3809,-22.68164 3.2412,-0.33453 6.0804,-0.13883 8.5429,0.55468 -2.3793,-6.85153 -7.2232,-10.42622 -14.5664,-10.70117 z m -990.1894,0.1211 0,2.16601 0,7.45703 5.5722,0.21094 -0.072,-9.62695 -5.5,-0.20703 z m 865.9961,0 0,2.16601 0,7.45703 5.5722,0.21094 -0.072,-9.62695 -5.5,-0.20703 z m -806.4747,0.31054 c -6.0162,0.0411 -11.4996,1.58222 -16.2285,4.4375 -2.3345,2.34677 -4.4185,4.9951 -6.1933,7.95899 l -2.0957,3.5 0,-4.15821 c -3.0157,3.74064 -5.4134,8.29973 -7.0586,13.58594 -1.6461,5.28892 -1.9453,9.24036 -1.9453,25.66211 l 0,19.41016 8,0 2,0 0,-9.41016 c 0,-16.42175 0.2992,-20.37319 1.9453,-25.66211 4.9351,-15.85661 16.6112,-25.22196 31.5761,-25.32422 2.661,-0.0182 4.9497,0.21947 6.9493,0.72266 -2.5623,-7.84716 -7.5444,-10.78688 -16.9493,-10.72266 z m -92.3066,3.14063 c 0.09,0.1203 0.1862,0.2363 0.2754,0.35742 20.5079,27.858 8.5064,68.13346 -23.9941,80.51562 -8.76,3.33738 -26.6669,4.3043 -35.2266,1.90235 -7.1151,-1.99656 -13.4938,-5.20831 -18.9492,-9.36133 6.8893,9.08857 16.8641,15.97014 28.9492,19.36133 8.5597,2.40195 26.4666,1.43503 35.2266,-1.90235 32.5005,-12.38216 44.502,-52.65762 23.9941,-80.51562 -2.8744,-3.90459 -6.3398,-7.37843 -10.2754,-10.35742 z m 866,0 c 0.09,0.1203 0.1862,0.2363 0.2754,0.35742 20.5079,27.858 8.5065,68.13346 -23.9941,80.51562 -8.8347,3.36588 -26.6569,4.30617 -35.377,1.86524 -6.9338,-1.94089 -13.3003,-5.17854 -18.8125,-9.41602 7.0728,9.21896 17.1418,16.14918 28.8125,19.41602 8.7201,2.44093 26.5423,1.50064 35.377,-1.86524 32.5006,-12.38216 44.502,-52.65762 23.9941,-80.51562 -2.8744,-3.90459 -6.3398,-7.37843 -10.2754,-10.35742 z m -387.5078,5.75586 -0.8418,4 c -0.4625,2.2 -5.6848,19.41147 -11.6055,38.24804 l -10.7636,34.24805 -10.7832,0.002 c -1.5254,2.4e-4 -2.7414,-0.0257 -3.9258,-0.0547 1.3621,4.48242 2.5936,8.52431 2.6953,8.80664 0.3225,0.895 3.511,1.24926 11.2305,1.24804 l 10.7832,-0.002 10.7636,-34.24805 c 3.6887,-11.73554 6.9548,-22.37258 9.1192,-29.60937 -3.1232,-10.08963 -5.6961,-18.4987 -5.9649,-19.63867 l -0.707,-3 z m -595.7109,9.5 0,6 -24.5,0 -24.5,0 0,22.5 0,22.5 9.5,0 0.5,0 0,-12.5 0,-22.5 24.5,0 24.5,0 0,-8 0,-8 -10,0 z m 809.4668,13.38672 c 4.227,7.73977 13.2249,13.1664 32.9082,20.53515 4.3779,1.63894 7.6932,2.99194 10.3261,4.22852 -0.2361,-1.00534 -0.6256,-2.03595 -1.1777,-3.10352 -1.9787,-3.82643 -6.1965,-6.27625 -19.1484,-11.125 -10.2571,-3.8399 -17.6123,-7.15034 -22.9082,-10.53515 z m -385.0059,6.61328 -4.9004,14.25 c -2.6951,7.8375 -5.0894,14.79268 -5.3203,15.45507 -0.2969,0.85168 1.7299,1.29098 6.9199,1.5 l 5.9238,0.23829 c 0.9363,-2.72007 1.2222,-3.54546 2.4766,-7.19336 l 4.9004,-14.25 25.0391,0 18.4765,0 -3.4394,-10 -25.0371,0 -25.0391,0 z m 445.2871,8.11328 c 0.7549,1.42658 1.3692,2.92886 1.8418,4.55469 4.6211,15.89579 -5.0953,29.84312 -24.2715,34.83789 -7.1091,1.85168 -22.7883,1.82021 -30.5469,-0.0606 -4.6611,-1.1299 -8.8804,-2.83726 -12.4414,-4.99219 0.7636,1.53355 1.8432,2.94841 3.3809,4.65039 4.2777,4.73486 11.019,8.39249 19.0605,10.3418 7.7586,1.88076 23.4378,1.91223 30.5469,0.0606 19.1762,-4.99477 28.8926,-18.9421 24.2715,-34.83789 -1.7224,-5.92505 -5.0908,-10.35268 -11.8418,-14.55469 z m -59.0937,16.38672 c 0.5315,1.16516 1.4008,2.09726 2.8828,3.39843 1.8257,1.60296 3.9198,2.81349 6.4199,3.67188 -0.063,-0.56222 -0.117,-1.16629 -0.1582,-1.87891 l -0.2988,-5.1914 -8.5,0 -0.3457,0 z m -29.9942,6.65625 -3.1328,2.38867 c -0.078,0.0593 -0.1598,0.11506 -0.2383,0.17383 0.3052,0.89086 0.4362,1.54759 0.3301,1.82422 -0.8014,2.08827 -8.2627,6.49433 -16.6211,9.81445 -6.578,2.61287 -8.9753,3.01844 -19.5,3.30273 -15.4827,0.41822 -25.5371,-2.26423 -35.0176,-9.76367 1.3691,1.74747 2.8637,3.44962 4.5176,5.10352 11.2682,11.26821 22.0177,15.15939 40.5,14.66015 10.5247,-0.28429 12.922,-0.68986 19.5,-3.30273 8.3584,-3.32012 15.8197,-7.72618 16.6211,-9.81445 0.2896,-0.75476 -1.1583,-4.30176 -3.2168,-7.88086 l -3.7422,-6.50586 z m 515.4727,1.04882 c -0.1112,0.0517 -2.1399,1.0662 -2.9121,1.44922 l 0.9726,1.76954 -2.3476,1.93359 c -3.5563,2.92783 -15.6048,8.38912 -22.3067,10.11133 -7.9704,2.04819 -23.322,1.88156 -31.039,-0.33594 -6.1194,-1.75842 -11.6258,-4.57738 -16.4239,-8.19531 6.4297,8.51718 15.4557,15.04358 26.4239,18.19531 7.717,2.2175 23.0686,2.38413 31.039,0.33594 6.7019,-1.72221 18.7504,-7.1835 22.3067,-10.11133 l 2.3476,-1.93359 -3.7129,-6.75586 c -2.0425,-3.71602 -3.999,-6.6249 -4.3476,-6.4629 z m -966.3926,8.41211 -0.2402,6.88282 -6,0.1914 c -9.0987,0.2904 -17.6314,-1.84379 -24.0801,-5.86718 1.2042,1.88542 2.6543,3.63723 4.4355,5.51171 6.5345,6.87664 17.5969,10.73999 29.6446,10.35547 l 6,-0.1914 0.289,-8.25 0.291,-8.25 -5.791,-0.0215 c -1.6123,-0.006 -3.1246,-0.13097 -4.5488,-0.36133 z m 190.1133,0.18946 0.2363,6.19336 -25.0879,0 -14.709,0 -0.086,2.25 -0.293,7.75 25.0879,0 25.0879,0 -0.2949,-7.75 -0.2949,-7.75 -6.9532,-0.5 -2.6933,-0.19336 z m -549.8535,0.19336 0,6 -28,0 -18,0 0,2 0,8 28,0 28,0 0,-8 0,-8 -9.5,0 -0.5,0 z m 458.8593,0.0645 0.2246,5.93555 -24.5429,0 -14.541,0 0,2 0,8 24.541,0 24.5429,0 -0.2929,-7.75 -0.291,-7.75 -7.3399,-0.29493 c -0.9012,-0.0363 -1.5859,-0.0895 -2.3008,-0.14062 z m -236.8554,0.93555 0,5 -25.5,0 -15.5,0 0,2.5 0,7.5 25.5,0 25.5,0 0,-7.5 0,-7.5 -8,0 -2,0 z m 72,0 0,5 -17.5,0 -7.5118,0 0.012,10 17.5,0 17.5,0 0,-7.5 0,-7.5 -7.9258,0 -2.0742,0 z m 793.9961,0 0,5 -25.5,0 -15.5,0 0,2.5 0,7.5 25.5,0 25.5,0 0,-7.5 0,-7.5 -8,0 -2,0 z m 67,0 0,5 -17.4239,0 -7.5136,0 0.09,10 17.4238,0 17.4238,0 0,-7.5 0,-7.5 -8.1133,0 -1.8867,0 z m 67,0 0,5 -17.5,0 -7.5,0 0,10 17.5,0 17.5,0 0,-7.5 0,-7.5 -8,0 -2,0 z"
         style="color:#bebebe;clip-rule:nonzero;display:inline;overflow:visible;visibility:visible;opacity:0.2;isolation:auto;mix-blend-mode:normal;color-interpolation:sRGB;color-interpolation-filters:linearRGB;solid-color:#000000;solid-opacity:1;fill:#333333;fill-opacity:1;fill-rule:nonzero;stroke:none;stroke-width:1;stroke-linecap:butt;stroke-linejoin:miter;stroke-miterlimit:4;stroke-dasharray:none;stroke-dashoffset:0;stroke-opacity:1;marker:none;color-rendering:auto;image-rendering:auto;shape-rendering:auto;text-rendering:auto;enable-background:accumulate" />
      <path
         id="rect4173"
         d="m -1634.8457,126.1875 -8.0117,22.28125 c -4.4064,12.2543 -14.4799,40.38899 -22.3867,62.52148 l -14.375,40.24024 -6.75,0.008 -6.75,0.01 0,8 0,8 24.541,0 24.5429,0 -0.2929,-7.75 -0.291,-7.75 -7.3399,-0.29493 c -5.19,-0.20903 -7.2168,-0.64833 -6.9199,-1.5 0.2309,-0.6624 2.6252,-7.61757 5.3203,-15.45507 l 4.9004,-14.25 25.0391,0 25.0371,0 4.9004,14.25 c 2.6951,7.8375 5.0894,14.79267 5.3203,15.45507 0.2969,0.85167 -1.73,1.29097 -6.9199,1.5 l -7.3379,0.29493 -0.293,7.75 -0.293,7.75 25.0879,0 25.0879,0 -0.2949,-7.75 -0.2949,-7.75 -6.9532,-0.5 -6.9511,-0.5 -22.209,-62 -22.2071,-62 -11.4531,-0.2793 z m -524.2734,0.0606 0,7.5 0,7.5 8.5,0 8.5,0 0,55 0,55 -8.5,0 -8.5,0 0,8 0,8 28,0 28,0 0,-8 0,-8 -9.5,0 -9.5,0 0,-22.5 0,-22.5 24.5,0 24.5,0 0,-8 0,-8 -24.5,0 -24.5,0 0,-23.5 0,-23.5 21.5,0 21.5,0 0,8 0,8 8.5,0 8.5,0 0,-16.5 0,-16.5 -48.5,0 z m 370,12 0,14 0,14 -8.5,0 -8.5,0 0,7.5 0,7.5 8.5,0 8.5,0 0,26.95117 c 0,34.26231 1.1993,40.27556 9.8554,49.38476 6.5345,6.87664 17.5969,10.73999 29.6446,10.35547 l 6,-0.1914 0.289,-8.25 0.291,-8.25 -5.791,-0.0215 c -7.8209,-0.0297 -13.4075,-2.68703 -16.9746,-8.07422 l -2.8144,-4.2539 -0.295,-28.82422 -0.2929,-28.82617 12.0429,0 12.045,0 0,-7.5 0,-7.5 -12,0 -12,0 0,-14 0,-14 -10,0 z m 165.3535,5.5 1.7011,6.5 c 0.9356,3.575 5.3551,16.84635 9.8223,29.49218 4.4671,12.64584 8.1231,23.33334 8.1231,23.75 0,0.41667 -8.775,0.75782 -19.5,0.75782 -10.725,0 -19.5,-0.30263 -19.5,-0.67383 0,-0.3712 4.0451,-12.08073 8.9902,-26.01953 4.9451,-13.9388 9.3005,-27.24673 9.6777,-29.57422 z m 288.1953,20.05664 c -2.5853,-0.0511 -5.253,0.0921 -7.9902,0.4414 -13.0516,1.66566 -21.8629,6.17694 -30.4747,15.59961 -8.7702,9.59607 -13.0859,21.6002 -13.0859,36.40235 0,15.7818 4.7075,27.70752 15,38 11.2682,11.26821 22.0177,15.15939 40.5,14.66015 10.5247,-0.28429 12.922,-0.68986 19.5,-3.30273 l 0,0 c 8.3584,-3.32012 15.8197,-7.72618 16.6211,-9.81445 0.2896,-0.75476 -1.1583,-4.30176 -3.2168,-7.88086 l -3.7422,-6.50586 -3.1328,2.38867 c -11.657,8.8912 -30.8737,11.34029 -42.9825,5.47851 -9.5957,-4.64517 -16.9404,-15.10195 -18.2246,-25.94531 l -0.6015,-5.07812 37.1386,0 37.1407,0 -0.016,-7.25 c -0.057,-27.96246 -17.4444,-46.69922 -42.4355,-47.19336 z m 96.2207,0.0723 c -2.1991,0.006 -4.4109,0.14071 -6.6035,0.41602 -22.5829,2.83558 -34.7862,16.99343 -29.7071,34.46484 3.0711,10.56411 11.3484,16.58917 34.9161,25.41211 12.9519,4.84875 17.1697,7.29857 19.1484,11.125 2.355,4.55393 1.8463,8.46183 -1.6152,12.4043 -3.673,4.18328 -8.714,5.80358 -17.9414,5.76758 -8.6546,-0.0338 -14.2468,-1.64774 -18.4297,-5.32032 -2.9659,-2.60415 -3.4793,-3.72747 -3.7383,-8.20703 l -0.2988,-5.1914 -8.5,0 -8.5,0 0.07,6.5 c 0.099,8.91122 0.8965,11.40584 5.1406,16.10351 4.2777,4.73486 11.019,8.39249 19.0605,10.3418 7.7586,1.88076 23.4378,1.91228 30.5469,0.0606 l 0,0 c 19.1762,-4.99477 28.8926,-18.9421 24.2715,-34.83789 -3.0175,-10.38002 -11.0439,-16.16341 -33.5665,-24.19141 -15.7109,-5.6001 -22.0253,-10.37662 -22.0253,-16.66016 0,-8.02949 6.2333,-12.2832 18,-12.2832 12.1074,0 18,4.22897 18,12.91797 l 0,3.54883 8.5,0 8.5,0 0,-7.03125 c 0,-3.86766 -0.6086,-8.4872 -1.3516,-10.26563 -3.6845,-8.81808 -18.4853,-15.11388 -33.8789,-15.07422 z m 243.8164,0.0391 c -13.0879,0.0273 -26.1004,7.29735 -33.748,19.27734 l -2.8379,4.44726 0,-7.26171 c 0,-12.77977 -2.0507,-14.13086 -21.4512,-14.13086 l -13.5488,0 0,7.45898 0,7.45703 7.75,0.29297 7.75,0.29102 0.2617,35.25 0.2636,35.25 -7.5136,0 -7.5117,0 0,7.5 0,7.5 25.5,0 25.5,0 0,-7.5 0,-7.5 -8,0 -8,0 0,-18.78907 c 0,-20.98155 0.9565,-26.59683 6.2109,-36.45507 7.0462,-13.21991 21.1144,-19.16449 32.4121,-13.69532 3.1886,1.5436 4.8355,3.23594 6.5664,6.75 2.2638,4.59588 2.3166,5.41608 2.6367,40.93946 l 0.3262,36.25 17.4238,0 17.4239,0 0,-7.5 0,-7.5 -8.1133,0 -8.1153,0 0.4688,-20.75 c 0.3972,-17.63198 0.7864,-21.72673 2.5957,-27.25 4.1586,-12.69439 13.7123,-21.58054 24.3809,-22.68164 11.1846,-1.15435 17.7285,3.80873 19.6621,14.91211 0.6708,3.85176 1.1211,19.34496 1.1211,38.60156 l 0,32.16797 17.5,0 17.5,0 0,-7.5 0,-7.5 -8,0 -8,0 0,-29.05274 c 0,-32.38613 -0.8662,-39.19197 -5.9668,-46.89648 -5.5188,-8.33624 -14.1145,-12.32871 -26.5332,-12.32227 -13.0664,0.007 -25.9285,6.92162 -33.1739,17.83399 l -3.6269,5.46289 -1.711,-5.0586 c -3.4554,-10.20716 -10.5951,-16.05414 -21.8046,-17.85937 -1.8573,-0.29911 -3.728,-0.44336 -5.5977,-0.43945 z M -821.7481,164 c -22.5139,0.10355 -39.6242,12.10921 -46.8906,32.9043 -10.5141,30.08962 4.9488,62.12302 34.0196,70.47656 7.717,2.2175 23.0686,2.38413 31.039,0.33594 6.7019,-1.72221 18.7504,-7.1835 22.3067,-10.11133 l 2.3476,-1.93359 -3.7129,-6.75586 c -2.0425,-3.71602 -3.999,-6.6249 -4.3476,-6.4629 -0.3485,0.16203 -4.4578,2.2071 -9.1328,4.54493 -24.4703,12.23687 -48.3234,3.50203 -54.5762,-19.98633 -2.5788,-9.68734 -6.313,-8.76367 35.4433,-8.76367 l 36.8692,0 0.5371,-4.00586 c 0.2955,-2.20324 0.1533,-7.04074 -0.3164,-10.75 -3.1855,-25.15896 -19.1296,-39.60467 -43.586,-39.49219 z m -1036.871,0.0508 c -16.2724,0.0409 -29.6548,7.26875 -37.3965,20.19727 l -2.0957,3.5 0,-7.31446 c -0.01,-12.84168 -2.0383,-14.18554 -21.4551,-14.18554 l -13.5488,0 0,7.45898 0,7.45703 7.75,0.29297 7.75,0.29102 0.2617,35.25 0.2637,35.25 -7.5137,0 -7.5117,0 0,7.5 0,7.5 25.5,0 25.5,0 0,-7.5 0,0 0,-7.5 -8,0 -8,0 0,-19.41016 c 0,-16.42175 0.2992,-20.37319 1.9453,-25.66211 4.9351,-15.85661 16.6112,-25.22196 31.5761,-25.32422 11.9785,-0.0818 16.8013,4.67151 18.5586,18.28906 0.4689,3.634 0.8688,20.21993 0.8868,36.85743 l 0.033,30.25 17.5,0 17.5,0 0,-7.5 0,-7.5 -7.9258,0 -7.9258,0 -0.3574,-31.75 c -0.3431,-30.56087 -0.444,-31.97084 -2.709,-37.66797 -5.2057,-13.09442 -14.5272,-18.81965 -30.582,-18.7793 z m -141.1993,0.0449 c -5.8082,-0.002 -11.6882,0.53812 -15.7207,1.62305 -13.9396,3.75035 -26.2491,13.55053 -32.6972,26.03125 -4.6362,8.97347 -5.9955,14.75521 -5.9785,25.41992 0.038,23.87018 15.6565,43.94369 39.3691,50.59766 8.5597,2.40195 26.4666,1.43503 35.2266,-1.90235 32.5005,-12.38216 44.502,-52.65762 23.9941,-80.51562 -6.8243,-9.27017 -16.9493,-16.14179 -28.9043,-19.61719 -3.7433,-1.08821 -9.4809,-1.63426 -15.2891,-1.63672 z m 866.002,0 c -5.8082,-0.002 -11.6902,0.53812 -15.7227,1.62305 -17.787,4.78546 -32.5373,19.41974 -37.1914,36.89844 -1.8832,7.07272 -1.7668,21.99367 0.2227,28.69922 5.201,17.5295 19.4436,31.35649 37.5117,36.41406 8.7201,2.44093 26.5423,1.50064 35.377,-1.86524 32.5006,-12.38216 44.502,-52.65762 23.9941,-80.51562 -6.8243,-9.27017 -16.9493,-16.14179 -28.9043,-19.61719 -3.7433,-1.08821 -9.4789,-1.63426 -15.2871,-1.63672 z m -427.3027,2.15235 0,7.5 0,7.5 6.4394,0 6.4395,0 2.4922,8.25 c 1.3711,4.5375 7.0309,23.325 12.5781,41.75 5.5472,18.425 10.2894,34.0625 10.5371,34.75 0.3225,0.895 3.511,1.24926 11.2305,1.24804 l 10.7832,-0.002 10.7636,-34.24805 c 5.9207,-18.83657 11.143,-36.04804 11.6055,-38.24804 l 0.8418,-4 0.707,3 c 0.389,1.65 5.0096,16.725 10.2676,33.5 5.2579,16.775 10.196,32.6375 10.9746,35.25 l 1.416,4.75 10.9336,0 10.9336,0 1.5332,-5.25 c 0.8429,-2.8875 6.6269,-22.125 12.8535,-42.75 l 11.3203,-37.5 6.1739,-0.29688 6.1758,-0.29883 0,-7.45117 0,-7.45312 -22.5,0 -22.5,0 0,7.5 0,7.5 7.1054,0 c 5.9805,0 7.0136,0.24462 6.5176,1.53711 -0.8522,2.22079 -17.2312,58.21357 -18.418,62.96289 -0.92,3.68193 -1.0068,3.76145 -1.0957,1 -0.053,-1.65 -5.3494,-20.4375 -11.7695,-41.75 l -11.6738,-38.75 -8.8008,0 -8.8027,0 -2.5059,8.25 c -14.0736,46.30586 -20.5566,68.50436 -20.5566,70.38476 0,1.23615 -0.45,2.52532 -1,2.86524 -0.571,0.35286 -1,-0.52215 -1,-2.04102 0,-1.98518 -11.8782,-44.32636 -17.5918,-62.70898 -0.48,-1.54424 0.2282,-1.75 6.0234,-1.75 l 6.5684,0 0,-7.5 0,-7.5 -22.5,0 z m 740.7363,13.07422 c 3.1103,0.0191 5.0432,0.59529 8.5039,2.17968 8.0912,3.70427 13.7598,12.50823 13.7598,21.37305 l 0,3.37305 -26.5801,0 -26.5801,0 0.7031,-3.25 c 1.0842,-5.015 4.9363,-11.9997 8.6211,-15.63477 5.0208,-4.95309 10.487,-7.35339 17.9707,-7.89062 1.3986,-0.10041 2.5648,-0.15675 3.6016,-0.15039 z m -516.6055,0.0234 c 2.3354,0.003 4.6469,0.29598 6.8672,0.89649 8.713,2.35651 17.002,13.9048 17.002,23.6875 l 0,2.31836 -26.5,0 -26.5,0 0,-2.33985 c 0,-3.55805 5.7245,-14.25078 9.1914,-17.16797 5.7027,-4.79857 12.9332,-7.40428 19.9394,-7.39453 z m -661.7109,1.18946 c 0.6447,0.0255 1.2741,0.0791 1.8847,0.16015 15.6582,2.07714 26.424,11.52742 30.2813,26.58399 6.6366,25.90484 -15.4516,50.16609 -40.5859,44.57812 -7.8439,-1.74387 -13.0543,-4.76123 -18.3106,-10.60742 -11.8527,-13.18305 -12.4191,-33.27731 -1.3594,-48.23633 5.2883,-7.15276 18.4192,-12.86091 28.0899,-12.47851 z m 866,0 c 0.6447,0.0255 1.2741,0.0791 1.8847,0.16015 15.6583,2.07714 26.424,11.52742 30.2813,26.58399 6.6365,25.90484 -15.4516,50.16609 -40.5859,44.57812 -7.8438,-1.74387 -13.0544,-4.76123 -18.3106,-10.60742 -11.8527,-13.18305 -12.419,-33.27731 -1.3594,-48.23633 5.2884,-7.15276 18.4192,-12.86091 28.0899,-12.47851 z"
         style="color:#bebebe;clip-rule:nonzero;display:inline;overflow:visible;visibility:visible;opacity:1;isolation:auto;mix-blend-mode:normal;color-interpolation:sRGB;color-interpolation-filters:linearRGB;solid-color:#000000;solid-opacity:1;fill:#333333;fill-opacity:1;fill-rule:nonzero;stroke:none;stroke-width:1;stroke-linecap:butt;stroke-linejoin:miter;stroke-miterlimit:4;stroke-dasharray:none;stroke-dashoffset:0;stroke-opacity:1;marker:none;color-rendering:auto;image-rendering:auto;shape-rendering:auto;text-rendering:auto;enable-background:accumulate" />
    </g>
  </g>
</svg>
