<svg xmlns="http://www.w3.org/2000/svg" width="64" height="64"><path d="M91.5-150c0-.003-28.314 6.296-28.314 6.296l16.697-25.935L99-213.011l-57.206-24.938-35.133-55.378-4.354-70.08 26.565-55.153 55.37-34.065 68.908-3.624 42.012 21.16 23.806 1.565-18.069 16.78L145.9-422.3l-48.852 13.161-27.458 31.475-8.896 44.115 18.137 33.262 24.86 2.964 88.371-87.884 46.408-6.425 45.961 26.041 20.682-15.871 30.705-10.457 37.615 12.75 62.867 75.885 22.8 4.236L478-324.52 476.231-371l-25.412-36.269L415.2-419.3l-28.816 5.001-35.984-2.85-5.1-11.351 29.8-11.7 23.9-12.1 36.6-2.484 53.9 20.984 37.9 52.5 4.9 74.5-32.7 60.6-46 23.1 1.2 17.7 12.8 1.6-5.3 11.9-29.9 1.1-57.6-25.5 8.3 34.6h28.3l8.4 29.3-28.3 33.1 15.3 18.2-19.5 18.2-3 27.7-39.4 11.6 9.6 31-61.1 54.8L251.45-10l-30.222-2.595 8.613-30.996-34.502-15.849.604-23.394-23.883-23.732-18.866-65.334L91.5-150.003v.003z" fill="#fff"/><path d="M13.527 37.15c-.435.029-1.002.224-1.381.905-.31.556-1.037.644-1.376.532-.565-.186-1.288-.316-1.987.183-.7.498-1.456.121-1.323-.787.132-.909.46-1.718 1.332-2.22 1.902-1.094.58-1.856 1.624-2.954 1.047-1.1.816-1.438.78-2.932-3.535-.532-5.54-1.55-7.778-4.347C1.18 22.734.313 20.432.081 16.926-.151 13.421.05 11.15 1.565 8.24c1.514-2.91 3.109-4.311 5.873-5.764C10.2 1.022 12.909.675 15.412.717c2.503.042 4.17.225 5.585 1.032 1.414.807 2.707 1.822 3.532 1.83.825.007 1.387-.209 1.787-.516.107 2.717-2.338 2.953-4.526 3.01-2.189.058-3.533-.847-5.549-.51-2.015.336-5.315 1.254-6.922 4.051-1.607 2.798-1.662 3.787-1.529 6.134.134 2.346 2.153 4.097 3.293 4.116 1.14.019 1.395-.311 2.393-.962.998-.651 6.092-6.957 7.83-8.374 1.738-1.416 3.454-1.854 5.306-1.876 1.852-.023 2.325.04 3.82.652 1.493.612 2.411 1.74 3.615 2.429.616-.362.998-.903 1.563-1.316 2.02-1.477 3.07-1.875 5.471-1.641 1.38.134 3.12.923 4.158 1.825 1.85 1.608 3.376 3.846 4.61 5.546.962 1.324 2.093 2.908 3.707 3.403 1.763.54 3.09-1.743 3.284-3.01.11-.717.254-1.346.256-2.135 0-.79-.08-1.749-.307-2.572a9.162 9.162 0 0 0-1.04-2.321c-.688-1.106-1.812-2.263-2.982-2.858-.657-.334-2.202-.94-3.176-.962-1.193-.026-2.102.375-3.205.45-1.336.091-3.721.391-4.768-.64-.666-.657-.75-1.095-.864-1.95a2.04 2.04 0 0 0 1.073.432c.836.07 1.619-.612 2.294-1.008.556-.326 1.343-.908 2.073-1.202 1.877-.757 4.182-.735 6.162-.533 1.588.163 3.646.87 5.039 1.657 1.399.792 2.747 2.126 3.735 3.384 1.242 1.583 1.921 2.941 2.371 4.915.575 2.521.735 6.309.04 8.794-.549 1.96-2.368 4.968-3.917 6.443-1.528 1.455-3.292 2.157-5.297 2.542.078.404.091.782.195 1.114.147.47.43.996 1.009.83.23-.066.354-.124.659.143.304.266.146 1.296-.71 1.758-.435.234-.894.285-1.59.299-.695.013-1.78.016-2.536-.116-.755-.132-1.206-.731-2.043-.825-1.292-.145-2.282-1.079-3.319-1.747-.432-.278-.578-.281-.827-.422.134.412.314.84.403 1.237.09.396.052.763.1 1.08.047.317.135.564.186.82.207.186.273.468.621.556.348.089.893-.05 1.25-.097.356-.048.594-.242.874-.189.28.053.544.253.778.441.235.188.436.215.626.683.19.468.363 1.426.389 2.067.026.64-.046 1.219-.236 1.727-.19.509-.356.734-.87 1.237-.515.504-1.352 1.243-2.187 1.758.154.227.222.436.462.683.24.247.74.525.962.785.223.261.335.448.339.74.003.293-.011.673-.249.992-.591.794-1.29.936-2.141 1.31.143.893.26 1.531.053 2.423-.085.363-.272 1.187-.72 1.399-.449.211-1.313.109-1.86.196-.548.087-.854.17-1.28.254-.26.375-.646.788-.778 1.124-.133.336-.093.457.018.8.112.343.49.842.598 1.244a2.5 2.5 0 0 1 .028 1.237c-.1.403-.272.695-.616 1.053-.343.357-1.018.638-1.354.928-.337.29-.672.325-.58.805.126.66 1.09 1.728 1.786 1.982.417.153.978.105 1.485-.109-.035.563-.522.942-.84 1.316.862-.246 1.698-.718 2.276-1.344-.18.544-.796 1.416-1.72 2.181-.922.766-.916.61-1.375.914a6.04 6.04 0 0 0 2.264.006 4.477 4.477 0 0 1-1.71.553c-.772.08-1.248.023-1.943-.145-.696-.17-1.33-.802-2.173-1.238.082.313.14.69.495 1.01.354.322.89.486 1.46.764-.725-.083-1.488-.108-2.2-.265a5.145 5.145 0 0 1-1.27-.431c-.386-.191-.684-.47-1.026-.705.164.313.213.68.492.939.279.258.732.354 1.099.531-.383-.008-.75.075-1.147-.025a3.228 3.228 0 0 1-1.181-.56 8.574 8.574 0 0 1-1.19-1.06c-.351-.383-.786-.879-.917-1.231-.132-.353.079-.6.118-.899-.242.16-.541.247-.728.48-.186.23-.352.442-.27.846.083.404.456.897.72 1.346-.787-.643-1.226-.89-1.413-1.666-.175-.726.278-1.385.622-1.934.172-.273.427-.526.587-.79-.355-.347-.76-.646-1.065-1.042-.304-.396-.432-.932-.743-1.311-.31-.38-.728-.62-1.092-.929.32.687.845 1.53.96 2.062.114.532-.128.858-.317 1.145-.19.287-.494.351-.783.528-.289.176-.739.037-.91.3-.173.261-.22.655-.055.915l.676 1.065c-.25-.125-.678-.49-.87-.75-.194-.259-.49-.498-.531-.848-.04-.35-.06-.654.166-.966.227-.312.849-.416 1.127-.656.278-.24.434-.396.418-.706-.016-.31-.319-.531-.579-.727-.794-.596-1.814-1.145-2.488-1.863-.381-.406-.564-.733-.64-1.013-.077-.28.004-.498.193-.843.19-.344.839-.804.918-1.178.079-.374-.25-.454-.545-.586-.296-.132-.859.068-1.133-.162-.275-.23.08-.711-.229-.976-.31-.264-1.017-.117-1.383-.401-.365-.285-.516-.638-.642-1.05-.126-.413-.14-.865-.055-1.164.085-.299.342-.351.497-.506.154-.155.288-.284.082-.515-.206-.23-.881.013-1.27-.283-.388-.297-.15-1.007-.425-1.306-.274-.3-.767-.182-1.027-.278-.26-.096-.362.242-.521-.292-.16-.534-.164-2.124-.378-2.718-.215-.594-.636-.04-.832-.63-.195-.59-.01-1.534-.098-2.425l-.4-2.425c-1.392.936-2.311 1.23-3.807 1.494-.125 3.66-.469 5.816.774 9.877 1.242 4.061 3.756 6.455 7.149 9.893-4.476-3.353-6.613-6.08-7.95-9.572-1.339-3.493-1.082-6.414-.947-9.778zm23.785-1.472c.344.015.762.103 1.004.26.242.157.499.285.718.509.548.557.959 1.23 1.14 2.003.116.493.133 1.125.176 1.703-.166-.534-.278-1.092-.514-1.571-.372-.756-1.005-1.493-1.79-1.833a.954.954 0 0 0-.575-.071c.064.107.17.197.175.354.005.156-.03.463-.296.593-.43.208-.906.061-1.238-.232a1.095 1.095 0 0 1-.273-1.223c.209-.512 1.003-.513 1.473-.492zm-4.318-.728c.043-.88.36-1.62 1.148-2.052.408-.222 1.035-.51 1.612-.578.554-.065 1.902-.018 2.713.352.622.284 1.046.727 1.593 1.05.547.323.935.54 1.456.903.799.557 1.267 1.17 1.82 1.537.267.176.642.15.995.258-.275.082-.634.172-.93.077-.37-.118-.887-.456-1.174-.699-.507-.428-.77-.637-1.324-.96-.33-.192-.874-.42-1.237-.656-.363-.237-.994-.756-1.343-.932-.444-.224-1.243-.348-1.737-.333-.68.02-1.665.132-2.192.61-.523.475-.722.893-.604 1.51.197-.228.328-.513.526-.682.409-.349.878-.366 1.387-.3.572.075.86.405 1.048.948-.127-.093-.36-.298-.545-.362-.433-.15-.76-.103-1.166.114-.478.257-.348.637-.417 1.06-.032.195-.105.352-.158.528a1.04 1.04 0 0 1-.483-.258c.006.198-.023.37.018.593.04.222.148.486.222.729-.333-.334-.674-.644-.89-1.075-.215-.43-.361-.909-.338-1.382zm.577-6.399c.246-.365.317-.924.469-1.379-.06.576.056 1.21-.225 1.627-.282.417-.776.344-1.185.465.318-.242.695-.348.94-.713zm-5.883 8.543c.315-.256 1.167-.052 1.804-.006l-1.374.352c-.042.155-.023.334-.128.467-.104.133-.303.182-.454.273.015-.41-.164-.831.152-1.086zm4.487-17.742c.38.205.863.475 1.199.484.335.008.423-.22.62-.351.311 1.013.668 2.126 1.197 3.046.222.385.363.206.532.593.168.387.243 1.174.403 1.669.16.494.368.858.552 1.287-.468-.662-1.072-1.508-1.333-2.06-.26-.55-.093-.599-.304-1.124-.211-.525-.638-1.344-.956-2.016-.228.03-.51.072-.684.019-.174-.054-.14-.238-.296-.358-.157-.119-.42-.073-.64-.263-.22-.19-.27-.58-.29-.926zm-2.047 5c.358-.032.802.064 1.137.045.335-.019.574-.106.862-.159-.054-.504-.003-1.432-.469-1.768-.3-.218-1.537-.054-1.867.017-.743.16-1.608.603-2.326.88.688-.48 1.283-.926 2.109-1.174.496-.15 1.655-.344 2.167-.205.234.063.281.16.423.358.488.68.486 1.27.613 2.062.124.194.257.323.357.523.1.2.158.515.186.772-.128-.185-.05-.417-.403-.555-.354-.138-.895-.01-1.372.04.348.251.52.493.534 1.023.015.622-.512 1.07-1.062 1.112-.763.06-1.157-.108-1.466-.76-.135-.287-.037-.63-.048-.91-.918.065-.903.035-1.573.594.364.534.594.84 1.196 1.16.338.18.72.354 1.139.425.419.071 1.105.14 1.545.073.44-.068.69-.193 1.015-.495.326-.302.356-.733.484-1.075-.03.329-.067.747-.189.985-.371.725-1.013.94-1.779.942a6.511 6.511 0 0 1-2.33-.45c-.546-.227-1.453-.87-1.668-1.427-.147-.381-.031-.85-.046-1.274.757-.503.945-.38 1.84-.527.376-.062.633-.2.991-.232zm-4.412-3.412c.021-.302.055-.295.082-.443-.69-.184-.967.263-1.371 1.095-.152.31-.002.496-.164.7-.162.206-.424.177-.687.374-.264.196-.525.573-.771.776-.506.418-1.189.673-1.775.954.4-.295 1.177-.743 1.429-1.172.133-.228.113-.657.32-.862.208-.204.28-.346.549-.398.268-.052.16-.363.246-.61.087-.246.259-.422.442-.668.183-.247.414-.617.776-.751.361-.135.925.01 1.199-.067s.116-.276.315-.396c.2-.12.586-.067.852-.194.471-.227.697-.605.98-1.01.041.872.031 1.5-.282 2.32-.353.922-.71 1.466-1.711 2.033-.345.196-.689.264-.975.366.167-.227.406-.326.5-.682.095-.356.025-1.063.046-1.365zm16.164 4.25c-.476.031-.59-.031-.97.237l.619.964c-.018-.634.044-.761.35-1.2zm-1.248-.46c.66-.281 1.234-.508 1.951-.553.288-.018.734.026 1.025.04.247-.365.562-.652.678-1.068.076-.275.038-1.555-.097-1.887-.394-.967-.778-1.007-1.32-1.561-.395-.402-.41-1.013-.528-1.698-.043-.252-.167-.57-.225-.83a10.59 10.59 0 0 0-2.289-.119c.396-.38.779-.726.892-1.296.114-.57.022-1.271-.302-1.782-.324-.511-.842-.957-1.317-1.373-.475-.416-1.157-.76-1.607-1.1.586-.21 1.184-.519 1.757-.63 1.495-.29 2.783.154 4.224 1.025.838.507 1.532.989 2.408 1.906.876.917 1.962 2.6 2.81 3.597.848.998 1.533 1.787 2.273 2.382.74.595 1.41.764 2.114 1.147l1.098 1.166.89-1.1 1.43.162.295-1.606 1.313-.36-.214-2.163.944-.67-.71-1.347.72-1.471-.939-1.682.363-1.62-1.088-.926-.142-1.721-1.518-.58-.608-1.496-1.707-.02-.837-1.11-1.148.08-1.28-.14-.725-.534-1.05.697-1.272-.663-2.528.96 1.648-1.433 1.707-.273 1.308-.333 1.766.58 1.555-.394 1.499.886 1.586-.088.78 1.399 1.579.182.854 1.554.994.543.263 1.991.885.84-.389 1.742 1.042 1.32-.977 1.413 1.045.884-1.336 1.184 1.353 1.409-1.634.527 1.064 1.51-1.334.231.875 1.662-1.504-.02.758 1.244-1.65-.198.394 1.79-1.246-1.097-.427 2.17-.86-1.558-.467 1.944-1.062-1.433.03 2.038-1.175-1.833c.248 1.04.198 2.178.881 3.159 2.116-.287 3.499-.82 5.12-2.38 1.476-1.42 3.24-4.382 3.718-6.26.546-2.145.562-6.087.025-8.27-.516-2.101-1.188-3.105-2.388-4.82-1.148-1.218-2.276-2.505-3.732-3.374-2.137-1.276-4.878-1.62-7.314-1.586a8.683 8.683 0 0 0-3.058.57c-1.41.513-2.538 1.632-3.972 2.184-.467.18-.842.186-1.21-.01.36.72.753 1.044 1.652 1.307.65.19 2.202.07 3.27-.029 1.148-.106 1.746-.447 3.307-.426 1.524.021 2.732.6 3.393.978 1.362.78 2.34 1.644 3.189 3.013.466.752.793 1.6 1.023 2.466.23.866.33 1.836.345 2.683.015.848-.05 1.605-.257 2.367-.485 1.786-1.555 3.603-3.752 3.322-1.345-.172-3.372-2.696-4.05-3.622-1.37-1.868-2.78-3.936-4.502-5.493-1.05-.948-2.486-1.601-3.897-1.73-2.648-.243-3.433.26-5.425 1.903.405.129.8.2 1.216.388a9.079 9.079 0 0 1 2.501 1.64c.77.723 1.117 1.18 1.144 2.213.018.687-.547 1.237-1.064 1.732-.317.303-.736.58-.993.816-.34.313-.76.654-.334 1.152.161.187.44.328.675.502.374.277.203 1.307-.29 1.58-.629.35-1.38.31-1.9-.157.655-.098 1.072-.185 1.055-.72-.01-.311-.405-.57-.793-.746-.934-.426-1.64-.363-2.57-1.033-.94-.676-.961-1.047-1.215-2.108-.453.047-.87.057-1.476.258-.606.2-1.275.678-1.825.796-1.385.298-1.661.21-2.42.013-1.334-.345-3.072.246-4.798.799-.287.091-1.448.003-2.23.277-1.207.423-2.9 1.449-3.878 2.273-1.483 1.248-3.43 4.984-4.53 9.272-.116 1.304.254 2.182-.567 2.818-.821.637-.798 2.268-1.077 2.726-.278.457-.6.255-1.2.897-.6.643-.904.535-.89 1.75.517-.34 1.27-.734 1.932-.758.585-.021.591.75 2.094-.736.804-.795 2.348-.82 3.42-1.17 1.071-.35 3.002-1.073 4.936-3.235 1.934-2.162 2.86-4.438 3.234-7.729.06.584.164 1.242-.086 2.851-.25 1.61-.788 3.417.346 5.582l.706 1.349c-.42-.574-1.242-1.51-1.49-2.178l-.57-1.54c-1.277 2.005-1.57 2.363-3.344 3.8-.07.89-.088 1.82.203 2.673.291.852-.173 1.835.049 2.396.221.562.734.242.901.81.167.57-.087 1.693.172 2.247.26.554.896.218 1.205.397.308.179.41.424.574.66.165.235-.064.791.271.972.336.18.86.028 1.209.201.349.174.402.59.318.964-.084.374-.457.545-.62.925-.164.38-.146.644.05.993.198.349.633.541 1.067.717.435.176 1.045.077 1.493.32.448.244.851.73 1.088 1.082.236.353.302.601.29.972-.012.37-.163.797-.36 1.156-.198.358-.635.793.047 1.477.681.684.656.389 1.047.832-.043-.767-.36-1.392-.128-1.97.232-.577.928-.677 1.295-.937.366-.26.578-.617.867-.925-.004.397.038.823-.007 1.122-.092.607-.271 1.147.634 1.244.408.044.795-.22 1.224-.38-.224.403-.615.727-.674 1.209-.059.481.012 1.01.345 1.488.334.478.91.833 1.332 1.114.422.28.648.303.972.455.016.474-.077.975-.023 1.42.054.447.194.841.452 1.21s.672.58 1.062.853c-.214-.498-.647-.97-.642-1.493.006-.523.163-.893.673-1.357.51-.465 1.705-.867 2.268-1.318.563-.452.745-.728.947-1.166.202-.439.146-1.145.183-1.539.186.552.212.724.272 1.301.06.577-.336 1.387-.504 1.815a2.773 2.773 0 0 0 1.362-1.4c.15.088.074.331.129.8.248-.248.53-.438.78-.67.25-.234.524-.439.649-.764.123-.325.073-.671-.02-1.049-.092-.378-.514-.816-.742-1.23-.227-.413.04-.818.025-1.316-.455-.078-.841-.31-1.364-.235-.523.075-1.123.663-1.657.67-.535.006-.835-.495-1.273-.632-.439-.138-.882-.123-1.323-.184.558-.535 2.725-.79 4.207-1.031a26.525 26.525 0 0 1 3.92-.355c.59-.008 1.348.187 1.758.07.41-.118.323-.398.444-.702.34-.85.173-1.609-.012-2.465-1.187-.14-2.423-.31-3.618-.218-1.168.09-2.552.645-3.757.683-1.048.033-2.6-.2-3.5-.75-1.099-.67-1.95-2.109-2.252-2.57-.491-.754-1.112-2.23-1.49-2.906-.377-.675-.46-.864-.774-1.146-.314-.281-.744-.303-1.116-.455.429.044.897-.092 1.287.131.585.336 1.24 1.728 1.604 2.333.386-1.293.296-1.802 1.412-2.53-.9 1.008-.922 1.771-1.141 2.959.748 1.227 1.788 3.183 3.149 3.726.491.196 1.336.32 1.867.385 1.654.205 3.25-.32 4.874-.72 1.187-.294 2.392-.176 3.836-.09.49.028 1.647-.267 1.886-.763a.877.877 0 0 0-.066-.874c-.186-.285-.68-.423-.946-.68-.266-.256-.418-.56-.627-.842a17.2 17.2 0 0 1-2.83.316c.588-.242 1.151-.38 1.762-.62.612-.238 1.306-.63 1.799-.956.493-.326.808-.515 1.165-.894.357-.38.814-.77 1.077-1.233.264-.464.304-.982.319-1.556.015-.573-.01-1.378-.231-1.84-.221-.462-.647-.602-.99-.711-.342-.11-.577.167-.933.204-.356.038-.689.262-1.204.02-.515-.242-1.126-.736-1.647-1.468-.52-.732-.893-1.928-1.424-2.849-.915-1.586-2.055-3.069-3.146-4.539-.09-.362-.225-.863-.27-1.355-.078-.857-.092-1.748.174-2.583.203-.64.5-1.316 1.17-1.579.268-.105.607-.146.847-.058.24.09.475.36.38.672-.103.344-.34.354-.503.527-.274.295-.384.51-.488.878.297-.005.698-.028.942.036.318.084.614.295.776.746-.38-.337-.569-.491-1.042-.503-.218-.006-.481.072-.722.108-.09.292-.142.65-.269.876-.127.226-.373.172-.466.436-.093.264-.098.693-.051 1.04zm3.318-.396c.145.057.2.07.385.21.184.14.438.28.584.615.146.335.14.853.108 1.064-.128-.038-.302-.012-.435-.126s-.212-.37-.382-.48c-.17-.11-.312-.087-.5-.11.097.274.144.55.099.798-.098.544-.417.82-.935.885-.226.028-.586-.046-.782-.082.09.204.245.382.337.586.438-.063.762-.054.998-.164.235-.11.487-.357.79-.462.302-.104.571-.103.902-.154-.26.224-.431.449-.692.673L45 29.251c.404.253.784.386 1.293.699.51.312 1.122.871 1.786 1.176.663.305 1.059.47 1.753.602.693.13 1.245.692 1.928.784.682.09 1.957.11 2.484.058.597-.058 1.373-.367 1.442-1.021-.5.123-1.265.012-1.651-.93-.172-.419-.088-1.188-.35-1.683-.262-.495-.628-.654-1.065-1.263-.437-.61-1.152-1.572-1.553-2.389-.4-.817-.495-1.742-.835-2.474-.339-.732-.85-1.323-1.247-1.887-.866-1.233-1.564-2.076-2.99-2.697-.687-.3-1.468-.38-2.202-.569-.298.134-.708.282-.78.63-.073.35.067.866.32 1.128.424.438 1.053.912 1.3 1.608.158.447.204 1.945.067 2.352-.143.422-.474.677-.75.959zm.138 3.546c-.132.115-.234.232-.447.327s-.503.12-.786.19c.396.617.813 1.24 1.192 1.889.38.648.71 1.359 1.072 2.038-.017-.39.006-.805-.05-1.168-.058-.364-.222-.682-.386-1.228-.163-.546-.364-1.289-.595-2.048zM33.425 14.316c-.056.606.047 1.555.172 2.15.15.71.296 1.08.873 1.508 1.057.785 1.732.652 2.545 1.107.387.217.877.58 1.02.963.143.384-.095.8-.388.964.513.077 1.089-.502.849-1.096-.119-.292-.682-.422-.854-.717-.173-.295-.172-.599-.091-.898.147-.54 1.215-1.03 1.592-1.457.58-.657.804-1.206.475-2.052-.462-1.188-2.247-2.141-3.315-2.607-.489-.214-.763-.229-1.144-.343.78.457 1.604.822 2 1.845.329.855.043 1.177.054 1.92.005.346.46.518.661.736.176.19.162.33.021.592a.68.68 0 0 0-.297-.54c-.299-.212-.621-.167-.78-.601-.242-.661.237-1.287-.302-2.029-.403-.555-.94-1.176-1.663-1.192-.342-.008-.6.044-.966.152l-.487-.587-.011-.008c-.992-.905-1.671-1.651-3.063-2.273-1.391-.622-2.077-.717-3.672-.681-1.596.035-3.18.169-5.027 1.762-1.848 1.594-6.61 7.696-7.765 8.468-1.155.772-1.41 1.034-2.854 1.034-1.443 0-3.695-2.04-3.783-4.591-.089-2.552-.124-3.458 1.65-6.531 1.773-3.074 4.985-4.018 7.369-4.336 2.384-.319 3.816.52 5.58.525 1.763.004 3.505-.3 4.019-1.703-.251.15-.588.319-1.536.269-.947-.05-2.261-1.147-3.74-1.882-1.477-.735-3.122-.82-5.231-.86-2.11-.04-4.742.12-7.35 1.528C5.38 4.263 3.6 5.757 2.087 8.512S.348 13.517.592 16.853c.243 3.336 1.272 5.817 3.253 8.26 1.982 2.44 3.961 3.635 7.532 4.08l.751-3.315-1.342 1.925.034-2.142-1.214 1.506-.532-2.042-.983 1.637-.489-2.28-1.425 1.153.451-1.882-1.885.209.866-1.308-1.719.02 1-1.745-1.525-.242 1.216-1.588-1.867-.554 1.546-1.48-1.526-1.244 1.194-.93-1.117-1.485 1.191-1.386-.445-1.831 1.012-.882.3-2.092 1.136-.57.976-1.634 1.805-.191.89-1.47 1.814.093 1.713-.931 1.776.414 2.018-.61 1.495.35 1.95.287 1.884 1.506-2.889-1.008-1.453.696-1.201-.733-.827.562-1.463.146-1.313-.084-.956 1.167-1.95.02L9.578 6.8l-1.734.608-.162 1.808-1.243.974.414 1.702-1.074 1.767.824 1.546-.81 1.415 1.078.704-.245 2.274 1.5.378.338 1.687 1.635-.17 1.015 1.156 1.255-1.226c2.288-1.14 3.23-1.779 5.014-3.708 2.03-2.195 3.193-4.225 5.897-5.729 1.94-1.078 3.522-1.466 5.7-1.09 2.045.354 2.73 1.58 4.237 2.873.16-.289.192-.365.455-.578-.083.375-.214.765-.247 1.126z"/></svg>