<?xml version="1.0" encoding="UTF-8" standalone="no"?>
<svg
   xmlns:dc="http://purl.org/dc/elements/1.1/"
   xmlns:cc="http://creativecommons.org/ns#"
   xmlns:rdf="http://www.w3.org/1999/02/22-rdf-syntax-ns#"
   xmlns:svg="http://www.w3.org/2000/svg"
   xmlns="http://www.w3.org/2000/svg"
   id="svg2"
   height="390"
   width="390"
   version="1.0">
  <metadata
     id="metadata15">
    <rdf:RDF>
      <cc:Work
         rdf:about="">
        <dc:format>image/svg+xml</dc:format>
        <dc:type
           rdf:resource="http://purl.org/dc/dcmitype/StillImage" />
        <dc:title></dc:title>
      </cc:Work>
    </rdf:RDF>
  </metadata>
  <defs
     id="defs13" />
  <path
     style="fill:#333333"
     id="path5"
     d="M 193.61914 15.5 C 182.36664 15.4775 171.22539 19.565078 163.15039 27.830078 L 28.810547 165.30078 C -16.579453 221.51078 59.700391 214.97016 92.400391 231.16016 C 104.13039 243.15016 47.439922 252 59.169922 264 C 70.899922 275.99 130.09961 287.09984 141.84961 299.08984 C 153.57961 311.07984 117.84031 323.79906 129.57031 335.78906 C 141.30031 347.77906 168.42977 336.41961 173.50977 364.09961 C 177.12977 383.87961 222.39906 372.60039 244.53906 356.40039 C 256.26906 344.40039 222.10008 345.52906 233.83008 333.53906 C 263.00008 303.70906 290.16063 322.70055 300.14062 292.81055 C 305.07063 278.04055 257.19922 270.04078 268.94922 258.05078 C 302.69922 238.34078 419.35 225.51016 364 170.16016 L 224.75 27.830078 C 216.235 19.655078 204.87164 15.5225 193.61914 15.5 z M 194.82617 28.582031 C 202.85992 28.624531 210.86586 31.630703 216.63086 37.470703 L 269.7793 91.449219 C 274.8193 96.599219 274.74969 106.57922 271.92969 109.44922 L 245.53906 88.339844 L 240.34961 119.59961 L 218.30078 107.96094 L 182.99023 130.26953 L 171.30078 83.240234 L 152.33008 116.06055 L 123.33008 116.06055 C 111.51008 116.06055 110.11938 101.06031 120.85938 90.320312 C 139.61937 70.070312 161.14961 49.430703 172.84961 37.470703 C 178.72961 31.460703 186.79242 28.539531 194.82617 28.582031 z M 131 238.59961 C 134.59 240.82961 188.89016 251.86055 202.16016 254.06055 C 206.76016 255.03055 203.50016 259.7707 197.16016 262.9707 C 182.86016 266.7707 113.5 238.59961 131 238.59961 z M 344.17578 276.37695 C 332.57947 276.08392 320.61656 281.69148 317.46094 292.81055 C 317.46094 299.63055 367.71094 304.09922 367.71094 291.19922 C 364.35469 281.48672 354.40782 276.63551 344.17578 276.37695 z M 111.74023 305.92188 C 95.991811 305.77579 77.515234 317.28484 91.099609 329.05078 C 102.99961 339.34078 121.38062 326.49086 126.89062 312.13086 C 123.64781 307.82211 117.90266 305.97904 111.74023 305.92188 z M 311.16016 306.82031 C 295.82016 320.58031 312.88 334.54039 328 325.65039 C 331.37 322.23039 327.91016 310.24031 311.16016 306.82031 z " />
</svg>
