<svg xmlns="http://www.w3.org/2000/svg" height="390" width="390" version="1"><path d="M193.62 15.5c-11.253-.023-22.395 4.065-30.47 12.33L28.81 165.3c-45.39 56.21 30.89 49.67 63.59 65.86C104.13 243.15 47.44 252 59.17 264c11.73 11.99 70.93 23.1 82.68 35.09 11.73 11.99-24.01 24.71-12.28 36.7 11.73 11.99 38.86.63 43.94 28.31 3.62 19.78 48.89 8.5 71.03-7.7 11.73-12-22.44-10.87-10.71-22.86 29.17-29.83 56.33-10.84 66.31-40.73 4.93-14.77-42.94-22.77-31.19-34.76 33.75-19.71 150.4-32.54 95.05-87.89L224.75 27.83c-8.515-8.175-19.878-12.307-31.13-12.33zm1.206 13.082c8.034.043 16.04 3.049 21.805 8.889l53.148 53.978c5.04 5.15 4.97 15.13 2.15 18l-26.39-21.11-5.19 31.26-22.048-11.638-35.31 22.309-11.69-47.03-18.97 32.82h-29c-11.82 0-13.212-15-2.472-25.74 18.76-20.25 40.29-40.89 51.99-52.85 5.88-6.01 13.943-8.93 21.977-8.888zM131 238.6c3.59 2.23 57.89 13.26 71.16 15.46 4.6.97 1.34 5.71-5 8.91-14.3 3.8-83.66-24.37-66.16-24.37zm213.176 37.777c-11.597-.293-23.56 5.314-26.715 16.434 0 6.82 50.25 11.288 50.25-1.612-3.356-9.712-13.303-14.563-23.535-14.822zM111.74 305.922c-15.748-.146-34.225 11.363-20.64 23.129 11.9 10.29 30.28-2.56 35.79-16.92-3.242-4.309-8.987-6.152-15.15-6.21zm199.42.898c-15.34 13.76 1.72 27.72 16.84 18.83 3.37-3.42-.09-15.41-16.84-18.83z" fill="#333"/></svg>