<svg width="300" height="150" viewBox="0 0 79.375 39.688" xmlns="http://www.w3.org/2000/svg"><g style="font-style:normal;font-variant:normal;font-weight:700;font-stretch:normal;font-size:42.44455719px;line-height:1.25;font-family:'B612 Mono';-inkscape-font-specification:'B612 Mono Bold';letter-spacing:0;word-spacing:0;fill:#333;fill-opacity:1;stroke:none;stroke-width:1.06111395"><path style="font-style:normal;font-variant:normal;font-weight:900;font-stretch:normal;font-family:Kanit;-inkscape-font-specification:'Kanit Heavy';fill:#333;fill-opacity:1;stroke-width:4.01050949" d="M253.7 23.469c-15.187 0-26.577 2.674-34.17 8.021-7.487 5.24-11.231 13.314-11.231 24.223 0 5.989.802 10.91 2.406 14.76 1.711 3.85 4.439 7.164 8.182 9.945 3.743 2.78 9.038 5.455 15.883 8.021.641.214 3.313 1.123 8.02 2.727 4.063 1.39 6.844 2.514 8.34 3.37 1.498.748 2.247 1.765 2.247 3.048 0 1.497-.909 2.674-2.727 3.53-1.818.748-4.33 1.122-7.539 1.122-4.92 0-10.536-.802-16.845-2.406-6.203-1.604-11.87-3.638-17.004-6.098v29.038c4.491 2.245 10.106 4.01 16.843 5.293 6.738 1.283 13.797 1.925 21.176 1.925 14.973 0 26.363-2.887 34.17-8.662 7.914-5.882 11.871-13.85 11.871-23.902 0-6.31-.802-11.552-2.406-15.723-1.497-4.278-4.44-8.02-8.824-11.228-4.278-3.316-10.533-6.096-18.768-8.342l-4.172-1.123c-4.491-1.284-7.485-2.247-8.982-2.889-1.497-.749-2.246-1.657-2.246-2.726 0-2.674 4.116-4.01 12.351-4.01 8.128 0 17.272 2.085 27.432 6.256V28.44c-4.385-1.283-9.893-2.404-16.523-3.367-6.631-1.07-12.458-1.605-17.485-1.605zM7.856 25.074v103.31H88.87V98.868H46.68V25.074H7.858zm121.946 0L90.02 128.384h40.425l7.38-19.251h24.222l7.38 19.252h40.427l-39.786-103.31h-40.265zm20.052 37.858 7.862 19.732h-15.723l7.861-19.732z" transform="scale(.26458)" aria-label="LAS"/></g></svg>