<?xml version="1.0" encoding="UTF-8" standalone="no"?>
<svg
   xmlns:dc="http://purl.org/dc/elements/1.1/"
   xmlns:cc="http://creativecommons.org/ns#"
   xmlns:rdf="http://www.w3.org/1999/02/22-rdf-syntax-ns#"
   xmlns:svg="http://www.w3.org/2000/svg"
   xmlns="http://www.w3.org/2000/svg"
   version="1.1"
   id="svg3347"
   viewBox="0 0 83.999999 63.999994"
   height="64"
   width="84">
  <defs
     id="defs3349" />
  <metadata
     id="metadata3352">
    <rdf:RDF>
      <cc:Work
         rdf:about="">
        <dc:format>image/svg+xml</dc:format>
        <dc:type
           rdf:resource="http://purl.org/dc/dcmitype/StillImage" />
        <dc:title></dc:title>
      </cc:Work>
    </rdf:RDF>
  </metadata>
  <g
     transform="translate(-0.797036,-988.36222)"
     id="layer1">
    <path
       id="path11"
       d="m 65.242391,988.36221 c -0.802498,0 -1.454723,0.65222 -1.454723,1.45472 l 0,5.01561 c 0,0.8025 0.652225,1.45473 1.454723,1.45473 0.802498,0 1.453746,-0.65223 1.453746,-1.45473 l 0,-5.01561 c 0,-0.8025 -0.651248,-1.45472 -1.453746,-1.45472 z M 52.6005,993.56395 c -0.467762,-0.0402 -0.938467,0.14008 -1.251943,0.51625 -0.501561,0.65203 -0.401053,1.55465 0.200821,2.05621 l 3.912569,3.21018 c 0.25078,0.25078 0.601286,0.35168 0.902223,0.35168 0.401249,0 0.802889,-0.2014 1.153982,-0.5525 0.501562,-0.65203 0.401054,-1.55464 -0.20082,-2.0562 l -3.912569,-3.21019 c -0.244511,-0.18808 -0.523605,-0.29134 -0.804263,-0.31543 z m 25.261253,0 c -0.282128,0.0241 -0.557009,0.12735 -0.782712,0.31543 l -3.912569,3.21019 c -0.601873,0.50156 -0.702381,1.45433 -0.20082,2.0562 0.250781,0.3511 0.702773,0.5525 1.104022,0.5525 0.351093,0 0.652225,-0.1009 0.953162,-0.35168 l 3.911591,-3.21018 c 0.601873,-0.50156 0.702381,-1.45433 0.20082,-2.05621 -0.313476,-0.37617 -0.80328,-0.55642 -1.273494,-0.51625 z m -12.619362,5.43194 c -4.564207,0 -8.326699,3.71141 -8.326699,8.32571 l 0,2.4579 4.764832,0 0,-2.4579 c 0,-1.9561 1.605778,-3.5609 3.561867,-3.5609 1.956089,0 3.56089,1.6048 3.56089,3.5609 l 0,2.4579 4.764832,0 0,-2.4579 c 0,-4.5642 -3.711358,-8.32571 -8.325722,-8.32571 z m -17.354802,5.61711 c -0.802498,0 -1.453745,0.6522 -1.453745,1.4547 0,0.8025 0.651247,1.4547 1.453745,1.4547 l 4.965652,0 c 0.802498,0 1.454724,-0.6522 1.454724,-1.4547 0,-0.8025 -0.652226,-1.4547 -1.454724,-1.4547 l -4.965652,0 z m 29.643053,0 c -0.802498,0 -1.454723,0.6522 -1.454723,1.4547 0,0.8025 0.652225,1.4547 1.454723,1.4547 l 5.015613,0 c 0.802498,0 1.453745,-0.6522 1.453745,-1.4547 0,-0.8025 -0.651247,-1.4547 -1.453745,-1.4547 l -5.015613,0 z"
       style="color:#000000;clip-rule:nonzero;display:inline;overflow:visible;visibility:visible;opacity:0.4;isolation:auto;mix-blend-mode:normal;color-interpolation:sRGB;color-interpolation-filters:linearRGB;solid-color:#000000;solid-opacity:1;fill:#333333;fill-opacity:1;fill-rule:evenodd;stroke:none;stroke-width:1;stroke-linecap:butt;stroke-linejoin:miter;stroke-miterlimit:4;stroke-dasharray:none;stroke-dashoffset:0;stroke-opacity:1;color-rendering:auto;image-rendering:auto;shape-rendering:auto;text-rendering:auto;enable-background:accumulate" />
    <path
       id="path13"
       d="m 54.960385,1009.7795 c -0.90281,0 -1.605582,0.7018 -1.605582,1.6046 l 0,15.1977 c 0,0.9028 0.702772,1.6046 1.605582,1.6046 l 20.564012,0 c 0.90281,0 1.604605,-0.7018 1.604605,-1.6046 l 0,-15.1977 c -0.05016,-0.9028 -0.751951,-1.6046 -1.604605,-1.6046 l -20.564012,0 z m -18.107144,1.7055 c -1.103435,0 -2.006245,0.8021 -2.006245,1.8553 0,1.1035 0.75293,1.8055 1.856364,1.8055 0.100313,0 0.200625,2e-4 0.250781,-0.05 -0.200625,0.8025 -0.953163,1.4043 -1.705504,1.5047 l -0.150861,0 0,1.7554 0.200821,0 c 0.90281,-0.1003 1.755856,-0.5011 2.407886,-1.103 0.852654,-0.8025 1.303863,-2.0067 1.303863,-3.411 0,-1.3542 -0.903202,-2.357 -2.157105,-2.357 z m -35.259169,0.3007 0,16.1998 10.181106,0 0,-3.41 -6.269516,0 0,-12.7898 -3.91159,0 z m 25.428764,1.8054 0,3.0094 -1.805425,0 0,2.8085 1.855385,0 0,4.8148 c 0,0.6019 0.100508,1.154 0.20082,1.6556 0.100313,0.5015 0.351486,0.9527 0.652422,1.3038 0.300937,0.3511 0.752342,0.6017 1.253903,0.8023 0.501562,0.2007 1.153003,0.3018 1.905345,0.3018 0.401249,0 0.802694,-0.051 1.203943,-0.1009 0.401249,-0.1003 0.752342,-0.1505 1.003123,-0.2508 l -0.04996,-2.7586 c -0.100313,0.05 -0.300937,0.1007 -0.501562,0.1509 -0.200624,0.05 -0.400857,0.05 -0.601482,0.05 -0.551717,0 -0.903398,-0.1509 -1.104022,-0.4017 -0.200625,-0.2508 -0.300741,-0.6512 -0.300741,-1.2029 l 0,-4.3642 2.658667,0 0,-2.8086 -2.658667,0 0,-3.0093 -3.711749,0 z m 38.168617,2.2071 c 1.153591,0 2.107144,0.9526 2.107144,2.1062 0.05016,0.8025 -0.401054,1.5052 -1.053083,1.8563 l 0,2.0562 c 0,0.5517 -0.452188,1.0531 -1.054061,1.0531 -0.551718,0 -1.053083,-0.4512 -1.053083,-1.0531 l 0,-2.0562 c -0.65203,-0.3511 -1.053083,-1.0538 -1.053083,-1.8563 0,-1.1536 0.952575,-2.1062 2.106166,-2.1062 z m -46.193597,0.4516 c -0.852655,0 -1.654565,0.1497 -2.406907,0.4506 -0.752342,0.2508 -1.404567,0.7024 -1.956284,1.204 -0.551718,0.5015 -1.002927,1.1539 -1.303864,1.9063 -0.351093,0.7523 -0.501561,1.5548 -0.501561,2.5078 0,0.953 0.150468,1.8054 0.501561,2.5578 0.351093,0.7523 0.802106,1.4047 1.353824,1.9063 0.601873,0.5015 1.253903,0.9022 2.006245,1.153 0.752342,0.2508 1.555232,0.4016 2.407886,0.4016 1.153591,0 2.206674,-0.2511 3.059328,-0.6524 0.852654,-0.4514 1.554447,-1.0029 2.106165,-1.8054 l -2.607727,-1.6556 c -0.25078,0.3511 -0.601873,0.6527 -1.003122,0.8533 -0.401249,0.2508 -0.90281,0.3507 -1.504684,0.3507 -0.300937,0 -0.652226,-0.05 -0.953162,-0.1499 -0.300937,-0.1003 -0.601482,-0.251 -0.852263,-0.4516 -0.25078,-0.1505 -0.451993,-0.4016 -0.602461,-0.6524 -0.150468,-0.2508 -0.250585,-0.5514 -0.300741,-0.8523 l 8.275761,0 0,-0.4516 0,-0.4516 c 0,-0.953 -0.150664,-1.8052 -0.451601,-2.6077 -0.250781,-0.7524 -0.651442,-1.4046 -1.153003,-1.9563 -0.501562,-0.5016 -1.104218,-0.903 -1.806404,-1.2039 -0.702186,-0.2508 -1.454332,-0.4007 -2.306986,-0.4007 z m 24.07494,0.05 c -0.551717,0 -1.102847,0.05 -1.654564,0.2008 -0.551718,0.1003 -1.053279,0.3505 -1.504684,0.6515 -0.451405,0.3009 -0.803086,0.6524 -1.104023,1.1539 -0.300936,0.5016 -0.4516,1.0533 -0.4516,1.7555 0,0.5016 0.101095,0.9526 0.30172,1.3538 0.200624,0.3511 0.451405,0.7024 0.752342,0.9532 0.300937,0.2508 0.651834,0.451 1.053083,0.6015 0.401249,0.1504 0.802693,0.2513 1.203942,0.3517 0.752342,0.1504 1.353432,0.351 1.704525,0.5015 0.351093,0.2006 0.552501,0.4512 0.552501,0.8023 0,0.3511 -0.150664,0.6019 -0.451601,0.7524 -0.300936,0.1504 -0.602265,0.2008 -0.903202,0.2008 -0.551717,0 -1.053083,-0.1009 -1.554644,-0.3517 -0.501561,-0.2508 -0.90281,-0.5511 -1.253903,-0.9022 l -2.106166,2.207 c 0.551718,0.5518 1.303276,1.003 2.206086,1.3039 0.852655,0.3009 1.755661,0.4516 2.708627,0.4516 0.601873,0 1.153591,-0.05 1.755464,-0.2008 0.551718,-0.1505 1.10324,-0.3515 1.554645,-0.6524 0.501561,-0.301 0.853045,-0.7024 1.153982,-1.204 0.300937,-0.5015 0.451601,-1.1032 0.451601,-1.8054 0,-0.5517 -0.100117,-1.0025 -0.300741,-1.4038 -0.200625,-0.4012 -0.502148,-0.7523 -0.853241,-1.0031 -0.351093,-0.2508 -0.701599,-0.4518 -1.153004,-0.6524 -0.451405,-0.2007 -0.853437,-0.3014 -1.304842,-0.4017 -0.752342,-0.1504 -1.253512,-0.3001 -1.604605,-0.4506 -0.351093,-0.1505 -0.501561,-0.4014 -0.501561,-0.7024 0,-0.3511 0.150664,-0.5519 0.451601,-0.7024 0.300937,-0.1504 0.602069,-0.2008 0.953162,-0.2008 0.451405,0 0.902615,0.1001 1.303864,0.3008 0.401248,0.2006 0.752146,0.4514 1.053082,0.7523 l 2.106167,-2.0562 c -0.551718,-0.5517 -1.253708,-0.9532 -2.056206,-1.2039 -0.802499,-0.2508 -1.655153,-0.4007 -2.507807,-0.4007 z m -24.07494,2.5078 c 0.752341,0 1.354411,0.2 1.705504,0.6514 0.340795,0.4382 0.536222,0.9262 0.547603,1.5047 l -4.860834,0 c 0.05016,-0.3009 0.100312,-0.6015 0.250781,-0.8522 0.150468,-0.2508 0.300741,-0.5018 0.551521,-0.7024 0.250781,-0.2006 0.501365,-0.3513 0.802302,-0.4516 0.300937,-0.1003 0.65203,-0.1499 1.003123,-0.1499 z m -17.403784,11.7367 0,16.1999 11.285128,0 0,-3.3601 -7.523419,0 0,-3.361 6.721117,0 0,-3.1093 -6.721117,0 0,-3.0594 7.121778,0 0,-3.3101 -10.883487,0 z m 75.435009,1.8055 0,3.0093 -1.806403,0 0,2.8086 1.806403,0 0,4.8148 c 0,0.6018 0.09953,1.1539 0.199842,1.6555 0.100312,0.5016 0.351484,0.9528 0.652421,1.3039 0.300937,0.3511 0.752342,0.6016 1.253903,0.8023 0.501561,0.2006 1.153982,0.3007 1.906324,0.3007 0.401249,0 0.801716,-0.05 1.202965,-0.1 0.401249,-0.1003 0.752342,-0.1505 1.003122,-0.2508 l -0.04996,-2.7586 c -0.100313,0.05 -0.300937,0.1007 -0.501562,0.1509 -0.200624,0.05 -0.400857,0.05 -0.601482,0.05 -0.551717,0 -0.903397,-0.1509 -1.104022,-0.4016 -0.200624,-0.2508 -0.300741,-0.6523 -0.300741,-1.204 l 0,-4.3632 2.658666,0 0,-2.8085 -2.658666,0 0,-3.0094 -3.66081,0 z m -42.733607,2.6576 c -0.90281,0 -1.705308,0.1007 -2.507806,0.4017 -0.802498,0.2508 -1.504488,0.7024 -2.056205,1.2039 -0.551718,0.5016 -1.002731,1.153 -1.353824,1.9054 -0.351093,0.7523 -0.501561,1.5548 -0.501561,2.5078 0,0.9529 0.150468,1.8064 0.501561,2.5587 0.351093,0.7524 0.802106,1.4038 1.353824,1.9054 0.601873,0.5517 1.253707,0.9531 2.056205,1.2039 0.752342,0.2508 1.604996,0.4017 2.507806,0.4017 0.802498,0 1.605584,-0.1509 2.357926,-0.4017 0.702186,-0.2508 1.35402,-0.6017 1.805425,-1.0531 l -2.056206,-2.5577 c -0.25078,0.3009 -0.552109,0.5009 -0.903202,0.6514 -0.401249,0.1505 -0.752733,0.2008 -1.153982,0.2008 -0.401249,0 -0.751951,-0.1003 -1.103043,-0.2508 -0.351093,-0.1504 -0.601482,-0.4016 -0.852263,-0.6524 -0.250781,-0.2508 -0.452188,-0.5511 -0.552501,-0.9022 -0.150468,-0.3511 -0.199841,-0.7028 -0.199841,-1.104 0,-0.4013 0.04937,-0.752 0.199841,-1.1031 0.150469,-0.3511 0.351877,-0.6022 0.552501,-0.9032 0.200625,-0.3009 0.501366,-0.5009 0.802303,-0.6514 0.300936,-0.1505 0.651833,-0.2508 1.053082,-0.2508 0.351093,0 0.75195,0.1003 1.103043,0.2508 0.351093,0.1505 0.652618,0.4007 0.853242,0.6514 l 2.306986,-2.4568 c -0.200625,-0.2508 -0.501365,-0.4518 -0.802302,-0.6525 -0.351093,-0.2006 -0.70199,-0.351 -1.053083,-0.5015 -0.351093,-0.1003 -0.752734,-0.2004 -1.153983,-0.3008 -0.401249,-0.05 -0.802694,-0.1009 -1.203943,-0.1009 z m 12.238291,0.051 c -0.702186,0 -1.303668,0.2005 -1.855385,0.5516 -0.551717,0.3511 -0.952966,0.8019 -1.253903,1.4037 l -0.05094,0 0,-1.6545 -3.610849,0 0,11.385 3.761709,0 0,-5.8179 c 0,-0.2508 0.05055,-0.5013 0.150861,-0.8023 0.100312,-0.3009 0.249997,-0.6024 0.450621,-0.8532 0.200625,-0.2508 0.452189,-0.4508 0.803281,-0.6515 0.351093,-0.1504 0.752342,-0.2507 1.253903,-0.2507 l 0.450623,0 c 0.150468,0 0.351093,0.05 0.501561,0.1 l 0.20082,-3.3601 c -0.100312,0 -0.200233,-0.05 -0.350701,-0.05 l -0.451601,0 z m -24.325721,0.05 c -0.401249,0 -0.75195,0.05 -1.103043,0.1499 -0.351093,0.1003 -0.652226,0.2512 -0.953162,0.4017 -0.250781,0.1504 -0.551718,0.3507 -0.752342,0.6014 -0.250781,0.2007 -0.401054,0.4516 -0.551522,0.7024 l -0.05094,0 0,-1.5546 -3.610849,0 0,11.385 3.76171,0 0,-6.1686 c 0,-0.3009 0.05055,-0.6022 0.15086,-0.9032 0.100312,-0.3009 0.250192,-0.5515 0.400661,-0.8023 0.200624,-0.2508 0.401641,-0.401 0.652422,-0.5515 0.25078,-0.1505 0.551129,-0.2008 0.902222,-0.2008 0.351093,0 0.652618,0.05 0.853242,0.2008 0.200625,0.1003 0.401249,0.3009 0.501561,0.5016 0.100313,0.2006 0.200625,0.4514 0.250781,0.7523 0.05016,0.3009 0.09992,0.6013 0.09992,0.9022 l 0,6.2196 0,0.05 3.611829,0 0,-7.0219 c 0,-0.6019 -0.05035,-1.1528 -0.20082,-1.7045 -0.150469,-0.5517 -0.351289,-1.0533 -0.702382,-1.5047 -0.351093,-0.4012 -0.752146,-0.8033 -1.303863,-1.0541 -0.551718,-0.2507 -1.203943,-0.4006 -1.956285,-0.4006 z m 47.096798,0.1 c -0.852654,0 -1.605192,0.1505 -2.207065,0.5016 -0.601874,0.3511 -1.103631,0.7525 -1.454724,1.2039 l -0.04996,0 0,-1.4047 -3.560889,0 0,16.8532 3.761709,0 0,-6.7711 0.04996,0 c 0.351092,0.5016 0.852849,0.8521 1.454723,1.1531 0.652029,0.2507 1.304059,0.4016 2.006245,0.4016 0.852654,0 1.654956,-0.1505 2.306986,-0.5016 0.65203,-0.3511 1.254099,-0.8031 1.705504,-1.3548 0.451405,-0.6018 0.802302,-1.2029 1.053083,-1.9553 0.250781,-0.7523 0.350702,-1.5054 0.350702,-2.3079 0,-0.8025 -0.149882,-1.5545 -0.400662,-2.1062 -0.250781,-0.7022 -0.601678,-1.3546 -1.053084,-1.9063 -0.451405,-0.5517 -1.053474,-1.003 -1.705503,-1.3039 -0.702186,-0.3511 -1.454528,-0.5016 -2.257026,-0.5016 z m -21.266393,0.1509 4.764832,11.1842 -0.350702,0.9532 c -0.150468,0.5016 -0.40164,0.9032 -0.652421,1.154 -0.25078,0.2508 -0.652029,0.4006 -1.253903,0.4006 -0.200624,0 -0.400858,2e-4 -0.601482,-0.05 l -0.602461,-0.1498 -0.400662,3.1592 c 0.250781,0.1003 0.601091,0.1507 0.952184,0.2008 0.401249,0.05 0.752929,0.05 1.104022,0.05 0.702186,0 1.353824,-0.1003 1.855385,-0.2508 0.501562,-0.2006 0.953554,-0.4012 1.354803,-0.7523 0.401249,-0.3511 0.702185,-0.7525 1.003122,-1.2039 0.250781,-0.5016 0.501561,-1.0028 0.752342,-1.6046 l 5.065573,-13.0906 -3.96253,0 -2.257025,7.3226 -0.04996,0 -2.557767,-7.3226 -4.163349,0 z m 20.363191,2.8086 c 0.451406,0 0.80289,0.1003 1.153983,0.2507 0.351092,0.1505 0.651638,0.4017 0.852262,0.6525 0.200625,0.2507 0.401249,0.5511 0.501562,0.9022 0.100312,0.3511 0.150859,0.702 0.150859,1.0531 0,0.3511 -0.05055,0.7027 -0.150859,1.104 -0.100313,0.3511 -0.300937,0.7024 -0.501562,0.9531 -0.25078,0.2508 -0.50117,0.501 -0.852262,0.6515 -0.300937,0.1505 -0.702577,0.2508 -1.153983,0.2508 -0.451405,0 -0.801911,-0.1003 -1.153004,-0.2508 -0.351093,-0.1505 -0.60246,-0.4007 -0.853241,-0.6515 -0.25078,-0.3009 -0.401053,-0.602 -0.551521,-0.9531 -0.150469,-0.3511 -0.200821,-0.702 -0.200821,-1.0531 0,-0.3511 0.05035,-0.703 0.200821,-1.0541 0.150468,-0.3511 0.300741,-0.7014 0.551521,-0.9521 0.250781,-0.2508 0.502148,-0.502 0.853241,-0.6525 0.351093,-0.1504 0.701599,-0.2507 1.153004,-0.2507 z"
       style="color:#000000;clip-rule:nonzero;display:inline;overflow:visible;visibility:visible;opacity:1;isolation:auto;mix-blend-mode:normal;color-interpolation:sRGB;color-interpolation-filters:linearRGB;solid-color:#000000;solid-opacity:1;fill:#333333;fill-opacity:1;fill-rule:nonzero;stroke:none;stroke-width:1;stroke-linecap:butt;stroke-linejoin:miter;stroke-miterlimit:4;stroke-dasharray:none;stroke-dashoffset:0;stroke-opacity:1;color-rendering:auto;image-rendering:auto;shape-rendering:auto;text-rendering:auto;enable-background:accumulate" />
  </g>
</svg>
