<svg xmlns="http://www.w3.org/2000/svg" width="64" height="64" viewBox="0 0 64 64">
    <path d="M33.344 0c-.411 0-.84.017-1.287.053-11.3.91-8.301 12.847-8.47 16.843-.206 2.924-.799 5.227-2.81 8.084-2.361 2.809-5.686 7.354-7.261 12.086-.743 2.233-1.098 4.51-.772 6.664-.102.092-.2.19-.293.288-.693.74-1.204 1.638-1.775 2.242-.534.533-1.294.734-2.13 1.033-.835.3-1.751.742-2.308 1.81h-.002c0 .002 0 .005-.002.006-.262.49-.347 1.016-.347 1.551 0 .495.074.996.148 1.479.154 1.004.308 1.954.102 2.597-.661 1.808-.745 3.058-.28 3.965.467.909 1.426 1.309 2.51 1.535 2.168.452 5.103.34 7.416 1.567l.2-.375-.196.377c2.477 1.295 4.987 1.754 6.99 1.297 1.454-.332 2.633-1.197 3.239-2.528 1.566-.007 3.286-.67 6.04-.822 1.87-.15 4.204.663 6.89.514.07.29.171.571.31.838l.004.007c1.04 2.082 2.975 3.034 5.037 2.871 2.063-.162 4.257-1.38 6.031-3.49l-.324-.273.328.27c1.69-2.051 4.496-2.9 6.357-4.022.93-.561 1.686-1.265 1.745-2.285.058-1.02-.543-2.163-1.92-3.692v-.002c-.453-.51-.669-1.459-.9-2.468-.232-1.01-.49-2.096-1.32-2.801 0-.002-.004-.003-.005-.004a3.288 3.288 0 0 0-1.018-.613c1.152-3.415.7-6.813-.462-9.885-1.426-3.77-3.915-7.056-5.817-9.303-2.128-2.685-4.21-5.235-4.17-9 .064-5.746.633-16.4-9.478-16.414zm1.342 8.852h.027c.573 0 1.063.168 1.566.533.511.371.881.835 1.178 1.484.291.633.431 1.251.445 1.985 0 .019 0 .037.004.056a4.811 4.811 0 0 1-.408 2.047c-.163.373-.35.687-.574.959a18.856 18.856 0 0 0-1-.412c-.226-.085-.4-.143-.582-.205.131-.16.39-.347.486-.582.146-.355.22-.7.233-1.113 0-.017.003-.032.003-.051a3.075 3.075 0 0 0-.158-1.078c-.12-.364-.276-.625-.498-.842-.223-.217-.446-.315-.713-.324l-.037-.002c-.25 0-.468.087-.693.275-.237.198-.413.45-.559.803a3.097 3.097 0 0 0-.23 1.117c-.002.016-.002.03-.002.047-.005.228.01.436.045.639-.514-.256-1.172-.441-1.625-.55-.026-.196-.04-.399-.045-.61v-.057c-.008-.75.115-1.396.404-2.05.289-.653.646-1.124 1.149-1.507.503-.382.998-.556 1.584-.562zm-7.827.623c.382 0 .722.127 1.075.408.382.305.67.694.912 1.244s.372 1.1.408 1.75v.006c.017.272.014.529-.008.777a4.761 4.761 0 0 0-1.271.574c.03-.217.035-.438.011-.685-.002-.014-.002-.024-.002-.037a2.987 2.987 0 0 0-.218-.881c-.123-.289-.26-.492-.442-.649-.164-.141-.32-.206-.492-.205-.017 0-.035 0-.053.002-.192.017-.352.11-.504.295-.15.184-.248.412-.32.715-.072.302-.09.599-.06.94l.001.037c.033.33.1.605.217.882.121.286.262.49.444.647.03.026.06.05.09.07-.189.146-.314.25-.47.364l-.355.26c-.299-.281-.532-.634-.736-1.098a4.915 4.915 0 0 1-.41-1.748v-.004a4.912 4.912 0 0 1 .207-1.785c.179-.578.417-.995.763-1.338.347-.344.697-.518 1.118-.54l.095-.001zm3.573 4.5c.885-.004 1.95.287 3.238 1.115.792.515 1.406.559 2.824 1.166h.004c.682.28 1.083.645 1.28 1.03.195.383.2.8.036 1.24-.327.876-1.375 1.8-2.841 2.257l-.002.002c-.716.232-1.34.746-2.076 1.166-.735.421-1.569.76-2.7.694A3.504 3.504 0 0 1 29 22.38a3.683 3.683 0 0 1-.865-.537c-.521-.419-.973-.944-1.637-1.334l-.004-.002c-1.07-.605-1.655-1.306-1.838-1.912-.183-.607-.01-1.124.52-1.522.597-.447 1.01-.753 1.287-.955.274-.201.388-.278.476-.361v-.002h.002c.449-.425 1.164-1.198 2.243-1.569a3.82 3.82 0 0 1 1.248-.212zm5.863 3.353c-.344-.04-.33.327-.746.633-.544.4-1.21.927-1.735 1.22-.925.52-2.44 1.282-3.738 1.282-1.3 0-2.34-.602-3.119-1.219-.39-.309-.71-.619-.967-.86-.19-.177-.236-.573-.537-.61-.18-.015-.232.469.205.814.252.236.586.56.998.887.824.652 1.97 1.322 3.42 1.322s2.814-.738 3.98-1.346c.612-.319 1.365-.877 1.846-1.297.482-.42.737-.786.393-.826zm1.611 2.041c.964 3.8 3.206 9.287 4.647 11.965.766 1.42 2.289 4.439 2.947 8.076.417-.013.877.048 1.37.174 1.72-4.462-1.46-9.267-2.915-10.605-.587-.57-.616-.827-.324-.815 1.577 1.396 3.649 4.203 4.402 7.371.344 1.445.418 2.962.049 4.461.18.075.363.156.549.244 2.763 1.345 3.784 2.517 3.293 4.114a7.91 7.91 0 0 0-.477-.002h-.043c.4-1.266-.485-2.2-2.847-3.268-2.45-1.077-4.401-.97-4.73 1.217-.022.114-.039.23-.052.347a3.726 3.726 0 0 0-.552.247c-1.15.63-1.778 1.77-2.127 3.171-.349 1.4-.45 3.093-.545 4.995v.002c-.06.955-.453 2.249-.852 3.619-4.012 2.862-9.58 4.102-14.308.875a21.011 21.011 0 0 0-1.067-1.504 66.09 66.09 0 0 0-.736-.942c.485.001.897-.08 1.23-.23.415-.189.707-.49.852-.877.288-.775-.003-1.87-.926-3.12-.923-1.248-2.485-2.657-4.781-4.066v-.002c-1.688-1.05-2.63-2.335-3.072-3.732-.443-1.397-.382-2.909-.041-4.4.653-2.863 2.333-5.648 3.404-7.395.288-.212.104.394-1.084 2.6-1.064 2.016-3.054 6.668-.33 10.3.073-2.584.69-5.22 1.726-7.685 1.51-3.42 4.666-9.355 4.916-14.084.13.094.574.395.772.508h.002c.579.34 1.013.84 1.576 1.293.565.453 1.27.844 2.336.906.102.006.203.01.3.01 1.099 0 1.955-.36 2.669-.768.775-.443 1.393-.934 1.98-1.125h.002c1.24-.388 2.226-1.075 2.787-1.875zm5.848 24.207c.1 1.644.915 3.321 2.353 3.684 1.575.415 3.843-.935 4.801-2.037.192-.008.38-.02.56-.024.842-.02 1.546.029 2.266.658l.002.002.002.002c.554.47.817 1.356 1.045 2.348.229.993.41 2.075 1.096 2.846h.002v.002c1.316 1.46 1.74 2.447 1.703 3.078-.036.63-.492 1.096-1.334 1.603-1.683 1.016-4.668 1.9-6.572 4.207-1.655 1.97-3.673 3.05-5.45 3.19-1.776.14-3.308-.597-4.212-2.41v-.004l-.004-.004c-.561-1.067-.328-2.75.144-4.526.473-1.775 1.151-3.599 1.242-5.08v-.004c.096-1.898.203-3.556.522-4.836.32-1.28.821-2.143 1.71-2.63.043-.023.083-.045.124-.065zm-28.916.123h.025c.133.001.275.012.424.035 1.007.153 1.886.857 2.733 2.004l2.44 4.453.003.002v.002c.65 1.357 2.022 2.849 3.185 4.371 1.164 1.522 2.065 3.051 1.948 4.221l-.002.006v.004c-.152 1.995-1.276 3.082-3.004 3.476-1.727.395-4.07.003-6.408-1.22l-.002-.002c-2.588-1.37-5.664-1.234-7.639-1.647-.987-.206-1.632-.516-1.928-1.092-.295-.576-.302-1.58.326-3.294l.002-.008.004-.008c.311-.959.08-2.007-.07-2.992-.15-.984-.225-1.88.111-2.504l.002-.006c.43-.83 1.063-1.128 1.846-1.408.784-.281 1.714-.5 2.447-1.237l.004-.003.004-.004c.678-.716 1.187-1.614 1.783-2.25.503-.538 1.007-.894 1.766-.899z" fill="#202020"/>
</svg>
