<svg xmlns="http://www.w3.org/2000/svg" xmlns:xlink="http://www.w3.org/1999/xlink" width="64" height="64">
    <defs>
        <linearGradient id="j">
            <stop offset="0" stop-color="#d2d2d2"/>
            <stop offset="1" stop-color="#c2c2c2"/>
        </linearGradient>
        <linearGradient id="d">
            <stop offset="0" stop-color="#55c1ec"/>
            <stop offset="1" stop-color="#3689e6"/>
        </linearGradient>
        <linearGradient id="e">
            <stop offset="0" stop-color="#fff"/>
            <stop offset=".063" stop-color="#fff" stop-opacity=".235"/>
            <stop offset=".951" stop-color="#fff" stop-opacity=".157"/>
            <stop offset="1" stop-color="#fff" stop-opacity=".392"/>
        </linearGradient>
        <radialGradient cx="4.993" cy="43.5" r="2.5" fx="4.993" fy="43.5" id="k" xlink:href="#a" gradientUnits="userSpaceOnUse" gradientTransform="matrix(3.16388 0 0 1 38.297 15.5)"/>
        <linearGradient id="a">
            <stop offset="0" stop-color="#181818"/>
            <stop offset="1" stop-color="#181818" stop-opacity="0"/>
        </linearGradient>
        <radialGradient cx="4.993" cy="43.5" r="2.5" fx="4.993" fy="43.5" id="l" xlink:href="#b" gradientUnits="userSpaceOnUse" gradientTransform="matrix(3.16388 0 0 1 -25.703 -102.5)"/>
        <linearGradient id="b">
            <stop offset="0" stop-color="#181818"/>
            <stop offset="1" stop-color="#181818" stop-opacity="0"/>
        </linearGradient>
        <linearGradient id="c">
            <stop offset="0" stop-color="#181818" stop-opacity="0"/>
            <stop offset=".5" stop-color="#181818"/>
            <stop offset="1" stop-color="#181818" stop-opacity="0"/>
        </linearGradient>
        <linearGradient x1="25.058" y1="47.028" x2="25.058" y2="39.999" id="m" xlink:href="#c" gradientUnits="userSpaceOnUse" gradientTransform="matrix(1.57895 0 0 .71429 -5.895 27.929)"/>
        <linearGradient id="f">
            <stop offset="0" stop-color="#fafafa"/>
            <stop offset="1" stop-color="#e1e1e1"/>
        </linearGradient>
        <linearGradient id="h">
            <stop offset="0" stop-color="#e9e9e9"/>
            <stop offset="1" stop-color="#fff"/>
        </linearGradient>
        <linearGradient id="g">
            <stop offset="0" stop-color="#fff"/>
            <stop offset=".508" stop-color="#fff" stop-opacity=".235"/>
            <stop offset=".835" stop-color="#fff" stop-opacity=".157"/>
            <stop offset="1" stop-color="#fff" stop-opacity=".392"/>
        </linearGradient>
        <linearGradient xlink:href="#e" id="o" gradientUnits="userSpaceOnUse" gradientTransform="matrix(1.43243 0 0 1.43628 -2.378 -2.47)" x1="24" y1="5" x2="24" y2="43"/>
        <radialGradient xlink:href="#f" id="n" gradientUnits="userSpaceOnUse" gradientTransform="matrix(0 2.31034 -2.31034 0 42.031 -69.086)" cx="32" cy="4.342" fx="32" fy="4.342" r="27.5"/>
        <linearGradient id="i">
            <stop offset="0"/>
            <stop offset="1" stop-opacity="0"/>
        </linearGradient>
        <linearGradient xlink:href="#j" id="p" x1="15" y1="32" x2="49" y2="32" gradientUnits="userSpaceOnUse" gradientTransform="rotate(90 32 32)"/>
    </defs>
    <g opacity=".4">
        <path fill="url(#k)" d="M54.105 56.5H62v5h-7.895z"/>
        <path transform="scale(-1)" fill="url(#l)" d="M-9.895-61.5H-2v5h-7.895z"/>
        <path fill="url(#m)" d="M9.895 56.5h44.211v5H9.895z"/>
    </g>
    <rect width="54" height="54" rx="2.5" ry="2.5" x="5" y="5" style="marker:none" color="#000" fill="url(#n)" overflow="visible"/>
    <rect width="53" height="53.142" rx="2" ry="2" x="5.5" y="5.429" fill="none" stroke="url(#o)" stroke-linecap="round" stroke-linejoin="round"/>
    <rect width="55" height="55" rx="3" ry="3" x="4.5" y="4.5" style="marker:none" opacity=".3" color="#000" fill="none" stroke="#000" overflow="visible"/>
    <path d="M10 10a1 1 0 0 1-2 0 1 1 0 1 1 2 0z" style="marker:none" color="#000" fill="#fff" fill-rule="evenodd" overflow="visible"/>
    <path d="M10 9a1 1 0 0 1-2 0 1 1 0 1 1 2 0z" style="marker:none" opacity=".3" color="#000" fill-rule="evenodd" overflow="visible"/>
    <path d="M56 10a1 1 0 0 1-2 0 1 1 0 1 1 2 0z" style="marker:none" color="#000" fill="#fff" fill-rule="evenodd" overflow="visible"/>
    <path d="M56 9a1 1 0 0 1-2 0 1 1 0 1 1 2 0z" style="marker:none" opacity=".3" color="#000" fill-rule="evenodd" overflow="visible"/>
    <path d="M10 56a1 1 0 0 1-2 0 1 1 0 1 1 2 0z" style="marker:none" color="#000" fill="#fff" fill-rule="evenodd" overflow="visible"/>
    <path d="M10 55a1 1 0 0 1-2 0 1 1 0 1 1 2 0z" style="marker:none" opacity=".3" color="#000" fill-rule="evenodd" overflow="visible"/>
    <path d="M56 56a1 1 0 0 1-2 0 1 1 0 1 1 2 0z" style="marker:none" color="#000" fill="#fff" fill-rule="evenodd" overflow="visible"/>
    <path d="M56 55a1 1 0 0 1-2 0 1 1 0 1 1 2 0z" style="marker:none" opacity=".3" color="#000" fill-rule="evenodd" overflow="visible"/>
    <path style="marker:none" d="M34 50c.554 0 1-.446 1-1v-3.344a12.901 12.901 0 0 0 3.813-1.593l2.374 2.374a.988.988 0 0 0 1.407 0l2.843-2.843a.988.988 0 0 0 0-1.407l-2.374-2.374A12.901 12.901 0 0 0 44.656 36H48c.554 0 1-.446 1-1v-4c0-.554-.446-1-1-1h-3.344a12.929 12.929 0 0 0-1.593-3.813l2.374-2.375a.988.988 0 0 0 0-1.406l-2.843-2.843a.988.988 0 0 0-1.407 0l-2.374 2.375A12.929 12.929 0 0 0 35 20.343V17c0-.554-.446-1-1-1h-4c-.554 0-1 .446-1 1v3.344c-1.37.323-2.648.875-3.813 1.593l-2.375-2.375a.988.988 0 0 0-1.406 0l-2.843 2.844a.988.988 0 0 0 0 1.407l2.375 2.375A12.901 12.901 0 0 0 19.343 30H16c-.554 0-1 .446-1 1v4c0 .554.446 1 1 1h3.344c.323 1.368.876 2.65 1.593 3.813l-2.375 2.374a.988.988 0 0 0 0 1.407l2.844 2.843a.988.988 0 0 0 1.407 0l2.375-2.374A12.929 12.929 0 0 0 29 45.656V49c0 .554.446 1 1 1h4zm-2-11c-3.312 0-6-2.688-6-6s2.688-6 6-6 6 2.688 6 6-2.688 6-6 6z" color="#000" overflow="visible" opacity=".8" fill="#fff"/>
    <path style="marker:none" d="M15 34c0 .554.446 1 1 1h3.344c.323 1.37.875 2.648 1.593 3.812l-2.375 2.375a.988.988 0 0 0 0 1.407l2.844 2.843a.988.988 0 0 0 1.407 0l2.375-2.375A12.901 12.901 0 0 0 29 44.656V48c0 .554.446 1 1 1h4c.554 0 1-.446 1-1v-3.344a12.929 12.929 0 0 0 3.813-1.594l2.374 2.375a.988.988 0 0 0 1.407 0l2.843-2.843a.988.988 0 0 0 0-1.407l-2.374-2.375A12.929 12.929 0 0 0 44.656 35H48c.554 0 1-.446 1-1v-4c0-.554-.446-1-1-1h-3.344a12.901 12.901 0 0 0-1.593-3.813l2.374-2.375a.988.988 0 0 0 0-1.406l-2.843-2.844a.988.988 0 0 0-1.407 0l-2.374 2.375A12.901 12.901 0 0 0 35 19.344V16c0-.554-.446-1-1-1h-4c-.554 0-1 .446-1 1v3.344c-1.368.323-2.65.876-3.813 1.593l-2.375-2.375a.988.988 0 0 0-1.406 0l-2.843 2.844a.988.988 0 0 0 0 1.406l2.375 2.375A12.929 12.929 0 0 0 19.343 29H16c-.554 0-1 .446-1 1v4zm11-2c0-3.312 2.688-6 6-6s6 2.688 6 6-2.688 6-6 6-6-2.688-6-6z" color="#000" overflow="visible" fill="url(#p)"/>
    <path d="M30 15.531c-.805.223-.349 1.282-.469 1.909-.08.74.162 1.56-.121 2.253-.947.522-2.146.609-3.082 1.226-.474.256-1.2.92-1.651.258-.805-.774-1.553-1.617-2.395-2.346-.705-.04-1.06.809-1.587 1.192-.614.645-1.295 1.233-1.864 1.914-.04.705.809 1.06 1.192 1.586.45.56 1.178.953 1.452 1.622-.292 1.034-1.094 1.926-1.327 3.014-.17.515-.197 1.522-.996 1.372-1.111.023-2.231-.046-3.337.036-.534.47-.182 1.323-.284 1.969.023.882-.046 1.773.036 2.649.47.534 1.323.182 1.969.284.708.08 1.497-.16 2.157.121.522.947.61 2.146 1.226 3.082.256.474.92 1.2.258 1.651-.774.805-1.617 1.553-2.346 2.395-.04.705.809 1.06 1.193 1.587.644.614 1.232 1.295 1.913 1.864.705.04 1.06-.809 1.586-1.193.56-.448.953-1.177 1.622-1.45 1.034.29 1.927 1.093 3.014 1.326.515.17 1.522.197 1.372.996.023 1.111-.046 2.231.036 3.337.47.534 1.323.182 1.969.284.882-.023 1.773.046 2.649-.036.534-.47.182-1.323.284-1.969.08-.708-.16-1.497.121-2.157.947-.522 2.146-.609 3.082-1.226.474-.256 1.2-.92 1.651-.258.805.774 1.553 1.617 2.395 2.346.705.04 1.06-.809 1.587-1.193.614-.644 1.295-1.232 1.864-1.913.04-.705-.809-1.06-1.192-1.587-.45-.56-1.178-.952-1.452-1.621.292-1.034 1.094-1.926 1.327-3.014.17-.515.197-1.522.996-1.372 1.111-.023 2.231.046 3.337-.036.534-.47.182-1.323.284-1.969-.023-.882.046-1.773-.036-2.649-.47-.534-1.323-.182-1.969-.284-.708-.08-1.497.16-2.157-.121-.522-.947-.61-2.146-1.226-3.082-.256-.474-.92-1.2-.258-1.651.774-.805 1.617-1.553 2.346-2.395.04-.705-.809-1.06-1.193-1.587-.644-.614-1.232-1.295-1.913-1.864-.705-.04-1.06.809-1.587 1.192-.56.45-.952 1.178-1.621 1.452-1.034-.292-1.927-1.094-3.014-1.328-.515-.17-1.522-.196-1.372-.995-.023-1.111.046-2.231-.036-3.337-.47-.534-1.323-.182-1.969-.284H30z" style="marker:none" overflow="visible" opacity=".1" fill="none" stroke="#000"/>
    <path d="M32.002 38.54c3.735.112 6.99-3.492 6.497-7.198-.272-3.723-4.178-6.592-7.813-5.731-3.672.646-6.137 4.81-4.922 8.34.8 2.677 3.44 4.63 6.238 4.59z" style="marker:none" overflow="visible" opacity=".1" fill="none" stroke="#000"/>
</svg>
