<?xml version="1.0" encoding="UTF-8" standalone="no"?>
<svg
   xmlns:dc="http://purl.org/dc/elements/1.1/"
   xmlns:cc="http://creativecommons.org/ns#"
   xmlns:rdf="http://www.w3.org/1999/02/22-rdf-syntax-ns#"
   xmlns:svg="http://www.w3.org/2000/svg"
   xmlns="http://www.w3.org/2000/svg"
   version="1.1"
   id="svg3041"
   height="64"
   width="204">
  <defs
     id="defs3043" />
  <metadata
     id="metadata3046">
    <rdf:RDF>
      <cc:Work
         rdf:about="">
        <dc:format>image/svg+xml</dc:format>
        <dc:type
           rdf:resource="http://purl.org/dc/dcmitype/StillImage" />
        <dc:title></dc:title>
      </cc:Work>
    </rdf:RDF>
  </metadata>
  <g
     transform="translate(-662.237,-562.70801)"
     id="layer1">
    <g
       transform="translate(53.538085,-120.20815)"
       id="g4480" />
    <g
       transform="translate(-227.3622,344.1437)"
       id="g5180" />
    <path
       style="fill:#333333;fill-opacity:1;fill-rule:evenodd;stroke:none;opacity:0.4"
       d="m 710.02307,562.70888 c -4.45347,0.0503 -8.14629,3.06427 -8.45464,7.04109 -0.0337,0.43446 -0.0204,0.85929 0.0266,1.2802 -1.45867,-0.4672 -3.03261,-0.77798 -4.69406,-0.90681 -7.23482,-0.56098 -13.52817,2.60182 -14.96232,7.25446 -4.78474,1.54955 -8.58289,4.56342 -10.45495,8.42797 -4.24906,-0.22117 -7.93646,3.00604 -8.26795,7.28113 -0.33674,4.34295 2.89346,8.14522 7.22779,8.48131 1.37161,0.10635 2.69732,-0.16081 3.86726,-0.69344 3.38511,3.56382 8.60255,6.07016 14.58893,6.53434 5.39275,0.41815 10.39941,-0.90498 14.18886,-3.36052 1.49709,2.47505 4.27744,4.30606 7.60118,4.80075 l 0,0.08 c 0.0992,-0.01 0.19503,-0.0412 0.29338,-0.0534 0.1003,0.0124 0.19214,0.0434 0.29337,0.0534 l 0,-0.08 c 3.3289,-0.49214 6.10235,-2.32281 7.60118,-4.80075 3.78946,2.45554 8.82279,3.77868 14.21553,3.36052 5.98638,-0.46417 11.17715,-2.97052 14.56226,-6.53434 1.16996,0.53263 2.49566,0.7998 3.86727,0.69344 4.33432,-0.33608 7.59119,-4.13837 7.25445,-8.48131 -0.33148,-4.27509 -4.01889,-7.5023 -8.26794,-7.28113 -1.87206,-3.86455 -5.69689,-6.87842 -10.48163,-8.42797 -1.43415,-4.65264 -7.70082,-7.81544 -14.93564,-7.25446 -1.66145,0.12883 -3.2354,0.43961 -4.69407,0.90681 0.047,-0.42091 0.0604,-0.84574 0.0266,-1.2802 -0.30835,-3.97682 -4.02784,-6.99071 -8.48131,-7.04109 -0.2969,-0.003 -0.60404,0.003 -0.90681,0.0266 -0.0179,0.002 -0.0356,-0.002 -0.0533,0 -0.0177,-0.002 -0.0354,0.002 -0.0533,0 -0.30277,-0.0235 -0.6099,-0.0301 -0.90681,-0.0266 z m 0.85346,5.33416 0.13336,0 c 0.75571,0 1.44074,0.21258 1.94697,0.58676 0.50622,0.37417 0.82679,0.90718 0.82679,1.49356 0,0.17308 -0.0536,0.34368 -0.10668,0.50675 l 2.24035,1.65359 c 0.46611,-0.26122 1.00695,-0.42674 1.62691,-0.42674 0.75548,0 1.44068,0.21457 1.94697,0.58676 0.50629,0.3722 0.85347,0.90721 0.85347,1.49357 0,0.38588 -0.1857,0.73106 -0.42673,1.04016 l 3.14715,2.29369 c 0.39854,-0.16674 0.8463,-0.26671 1.33354,-0.26671 0.75571,0 1.46742,0.21257 1.97364,0.58675 0.50621,0.37419 0.82679,0.90719 0.82679,1.49357 0,0.33114 -0.1392,0.632 -0.32005,0.90681 l 2.98713,2.16033 c 0.40322,-0.17159 0.86587,-0.29338 1.36021,-0.29338 0.75571,0 1.44075,0.21257 1.94697,0.58676 0.50622,0.37418 0.82679,0.90721 0.82679,1.49357 0,0.58638 -0.32057,1.11938 -0.82679,1.49356 -0.50622,0.37417 -1.19126,0.58676 -1.94697,0.58676 -0.75571,0 -1.44074,-0.21259 -1.94697,-0.58676 -0.50622,-0.37418 -0.85346,-0.90718 -0.85346,-1.49356 0,-0.45267 0.23904,-0.8619 0.56008,-1.20019 l -2.80043,-2.05365 c -0.48513,0.30623 -1.10999,0.50674 -1.78694,0.50674 -0.61719,0 -1.16249,-0.16782 -1.62692,-0.42673 l -2.24035,1.62692 c 0.19324,0.23577 0.3596,0.49072 0.42674,0.77345 0.0224,0.0942 0.0266,0.19319 0.0266,0.29338 0,0.58636 -0.32058,1.11938 -0.82679,1.49356 -0.25311,0.18709 -0.55114,0.35349 -0.88014,0.45341 -0.1645,0.0499 -0.32834,0.0809 -0.50674,0.10668 -0.1784,0.0258 -0.37117,0.0266 -0.56009,0.0266 -0.59431,0 -1.14582,-0.13188 -1.60025,-0.37339 l -3.14715,2.32036 c 0.32439,0.27347 0.56561,0.63354 0.66677,1.01349 0.0337,0.12664 0.0533,0.23944 0.0533,0.37339 0,0.58635 -0.32058,1.09271 -0.82679,1.46689 -0.12656,0.0935 -0.25285,0.19167 -0.40007,0.26671 -0.29443,0.1501 -0.63001,0.2635 -0.98682,0.32005 -0.17839,0.0282 -0.37116,0.0266 -0.56008,0.0266 -0.75571,0 -1.44075,-0.23924 -1.94697,-0.61343 -0.2531,-0.1871 -0.47,-0.39345 -0.61343,-0.6401 -0.0717,-0.12332 -0.12206,-0.26428 -0.16002,-0.40006 -0.038,-0.13578 -0.0534,-0.28014 -0.0534,-0.42673 0,-0.58636 0.32058,-1.11939 0.8268,-1.49357 0.50622,-0.37418 1.19126,-0.61343 1.94697,-0.61343 0.37726,0 0.73821,0.0835 1.06683,0.1867 l 3.38719,-2.45371 c -0.121,-0.15419 -0.21695,-0.307 -0.29338,-0.48008 -0.0765,-0.17308 -0.13335,-0.36642 -0.13335,-0.56009 0,-0.58638 0.3205,-1.12137 0.82679,-1.49356 0.12657,-0.093 0.25282,-0.16759 0.40007,-0.24004 0.44171,-0.21736 0.98029,-0.34672 1.5469,-0.34672 0.56812,0 1.07657,0.1509 1.52024,0.37339 l 2.29368,-1.65359 c -0.11188,-0.14948 -0.22133,-0.31048 -0.29337,-0.48007 -0.072,-0.16959 -0.10669,-0.34778 -0.10669,-0.53342 0,-0.45864 0.25785,-0.85881 0.58676,-1.20018 l -3.09381,-2.26702 c -0.45172,0.23551 -0.9877,0.40006 -1.57358,0.40006 -0.66503,0 -1.25236,-0.18363 -1.7336,-0.48007 l -2.58707,1.89363 c 0.23115,0.24962 0.40228,0.53911 0.48008,0.85346 0.0259,0.10478 0.0533,0.20928 0.0533,0.32005 0,0.58637 -0.32058,1.11938 -0.8268,1.49356 -0.12655,0.0935 -0.27701,0.19417 -0.42673,0.26671 -0.29944,0.1451 -0.62501,0.24183 -0.98682,0.29338 -0.1809,0.0258 -0.37116,0.0266 -0.56009,0.0266 -0.7557,0 -1.44075,-0.21257 -1.94696,-0.58676 -0.50622,-0.37418 -0.8268,-0.90719 -0.8268,-1.49356 0,-0.58639 0.32051,-1.12138 0.8268,-1.49357 0.50629,-0.37219 1.19149,-0.58675 1.94696,-0.58675 0.52084,0 1.02173,0.10428 1.44023,0.29337 l 2.69375,-1.97363 c -0.18199,-0.27605 -0.32005,-0.57491 -0.32005,-0.90681 0,-0.0904 0.009,-0.17995 0.0266,-0.26671 0.0552,-0.26026 0.18734,-0.50212 0.34672,-0.72011 l -2.02698,-1.49356 c -0.51492,0.46187 -1.25585,0.77345 -2.107,0.77345 -0.70859,0 -1.34516,-0.25375 -1.84028,-0.58676 l -2.00031,1.38688 c 0.17674,0.27301 0.29338,0.58052 0.29338,0.90681 0,0.58638 -0.32058,1.09272 -0.8268,1.46689 -0.50621,0.37418 -1.19126,0.61343 -1.94696,0.61343 -0.50451,0 -0.97731,-0.11499 -1.38689,-0.29338 l -3.14715,2.13367 c 0.35051,0.3472 0.6401,0.75149 0.6401,1.22685 0,0.0956 -0.005,0.20197 -0.0266,0.29338 -0.0644,0.27425 -0.2222,0.51617 -0.40006,0.74678 l 2.29369,1.65359 c 0.33892,-0.11142 0.7006,-0.18669 1.0935,-0.18669 0.7557,0 1.44074,0.23926 1.94697,0.61342 0.50622,0.37417 0.82679,0.88052 0.82679,1.4669 0,0.58638 -0.32057,1.11939 -0.82679,1.49356 -0.50623,0.37418 -1.19126,0.61343 -1.94697,0.61343 -0.7557,0 -1.44265,-0.23914 -1.94697,-0.61343 -0.50432,-0.37429 -0.82679,-0.90749 -0.82679,-1.49356 0,-0.26871 0.0611,-0.51963 0.18669,-0.74678 0.0628,-0.11358 0.15212,-0.21737 0.24004,-0.32005 0.0879,-0.10268 0.18453,-0.20195 0.29338,-0.29338 l -2.10699,-1.54691 c -0.45308,0.23868 -0.9833,0.42673 -1.57358,0.42673 -0.73156,0 -1.39348,-0.2608 -1.89363,-0.61342 l -2.93378,2.02698 c 0.35431,0.27755 0.63246,0.64258 0.74678,1.04016 0.0381,0.13252 0.0533,0.25916 0.0533,0.40006 0,0.25481 -0.10242,0.4702 -0.21337,0.69344 l 2.58707,1.86696 c 0.34803,-0.11791 0.7154,-0.1867 1.12017,-0.1867 0.7557,0 1.46743,0.21258 1.97364,0.58676 0.50622,0.37417 0.8268,0.90721 0.8268,1.49356 0,0.58638 -0.32051,1.12138 -0.8268,1.49357 -0.50629,0.37218 -1.21817,0.58675 -1.97364,0.58675 -0.37773,0 -0.73781,-0.0332 -1.06683,-0.13335 -0.16451,-0.0501 -0.33283,-0.11425 -0.48007,-0.1867 -0.14724,-0.0725 -0.27349,-0.17366 -0.40006,-0.2667 -0.5063,-0.37219 -0.8268,-0.90719 -0.8268,-1.49357 0,-0.5226 0.33179,-0.97032 0.74678,-1.33354 l -2.34703,-1.68026 c -0.50519,0.37282 -1.16586,0.6401 -1.92029,0.6401 -0.86315,0 -1.61954,-0.3005 -2.13367,-0.77345 l -2.77376,1.92029 c 0.13429,0.15958 0.26027,0.35121 0.34672,0.53342 0.0432,0.0911 0.0826,0.1699 0.10668,0.26671 0.0241,0.0968 0.0266,0.19085 0.0266,0.29338 0,0.5864 -0.3205,1.12137 -0.82679,1.49356 -0.12657,0.0931 -0.25283,0.19425 -0.40007,0.26671 -0.29447,0.14491 -0.63004,0.24151 -0.98681,0.29338 -0.17839,0.0259 -0.37123,0.0266 -0.56009,0.0266 -0.75548,0 -1.46735,-0.21456 -1.97364,-0.58676 -0.50629,-0.3722 -0.82679,-0.90717 -0.82679,-1.49356 0,-0.58636 0.32057,-1.11939 0.82679,-1.49357 0.50622,-0.37418 1.21793,-0.58676 1.97364,-0.58676 0.5266,0 0.99119,0.1268 1.41355,0.32005 l 3.12048,-2.13366 c -0.0443,-0.14151 -0.10668,-0.26989 -0.10668,-0.42673 0,-0.58636 0.32058,-1.11938 0.8268,-1.49357 0.50621,-0.37418 1.19126,-0.61343 1.94696,-0.61343 0.32224,0 0.64401,0.0568 0.93348,0.13336 l 0.42673,-0.32005 0.0533,-0.0266 2.8271,-1.9203 c -0.11217,-0.22608 -0.21337,-0.46415 -0.21337,-0.72011 0,-0.58635 0.32058,-1.11938 0.8268,-1.49356 0.50621,-0.37419 1.21793,-0.58676 1.97364,-0.58676 0.42889,0 0.80917,0.0819 1.17351,0.21337 l 0.37339,-0.24004 2.82711,-1.94697 c -0.27249,-0.32089 -0.50675,-0.68007 -0.50675,-1.0935 0,-0.58638 0.34718,-1.12138 0.85347,-1.49357 0.50629,-0.37218 1.19149,-0.58675 1.94697,-0.58675 0.64818,0 1.22977,0.17001 1.70693,0.4534 l 2.05365,-1.38688 c -0.13418,-0.24384 -0.24004,-0.51848 -0.24004,-0.80013 0,-0.58635 0.32058,-1.11937 0.82679,-1.49356 0.47293,-0.34957 1.14293,-0.53243 1.84029,-0.56009 l 0,-0.0266 z m 0.13336,0.88014 c -0.51698,0 -0.99391,0.16791 -1.30687,0.40006 -0.23577,0.17487 -0.39206,0.37359 -0.4534,0.58676 -0.0205,0.0711 -0.0266,0.13732 -0.0266,0.21336 0,0.22821 0.0875,0.44608 0.26671,0.6401 0.0597,0.0647 0.13478,0.1284 0.21336,0.1867 0.23472,0.17409 0.56658,0.31528 0.93348,0.37339 0.1223,0.0194 0.24415,0.0266 0.37339,0.0266 0.51703,0 0.96478,-0.16729 1.2802,-0.40007 0.31684,-0.23385 0.48007,-0.52475 0.48007,-0.82679 0,-0.30195 -0.16325,-0.56632 -0.48007,-0.80013 -0.31542,-0.2328 -0.76317,-0.40006 -1.2802,-0.40006 z m -6.32098,3.81392 c -0.51725,0 -0.99369,0.14269 -1.30687,0.37339 -0.236,0.17389 -0.37296,0.39246 -0.42673,0.61343 -0.0179,0.0736 -0.0266,0.13731 -0.0266,0.21337 0,0.22814 0.0683,0.44607 0.24004,0.64009 0.0573,0.0647 0.13478,0.12841 0.21336,0.1867 0.31296,0.23215 0.78989,0.37339 1.30687,0.37339 0.51702,0 0.96478,-0.14058 1.2802,-0.37339 0.31683,-0.23381 0.48008,-0.52481 0.48008,-0.82679 0,-0.30196 -0.16294,-0.59431 -0.48008,-0.8268 -0.31564,-0.23136 -0.76292,-0.37339 -1.2802,-0.37339 z m 12.85532,0 c -0.51723,0 -0.96701,0.14269 -1.28019,0.37339 -0.23601,0.17389 -0.39214,0.39246 -0.45341,0.61343 -0.0204,0.0736 -0.0266,0.13731 -0.0266,0.21337 0,0.22814 0.0875,0.44607 0.26671,0.64009 0.0597,0.0647 0.13478,0.12841 0.21337,0.1867 0.31295,0.23215 0.76322,0.37339 1.2802,0.37339 0.51702,0 0.99144,-0.14058 1.30687,-0.37339 0.31682,-0.23381 0.48007,-0.52481 0.48007,-0.82679 0,-0.30196 -0.16293,-0.59431 -0.48007,-0.8268 -0.31565,-0.23136 -0.78959,-0.37339 -1.30687,-0.37339 z m -6.58768,4.66739 c -0.51728,0 -0.96455,0.16868 -1.2802,0.40006 -0.23784,0.17433 -0.39271,0.37374 -0.4534,0.58676 -0.0202,0.071 -0.0266,0.13788 -0.0266,0.21337 0,0.22652 0.0871,0.44547 0.26671,0.64009 0.0598,0.0649 0.13416,0.12825 0.21336,0.1867 0.23657,0.17461 0.54798,0.31544 0.90681,0.37339 0.11961,0.0193 0.24413,0.0266 0.37339,0.0266 0.51698,0 0.99392,-0.1679 1.30687,-0.40006 0.31436,-0.23315 0.48007,-0.52257 0.48007,-0.8268 0,-0.30415 -0.16541,-0.56832 -0.48007,-0.80012 -0.31318,-0.23073 -0.78963,-0.40006 -1.30687,-0.40006 z m -12.93534,0.48007 c -0.51724,0 -0.99371,0.16933 -1.30687,0.40007 -0.236,0.17384 -0.39213,0.39244 -0.4534,0.61342 -0.0204,0.0737 -0.0266,0.13732 -0.0266,0.21337 0,0.22817 0.0875,0.45358 0.26671,0.6401 0.0597,0.0622 0.13478,0.10173 0.21337,0.16002 0.23472,0.17409 0.56657,0.31528 0.93347,0.3734 0.12231,0.0194 0.24415,0.0266 0.37339,0.0266 0.51703,0 0.96478,-0.16726 1.2802,-0.40006 0.31684,-0.23386 0.48008,-0.49812 0.48008,-0.80012 0,-0.30196 -0.16294,-0.59431 -0.48008,-0.8268 -0.31565,-0.23135 -0.76292,-0.40006 -1.2802,-0.40006 z m 26.37742,0 c -0.51728,0 -0.96455,0.16871 -1.2802,0.40007 -0.23785,0.17436 -0.39271,0.39291 -0.4534,0.61342 -0.0202,0.0735 -0.0266,0.13788 -0.0266,0.21337 0,0.22649 0.0871,0.45296 0.26671,0.6401 0.0598,0.0624 0.13415,0.10156 0.21336,0.16002 0.23658,0.17461 0.54798,0.31544 0.90681,0.3734 0.11961,0.0193 0.24413,0.0266 0.37339,0.0266 0.51698,0 0.9939,-0.16794 1.30687,-0.40006 0.31436,-0.23316 0.48007,-0.4959 0.48007,-0.80012 0,-0.30419 -0.16541,-0.595 -0.48007,-0.8268 -0.31317,-0.23074 -0.78963,-0.40006 -1.30687,-0.40006 z m -6.18763,4.37401 c -0.51725,0 -0.9937,0.16933 -1.30687,0.40006 -0.236,0.17388 -0.37296,0.37329 -0.42673,0.58676 -0.0179,0.0712 -0.0266,0.13733 -0.0266,0.21337 0,0.22816 0.0683,0.44607 0.24004,0.6401 0.0573,0.0647 0.13478,0.12839 0.21337,0.18669 0.23472,0.17409 0.56657,0.31528 0.93348,0.3734 0.1223,0.0194 0.24414,0.0266 0.37339,0.0266 0.51703,0 0.99144,-0.16729 1.30687,-0.40006 0.31684,-0.23386 0.4534,-0.52479 0.4534,-0.82679 0,-0.30196 -0.13627,-0.56764 -0.4534,-0.80013 -0.31565,-0.23135 -0.78959,-0.40006 -1.30687,-0.40006 z m -14.45557,0.21337 c -0.51698,0 -0.96725,0.16795 -1.28019,0.40006 -0.23577,0.17491 -0.39207,0.39277 -0.45341,0.61343 -0.0205,0.0736 -0.0266,0.13731 -0.0266,0.21337 0,0.30418 0.16572,0.59363 0.48008,0.82679 0.23472,0.17412 0.5474,0.29612 0.9068,0.34672 0.1198,0.0169 0.24415,0.0266 0.3734,0.0266 0.51703,0 0.99144,-0.14058 1.30686,-0.37339 0.31683,-0.23382 0.48008,-0.5248 0.48008,-0.8268 0,-0.30199 -0.16324,-0.59294 -0.48008,-0.82679 -0.31542,-0.23281 -0.78983,-0.40006 -1.30686,-0.40006 z m 27.47092,0.26671 c -0.51724,0 -0.9937,0.16937 -1.30687,0.40006 -0.236,0.17388 -0.37296,0.37329 -0.42673,0.58676 -0.0179,0.0712 -0.0266,0.13733 -0.0266,0.21337 0,0.2282 0.0683,0.44607 0.24004,0.64009 0.0573,0.0647 0.13477,0.12838 0.21336,0.1867 0.23472,0.17409 0.56657,0.31528 0.93348,0.37339 0.1223,0.0194 0.24415,0.0266 0.3734,0.0266 0.51697,0 0.96723,-0.16794 1.28019,-0.40006 0.31439,-0.23326 0.48008,-0.52252 0.48008,-0.8268 0,-0.30413 -0.16541,-0.56828 -0.48008,-0.80012 -0.31318,-0.2307 -0.76295,-0.40006 -1.28019,-0.40006 z m -40.03286,0.08 c -0.51698,0 -0.96724,0.1679 -1.2802,0.40006 -0.23577,0.17487 -0.39206,0.39277 -0.4534,0.61343 -0.0205,0.0736 -0.0266,0.13731 -0.0266,0.21337 0,0.22813 0.0874,0.45376 0.26671,0.64009 0.0597,0.0621 0.1347,0.10208 0.21336,0.16003 0.23488,0.17306 0.54742,0.31495 0.90681,0.37339 0.1198,0.0195 0.24408,0.0266 0.37339,0.0266 0.51725,0 0.9937,-0.16932 1.30687,-0.40007 0.31466,-0.2318 0.48007,-0.49593 0.48007,-0.80012 0,-0.30419 -0.16571,-0.59364 -0.48007,-0.82679 -0.31296,-0.23216 -0.78988,-0.40006 -1.30687,-0.40006 z m -7.20112,4.34734 c -0.51698,0 -0.9939,0.16793 -1.30686,0.40006 -0.23577,0.17486 -0.39206,0.39276 -0.45341,0.61343 -0.0205,0.0736 -0.0266,0.13731 -0.0266,0.21336 0,0.22808 0.0874,0.45374 0.26671,0.6401 0.0597,0.0621 0.1347,0.10207 0.21337,0.16003 0.23489,0.17302 0.56659,0.31494 0.93348,0.37339 0.12229,0.0195 0.24408,0.0266 0.37339,0.0266 0.51722,0 0.96701,-0.16936 1.2802,-0.40006 0.31466,-0.23185 0.48007,-0.49603 0.48007,-0.80013 0,-0.30422 -0.16573,-0.59364 -0.48007,-0.82679 -0.31297,-0.23213 -0.76323,-0.40007 -1.2802,-0.40007 z m 13.49543,0.13335 c -0.51699,0 -0.96725,0.16791 -1.2802,0.40006 -0.23577,0.17487 -0.39206,0.3736 -0.45341,0.58676 -0.0205,0.0711 -0.0266,0.13732 -0.0266,0.21337 0,0.15211 0.0526,0.31371 0.13335,0.4534 0.0404,0.0698 0.0736,0.12209 0.13336,0.1867 0.0597,0.0646 0.1347,0.12874 0.21336,0.18669 0.23488,0.17305 0.54741,0.31496 0.90681,0.37339 0.1198,0.0195 0.24408,0.0266 0.37339,0.0266 0.51727,0 0.99122,-0.16868 1.30687,-0.40006 0.31714,-0.23245 0.48007,-0.5248 0.48007,-0.8268 0,-0.30194 -0.16326,-0.56632 -0.48007,-0.80012 -0.31543,-0.23282 -0.78985,-0.40006 -1.30687,-0.40006 z m 13.92215,0.37339 c -0.51728,0 -0.96454,0.14204 -1.2802,0.37339 -0.23784,0.17432 -0.39271,0.39291 -0.4534,0.61343 -0.0202,0.0735 -0.0266,0.13789 -0.0266,0.21337 0,0.22653 0.0871,0.44546 0.26671,0.6401 0.0598,0.0649 0.13416,0.12823 0.21336,0.18669 0.31543,0.2328 0.76318,0.37339 1.2802,0.37339 0.51699,0 0.99392,-0.14127 1.30687,-0.37339 0.31436,-0.23316 0.4534,-0.52257 0.4534,-0.82679 0,-0.3041 -0.13873,-0.59496 -0.4534,-0.8268 -0.31317,-0.23071 -0.78963,-0.37339 -1.30687,-0.37339 z"
       id="path4367" />
    <path
       d="m 864.47203,602.62252 0,-6.36931 c 0,-1.56862 -0.45967,-2.35293 -1.37901,-2.35294 -0.63205,10e-6 -1.08741,0.27437 -1.36608,0.8231 -0.27868,0.54874 -0.41802,1.35747 -0.41801,2.4262 l 0,5.47295 -0.81017,0 0,-6.36931 c -10e-6,-0.79292 -0.11205,-1.38331 -0.33614,-1.77117 -0.22409,-0.38784 -0.57172,-0.58176 -1.04287,-0.58177 -0.62056,10e-6 -1.07162,0.28156 -1.35316,0.84464 -0.28155,0.56311 -0.42233,1.47671 -0.42232,2.74079 l 0,5.13682 -0.81879,0 0,-9.35142 0.6895,0 0.069,1.30144 0.0776,0 c 0.37347,-0.98828 1.00839,-1.48243 1.90475,-1.48244 0.51713,10e-6 0.92509,0.13791 1.22388,0.4137 0.29878,0.27582 0.51425,0.67803 0.64641,1.20664 0.22408,-0.57458 0.49989,-0.98828 0.82741,-1.24111 0.32751,-0.25281 0.7527,-0.37922 1.27558,-0.37923 0.70674,10e-6 1.22387,0.2715 1.55139,0.81448 0.32751,0.54299 0.49127,1.41206 0.49128,2.60719 l 0,6.11075 z m -10.02369,-4.69726 c -10e-6,1.57438 -0.24852,2.77958 -0.74553,3.6156 -0.49702,0.83603 -1.20807,1.25404 -2.13316,1.25404 -0.9136,0 -1.61316,-0.41801 -2.09868,-1.25404 -0.48553,-0.83602 -0.72829,-2.04122 -0.72829,-3.6156 0,-3.22343 0.95381,-4.83515 2.86145,-4.83516 0.89635,10e-6 1.59448,0.42233 2.09437,1.26697 0.49989,0.84465 0.74983,2.03405 0.74984,3.56819 z m -4.8524,0 c 0,1.35029 0.16088,2.37018 0.48266,3.05968 0.32176,0.68951 0.82453,1.03426 1.50829,1.03426 1.33879,0 2.00818,-1.36464 2.00819,-4.09394 -1e-5,-2.7063 -0.6694,-4.05946 -2.00819,-4.05946 -0.701,0 -1.20807,0.33901 -1.52122,1.01702 -0.31316,0.67802 -0.46973,1.69216 -0.46973,3.04244 z m -12.37663,4.86964 c -0.9883,0 -1.74819,-0.42089 -2.27968,-1.26266 -0.5315,-0.84177 -0.79724,-2.01537 -0.79724,-3.52079 0,-1.59735 0.23701,-2.81691 0.71105,-3.65869 0.47403,-0.84176 1.15636,-1.26265 2.04697,-1.26266 0.77569,10e-6 1.38762,0.36918 1.83581,1.10752 0.44817,0.73836 0.67226,1.73383 0.67227,2.98642 l 0,0.75846 -4.43008,0 c 0.0115,1.36178 0.20398,2.38167 0.57746,3.05968 0.37348,0.67802 0.93945,1.01702 1.69791,1.01702 0.58608,0 1.20376,-0.19248 1.85305,-0.57746 l 0,0.79293 c -0.59758,0.37349 -1.22675,0.56023 -1.88752,0.56023 z m -0.37061,-8.96358 c -1.1262,10e-6 -1.74388,1.12333 -1.85305,3.36996 l 3.59405,0 c 0,-1.02851 -0.15658,-1.8473 -0.46972,-2.45637 -0.31316,-0.60905 -0.73692,-0.91358 -1.27128,-0.91359 z m -6.55893,8.96358 c -0.98829,0 -1.74819,-0.42089 -2.27968,-1.26266 -0.5315,-0.84177 -0.79724,-2.01537 -0.79724,-3.52079 0,-1.59735 0.23702,-2.81691 0.71105,-3.65869 0.47404,-0.84176 1.15636,-1.26265 2.04697,-1.26266 0.77569,10e-6 1.38763,0.36918 1.83581,1.10752 0.44818,0.73836 0.67227,1.73383 0.67227,2.98642 l 0,0.75846 -4.43007,0 c 0.0115,1.36178 0.20397,2.38167 0.57746,3.05968 0.37348,0.67802 0.93945,1.01702 1.69791,1.01702 0.58607,0 1.20375,-0.19248 1.85304,-0.57746 l 0,0.79293 c -0.59757,0.37349 -1.22675,0.56023 -1.88752,0.56023 z m -0.37061,-8.96358 c -1.12619,10e-6 -1.74388,1.12333 -1.85305,3.36996 l 3.59405,0 c 0,-1.02851 -0.15658,-1.8473 -0.46972,-2.45637 -0.31316,-0.60905 -0.73692,-0.91358 -1.27128,-0.91359 z m -4.51626,-0.74122 c 0.29303,10e-6 0.56596,0.0402 0.81879,0.12066 l -0.19824,0.81879 c -0.20686,-0.0862 -0.41945,-0.12927 -0.63779,-0.12928 -0.31603,10e-6 -0.6105,0.16233 -0.88343,0.48696 -0.27293,0.32465 -0.48697,0.77714 -0.64211,1.35747 -0.15514,0.58034 -0.23271,1.221 -0.2327,1.922 l 0,4.95582 -0.81879,0 0,-9.35142 0.67227,0 0.0862,1.63757 0.0603,0 c 0.43668,-1.21237 1.02851,-1.81856 1.77548,-1.81857 z m -14.07455,9.7048 c -0.98829,0 -1.74818,-0.42089 -2.27968,-1.26266 -0.53149,-0.84177 -0.79724,-2.01537 -0.79724,-3.52079 0,-1.59735 0.23702,-2.81691 0.71105,-3.65869 0.47404,-0.84176 1.15636,-1.26265 2.04698,-1.26266 0.77568,10e-6 1.38762,0.36918 1.83581,1.10752 0.44817,0.73836 0.67226,1.73383 0.67226,2.98642 l 0,0.75846 -4.43007,0 c 0.0115,1.36178 0.20397,2.38167 0.57746,3.05968 0.37348,0.67802 0.93945,1.01702 1.69791,1.01702 0.58608,0 1.20375,-0.19248 1.85305,-0.57746 l 0,0.79293 c -0.59758,0.37349 -1.22676,0.56023 -1.88753,0.56023 z m -0.37061,-8.96358 c -1.12619,10e-6 -1.74388,1.12333 -1.85305,3.36996 l 3.59406,0 c -10e-6,-1.02851 -0.15659,-1.8473 -0.46973,-2.45637 -0.31316,-0.60905 -0.73691,-0.91358 -1.27128,-0.91359 z m -4.51626,-0.74122 c 0.29303,10e-6 0.56596,0.0402 0.81879,0.12066 l -0.19823,0.81879 c -0.20686,-0.0862 -0.41946,-0.12927 -0.6378,-0.12928 -0.31603,10e-6 -0.6105,0.16233 -0.88343,0.48696 -0.27293,0.32465 -0.48697,0.77714 -0.6421,1.35747 -0.15514,0.58034 -0.23271,1.221 -0.23271,1.922 l 0,4.95582 -0.81879,0 0,-9.35142 0.67227,0 0.0862,1.63757 0.0603,0 c 0.43668,-1.21237 1.02851,-1.81856 1.77548,-1.81857 z m -5.73152,9.53242 -0.10343,-1.31006 -0.0344,0 c -0.44819,0.98829 -1.1262,1.48244 -2.03405,1.48244 -0.60906,0 -1.0989,-0.24277 -1.46951,-0.72829 -0.37061,-0.48553 -0.55591,-1.13625 -0.55591,-1.95216 0,-0.89061 0.26718,-1.59592 0.80155,-2.11593 0.53436,-0.52 1.2842,-0.80298 2.24951,-0.84895 l 1.00841,-0.0517 0,-0.77569 c -10e-6,-0.87337 -0.10918,-1.50972 -0.32752,-1.90907 -0.21835,-0.39933 -0.58034,-0.599 -1.08597,-0.59901 -0.53437,10e-6 -1.08023,0.17526 -1.63758,0.52575 l -0.35337,-0.64641 c 0.64928,-0.40221 1.33017,-0.60331 2.04266,-0.60332 0.76994,1e-5 1.32442,0.24277 1.66343,0.72829 0.33901,0.48554 0.50851,1.29714 0.50851,2.43482 l 0,6.36931 z m -1.99095,-0.52575 c 0.58608,0 1.04144,-0.28872 1.36608,-0.86619 0.32464,-0.57746 0.48696,-1.39481 0.48697,-2.45206 l 0,-0.97392 -0.97393,0.0517 c -0.75271,0.0402 -1.3115,0.24851 -1.67636,0.62487 -0.36487,0.37636 -0.5473,0.92652 -0.5473,1.6505 0,0.67802 0.12067,1.17504 0.36199,1.49106 0.24133,0.31602 0.56884,0.47403 0.98255,0.47403 z m -6.11937,0.52575 -1.29282,-6.33483 c -0.0115,-0.046 -0.0216,-0.0948 -0.0302,-0.14652 -0.009,-0.0517 -0.0991,-0.60332 -0.2715,-1.65482 l -0.0172,0 -0.12067,0.7326 -0.19823,1.06874 -1.33592,6.33483 -0.97393,0 -2.03404,-9.35142 0.81879,0 1.16354,5.44709 0.54299,2.84422 0.0517,0 c 0.10342,-0.82166 0.27005,-1.77548 0.49989,-2.86145 l 1.16354,-5.42986 0.86189,0 1.17216,5.44709 c 0.0919,0.40797 0.25568,1.35604 0.49127,2.84422 l 0.0517,0 c 0.0172,-0.18962 0.10199,-0.66652 0.25426,-1.43073 0.15226,-0.7642 0.63922,-3.05106 1.46089,-6.86058 l 0.81017,0 -2.103,9.35142 z m -7.34324,-0.58608 c 0.25282,0 0.47691,-0.0344 0.67227,-0.10342 l 0,0.6895 c -0.25282,0.11492 -0.57746,0.17238 -0.97393,0.17238 -0.96531,0 -1.44796,-0.72111 -1.44796,-2.16333 l 0,-6.63649 -0.84464,0 0,-0.48266 0.8274,-0.24132 0.26719,-2.22366 0.56884,0 0,2.22366 1.48244,0 0,0.72398 -1.48244,0 0,6.40378 c 0,0.63205 0.069,1.06299 0.20685,1.29283 0.1379,0.22984 0.37923,0.34475 0.72398,0.34475 z m -7.68797,-4.11118 c -4e-5,1.57438 -0.24852,2.77958 -0.74555,3.6156 -0.49703,0.83603 -1.20809,1.25404 -2.13317,1.25404 -0.9136,0 -1.61315,-0.41801 -2.09867,-1.25404 -0.48552,-0.83602 -0.7283,-2.04122 -0.7283,-3.6156 0,-3.22343 0.95383,-4.83515 2.86147,-4.83516 0.89635,10e-6 1.59447,0.42233 2.09437,1.26697 0.49986,0.84465 0.74981,2.03405 0.74985,3.56819 z m -4.85243,0 c 0,1.35029 0.16088,2.37018 0.48265,3.05968 0.32177,0.68951 0.82454,1.03426 1.50831,1.03426 1.33878,0 2.00817,-1.36464 2.00817,-4.09394 0,-2.7063 -0.66939,-4.05946 -2.00817,-4.05946 -0.70102,0 -1.20809,0.33901 -1.52122,1.01702 -0.31316,0.67802 -0.46974,1.69216 -0.46974,3.04244 z m -2.29258,2.35294 c -4e-5,0.78719 -0.20689,1.40344 -0.62056,1.84874 -0.4137,0.44531 -1.01127,0.66796 -1.79271,0.66796 -0.42522,0 -0.79869,-0.0546 -1.12046,-0.16376 -0.32177,-0.10917 -0.57172,-0.22983 -0.74985,-0.36199 l 0,-0.95669 c 0.21259,0.2126 0.49416,0.38354 0.84465,0.51282 0.35049,0.12928 0.70962,0.19392 1.07736,0.19392 0.48265,0 0.86186,-0.15801 1.13767,-0.47403 0.2758,-0.31602 0.4137,-0.73835 0.4137,-1.26697 0,-0.4137 -0.0991,-0.76276 -0.29735,-1.04719 -0.19821,-0.28442 -0.57603,-0.60762 -1.13337,-0.96962 -0.6378,-0.4022 -1.07305,-0.72397 -1.30576,-0.9653 -0.2327,-0.24132 -0.4137,-0.51138 -0.54296,-0.81017 -0.1293,-0.29878 -0.19394,-0.65502 -0.19394,-1.06874 0,-0.67226 0.22696,-1.22817 0.6809,-1.66774 0.45393,-0.43955 1.03139,-0.65933 1.73237,-0.65934 0.75272,10e-6 1.38188,0.17813 1.88752,0.53437 l -0.42231,0.71536 c -0.47118,-0.31601 -0.97105,-0.47403 -1.49967,-0.47403 -0.48265,0 -0.86764,0.14221 -1.15495,0.42663 -0.28727,0.28442 -0.43091,0.65934 -0.43091,1.12475 0,0.41372 0.0977,0.7599 0.29301,1.03857 0.19538,0.27868 0.60908,0.61625 1.24111,1.01271 0.62056,0.40797 1.04577,0.73405 1.27561,0.97824 0.22983,0.2442 0.40075,0.51426 0.5128,0.81017 0.11205,0.29592 0.16806,0.63636 0.1681,1.02133 z m 83.40173,6.27629 3.46352,0 1.93251,7.89325 c 0.19241,0.70274 0.34717,1.68574 0.4643,2.94899 l 0.0753,0 c 0.008,-0.20078 0.046,-0.55842 0.11294,-1.07293 0.0669,-0.5145 0.1213,-0.91816 0.16313,-1.21097 0.0418,-0.2928 0.61907,-3.14558 1.73175,-8.55834 l 3.51369,0 -4.00309,14.98337 c -0.48524,1.8405 -1.12941,3.16232 -1.93254,3.96545 -0.80313,0.80313 -1.87396,1.20469 -3.21251,1.2047 -0.66092,-10e-6 -1.25069,-0.0711 -1.7694,-0.21333 l 0,-2.79841 c 0.34299,0.10039 0.72785,0.15059 1.15452,0.15059 1.12101,0 1.85721,-0.73621 2.20861,-2.2086 l 0.23842,-0.87843 z m -29.4797,0.009 c -1.63135,10e-6 -3.14347,0.43089 -4.53221,1.3093 l 1.14816,2.31647 c 1.08757,-0.65253 2.04388,-0.987 2.88048,-0.98702 1.12939,2e-5 1.71216,0.64882 1.71217,1.95389 l 0,1.00716 -1.87332,0.0806 c -1.60626,0.0753 -2.79832,0.47317 -3.60563,1.18845 -0.80731,0.71529 -1.20859,1.81094 -1.20859,3.28334 0,1.37202 0.27636,2.4331 0.86616,3.20276 0.5898,0.76967 1.40831,1.14816 2.43732,1.14816 0.80312,0 1.46711,-0.15375 1.99418,-0.46329 0.52704,-0.30954 1.03728,-0.87216 1.53088,-1.69203 l 0.0806,0 0.66472,1.91361 2.43733,0 0,-9.38672 c -10e-6,-1.55606 -0.37432,-2.75648 -1.14816,-3.60563 -0.77386,-0.84913 -1.9033,-1.26901 -3.38406,-1.26902 z m 13.75779,0.0201 c -0.75294,1e-5 -1.41352,0.17996 -1.97403,0.54386 -0.54868,0.35625 -0.96885,0.8457 -1.26902,1.47046 l 0,-1.79275 -3.30348,0 0,7.51341 0.0201,0 0,6.50624 3.34377,0 0,-6.70767 c -10e-6,-1.69828 0.16894,-2.91048 0.50358,-3.62577 0.33463,-0.71528 0.85169,-1.06758 1.57117,-1.06759 0.54377,1e-5 0.94582,0.24676 1.18844,0.76544 0.2426,0.51869 0.36257,1.28405 0.36258,2.29632 l 0,8.33927 3.36391,0 0,-9.12485 c -10e-6,-1.67318 -0.31511,-2.937 -0.94673,-3.80706 -0.63164,-0.87005 -1.58872,-1.3093 -2.86033,-1.30931 z m 11.09889,0 c -1.72338,1e-5 -3.00316,0.59984 -3.8272,1.81288 -0.82405,1.21308 -1.22873,3.05966 -1.22873,5.51923 0,2.35083 0.43925,4.12489 1.3093,5.33795 0.87006,1.21305 2.12209,1.81288 3.78692,1.81288 1.06246,0 2.04233,-0.26194 2.92076,-0.80572 l 0,-2.94091 c -0.9119,0.58562 -1.78203,0.8863 -2.61861,0.8863 -0.70275,0 -1.22135,-0.37244 -1.53088,-1.08773 -0.30955,-0.71528 -0.4633,-1.79574 -0.4633,-3.24305 0,-1.48076 0.16971,-2.58323 0.48344,-3.32363 0.31372,-0.74037 0.81977,-1.10786 1.53088,-1.10787 0.53541,10e-6 1.15879,0.19437 1.85317,0.6043 l 0.94673,-2.59847 c -0.45177,-0.28443 -0.962,-0.49399 -1.53088,-0.64459 -0.56889,-0.15057 -1.11292,-0.22156 -1.6316,-0.22157 z m -42.48195,0.26186 3.64591,13.97936 4.1495,0 3.66605,-13.97936 -3.46462,0 c -1.22143,5.56335 -1.86683,8.53023 -1.93375,8.92343 -0.0669,0.3932 -0.13869,0.84082 -0.20143,1.3093 -0.0628,0.4685 -0.0924,0.81662 -0.10072,1.06759 l -0.0403,0 c -0.0251,-0.3179 -0.0969,-0.82736 -0.20143,-1.55102 -0.10458,-0.72365 -0.20672,-1.27527 -0.28201,-1.65174 l -1.7726,-8.09756 -3.46462,0 z m 18.83387,7.43283 0,1.16831 c -10e-6,0.91189 -0.2001,1.64764 -0.56401,2.1956 -0.36393,0.54797 -0.8396,0.82587 -1.45031,0.82587 -0.81987,0 -1.22874,-0.57781 -1.22874,-1.73231 0,-0.77803 0.16817,-1.35926 0.52373,-1.75246 0.35554,-0.39319 0.91058,-0.62289 1.67188,-0.66472 l 1.04745,-0.0403 z m -79.82741,-7.71479 c -1.72338,10e-6 -2.98302,0.59984 -3.80706,1.81288 -0.82404,1.21307 -1.24887,3.03952 -1.24887,5.49909 0,2.35083 0.43925,4.14503 1.3093,5.35809 0.87006,1.21305 2.14224,1.81288 3.80706,1.81288 1.06247,0 2.02219,-0.26194 2.90062,-0.80573 l 0,-2.9409 c -0.9119,0.58562 -1.78203,0.86616 -2.61861,0.86616 -0.70275,0 -1.20121,-0.3523 -1.51074,-1.06759 -0.30954,-0.71528 -0.4633,-1.79574 -0.46329,-3.24305 -10e-6,-1.48076 0.14956,-2.58323 0.46329,-3.32363 0.31372,-0.74037 0.81977,-1.10786 1.53088,-1.10787 0.53541,10e-6 1.15879,0.19437 1.85317,0.60429 l 0.94673,-2.59847 c -0.45177,-0.28442 -0.962,-0.49398 -1.53088,-0.64458 -0.56889,-0.15057 -1.11292,-0.22156 -1.6316,-0.22157 z m 9.93059,0 c -1.70665,10e-6 -3.04642,0.63781 -4.00849,1.9136 -0.96209,1.27581 -1.43017,3.0305 -1.43017,5.29765 0,1.47242 0.22133,2.76738 0.66473,3.86749 0.44339,1.10012 1.07359,1.95243 1.89345,2.53804 0.81986,0.58562 1.76935,0.86616 2.84019,0.86616 1.68991,0 3.01789,-0.6378 3.98835,-1.9136 0.97044,-1.2758 1.4503,-3.06582 1.45031,-5.35809 -10e-6,-2.21696 -0.49583,-3.97659 -1.47045,-5.27751 -0.97464,-1.30089 -2.27984,-1.93373 -3.92792,-1.93374 z m 14.26137,0 c -0.75295,10e-6 -1.39338,0.17996 -1.95389,0.54386 -0.52961,0.34386 -0.95081,0.816 -1.24888,1.41003 l 0,-1.71217 -3.30348,0 0,0.0201 -0.0201,0 0,13.97936 3.34377,0 0,-6.72782 c -1e-5,-1.69827 0.16893,-2.89033 0.50358,-3.60563 0.33463,-0.71527 0.87183,-1.08772 1.59131,-1.08773 0.54377,10e-6 0.92568,0.26691 1.1683,0.78558 0.2426,0.5187 0.36257,1.28406 0.36258,2.29633 l 0,8.33927 3.36391,0 0,-9.12486 c -10e-6,-1.67317 -0.31511,-2.95713 -0.94673,-3.8272 -0.63164,-0.87004 -1.58872,-1.28915 -2.86033,-1.28916 z m 9.95072,0 c -1.17809,0.076 -2.12647,0.41974 -2.84018,1.0273 -0.81568,0.69438 -1.22874,1.63209 -1.22874,2.82004 0,0.92863 0.22552,1.73537 0.66473,2.41719 0.43921,0.68183 1.16318,1.3314 2.17546,1.93374 0.7613,0.46014 1.28672,0.8504 1.57117,1.1683 0.28443,0.31791 0.423,0.68122 0.423,1.10788 0,0.4183 -0.15112,0.77214 -0.423,1.0273 -0.2719,0.25517 -0.64962,0.38272 -1.16831,0.38272 -0.46849,0 -1.0167,-0.11314 -1.63159,-0.32229 -0.6149,-0.20915 -1.15134,-0.46768 -1.61146,-0.78558 l 0,2.90061 c 0.90352,0.54379 2.04396,0.80573 3.42434,0.80573 1.55606,0 2.72611,-0.38268 3.52506,-1.14816 0.79894,-0.76548 1.20858,-1.81897 1.20859,-3.18262 -10e-6,-0.62744 -0.10974,-1.18325 -0.30215,-1.65174 -0.19243,-0.46849 -0.45436,-0.88077 -0.80573,-1.24888 -0.35137,-0.36809 -0.96298,-0.82253 -1.83302,-1.34959 -0.71948,-0.43502 -1.20693,-0.79492 -1.47046,-1.08773 -0.26353,-0.2928 -0.40287,-0.63069 -0.40286,-1.00716 -10e-6,-0.32626 0.10895,-0.59998 0.32229,-0.82587 0.21332,-0.22587 0.54021,-0.34242 0.96687,-0.34244 0.67764,2e-5 1.46159,0.23994 2.35675,0.72516 l 1.08774,-2.39704 c -1.09595,-0.65253 -2.26677,-0.96686 -3.50492,-0.96687 -0.17777,0 -0.33528,-0.0108 -0.50358,0 z m 10.91761,0 c -1.63136,10e-6 -2.91533,0.63704 -3.82721,1.93374 -0.91189,1.29673 -1.36973,3.10953 -1.36973,5.41852 0,2.27553 0.52278,4.03517 1.53088,5.27751 1.00809,1.24234 2.38086,1.85317 4.12935,1.85317 1.49749,0 2.77649,-0.3227 3.84734,-0.96687 l 0,-2.73947 c -1.13777,0.67764 -2.2562,1.00716 -3.34376,1.00716 -0.85333,0 -1.50896,-0.29992 -1.99418,-0.90645 -0.48523,-0.60652 -0.74034,-1.53322 -0.76544,-2.77976 l 6.70768,0 0,-1.77259 c -10e-6,-1.99945 -0.4309,-3.56472 -1.30931,-4.67322 -0.87843,-1.10848 -2.08303,-1.65173 -3.60562,-1.65174 z m 13.1132,0 c -0.57725,10e-6 -1.09586,0.18755 -1.53088,0.56401 -0.43503,0.37648 -0.82035,0.9949 -1.18845,1.87331 l -0.12086,0 -0.38272,-2.17546 -2.73947,0 0,13.97936 3.34377,0 0,-7.19111 c -10e-6,-1.22142 0.20955,-2.1599 0.64458,-2.7999 0.43502,-0.63999 1.06181,-0.96686 1.87332,-0.96687 0.37646,1e-5 0.67219,0.0574 0.90644,0.141 l 0.40286,-3.24305 c -0.39321,-0.12548 -0.79867,-0.18128 -1.20859,-0.18129 z m -13.15349,2.55818 c 0.51031,10e-6 0.91578,0.27869 1.20859,0.80573 0.2928,0.52706 0.44655,1.29583 0.46329,2.31646 l -3.38405,0 c 0.0502,-1.06246 0.23432,-1.8506 0.54386,-2.35675 0.30954,-0.50612 0.69145,-0.76543 1.16831,-0.76544 z m -35.37142,0.30215 c 0.0818,-0.0113 0.17402,0 0.26186,0 0.69437,10e-6 1.18865,0.36409 1.51074,1.08773 0.32208,0.72367 0.48343,1.79916 0.48344,3.26319 -10e-6,2.94481 -0.65564,4.4315 -1.99418,4.4315 -0.70274,0 -1.21298,-0.38345 -1.53088,-1.12801 -0.3179,-0.74457 -0.48344,-1.84781 -0.48343,-3.30349 -10e-6,-1.46403 0.16553,-2.53952 0.48343,-3.26319 0.27817,-0.63318 0.69622,-1.00858 1.26902,-1.08773 z m -58.19691,-17.20684 7.33907,5.74597 -6.63532,0.0387 -3.68113,-2.82272 -3.627,-0.0232 6.52705,5.11956 0.0773,-0.0541 0,0.0155 10.16952,-0.0541 0.20107,0.15467 -3.72753,20.43957 14.34559,0.10827 -3.96727,-20.34677 0.44081,-0.34801 10.17725,0.0541 0,-0.0155 0.0696,0.0541 6.52705,-5.11956 -3.627,0.0232 -3.68113,2.82272 -6.63532,-0.0387 7.3468,-5.74597 -3.93634,0.0464 -7.19986,5.61451 -0.51815,-2.67579 -4.67101,-0.0464 -0.45628,2.49792 -6.92146,-5.39797 -3.93634,-0.0464 z m 146.59993,10.57792 c -1.81571,0 -2.72356,-1.61172 -2.72355,-4.83516 -1e-5,-1.58586 0.22696,-2.79393 0.68088,-3.62422 0.45393,-0.83027 1.12332,-1.24541 2.00819,-1.24542 0.41944,10e-6 0.81735,0.12067 1.19371,0.36199 0.37635,0.24134 0.67657,0.5746 0.90066,0.99979 l 0.0689,0 -0.0344,-1.04288 0,-4.19737 0.81879,0 0,13.41089 -0.67227,0 -0.0689,-1.31006 -0.0776,0 c -0.2241,0.47691 -0.51426,0.84321 -0.8705,1.0989 -0.35625,0.25569 -0.76421,0.38354 -1.22388,0.38354 z m 0.0517,-0.71536 c 0.65502,0 1.15922,-0.3031 1.5126,-0.90929 0.35337,-0.60619 0.53005,-1.49824 0.53006,-2.67614 l 0,-0.53437 c -1e-5,-1.41348 -0.17095,-2.44918 -0.51282,-3.10709 -0.34189,-0.6579 -0.86332,-0.98685 -1.56432,-0.98685 -0.67227,0 -1.15492,0.35194 -1.44796,1.0558 -0.29304,0.70388 -0.43956,1.72234 -0.43956,3.05538 0,1.34453 0.15226,2.36443 0.4568,3.05968 0.30452,0.69525 0.79293,1.04288 1.4652,1.04288 z m -22.5296,-8.08446 -1.46521,0 0,8.62744 -0.81016,0 0,-8.62744 -1.1894,0 0,-0.46542 1.1894,-0.35337 0,-0.70675 c -1e-5,-1.18938 0.14077,-2.04552 0.42232,-2.5684 0.28154,-0.52287 0.76994,-0.78431 1.4652,-0.78432 0.40221,1e-5 0.76707,0.0718 1.09459,0.21547 l -0.28442,0.75846 c -0.30454,-0.14364 -0.58034,-0.21546 -0.82741,-0.21547 -0.28155,10e-6 -0.49415,0.0833 -0.63779,0.24994 -0.14365,0.16665 -0.24995,0.4367 -0.3189,0.81017 -0.069,0.3735 -0.10343,0.89063 -0.10343,1.55139 l 0,0.78432 1.46521,0 z m -39.26737,0 -1.46521,0 0,8.62744 -0.81016,0 0,-8.62744 -1.18941,0 0,-0.46542 1.18941,-0.35337 0,-0.70675 c 0,-1.18938 0.14077,-2.04552 0.42231,-2.5684 0.28154,-0.52287 0.76997,-0.78431 1.46521,-0.78432 0.40219,1e-5 0.76706,0.0718 1.09459,0.21547 l -0.28443,0.75846 c -0.30452,-0.14364 -0.58033,-0.21546 -0.82741,-0.21547 -0.28154,10e-6 -0.49413,0.0833 -0.6378,0.24994 -0.14364,0.16665 -0.24995,0.4367 -0.31886,0.81017 -0.069,0.3735 -0.10345,0.89063 -0.10345,1.55139 l 0,0.78432 1.46521,0 z"
       style="font-style:normal;font-variant:normal;font-weight:300;font-stretch:normal;font-size:medium;line-height:125%;font-family:'Open Sans Condensed Light';-inkscape-font-specification:'Open Sans Condensed Light, Light';text-align:start;letter-spacing:0px;word-spacing:0px;writing-mode:lr-tb;text-anchor:start;fill:#333333;fill-opacity:1;stroke:none"
       id="path3404" />
    <g
       id="g4390" />
  </g>
</svg>
