<svg xmlns="http://www.w3.org/2000/svg" width="64" height="64" viewBox="0 0 63.999999 64"><path d="M64 32c0 17.672-14.327 32-32 32C14.327 64 0 49.672 0 32 0 14.327 14.327 0 32 0c17.673 0 32 14.327 32 32z" fill="#dd4814"/><path d="M10.241 27.727a4.273 4.273 0 1 0-.001 8.545 4.273 4.273 0 0 0 .001-8.545zm30.504 19.418a4.27 4.27 0 0 0-1.563 5.834 4.27 4.27 0 0 0 5.833 1.564 4.272 4.272 0 0 0-4.27-7.398zM19.521 32a12.46 12.46 0 0 1 5.306-10.21l-3.123-5.232a18.6 18.6 0 0 0-7.675 10.789A5.992 5.992 0 0 1 16.24 32a5.992 5.992 0 0 1-2.212 4.653 18.586 18.586 0 0 0 7.675 10.79l3.123-5.233A12.458 12.458 0 0 1 19.521 32zm12.48-12.48c6.518 0 11.867 4.999 12.429 11.373l6.087-.09a18.503 18.503 0 0 0-5.514-12.037 5.99 5.99 0 0 1-5.123-.415 5.981 5.981 0 0 1-2.922-4.236A18.611 18.611 0 0 0 32 13.44c-2.954 0-5.746.694-8.225 1.921l2.968 5.32A12.43 12.43 0 0 1 32 19.521zm0 24.96c-1.879 0-3.66-.419-5.257-1.162l-2.969 5.32a18.556 18.556 0 0 0 13.184 1.247 5.986 5.986 0 0 1 2.921-4.237 5.986 5.986 0 0 1 5.123-.414 18.503 18.503 0 0 0 5.514-12.038l-6.089-.09C43.868 39.482 38.52 44.48 32 44.48zm8.743-27.627a4.27 4.27 0 1 0 4.273-7.399 4.27 4.27 0 0 0-4.273 7.4z" fill="#fff"/></svg>