<svg xmlns="http://www.w3.org/2000/svg" width="64" height="64"><defs><linearGradient id="a" gradientUnits="userSpaceOnUse" x1="319.208" y1="235.149" x2="657.653" y2="269.494"><stop offset="0" stop-color="#e54c18"/><stop offset="1" stop-color="#fec350"/></linearGradient></defs><path d="M6.526 58.915 26.132 33.28 5.947 5.094l12.974.01 16.084 22.163-24.049 31.648h-4.43zm38.375.018L28.928 36.732 53.178 5.07h4.32L37.812 30.826l20.063 28.107H44.901z"/><path d="M486.41 143.827c-8.85 0-18.307.685-26.82 1.502 15.167 19.78 27.75 36.53 42.233 55.552-8.128-17.493-24.835-34.268-19.06-42.895 5.718-8.54 16.252-7.102 17.054-7.102 16.888 0 33.145 1.907 48.344 5.437l3.562-4.906c-20.27-5.218-42.288-7.588-65.312-7.588zm91.47 15.963-3.282 4.688c46.826 18.336 78.5 53.36 78.5 93.5 0 59.106-68.665 107.062-153.281 107.062s-153.313-47.956-153.313-107.062c0-32.188 20.372-61.08 52.594-80.72l-9.906-15.093c-50.546 21.432-84.094 59.05-84.094 101.875 0 66.634 81.223 120.688 181.313 120.688 100.09 0 181.343-54.054 181.343-120.688 0-44.433-36.122-83.292-89.875-104.25z" fill="url(#a)" style="fill:url(#a)" transform="translate(-53.843 -10.036) scale(.17648)"/></svg>