<svg xmlns="http://www.w3.org/2000/svg" width="64" height="64" id="svg2"><style id="style4">#P1{fill:url(#LO)}rect{opacity:.40740739;fill:#000cff;width:.50507629;height:0}</style><defs id="defs6"><linearGradient id="LO" gradientUnits="userSpaceOnUse" x1="319.208" y1="235.149" x2="657.653" y2="269.494"><stop offset="0" id="stop9" stop-color="#e54c18"/><stop offset="1" id="stop11" stop-color="#fec350"/></linearGradient></defs><g transform="translate(19.08 -2.853) scale(.17648)" id="g13"><g transform="translate(-413.21 -40.704)" id="g15"><path d="M342.074 390.702L453.17 245.446 338.794 85.733l73.515.061 91.138 125.583-136.27 179.325h-25.103zm217.448.103l-90.51-125.799 137.406-179.41h24.481L519.35 231.539l113.688 159.267h-73.515z" id="path17"/><path id="P1" d="M486.41 143.827c-8.85 0-18.307.685-26.82 1.502 15.167 19.78 27.75 36.53 42.233 55.552-8.128-17.493-24.835-34.268-19.06-42.895 5.718-8.54 16.252-7.102 17.054-7.102 16.888 0 33.145 1.907 48.344 5.437l3.562-4.906c-20.27-5.218-42.288-7.588-65.312-7.588zm91.47 15.963l-3.282 4.688c46.826 18.336 78.5 53.36 78.5 93.5 0 59.106-68.665 107.062-153.281 107.062s-153.313-47.956-153.313-107.062c0-32.188 20.372-61.08 52.594-80.72l-9.906-15.093c-50.546 21.432-84.094 59.05-84.094 101.875 0 66.634 81.223 120.688 181.313 120.688 100.09 0 181.343-54.054 181.343-120.688 0-44.433-36.122-83.292-89.875-104.25z" fill="url(#LO)"/></g></g></svg>