<?xml version="1.0" encoding="UTF-8" standalone="no"?>
<!-- Created with Inkscape (http://www.inkscape.org/) -->

<svg
   width="6354.5"
   height="1040"
   version="1.1"
   viewBox="0 0 5957.3 974.95"
   xml:space="preserve"
   id="svg1"
   sodipodi:docname="logotype-os.svg"
   inkscape:version="1.4.2 (ebf0e940d0, 2025-05-08)"
   xmlns:inkscape="http://www.inkscape.org/namespaces/inkscape"
   xmlns:sodipodi="http://sodipodi.sourceforge.net/DTD/sodipodi-0.dtd"
   xmlns="http://www.w3.org/2000/svg"
   xmlns:svg="http://www.w3.org/2000/svg"
   xmlns:rdf="http://www.w3.org/1999/02/22-rdf-syntax-ns#"
   xmlns:cc="http://creativecommons.org/ns#"
   xmlns:dc="http://purl.org/dc/elements/1.1/"><defs
     id="defs1" /><sodipodi:namedview
     id="namedview1"
     pagecolor="#ffffff"
     bordercolor="#000000"
     borderopacity="0.25"
     inkscape:showpageshadow="2"
     inkscape:pageopacity="0.0"
     inkscape:pagecheckerboard="0"
     inkscape:deskcolor="#d1d1d1"
     inkscape:current-layer="g1" /><metadata
     id="metadata1"><rdf:RDF><cc:Work
         rdf:about=""><dc:format>image/svg+xml</dc:format><dc:type
           rdf:resource="http://purl.org/dc/dcmitype/StillImage" /></cc:Work></rdf:RDF></metadata><g
     transform="translate(-325.03 -2917.9)"
     id="g1"><path
       d="m 6032.9247,2917.9 c -137.82,0 -235.26,83.803 -235.26,200.93 0,92.386 60.076,152.46 190.33,189.82 l 84.814,24.232 c 117.12,34.329 164.07,79.26 164.07,153.98 0,97.94 -81.784,163.06 -204.97,163.06 -122.68,0 -199.41,-65.63 -203.96,-166.6 h -46.445 c 4.5436,126.21 101.47,210.01 250.4,210.01 149.94,0 250.4,-85.823 250.4,-208 0,-96.425 -62.095,-157.01 -197.39,-195.88 l -85.823,-24.232 c -108.04,-31.3 -156,-77.242 -156,-147.92 0,-90.872 80.27,-156 188.81,-156 112.08,0 184.27,67.648 191.34,167.61 h 45.436 c -6.0581,-125.2 -97.434,-211.02 -235.76,-211.02 z m -636.47,2.0196 c -190.33,0 -322.09,157.51 -322.09,386.2 0,227.68 131.26,385.2 322.09,385.2 189.32,0 321.08,-157.01 321.08,-385.2 0,-229.2 -131.76,-386.2 -321.08,-386.2 z m -4506.13729,16.765 c -5.1548,9e-4 -9.333,4.1799 -9.3329,9.3347 v 633.91 c 0,33.613 9.213,60.986 27.914,79.688 18.701,18.702 46.074,27.916 79.688,27.916 h 38.32799 c 5.1541,-9e-4 9.332,-4.1788 9.3329,-9.3329 v -22.603 c -9e-4,-5.154 -4.1789,-9.3319 -9.3329,-9.3328 h -38.32799 c -24.344,0 -40.389,-5.5604 -50.581,-15.753 -10.192,-10.1926 -15.753,-26.239 -15.753,-50.583 v -633.91 c 1.4e-4,-5.1548 -4.1781,-9.3338 -9.3329,-9.3347 z m 4506.13729,27.156 c 159.03,0 275.14,132.77 275.14,342.28 0,208.5 -116.11,341.28 -275.14,341.28 -161.05,0 -276.15,-133.78 -276.15,-341.28 0,-210.52 116.62,-342.28 276.15,-342.28 z m -1985.2,44.582 c -5.1555,-10e-5 -9.3349,4.1793 -9.3347,9.3348 v 562.11 c 0,12.606 1.2733,24.281 3.8598,34.982 1.7244,7.1338 4.0351,13.834 6.9471,20.065 1.4552,3.1139 3.06,6.1125 4.8156,8.985 1.7542,2.8698 3.6564,5.6159 5.7074,8.2287 4.1013,5.2244 8.7905,9.9137 14.015,14.015 5.2245,4.1013 10.983,7.6118 17.212,10.523 3.1157,1.4562 6.3485,2.7626 9.6955,3.9203 6.6924,2.3152 13.832,4.0358 21.396,5.1782 7.5652,1.1425 15.555,1.7065 23.958,1.7065 h 38.324 c 5.1547,10e-5 9.3338,-4.1781 9.3347,-9.3328 v -22.603 c 0,-5.1555 -4.1792,-9.3348 -9.3347,-9.3347 h -38.324 c -18.258,0 -32.022,-3.2315 -41.874,-9.0417 -1.6438,-0.9694 -3.1823,-2.0101 -4.6289,-3.1257 -4.3436,-3.3493 -7.8829,-7.3649 -10.789,-12.292 -0.9703,-1.6452 -1.8659,-3.3888 -2.6862,-5.2405 -1.6427,-3.7087 -2.99,-7.8667 -4.0155,-12.506 -0.5132,-2.322 -0.9476,-4.7596 -1.2945,-7.3169 -0.6941,-5.1166 -1.0456,-10.722 -1.0456,-16.811 v -388.66 h 104.66 c 5.1555,1e-4 9.3347,-4.1792 9.3347,-9.3347 v -22.601 c 2e-4,-5.1555 -4.1792,-9.3349 -9.3347,-9.3348 h -104.66 v -132.17 c 2e-4,-5.1555 -4.1792,-9.3349 -9.3347,-9.3348 z m 986.48,1.6974 c -12.173,0.6603 -24.212,4.0146 -34.964,10.148 -16.246,9.2675 -28.772,24.59 -34.221,42.662 -3.7154,12.322 -3.8685,24.819 -2.7997,36.416 1.1845,12.853 3.9022,25.353 7.5019,37.399 1.0273,3.4382 2.1774,6.7849 3.3563,10.104 l -24.571,0.1354 c -64.988,0.3581 -123.93,27.81 -157.68,74.526 v -62.243 c 2e-4,-5.1548 -4.1781,-9.3339 -9.3329,-9.3348 h -22.602 c -5.1548,9e-4 -9.3331,4.18 -9.3329,9.3348 v 518.87 c 9e-4,5.154 4.1789,9.3319 9.3329,9.3328 h 22.602 c 5.154,-9e-4 9.332,-4.1788 9.3329,-9.3328 v -334.12 c 0,-91.25 65.374,-154.18 157.89,-155.76 l 39.662,-0.6812 205.43,494.51 -36.365,88.315 -0.01,0.015 c -14.861,36.299 -25.91,56.878 -37.727,67.549 -11.817,10.671 -25.213,13.623 -50.433,13.623 h -43.238 c -5.1555,-2e-4 -9.335,4.1793 -9.3348,9.3348 v 22.601 c 0,5.1555 4.1793,9.3349 9.3348,9.3347 h 43.238 c 32.443,0 56.668,-5.5559 76.155,-22.573 19.487,-17.016 33.533,-43.745 50.403,-84.928 v -0.01 l 255.5,-622.54 c 2.5202,-6.1421 -1.9963,-12.878 -8.6353,-12.878 h -24.078 c -3.7841,9e-4 -7.1932,2.2862 -8.6316,5.7862 l -145.44,353.77 c 0,0.012 -0.01,0.023 -0.013,0.035 -16.293,40.105 -32.587,80.21 -48.88,120.31 -16.412,-40.136 -33.021,-80.254 -49.296,-120.31 -0.01,-0.022 -0.018,-0.044 -0.027,-0.066 l -133.87,-322.36 c 5.124,-0.016 10.498,-0.1955 16.073,-0.9412 12.292,-1.6441 23.472,-6.4188 33.322,-12.367 10.341,-6.2448 19.934,-14.24 27.477,-24.432 10.524,-14.22 16.131,-31.583 16.606,-48.995 0.3997,-14.682 -2.7125,-29.462 -9.5234,-42.722 -5.3581,-10.431 -12.899,-19.567 -21.713,-26.957 -11.118,-9.3222 -24.529,-15.987 -38.873,-18.961 -7.1517,-1.4826 -14.402,-1.9943 -21.634,-1.6022 z m 5.9857,38.296 c 6.1029,2.0343 16.255,3.5583 21.495,7.2895 6.4002,4.5451 11.829,11.155 15.626,18.594 4.6875,9.1834 6.8869,19.8 6.037,29.872 -0.8491,10.066 -4.7498,19.773 -11.146,27.151 -8.8611,10.221 -23.627,16.327 -37.053,15.273 -0.2431,-0.019 -0.4868,-0.029 -0.7306,-0.029 1.2465,0 1.1674,-0.013 -0.1977,-0.013 -0.026,-1e-4 -0.053,-1e-4 -0.079,0 l -15.817,0.1354 -3.4882,-8.1976 v 1.8878 c 4e-4,-1.2412 -0.2467,-2.47 -0.7269,-3.6145 -4.188,-9.9678 -7.2637,-20.348 -9.3109,-31.055 -2.1962,-11.486 -3.4908,-22.114 -1.1902,-30.48 2.2579,-8.2113 8.6095,-15.964 16.635,-20.848 6.3217,-3.8471 13.461,-5.9656 19.946,-5.9656 1e-4,0 2e-4,-1e-4 2e-4,-1e-4 z m -3841.4247,93.653 c -69.679,0 -129.55,29.5 -171.42,78.908 -41.865,49.407 -65.903,118.45 -65.903,197.72 0,79.274 24.039,148.32 65.903,197.72 41.865,49.407 101.74,78.906 171.42,78.906 105.18,0 199.16,-67.201 224.28,-170.25 1.4326,-5.878 -3.0191,-11.545 -9.0692,-11.545 h -23.586 c -4.2412,3e-4 -7.949,2.8598 -9.0271,6.9617 -21.454,81.618 -98.508,133.57 -182.6,133.57 -57.575,0 -106.02,-23.918 -140.69,-65.211 -33.09,-39.417 -53.234,-95.056 -55.016,-160.81 h 419.76 c 5.1555,10e-5 9.3349,-4.1793 9.3347,-9.3348 v -11.79 c 0,-74.426 -23.342,-140.53 -64.354,-188.2 -41.012,-47.667 -99.876,-76.644 -169.04,-76.644 z m 706.1798,0 c -69.68,0 -129.55,29.5 -171.42,78.908 -41.865,49.407 -65.903,118.45 -65.903,197.72 0,79.274 24.039,148.32 65.903,197.72 41.864,49.407 101.74,78.906 171.42,78.906 105.18,0 199.16,-67.201 224.28,-170.25 1.4326,-5.878 -3.0191,-11.545 -9.0692,-11.545 h -23.586 c -4.2412,3e-4 -7.949,2.8598 -9.0271,6.9617 -21.454,81.618 -98.508,133.57 -182.6,133.57 -57.575,0 -106.02,-23.918 -140.69,-65.211 -33.09,-39.417 -53.234,-95.056 -55.016,-160.81 h 419.76 c 5.1555,10e-5 9.3349,-4.1793 9.3347,-9.3348 v -11.79 c 0,-74.426 -23.341,-140.53 -64.354,-188.2 -41.013,-47.67 -99.878,-76.644 -169.04,-76.644 z m 830.4975,0 c -74.701,0 -138.85,37.494 -169.73,99.439 -25.584,-59.834 -80.846,-97.239 -148.37,-99.342 -0.09,0 -0.1806,-0.01 -0.271,-0.01 l -6.2128,-0.013 h -0.2545 c -113.39,2.86 -194.51,83.201 -194.51,197.93 v 338.05 c 9e-4,5.154 4.1789,9.3319 9.3329,9.3328 h 22.602 c 5.154,-9e-4 9.332,-4.1788 9.3329,-9.3328 v -338.05 c 0,-47.211 16.054,-85.735 43.418,-112.9 27.337,-27.138 66.233,-43.125 113.14,-43.814 39.968,0.6347 71.62,14.751 93.939,40.858 22.344,26.136 35.478,64.972 35.478,115.86 v 338.05 c 9e-4,5.154 4.1789,9.3319 9.3329,9.3328 h 22.602 c 5.154,-9e-4 9.332,-4.1788 9.3329,-9.3328 v -338.05 c 0,-50.978 16.9,-89.763 43.929,-116.16 27.029,-26.397 64.549,-40.582 106.92,-40.582 42.113,0 75.22,13.948 98.412,40.096 23.192,26.148 36.711,65.222 36.711,116.65 v 338.05 c 9e-4,5.1548 4.18,9.333 9.3348,9.3328 h 22.604 c 5.154,-9e-4 9.332,-4.1788 9.3329,-9.3328 v -338.05 c 0,-59.945 -16.618,-109.53 -47.371,-144.2 -30.753,-34.67 -75.489,-53.811 -129.02,-53.811 z m 488.75,0 c -69.679,0 -129.55,29.5 -171.42,78.908 -41.865,49.407 -65.905,118.45 -65.905,197.72 0,79.275 24.04,148.32 65.905,197.72 41.865,49.407 101.74,78.906 171.42,78.906 105.18,0 199.16,-67.201 224.28,-170.25 1.4325,-5.8773 -3.0181,-11.544 -9.0674,-11.545 h -23.584 c -4.2418,-5e-4 -7.9507,2.8592 -9.0289,6.9617 -21.454,81.618 -98.507,133.57 -182.6,133.57 -57.575,0 -106.02,-23.918 -140.69,-65.211 -33.09,-39.417 -53.236,-95.056 -55.018,-160.81 h 419.76 c 5.1555,10e-5 9.3347,-4.1793 9.3347,-9.3348 v -11.79 c 0,-74.426 -23.342,-140.53 -64.354,-188.2 -41.012,-47.667 -99.874,-76.644 -169.04,-76.644 z m 507.41,0 c -116.73,0 -200.96,81.12 -200.96,198.01 v 338.05 c 9e-4,5.1547 4.18,9.3328 9.3347,9.3328 h 22.603 c 5.1547,0 9.3338,-4.1781 9.3347,-9.3328 v -338.05 c 0,-47.711 16.389,-86.55 44.29,-113.76 27.9,-27.21 67.595,-42.982 115.4,-42.982 h 9.8291 c 47.803,0 87.5,15.772 115.4,42.982 27.901,27.21 44.291,66.048 44.291,113.76 v 338.05 c 9e-4,5.154 4.1789,9.3319 9.3329,9.3328 h 22.602 c 5.154,-9e-4 9.332,-4.1788 9.3329,-9.3328 v -338.05 c 0,-116.89 -84.229,-198.01 -200.96,-198.01 z m 711.5074,0 c -110.75,0 -199.98,74.429 -199.98,172.46 9e-4,5.1548 4.1799,9.3329 9.3347,9.3329 h 22.602 c 5.1541,-9e-4 9.332,-4.1788 9.3329,-9.3329 0,-73.799 68.902,-131.19 158.71,-131.19 88.816,0 156.74,56.789 156.74,131.19 v 13.758 c 0,8.5648 -2.6631,14.607 -8.5217,20.565 -5.8587,5.9574 -15.342,11.466 -28.176,16.188 -25.669,9.4451 -64.157,15.678 -110.46,21.802 -78.998,10.402 -134,25.592 -170.4,50.295 -36.403,24.704 -52.921,59.987 -52.921,104.4 0,52.074 23.146,91.536 57.892,116.81 34.746,25.276 80.569,36.978 127.35,36.978 79.626,0 147.58,-34.224 185.24,-89.784 v 72.59 c 9e-4,5.154 4.1789,9.3319 9.3329,9.3328 h 22.604 c 5.154,-9e-4 9.332,-4.1788 9.3329,-9.3328 v -363.6 c 0,-98.892 -88.262,-172.46 -198.01,-172.46 z m -3244.3247,41.272 c 105.66,0 185.32,82.913 191.11,203.42 h -385.7 c 11.507,-122.01 88.445,-203.42 194.59,-203.42 z m 706.1798,0 c 105.66,0 185.32,82.913 191.11,203.42 h -385.7 c 11.507,-122.01 88.443,-203.42 194.59,-203.42 z m 1319.2875,0 c 105.66,0 185.32,82.913 191.11,203.42 h -385.7 c 11.507,-122.01 88.445,-203.42 194.59,-203.42 z m 1375.6374,209.34 v 70.237 c 0,64.5 -21.272,111.77 -54.747,143.38 -33.474,31.618 -79.656,47.754 -130.49,47.754 -40.209,0 -76.636,-10.15 -102.45,-29.086 -25.817,-18.936 -41.514,-46.101 -41.514,-83.436 0,-33.109 10.727,-54.668 39.097,-72.706 28.369,-18.037 75.496,-31.136 145.46,-40.888 72.14,-10.008 114.23,-16.798 144.65,-35.261 z m -3073.13729,-456 c -5.1548,9e-4 -9.333,4.1799 -9.3329,9.3347 v 633.91 c 0,33.613 9.213,60.986 27.914,79.688 18.701,18.702 39.299,-18.912 29.106,-29.105 -10.193,-10.193 -15.753,-26.239 -15.753,-50.583 v -633.91 c 1.4e-4,-5.1548 -4.1781,-9.3338 -9.3329,-9.3347 z m -327.97741,205.39 c -69.679,0 -129.55,29.5 -171.42,78.908 -41.865,49.407 -65.903,118.45 -65.903,197.72 0,79.274 24.039,148.32 65.903,197.72 41.865,49.407 101.74,78.906 171.42,78.906 105.18,0 199.16,-67.201 224.28,-170.25 1.4326,-5.878 -3.0191,-11.545 -9.0692,-11.545 h -23.586 c -4.2412,3e-4 -7.949,2.8598 -9.0271,6.9617 -21.454,81.618 -98.508,133.57 -182.6,133.57 -57.575,0 -106.02,-23.918 -140.69,-65.211 -33.09,-39.417 -53.234,-95.056 -55.016,-160.81 h 419.76 c 5.1555,1e-4 9.3349,-4.1793 9.3347,-9.3348 v -11.79 c 0,-74.426 -23.342,-140.53 -64.354,-188.2 -41.012,-47.667 -99.876,-76.644 -169.04,-76.644 z m 0,41.272 c 105.66,0 185.32,82.913 191.11,203.42 h -385.7 c 11.507,-122.01 88.445,-203.42 194.59,-203.42 z"
       stroke-linecap="round"
       stroke-linejoin="round"
       stroke-width="0.9375"
       style="white-space:pre;paint-order:stroke fill markers"
       id="path1"
       sodipodi:nodetypes="csccssccssccssccccsssssccsssccccssscccsssssccssssssssssccscssssssssccscccccccsssscscccccccccscccccssccscsscccsccccccccssscsssccscsssscscccccsssscsccscscsccsccccscccccscsssccsccccssccccccccsccccsscssccccsssssccccssccccscsscccscccsscccsscsscscsscsccccsssccsccsssssccscscccccsccsccssccssccscscscsscccccsssscccccscscsccsccccscccsccs" /></g></svg>
