<svg width="32" height="32" xmlns:xlink="http://www.w3.org/1999/xlink" xmlns="http://www.w3.org/2000/svg"><defs><linearGradient id="a"><stop offset="0" style="stop-color:#fff;stop-opacity:1"/><stop offset=".062" style="stop-color:#fff;stop-opacity:.23529412"/><stop offset=".937" style="stop-color:#fff;stop-opacity:.15686275"/><stop offset="1" style="stop-color:#fff;stop-opacity:.39215687"/></linearGradient><linearGradient x1="24" y1="6.24" x2="24" y2="41.76" id="j" xlink:href="#a" gradientUnits="userSpaceOnUse" gradientTransform="translate(-.216 -.216) scale(.67568)"/><linearGradient id="c"><stop style="stop-color:#181818;stop-opacity:1" offset="0"/><stop style="stop-color:#181818;stop-opacity:0" offset="1"/></linearGradient><linearGradient id="d"><stop style="stop-color:#181818;stop-opacity:1" offset="0"/><stop style="stop-color:#181818;stop-opacity:0" offset="1"/></linearGradient><linearGradient x1="25.058" y1="47.028" x2="25.058" y2="39.999" id="h" xlink:href="#b" gradientUnits="userSpaceOnUse"/><linearGradient id="b"><stop style="stop-color:#181818;stop-opacity:0" offset="0"/><stop style="stop-color:#181818;stop-opacity:1" offset=".5"/><stop style="stop-color:#181818;stop-opacity:0" offset="1"/></linearGradient><linearGradient id="e"><stop offset="0" style="stop-color:#404648;stop-opacity:1"/><stop offset="1" style="stop-color:#0c1011;stop-opacity:1"/></linearGradient><radialGradient cx="4.993" cy="43.5" r="2.5" fx="4.993" fy="43.5" id="f" xlink:href="#c" gradientUnits="userSpaceOnUse" gradientTransform="matrix(2.00378 0 0 1.4 27.988 -17.4)"/><radialGradient cx="4.993" cy="43.5" r="2.5" fx="4.993" fy="43.5" id="g" xlink:href="#d" gradientUnits="userSpaceOnUse" gradientTransform="matrix(2.00378 0 0 1.4 -20.012 -104.4)"/><radialGradient gradientTransform="matrix(0 4.11095 -5.04693 0 66.828 -38.866)" gradientUnits="userSpaceOnUse" xlink:href="#e" id="i" fy="9.957" fx="6.953" r="12.672" cy="9.957" cx="6.953"/></defs><g style="display:inline"><g style="opacity:.4"><path style="fill:url(#f);fill-opacity:1;stroke:none" d="M38 40h5v7h-5z" transform="matrix(.73684 0 0 .42857 -1.684 10.857)"/><path style="fill:url(#g);fill-opacity:1;stroke:none" transform="matrix(-.73684 0 0 -.42857 -1.684 10.857)" d="M-10-47h5v7h-5z"/><path style="fill:url(#h);fill-opacity:1;stroke:none" d="M10 40h28v7H10z" transform="matrix(.73684 0 0 .42857 -1.684 10.857)"/></g></g><rect style="color:#000;clip-rule:nonzero;display:inline;overflow:visible;visibility:visible;opacity:.9;isolation:auto;mix-blend-mode:normal;color-interpolation:sRGB;color-interpolation-filters:linearRGB;solid-color:#000;solid-opacity:1;fill:url(#i);fill-opacity:1;fill-rule:nonzero;stroke:none;stroke-width:1;stroke-linecap:butt;stroke-linejoin:miter;stroke-miterlimit:4;stroke-dasharray:none;stroke-dashoffset:0;stroke-opacity:1;marker:none;color-rendering:auto;image-rendering:auto;shape-rendering:auto;text-rendering:auto;enable-background:accumulate" y="2.5" x="2.5" ry="3" rx="3" height="27" width="27"/><rect style="opacity:.3;fill:none;stroke:url(#j);stroke-width:1;stroke-linecap:round;stroke-linejoin:round;stroke-miterlimit:4;stroke-dasharray:none;stroke-dashoffset:0;stroke-opacity:1" y="3.5" x="3.5" ry="2" rx="2" height="25" width="25"/><rect style="color:#000;display:inline;overflow:visible;visibility:visible;opacity:.7;fill:none;stroke:#000;stroke-width:1;stroke-linecap:round;stroke-linejoin:round;stroke-miterlimit:4;stroke-dasharray:none;stroke-dashoffset:0;stroke-opacity:1;marker:none;enable-background:accumulate" y="2.5" x="2.5" ry="3" rx="3" height="27" width="27"/><path style="color:#000;clip-rule:nonzero;display:inline;overflow:visible;visibility:visible;opacity:.15;isolation:auto;mix-blend-mode:normal;color-interpolation:sRGB;color-interpolation-filters:linearRGB;solid-color:#000;solid-opacity:1;fill:#000;fill-opacity:1;fill-rule:nonzero;stroke:none;stroke-width:1;stroke-linecap:butt;stroke-linejoin:miter;stroke-miterlimit:4;stroke-dasharray:none;stroke-dashoffset:0;stroke-opacity:1;marker:none;color-rendering:auto;image-rendering:auto;shape-rendering:auto;text-rendering:auto;enable-background:accumulate" d="M9 8a1 1 0 0 0-1 1v.389c-.275.103-.584.137-.822.312a1 1 0 0 0-.002.002c-.672.496-1.082 1.34-1.082 2.186 0 .465.11.93.347 1.328.21.35.492.656.819.902.311.235.703.421 1.152.613a1 1 0 0 0 .01.006 1 1 0 0 0 .127.067 1 1 0 0 0 .01.004l.002.002c.144.06.148.066.263.117-.129-.017-.235-.014-.38-.047H8.44a9.98 9.98 0 0 1-1.09-.358A1 1 0 0 0 6 15.46v1.154a1 1 0 0 0 .623.926c.418.17.91.192 1.377.266v.513a1 1 0 0 0 1 1h1a1 1 0 0 0 1-1v-.713c.277-.1.584-.138.828-.308A2.777 2.777 0 0 0 13 15.062c0-.394-.234-.724-.398-1.08a1 1 0 0 0-.247-.666c-.001-.002 0-.005-.002-.007l-.002.004c-.435-.495-1.029-.811-1.804-1.14.175.05.342.094.59.18a1 1 0 0 0 1.23-.515l.455-.957a1 1 0 0 0-.56-1.37 10.14 10.14 0 0 0-1.063-.32l-.002-.002a1 1 0 0 0-.117-.035c-.027-.006-.053-.004-.08-.01V9a1 1 0 0 0-1-1H9Zm5 9a1 1 0 0 0-1 1v1a1 1 0 0 0 1 1h5a1 1 0 0 0 1-1v-1a1 1 0 0 0-1-1h-5z"/><path style="color:#000;clip-rule:nonzero;display:inline;overflow:visible;visibility:visible;opacity:.3;isolation:auto;mix-blend-mode:normal;color-interpolation:sRGB;color-interpolation-filters:linearRGB;solid-color:#000;solid-opacity:1;fill:#000;fill-opacity:1;fill-rule:nonzero;stroke:none;stroke-width:1;stroke-linecap:butt;stroke-linejoin:miter;stroke-miterlimit:4;stroke-dasharray:none;stroke-dashoffset:0;stroke-opacity:1;marker:none;color-rendering:auto;image-rendering:auto;shape-rendering:auto;text-rendering:auto;enable-background:accumulate;filter-blend-mode:normal;filter-gaussianBlur-deviation:0" d="M9 9v1.053c-.5.072-.912.221-1.23.455-.454.335-.676.784-.676 1.38 0 .316.07.588.207.817.14.234.325.438.56.615.232.175.593.366 1.078.565a.125.109 0 0 1 .002 0c.527.218.871.374 1.055.482.182.105.324.219.424.342.102.124.152.27.152.426a.73.73 0 0 1-.353.646c-.229.144-.543.205-.932.205-.325 0-.682-.042-1.068-.13-.336-.078-.759-.225-1.219-.397v1.154c.585.238 1.252.365 2 .381v1.324h1v-1.386c.508-.08.932-.227 1.258-.455.497-.346.742-.807.742-1.415 0-.438-.133-.796-.395-1.09a.125.109 0 0 1-.002 0c-.258-.292-.756-.602-1.5-.911-.57-.238-.929-.402-1.1-.5a.125.109 0 0 1-.001-.002 1.26 1.26 0 0 1-.365-.313.125.109 0 0 1 0-.002.688.688 0 0 1-.123-.402.73.73 0 0 1 .3-.596c.202-.153.482-.223.825-.223.282 0 .569.03.857.092.26.056.597.164.969.293l.455-.957a8.88 8.88 0 0 0-1.06-.322.125.109 0 0 1-.003 0 5.172 5.172 0 0 0-.857-.111V9H9Zm5 9v1h5v-1h-5z"/><path style="color:#000;clip-rule:nonzero;display:inline;overflow:visible;visibility:visible;opacity:1;isolation:auto;mix-blend-mode:normal;color-interpolation:sRGB;color-interpolation-filters:linearRGB;solid-color:#000;solid-opacity:1;fill:#fff;fill-opacity:1;fill-rule:nonzero;stroke:none;stroke-width:5;stroke-linecap:butt;stroke-linejoin:miter;stroke-miterlimit:4;stroke-dasharray:none;stroke-dashoffset:0;stroke-opacity:1;marker:none;color-rendering:auto;image-rendering:auto;shape-rendering:auto;text-rendering:auto;enable-background:accumulate" d="M9 8v1.053c-.5.072-.912.221-1.23.455-.454.335-.676.784-.676 1.38 0 .316.07.588.207.817.14.234.325.438.56.615.232.175.593.366 1.078.565a.125.109 0 0 1 .002 0c.527.218.871.374 1.055.482.182.105.324.219.424.342.102.124.152.27.152.426a.73.73 0 0 1-.353.646c-.229.144-.543.205-.932.205-.325 0-.682-.042-1.068-.13-.336-.078-.759-.225-1.219-.397v1.154c.585.238 1.252.365 2 .381v1.324h1v-1.386c.508-.08.932-.227 1.258-.455.497-.346.742-.807.742-1.415 0-.438-.133-.796-.395-1.09a.125.109 0 0 1-.001 0c-.259-.292-.757-.602-1.5-.911-.571-.238-.93-.402-1.1-.5a.125.109 0 0 1-.002-.002 1.26 1.26 0 0 1-.365-.313.125.109 0 0 1 0-.002.688.688 0 0 1-.123-.402.73.73 0 0 1 .3-.596c.202-.153.482-.223.825-.223.282 0 .569.03.857.092.26.056.597.164.969.293l.455-.957a8.88 8.88 0 0 0-1.06-.322.125.109 0 0 1-.003 0A5.173 5.173 0 0 0 10 9.018V8H9zm5 9v1h5v-1h-5z"/></svg>