<?xml version="1.0" encoding="UTF-8" standalone="no"?>
<!-- Created with Inkscape (http://www.inkscape.org/) -->

<svg
   xmlns:dc="http://purl.org/dc/elements/1.1/"
   xmlns:cc="http://creativecommons.org/ns#"
   xmlns:rdf="http://www.w3.org/1999/02/22-rdf-syntax-ns#"
   xmlns:svg="http://www.w3.org/2000/svg"
   xmlns="http://www.w3.org/2000/svg"
   xmlns:xlink="http://www.w3.org/1999/xlink"
   xmlns:inkscape="http://www.inkscape.org/namespaces/inkscape"
   version="1.1"
   width="32"
   height="32"
   id="svg3967">
  <defs
     id="defs3969">
    <linearGradient
       x1="16"
       y1="8"
       x2="16"
       y2="24"
       id="linearGradient3917"
       xlink:href="#linearGradient3911"
       gradientUnits="userSpaceOnUse" />
    <linearGradient
       id="linearGradient3911">
      <stop
         id="stop3913"
         style="stop-color:#000000;stop-opacity:1"
         offset="0" />
      <stop
         id="stop3915"
         style="stop-color:#000000;stop-opacity:0"
         offset="1" />
    </linearGradient>
    <filter
       color-interpolation-filters="sRGB"
       id="filter3919">
      <feGaussianBlur
         stdDeviation="0.149375"
         id="feGaussianBlur3921" />
    </filter>
    <linearGradient
       x1="71.204407"
       y1="6.2375584"
       x2="71.204407"
       y2="44.340794"
       id="linearGradient3524"
       xlink:href="#linearGradient4011"
       gradientUnits="userSpaceOnUse"
       gradientTransform="matrix(0.72972967,0,0,0.72972967,-36.346078,-2.5039292)" />
    <linearGradient
       id="linearGradient4011">
      <stop
         id="stop4013"
         style="stop-color:#ffffff;stop-opacity:1"
         offset="0" />
      <stop
         id="stop4015"
         style="stop-color:#ffffff;stop-opacity:0.23529412"
         offset="0.507761" />
      <stop
         id="stop4017"
         style="stop-color:#ffffff;stop-opacity:0.15686275"
         offset="0.83456558" />
      <stop
         id="stop4019"
         style="stop-color:#ffffff;stop-opacity:0.39215687"
         offset="1" />
    </linearGradient>
    <radialGradient
       cx="5.7800279"
       cy="8.4497671"
       r="19.99999"
       fx="5.7800279"
       fy="8.4497671"
       id="radialGradient3062-4"
       xlink:href="#linearGradient3242-7-7"
       gradientUnits="userSpaceOnUse"
       gradientTransform="matrix(0,1.7379231,-1.8385153,-3.2019174e-8,31.535108,-11.095056)" />
    <linearGradient
       id="linearGradient3242-7-7">
      <stop
         id="stop3244-5-4"
         style="stop-color:#eef87e;stop-opacity:1"
         offset="0" />
      <stop
         id="stop3246-9-4"
         style="stop-color:#cde34f;stop-opacity:1"
         offset="0.26238" />
      <stop
         id="stop3248-7-3"
         style="stop-color:#93b723;stop-opacity:1"
         offset="0.66093999" />
      <stop
         id="stop3250-8-0"
         style="stop-color:#5a7e0d;stop-opacity:1"
         offset="1" />
    </linearGradient>
    <linearGradient
       x1="24"
       y1="44"
       x2="24"
       y2="3.8990016"
       id="linearGradient3064-7"
       xlink:href="#linearGradient2490-3-8"
       gradientUnits="userSpaceOnUse"
       gradientTransform="matrix(0.74365872,0,0,0.7436587,-1.8478083,-1.8478091)" />
    <linearGradient
       id="linearGradient2490-3-8">
      <stop
         id="stop2492-3-6"
         style="stop-color:#3f7010;stop-opacity:1"
         offset="0" />
      <stop
         id="stop2494-8-8"
         style="stop-color:#84a718;stop-opacity:1"
         offset="1" />
    </linearGradient>
    <linearGradient
       id="linearGradient8838">
      <stop
         id="stop8840"
         style="stop-color:#000000;stop-opacity:1"
         offset="0" />
      <stop
         id="stop8842"
         style="stop-color:#000000;stop-opacity:0"
         offset="1" />
    </linearGradient>
    <radialGradient
       cx="62.625"
       cy="4.625"
       r="10.625"
       fx="62.625"
       fy="4.625"
       id="radialGradient3965"
       xlink:href="#linearGradient8838"
       gradientUnits="userSpaceOnUse"
       gradientTransform="matrix(1.5058824,0,0,0.37647,-78.305888,26.258824)" />
  </defs>
  <metadata
     id="metadata3972">
    <rdf:RDF>
      <cc:Work
         rdf:about="">
        <dc:format>image/svg+xml</dc:format>
        <dc:type
           rdf:resource="http://purl.org/dc/dcmitype/StillImage" />
        <dc:title />
      </cc:Work>
    </rdf:RDF>
  </metadata>
  <g
     id="layer1">
    <path
       d="m 31.999998,28 c 0,2.209139 -7.163445,4 -16.000001,4 C 7.1634417,32 -3.2e-6,30.209139 -3.2e-6,28 c 0,-2.209139 7.1634449,-4 16.0000002,-4 8.836556,0 16.000001,1.790861 16.000001,4 l 0,0 z"
       inkscape:connector-curvature="0"
       id="path8836"
       style="opacity:0.3;fill:url(#radialGradient3965);fill-opacity:1;fill-rule:evenodd;stroke:none;stroke-width:0.99999988;marker:none;visibility:visible;display:inline;overflow:visible" />
    <path
       d="m 16.000001,1.501798 c -7.9996071,0 -14.4982031,6.4985937 -14.4982031,14.498201 0,7.999609 6.498596,14.498206 14.4982031,14.498203 7.999605,0 14.498209,-6.498594 14.498201,-14.498203 0,-7.9996073 -6.498596,-14.498201 -14.498201,-14.498201 z"
       inkscape:connector-curvature="0"
       id="path2555"
       style="color:#000000;fill:url(#radialGradient3062-4);fill-opacity:1;fill-rule:nonzero;stroke:url(#linearGradient3064-7);stroke-width:0.99999994;stroke-linecap:round;stroke-linejoin:round;stroke-miterlimit:4;stroke-opacity:1;stroke-dasharray:none;stroke-dashoffset:0;marker:none;visibility:visible;display:inline;overflow:visible;enable-background:accumulate" />
    <path
       d="M 29.5,15.999522 C 29.5,23.455606 23.455399,29.5 16.000171,29.5 8.5442604,29.5 2.5,23.455537 2.5,15.999522 2.5,8.5437832 8.5442604,2.5000023 16.000171,2.5000023 23.455399,2.5000023 29.5,8.5437832 29.5,15.999522 l 0,0 z"
       inkscape:connector-curvature="0"
       id="path8655-6"
       style="opacity:0.8;color:#000000;fill:none;stroke:url(#linearGradient3524);stroke-width:0.99999994;stroke-linecap:round;stroke-linejoin:round;stroke-miterlimit:4;stroke-opacity:1;stroke-dasharray:none;stroke-dashoffset:0;marker:none;visibility:visible;display:inline;overflow:visible;enable-background:accumulate" />
    <path
       d="M 14.066667,6.9999999 14.066667,13 8,13 l 0,4.2 16,0 0,-4.2 -6.066667,0 0,-6.0000001 z"
       inkscape:connector-curvature="0"
       id="rect3007-8"
       style="color:#000000;fill:#638d14;fill-opacity:1;fill-rule:evenodd;stroke:none;stroke-width:1;marker:none;visibility:visible;display:inline;overflow:visible;enable-background:accumulate" />
    <path
       d="m 14.066667,7.9999999 0,6.0666671 -6.066667,0 0,3.866666 6.066667,0 0,6.066667 3.866666,0 0,-6.066667 6.066667,0 0,-3.866666 -6.066667,0 0,-6.0666671 z"
       inkscape:connector-curvature="0"
       id="rect3007"
       style="color:#000000;fill:#ffffff;fill-opacity:1;fill-rule:evenodd;stroke:none;stroke-width:1;marker:none;visibility:visible;display:inline;overflow:visible;enable-background:accumulate" />
    <path
       d="m 14.59375,8.53125 0,5.53125 a 0.53587299,0.53587299 0 0 1 -0.53125,0.53125 l -5.53125,0 0,2.8125 5.53125,0 a 0.53587299,0.53587299 0 0 1 0.53125,0.53125 l 0,5.53125 2.8125,0 0,-5.53125 a 0.53587299,0.53587299 0 0 1 0.53125,-0.53125 l 5.53125,0 0,-2.8125 -5.53125,0 A 0.53587299,0.53587299 0 0 1 17.40625,14.0625 l 0,-5.53125 -2.8125,0 z"
       inkscape:connector-curvature="0"
       id="path3909"
       style="opacity:0.1;color:#000000;fill:none;stroke:url(#linearGradient3917);stroke-width:1;stroke-opacity:1;marker:none;visibility:visible;display:inline;overflow:visible;filter:url(#filter3919);enable-background:accumulate" />
  </g>
</svg>
