<svg xmlns="http://www.w3.org/2000/svg" height="22" width="22"><path d="M11 0C4.926 0 0 4.926 0 11s4.926 11 11 11 11-4.926 11-11S17.074 0 11 0zm-.02 1.049h.002a.07.07 0 0 0 .018 0c4.548 0 8.384 3.052 9.57 7.217a17.315 17.315 0 0 1-4.213 5.496c-.847.733-1.773 1.383-2.79 1.842-1.018.458-2.136.719-3.247.656a5.6 5.6 0 0 1-2.271-.633 18.276 18.276 0 0 0 5.078-4.12c.956-1.116 1.791-2.39 2.115-3.833.165-.722.19-1.48.04-2.207a4.079 4.079 0 0 0-.999-1.965 4.013 4.013 0 0 0-1.855-1.098 4.85 4.85 0 0 0-2.153-.078c-1.423.261-2.693 1.086-3.705 2.108-1.787 1.8-2.89 4.34-2.687 6.875.102 1.267.524 2.511 1.252 3.554.143.205.302.398.467.584a16.228 16.228 0 0 1-3.086.739A9.946 9.946 0 0 1 10.98 1.049zm.07 2.02c.004-.001.016.002.012.001.692 0 1.387.211 1.936.627a3.2 3.2 0 0 1 1.068 1.49 4.12 4.12 0 0 1 .192 1.848c-.143 1.243-.77 2.388-1.533 3.393-1.354 1.778-3.156 3.203-5.159 4.2-.19.095-.386.187-.582.274a5.114 5.114 0 0 1-1.05-1.295c-.59-1.044-.784-2.284-.67-3.482.116-1.199.526-2.356 1.082-3.43.643-1.244 1.516-2.418 2.732-3.09a4.14 4.14 0 0 1 1.973-.537zm9.83 6.81c.042.367.071.739.071 1.117 0 5.497-4.452 9.953-9.95 9.953a9.917 9.917 0 0 1-7.59-3.53 18.138 18.138 0 0 0 3.17-1.06c.461.346.967.634 1.507.84 1.59.61 3.392.52 4.996-.035 1.603-.555 3.021-1.549 4.256-2.705a18.264 18.264 0 0 0 3.54-4.58z"/></svg>