<?xml version="1.0" encoding="UTF-8" standalone="no"?>
<!-- Created with Inkscape (http://www.inkscape.org/) -->

<svg
   xmlns:dc="http://purl.org/dc/elements/1.1/"
   xmlns:cc="http://creativecommons.org/ns#"
   xmlns:rdf="http://www.w3.org/1999/02/22-rdf-syntax-ns#"
   xmlns:svg="http://www.w3.org/2000/svg"
   xmlns="http://www.w3.org/2000/svg"
   xmlns:xlink="http://www.w3.org/1999/xlink"
   xmlns:sodipodi="http://sodipodi.sourceforge.net/DTD/sodipodi-0.dtd"
   xmlns:inkscape="http://www.inkscape.org/namespaces/inkscape"
   id="svg10262"
   viewBox="0 0 454.22 65.577"
   version="1.1"
   inkscape:version="0.48.4 r9939"
   width="100%"
   height="100%"
   sodipodi:docname="logotype.svg">
  <sodipodi:namedview
     pagecolor="#ffffff"
     bordercolor="#666666"
     borderopacity="1"
     objecttolerance="10"
     gridtolerance="10"
     guidetolerance="10"
     inkscape:pageopacity="0"
     inkscape:pageshadow="2"
     inkscape:window-width="640"
     inkscape:window-height="480"
     id="namedview53"
     showgrid="false"
     inkscape:zoom="0.68028709"
     inkscape:cx="227.11"
     inkscape:cy="32.7885"
     inkscape:window-x="0"
     inkscape:window-y="30"
     inkscape:window-maximized="0"
     inkscape:current-layer="svg10262" />
  <defs
     id="defs10264">
    <filter
       id="filter3174-0-9"
       color-interpolation-filters="sRGB">
      <feGaussianBlur
         id="feGaussianBlur3176-88-0"
         stdDeviation="1.71" />
    </filter>
    <filter
       id="filter3806-2-8"
       color-interpolation-filters="sRGB">
      <feGaussianBlur
         id="feGaussianBlur3808-07-3"
         stdDeviation="1.2" />
    </filter>
    <linearGradient
       id="linearGradient3737-7-9">
      <stop
         id="stop3739-11-8"
         stop-color="#FFF"
         offset="0" />
      <stop
         id="stop3741-01-1"
         stop-color="#FFF"
         stop-opacity="0"
         offset="1" />
    </linearGradient>
    <clipPath
       id="clipPath3823-3-9">
      <path
         id="path3825-9-5"
         d="M108.81,58c-1.56,0-2.81,1.254-2.81,2.812v24.375c0,1.559,1.25,2.813,2.81,2.813h24.375c1.57,0,2.82-1.254,2.82-2.812v-24.375c0-1.559-1.25-2.813-2.81-2.813h-24.375zm7.1875,4.5,10,0,0,8.75,5,0-10,13.75-10-13.75,5,0,0-8.75z"
         fill="#FFF" />
    </clipPath>
    <filter
       id="filter3831-41-3"
       color-interpolation-filters="sRGB">
      <feGaussianBlur
         id="feGaussianBlur3833-9-1"
         stdDeviation="0.6375" />
    </filter>
    <linearGradient
       id="linearGradient13494"
       y2="7.0165"
       gradientUnits="userSpaceOnUse"
       x2="45.448"
       gradientTransform="scale(1.0058652,0.994169)"
       y1="92.54"
       x1="45.448">
      <stop
         id="stop3750-70-1"
         stop-color="#000"
         offset="0" />
      <stop
         id="stop3752-38-4"
         stop-color="#000"
         stop-opacity="0.58823532"
         offset="1" />
    </linearGradient>
    <linearGradient
       id="linearGradient13496"
       y2="72"
       gradientUnits="userSpaceOnUse"
       x2="88"
       gradientTransform="matrix(0.9375,0,0,0.9375,-140.5,3.5)"
       y1="72"
       x1="56">
      <stop
         id="stop3780-3-4"
         stop-color="#499119"
         offset="0" />
      <stop
         id="stop3782-79-6"
         stop-color="#8fd625"
         offset="1" />
    </linearGradient>
    <linearGradient
       id="linearGradient13498"
       y2="75.095"
       xlink:href="#linearGradient3737-7-9"
       gradientUnits="userSpaceOnUse"
       x2="70"
       gradientTransform="translate(0,4)"
       y1="54"
       x1="70" />
    <linearGradient
       id="linearGradient13502"
       y2="50.069"
       xlink:href="#linearGradient3737-7-9"
       gradientUnits="userSpaceOnUse"
       x2="65.263"
       gradientTransform="matrix(0.625,0,0,0.625,28.5,31.25)"
       y1="64.205"
       x1="65.263" />
    <linearGradient
       id="linearGradient16187"
       y2="50.069"
       gradientUnits="userSpaceOnUse"
       x2="65.263"
       gradientTransform="matrix(0.625,0,0,0.625,78.5,32.25)"
       y1="64.205"
       x1="65.263">
      <stop
         id="stop5012-19-8"
         stop-color="#000"
         offset="0" />
      <stop
         id="stop5014-4-4"
         stop-color="#000"
         stop-opacity="0"
         offset="1" />
    </linearGradient>
    <linearGradient
       inkscape:collect="always"
       xlink:href="#linearGradient13496"
       id="linearGradient3071"
       gradientUnits="userSpaceOnUse"
       gradientTransform="matrix(0.9375,0,0,0.9375,-140.5,3.5)"
       x1="56"
       y1="72"
       x2="88"
       y2="72" />
    <linearGradient
       inkscape:collect="always"
       xlink:href="#linearGradient3737-7-9"
       id="linearGradient3073"
       gradientUnits="userSpaceOnUse"
       gradientTransform="translate(0,4)"
       x1="70"
       y1="54"
       x2="70"
       y2="75.095" />
    <linearGradient
       inkscape:collect="always"
       xlink:href="#linearGradient16187"
       id="linearGradient3075"
       gradientUnits="userSpaceOnUse"
       gradientTransform="matrix(0.625,0,0,0.625,78.5,32.25)"
       x1="65.263"
       y1="64.205"
       x2="65.263"
       y2="50.069" />
    <linearGradient
       inkscape:collect="always"
       xlink:href="#linearGradient3737-7-9"
       id="linearGradient3077"
       gradientUnits="userSpaceOnUse"
       gradientTransform="matrix(0.625,0,0,0.625,28.5,31.25)"
       x1="65.263"
       y1="64.205"
       x2="65.263"
       y2="50.069" />
    <linearGradient
       inkscape:collect="always"
       xlink:href="#linearGradient3737-7-9"
       id="linearGradient3080"
       gradientUnits="userSpaceOnUse"
       gradientTransform="matrix(0.625,0,0,0.625,-197.92142,1935.1067)"
       x1="65.263"
       y1="64.205"
       x2="65.263"
       y2="50.069" />
    <linearGradient
       inkscape:collect="always"
       xlink:href="#linearGradient3737-7-9"
       id="linearGradient3084"
       gradientUnits="userSpaceOnUse"
       gradientTransform="translate(-226.42142,1907.8567)"
       x1="70"
       y1="54"
       x2="70"
       y2="75.095" />
    <linearGradient
       inkscape:collect="always"
       xlink:href="#linearGradient13496"
       id="linearGradient3087"
       gradientUnits="userSpaceOnUse"
       gradientTransform="matrix(0.9375,0,0,0.9375,-2044.3567,-222.92142)"
       x1="56"
       y1="72"
       x2="88"
       y2="72" />
    <linearGradient
       inkscape:collect="always"
       xlink:href="#linearGradient13494"
       id="linearGradient3090"
       gradientUnits="userSpaceOnUse"
       gradientTransform="scale(1.0058652,0.994169)"
       x1="45.448"
       y1="92.54"
       x2="45.448"
       y2="7.0165" />
    <linearGradient
       inkscape:collect="always"
       xlink:href="#linearGradient13494"
       id="linearGradient3093"
       gradientUnits="userSpaceOnUse"
       gradientTransform="matrix(1.0058652,0,0,0.994169,-226.42142,1903.8567)"
       x1="45.448"
       y1="92.54"
       x2="45.448"
       y2="7.0165" />
  </defs>
  <metadata
     id="metadata10267">
    <rdf:RDF>
      <cc:Work
         rdf:about="">
        <dc:format>image/svg+xml</dc:format>
        <dc:type
           rdf:resource="http://purl.org/dc/dcmitype/StillImage" />
        <dc:title />
      </cc:Work>
    </rdf:RDF>
  </metadata>
  <path
     id="rect3745-7"
     d="m -215.42142,1910.8567 37,-2 37,2 c 3.324,0 6,2.676 6,6 v 73 c 0,3.324 -2.676,6 -6,6 h -74 c -3.324,0 -6,-2.676 -6,-6 v -73 c 0,-3.324 2.676,-6 6,-6 z"
     style="opacity:0.9;fill:url(#linearGradient3093);fill-rule:nonzero;display:none;filter:url(#filter3174-0-9)"
     inkscape:connector-curvature="0" />
  <rect
     id="rect3790-5"
     rx="2.8125"
     ry="2.8125"
     transform="matrix(0,-1,1,0,-226.42142,1907.8567)"
     width="30"
     y="56"
     x="-86"
     height="30"
     style="opacity:0.6;fill:#000000;display:none;filter:url(#filter3806-2-8)" />
  <rect
     id="rect2993-7"
     rx="2.8125"
     ry="2.8125"
     transform="matrix(0,-1,1,0,0,0)"
     width="30"
     y="-170.42142"
     x="-1991.8567"
     height="30"
     style="fill:url(#linearGradient3087);display:none" />
  <path
     id="rect3775-7"
     d="m -167.60942,1961.8567 c -1.558,0 -2.812,1.254 -2.812,2.812 v 24.375 c 0,0.8731 0.41082,1.6412 1.0312,2.1562 -0.003,-0.053 -0.031,-0.101 -0.031,-0.155 v -24.375 c 0,-1.559 1.171,-2.813 2.625,-2.813 h 22.75 c 1.454,0 2.625,1.254 2.625,2.812 v 24.375 c 0,0.055 -0.0284,0.1024 -0.0312,0.1563 0.62,-0.514 1.031,-1.282 1.031,-2.155 v -24.375 c 0,-1.559 -1.254,-2.813 -2.812,-2.813 h -24.375 z"
     style="opacity:0.5;fill:url(#linearGradient3084);display:none"
     inkscape:connector-curvature="0" />
  <path
     id="path3810-7"
     d="m 116,63.5 0,8.75 -5,0 10,13.75 10,-13.75 -5,0 0,-8.75 -10,0 z"
     clip-path="url(#clipPath3823-3-9)"
     transform="translate(-276.42142,1903.8567)"
     style="opacity:0.6;fill:url(#linearGradient3075);fill-rule:nonzero;display:none;filter:url(#filter3831-41-3)"
     inkscape:connector-curvature="0" />
  <path
     id="path4278-0"
     d="m -160.42142,1966.3567 0,8.75 -5,0 10,13.75 10,-13.75 -5,0 0,-8.75 -10,0 z"
     style="fill:url(#linearGradient3080);fill-rule:nonzero;display:none"
     inkscape:connector-curvature="0" />
  <path
     style="text-align:start;fill:#333333"
     d="M 388.21875 0 C 384.93272 5.0346251e-05 381.8635 0.7167629 379 2.125 C 376.18341 3.4863907 373.70617 5.3404004 371.59375 7.6875 C 369.52825 10.034685 367.90801 12.73 366.6875 15.78125 C 365.51392 18.832569 364.90625 22.010833 364.90625 25.34375 C 364.90625 28.535888 365.49837 31.667481 366.625 34.71875 C 367.75162 37.770051 369.34075 40.465365 371.40625 42.8125 C 373.47172 45.15965 375.90216 47.044774 378.71875 48.5 C 381.58225 49.95523 384.74495 50.6875 388.21875 50.6875 C 391.50472 50.6875 394.55839 50.017594 397.375 48.65625 C 400.19153 47.247966 402.65322 45.393957 404.71875 43.09375 C 406.83113 40.746615 408.45138 38.0513 409.625 35 C 410.84547 31.94873 411.4687 28.72366 411.46875 25.34375 C 411.4687 22.245547 410.90783 19.191876 409.78125 16.1875 C 408.65457 13.136249 407.06544 10.425377 405 8.03125 C 402.98141 5.6372072 400.51973 3.7052763 397.65625 2.25 C 394.7927 0.74787707 391.64555 5.0346251e-05 388.21875 0 z M 436.34375 0 C 433.66799 5.0346251e-05 431.25311 0.29604245 429.09375 0.90625 C 426.98131 1.4696136 425.14285 2.3577257 423.59375 3.53125 C 422.09157 4.6579251 420.90747 6.0601002 420.0625 7.75 C 419.26447 9.3930422 418.875 11.278166 418.875 13.4375 C 418.875 15.503022 419.24891 17.247996 420 18.65625 C 420.75108 20.017624 421.85726 21.186171 423.3125 22.125 C 424.81466 23.016942 426.60631 23.764769 428.71875 24.375 C 430.87811 24.93834 433.35535 25.452403 436.125 25.96875 C 438.98849 26.532088 441.48129 27.155323 443.59375 27.8125 C 445.70615 28.469722 447.45112 29.279913 448.8125 30.21875 C 450.17381 31.157627 451.15526 32.279367 451.8125 33.59375 C 452.46966 34.861224 452.81246 36.434798 452.8125 38.3125 C 452.81246 42.06794 451.34792 44.87229 448.4375 46.75 C 445.57395 48.580775 441.66342 49.500001 436.6875 49.5 C 432.88511 49.500001 429.47308 48.923574 426.46875 47.75 C 423.51134 46.576431 420.78491 44.660058 418.25 42.03125 L 417.1875 42.9375 C 419.86324 45.61325 422.74551 47.607545 425.84375 48.875 C 428.98891 50.095515 432.58789 50.6875 436.625 50.6875 C 442.11729 50.6875 446.40174 49.628124 449.5 47.46875 C 452.64514 45.309382 454.21871 42.17779 454.21875 38.09375 C 454.21871 35.887449 453.78243 34.048996 452.9375 32.59375 C 452.09249 31.13854 450.87727 29.923321 449.28125 28.9375 C 447.7321 27.951722 445.84698 27.125974 443.59375 26.46875 C 441.34046 25.811574 438.83211 25.21959 436.0625 24.65625 C 433.29285 24.092962 430.89353 23.532092 428.875 22.96875 C 426.90339 22.35852 425.26745 21.641808 424 20.84375 C 422.73253 19.998808 421.79775 18.986104 421.1875 17.8125 C 420.57724 16.592019 420.28124 15.096365 420.28125 13.3125 C 420.28124 11.481766 420.57724 9.8302702 421.1875 8.375 C 421.79775 6.9198138 422.77934 5.6890383 424.09375 4.65625 C 425.40814 3.5766103 427.07519 2.7508623 429.09375 2.1875 C 431.15922 1.624234 433.60521 1.343799 436.46875 1.34375 C 439.42613 1.343799 441.98129 1.7332695 444.09375 2.53125 C 446.25309 3.3293262 448.30961 4.8094225 450.28125 6.96875 L 451.1875 6 C 449.21586 3.8406735 447.0503 2.298213 444.65625 1.40625 C 442.30908 0.46744205 439.53584 5.0346251e-05 436.34375 0 z M 42.40625 0.59375 L 42.40625 44.46875 C 42.40625 47.566924 44.448097 50.21875 47.96875 50.21875 C 50.433207 50.21875 51.15625 50.21875 51.15625 50.21875 L 51.125 48.875 C 51.05459 48.875 49.963652 48.90625 48.0625 48.90625 C 45.31639 48.90625 43.84375 46.510729 43.84375 44.46875 L 43.84375 0.59375 L 42.40625 0.59375 z M 237.25 0.59375 L 237.25 13.34375 L 237.25 14.75 L 237.25 44.59375 C 237.25 47.973576 240.18267 50.21875 243.5625 50.21875 C 247.43522 50.21875 247.89834 50.28916 247.96875 50.21875 L 247.96875 48.8125 C 247.25523 48.8125 246.8015 48.8125 243.5625 48.8125 C 241.09804 48.8125 238.86749 47.339859 238.65625 44.59375 L 238.65625 14.75 L 248.84375 14.75 L 248.84375 13.34375 L 238.65625 13.34375 L 238.65625 0.59375 L 237.25 0.59375 z M 388.21875 1.40625 C 391.31695 1.4062989 394.18367 2.0606473 396.8125 3.375 C 399.48821 4.6894466 401.80961 6.4655351 403.78125 8.71875 C 405.75281 10.925105 407.29527 13.495828 408.375 16.40625 C 409.50158 19.269797 410.06245 22.245547 410.0625 25.34375 C 410.06245 28.301174 409.51714 31.230253 408.4375 34.09375 C 407.40471 36.95728 405.92461 39.496752 404 41.75 C 402.12224 44.003265 399.8164 45.841718 397.09375 47.25 C 394.41797 48.611346 391.45778 49.281251 388.21875 49.28125 C 385.02661 49.281251 382.11322 48.626903 379.4375 47.3125 C 376.76174 45.998103 374.4559 44.237572 372.53125 42.03125 C 370.60658 39.778002 369.06412 37.23853 367.9375 34.375 C 366.85781 31.46456 366.31249 28.442003 366.3125 25.34375 C 366.31249 22.386376 366.84225 19.488547 367.875 16.625 C 368.95468 13.76152 370.45033 11.190798 372.375 8.9375 C 374.29965 6.6842849 376.60549 4.8926393 379.28125 3.53125 C 382.00392 2.1230115 384.97967 1.4062989 388.21875 1.40625 z M 313.90625 2.6875 C 313.10264 2.7355214 312.29236 2.9452331 311.59375 3.34375 C 310.53091 3.9500358 309.69699 4.9847038 309.34375 6.15625 C 309.10201 6.9579809 309.11065 7.8223932 309.1875 8.65625 C 309.273 9.5840399 309.452 10.48227 309.71875 11.375 C 309.91608 12.035366 310.17472 12.67531 310.4375 13.3125 C 309.40859 13.3174 308.37266 13.3397 307.34375 13.34375 C 307.09538 13.34765 305.14668 13.365897 304.15625 13.65625 C 298.91342 15.193162 295.67347 17.924705 293.1875 22.78125 L 293.1875 13.34375 L 291.78125 13.34375 L 291.78125 49.875 L 293.1875 49.875 L 293.1875 26.78125 C 294.10287 23.43663 295.79263 20.514286 298.1875 18.375 C 300.58223 16.236106 303.67436 14.890826 307.40625 14.75 C 308.55697 14.7036 309.79031 14.70266 310.96875 14.6875 L 327.34375 49.875 C 321.78111 62.549351 321.57082 62.983772 321.21875 63.40625 C 320.72586 63.899141 320.15947 64.15625 317.90625 64.15625 L 316.65625 64.125 L 316.65625 65.53125 L 317.90625 65.5625 C 320.51153 65.5625 321.92087 65.009522 322.625 63.8125 L 323.125 62.96875 L 344.875 13.34375 L 343.3125 13.34375 L 328.03125 48.125 L 312.625 14.65625 C 313.37 14.64535 314.13649 14.69252 314.875 14.59375 C 315.67375 14.486908 316.43515 14.166621 317.125 13.75 C 317.84928 13.312603 318.49665 12.773872 319 12.09375 C 319.69973 11.14821 320.06178 9.9571481 320.09375 8.78125 C 320.12095 7.7830471 319.92499 6.7944813 319.46875 5.90625 C 319.11166 5.2110188 318.5989 4.5959321 318 4.09375 C 317.24722 3.4625263 316.33697 3.0119547 315.375 2.8125 C 314.90653 2.7153725 314.41561 2.6640484 313.9375 2.6875 L 313.90625 2.6875 z M 314.34375 3.84375 C 315.12309 3.85177 315.89577 4.1424708 316.53125 4.59375 C 317.16667 5.0450293 317.67694 5.6807957 318.03125 6.375 C 318.47094 7.2363864 318.67507 8.2238191 318.59375 9.1875 C 318.51245 10.151181 318.16478 11.081769 317.53125 11.8125 C 316.64341 12.836619 315.22625 13.418559 313.875 13.3125 L 312.0625 13.3125 L 311.46875 12 C 311.11705 11.163063 310.85801 10.266654 310.6875 9.375 C 310.51198 8.4569897 310.37718 7.4949394 310.625 6.59375 C 310.87317 5.6912405 311.51292 4.9553335 312.3125 4.46875 C 312.92563 4.0956097 313.62607 3.8364153 314.34375 3.84375 z M 212.6875 12.75 C 202.40719 12.75 198.5 22.137879 198.5 29.53125 L 198.5 49.875 L 199.90625 49.875 L 199.90625 29.53125 C 199.90625 21.856227 204.09701 14.15625 212.6875 14.15625 C 221.27799 14.15625 225.4375 21.856227 225.4375 29.53125 L 225.4375 49.875 L 226.84375 49.875 L 226.84375 29.53125 C 226.84375 22.137879 222.9679 12.75 212.6875 12.75 z M 16.96875 12.78125 C 6.758857 12.78125 0.28165223 21.931335 0 31.71875 C 0 41.083687 7.3838561 50.59375 17.59375 50.59375 C 23.085968 50.59375 29.871782 47.547207 32.125 41.84375 L 30.59375 41.84375 C 28.410945 46.631838 22.945142 49.1875 17.59375 49.1875 C 8.6512916 49.1875 2.0399675 41.278295 1.40625 32.40625 L 34.84375 32.40625 L 34.84375 31.65625 C 34.702924 21.657596 27.671535 12.78125 16.96875 12.78125 z M 72.21875 12.78125 C 62.008856 12.78125 55.531652 21.931335 55.25 31.71875 C 55.25 41.083687 62.665106 50.59375 72.875 50.59375 C 78.367218 50.59375 85.121782 47.547207 87.375 41.84375 L 85.875 41.84375 C 83.692195 46.631838 78.226393 49.1875 72.875 49.1875 C 63.932542 49.1875 57.289967 41.278295 56.65625 32.40625 L 90.125 32.40625 L 90.125 31.65625 C 89.984174 21.657596 82.921534 12.78125 72.21875 12.78125 z M 110.03125 12.78125 C 104.04614 12.78125 99.336515 17.3626 97.90625 22.96875 C 97.2074 25.708405 96.96875 26.598693 96.96875 49.875 L 98.375 49.875 C 98.375 29.389201 98.429433 27.857996 98.8125 25.0625 C 99.710168 19.152204 103.88771 14.126866 110.03125 14.1875 C 116.5914 14.1875 122.89798 18.413339 122.53125 29.65625 C 122.53125 32.65037 122.625 37.801669 122.625 41.625 C 122.625 45.909194 122.53125 49.875 122.53125 49.875 L 123.9375 49.875 C 123.9375 49.875 124.08929 36.2785 123.9375 29.65625 C 123.69301 18.98965 129.45768 14.199724 135.84375 14.1875 C 142.4973 14.287667 147.60197 19.305957 148 26.28125 C 148.20167 29.816181 148.09375 43.876199 148.09375 49.875 L 149.5 49.875 C 149.5 26.539917 149.27229 25.507443 148.78125 23.03125 C 147.73429 17.751738 142.50952 12.78125 135.84375 12.78125 C 128.91002 12.78125 123.88545 17.821125 123.40625 23.40625 C 122.84294 17.773205 116.86132 12.78125 110.03125 12.78125 z M 173.6875 12.78125 C 163.4776 12.78125 157.0004 21.931335 156.71875 31.71875 C 156.71875 41.083687 164.13385 50.59375 174.34375 50.59375 C 179.83597 50.59375 186.59053 47.547207 188.84375 41.84375 L 187.34375 41.84375 C 185.16094 46.631838 179.69515 49.1875 174.34375 49.1875 C 165.40129 49.1875 158.75872 41.278295 158.125 32.40625 L 191.59375 32.40625 L 191.59375 31.65625 C 191.45293 21.657596 184.39028 12.78125 173.6875 12.78125 z M 268.875 12.78125 C 264.36857 12.78125 260.02106 14.957217 256.21875 17.5625 L 257.0625 18.6875 C 261.14646 15.800564 265.35435 14.1875 268.875 14.1875 C 276.12755 14.1875 280.84375 19.379966 280.84375 26.84375 L 280.84375 31 C 278.9426 30.295869 274.57886 28.96875 268.59375 28.96875 C 262.25657 28.96875 253.53125 31.488737 253.53125 39.375 C 253.53125 45.641762 258.75617 50.59375 265.375 50.59375 C 271.07846 50.59375 277.11186 48.475588 280.84375 43.6875 L 280.84375 47.0625 C 280.84375 48.541174 281.7555 49.804587 283.375 49.875 L 284.78125 49.875 L 284.78125 48.46875 L 283.375 48.46875 C 282.60046 48.46875 282.39083 47.907457 282.25 47.0625 L 282.25 26.84375 C 282.25 18.957488 277.67663 12.78125 268.875 12.78125 z M 16.96875 14.1875 C 26.333687 14.1875 32.741282 21.494237 33.375 31 L 1.40625 31 C 1.8287284 22.972911 7.3221615 14.1875 16.96875 14.1875 z M 72.21875 14.1875 C 81.583686 14.1875 87.991283 21.494237 88.625 31 L 56.65625 31 C 57.078728 22.972911 62.572161 14.1875 72.21875 14.1875 z M 173.6875 14.1875 C 183.05243 14.1875 189.46003 21.494237 190.09375 31 L 158.125 31 C 158.54748 22.972911 164.04091 14.1875 173.6875 14.1875 z M 268.59375 30.375 C 272.67771 30.375 276.83021 31.013413 280.84375 32.5625 L 280.84375 39.8125 C 280.84375 40.657457 280.51662 41.631305 279.8125 42.6875 C 276.92556 47.193936 270.72639 49.1875 265.375 49.1875 C 259.95319 49.1875 254.9375 45.289697 254.9375 39.375 C 254.9375 32.544933 262.60864 30.375 268.59375 30.375 z "
     transform="translate(0,-1.6513838e-6)"
     id="path3062-0" />
  <path
     id="path3108-9"
     style="text-align:start;fill:#333333;stroke:#ff0000;stroke-width:0.29999995;stroke-miterlimit:4;stroke-dasharray:none;display:none"
     d="m 226.89364,29.531433 c 0,-7.393371 -0.63372,-16.758307 -10.91402,-16.758307 -6.40759,0 -13.02642,4.083957 -16.05418,9.998654 v -9.43535 h -1.40826 v 36.544377 h 1.40826 V 26.785324 c 1.83074,-6.478001 8.59039,-12.603937 16.05418,-12.603937 8.59039,0 9.50576,7.675023 9.50576,15.350046 v 20.349374 h 1.40826 V 29.531433"
     stroke-miterlimit="4"
     inkscape:connector-curvature="0" />
</svg>
