<svg width="6354.5" height="1040" viewBox="0 0 5957.3 974.95" xml:space="preserve" xmlns="http://www.w3.org/2000/svg"><path d="M6032.925 2917.9c-137.82 0-235.26 83.803-235.26 200.93 0 92.386 60.076 152.46 190.33 189.82l84.814 24.232c117.12 34.329 164.07 79.26 164.07 153.98 0 97.94-81.784 163.06-204.97 163.06-122.68 0-199.41-65.63-203.96-166.6h-46.445c4.543 126.21 101.47 210.01 250.4 210.01 149.94 0 250.4-85.823 250.4-208 0-96.425-62.095-157.01-197.39-195.88l-85.823-24.232c-108.04-31.3-156-77.242-156-147.92 0-90.872 80.27-156 188.81-156 112.08 0 184.27 67.648 191.34 167.61h45.436c-6.058-125.2-97.434-211.02-235.76-211.02zm-636.47 2.02c-190.33 0-322.09 157.51-322.09 386.2 0 227.68 131.26 385.2 322.09 385.2 189.32 0 321.08-157.01 321.08-385.2 0-229.2-131.76-386.2-321.08-386.2zm-4506.138 16.765a9.334 9.334 0 0 0-9.332 9.334v633.91c0 33.613 9.213 60.986 27.914 79.688 18.7 18.702 46.074 27.916 79.688 27.916h38.327a9.334 9.334 0 0 0 9.333-9.333v-22.603a9.335 9.335 0 0 0-9.333-9.332h-38.327c-24.344 0-40.39-5.56-50.581-15.753-10.192-10.193-15.753-26.24-15.753-50.583v-633.91a9.334 9.334 0 0 0-9.333-9.335zm4506.138 27.156c159.03 0 275.14 132.77 275.14 342.28 0 208.5-116.11 341.28-275.14 341.28-161.05 0-276.15-133.78-276.15-341.28 0-210.52 116.62-342.28 276.15-342.28zm-1985.2 44.582a9.334 9.334 0 0 0-9.335 9.334v562.11c0 12.606 1.273 24.281 3.86 34.982 1.724 7.134 4.035 13.834 6.947 20.065a91.514 91.514 0 0 0 4.815 8.985 85.71 85.71 0 0 0 5.708 8.23 82.739 82.739 0 0 0 14.015 14.014c5.224 4.101 10.983 7.612 17.212 10.523a100.374 100.374 0 0 0 9.695 3.92c6.693 2.316 13.832 4.036 21.396 5.179 7.566 1.142 15.555 1.706 23.958 1.706h38.324a9.335 9.335 0 0 0 9.335-9.333v-22.603a9.335 9.335 0 0 0-9.335-9.334h-38.324c-18.258 0-32.022-3.232-41.874-9.042a44.954 44.954 0 0 1-4.629-3.126c-4.343-3.35-7.882-7.365-10.789-12.292a50.802 50.802 0 0 1-2.686-5.24c-1.642-3.709-2.99-7.867-4.015-12.506a89.888 89.888 0 0 1-1.295-7.317c-.694-5.117-1.045-10.722-1.045-16.811v-388.66h104.66a9.335 9.335 0 0 0 9.334-9.335v-22.6a9.334 9.334 0 0 0-9.334-9.336h-104.66v-132.17a9.334 9.334 0 0 0-9.335-9.334zm986.48 1.697c-12.173.66-24.212 4.015-34.964 10.148-16.246 9.268-28.772 24.59-34.221 42.662-3.716 12.322-3.869 24.819-2.8 36.416 1.185 12.853 3.902 25.353 7.502 37.399 1.027 3.438 2.177 6.785 3.356 10.104l-24.57.135c-64.989.358-123.93 27.81-157.68 74.526v-62.243a9.334 9.334 0 0 0-9.334-9.334h-22.602a9.334 9.334 0 0 0-9.333 9.334v518.87a9.335 9.335 0 0 0 9.333 9.333h22.602a9.335 9.335 0 0 0 9.333-9.333v-334.12c0-91.25 65.374-154.18 157.89-155.76l39.662-.68 205.43 494.51-36.365 88.314-.01.015c-14.86 36.3-25.91 56.878-37.727 67.55-11.817 10.67-25.213 13.622-50.433 13.622h-43.238a9.335 9.335 0 0 0-9.335 9.335v22.601a9.335 9.335 0 0 0 9.335 9.335h43.238c32.443 0 56.668-5.556 76.155-22.573 19.487-17.016 33.533-43.745 50.403-84.928v-.01l255.5-622.54c2.52-6.142-1.996-12.878-8.635-12.878h-24.078a9.334 9.334 0 0 0-8.632 5.786l-145.44 353.77c0 .012-.01.023-.013.035l-48.88 120.31c-16.412-40.136-33.02-80.254-49.296-120.31l-.027-.066-133.87-322.36c5.124-.016 10.498-.196 16.073-.941 12.292-1.644 23.472-6.42 33.322-12.367 10.341-6.245 19.934-14.24 27.477-24.432 10.524-14.22 16.131-31.583 16.606-48.995.4-14.682-2.712-29.462-9.523-42.722-5.358-10.431-12.9-19.567-21.713-26.957-11.118-9.323-24.53-15.987-38.873-18.961-7.152-1.483-14.402-1.995-21.634-1.603zm5.985 38.296c6.103 2.034 16.255 3.558 21.495 7.29 6.4 4.545 11.83 11.154 15.626 18.593 4.688 9.184 6.887 19.8 6.037 29.872-.849 10.066-4.75 19.773-11.146 27.151-8.86 10.221-23.627 16.327-37.053 15.273a9.376 9.376 0 0 0-.73-.029c1.246 0 1.167-.013-.198-.013h-.079l-15.817.136-3.488-8.198v1.888c0-1.241-.247-2.47-.727-3.614-4.188-9.968-7.264-20.348-9.31-31.055-2.197-11.486-3.492-22.114-1.191-30.48 2.258-8.212 8.61-15.964 16.635-20.848 6.322-3.848 13.46-5.966 19.946-5.966zm-3841.424 93.653c-69.68 0-129.55 29.5-171.42 78.908-41.865 49.407-65.903 118.45-65.903 197.72 0 79.274 24.039 148.32 65.903 197.72 41.865 49.407 101.74 78.906 171.42 78.906 105.18 0 199.16-67.201 224.28-170.25 1.432-5.878-3.02-11.545-9.07-11.545H753.92a9.334 9.334 0 0 0-9.027 6.962c-21.454 81.618-98.508 133.57-182.6 133.57-57.575 0-106.02-23.918-140.69-65.211-33.09-39.417-53.234-95.056-55.016-160.81h419.76a9.334 9.334 0 0 0 9.335-9.335v-11.79c0-74.426-23.342-140.53-64.354-188.2-41.012-47.667-99.876-76.644-169.04-76.644zm706.18 0c-69.68 0-129.55 29.5-171.42 78.908-41.866 49.407-65.904 118.45-65.904 197.72 0 79.274 24.04 148.32 65.903 197.72 41.864 49.407 101.74 78.906 171.42 78.906 105.18 0 199.16-67.201 224.28-170.25 1.433-5.878-3.019-11.545-9.069-11.545H1460.1a9.334 9.334 0 0 0-9.027 6.962c-21.454 81.618-98.508 133.57-182.6 133.57-57.575 0-106.02-23.918-140.69-65.211-33.09-39.417-53.234-95.056-55.016-160.81h419.76a9.334 9.334 0 0 0 9.335-9.335v-11.79c0-74.426-23.341-140.53-64.354-188.2-41.013-47.67-99.878-76.644-169.04-76.644zm830.497 0c-74.701 0-138.85 37.494-169.73 99.439-25.584-59.834-80.846-97.239-148.37-99.342-.09 0-.18-.01-.271-.01l-6.213-.013h-.254c-113.39 2.86-194.51 83.201-194.51 197.93v338.05a9.335 9.335 0 0 0 9.333 9.333h22.602a9.335 9.335 0 0 0 9.332-9.333v-338.05c0-47.211 16.054-85.735 43.418-112.9 27.337-27.138 66.233-43.125 113.14-43.814 39.968.635 71.62 14.751 93.94 40.858 22.343 26.136 35.477 64.972 35.477 115.86v338.05a9.335 9.335 0 0 0 9.333 9.333h22.602a9.335 9.335 0 0 0 9.333-9.333v-338.05c0-50.978 16.9-89.763 43.93-116.16 27.028-26.397 64.548-40.582 106.92-40.582 42.112 0 75.22 13.948 98.411 40.096 23.192 26.148 36.711 65.222 36.711 116.65v338.05a9.334 9.334 0 0 0 9.335 9.333h22.604a9.335 9.335 0 0 0 9.333-9.333v-338.05c0-59.945-16.618-109.53-47.371-144.2-30.753-34.67-75.489-53.811-129.02-53.811zm488.75 0c-69.679 0-129.55 29.5-171.42 78.908-41.865 49.407-65.905 118.45-65.905 197.72 0 79.275 24.04 148.32 65.905 197.72 41.865 49.407 101.74 78.906 171.42 78.906 105.18 0 199.16-67.201 224.28-170.25 1.432-5.877-3.018-11.544-9.067-11.545h-23.584a9.334 9.334 0 0 0-9.03 6.962c-21.453 81.618-98.506 133.57-182.6 133.57-57.574 0-106.02-23.918-140.69-65.211-33.09-39.417-53.235-95.056-55.017-160.81h419.76a9.335 9.335 0 0 0 9.334-9.335v-11.79c0-74.426-23.342-140.53-64.354-188.2-41.012-47.667-99.874-76.644-169.04-76.644zm507.41 0c-116.73 0-200.96 81.12-200.96 198.01v338.05a9.335 9.335 0 0 0 9.335 9.333h22.603a9.335 9.335 0 0 0 9.334-9.333v-338.05c0-47.711 16.39-86.55 44.29-113.76 27.9-27.21 67.595-42.982 115.4-42.982h9.83c47.802 0 87.5 15.772 115.4 42.982 27.9 27.21 44.29 66.048 44.29 113.76v338.05a9.335 9.335 0 0 0 9.333 9.333h22.602a9.335 9.335 0 0 0 9.333-9.333v-338.05c0-116.89-84.229-198.01-200.96-198.01zm711.507 0c-110.75 0-199.98 74.429-199.98 172.46a9.335 9.335 0 0 0 9.335 9.333h22.602a9.334 9.334 0 0 0 9.333-9.333c0-73.799 68.902-131.19 158.71-131.19 88.816 0 156.74 56.789 156.74 131.19v13.758c0 8.565-2.663 14.607-8.522 20.565-5.858 5.957-15.342 11.466-28.176 16.188-25.669 9.445-64.157 15.678-110.46 21.802-78.998 10.402-134 25.592-170.4 50.295-36.403 24.704-52.92 59.987-52.92 104.4 0 52.074 23.145 91.536 57.891 116.81 34.746 25.276 80.57 36.978 127.35 36.978 79.626 0 147.58-34.224 185.24-89.784v72.59a9.335 9.335 0 0 0 9.333 9.333h22.604a9.335 9.335 0 0 0 9.333-9.333v-363.6c0-98.892-88.262-172.46-198.01-172.46zm-3244.324 41.272c105.66 0 185.32 82.913 191.11 203.42h-385.7c11.507-122.01 88.445-203.42 194.59-203.42zm706.18 0c105.66 0 185.32 82.913 191.11 203.42h-385.7c11.506-122.01 88.442-203.42 194.59-203.42zm1319.287 0c105.66 0 185.32 82.913 191.11 203.42h-385.7c11.507-122.01 88.445-203.42 194.59-203.42zm1375.637 209.34v70.237c0 64.5-21.272 111.77-54.747 143.38-33.474 31.618-79.656 47.754-130.49 47.754-40.209 0-76.636-10.15-102.45-29.086-25.817-18.936-41.514-46.101-41.514-83.436 0-33.109 10.727-54.668 39.097-72.706 28.37-18.037 75.496-31.136 145.46-40.888 72.14-10.008 114.23-16.798 144.65-35.261zm-3073.137-456a9.334 9.334 0 0 0-9.333 9.335v633.91c0 33.613 9.213 60.986 27.914 79.688 18.701 18.702 39.3-18.912 29.106-29.105-10.193-10.193-15.753-26.24-15.753-50.583v-633.91a9.334 9.334 0 0 0-9.333-9.335zm-327.977 205.39c-69.68 0-129.55 29.5-171.42 78.908-41.865 49.407-65.903 118.45-65.903 197.72 0 79.274 24.039 148.32 65.903 197.72 41.865 49.407 101.74 78.906 171.42 78.906 105.18 0 199.16-67.201 224.28-170.25 1.432-5.878-3.02-11.545-9.07-11.545H753.93a9.334 9.334 0 0 0-9.027 6.962c-21.454 81.618-98.508 133.57-182.6 133.57-57.575 0-106.02-23.918-140.69-65.211-33.09-39.417-53.234-95.056-55.016-160.81h419.76a9.334 9.334 0 0 0 9.335-9.335v-11.79c0-74.426-23.342-140.53-64.354-188.2-41.012-47.667-99.876-76.644-169.04-76.644zm0 41.272c105.66 0 185.32 82.913 191.11 203.42h-385.7c11.507-122.01 88.445-203.42 194.59-203.42z" style="white-space:pre;paint-order:stroke fill markers" transform="translate(-325.03 -2917.9)"/></svg>