<?xml version="1.0" encoding="UTF-8" standalone="no"?>
<!-- Created with Inkscape (http://www.inkscape.org/) -->

<svg
   xmlns:dc="http://purl.org/dc/elements/1.1/"
   xmlns:cc="http://creativecommons.org/ns#"
   xmlns:rdf="http://www.w3.org/1999/02/22-rdf-syntax-ns#"
   xmlns:svg="http://www.w3.org/2000/svg"
   xmlns="http://www.w3.org/2000/svg"
   xmlns:xlink="http://www.w3.org/1999/xlink"
   xmlns:sodipodi="http://sodipodi.sourceforge.net/DTD/sodipodi-0.dtd"
   xmlns:inkscape="http://www.inkscape.org/namespaces/inkscape"
   version="1.1"
   width="24"
   height="24"
   id="svg3162"
   inkscape:version="0.48.5 r10040"
   sodipodi:docname="user-trash-full_.svg">
  <sodipodi:namedview
     pagecolor="#ffffff"
     bordercolor="#666666"
     borderopacity="1"
     objecttolerance="10"
     gridtolerance="10"
     guidetolerance="10"
     inkscape:pageopacity="0"
     inkscape:pageshadow="2"
     inkscape:window-width="1328"
     inkscape:window-height="722"
     id="namedview51"
     showgrid="true"
     borderlayer="true"
     showguides="true"
     inkscape:guide-bbox="true"
     inkscape:zoom="14.208427"
     inkscape:cx="8.98273"
     inkscape:cy="15.897346"
     inkscape:window-x="340"
     inkscape:window-y="142"
     inkscape:window-maximized="0"
     inkscape:current-layer="layer3">
    <inkscape:grid
       type="xygrid"
       id="grid3039"
       empspacing="5"
       visible="true"
       enabled="true"
       snapvisiblegridlinesonly="true" />
    <sodipodi:guide
       orientation="0,1"
       position="14,8"
       id="guide5059" />
  </sodipodi:namedview>
  <defs
     id="defs3164">
    <linearGradient
       id="linearGradient4238">
      <stop
         offset="0"
         style="stop-color:#8d909a;stop-opacity:1;"
         id="stop4240" />
      <stop
         id="stop3792"
         style="stop-color:#e5e5e5;stop-opacity:1;"
         offset="0.39999998" />
      <stop
         offset="1"
         style="stop-color:#8d909a;stop-opacity:1;"
         id="stop4242" />
    </linearGradient>
    <linearGradient
       inkscape:collect="always"
       xlink:href="#linearGradient4238"
       id="linearGradient4746"
       gradientUnits="userSpaceOnUse"
       gradientTransform="matrix(0.45754817,0,0,0.47298439,-1.837284,-3.6558699)"
       spreadMethod="reflect"
       x1="10.572186"
       y1="26.410894"
       x2="32.427807"
       y2="26.410894" />
    <linearGradient
       inkscape:collect="always"
       xlink:href="#linearGradient3205-2-2-1"
       id="linearGradient3286-0-8"
       gradientUnits="userSpaceOnUse"
       gradientTransform="matrix(0.33333342,0.01405066,0,0.30511322,-19.666669,0.88521945)"
       x1="24"
       y1="15.502284"
       x2="24"
       y2="45" />
    <linearGradient
       id="linearGradient3205-2-2-1">
      <stop
         id="stop3207-1-6-3"
         style="stop-color:#000000;stop-opacity:1"
         offset="0" />
      <stop
         id="stop3209-1-4-9"
         style="stop-color:#000000;stop-opacity:0"
         offset="1" />
    </linearGradient>
    <linearGradient
       inkscape:collect="always"
       xlink:href="#linearGradient3205-2-2-1"
       id="linearGradient4748-3-4"
       gradientUnits="userSpaceOnUse"
       gradientTransform="matrix(0.33333342,0.11166313,0,0.30309867,-20.000004,0.18933422)"
       x1="24"
       y1="13.506023"
       x2="24"
       y2="43" />
    <linearGradient
       inkscape:collect="always"
       xlink:href="#linearGradient3205-2-2-1"
       id="linearGradient3289-0-6"
       gradientUnits="userSpaceOnUse"
       gradientTransform="matrix(0.33333342,0.01405066,0,0.30511322,-20.333335,0.88521945)"
       x1="24"
       y1="15.502284"
       x2="24"
       y2="45" />
    <linearGradient
       y2="43"
       x2="24"
       y1="13.506023"
       x1="24"
       gradientTransform="matrix(0.33333337,0.11166313,0,0.30309867,-20,-0.0262891)"
       gradientUnits="userSpaceOnUse"
       id="linearGradient5141"
       xlink:href="#linearGradient3205-2-2-1"
       inkscape:collect="always" />
    <linearGradient
       y2="28.903023"
       x2="32.180862"
       y1="13.828948"
       x1="32.180862"
       gradientTransform="matrix(0.72972969,0,0,0.72972969,-14.514409,-6.081971)"
       gradientUnits="userSpaceOnUse"
       id="linearGradient5227-8"
       xlink:href="#linearGradient4404-56-1-1"
       inkscape:collect="always" />
    <linearGradient
       id="linearGradient4404-56-1-1">
      <stop
         id="stop4406-5-6-9"
         style="stop-color:#ffffff;stop-opacity:1"
         offset="0" />
      <stop
         id="stop4408-9-5-4"
         style="stop-color:#ffffff;stop-opacity:0.23529412"
         offset="0.09090912" />
      <stop
         id="stop4410-63-5-2"
         style="stop-color:#ffffff;stop-opacity:0.15686275"
         offset="0.81818187" />
      <stop
         id="stop4412-0-6-0"
         style="stop-color:#ffffff;stop-opacity:0.39215687"
         offset="1" />
    </linearGradient>
    <linearGradient
       id="linearGradient4404-5-5-1">
      <stop
         id="stop4406-9-1-0"
         style="stop-color:#ffffff;stop-opacity:1"
         offset="0" />
      <stop
         id="stop4408-7-4-4"
         style="stop-color:#ffffff;stop-opacity:0.23529412"
         offset="0.09090912" />
      <stop
         id="stop4410-6-4-0"
         style="stop-color:#ffffff;stop-opacity:0.15686275"
         offset="0.81818187" />
      <stop
         id="stop4412-1-5-5"
         style="stop-color:#ffffff;stop-opacity:0.39215687"
         offset="1" />
    </linearGradient>
    <linearGradient
       id="linearGradient4238-0">
      <stop
         offset="0"
         style="stop-color:#8d909a;stop-opacity:1"
         id="stop4240-2" />
      <stop
         offset="1"
         style="stop-color:#e5e5e5;stop-opacity:1"
         id="stop4242-27" />
    </linearGradient>
    <linearGradient
       gradientTransform="matrix(0.33333342,0.1736982,0,0.47148682,4.9999971,-1.549397)"
       gradientUnits="userSpaceOnUse"
       xlink:href="#linearGradient3205"
       id="linearGradient3784"
       y2="43"
       x2="24"
       y1="13.506023"
       x1="24" />
    <linearGradient
       gradientTransform="matrix(0.33333342,0.02185657,0,0.47462055,4.3333314,0.19323912)"
       gradientUnits="userSpaceOnUse"
       xlink:href="#linearGradient3205"
       id="linearGradient3782"
       y2="45"
       x2="24"
       y1="15.502284"
       x1="24" />
    <linearGradient
       gradientTransform="matrix(0.33333342,0.02185657,0,0.47462055,3.6666651,0.19323912)"
       gradientUnits="userSpaceOnUse"
       xlink:href="#linearGradient3205"
       id="linearGradient3780"
       y2="45"
       x2="24"
       y1="15.502284"
       x1="24" />
    <linearGradient
       gradientTransform="matrix(0.33333337,0.1736982,0,0.47148681,2.9999996,-1.6658484)"
       gradientUnits="userSpaceOnUse"
       xlink:href="#linearGradient3205"
       id="linearGradient3774"
       y2="43"
       x2="24"
       y1="13.506023"
       x1="24" />
    <radialGradient
       gradientTransform="matrix(0.1793903,0,0,0.1055236,0.7500004,7.60136)"
       gradientUnits="userSpaceOnUse"
       xlink:href="#linearGradient5060"
       id="radialGradient3768"
       fy="108.02493"
       fx="62.71241"
       r="47.38271"
       cy="108.02493"
       cx="62.71241" />
    <linearGradient
       gradientTransform="matrix(0.44828379,0,0,0.46753248,1.2413811,1.694805)"
       gradientUnits="userSpaceOnUse"
       xlink:href="#linearGradient3384"
       id="linearGradient3765"
       y2="5.5"
       x2="31.048019"
       y1="45"
       x1="31.048019" />
    <linearGradient
       spreadMethod="reflect"
       gradientTransform="matrix(0.54168272,0,0,0.7105927,0.35401329,-6.2790054)"
       gradientUnits="userSpaceOnUse"
       xlink:href="#linearGradient2793-2-0-403"
       id="linearGradient3763"
       y2="26.410894"
       x2="21.514704"
       y1="26.410894"
       x1="11.93083" />
    <radialGradient
       spreadMethod="pad"
       gradientTransform="matrix(0,0.80162884,-0.73763993,0,23.128021,-8.5267781)"
       gradientUnits="userSpaceOnUse"
       xlink:href="#linearGradient3254-8-457"
       id="radialGradient3760"
       fy="21.029308"
       fx="19.308081"
       r="14.500172"
       cy="21.029308"
       cx="19.308081" />
    <linearGradient
       gradientTransform="matrix(0.52030759,0,0,0.62575372,-0.48737134,-0.06739893)"
       gradientUnits="userSpaceOnUse"
       xlink:href="#linearGradient3355-273"
       id="linearGradient3757"
       y2="2.0968478"
       x2="23.999979"
       y1="9.3726854"
       x1="23.999979" />
    <linearGradient
       spreadMethod="reflect"
       gradientTransform="matrix(0.44859293,0,0,0.45534317,1.2337693,0.35725483)"
       gradientUnits="userSpaceOnUse"
       xlink:href="#linearGradient3320"
       id="linearGradient3755"
       y2="8"
       x2="24"
       y1="8"
       x1="9.0003471" />
    <radialGradient
       spreadMethod="pad"
       gradientTransform="matrix(-1.3732612e-8,0.27571553,-1.3532069,0,22.544185,-4.6171724)"
       gradientUnits="userSpaceOnUse"
       xlink:href="#linearGradient3627"
       id="radialGradient3752"
       fy="7.7919979"
       fx="24"
       r="14.507708"
       cy="7.7919979"
       cx="24" />
    <linearGradient
       gradientTransform="matrix(0.49817653,0,0,0.88028722,0.29284104,-13.271346)"
       gradientUnits="userSpaceOnUse"
       xlink:href="#linearGradient3254-8-457"
       id="linearGradient3749"
       y2="39.850574"
       x2="23.5"
       y1="10.996204"
       x1="23.5" />
    <linearGradient
       gradientTransform="matrix(0.40188699,0,0,0.65202925,3.3596038,-3.9023625)"
       gradientUnits="userSpaceOnUse"
       xlink:href="#linearGradient3254-3-182"
       id="linearGradient3746"
       y2="34.173542"
       x2="17.125"
       y1="20.230709"
       x1="12.25" />
    <linearGradient
       id="linearGradient3205">
      <stop
         offset="0"
         style="stop-color:#000000;stop-opacity:1"
         id="stop3207" />
      <stop
         offset="1"
         style="stop-color:#000000;stop-opacity:0"
         id="stop3209" />
    </linearGradient>
    <linearGradient
       id="linearGradient3254-3-182">
      <stop
         offset="0"
         style="stop-color:#ffffff;stop-opacity:1"
         id="stop4663" />
      <stop
         offset="1"
         style="stop-color:#ffffff;stop-opacity:0"
         id="stop4665" />
    </linearGradient>
    <linearGradient
       id="linearGradient3254-8-457">
      <stop
         offset="0"
         style="stop-color:#ffffff;stop-opacity:1"
         id="stop4669" />
      <stop
         offset="1"
         style="stop-color:#ffffff;stop-opacity:0"
         id="stop4671" />
    </linearGradient>
    <linearGradient
       id="linearGradient3627">
      <stop
         offset="0"
         style="stop-color:#000000;stop-opacity:0"
         id="stop3629" />
      <stop
         offset="0.5"
         style="stop-color:#000000;stop-opacity:0"
         id="stop3190" />
      <stop
         offset="1"
         style="stop-color:#000000;stop-opacity:1"
         id="stop3631" />
    </linearGradient>
    <linearGradient
       id="linearGradient3320">
      <stop
         offset="0"
         style="stop-color:#4e4e4e;stop-opacity:1"
         id="stop3323" />
      <stop
         offset="1"
         style="stop-color:#b9bac2;stop-opacity:1"
         id="stop3325" />
    </linearGradient>
    <linearGradient
       id="linearGradient3355-273">
      <stop
         offset="0"
         style="stop-color:#f0f0f0;stop-opacity:1"
         id="stop4657" />
      <stop
         offset="0.44955608"
         style="stop-color:#777779;stop-opacity:1"
         id="stop3619" />
      <stop
         offset="1"
         style="stop-color:#6c6c70;stop-opacity:1"
         id="stop4659" />
    </linearGradient>
    <linearGradient
       id="linearGradient2793-2-0-403">
      <stop
         offset="0"
         style="stop-color:#8d909a;stop-opacity:1"
         id="stop4645" />
      <stop
         offset="1"
         style="stop-color:#d9d9d9;stop-opacity:1"
         id="stop4647" />
    </linearGradient>
    <linearGradient
       id="linearGradient3384">
      <stop
         offset="0"
         style="stop-color:#6e6e6e;stop-opacity:1"
         id="stop3386" />
      <stop
         offset="1"
         style="stop-color:#9f9fa1;stop-opacity:1"
         id="stop3388" />
    </linearGradient>
    <linearGradient
       id="linearGradient5060">
      <stop
         offset="0"
         style="stop-color:#000000;stop-opacity:1"
         id="stop5062" />
      <stop
         offset="1"
         style="stop-color:#000000;stop-opacity:0"
         id="stop5064" />
    </linearGradient>
    <linearGradient
       inkscape:collect="always"
       xlink:href="#linearGradient3205"
       id="linearGradient3138"
       gradientUnits="userSpaceOnUse"
       gradientTransform="matrix(0.33333342,0.02029539,0,0.4407191,4.3333316,-6.2961247)"
       x1="24"
       y1="15.502284"
       x2="24"
       y2="45" />
    <linearGradient
       inkscape:collect="always"
       xlink:href="#linearGradient3205"
       id="linearGradient3141"
       gradientUnits="userSpaceOnUse"
       gradientTransform="matrix(0.33333342,0.02029539,0,0.4407191,3.6666653,-6.2961247)"
       x1="24"
       y1="15.502284"
       x2="24"
       y2="45" />
    <linearGradient
       inkscape:collect="always"
       xlink:href="#linearGradient3205"
       id="linearGradient3144"
       gradientUnits="userSpaceOnUse"
       gradientTransform="matrix(0.33333342,0.16129118,0,0.43780918,4.9999973,-8.0571429)"
       x1="24"
       y1="13.506023"
       x2="24"
       y2="43" />
    <linearGradient
       inkscape:collect="always"
       xlink:href="#linearGradient3205"
       id="linearGradient3147"
       gradientUnits="userSpaceOnUse"
       gradientTransform="matrix(0.33333337,0.16129118,0,0.43780917,2.9999998,-8.1652762)"
       x1="24"
       y1="13.506023"
       x2="24"
       y2="43" />
    <linearGradient
       inkscape:collect="always"
       xlink:href="#linearGradient3254-3-182"
       id="linearGradient3150"
       gradientUnits="userSpaceOnUse"
       gradientTransform="matrix(0.40188699,0,0,0.65202925,3.359604,-11.949352)"
       x1="12.25"
       y1="20.230709"
       x2="17.125"
       y2="34.173542" />
    <linearGradient
       inkscape:collect="always"
       xlink:href="#linearGradient4404-56-1-1"
       id="linearGradient3153"
       gradientUnits="userSpaceOnUse"
       gradientTransform="matrix(0.49817653,0,0,0.80862302,0.2928412,-18.487599)"
       x1="23.500021"
       y1="19.153051"
       x2="23.500021"
       y2="43.886456" />
    <linearGradient
       inkscape:collect="always"
       xlink:href="#linearGradient3320"
       id="linearGradient3159"
       gradientUnits="userSpaceOnUse"
       gradientTransform="matrix(0.44859293,0,0,0.05038478,-18.76623,-4.6806004)"
       spreadMethod="reflect"
       x1="9.0003471"
       y1="8"
       x2="24"
       y2="8" />
    <linearGradient
       inkscape:collect="always"
       xlink:href="#linearGradient3355-273"
       id="linearGradient3161"
       gradientUnits="userSpaceOnUse"
       gradientTransform="matrix(0.52030759,0,0,0.0692411,-20.487371,-4.7275893)"
       x1="23.999979"
       y1="9.3726854"
       x2="23.999979"
       y2="2.0968478" />
    <radialGradient
       inkscape:collect="always"
       xlink:href="#linearGradient3254-8-457"
       id="radialGradient3164"
       gradientUnits="userSpaceOnUse"
       gradientTransform="matrix(0,0.82667606,-0.72143311,0,23.02142,-17.535753)"
       spreadMethod="pad"
       cx="19.308081"
       cy="21.029308"
       fx="19.308081"
       fy="21.029308"
       r="14.500172" />
    <linearGradient
       inkscape:collect="always"
       xlink:href="#linearGradient2793-2-0-403"
       id="linearGradient3167"
       gradientUnits="userSpaceOnUse"
       gradientTransform="matrix(0.54168272,0,0,0.67111533,0.35401353,-12.72716)"
       spreadMethod="reflect"
       x1="11.93083"
       y1="26.410894"
       x2="21.514704"
       y2="26.410894" />
    <linearGradient
       inkscape:collect="always"
       xlink:href="#linearGradient3384"
       id="linearGradient3169"
       gradientUnits="userSpaceOnUse"
       gradientTransform="matrix(0.44828379,0,0,0.44155846,1.2413813,-5.1963399)"
       x1="31.048019"
       y1="45"
       x2="31.048019"
       y2="5.5" />
    <radialGradient
       inkscape:collect="always"
       xlink:href="#linearGradient5060"
       id="radialGradient3172"
       gradientUnits="userSpaceOnUse"
       gradientTransform="matrix(0.1793903,0,0,0.1055236,0.75000045,-0.445629)"
       cx="62.71241"
       cy="108.02493"
       fx="62.71241"
       fy="108.02493"
       r="47.38271" />
    <linearGradient
       inkscape:collect="always"
       xlink:href="#linearGradient4238-0"
       id="linearGradient3101"
       gradientUnits="userSpaceOnUse"
       gradientTransform="matrix(0.45754817,0,0,0.47298439,-1.837284,-3.6558699)"
       spreadMethod="reflect"
       x1="34.613369"
       y1="26.410894"
       x2="19.314434"
       y2="26.410894" />
    <linearGradient
       inkscape:collect="always"
       xlink:href="#linearGradient4404-5-5-1"
       id="linearGradient3103"
       gradientUnits="userSpaceOnUse"
       gradientTransform="matrix(0.72972969,0,0,0.72972969,3.516668,-7.0913942)"
       x1="32.180862"
       y1="13.828948"
       x2="32.180862"
       y2="28.903023" />
    <linearGradient
       x1="9.0003471"
       y1="8"
       x2="24"
       y2="8"
       id="linearGradient3755-6"
       xlink:href="#linearGradient3320-0"
       gradientUnits="userSpaceOnUse"
       gradientTransform="matrix(0.44859293,0,0,0.45534317,1.2337693,0.35725483)"
       spreadMethod="reflect" />
    <linearGradient
       id="linearGradient3320-0">
      <stop
         id="stop3323-5"
         style="stop-color:#4e4e4e;stop-opacity:1"
         offset="0" />
      <stop
         id="stop3325-1"
         style="stop-color:#b9bac2;stop-opacity:1"
         offset="1" />
    </linearGradient>
    <linearGradient
       x1="23.999979"
       y1="9.3726854"
       x2="23.999979"
       y2="2.0968478"
       id="linearGradient3757-0"
       xlink:href="#linearGradient3355-273-3"
       gradientUnits="userSpaceOnUse"
       gradientTransform="matrix(0.52030759,0,0,0.62575372,-0.48737134,-0.06739893)" />
    <linearGradient
       id="linearGradient3355-273-3">
      <stop
         id="stop4657-8"
         style="stop-color:#f0f0f0;stop-opacity:1"
         offset="0" />
      <stop
         id="stop3619-2"
         style="stop-color:#777779;stop-opacity:1"
         offset="0.44955608" />
      <stop
         id="stop4659-7"
         style="stop-color:#6c6c70;stop-opacity:1"
         offset="1" />
    </linearGradient>
    <linearGradient
       y2="8"
       x2="24"
       y1="8"
       x1="9.0003471"
       spreadMethod="reflect"
       gradientTransform="matrix(0.44859293,0,0,0.36456705,1.233768,-5.4165362)"
       gradientUnits="userSpaceOnUse"
       id="linearGradient3054"
       xlink:href="#linearGradient3320-0"
       inkscape:collect="always" />
    <linearGradient
       y2="2.0968478"
       x2="23.999979"
       y1="9.3726854"
       x1="23.999979"
       gradientTransform="matrix(0.52030759,0,0,0.62575372,-0.487372,-6.559344)"
       gradientUnits="userSpaceOnUse"
       id="linearGradient3056"
       xlink:href="#linearGradient3355-273-3"
       inkscape:collect="always" />
    <linearGradient
       x1="24"
       y1="-5"
       x2="8.1476"
       gradientUnits="userSpaceOnUse"
       xlink:href="#linearGradient5196"
       y2="9.8003"
       id="linearGradient3656" />
    <linearGradient
       x1="23"
       y1="-1"
       x2="7"
       gradientUnits="userSpaceOnUse"
       xlink:href="#linearGradient5196"
       y2="19"
       id="linearGradient3654" />
    <linearGradient
       x1="6.6751"
       y1="15.37"
       x2="15"
       gradientUnits="userSpaceOnUse"
       xlink:href="#linearGradient5196"
       y2="21"
       id="linearGradient3652" />
    <linearGradient
       x1="302.86"
       y1="366.65"
       gradientTransform="matrix(0.032794,0,0,0.043235,0.14744,-2.3521)"
       x2="302.86"
       gradientUnits="userSpaceOnUse"
       y2="609.51"
       id="linearGradient3204">
      <stop
         offset="0"
         style="stop-opacity:0"
         id="stop5050" />
      <stop
         offset=".5"
         id="stop5056" />
      <stop
         offset="1"
         style="stop-opacity:0"
         id="stop5052" />
    </linearGradient>
    <radialGradient
       r="117.14"
       gradientTransform="matrix(0.032794,0,0,0.043235,0.15389,-2.3521)"
       cx="605.71"
       cy="486.65"
       gradientUnits="userSpaceOnUse"
       xlink:href="#linearGradient5060-2"
       id="radialGradient3201" />
    <radialGradient
       r="117.14"
       gradientTransform="matrix(-0.032794,0,0,0.043235,23.846,-2.3521)"
       cx="605.71"
       cy="486.65"
       gradientUnits="userSpaceOnUse"
       xlink:href="#linearGradient5060-2"
       id="radialGradient3198" />
    <radialGradient
       r="22.597"
       gradientTransform="matrix(0,-0.66819,0.66035,0,2.2925,30.232)"
       cx="20.09"
       cy="10.854"
       gradientUnits="userSpaceOnUse"
       xlink:href="#linearGradient5196"
       id="radialGradient3189" />
    <radialGradient
       r="22.597"
       gradientTransform="matrix(0,-0.79711,0.78775,0,0.90441,34.371)"
       cx="23.688"
       cy="14.211"
       gradientUnits="userSpaceOnUse"
       xlink:href="#linearGradient5188"
       id="radialGradient3187" />
    <linearGradient
       x1="22.009"
       y1="36.51"
       gradientTransform="matrix(0,-0.37324,0.37324,0,6.7527,24.33)"
       x2="23.585"
       gradientUnits="userSpaceOnUse"
       xlink:href="#linearGradient5162"
       y2="14.412"
       id="linearGradient3184" />
    <linearGradient
       x1="24.366"
       y1="20.246"
       gradientTransform="matrix(0,-0.37324,0.37324,0,6.7527,24.33)"
       x2="32.601"
       gradientUnits="userSpaceOnUse"
       xlink:href="#linearGradient5162"
       y2="28.555"
       id="linearGradient3181" />
    <linearGradient
       x1="25.633"
       y1="10.612"
       gradientTransform="matrix(0,-0.37324,0.37324,0,6.7527,24.33)"
       x2="38.714"
       gradientUnits="userSpaceOnUse"
       xlink:href="#linearGradient5060-2"
       y2="18.39"
       id="linearGradient3177" />
    <radialGradient
       r="22.597"
       gradientTransform="matrix(-0.79711,0,0,0.78775,34.516,3.0528)"
       cx="23.688"
       cy="14.211"
       gradientUnits="userSpaceOnUse"
       xlink:href="#linearGradient5188"
       id="radialGradient3160" />
    <linearGradient
       x1="24.366"
       y1="20.246"
       gradientTransform="matrix(-0.37324,0,0,0.37324,24.476,8.9011)"
       x2="32.601"
       gradientUnits="userSpaceOnUse"
       xlink:href="#linearGradient5162"
       y2="28.555"
       id="linearGradient3154" />
    <linearGradient
       x1="25.633"
       y1="10.612"
       gradientTransform="matrix(-0.37324,0,0,0.37324,24.476,8.9011)"
       x2="38.714"
       gradientUnits="userSpaceOnUse"
       xlink:href="#linearGradient5060-2"
       y2="18.39"
       id="linearGradient3150-7" />
    <radialGradient
       r="22.597"
       gradientTransform="matrix(0,0.79711,0.78775,0,-3.0469,-9.0817)"
       cx="23.688"
       cy="14.211"
       gradientUnits="userSpaceOnUse"
       xlink:href="#linearGradient5188"
       id="radialGradient3133" />
    <linearGradient
       x1="24.366"
       y1="20.246"
       gradientTransform="matrix(0,0.37324,0.37324,0,2.8014,0.95904)"
       x2="32.601"
       gradientUnits="userSpaceOnUse"
       xlink:href="#linearGradient5162"
       y2="28.555"
       id="linearGradient3127" />
    <radialGradient
       r="22.597"
       gradientTransform="matrix(0.7551,0,0,0.78859,-10.122,0.15686)"
       cx="23.688"
       cy="14.211"
       gradientUnits="userSpaceOnUse"
       xlink:href="#linearGradient5188"
       id="radialGradient3106" />
    <linearGradient
       x1="22.009"
       y1="36.51"
       gradientTransform="matrix(0.37324,0,0,0.37324,9.9283,-1.746)"
       x2="23.585"
       gradientUnits="userSpaceOnUse"
       xlink:href="#linearGradient5162"
       y2="14.412"
       id="linearGradient3103-0" />
    <linearGradient
       x1="24.366"
       y1="20.246"
       gradientTransform="matrix(0.37324,0,0,0.37324,-1.5423,6.0187)"
       x2="32.601"
       gradientUnits="userSpaceOnUse"
       xlink:href="#linearGradient5162"
       y2="28.555"
       id="linearGradient3100" />
    <linearGradient
       x1="25.633"
       y1="10.612"
       gradientTransform="matrix(0.37324,0,0,0.37324,-1.5423,6.0187)"
       x2="38.714"
       gradientUnits="userSpaceOnUse"
       xlink:href="#linearGradient5060-2"
       y2="18.39"
       id="linearGradient3096" />
    <linearGradient
       id="linearGradient5188">
      <stop
         offset="0"
         style="stop-color:#fff"
         id="stop5190" />
      <stop
         offset="1"
         style="stop-color:#aeaea3"
         id="stop5192" />
    </linearGradient>
    <linearGradient
       id="linearGradient5196">
      <stop
         offset="0"
         style="stop-color:#dfe2dc"
         id="stop5198" />
      <stop
         offset="1"
         style="stop-color:#67715d"
         id="stop5200" />
    </linearGradient>
    <linearGradient
       id="linearGradient5162">
      <stop
         offset="0"
         style="stop-color:#babdb6"
         id="stop5164" />
      <stop
         offset="1"
         style="stop-color:#fff"
         id="stop5166" />
    </linearGradient>
    <linearGradient
       id="linearGradient5060-2">
      <stop
         offset="0"
         id="stop5062-7" />
      <stop
         offset="1"
         style="stop-opacity:0"
         id="stop5064-0" />
    </linearGradient>
    <linearGradient
       inkscape:collect="always"
       xlink:href="#linearGradient3355-273-3"
       id="linearGradient4153"
       gradientUnits="userSpaceOnUse"
       gradientTransform="matrix(0.52030759,0,0,0.50100497,-0.487372,-5.7565322)"
       x1="22.078041"
       y1="10.482309"
       x2="22.078041"
       y2="2.4919453" />
    <linearGradient
       inkscape:collect="always"
       xlink:href="#linearGradient4017-8"
       id="linearGradient3038"
       gradientUnits="userSpaceOnUse"
       gradientTransform="matrix(0.33791226,0,0,0.18947429,6.6747859,-6.6844898)"
       x1="20.153708"
       y1="3.0216999"
       x2="20.153708"
       y2="26.666777" />
    <linearGradient
       id="linearGradient4017-8">
      <stop
         id="stop4019-8"
         style="stop-color:#ffffff;stop-opacity:1"
         offset="0" />
      <stop
         id="stop4021-9"
         style="stop-color:#ffffff;stop-opacity:0.23529412"
         offset="0.49550432" />
      <stop
         id="stop4023-0"
         style="stop-color:#ffffff;stop-opacity:0.15686275"
         offset="0.88038814" />
      <stop
         id="stop4025-2"
         style="stop-color:#ffffff;stop-opacity:0.39215687"
         offset="1" />
    </linearGradient>
  </defs>
  <metadata
     id="metadata3167">
    <rdf:RDF>
      <cc:Work
         rdf:about="">
        <dc:format>image/svg+xml</dc:format>
        <dc:type
           rdf:resource="http://purl.org/dc/dcmitype/StillImage" />
        <dc:title />
      </cc:Work>
    </rdf:RDF>
  </metadata>
  <g
     inkscape:groupmode="layer"
     id="layer2"
     inkscape:label="Layer"
     style="display:inline"
     transform="translate(0,8)" />
  <g
     inkscape:groupmode="layer"
     id="layer3"
     inkscape:label="Layer#1"
     transform="translate(0,8)">
    <path
       inkscape:connector-curvature="0"
       d="m 20.5,10.953561 c -5.18e-4,2.76121 -3.805946,4.99945 -8.5,4.99945 -4.6940544,0 -8.499482,-2.23824 -8.4999999,-4.99945 C 3.4994823,8.191922 7.3052136,5.953011 12,5.953011 c 4.694786,0 8.500518,2.238911 8.5,5.00055 z"
       id="path12941"
       style="fill:url(#radialGradient3172);fill-opacity:1;fill-rule:evenodd;stroke:none;stroke-width:1.05496335;marker:none;visibility:visible;display:inline;overflow:visible" />
    <path
       inkscape:connector-curvature="0"
       d="m 5.5000001,-1.5 0,14.027278 c 0,0.553445 1.975932,1.925733 6.5001929,1.925733 4.52426,0 6.50019,-1.372288 6.50019,-1.925733 l 0,-14.027278 z"
       id="path2230"
       style="fill:url(#linearGradient3167);fill-opacity:1;fill-rule:nonzero;stroke:url(#linearGradient3169);stroke-width:0.99999982;stroke-opacity:1;marker:none;visibility:visible;display:inline;overflow:visible"
       sodipodi:nodetypes="cssscc" />
    <path
       inkscape:connector-curvature="0"
       d="m 6,-4 0,15.260654 c 0,1.389214 2.7498611,2.953676 6.138082,2.953675 3.388222,0 6.138082,-1.564461 6.138082,-2.953675 L 18.276164,-4 C 18.276164,-4 6,-4 6,-4 z"
       id="path3212"
       style="opacity:0.4;fill:url(#radialGradient3164);fill-opacity:1;fill-rule:nonzero;stroke:none;stroke-width:0.99999994;marker:none;visibility:visible;display:inline;overflow:visible" />
    <path
       inkscape:connector-curvature="0"
       d="m 6.5000001,-2.5 0,14.5 c 0,0 0.4999799,1.435416 5.4999899,1.453011 C 17,13.470606 17.5,12 17.5,12 l 0,-14.5 z"
       id="path2206"
       style="opacity:0.8;fill:none;stroke:url(#linearGradient3153);stroke-width:0.99999964;stroke-linecap:round;stroke-linejoin:round;stroke-miterlimit:4;stroke-opacity:1;stroke-dasharray:none;stroke-dashoffset:0;marker:none;visibility:visible;display:inline;overflow:visible"
       sodipodi:nodetypes="cczccc" />
    <path
       inkscape:connector-curvature="0"
       d="m 8.5841351,-1.9314525 2.0094339,0.4145704 0,15.8524641 -2.0094339,-0.529775 0,-15.7372595 0,0 z"
       id="rect3244"
       style="opacity:0.2;fill:url(#linearGradient3150);fill-opacity:1;fill-rule:nonzero;stroke:none;stroke-width:1;marker:none;visibility:visible;display:inline;overflow:visible" />
    <path
       inkscape:connector-curvature="0"
       d="m 7.5000002,-0.07478452 c 0.277,0.13403311 0.5,0.53483109 0.5,0.89865057 l 0,11.59930595 c 0,0.36382 -0.223,0.548811 -0.5,0.414778 -0.277,-0.134034 -0.5,-0.534833 -0.5,-0.898652 l 0,-11.5993056 c 0,-0.36381947 0.223,-0.54881012 0.5,-0.41477692 z"
       id="path3772"
       style="opacity:0.15;fill:url(#linearGradient3147);fill-opacity:1;fill-rule:nonzero;stroke:none;stroke-width:0.99992186;marker:none;visibility:visible;display:inline;overflow:visible;enable-background:accumulate" />
    <path
       inkscape:connector-curvature="0"
       d="M 16.499999,-0.07478458 C 16.222999,0.05924847 16,0.46004663 16,0.82386592 L 16,12.423172 c 0,0.363819 0.222999,0.548812 0.499999,0.414777 C 16.776999,12.703916 17,12.303117 17,11.939298 L 17,0.33999228 c 0,-0.36381947 -0.223001,-0.54881006 -0.500001,-0.41477686 z"
       id="path3287"
       style="opacity:0.15;fill:url(#linearGradient3144);fill-opacity:1;fill-rule:nonzero;stroke:none;stroke-width:0.99992186;marker:none;visibility:visible;display:inline;overflow:visible;enable-background:accumulate" />
    <path
       inkscape:connector-curvature="0"
       d="M 10.5,0.95373147 C 10.777,0.97059803 11,1.2790156 11,1.6452532 l 0,11.6764028 c 0,0.366237 -0.223,0.647501 -0.5,0.630634 C 10.223,13.935428 10,13.627006 10,13.260769 L 10,1.584367 c 0,-0.3662375 0.223,-0.64750089 0.5,-0.63063553 z"
       id="path3778"
       style="opacity:0.3;fill:url(#linearGradient3141);fill-opacity:1;fill-rule:nonzero;stroke:none;stroke-width:0.99992186;marker:none;visibility:visible;display:inline;overflow:visible;enable-background:accumulate" />
    <path
       inkscape:connector-curvature="0"
       d="M 13.5,0.95373147 C 13.222999,0.97059803 13,1.2790156 13,1.6452532 l 0,11.6764028 c 0,0.366237 0.222999,0.647501 0.5,0.630634 0.277,-0.01686 0.5,-0.325284 0.5,-0.691521 L 14,1.584367 C 14,1.2181295 13.777,0.93686611 13.5,0.95373147 z"
       id="path3293"
       style="opacity:0.3;fill:url(#linearGradient3138);fill-opacity:1;fill-rule:nonzero;stroke:none;stroke-width:0.99992186;marker:none;visibility:visible;display:inline;overflow:visible;enable-background:accumulate" />
    <path
       inkscape:connector-curvature="0"
       d="m 18.508054,-2.5000001 c 0,1.1090185 -2.913757,2.0080554 -6.508054,2.0080554 -3.594301,0 -6.508056,-0.8990369 -6.508056,-2.0080554 0,-1.1090186 2.913755,-2.0080552 6.508056,-2.0080552 3.594297,0 6.508054,0.8990366 6.508054,2.0080552 l 0,0 z"
       id="path3164"
       style="fill:url(#linearGradient3054);fill-opacity:1;fill-rule:nonzero;stroke:url(#linearGradient4153);stroke-width:0.9838894;stroke-linecap:round;stroke-linejoin:round;stroke-miterlimit:4;stroke-opacity:1;stroke-dasharray:none;stroke-dashoffset:0;marker:none;visibility:visible;display:inline;overflow:visible" />
    <g
       id="g3094"
       transform="matrix(0,1,-1,0,17,-6)">
      <path
         transform="matrix(1.1606218,0,0,0.98765432,2.7150258,-6.4506173)"
         d="m 8,1.46875 c -1.7572026,0 -3.3544793,0.2196475 -4.46875,0.5625 -0.5571353,0.1714263 -0.9846671,0.3694792 -1.25,0.5625 C 2.0159171,2.7867708 1.96875,2.9230812 1.96875,3 l 0,2 c 0,0.076919 0.047167,0.2132292 0.3125,0.40625 0.2653329,0.1930208 0.6928647,0.3910737 1.25,0.5625 1.1142707,0.3428525 2.7115474,0.5625 4.46875,0.5625 1.7572027,0 3.354479,-0.2196475 4.46875,-0.5625 0.557135,-0.1714263 0.984667,-0.3694792 1.25,-0.5625 C 13.984083,5.2132292 14.03125,5.0769189 14.03125,5 l 0,-2 c 0,-0.076919 -0.04717,-0.2132292 -0.3125,-0.40625 -0.265333,-0.1930208 -0.692865,-0.3910737 -1.25,-0.5625 C 11.354479,1.6883975 9.7572027,1.46875 8,1.46875 z"
         id="path5418"
         style="color:#000000;fill:url(#linearGradient3101);fill-opacity:1;fill-rule:nonzero;stroke:none;stroke-width:1.03944016;marker:none;visibility:visible;display:inline;overflow:visible;enable-background:accumulate"
         inkscape:original="M 8 1 C 4.4101492 1 1.5 1.8954305 1.5 3 L 1.5 5 C 1.5 6.1045695 4.4101492 7 8 7 C 11.589851 7 14.5 6.1045695 14.5 5 L 14.5 3 C 14.5 1.8954305 11.589851 1 8 1 z "
         inkscape:radius="-0.45370093"
         sodipodi:type="inkscape:offset" />
      <path
         transform="matrix(0.92857143,0,0,-0.42857144,-12.142857,-1.5)"
         d="M 33,3.5 C 33,5.4329966 29.865993,7 26,7 22.134007,7 19,5.4329966 19,3.5 19,1.5670034 22.134007,0 26,0 c 3.865993,0 7,1.5670034 7,3.5 z"
         sodipodi:ry="3.5"
         sodipodi:rx="7"
         sodipodi:cy="3.5"
         sodipodi:cx="26"
         id="path4564-1-6"
         style="opacity:0.7;color:#000000;fill:none;stroke:url(#linearGradient3103);stroke-width:1.58518767;stroke-linecap:round;stroke-linejoin:round;stroke-miterlimit:4;stroke-opacity:1;stroke-dasharray:none;stroke-dashoffset:0;marker:none;visibility:visible;display:inline;overflow:visible;enable-background:accumulate"
         sodipodi:type="arc" />
      <path
         sodipodi:nodetypes="sccsccs"
         inkscape:connector-curvature="0"
         id="path5019-9"
         d="m 12,-5.5000003 c -4.1421356,0 -7.5,0.8954305 -7.5,1.9999997 l 0,2.0000007 C 4.5,-0.3954306 7.8578644,0.5 12,0.5 c 4.142135,0 7.5,-0.8954306 7.5,-1.9999999 l 0,-2.0000007 c 0,-1.1045692 -3.357865,-1.9999997 -7.5,-1.9999997 z"
         style="opacity:0.5;color:#000000;fill:none;stroke:#161b28;stroke-width:1;stroke-linecap:butt;stroke-linejoin:miter;stroke-miterlimit:4;stroke-opacity:1;stroke-dasharray:none;stroke-dashoffset:0;marker:none;visibility:visible;display:inline;overflow:visible;enable-background:accumulate" />
      <path
         id="rect4605-2-4-3"
         d="m 10,-5.5 c -0.277,0 -0.5,0.223 -0.5,0.5 l 0,2 c 0,0.277 0.223,0.5 0.5,0.5 l 2,0 c -0.277,0 -0.5,-0.223 -0.5,-0.5 0,-0.277 0.223,-0.5 0.5,-0.5 0.277,0 0.5,0.223 0.5,0.5 0,0.277 -0.223,0.5 -0.5,0.5 l 2,0 c 0.277,0 0.5,-0.223 0.5,-0.5 l 0,-2 c 0,-0.277 -0.223,-0.5 -0.5,-0.5 l -4,0 z"
         style="color:#000000;fill:#dcdcdd;fill-opacity:1;fill-rule:nonzero;stroke:none;stroke-width:1.01884639;marker:none;visibility:visible;display:inline;overflow:visible;enable-background:accumulate"
         inkscape:connector-curvature="0" />
      <path
         sodipodi:nodetypes="sssscssscsssss"
         inkscape:connector-curvature="0"
         id="rect4605-3-9"
         d="m 10,-5.5 c -0.277,0 -0.5,0.223 -0.5,0.5 l 0,2 c 0,0.277 0.223,0.5 0.5,0.5 l 2,0 c -0.277,0 -0.5,-0.223 -0.5,-0.5 0,-0.50095 -9.51e-4,-0.5 0.5,-0.5 0.476067,0 0.5,0.02393 0.5,0.5 0,0.277 -0.223,0.5 -0.5,0.5 l 2,0 c 0.277,0 0.5,-0.223 0.5,-0.5 l 0,-2 c 0,-0.277 -0.223,-0.5 -0.5,-0.5 z"
         style="opacity:0.4;color:#000000;fill:none;stroke:#161b28;stroke-width:1;stroke-linecap:butt;stroke-linejoin:miter;stroke-miterlimit:4;stroke-opacity:1;stroke-dasharray:none;stroke-dashoffset:0;marker:none;visibility:visible;display:inline;overflow:visible;enable-background:accumulate" />
    </g>
    <path
       inkscape:connector-curvature="0"
       style="color:#000000;fill:#e7f0f4;fill-opacity:1;fill-rule:nonzero;stroke:none;stroke-width:1;marker:none;visibility:visible;display:inline;overflow:visible;enable-background:accumulate"
       id="rect4519"
       d="m 13.001547,-6.1144308 c -0.992257,0 -1.851589,0.3264022 -2.277537,0.8001463 -0.276072,-0.1007595 -0.602883,-0.1600269 -0.954198,-0.1600269 -0.9847354,0 -1.7830237,0.4585348 -1.7830237,1.0241845 0,0.089935 0.024765,0.176935 0.062681,0.2600412 -0.7112115,0.27554 -1.1770796,0.7442973 -1.1770796,1.2762276 0,0.851097 1.1928446,1.5362838 2.6745374,1.5362838 l 5.1262059,0 c 1.481695,0 2.674536,-0.6851868 2.674536,-1.5362838 0,-0.679635 -0.763835,-1.2526329 -1.824819,-1.4562623 0.02879,-0.08833 0.04179,-0.1789103 0.04179,-0.2720402 0,-0.8131186 -1.147533,-1.4722702 -2.563095,-1.4722702 z" />
    <path
       inkscape:connector-curvature="0"
       style="opacity:0.8;color:#000000;fill:none;stroke:url(#linearGradient3038);stroke-width:1.00000012;stroke-linecap:round;stroke-linejoin:round;stroke-miterlimit:4;stroke-opacity:1;stroke-dasharray:none;stroke-dashoffset:0;marker:none;visibility:visible;display:inline;overflow:visible;enable-background:accumulate"
       id="path5952"
       d="m 12.984248,-5.0347229 c -0.649425,0 -1.1446,0.2623898 -1.235368,0.3633435 a 0.9810862,0.9810862 0 0 1 -0.83569,0.2906748 0.9810862,0.9810862 0 0 1 -0.726687,0.036334 c -0.149562,-0.054589 -0.3009462,-0.072669 -0.4360124,-0.072669 -0.1960764,0 -0.3333435,0.032497 -0.4360122,0.072669 a 0.9810862,0.9810862 0 0 1 -0.2180061,0.5813496 0.9810862,0.9810862 0 0 1 -0.036334,0.072669 0.9810862,0.9810862 0 0 1 -0.036334,0.036334 0.9810862,0.9810862 0 0 1 0,0.036334 0.9810862,0.9810862 0 0 1 -0.4723466,0.3996779 C 8.1574421,-3.0653564 8.1517798,-2.9156264 8.1517798,-3 c 0,-0.088063 -0.060007,-0.027579 0.1816718,0.1090031 0.2416751,0.1365811 0.7008077,0.2543405 1.1990336,0.2543405 l 5.1231438,0 c 0.498224,0 0.933166,-0.1218125 1.1627,-0.2543405 C 16.047862,-3.0235249 16,-3.0722513 16,-3 c 0,0.068623 0.05016,0.0591 -0.07267,-0.036334 -0.122829,-0.095434 -0.387482,-0.1892375 -0.726688,-0.2543405 l 0.181672,-0.9810275 0.03634,-0.1453374 -0.03634,0 -0.07267,0.109003 0.03633,-0.109003 -0.07267,0 -0.07267,0.036334 0.03633,-0.072669 0.03633,0 0,-0.036334 -0.109003,0 -0.83569,-0.2543405 -0.109003,-0.036334 c -0.02244,0.068878 0,0.027661 0,0.036334 0,0.098004 0.06665,0.084738 -0.145337,-0.036334 -0.211985,-0.1210742 -0.625647,-0.2543404 -1.090031,-0.2543404 z" />
    <path
       inkscape:connector-curvature="0"
       style="opacity:0.4;color:#000000;fill:none;stroke:#25323f;stroke-width:1.00000012;stroke-linecap:round;stroke-linejoin:round;stroke-miterlimit:4;stroke-opacity:1;stroke-dasharray:none;stroke-dashoffset:0;marker:none;visibility:visible;display:inline;overflow:visible;enable-background:accumulate"
       id="path5956"
       d="m 11.494539,-5.469469 c 0.694366,0.3408744 0.797683,2.2831508 0.797683,2.2831508 m 0.680673,-2.9384249 c -0.992255,0 -1.851587,0.3204714 -2.277537,0.7856092 -0.276072,-0.098934 -0.60288,-0.157119 -0.9541957,-0.157119 -0.9847366,0 -1.7830285,0.4502041 -1.7830285,1.0055767 0,0.088295 0.024765,0.1737213 0.062681,0.2553183 -0.7112058,0.2705311 -1.1770726,0.7307728 -1.1770726,1.2530411 0,0.8356354 1.1928423,1.5083708 2.6745386,1.5083708 l 5.1262042,0 c 1.481694,0 2.674537,-0.6727354 2.674537,-1.5083708 0,-0.6672883 -0.763837,-1.2298754 -1.824817,-1.4298051 0.02879,-0.086726 0.04179,-0.1756606 0.04179,-0.2670976 0,-0.7983454 -1.147536,-1.4455236 -2.563098,-1.4455236 z" />
  </g>
</svg>
