<svg xmlns="http://www.w3.org/2000/svg" width="360" height="360"><defs><filter style="color-interpolation-filters:sRGB" id="b" x="-.012" width="1.024" y="-.012" height="1.024"><feGaussianBlur stdDeviation="1.339"/></filter><filter style="color-interpolation-filters:sRGB" id="a" x="-.06" width="1.12" y="-.06" height="1.12"><feGaussianBlur stdDeviation="6.696"/></filter></defs><path transform="translate(0 6)" style="fill:#000;opacity:.1;filter:url(#a)" d="M180 46.086c-73.958 0-133.914 59.956-133.914 133.914 0 73.958 59.956 133.914 133.914 133.914 73.958 0 133.914-59.956 133.914-133.914 0-73.958-59.956-133.914-133.914-133.914Zm.047 11.125-.047.03c56.224 0 103.63 37.78 118.16 89.337-12.482 25.826-30.323 49.07-51.988 67.875-10.426 9.02-21.808 17.066-34.377 22.729-12.569 5.662-26.4 8.876-40.174 8.091-10.33-.602-20.566-3.482-29.596-8.513 24.01-13.009 45.655-30.341 63.38-51.098 11.669-13.63 21.808-29.126 25.73-46.611 1.99-8.743 2.296-17.887.478-26.668-1.817-8.781-5.873-17.122-12.013-23.664-5.998-6.37-13.869-10.904-22.305-13.219-8.417-2.324-17.409-2.506-26.018-.938-17.217 3.157-32.619 13.163-44.93 25.588-21.741 21.905-35.18 52.819-32.712 83.58 1.243 15.381 6.39 30.494 15.209 43.14a80.903 80.903 0 0 0 6.467 8.064 199.884 199.884 0 0 1-39.696 9.535c-11.602-18.748-18.308-40.843-18.308-64.498 0-67.818 54.941-122.76 122.74-122.76zm.728 24.764-.01.039c8.647 0 17.332 2.62 24.22 7.843 6.197 4.687 10.807 11.326 13.39 18.653 2.611 7.327 3.282 15.275 2.392 23.004-1.77 15.448-9.566 29.614-18.978 41.992-16.672 21.904-38.835 39.437-63.475 51.719a207.147 207.147 0 0 1-7.652 3.595c-5.357-4.687-9.947-10.233-13.467-16.45-7.317-12.971-9.728-28.362-8.322-43.179 1.435-14.826 6.504-29.097 13.344-42.326 7.92-15.333 18.719-29.843 33.832-38.193 7.556-4.18 16.098-6.697 24.726-6.697zm120.881 81.617a124.08 124.08 0 0 1 1.094 16.369c0 67.798-54.922 122.762-122.72 122.762-38.07 0-72.124-17.334-94.602-44.547 13.888-3.157 27.472-7.7 40.5-13.467 5.71 4.323 11.995 7.882 18.691 10.445 19.255 7.385 41.13 6.312 60.623-.431 19.485-6.753 36.779-18.843 51.844-32.952a223.06 223.06 0 0 0 44.57-58.18z"/><path transform="translate(0 2)" style="fill:#000;opacity:.3;filter:url(#b)" d="M180 46.086c-73.958 0-133.914 59.956-133.914 133.914 0 73.958 59.956 133.914 133.914 133.914 73.958 0 133.914-59.956 133.914-133.914 0-73.958-59.956-133.914-133.914-133.914Zm.047 11.125-.047.03c56.224 0 103.63 37.78 118.16 89.337-12.482 25.826-30.323 49.07-51.988 67.875-10.426 9.02-21.808 17.066-34.377 22.729-12.569 5.662-26.4 8.876-40.174 8.091-10.33-.602-20.566-3.482-29.596-8.513 24.01-13.009 45.655-30.341 63.38-51.098 11.669-13.63 21.808-29.126 25.73-46.611 1.99-8.743 2.296-17.887.478-26.668-1.817-8.781-5.873-17.122-12.013-23.664-5.998-6.37-13.869-10.904-22.305-13.219-8.417-2.324-17.409-2.506-26.018-.938-17.217 3.157-32.619 13.163-44.93 25.588-21.741 21.905-35.18 52.819-32.712 83.58 1.243 15.381 6.39 30.494 15.209 43.14a80.903 80.903 0 0 0 6.467 8.064 199.884 199.884 0 0 1-39.696 9.535c-11.602-18.748-18.308-40.843-18.308-64.498 0-67.818 54.941-122.76 122.74-122.76zm.728 24.764-.01.039c8.647 0 17.332 2.62 24.22 7.843 6.197 4.687 10.807 11.326 13.39 18.653 2.611 7.327 3.282 15.275 2.392 23.004-1.77 15.448-9.566 29.614-18.978 41.992-16.672 21.904-38.835 39.437-63.475 51.719a207.147 207.147 0 0 1-7.652 3.595c-5.357-4.687-9.947-10.233-13.467-16.45-7.317-12.971-9.728-28.362-8.322-43.179 1.435-14.826 6.504-29.097 13.344-42.326 7.92-15.333 18.719-29.843 33.832-38.193 7.556-4.18 16.098-6.697 24.726-6.697zm120.881 81.617a124.08 124.08 0 0 1 1.094 16.369c0 67.798-54.922 122.762-122.72 122.762-38.07 0-72.124-17.334-94.602-44.547 13.888-3.157 27.472-7.7 40.5-13.467 5.71 4.323 11.995 7.882 18.691 10.445 19.255 7.385 41.13 6.312 60.623-.431 19.485-6.753 36.779-18.843 51.844-32.952a223.06 223.06 0 0 0 44.57-58.18z"/><path style="fill:#fff" d="M180 46.086c-73.958 0-133.914 59.956-133.914 133.914 0 73.958 59.956 133.914 133.914 133.914 73.958 0 133.914-59.956 133.914-133.914 0-73.958-59.956-133.914-133.914-133.914Zm.047 11.125-.047.03c56.224 0 103.63 37.78 118.16 89.337-12.482 25.826-30.323 49.07-51.988 67.875-10.426 9.02-21.808 17.066-34.377 22.729-12.569 5.662-26.4 8.876-40.174 8.091-10.33-.602-20.566-3.482-29.596-8.513 24.01-13.009 45.655-30.341 63.38-51.098 11.669-13.63 21.808-29.126 25.73-46.611 1.99-8.743 2.296-17.887.478-26.668-1.817-8.781-5.873-17.122-12.013-23.664-5.998-6.37-13.869-10.904-22.305-13.219-8.417-2.324-17.409-2.506-26.018-.938-17.217 3.157-32.619 13.163-44.93 25.588-21.741 21.905-35.18 52.819-32.712 83.58 1.243 15.381 6.39 30.494 15.209 43.14a80.903 80.903 0 0 0 6.467 8.064 199.884 199.884 0 0 1-39.696 9.535c-11.602-18.748-18.308-40.843-18.308-64.498 0-67.818 54.941-122.76 122.74-122.76zm.728 24.764-.01.039c8.647 0 17.332 2.62 24.22 7.843 6.197 4.687 10.807 11.326 13.39 18.653 2.611 7.327 3.282 15.275 2.392 23.004-1.77 15.448-9.566 29.614-18.978 41.992-16.672 21.904-38.835 39.437-63.475 51.719a207.147 207.147 0 0 1-7.652 3.595c-5.357-4.687-9.947-10.233-13.467-16.45-7.317-12.971-9.728-28.362-8.322-43.179 1.435-14.826 6.504-29.097 13.344-42.326 7.92-15.333 18.719-29.843 33.832-38.193 7.556-4.18 16.098-6.697 24.726-6.697zm120.881 81.617a124.08 124.08 0 0 1 1.094 16.369c0 67.798-54.922 122.762-122.72 122.762-38.07 0-72.124-17.334-94.602-44.547 13.888-3.157 27.472-7.7 40.5-13.467 5.71 4.323 11.995 7.882 18.691 10.445 19.255 7.385 41.13 6.312 60.623-.431 19.485-6.753 36.779-18.843 51.844-32.952a223.06 223.06 0 0 0 44.57-58.18z"/></svg>