<svg xmlns="http://www.w3.org/2000/svg" xmlns:xlink="http://www.w3.org/1999/xlink" height="64" width="64"><defs><linearGradient id="c"><stop offset="0" style="stop-color:#ffe16b;stop-opacity:1"/><stop offset="1" style="stop-color:#f9c440;stop-opacity:1"/></linearGradient><linearGradient gradientTransform="matrix(1.40715 0 -.00613 1.4642 12.729 -25.132)" gradientUnits="userSpaceOnUse" xlink:href="#a" id="i" y2="56.784" x2="14.653" y1="20.579" x1="14.496"/><linearGradient id="a"><stop offset="0" style="stop-color:#fff;stop-opacity:1"/><stop offset=".569" style="stop-color:#fff;stop-opacity:.23529412"/><stop offset=".933" style="stop-color:#fff;stop-opacity:.15686275"/><stop offset="1" style="stop-color:#fff;stop-opacity:.39215687"/></linearGradient><linearGradient id="d"><stop offset="0" style="stop-color:#000;stop-opacity:1"/><stop offset="1" style="stop-color:#000;stop-opacity:0"/></linearGradient><linearGradient id="b"><stop offset="0" style="stop-color:#000;stop-opacity:0"/><stop offset=".5" style="stop-color:#000;stop-opacity:1"/><stop offset="1" style="stop-color:#000;stop-opacity:0"/></linearGradient><linearGradient gradientTransform="matrix(.1077 0 0 .02059 -6.923 49.451)" gradientUnits="userSpaceOnUse" xlink:href="#b" id="e" y2="609.505" x2="302.857" y1="366.648" x1="302.857"/><linearGradient gradientUnits="userSpaceOnUse" y2="59.191" x2="34.678" y1="3.68" x1="34.678" id="h" xlink:href="#c"/><radialGradient gradientTransform="matrix(.03213 0 0 .02059 38.637 49.451)" gradientUnits="userSpaceOnUse" xlink:href="#d" id="g" fy="486.648" fx="605.714" r="117.143" cy="486.648" cx="605.714"/><radialGradient gradientTransform="matrix(-.03213 0 0 .02059 25.363 49.451)" gradientUnits="userSpaceOnUse" xlink:href="#d" id="f" fy="486.648" fx="605.714" r="117.143" cy="486.648" cx="605.714"/></defs><path style="display:inline;overflow:visible;visibility:visible;opacity:.3;fill:url(#e);fill-opacity:1;fill-rule:nonzero;stroke:none;stroke-width:1;marker:none" d="M6 57h52v5H6z"/><path d="M6 57v5c-1.655.01-4-1.12-4-2.5S3.846 57 6 57z" style="display:inline;overflow:visible;visibility:visible;opacity:.3;fill:url(#f);fill-opacity:1;fill-rule:nonzero;stroke:none;stroke-width:1;marker:none"/><path d="M58 57v5c1.655.01 4-1.12 4-2.5S60.154 57 58 57z" style="display:inline;overflow:visible;visibility:visible;opacity:.3;fill:url(#g);fill-opacity:1;fill-rule:nonzero;stroke:none;stroke-width:1;marker:none"/><path d="m61.08 53.574-25.607-48C34.737 4.241 33.405 3.5 31.922 3.5c-1.484 0-2.822.889-3.57 2.222l-25.416 48c-.598 1.185-.605 2.815.131 4 .737 1.185 1.921 1.778 3.404 1.778h51.024c1.484 0 2.822-.74 3.42-1.926.747-1.185.753-2.667.165-4z" style="fill:url(#h);fill-opacity:1;fill-rule:nonzero;stroke:none"/><path d="m61.08 53.574-25.607-48C34.737 4.241 33.405 3.5 31.922 3.5c-1.484 0-2.822.889-3.57 2.222l-25.416 48c-.598 1.185-.605 2.815.131 4 .737 1.185 1.921 1.778 3.404 1.778h51.024c1.484 0 2.822-.74 3.42-1.926.747-1.185.753-2.667.165-4z" style="color:#000;display:inline;overflow:visible;visibility:visible;opacity:.5;fill:none;stroke:#ad5f00;stroke-width:.99999982;stroke-linecap:butt;stroke-linejoin:miter;stroke-miterlimit:4;stroke-dasharray:none;stroke-dashoffset:0;stroke-opacity:1;marker:none;enable-background:accumulate"/><path style="opacity:.3;fill:#fff;fill-opacity:1;stroke:none;stroke-width:1;stroke-linejoin:round;stroke-miterlimit:4;stroke-dasharray:none;stroke-opacity:.49803922" d="M32 19a4 4 0 0 0-4 4c0 4 1.333 9.333 2.667 20h2.666C34.667 32.333 36 27 36 23a4 4 0 0 0-4-4Zm0 28a4 4 0 1 0 0 8 4 4 0 0 0 0-8z"/><path d="M32 18a4 4 0 0 0-4 4c0 4 1.333 9.333 2.667 20h2.666C34.667 31.333 36 26 36 22a4 4 0 0 0-4-4Zm0 28a4 4 0 1 0 0 8 4 4 0 0 0 0-8z" style="opacity:1;fill:#7a0000;fill-opacity:1;stroke:none;stroke-width:1;stroke-linejoin:round;stroke-miterlimit:4;stroke-dasharray:none;stroke-opacity:.49803922"/><path d="M31.922 4.496c-1.085 0-2.108.66-2.7 1.715L3.827 54.17c-.434.86-.43 2.191.09 3.026.563.906 1.337 1.307 2.555 1.307h51.025c1.151 0 2.123-.578 2.527-1.379a.997.997 0 0 1 .047-.082c.547-.868.573-1.98.1-3.059L34.6 6.057c-.566-1.025-1.527-1.56-2.678-1.56Z" style="color:#000;display:inline;overflow:visible;visibility:visible;opacity:.6;fill:none;stroke:url(#i);stroke-width:.99999994;stroke-linecap:butt;stroke-linejoin:miter;stroke-miterlimit:4;stroke-dasharray:none;stroke-dashoffset:0;stroke-opacity:1;marker:none;enable-background:accumulate;clip-rule:nonzero;isolation:auto;mix-blend-mode:normal;color-interpolation:sRGB;color-interpolation-filters:linearRGB;solid-color:#000;solid-opacity:1;fill-opacity:1;fill-rule:nonzero;filter-blend-mode:normal;filter-gaussianBlur-deviation:0;color-rendering:auto;image-rendering:auto;shape-rendering:auto;text-rendering:auto"/></svg>