<svg xmlns="http://www.w3.org/2000/svg" xmlns:xlink="http://www.w3.org/1999/xlink" version="1.0" width="64" height="64"><defs><radialGradient cx="605.714" cy="486.648" r="117.143" fx="605.714" fy="486.648" id="k" xlink:href="#a" gradientUnits="userSpaceOnUse" gradientTransform="matrix(.0598 0 0 .02745 20.519 43.268)"/><radialGradient cx="605.714" cy="486.648" r="117.143" fx="605.714" fy="486.648" id="l" xlink:href="#a" gradientUnits="userSpaceOnUse" gradientTransform="matrix(-.0598 0 0 .02745 43.482 43.268)"/><radialGradient cx="11.734" cy="8.49" r="23.048" fx="11.734" fy="8.49" id="n" xlink:href="#b" gradientUnits="userSpaceOnUse" gradientTransform="matrix(1.86219 .95185 -.63318 1.26197 -.53 -5.481)"/><radialGradient cx="141.747" cy="206.426" r="78.728" fx="141.747" fy="206.426" id="o" xlink:href="#c" gradientUnits="userSpaceOnUse" gradientTransform="matrix(.4757 -.0069 .00352 .3975 -37.033 -36.8)"/><radialGradient cx="142.622" cy="191.854" r="78.728" fx="142.622" fy="191.854" id="p" xlink:href="#d" gradientUnits="userSpaceOnUse" gradientTransform="matrix(.2466 0 0 -.17432 -4.148 59.731)"/><radialGradient cx="113.065" cy="97.588" r="2.563" fx="113.667" fy="98" id="q" xlink:href="#e" gradientUnits="userSpaceOnUse" gradientTransform="matrix(-.50343 0 0 .4878 62.92 -2.103)"/><radialGradient cx="113.065" cy="97.588" r="2.563" fx="113.667" fy="98" id="r" xlink:href="#e" gradientUnits="userSpaceOnUse" gradientTransform="matrix(.37411 -.0793 .04214 .315 -33.912 -8.773)"/><radialGradient cx="113.065" cy="97.588" r="2.563" fx="113.667" fy="98" id="s" xlink:href="#e" gradientUnits="userSpaceOnUse" gradientTransform="matrix(.37825 .07056 -.03896 .3065 11.536 -24.903)"/><radialGradient cx="127.317" cy="143.828" r="78.728" fx="127.317" fy="143.828" id="v" xlink:href="#c" gradientUnits="userSpaceOnUse" gradientTransform="matrix(.25406 -.0358 .00826 .1439 -9.916 3.612)"/><radialGradient cx="113.065" cy="97.588" r="2.563" fx="113.667" fy="98" id="e" gradientUnits="userSpaceOnUse"><stop style="stop-color:#eee;stop-opacity:1" offset="0"/><stop style="stop-color:#cecece;stop-opacity:1" offset=".16"/><stop style="stop-color:#888;stop-opacity:1" offset=".468"/><stop style="stop-color:#555;stop-opacity:1" offset="1"/></radialGradient><radialGradient cx="113.065" cy="97.588" r="2.563" fx="113.667" fy="98" id="w" xlink:href="#e" gradientUnits="userSpaceOnUse" gradientTransform="matrix(.50343 0 0 .4878 1.08 -2.103)"/><radialGradient cx="24" cy="42" r="21" fx="24" fy="42" id="x" xlink:href="#f" gradientUnits="userSpaceOnUse" gradientTransform="matrix(1.35264 0 0 .48686 -.463 31.95)"/><linearGradient id="g"><stop style="stop-color:#000;stop-opacity:0" offset="0"/><stop style="stop-color:#000;stop-opacity:1" offset=".5"/><stop style="stop-color:#000;stop-opacity:0" offset="1"/></linearGradient><linearGradient x1="302.857" y1="366.648" x2="302.857" y2="609.505" id="j" xlink:href="#g" gradientUnits="userSpaceOnUse" gradientTransform="matrix(.1018 0 0 .02745 -4.797 43.268)"/><linearGradient id="h"><stop style="stop-color:#7a7a7a;stop-opacity:1" offset="0"/><stop style="stop-color:#474747;stop-opacity:1" offset="1"/></linearGradient><linearGradient x1="29.938" y1="41" x2="30" y2="50" id="m" xlink:href="#h" gradientUnits="userSpaceOnUse" gradientTransform="matrix(1.35736 0 0 1.00985 -7.363 6.552)"/><linearGradient id="b"><stop style="stop-color:#e6e6e6;stop-opacity:1" offset="0"/><stop style="stop-color:#c8c8c8;stop-opacity:1" offset="1"/></linearGradient><linearGradient id="d"><stop style="stop-color:#fff;stop-opacity:1" offset="0"/><stop style="stop-color:#e7e7e7;stop-opacity:1" offset=".47"/><stop style="stop-color:#8c8c8c;stop-opacity:1" offset=".672"/><stop style="stop-color:#ddd;stop-opacity:1" offset=".835"/><stop style="stop-color:#a8a8a8;stop-opacity:1" offset="1"/></linearGradient><linearGradient id="a"><stop style="stop-color:#000;stop-opacity:1" offset="0"/><stop style="stop-color:#000;stop-opacity:0" offset="1"/></linearGradient><linearGradient x1="7.063" y1="35.281" x2="24.688" y2="35.281" id="t" xlink:href="#a" gradientUnits="userSpaceOnUse" gradientTransform="matrix(1.3801 0 0 1.25843 .929 8.101)"/><linearGradient id="i"><stop style="stop-color:#eee;stop-opacity:1" offset="0"/><stop style="stop-color:#eee;stop-opacity:0" offset="1"/></linearGradient><linearGradient x1="12.277" y1="37.206" x2="12.222" y2="33.759" id="u" xlink:href="#i" gradientUnits="userSpaceOnUse" gradientTransform="matrix(1.35042 0 0 1.24642 -.083 10.21)"/><linearGradient id="c"><stop style="stop-color:#f5f5f5;stop-opacity:1" offset="0"/><stop style="stop-color:#e7e7e7;stop-opacity:1" offset=".47"/><stop style="stop-color:#8c8c8c;stop-opacity:1" offset=".693"/><stop style="stop-color:#ddd;stop-opacity:1" offset=".835"/><stop style="stop-color:#a8a8a8;stop-opacity:1" offset="1"/></linearGradient><linearGradient id="f"><stop style="stop-color:#fff;stop-opacity:1" offset="0"/><stop style="stop-color:#fff;stop-opacity:0" offset="1"/></linearGradient></defs><path style="opacity:.3;fill:url(#j);fill-opacity:1;fill-rule:nonzero;stroke:none;stroke-width:.5;marker:none;visibility:visible;display:inline;overflow:visible" d="M7.42 53.333h49.159V60H7.42z"/><path d="M56.556 53.334V60c3.079.012 7.444-1.494 7.444-3.334s-3.436-3.332-7.444-3.332z" style="opacity:.3;fill:url(#k);fill-opacity:1;fill-rule:nonzero;stroke:none;stroke-width:.5;marker:none;visibility:visible;display:inline;overflow:visible"/><path d="M7.444 53.334V60C4.365 60.012 0 58.506 0 56.666s3.436-3.332 7.444-3.332z" style="opacity:.3;fill:url(#l);fill-opacity:1;fill-rule:nonzero;stroke:none;stroke-width:1;marker:none;visibility:visible;display:inline;overflow:visible"/><path d="M1.464 48.464h61.072l-1.221 8.072H2.82l-1.357-8.072h0z" style="fill:url(#m);fill-opacity:1;fill-rule:evenodd;stroke:#353537;stroke-width:.9279989;stroke-linecap:round;stroke-linejoin:round;stroke-miterlimit:4;stroke-opacity:1;stroke-dasharray:none;stroke-dashoffset:0;display:inline;enable-background:new"/><path style="fill:#d2d2d3;fill-opacity:1;fill-rule:evenodd;stroke:none;display:inline;enable-background:new" d="M1.566 47.626h60.869v1.363H1.566z"/><path d="m62.502 48.502-9.211-35.188c-.26-1.003-1.625-1.816-2.772-1.816H13.163c-1.762 0-2.772.271-3.143 1.816L1.498 48.468" style="fill:url(#n);fill-opacity:1;fill-rule:nonzero;stroke:url(#linearGradient2553);stroke-width:.99578357;stroke-linecap:round;stroke-linejoin:round;stroke-miterlimit:4;stroke-opacity:1;stroke-dasharray:none;stroke-dashoffset:0;marker:none;visibility:visible;display:inline;overflow:visible;enable-background:accumulate"/><path d="m61.5 48.516-59-.032" style="opacity:.4;fill:none;stroke:#fff;stroke-width:1;stroke-linecap:round;stroke-linejoin:miter;stroke-miterlimit:4;stroke-opacity:1;stroke-dasharray:none;stroke-dashoffset:0;marker:none;visibility:visible;display:inline;overflow:visible;enable-background:accumulate"/><path d="M54.961 32.764c-.294-2.747-2.268-5.367-5.547-7.434l-.907-10.959C48.443 13.59 47.463 13 46.227 13h-7.754c-1.244 0-2.206.597-2.238 1.39-.142 3.58-4.48 5.448-10.952 7.148-2.268.4-8.18 2.276-9.537 3.1-3.995 2.163-6.377 5.048-6.707 8.126-.3 2.8 1.143 5.601 4.064 7.889C17.378 44 24.443 46 32 46c7.557 0 14.621-2 18.897-5.347C53.565 38.563 55 36.045 55 33.492c0-.243-.014-.486-.039-.728zM32 44.611c-12.587 0-22.226-5.61-21.528-12.114.3-2.803 2.509-5.797 6.165-7.769.685-.525 6.87-2.565 9.088-2.923 6.148-1.612 11.771-3.704 11.947-8.111.008-.211.362-.379.801-.379h7.753c.45 0 .828.176.846.392l.941 11.388c3.26 1.92 5.234 4.784 5.514 7.402.698 6.504-8.94 12.114-21.527 12.114z" style="fill:url(#o);fill-opacity:1"/><path d="M32 37c-4.487 0-7.926-1.69-7.999-3.93L24 32.998c0-.811.45-1.582 1.307-2.235C26.757 29.659 29.258 29 32 29c2.742 0 5.243.659 6.693 1.763.881.671 1.333 1.469 1.306 2.306-.074 2.241-3.513 3.931-8 3.931zm0-6.746c-4.216 0-6.364 1.674-6.313 3.203.049 1.505 2.875 2.707 6.313 2.707 3.437 0 6.264-1.203 6.313-2.707.05-1.53-2.098-3.203-6.313-3.203z" style="fill:url(#p);fill-opacity:1;fill-rule:nonzero;stroke-width:1;stroke-linecap:butt;stroke-linejoin:miter;stroke-miterlimit:4;stroke-opacity:1;stroke-dasharray:none;stroke-dashoffset:0;marker:none;visibility:visible;display:inline;overflow:visible;enable-background:accumulate"/><path d="M7.997 45.493C7.933 46.323 6.983 47 5.876 47s-1.945-.677-1.871-1.507C4.078 44.667 5.028 44 6.124 44c1.097 0 1.935.667 1.873 1.493z" style="fill:#e1e1e1;fill-opacity:1"/><path d="M7.28 44.909a.723.723 0 0 1 .217.498c0 .016 0 .033-.002.05-.043.572-.785 1.055-1.619 1.055-.474 0-.908-.158-1.16-.425a.708.708 0 0 1-.21-.552c.051-.568.792-1.047 1.618-1.047.472 0 .904.157 1.156.42z" style="fill:url(#q);fill-opacity:1"/><path d="M11.016 13.31c.118.526.883.813 1.706.639.823-.174 1.387-.744 1.26-1.268-.126-.522-.889-.803-1.704-.63-.815.173-1.38.735-1.262 1.259z" style="fill:#f0f0f0;fill-opacity:1"/><path d="M11.497 12.82a.485.485 0 0 0-.112.387c.082.363.675.558 1.294.427.353-.075.662-.245.826-.457.07-.09.146-.232.108-.39-.087-.358-.679-.551-1.293-.421-.35.074-.658.244-.823.454z" style="fill:url(#r);fill-opacity:1"/><path d="M49 12.701c-.018.53.641 1.09 1.474 1.245.831.155 1.515-.153 1.526-.685.01-.53-.65-1.081-1.473-1.235-.825-.154-1.508.148-1.527.675z" style="fill:#e1e1e1;fill-opacity:1"/><path d="M49.585 12.435c-.084.052-.185.142-.203.283a.378.378 0 0 0-.002.03c-.013.367.506.774 1.132.891.357.067.696.028.906-.104.09-.056.198-.157.201-.318.008-.364-.51-.769-1.132-.885-.354-.065-.691-.027-.902.103z" style="fill:url(#s);fill-opacity:1"/><path d="M10 49h25v7H10.676L10 49z" style="fill:url(#t);fill-opacity:1;fill-rule:evenodd;stroke:none;stroke-width:2.40899992;marker:none;visibility:visible;display:inline;overflow:visible"/><path d="M10.529 56 10 51c2.479 3.963 11.733 5 18 5H10.529z" style="opacity:.81142853;fill:url(#u);fill-opacity:1;fill-rule:evenodd;stroke:none"/><path d="m14.542 13-.138.544-2.055 8.102L12 23l1.019-.291 17.326-5.063.055-.026.046-.025c.917-.506 1.408-1.53 1.523-2.468.058-.47.04-.93-.11-1.355-.142-.401-.512-.758-.9-.747V13H14.543zm.587.5h15.968c.008.069.026.107.01.236-.05.407-.266 1.864-.808 2.182l-16.795 4.91 1.624-7.327z" style="fill:url(#v);fill-opacity:1;fill-rule:nonzero;stroke:none;stroke-width:1;marker:none;visibility:visible;display:inline;overflow:visible;enable-background:accumulate"/><path d="M56.003 45.493c.064.83 1.014 1.507 2.121 1.507s1.945-.677 1.871-1.507C59.922 44.667 58.972 44 57.876 44c-1.097 0-1.935.667-1.873 1.493z" style="fill:#e1e1e1;fill-opacity:1"/><path d="M56.72 44.909a.723.723 0 0 0-.217.498c0 .016 0 .033.002.05.043.572.785 1.055 1.619 1.055.474 0 .908-.158 1.16-.425a.708.708 0 0 0 .21-.552c-.051-.568-.792-1.047-1.618-1.047-.472 0-.904.157-1.156.42z" style="fill:url(#w);fill-opacity:1"/><path style="opacity:.3;fill:url(#x);fill-opacity:1;stroke:none" d="M3.595 48.99h56.811v6.816H3.595z"/></svg>