<svg xmlns="http://www.w3.org/2000/svg" xmlns:xlink="http://www.w3.org/1999/xlink" width="64" height="64"><defs><linearGradient id="l"><stop style="stop-color:#fff;stop-opacity:1" offset="0"/><stop style="stop-color:#fff;stop-opacity:0" offset="1"/></linearGradient><linearGradient x1="71.204" y1="15.369" x2="71.204" y2="40.496" id="p" xlink:href="#a" gradientUnits="userSpaceOnUse" gradientTransform="translate(-138.572 -33.857) scale(2.36328)"/><linearGradient id="a"><stop style="stop-color:#fff;stop-opacity:1" offset="0"/><stop style="stop-color:#fff;stop-opacity:.23529412" offset=".424"/><stop style="stop-color:#fff;stop-opacity:.15686275" offset=".821"/><stop style="stop-color:#fff;stop-opacity:.39215687" offset="1"/></linearGradient><linearGradient id="j"><stop style="stop-color:#000;stop-opacity:1" offset="0"/><stop style="stop-color:#000;stop-opacity:0" offset="1"/></linearGradient><linearGradient id="k"><stop style="stop-color:#f0c1ff;stop-opacity:1" offset="0"/><stop style="stop-color:#c5a3f2;stop-opacity:1" offset=".262"/><stop style="stop-color:#7a36b1;stop-opacity:1" offset=".705"/><stop style="stop-color:#4c2d81;stop-opacity:1" offset="1"/></linearGradient><linearGradient x1="3.5" y1="23" x2="47.5" y2="23" id="q" xlink:href="#b" gradientUnits="userSpaceOnUse" gradientTransform="matrix(0 1.3293 1.32947 0 1.507 -2.334)"/><linearGradient id="b"><stop style="stop-color:#fff;stop-opacity:0" offset="0"/><stop offset=".292" style="stop-color:#fff;stop-opacity:.85098039"/><stop style="stop-color:#fff;stop-opacity:.12682927" offset=".457"/><stop offset=".725" style="stop-color:#fff;stop-opacity:.27317074"/><stop offset=".84" style="stop-color:#fff;stop-opacity:1"/><stop style="stop-color:#fff;stop-opacity:0" offset="1"/></linearGradient><linearGradient x1="47.1" y1="27.262" x2="4.287" y2="27.243" id="r" xlink:href="#c" gradientUnits="userSpaceOnUse" gradientTransform="matrix(.94008 .93996 -.94008 .93996 29.735 -14.024)"/><linearGradient id="c"><stop offset="0" style="stop-color:#fff;stop-opacity:0"/><stop style="stop-color:#fff;stop-opacity:.85098039" offset=".143"/><stop offset=".346" style="stop-color:#fff;stop-opacity:.12682927"/><stop style="stop-color:#fff;stop-opacity:1" offset=".436"/><stop offset=".581" style="stop-color:#fff;stop-opacity:.20487805"/><stop style="stop-color:#fff;stop-opacity:.27317074" offset=".725"/><stop style="stop-color:#fff;stop-opacity:1" offset=".84"/><stop offset="1" style="stop-color:#fff;stop-opacity:0"/></linearGradient><linearGradient x1="4.49" y1="23" x2="47.5" y2="23" id="s" xlink:href="#d" gradientUnits="userSpaceOnUse" gradientTransform="matrix(1.32947 0 0 -1.3293 -1.817 62.138)"/><linearGradient id="d"><stop offset="0" style="stop-color:#fff;stop-opacity:0"/><stop style="stop-color:#fff;stop-opacity:.85098039" offset=".168"/><stop offset=".457" style="stop-color:#fff;stop-opacity:.12682927"/><stop style="stop-color:#fff;stop-opacity:.27317074" offset=".608"/><stop style="stop-color:#fff;stop-opacity:1" offset=".693"/><stop offset="1" style="stop-color:#fff;stop-opacity:0"/></linearGradient><linearGradient xlink:href="#e" id="w" gradientUnits="userSpaceOnUse" gradientTransform="matrix(0 1.3293 1.32947 0 -15.834 -2.334)" x1="5.551" y1="58.276" x2="44.629" y2="22.18"/><linearGradient id="e"><stop style="stop-color:#fff;stop-opacity:0" offset="0"/><stop offset=".143" style="stop-color:#fff;stop-opacity:.85098039"/><stop style="stop-color:#fff;stop-opacity:.12682927" offset=".346"/><stop offset=".645" style="stop-color:#fff;stop-opacity:.27317074"/><stop offset=".728" style="stop-color:#fff;stop-opacity:1"/><stop style="stop-color:#fff;stop-opacity:.2292683" offset=".809"/><stop style="stop-color:#fff;stop-opacity:0" offset="1"/></linearGradient><linearGradient xlink:href="#e" id="y" gradientUnits="userSpaceOnUse" gradientTransform="matrix(0 -1.3293 -1.32947 0 55.627 67.111)" x1="5.551" y1="58.276" x2="44.629" y2="22.18"/><linearGradient xlink:href="#f" id="z" gradientUnits="userSpaceOnUse" gradientTransform="matrix(0 1.3293 1.32947 0 -1.15 4.827)" x1="25.177" y1="48.221" x2="40.761" y2="17.055"/><linearGradient id="f"><stop offset="0" style="stop-color:#fff;stop-opacity:0"/><stop style="stop-color:#fff;stop-opacity:.27317074" offset=".448"/><stop style="stop-color:#fff;stop-opacity:1" offset=".55"/><stop offset=".721" style="stop-color:#fff;stop-opacity:.2292683"/><stop offset="1" style="stop-color:#fff;stop-opacity:0"/></linearGradient><linearGradient id="g"><stop style="stop-color:#000;stop-opacity:0" offset="0"/><stop style="stop-color:#000;stop-opacity:1" offset=".5"/><stop style="stop-color:#000;stop-opacity:0" offset="1"/></linearGradient><linearGradient id="i"><stop style="stop-color:#fff;stop-opacity:1" offset="0"/><stop style="stop-color:#fff;stop-opacity:.23529412" offset=".569"/><stop style="stop-color:#fff;stop-opacity:.15686275" offset=".933"/><stop style="stop-color:#fff;stop-opacity:.39215687" offset="1"/></linearGradient><linearGradient gradientTransform="matrix(.0845 0 0 .01235 -6.54 38.47)" gradientUnits="userSpaceOnUse" xlink:href="#g" id="A" y2="609.505" x2="302.857" y1="366.648" x1="302.857"/><linearGradient gradientTransform="matrix(.64447 0 0 .62794 32.533 34.526)" gradientUnits="userSpaceOnUse" xlink:href="#h" id="D" y2="44.449" x2="24" y1="1.312" x1="24"/><linearGradient gradientTransform="matrix(.66654 0 -.0029 .67787 28.643 22.782)" gradientUnits="userSpaceOnUse" xlink:href="#i" id="E" y2="57.567" x2="29.291" y1="19.788" x1="29.127"/><linearGradient id="h"><stop offset="0" style="stop-color:#ffe16b;stop-opacity:1"/><stop offset="1" style="stop-color:#f9c440;stop-opacity:1"/></linearGradient><radialGradient cx="99.189" cy="185.297" r="62.769" fx="99.189" fy="185.297" id="m" xlink:href="#j" gradientUnits="userSpaceOnUse" gradientTransform="matrix(.38235 0 0 .11152 -5.925 36.334)"/><radialGradient cx="99.189" cy="185.297" r="62.769" fx="99.189" fy="185.297" id="n" xlink:href="#j" gradientUnits="userSpaceOnUse" gradientTransform="matrix(.2549 0 0 .07966 6.716 44.239)"/><radialGradient cx="1.745" cy="8.45" r="20" fx="1.745" fy="8.45" id="o" xlink:href="#k" gradientUnits="userSpaceOnUse" gradientTransform="matrix(0 8.4853 -8.97644 0 107.849 -32.827)"/><radialGradient xlink:href="#l" id="t" cx="46.263" cy="21.304" fx="46.263" fy="21.304" r="3.636" gradientTransform="matrix(1 0 0 .99988 0 .003)" gradientUnits="userSpaceOnUse"/><radialGradient xlink:href="#l" id="x" cx="25.177" cy="43.295" fx="25.177" fy="43.295" r="3.636" gradientTransform="matrix(1 0 0 .99988 0 .005)" gradientUnits="userSpaceOnUse"/><radialGradient xlink:href="#l" id="u" cx="41.15" cy="51.827" fx="41.15" fy="51.827" r="3.636" gradientTransform="matrix(1 0 0 .99988 0 .006)" gradientUnits="userSpaceOnUse"/><radialGradient xlink:href="#l" id="v" cx="13.974" cy="22.656" fx="13.974" fy="22.656" r="3.636" gradientTransform="matrix(1 0 0 .99988 0 .003)" gradientUnits="userSpaceOnUse"/><radialGradient gradientTransform="matrix(-.02892 0 0 .01235 21.027 38.47)" gradientUnits="userSpaceOnUse" xlink:href="#j" id="B" fy="486.648" fx="605.714" r="117.143" cy="486.648" cx="605.714"/><radialGradient gradientTransform="matrix(.02892 0 0 .01235 26.973 38.47)" gradientUnits="userSpaceOnUse" xlink:href="#j" id="C" fy="486.648" fx="605.714" r="117.143" cy="486.648" cx="605.714"/></defs><path style="opacity:.2;fill:url(#m);fill-opacity:1;stroke:none" d="M56 57a24 6.999 0 1 1-48 0 24 6.999 0 1 1 48 0z"/><path style="opacity:.4;fill:url(#n);fill-opacity:1;stroke:none" d="M48 59a16 4.999 0 1 1-32 0 16 4.999 0 1 1 32 0z"/><path d="M32 2.5C15.723 2.5 2.5 15.723 2.5 32S15.723 61.5 32 61.5 61.5 48.277 61.5 32 48.277 2.5 32 2.5z" style="color:#000;fill:url(#o);fill-opacity:1;fill-rule:nonzero;stroke:none;stroke-width:1;marker:none;visibility:visible;display:inline;overflow:visible;enable-background:accumulate"/><path d="M32 2.5C15.723 2.5 2.5 15.723 2.5 32S15.723 61.5 32 61.5 61.5 48.277 61.5 32 48.277 2.5 32 2.5z" style="opacity:.5;color:#000;fill:none;stroke:#6326b9;stroke-width:1;stroke-linecap:butt;stroke-linejoin:miter;stroke-miterlimit:4;stroke-opacity:1;stroke-dasharray:none;stroke-dashoffset:0;marker:none;visibility:visible;display:inline;overflow:visible;enable-background:accumulate"/><path d="M60.5 32c0 15.74-12.76 28.5-28.5 28.5S3.5 47.74 3.5 32 16.26 3.5 32 3.5 60.5 16.26 60.5 32z" style="opacity:.5;color:#000;fill:none;stroke:url(#p);stroke-width:1;stroke-linecap:round;stroke-linejoin:round;stroke-miterlimit:4;stroke-opacity:1;stroke-dasharray:none;stroke-dashoffset:0;marker:none;visibility:visible;display:inline;overflow:visible;enable-background:accumulate"/><path style="opacity:1;fill:none;stroke:url(#q);stroke-width:1;stroke-linecap:round;stroke-linejoin:round;stroke-miterlimit:4;stroke-dasharray:none;stroke-dashoffset:0;stroke-opacity:1" d="M34.478 61.051c20.654-20.34 12.7-59.544-2.424-58.067"/><path style="opacity:1;fill:none;stroke:url(#r);stroke-width:1;stroke-linecap:round;stroke-linejoin:round;stroke-miterlimit:4;stroke-dasharray:none;stroke-dashoffset:0;stroke-opacity:1" d="M52.296 51.773C41.474 62.23 2.321 32.06 16.294 7.502"/><path style="fill:none;stroke:url(#s);stroke-width:1;stroke-linecap:round;stroke-linejoin:round;stroke-miterlimit:4;stroke-dasharray:none;stroke-dashoffset:0;stroke-opacity:1" d="M60.029 25.975c-15.473-11.112-57.878-6.853-56.497 6.18"/><path style="color:#000;display:inline;overflow:visible;visibility:visible;opacity:1;fill:url(#t);fill-opacity:1;fill-rule:nonzero;stroke:none;stroke-width:1.00042665;stroke-linecap:round;stroke-linejoin:round;stroke-miterlimit:4;stroke-dasharray:none;stroke-dashoffset:0;stroke-opacity:.52127662;marker:none;enable-background:accumulate" d="M49.898 21.304a3.636 3.635 0 0 1-7.27 0 3.636 3.635 0 1 1 7.27 0z"/><path d="M44.785 51.829a3.636 3.635 0 0 1-7.27 0 3.636 3.635 0 1 1 7.27 0z" style="color:#000;display:inline;overflow:visible;visibility:visible;opacity:1;fill:url(#u);fill-opacity:1;fill-rule:nonzero;stroke:none;stroke-width:1.00042665;stroke-linecap:round;stroke-linejoin:round;stroke-miterlimit:4;stroke-dasharray:none;stroke-dashoffset:0;stroke-opacity:.52127662;marker:none;enable-background:accumulate"/><path style="color:#000;display:inline;overflow:visible;visibility:visible;opacity:1;fill:url(#v);fill-opacity:1;fill-rule:nonzero;stroke:none;stroke-width:1.00042665;stroke-linecap:round;stroke-linejoin:round;stroke-miterlimit:4;stroke-dasharray:none;stroke-dashoffset:0;stroke-opacity:.52127662;marker:none;enable-background:accumulate" d="M17.61 22.657a3.636 3.635 0 0 1-7.272 0 3.636 3.635 0 1 1 7.271 0z"/><path d="M9.14 49.056c20.518-3.599 36.33-23.558 37.203-28.442" style="opacity:1;fill:none;stroke:url(#w);stroke-width:1;stroke-linecap:round;stroke-linejoin:round;stroke-miterlimit:4;stroke-dasharray:none;stroke-dashoffset:0;stroke-opacity:1"/><path d="M28.812 43.296a3.636 3.635 0 0 1-7.27 0 3.636 3.635 0 1 1 7.27 0z" style="color:#000;display:inline;overflow:visible;visibility:visible;opacity:1;fill:url(#x);fill-opacity:1;fill-rule:nonzero;stroke:none;stroke-width:1.00042665;stroke-linecap:round;stroke-linejoin:round;stroke-miterlimit:4;stroke-dasharray:none;stroke-dashoffset:0;stroke-opacity:.52127662;marker:none;enable-background:accumulate"/><path style="opacity:1;fill:none;stroke:url(#y);stroke-width:1;stroke-linecap:round;stroke-linejoin:round;stroke-miterlimit:4;stroke-dasharray:none;stroke-dashoffset:0;stroke-opacity:1" d="M35.024 3.384C12.386 8.042 3.859 44.536 7.846 48.919"/><path d="M19.73 57.537c6.04 1.156 34.916-4.296 40.768-24.982" style="opacity:1;fill:none;stroke:url(#z);stroke-width:1;stroke-linecap:round;stroke-linejoin:round;stroke-miterlimit:4;stroke-dasharray:none;stroke-dashoffset:0;stroke-opacity:1"/><g style="opacity:.4"><path style="display:inline;overflow:visible;visibility:visible;fill:url(#A);fill-opacity:1;fill-rule:nonzero;stroke:none;stroke-width:1;marker:none" d="M3.6 43h40.8v3H3.6z" transform="matrix(.66666 0 0 1.33333 32 2.667)"/><path style="display:inline;overflow:visible;visibility:visible;fill:url(#B);fill-opacity:1;fill-rule:nonzero;stroke:none;stroke-width:1;marker:none" d="M3.6 43v3c-1.49.006-3.6-.672-3.6-1.5S1.662 43 3.6 43Z" transform="matrix(.66666 0 0 1.33333 32 2.667)"/><path style="display:inline;overflow:visible;visibility:visible;fill:url(#C);fill-opacity:1;fill-rule:nonzero;stroke:none;stroke-width:1;marker:none" d="M44.4 43v3c1.49.006 3.6-.672 3.6-1.5S46.338 43 44.4 43z" transform="matrix(.66666 0 0 1.33333 32 2.667)"/></g><path style="fill:url(#D);fill-opacity:1;fill-rule:nonzero;stroke:none" d="M62.294 59.643 49.707 36.5c-.362-.643-1.016-1-1.745-1-.73 0-1.388.429-1.755 1.071L33.714 59.714c-.294.572-.297 1.357.065 1.929.362.571.944.857 1.673.857h25.08c.729 0 1.386-.357 1.68-.929.367-.571.37-1.285.082-1.928z"/><path style="opacity:.6;fill:none;stroke:url(#E);stroke-width:.99999994;stroke-miterlimit:4;stroke-dasharray:none;stroke-opacity:1" d="M60.899 58.884 49.363 37.705c-.492-.912-.668-1.205-1.415-1.205-.642 0-.978.426-1.442 1.287L35.098 58.95c-.662 1.188-.733 1.498-.414 2.02.318.524.728.495 2.24.53h22.422c1.408.016 1.726-.089 1.985-.612.323-.523.186-.937-.432-2.003z"/><path style="color:#000;display:inline;overflow:visible;visibility:visible;opacity:.5;fill:none;stroke:#ad5f00;stroke-width:.99999982;stroke-linecap:butt;stroke-linejoin:miter;stroke-miterlimit:4;stroke-dasharray:none;stroke-dashoffset:0;stroke-opacity:1;marker:none;enable-background:accumulate;clip-rule:nonzero;isolation:auto;mix-blend-mode:normal;color-interpolation:sRGB;color-interpolation-filters:linearRGB;solid-color:#000;solid-opacity:1;fill-opacity:1;fill-rule:nonzero;filter-blend-mode:normal;filter-gaussianBlur-deviation:0;color-rendering:auto;image-rendering:auto;shape-rendering:auto;text-rendering:auto" d="M62.294 59.643 49.707 36.5c-.362-.643-1.016-1-1.745-1-.73 0-1.388.429-1.755 1.071L33.714 59.714c-.294.572-.297 1.357.065 1.929.362.571.944.857 1.673.857h25.08c.729 0 1.386-.357 1.68-.929.367-.571.37-1.285.082-1.928z"/><path style="opacity:.3;fill:#fff;fill-opacity:1;stroke:none;stroke-width:1;stroke-linejoin:round;stroke-miterlimit:4;stroke-dasharray:none;stroke-opacity:.49803922" d="M48 43a2 2 0 0 0-2 2c0 2 .667 4.667 1.333 10h1.334C49.333 49.667 50 47 50 45a2 2 0 0 0-2-2Zm0 14a2 2 0 1 0 0 4 2 2 0 0 0 0-4z"/><path d="M48 42a2 2 0 0 0-2 2c0 2 .667 4.667 1.333 10h1.334C49.333 48.667 50 46 50 44a2 2 0 0 0-2-2Zm0 14a2 2 0 1 0 0 4 2 2 0 0 0 0-4z" style="opacity:1;fill:#7a0000;fill-opacity:1;stroke:none;stroke-width:1;stroke-linejoin:round;stroke-miterlimit:4;stroke-dasharray:none;stroke-opacity:.49803922"/></svg>