<svg xmlns="http://www.w3.org/2000/svg" xmlns:xlink="http://www.w3.org/1999/xlink" width="64" height="64"><defs><linearGradient id="d"><stop style="stop-color:#fafafa;stop-opacity:1" offset="0"/><stop style="stop-color:#e2e1de;stop-opacity:1" offset="1"/></linearGradient><linearGradient id="g"><stop style="stop-color:#181818;stop-opacity:1" offset="0"/><stop style="stop-color:#181818;stop-opacity:0" offset="1"/></linearGradient><linearGradient id="h"><stop style="stop-color:#181818;stop-opacity:1" offset="0"/><stop style="stop-color:#181818;stop-opacity:0" offset="1"/></linearGradient><linearGradient id="a"><stop style="stop-color:#181818;stop-opacity:0" offset="0"/><stop style="stop-color:#181818;stop-opacity:1" offset=".5"/><stop style="stop-color:#181818;stop-opacity:0" offset="1"/></linearGradient><linearGradient x1="25.058" y1="47.028" x2="25.058" y2="39.999" id="k" xlink:href="#a" gradientUnits="userSpaceOnUse"/><linearGradient id="f"><stop offset="0" style="stop-color:#000;stop-opacity:1"/><stop offset="1" style="stop-color:#000;stop-opacity:0"/></linearGradient><linearGradient id="b"><stop offset="0" style="stop-color:#fff;stop-opacity:1"/><stop offset=".063" style="stop-color:#fff;stop-opacity:.23529412"/><stop offset=".951" style="stop-color:#fff;stop-opacity:.15686275"/><stop offset="1" style="stop-color:#fff;stop-opacity:.39215687"/></linearGradient><linearGradient xlink:href="#b" id="n" gradientUnits="userSpaceOnUse" gradientTransform="translate(-2.378 -2.378) scale(1.43243)" x1="24" y1="5" x2="24" y2="43"/><linearGradient xlink:href="#c" id="p" gradientUnits="userSpaceOnUse" gradientTransform="translate(-2.378 -2.378) scale(1.43243)" x1="24" y1="5" x2="24" y2="43"/><linearGradient id="c"><stop offset="0" style="stop-color:#fff;stop-opacity:1"/><stop offset=".063" style="stop-color:#fff;stop-opacity:.23529412"/><stop offset=".951" style="stop-color:#fff;stop-opacity:.15686275"/><stop offset="1" style="stop-color:#fff;stop-opacity:.39215687"/></linearGradient><linearGradient id="e"><stop style="stop-color:#cdf87e;stop-opacity:1" offset="0"/><stop style="stop-color:#a2e34f;stop-opacity:1" offset=".262"/><stop style="stop-color:#68b723;stop-opacity:1" offset=".661"/><stop style="stop-color:#1d7e0d;stop-opacity:1" offset="1"/></linearGradient><linearGradient xlink:href="#d" id="l" gradientUnits="userSpaceOnUse" gradientTransform="matrix(1.29039 0 0 1.23733 1.03 -1.067)" x1="25.132" y1="15.5" x2="25.132" y2="48.396"/><linearGradient xlink:href="#e" id="o" x1="24.17" y1="-12.242" x2="24.17" y2="48.934" gradientUnits="userSpaceOnUse"/><linearGradient xlink:href="#f" id="m" gradientUnits="userSpaceOnUse" gradientTransform="matrix(1.4 0 0 .5 -1.6 10)" x1="23.954" y1="15.999" x2="23.954" y2="19.963"/><radialGradient cx="4.993" cy="43.5" r="2.5" fx="4.993" fy="43.5" id="i" xlink:href="#g" gradientUnits="userSpaceOnUse" gradientTransform="matrix(2.00378 0 0 1.4 27.988 -17.4)"/><radialGradient cx="4.993" cy="43.5" r="2.5" fx="4.993" fy="43.5" id="j" xlink:href="#h" gradientUnits="userSpaceOnUse" gradientTransform="matrix(2.00378 0 0 1.4 -20.012 -104.4)"/></defs><g style="opacity:.35"><path style="fill:url(#i);fill-opacity:1;stroke:none" d="M38 40h5v7h-5z" transform="matrix(1.57895 0 0 .71429 -5.895 27.929)"/><path transform="matrix(-1.57895 0 0 -.71429 -5.895 27.929)" style="fill:url(#j);fill-opacity:1;stroke:none" d="M-10-47h5v7h-5z"/><path style="fill:url(#k);fill-opacity:1;stroke:none" d="M10 40h28v7H10z" transform="matrix(1.57895 0 0 .71429 -5.895 27.929)"/></g><rect width="54" height="54" rx="2.5" ry="2.5" x="5" y="5" style="color:#000;fill:url(#l);fill-opacity:1;fill-rule:nonzero;stroke:none;stroke-width:.99999994000000003;marker:none;visibility:visible;display:inline;overflow:visible;enable-background:accumulate"/><rect width="56" height="2" rx="0" ry="0" x="4" y="18" style="opacity:.15;fill:url(#m);fill-opacity:1;fill-rule:nonzero;stroke:none;stroke-width:1;marker:none;visibility:visible;display:inline;overflow:visible;enable-background:accumulate"/><rect width="53" height="53" rx="2" ry="2" x="5.5" y="5.5" style="opacity:1;fill:none;stroke:url(#n);stroke-width:1;stroke-linecap:round;stroke-linejoin:round;stroke-miterlimit:4;stroke-opacity:1;stroke-dasharray:none;stroke-dashoffset:0"/><path style="opacity:.3;fill:none;stroke:#000;stroke-width:.99999994;stroke-miterlimit:4;stroke-dasharray:none" d="M4.5 18v38.5c0 1.662 1.338 3 3 3h49c1.662 0 3-1.338 3-3V18"/><path style="color:#000;fill:url(#o);fill-opacity:1;fill-rule:nonzero;stroke:none;stroke-width:.99999994000000003;marker:none;visibility:visible;display:inline;overflow:visible;enable-background:accumulate" d="M7.5 4.5c-1.662 0-3 1.338-3 3v10h55v-10c0-1.662-1.338-3-3-3z"/><path style="opacity:.4;color:#000;fill:none;stroke:#126400;stroke-width:1;stroke-linecap:round;stroke-linejoin:miter;stroke-miterlimit:4;stroke-opacity:1;stroke-dasharray:none;stroke-dashoffset:0;marker:none;visibility:visible;display:inline;overflow:visible;enable-background:accumulate" d="M7.5 4.5c-1.662 0-3 1.338-3 3v10h55v-10c0-1.662-1.338-3-3-3z"/><path style="opacity:.5;fill:none;stroke:url(#p);stroke-width:1;stroke-linecap:round;stroke-linejoin:round;stroke-miterlimit:4;stroke-opacity:1;stroke-dasharray:none;stroke-dashoffset:0" d="M7.5 5.5c-1.108 0-2 .892-2 2v9h53v-9c0-1.108-.892-2-2-2z"/><path style="opacity:.2;fill:none;stroke:#fff;stroke-width:1;stroke-miterlimit:4;stroke-opacity:1;stroke-dasharray:none" d="M52.5 45.5h-41zm-.03-18.97L11.5 26.5v26h41zm.03 12.97h-41m41-6h-41m8.028-6.942L19.472 52.5m8.039-25.83L27.5 52.5m7.994-25.92.012 25.92m7.953-26.01L43.5 52.5"/><path style="opacity:.25;fill:none;stroke:#5e553c;stroke-width:1;stroke-miterlimit:4;stroke-opacity:1;stroke-dasharray:none" d="M52.5 44.5h-41zm-.03-18.97L11.5 25.5v26h41zm.03 12.97h-41m41-6h-41m8.028-6.942L19.472 51.5m8.039-25.829-.011 25.83m7.994-25.92.012 25.92m7.953-26.01L43.5 51.5"/><path style="opacity:.3;color:#000;fill:#fff;fill-opacity:1;fill-rule:nonzero;stroke:none;stroke-width:1.07444978;marker:none;visibility:visible;display:inline;overflow:visible;enable-background:accumulate" d="M11.465 11.472a1.102 1.047 0 1 1-2.205 0 1.102 1.047 0 1 1 2.205 0z" transform="matrix(1.36071 0 0 1.43233 -1.6 -4.432)"/><path style="opacity:.4;color:#000;fill:#126400;fill-opacity:1;fill-rule:nonzero;stroke:none;stroke-width:1.07444978;marker:none;visibility:visible;display:inline;overflow:visible;enable-background:accumulate" d="M11.465 11.472a1.102 1.047 0 1 1-2.205 0 1.102 1.047 0 1 1 2.205 0z" transform="matrix(1.36071 0 0 1.43233 -1.6 -5.432)"/><path style="opacity:.3;color:#000;fill:#fff;fill-opacity:1;fill-rule:nonzero;stroke:none;stroke-width:1.07444978;marker:none;visibility:visible;display:inline;overflow:visible;enable-background:accumulate" d="M11.465 11.472a1.102 1.047 0 1 1-2.205 0 1.102 1.047 0 1 1 2.205 0z" transform="matrix(1.36071 0 0 1.43233 36.9 -4.432)"/><path style="opacity:.4;color:#000;fill:#126400;fill-opacity:1;fill-rule:nonzero;stroke:none;stroke-width:1.07444978;marker:none;visibility:visible;display:inline;overflow:visible;enable-background:accumulate" d="M11.465 11.472a1.102 1.047 0 1 1-2.205 0 1.102 1.047 0 1 1 2.205 0z" transform="matrix(1.36071 0 0 1.43233 36.9 -5.432)"/></svg>