<?xml version="1.0" encoding="UTF-8" standalone="no"?>
<!-- Created with Inkscape (http://www.inkscape.org/) -->

<svg
   xmlns:dc="http://purl.org/dc/elements/1.1/"
   xmlns:cc="http://creativecommons.org/ns#"
   xmlns:rdf="http://www.w3.org/1999/02/22-rdf-syntax-ns#"
   xmlns:svg="http://www.w3.org/2000/svg"
   xmlns="http://www.w3.org/2000/svg"
   xmlns:sodipodi="http://sodipodi.sourceforge.net/DTD/sodipodi-0.dtd"
   xmlns:inkscape="http://www.inkscape.org/namespaces/inkscape"
   version="1.1"
   width="16"
   height="16"
   id="svg7384"
   inkscape:version="0.48.4 r9939"
   sodipodi:docname="accessories-calculator-symbolic.svg">
  <sodipodi:namedview
     pagecolor="#ffffff"
     bordercolor="#666666"
     borderopacity="1"
     objecttolerance="10"
     gridtolerance="10"
     guidetolerance="10"
     inkscape:pageopacity="0"
     inkscape:pageshadow="2"
     inkscape:window-width="1122"
     inkscape:window-height="676"
     id="namedview9"
     showgrid="false"
     inkscape:zoom="14.75"
     inkscape:cx="8"
     inkscape:cy="8"
     inkscape:window-x="0"
     inkscape:window-y="30"
     inkscape:window-maximized="0"
     inkscape:current-layer="svg7384" />
  <title
     id="title9167">Gnome Symbolic Icon Theme</title>
  <defs
     id="defs10" />
  <metadata
     id="metadata90">
    <rdf:RDF>
      <cc:Work
         rdf:about="">
        <dc:format>image/svg+xml</dc:format>
        <dc:type
           rdf:resource="http://purl.org/dc/dcmitype/StillImage" />
        <dc:title>Gnome Symbolic Icon Theme</dc:title>
      </cc:Work>
    </rdf:RDF>
  </metadata>
  <path
     d="m 2.031,0 c -0.54216,0 -1,0.32904 -1,0.9375 v 14.125 c 0,0.58636 0.37667,0.9375 1,0.9375 H 15.062 C 15.583,16 16,15.65 16,15.06 V 0.935 c 0,-0.54 -0.395,-0.94 -0.938,-0.94 H 2.031 z M 3,2.03 H 14.031 V 4.9988 H 3 v -2.97 z M 3.188,6 H 4.813 C 4.923,6 5,6.08 5,6.19 v 1.625 c 0,0.1 -0.077,0.18 -0.188,0.18 H 3.187 C 3.077,7.995 3,7.915 3,7.805 V 6.18 C 3,6.08 3.077,6 3.188,6 z m 3,0 H 7.813 C 7.923,6 8,6.08 8,6.19 v 1.625 c 0,0.1 -0.077,0.18 -0.188,0.18 H 6.187 C 6.077,7.995 6,7.915 6,7.805 V 6.18 C 6,6.08 6.077,6 6.188,6 z m 3,0 h 1.625 C 10.923,6 11,6.08 11,6.19 v 1.625 c 0,0.1 -0.077,0.18 -0.188,0.18 H 9.187 C 9.077,7.995 9,7.915 9,7.805 V 6.18 C 9,6.08 9.077,6 9.188,6 z m 3,0 h 1.625 C 13.923,6 14,6.08 14,6.19 v 1.625 c 0,0.1 -0.077,0.18 -0.188,0.18 H 12.187 C 12.077,7.995 12,7.915 12,7.805 V 6.18 C 12,6.08 12.077,6 12.188,6 z m -9,3 H 4.813 C 4.923,9 5,9.08 5,9.19 v 1.625 c 0,0.1 -0.077,0.18 -0.188,0.18 H 3.187 C 3.077,10.995 3,10.915 3,10.805 V 9.18 C 3,9.08 3.077,9 3.188,9 z m 3,0 H 7.813 C 7.923,9 8,9.08 8,9.19 v 1.625 c 0,0.1 -0.077,0.18 -0.188,0.18 H 6.187 C 6.077,10.995 6,10.915 6,10.805 V 9.18 C 6,9.08 6.077,9 6.188,9 z m 3,0 h 1.625 C 10.923,9 11,9.08 11,9.19 v 1.625 c 0,0.1 -0.077,0.18 -0.188,0.18 H 9.187 C 9.077,10.995 9,10.915 9,10.805 V 9.18 C 9,9.08 9.077,9 9.188,9 z m 3,0 h 1.625 C 13.923,9 14,9.08 14,9.19 v 1.625 c 0,0.1 -0.077,0.18 -0.188,0.18 H 12.187 C 12.077,10.995 12,10.915 12,10.805 V 9.18 C 12,9.08 12.077,9 12.188,9 z m -9,3 H 4.813 C 4.923,12 5,12.08 5,12.19 v 1.625 c 0,0.1 -0.077,0.18 -0.188,0.18 H 3.187 C 3.077,13.995 3,13.915 3,13.805 V 12.18 C 3,12.08 3.077,12 3.188,12 z m 3,0 H 7.813 C 7.923,12 8,12.08 8,12.19 v 1.625 c 0,0.1 -0.077,0.18 -0.188,0.18 H 6.187 C 6.077,13.995 6,13.915 6,13.805 V 12.18 C 6,12.08 6.077,12 6.188,12 z m 3,0 h 1.625 C 10.923,12 11,12.08 11,12.19 v 1.625 c 0,0.1 -0.077,0.18 -0.188,0.18 H 9.187 C 9.077,13.995 9,13.915 9,13.805 V 12.18 C 9,12.08 9.077,12 9.188,12 z m 3,0 h 1.625 C 13.923,12 14,12.08 14,12.19 v 1.625 c 0,0.1 -0.077,0.18 -0.188,0.18 H 12.187 C 12.077,13.995 12,13.915 12,13.805 V 12.18 C 12,12.08 12.077,12 12.188,12 z"
     inkscape:connector-curvature="0"
     id="rect5122-3-5"
     style="fill:#bebebe" />
</svg>
