<?xml version="1.0" encoding="UTF-8" standalone="no"?>
<!-- Created with Inkscape (http://www.inkscape.org/) -->

<svg
   xmlns:dc="http://purl.org/dc/elements/1.1/"
   xmlns:cc="http://creativecommons.org/ns#"
   xmlns:rdf="http://www.w3.org/1999/02/22-rdf-syntax-ns#"
   xmlns:svg="http://www.w3.org/2000/svg"
   xmlns="http://www.w3.org/2000/svg"
   xmlns:inkscape="http://www.inkscape.org/namespaces/inkscape"
   version="1.1"
   width="16"
   height="16"
   id="svg4030">
  <defs
     id="defs4032" />
  <metadata
     id="metadata4035">
    <rdf:RDF>
      <cc:Work
         rdf:about="">
        <dc:format>image/svg+xml</dc:format>
        <dc:type
           rdf:resource="http://purl.org/dc/dcmitype/StillImage" />
        <dc:title />
      </cc:Work>
    </rdf:RDF>
  </metadata>
  <g
     id="layer1">
    <path
       d="M 5.5,2 C 4.1192881,2 3,3.1192881 3,4.5 l 0,1 C 2.723,5.5 2.5,5.723 2.5,6 l 0,0.5 c 0,0.5522848 0.2238576,1 0.5,1 C 3.036819,7.5 3.059197,7.452605 3.09375,7.4375 3.2424961,8.1962857 3.5634421,8.8554146 4,9.3125 3.9793563,10.013443 3.8945633,10.052591 3.84375,10.28125 2.699524,11.29001 1.4321802,11.848166 0.1875,12.625 0.07782795,12.716575 0,12.845299 0,13 l 0,1.5 C 0,14.777 0.22300002,15 0.5,15 l 10,0 C 10.777,15 11,14.777 11,14.5 L 11,13 C 11,12.8615 10.934125,12.746625 10.84375,12.65625 9.5799199,11.876597 8.2799698,11.331802 7.15625,10.28125 7.1054367,10.052591 7.0206437,10.013443 7,9.3125 7.4365579,8.8554146 7.7575039,8.1962857 7.90625,7.4375 7.9408033,7.4526054 7.963181,7.5 8,7.5 8.2761424,7.5 8.5,7.0522848 8.5,6.5 L 8.5,6 C 8.5,5.723 8.277,5.5 8,5.5 l 0,-1 C 8,3.1192881 6.8807119,2 5.5,2 z m 6.25,2 C 10.683086,4 9.8125,4.875414 9.8125,5.9375 l 0,0.75 c -0.1605342,0 -0.2852521,0.111863 -0.34375,0.25 C 9.4642,6.969106 9.443179,6.999973 9.4375,7.03125 c -0.00117,0.01222 0,0.018716 0,0.03125 l 0,0.03125 0,0.375 c 0,0.4248344 0.1616172,0.75 0.375,0.75 0.028451,0 0.067049,-0.019629 0.09375,-0.03125 0.114941,0.5836806 0.35016,1.085896 0.6875,1.4375 -0.01595,0.539187 -0.08574,0.574109 -0.125,0.75 -0.221043,0.193992 -0.455725,0.373195 -0.6875,0.53125 0.500961,0.290278 1.032058,0.559744 1.59375,0.90625 a 1.0017315,1.0017315 0 0 1 0.1875,0.125 C 11.780878,12.155878 12,12.543895 12,13 l 0,1.5 c 0,0.177143 -0.03464,0.340794 -0.09375,0.5 L 15.625,15 C 15.839046,15 16,14.838077 16,14.625 l 0,-2.15625 c 0,-0.106538 -0.05515,-0.21173 -0.125,-0.28125 -0.976596,-0.599733 -1.975421,-1.004383 -2.84375,-1.8125 -0.03927,-0.175891 -0.109049,-0.210813 -0.125,-0.75 0.33734,-0.351604 0.60381,-0.8538193 0.71875,-1.4375 0.0267,0.011621 0.03404,0.03125 0.0625,0.03125 0.213383,0 0.375,-0.3251656 0.375,-0.75 l 0,-0.40625 c 0,-0.2130769 -0.160955,-0.375 -0.375,-0.375 l 0,-0.75 C 13.687496,4.8754138 12.816914,4 11.75,4 z"
       inkscape:connector-curvature="0"
       id="path2999"
       style="color:#000000;fill:#bebebe;fill-opacity:1;fill-rule:nonzero;stroke:none;stroke-width:1;marker:none;visibility:visible;display:inline;overflow:visible;enable-background:new" />
  </g>
</svg>
