<?xml version="1.0" encoding="UTF-8" standalone="no"?>
<!-- Created with Inkscape (http://www.inkscape.org/) -->

<svg
   xmlns:dc="http://purl.org/dc/elements/1.1/"
   xmlns:cc="http://creativecommons.org/ns#"
   xmlns:rdf="http://www.w3.org/1999/02/22-rdf-syntax-ns#"
   xmlns:svg="http://www.w3.org/2000/svg"
   xmlns="http://www.w3.org/2000/svg"
   xmlns:sodipodi="http://sodipodi.sourceforge.net/DTD/sodipodi-0.dtd"
   xmlns:inkscape="http://www.inkscape.org/namespaces/inkscape"
   version="1.1"
   width="16"
   height="16"
   id="svg4060"
   inkscape:version="0.48.4 r9939"
   sodipodi:docname="utilities-terminal-symbolic.svg">
  <sodipodi:namedview
     pagecolor="#ffffff"
     bordercolor="#666666"
     borderopacity="1"
     objecttolerance="10"
     gridtolerance="10"
     guidetolerance="10"
     inkscape:pageopacity="0"
     inkscape:pageshadow="2"
     inkscape:window-width="1440"
     inkscape:window-height="845"
     id="namedview28"
     showgrid="true"
     inkscape:zoom="40.1875"
     inkscape:cx="7.0171073"
     inkscape:cy="8.9953344"
     inkscape:window-x="0"
     inkscape:window-y="30"
     inkscape:window-maximized="1"
     inkscape:current-layer="svg4060">
    <inkscape:grid
       type="xygrid"
       id="grid3019" />
  </sodipodi:namedview>
  <defs
     id="defs4062" />
  <metadata
     id="metadata4065">
    <rdf:RDF>
      <cc:Work
         rdf:about="">
        <dc:format>image/svg+xml</dc:format>
        <dc:type
           rdf:resource="http://purl.org/dc/dcmitype/StillImage" />
        <dc:title></dc:title>
      </cc:Work>
    </rdf:RDF>
  </metadata>
  <path
     style="color:#000000;fill:#bebebe;fill-opacity:1;fill-rule:nonzero;stroke:none;stroke-width:1;marker:none;visibility:visible;display:inline;overflow:visible;enable-background:accumulate"
     d="M 2.5,1 C 1.6689999,1 1,1.669 1,2.5 l 0,11 C 1,14.331 1.6689998,15 2.5,15 l 11,0 c 0.831,0 1.5,-0.669 1.5,-1.5 l 0,-11 C 15,1.669 14.331,1 13.5,1 z m 1.3125,1.6875 0.65625,0 0,0.65625 C 4.9143841,3.3620613 5.2787463,3.4498895 5.6875,3.625 L 5.375,4.34375 C 5.0548951,4.2168365 4.813783,4.12181 4.46875,4.09375 l 0,0.875 C 4.9039223,5.144198 5.3365632,5.302609 5.625,5.6875 5.7328193,5.8379047 5.782656,6.0684653 5.78125,6.25 5.7966142,6.6254707 5.5329892,6.9553818 5.1875,7.125 4.9388035,7.2576383 4.7496233,7.3497581 4.46875,7.375 l 0,0.65625 -0.65625,0 0,-0.65625 C 3.3536457,7.3660263 3.0158495,7.2728593 2.59375,7.09375 l 0,-0.78125 C 3.0154601,6.5027767 3.3484001,6.5870923 3.8125,6.625 l 0,-0.9375 C 3.3962725,5.5303002 3.0992899,5.4104682 2.8125,5.0625 2.5158952,4.6741435 2.5025576,4.0307523 2.90625,3.71875 3.1875164,3.485218 3.4503766,3.4095955 3.8125,3.375 z m 0,1.4375 C 3.6346545,4.1450322 3.5230522,4.2291889 3.53125,4.4375 3.5232587,4.6581808 3.6368255,4.7352383 3.8125,4.8125 z m 0.65625,1.71875 0,0.75 C 4.6659846,6.5674659 4.82249,6.5073505 4.8125,6.28125 4.8085735,6.0596754 4.6429787,5.928773 4.46875,5.84375 z M 7,8 11,8 11,9 7,9 z"
     id="path3891"
     inkscape:connector-curvature="0"
     sodipodi:nodetypes="sssssssssccccccccccccccccccccccccccccccccccc" />
</svg>
