<?xml version="1.0" encoding="UTF-8" standalone="no"?>
<svg
   version="1.1"
   width="64"
   height="64"
   id="svg6333"
   xmlns:xlink="http://www.w3.org/1999/xlink"
   xmlns="http://www.w3.org/2000/svg"
   xmlns:svg="http://www.w3.org/2000/svg"
   xmlns:rdf="http://www.w3.org/1999/02/22-rdf-syntax-ns#"
   xmlns:cc="http://creativecommons.org/ns#"
   xmlns:dc="http://purl.org/dc/elements/1.1/">
  <defs
     id="defs6335">
    <linearGradient
       id="linearGradient2991">
      <stop
         id="stop2983"
         style="stop-color:#ffffff;stop-opacity:1"
         offset="0" />
      <stop
         id="stop2985"
         style="stop-color:#ffffff;stop-opacity:0.23529412"
         offset="0.27872342" />
      <stop
         id="stop2987"
         style="stop-color:#ffffff;stop-opacity:0.15686275"
         offset="0.71692932" />
      <stop
         id="stop2989"
         style="stop-color:#ffffff;stop-opacity:0.39215687"
         offset="1" />
    </linearGradient>
    <linearGradient
       x1="23.99999"
       y1="4.999989"
       x2="23.99999"
       y2="43"
       id="linearGradient3381-5-4"
       xlink:href="#linearGradient3924-2-2-5-8"
       gradientUnits="userSpaceOnUse"
       gradientTransform="matrix(1.4324324,0,0,1.4324324,-2.378381,-2.3783728)" />
    <linearGradient
       id="linearGradient3924-2-2-5-8">
      <stop
         id="stop3926-9-4-9-6"
         style="stop-color:#ffffff;stop-opacity:1"
         offset="0" />
      <stop
         id="stop3928-9-8-6-5"
         style="stop-color:#ffffff;stop-opacity:0.23529412"
         offset="0.06316455" />
      <stop
         id="stop3930-3-5-1-7"
         style="stop-color:#ffffff;stop-opacity:0.15686275"
         offset="0.95056331" />
      <stop
         id="stop3932-8-0-4-8"
         style="stop-color:#ffffff;stop-opacity:0.39215687"
         offset="1" />
    </linearGradient>
    <radialGradient
       cx="4.9929786"
       cy="43.5"
       r="2.5"
       fx="4.9929786"
       fy="43.5"
       id="radialGradient3337-2-2"
       xlink:href="#linearGradient3688-166-749-4-0-3-8"
       gradientUnits="userSpaceOnUse"
       gradientTransform="matrix(2.4045407,0,0,0.99999998,41.985755,15.500001)" />
    <linearGradient
       id="linearGradient3688-166-749-4-0-3-8">
      <stop
         id="stop2883-4-0-1-8"
         style="stop-color:#181818;stop-opacity:1"
         offset="0" />
      <stop
         id="stop2885-9-2-9-6"
         style="stop-color:#181818;stop-opacity:0"
         offset="1" />
    </linearGradient>
    <radialGradient
       cx="4.9929786"
       cy="43.5"
       r="2.5"
       fx="4.9929786"
       fy="43.5"
       id="radialGradient3339-1-4"
       xlink:href="#linearGradient3688-464-309-9-2-4-2"
       gradientUnits="userSpaceOnUse"
       gradientTransform="matrix(2.4045407,0,0,0.99999998,-22.014244,-102.5)" />
    <linearGradient
       id="linearGradient3688-464-309-9-2-4-2">
      <stop
         id="stop2889-7-9-6-9"
         style="stop-color:#181818;stop-opacity:1"
         offset="0" />
      <stop
         id="stop2891-6-6-1-7"
         style="stop-color:#181818;stop-opacity:0"
         offset="1" />
    </linearGradient>
    <linearGradient
       id="linearGradient3702-501-757-8-4-1-1">
      <stop
         id="stop2895-8-9-9-1"
         style="stop-color:#181818;stop-opacity:0"
         offset="0" />
      <stop
         id="stop2897-7-8-7-7"
         style="stop-color:#181818;stop-opacity:1"
         offset="0.5" />
      <stop
         id="stop2899-4-5-1-5"
         style="stop-color:#181818;stop-opacity:0"
         offset="1" />
    </linearGradient>
    <linearGradient
       x1="25.058096"
       y1="47.027729"
       x2="25.058096"
       y2="39.999443"
       id="linearGradient6394"
       xlink:href="#linearGradient3702-501-757-8-4-1-1"
       gradientUnits="userSpaceOnUse"
       gradientTransform="matrix(1.5714286,0,0,0.7142857,-5.7142853,27.928572)" />
    <linearGradient
       xlink:href="#linearGradient2991"
       id="linearGradient2846"
       gradientUnits="userSpaceOnUse"
       gradientTransform="matrix(1.3970224,0,0,1.3969654,-10.901584,5.6644025)"
       x1="34.502472"
       y1="3.8041983"
       x2="23.072363"
       y2="46.461945" />
    <linearGradient
       y2="47.013336"
       x2="25.132275"
       y1="0.98520643"
       x1="25.132275"
       gradientTransform="matrix(1.5714252,0,0,0.95604679,-5.7142,12.90359)"
       gradientUnits="userSpaceOnUse"
       id="linearGradient4523"
       xlink:href="#linearGradient5736" />
    <linearGradient
       id="linearGradient5736">
      <stop
         offset="0"
         style="stop-color:#586e75;stop-opacity:1"
         id="stop5738" />
      <stop
         offset="1"
         style="stop-color:#073642;stop-opacity:1"
         id="stop5740" />
    </linearGradient>
    <linearGradient
       x1="25.132275"
       y1="0.98520643"
       x2="25.132275"
       y2="47.013336"
       id="linearGradient4285-6"
       xlink:href="#linearGradient4337"
       gradientUnits="userSpaceOnUse"
       gradientTransform="matrix(1.5714252,0,0,0.95604679,-3.7142,13.088186)" />
    <linearGradient
       id="linearGradient4337">
      <stop
         offset="0"
         style="stop-color:#fdf6e3;stop-opacity:1"
         id="stop4339" />
      <stop
         offset="1"
         style="stop-color:#eee8d5;stop-opacity:1"
         id="stop4341" />
    </linearGradient>
    <linearGradient
       xlink:href="#linearGradient5736"
       id="linearGradient5857"
       gradientUnits="userSpaceOnUse"
       gradientTransform="matrix(1.5163817,0.4032233,-0.24859898,0.92087263,1.95455,0.18711795)"
       x1="17.233864"
       y1="-1.6629155"
       x2="26.343443"
       y2="54.477512" />
  </defs>
  <metadata
     id="metadata6338">
    <rdf:RDF>
      <cc:Work
         rdf:about="">
        <dc:format>image/svg+xml</dc:format>
        <dc:type
           rdf:resource="http://purl.org/dc/dcmitype/StillImage" />
      </cc:Work>
    </rdf:RDF>
  </metadata>
  <rect
     style="color:#000000;font-variation-settings:normal;display:inline;overflow:visible;visibility:visible;vector-effect:none;fill:url(#linearGradient4523);fill-opacity:1;fill-rule:nonzero;stroke:#001921;stroke-width:1;stroke-linecap:butt;stroke-linejoin:round;stroke-miterlimit:4;stroke-dasharray:none;stroke-dashoffset:0;stroke-opacity:0.501961;-inkscape-stroke:none;marker:none;enable-background:accumulate;stop-color:#000000;opacity:1;stop-opacity:1"
     id="rect5505-21-1-5-53-1"
     y="12.372469"
     x="-4.1932392"
     ry="6.0000186"
     rx="5.9999809"
     height="53.638203"
     width="53.640388"
     transform="matrix(0.96592888,-0.25880766,0.25883042,0.96592278,0,0)" />
  <rect
     style="fill:none;stroke:url(#linearGradient2846);stroke-width:0.999992;stroke-linecap:round;stroke-linejoin:round;stroke-miterlimit:4;stroke-dasharray:none;stroke-dashoffset:0;stroke-opacity:1;opacity:0.3"
     id="rect6741-5-0-2-3-8"
     y="13.347707"
     x="-3.2179594"
     ry="5.0000157"
     height="51.687721"
     width="51.689831"
     rx="4.9999843"
     transform="matrix(0.96592888,-0.25880766,0.25883042,0.96592278,0,0)" />
  <rect
     style="opacity:0.6;fill:url(#radialGradient3337-2-2);fill-opacity:1;stroke:none;stroke-width:1.06199"
     id="rect2801-5-5-7-9"
     y="56.5"
     x="54"
     height="5"
     width="6" />
  <rect
     style="opacity:0.6;fill:url(#radialGradient3339-1-4);fill-opacity:1;stroke:none;stroke-width:1.06199"
     id="rect3696-3-0-3-7"
     transform="scale(-1)"
     y="-61.5"
     x="-10"
     height="5"
     width="6" />
  <rect
     style="opacity:0.6;fill:url(#linearGradient6394);fill-opacity:1;stroke:none;stroke-width:1.06199"
     id="rect3700-5-6-8-4"
     y="56.5"
     x="10"
     height="5.0000005"
     width="44" />
  <rect
     style="color:#000000;display:inline;overflow:visible;visibility:visible;fill:url(#linearGradient4285-6);fill-opacity:1;fill-rule:nonzero;stroke:#aa8e37;stroke-width:1;stroke-opacity:0.501961;marker:none;enable-background:accumulate;font-variation-settings:normal;opacity:1;vector-effect:none;stroke-linecap:butt;stroke-linejoin:round;stroke-miterlimit:4;stroke-dasharray:none;stroke-dashoffset:0;-inkscape-stroke:none;stop-color:#000000;stop-opacity:1"
     id="rect5505-21-1-5-53"
     y="4.5000019"
     x="4.4999986"
     ry="6"
     rx="6"
     height="55"
     width="55" />
  <rect
     style="opacity:1;fill:none;stroke:url(#linearGradient3381-5-4);stroke-width:0.999997;stroke-linecap:round;stroke-linejoin:round;stroke-miterlimit:4;stroke-dasharray:none;stroke-dashoffset:0;stroke-opacity:1"
     id="rect6741-5-0-2-3"
     y="5.5"
     x="5.4999986"
     ry="5"
     height="53"
     width="53"
     rx="5" />
  <path
     style="opacity:0.2;fill:none;stroke:#aa8e37;stroke-width:1px;stroke-linecap:butt;stroke-linejoin:miter;stroke-opacity:1"
     id="path3715"
     d="m 15,12.5 h 3.1305 m 0.447215,0 h 2.906893 m 0.467923,0 h 2.593843 m 0.426507,0 h 1.118035 m 0.447215,0 h 2.5044 m 0.491936,0 h 6.574051 m 0.447217,0 h 5.0088 m 0.447215,0 h 1.520528 M 15,15.5 h 4.85398 m 0.564726,0 h 2.319342 m 0.428752,0 h 1.144554 m 0.465677,0 h 2.136455 m 0.447216,0 h 2.191039 m 0.413597,0 h 3.440449 m 0.447217,0 h 4.53876 M 15,18.486685 h 4.108403 m 0.431588,0 h 6.766176 m 0.41469,0 h 3.281449 m 0.420587,0 h 3.069756 m 0.440223,0 h 2.614989 m 0.420589,0 4.112718,0.02663 M 15,21.5 h 5.712238 m 0.448559,0 h 6.173855 m 0.426507,0 h 2.426115 m 0.447216,0 h 5.774602 m 0.388667,0 h 3.957889 m 0.447216,0 h 1.566482 m 0.447216,0 h 0.866487 M 15,24.5 h 2.132227 m 0.655099,0 h 7.895013 M 15,37.5 h 4.85398 m 0.564726,0 h 2.319342 m 0.428752,0 h 1.144554 m 0.465677,0 h 2.136455 m 0.447216,0 h 2.191039 m 0.413597,0 h 3.440449 M 15,41.459095 h 4.108403 m 0.431588,0 h 6.766176 m 0.41469,0 h 3.281449 m 11.59593,0.08181 h 6.70226 M 15,34.5 h 5.712238 m 0.448559,0 h 6.173855 m 0.426507,0 h 2.426115 m 0.447216,0 h 5.774602 M 15,28.5 h 3.1305 m 0.447215,0 h 2.906893 m 0.467923,0 h 2.593843 m 0.426507,0 h 1.118035 m 0.447215,0 h 2.5044 m 0.491936,0 h 6.574051 m 0.447217,0 h 5.0088 M 15,31.5 h 5.272165 m 0.414708,0 h 5.598375 m 0.426507,0 h 2.189153 m 0.413364,0 h 5.266826 m 0.422519,0 h 5.752031 M 15,44.500488 h 4.926743 m 0.528863,0 h 2.172067 m 0.508746,0 h 1.083366 m 0.344859,0 h 2.138627 m 0.283921,0 h 11.322321 m 0.53276,0 h 3.022388 m 0.406393,0 h 0.763135 M 20.612761,47.5 h 1.607122 M 15,47.5 h 5.1423 m 2.488609,0 h 3.739246 m 0.395544,0 h 5.488981 m 0.426507,0 h 3.72366 m 0.374837,0 h 0.767317 m 0.419558,0 h 4.7284 m 0.483405,0 h 2.475554 m -25.041157,3 h 2.269174 M 15,50.5 h 5.1423 m 3.231399,0 h 3.190227" />
  <path
     id="path4517"
     d="m 37.000465,24.999999 c 1.44537,1.4e-5 2.21149,0.214124 2.9375,0.65625 0.71935,0.436176 1.0625,1.130436 1.0625,2.0625 v 2.78125 c 0,0.555667 0.2479,0.943915 0.6875,1.21875 0.43294,0.268875 1.41331,0.437506 2.3125,0.4375 v 1.6875 c -1.77173,4e-6 -3,0.576183 -3,1.6875 v 2.53125 c 0,1.021697 -0.32727,1.79591 -1,2.25 -0.67938,0.46006 -1.46139,0.675547 -3,0.6875 v -1.625 c 0.76598,-0.01195 1.16031,-0.155308 1.5,-0.40625 0.3397,-0.250943 0.5,-0.603813 0.5,-1.09375 v -2.6875 c 0,-1.20094 0.59971,-1.909901 2.125,-2.125 v -0.125 c -1.52529,-0.233013 -2.125,-0.967249 -2.125,-2.15625 v -2.65625 c 0,-0.489927 -0.1603,-0.81752 -0.5,-1.0625 -0.34635,-0.250932 -0.74068,-0.407615 -1.5,-0.4375 z m -10,0 v 1.625 c -0.75932,0.02989 -1.15365,0.186568 -1.5,0.4375 -0.3397,0.24498 -0.5,0.572573 -0.5,1.0625 v 2.65625 c 0,1.189001 -0.59972,1.923237 -2.125,2.15625 v 0.125 c 1.52528,0.215099 2.125,0.92406 2.125,2.125 v 2.6875 c 0,0.489937 0.1603,0.842807 0.5,1.09375 0.33969,0.250942 0.73402,0.3943 1.5,0.40625 v 1.625 c -1.53862,-0.01195 -2.32062,-0.22744 -3,-0.6875 -0.67273,-0.45409 -1,-1.228303 -1,-2.25 v -2.53125 c 0,-1.111317 -1.22827,-1.687496 -3,-1.6875 v -1.6875 c 0.89919,6e-6 1.87955,-0.168625 2.3125,-0.4375 0.4396,-0.274835 0.6875,-0.663083 0.6875,-1.21875 v -2.78125 c 0,-0.932064 0.34314,-1.626324 1.0625,-2.0625 0.72601,-0.442126 1.49213,-0.656236 2.9375,-0.65625 z"
     style="color:#000000;font-style:normal;font-variant:normal;font-weight:600;font-stretch:normal;font-size:19px;line-height:125%;font-family:'Open Sans';-inkscape-font-specification:'Open Sans Semi-Bold';text-align:start;letter-spacing:0px;word-spacing:0px;writing-mode:lr-tb;text-anchor:start;clip-rule:nonzero;display:inline;overflow:visible;visibility:visible;isolation:auto;mix-blend-mode:normal;color-interpolation:sRGB;color-interpolation-filters:linearRGB;solid-color:#000000;solid-opacity:1;fill:#ffffff;fill-opacity:1;fill-rule:nonzero;stroke:none;stroke-width:1;stroke-linecap:butt;stroke-linejoin:miter;stroke-miterlimit:4;stroke-dasharray:none;stroke-dashoffset:0;stroke-opacity:1;marker:none;color-rendering:auto;image-rendering:auto;shape-rendering:auto;text-rendering:auto;enable-background:accumulate" />
  <path
     style="color:#000000;font-style:normal;font-variant:normal;font-weight:600;font-stretch:normal;font-size:19px;line-height:125%;font-family:'Open Sans';-inkscape-font-specification:'Open Sans Semi-Bold';text-align:start;letter-spacing:0px;word-spacing:0px;writing-mode:lr-tb;text-anchor:start;clip-rule:nonzero;display:inline;overflow:visible;visibility:visible;isolation:auto;mix-blend-mode:normal;color-interpolation:sRGB;color-interpolation-filters:linearRGB;solid-color:#000000;solid-opacity:1;fill:url(#linearGradient5857);fill-opacity:1;fill-rule:nonzero;stroke:none;stroke-width:1;stroke-linecap:butt;stroke-linejoin:miter;stroke-miterlimit:4;stroke-dasharray:none;stroke-dashoffset:0;stroke-opacity:1;marker:none;color-rendering:auto;image-rendering:auto;shape-rendering:auto;text-rendering:auto;enable-background:accumulate"
     d="m 27.000465,23.999999 c -1.44537,1.4e-5 -2.21149,0.214124 -2.9375,0.65625 -0.71935,0.436176 -1.0625,1.130436 -1.0625,2.0625 v 2.78125 c 0,0.555667 -0.2479,0.943915 -0.6875,1.21875 -0.43294,0.268875 -1.41331,0.437506 -2.3125,0.4375 v 1.6875 c 1.77173,4e-6 3,0.576183 3,1.6875 v 2.53125 c 0,1.021697 0.32727,1.79591 1,2.25 0.67938,0.46006 1.46139,0.675547 3,0.6875 v -1.625 c -0.76598,-0.01195 -1.16031,-0.155308 -1.5,-0.40625 -0.3397,-0.250943 -0.5,-0.603813 -0.5,-1.09375 v -2.6875 c 0,-1.20094 -0.59971,-1.909901 -2.125,-2.125 v -0.125 c 1.52529,-0.233013 2.125,-0.967249 2.125,-2.15625 v -2.65625 c 0,-0.489927 0.1603,-0.81752 0.5,-1.0625 0.34635,-0.250932 0.74068,-0.407615 1.5,-0.4375 z m 10,0 v 1.625 c 0.75932,0.02989 1.15365,0.186568 1.5,0.4375 0.3397,0.24498 0.5,0.572573 0.5,1.0625 v 2.65625 c 0,1.189001 0.59972,1.923237 2.125,2.15625 v 0.125 c -1.52528,0.215099 -2.125,0.92406 -2.125,2.125 v 2.6875 c 0,0.489937 -0.1603,0.842807 -0.5,1.09375 -0.33969,0.250942 -0.73402,0.3943 -1.5,0.40625 v 1.625 c 1.53862,-0.01195 2.32062,-0.22744 3,-0.6875 0.67273,-0.45409 1,-1.228303 1,-2.25 v -2.53125 c 0,-1.111317 1.22827,-1.687496 3,-1.6875 v -1.6875 c -0.89919,6e-6 -1.87955,-0.168625 -2.3125,-0.4375 -0.4396,-0.274835 -0.6875,-0.663083 -0.6875,-1.21875 v -2.78125 c 0,-0.932064 -0.34314,-1.626324 -1.0625,-2.0625 -0.72601,-0.442126 -1.49213,-0.656236 -2.9375,-0.65625 z"
     id="path3873-9-5-7" />
</svg>
