<?xml version="1.0" encoding="UTF-8" standalone="no"?>
<svg
   id="svg13986"
   height="64"
   width="64"
   version="1.1"
   xml:space="preserve"
   xmlns:xlink="http://www.w3.org/1999/xlink"
   xmlns="http://www.w3.org/2000/svg"
   xmlns:svg="http://www.w3.org/2000/svg"
   xmlns:rdf="http://www.w3.org/1999/02/22-rdf-syntax-ns#"
   xmlns:cc="http://creativecommons.org/ns#"
   xmlns:dc="http://purl.org/dc/elements/1.1/"><defs
     id="defs13988"><linearGradient
       id="linearGradient1077"><stop
         id="stop1069"
         style="stop-color:#ffffff;stop-opacity:1"
         offset="0" /><stop
         id="stop1071"
         style="stop-color:#ffffff;stop-opacity:0.23529412"
         offset="0.09530682" /><stop
         id="stop1073"
         style="stop-color:#ffffff;stop-opacity:0.15686275"
         offset="0.94268352" /><stop
         id="stop1075"
         style="stop-color:#ffffff;stop-opacity:0.39215687"
         offset="1" /></linearGradient><linearGradient
       id="linearGradient1041"><stop
         id="stop1033"
         style="stop-color:#ffffff;stop-opacity:1"
         offset="0" /><stop
         id="stop1035"
         style="stop-color:#ffffff;stop-opacity:0.23529412"
         offset="0.0832339" /><stop
         id="stop1037"
         style="stop-color:#ffffff;stop-opacity:0.15686275"
         offset="0.94268352" /><stop
         id="stop1039"
         style="stop-color:#ffffff;stop-opacity:0.39215687"
         offset="1" /></linearGradient><linearGradient
       id="linearGradient3688-166-749-4-0-3-8"><stop
         offset="0"
         style="stop-color:#181818;stop-opacity:1"
         id="stop2883-4-0-1-8" /><stop
         offset="1"
         style="stop-color:#181818;stop-opacity:0"
         id="stop2885-9-2-9-6" /></linearGradient><linearGradient
       id="linearGradient3702-501-757-8-4-1-1"><stop
         offset="0"
         style="stop-color:#181818;stop-opacity:0"
         id="stop2895-8-9-9-1" /><stop
         offset="0.5"
         style="stop-color:#181818;stop-opacity:1"
         id="stop2897-7-8-7-7" /><stop
         offset="1"
         style="stop-color:#181818;stop-opacity:0"
         id="stop2899-4-5-1-5" /></linearGradient><linearGradient
       x1="25.058096"
       y1="47.027729"
       x2="25.058096"
       y2="39.999443"
       id="linearGradient6394"
       xlink:href="#linearGradient3702-501-757-8-4-1-1"
       gradientUnits="userSpaceOnUse"
       gradientTransform="matrix(1.5714286,0,0,0.7142857,-5.7142853,27.928572)" /><linearGradient
       id="linearGradient3104-6"><stop
         offset="0"
         style="stop-color:#000000;stop-opacity:0.31782946"
         id="stop3106-3" /><stop
         offset="1"
         style="stop-color:#000000;stop-opacity:0.24031007"
         id="stop3108-9" /></linearGradient><linearGradient
       id="linearGradient3600-9-51"><stop
         offset="0"
         style="stop-color:#f4f4f4;stop-opacity:1"
         id="stop3602-0-0" /><stop
         offset="1"
         style="stop-color:#dbdbdb;stop-opacity:1"
         id="stop3604-9-04" /></linearGradient><linearGradient
       id="linearGradient909"><stop
         id="stop901"
         style="stop-color:#64baff;stop-opacity:1"
         offset="0" /><stop
         id="stop907"
         style="stop-color:#3689e6;stop-opacity:1"
         offset="1" /></linearGradient><linearGradient
       id="linearGradient4270-4"><stop
         id="stop4272-9"
         style="stop-color:#ffffff;stop-opacity:1"
         offset="0" /><stop
         id="stop4274-0"
         style="stop-color:#ffffff;stop-opacity:0.23529412"
         offset="0.09665164" /><stop
         id="stop4276-9"
         style="stop-color:#ffffff;stop-opacity:0.15686275"
         offset="0.94268352" /><stop
         id="stop4278-1"
         style="stop-color:#ffffff;stop-opacity:0.39215687"
         offset="1" /></linearGradient><linearGradient
       xlink:href="#linearGradient1041"
       id="linearGradient15429"
       gradientUnits="userSpaceOnUse"
       gradientTransform="matrix(1.4324324,0,0,1.1081081,-2.378375,11.33418)"
       x1="23.99999"
       y1="-1.2218014"
       x2="23.99999"
       y2="42.091705" /><linearGradient
       xlink:href="#linearGradient909"
       id="linearGradient15431"
       gradientUnits="userSpaceOnUse"
       gradientTransform="matrix(1,0,0,0.81818188,0,10.81818)"
       x1="31.781376"
       y1="-11.234498"
       x2="31.781376"
       y2="67.800774" /><linearGradient
       xlink:href="#linearGradient4270-4"
       id="linearGradient15433"
       gradientUnits="userSpaceOnUse"
       gradientTransform="matrix(1.4324324,0,0,1.1621622,-2.378375,9.03688)"
       x1="23.99999"
       y1="5.9093657"
       x2="23.99999"
       y2="42.091705" /><radialGradient
       cx="4.9929786"
       cy="43.5"
       r="2.5"
       fx="4.9929786"
       fy="43.5"
       id="radialGradient3337-2-2"
       xlink:href="#linearGradient3688-166-749-4-0-3-8"
       gradientUnits="userSpaceOnUse"
       gradientTransform="matrix(2.4045407,0,0,0.99999998,41.985755,15.500001)" /><radialGradient
       cx="4.9929786"
       cy="43.5"
       r="2.5"
       fx="4.9929786"
       fy="43.5"
       id="radialGradient3339-1-4"
       xlink:href="#linearGradient3688-166-749-4-0-3-8"
       gradientUnits="userSpaceOnUse"
       gradientTransform="matrix(2.4045407,0,0,0.99999998,-22.014244,-102.5)" /><linearGradient
       xlink:href="#linearGradient1077"
       id="linearGradient15429-3"
       gradientUnits="userSpaceOnUse"
       gradientTransform="matrix(1.4324324,0,0,1.1081081,-2.378375,11.33418)"
       x1="11.575833"
       y1="-4.7840924"
       x2="11.575833"
       y2="42.193623" /><linearGradient
       xlink:href="#linearGradient3104-6"
       id="linearGradient3170"
       gradientUnits="userSpaceOnUse"
       gradientTransform="matrix(0.80749686,0,0,0.89471714,10.835333,-0.132171)"
       x1="12.879265"
       y1="66.950981"
       x2="12.879265"
       y2="4.7802162" /><linearGradient
       xlink:href="#linearGradient3600-9-51"
       id="linearGradient1512"
       gradientUnits="userSpaceOnUse"
       gradientTransform="matrix(1.3804479,0,0,1.327717,-70.158247,-1.4115461)"
       x1="74.838791"
       y1="4.535933"
       x2="74.838791"
       y2="49.779099" /></defs><metadata
     id="metadata13991"><rdf:RDF><cc:Work
         rdf:about=""><dc:format>image/svg+xml</dc:format><dc:type
           rdf:resource="http://purl.org/dc/dcmitype/StillImage" /></cc:Work></rdf:RDF></metadata><path
     id="rect5505-21-3-8-5-2-9-1-7-8-7-8-1"
     style="color:#000000;font-variation-settings:normal;display:inline;overflow:visible;visibility:visible;fill:url(#linearGradient1512);fill-opacity:1;fill-rule:nonzero;stroke:none;stroke-width:0.99983468;stroke-linecap:butt;stroke-linejoin:miter;stroke-miterlimit:4;stroke-dasharray:none;stroke-dashoffset:0;stroke-opacity:1;marker:none;enable-background:accumulate;stop-color:#000000;opacity:1;vector-effect:none;-inkscape-stroke:none;stop-opacity:1"
     d="M 10.5,5.0039062 C 7.4459419,5.0039062 5.0039062,7.4459419 5.0039062,10.5 V 46.996094 H 58.996094 V 14.5 c 0,-3.054058 -2.442036,-5.4960938 -5.496094,-5.4960938 H 30.046875 A 0.50301378,0.50301378 0 0 1 29.998047,9 c 0,0 -2.421334,-0.2478661 -4.705078,-2.4863281 l -0.0039,-0.00391 C 24.304204,5.5738641 22.976321,5.0039062 21.5,5.0039062 Z"
     transform="matrix(1.0001447,0,0,1.000186,-0.00463022,-0.00483712)" /><path
     id="rect5505-21-3-8-5-2-9-1-7-8-0-6-6-3"
     style="color:#000000;font-variation-settings:normal;display:inline;overflow:visible;visibility:visible;fill:none;fill-opacity:1;fill-rule:nonzero;stroke:url(#linearGradient3170);stroke-width:0.999922;stroke-linecap:butt;stroke-linejoin:round;stroke-miterlimit:4;stroke-dasharray:none;stroke-dashoffset:0;stroke-opacity:1;marker:none;enable-background:accumulate;stop-color:#000000;opacity:1;vector-effect:none;-inkscape-stroke:none;stop-opacity:1"
     d="m 59.49953,19.5 v -5 c 0,-3.324 -2.676,-6 -6,-6 H 30.04602 c 0,0 -2.23097,-0.21547 -4.40528,-2.34924 C 24.56544,5.12691 23.10839,4.5 21.49953,4.5 h -11 c -3.324,0 -6,2.676 -6,6 v 9" /><path
     id="rect5505-21-3-8-5-2-9-1-7-8-0-6-4-8-7"
     style="color:#000000;font-variation-settings:normal;display:inline;overflow:visible;visibility:visible;fill:none;fill-opacity:1;fill-rule:nonzero;stroke:url(#linearGradient15429);stroke-width:1;stroke-linecap:round;stroke-linejoin:round;stroke-miterlimit:4;stroke-dasharray:none;stroke-dashoffset:0;stroke-opacity:1;marker:none;enable-background:accumulate;stop-color:#000000"
     d="M 58.500002,47.27464 C 58.489602,36.22162 58.520782,25.16751 58.484442,14.11517 58.347691,11.49872 55.882759,9.33447 53.274609,9.5 45.454334,9.4843 37.630651,9.5313 29.8125,9.4766" /><path
     id="rect5505-21-3-8-5-2-9-1-7-8-0-6-4-8-7-5"
     style="color:#000000;font-variation-settings:normal;display:inline;overflow:visible;visibility:visible;fill:none;fill-opacity:1;fill-rule:nonzero;stroke:url(#linearGradient15429-3);stroke-width:1;stroke-linecap:round;stroke-linejoin:round;stroke-miterlimit:4;stroke-dasharray:none;stroke-dashoffset:0;stroke-opacity:1;marker:none;enable-background:accumulate;stop-color:#000000"
     d="M 29.8125,9.4766 C 27.755508,9.1503 26.003386,7.91429 24.522198,6.51602 23.109367,5.34319 21.205489,5.47837 19.490234,5.5 16.398484,5.505 13.306411,5.4895 10.214844,5.508 V 5.50781 C 7.599997,5.59551 5.373462,8.012 5.5,10.62539 5.51023,23.04509 5.47954,35.46583 5.51534,47.88487" /><g
     id="g866"><rect
       style="opacity:0.6;fill:url(#radialGradient3337-2-2);fill-opacity:1;stroke:none;stroke-width:1.06199"
       id="rect2801-5-5-7-9"
       y="56.5"
       x="54"
       height="5"
       width="6" /><rect
       style="opacity:0.6;fill:url(#radialGradient3339-1-4);fill-opacity:1;stroke:none;stroke-width:1.06199"
       id="rect3696-3-0-3-7"
       transform="scale(-1)"
       y="-61.5"
       x="-10"
       height="5"
       width="6" /><rect
       style="opacity:0.6;fill:url(#linearGradient6394);fill-opacity:1;stroke:none;stroke-width:1.06199"
       id="rect3700-5-6-8-4"
       y="56.5"
       x="10"
       height="5.0000005"
       width="44" /></g><path
     id="rect5505-21-1-7-2-9-9-3-9-1"
     style="color:#000000;font-variation-settings:normal;display:inline;overflow:visible;visibility:visible;opacity:0.05;fill:#002e99;fill-opacity:1;fill-rule:nonzero;stroke:none;stroke-width:1;stroke-linecap:butt;stroke-linejoin:miter;stroke-miterlimit:4;stroke-dasharray:none;stroke-dashoffset:0;stroke-opacity:1;marker:none;enable-background:accumulate;stop-color:#000000"
     d="M 10.455078,12.00195 C 7.4582,11.95105 4.44656,14.15974 4.058488,17.21865 3.594602,20.08693 5.68396,22.92102 8.420635,23.68269 10.326431,24.24726 12.343748,23.90578 14.3,24 27.514675,23.9867 40.730664,24.0266 53.944518,23.9801 56.946237,23.87831 59.836053,21.45233 59.981375,18.36477 60.239186,15.3947 57.831591,12.68529 54.975698,12.15914 53.03837,11.83594 51.056008,12.07244 49.1,12 36.218389,12.001 23.336541,11.997 10.455078,12.002 Z" /><rect
     style="color:#000000;font-variation-settings:normal;display:inline;overflow:visible;visibility:visible;opacity:0.1;fill:#002e99;fill-opacity:1;fill-rule:nonzero;stroke:none;stroke-width:1;stroke-linecap:butt;stroke-linejoin:miter;stroke-miterlimit:4;stroke-dasharray:none;stroke-dashoffset:0;stroke-opacity:1;marker:none;enable-background:accumulate;stop-color:#000000"
     id="rect5505-21-1-7-2-9-9-2-0"
     y="13"
     x="5"
     ry="5.5000005"
     rx="5.5"
     height="10"
     width="54" /><rect
     width="55"
     height="45.000004"
     rx="6"
     ry="6"
     x="4.5"
     y="14.5"
     id="rect5505-21-3-8-5-2-9-7-3-6"
     style="color:#000000;display:inline;overflow:visible;visibility:visible;fill:url(#linearGradient15431);fill-opacity:1;fill-rule:nonzero;stroke:#0d52bf;stroke-width:0.999999;stroke-opacity:0.5;marker:none;enable-background:accumulate" /><rect
     style="opacity:0.3;fill:none;stroke:url(#linearGradient15433);stroke-width:1;stroke-linecap:round;stroke-linejoin:round;stroke-miterlimit:4;stroke-dasharray:none;stroke-dashoffset:0;stroke-opacity:1"
     id="rect6741-8-33-4"
     y="15.428772"
     x="5.5"
     ry="5"
     rx="5"
     height="43"
     width="53" /><path
     id="path13635-0-2-3-8"
     style="color:#000000;line-height:normal;font-variant-ligatures:normal;font-variant-position:normal;font-variant-caps:normal;font-variant-numeric:normal;font-variant-alternates:normal;font-feature-settings:normal;font-variation-settings:normal;text-indent:0;text-align:start;text-decoration-line:none;text-decoration-style:solid;text-decoration-color:#000000;text-transform:none;text-orientation:mixed;shape-padding:0;opacity:0.07;isolation:auto;mix-blend-mode:normal;fill:#002e99;fill-opacity:1;stroke:none;stroke-width:1.7;stroke-linecap:butt;stroke-linejoin:miter;stroke-miterlimit:4;stroke-dasharray:none;stroke-dashoffset:0;stroke-opacity:1;marker:none;stop-color:#000000;stop-opacity:1"
     d="m 29.914062,26.01211 c -4.379844,0.15682 -8.412135,3.3926 -9.532636,7.62606 -1.196795,4.07121 0.453585,8.74792 3.910885,11.19769 2.943052,2.20863 7.076268,2.60976 10.404803,1.06294 0.53896,-0.24584 1.01424,-0.72384 1.387621,0.0205 1.858464,1.81702 3.639593,3.72468 5.546014,5.48551 1.091292,0.93826 2.899686,0.70364 3.767689,-0.42979 0.888071,-1.06666 0.739937,-2.76432 -0.285543,-3.69768 C 43.21719,45.381 41.321486,43.48465 39.425781,41.5883 41.409944,38.28284 41.277729,33.85444 39.09815,30.66784 37.115718,27.64705 33.528014,25.81002 29.914062,26.01213 Z m 1.591797,4.22851 c 2.73243,0.47143 4.994401,2.90028 5.147093,5.68569 0.398344,3.27261 -2.300816,6.47047 -5.567027,6.73511 -2.715498,0.30128 -5.500123,-1.35503 -6.478854,-3.91576 -1.129568,-2.68627 -0.05594,-6.06759 2.435437,-7.59018 1.302597,-0.86179 2.928075,-1.15145 4.463351,-0.91486 z" /><path
     d="M 30.420269,27.00062 C 25.237408,27.00062 21,31.23803 21,36.42088 c 0,5.18287 4.237408,9.42027 9.420269,9.42027 a 9.3517586,9.3517586 0 0 0 5.33016,-1.66996 l 6.304729,6.30644 a 1.7127763,1.7127763 0 1 0 2.421866,-2.42186 l -6.30473,-6.30644 a 9.3517586,9.3517586 0 0 0 1.668245,-5.32845 c 0,-5.18285 -4.237409,-9.42026 -9.42027,-9.42026 z m 0,2.14097 a 7.2792992,7.2792992 0 0 1 7.279299,7.27929 7.2792992,7.2792992 0 0 1 -7.279299,7.2793 7.2792992,7.2792992 0 0 1 -7.279299,-7.2793 7.2792992,7.2792992 0 0 1 7.279299,-7.27929 z"
     fill="#666666"
     font-family="sans-serif"
     font-weight="400"
     overflow="visible"
     style="color:#000000;line-height:normal;font-variant-ligatures:normal;font-variant-position:normal;font-variant-caps:normal;font-variant-numeric:normal;font-variant-alternates:normal;font-feature-settings:normal;font-variation-settings:normal;text-indent:0;text-align:start;text-decoration-line:none;text-decoration-style:solid;text-decoration-color:#000000;text-transform:none;text-orientation:mixed;shape-padding:0;opacity:0.15;isolation:auto;mix-blend-mode:normal;fill:#002e99;fill-opacity:1;stroke:none;stroke-width:1.7;stroke-linecap:butt;stroke-linejoin:miter;stroke-miterlimit:4;stroke-dasharray:none;stroke-dashoffset:0;stroke-opacity:1;marker:none;stop-color:#000000;stop-opacity:1"
     white-space="normal"
     id="path13635-0-2-3" /><path
     d="M 30.420269,26.00039 C 25.237408,26.00039 21,30.2378 21,35.42065 c 0,5.18287 4.237408,9.42027 9.420269,9.42027 a 9.3517586,9.3517586 0 0 0 5.33016,-1.66996 l 6.304729,6.30644 a 1.7127763,1.7127763 0 1 0 2.421866,-2.42186 l -6.30473,-6.30644 a 9.3517586,9.3517586 0 0 0 1.668245,-5.32845 c 0,-5.18285 -4.237409,-9.42026 -9.42027,-9.42026 z m 0,2.14097 a 7.2792992,7.2792992 0 0 1 7.279299,7.27929 7.2792992,7.2792992 0 0 1 -7.279299,7.2793 7.2792992,7.2792992 0 0 1 -7.279299,-7.2793 7.2792992,7.2792992 0 0 1 7.279299,-7.27929 z"
     fill="#666666"
     font-family="sans-serif"
     font-weight="400"
     overflow="visible"
     style="color:#000000;line-height:normal;font-variant-ligatures:normal;font-variant-position:normal;font-variant-caps:normal;font-variant-numeric:normal;font-variant-alternates:normal;font-feature-settings:normal;font-variation-settings:normal;text-indent:0;text-align:start;text-decoration-line:none;text-decoration-style:solid;text-decoration-color:#000000;text-transform:none;text-orientation:mixed;shape-padding:0;isolation:auto;mix-blend-mode:normal;fill:#fafafa;fill-opacity:1;stroke:none;stroke-width:1.7;stroke-linecap:butt;stroke-linejoin:miter;stroke-miterlimit:4;stroke-dasharray:none;stroke-dashoffset:0;stroke-opacity:1;marker:none;stop-color:#000000"
     white-space="normal"
     id="path13635-4-7" /><path
     id="path13635-4-7-3"
     style="color:#000000;line-height:normal;font-variant-ligatures:normal;font-variant-position:normal;font-variant-caps:normal;font-variant-numeric:normal;font-variant-alternates:normal;font-feature-settings:normal;font-variation-settings:normal;text-indent:0;text-align:start;text-decoration-line:none;text-decoration-style:solid;text-decoration-color:#000000;text-transform:none;text-orientation:mixed;shape-padding:0;opacity:0.15;isolation:auto;mix-blend-mode:normal;fill:#002e99;fill-opacity:1;stroke:none;stroke-width:1.7;stroke-linecap:butt;stroke-linejoin:miter;stroke-miterlimit:4;stroke-dasharray:none;stroke-dashoffset:0;stroke-opacity:1;marker:none;stop-color:#000000;stop-opacity:1"
     d="m 30.419922,27.14101 a 7.2792992,7.2792992 0 0 0 -7.279297,7.2793 7.2792992,7.2792992 0 0 0 0.04492,0.5 7.2792992,7.2792992 0 0 1 7.234375,-6.7793 7.2792992,7.2792992 0 0 1 7.248047,6.91993 7.2792992,7.2792992 0 0 0 0.03125,-0.64063 7.2792992,7.2792992 0 0 0 -7.279297,-7.2793 z m 9.394531,7.61719 a 9.3517586,9.3517586 0 0 1 -1.642578,4.99024 l 0.369141,0.36914 a 9.3517586,9.3517586 0 0 0 1.298828,-4.69727 c 0,-0.22302 -0.01,-0.44285 -0.02539,-0.66211 z m -18.800781,0.16211 c -0.0088,0.16586 -0.01367,0.33205 -0.01367,0.5 0,5.18287 4.237066,9.41992 9.419922,9.41992 A 9.3517586,9.3517586 0 0 0 35.75,43.17031 l 6.304688,6.30664 a 1.7127763,1.7127763 0 0 0 2.845703,-1.68164 1.7127763,1.7127763 0 0 1 -2.845703,0.68164 L 35.75,42.17031 a 9.3517586,9.3517586 0 0 1 -5.330078,1.66992 c -5.014927,0 -9.143899,-3.96761 -9.40625,-8.91992 z" /></svg>
