<?xml version="1.0" encoding="UTF-8" standalone="no"?>
<svg
   version="1.1"
   id="svg4332"
   height="64px"
   width="64px"
   xml:space="preserve"
   xmlns:xlink="http://www.w3.org/1999/xlink"
   xmlns="http://www.w3.org/2000/svg"
   xmlns:svg="http://www.w3.org/2000/svg"
   xmlns:rdf="http://www.w3.org/1999/02/22-rdf-syntax-ns#"
   xmlns:cc="http://creativecommons.org/ns#"
   xmlns:dc="http://purl.org/dc/elements/1.1/"><defs
     id="defs4334"><linearGradient
       id="linearGradient12"><stop
         style="stop-color:#a10705;stop-opacity:1;"
         offset="0"
         id="stop12" /><stop
         style="stop-color:#7a0000;stop-opacity:1"
         offset="1"
         id="stop13" /></linearGradient><linearGradient
       id="linearGradient7"><stop
         style="stop-color:#a10705;stop-opacity:0.5;"
         offset="0"
         id="stop8" /><stop
         style="stop-color:#7a0000;stop-opacity:1"
         offset="1"
         id="stop9" /></linearGradient><linearGradient
       id="linearGradient6"><stop
         id="stop3"
         style="stop-color:#ffffff;stop-opacity:1"
         offset="0" /><stop
         id="stop4"
         style="stop-color:#ffffff;stop-opacity:0.23529412"
         offset="0.0001" /><stop
         id="stop5"
         style="stop-color:#ffffff;stop-opacity:0.15686275"
         offset="0.97712916" /><stop
         id="stop6"
         style="stop-color:#ffffff;stop-opacity:0.39215687"
         offset="1" /></linearGradient><linearGradient
       id="linearGradient1"><stop
         style="stop-color:#ffe16b;stop-opacity:1;"
         offset="0"
         id="stop1" /><stop
         style="stop-color:#f9c440;stop-opacity:1"
         offset="1"
         id="stop2" /></linearGradient><linearGradient
       id="linearGradient72"><stop
         id="stop69"
         style="stop-color:#ffffff;stop-opacity:1"
         offset="0" /><stop
         id="stop70"
         style="stop-color:#ffffff;stop-opacity:0.23529412"
         offset="0.4065806" /><stop
         id="stop71"
         style="stop-color:#ffffff;stop-opacity:0.15686275"
         offset="0.72683871" /><stop
         id="stop72"
         style="stop-color:#ffffff;stop-opacity:0.39215687"
         offset="1" /></linearGradient><linearGradient
       id="linearGradient67"><stop
         style="stop-color:#ed5353;stop-opacity:1"
         offset="0"
         id="stop67" /><stop
         style="stop-color:#cf3137;stop-opacity:1;"
         offset="0.53065509"
         id="stop7" /><stop
         style="stop-color:#7a0000;stop-opacity:1"
         offset="1"
         id="stop68" /></linearGradient><linearGradient
       id="linearGradient64"><stop
         style="stop-color:#9bdb4d;stop-opacity:1"
         offset="0"
         id="stop64" /><stop
         style="stop-color:#68b723;stop-opacity:1"
         offset="1"
         id="stop65" /></linearGradient><linearGradient
       id="linearGradient51"><stop
         id="stop50"
         style="stop-color:#efdfc4;stop-opacity:1"
         offset="0" /><stop
         id="stop51"
         style="stop-color:#e7c591;stop-opacity:1"
         offset="1" /></linearGradient><linearGradient
       y2="42.091705"
       x2="23.99999"
       y1="5.9093657"
       x1="23.99999"
       gradientTransform="matrix(1.4324324,0,0,1.4362832,-2.3783747,-2.4707827)"
       gradientUnits="userSpaceOnUse"
       id="linearGradient3904"
       xlink:href="#linearGradient4270" /><linearGradient
       id="linearGradient4270"><stop
         id="stop4272"
         style="stop-color:#ffffff;stop-opacity:1"
         offset="0" /><stop
         id="stop4274"
         style="stop-color:#ffffff;stop-opacity:0.23529412"
         offset="0.0348749" /><stop
         id="stop4276"
         style="stop-color:#ffffff;stop-opacity:0.15686275"
         offset="0.96216321" /><stop
         id="stop4278"
         style="stop-color:#ffffff;stop-opacity:0.39215687"
         offset="1" /></linearGradient><linearGradient
       id="linearGradient3688-166-749-654"><stop
         offset="0"
         style="stop-color:#181818;stop-opacity:1"
         id="stop3088" /><stop
         offset="1"
         style="stop-color:#181818;stop-opacity:0"
         id="stop3090" /></linearGradient><linearGradient
       id="linearGradient3702-501-757-795"><stop
         offset="0"
         style="stop-color:#181818;stop-opacity:0"
         id="stop3100" /><stop
         offset="0.5"
         style="stop-color:#181818;stop-opacity:1"
         id="stop3102" /><stop
         offset="1"
         style="stop-color:#181818;stop-opacity:0"
         id="stop3104" /></linearGradient><radialGradient
       cx="4.9929786"
       cy="43.5"
       r="2.5"
       fx="4.9929786"
       fy="43.5"
       id="radialGradient3337-2-2"
       xlink:href="#linearGradient3688-166-749-654"
       gradientUnits="userSpaceOnUse"
       gradientTransform="matrix(2.4045407,0,0,0.99999998,41.985755,15.500001)" /><radialGradient
       cx="4.9929786"
       cy="43.5"
       r="2.5"
       fx="4.9929786"
       fy="43.5"
       id="radialGradient3339-1-4"
       xlink:href="#linearGradient3688-166-749-654"
       gradientUnits="userSpaceOnUse"
       gradientTransform="matrix(2.4045407,0,0,0.99999998,-22.014244,-102.5)" /><linearGradient
       x1="25.058096"
       y1="47.027729"
       x2="25.058096"
       y2="39.999443"
       id="linearGradient6394"
       xlink:href="#linearGradient3702-501-757-795"
       gradientUnits="userSpaceOnUse"
       gradientTransform="matrix(1.5714286,0,0,0.7142857,-5.7142853,27.928572)" /><linearGradient
       xlink:href="#linearGradient51"
       id="linearGradient899"
       x1="31.781376"
       y1="4.9266648"
       x2="31.781376"
       y2="59.148476"
       gradientUnits="userSpaceOnUse" /><linearGradient
       xlink:href="#linearGradient64"
       id="linearGradient65"
       x1="25.150442"
       y1="5.0300884"
       x2="25.150442"
       y2="59.231861"
       gradientUnits="userSpaceOnUse" /><linearGradient
       xlink:href="#linearGradient67"
       id="linearGradient68"
       x1="31.99835"
       y1="12.05765"
       x2="31.99835"
       y2="62.093575"
       gradientUnits="userSpaceOnUse" /><linearGradient
       xlink:href="#linearGradient72"
       id="linearGradient69"
       gradientUnits="userSpaceOnUse"
       gradientTransform="matrix(1.4324324,0,0,1.4362832,-2.3783747,-2.4707827)"
       x1="23.99999"
       y1="11.447933"
       x2="23.99999"
       y2="34.460789" /><radialGradient
       cx="9.6923532"
       cy="41.271797"
       fx="9.6923532"
       fy="41.271797"
       r="29.069305"
       gradientTransform="matrix(1.2896764,0,0,0.77538829,19.5,12.867224)"
       id="radialGradient-9-0-5-6"
       gradientUnits="userSpaceOnUse"><stop
         stop-color="#000000"
         offset="0%"
         id="stop20-9-0-0" /><stop
         stop-color="#000000"
         stop-opacity="0"
         offset="100%"
         id="stop21-3-3-4" /></radialGradient><filter
       x="-0.20869565"
       y="-0.48"
       width="1.4173913"
       height="1.96"
       filterUnits="objectBoundingBox"
       id="filter-10-6-6-8"><feGaussianBlur
         stdDeviation="2"
         in="SourceGraphic"
         id="feGaussianBlur21-0-1-8" /></filter><linearGradient
       xlink:href="#linearGradient1"
       id="linearGradient2"
       x1="50.307278"
       y1="4.5876107"
       x2="50.307278"
       y2="59.412388"
       gradientUnits="userSpaceOnUse" /><linearGradient
       xlink:href="#linearGradient6"
       id="linearGradient3"
       gradientUnits="userSpaceOnUse"
       gradientTransform="matrix(1.4324324,0,0,1.4362832,-2.3783747,-2.4707827)"
       x1="23.99999"
       y1="5.9093657"
       x2="23.99999"
       y2="42.091705" /><linearGradient
       xlink:href="#linearGradient7"
       id="linearGradient9"
       x1="42.682747"
       y1="38.574261"
       x2="42.682747"
       y2="62.183842"
       gradientUnits="userSpaceOnUse" /><linearGradient
       xlink:href="#linearGradient12"
       id="linearGradient13"
       x1="25.999889"
       y1="26"
       x2="37.999889"
       y2="26"
       gradientUnits="userSpaceOnUse"
       gradientTransform="translate(-57.999889,5.9998894)" /></defs><metadata
     id="metadata4337"><rdf:RDF><cc:Work
         rdf:about=""><dc:format>image/svg+xml</dc:format><dc:type
           rdf:resource="http://purl.org/dc/dcmitype/StillImage" /></cc:Work></rdf:RDF></metadata><g
     id="g866"><rect
       style="opacity:0.6;fill:url(#radialGradient3337-2-2);fill-opacity:1;stroke:none;stroke-width:1.06199"
       id="rect2801-5-5-7-9"
       y="56.5"
       x="54"
       height="5"
       width="6" /><rect
       style="opacity:0.6;fill:url(#radialGradient3339-1-4);fill-opacity:1;stroke:none;stroke-width:1.06199"
       id="rect3696-3-0-3-7"
       transform="scale(-1)"
       y="-61.5"
       x="-10"
       height="5"
       width="6" /><rect
       style="opacity:0.6;fill:url(#linearGradient6394);fill-opacity:1;stroke:none;stroke-width:1.06199"
       id="rect3700-5-6-8-4"
       y="56.5"
       x="10"
       height="5.0000005"
       width="44" /></g><rect
     width="55"
     height="55"
     rx="6"
     ry="6"
     x="4.5"
     y="4.5"
     id="rect5505-21-3-8-5-2-9"
     style="color:#000000;display:inline;overflow:visible;visibility:visible;fill:url(#linearGradient899);fill-opacity:1;fill-rule:nonzero;stroke:none;stroke-width:1;marker:none;enable-background:accumulate" /><path
     id="path64"
     style="font-variation-settings:normal;opacity:1;vector-effect:none;fill:url(#linearGradient65);fill-opacity:1;stroke:none;stroke-width:1;stroke-linecap:butt;stroke-linejoin:miter;stroke-miterlimit:4;stroke-dasharray:none;stroke-dashoffset:0;stroke-opacity:0.5;-inkscape-stroke:none;marker:none"
     d="M 44.050781 36.753906 L 4.5 47.376953 L 4.5 53.5 C 4.5 56.824 7.176 59.5 10.5 59.5 L 51.595703 59.5 L 44.050781 36.753906 z " /><path
     id="path4"
     style="font-variation-settings:normal;baseline-shift:baseline;display:inline;overflow:visible;opacity:0.15;vector-effect:none;fill:#3a9104;fill-opacity:1;stroke-width:1;stroke-linecap:round;stroke-linejoin:round;stroke-miterlimit:4;stroke-dasharray:none;stroke-dashoffset:0;stroke-opacity:1;-inkscape-stroke:none;enable-background:accumulate;stop-color:#000000;stop-opacity:1"
     d="M 43.25,30.152344 C 30.333037,33.637018 17.415672,37.120369 4.5,40.609375 v 10.503906 l 16.839056,-4.61959 a 1.0346595,1.0346595 28.683113 0 1 1.261623,0.690235 L 26.435011,59.5 H 37.529297 L 32.505859,43.560547 41.355469,41.171875 48.751953,59.5 H 53.5 c 2.139349,0 4.010425,-1.108866 5.072266,-2.785156 C 55.876502,50.034851 53.181454,43.354089 50.486328,36.673828 L 43.25,38.626953 Z" /><path
     id="path63-6-1"
     style="baseline-shift:baseline;display:inline;overflow:visible;opacity:0.15;vector-effect:none;fill:#cfa25e;stroke-width:1;stroke-linecap:round;stroke-linejoin:round;enable-background:accumulate;stop-color:#000000"
     d="m 26.564453,4.5 c 0.358313,1.0779219 0.913059,2.1167831 1.275391,3.1777344 0.392426,0.9718781 0.783432,1.9441268 1.175781,2.9160156 C 20.842771,13.529994 12.670968,16.465565 4.5,19.40625 V 30.189453 C 22.832122,23.594835 41.171345,17.017431 59.5,10.414062 59.454326,7.1300181 53.5,4.5 53.5,4.5 L 38.572266,7.1601562 C 38.213862,6.2733906 37.85458,5.386743 37.496094,4.5 Z M 59.5,25.771484 c -0.145055,0.03803 -0.290363,0.07583 -0.435547,0.113282 -6.859249,1.851733 -13.718481,3.702298 -20.578125,5.552734 L 50,38.841797 c 3.16703,-0.853463 6.33388,-1.708345 9.5,-2.564453 z" /><path
     id="path63-6-9"
     style="baseline-shift:baseline;display:inline;overflow:visible;opacity:0.2;vector-effect:none;fill:#b6802e;stroke-width:1;stroke-linecap:round;stroke-linejoin:round;enable-background:accumulate;stop-color:#000000"
     d="M 27.636719,4.5 29.982422,10.310547 37.65625,7.5527344 36.423828,4.5 Z M 4.5,20.46875 v 8.660156 L 59.398438,9.3945312 C 58.88221,6.6024698 56.445947,4.5 53.5,4.5 c 0,0 -33.076558,10.245607 -49,15.96875 z m 55,6.333984 L 42.322266,31.4375 50,37.804688 l 9.5,-2.5625 z" /><path
     id="path63-6-9-2"
     style="baseline-shift:baseline;display:inline;overflow:visible;opacity:0.3;vector-effect:none;fill:#3a9104;stroke-width:1;stroke-linecap:round;stroke-linejoin:round;enable-background:accumulate;stop-color:#000000"
     d="M 43.25,31.1875 4.5,41.642578 v 8.441406 l 16.473206,-4.478699 a 2.0834399,2.0834399 28.619588 0 1 2.533053,1.382189 L 27.463695,59.5 h 9.007008 L 31.240234,42.867188 41.953125,39.976562 49.832031,59.5 H 53.5 c 1.722737,0 3.270978,-0.717786 4.363281,-1.873047 L 49.513672,36.9375 43.25,38.626953 Z" /><path
     id="path63-6"
     style="baseline-shift:baseline;display:inline;overflow:visible;vector-effect:none;fill:#fafafa;stroke-width:1;stroke-linecap:round;stroke-linejoin:round;enable-background:accumulate;stop-color:#000000"
     d="M 46.148438,4.5 4.5,19.46875 v 8.658203 L 59.154297,8.4824219 C 58.328965,6.1571842 56.11521,4.5 53.5,4.5 Z M 59.5,25.800781 4.5,40.640625 v 8.443359 L 20.47081,44.77385 a 3.1251722,3.1251722 28.726345 0 1 3.795717,2.080363 L 28.240234,59.5 h 8.544922 L 31.240234,41.867188 59.5,34.242188 Z" /><path
     id="path64-5"
     style="font-variation-settings:normal;vector-effect:none;fill:none;fill-opacity:1;stroke:#3a9104;stroke-width:1;stroke-linecap:butt;stroke-linejoin:miter;stroke-miterlimit:4;stroke-dasharray:none;stroke-dashoffset:0;stroke-opacity:0.5;-inkscape-stroke:none;marker:none"
     d="M 4.5,48.956012 V 53.5 c 0,3.324 2.676,6 6,6 l 40.118904,0" /><ellipse
     id="Shadow-6-7"
     fill="url(#radialGradient-9)"
     fill-rule="nonzero"
     opacity="0.580799"
     filter="url(#filter-10)"
     cx="32"
     cy="44.867226"
     rx="11.5"
     ry="5"
     style="opacity:0.3;fill:url(#radialGradient-9-0-5-6);filter:url(#filter-10-6-6-8)" /><path
     id="rect5505-21-9"
     style="color:#000000;display:inline;overflow:visible;visibility:visible;opacity:0.5;fill:none;stroke:#b6802e;stroke-width:1;stroke-linecap:butt;stroke-linejoin:round;stroke-miterlimit:4;stroke-dasharray:none;stroke-dashoffset:0;stroke-opacity:1;marker:none;enable-background:accumulate"
     d="M 28.728516,4.5 H 10.5 c -3.324,0 -6,2.676 -6,6 v 38.455078 m 54.078125,7.740234 C 59.159517,55.77063 59.5,54.677427 59.5,53.5 v -43 c 0,-3.324 -2.676,-6 -6,-6 H 37.515625" /><rect
     style="opacity:0.4;fill:none;stroke:url(#linearGradient3904);stroke-width:1;stroke-linecap:round;stroke-linejoin:round;stroke-miterlimit:4;stroke-dasharray:none;stroke-dashoffset:0;stroke-opacity:1"
     id="rect6741"
     y="5.428761"
     x="5.5"
     ry="5"
     rx="5"
     height="53.142479"
     width="53" /><path
     id="path58-3"
     style="baseline-shift:baseline;display:inline;overflow:visible;vector-effect:none;fill:url(#linearGradient2);stroke-width:1;stroke-linecap:round;stroke-linejoin:round;enable-background:accumulate;stop-color:#000000;stroke:#d48e15;stroke-opacity:0.5"
     d="M 28.728516 4.5 L 50.923828 59.5 L 53.5 59.5 C 55.644933 59.5 57.519705 58.384806 58.580078 56.701172 L 37.515625 4.5 L 28.728516 4.5 z " /><path
     id="path58-3-0"
     style="baseline-shift:baseline;display:inline;overflow:visible;vector-effect:none;fill:none;stroke:url(#linearGradient3);stroke-width:1;stroke-linecap:round;stroke-linejoin:miter;stroke-opacity:1;enable-background:accumulate;stop-color:#000000;font-variation-settings:normal;opacity:0.6;fill-opacity:1;stroke-miterlimit:4;stroke-dasharray:none;stroke-dashoffset:0;-inkscape-stroke:none;stop-opacity:1"
     d="m 51.599609,58.5 c 1.659771,0.0256 3.492842,0.13973 4.869575,-0.973684 0.329837,-0.300473 0.878519,-0.621976 0.940662,-1.048738 C 50.553179,39.485052 43.696511,22.492526 36.839844,5.5 c -2.209636,0 -4.419271,0 -6.628906,0 7.129557,17.666667 14.259114,35.333333 21.388671,53 z" /><g
     id="g73"
     transform="translate(0,-2)"><path
       id="rect52-9-8-3-0"
       style="font-variation-settings:normal;opacity:0.125723;vector-effect:none;fill:#ff8c82;fill-opacity:1;stroke:none;stroke-width:0.999993;stroke-linecap:round;stroke-linejoin:round;stroke-miterlimit:4;stroke-dasharray:none;stroke-dashoffset:0;stroke-opacity:0.5;-inkscape-stroke:none"
       d="m 31.347656,25.347656 c -4.928582,0.163218 -10.009089,2.778026 -12.194576,7.342598 -1.914125,3.872352 -0.911685,8.828001 2.166982,11.807272 1.940829,1.836584 4.089931,3.439724 6.10476,5.194325 1.178139,1.030347 2.498622,2.088153 4.143799,2.119431 1.73016,0.16959 3.411317,-0.593225 4.618882,-1.803751 2.210862,-1.883813 4.519051,-3.663068 6.640563,-5.645975 2.845032,-2.918431 3.874106,-7.555393 2.173434,-11.315827 -2.246456,-5.198734 -8.194348,-7.963867 -13.653844,-7.698073 z" /><path
       id="rect52-9-8-3"
       style="font-variation-settings:normal;opacity:0.334042;vector-effect:none;fill:#ff8c82;fill-opacity:1;stroke:none;stroke-width:0.999993;stroke-linecap:round;stroke-linejoin:round;stroke-miterlimit:4;stroke-dasharray:none;stroke-dashoffset:0;stroke-opacity:0.5;-inkscape-stroke:none"
       d="m 31.365595,26.348004 c -4.583005,0.148077 -8.917596,2.546493 -10.896692,5.999462 -2.122684,3.5344 -1.603793,8.035696 1.289074,11.165492 1.117806,1.214798 2.541394,2.199979 3.797459,3.310915 1.332477,1.082635 2.595322,2.229868 3.971722,3.271788 1.454381,1.045777 3.804201,0.95347 5.176424,-0.154526 2.310103,-1.926454 4.634679,-3.843288 6.920568,-5.789194 3.010649,-2.806065 4.01707,-6.97966 2.531065,-10.53851 C 42.701628,29.918409 38.656553,27.054635 34.052041,26.471959 33.164978,26.350494 32.263176,26.3159 31.365595,26.348004 Z" /><path
       id="rect52-9-8"
       style="font-variation-settings:normal;opacity:0.3;vector-effect:none;fill:#ed5353;fill-opacity:1;stroke:none;stroke-width:1.48512;stroke-linecap:round;stroke-linejoin:round;stroke-miterlimit:4;stroke-dasharray:none;stroke-dashoffset:0;stroke-opacity:0.5;-inkscape-stroke:none"
       d="M 31.999076,12 C 23.163215,12.000448 16.000447,19.163217 16,27.999078 c -8.9e-5,4.490502 1.886869,8.774353 5.200068,11.805413 l 8.016506,8.017876 a 3.9350527,3.9350527 0.00244835 0 0 5.565242,2.38e-4 L 42.79993,39.804491 C 46.11313,36.773432 48.000088,32.489581 48,27.999078 47.999553,19.162495 40.835659,11.999427 31.999076,12 Z"
       transform="matrix(0.73665914,0,0,0.61546252,8.4270079,19.824342)" /><path
       id="rect52-9"
       style="font-variation-settings:normal;vector-effect:none;fill:url(#linearGradient68);fill-opacity:1;stroke:url(#linearGradient9);stroke-width:1.02961;stroke-linecap:round;stroke-linejoin:round;stroke-miterlimit:4;stroke-dasharray:none;stroke-dashoffset:0;-inkscape-stroke:none"
       d="M 31.999076,12 C 23.163215,12.000448 16.000447,19.163217 16,27.999078 c -8.9e-5,4.490502 1.886869,8.774353 5.200068,11.805413 l 8.016506,8.017876 c 1.536695,1.536957 4.028415,1.537064 5.565242,2.38e-4 L 42.79993,39.804491 C 46.11313,36.773432 48.000088,32.489581 48,27.999078 47.999553,19.162495 40.835659,11.999427 31.999076,12 Z"
       transform="matrix(0.96882097,0,0,0.97365597,0.99761838,0.81737137)" /><path
       id="rect52-9-5"
       style="font-variation-settings:normal;opacity:0.3;vector-effect:none;fill:none;fill-opacity:1;stroke:url(#linearGradient69);stroke-width:1;stroke-linecap:round;stroke-linejoin:round;stroke-miterlimit:4;stroke-dasharray:none;stroke-dashoffset:0;stroke-opacity:1;-inkscape-stroke:none;stop-color:#000000;stop-opacity:1"
       d="m 31.275166,13.522441 c -5.349454,0.207347 -10.385129,3.687407 -12.519807,8.615685 -2.289134,5.007301 -1.38268,11.27742 2.233614,15.42097 2.327754,2.458166 4.774588,4.806068 7.14421,7.22594 1.132572,0.9833 2.021132,2.557902 3.65137,2.691755 1.512788,0.172705 2.520011,-1.122116 3.47328,-2.081551 2.561085,-2.605714 5.187438,-5.150729 7.713182,-7.788696 3.571874,-4.062697 4.537563,-10.188208 2.406616,-15.166281 -2.05647,-5.046189 -7.130065,-8.67379 -12.559289,-8.909934 -0.513886,-0.03226 -1.02877,-0.0273 -1.543176,-0.0079 z" /></g><circle
     style="font-variation-settings:normal;opacity:1;vector-effect:none;fill:url(#linearGradient13);fill-opacity:1;stroke:none;stroke-width:1;stroke-linecap:round;stroke-linejoin:round;stroke-miterlimit:4;stroke-dasharray:none;stroke-dashoffset:0;stroke-opacity:1;-inkscape-stroke:none;marker:none"
     id="path73"
     cx="-26"
     cy="31.999889"
     r="6"
     transform="rotate(-90)" /><circle
     style="font-variation-settings:normal;vector-effect:none;fill:#fafafa;fill-opacity:1;stroke:none;stroke-width:1;stroke-linecap:round;stroke-linejoin:round;stroke-miterlimit:4;stroke-dasharray:none;stroke-dashoffset:0;stroke-opacity:1;-inkscape-stroke:none;marker:none;opacity:0.1"
     id="path73-0"
     cx="31.999889"
     cy="27"
     r="6" /></svg>
