<?xml version="1.0" encoding="UTF-8" standalone="no"?>
<svg
   version="1.1"
   width="64"
   height="64"
   id="svg6333"
   xmlns:xlink="http://www.w3.org/1999/xlink"
   xmlns="http://www.w3.org/2000/svg"
   xmlns:svg="http://www.w3.org/2000/svg"
   xmlns:rdf="http://www.w3.org/1999/02/22-rdf-syntax-ns#"
   xmlns:cc="http://creativecommons.org/ns#"
   xmlns:dc="http://purl.org/dc/elements/1.1/">
  <defs
     id="defs6335">
    <linearGradient
       x1="23.99999"
       y1="4.999989"
       x2="23.99999"
       y2="43"
       id="linearGradient3381-5-4"
       xlink:href="#linearGradient3924-2-2-5-8"
       gradientUnits="userSpaceOnUse"
       gradientTransform="matrix(1.4324324,0,0,1.4362832,-2.378381,-2.4707782)" />
    <linearGradient
       id="linearGradient3924-2-2-5-8">
      <stop
         id="stop3926-9-4-9-6"
         style="stop-color:#ffffff;stop-opacity:1"
         offset="0" />
      <stop
         id="stop3928-9-8-6-5"
         style="stop-color:#ffffff;stop-opacity:0.23529412"
         offset="0.06316455" />
      <stop
         id="stop3930-3-5-1-7"
         style="stop-color:#ffffff;stop-opacity:0.15686275"
         offset="0.95056331" />
      <stop
         id="stop3932-8-0-4-8"
         style="stop-color:#ffffff;stop-opacity:0.39215687"
         offset="1" />
    </linearGradient>
    <radialGradient
       cx="4.9929786"
       cy="43.5"
       r="2.5"
       fx="4.9929786"
       fy="43.5"
       id="radialGradient3337-2-2"
       xlink:href="#linearGradient3688-166-749-4-0-3-8"
       gradientUnits="userSpaceOnUse"
       gradientTransform="matrix(2.4045407,0,0,0.99999998,41.985755,15.500001)" />
    <linearGradient
       id="linearGradient3688-166-749-4-0-3-8">
      <stop
         id="stop2883-4-0-1-8"
         style="stop-color:#181818;stop-opacity:1"
         offset="0" />
      <stop
         id="stop2885-9-2-9-6"
         style="stop-color:#181818;stop-opacity:0"
         offset="1" />
    </linearGradient>
    <radialGradient
       cx="4.9929786"
       cy="43.5"
       r="2.5"
       fx="4.9929786"
       fy="43.5"
       id="radialGradient3339-1-4"
       xlink:href="#linearGradient3688-464-309-9-2-4-2"
       gradientUnits="userSpaceOnUse"
       gradientTransform="matrix(2.4045407,0,0,0.99999998,-22.014244,-102.5)" />
    <linearGradient
       id="linearGradient3688-464-309-9-2-4-2">
      <stop
         id="stop2889-7-9-6-9"
         style="stop-color:#181818;stop-opacity:1"
         offset="0" />
      <stop
         id="stop2891-6-6-1-7"
         style="stop-color:#181818;stop-opacity:0"
         offset="1" />
    </linearGradient>
    <linearGradient
       id="linearGradient3702-501-757-8-4-1-1">
      <stop
         id="stop2895-8-9-9-1"
         style="stop-color:#181818;stop-opacity:0"
         offset="0" />
      <stop
         id="stop2897-7-8-7-7"
         style="stop-color:#181818;stop-opacity:1"
         offset="0.5" />
      <stop
         id="stop2899-4-5-1-5"
         style="stop-color:#181818;stop-opacity:0"
         offset="1" />
    </linearGradient>
    <linearGradient
       x1="25.058096"
       y1="47.027729"
       x2="25.058096"
       y2="39.999443"
       id="linearGradient6394"
       xlink:href="#linearGradient3702-501-757-8-4-1-1"
       gradientUnits="userSpaceOnUse"
       gradientTransform="matrix(1.5714286,0,0,0.7142857,-5.7142853,27.928572)" />
    <linearGradient
       id="linearGradient934">
      <stop
         id="stop930"
         offset="0"
         style="stop-color:#ffffff;stop-opacity:1" />
      <stop
         id="stop932"
         offset="1"
         style="stop-color:#fafafa;stop-opacity:1" />
    </linearGradient>
    <linearGradient
       gradientUnits="userSpaceOnUse"
       y2="29"
       x2="30"
       y1="20"
       x1="30"
       id="linearGradient938"
       xlink:href="#linearGradient934"
       gradientTransform="matrix(1.0909091,0,0,1.2222222,6.7272722,1.5560199)" />
    <linearGradient
       id="linearGradient3924">
      <stop
         offset="0"
         style="stop-color:#ffffff;stop-opacity:1"
         id="stop3926" />
      <stop
         offset="0.04197389"
         style="stop-color:#ffffff;stop-opacity:0.23529412"
         id="stop3928" />
      <stop
         offset="0.95056331"
         style="stop-color:#ffffff;stop-opacity:0.15686275"
         id="stop3930" />
      <stop
         offset="1"
         style="stop-color:#ffffff;stop-opacity:0.39215687"
         id="stop3932" />
    </linearGradient>
    <linearGradient
       id="linearGradient920">
      <stop
         style="stop-color:#64baff;stop-opacity:1"
         offset="0"
         id="stop916" />
      <stop
         style="stop-color:#3689e6;stop-opacity:1"
         offset="1"
         id="stop918" />
    </linearGradient>
    <linearGradient
       id="linearGradient854">
      <stop
         style="stop-color:#4d4d4d;stop-opacity:1"
         offset="0"
         id="stop850" />
      <stop
         style="stop-color:#333333;stop-opacity:1"
         offset="1"
         id="stop852" />
    </linearGradient>
    <linearGradient
       xlink:href="#linearGradient854"
       id="linearGradient6464"
       gradientUnits="userSpaceOnUse"
       gradientTransform="translate(-58.71246)"
       x1="91.953667"
       y1="3.984987"
       x2="91.953667"
       y2="59.494999" />
    <linearGradient
       xlink:href="#linearGradient3924"
       id="linearGradient6520"
       gradientUnits="userSpaceOnUse"
       gradientTransform="matrix(1.4935752,0,0,1.5220069,-5.2672612,-4.4299471)"
       x1="23.99999"
       y1="12.951379"
       x2="23.99999"
       y2="29.395823" />
    <linearGradient
       xlink:href="#linearGradient920"
       id="linearGradient6522"
       gradientUnits="userSpaceOnUse"
       gradientTransform="matrix(1.2839507,0,0,1.4736843,0.51854156,-4.4210536)"
       x1="24"
       y1="12.5"
       x2="24"
       y2="31.5" />
    <linearGradient
       xlink:href="#linearGradient934"
       id="linearGradient6594"
       gradientUnits="userSpaceOnUse"
       gradientTransform="matrix(1.1818182,0,0,1.2222222,-11.545454,-6.4444463)"
       x1="30"
       y1="20"
       x2="30"
       y2="29" />
  </defs>
  <metadata
     id="metadata6338">
    <rdf:RDF>
      <cc:Work
         rdf:about="">
        <dc:format>image/svg+xml</dc:format>
        <dc:type
           rdf:resource="http://purl.org/dc/dcmitype/StillImage" />
      </cc:Work>
    </rdf:RDF>
  </metadata>
  <rect
     style="opacity:0.6;fill:url(#radialGradient3337-2-2);fill-opacity:1;stroke:none;stroke-width:1.06199"
     id="rect2801-5-5-7-9"
     y="56.5"
     x="54"
     height="5"
     width="6" />
  <rect
     style="opacity:0.6;fill:url(#radialGradient3339-1-4);fill-opacity:1;stroke:none;stroke-width:1.06199"
     id="rect3696-3-0-3-7"
     transform="scale(-1)"
     y="-61.5"
     x="-10"
     height="5"
     width="6" />
  <rect
     style="opacity:0.6;fill:url(#linearGradient6394);fill-opacity:1;stroke:none;stroke-width:1.06199"
     id="rect3700-5-6-8-4"
     y="56.5"
     x="10"
     height="5.0000005"
     width="44" />
  <rect
     style="color:#000000;display:inline;overflow:visible;visibility:visible;opacity:1;fill:url(#linearGradient6464);fill-opacity:1;fill-rule:nonzero;stroke:#000000;stroke-width:1;stroke-opacity:0.5;marker:none;enable-background:accumulate;font-variation-settings:normal;vector-effect:none;stroke-linecap:butt;stroke-linejoin:miter;stroke-miterlimit:4;stroke-dasharray:none;stroke-dashoffset:0;-inkscape-stroke:none;stop-color:#000000;stop-opacity:1"
     id="rect5505-21-1-5"
     y="4.5000019"
     x="4.4999986"
     ry="6"
     rx="6"
     height="55"
     width="55" />
  <rect
     style="opacity:0.2;fill:none;stroke:url(#linearGradient3381-5-4);stroke-width:1;stroke-linecap:round;stroke-linejoin:round;stroke-miterlimit:4;stroke-dasharray:none;stroke-dashoffset:0;stroke-opacity:1"
     id="rect6741-5-0-2-3"
     y="5.4287739"
     x="5.4999986"
     ry="5"
     height="53.142479"
     width="53"
     rx="5" />
  <g
     id="g948"
     style="fill:#fafafa"
     transform="translate(-0.71246028)" />
  <rect
     style="opacity:0.3;fill:none;fill-opacity:1;stroke:#000000;stroke-width:1;stroke-linecap:round;stroke-linejoin:round;stroke-miterlimit:4;stroke-dasharray:none;stroke-dashoffset:0;stroke-opacity:1;marker:none"
     id="rect995"
     width="9"
     height="9"
     x="15.5"
     y="46.5"
     rx="1.5"
     ry="1.5" />
  <rect
     style="opacity:0.3;fill:#fafafa;fill-opacity:1;stroke:none;stroke-width:0.999998;stroke-linecap:round;stroke-linejoin:round;stroke-miterlimit:4;stroke-dasharray:none;stroke-dashoffset:0;stroke-opacity:1;marker:none"
     id="rect908"
     width="8"
     height="8"
     x="16"
     y="47"
     rx="1"
     ry="1" />
  <rect
     style="opacity:0.3;fill:none;fill-opacity:1;stroke:#000000;stroke-width:1;stroke-linecap:round;stroke-linejoin:round;stroke-miterlimit:4;stroke-dasharray:none;stroke-dashoffset:0;stroke-opacity:1;marker:none"
     id="rect995-3"
     width="9"
     height="9"
     x="27.499998"
     y="46.5"
     rx="1.5"
     ry="1.5" />
  <rect
     style="opacity:0.3;fill:#fafafa;fill-opacity:1;stroke:none;stroke-width:0.999998;stroke-linecap:round;stroke-linejoin:round;stroke-miterlimit:4;stroke-dasharray:none;stroke-dashoffset:0;stroke-opacity:1;marker:none"
     id="rect908-7"
     width="8"
     height="8"
     x="27.999998"
     y="47"
     rx="1"
     ry="1" />
  <rect
     style="opacity:0.3;fill:none;fill-opacity:1;stroke:#000000;stroke-width:1;stroke-linecap:round;stroke-linejoin:round;stroke-miterlimit:4;stroke-dasharray:none;stroke-dashoffset:0;stroke-opacity:1;marker:none"
     id="rect995-3-3"
     width="9"
     height="9"
     x="39.5"
     y="46.5"
     rx="1.5"
     ry="1.5" />
  <rect
     style="opacity:0.3;fill:#fafafa;fill-opacity:1;stroke:none;stroke-width:0.999998;stroke-linecap:round;stroke-linejoin:round;stroke-miterlimit:4;stroke-dasharray:none;stroke-dashoffset:0;stroke-opacity:1;marker:none"
     id="rect908-7-6"
     width="8"
     height="8"
     x="40"
     y="47"
     rx="1"
     ry="1" />
  <path
     id="path6539"
     style="font-variation-settings:normal;opacity:0.07;fill:#000000;fill-opacity:1;stroke:none;stroke-width:3;stroke-linecap:round;stroke-linejoin:round;stroke-miterlimit:4;stroke-dasharray:none;stroke-dashoffset:0;stroke-opacity:1;marker:none;stop-color:#000000"
     d="M 4.5 14 L 4.5 44 L 8.59375 44 C 10.457022 44 12 42.457074 12 40.59375 L 12 17.40625 C 12 15.542929 10.457022 14 8.59375 14 L 4.5 14 z M 17.458984 14 C 15.56705 14 14 15.542929 14 17.40625 L 14 40.59375 C 14 42.457074 15.56705 44 17.458984 44 L 46.541016 44 C 48.432955 44 50 42.457074 50 40.59375 L 50 17.40625 C 50 15.542929 48.432955 14 46.541016 14 L 17.458984 14 z M 55.40625 14 C 53.542978 14 52 15.542929 52 17.40625 L 52 40.59375 C 52 42.457074 53.542978 44 55.40625 44 L 59.5 44 L 59.5 14 L 55.40625 14 z " />
  <path
     id="path6532"
     style="opacity:0.3;fill:#000000;fill-opacity:1;stroke:none;stroke-width:1;stroke-linecap:round;stroke-linejoin:round;stroke-miterlimit:4;stroke-dasharray:none;stroke-dashoffset:0;stroke-opacity:1;marker:none"
     d="M 4.5 15 L 4.5 43 L 8.8339844 43 C 10.034314 43 11 42.063787 11 40.900391 L 11 17.099609 C 11 15.936214 10.034314 15 8.8339844 15 L 4.5 15 z M 17.125 15 C 15.947754 15 15 15.936225 15 17.099609 L 15 40.900391 C 15 42.063789 15.947754 43 17.125 43 L 46.875 43 C 48.052246 43 49 42.063789 49 40.900391 L 49 17.099609 C 49 15.936225 48.052246 15 46.875 15 L 17.125 15 z M 55.166016 15 C 53.965686 15 53 15.936214 53 17.099609 L 53 40.900391 C 53 42.063787 53.965686 43 55.166016 43 L 59.5 43 L 59.5 15 L 55.166016 15 z " />
  <path
     id="path6510"
     style="fill:url(#linearGradient6522);fill-opacity:1;stroke:none;stroke-width:1;stroke-linecap:round;stroke-linejoin:round;stroke-miterlimit:4;stroke-dasharray:none;stroke-dashoffset:0;stroke-opacity:1;marker:none"
     d="M 4.5 14 L 4.5 42 L 8.9414062 42 C 10.113323 42 11 41.063785 11 39.900391 L 11 16.099609 C 11 14.936215 10.113323 14 8.9414062 14 L 4.5 14 z M 17.197266 14 C 16.022686 14 15 14.936212 15 16.099609 L 15 39.900391 C 15 41.063788 16.022686 42 17.197266 42 L 46.878906 42 C 48.053485 42 49 41.063788 49 39.900391 L 49 16.099609 C 49 14.936212 48.053485 14 46.878906 14 L 17.197266 14 z M 55.166016 14 C 53.965688 14 53 14.936215 53 16.099609 L 53 39.900391 C 53 41.063785 53.965688 42 55.166016 42 L 59.5 42 L 59.5 14 L 55.166016 14 z " />
  <path
     id="path6516"
     style="opacity:0.3;fill:none;fill-opacity:1;stroke:url(#linearGradient6520);stroke-width:1;stroke-linecap:butt;stroke-linejoin:round;stroke-miterlimit:4;stroke-dasharray:none;stroke-dashoffset:0;stroke-opacity:1;marker:none"
     d="M 4.5 14.5 L 4.5 41.5 L 8.7949219 41.5 C 9.5762011 41.5 10.5 40.874997 10.5 40.099609 L 10.5 15.900391 C 10.5 15.125002 9.5762011 14.5 8.7949219 14.5 L 4.5 14.5 z M 17.220703 14.5 C 16.432381 14.5 15.5 15.125002 15.5 15.900391 L 15.5 40.099609 C 15.5 40.874997 16.432381 41.5 17.220703 41.5 L 47.076172 41.5 C 47.864494 41.5 48.5 40.874997 48.5 40.099609 L 48.5 15.900391 C 48.5 15.125002 47.864494 14.5 47.076172 14.5 L 17.220703 14.5 z M 54.982422 14.5 C 54.160759 14.5 53.5 15.125003 53.5 15.900391 L 53.5 40.099609 C 53.5 40.874997 54.160759 41.5 54.982422 41.5 L 59.5 41.5 L 59.5 14.5 L 54.982422 14.5 z " />
  <path
     id="rect946-3"
     style="font-variation-settings:normal;opacity:0.15;fill:none;fill-opacity:1;stroke:#002e99;stroke-width:1.47712;stroke-linecap:round;stroke-linejoin:round;stroke-miterlimit:4;stroke-dasharray:none;stroke-dashoffset:0;stroke-opacity:1;marker:none;stop-color:#000000"
     d="m 26,22 c -0.554,0 -1,0.446 -1,1 v 6 c 0,0.554 0.446,1 1,1 h 7 c 0.554,0 1,-0.446 1,-1 v -6 c 0,-0.554 -0.446,-1 -1,-1 z"
     transform="matrix(1.3361585,0,0,1.37205,0.58332536,-3.1717587)" />
  <rect
     ry="0.99999994"
     rx="1"
     y="27.000465"
     x="34"
     height="11"
     width="12"
     id="rect946"
     style="opacity:0.3;fill:#002e99;fill-opacity:1;stroke:none;stroke-width:1;stroke-linecap:round;stroke-linejoin:round;stroke-miterlimit:4;stroke-dasharray:none;stroke-dashoffset:0;stroke-opacity:1;marker:none" />
  <rect
     style="fill:url(#linearGradient938);fill-opacity:1;stroke:none;stroke-width:1;stroke-linecap:round;stroke-linejoin:round;stroke-miterlimit:4;stroke-dasharray:none;stroke-dashoffset:0;stroke-opacity:1;marker:none"
     id="rect928"
     width="12"
     height="11"
     x="34"
     y="26.000465"
     rx="1"
     ry="0.99999994" />
  <path
     id="rect946-3-6"
     style="font-variation-settings:normal;opacity:0.15;fill:none;fill-opacity:1;stroke:#002e99;stroke-width:1.41924;stroke-linecap:round;stroke-linejoin:round;stroke-miterlimit:4;stroke-dasharray:none;stroke-dashoffset:0;stroke-opacity:1;marker:none;stop-color:#000000"
     d="m 26,22 c -0.554,0 -1,0.446 -1,1 v 6 c 0,0.554 0.446,1 1,1 h 7 c 0.554,0 1,-0.446 1,-1 v -6 c 0,-0.554 -0.446,-1 -1,-1 z"
     transform="matrix(1.4473704,0,0,1.37205,-18.196972,-11.172225)" />
  <rect
     ry="0.99999994"
     rx="1"
     y="19"
     x="18"
     height="11"
     width="13"
     id="rect946-5"
     style="opacity:0.3;fill:#002e99;fill-opacity:1;stroke:none;stroke-width:1;stroke-linecap:round;stroke-linejoin:round;stroke-miterlimit:4;stroke-dasharray:none;stroke-dashoffset:0;stroke-opacity:1;marker:none" />
  <rect
     style="fill:url(#linearGradient6594);fill-opacity:1;stroke:none;stroke-width:1;stroke-linecap:round;stroke-linejoin:round;stroke-miterlimit:4;stroke-dasharray:none;stroke-dashoffset:0;stroke-opacity:1;marker:none"
     id="rect928-69"
     width="13"
     height="11"
     x="18"
     y="18"
     rx="1"
     ry="0.99999994" />
</svg>
