<?xml version="1.0" encoding="UTF-8" standalone="no"?>
<svg
   id="svg13986"
   height="64"
   width="64"
   version="1.1"
   xmlns:xlink="http://www.w3.org/1999/xlink"
   xmlns="http://www.w3.org/2000/svg"
   xmlns:svg="http://www.w3.org/2000/svg"
   xmlns:rdf="http://www.w3.org/1999/02/22-rdf-syntax-ns#"
   xmlns:cc="http://creativecommons.org/ns#"
   xmlns:dc="http://purl.org/dc/elements/1.1/">
  <defs
     id="defs13988">
    <linearGradient
       id="linearGradient3924-2-2-5-8">
      <stop
         offset="0"
         style="stop-color:#ffffff;stop-opacity:1"
         id="stop3926-9-4-9-6" />
      <stop
         offset="0.08788455"
         style="stop-color:#ffffff;stop-opacity:0.23529412"
         id="stop3928-9-8-6-5" />
      <stop
         offset="0.91637498"
         style="stop-color:#ffffff;stop-opacity:0.15686275"
         id="stop3930-3-5-1-7" />
      <stop
         offset="1"
         style="stop-color:#ffffff;stop-opacity:0.39215687"
         id="stop3932-8-0-4-8" />
    </linearGradient>
    <linearGradient
       id="linearGradient3688-166-749-4-0-3-8">
      <stop
         offset="0"
         style="stop-color:#181818;stop-opacity:1"
         id="stop2883-4-0-1-8" />
      <stop
         offset="1"
         style="stop-color:#181818;stop-opacity:0"
         id="stop2885-9-2-9-6" />
    </linearGradient>
    <linearGradient
       id="linearGradient3702-501-757-8-4-1-1">
      <stop
         offset="0"
         style="stop-color:#181818;stop-opacity:0"
         id="stop2895-8-9-9-1" />
      <stop
         offset="0.5"
         style="stop-color:#181818;stop-opacity:1"
         id="stop2897-7-8-7-7" />
      <stop
         offset="1"
         style="stop-color:#181818;stop-opacity:0"
         id="stop2899-4-5-1-5" />
    </linearGradient>
    <linearGradient
       y2="42.186646"
       x2="23.99999"
       y1="5.9147639"
       x1="23.99999"
       gradientTransform="matrix(1.4324324,0,0,1.3243243,-2.378381,-1.7837785)"
       gradientUnits="userSpaceOnUse"
       id="linearGradient3647"
       xlink:href="#linearGradient3924-2-2-5-8" />
    <radialGradient
       cx="4.9929786"
       cy="43.5"
       r="2.5"
       fx="4.9929786"
       fy="43.5"
       id="radialGradient3337-2-2-3"
       xlink:href="#linearGradient3688-166-749-4-0-3-8"
       gradientUnits="userSpaceOnUse"
       gradientTransform="matrix(2.4045407,0,0,0.99999998,41.985755,15.500001)" />
    <radialGradient
       cx="4.9929786"
       cy="43.5"
       r="2.5"
       fx="4.9929786"
       fy="43.5"
       id="radialGradient3339-1-4-5"
       xlink:href="#linearGradient3688-166-749-4-0-3-8"
       gradientUnits="userSpaceOnUse"
       gradientTransform="matrix(2.4045407,0,0,0.99999998,-22.014244,-102.5)" />
    <linearGradient
       x1="25.058096"
       y1="47.027729"
       x2="25.058096"
       y2="39.999443"
       id="linearGradient6394"
       xlink:href="#linearGradient3702-501-757-8-4-1-1"
       gradientUnits="userSpaceOnUse"
       gradientTransform="matrix(1.5714286,0,0,0.7142857,-5.7142853,27.928572)" />
    <linearGradient
       id="linearGradient909">
      <stop
         id="stop905"
         style="stop-color:#fafafa;stop-opacity:1"
         offset="0" />
      <stop
         id="stop907"
         style="stop-color:#d4d4d4;stop-opacity:1"
         offset="1" />
    </linearGradient>
    <linearGradient
       xlink:href="#linearGradient909"
       id="linearGradient1297"
       gradientUnits="userSpaceOnUse"
       gradientTransform="matrix(2.0769229,0,0,2.0769229,-1.230767,-65.230761)"
       x1="14.329722"
       y1="28.818197"
       x2="14.329722"
       y2="-0.070297658" />
  </defs>
  <metadata
     id="metadata13991">
    <rdf:RDF>
      <cc:Work
         rdf:about="">
        <dc:format>image/svg+xml</dc:format>
        <dc:type
           rdf:resource="http://purl.org/dc/dcmitype/StillImage" />
      </cc:Work>
    </rdf:RDF>
  </metadata>
  <g
     id="g866">
    <rect
       style="opacity:0.6;fill:url(#radialGradient3337-2-2-3);fill-opacity:1;stroke:none;stroke-width:1.06199"
       id="rect2801-5-5-7-9"
       y="56.5"
       x="54"
       height="5"
       width="6" />
    <rect
       style="opacity:0.6;fill:url(#radialGradient3339-1-4-5);fill-opacity:1;stroke:none;stroke-width:1.06199"
       id="rect3696-3-0-3-7"
       transform="scale(-1)"
       y="-61.5"
       x="-10"
       height="5"
       width="6" />
    <rect
       style="opacity:0.6;fill:url(#linearGradient6394);fill-opacity:1;stroke:none;stroke-width:1.06199"
       id="rect3700-5-6-8-4"
       y="56.5"
       x="10"
       height="5.0000005"
       width="44" />
  </g>
  <rect
     transform="scale(1,-1)"
     width="53.999996"
     height="53.999996"
     rx="5.5"
     ry="5.5"
     x="5"
     y="-58.999996"
     id="rect5505-6-29"
     style="color:#000000;display:inline;overflow:visible;visibility:visible;fill:url(#linearGradient1297);fill-opacity:1;fill-rule:nonzero;stroke:none;stroke-width:1;marker:none;enable-background:accumulate" />
  <rect
     width="53"
     height="49"
     rx="5"
     ry="5"
     x="5.4999986"
     y="5.5"
     id="rect6741-5-0-2-3"
     style="fill:none;stroke:url(#linearGradient3647);stroke-width:0.999997;stroke-linecap:round;stroke-linejoin:round;stroke-miterlimit:4;stroke-dasharray:none;stroke-dashoffset:0;stroke-opacity:1" />
  <rect
     width="55"
     height="55"
     rx="6"
     ry="6"
     x="4.4999986"
     y="4.5000019"
     id="rect5505-21-3-8-9-1-1"
     style="color:#000000;display:inline;overflow:visible;visibility:visible;opacity:0.5;fill:none;stroke:#555761;stroke-width:1;stroke-linecap:round;stroke-linejoin:round;stroke-miterlimit:4;stroke-dasharray:none;stroke-dashoffset:0;stroke-opacity:1;marker:none;enable-background:accumulate;font-variation-settings:normal;vector-effect:none;fill-opacity:1;-inkscape-stroke:none;stop-color:#000000;stop-opacity:1" />
  <g
     id="layer4-0"
     transform="matrix(0.9047486,0,0,0.9047486,-570.51497,-675.56047)" />
  <g
     id="layer4-0-7"
     transform="matrix(0.9047486,0,0,0.9047486,-570.51497,-668.32248)" />
  <g
     id="layer1-3"
     transform="matrix(0.9047486,0,0,0.9047486,-73.807987,0.49666306)" />
  <path
     id="text782-9-8"
     style="font-style:normal;font-variant:normal;font-weight:600;font-stretch:normal;font-size:17.3333px;line-height:1.25;font-family:Inter;-inkscape-font-specification:'Inter Semi-Bold';fill:#fafafa;fill-opacity:1;stroke:none;stroke-width:1"
     d="m 21.380317,11.891 c -7.259996,0 -11.484571,4.469658 -11.493317,11.432256 0.0088,7.128791 4.162925,11.229646 11.501644,11.229646 2.247977,0 4.638025,-0.566624 5.731391,-1.135177 l -0.743831,-2.223169 c -0.830963,0.31489 -2.843371,0.893707 -4.837684,0.893707 -5.790503,0 -8.920434,-3.133043 -8.920434,-8.801089 0,-5.283177 2.989391,-8.964842 8.70117,-8.964842 4.662139,0 8.135386,2.642116 8.126639,7.610403 0.0091,3.612503 -0.551651,5.237354 -1.951163,5.237354 -0.743499,0 -1.179168,-0.593957 -1.187915,-1.459909 v -8.326479 h -2.442436 v 0.97975 h -0.122117 c -0.279907,-0.769735 -1.959846,-1.478077 -3.857941,-1.215667 -2.440407,0.323639 -4.782174,2.326294 -4.782174,6.070003 0,3.85742 2.097187,6.121982 4.948704,6.253186 1.985566,0.09622 3.524543,-0.785383 3.935646,-1.826274 h 0.105471 c 0.209935,1.312046 1.366643,2.02796 3.133537,1.931743 3.761194,-0.139959 4.835325,-3.499236 4.826568,-7.496607 C 32.060175,16.333067 28.194216,11.891 21.380317,11.891 Z m -0.58563,7.76583 c 2.177999,0 2.983238,1.067983 2.991984,3.447162 0.0262,2.554119 -0.795649,3.857935 -3.008635,3.857935 -2.282964,0 -3.052623,-1.855296 -3.061369,-3.849608 0.0088,-1.994311 1.118698,-3.455489 3.07802,-3.455489 z" />
  <path
     id="text782-9"
     style="font-style:normal;font-variant:normal;font-weight:600;font-stretch:normal;font-size:17.3333px;line-height:1.25;font-family:Inter;-inkscape-font-specification:'Inter Semi-Bold';fill:#7e8087;fill-opacity:1;stroke:none;stroke-width:1"
     d="m 21.380317,10.891462 c -7.259996,0 -11.484571,4.469658 -11.493317,11.432256 0.0088,7.128791 4.162925,11.229646 11.501644,11.229646 2.247977,0 4.638025,-0.566624 5.731391,-1.135177 l -0.743831,-2.223169 c -0.830963,0.31489 -2.843371,0.893707 -4.837684,0.893707 -5.790503,0 -8.920434,-3.133043 -8.920434,-8.801089 0,-5.283177 2.989391,-8.964842 8.70117,-8.964842 4.662139,0 8.135386,2.642116 8.126639,7.610403 0.0091,3.612503 -0.551651,5.237354 -1.951163,5.237354 -0.743499,0 -1.179168,-0.593957 -1.187915,-1.459909 v -8.326479 h -2.442436 v 0.97975 h -0.122117 c -0.279907,-0.769735 -1.959846,-1.478077 -3.857941,-1.215667 -2.440407,0.323639 -4.782174,2.326294 -4.782174,6.070003 0,3.85742 2.097187,6.121982 4.948704,6.253186 1.985566,0.09622 3.524543,-0.785383 3.935646,-1.826274 h 0.105471 c 0.209935,1.312046 1.366643,2.02796 3.133537,1.931743 3.761194,-0.139959 4.835325,-3.499236 4.826568,-7.496607 0.0081,-5.746768 -3.857859,-10.188835 -10.671758,-10.188835 z m -0.58563,7.76583 c 2.177999,0 2.983238,1.067983 2.991984,3.447162 0.0262,2.554119 -0.795649,3.857935 -3.008635,3.857935 -2.282964,0 -3.052623,-1.855296 -3.061369,-3.849608 0.0088,-1.994311 1.118698,-3.455489 3.07802,-3.455489 z" />
  <path
     id="rect5505-6-29-0"
     style="color:#000000;display:inline;overflow:visible;visibility:visible;fill:#000000;fill-opacity:1;fill-rule:nonzero;stroke:none;stroke-width:1;marker:none;enable-background:accumulate;font-variation-settings:normal;opacity:0.1;vector-effect:none;stroke-linecap:butt;stroke-linejoin:miter;stroke-miterlimit:4;stroke-dasharray:none;stroke-dashoffset:0;stroke-opacity:1;-inkscape-stroke:none;stop-color:#000000;stop-opacity:1"
     d="M 5 -49.5 L 5 -53.5 C 5 -56.546997 7.453003 -59 10.5 -59 L 53.5 -59 C 56.546997 -59 59 -56.546997 59 -53.5 L 59 -49.5 C 59 -52.546997 56.546997 -55 53.5 -55 L 10.5 -55 C 7.453003 -55 5 -52.546997 5 -49.5 z "
     transform="scale(1,-1)" />
</svg>
