<svg xmlns="http://www.w3.org/2000/svg" xmlns:xlink="http://www.w3.org/1999/xlink" height="128" width="128"><defs><linearGradient id="c"><stop style="stop-color:#cd9ef7;stop-opacity:1" offset="0"/><stop style="stop-color:#a56de2;stop-opacity:1" offset="1"/></linearGradient><linearGradient gradientTransform="translate(-1.514 1.487) scale(2.72973)" gradientUnits="userSpaceOnUse" xlink:href="#a" id="l" y2="43" x2="24" y1="5" x1="24"/><linearGradient id="a"><stop offset="0" style="stop-color:#fff;stop-opacity:1"/><stop offset=".063" style="stop-color:#fff;stop-opacity:.23529412"/><stop offset=".951" style="stop-color:#fff;stop-opacity:.15686275"/><stop offset="1" style="stop-color:#fff;stop-opacity:.39215687"/></linearGradient><linearGradient id="d"><stop offset="0" style="stop-color:#181818;stop-opacity:1"/><stop offset="1" style="stop-color:#181818;stop-opacity:0"/></linearGradient><linearGradient id="e"><stop offset="0" style="stop-color:#181818;stop-opacity:1"/><stop offset="1" style="stop-color:#181818;stop-opacity:0"/></linearGradient><linearGradient gradientUnits="userSpaceOnUse" xlink:href="#b" id="j" y2="39.999" x2="25.058" y1="47.028" x1="25.058"/><linearGradient id="b"><stop offset="0" style="stop-color:#181818;stop-opacity:0"/><stop offset=".5" style="stop-color:#181818;stop-opacity:1"/><stop offset="1" style="stop-color:#181818;stop-opacity:0"/></linearGradient><linearGradient id="f"><stop offset="0" style="stop-color:#000;stop-opacity:1"/><stop offset="1" style="stop-color:#000;stop-opacity:0"/></linearGradient><linearGradient xlink:href="#c" id="k" x1="62.872" y1="15.907" x2="62.872" y2="118.427" gradientUnits="userSpaceOnUse"/><radialGradient gradientTransform="matrix(2.00378 0 0 1.4 27.988 -17.4)" gradientUnits="userSpaceOnUse" xlink:href="#d" id="h" fy="43.5" fx="4.993" r="2.5" cy="43.5" cx="4.993"/><radialGradient gradientTransform="matrix(2.00378 0 0 1.4 -20.012 -104.4)" gradientUnits="userSpaceOnUse" xlink:href="#e" id="i" fy="43.5" fx="4.993" r="2.5" cy="43.5" cx="4.993"/><radialGradient gradientTransform="matrix(1.5564 0 0 .16979 70.27 102.13)" gradientUnits="userSpaceOnUse" xlink:href="#f" id="g" fy="93.468" fx="-4.029" r="35.338" cy="93.468" cx="-4.029"/></defs><path d="M119 118a55 6 0 0 1-110 0 55 6 0 1 1 110 0Z" style="color:#000;display:inline;overflow:visible;visibility:visible;opacity:.2;fill:url(#g);fill-opacity:1;fill-rule:nonzero;stroke:none;stroke-width:1;marker:none;enable-background:accumulate"/><g style="display:inline"><g style="opacity:.4"><path style="fill:url(#h);fill-opacity:1;stroke:none" d="M38 40h5v7h-5z" transform="matrix(2.8421 0 0 .71429 -4.21 87.429)"/><path transform="matrix(-2.8421 0 0 -.71429 -4.21 87.429)" style="fill:url(#i);fill-opacity:1;stroke:none" d="M-10-47h5v7h-5z"/><path style="fill:url(#j);fill-opacity:1;stroke:none" d="M10 40h28v7H10z" transform="matrix(2.8421 0 0 .71429 -4.21 87.429)"/></g></g><rect width="103" height="103" rx="10" ry="10" x="12.5" y="15.5" style="color:#000;display:inline;overflow:visible;visibility:visible;fill:url(#k);fill-opacity:1;fill-rule:nonzero;stroke:none;stroke-width:1;marker:none;enable-background:accumulate"/><rect width="101" height="101" rx="9" ry="9" x="13.5" y="16.5" style="opacity:.3;fill:none;stroke:url(#l);stroke-width:1;stroke-linecap:round;stroke-linejoin:round;stroke-miterlimit:4;stroke-dasharray:none;stroke-dashoffset:0;stroke-opacity:1"/><rect width="103" height="103" rx="10" ry="10" x="12.5" y="15.5" style="color:#000;display:inline;overflow:visible;visibility:visible;opacity:.5;fill:none;stroke:#7239b3;stroke-width:1;stroke-linecap:round;stroke-linejoin:round;stroke-miterlimit:4;stroke-dasharray:none;stroke-dashoffset:0;stroke-opacity:1;marker:none;enable-background:accumulate"/><path style="color:#000;font-style:normal;font-variant:normal;font-weight:400;font-stretch:normal;font-size:medium;line-height:normal;font-family:sans-serif;font-variant-ligatures:normal;font-variant-position:normal;font-variant-caps:normal;font-variant-numeric:normal;font-variant-alternates:normal;font-variant-east-asian:normal;font-feature-settings:normal;font-variation-settings:normal;text-indent:0;text-align:start;text-decoration:none;text-decoration-line:none;text-decoration-style:solid;text-decoration-color:#000;letter-spacing:normal;word-spacing:normal;text-transform:none;writing-mode:lr-tb;direction:ltr;text-orientation:mixed;dominant-baseline:auto;baseline-shift:baseline;text-anchor:start;white-space:normal;shape-padding:0;shape-margin:0;inline-size:0;clip-rule:nonzero;display:inline;overflow:visible;visibility:visible;opacity:.15;isolation:auto;mix-blend-mode:normal;color-interpolation:sRGB;color-interpolation-filters:linearRGB;solid-color:#000;solid-opacity:1;vector-effect:none;fill:#7239b3;fill-opacity:1;fill-rule:nonzero;stroke:none;stroke-width:2;stroke-linecap:butt;stroke-linejoin:miter;stroke-miterlimit:4;stroke-dasharray:none;stroke-dashoffset:0;stroke-opacity:1;marker:none;color-rendering:auto;image-rendering:auto;shape-rendering:auto;text-rendering:auto;enable-background:accumulate;stop-color:#000" d="M63.81 42.004a4.625 4.625 0 0 0-4.04 2.734l-5.124 11.547H41.375a4.606 4.606 0 0 0-4.314 2.944 4.534 4.534 0 0 0 1.251 5.048L48.638 73.3l-5.276 14.58v.002c-.712 1.982.048 3.965 1.444 5.084a4.643 4.643 0 0 0 5.306.357h.002L64 84.952l13.887 8.37h.002a4.643 4.643 0 0 0 5.306-.357c1.396-1.12 2.157-3.102 1.444-5.084v-.002l-5.276-14.58 10.325-9.022a4.534 4.534 0 0 0 1.251-5.048 4.607 4.607 0 0 0-4.314-2.944H73.354L68.23 44.738a4.629 4.629 0 0 0-4.418-2.734Z"/><path class="warning" d="M63.852 43.003a3.622 3.622 0 0 0-3.168 2.14l-5.387 12.141H41.375c-3.327.004-4.89 4.06-2.404 6.242l10.839 9.47-5.508 15.223c-1.139 3.167 2.384 5.993 5.296 4.246L64 83.783l14.402 8.682c2.912 1.747 6.435-1.079 5.296-4.246L78.19 72.996l10.839-9.47c2.485-2.182.923-6.238-2.404-6.242H72.703l-5.387-12.14a3.626 3.626 0 0 0-3.464-2.141Z" style="font-variation-settings:normal;opacity:.3;vector-effect:none;fill:#7239b3;fill-opacity:1;stroke:none;stroke-width:2.5;stroke-linecap:butt;stroke-linejoin:miter;stroke-miterlimit:4;stroke-dasharray:none;stroke-dashoffset:0;stroke-opacity:1;marker:none;stop-color:#000"/><path class="warning" d="M63.852 42.003a3.622 3.622 0 0 0-3.168 2.14l-5.387 12.141H41.375c-3.327.004-4.89 4.06-2.404 6.242l10.839 9.47-5.508 15.223c-1.139 3.167 2.384 5.993 5.296 4.246L64 82.783l14.402 8.682c2.912 1.747 6.435-1.079 5.296-4.246L78.19 71.996l10.839-9.47c2.485-2.182.923-6.238-2.404-6.242H72.703l-5.387-12.14a3.626 3.626 0 0 0-3.464-2.141Z" style="font-variation-settings:normal;vector-effect:none;fill:#fff;fill-opacity:1;stroke:none;stroke-width:2.5;stroke-linecap:butt;stroke-linejoin:miter;stroke-miterlimit:4;stroke-dasharray:none;stroke-dashoffset:0;stroke-opacity:1;marker:none;stop-color:#000"/><path style="font-variation-settings:normal;opacity:.07;vector-effect:none;fill:#7239b3;fill-opacity:1;stroke:none;stroke-width:2.5;stroke-linecap:butt;stroke-linejoin:miter;stroke-miterlimit:4;stroke-dasharray:none;stroke-dashoffset:0;stroke-opacity:1;marker:none;stop-color:#000" d="M37.904 58.877c-.36 1.226-.085 2.637 1.067 3.648l10.289 8.99.55-1.519-10.84-9.47a3.516 3.516 0 0 1-1.066-1.649Zm52.192 0a3.516 3.516 0 0 1-1.067 1.648l-10.84 9.471.551 1.52 10.29-8.99c1.151-1.012 1.425-2.423 1.066-3.649zM64 80.783l-14.402 8.682c-2.188 1.312-4.718.045-5.36-2.01-.885 3.069 2.521 5.712 5.36 4.01L64 82.783l14.402 8.682c2.839 1.702 6.245-.941 5.36-4.01-.642 2.055-3.172 3.322-5.36 2.01z"/><path style="font-variation-settings:normal;opacity:.15;vector-effect:none;fill:#7239b3;fill-opacity:1;stroke:none;stroke-width:2.5;stroke-linecap:butt;stroke-linejoin:miter;stroke-miterlimit:4;stroke-dasharray:none;stroke-dashoffset:0;stroke-opacity:1;marker:none;stop-color:#000" d="M37.795 59.38c-.158 1.096.179 2.27 1.176 3.145l10.564 9.23.276-.759-10.84-9.47a3.475 3.475 0 0 1-1.176-2.145zm52.41 0a3.475 3.475 0 0 1-1.176 2.145l-10.84 9.471.276.76 10.564-9.23c.997-.876 1.334-2.05 1.176-3.145zM64 81.784l-14.402 8.682c-2.355 1.412-5.106-.167-5.471-2.498-.394 2.84 2.791 5.105 5.47 3.498L64 82.783l14.402 8.682c2.68 1.607 5.865-.659 5.471-3.498-.365 2.331-3.116 3.91-5.47 2.498z"/></svg>