<?xml version="1.0" encoding="UTF-8" standalone="no"?>
<!-- Created with Inkscape (http://www.inkscape.org/) -->

<svg
   xmlns:dc="http://purl.org/dc/elements/1.1/"
   xmlns:cc="http://creativecommons.org/ns#"
   xmlns:rdf="http://www.w3.org/1999/02/22-rdf-syntax-ns#"
   xmlns:svg="http://www.w3.org/2000/svg"
   xmlns="http://www.w3.org/2000/svg"
   xmlns:xlink="http://www.w3.org/1999/xlink"
   xmlns:inkscape="http://www.inkscape.org/namespaces/inkscape"
   version="1.1"
   width="128"
   height="128"
   id="svg4601">
  <defs
     id="defs4603">
    <linearGradient
       x1="23.99999"
       y1="4.999989"
       x2="23.99999"
       y2="37.159817"
       id="linearGradient3224-83"
       xlink:href="#linearGradient3924-9"
       gradientUnits="userSpaceOnUse"
       gradientTransform="matrix(2.7297298,0,0,2.7297297,-1.513512,-62.51348)" />
    <linearGradient
       id="linearGradient3924-9">
      <stop
         id="stop3926-0"
         style="stop-color:#ffffff;stop-opacity:1"
         offset="0" />
      <stop
         id="stop3928-19"
         style="stop-color:#ffffff;stop-opacity:0.23529412"
         offset="0.06316455" />
      <stop
         id="stop3930-4"
         style="stop-color:#ffffff;stop-opacity:0.15686275"
         offset="0.95056331" />
      <stop
         id="stop3932-3"
         style="stop-color:#ffffff;stop-opacity:0.39215687"
         offset="1" />
    </linearGradient>
    <linearGradient
       x1="24"
       y1="44"
       x2="24"
       y2="3.8990016"
       id="linearGradient4095-6"
       xlink:href="#linearGradient3856-8-9"
       gradientUnits="userSpaceOnUse"
       gradientTransform="matrix(2.641026,0,0,2.6787549,0.61538954,-60.554394)" />
    <linearGradient
       id="linearGradient3856-8-9">
      <stop
         id="stop3858-3-4"
         style="stop-color:#b67926;stop-opacity:1"
         offset="0" />
      <stop
         id="stop3860-2-7"
         style="stop-color:#eab41a;stop-opacity:1"
         offset="1" />
    </linearGradient>
    <linearGradient
       x1="25.525208"
       y1="35.00634"
       x2="25.525208"
       y2="15.737678"
       id="linearGradient3142"
       xlink:href="#linearGradient3163"
       gradientUnits="userSpaceOnUse"
       gradientTransform="matrix(1.9289072,0,0,1.6548366,17.706642,-59.041694)"
       spreadMethod="pad" />
    <linearGradient
       id="linearGradient3163">
      <stop
         id="stop3165"
         style="stop-color:#969696;stop-opacity:1"
         offset="0" />
      <stop
         id="stop3167"
         style="stop-color:#858585;stop-opacity:0.63478261"
         offset="0.58334059" />
      <stop
         id="stop3169"
         style="stop-color:#939393;stop-opacity:0"
         offset="1" />
    </linearGradient>
    <linearGradient
       x1="23.99999"
       y1="4.999989"
       x2="23.99999"
       y2="43"
       id="linearGradient3224"
       xlink:href="#linearGradient3924"
       gradientUnits="userSpaceOnUse"
       gradientTransform="matrix(2.7297298,0,0,2.7297297,-1.513512,-62.51348)" />
    <linearGradient
       id="linearGradient3924">
      <stop
         id="stop3926"
         style="stop-color:#ffffff;stop-opacity:1"
         offset="0" />
      <stop
         id="stop3928"
         style="stop-color:#ffffff;stop-opacity:0.23529412"
         offset="0.06316455" />
      <stop
         id="stop3930"
         style="stop-color:#ffffff;stop-opacity:0.15686275"
         offset="0.95056331" />
      <stop
         id="stop3932"
         style="stop-color:#ffffff;stop-opacity:0.39215687"
         offset="1" />
    </linearGradient>
    <linearGradient
       x1="29.044432"
       y1="46.392052"
       x2="29.044432"
       y2="2.0920272"
       id="linearGradient3907"
       xlink:href="#linearGradient3909-6"
       gradientUnits="userSpaceOnUse"
       gradientTransform="matrix(2.909632,0,0,1.5966276,-5.823781,-50.872374)" />
    <linearGradient
       id="linearGradient3909-6">
      <stop
         id="stop3911-0"
         style="stop-color:#fff0bf;stop-opacity:1"
         offset="0" />
      <stop
         id="stop3913-0"
         style="stop-color:#fdde76;stop-opacity:1"
         offset="1" />
    </linearGradient>
    <linearGradient
       x1="23.99999"
       y1="4.999989"
       x2="23.99999"
       y2="43"
       id="linearGradient4021"
       xlink:href="#linearGradient3924-803-0"
       gradientUnits="userSpaceOnUse"
       gradientTransform="matrix(2.2432433,0,0,1.3783785,10.162169,-43.081064)" />
    <linearGradient
       id="linearGradient3924-803-0">
      <stop
         id="stop3252-06"
         style="stop-color:#ffffff;stop-opacity:1"
         offset="0" />
      <stop
         id="stop3254-1"
         style="stop-color:#ffffff;stop-opacity:0.23529412"
         offset="0.06316455" />
      <stop
         id="stop3256-0"
         style="stop-color:#ffffff;stop-opacity:0.15686275"
         offset="0.95056331" />
      <stop
         id="stop3258-2"
         style="stop-color:#ffffff;stop-opacity:0.39215687"
         offset="1" />
    </linearGradient>
    <linearGradient
       x1="16.626165"
       y1="15.298182"
       x2="20.054544"
       y2="24.627615"
       id="linearGradient4024"
       xlink:href="#linearGradient8265-821-176-38-919-66-249-7-7-6"
       gradientUnits="userSpaceOnUse"
       gradientTransform="matrix(1.8236406,0,0,1.8434142,20.147314,-46.529974)" />
    <linearGradient
       id="linearGradient8265-821-176-38-919-66-249-7-7-6">
      <stop
         id="stop2687-1-9-9"
         style="stop-color:#ffffff;stop-opacity:1"
         offset="0" />
      <stop
         id="stop2689-5-4-3"
         style="stop-color:#ffffff;stop-opacity:0"
         offset="1" />
    </linearGradient>
    <linearGradient
       x1="25.525208"
       y1="30.188753"
       x2="25.525208"
       y2="15.737678"
       id="linearGradient4027"
       xlink:href="#linearGradient3333-4-4"
       gradientUnits="userSpaceOnUse"
       gradientTransform="matrix(1.9289072,0,0,1.6548366,17.706642,-60.669274)"
       spreadMethod="reflect" />
    <linearGradient
       id="linearGradient3333-4-4">
      <stop
         id="stop3335-4-6"
         style="stop-color:#ffffff;stop-opacity:1"
         offset="0" />
      <stop
         id="stop3337-7-2"
         style="stop-color:#ffffff;stop-opacity:0"
         offset="1" />
    </linearGradient>
    <linearGradient
       x1="23.903786"
       y1="35.75"
       x2="23.903786"
       y2="20.443331"
       id="linearGradient4030"
       xlink:href="#linearGradient3495"
       gradientUnits="userSpaceOnUse"
       gradientTransform="matrix(1.9250708,0,0,1.7660544,17.983934,-60.732334)" />
    <linearGradient
       id="linearGradient3495">
      <stop
         id="stop3497"
         style="stop-color:#000000;stop-opacity:1"
         offset="0" />
      <stop
         id="stop3874"
         style="stop-color:#000000;stop-opacity:0.49803922"
         offset="0.5" />
      <stop
         id="stop3499"
         style="stop-color:#000000;stop-opacity:0"
         offset="1" />
    </linearGradient>
    <linearGradient
       x1="25.525208"
       y1="30.188753"
       x2="25.525208"
       y2="15.737678"
       id="linearGradient4033"
       xlink:href="#linearGradient3333-4"
       gradientUnits="userSpaceOnUse"
       gradientTransform="matrix(1.9289072,0,0,1.6548366,17.706642,-57.333044)"
       spreadMethod="reflect" />
    <linearGradient
       id="linearGradient3333-4">
      <stop
         id="stop3335-4"
         style="stop-color:#ffffff;stop-opacity:1"
         offset="0" />
      <stop
         id="stop3337-7"
         style="stop-color:#ffffff;stop-opacity:0"
         offset="1" />
    </linearGradient>
    <linearGradient
       x1="25.525208"
       y1="30.188753"
       x2="25.525208"
       y2="44.139393"
       id="linearGradient6722"
       xlink:href="#linearGradient3866"
       gradientUnits="userSpaceOnUse"
       gradientTransform="matrix(1.9289072,0,0,1.6548366,17.706642,-59.041694)"
       spreadMethod="pad" />
    <linearGradient
       id="linearGradient3866">
      <stop
         id="stop3868"
         style="stop-color:#a0a0a0;stop-opacity:1"
         offset="0" />
      <stop
         id="stop3872"
         style="stop-color:#8f8f8f;stop-opacity:0.63478261"
         offset="0.5" />
      <stop
         id="stop3870"
         style="stop-color:#9d9d9d;stop-opacity:0"
         offset="1" />
    </linearGradient>
    <linearGradient
       x1="20.052792"
       y1="10.636821"
       x2="20.052792"
       y2="45.243549"
       id="linearGradient6725"
       xlink:href="#linearGradient3600"
       gradientUnits="userSpaceOnUse"
       gradientTransform="matrix(1.8666667,0,0,1.5757573,19.200003,-54.121204)" />
    <linearGradient
       id="linearGradient3600">
      <stop
         id="stop3602"
         style="stop-color:#f4f4f4;stop-opacity:1"
         offset="0" />
      <stop
         id="stop3604"
         style="stop-color:#dbdbdb;stop-opacity:1"
         offset="1" />
    </linearGradient>
    <radialGradient
       cx="19.740461"
       cy="8.4497671"
       r="19.99999"
       fx="19.740461"
       fy="8.4497671"
       id="radialGradient3227"
       xlink:href="#linearGradient3846"
       gradientUnits="userSpaceOnUse"
       gradientTransform="matrix(1.0070068e-7,4.0565072,-2.9744146,0,89.133414,-57.561944)" />
    <linearGradient
       id="linearGradient3846">
      <stop
         id="stop3848"
         style="stop-color:#fff3cb;stop-opacity:1"
         offset="0" />
      <stop
         id="stop3850"
         style="stop-color:#fdde76;stop-opacity:1"
         offset="0.26238" />
      <stop
         id="stop3852"
         style="stop-color:#f9c440;stop-opacity:1"
         offset="0.66093999" />
      <stop
         id="stop3854"
         style="stop-color:#e48b20;stop-opacity:1"
         offset="1" />
    </linearGradient>
    <linearGradient
       x1="24"
       y1="44"
       x2="24"
       y2="3.8990016"
       id="linearGradient3229"
       xlink:href="#linearGradient3856"
       gradientUnits="userSpaceOnUse"
       gradientTransform="matrix(2.641026,0,0,2.641026,0.61538954,-60.384614)" />
    <linearGradient
       id="linearGradient3856">
      <stop
         id="stop3858"
         style="stop-color:#b67926;stop-opacity:1"
         offset="0" />
      <stop
         id="stop3860"
         style="stop-color:#eab41a;stop-opacity:1"
         offset="1" />
    </linearGradient>
    <radialGradient
       cx="4.9929786"
       cy="43.5"
       r="2.5"
       fx="4.9929786"
       fy="43.5"
       id="radialGradient2455-1"
       xlink:href="#linearGradient3688-166-749-5"
       gradientUnits="userSpaceOnUse"
       gradientTransform="matrix(2.003784,0,0,1.4,27.98813,-17.4)" />
    <linearGradient
       id="linearGradient3688-166-749-5">
      <stop
         id="stop2883-0"
         style="stop-color:#181818;stop-opacity:1"
         offset="0" />
      <stop
         id="stop2885-5"
         style="stop-color:#181818;stop-opacity:0"
         offset="1" />
    </linearGradient>
    <radialGradient
       cx="4.9929786"
       cy="43.5"
       r="2.5"
       fx="4.9929786"
       fy="43.5"
       id="radialGradient2457-5"
       xlink:href="#linearGradient3688-464-309-8"
       gradientUnits="userSpaceOnUse"
       gradientTransform="matrix(2.003784,0,0,1.4,-20.01187,-104.4)" />
    <linearGradient
       id="linearGradient3688-464-309-8">
      <stop
         id="stop2889-9"
         style="stop-color:#181818;stop-opacity:1"
         offset="0" />
      <stop
         id="stop2891-4"
         style="stop-color:#181818;stop-opacity:0"
         offset="1" />
    </linearGradient>
    <linearGradient
       x1="25.058096"
       y1="47.027729"
       x2="25.058096"
       y2="39.999443"
       id="linearGradient2459-7"
       xlink:href="#linearGradient3702-501-757-0"
       gradientUnits="userSpaceOnUse" />
    <linearGradient
       id="linearGradient3702-501-757-0">
      <stop
         id="stop2895-0"
         style="stop-color:#181818;stop-opacity:0"
         offset="0" />
      <stop
         id="stop2897-2"
         style="stop-color:#181818;stop-opacity:1"
         offset="0.5" />
      <stop
         id="stop2899-6"
         style="stop-color:#181818;stop-opacity:0"
         offset="1" />
    </linearGradient>
    <linearGradient
       id="linearGradient3811">
      <stop
         id="stop3813"
         style="stop-color:#000000;stop-opacity:1"
         offset="0" />
      <stop
         id="stop3815"
         style="stop-color:#000000;stop-opacity:0"
         offset="1" />
    </linearGradient>
    <radialGradient
       cx="-4.0287771"
       cy="93.467628"
       r="35.338131"
       fx="-4.0287771"
       fy="93.467628"
       id="radialGradient4599"
       xlink:href="#linearGradient3811"
       gradientUnits="userSpaceOnUse"
       gradientTransform="matrix(1,0,0,0.43648207,0,52.670685)" />
  </defs>
  <metadata
     id="metadata4606">
    <rdf:RDF>
      <cc:Work
         rdf:about="">
        <dc:format>image/svg+xml</dc:format>
        <dc:type
           rdf:resource="http://purl.org/dc/dcmitype/StillImage" />
        <dc:title />
      </cc:Work>
    </rdf:RDF>
  </metadata>
  <g
     transform="translate(0,64)"
     id="layer1">
    <path
       d="m 31.309354,93.467628 a 35.338131,15.42446 0 1 1 -70.676262,0 35.338131,15.42446 0 1 1 70.676262,0 z"
       inkscape:connector-curvature="0"
       transform="matrix(1.5563924,0,0,0.38899254,70.270358,17.641786)"
       id="path3041"
       style="opacity:0.2;color:#000000;fill:url(#radialGradient4599);fill-opacity:1;fill-rule:nonzero;stroke:none;stroke-width:1;marker:none;visibility:visible;display:inline;overflow:visible;enable-background:accumulate" />
    <g
       transform="matrix(2.6999989,0,0,0.55555607,-0.80000186,30.888878)"
       id="g2036"
       style="display:inline">
      <g
         transform="matrix(1.052632,0,0,1.285713,-1.263158,-13.42854)"
         id="g3712"
         style="opacity:0.4">
        <rect
           width="5"
           height="7"
           x="38"
           y="40"
           id="rect2801"
           style="fill:url(#radialGradient2455-1);fill-opacity:1;stroke:none" />
        <rect
           width="5"
           height="7"
           x="-10"
           y="-47"
           transform="scale(-1,-1)"
           id="rect3696"
           style="fill:url(#radialGradient2457-5);fill-opacity:1;stroke:none" />
        <rect
           width="28"
           height="7.0000005"
           x="10"
           y="40"
           id="rect3700"
           style="fill:url(#linearGradient2459-7);fill-opacity:1;stroke:none" />
      </g>
    </g>
    <rect
       width="103"
       height="103"
       rx="6"
       ry="6"
       x="12.5"
       y="-48.500004"
       id="rect5505-21"
       style="color:#000000;fill:url(#radialGradient3227);fill-opacity:1;fill-rule:nonzero;stroke:url(#linearGradient3229);stroke-width:1;stroke-linecap:round;stroke-linejoin:round;stroke-miterlimit:4;stroke-opacity:1;stroke-dasharray:none;stroke-dashoffset:0;marker:none;visibility:visible;display:inline;overflow:visible;enable-background:accumulate" />
    <rect
       width="48"
       height="13"
       rx="0"
       ry="0"
       x="40"
       y="15.999999"
       id="rect4813"
       style="color:#000000;fill:#cccccc;fill-opacity:1;fill-rule:nonzero;stroke:none;stroke-width:1;marker:none;visibility:visible;display:inline;overflow:visible;enable-background:accumulate" />
    <path
       d="m 21.71875,-40.562494 c -2.432683,1.1089 -0.882356,4.5946 -1.28125,6.82455 0,15.72515 0,33.4503 0,49.17545 2.499369,2.70548 7.776447,0.50099 11.312591,1.24995 3.403253,0.14685 9.179675,-3.18855 9.792804,1.68432 0.254594,3.0545 -0.05749,6.12792 -0.07415,9.19073 15.020833,0 30.041667,0 45.0625,0 -0.03968,-3.36925 -0.343685,-6.77802 0.0625,-10.125 1.233384,-3.64267 5.560424,-0.61199 8.516238,-0.75 3.723754,0 7.447517,0 11.171267,0 2.4274,-1.10146 0.88409,-4.57314 1.28125,-6.7933 0,-15.72515 0,-33.4503 0,-49.17545 -1.10921,-2.43285 -4.59455,-0.88249 -6.82456,-1.28125 -26.339729,0 -52.679462,0 -79.01919,0 z"
       inkscape:connector-curvature="0"
       id="path4088"
       style="opacity:0.07000002;color:#000000;fill:none;stroke:#ab7a16;stroke-width:0.99992204;stroke-opacity:1;marker:none;visibility:visible;display:inline;overflow:visible;enable-background:accumulate" />
    <path
       d="m 40.230845,18.500006 47.5385,0"
       inkscape:connector-curvature="0"
       id="path4815"
       style="opacity:0.2;fill:none;stroke:#000000;stroke-width:0.99999994px;stroke-linecap:butt;stroke-linejoin:miter;stroke-opacity:1" />
    <path
       d="m 40.230845,20.500006 47.5385,0"
       inkscape:connector-curvature="0"
       id="path4815-2"
       style="opacity:0.17000002;fill:none;stroke:#000000;stroke-width:0.99999994px;stroke-linecap:butt;stroke-linejoin:miter;stroke-opacity:1" />
    <rect
       width="86"
       height="54"
       rx="2.8065088"
       ry="2.8065088"
       x="21"
       y="-36.999969"
       id="rect2396-9-0"
       style="opacity:0.2;fill:#000000;fill-opacity:1;fill-rule:evenodd;stroke:none;stroke-width:0.99999994;marker:none;visibility:visible;display:inline;overflow:visible;enable-background:accumulate" />
    <rect
       width="84"
       height="51.999992"
       rx="1.9999998"
       ry="1.9999999"
       x="22"
       y="-36.000004"
       id="rect2396-9"
       style="fill:url(#linearGradient6725);fill-opacity:1;fill-rule:evenodd;stroke:none;stroke-width:0.99999994;marker:none;visibility:visible;display:inline;overflow:visible;enable-background:accumulate" />
    <path
       d="m 53.692816,-8.569174 -25.993101,22.55949 z m 20.675475,0.10342 26.173939,22.04128 z"
       inkscape:connector-curvature="0"
       id="path3341-2"
       style="fill:none;stroke:url(#linearGradient6722);stroke-width:0.99999982;stroke-linecap:butt;stroke-linejoin:miter;stroke-miterlimit:4;stroke-opacity:1;stroke-dasharray:none;stroke-dashoffset:0;marker:none;visibility:visible;display:inline;overflow:visible;enable-background:accumulate" />
    <path
       d="M 53.692816,-6.860534 29.875,13.500006 z m 20.675475,0.10342 23.756706,20.25712 z"
       inkscape:connector-curvature="0"
       id="path3341-2-6"
       style="opacity:0.7;fill:none;stroke:url(#linearGradient4033);stroke-width:0.99999982;stroke-linecap:butt;stroke-linejoin:miter;stroke-miterlimit:4;stroke-opacity:1;stroke-dasharray:none;stroke-dashoffset:0;marker:none;visibility:visible;display:inline;overflow:visible;enable-background:accumulate" />
    <path
       d="m 34.029647,-22.917704 30.155984,23.16771 29.785548,-23.16771"
       inkscape:connector-curvature="0"
       id="path3493"
       style="opacity:0.1;fill:none;stroke:url(#linearGradient4030);stroke-width:0.99999982;stroke-linecap:butt;stroke-linejoin:miter;stroke-miterlimit:4;stroke-opacity:1;stroke-dasharray:none" />
    <path
       d="m 23.949946,-33.591184 40.050467,30.84119 40.655747,-31.04858"
       inkscape:connector-curvature="0"
       id="path3926"
       style="opacity:0.7;fill:none;stroke:url(#linearGradient4027);stroke-width:0.99999982;stroke-linecap:butt;stroke-linejoin:miter;stroke-miterlimit:4;stroke-opacity:1;stroke-dasharray:none;stroke-dashoffset:0;marker:none;visibility:visible;display:inline;overflow:visible;enable-background:accumulate" />
    <path
       d="m 24.690028,-35.999994 c -1.50137,0 -2.690028,1.29266 -2.690028,2.55 l 0.02794,31.45 c 2.416475,-0.03424 82.13788,-12.53312 83.97206,-13.13433 l 0,-18.31567 c 0,-0.96108 -1.17419,-2.55 -2.47421,-2.55 l -78.835765,0 z"
       inkscape:connector-curvature="0"
       id="path3333-7"
       style="opacity:0.2;fill:url(#linearGradient4024);fill-opacity:1;fill-rule:evenodd;stroke:none" />
    <rect
       width="83"
       height="51"
       rx="1.4992675"
       ry="1.4992675"
       x="22.5"
       y="-35.500004"
       id="rect6741-1-5"
       style="fill:none;stroke:url(#linearGradient4021);stroke-width:0.99999982;stroke-linecap:round;stroke-linejoin:round;stroke-miterlimit:4;stroke-opacity:1;stroke-dasharray:none;stroke-dashoffset:0" />
    <path
       d="m 64.28125,-48.000004 c -15.287221,0.0104 -30.566022,0.0405 -45.84375,0.0312 -2.678427,-0.0569 -5.126618,2.11038 -5.34375,4.78125 -0.06433,19.26834 0.01847,38.73051 0,58 -0.492671,3.16507 1.246973,6.89132 4.75,7.125 6.397369,0.0137 12.883638,0 19.28125,0 2.222084,0 2.782893,1.49567 2.875,2.25 l 0,-5.125 c 0,-2.57468 -2.8125,-3.06245 -2.8125,-3.06245 l -15.78125,0 C 19.921579,15.999996 19,14.954166 19,13.468746 l 0,-52.65625 c 0,-1.48542 1.171579,-2.8125 2.65625,-2.8125 l 85.21875,0 c 1.48468,0 2.125,0.57708 2.125,2.0625 l 0,52.9375 c 0,1.48542 -0.64032,3 -2.125,3 l -16.0625,0 c 0,0 -2.8125,0.24947 -2.8125,2.8125 l 0,5.1875 c 0.08554,-0.7551 0.601894,-1.99982 2.625,-2 5.719935,-5.1e-4 11.46767,-0.004 17.1875,0 3.1635,0.49292 6.86017,-1.52649 7.09375,-5.03125 0.0643,-19.26834 -0.0183,-38.543 0,-57.8125 0.49267,-3.16507 -1.24698,-6.89129 -4.75,-7.125 -15.27715,-0.0322 -30.587779,-0.0416 -45.875,-0.0312 z m -24.25,77 0,4.46875 c -0.240025,1.55309 0.692966,3.29229 2.40625,3.40625 14.033077,0.0319 28.028837,0.0847 42.0625,0.0937 1.559069,0.23911 3.385607,-0.69967 3.5,-2.40625 l 0,-5.56245 -47.96875,0 z"
       inkscape:connector-curvature="0"
       id="rect5505-21-4-0"
       style="color:#000000;fill:url(#linearGradient3907);fill-opacity:1;fill-rule:nonzero;stroke:none;stroke-width:0.99992192;marker:none;visibility:visible;display:inline;overflow:visible;enable-background:accumulate" />
    <path
       d="m 21.657757,-41.490734 c -2.988306,0.39465 -1.970719,3.78074 -2.150192,5.87108 0,16.3709 0,32.7418 0,49.1127 0.395328,2.98319 3.787215,1.96735 5.881145,2.14651 4.208945,0.0328 8.424523,-0.0654 12.629343,0.0488 3.066092,0.43851 2.698426,3.82566 2.660633,6.11464 L 40.5,28.500006 l 47,0 c 0,0 -0.354266,-8.16271 -0.02794,-10.76306 1.04657,-3.01767 4.540782,-1.87182 6.955981,-2.09737 3.971401,0 7.942799,0 11.914199,0 2.98831,-0.39466 1.97072,-3.78074 2.1502,-5.87109 0,-16.3709 0,-32.7418 0,-49.11269 -0.39533,-2.9832 -3.78722,-1.96735 -5.88115,-2.14652 -26.984512,0 -53.969023,0 -80.953533,0 z"
       inkscape:connector-curvature="0"
       id="path4037"
       style="opacity:0.3;color:#000000;fill:none;stroke:#b77a26;stroke-width:0.99992204;stroke-opacity:1;marker:none;visibility:visible;display:inline;overflow:visible;enable-background:accumulate" />
    <rect
       width="101"
       height="101"
       rx="5"
       ry="5"
       x="13.5"
       y="-47.5"
       id="rect6741-7"
       style="opacity:0.8;fill:none;stroke:url(#linearGradient3224);stroke-width:1;stroke-linecap:round;stroke-linejoin:round;stroke-miterlimit:4;stroke-opacity:1;stroke-dasharray:none;stroke-dashoffset:0" />
    <path
       d="m 40.230845,22.500006 47.5385,0"
       inkscape:connector-curvature="0"
       id="path4815-3"
       style="opacity:0.2;fill:none;stroke:#000000;stroke-width:0.99999994px;stroke-linecap:butt;stroke-linejoin:miter;stroke-opacity:1" />
    <path
       d="m 40.230845,24.500006 47.5385,0"
       inkscape:connector-curvature="0"
       id="path4815-2-6"
       style="opacity:0.17000002;fill:none;stroke:#000000;stroke-width:0.99999994px;stroke-linecap:butt;stroke-linejoin:miter;stroke-opacity:1" />
    <path
       d="m 40.230845,26.500006 47.5385,0"
       inkscape:connector-curvature="0"
       id="path4815-7"
       style="opacity:0.2;fill:none;stroke:#000000;stroke-width:0.99999994px;stroke-linecap:butt;stroke-linejoin:miter;stroke-opacity:1" />
    <path
       d="m 40.230845,28.500006 47.5385,0"
       inkscape:connector-curvature="0"
       id="path4815-2-69"
       style="opacity:0.17000002;fill:none;stroke:#000000;stroke-width:0.99999994px;stroke-linecap:butt;stroke-linejoin:miter;stroke-opacity:1" />
    <path
       d="m 23.949946,-31.963594 40.050467,30.84118 40.655747,-31.04857"
       inkscape:connector-curvature="0"
       id="path3341-2-3"
       style="fill:none;stroke:url(#linearGradient3142);stroke-width:0.99999982;stroke-linecap:butt;stroke-linejoin:miter;stroke-miterlimit:4;stroke-opacity:1;stroke-dasharray:none;stroke-dashoffset:0;marker:none;visibility:visible;display:inline;overflow:visible;enable-background:accumulate" />
    <path
       d="m 64.28125,-48.531254 c -15.287672,0.0104 -30.566923,0.04055 -45.84375,0.03125 -2.967368,-0.06304 -5.633973,2.316458 -5.875,5.28125 -3.11e-4,0.01041 -3.11e-4,0.02084 0,0.03125 -0.06424,19.239867 0.01811,38.669113 0,57.90625 -2.9e-5,0.03114 3e-5,0.06261 0,0.09375 -0.239665,1.679396 0.103568,3.490841 0.96875,4.9375 0.881096,1.473269 2.351115,2.589994 4.28125,2.71875 0.01041,3.11e-4 0.02084,3.11e-4 0.03125,0 6.398874,0.0137 12.884385,0 19.28125,0 0.993603,0 1.510781,0.293252 1.84375,0.65625 0.332969,0.362998 0.464393,0.833388 0.5,1.125 0.0075,0.03213 0.01796,0.06356 0.03125,0.09375 -0.0012,0.02081 -0.0012,0.04169 0,0.0625 l 0,4.5 c -0.0028,0.03117 -0.0028,0.06258 0,0.09375 l 0,2.4375 0,1.9375 0,0.09375 c -0.113297,0.878077 0.08684,1.798307 0.5625,2.53125 0.49241,0.75876 1.317439,1.33798 2.34375,1.40625 0.01041,3.1e-4 0.02084,3.1e-4 0.03125,0 14.001278,0.0318 27.965449,0.0846 41.96875,0.0937 0.031,0.005 0.06265,-0.004 0.09375,0 0.883142,0.11286 1.809683,-0.0897 2.5625,-0.5625 0.77933,-0.48941 1.399548,-1.31136 1.46875,-2.34375 3.11e-4,-0.01041 3.11e-4,-0.02084 0,-0.03125 l 0,-5.5625 c -0.0024,-0.05327 -0.01296,-0.106164 -0.03125,-0.15625 0.0012,-0.02081 0.0012,-0.04169 0,-0.0625 l 0,-4.53125 0,-0.0625 c 0.01542,-0.0402 0.02594,-0.08227 0.03125,-0.125 0.03313,-0.292463 0.147868,-0.669587 0.4375,-0.96875 0.289632,-0.299163 0.75204,-0.56242 1.65625,-0.5625 5.688916,-5.07e-4 11.40527,-0.0039 17.09375,0 0.0307,0.0048 0.063,-0.0043 0.0937,0 1.69293,0.239526 3.50259,-0.187402 4.9375,-1.125 1.46097,-0.954624 2.55897,-2.477714 2.6875,-4.40625 3.1e-4,-0.01041 3.1e-4,-0.02084 0,-0.03125 0.0642,-19.23975 -0.0179,-38.482298 0,-57.71875 0.005,-0.03081 -0.004,-0.06286 0,-0.09375 0.23966,-1.679396 -0.10357,-3.490845 -0.96875,-4.9375 -0.8811,-1.473265 -2.35112,-2.589978 -4.28125,-2.71875 -0.0104,-3.11e-4 -0.0208,-3.11e-4 -0.0313,0 -15.277671,-0.0322 -30.587326,-0.04165 -45.875,-0.03125 z"
       inkscape:connector-curvature="0"
       id="path4152"
       style="opacity:0.19333329;color:#000000;fill:none;stroke:url(#linearGradient4095-6);stroke-width:1;stroke-linecap:round;stroke-linejoin:round;stroke-miterlimit:4;stroke-opacity:1;stroke-dasharray:none;stroke-dashoffset:0;marker:none;visibility:visible;display:inline;overflow:visible;enable-background:accumulate" />
    <path
       d="m 13.53125,21.427878 c 0.776883,0.952202 2.351115,1.912607 4.28125,2.041363 0.01041,3.11e-4 0.02084,3.11e-4 0.03125,0 6.398874,0.0137 11.884135,0 18.281,0 0.993603,0 1.510781,0.293252 1.84375,0.65625 0.332969,0.362998 0.464393,0.833388 0.5,1.125 0.0075,0.03213 0.01796,0.06356 0.03125,0.09375 -0.0012,0.02081 -0.0012,0.04169 0,0.0625 l 0,8.579483 c -0.04376,2.594532 1.684884,4.420522 4.122711,4.420522 l 42.294013,0.0937 c 2.843167,0 4.583526,-1.84264 4.583526,-4.366008 l 3.75e-4,-9.321923 c 0,-0.950009 0.243626,-1.280824 1.443782,-1.280824 0,0 12.428243,-0.0039 18.116723,0 3.20409,0 4.35483,-1.325684 5.11779,-1.99089"
       inkscape:connector-curvature="0"
       id="path4152-4"
       style="opacity:0.8;color:#000000;fill:none;stroke:url(#linearGradient3224-83);stroke-width:1;stroke-linecap:round;stroke-linejoin:round;stroke-miterlimit:4;stroke-opacity:1;stroke-dasharray:none;stroke-dashoffset:0;marker:none;visibility:visible;display:inline;overflow:visible;enable-background:accumulate" />
  </g>
</svg>
