<?xml version="1.0" encoding="UTF-8" standalone="no"?>
<!-- Created with Inkscape (http://www.inkscape.org/) -->

<svg
   xmlns:dc="http://purl.org/dc/elements/1.1/"
   xmlns:cc="http://creativecommons.org/ns#"
   xmlns:rdf="http://www.w3.org/1999/02/22-rdf-syntax-ns#"
   xmlns:svg="http://www.w3.org/2000/svg"
   xmlns="http://www.w3.org/2000/svg"
   xmlns:xlink="http://www.w3.org/1999/xlink"
   xmlns:inkscape="http://www.inkscape.org/namespaces/inkscape"
   version="1.1"
   width="128"
   height="128"
   id="svg5157">
  <defs
     id="defs5159">
    <linearGradient
       id="linearGradient4246">
      <stop
         id="stop4248"
         style="stop-color:#ffffff;stop-opacity:1"
         offset="0" />
      <stop
         id="stop4250"
         style="stop-color:#ffffff;stop-opacity:0.23529412"
         offset="0.23521248" />
      <stop
         id="stop4252"
         style="stop-color:#ffffff;stop-opacity:0.15686275"
         offset="0.76404774" />
      <stop
         id="stop4254"
         style="stop-color:#ffffff;stop-opacity:0.39215687"
         offset="1" />
    </linearGradient>
    <linearGradient
       id="linearGradient3242-7-3-8-9-0-2">
      <stop
         id="stop3244-5-8-5-3-4-4"
         style="stop-color:#eef87e;stop-opacity:1"
         offset="0" />
      <stop
         id="stop3246-9-5-1-2-5-3"
         style="stop-color:#cde34f;stop-opacity:1"
         offset="0.26238" />
      <stop
         id="stop3248-7-2-0-84-2-0"
         style="stop-color:#93b723;stop-opacity:1"
         offset="0.66093999" />
      <stop
         id="stop3250-8-2-8-3-3-4"
         style="stop-color:#5a7e0d;stop-opacity:1"
         offset="1" />
    </linearGradient>
    <radialGradient
       cx="299.44821"
       cy="-290.5918"
       r="17.1528"
       fx="297.44989"
       fy="-289.9133"
       id="XMLID_2_-8"
       gradientUnits="userSpaceOnUse"
       gradientTransform="matrix(0.8232,0.2312,0.2703,-0.9626,-96.2274,-315.3433)">
      <stop
         id="stop228-2"
         style="stop-color:#000000;stop-opacity:1"
         offset="0" />
      <stop
         id="stop230-7"
         style="stop-color:#000000;stop-opacity:0"
         offset="1" />
    </radialGradient>
    <linearGradient
       id="linearGradient2867-449-88-871-390-598-476-591-434-148-57-177-3-8-6">
      <stop
         id="stop3750-8-9-0"
         style="stop-color:#5bc2ee;stop-opacity:1"
         offset="0" />
      <stop
         id="stop3752-3-2-8"
         style="stop-color:#42baea;stop-opacity:1"
         offset="0.26238" />
      <stop
         id="stop3754-7-2-7"
         style="stop-color:#3689e6;stop-opacity:1"
         offset="0.704952" />
      <stop
         id="stop3756-9-3-6"
         style="stop-color:#2b63a0;stop-opacity:1"
         offset="1" />
    </linearGradient>
    <linearGradient
       id="linearGradient3820-7-2-8-6">
      <stop
         id="stop3822-2-6-5-0"
         style="stop-color:#3d3d3d;stop-opacity:1"
         offset="0" />
      <stop
         id="stop3864-8-7-4-1"
         style="stop-color:#686868;stop-opacity:0.49803922"
         offset="0.5" />
      <stop
         id="stop3824-1-2-6-7"
         style="stop-color:#686868;stop-opacity:0"
         offset="1" />
    </linearGradient>
    <linearGradient
       x1="71.204407"
       y1="6.8949885"
       x2="71.204407"
       y2="44.00914"
       id="linearGradient5267"
       xlink:href="#linearGradient4246"
       gradientUnits="userSpaceOnUse"
       gradientTransform="matrix(2.7567564,0,0,2.7567564,-133.25186,-67.905563)" />
    <radialGradient
       cx="18.164446"
       cy="8.449769"
       r="19.99999"
       fx="8.894803"
       fy="8.5985041"
       id="radialGradient5270"
       xlink:href="#linearGradient3242-7-3-8-9-0-2"
       gradientUnits="userSpaceOnUse"
       gradientTransform="matrix(0,3.5027864,-3.3090405,-4.0448548e-8,92.459105,-62.015358)" />
    <linearGradient
       x1="-1085.9586"
       y1="539.40955"
       x2="-474.68497"
       y2="375.61926"
       id="linearGradient5275"
       xlink:href="#XMLID_2_-8"
       gradientUnits="userSpaceOnUse"
       gradientTransform="matrix(0.17796026,0,0,0.14954125,216.71264,-67.15218)" />
    <radialGradient
       cx="15.645058"
       cy="8.449769"
       r="19.99999"
       fx="-0.12323578"
       fy="8.44977"
       id="radialGradient5279"
       xlink:href="#linearGradient2867-449-88-871-390-598-476-591-434-148-57-177-3-8-6"
       gradientUnits="userSpaceOnUse"
       gradientTransform="matrix(-1.7030133e-7,2.7986346,-2.6367191,-1.9276587e-7,86.77997,-49.34197)" />
    <radialGradient
       cx="99.157013"
       cy="186.17059"
       r="62.769119"
       fx="99.157013"
       fy="186.17059"
       id="radialGradient5282"
       xlink:href="#linearGradient3820-7-2-8-6"
       gradientUnits="userSpaceOnUse"
       gradientTransform="matrix(1,0,0,0.1666667,0,155.14216)" />
  </defs>
  <metadata
     id="metadata5162">
    <rdf:RDF>
      <cc:Work
         rdf:about="">
        <dc:format>image/svg+xml</dc:format>
        <dc:type
           rdf:resource="http://purl.org/dc/dcmitype/StillImage" />
        <dc:title />
      </cc:Work>
    </rdf:RDF>
  </metadata>
  <g
     transform="translate(0,64)"
     id="layer1">
    <path
       d="m 161.92613,186.17059 a 62.769119,10.461519 0 1 1 -125.538236,0 62.769119,10.461519 0 1 1 125.538236,0 z"
       transform="matrix(0.6869404,0,0,1.2877013,-4.02174,-195.20343)"
       id="path3818-0-5-0"
       style="fill:url(#radialGradient5282);fill-opacity:1;stroke:none" />
    <path
       d="m 64.5,-50.001824 c -28.691795,0 -52,23.30819 -52,51.9999979 0,28.6918081 23.308205,52.0000141 52,52.0000041 28.6918,0 52.00001,-23.308196 52,-52.0000041 0,-28.6918079 -23.3082,-51.9999979 -52,-51.9999979 z"
       inkscape:connector-curvature="0"
       id="path2555-7-6"
       style="color:#000000;fill:url(#radialGradient5279);fill-opacity:1;fill-rule:nonzero;stroke:none;stroke-width:1;marker:none;visibility:visible;display:inline;overflow:visible;enable-background:accumulate" />
    <path
       d="m 64.499455,-49.999995 c -1.152795,0 -2.303249,0.05091 -3.4375,0.125 a 1.9776207,1.9776207 0 0 0 1.96875,1.84375 c 12.229807,0 23.888232,12.400832 24.78125,25.75 0.0014,0.0206 -0.0013,0.0419 0,0.0625 -0.06836,12.8435619 -10.539763,23.2499999 -23.4375,23.2499999 a 1.9776207,1.9776207 0 0 0 -0.125,0 l -1.3125,0.09375 -0.03125,0 c -14.76944,0.76476 -26.5625,12.9494551 -26.5625,27.8750001 0,9.033364 4.34088,17.01353 11.03125,22.093753 5.36556,1.87491 11.12455,2.90625 17.125,2.90625 28.6918,0 52.000015,-23.308195 51.999995,-52.0000031 0,-28.6918079 -23.308195,-51.9999999 -51.999995,-51.9999999 z"
       inkscape:connector-curvature="0"
       id="path7568"
       style="opacity:0.1;color:#000000;fill:#000000;fill-opacity:1;fill-rule:nonzero;stroke:none;stroke-width:1;marker:none;visibility:visible;display:inline;overflow:visible;enable-background:accumulate" />
    <path
       d="m 63.531245,-48.158072 -4.5,0.4375 -6.96875,1.625 c 0.59428,-0.178356 1.19672,-0.360496 1.8125,-0.53125 l -0.375,-0.5625 c -3.95671,0.718035 -7.74582,1.821462 -11.3125,3.25 l -0.53125,0.96875 -0.34375,-0.59375 c -0.34469,0.144813 -0.69096,0.286484 -1.03125,0.4375 l 0.0937,1.15625 -1.71875,1.21875 -1,2.28125 2.09375,0 0.8125,-1.46875 0.28125,-0.5625 c 0.91627,-0.555556 1.78553,-1.183995 2.71875,-1.71875 l 2.15625,0.625 c 1.41576,0.824683 2.83307,1.676569 4.25,2.5 l 2.09375,-1.65625 -2.34375,-0.84375 -1.09375,-1.84375 -4,-0.40625 -0.0937,-0.375 1.75,0.3125 0.96875,-0.84375 2.1875,-0.40625 c 0.51459,-0.214569 1.01178,-0.356599 1.53125,-0.53125 l -1.34375,1.09375 4.875,2.84375 0,1.71875 -1.90625,1.625 2.5625,4.375 1.71875,-0.875 2.15625,-2.875 c 3.057188,-0.810392 5.833255,-1.75414 8.71875,-2.875 l -0.1875,1.09375 1.4375,0.84375 2.53125,-1.46875 -1.25,-1.25 -1.71875,0.84375 -0.5625,-0.15625 c 0.124867,-0.04891 0.249597,-0.07528 0.375,-0.125 l 2.53125,-5.59375 -4.96875,-1.6875 c -0.476478,-0.01087 -0.95793,0 -1.4375,0 -0.323267,0 -0.646875,-0.005 -0.96875,0 z m -22.96875,8.21875 2.09375,1.21875 1.71875,0 0,-1.46875 -2.09375,-0.75 z m -6.34375,0 -0.90625,2 c 0,0 -1.59297,0.22631 -2,0.3125 -5.19822,4.106983 -15.684865,13.012828 -18.124995,29.7499999 0.0966,0.388053 1.71875,2.625 1.71875,2.625 l 4,2.03125 3.968745,0.9375 1.75,1.81249998 2.625,1.68750002 1.53125,-0.21875002 1.09375,0.46875002 0,0.3125 -1.46875,3.4999999 -1.15625,1.46875 0.34375,0.687501 -0.90625,2.7812502 3.375,5.28125 3.4375,2.59375 1.53125,1.84375 -0.1875,3.90625 1.09375,2.15625 -1.09375,4.187499 c 0,0 -0.14508,-0.01665 0,0.40625 0.0897,0.259365 2.27332,1.378894 4.09375,2.1875 -0.29,-1.551488 -0.4375,-3.145231 -0.4375,-4.78125 0,-8.74072 4.30932,-16.456487 10.9375,-21.1562502 -1.07861,-0.473747 -2.16301,-0.92685 -3.25,-1.40625 l -1.5625,-2.5937499 -2.8125,-0.53125 -1.53125,-3.5 -3.71875,0.37499998 -3.25,-1.99999998 -3.4375,2.56249998 0,0.375 c -1.03124,-0.255207 -2.26926,-0.297186 -3.1875,-0.78125 l -0.71875,-1.84374998 0,-2.03125 -2.34375,0.25 c 0.18957,-1.286527 0.43412,-2.619945 0.625,-3.90625 l -1.375,0 -1.343745,1.46875 -1.28125,0.5625 -1.875,-0.9375 -0.1875,-2.03125 0.34375,-2.1562499 2.8125,-1.875 2.281245,0 0.4375,-1.09375 2.8125,0.5625 2.09375,2.25 0.34375,-3.71875 3.625,-2.59375 1.28125,-2.6875 2.71875,-0.9375 1.4375,-1.875 3.4375,-0.5625 1.75,-2.15625 -5.1875,0 3.28125,-1.3125 2.25,0 2.90625,-0.84375 0.53125,2.375 1.28125,-1.6875 -1.4375,-0.84375 0.34375,-1.03125 -1.1875,-0.9375 -1.25,-0.3125 0.34375,-1.15625 -0.96875,-1.65625 -2.28125,0.8125 0.375,-1.46875 -2.625,-1.3125 -2.09375,3.09375 0.1875,1.0625 -2.09375,0.78125 -1.28125,2.4375 -0.625,-2.28125 -3.53125,-1.25 -0.625,-1.71875 4.78125,-2.28125 2.09375,-1.71875 0.1875,-2.03125 -1.1875,-0.53125 z m 49.6875,0.34375 -1.3125,0.71875 0,1.1875 -3.71875,2.03125 0.71875,3 2.1875,-1.3125 1.375,1.3125 1.53125,0.78125 1,-2.25 -0.5625,-1.3125 0.5625,-0.9375 0.34375,-0.28125 c -0.640467,-1.032471 -1.347315,-2.010702 -2.125,-2.9375 z m -10.8125,3.375 0,1.21875 0.8125,0.8125 0,1.84375 -0.46875,2.5 2.375,-0.40625 1.71875,-1.46875 -1.5625,-1.25 c -0.499494,-1.140424 -0.999832,-2.156186 -1.625,-3.25 z m -2,2.5 -1.4375,0.34375 0.34375,2.28125 1.90625,-0.84375 z m 16.84375,0.78125 -0.09375,0.53125 -2.875,2.09375 -3,-0.625 0,-1.46875 -1.375,0.78125 0.65625,1.3125 -2.1875,0 -1.1875,1.71875 -1.4375,1.375 -2.625,0.46875 1.53125,1.3125 0.375,1.3125 -1.90625,0 -2.53125,1.1875 0,3.40625 1.15625,0 1.09375,1 2.4375,-1 0.90625,-2.09375 1.8125,-0.90625 0.375,-0.8125 2.90625,-0.625 1.625,1.59375 1.71875,0.75 -1,1.71875 1.5625,-0.40625 0.8125,-1.71875 -2,-1.9375 0.8125,0 2,1.4375 0.34375,1.84375 1.625,1.625 c 0.235242,-1.385337 0.375001,-2.829542 0.375,-4.28125 0,-3.399728 -0.6881,-6.630039 -1.90625,-9.59375 z m -7.34375,14.125 -3.71875,0.375 -3.25,0.78125 c -1.860699,1.808609 -3.770111,3.621679 -5.53125,5.5 l -2.0625,4.3749999 0.96875,0.90625 -1.8125,2.28125 2,3.93749998 c 0.755393,0.732639 1.520097,1.459647 2.28125,2.18750002 9.331342,-1.86275802 16.832592,-8.883053 19.40625,-17.9374999 l -0.84375,0.0625 -1.25,1.25 -3.625,-3.125 z"
       inkscape:connector-curvature="0"
       id="path6534-4"
       style="opacity:0.5;color:#000000;fill:url(#linearGradient5275);fill-opacity:1;fill-rule:nonzero;stroke:none;stroke-width:1;marker:none;visibility:visible;display:inline;overflow:visible;enable-background:accumulate" />
    <path
       d="m 64.499455,-49.999995 c -0.844518,0 -1.696518,0.02257 -2.53125,0.0625 a 1.0626149,1.0626149 0 0 0 1.0625,1 c 12.834439,0 24.763485,12.757437 25.6875,26.59375 0.0014,0.0206 -0.0013,0.04189 0,0.0625 -0.03435,13.3768529 -10.923184,24.2187499 -24.34375,24.2187499 a 1.0500802,1.0500802 0 0 0 -0.0625,0 l -1.34375,0.09375 c -14.30248,0.724699 -25.71875,12.5203551 -25.71875,26.9687501 0,9.717301 5.16947,18.222164 12.90625,22.968753 0.0122,0.008 0.019,0.0238 0.0312,0.0312 0.17673,0.0506 0.35378,0.10747 0.53125,0.15625 0.37453,0.10287 0.74716,0.1866 1.125,0.28125 0.0221,0.006 0.0403,0.0257 0.0625,0.0312 0.699,0.17412 1.41519,0.32327 2.125,0.46875 0.84581,0.17334 1.70235,0.3371 2.5625,0.46875 0.86015,0.13164 1.72035,0.22364 2.59375,0.3125 0.758955,0.0772 1.513062,0.14336 2.28125,0.1875 0.115838,0.007 0.227712,0.0254 0.34375,0.0312 0.280178,0.0143 0.562402,0.0214 0.84375,0.0312 0.609908,0.0212 1.228718,0.0312 1.84375,0.0312 23.32255,0 43.075415,-15.388056 49.656245,-36.562502 0.25345,-0.813837 0.50482,-1.607131 0.71875,-2.4375 0.85826,-3.331127 1.38414,-6.7906892 1.5625,-10.3437512 0.045,-0.8855569 0.0625,-1.7596309 0.0625,-2.6562499 0,-9.872228 -2.7425,-19.1014169 -7.53125,-26.9687499 -0.43457,-0.714767 -0.87623,-1.40208 -1.34375,-2.09375 -1.40679,-2.08129 -2.97103,-4.053942 -4.65625,-5.90625 -0.55977,-0.615818 -1.1304,-1.192905 -1.71875,-1.78125 -0.583,-0.583004 -1.17126,-1.163791 -1.781245,-1.71875 -0.0058,-0.0052 -0.02549,0.0052 -0.03125,0 -9.237214,-8.396433 -21.488169,-13.531 -34.93745,-13.531 z"
       inkscape:connector-curvature="0"
       id="path7450"
       style="opacity:0.2;color:#000000;fill:#000000;fill-opacity:1;fill-rule:nonzero;stroke:none;stroke-width:1;marker:none;visibility:visible;display:inline;overflow:visible;enable-background:accumulate" />
    <path
       d="m 63.044015,-49.994982 c 13.53834,0 25.79903,13.252274 26.72707,27.664088 2e-5,13.9767259 -11.38099,25.3309009 -25.39071,25.3309009 l -1.33636,0.08334 c -13.75723,0.697071 -24.72255,12.0179221 -24.72255,25.9141621 0,13.896257 10.96532,25.217099 24.72255,25.914169 l 0,0.0833 c 0.44614,0.0113 0.88752,0 1.33636,0 28.75413,0 52.117825,-23.308603 52.117805,-51.9949781 0,-28.6864069 -23.363675,-52.9950079 -52.117805,-52.9950079 -0.44884,0 -0.89022,-0.01128 -1.33636,2.6e-5 z"
       inkscape:connector-curvature="0"
       id="path2555-1-56-4-0"
       style="opacity:0.4;color:#000000;fill:#000000;fill-opacity:1;fill-rule:nonzero;stroke:none;stroke-width:1;marker:none;visibility:visible;display:inline;overflow:visible;enable-background:accumulate" />
    <path
       d="m 63.044015,-49.994988 c 13.53834,0 25.79903,12.252275 26.72707,26.664089 2e-5,13.9767259 -11.38099,25.3309009 -25.39071,25.3309009 l -1.33636,0.08334 c -13.75723,0.697074 -24.72255,12.0179251 -24.72255,25.9141651 0,13.896257 10.96532,25.217091 24.72255,25.914171 l 0,0.0833 c 0.44614,0.0113 0.88752,0 1.33636,0 28.75413,0 52.117825,-23.308605 52.117805,-51.9949801 0,-28.6864069 -23.363675,-51.9950099 -52.117805,-51.9950099 -0.44884,0 -0.89022,-0.01128 -1.33636,2e-5 z"
       inkscape:connector-curvature="0"
       id="path2555-1-56-4"
       style="color:#000000;fill:url(#radialGradient5270);fill-opacity:1;fill-rule:nonzero;stroke:none;stroke-width:1;marker:none;visibility:visible;display:inline;overflow:visible;enable-background:accumulate" />
    <path
       d="M 115.5,1.9963659 C 115.5,30.163795 92.66484,52.998178 64.500645,52.998178 36.333865,52.998178 13.5,30.163537 13.5,1.9963659 13.5,-26.169761 36.333865,-49.001822 64.500645,-49.001822 92.66484,-49.001822 115.5,-26.169761 115.5,1.9963659 l 0,0 z M 72.843205,-48.562495 c 9.554079,4.161023 16.906452,14.02895 17.625,25.1875 a 0.67589634,0.67589634 0 0 1 0,0.03125 c 2e-5,14.3229759 -11.685011,25.9969239 -26.03125,26.0312499 -0.02116,5.1e-5 -0.04133,0 -0.0625,0 l -1.28125,0.09375 a 0.67589634,0.67589634 0 0 1 -0.03125,0 c -13.40627,0.679288 -24.0625,11.6779111 -24.0625,25.2187501 0,13.540856 10.65623,24.539463 24.0625,25.218753 a 0.67589634,0.67589634 0 0 1 0.25,0.0937 c 0.348703,0.003 0.689971,0 1.0625,0 28.388826,0 51.437515,-22.993195 51.437495,-51.3125031 0,-25.4372809 -18.608195,-46.5211989 -42.968745,-50.5624999 z"
       inkscape:connector-curvature="0"
       id="path8655-6"
       style="opacity:0.5;color:#000000;fill:none;stroke:url(#linearGradient5267);stroke-width:1;stroke-linecap:round;stroke-linejoin:round;stroke-miterlimit:4;stroke-opacity:1;stroke-dasharray:none;stroke-dashoffset:0;marker:none;visibility:visible;display:inline;overflow:visible;enable-background:accumulate" />
    <path
       d="M 116.5,1.9963279 C 116.5,30.716059 93.217097,53.998178 64.500664,53.998178 35.781595,53.998178 12.5,30.715795 12.5,1.9963279 12.5,-26.722075 35.781595,-50.001822 64.500664,-50.001822 93.217097,-50.001822 116.5,-26.722075 116.5,1.9963279 l 0,0 z"
       inkscape:connector-curvature="0"
       id="path8655-6-1"
       style="opacity:0.3;color:#000000;fill:none;stroke:#000000;stroke-width:0.99999994;stroke-linecap:round;stroke-linejoin:round;stroke-miterlimit:4;stroke-opacity:1;stroke-dasharray:none;stroke-dashoffset:0;marker:none;visibility:visible;display:inline;overflow:visible;enable-background:accumulate" />
  </g>
</svg>
