<?xml version="1.0" encoding="UTF-8" standalone="no"?>
<!-- Created with Inkscape (http://www.inkscape.org/) -->

<svg
   xmlns:dc="http://purl.org/dc/elements/1.1/"
   xmlns:cc="http://creativecommons.org/ns#"
   xmlns:rdf="http://www.w3.org/1999/02/22-rdf-syntax-ns#"
   xmlns:svg="http://www.w3.org/2000/svg"
   xmlns="http://www.w3.org/2000/svg"
   xmlns:xlink="http://www.w3.org/1999/xlink"
   xmlns:inkscape="http://www.inkscape.org/namespaces/inkscape"
   version="1.1"
   width="128"
   height="128"
   id="svg3726">
  <defs
     id="defs3728">
    <radialGradient
       cx="4.993"
       cy="43.5"
       r="2.5"
       id="radialGradient4554"
       xlink:href="#linearGradient5747"
       gradientUnits="userSpaceOnUse"
       gradientTransform="matrix(6.4121087,0,0,2.1999999,586.96202,603.16218)" />
    <linearGradient
       id="linearGradient5747">
      <stop
         id="stop5749"
         style="stop-color:#000000;stop-opacity:1"
         offset="0" />
      <stop
         id="stop5751"
         style="stop-color:#000000;stop-opacity:0"
         offset="1" />
    </linearGradient>
    <radialGradient
       cx="4.993"
       cy="43.5"
       r="2.5"
       id="radialGradient4551"
       xlink:href="#linearGradient5747"
       gradientUnits="userSpaceOnUse"
       gradientTransform="matrix(6.4121087,0,0,2.1999999,-565.03799,-794.5622)" />
    <linearGradient
       x1="24.976742"
       y1="43.5"
       x2="24.976742"
       y2="40"
       id="linearGradient4548"
       xlink:href="#linearGradient5747"
       gradientUnits="userSpaceOnUse"
       gradientTransform="matrix(3.0714286,0,0,1.5714285,502.28572,630.50504)"
       spreadMethod="reflect" />
    <radialGradient
       cx="7.4956999"
       cy="8.4497995"
       r="20"
       id="radialGradient4543"
       xlink:href="#radialGradient3164"
       gradientUnits="userSpaceOnUse"
       gradientTransform="matrix(1.431898e-7,5.93236,-5.8873778,0,625.74717,557.87383)" />
    <radialGradient
       cx="7.4956999"
       cy="8.4497995"
       r="20"
       id="radialGradient3164"
       gradientUnits="userSpaceOnUse"
       gradientTransform="matrix(1.273594e-7,3.2957553,-5.3809239,0,77.467708,-19.382411)">
      <stop
         id="stop3244"
         style="stop-color:#f8b17e;stop-opacity:1"
         offset="0" />
      <stop
         id="stop3246"
         style="stop-color:#e35d4f;stop-opacity:1"
         offset="0.26238" />
      <stop
         id="stop3248"
         style="stop-color:#c6262e;stop-opacity:1"
         offset="0.66093999" />
      <stop
         id="stop3250"
         style="stop-color:#690b54;stop-opacity:1"
         offset="1" />
    </radialGradient>
    <linearGradient
       x1="24"
       y1="44"
       x2="24"
       y2="3.8989999"
       id="linearGradient4545"
       xlink:href="#linearGradient3173"
       gradientUnits="userSpaceOnUse"
       gradientTransform="matrix(1.5641028,0,0,2.5384619,538.46157,589.43909)" />
    <linearGradient
       x1="24"
       y1="44"
       x2="24"
       y2="3.8989999"
       id="linearGradient3173"
       gradientUnits="userSpaceOnUse"
       gradientTransform="matrix(2.641026,0,0,2.641026,0.6153903,-60.384616)">
      <stop
         id="stop2492"
         style="stop-color:#791235;stop-opacity:1"
         offset="0" />
      <stop
         id="stop2494"
         style="stop-color:#bf1d09;stop-opacity:1"
         offset="1" />
    </linearGradient>
    <linearGradient
       x1="24"
       y1="5.3301001"
       x2="24"
       y2="43"
       id="linearGradient4540"
       xlink:href="#linearGradient3128"
       gradientUnits="userSpaceOnUse"
       gradientTransform="matrix(1.5945947,0,0,2.6216217,537.72974,587.44329)" />
    <linearGradient
       x1="24"
       y1="5.3301001"
       x2="24"
       y2="43"
       id="linearGradient3128"
       gradientUnits="userSpaceOnUse"
       gradientTransform="matrix(2.7297298,0,0,2.7297298,-1.5135111,-62.513486)">
      <stop
         id="stop3926"
         style="stop-color:#ffffff;stop-opacity:1"
         offset="0" />
      <stop
         id="stop3952"
         style="stop-color:#ffffff;stop-opacity:0.23529412"
         offset="0.02982479" />
      <stop
         id="stop3954"
         style="stop-color:#ffffff;stop-opacity:0.15686275"
         offset="0.9614116" />
      <stop
         id="stop3956"
         style="stop-color:#ffffff;stop-opacity:0.39215687"
         offset="1" />
    </linearGradient>
    <linearGradient
       x1="24"
       y1="5.3301001"
       x2="24"
       y2="43"
       id="linearGradient4535"
       xlink:href="#linearGradient3128"
       gradientUnits="userSpaceOnUse"
       gradientTransform="matrix(0.51351353,0,0,2.6216217,522.67567,587.44329)" />
    <linearGradient
       x1="667"
       y1="1025.3622"
       x2="681"
       y2="1025.3622"
       id="linearGradient4532"
       xlink:href="#linearGradient5761"
       gradientUnits="userSpaceOnUse"
       gradientTransform="matrix(0.84615385,0,0,0.84615385,-1253.6699,-1402.6142)" />
    <linearGradient
       id="linearGradient5761">
      <stop
         id="stop5763"
         style="stop-color:#ffffff;stop-opacity:1"
         offset="0" />
      <stop
         id="stop5765"
         style="stop-color:#ffffff;stop-opacity:0"
         offset="1" />
    </linearGradient>
    <linearGradient
       x1="667"
       y1="1025.3622"
       x2="681"
       y2="1025.3622"
       id="linearGradient4528"
       xlink:href="#linearGradient5761"
       gradientUnits="userSpaceOnUse"
       gradientTransform="matrix(0.84615385,0,0,0.84615385,-1231.6699,-1402.6142)" />
    <linearGradient
       x1="667"
       y1="1025.3622"
       x2="681"
       y2="1025.3622"
       id="linearGradient4524"
       xlink:href="#linearGradient5761"
       gradientUnits="userSpaceOnUse"
       gradientTransform="matrix(0.84615385,0,0,0.84615385,-1209.6699,-1402.6142)" />
    <linearGradient
       x1="667"
       y1="1025.3622"
       x2="681"
       y2="1025.3622"
       id="linearGradient4520"
       xlink:href="#linearGradient5761"
       gradientUnits="userSpaceOnUse"
       gradientTransform="matrix(0.84615385,0,0,0.84615385,-1187.6699,-1402.6142)" />
    <linearGradient
       x1="102.48387"
       y1="412"
       x2="135.51613"
       y2="412"
       id="linearGradient4513"
       xlink:href="#linearGradient5648"
       gradientUnits="userSpaceOnUse"
       gradientTransform="matrix(0.28125,0,0,0.28125,583.89345,-650.87498)" />
    <linearGradient
       id="linearGradient5648">
      <stop
         id="stop5650"
         style="stop-color:#000000;stop-opacity:0.78431374"
         offset="0" />
      <stop
         id="stop5785"
         style="stop-color:#000000;stop-opacity:0"
         offset="0.28472006" />
      <stop
         id="stop5783"
         style="stop-color:#000000;stop-opacity:0"
         offset="0.71527565" />
      <stop
         id="stop5652"
         style="stop-color:#000000;stop-opacity:0.54509807"
         offset="1" />
    </linearGradient>
    <linearGradient
       x1="102.48387"
       y1="412"
       x2="135.51613"
       y2="412"
       id="linearGradient4510"
       xlink:href="#linearGradient5648"
       gradientUnits="userSpaceOnUse"
       gradientTransform="matrix(0.28125,0,0,0.28125,605.89342,-650.87498)" />
    <linearGradient
       x1="102.48387"
       y1="412"
       x2="135.51613"
       y2="412"
       id="linearGradient4507"
       xlink:href="#linearGradient5648"
       gradientUnits="userSpaceOnUse"
       gradientTransform="matrix(0.28125,0,0,0.28125,627.89345,-650.87498)" />
    <linearGradient
       x1="102.48387"
       y1="412"
       x2="135.51613"
       y2="412"
       id="linearGradient4504"
       xlink:href="#linearGradient5648"
       gradientUnits="userSpaceOnUse"
       gradientTransform="matrix(0.28125,0,0,0.28125,649.89345,-650.87498)" />
    <linearGradient
       x1="24"
       y1="5.3301001"
       x2="24"
       y2="43"
       id="linearGradient4499"
       xlink:href="#linearGradient3128"
       gradientUnits="userSpaceOnUse"
       gradientTransform="matrix(-0.51351353,0,0,2.6216217,629.32433,587.44329)" />
    <linearGradient
       x1="667"
       y1="1025.3622"
       x2="681"
       y2="1025.3622"
       id="linearGradient4496"
       xlink:href="#linearGradient5761"
       gradientUnits="userSpaceOnUse"
       gradientTransform="matrix(0.84615385,0,0,0.84615385,-1253.6699,-250.6142)" />
    <linearGradient
       x1="667"
       y1="1025.3622"
       x2="681"
       y2="1025.3622"
       id="linearGradient4492"
       xlink:href="#linearGradient5761"
       gradientUnits="userSpaceOnUse"
       gradientTransform="matrix(0.84615385,0,0,0.84615385,-1231.6699,-250.6142)" />
    <linearGradient
       x1="667"
       y1="1025.3622"
       x2="681"
       y2="1025.3622"
       id="linearGradient4488"
       xlink:href="#linearGradient5761"
       gradientUnits="userSpaceOnUse"
       gradientTransform="matrix(0.84615385,0,0,0.84615385,-1209.6699,-250.6142)" />
    <linearGradient
       x1="667"
       y1="1025.3622"
       x2="681"
       y2="1025.3622"
       id="linearGradient4484"
       xlink:href="#linearGradient5761"
       gradientUnits="userSpaceOnUse"
       gradientTransform="matrix(0.84615385,0,0,0.84615385,-1187.6699,-250.6142)" />
    <linearGradient
       x1="102.48387"
       y1="412"
       x2="135.51613"
       y2="412"
       id="linearGradient4477"
       xlink:href="#linearGradient5648"
       gradientUnits="userSpaceOnUse"
       gradientTransform="matrix(0.28125,0,0,0.28125,583.89345,501.12502)" />
    <linearGradient
       x1="102.48387"
       y1="412"
       x2="135.51613"
       y2="412"
       id="linearGradient4474"
       xlink:href="#linearGradient5648"
       gradientUnits="userSpaceOnUse"
       gradientTransform="matrix(0.28125,0,0,0.28125,605.89342,501.12502)" />
    <linearGradient
       x1="102.48387"
       y1="412"
       x2="135.51613"
       y2="412"
       id="linearGradient4471"
       xlink:href="#linearGradient5648"
       gradientUnits="userSpaceOnUse"
       gradientTransform="matrix(0.28125,0,0,0.28125,627.89345,501.12502)" />
    <linearGradient
       x1="102.48387"
       y1="412"
       x2="135.51613"
       y2="412"
       id="linearGradient4468"
       xlink:href="#linearGradient5648"
       gradientUnits="userSpaceOnUse"
       gradientTransform="matrix(0.28125,0,0,0.28125,649.89345,501.12502)" />
    <linearGradient
       x1="599.3125"
       y1="475.11456"
       x2="599.3125"
       y2="448.88541"
       id="linearGradient5371"
       xlink:href="#linearGradient3173"
       gradientUnits="userSpaceOnUse" />
    <linearGradient
       x1="599.3125"
       y1="475.11456"
       x2="599.3125"
       y2="448.88541"
       id="linearGradient5373"
       xlink:href="#linearGradient3173"
       gradientUnits="userSpaceOnUse" />
    <linearGradient
       x1="599.3125"
       y1="475.11456"
       x2="599.3125"
       y2="448.88541"
       id="linearGradient5375"
       xlink:href="#linearGradient3173"
       gradientUnits="userSpaceOnUse" />
    <linearGradient
       x1="599.3125"
       y1="475.11456"
       x2="599.3125"
       y2="448.88541"
       id="linearGradient5377"
       xlink:href="#linearGradient3173"
       gradientUnits="userSpaceOnUse" />
    <linearGradient
       x1="599.3125"
       y1="475.11456"
       x2="599.3125"
       y2="448.88541"
       id="linearGradient5379"
       xlink:href="#linearGradient3173"
       gradientUnits="userSpaceOnUse" />
    <linearGradient
       x1="599.3125"
       y1="475.11456"
       x2="599.3125"
       y2="448.88541"
       id="linearGradient5381"
       xlink:href="#linearGradient3173"
       gradientUnits="userSpaceOnUse" />
    <linearGradient
       x1="102.48387"
       y1="412"
       x2="135.51613"
       y2="412"
       id="linearGradient4126"
       xlink:href="#linearGradient5648"
       gradientUnits="userSpaceOnUse"
       gradientTransform="matrix(0.28125,0,0,0.28125,992.89343,-10.87498)" />
    <linearGradient
       x1="102.48387"
       y1="412"
       x2="135.51613"
       y2="412"
       id="linearGradient4129"
       xlink:href="#linearGradient5648"
       gradientUnits="userSpaceOnUse"
       gradientTransform="matrix(0.28125,0,0,0.28125,970.89343,-10.87498)" />
    <linearGradient
       x1="102.48387"
       y1="412"
       x2="135.51613"
       y2="412"
       id="linearGradient4132"
       xlink:href="#linearGradient5648"
       gradientUnits="userSpaceOnUse"
       gradientTransform="matrix(0.28125,0,0,0.28125,948.8934,-10.87498)" />
    <linearGradient
       x1="102.48387"
       y1="412"
       x2="135.51613"
       y2="412"
       id="linearGradient4135"
       xlink:href="#linearGradient5648"
       gradientUnits="userSpaceOnUse"
       gradientTransform="matrix(0.28125,0,0,0.28125,926.89343,-10.87498)" />
    <linearGradient
       x1="667"
       y1="1025.3622"
       x2="681"
       y2="1025.3622"
       id="linearGradient4142"
       xlink:href="#linearGradient5761"
       gradientUnits="userSpaceOnUse"
       gradientTransform="matrix(0.84615385,0,0,0.84615385,-1530.6699,-762.6142)" />
    <linearGradient
       x1="667"
       y1="1025.3622"
       x2="681"
       y2="1025.3622"
       id="linearGradient4146"
       xlink:href="#linearGradient5761"
       gradientUnits="userSpaceOnUse"
       gradientTransform="matrix(0.84615385,0,0,0.84615385,-1552.6699,-762.6142)" />
    <linearGradient
       x1="667"
       y1="1025.3622"
       x2="681"
       y2="1025.3622"
       id="linearGradient4150"
       xlink:href="#linearGradient5761"
       gradientUnits="userSpaceOnUse"
       gradientTransform="matrix(0.84615385,0,0,0.84615385,-1574.6699,-762.6142)" />
    <linearGradient
       x1="667"
       y1="1025.3622"
       x2="681"
       y2="1025.3622"
       id="linearGradient4154"
       xlink:href="#linearGradient5761"
       gradientUnits="userSpaceOnUse"
       gradientTransform="matrix(0.84615385,0,0,0.84615385,-1596.6699,-762.6142)" />
    <linearGradient
       x1="24"
       y1="5.3301001"
       x2="24"
       y2="43"
       id="linearGradient4157"
       xlink:href="#linearGradient3128"
       gradientUnits="userSpaceOnUse"
       gradientTransform="matrix(-0.51351353,0,0,2.6216217,117.32433,930.44327)" />
    <linearGradient
       x1="102.48387"
       y1="412"
       x2="135.51613"
       y2="412"
       id="linearGradient4162"
       xlink:href="#linearGradient5648"
       gradientUnits="userSpaceOnUse"
       gradientTransform="matrix(0.28125,0,0,0.28125,992.89343,-138.87498)" />
    <linearGradient
       x1="102.48387"
       y1="412"
       x2="135.51613"
       y2="412"
       id="linearGradient4165"
       xlink:href="#linearGradient5648"
       gradientUnits="userSpaceOnUse"
       gradientTransform="matrix(0.28125,0,0,0.28125,970.89343,-138.87498)" />
    <linearGradient
       x1="102.48387"
       y1="412"
       x2="135.51613"
       y2="412"
       id="linearGradient4168"
       xlink:href="#linearGradient5648"
       gradientUnits="userSpaceOnUse"
       gradientTransform="matrix(0.28125,0,0,0.28125,948.8934,-138.87498)" />
    <linearGradient
       x1="102.48387"
       y1="412"
       x2="135.51613"
       y2="412"
       id="linearGradient4171"
       xlink:href="#linearGradient5648"
       gradientUnits="userSpaceOnUse"
       gradientTransform="matrix(0.28125,0,0,0.28125,926.89343,-138.87498)" />
    <linearGradient
       x1="667"
       y1="1025.3622"
       x2="681"
       y2="1025.3622"
       id="linearGradient4178"
       xlink:href="#linearGradient5761"
       gradientUnits="userSpaceOnUse"
       gradientTransform="matrix(0.84615385,0,0,0.84615385,-1530.6699,-890.6142)" />
    <linearGradient
       x1="667"
       y1="1025.3622"
       x2="681"
       y2="1025.3622"
       id="linearGradient4182"
       xlink:href="#linearGradient5761"
       gradientUnits="userSpaceOnUse"
       gradientTransform="matrix(0.84615385,0,0,0.84615385,-1552.6699,-890.6142)" />
    <linearGradient
       x1="667"
       y1="1025.3622"
       x2="681"
       y2="1025.3622"
       id="linearGradient4186"
       xlink:href="#linearGradient5761"
       gradientUnits="userSpaceOnUse"
       gradientTransform="matrix(0.84615385,0,0,0.84615385,-1574.6699,-890.6142)" />
    <linearGradient
       x1="667"
       y1="1025.3622"
       x2="681"
       y2="1025.3622"
       id="linearGradient4190"
       xlink:href="#linearGradient5761"
       gradientUnits="userSpaceOnUse"
       gradientTransform="matrix(0.84615385,0,0,0.84615385,-1596.6699,-890.6142)" />
    <linearGradient
       x1="24"
       y1="5.3301001"
       x2="24"
       y2="43"
       id="linearGradient4193"
       xlink:href="#linearGradient3128"
       gradientUnits="userSpaceOnUse"
       gradientTransform="matrix(0.51351353,0,0,2.6216217,10.67567,930.44327)" />
    <linearGradient
       x1="24"
       y1="5.3301001"
       x2="24"
       y2="43"
       id="linearGradient4198"
       xlink:href="#linearGradient3128"
       gradientUnits="userSpaceOnUse"
       gradientTransform="matrix(1.5945947,0,0,2.6216217,25.72974,930.44327)" />
    <radialGradient
       cx="7.4956999"
       cy="8.4497995"
       r="20"
       id="radialGradient4201"
       xlink:href="#radialGradient3164"
       gradientUnits="userSpaceOnUse"
       gradientTransform="matrix(1.431898e-7,5.93236,-5.8873778,0,113.74717,900.87381)" />
    <linearGradient
       x1="24"
       y1="44"
       x2="24"
       y2="3.8989999"
       id="linearGradient4203"
       xlink:href="#linearGradient3173"
       gradientUnits="userSpaceOnUse"
       gradientTransform="matrix(1.5641028,0,0,2.5384619,26.46157,932.43907)" />
    <linearGradient
       x1="24.976742"
       y1="43.5"
       x2="24.976742"
       y2="40"
       id="linearGradient4206"
       xlink:href="#linearGradient5747"
       gradientUnits="userSpaceOnUse"
       gradientTransform="matrix(3.0714286,0,0,1.5714285,-9.71428,973.50502)"
       spreadMethod="reflect" />
    <radialGradient
       cx="4.993"
       cy="43.5"
       r="2.5"
       id="radialGradient4209"
       xlink:href="#linearGradient5747"
       gradientUnits="userSpaceOnUse"
       gradientTransform="matrix(6.4121087,0,0,2.1999999,-53.03799,-1137.5622)" />
    <radialGradient
       cx="4.993"
       cy="43.5"
       r="2.5"
       id="radialGradient4212"
       xlink:href="#linearGradient5747"
       gradientUnits="userSpaceOnUse"
       gradientTransform="matrix(6.4121087,0,0,2.1999999,74.96202,946.16216)" />
  </defs>
  <metadata
     id="metadata3731">
    <rdf:RDF>
      <cc:Work
         rdf:about="">
        <dc:format>image/svg+xml</dc:format>
        <dc:type
           rdf:resource="http://purl.org/dc/dcmitype/StillImage" />
        <dc:title />
      </cc:Work>
    </rdf:RDF>
  </metadata>
  <g
     transform="translate(0,-924.36218)"
     id="layer1">
    <g
       id="g4982">
      <rect
         width="16"
         height="10.999999"
         x="107"
         y="1036.3622"
         id="rect2801-1"
         style="opacity:0.4;fill:url(#radialGradient4212);fill-opacity:1" />
      <rect
         width="16"
         height="10.999999"
         x="-21"
         y="-1047.3622"
         transform="scale(-1,-1)"
         id="rect3696-2"
         style="opacity:0.4;fill:url(#radialGradient4209);fill-opacity:1" />
      <rect
         width="86"
         height="10.999999"
         x="21"
         y="1036.3622"
         id="rect3700-3"
         style="opacity:0.4;fill:url(#linearGradient4206);fill-opacity:1" />
      <rect
         width="61"
         height="99"
         x="33.500061"
         y="943.86218"
         id="rect5505-21-3"
         style="color:#000000;fill:url(#radialGradient4201);fill-opacity:1;fill-rule:nonzero;stroke:url(#linearGradient4203);stroke-width:1;stroke-linecap:round;stroke-linejoin:round;stroke-miterlimit:4;stroke-dasharray:none;stroke-dashoffset:0;enable-background:accumulate" />
      <rect
         width="59"
         height="97"
         x="34.5"
         y="944.86218"
         id="rect6741-7"
         style="opacity:0.5;fill:none;stroke:url(#linearGradient4198);stroke-width:0.99999988;stroke-linecap:round;stroke-linejoin:miter;stroke-miterlimit:4;stroke-dasharray:none;stroke-dashoffset:0" />
      <path
         d="m 14.5,943.86216 c -1.108,0 -2,0.892 -2,2 l 0,95.00004 c 0,1.108 0.892,2 2,2 l 12,0 5,0 2,0 0,-2 0,-5 0,-85.00004 0,-5 0,-2 -2,0 -5,0 -12,0 z m 6,12 5,0 c 1.108,0 2,0.892 2,2 l 0,5 c 0,1.108 -0.892,2 -2,2 l -5,0 c -1.108,0 -2,-0.892 -2,-2 l 0,-5 c 0,-1.108 0.892,-2 2,-2 z m 0,22 5,0 c 1.108,0 2,0.892 2,2 l 0,5 c 0,1.108 -0.892,2 -2,2 l -5,0 c -1.108,0 -2,-0.892 -2,-2 l 0,-5 c 0,-1.108 0.892,-2 2,-2 z m 0,22 5,0 c 1.108,0 2,0.89204 2,2.00004 l 0,5 c 0,1.108 -0.892,2 -2,2 l -5,0 c -1.108,0 -2,-0.892 -2,-2 l 0,-5 c 0,-1.108 0.892,-2.00004 2,-2.00004 z m 0,22.00004 5,0 c 1.108,0 2,0.892 2,2 l 0,5 c 0,1.108 -0.892,2 -2,2 l -5,0 c -1.108,0 -2,-0.892 -2,-2 l 0,-5 c 0,-1.108 0.892,-2 2,-2 z"
         inkscape:connector-curvature="0"
         id="rect4058"
         style="color:#000000;fill:#000000;fill-opacity:0.78431373;fill-rule:nonzero;stroke:#000000;stroke-width:1;stroke-linecap:round;stroke-linejoin:miter;stroke-miterlimit:4;stroke-opacity:1;stroke-dasharray:none;stroke-dashoffset:0;enable-background:accumulate" />
      <rect
         width="9"
         height="9"
         rx="2"
         ry="2"
         x="18.5"
         y="1021.8622"
         id="rect4828"
         style="fill:none;stroke:#000000;stroke-width:1;stroke-linecap:butt;stroke-linejoin:round;stroke-miterlimit:4;stroke-opacity:1;stroke-dasharray:none;stroke-dashoffset:0" />
      <path
         d="m 14.5,944.86216 c -0.554,0 -1,0.446 -1,1 l 0,95.00004 c 0,0.554 0.446,1 1,1 l 11,0 6,0 1,0 0,-1 0,-6 0,-83.00004 0,-6 0,-1 -1,0 -6,0 -11,0 z"
         inkscape:connector-curvature="0"
         id="rect4889"
         style="opacity:0.3;fill:none;stroke:url(#linearGradient4193);stroke-width:0.99999994;stroke-linecap:round;stroke-linejoin:miter;stroke-miterlimit:4;stroke-dasharray:none;stroke-dashoffset:0" />
      <rect
         width="11"
         height="11"
         rx="3"
         ry="3"
         x="-1031.8622"
         y="-28.5"
         transform="matrix(0,-1,-1,0,0,0)"
         id="rect4893"
         style="opacity:0.12000002;fill:none;stroke:url(#linearGradient4190);stroke-width:0.99999994;stroke-linecap:butt;stroke-linejoin:round;stroke-miterlimit:4;stroke-opacity:1;stroke-dasharray:none;stroke-dashoffset:0" />
      <rect
         width="9"
         height="9"
         rx="2"
         ry="2"
         x="18.5"
         y="999.86218"
         id="rect4921"
         style="fill:none;stroke:#000000;stroke-width:1;stroke-linecap:butt;stroke-linejoin:round;stroke-miterlimit:4;stroke-opacity:1;stroke-dasharray:none;stroke-dashoffset:0" />
      <rect
         width="11"
         height="11"
         rx="3"
         ry="3"
         x="-1009.8622"
         y="-28.5"
         transform="matrix(0,-1,-1,0,0,0)"
         id="rect4923"
         style="opacity:0.12000002;fill:none;stroke:url(#linearGradient4186);stroke-width:0.99999994;stroke-linecap:butt;stroke-linejoin:round;stroke-miterlimit:4;stroke-opacity:1;stroke-dasharray:none;stroke-dashoffset:0" />
      <rect
         width="9"
         height="9"
         rx="2"
         ry="2"
         x="18.5"
         y="977.86218"
         id="rect4927"
         style="fill:none;stroke:#000000;stroke-width:1;stroke-linecap:butt;stroke-linejoin:round;stroke-miterlimit:4;stroke-opacity:1;stroke-dasharray:none;stroke-dashoffset:0" />
      <rect
         width="11"
         height="11"
         rx="3"
         ry="3"
         x="-987.86218"
         y="-28.5"
         transform="matrix(0,-1,-1,0,0,0)"
         id="rect4929"
         style="opacity:0.12000002;fill:none;stroke:url(#linearGradient4182);stroke-width:0.99999994;stroke-linecap:butt;stroke-linejoin:round;stroke-miterlimit:4;stroke-opacity:1;stroke-dasharray:none;stroke-dashoffset:0" />
      <rect
         width="9"
         height="9"
         rx="2"
         ry="2"
         x="18.5"
         y="955.86218"
         id="rect4933"
         style="fill:none;stroke:#000000;stroke-width:1;stroke-linecap:butt;stroke-linejoin:round;stroke-miterlimit:4;stroke-opacity:1;stroke-dasharray:none;stroke-dashoffset:0" />
      <rect
         width="11"
         height="11"
         rx="3"
         ry="3"
         x="-965.86218"
         y="-28.5"
         transform="matrix(0,-1,-1,0,0,0)"
         id="rect4935"
         style="opacity:0.12000002;fill:none;stroke:url(#linearGradient4178);stroke-width:0.99999994;stroke-linecap:butt;stroke-linejoin:round;stroke-miterlimit:4;stroke-opacity:1;stroke-dasharray:none;stroke-dashoffset:0" />
      <rect
         width="10"
         height="10"
         rx="2.5"
         ry="2.5"
         x="18"
         y="1021.3622"
         id="rect4959"
         style="opacity:0.4;fill:#000000;fill-opacity:1;stroke:none" />
      <rect
         width="10"
         height="10"
         rx="2.5"
         ry="2.5"
         x="18"
         y="999.36218"
         id="rect4961"
         style="opacity:0.4;fill:#000000;fill-opacity:1;stroke:none" />
      <rect
         width="10"
         height="10"
         rx="2.5"
         ry="2.5"
         x="18"
         y="977.36218"
         id="rect4963"
         style="opacity:0.4;fill:#000000;fill-opacity:1;stroke:none" />
      <rect
         width="10"
         height="10"
         rx="2.5"
         ry="2.5"
         x="18"
         y="955.36218"
         id="rect4965"
         style="opacity:0.4;fill:#000000;fill-opacity:1;stroke:none" />
      <rect
         width="9"
         height="9"
         rx="2"
         ry="2"
         x="955.86218"
         y="-27.5"
         transform="matrix(0,1,-1,0,0,0)"
         id="rect5077"
         style="opacity:0.31999996;fill:url(#linearGradient4171);fill-opacity:1;stroke:#000000;stroke-width:1;stroke-opacity:1;display:inline;enable-background:new" />
      <rect
         width="9"
         height="9"
         rx="2"
         ry="2"
         x="977.86218"
         y="-27.5"
         transform="matrix(0,1,-1,0,0,0)"
         id="rect5095"
         style="opacity:0.63999999;fill:url(#linearGradient4168);fill-opacity:1;stroke:#000000;stroke-width:1;stroke-opacity:1;display:inline;enable-background:new" />
      <rect
         width="9"
         height="9"
         rx="2"
         ry="2"
         x="999.86218"
         y="-27.5"
         transform="matrix(0,1,-1,0,0,0)"
         id="rect5099"
         style="opacity:0.31999996;fill:url(#linearGradient4165);fill-opacity:1;stroke:#000000;stroke-width:1;stroke-opacity:1;display:inline;enable-background:new" />
      <rect
         width="9"
         height="9"
         rx="2"
         ry="2"
         x="1021.8622"
         y="-27.5"
         transform="matrix(0,1,-1,0,0,0)"
         id="rect5103"
         style="opacity:0.31999996;fill:url(#linearGradient4162);fill-opacity:1;stroke:#000000;stroke-width:1;stroke-opacity:1;display:inline;enable-background:new" />
      <path
         d="m 113.5,943.86216 c 1.108,0 2,0.892 2,2 l 0,95.00004 c 0,1.108 -0.892,2 -2,2 l -12,0 -5,0 -2,0 0,-2 0,-5 0,-85.00004 0,-5 0,-2 2,0 5,0 12,0 z m -6,12 -5,0 c -1.108,0 -2,0.892 -2,2 l 0,5 c 0,1.108 0.892,2 2,2 l 5,0 c 1.108,0 2,-0.892 2,-2 l 0,-5 c 0,-1.108 -0.892,-2 -2,-2 z m 0,22 -5,0 c -1.108,0 -2,0.892 -2,2 l 0,5 c 0,1.108 0.892,2 2,2 l 5,0 c 1.108,0 2,-0.892 2,-2 l 0,-5 c 0,-1.108 -0.892,-2 -2,-2 z m 0,22 -5,0 c -1.108,0 -2,0.89204 -2,2.00004 l 0,5 c 0,1.108 0.892,2 2,2 l 5,0 c 1.108,0 2,-0.892 2,-2 l 0,-5 c 0,-1.108 -0.892,-2.00004 -2,-2.00004 z m 0,22.00004 -5,0 c -1.108,0 -2,0.892 -2,2 l 0,5 c 0,1.108 0.892,2 2,2 l 5,0 c 1.108,0 2,-0.892 2,-2 l 0,-5 c 0,-1.108 -0.892,-2 -2,-2 z"
         inkscape:connector-curvature="0"
         id="path5165"
         style="color:#000000;fill:#000000;fill-opacity:0.78431373;fill-rule:nonzero;stroke:#000000;stroke-width:1;stroke-linecap:round;stroke-linejoin:miter;stroke-miterlimit:4;stroke-opacity:1;stroke-dasharray:none;stroke-dashoffset:0;enable-background:accumulate" />
      <rect
         width="9"
         height="9"
         rx="2"
         ry="2"
         x="-109.5"
         y="1021.8622"
         transform="scale(-1,1)"
         id="rect5167"
         style="fill:none;stroke:#000000;stroke-width:1;stroke-linecap:butt;stroke-linejoin:round;stroke-miterlimit:4;stroke-opacity:1;stroke-dasharray:none;stroke-dashoffset:0" />
      <path
         d="m 113.5,944.86216 c 0.554,0 1,0.446 1,1 l 0,95.00004 c 0,0.554 -0.446,1 -1,1 l -11,0 -6,0 -1,0 0,-1 0,-6 0,-83.00004 0,-6 0,-1 1,0 6,0 11,0 z"
         inkscape:connector-curvature="0"
         id="path5169"
         style="opacity:0.3;fill:none;stroke:url(#linearGradient4157);stroke-width:0.99999994;stroke-linecap:round;stroke-linejoin:miter;stroke-miterlimit:4;stroke-dasharray:none;stroke-dashoffset:0" />
      <rect
         width="11"
         height="11"
         rx="3"
         ry="3"
         x="-1031.8622"
         y="99.5"
         transform="matrix(0,-1,1,0,0,0)"
         id="rect5171"
         style="opacity:0.12000002;fill:none;stroke:url(#linearGradient4154);stroke-width:0.99999994;stroke-linecap:butt;stroke-linejoin:round;stroke-miterlimit:4;stroke-opacity:1;stroke-dasharray:none;stroke-dashoffset:0" />
      <rect
         width="9"
         height="9"
         rx="2"
         ry="2"
         x="-109.5"
         y="999.86218"
         transform="scale(-1,1)"
         id="rect5173"
         style="fill:none;stroke:#000000;stroke-width:1;stroke-linecap:butt;stroke-linejoin:round;stroke-miterlimit:4;stroke-opacity:1;stroke-dasharray:none;stroke-dashoffset:0" />
      <rect
         width="11"
         height="11"
         rx="3"
         ry="3"
         x="-1009.8622"
         y="99.5"
         transform="matrix(0,-1,1,0,0,0)"
         id="rect5175"
         style="opacity:0.12000002;fill:none;stroke:url(#linearGradient4150);stroke-width:0.99999994;stroke-linecap:butt;stroke-linejoin:round;stroke-miterlimit:4;stroke-opacity:1;stroke-dasharray:none;stroke-dashoffset:0" />
      <rect
         width="9"
         height="9"
         rx="2"
         ry="2"
         x="-109.5"
         y="977.86218"
         transform="scale(-1,1)"
         id="rect5177"
         style="fill:none;stroke:#000000;stroke-width:1;stroke-linecap:butt;stroke-linejoin:round;stroke-miterlimit:4;stroke-opacity:1;stroke-dasharray:none;stroke-dashoffset:0" />
      <rect
         width="11"
         height="11"
         rx="3"
         ry="3"
         x="-987.86218"
         y="99.5"
         transform="matrix(0,-1,1,0,0,0)"
         id="rect5179"
         style="opacity:0.12000002;fill:none;stroke:url(#linearGradient4146);stroke-width:0.99999994;stroke-linecap:butt;stroke-linejoin:round;stroke-miterlimit:4;stroke-opacity:1;stroke-dasharray:none;stroke-dashoffset:0" />
      <rect
         width="9"
         height="9"
         rx="2"
         ry="2"
         x="-109.5"
         y="955.86218"
         transform="scale(-1,1)"
         id="rect5181"
         style="fill:none;stroke:#000000;stroke-width:1;stroke-linecap:butt;stroke-linejoin:round;stroke-miterlimit:4;stroke-opacity:1;stroke-dasharray:none;stroke-dashoffset:0" />
      <rect
         width="11"
         height="11"
         rx="3"
         ry="3"
         x="-965.86218"
         y="99.5"
         transform="matrix(0,-1,1,0,0,0)"
         id="rect5183"
         style="opacity:0.12000002;fill:none;stroke:url(#linearGradient4142);stroke-width:0.99999994;stroke-linecap:butt;stroke-linejoin:round;stroke-miterlimit:4;stroke-opacity:1;stroke-dasharray:none;stroke-dashoffset:0" />
      <rect
         width="10"
         height="10"
         rx="2.5"
         ry="2.5"
         x="-110"
         y="1021.3622"
         transform="scale(-1,1)"
         id="rect5185"
         style="opacity:0.4;fill:#000000;fill-opacity:1;stroke:none" />
      <rect
         width="10"
         height="10"
         rx="2.5"
         ry="2.5"
         x="-110"
         y="999.36218"
         transform="scale(-1,1)"
         id="rect5187"
         style="opacity:0.4;fill:#000000;fill-opacity:1;stroke:none" />
      <rect
         width="10"
         height="10"
         rx="2.5"
         ry="2.5"
         x="-110"
         y="977.36218"
         transform="scale(-1,1)"
         id="rect5189"
         style="opacity:0.4;fill:#000000;fill-opacity:1;stroke:none" />
      <rect
         width="10"
         height="10"
         rx="2.5"
         ry="2.5"
         x="-110"
         y="955.36218"
         transform="scale(-1,1)"
         id="rect5191"
         style="opacity:0.4;fill:#000000;fill-opacity:1;stroke:none" />
      <rect
         width="9"
         height="9"
         rx="2"
         ry="2"
         x="955.86218"
         y="100.5"
         transform="matrix(0,1,1,0,0,0)"
         id="rect5193"
         style="opacity:0.31999996;fill:url(#linearGradient4135);fill-opacity:1;stroke:#000000;stroke-width:1;stroke-opacity:1;display:inline;enable-background:new" />
      <rect
         width="9"
         height="9"
         rx="2"
         ry="2"
         x="977.86218"
         y="100.5"
         transform="matrix(0,1,1,0,0,0)"
         id="rect5195"
         style="opacity:0.31999996;fill:url(#linearGradient4132);fill-opacity:1;stroke:#000000;stroke-width:1;stroke-opacity:1;display:inline;enable-background:new" />
      <rect
         width="9"
         height="9"
         rx="2"
         ry="2"
         x="999.86218"
         y="100.5"
         transform="matrix(0,1,1,0,0,0)"
         id="rect5197"
         style="opacity:0.31999996;fill:url(#linearGradient4129);fill-opacity:1;stroke:#000000;stroke-width:1;stroke-opacity:1;display:inline;enable-background:new" />
      <rect
         width="9"
         height="9"
         rx="2"
         ry="2"
         x="1021.8622"
         y="100.5"
         transform="matrix(0,1,1,0,0,0)"
         id="rect5199"
         style="opacity:0.31999996;fill:url(#linearGradient4126);fill-opacity:1;stroke:#000000;stroke-width:1;stroke-opacity:1;display:inline;enable-background:new" />
      <path
         d="m 599.61759,474.78671 0,-25.57342 L 621.76482,462 z"
         inkscape:connector-curvature="0"
         transform="matrix(2.1221611,0,0,1.5250207,-1230.9851,291.8026)"
         id="path5235"
         style="opacity:0.06000001;fill:url(#linearGradient5371);fill-opacity:1;fill-rule:evenodd;stroke:url(#linearGradient5373);stroke-width:0.55586964;stroke-linejoin:round;stroke-miterlimit:4;stroke-opacity:1;stroke-dasharray:none" />
      <path
         d="m 599.61759,474.78671 0,-25.57342 L 621.76482,462 z"
         inkscape:connector-curvature="0"
         transform="matrix(1.9415517,0,0,1.5250207,-1120.6885,290.8026)"
         id="path5229"
         style="opacity:0.12000002;fill:url(#linearGradient5375);fill-opacity:1;fill-rule:evenodd;stroke:url(#linearGradient5377);stroke-width:0.58114922;stroke-linejoin:round;stroke-miterlimit:4;stroke-opacity:1;stroke-dasharray:none" />
      <path
         d="m 599.61759,474.78671 0,-25.57342 L 621.76482,462 z"
         inkscape:connector-curvature="0"
         transform="matrix(1.7609422,0,0,1.5250207,-1010.3919,289.8026)"
         id="path5221"
         style="opacity:0.25;fill:url(#linearGradient5379);fill-opacity:1;fill-rule:evenodd;stroke:url(#linearGradient5381);stroke-width:0.61022443;stroke-linejoin:round;stroke-miterlimit:4;stroke-opacity:1;stroke-dasharray:none" />
      <path
         d="m 599.61759,474.78671 0,-25.57342 L 621.76482,462 z"
         inkscape:connector-curvature="0"
         transform="matrix(1.5803327,0,0,1.5250207,-901.09522,288.8026)"
         id="path5219"
         style="fill:#fafafa;fill-opacity:1;fill-rule:evenodd;stroke:#ffffff;stroke-width:0.64415127;stroke-linejoin:round;stroke-miterlimit:4;stroke-opacity:1;stroke-dasharray:none" />
    </g>
  </g>
</svg>
