<svg xmlns="http://www.w3.org/2000/svg" viewBox="0 0 123.199 41.6" height="52" width="154"><path style="fill:#555761;stroke-width:1.00000012" d="M66.6 17.535c0-2.188.037-4.226.15-6.113l-5.774 1.094v.529l.567.076c.415.037.679.188.83.415.151.264.264.641.34 1.207.075 1.094.15 3.586.112 7.51 0 3.887-.037 6.34-.112 7.283 2.075.453 3.699.642 4.906.642 2.264 0 4.037-.642 5.32-1.963 1.284-1.283 1.963-3.094 1.963-5.32 0-1.775-.49-3.246-1.472-4.416-.98-1.17-2.226-1.736-3.699-1.736-.98 0-2 .264-3.132.793zm.112 11.624c-.075-1.207-.15-4.83-.15-10.756.34-.112.793-.188 1.359-.188.905 0 1.622.452 2.15 1.396.529.944.793 2.076.793 3.51 0 1.773-.302 3.208-.906 4.415-.604 1.17-1.358 1.774-2.301 1.774a7.044 7.044 0 0 0-.944-.15ZM39.316 11.8H24.22v.755l.793.076c.603.113 1.018.339 1.282.679.265.378.415.981.453 1.811.303 4.076.303 7.887 0 11.397-.075.83-.225 1.435-.453 1.811-.264.378-.679.605-1.282.68l-.793.113v.756h9.736v-.756l-1.019-.075c-.604-.076-1.019-.34-1.283-.68-.264-.377-.415-.98-.453-1.81a69.328 69.328 0 0 1-.188-5.17l2.038.037c1.094.038 1.85.868 2.226 2.528h.756V17.8h-.756c-.378 1.623-1.094 2.453-2.226 2.49l-2.038.038c0-3.396.075-5.811.188-7.283h2.982c2.113 0 3.547 1.358 4.377 4.076l.906-.265zm-1.774 11.623c0 1.963.566 3.585 1.66 4.868 1.094 1.284 2.718 1.887 4.755 1.887 2.038 0 3.699-.642 4.906-1.962 1.207-1.284 1.774-2.906 1.774-4.868 0-1.963-.566-3.586-1.661-4.869-1.094-1.283-2.717-1.887-4.755-1.887s-3.698.642-4.906 1.963c-1.207 1.283-1.773 2.906-1.773 4.868zm8.415-4.302c.453 1.094.642 2.528.642 4.264 0 4-.83 5.963-2.454 5.963-.83 0-1.472-.566-1.924-1.699-.453-1.132-.642-2.565-.642-4.263 0-3.963.83-5.925 2.453-5.925.83-.039 1.472.528 1.925 1.66zm31.889 9.17c1.245 1.245 2.83 1.887 4.716 1.887 1.171 0 2.19-.226 3.095-.717.906-.453 1.623-1.019 2.114-1.698l-.378-.453c-.83.642-1.773.944-2.868.944-1.51 0-2.679-.49-3.472-1.51-.83-1.019-1.207-2.302-1.132-3.962h8.075c0-1.812-.451-3.283-1.395-4.454-.944-1.132-2.265-1.698-3.963-1.698-2.113 0-3.735.68-4.906 2-1.17 1.32-1.736 2.944-1.736 4.868 0 1.962.605 3.548 1.85 4.793zm2.792-9.472c.415-.906.943-1.358 1.66-1.358 1.133 0 1.699 1.433 1.699 4.34l-4 .075c.037-1.132.225-2.152.641-3.057zm17.51-1.509c-1.019-.453-2.301-.717-3.848-.717-1.586 0-2.831.415-3.774 1.207-.944.794-1.435 1.775-1.435 2.944 0 1.02.303 1.812.869 2.378.566.566 1.472 1.057 2.641 1.472 1.057.377 1.811.754 2.188 1.094.378.378.605.793.605 1.359 0 .528-.189 1.018-.604 1.396-.378.415-.905.604-1.585.604-1.66 0-2.906-1.207-3.774-3.623l-.642.188.151 3.774c1.36.529 2.868.793 4.53.793 1.735 0 3.056-.378 4.037-1.17.981-.755 1.472-1.85 1.472-3.207 0-.907-.227-1.661-.717-2.228-.49-.566-1.284-1.056-2.415-1.509-1.246-.453-2.114-.868-2.567-1.245-.452-.378-.679-.83-.679-1.396s.151-1.02.49-1.396c.34-.378.756-.53 1.284-.53 1.51 0 2.603 1.095 3.282 3.247l.643-.189Zm-36.304-.34c-.528-.263-1.094-.377-1.735-.377-.642 0-1.283.264-2 .793-.717.528-1.245 1.245-1.661 2.226l.038-3.019-5.736 1.132v.528l.566.039c.717.075 1.132.641 1.207 1.66.226 2.34.226 4.83 0 7.472-.075 1.02-.49 1.547-1.207 1.66l-.566.076v.717h8v-.717l-1.019-.075c-.717-.076-1.132-.643-1.207-1.661a38.552 38.552 0 0 1-.076-6.943c.226-.378.717-.605 1.471-.68.756-.076 1.624.15 2.53.68z"/></svg>