<?xml version="1.0" encoding="UTF-8" standalone="no"?>
<svg
   xmlns:dc="http://purl.org/dc/elements/1.1/"
   xmlns:cc="http://creativecommons.org/ns#"
   xmlns:rdf="http://www.w3.org/1999/02/22-rdf-syntax-ns#"
   xmlns:svg="http://www.w3.org/2000/svg"
   xmlns="http://www.w3.org/2000/svg"
   id="svg2"
   height="27"
   width="115.44"
   version="1.1"
   viewBox="0 0 92.353739 21.600002">
  <metadata
     id="metadata14">
    <rdf:RDF>
      <cc:Work
         rdf:about="">
        <dc:format>image/svg+xml</dc:format>
        <dc:type
           rdf:resource="http://purl.org/dc/dcmitype/StillImage" />
        <dc:title></dc:title>
      </cc:Work>
    </rdf:RDF>
  </metadata>
  <defs
     id="defs12" />
  <g
     id="g4"
     style="fill:#999999">
    <path
       id="path6"
       style="fill:#999999"
       d="m35.578 0l-.01 10.76c-.004 5.917 0 10.778.008 10.802.014.035.284.043 1.255.036l1.24-.01v-21.588h-2.492zm52.554 2.058c-.248 0-.38.016-.612.064-.877.18-1.532.54-2.15 1.182-.32.33-.508.603-.72 1.04-.182.374-.272.654-.348 1.093-.072.418-.08 4.674-.01 4.702.086.034 3.945.022 4.327-.014.526-.05.98-.175 1.438-.398.477-.232.868-.52 1.21-.89.47-.507.763-1.055.973-1.818.09-.318.098-.404.097-.93 0-.516-.01-.616-.095-.922-.356-1.306-1.086-2.197-2.25-2.75-.516-.243-.915-.334-1.566-.355-.116-.003-.21-.005-.294-.005zm-34.88 0c-.023 0-.045.002-.067.003-.346.02-.62.107-.866.277-.948.65-1.042 1.932-.2 2.7.227.21.457.334.738.402.886.214 1.782-.305 2.05-1.186.06-.198.07-.304.057-.586-.015-.304-.032-.375-.144-.612-.3-.633-.893-1.008-1.57-.997zm7.655.003c-.27.003-.514.017-.664.043-.906.158-1.562.634-1.938 1.406-.29.597-.323.78-.338 1.984-.007.57-.02 1.07-.03 1.113-.016.077-.03.078-.604.088l-.588.01-.01 1.272-.01 1.273h.574c.398 0 .585.012.614.04.033.034.042 1.143.042 4.777v4.733l1.343-.01 1.342-.01.008-4.736c.007-3.737.018-4.744.053-4.766.024-.015.458-.028.965-.028h.923l-.01-1.273-.008-1.272-.948-.018-.947-.017v-.72c0-.8.024-.944.2-1.143.214-.245.328-.28.94-.28.467 0 .58.013.796.08.138.044.268.08.29.08.058 0 .053-2.262-.006-2.31-.066-.05-.47-.177-.765-.238-.26-.054-.777-.082-1.225-.08zm18.344.016c-.43.002-.53.018-.805.093-.39.104-.96.364-1.287.586-.12.082-.338.26-.484.4-1.137 1.074-1.555 2.728-1.062 4.2.518 1.544 1.873 2.624 3.476 2.77.165.014 1.21.03 2.322.032 1.712.004 2.03-.004 2.064-.046.032-.038.038-.61.028-2.326-.013-2.16-.018-2.29-.087-2.573-.37-1.51-1.467-2.646-2.945-3.044-.317-.087-.402-.094-1.013-.094h-.206zm-67.49.573l-1.414.01-1.412.008-.13.386c-.2.595-2.177 6.772-2.43 7.592-.122.4-.266.898-.32 1.106-.056.22-.114.373-.136.365-.02-.007-.058-.09-.083-.185-.188-.707-.41-1.43-1.02-3.332-.385-1.197-.964-3.005-1.288-4.02-.324-1.013-.605-1.862-.623-1.886-.026-.034-.363-.044-1.47-.044h-1.435v16.166l1.255-.01c.69-.004 1.275-.016 1.3-.024.05-.02.054-3.074.01-7.338-.013-1.352-.013-2.48 0-2.506.034-.07.043-.048.26.698.258.88.972 3.2 1.243 4.037.635 1.963 1.623 4.978 1.654 5.048.03.068.058.08.16.07l.127-.01.63-1.93c1.413-4.32 1.78-5.484 2.248-7.102.12-.41.234-.772.256-.802.03-.04.04 1.166.038 4.89l-.001 4.943h2.598l.01-7.986c.004-4.392 0-8.02-.01-8.065l-.02-.08zm30.79.006c-.553 0-.73.012-.747.038-.034.053-.04 16.047-.007 16.08.013.014 1.798.024 3.967.024h3.944v-2.772h-2.488c-2.047 0-2.496-.008-2.53-.047-.027-.035-.04-1.848-.047-6.68l-.01-6.63-1.4-.01-.684-.002zm-13.819 3.784c-1.212 0-2.316.494-3.087 1.406-.878 1.04-1.354 2.455-1.457 4.335-.138 2.5.496 4.638 1.716 5.79.69.648 1.465.982 2.528 1.086.068.006.174.014.238.017.196.01.773-.066 1.055-.138.34-.087.903-.363 1.205-.592.52-.395 1.03-1.047 1.398-1.787l.183-.366-.083-.076c-.116-.11-1.844-1.353-1.88-1.353-.016 0-.128.195-.248.432-.338.67-.692 1.054-1.13 1.222-.296.113-.72.086-1.03-.067-.57-.28-.96-1.036-1.13-2.184-.078-.523-.107-1.74-.056-2.355.126-1.513.508-2.374 1.193-2.693.166-.078.245-.092.512-.092.27 0 .346.013.524.096.416.193.69.5 1.01 1.13.123.243.202.363.232.35.103-.037 2.084-1.395 2.1-1.438.01-.025-.062-.208-.16-.406-.666-1.33-1.622-2.064-2.95-2.264-.232-.035-.46-.05-.685-.052zm-10.613.007c-.985.016-1.834.222-2.68.643-.357.178-.872.488-.872.526 0 .03 1.024 1.86 1.066 1.905.03.033.106.004.33-.126.39-.228.763-.37 1.204-.46.304-.064.46-.075.91-.065.536.01.55.013.78.126.343.17.567.46.66.858.04.18.047 1.397.006 1.397-.015 0-.135-.053-.266-.12-.33-.165-.7-.258-1.215-.303-1.728-.15-3.077.546-3.776 1.95-.354.713-.505 1.592-.434 2.524.042.554.104.87.268 1.365.444 1.345 1.493 2.217 2.855 2.374.362.04.436.04.732.003.56-.073 1.16-.363 1.602-.777.12-.113.228-.205.24-.205.01 0 .025.163.03.36l.01.36h2.702l.01-4.124c.008-2.63-.002-4.314-.025-4.647-.083-1.174-.36-1.94-.91-2.523-.634-.674-1.483-.99-2.796-1.036-.146-.004-.29-.005-.43-.003zm50.134 0c-1.06 0-1.96.352-2.706 1.06-.89.846-1.465 2.18-1.68 3.902-.075.6-.085 1.95-.02 2.544.342 3.03 1.81 4.854 4.095 5.086.375.038.942.016 1.34-.052.9-.154 1.704-.582 2.34-1.242.267-.277.655-.78.655-.85 0-.03-1.792-1.388-1.872-1.42-.025-.008-.147.107-.278.262-.252.302-.542.518-.86.64-.282.11-.96.137-1.258.052-.314-.09-.524-.22-.753-.466-.252-.27-.46-.676-.575-1.137-.09-.357-.175-.962-.142-1.016.013-.02 1.18-.032 3.054-.032h3.034l.027-.096c.052-.19.025-1.793-.038-2.27-.222-1.684-.747-2.94-1.594-3.818-.7-.727-1.53-1.097-2.556-1.143l-.213-.003zm-16.318.258l-.01 6.046-.008 6.05 1.343-.01 1.344-.01v-12.076h-2.668zm16.302 2.167c.182 0 .367.033.548.1.428.16.81.682.996 1.366.092.338.18.843.18 1.04v.154h-1.7c-.946 0-1.71-.014-1.72-.03-.025-.04.035-.534.107-.883.105-.52.318-1.012.558-1.292.252-.295.63-.455 1.03-.456zm14.133 1.996c-.3 0-.685.003-1.173.006-2.093.014-2.25.02-2.547.087-.876.2-1.518.56-2.12 1.185-1.678 1.75-1.443 4.576.504 6.03.484.36 1.102.634 1.69.745.196.036.442.048.838.04.69-.016 1.067-.104 1.646-.384.986-.476 1.74-1.317 2.075-2.32.208-.618.203-.553.22-3.015.01-1.78.003-2.287-.03-2.328-.03-.035-.197-.046-1.102-.044zm5.105.003l-1.073.003-2.136.01v4.736l.098.352c.45 1.62 1.81 2.803 3.448 2.998 1.698.202 3.355-.695 4.124-2.234.506-1.01.555-2.262.132-3.312-.546-1.353-1.74-2.292-3.19-2.51-.206-.03-.53-.042-1.403-.043zm-69.47 2.24c.55 0 1.06.166 1.42.462l.128.106v1.986l-.1.137c-.15.205-.53.546-.73.654-.097.052-.27.12-.382.15-.51.132-1.044-.008-1.35-.357-.46-.523-.56-1.705-.21-2.422.136-.274.42-.542.685-.64.148-.057.277-.074.54-.074z"
       fill="#333" />
  </g>
  <path
     id="path4261"
     style="stroke:#ffffff;stroke-width:0.1;fill:#999999"
     d="m44.525 26.934c-.02292-.02292-.04167-6.0839-.04167-13.469v-13.427h1.5312 1.5312v13.469 13.469h-1.4896c-.81927 0-1.5083-.01875-1.5312-.04167z"
     transform="matrix(0.8 0 0 0.8 0 -.000015259)" />
  <path
     id="path4263"
     style="stroke:#ffffff;stroke-width:0.2;fill:#999999"
     d="m105.34 11.477c-.0248-.63882-.0252-1.9396-.00085-2.8906.0513-2.0054.10823-2.3303.57167-3.2604.25357-.50889.38548-.68311.92304-1.219.70046-.69832 1.1012-.96152 1.8647-1.2247 1.8469-.63660 3.8652-.17491 5.2402 1.1987.4807.48022.90302 1.1661 1.187 1.9279.18359.49242.20202.61063.22751 1.4593.0261.86966.0179.95532-.14136 1.4688-.50413 1.6255-1.575 2.7989-3.0683 3.3622-.83265.31407-1.1341.33930-4.0542.33930h-2.7044l-.0451-1.1615z"
     transform="matrix(0.8 0 0 0.8 0 -.000015259)" />
  <path
     id="path4265"
     style="stroke:#ffffff;stroke-width:0.2;fill:#999999"
     d="m98.277 12.536c-2.2795-.48196-3.9666-2.5584-3.9683-4.8843-.0015-1.9394 1.0744-3.6899 2.7735-4.5125.88062-.42634 1.2218-.50057 2.2976-.49990.85245.0005312.92719.01089 1.4976.20756 1.3245.45663 2.2695 1.2661 2.8974 2.4818.51348.99412.52973 1.1097.57522 4.0913.022 1.4438.0199 2.7586-.005 2.9219l-.0448.29688-2.793-.0051c-2.2119-.004-2.8841-.02435-3.2305-.0976z"
     transform="matrix(0.8 0 0 0.8 0 -.000015259)" />
  <path
     id="path4267"
     style="stroke:#ffffff;stroke-width:0.4;fill:#999999"
     d="m98.569 23.637c-.51068-.0697-.92756-.20818-1.5101-.50161-.56008-.28212-.78718-.44623-1.2731-.91995-.95220-.92835-1.4755-2.1779-1.4765-3.5254-.0011-1.4524.52476-2.6596 1.6011-3.676.60252-.56893 1.1136-.87607 1.8984-1.1409l.59375-.20033 2.9487-.02075 2.9487-.02075.0453.30073c.0616.40889-.0214 5.3601-.0965 5.7563-.0913.48136-.40737 1.2472-.70193 1.7006-.6797 1.0464-1.9907 1.9634-3.1131 2.1776-.51142.09758-1.4156.13170-1.8649.07037z"
     transform="matrix(0.8 0 0 0.8 0 -.000015259)" />
  <path
     id="path4271"
     style="stroke:#ffffff;stroke-width:0.2;fill:#999999"
     d="m109.61 23.677c-1.6344-.26929-2.9984-1.2655-3.7475-2.7371-.18375-0.361-.27768-.60631-.42247-1.1033l-.0957-.32851v-2.9369-2.9369l1.7422-.02378c2.0593-.02811 3.6878-.0043 4.0703.05947.85218.14208 1.6212.47098 2.3036.98521.56963.42923 1.1808 1.1879 1.4885 1.8477.37315.80022.53754 1.7022.46261 2.5383-.0645.71945-.19398 1.2093-.47679 1.8035-.67162 1.4111-1.9948 2.4478-3.5543 2.7847-.387.08362-1.3886.11056-1.7706.04763z"
     transform="matrix(0.8 0 0 0.8 0 -.000015259)" />
</svg>
