<svg width="154" height="52" xmlns="http://www.w3.org/2000/svg"><path style="fill:#555761;stroke-width:.135072;fill-opacity:1" d="M96.844 51.764c-1.388-1.125-.173-3.08 1.608-2.59 1.07.296 1.432 1.652.65 2.434-.348.347-.49.395-1.182.392-.541-.002-.878-.076-1.076-.236zm-47.047-.13c-.346-.122-.872-.483-1.241-.852-.515-.515-.693-.822-.91-1.567-.522-1.802-.478-3.763.123-5.368.605-1.615 2.175-2.65 4.018-2.65 1.128.002 1.793.18 2.32.625l.41.345V38.09h-.66c-.479 0-.684-.059-.744-.213-.152-.397-.085-1.372.106-1.53.126-.105.76-.143 1.925-.118l1.737.038.035 6.855.035 6.855h1.213v.796c0 .954-.01.96-1.553.96-1.327 0-1.553-.066-1.555-.454a2.725 2.725 0 0 0-.076-.564c-.069-.255-.113-.239-.594.22-.286.271-.81.593-1.164.713-.822.28-2.613.273-3.425-.014zm3.272-1.843c.526-.225 1.109-.825 1.305-1.343.078-.209.143-1.253.143-2.32v-1.94l-.48-.396c-1.346-1.109-3.117-.843-3.839.576-.306.603-.34.83-.34 2.228 0 1.393.035 1.627.337 2.223.535 1.055 1.733 1.46 2.874.972zm25.941 1.835c-1.347-.481-2.265-1.495-2.698-2.98-.312-1.07-.2-3.603.206-4.64.397-1.016 1.305-2.012 2.207-2.42.619-.279.919-.321 2.266-.321 1.35 0 1.628.04 2.12.302.988.528 1.662 1.757 1.662 3.028v.52h-2.022l-.09-.562c-.113-.705-.651-1.32-1.266-1.45-.577-.12-1.362.01-1.8.297-1.182.774-1.365 4.304-.296 5.706.709.929 2.241 1.182 3.718.616.41-.157.792-.285.851-.285.14 0 .628 1.075.632 1.391.002.167-.243.358-.773.602-.677.311-.986.363-2.398.401-1.313.036-1.753-.003-2.319-.205zm9.662.038c-.907-.29-1.884-1.226-2.353-2.254-.341-.748-.395-1.043-.44-2.424-.06-1.803.14-2.743.808-3.793.876-1.377 2.08-1.996 3.883-1.996 1.738 0 2.774.527 3.44 1.751.623 1.145.992 3.635.597 4.03-.117.117-1.03.162-3.26.162h-3.096l.088.553c.115.72.526 1.514.961 1.856.78.613 2.436.64 3.879.062.3-.12.573-.16.635-.091.202.222.579 1.38.494 1.518-.047.075-.433.272-.859.437-1.01.391-3.801.502-4.777.189zm3.705-6.786c-.104-.676-.363-1.166-.798-1.508-.49-.385-1.696-.39-2.322-.008-.462.281-.963 1.17-.969 1.718-.003.303.01.304 2.082.304h2.086zm11.892 6.748c-1.347-.481-2.265-1.495-2.698-2.98-.312-1.07-.2-3.603.205-4.64.397-1.016 1.306-2.012 2.208-2.42.618-.279.918-.321 2.266-.321 1.35 0 1.627.04 2.12.302.988.528 1.662 1.757 1.662 3.028v.52h-2.002l-.094-.555c-.118-.7-.672-1.329-1.283-1.456-.577-.12-1.362.008-1.8.296-1.182.774-1.364 4.304-.295 5.706.708.929 2.24 1.182 3.718.616.409-.157.792-.285.85-.285.14 0 .629 1.075.633 1.391.002.167-.243.358-.774.602-.676.311-.985.363-2.397.401-1.314.036-1.754-.003-2.32-.205zm9.573-.007c-1.031-.366-1.647-.923-2.19-1.978-.451-.88-.474-.992-.52-2.575-.035-1.26.008-1.843.18-2.445.465-1.614 1.416-2.617 3.02-3.182 1.148-.404 3.054-.307 4.11.209 1.6.783 2.294 2.202 2.29 4.682-.004 1.979-.325 2.962-1.316 4.032-1.018 1.1-1.756 1.408-3.508 1.467-1.065.035-1.503-.009-2.066-.21zm3.028-1.785c.712-.345 1.108-1.09 1.27-2.391.12-.96-.005-2.392-.269-3.072-.377-.971-1.324-1.514-2.37-1.357-.723.108-1.197.467-1.588 1.201-.259.486-.3.77-.3 2.115 0 1.699.15 2.324.712 2.993.672.798 1.576.98 2.545.51zm-84.2 1.81c-.109-.044-.17-.355-.17-.861v-.793l.776-.04.776-.04 2.095-6.052c1.151-3.328 2.185-6.108 2.297-6.177.219-.137 2.147-.18 2.472-.055.12.046 1.05 2.513 2.341 6.214l2.143 6.137h1.688v.796c0 .601-.052.816-.213.878-.28.107-5.238.107-5.516 0-.162-.062-.214-.277-.214-.878v-.796h.743c.408 0 .743-.046.744-.101 0-.056-.198-.665-.44-1.354l-.44-1.251-2.351.036-2.352.036-.441 1.317-.442 1.317h1.48l-.04.844-.04.844-2.364.025c-1.3.013-2.44-.007-2.533-.045zm8.128-7.442c-.898-2.855-1.378-4.154-1.461-3.95a162.03 162.03 0 0 0-.951 2.802l-.868 2.6h3.737zm22.094 7.399c-.112-.07-.845-1.969-1.63-4.219l-1.426-4.091-.667-.068-.667-.067-.041-.798c-.029-.547.014-.833.135-.91.295-.187 3.163-.141 3.31.053.07.093.638 1.794 1.262 3.78.624 1.985 1.178 3.565 1.231 3.511.053-.054.492-1.223.974-2.597.483-1.375.917-2.602.965-2.728.074-.192-.015-.235-.565-.27l-.653-.041-.04-.72c-.062-1.064.006-1.104 1.87-1.104 1.805 0 2.019.048 2.023.454.004.423-3.522 9.579-3.765 9.778-.244.199-2.014.227-2.316.037zm6.762-.06c-.09-.108-.141-.48-.118-.845l.042-.652.776-.04.777-.04v-6.726l-.642-.041-.641-.041V41.4l1.737-.038c1.166-.026 1.799.013 1.925.118.153.126.187.93.187 4.32v4.163l.777.04.777.041.041.652c.067 1.043.083 1.037-2.878 1.037-2.084 0-2.632-.038-2.76-.192zm52.433.104c-.108-.045-.169-.357-.169-.869v-.8h1.351v-6.738l-.641-.041-.642-.041V41.4l1.62-.039c1.816-.043 1.96.022 1.96.888v.459l.66-.595c.784-.704 1.405-.917 2.664-.913 1.175.004 1.924.327 2.455 1.06l.394.543.29-.392c.522-.706 1.416-1.118 2.57-1.185 1.77-.101 2.75.37 3.31 1.588.255.555.286.915.33 3.887l.048 3.276h1.46v.796c0 .601-.051.816-.213.878-.117.045-1.265.082-2.55.082-2.667 0-2.679-.005-2.613-1.037l.042-.652.727-.041.727-.042-.066-2.66c-.074-2.944-.213-3.566-.85-3.808-.938-.357-2.307.053-2.697.805-.163.316-.205.94-.205 3.038v2.64h1.228l-.04.845-.04.844-2.278.037c-1.608.027-2.336-.01-2.472-.123-.132-.11-.18-.376-.153-.847l.04-.688.659-.041.659-.042-.063-2.66c-.085-3.553-.257-3.943-1.743-3.943-.625 0-1.13.233-1.605.74-.334.358-.338.39-.38 3.12l-.04 2.759h1.513l-.04.844-.04.844-2.499.025c-1.374.013-2.575-.007-2.668-.045zm-50.97-11.907c-.417-.373-.459-.477-.459-1.16 0-.641.055-.807.375-1.126.32-.32.485-.375 1.125-.375.678 0 .79.044 1.145.442.549.614.555 1.468.015 2.072-.306.343-.512.438-1.061.49-.615.06-.727.026-1.14-.343zm57.759-8.874-5.92-4.66H93.823V18.1h43.764v8.099l-2.753.036-2.752.037 1.405 4.577c.773 2.518 1.384 4.6 1.357 4.626-.027.027-2.713-2.048-5.968-4.61zm-28.029-7.429v-1.013h-2.026v2.026h2.026zm2.837 0v-1.013h-2.027v2.026h2.027zm2.701 0v-1.013h-1.891v2.026h1.891zm2.972 0v-1.013h-2.026v2.026h2.026zm2.566 0v-1.013h-1.891v2.026h1.891zm2.837 0v-1.013h-1.891v2.026h1.891zm2.701 0v-1.013h-2.026v2.026h2.026zm2.836 0v-1.013h-2.026v2.026h2.026zm14.631-.36c.684-.364.842-1.155.339-1.691-.522-.556-1.427-.374-1.726.347-.206.498.024 1.069.534 1.327.418.211.486.213.853.017zm-38.001-.244c.594-.595.415-1.475-.36-1.77-.999-.379-1.792.817-1.113 1.68.35.445 1.074.488 1.473.09zm3.92-2.165v-.945h-2.026v1.891h2.026zm2.837 0v-.945h-2.027v1.891h2.027zm2.701 0v-.945h-1.891v1.891h1.891zm2.972 0v-.945h-2.026v1.891h2.026zm2.566 0v-.945h-1.891v1.891h1.891zm2.837 0v-.945h-1.891v1.891h1.891zm2.701 0v-.945h-2.026v1.891h2.026zm2.836 0v-.945h-2.026v1.891h2.026zM78.965 33.371c-.973-.14-1.775-.366-2.063-.58-.218-.161-.219-.212-.004-.88.254-.792.31-.813 1.324-.493 1.012.32 2.74.31 3.304-.02.858-.503 1.013-.863 1.064-2.468l.046-1.443-.384.356c-.748.695-1.233.859-2.544.859-.951 0-1.35-.062-1.833-.285-.838-.387-1.544-1.15-1.909-2.062-.265-.664-.303-1.003-.303-2.717 0-1.746.035-2.046.321-2.765.435-1.093 1.45-2.105 2.445-2.44 1.477-.497 3.261-.202 4.195.691l.349.335.214-.545.214-.544h2.993v.796c0 .877-.077.96-.89.96h-.46l-.005 3.883c-.005 4.286-.138 6.32-.466 7.1-.345.825-1.215 1.668-2.036 1.975-.833.312-2.486.445-3.572.287zm2.436-6.66c.33-.168.739-.51.906-.763.286-.431.305-.599.305-2.723V20.96l-.402-.338c-.558-.47-1.26-.672-2.09-.604-.886.074-1.443.456-1.831 1.259-.54 1.113-.5 3.506.076 4.722.446.939 1.907 1.282 3.036.712zm-48.698 1.878c-1.266-.418-2.136-1.177-2.661-2.317-.279-.606-.31-.877-.31-2.634 0-1.875.016-1.995.39-2.805.633-1.37 1.896-2.29 3.559-2.592 1.557-.282 3.362.233 4.315 1.231.91.953 1.342 2.784 1.12 4.739-.318 2.778-2.04 4.424-4.725 4.517-.696.024-1.36-.03-1.688-.139zm2.797-1.727c.936-.491 1.466-2.477 1.187-4.445-.25-1.756-.983-2.561-2.334-2.561-1.716 0-2.508 1.29-2.353 3.832.088 1.433.273 2.08.759 2.655.603.715 1.9.96 2.741.519zm6.355 1.704c-.463-.1-.904-.221-.979-.268-.077-.047-.136-.669-.136-1.427V25.53h1.756v.659c0 .82.163.965 1.19 1.058 1.379.125 2.187-.335 2.187-1.245 0-.85-.494-1.21-2.527-1.845-1.93-.604-2.61-1.345-2.603-2.844.006-1.298.678-2.248 2.023-2.853.491-.222.866-.27 1.958-.257.743.01 1.655.097 2.026.194l.676.176.038 1.385.039 1.384h-1.8l.087-.66c.087-.65.081-.664-.34-.811-.57-.2-1.59-.186-2.009.025a1.027 1.027 0 0 0-.524 1.299c.182.522.762.84 2.548 1.396 1.093.34 1.37.488 1.852.989.639.663.779 1.138.691 2.347-.098 1.35-.928 2.236-2.468 2.636-.97.251-2.537.253-3.685.004zm10.028.011c-.643-.237-1.185-.837-1.398-1.55-.098-.325-.155-1.697-.155-3.709v-3.192h-.53c-.886 0-.956-.07-.956-.96v-.796h1.477l.038-1.52.038-1.52h2.161l.039 1.515.038 1.514 1.177.04 1.178.038.041.73c.028.493-.015.767-.135.843-.097.061-.647.113-1.223.114l-1.047.002v2.908c0 3.234.1 3.764.742 3.925.354.089 1.235.015 1.769-.148.237-.073.317.006.506.502.124.324.225.656.225.738 0 .52-2.947.909-3.985.526zm-37.59-.853.04-.777.642-.041.641-.041V16.209h-1.364l.04-.777.041-.777h4.998l.04.777.04.777h-1.363v4.322h6.213v-4.322h-1.364l.04-.777.04-.777h4.998l.041.777.04.777h-1.364v10.656l.642.04.642.042.04.777.04.776h-5.16l.041-.776.04-.777.642-.041.642-.041v-4.578h-6.213v4.578l.641.04.642.042.04.777.041.776h-5.16zm42.277.002.04-.779.777-.04.777-.041v-6.74l-.574-.002c-.835-.003-.934-.11-.886-.957l.042-.73h3.647l.036 4.215.035 4.214.775.04.775.04v1.487l-2.742.036-2.742.037zm6.28.687c-.115-.115-.123-1.03-.011-1.32.059-.154.264-.214.743-.214h.66v-6.753l-.574-.002c-.835-.003-.934-.11-.885-.957l.041-.73h3.374l.118.644.118.644.542-.49c.81-.732 1.621-1.043 2.737-1.048 1.17-.006 1.787.195 2.333.76.833.86.899 1.185.95 4.718l.047 3.201.699.04.698.04.041.778.04.776h-5.16l.041-.776.04-.777.66-.042.658-.042-.058-2.662c-.05-2.284-.096-2.738-.321-3.2-.605-1.24-2.603-1.053-3.535.33-.293.434-.307.577-.307 2.995v2.54l.776.04.777.04v1.487l-2.575.036c-1.416.02-2.616-.005-2.667-.056zM58.327 16.82c-.935-.415-1.045-1.837-.194-2.508.298-.236.494-.279 1.035-.228.878.084 1.291.528 1.291 1.387 0 1.118-1.094 1.81-2.132 1.35zm35.495-4.528V8.239h43.764v8.105H93.823Zm7.024 1.283v-1.013H98.82v2.026h2.026zm2.837 0v-1.013h-1.891v2.026h1.891zm2.836 0v-1.013h-2.026v2.026h2.026zm2.837 0v-1.013h-2.026v2.026h2.026zm2.701 0v-1.013h-2.026v2.026h2.026zm2.837 0v-1.013h-2.026v2.026h2.026zm2.566 0v-1.013h-2.026v2.026h2.026zm2.837 0v-1.013h-2.027v2.026h2.026zm15.337-.891c.175-.338.176-.449.01-.845-.315-.754-1.178-.89-1.727-.272-.72.81.1 2 1.13 1.64.213-.074.476-.31.587-.523zm-38.706.217c.572-.61.313-1.549-.483-1.748-.38-.096-1.064.214-1.188.537-.438 1.142.855 2.079 1.67 1.21zm3.918-2.163V9.725H98.82v2.026h2.026zm2.837 0V9.725h-1.891v2.026h1.891zm2.836 0V9.725h-2.026v2.026h2.026zm2.837 0V9.725h-2.026v2.026h2.026zm2.701 0V9.725h-2.026v2.026h2.026zm2.837 0V9.725h-2.026v2.026h2.026zm2.566 0V9.725h-2.026v2.026h2.026zm2.837 0V9.725h-2.027v2.026h2.027zm-23.834-4.64c.07-.063 2.358-1.461 5.084-3.106L106.504 0h17.788l5.06 3.054c2.784 1.68 5.086 3.078 5.117 3.107.03.029-8.536.052-19.039.052-10.527 0-19.037-.051-18.966-.115z"/></svg>