<svg xmlns="http://www.w3.org/2000/svg" viewBox="0 0 123.199 41.6" height="52" width="154"><path style="color:#000;overflow:visible;fill:#555761;stroke-width:1" d="M32.535 8.687c-.07 0-.134.03-.203.035h-.036c-.011 0-.02-.002-.035 0-.047.002-.121-.007-.168 0-.026 0-.041-.003-.067 0-.042.005-.092.026-.134.033-.026.003-.041-.005-.067 0-.047.007-.094.023-.137.035-.024.004-.045.026-.069.032a3.848 3.848 0 0 0-.135.035c-.015.004-.047-.006-.065 0a2.714 2.714 0 0 0-.203.067c-.018.006-.016-.007-.035 0-.043.015-.09.047-.134.067-.023.007-.042.024-.067.032-.035.015-.094.016-.132.033l-.069.035c-.058.026-.115.07-.169.1-.015.01-.019-.007-.035 0-.065.037-.138.096-.2.136-.02.012-.05.021-.07.035-.012.007-.018.024-.032.033-.035.021-.07.045-.103.067-.018.016-.047.024-.066.035-.061.045-.11.09-.17.137-.01.01-.02.023-.032.033-.024.02-.044.047-.068.068-.024.02-.045.014-.067.035-.01.006-.029.027-.036.033l-.035.035c-.047.04-.09.09-.135.134-.011.012-.021.024-.033.033-.03.03-.074.039-.101.068l-.067.067c-.015.019-.018.05-.035.068-.036.043-.097.09-.133.135-.016.018-.021.05-.035.067-.029.036-.041.066-.069.101-.018.027-.047.044-.067.07-.008.01-.027.022-.035.033-.008.011-.023.023-.032.035-.027.035-.042.094-.068.134-.008.012-.026.023-.035.035-.005.008.008.024 0 .033l-.1.17c-.005.009-.028.023-.033.034-.039.066-.067.132-.102.2-.008.018-.023.02-.033.035-.027.054-.043.113-.068.168l-.035.067c-.006.02-.024.05-.032.067-.024.054-.047.082-.068.135-.004.003 0 .03 0 .036-.008.011.004.016 0 .031-.012.027-.027.04-.036.067l-.035.101c0 .009.004.026 0 .036-.004.011-.028.017-.035.032-.017.06-.015.141-.032.203-.004.014-.03.018-.033.035-.005.014.004.017 0 .032-.02.082-.017.152-.035.235 0 .005-.032-.003-.033 0a3.75 3.75 0 0 0-.033.237c-.006.026 0 .073 0 .1-.008.058.003.111 0 .17-.004.028-.035.04-.035.067-.005.08 0 .19 0 .27v19.534l.135-.035 3.104-.168V21.002h2.429v-3.24h-2.429v-4.385a1.222 1.222 0 0 1 1.215-1.215h1.485l.101-2.834v-.066l.035-.237c-.02-.014-.064-.018-.1-.035-.009-.004-.024.006-.036 0-.008-.004-.024-.028-.033-.033-.011-.005-.02.005-.033 0-.016-.006-.05-.027-.068-.033-.024-.01-.04-.026-.067-.035-.032-.01-.067-.024-.101-.033-.008 0-.027.002-.035 0-.012-.004-.052.003-.066 0-.008-.003.011-.032 0-.035-.006 0-.024.003-.032 0-.008 0-.026.003-.035 0-.024-.005-.041-.026-.066-.032-.009-.002-.026.002-.035 0-.028-.007-.07.006-.1 0-.008-.002-.024-.033-.033-.035-.026-.004-.041.005-.067 0-.008 0-.027.002-.035 0-.036-.003-.067-.027-.102-.032-.008-.002-.026 0-.036 0h-.033c-.03-.005-.035.002-.067 0-.011-.002-.02 0-.035 0-.033-.005-.099 0-.134 0h-.03c-.032-.004-.07-.033-.103-.035h-.135zm14.273.34v20.444h2.089V17.258h1.99c.056 0 .113-.005.168 0 .023 0 .047.032.068.033.041.006.094-.007.135 0 .021.005.047-.004.067 0 .047.011.09.055.135.068.012.006.024 0 .036 0 .055.02.112.047.166.07.018.006.017-.008.036 0 .035.017.063.047.1.067l.067.033c.038.024.063.044.1.068.012.007.056-.008.068 0 .047.032.09.066.135.101l.035.036c.032.025.07.07.1.098l.035.036c.03.028.038.067.066.1l.035.031c.036.045.067.088.1.135.01.012.028.024.035.035.024.038.045.062.067.102.01.017.024.05.036.068.017.035.047.062.065.1.01.017-.006.05 0 .068.005.005.033-.007.036 0v.035c.009.023-.01.041 0 .065.009.027.023.04.035.068.011.038.024.096.035.136.004.023.027.041.032.066.009.047-.006.087 0 .135.003.019.032.052.035.068.006.068 0 .134 0 .203v10.19h2.025V19.247c0-.066.004-.135 0-.2v-.103c-.004-.047.005-.088 0-.134-.003-.03-.03-.07-.036-.101-.005-.045.01-.092 0-.135-.004-.027-.027-.041-.032-.069-.006-.043-.024-.094-.033-.135-.005-.018.004-.047 0-.067-.003-.011 0-.023 0-.035-.012-.043-.021-.088-.036-.134-.005-.023-.025-.074-.033-.098-.017-.065-.047-.106-.066-.168-.006-.012 0-.024 0-.036a3.96 3.96 0 0 0-.07-.168c-.005-.011.004-.023 0-.035-.006-.012.005-.02 0-.033-.005-.01-.03-.023-.034-.035-.02-.045-.047-.088-.068-.134-.006-.012.006-.02 0-.033-.004-.007.004-.027 0-.035a3.527 3.527 0 0 0-.101-.2c-.006-.012-.03.01-.035 0-.004-.008.005-.028 0-.035-.032-.059-.066-.112-.101-.17-.01-.013-.024-.052-.033-.066-.006-.012.006-.024 0-.036-.017-.027-.052-.043-.069-.068-.006-.011-.027-.023-.035-.035-.003-.006.006-.026 0-.033-.009-.015-.021-.017-.032-.033-.011-.02-.02-.05-.035-.068-.047-.07-.117-.139-.168-.203-.052-.065-.113-.11-.168-.17-.009-.008.01-.023 0-.035-.006-.003-.027.012-.035 0v-.03a2.075 2.075 0 0 0-.134-.135l-.033-.035c-.006-.005-.027.007-.033 0-.056-.051-.11-.118-.17-.167-.008-.01-.023.006-.034 0-.003-.006.006-.033 0-.036-.05-.042-.113-.062-.167-.1-.017-.012-.018-.024-.036-.036-.068-.047-.164-.091-.235-.134-.006-.005.006-.03 0-.035-.065-.035-.135-.065-.202-.1l-.068-.033c-.07-.035-.13-.07-.202-.102-.005 0-.028.002-.035 0-.077-.032-.155-.074-.235-.101-.01-.002-.024.002-.033 0-.068-.021-.134-.05-.203-.067-.006-.003-.026.002-.033 0-.01-.003-.027 0-.036 0-.082-.02-.15-.054-.235-.068-.01-.004-.02 0-.035 0-.073-.012-.16-.028-.235-.035-.02 0-.047.002-.067 0-.06-.004-.14.002-.203 0h-.067c-.062 0-.135-.003-.202 0h-.068c-.047 0-.085-.003-.135 0-.016 0-.018-.003-.033 0h-.035c-.043.003-.09.031-.134.035-.036.002-.066-.003-.101 0h-.036c-.023 0-.039-.004-.066 0-.047.003-.082-.006-.132 0h-.036c-.053.006-.114.027-.166.033-.03.003-.073-.004-.103 0-.03.003-.07.03-.1.035-.051.006-.083-.01-.135 0-.023 0-.047.028-.067.033-.016.002-.051-.004-.066 0-.044.008-.06.023-.103.033h-.033c-.068.016-.14.019-.203.035-.042.012-.094.021-.135.035V9.024h-2.09zm32.153.068V29.47h2.092V9.092H78.96zm-61.474.097v20.279h3.238V9.396l-3.102-.204h-.137zm6.747 1.15c-.02 0-.047.03-.067.032-.04.006-.096-.007-.135 0-.023.006-.043.028-.068.035-.032.006-.07-.012-.101 0 0 0 .005.032 0 .033-.024.007-.04-.01-.065 0-.03.012-.07.021-.1.035-.024.009-.045.022-.071.032-.012.01-.018.03-.036.035-.011.009-.05.027-.064.036-.024.011-.045.018-.067.032-.026.016-.044.02-.068.036-.024.014-.048.051-.069.067-.023.017-.043.014-.068.033-.02.017-.047.049-.067.068-.008.006-.027-.005-.035 0-.015.016-.016.053-.033.068-.02.018-.053.015-.07.035a.457.457 0 0 0-.066.066c-.014.015-.021.053-.036.068-.008.012-.023.024-.032.035-.01.012-.024.02-.036.033-.008.012.01.055 0 .068-.005.01-.026-.011-.032 0-.016.021-.023.044-.035.067 0 .005-.032.03-.035.036l-.032.065c-.006.012.005.024 0 .036-.009.016-.026.014-.035.035v.03c-.012.024-.024.044-.033.068-.011.03-.024.038-.035.067l-.032.103c-.006.016.004.016 0 .035-.005.014.003.019 0 .033v.035c-.005.012-.032.018-.035.032-.003.012.003.023 0 .035-.003.008 0 .026 0 .035-.005.024.004.04 0 .066-.004.026-.032.042-.036.068v.033c-.003.047 0 .087 0 .135 0 .059-.004.112 0 .168.003.014.033.021.036.035.006.05-.01.12 0 .168.011.053.051.118.067.17.005.011-.004.02 0 .033.014.043.017.094.035.135.004.009.028.023.033.035.02.047.042.087.067.134.008.012-.006.023 0 .033.011.019.023.016.035.035.011.019.02.047.033.067.006.007.027.023.033.032.03.042.068.094.102.134.028.035.07.07.101.1l.035.036c.036.035.059.067.1.1.01.008.024.027.033.035.035.028.064.04.101.066.006.005.027.03.035.035.041.028.087.041.133.067.012.006.024.028.035.033a2.8 2.8 0 0 0 .134.068c.05.021.083.016.134.033.012.006.024.033.036.035.053.017.115.024.169.035.055.012.111.026.168.036.011 0 .023-.004.035 0 .055.002.11 0 .168 0 .064 0 .141.003.203 0l.17-.036c.016-.003.016.003.033 0l.138-.04c.02-.005.047-.027.068-.035.036-.012.066-.017.101-.032a.612.612 0 0 0 .067-.035c.036-.014.07-.015.104-.033a.881.881 0 0 1 .068-.033c.03-.018.038-.049.067-.068.02-.015.047-.02.068-.035.028-.019.041-.047.068-.067.02-.015.047-.05.068-.067l.067-.068c.02-.018.05-.015.067-.035.024-.024.047-.041.067-.066.017-.019.018-.047.036-.066.017-.026.046-.042.065-.068.016-.021.02-.045.036-.067.015-.027.05-.074.065-.102l.032-.067.035-.067c.01-.027.022-.078.032-.103.012-.027.024-.036.035-.066l.033-.101c.01-.03-.008-.036 0-.068.006-.027.029-.073.033-.101.008-.031-.003-.069 0-.102.006-.028.033-.038.036-.066v-.033c.003-.044 0-.092 0-.135 0-.06.006-.11 0-.169 0-.017-.032-.05-.036-.068-.004-.042.012-.094 0-.136-.003-.02-.027-.045-.031-.066-.005-.016.004-.017 0-.035-.005-.018.006-.047 0-.066-.008-.023-.026-.044-.036-.068-.008-.023-.023-.045-.033-.067-.003-.008.004-.026 0-.035-.006-.014-.025-.018-.033-.033-.015-.035-.016-.068-.035-.102a.609.609 0 0 0-.033-.068c-.015-.024-.023-.047-.035-.069-.011-.015-.024-.018-.035-.032-.004-.009-.029-.029-.036-.036-.027-.044-.031-.058-.064-.1-.01-.012-.024-.022-.036-.034-.023-.03-.072-.072-.1-.1-.004-.005.007-.03 0-.036-.007-.006-.025.008-.032 0-.006-.005.006-.026 0-.033-.024-.023-.042-.044-.067-.067-.012-.006-.024.01-.036 0-.02-.016-.047-.05-.067-.066-.02-.017-.044-.02-.066-.035-.01-.007-.024-.027-.032-.035-.026-.016-.04-.016-.067-.035-.012-.004-.024-.024-.035-.03-.014-.013-.051-.028-.066-.036-.036-.018-.068-.018-.104-.035-.011-.005-.018-.027-.032-.032-.038-.016-.064-.021-.102-.035-.014-.004-.054.006-.068 0-.008 0 .01-.03 0-.033l-.135-.035c-.016-.004-.05.003-.067 0-.023-.004-.047.004-.068 0-.019 0-.014.002-.033 0-.017 0-.05-.032-.068-.033-.054-.005-.113 0-.168 0-.059 0-.106-.006-.167 0zm15.689 4.25c-.041 0-.092.035-.134.035h-.101c-.042 0-.094-.005-.135 0-.024 0-.044-.003-.069 0-.009 0-.023-.005-.032 0-.048.004-.094.026-.138.032-.032.005-.07-.005-.101 0-.045.007-.092.026-.135.035-.019.003-.015-.005-.035 0-.01.003-.022-.003-.033 0-.03.006-.07.026-.101.033-.012.005-.024 0-.036 0-.009.005-.023 0-.033 0-.018.006-.049.032-.068.035-.042.012-.058.024-.1.036-.004 0-.031-.004-.036 0-.024.007-.041-.009-.066 0-.005 0 .005.031 0 .035l-.101.031c-.009.003-.027-.003-.035 0-.021.007-.044-.008-.066 0-.003 0 .003.036 0 .036-.021.006-.047-.01-.068 0-.012.003-.021.027-.033.031-.012.005-.024-.004-.035 0-.024.01-.044.024-.067.036-.012.003-.024-.006-.033 0l-.07.033c-.009.004-.024.03-.034.035-.02.008-.047.023-.068.033-.035.016-.067.015-.101.035-.011.005-.023.026-.035.033l-.067.033c-.024.014-.045.02-.07.035-.02.012-.048.02-.066.033-.018.01-.018.023-.036.033-.019.012-.047.02-.065.035-.02.012-.048.02-.069.033-.014.01-.02.023-.033.035h-.035c-.023.014-.043.05-.067.066-.023.016-.047.016-.068.035-.011.007-.023.024-.035.032-.006.007-.024.03-.032.035-.035.026-.07.041-.102.068-.01.008-.024.027-.033.036l-.035.035c-.036.028-.065.035-.1.064-.008.007.008.027 0 .036-.003.002-.032-.004-.036 0-.043.04-.09.09-.134.134l-.065.065c-.012.014-.024.022-.036.036-.011.011-.02.052-.033.067-.04.044-.094.088-.135.134-.009.014-.02.02-.031.035-.006.006-.029.023-.036.033-.03.04-.035.094-.065.135-.024.031-.045.035-.069.067-.047.067-.094.167-.136.235-.005.01-.028-.006-.033 0-.008.011-.027.023-.035.035-.014.023-.019.043-.033.067-.03.053-.039.117-.067.17-.006.012-.026.02-.033.036-.016.028-.02.07-.035.098-.008.018-.024.017-.033.035a2.449 2.449 0 0 0-.068.133c-.014.033-.02.07-.036.102-.025.067-.042.133-.065.203l-.033.1c-.003.01.004.024 0 .036-.028.087-.079.178-.101.268a4.495 4.495 0 0 0-.135 1.08v6.171c0 .085.029.15.035.235 0 .026-.004.041 0 .067.004.07-.01.165 0 .235 0 .018.03.014.035.035.01.083.015.181.03.27.006.024-.004.042 0 .065.015.067.052.137.069.202.006.024-.006.045 0 .068.023.083.041.188.067.27.008.02.03.015.035.034.024.067.042.137.067.203.01.023.024.042.035.067.03.08.065.16.1.235.005.012-.005.026 0 .035.036.07.065.134.101.202.004.01.03.027.033.035l.035.066c.024.047.04.092.066.136.016.024.02.044.036.069.04.065.088.138.134.202.04.058.091.112.135.168.017.02.051.047.068.067.035.042.064.094.1.135l.07.067c.04.043.058.094.1.134l.035.035c.056.054.141.115.2.167.018.014.018.02.035.035.045.035.089.063.136.1.02.019.044.051.067.07.043.03.089.07.135.1.023.015.047.019.067.035.064.04.136.061.203.1.008.006.023.03.033.036.063.035.103.07.169.1l.066.033c.05.024.117.047.169.069.028.011.04.023.067.033.055.02.113.016.169.035.024.006.047.026.068.033.077.023.158.049.235.067.026.005.045-.006.07 0l.167.035c.032.005.07.028.103.033.055.007.111-.006.168 0 .03.002.07-.003.1 0 .078.005.16.033.236.033h.035c.113 0 .22-.02.337-.03.118-.01.221-.015.339-.036l2.7-.404.235-.036-.067-1.619-.033-.843v-.27h-3.1c-.006 0-.028-.036-.034-.036-.042 0-.094.006-.135 0-.017 0-.016.005-.035 0-.028 0-.07.01-.1 0-.016 0-.018-.027-.035-.031a1.471 1.471 0 0 1-.1-.036c-.014-.004-.02.01-.033 0a.99.99 0 0 1-.138-.065c-.035-.018-.068-.043-.1-.065-.012-.008-.024-.023-.036-.035-.024-.018-.044-.012-.067-.033l-.032-.035c-.023-.022-.047-.043-.068-.066l-.033-.035c-.03-.03-.043-.063-.068-.1a.2.2 0 0 1-.035-.034c-.02-.028-.018-.036-.036-.066-.005-.012-.028-.024-.035-.035a.437.437 0 0 1-.032-.067c-.005-.01.005-.024 0-.036a1.243 1.243 0 0 1-.033-.1c-.011-.035-.027-.066-.035-.1 0-.012.004-.024 0-.036-.004-.023.005-.04 0-.065 0-.012-.032-.056-.033-.069-.004-.033 0-.065 0-.1v-1.418h4.049c.888 0 1.621-.705 1.621-1.621v-3.17c-.003-.059 0-.112 0-.17-.003-.004 0-.027 0-.032-.004-.027 0-.041 0-.068-.005-.047-.03-.09-.035-.135-.004-.035.005-.067 0-.101-.006-.045-.027-.094-.035-.137-.004-.03.008-.07 0-.1 0-.006.003-.028 0-.034-.005-.035-.024-.065-.033-.102-.006-.026.008-.039 0-.066 0-.005.003-.028 0-.035-.005-.019-.028-.047-.033-.066-.006-.02.005-.047 0-.067-.005-.016-.03-.016-.035-.032-.004-.018.006-.052 0-.069-.012-.04-.02-.06-.033-.1l-.036-.1c-.011-.04-.051-.063-.066-.102-.012-.032-.02-.07-.036-.102-.014-.039-.014-.097-.032-.135-.009-.023-.023-.047-.035-.068-.005-.012.006-.02 0-.033-.006-.019-.023-.019-.033-.035-.023-.05-.043-.121-.068-.17-.006-.009-.03.01-.035 0-.03-.056-.067-.112-.1-.167-.004-.005.003-.03 0-.036-.006-.007.006-.023 0-.032-.027-.044-.073-.06-.101-.102-.01-.014-.024-.052-.036-.066-.014-.024-.016-.047-.035-.069-.059-.082-.1-.157-.164-.235-.012-.014-.024-.02-.036-.035-.031-.037-.068-.063-.1-.1l-.036-.036a.828.828 0 0 0-.066-.067c-.03-.032-.038-.07-.07-.101-.004-.005-.027.006-.032 0-.038-.039-.059-.098-.1-.135-.014-.012-.055-.02-.068-.033-.03-.026-.039-.041-.068-.067-.012-.01-.024-.024-.036-.035-.009-.006-.023.009-.035 0-.035-.027-.066-.073-.1-.1-.015-.012-.017-.021-.035-.035-.01-.007-.021-.024-.032-.032-.04-.03-.094-.039-.134-.068-.014-.01-.02-.024-.035-.033-.05-.035-.115-.07-.168-.104-.038-.023-.094-.044-.133-.067-.018-.009-.02-.025-.035-.035-.012-.005-.024-.026-.036-.032-.023-.011-.076-.023-.1-.035-.02-.012-.01-.023-.035-.033-.006-.003-.023.004-.032 0-.008-.003-.027-.03-.035-.035-.047-.021-.086-.043-.134-.066-.011-.005-.023.005-.035 0h-.03c-.055-.023-.083-.047-.136-.067-.019-.007-.051-.028-.07-.035-.047-.018-.082-.016-.134-.033-.014-.006-.021-.03-.035-.035-.056-.018-.112-.018-.168-.033h-.036c-.011-.003-.019-.03-.031-.035-.012-.003-.024.003-.036 0l-.134-.033c-.009-.002-.023.002-.035 0-.008 0-.023.002-.032 0-.047-.01-.089-.026-.136-.035-.059-.009-.11.008-.17 0-.047-.004-.087-.029-.135-.032-.047-.005-.089.002-.136 0h-.062c-.026 0-.074.002-.1 0-.042 0-.058-.035-.1-.035zm-17.14.202v14.677h3.24V14.996l-3.242-.2zm80.505.17c-.05.003-.082.027-.135.034-.027 0-.075-.004-.101 0-.043.004-.056.026-.099.032-.027.003-.074-.006-.101 0-.047.006-.094.024-.136.032-.018.005-.017-.004-.036 0h-.033a3.35 3.35 0 0 0-.135.035c-.015.004-.047.028-.064.033-.066.018-.139.012-.202.033-.006.003-.029.033-.036.035-.089.03-.149.032-.235.066-.011.003-.023.03-.035.035-.085.035-.184.059-.27.099-.006.005-.024.03-.032.035-.059.03-.112.067-.17.1h-.032c-.055.032-.113.065-.168.1-.011.01-.02.026-.035.035-.005.004-.026-.006-.036 0-.037.026-.058.07-.098.1-.01.008-.024-.006-.036 0-.009.008-.023.028-.031.035a3.299 3.299 0 0 0-.17.135c-.048.04-.123.094-.169.135-.017.016-.015.017-.033.033-.035.033-.067.067-.1.101l-.036.036-.033.033-.033.035c-.03.03-.042.068-.068.1-.008.008-.027.023-.035.035-.038.047-.097.082-.133.133-.015.02-.02.047-.035.068-.024.03-.047.037-.067.067-.006.01.006.023 0 .035-.006.008-.027.023-.033.033-.006.01-.028.023-.036.033-.035.055-.066.117-.1.171-.023.036-.049.067-.07.101-.009.021-.023.047-.032.07-.004.003 0 .029 0 .033-.009.015-.025.016-.035.035l-.066.133c-.006.014.005.02 0 .035-.005.007-.03.026-.035.033-.015.035-.019.07-.033.102-.011.027-.023.041-.035.068v.035c-.01.017-.028.014-.036.032-.017.042-.017.092-.035.134-.006.023-.026.047-.032.068-.017.047-.018.087-.035.134 0 .012-.03.024-.032.035-.004.01.002.024 0 .033-.02.067-.05.135-.068.202-.026.104-.018.2-.035.306 0 0-.032-.005-.033 0-.006.039.005.094 0 .134-.004.02.002.047 0 .067v.035c-.01.067-.03.13-.035.2 0 .003.002.031 0 .035 0 .062.002.106 0 .167V29.47h2.093V19.282c0-.584.256-1.18.675-1.621.035-.036.063-.065.1-.1.036-.03.067-.073.102-.101.244-.2.538-.353.843-.406.038-.005.063.005.101 0 .047-.003.089 0 .136 0l2.293.036c.018-.339.011-.703.035-1.117 0-.027.03-.035.03-.065v-.036c.003-.058-.001-.105 0-.166v-.036c.003-.058-.001-.138 0-.2a6.985 6.985 0 0 0-.37-.17c-.147-.063-.318-.09-.473-.137-.045-.012-.09-.055-.135-.067-.038-.012-.062-.024-.101-.035-.004 0-.028.004-.033 0-.035-.007-.066.008-.102 0a4.912 4.912 0 0 0-.81-.1h-.102c-.074 0-.162-.003-.235 0h-.068zm-41.974.034c-.11.003-.22.024-.337.032-.111.008-.258.015-.371.032-.113.016-.223.047-.337.068h-.033c-.101.019-.177.045-.27.067-.02.003-.054-.004-.071 0-.157.035-.322.059-.47.101-.005 0 0 .03 0 .033-.07.019-.137.012-.204.035-.003 0-.03.03-.036.032-.068.021-.134.047-.2.068-.008.004-.025-.002-.035 0-.023.008-.044.027-.067.035-.011.005-.023-.003-.035 0-.011.005-.021-.005-.035 0-.028.012-.07.024-.1.036 0 .035.033.065.035.1v.035c0 .015-.003.017 0 .033 0 .035-.003.065 0 .1.004.083-.006.16 0 .236.004.076.028.157.033.235v.303c0 .029-.003.037 0 .068v.24c0 .016.032.014.033.032v.134c.004.04 0 .059 0 .103.043-.006.094 0 .136 0 .036-.006.065 0 .101 0 .059-.007.112-.032.17-.036.07-.007.129.005.202 0 .037-.005.094 0 .134 0 .24-.02.466-.05.708-.07.035 0 .068.003.101 0 .082-.005.158-.026.235-.032.059-.005.118.004.172 0 .058-.005.11.004.169 0 .068-.005.135-.03.202-.035.042-.003.094.002.135 0 .096-.004.21.005.302 0 .11-.012.204-.033.305-.033.069 0 .137.03.2.035.018 0 .052-.003.068 0 .064.005.112.021.17.033.056.012.113.017.168.033.01.007.018-.004.031 0 .053.019.122.047.17.07a1.104 1.104 0 0 1 .136.066c.011.007.02.027.033.036a.65.65 0 0 1 .102.065h.033c.038.032.067.068.1.103l.034.031c.033.035.037.065.068.101 0 .004.032.032.033.036.03.037.04.058.068.1.006.011.026.02.035.032.021.04.047.094.066.135.015.036.02.069.035.103 0 0-.003.031 0 .033.05.132.108.289.134.438.004.023-.005.047 0 .07.008.054.028.11.033.167.003.024 0 .044 0 .068.006.079 0 .153 0 .235v1.654c-.02-.005-.047-.028-.067-.035-.017-.003-.051.007-.07 0-.006-.002.009-.03 0-.033-.01-.002-.024.003-.032 0H63.4c-.01-.002-.024.003-.033 0-.015-.003-.02-.029-.035-.033-.014-.004-.053.005-.067 0-.016-.003-.018.004-.036 0-.014-.003-.05-.029-.065-.035-.02-.002-.016.005-.036 0-.015-.002-.049.005-.066 0-.016-.002-.015-.03-.032-.033-.02-.003-.048.004-.067 0-.017-.003-.017.004-.036 0-.017-.003-.047-.03-.065-.035-.015 0-.052.004-.067 0-.015 0-.052.005-.066 0-.012 0-.019.004-.035 0-.02 0-.042-.03-.066-.032h-.064c-.019-.003-.047 0-.067 0-.009 0-.023.003-.035 0-.033-.003-.063.003-.1 0-.052-.004-.114-.03-.169-.035h-.067c-.035 0-.063.002-.101 0h-.505c-.047 0-.088-.002-.135 0h-.101c-.041.005-.066 0-.104 0h-.035c-.02 0-.047.033-.067.035-.02.003-.047-.002-.067 0-.016.003-.019-.002-.035 0-.024.004-.078-.003-.101 0-.024.003-.045.03-.067.033-.011.004-.055-.002-.068 0-.033.006-.036-.005-.068 0-.02.005-.051.03-.071.035-.016.004-.047-.004-.066 0-.028.005-.04.026-.067.033-.027.007-.076-.004-.102 0-.015.006-.017-.002-.033 0a1.148 1.148 0 0 0-.1.036c-.05.011-.091.051-.137.067-.026.007-.044-.01-.068 0h-.036c-.031.011-.065.02-.1.032-.023.009-.04.024-.065.033-.032.012-.07.02-.1.036-.024.009-.044.023-.068.033-.012.007-.021.028-.033.035l-.07.033a.873.873 0 0 1-.066.035c-.017.008-.02-.008-.036 0l-.066.035c-.02.012-.047.02-.066.032-.028.017-.04.05-.066.068-.01.006-.026-.006-.036 0-.01.007-.02.026-.032.035-.05.03-.121.066-.168.1-.016.012-.02.024-.036.033-.029.023-.07.043-.1.068-.017.014-.016.053-.035.067-.026.024-.073.047-.1.07-.016.015-.017.02-.035.036-.024.02-.076.042-.1.066-.015.015-.019.051-.035.067-.02.023-.044.044-.066.068-.003.003-.033 0-.035 0-.012.011-.02.055-.033.068-.03.032-.038.067-.067.1-.004.005-.032-.004-.035 0-.005.007.006.028 0 .035-.036.045-.067.088-.101.134-.005.007-.026.023-.036.033l-.064.1c-.012.018-.024.02-.036.036 0 0 .003.032 0 .033-.019.033-.047.035-.065.07v.032c-.012.018-.024.017-.036.035-.017.03-.017.069-.035.1 0 0-.03-.002-.032 0-.009.018.01.05 0 .068-.003.003-.033-.003-.035 0-.015.032-.018.069-.033.102-.006.015-.027.051-.033.066-.02.047-.016.092-.035.137 0 .007-.03-.005-.033 0v.035c-.024.055-.047.11-.068.168v.035c-.006.016.005.012 0 .032l-.036.101c-.004.015.006.018 0 .035 0 0-.031-.003-.032 0-.006.024.008.077 0 .1-.004.015.005.017 0 .033-.005.02-.029.047-.033.067-.006.02.003.047 0 .068-.005.017-.032.02-.036.035-.008.04.006.097 0 .135-.006.031-.029.038-.035.069-.005.042.006.091 0 .134-.003.029.004.072 0 .102-.004.047-.03.084-.033.134v.067c-.004.073 0 .16 0 .235v1.283c0 .08-.004.156 0 .235 0 .023-.003.042 0 .068.005.055.028.114.035.168.003.028-.005.04 0 .07.008.052.024.114.033.167.005.024-.006.044 0 .068.014.075.047.161.067.235.019.07.047.135.068.204.01.023.024.078.036.102.016.05.014.086.035.134.009.027.024.042.032.068.02.05.047.09.068.136l.035.068c.03.067.065.137.1.202.003.004-.003.029 0 .036.036.062.098.14.135.2.015.023.02.013.036.035.03.049.064.12.1.168.01.017.02.047.035.067.044.063.082.109.133.168.01.016.02.017.035.035.039.044.094.09.134.134l.068.068c.043.047.09.094.134.136.011.012.019.024.035.035.055.052.106.118.167.168.018.015.047.018.067.032.047.038.086.067.134.101.02.015.047.054.067.068.067.047.136.061.204.103.005.003-.004.032 0 .035.066.039.134.064.202.1l.066.035c.059.028.112.04.17.066.018.008.049.026.066.035.077.03.126.07.203.1.012.005.054-.004.067 0 .066.023.137.047.204.068.02.007.011.027.032.035.07.018.165.017.235.033.012.002.024.03.036.035.082.017.15.02.235.032.019.004.05 0 .068 0 .07.01.133.03.203.035.02.003.047-.003.066 0 .088.005.183 0 .27 0 .867 0 1.64-.276 2.296-.743a4.166 4.166 0 0 0 1.245-1.417c.312-.58.474-1.222.474-1.924v-6.309c0-.04.003-.061 0-.101 0-.027.003-.073 0-.1 0-.027.003-.041 0-.068v-.035c-.003-.03.004-.07 0-.101-.005-.036-.028-.064-.033-.1-.006-.027.004-.074 0-.101-.005-.024.003-.047 0-.068-.005-.017-.033-.018-.035-.036-.004-.023.004-.04 0-.065v-.036c0-.016.004-.018 0-.035-.006-.02-.029-.045-.036-.066-.006-.028.01-.074 0-.1-.004-.02-.027-.016-.035-.036-.003-.016.01-.05 0-.067-.004-.023-.023-.042-.03-.066-.008-.023-.029-.043-.036-.067-.005-.011.005-.054 0-.067-.005-.02-.026-.049-.033-.068l-.033-.102c-.01-.023-.023-.073-.035-.1-.011-.028-.02-.041-.033-.068-.003-.006 0-.028 0-.035-.011-.028-.02-.035-.035-.066-.004-.012-.027-.024-.032-.035-.006-.007.003-.024 0-.032l-.102-.202c-.006-.012.006-.02 0-.035-.004-.004-.032.008-.035 0-.041-.073-.088-.161-.134-.235-.006-.012.006-.024 0-.032-.04-.063-.094-.11-.136-.17-.006-.011.006-.026 0-.034-.006-.009-.026-.024-.036-.033-.043-.063-.084-.11-.134-.17-.005-.007-.027-.027-.033-.035-.055-.063-.111-.138-.169-.2-.015-.017-.019-.02-.035-.035-.038-.04-.094-.096-.133-.135-.017-.015-.052-.052-.068-.067-.064-.055-.137-.082-.203-.134-.012-.008-.024-.023-.036-.035-.051-.041-.11-.094-.166-.134-.024-.015-.048-.019-.069-.033-.065-.043-.135-.094-.202-.135-.005-.005.004-.033 0-.035-.074-.044-.158-.062-.235-.101l-.07-.035c-.059-.03-.136-.076-.2-.102-.015-.007-.054.005-.068 0-.082-.032-.153-.075-.235-.102-.021-.006-.05-.028-.07-.035-.02-.005-.045.007-.066 0l-.135-.032c-.021-.006-.047-.03-.069-.035-.023-.005-.077.007-.1 0-.068-.012-.13-.023-.2-.033-.008 0 .005-.03 0-.035-.09-.012-.18.01-.27 0-.018 0-.052-.032-.069-.032-.03-.002-.07.003-.1 0-.056-.002-.112 0-.169 0h-.168zm10.899 0c-.033 0-.068.03-.101.032-.033 0-.069-.006-.101 0h-.032c-.033.003-.035-.007-.067 0-.021 0-.047.027-.068.032-.012.003-.02-.003-.033 0h-.035c-.028.006-.042-.005-.069 0a1.391 1.391 0 0 0-.134.035c-.027.005-.04.026-.068.033-.03.007-.07-.01-.1 0-.01.002-.024.03-.036.033-.024.007-.041-.007-.066 0-.023.008-.043.026-.068.035-.012.004-.055.028-.067.033-.024.008-.011-.007-.035 0H71.1c-.006.004.009.032 0 .035-.024.008-.042-.011-.067 0-.012.004-.024.028-.035.036-.016.004-.05-.01-.066 0-.036.011-.066.049-.101.065-.012.006-.021-.005-.036 0-.009.005-.02.027-.033.033-.042.02-.094.047-.135.068-.006.005-.023-.004-.033 0h-.035c-.03.017-.035.05-.066.067-.023.012-.047.02-.07.036 0 0-.033-.006-.035 0-.048.027-.086.067-.133.098-.028.019-.041.047-.068.067-.036.024-.071.045-.103.07-.02.015-.047.018-.067.036-.032.023-.07.073-.102.099-.02.017-.047.015-.068.033-.03.025-.038.042-.067.068l-.068.068c-.032.03-.035.07-.067.1-.011.013-.054.022-.067.036-.033.035-.035.065-.067.1-.05.053-.122.11-.169.167-.016.02-.018.047-.035.067-.03.039-.07.059-.1.1-.005.007.006.028 0 .034-.012.019-.021.015-.033.035-.03.039-.078.094-.106.134-.006.012.01.02 0 .033-.006.012-.023.02-.031.033-.024.04-.045.094-.069.135-.006.012-.027.023-.033.035-.006.012.006.02 0 .035-.035.065-.07.13-.102.2 0 .004-.03-.003-.031 0-.006.016.008.05 0 .067-.024.052-.048.082-.069.135-.009.021-.025.047-.033.068v.035c-.02.053-.049.08-.068.134-.009.022.005.047 0 .069-.023.068-.053.131-.07.202v.035a4.053 4.053 0 0 0-.134.975v6.58c0 .07.03.136.035.204 0 .03-.004.07 0 .101.003.05-.009.082 0 .135.003.027.028.07.032.099.006.053-.01.082 0 .135.005.023.028.075.035.1.014.076.012.129.033.202.005.014 0 .053 0 .068.018.061.047.106.068.168.006.024.024.044.033.067.018.052.014.117.035.168.006.024.024.043.032.068.024.057.042.112.068.168.008.014.029.02.036.035.035.07.064.133.102.2 0 .006-.003.03 0 .035.004.006.03-.007.033 0l.1.17c.012.018.024.047.036.067.035.058.062.117.101.17.01.012.024.021.035.033.048.064.083.14.134.203.015.017.056.018.069.033.04.047.058.092.1.135l.069.067c.047.05.082.086.135.134l.035.035c.056.053.106.086.167.135.017.017.047.052.066.067l.134.103c.021.011.05.018.07.031.064.047.134.094.2.135.011.007.024-.005.035 0 .059.036.108.07.168.101l.069.033c.058.028.114.075.17.101.02.007.015-.008.035 0 .07.032.159.074.235.101.018.007.05.03.068.036.06.02.106.015.168.033.024.005.044.028.069.035.065.017.135.017.202.031.014.004.02.031.035.036.079.015.186.02.268.033.023.004.045 0 .068 0 .064.011.106.029.17.035.023.003.043 0 .067 0 .083.005.184 0 .27 0 .066 0 .137.003.203 0h.067c.047 0 .094.006.136 0 .023 0 .041-.03.067-.033.039-.006.062.006.1 0 .028-.005.075.005.102 0 .035-.006.063-.028.1-.035.028-.005.074-.027.1-.033.036-.008.068.01.103 0 .028-.007.041-.027.068-.033.036-.01.067-.024.101-.035.03-.007.076.01.103 0a1.26 1.26 0 0 0 .1-.033c.028-.01.042-.024.069-.035.033-.012.07-.022.102-.033.027-.012.041-.024.067-.036.033-.011.07-.051.102-.065.027-.012.044-.024.07-.036.031-.014.071-.016.1-.033l.07-.035c.03-.015.07-.047.1-.066.024-.014.044-.02.068-.035.03-.017.07-.047.1-.066.024-.015.044-.02.069-.035.03-.017.039-.047.068-.066.021-.016.047-.017.068-.035.03-.02.073-.044.102-.067.022-.015.047-.047.067-.066.029-.023.041-.043.069-.067.018-.018.047-.017.066-.035.028-.023.073-.042.1-.068.019-.019.016-.05.036-.068.025-.026.072-.041.1-.067.017-.019.016-.05.035-.068.023-.027.04-.039.066-.067.017-.019.052-.05.07-.068.023-.03.041-.07.066-.101.015-.02.023-.017.035-.036.027-.032.075-.065.101-.1.011-.016.024-.052.035-.068.027-.038.04-.06.066-.1.01-.012.026-.02.035-.033.033-.053.069-.118.1-.17.065-.11.114-.222.17-.338.006-.008.03-.021.035-.033.021-.047.047-.086.067-.134.006-.018-.006-.052 0-.068.016-.042.051-.059.067-.101.009-.02-.006-.047 0-.067l.035-.135c.006-.024.027-.047.035-.068.012-.04.024-.061.032-.101.006-.024-.005-.044 0-.067l.035-.135c.004-.024.029-.044.033-.069.006-.04-.006-.094 0-.134.003-.023.03-.043.033-.068.005-.025-.004-.04 0-.067v-.035c.006-.059-.004-.11 0-.169.003-.012 0-.02 0-.033 0-.008.035-.026.035-.035-.047 0-.427-.033-.945-.067-.172-.012-.376-.019-.573-.033-.18-.012-.381-.02-.572-.035 0 .047.004.094 0 .136-.003.021.003.043 0 .066a2.11 2.11 0 0 1-.1.405c-.278.787-1.04 1.316-1.925 1.316-.062 0-.11.006-.17 0h-.068c-.058-.006-.11-.023-.168-.035-.055-.012-.117-.018-.169-.032-.011-.003-.02.002-.031 0v-.035c-.056-.018-.118-.012-.17-.033-.006-.004.006-.032 0-.035-.047-.02-.089-.009-.135-.032-.011-.007-.023-.03-.033-.035a3.06 3.06 0 0 1-.169-.101c-.043-.03-.094-.07-.135-.101-.009-.007-.027.007-.035 0-.044-.036-.061-.094-.101-.135-.006-.006-.028.007-.036 0-.035-.036-.065-.094-.1-.134-.005-.007-.028.007-.035 0a2.377 2.377 0 0 1-.1-.136c-.005-.005.007-.023 0-.035-.012-.016-.02-.047-.033-.064-.014-.024-.02-.045-.035-.069-.004-.009-.028-.025-.033-.035-.026-.05-.044-.08-.067-.134-.003-.01.005-.023 0-.035-.017-.045-.051-.12-.067-.167-.003-.012.006-.02 0-.035-.015-.055-.052-.106-.065-.167-.012-.054.006-.11 0-.167v-.068c-.006-.062-.036-.102-.036-.168v-6.544c0-.616.303-1.18.744-1.551.34-.289.767-.44 1.248-.44.062 0 .14-.003.2 0 .02.006.016 0 .035 0 .043.009.09.029.135.036.019.005.047-.004.067 0 .05.012.084.02.135.035.009 0 .023-.002.035 0 .056.018.112.045.167.067.015.006.018.027.035.035.038.017.094.047.133.066.017.01.017-.01.033 0 .042.024.094.042.136.068.01.008.024.027.033.035.047.032.09.064.135.1.012.01.024.024.036.036.03.028.067.07.098.1l.033.032c.032.032.073.067.102.101l.032.036c.039.044.07.085.102.134.006.008-.005.023 0 .032.029.042.078.06.103.103.009.015.023.05.035.067.02.038.016.062.035.1a.484.484 0 0 0 .032.069c.003.003-.003.03 0 .033.01.023.026.043.035.068.006.023.024.041.032.067l.035.1c.005.027-.006.076 0 .103.006.04.029.059.033.101.004.024-.003.045 0 .067.006.066 0 .136 0 .202v.339c.043 0 .089-.033.136-.036h.168c.044 0 .089.003.135 0h.067c.065 0 .136.003.203 0 .254-.004.52.009.81 0 .067 0 .13-.03.2-.033h.07c.095-.002.167.004.268 0v-.27c0-.05.003-.084 0-.134v-.031c-.003-.036.003-.066 0-.102-.003-.035.003-.068 0-.1-.003-.036.005-.068 0-.102-.004-.029-.028-.07-.032-.1-.004-.032.005-.071 0-.102-.008-.033-.028-.065-.036-.1-.005-.031.01-.07 0-.1-.005-.036-.023-.071-.033-.102-.009-.031-.025-.07-.033-.102a1.721 1.721 0 0 0-.035-.1c-.009-.03-.023-.036-.035-.067-.008-.028.011-.074 0-.1 0-.004-.032.002-.035 0-.01-.031-.02-.071-.031-.102-.011-.028.011-.039 0-.067 0-.002-.033-.03-.035-.035-.012-.03-.02-.035-.033-.066-.008-.019.006-.052 0-.068-.004-.008-.032.007-.036 0-.035-.074-.062-.164-.1-.235a2.931 2.931 0 0 0-.135-.237c-.008-.014-.025-.024-.035-.036-.003-.004.005-.028 0-.032-.042-.065-.087-.106-.134-.168-.006-.01-.028-.027-.035-.036-.052-.07-.079-.136-.134-.2-.011-.017-.021-.023-.033-.035-.05-.058-.117-.117-.17-.17-.004-.003.006-.03 0-.035-.004-.004-.027.007-.034 0-.06-.059-.104-.11-.167-.167-.014-.012-.054-.021-.068-.033-.057-.047-.11-.122-.168-.168-.012-.01-.024.006-.036 0-.068-.054-.129-.122-.2-.17-.015-.009-.023-.026-.035-.036-.063-.04-.137-.062-.202-.1-.014-.008-.019-.023-.035-.035-.074-.04-.155-.062-.235-.1-.01-.003-.024-.029-.035-.032-.05-.024-.113-.047-.165-.07-.019-.008-.019-.028-.035-.036-.019-.006-.047.008-.068 0-.083-.03-.186-.074-.27-.1-.01-.002-.024.003-.034 0-.074-.021-.126-.05-.202-.067-.02-.006-.047.005-.068 0-.082-.018-.153-.054-.235-.068h-.035c-.019-.004-.047 0-.067 0-.061-.008-.137-.03-.2-.035-.023-.003-.044.002-.07 0-.09-.006-.176 0-.268 0h-.103c-.031 0-.07-.003-.102 0-.035.003-.068 0-.102 0zm20.243 0c-.043 0-.09.027-.134.032-.027 0-.044-.005-.07 0-.03 0-.07-.006-.101 0-.011 0-.024-.003-.035 0-.026.003-.038.026-.066.032-.03.005-.075-.006-.102 0-.012.003-.024-.003-.036 0-.025.007-.035.027-.064.035-.038.006-.066.024-.101.033-.03.006-.07-.008-.103 0-.035.01-.065.024-.1.033-.029.01-.074.023-.102.035a1.934 1.934 0 0 0-.1.033c-.028.012-.04.024-.068.035-.033.012-.067.02-.1.036l-.067.031c-.023.01-.077.024-.1.035-.01.003.005.028 0 .032-.029.012-.076.021-.103.035-.03.016-.07.016-.1.033-.027.014-.042.052-.068.067-.033.017-.073.014-.102.036-.026.011-.042.015-.068.031-.03.02-.038.047-.067.067l-.101.067c-.027.02-.044.018-.07.035-.024.018-.043.047-.066.069-.029.02-.074.043-.101.065-.021.02-.045.05-.067.067-.026.024-.04.045-.066.07l-.068.068c-.026.023-.042.042-.067.068-.021.019-.047.014-.067.033l-.035.035c-.02.019-.016.047-.033.067l-.067.068c-.026.027-.047.04-.07.068-.017.02-.048.047-.066.067-.01.012-.024.024-.036.036-.011.015-.02.049-.033.065-.015.02-.016.047-.032.066-.006.008-.029-.01-.036 0-.014.02-.017.047-.033.067-.014.021-.054.047-.067.067-.006.014.01.023 0 .035-.011.019-.023.047-.035.068-.011.022-.052.047-.064.067l-.036.067c-.005.012.008.024 0 .036-.011.02-.02.047-.033.066h-.035c-.006.012.009.051 0 .065-.009.019-.023.015-.033.035-.004.004 0 .029 0 .032-.011.02-.023.047-.035.068-.015.033-.019.07-.035.102 0 .004-.032-.002-.032 0-.008.02.008.05 0 .067h-.035c-.015.038-.02.065-.033.103-.01.023-.024.044-.033.07-.016.04-.021.094-.036.134-.006.021-.025.047-.032.067-.024.07-.018.13-.036.204v.033c-.011.054-.023.083-.033.137-.006.027-.028.075-.035.1-.006.04.008.063 0 .103-.004.03-.028.07-.033.101-.005.035.005.067 0 .101-.004.035.003.07 0 .102-.004.03-.033.07-.033.1-.006.075 0 .16 0 .235v6.48c0 .082-.006.152 0 .235 0 .023-.004.047 0 .068.004.073.024.164.032.235.003.014-.003.023 0 .035.011.082.019.156.035.235.003.024.029.047.033.07.012.064.02.137.036.2.004.02-.006.017 0 .035a4.112 4.112 0 0 0 .066.235c.006.02.029.05.036.069.02.062.043.108.067.169.008.019.025.047.035.067.028.076.032.164.066.235.006.014.027.023.035.035.03.062.066.106.1.168.005.007-.005.026 0 .035.006.012.027.02.035.033.026.05.038.087.066.135.009.017.024.054.035.068.04.064.094.11.135.17.01.013.024.022.033.034.033.047.067.091.103.135.015.02.018.05.032.068.036.04.069.094.103.135.015.018.019.018.035.035.045.05.086.087.134.134l.035.035c.052.051.079.087.134.136.011.011.052.02.067.031.042.036.059.067.102.102.02.012.05.055.068.067.045.036.087.036.136.07.014.008.02.024.035.033.06.04.136.098.202.135.059.035.139.07.202.1.015.008.018-.006.035 0 .052.024.114.048.167.069.018.006.05.027.068.033.065.026.103.047.168.068.006 0 .029-.002.036 0 .074.024.157.05.235.067l.202.035c.016 0 .047.03.066.032.063.008.137-.005.202 0 .014.002.017 0 .032 0 .083.006.153.033.235.033.212 0 .453-.027.676-.066l2.498-.406c-.006-.055-.028-.083-.035-.136 0-.033.005-.07 0-.103 0-.023.005-.045 0-.067 0-.035.004-.063 0-.1 0-.02-.03-.05-.032-.068-.004-.038.003-.094 0-.135V28.6c-.004-.043.003-.092 0-.136v-.035c-.01-.15-.027-.3-.035-.473v-.073c-.003-.065.004-.129 0-.202v-.067H92.76c-.064 0-.141.007-.2 0h-.035a1.574 1.574 0 0 1-.2-.033c-.062-.011-.114-.016-.172-.032-.009-.004-.023-.032-.035-.036-.055-.017-.111-.043-.167-.067-.051-.02-.12-.04-.169-.067a2.01 2.01 0 0 1-.17-.1c-.044-.034-.093-.068-.134-.102l-.036-.035c-.043-.035-.094-.059-.133-.1-.006-.006.006-.027 0-.035-.036-.035-.067-.059-.102-.1-.005-.007-.027-.027-.032-.035a1.468 1.468 0 0 1-.101-.134c-.006-.01.008-.024 0-.033-.012-.02-.024-.047-.036-.068-.011-.024-.051-.044-.066-.067-.006-.012.006-.024 0-.032-.027-.052-.044-.082-.066-.135-.005-.012-.03-.023-.036-.035-.017-.044-.017-.12-.033-.167-.004-.012.004-.02 0-.035-.017-.056-.055-.11-.067-.167-.003-.01.003-.026 0-.035-.011-.052-.029-.083-.035-.134 0-.017.003-.053 0-.07-.005-.06 0-.104 0-.168v-2.226h5.029c.285 0 .552-.118.742-.306a1.02 1.02 0 0 0 .303-.74v-3.207a2.832 2.832 0 0 0 0-.2v-.035c-.005-.059.006-.11 0-.168v-.035c-.004-.033-.029-.067-.035-.1-.003-.021.005-.047 0-.068 0-.02.005-.05 0-.067-.006-.047-.023-.09-.032-.136 0-.02.006-.011 0-.035-.005-.035-.023-.097-.031-.134-.006-.017-.029-.047-.036-.064-.005-.026.006-.043 0-.068-.005-.02-.026-.047-.031-.067-.005-.018.005-.02 0-.036-.004-.007 0-.026 0-.033-.018-.052-.05-.117-.069-.169-.006-.012.005-.02 0-.035-.017-.045-.049-.088-.067-.134l-.035-.067c-.008-.023-.023-.045-.032-.067-.035-.076-.058-.164-.1-.235-.007-.012-.028-.023-.036-.035-.033-.066-.061-.141-.1-.202-.011-.021-.019-.047-.033-.068-.035-.057-.094-.114-.134-.168-.009-.012-.025-.024-.035-.036-.05-.067-.08-.137-.134-.2-.015-.02-.051-.018-.067-.035-.05-.058-.082-.115-.136-.169l-.035-.035c-.053-.053-.11-.117-.168-.167-.014-.012-.052-.019-.067-.032-.054-.047-.112-.124-.17-.168-.01-.011-.023.009-.035 0-.067-.052-.132-.123-.202-.17-.014-.012-.017-.023-.033-.035-.06-.038-.14-.065-.204-.1-.01-.006-.024-.027-.033-.035-.074-.04-.16-.063-.235-.1-.009-.003.005-.03 0-.033-.011-.005-.023.003-.035 0-.05-.024-.118-.047-.17-.068-.014-.008-.017-.03-.032-.035-.02-.009-.047.007-.069 0-.08-.032-.152-.077-.235-.103-.015-.004-.02.005-.035 0-.07-.02-.164-.05-.235-.067-.023-.005-.047.005-.068 0-.082-.018-.15-.054-.235-.068h-.035c-.078-.011-.155-.028-.235-.035-.024-.002-.045.002-.068 0h-.036c-.078-.005-.153 0-.235 0h-.169c-.038.004-.096-.002-.134 0zm-7.32.2-.136.238-2.26 3.778-1.081 1.788c-.056.099-.126.19-.168.27-.006.01.006.024 0 .036-.015.027-.02.04-.033.065-.008.012-.028.024-.035.036-.006.016-.026.047-.033.065-.006.012.006.024 0 .036a.464.464 0 0 0-.033.067c-.005.011.005.023 0 .035-.006.018-.03.018-.035.035-.003.012.004.024 0 .035-.005.012-.03.05-.033.065-.003.012 0 .024 0 .035-.004.014 0 .017 0 .033v.101c.003.017-.003.047 0 .066.005.024.027.047.035.068.032.102.09.23.167.37.005.006-.004.026 0 .035.023.036.043.06.068.1l3.983 6.916h2.291l-4.114-7.32-.069-.169-.066-.101 3.78-6.412.135-.203.036-.067h-2.397zm7.626 1.892c.061 0 .106-.007.168 0 .019 0 .05-.004.067 0 .044.005.094.023.135.033.019.003.015-.005.035 0 .05.011.115.017.167.035.059.016.114.043.17.066a.727.727 0 0 1 .066.035c.042.016.066.047.103.066.017.01.018-.008.036 0 .04.023.094.074.134.1.009.007.027-.004.035 0 .047.034.09.065.135.102.012.012.02.023.033.035.033.027.07.07.101.1.011.012.024.018.035.032.031.033.07.065.1.1.008.012.026.024.036.036a2 2 0 0 1 .1.134c.008.012-.01.02 0 .033.023.037.044.097.066.135.01.019.024.018.033.035.021.039.05.094.068.135.006.016.029.02.033.035.004.003 0 .029 0 .032.012.024.027.044.036.068.011.03.023.038.035.067.011.036-.011.099 0 .135.006.029.028.04.035.069.006.042.026.09.032.134.004.023-.003.044 0 .068.006.067 0 .132 0 .202v2.193h-4.018v-2.19a2.05 2.05 0 0 1 1.415-1.956c.19-.061.397-.07.607-.07zm-52.84.738c.031 0 .074-.004.103 0h.035c.02.003.045.03.066.035.014.002.019-.004.035 0 .02.005.045.027.066.033.012.003.019-.005.032 0 .032.012.07.02.1.035.01.002.024-.006.036 0l.066.033c.011.007.024.027.035.033.017.012.047.023.065.035.011.006.023.026.035.033.02.015.047.018.066.035.009.005-.006.024 0 .032.028.023.079.043.103.07l.066.065c.008.01-.008.024 0 .035.015.02.053.047.067.066.019.028.054.074.07.103.017.031.02.066.036.1 0 .007.029.024.031.033.008.019-.006.018 0 .035.004.009-.003.024 0 .036.004.011.03.023.036.035.006.023-.008.041 0 .066.003.014.03.054.033.067.005.027-.004.04 0 .068v.035c.004.039 0 .059 0 .101v1.518h-2.43v-1.487c0-.678.57-1.248 1.249-1.248zm21.697 4.185h1.99v3.508c0 .235-.03.466-.101.675a1.996 1.996 0 0 1-1.687 1.352c-.069.005-.132.031-.202.031-.063 0-.141-.028-.203-.033h-.035c-.059-.007-.11.012-.168 0-.003 0-.027-.035-.03-.035-.056-.012-.118-.016-.17-.033-.011-.003-.023.004-.035 0-.055-.017-.115-.044-.168-.067a1.475 1.475 0 0 1-.135-.07c-.011-.005-.024-.026-.035-.033-.047-.028-.12-.035-.167-.068-.01-.006.006-.027 0-.035a1.603 1.603 0 0 1-.135-.1c-.01-.008-.026.008-.036 0-.042-.036-.058-.094-.1-.135-.008-.006-.025.008-.035 0-.033-.036-.068-.097-.1-.136a.466.466 0 0 0-.035-.032c-.035-.047-.068-.09-.1-.137-.006-.011.006-.023 0-.035-.011-.016-.023-.014-.035-.033-.011-.023-.02-.047-.032-.068-.008-.012-.028-.021-.035-.035-.026-.05-.044-.114-.067-.167-.005-.012-.028-.024-.033-.035-.017-.044-.02-.088-.035-.134-.004-.016-.027-.02-.033-.035-.015-.055-.021-.11-.033-.167-.003-.012.003-.024 0-.036-.009-.047-.028-.082-.035-.133 0-.02.004-.05 0-.067-.004-.06 0-.113 0-.17v-1.52c0-.56.211-1.088.575-1.451a2.05 2.05 0 0 1 1.45-.573z" overflow="visible"/></svg>