<?xml version="1.0" encoding="UTF-8" standalone="no"?>
<!-- Created with Inkscape (http://www.inkscape.org/) -->

<svg
   xmlns:dc="http://purl.org/dc/elements/1.1/"
   xmlns:cc="http://creativecommons.org/ns#"
   xmlns:rdf="http://www.w3.org/1999/02/22-rdf-syntax-ns#"
   xmlns:svg="http://www.w3.org/2000/svg"
   xmlns="http://www.w3.org/2000/svg"
   xmlns:sodipodi="http://sodipodi.sourceforge.net/DTD/sodipodi-0.dtd"
   xmlns:inkscape="http://www.inkscape.org/namespaces/inkscape"
   version="1.1"
   width="85.580002"
   height="27"
   id="svg3017"
   inkscape:version="0.48.4 r9939"
   sodipodi:docname="lifehacker.svg">
  <sodipodi:namedview
     pagecolor="#ffffff"
     bordercolor="#666666"
     borderopacity="1"
     objecttolerance="10"
     gridtolerance="10"
     guidetolerance="10"
     inkscape:pageopacity="0"
     inkscape:pageshadow="2"
     inkscape:window-width="640"
     inkscape:window-height="480"
     id="namedview7"
     showgrid="false"
     inkscape:zoom="3.7812041"
     inkscape:cx="8.9918448"
     inkscape:cy="13.5"
     inkscape:window-x="0"
     inkscape:window-y="30"
     inkscape:window-maximized="0"
     inkscape:current-layer="svg3017" />
  <defs
     id="defs3019" />
  <metadata
     id="metadata3022">
    <rdf:RDF>
      <cc:Work
         rdf:about="">
        <dc:format>image/svg+xml</dc:format>
        <dc:type
           rdf:resource="http://purl.org/dc/dcmitype/StillImage" />
        <dc:title />
      </cc:Work>
    </rdf:RDF>
  </metadata>
  <g
     transform="matrix(1.0471469,0,0,1.0471469,0.00357808,-22.958809)"
     id="layer1">
    <path
       d="m 13.937647,24.71875 c -0.06456,0 -0.123504,0.02786 -0.1875,0.03125 -0.0087,8.46e-4 -0.02224,-5.62e-4 -0.03125,0 -0.01212,8.46e-4 -0.01913,-8.5e-4 -0.03125,0 -0.04341,0.0025 -0.113122,-0.0053 -0.15625,0 -0.02396,0.0023 -0.03854,-0.0025 -0.0625,0 -0.04031,0.0054 -0.08525,0.02448 -0.125,0.03125 -0.02368,0.0034 -0.03854,-0.0048 -0.0625,0 -0.04004,0.007 -0.08496,0.02279 -0.125,0.03125 -0.02199,0.0051 -0.04051,0.02589 -0.0625,0.03125 -0.04539,0.01043 -0.0799,0.01884 -0.125,0.03125 -0.01579,0.0039 -0.04644,-0.0048 -0.0625,0 -0.05949,0.01776 -0.128858,0.0422 -0.1875,0.0625 -0.0172,0.0059 -0.01434,-0.0062 -0.03125,0 -0.04172,0.01494 -0.08384,0.04558 -0.125,0.0625 -0.02311,0.0087 -0.03966,0.02138 -0.0625,0.03125 -0.03524,0.01466 -0.09004,0.01546 -0.125,0.03125 -0.02171,0.01015 -0.04107,0.02166 -0.0625,0.03125 -0.05216,0.02509 -0.106068,0.06781 -0.15625,0.09375 -0.01381,0.0073 -0.01744,-0.0079 -0.03125,0 -0.06118,0.03299 -0.128014,0.08835 -0.1875,0.125 -0.0172,0.011 -0.04502,0.01997 -0.0625,0.03125 -0.01325,0.0082 -0.018,0.02251 -0.03125,0.03125 -0.03129,0.0203 -0.06302,0.04164 -0.09375,0.0625 -0.01776,0.0124 -0.04474,0.01856 -0.0625,0.03125 -0.05667,0.04088 -0.100993,0.08215 -0.15625,0.125 -0.01184,0.009 -0.01941,0.02195 -0.03125,0.03125 -0.02284,0.01804 -0.04023,0.04417 -0.0625,0.0625 -0.02171,0.01804 -0.04136,0.01264 -0.0625,0.03125 -0.0068,0.0059 -0.02448,0.02533 -0.03125,0.03125 -0.01127,0.0096 -0.02026,0.02138 -0.03125,0.03125 -0.04285,0.03862 -0.08328,0.0844 -0.125,0.125 -0.01042,0.01015 -0.02054,0.02082 -0.03125,0.03125 -0.0265,0.02678 -0.06781,0.03544 -0.09375,0.0625 -0.02227,0.0234 -0.04023,0.0391 -0.0625,0.0625 -0.01466,0.01692 -0.01631,0.04558 -0.03125,0.0625 -0.03552,0.03947 -0.09117,0.08384 -0.125,0.125 -0.01353,0.01663 -0.018,0.04587 -0.03125,0.0625 -0.02622,0.03214 -0.03741,0.06105 -0.0625,0.09375 -0.01776,0.0234 -0.04559,0.03882 -0.0625,0.0625 -0.0065,0.009 -0.02477,0.02138 -0.03125,0.03125 -0.0076,0.01071 -0.02336,0.02025 -0.03125,0.03125 -0.02453,0.03496 -0.03825,0.0892 -0.0625,0.125 -0.007,0.01071 -0.0242,0.02054 -0.03125,0.03125 -0.0059,0.0082 0.0054,0.02251 0,0.03125 -0.03411,0.053 -0.06161,0.10184 -0.09375,0.15625 -0.0051,0.0082 -0.02645,0.02279 -0.03125,0.03125 -0.0358,0.06202 -0.06105,0.123505 -0.09375,0.1875 -0.0073,0.01466 -0.02364,0.01715 -0.03125,0.03125 -0.02481,0.05018 -0.03938,0.10494 -0.0625,0.15625 -0.0076,0.01748 -0.02392,0.0453 -0.03125,0.0625 -0.0073,0.01748 -0.02392,0.04587 -0.03125,0.0625 -0.02114,0.04934 -0.04389,0.0751 -0.0625,0.125 -0.0014,0.0028 8.5e-4,0.02844 0,0.03125 -0.0051,0.01381 0.0051,0.018 0,0.03125 -0.0093,0.02509 -0.02279,0.03769 -0.03125,0.0625 -0.01015,0.02932 -0.02167,0.06415 -0.03125,0.09375 -0.0023,0.007 0.002,0.0242 0,0.03125 -0.0045,0.01325 -0.02731,0.01772 -0.03125,0.03125 C 9.98295,27.86804 9.984121,27.942206 9.968897,28 c -0.00339,0.01353 -0.027575,0.01744 -0.03125,0.03125 -0.00395,0.0141 0.00366,0.01772 0,0.03125 -0.018325,0.07527 -0.016307,0.142632 -0.03125,0.21875 -8.457e-4,0.0042 -0.030403,-0.0039 -0.03125,0 -0.01325,0.07161 -0.021664,0.145733 -0.03125,0.21875 -0.00339,0.02453 0.00281,0.06838 0,0.09375 -0.00649,0.05441 0.00367,0.101276 0,0.15625 -0.00225,0.02566 -0.030125,0.03713 -0.03125,0.0625 -0.00422,0.07358 0,0.176137 0,0.25 l 0,0.25 0,17.84375 0.125,-0.03125 2.875,-0.15625 0,-10.84375 2.25,0 0,-2.75 0,-0.1875 0,-0.0625 -1.9375,0 -0.1875,0 -0.125,0 0,-4.0625 c 0,-0.628401 0.520561,-1.125 1.125,-1.125 l 1.375,0 0.09375,-2.625 0,-0.03125 0,-0.03125 0.03125,-0.21875 C 15.418467,25.01856 15.378007,25.01579 15.343897,25 c -0.0076,-0.0042 -0.02275,0.0042 -0.03125,0 -0.0087,-0.0042 -0.0228,-0.02701 -0.03125,-0.03125 -0.01187,-0.0048 -0.01856,0.0045 -0.03125,0 -0.01522,-0.0059 -0.04586,-0.02533 -0.0625,-0.03125 -0.02228,-0.0082 -0.03741,-0.02307 -0.0625,-0.03125 -0.02875,-0.0093 -0.06161,-0.0211 -0.09375,-0.03125 -0.0068,-0.0017 -0.0242,0.002 -0.03125,0 -0.01354,-0.0039 -0.04896,0.0037 -0.0625,0 -0.009,-0.0025 0.0093,-0.02929 0,-0.03125 -0.0068,-0.002 -0.02448,0.0014 -0.03125,0 -0.0068,-0.002 -0.0242,0.0017 -0.03125,0 -0.02228,-0.0056 -0.03881,-0.0259 -0.0625,-0.03125 -0.0081,-0.0017 -0.02308,0.002 -0.03125,0 -0.02735,-0.0059 -0.065,0.0056 -0.09375,0 -0.007,-0.0014 -0.02393,-0.02984 -0.03125,-0.03125 -0.02369,-0.0045 -0.03769,0.0042 -0.0625,0 -0.0062,-0.0011 -0.02505,0.0014 -0.03125,0 -0.03101,-0.0045 -0.06189,-0.0273 -0.09375,-0.03125 -0.0076,-0.0011 -0.02336,0.0011 -0.03125,0 -0.0025,0 -0.02925,0 -0.03125,0 -0.02819,-0.0039 -0.03346,0.0031 -0.0625,0 -0.01125,-0.0017 -0.01969,8.5e-4 -0.03125,0 -0.03158,-0.0034 -0.0923,0.0023 -0.125,0 -0.0079,-5.63e-4 -0.02335,2.85e-4 -0.03125,0 -0.02875,-0.002 -0.06442,-0.02985 -0.09375,-0.03125 -0.0096,-2.82e-4 -0.02166,2.82e-4 -0.03125,0 -0.0031,0 -0.02763,2.82e-4 -0.03125,0 -0.02791,8.46e-4 -0.03375,0 -0.0625,0 z m 13.21875,0.3125 0,0.125 0,0.15625 0,18.65625 0.125,0 1.8125,0 0,-9.1875 0,-2.125 1.84375,0 c 0.05244,0 0.104938,-0.0045 0.15625,0 0.01974,0 0.04276,0.02928 0.0625,0.03125 0.03806,0.0048 0.08779,-0.0073 0.125,0 0.02001,0.0034 0.04277,-0.0042 0.0625,0 0.04314,0.0093 0.08243,0.05038 0.125,0.0625 0.011,0.0031 0.02054,-0.0034 0.03125,0 0.05244,0.01607 0.106344,0.0422 0.15625,0.0625 0.01635,0.0062 0.0149,-0.007 0.03125,0 0.03496,0.01551 0.05992,0.04474 0.09375,0.0625 0.01748,0.0082 0.04587,0.02223 0.0625,0.03125 0.03609,0.01974 0.05935,0.04023 0.09375,0.0625 0.0115,0.007 0.0515,-0.0073 0.0625,0 0.04454,0.0296 0.08356,0.06105 0.125,0.09375 0.01125,0.0096 0.02026,0.02167 0.03125,0.03125 0.03072,0.02594 0.06529,0.0664 0.09375,0.09375 0.01325,0.01325 0.01856,0.01828 0.03125,0.03125 0.02819,0.02791 0.03656,0.0633 0.0625,0.09375 0.0096,0.01127 0.02194,0.01969 0.03125,0.03125 0.03411,0.04116 0.06359,0.08102 0.09375,0.125 0.007,0.01042 0.02476,0.02138 0.03125,0.03125 0.02311,0.03524 0.04136,0.05682 0.0625,0.09375 0.0085,0.01579 0.0228,0.04644 0.03125,0.0625 0.01804,0.03411 0.04642,0.05795 0.0625,0.09375 0.007,0.0155 -0.0065,0.04642 0,0.0625 0.0029,0.0059 0.029,-0.0059 0.03125,0 0.0011,0.0031 -0.0014,0.02812 0,0.03125 0.0087,0.02199 -0.0073,0.03995 0,0.0625 0.009,0.02453 0.02336,0.03712 0.03125,0.0625 0.01125,0.03552 0.02168,0.08835 0.03125,0.125 0.0051,0.02199 0.0264,0.03994 0.03125,0.0625 0.0085,0.04397 -0.0053,0.07989 0,0.125 0.0022,0.01608 0.02975,0.04644 0.03125,0.0625 0.0063,0.0623 0,0.123508 0,0.1875 l 0,9.4375 0.125,0 1.75,0 0,-7.9375 0,-1.25 0,-0.25 0,-0.03125 c -2.81e-4,-0.06203 0.0031,-0.125766 0,-0.1875 -0.0011,-0.02369 0.0014,-0.03854 0,-0.0625 -2.81e-4,-0.0029 2.83e-4,-0.029 0,-0.03125 -0.0031,-0.04397 0.0042,-0.08187 0,-0.125 -0.0025,-0.02706 -0.02788,-0.06612 -0.03125,-0.09375 -0.0051,-0.04087 0.0068,-0.0844 0,-0.125 -0.0042,-0.02453 -0.02644,-0.03796 -0.03125,-0.0625 -0.0074,-0.04031 -0.02336,-0.08581 -0.03125,-0.125 -0.004,-0.01776 0.0041,-0.04501 0,-0.0625 -0.0018,-0.0096 0.0016,-0.0211 0,-0.03125 -0.0099,-0.042 -0.0197,-0.08327 -0.03125,-0.125 -0.0059,-0.02255 -0.02499,-0.07148 -0.03125,-0.09375 -0.01691,-0.06033 -0.04305,-0.09676 -0.0625,-0.15625 -0.0034,-0.0099 0.0037,-0.0211 0,-0.03125 -0.01635,-0.04877 -0.04389,-0.108042 -0.0625,-0.15625 -0.004,-0.0099 0.0039,-0.0211 0,-0.03125 -0.0051,-0.01184 0.0051,-0.01941 0,-0.03125 -0.004,-0.009 -0.02712,-0.02138 -0.03125,-0.03125 -0.01776,-0.04313 -0.04361,-0.08271 -0.0625,-0.125 -0.0059,-0.0124 0.0057,-0.01885 0,-0.03125 -0.0031,-0.0062 0.0027,-0.02477 0,-0.03125 -0.02763,-0.05864 -0.06388,-0.129989 -0.09375,-0.1875 -0.0054,-0.009 -0.02671,0.0099 -0.03125,0 -0.004,-0.0062 0.0034,-0.02505 0,-0.03125 -0.0296,-0.05498 -0.06189,-0.102967 -0.09375,-0.15625 -0.0081,-0.01325 -0.02306,-0.04925 -0.03125,-0.0625 -0.0059,-0.0087 0.0059,-0.02195 0,-0.03125 -0.01466,-0.02396 -0.047,-0.03938 -0.0625,-0.0625 -0.0063,-0.009 -0.02476,-0.02223 -0.03125,-0.03125 -0.004,-0.0068 0.0045,-0.02477 0,-0.03125 -0.01013,-0.01494 -0.02081,-0.01659 -0.03125,-0.03125 -0.01212,-0.01776 -0.01857,-0.0453 -0.03125,-0.0625 -0.04511,-0.06287 -0.1072,-0.127733 -0.15625,-0.1875 -0.04849,-0.0592 -0.10466,-0.100429 -0.15625,-0.15625 -0.0076,-0.0085 0.0082,-0.02279 0,-0.03125 -0.0059,-0.0065 -0.02476,0.0068 -0.03125,0 l 0,-0.03125 c -0.04398,-0.04623 -0.07877,-0.08158 -0.125,-0.125 -0.011,-0.0099 -0.02054,-0.02138 -0.03125,-0.03125 -0.0056,-0.0051 -0.02566,0.0051 -0.03125,0 -0.05215,-0.04849 -0.10155,-0.111706 -0.15625,-0.15625 -0.0093,-0.0076 -0.02139,0.0073 -0.03125,0 -0.0036,-0.0034 0.0042,-0.02844 0,-0.03125 -0.04877,-0.03919 -0.105781,-0.0571 -0.15625,-0.09375 -0.0155,-0.011 -0.01574,-0.02054 -0.03125,-0.03125 -0.064,-0.04342 -0.152781,-0.08581 -0.21875,-0.125 -0.0065,-0.0042 0.0059,-0.0273 0,-0.03125 -0.06061,-0.03552 -0.125199,-0.06133 -0.1875,-0.09375 -0.0172,-0.009 -0.04474,-0.02251 -0.0625,-0.03125 -0.06456,-0.03186 -0.121531,-0.06584 -0.1875,-0.09375 -0.0045,0 -0.02669,0.002 -0.03125,0 -0.07218,-0.02932 -0.144605,-0.06894 -0.21875,-0.09375 -0.0093,-0.0028 -0.02222,0.0023 -0.03125,0 -0.06286,-0.02002 -0.123221,-0.04643 -0.1875,-0.0625 -0.0074,-0.0028 -0.02392,0.002 -0.03125,0 -0.007,-0.0028 -0.02449,0.0017 -0.03125,0 -0.07696,-0.01804 -0.139812,-0.05009 -0.21875,-0.0625 -0.0115,-0.0028 -0.01996,0.0017 -0.03125,0 -0.0685,-0.01071 -0.149115,-0.02505 -0.21875,-0.03125 -0.0186,0 -0.04446,0.0017 -0.0625,0 -0.05582,-0.0045 -0.130835,0.0014 -0.1875,0 l -0.0625,0 c -0.05779,2.82e-4 -0.124915,-0.0028 -0.1875,0 l -0.03125,0 -0.03125,0 c -0.04426,0 -0.07877,-0.0025 -0.125,0 -0.01466,0 -0.0163,-0.0028 -0.03125,0 -0.0034,0 -0.02713,2.82e-4 -0.03125,0 -0.04031,0.0028 -0.0844,0.02871 -0.125,0.03125 -0.03214,0.0028 -0.06134,-0.002 -0.09375,0 l -0.03125,0 c -0.02463,0.0023 -0.03755,-0.0023 -0.0625,0 -0.04624,0.0037 -0.07849,-0.0051 -0.125,0 -0.0079,0 -0.02335,0 -0.03125,0 -0.05019,0.0059 -0.10635,0.02533 -0.15625,0.03125 -0.02706,0.0034 -0.06696,-0.0031 -0.09375,0 -0.02848,0.0037 -0.06584,0.02674 -0.09375,0.03125 -0.04792,0.0065 -0.0782,-0.0079 -0.125,0 -0.02058,0.0028 -0.04277,0.02759 -0.0625,0.03125 -0.01466,0.0031 -0.04812,-0.0023 -0.0625,0 -0.04004,0.0076 -0.05541,0.02307 -0.09375,0.03125 -0.0045,0 -0.02704,-2.75e-4 -0.03125,0 -0.06287,0.01353 -0.129709,0.01603 -0.1875,0.03125 -0.03975,0.01071 -0.08835,0.01969 -0.125,0.03125 l 0,-0.21875 0,-5.25 0,-0.21875 0,-0.0625 -1.9375,0 z m 29.78125,0.0625 0,0.125 0,0.125 0,8.25 0,10.375 0.125,0 1.8125,0 0,-18.625 0,-0.1875 0,-0.0625 -1.9375,0 z M 1.472583e-4,25.1875 l 0,0.34375 0,18.4375 0.1250000017,0 2.87500004,0 0,-18.59375 -2.87500004,-0.1875 -0.1250000017,0 z M 6.2501473,26.25 c -0.01917,0.0017 -0.043893,0.029 -0.0625,0.03125 -0.036931,0.0045 -0.088914,-0.007 -0.125,0 -0.02199,0.0048 -0.04051,0.02533 -0.0625,0.03125 -0.029884,0.0065 -0.064712,-0.0085 -0.09375,0 -0.00225,8.46e-4 0.00197,0.0304 0,0.03125 -0.023117,0.0068 -0.039665,-0.0082 -0.0625,0 -0.028193,0.01043 -0.066122,0.02026 -0.09375,0.03125 -0.022836,0.0096 -0.040229,0.02082 -0.0625,0.03125 -0.013533,0.0062 -0.017435,0.02477 -0.03125,0.03125 -0.01325,0.0062 -0.049531,0.02448 -0.0625,0.03125 -0.02199,0.01184 -0.041356,0.018 -0.0625,0.03125 -0.023681,0.01353 -0.039946,0.01687 -0.0625,0.03125 -0.020862,0.0141 -0.042201,0.0484 -0.0625,0.0625 -0.022835,0.01635 -0.04051,0.01349 -0.0625,0.03125 -0.019171,0.01551 -0.043611,0.04558 -0.0625,0.0625 -0.00593,0.0048 -0.025334,-0.0048 -0.03125,0 -0.015788,0.0141 -0.016026,0.04812 -0.03125,0.0625 -0.016351,0.01579 -0.046995,0.01433 -0.0625,0.03125 -0.020299,0.02086 -0.043611,0.04023 -0.0625,0.0625 -0.0124,0.0141 -0.019126,0.04868 -0.03125,0.0625 -0.00903,0.01128 -0.022511,0.01969 -0.03125,0.03125 -0.00903,0.01156 -0.023075,0.01941 -0.03125,0.03125 -0.00761,0.01043 0.00761,0.0515 0,0.0625 -0.00593,0.0096 -0.025048,-0.01015 -0.03125,0 -0.013533,0.0203 -0.018846,0.04079 -0.03125,0.0625 -0.00225,0.0039 -0.029275,0.02702 -0.03125,0.03125 -0.012125,0.02114 -0.019691,0.04023 -0.03125,0.0625 -0.00507,0.0093 0.00507,0.0211 0,0.03125 -0.0079,0.01692 -0.023075,0.01433 -0.03125,0.03125 -2.819e-4,5.64e-4 0,0.0304 0,0.03125 -0.01015,0.02171 -0.022229,0.04023 -0.03125,0.0625 -0.011275,0.02735 -0.021664,0.03459 -0.03125,0.0625 -0.00761,0.02284 -0.024766,0.07063 -0.03125,0.09375 -0.00451,0.01522 0.00422,0.01518 0,0.03125 -0.0031,0.01381 0.00366,0.018 0,0.03125 l 0,0.03125 c -0.0031,0.01381 -0.028425,0.01772 -0.03125,0.03125 -0.00225,0.0096 0.00197,0.02166 0,0.03125 -0.00169,0.0076 0.00113,0.02392 0,0.03125 -0.00395,0.02312 0.00339,0.03882 0,0.0625 -0.0031,0.0234 -0.029275,0.0391 -0.03125,0.0625 -0.00113,0.0073 2.819e-4,0.02392 0,0.03125 -0.00339,0.04342 0,0.07989 0,0.125 0,0.053 -0.00479,0.104659 0,0.15625 8.457e-4,0.0124 0.029562,0.01856 0.03125,0.03125 0.00507,0.04623 -0.00845,0.111143 0,0.15625 0.01015,0.04905 0.048122,0.108324 0.0625,0.15625 0.00366,0.01184 -0.00395,0.01997 0,0.03125 0.012969,0.03975 0.015462,0.08638 0.03125,0.125 0.00395,0.0087 0.0273,0.02138 0.03125,0.03125 0.019452,0.04454 0.039383,0.08215 0.0625,0.125 0.00593,0.01071 -0.00592,0.0211 0,0.03125 0.0093,0.01692 0.021101,0.01518 0.03125,0.03125 0.011,0.01776 0.019691,0.0453 0.03125,0.0625 0.00593,0.0085 0.02561,0.02279 0.03125,0.03125 0.027064,0.03975 0.063021,0.08751 0.09375,0.125 0.026783,0.03186 0.064431,0.06387 0.09375,0.09375 0.00593,0.0059 0.024769,0.02505 0.03125,0.03125 0.034112,0.03411 0.056819,0.06274 0.09375,0.09375 0.00817,0.007 0.022511,0.02477 0.03125,0.03125 0.033549,0.02735 0.057946,0.03797 0.09375,0.0625 0.00564,0.0042 0.025898,0.02731 0.03125,0.03125 0.040315,0.02706 0.082148,0.03854 0.125,0.0625 0.00959,0.0056 0.021946,0.02617 0.03125,0.03125 0.040879,0.02171 0.08243,0.04389 0.125,0.0625 0.046235,0.01945 0.077073,0.01574 0.125,0.03125 0.00986,0.0034 0.021382,0.02844 0.03125,0.03125 0.04849,0.01494 0.1066324,0.0211 0.15625,0.03125 0.051028,0.01071 0.1040949,0.02533 0.15625,0.03125 0.01015,0.0011 0.0211,-5.62e-4 0.03125,0 0.052437,0.0051 0.102403,0 0.15625,0 0.058357,0 0.1311162,0.0056 0.1875,0 0.047645,-0.0056 0.1100151,-0.02138 0.15625,-0.03125 0.015505,-0.0025 0.016026,0.0031 0.03125,0 0.038624,-0.0093 0.087223,-0.01969 0.125,-0.03125 0.018042,-0.0059 0.04474,-0.02504 0.0625,-0.03125 0.03383,-0.01156 0.061047,-0.01744 0.09375,-0.03125 0.019171,-0.0076 0.043893,-0.02251 0.0625,-0.03125 0.030729,-0.0141 0.064149,-0.01574 0.09375,-0.03125 0.019452,-0.0099 0.043894,-0.02054 0.0625,-0.03125 0.028193,-0.01663 0.035435,-0.04474 0.0625,-0.0625 0.018606,-0.01269 0.044175,-0.01828 0.0625,-0.03125 0.025655,-0.01833 0.037691,-0.04305 0.0625,-0.0625 0.018042,-0.01438 0.04474,-0.04728 0.0625,-0.0625 0.023117,-0.02002 0.040793,-0.04136 0.0625,-0.0625 0.017197,-0.01607 0.046149,-0.01405 0.0625,-0.03125 0.020862,-0.02171 0.043048,-0.03966 0.0625,-0.0625 0.015788,-0.01804 0.016309,-0.04333 0.03125,-0.0625 0.018325,-0.02312 0.045303,-0.03825 0.0625,-0.0625 0.014378,-0.02002 0.018282,-0.04164 0.03125,-0.0625 0.01607,-0.02425 0.048122,-0.06866 0.0625,-0.09375 0.0124,-0.02199 0.019972,-0.04079 0.03125,-0.0625 0.013533,-0.02594 0.019691,-0.036 0.03125,-0.0625 0.010713,-0.02312 0.021382,-0.07063 0.03125,-0.09375 0.010713,-0.02707 0.021947,-0.03459 0.03125,-0.0625 0.00846,-0.02453 0.02392,-0.06866 0.03125,-0.09375 0.0079,-0.02791 -0.00677,-0.03403 0,-0.0625 0.00592,-0.02594 0.026171,-0.0681 0.03125,-0.09375 0.00536,-0.02904 -0.00395,-0.06387 0,-0.09375 0.00395,-0.0265 0.029275,-0.03572 0.03125,-0.0625 0.00113,-0.01015 -8.474e-4,-0.02054 0,-0.03125 0.00254,-0.03975 0,-0.08469 0,-0.125 -0.00141,-0.05497 0.00507,-0.101839 0,-0.15625 -0.00141,-0.01579 -0.029563,-0.04671 -0.03125,-0.0625 -0.00507,-0.03834 0.0079,-0.0875 0,-0.125 -0.00422,-0.01973 -0.026735,-0.04276 -0.03125,-0.0625 -0.00366,-0.01551 0.00395,-0.01603 0,-0.03125 -0.00422,-0.0172 0.00564,-0.04558 0,-0.0625 -0.00649,-0.02171 -0.02392,-0.04051 -0.03125,-0.0625 -0.00761,-0.02199 -0.022511,-0.04136 -0.03125,-0.0625 -0.00282,-0.0073 0.00281,-0.02392 0,-0.03125 -0.00593,-0.0141 -0.024769,-0.01715 -0.03125,-0.03125 -0.014096,-0.03186 -0.015181,-0.06274 -0.03125,-0.09375 -0.00732,-0.0141 -0.023356,-0.04897 -0.03125,-0.0625 -0.012125,-0.02143 -0.018845,-0.04164 -0.03125,-0.0625 -0.0093,-0.01466 -0.021946,-0.018 -0.03125,-0.03125 -0.00422,-0.0065 -0.026739,-0.02476 -0.03125,-0.03125 -0.027629,-0.04116 -0.031489,-0.05569 -0.0625,-0.09375 -0.00846,-0.01071 -0.022511,-0.02054 -0.03125,-0.03125 -0.023681,-0.02819 -0.068095,-0.06725 -0.09375,-0.09375 -0.00479,-0.0045 0.00451,-0.02674 0,-0.03125 -0.00676,-0.007 -0.024201,0.0065 -0.03125,0 -0.00564,-0.0051 0.00563,-0.02561 0,-0.03125 -0.022554,-0.02086 -0.038819,-0.04192 -0.0625,-0.0625 -0.00874,-0.007 -0.022229,0.0073 -0.03125,0 -0.019171,-0.01607 -0.042765,-0.04756 -0.0625,-0.0625 -0.020016,-0.01522 -0.042203,-0.01744 -0.0625,-0.03125 -0.0093,-0.0065 -0.021946,-0.02533 -0.03125,-0.03125 -0.023964,-0.01607 -0.03769,-0.01687 -0.0625,-0.03125 -0.00903,-0.0059 -0.022511,-0.0259 -0.03125,-0.03125 -0.014096,-0.0079 -0.048404,-0.02392 -0.0625,-0.03125 -0.031294,-0.01607 -0.061329,-0.01659 -0.09375,-0.03125 -0.012125,-0.0054 -0.018282,-0.02589 -0.03125,-0.03125 -0.034112,-0.01438 -0.058509,-0.01884 -0.09375,-0.03125 -0.0124,-0.0042 -0.049814,0.0042 -0.0625,0 -0.00761,-0.0025 0.00733,-0.02955 0,-0.03125 -0.041442,-0.0124 -0.08243,-0.02223 -0.125,-0.03125 -0.015224,-0.0037 -0.046994,0.0031 -0.0625,0 -0.020016,-0.0039 -0.042484,0.0034 -0.0625,0 -0.017479,-0.0025 -0.01377,0.002 -0.03125,0 -0.015505,-0.002 -0.046994,-0.02984 -0.0625,-0.03125 -0.050745,-0.0045 -0.1046584,0 -0.15625,0 -0.05723,0 -0.1007114,-0.0051 -0.15625,0 z m 14.5312497,3.9375 c -0.03919,0 -0.08581,0.03098 -0.125,0.03125 -0.0065,2.82e-4 -0.02505,0 -0.03125,0 l -0.03125,0 -0.03125,0 c -0.03834,0.0028 -0.08723,-0.0025 -0.125,0 -0.02284,0 -0.03995,-0.0017 -0.0625,0 -0.0081,0 -0.02306,-0.0028 -0.03125,0 -0.0406,0.0045 -0.08496,0.02561 -0.125,0.03125 -0.02904,0.0037 -0.06555,-0.0048 -0.09375,0 -0.04116,0.0062 -0.0844,0.02336 -0.125,0.03125 -0.01691,0.0031 -0.01405,-0.0031 -0.03125,0 -0.01012,0.0028 -0.02052,-0.002 -0.03125,0 -0.02875,0.0059 -0.06556,0.02448 -0.09375,0.03125 -0.0087,0.0028 -0.02195,-0.002 -0.03125,0 -0.009,0.0028 -0.02222,-0.002 -0.03125,0 -0.01691,0.0037 -0.0453,0.02701 -0.0625,0.03125 -0.03919,0.01071 -0.05456,0.01997 -0.09375,0.03125 -0.0025,0 -0.02875,-0.0028 -0.03125,0 -0.02396,0.0068 -0.0391,-0.0073 -0.0625,0 -0.004,0 0.0042,0.03013 0,0.03125 -0.02989,0.0096 -0.06386,0.02138 -0.09375,0.03125 -0.007,0.0028 -0.02449,-0.0025 -0.03125,0 -0.02114,0.007 -0.04136,-0.0073 -0.0625,0 -0.002,0 0.002,0.03125 0,0.03125 -0.01918,0.0073 -0.04305,-0.0076 -0.0625,0 -0.01187,0.0048 -0.0194,0.02646 -0.03125,0.03125 -0.0099,0.0039 -0.02139,-0.0042 -0.03125,0 -0.02171,0.0087 -0.0408,0.02195 -0.0625,0.03125 -0.01037,0.0045 -0.0211,-0.0048 -0.03125,0 -0.02368,0.01071 -0.03854,0.01969 -0.0625,0.03125 -0.0076,0.0031 -0.02364,0.0273 -0.03125,0.03125 -0.0186,0.0087 -0.04417,0.02251 -0.0625,0.03125 -0.03214,0.01551 -0.06246,0.01433 -0.09375,0.03125 -0.01012,0.0054 -0.02082,0.0256 -0.03125,0.03125 -0.01748,0.009 -0.04501,0.02223 -0.0625,0.03125 -0.02255,0.0124 -0.04022,0.01884 -0.0625,0.03125 -0.01945,0.011 -0.04361,0.01997 -0.0625,0.03125 -0.01579,0.0093 -0.01574,0.02166 -0.03125,0.03125 -0.01833,0.01156 -0.04474,0.01941 -0.0625,0.03125 -0.01833,0.01184 -0.04417,0.01969 -0.0625,0.03125 -0.01296,0.0093 -0.01856,0.02223 -0.03125,0.03125 -2.81e-4,2.82e-4 -0.03069,0 -0.03125,0 -0.02199,0.01494 -0.04136,0.04699 -0.0625,0.0625 -0.02143,0.01522 -0.04164,0.01574 -0.0625,0.03125 -0.01075,0.0079 -0.02082,0.02364 -0.03125,0.03125 -0.0068,0.0054 -0.02421,0.02533 -0.03125,0.03125 -0.03073,0.0234 -0.06387,0.03797 -0.09375,0.0625 -0.009,0.0073 -0.02251,0.02392 -0.03125,0.03125 -0.0085,0.007 -0.02307,0.02448 -0.03125,0.03125 -0.0327,0.02847 -0.06104,0.03346 -0.09375,0.0625 -0.0063,0.0062 0.0065,0.02505 0,0.03125 -0.0023,0.0028 -0.029,-0.002 -0.03125,0 -0.04172,0.03862 -0.08496,0.08469 -0.125,0.125 -0.02001,0.02002 -0.04249,0.04164 -0.0625,0.0625 -0.01125,0.01212 -0.02054,0.01941 -0.03125,0.03125 -0.01125,0.01184 -0.02025,0.05038 -0.03125,0.0625 -0.03777,0.04172 -0.08863,0.08187 -0.125,0.125 -0.01037,0.0124 -0.0211,0.01856 -0.03125,0.03125 -0.0054,0.0068 -0.02586,0.0242 -0.03125,0.03125 -0.02989,0.03693 -0.0343,0.08751 -0.0625,0.125 -0.02199,0.02932 -0.04107,0.03233 -0.0625,0.0625 -0.0437,0.06202 -0.08468,0.154472 -0.125,0.21875 -0.0042,0.007 -0.02696,-0.0068 -0.03125,0 -0.0063,0.01071 -0.02478,0.02026 -0.03125,0.03125 -0.01354,0.02171 -0.01856,0.04023 -0.03125,0.0625 -0.02791,0.04764 -0.03656,0.107478 -0.0625,0.15625 -0.0059,0.01156 -0.02504,0.01941 -0.03125,0.03125 -0.01438,0.02819 -0.01772,0.06528 -0.03125,0.09375 -0.0076,0.01663 -0.02335,0.01518 -0.03125,0.03125 -0.01974,0.04172 -0.04417,0.08243 -0.0625,0.125 -0.01296,0.0296 -0.01912,0.06358 -0.03125,0.09375 -0.02509,0.06202 -0.04022,0.123222 -0.0625,0.1875 -0.0096,0.0265 -0.02224,0.06668 -0.03125,0.09375 -0.0025,0.009 0.0025,0.02167 0,0.03125 -0.02594,0.08147 -0.07316,0.166551 -0.09375,0.25 -0.0795,0.319134 -0.125,0.656903 -0.125,1 l 0,0.25 0,4 0,1.4375 c 0,0.0029 0,0.02788 0,0.03125 5.64e-4,0.07923 0.02675,0.140375 0.03125,0.21875 0.0018,0.02453 -0.002,0.03797 0,0.0625 0.0048,0.06654 -0.0076,0.153063 0,0.21875 0.0023,0.01691 0.029,0.01406 0.03125,0.03125 0.01037,0.07979 0.01659,0.170216 0.03125,0.25 0.0042,0.02255 -0.0045,0.04022 0,0.0625 0.01269,0.06202 0.04784,0.126046 0.0625,0.1875 0.0056,0.02171 -0.0057,0.04051 0,0.0625 0.0203,0.07696 0.03796,0.174162 0.0625,0.25 0.0059,0.01833 0.02536,0.01377 0.03125,0.03125 0.0203,0.06146 0.03939,0.12689 0.0625,0.1875 0.0087,0.02255 0.02251,0.03995 0.03125,0.0625 0.02933,0.07359 0.06076,0.147706 0.09375,0.21875 0.004,0.0087 -0.0042,0.02251 0,0.03125 0.03073,0.06456 0.05992,0.124067 0.09375,0.1875 0.0042,0.0081 0.02737,0.02449 0.03125,0.03125 0.009,0.01776 0.02166,0.04501 0.03125,0.0625 0.02311,0.04144 0.03714,0.08356 0.0625,0.125 0.01354,0.02311 0.01744,0.04051 0.03125,0.0625 0.0389,0.06146 0.08271,0.128579 0.125,0.1875 0.03806,0.053 0.08498,0.104944 0.125,0.15625 0.01523,0.01918 0.04699,0.04305 0.0625,0.0625 0.03242,0.03919 0.05992,0.08609 0.09375,0.125 0.01691,0.0186 0.04501,0.04417 0.0625,0.0625 0.0375,0.04116 0.05429,0.08554 0.09375,0.125 0.01296,0.01296 0.018,0.018 0.03125,0.03125 0.05244,0.05102 0.133376,0.10833 0.1875,0.15625 0.01523,0.01296 0.01575,0.01829 0.03125,0.03125 0.04116,0.03496 0.08214,0.06021 0.125,0.09375 0.02058,0.01579 0.04136,0.04642 0.0625,0.0625 0.0406,0.03016 0.083,0.06556 0.125,0.09375 0.0203,0.01438 0.0422,0.018 0.0625,0.03125 0.05976,0.0389 0.125479,0.0585 0.1875,0.09375 0.0074,0.0045 0.02364,0.027 0.03125,0.03125 0.05836,0.03214 0.09591,0.06556 0.15625,0.09375 0.02284,0.01075 0.03937,0.02054 0.0625,0.03125 0.04567,0.02086 0.110021,0.04389 0.15625,0.0625 0.02565,0.0099 0.03684,0.02194 0.0625,0.03125 0.05046,0.0186 0.10438,0.01461 0.15625,0.03125 0.02086,0.0059 0.04107,0.02505 0.0625,0.03125 0.07047,0.02115 0.145733,0.04586 0.21875,0.0625 0.02228,0.0051 0.03939,-0.0054 0.0625,0 0.053,0.01075 0.101842,0.02307 0.15625,0.03125 0.02933,0.0051 0.06471,0.02737 0.09375,0.03125 0.05131,0.007 0.1041,-0.0051 0.15625,0 0.02819,0.0029 0.065,-0.0023 0.09375,0 0.07105,0.0045 0.146015,0.03088 0.21875,0.03125 l 0.03125,0 c 0.104875,0 0.204241,-0.0214 0.3125,-0.03125 0.106288,-0.0081 0.202833,-0.01292 0.3125,-0.03125 l 2.5,-0.375 0.21875,-0.03125 -0.0625,-1.5 -0.03125,-0.78125 0,-0.09375 0,-0.09375 0,-0.0625 -2.875,0 c -0.0056,0 -0.02593,-0.03097 -0.03125,-0.03125 -0.0389,-2.83e-4 -0.08723,0.0039 -0.125,0 -0.01635,-0.0029 -0.01519,0.0023 -0.03125,0 -0.02735,-0.0036 -0.06697,0.0063 -0.09375,0 -0.01523,-0.0031 -0.0163,-0.0265 -0.03125,-0.03125 -0.02706,-0.0074 -0.06752,-0.02279 -0.09375,-0.03125 -0.01381,-0.0056 -0.018,0.0067 -0.03125,0 -0.0375,-0.01523 -0.08976,-0.04305 -0.125,-0.0625 -0.0327,-0.01833 -0.06274,-0.04107 -0.09375,-0.0625 -0.011,-0.0068 -0.02025,-0.02251 -0.03125,-0.03125 -0.02284,-0.01691 -0.0408,-0.01265 -0.0625,-0.03125 -0.011,-0.01012 -0.02054,-0.02167 -0.03125,-0.03125 -0.02143,-0.02059 -0.04249,-0.04024 -0.0625,-0.0625 -0.0079,-0.0085 -0.02364,-0.02195 -0.03125,-0.03125 -0.02621,-0.03073 -0.03966,-0.05964 -0.0625,-0.09375 -8.45e-4,0 -0.03013,-0.031 -0.03125,-0.03125 -0.01804,-0.02706 -0.01575,-0.03459 -0.03125,-0.0625 -0.0056,-0.0093 -0.02646,-0.02166 -0.03125,-0.03125 -0.011,-0.0203 -0.02166,-0.0405 -0.03125,-0.0625 -0.0045,-0.009 0.0042,-0.02081 0,-0.03125 -0.011,-0.02791 -0.02195,-0.06444 -0.03125,-0.09375 -0.0096,-0.0313 -0.0242,-0.06189 -0.03125,-0.09375 -0.002,-0.01125 0.002,-0.02026 0,-0.03125 -0.0042,-0.02311 0.0029,-0.03854 0,-0.0625 -0.0011,-0.01187 -0.03013,-0.05065 -0.03125,-0.0625 -0.0029,-0.03101 2.5e-4,-0.06134 0,-0.09375 l 0,-1.3125 3.75,0 c 0.822081,0 1.5,-0.654237 1.5,-1.5 l 0,-2.625 0,-0.25 c 0,-0.01212 5.29e-4,-0.04644 0,-0.0625 -2.83e-4,-0.053 0.0025,-0.103806 0,-0.15625 -2.83e-4,-0.0045 5.64e-4,-0.02675 0,-0.03125 -0.0014,-0.02453 0.0016,-0.03741 0,-0.0625 -0.0031,-0.04285 -0.02638,-0.08328 -0.03125,-0.125 -0.0031,-0.03158 0.0042,-0.06301 0,-0.09375 -0.0054,-0.04087 -0.02499,-0.08498 -0.03125,-0.125 -0.0045,-0.02819 0.0048,-0.06612 0,-0.09375 -8.45e-4,-0.0059 0.0014,-0.0253 0,-0.03125 -0.0059,-0.0327 -0.02453,-0.06077 -0.03125,-0.09375 -0.0056,-0.02594 0.006,-0.03741 0,-0.0625 -0.0014,-0.0054 0.0015,-0.02561 0,-0.03125 -0.0045,-0.01861 -0.02644,-0.04417 -0.03125,-0.0625 -0.0048,-0.01917 0.0051,-0.04333 0,-0.0625 -0.0042,-0.01579 -0.02675,-0.01574 -0.03125,-0.03125 -0.0045,-0.01551 0.0045,-0.04728 0,-0.0625 -0.01075,-0.03721 -0.0197,-0.05682 -0.03125,-0.09375 -0.0099,-0.03073 -0.02081,-0.06415 -0.03125,-0.09375 -0.01269,-0.03637 -0.0484,-0.05795 -0.0625,-0.09375 -0.01125,-0.0296 -0.01885,-0.06415 -0.03125,-0.09375 -0.01438,-0.0358 -0.01519,-0.09004 -0.03125,-0.125 -0.0085,-0.02002 -0.02166,-0.0422 -0.03125,-0.0625 -0.0054,-0.01212 0.0053,-0.01913 0,-0.03125 -0.007,-0.01579 -0.02364,-0.01603 -0.03125,-0.03125 -0.02199,-0.04539 -0.03911,-0.111706 -0.0625,-0.15625 -0.0048,-0.0087 -0.02671,0.0087 -0.03125,0 -0.02876,-0.05244 -0.06359,-0.104659 -0.09375,-0.15625 -0.0029,-0.0039 0.002,-0.0273 0,-0.03125 -0.0054,-0.0079 0.0051,-0.02364 0,-0.03125 -0.02453,-0.04031 -0.06781,-0.05456 -0.09375,-0.09375 -0.009,-0.01325 -0.02194,-0.04897 -0.03125,-0.0625 -0.01381,-0.02058 -0.0166,-0.04248 -0.03125,-0.0625 -0.05441,-0.07696 -0.09676,-0.146015 -0.15625,-0.21875 -0.01012,-0.01212 -0.0211,-0.01856 -0.03125,-0.03125 -0.02931,-0.03552 -0.06301,-0.05907 -0.09375,-0.09375 -0.0065,-0.0073 -0.02447,-0.02448 -0.03125,-0.03125 -0.01325,-0.01494 -0.04869,-0.0484 -0.0625,-0.0625 -0.02679,-0.02904 -0.03487,-0.06584 -0.0625,-0.09375 -0.0045,-0.0048 -0.02669,0.0051 -0.03125,0 -0.0358,-0.03609 -0.05654,-0.09032 -0.09375,-0.125 -0.01237,-0.01127 -0.05037,-0.01997 -0.0625,-0.03125 -0.02679,-0.02396 -0.03516,-0.0391 -0.0625,-0.0625 -0.0096,-0.0082 -0.02166,-0.02279 -0.03125,-0.03125 -0.0085,-0.0068 -0.02307,0.007 -0.03125,0 -0.03158,-0.0265 -0.0619,-0.06866 -0.09375,-0.09375 -0.01466,-0.01127 -0.0166,-0.02026 -0.03125,-0.03125 -0.01037,-0.0079 -0.02054,-0.02336 -0.03125,-0.03125 -0.03777,-0.02819 -0.0861,-0.03572 -0.125,-0.0625 -0.01296,-0.009 -0.01771,-0.02166 -0.03125,-0.03125 -0.0468,-0.03073 -0.108036,-0.06443 -0.15625,-0.09375 -0.03665,-0.02227 -0.0875,-0.04136 -0.125,-0.0625 -0.01466,-0.0085 -0.0166,-0.02336 -0.03125,-0.03125 -0.01075,-0.0054 -0.02081,-0.02533 -0.03125,-0.03125 -0.02199,-0.01156 -0.07147,-0.01997 -0.09375,-0.03125 -0.01945,-0.01043 -0.01124,-0.02166 -0.03125,-0.03125 -0.007,-0.0034 -0.02449,0.0037 -0.03125,0 -0.0065,-0.0034 -0.02476,-0.02815 -0.03125,-0.03125 -0.04482,-0.02143 -0.07989,-0.0422 -0.125,-0.0625 -0.0096,-0.0042 -0.02139,0.0042 -0.03125,0 l -0.03125,0 c -0.04961,-0.02058 -0.07481,-0.04361 -0.125,-0.0625 -0.01606,-0.0059 -0.04644,-0.02561 -0.0625,-0.03125 -0.04567,-0.0172 -0.07877,-0.01659 -0.125,-0.03125 -0.01187,-0.0045 -0.01941,-0.0273 -0.03125,-0.03125 -0.05131,-0.01635 -0.104099,-0.01715 -0.15625,-0.03125 -0.0068,0 -0.0242,0.0017 -0.03125,0 -0.01213,-0.0034 -0.01912,-0.02815 -0.03125,-0.03125 -0.0093,-0.0028 -0.02195,0.0023 -0.03125,0 -0.03862,-0.0093 -0.08609,-0.02251 -0.125,-0.03125 -0.0085,-0.0028 -0.0228,0.0023 -0.03125,0 -0.0085,0 -0.02279,0.0017 -0.03125,0 -0.04341,-0.0087 -0.08074,-0.0242 -0.125,-0.03125 -0.05525,-0.0087 -0.100435,0.0065 -0.15625,0 -0.0437,-0.0054 -0.08074,-0.0273 -0.125,-0.03125 -0.04285,-0.0039 -0.08158,0.0023 -0.125,0 -0.01012,0 -0.02166,0 -0.03125,0 -0.0065,0 -0.02476,2.82e-4 -0.03125,0 -0.02481,0 -0.06922,0.0028 -0.09375,0 -0.03947,0 -0.05429,-0.03125 -0.09375,-0.03125 z m -15.8749997,0.1875 0,0.125 0,0.15625 0,9.4375 0,3.875 0.125,0 2.875,0 0,-13.09375 0,-0.0625 0,-0.1875 0,-0.0625 -3,-0.1875 z m 74.5624997,0.15625 c -0.04709,0.0031 -0.07736,0.02617 -0.125,0.03125 -0.02509,0.0028 -0.06923,-0.0025 -0.09375,0 -0.04116,0.0051 -0.05259,0.02533 -0.09375,0.03125 -0.02481,0.0037 -0.0681,-0.0042 -0.09375,0 -0.04116,0.0068 -0.08468,0.02364 -0.125,0.03125 -0.01608,0.0039 -0.01462,-0.0031 -0.03125,0 -0.0067,0 -0.02476,-0.0014 -0.03125,0 -0.04651,0.0096 -0.07961,0.01913 -0.125,0.03125 -0.01664,0.0045 -0.04615,0.0273 -0.0625,0.03125 -0.06061,0.01663 -0.128019,0.01208 -0.1875,0.03125 -0.0059,0.0028 -0.0253,0.02984 -0.03125,0.03125 -0.08345,0.02791 -0.139249,0.03008 -0.21875,0.0625 -0.0092,0.0039 -0.02195,0.02759 -0.03125,0.03125 -0.07979,0.03299 -0.17219,0.05513 -0.25,0.09375 -0.0079,0.0045 -0.02224,0.02702 -0.03125,0.03125 -0.05385,0.02847 -0.103532,0.06302 -0.15625,0.09375 -5.65e-4,2.82e-4 -0.03012,0 -0.03125,0 -0.05131,0.03045 -0.104941,0.06105 -0.15625,0.09375 -0.01212,0.0082 -0.01856,0.02336 -0.03125,0.03125 -0.0056,0.0045 -0.02474,-0.0042 -0.03125,0 -0.0375,0.02537 -0.05654,0.06781 -0.09375,0.09375 -0.009,0.0062 -0.02224,-0.0065 -0.03125,0 -0.009,0.0059 -0.02223,0.02505 -0.03125,0.03125 -0.04736,0.03552 -0.111709,0.0875 -0.15625,0.125 -0.04483,0.03778 -0.113681,0.08581 -0.15625,0.125 -0.01691,0.01494 -0.01434,0.01574 -0.03125,0.03125 -0.03186,0.02988 -0.06217,0.06217 -0.09375,0.09375 -0.007,0.0076 -0.02393,0.02336 -0.03125,0.03125 -0.0076,0.0085 -0.02393,0.02307 -0.03125,0.03125 -0.01381,0.01381 -0.018,0.01715 -0.03125,0.03125 -0.0265,0.02876 -0.03825,0.06415 -0.0625,0.09375 -0.0076,0.0079 -0.02476,0.02336 -0.03125,0.03125 -0.03636,0.04454 -0.09033,0.07905 -0.125,0.125 -0.01381,0.01776 -0.01772,0.04446 -0.03125,0.0625 -0.0203,0.02706 -0.04276,0.03487 -0.0625,0.0625 -0.0067,0.0085 0.0054,0.02279 0,0.03125 -0.0065,0.0087 -0.02532,0.02223 -0.03125,0.03125 -0.0059,0.0087 -0.02534,0.02223 -0.03125,0.03125 -0.03326,0.04877 -0.06302,0.10635 -0.09375,0.15625 -0.01918,0.03129 -0.04445,0.06246 -0.0625,0.09375 -0.01037,0.01889 -0.02166,0.04333 -0.03125,0.0625 -0.0029,0.0039 8.75e-4,0.02759 0,0.03125 -0.0076,0.01494 -0.02306,0.01603 -0.03125,0.03125 -0.0203,0.03947 -0.04193,0.08469 -0.0625,0.125 -0.0056,0.01184 0.0054,0.01913 0,0.03125 -0.0042,0.0068 -0.02738,0.0242 -0.03125,0.03125 -0.01466,0.03017 -0.018,0.06274 -0.03125,0.09375 -0.011,0.02481 -0.02081,0.03769 -0.03125,0.0625 -0.0014,0.0031 6.25e-4,0.02703 0,0.03125 -0.0067,0.01635 -0.02561,0.01462 -0.03125,0.03125 -0.01664,0.03947 -0.01687,0.08553 -0.03125,0.125 -0.007,0.02002 -0.02561,0.04361 -0.03125,0.0625 -0.01606,0.0437 -0.01715,0.08102 -0.03125,0.125 -0.0029,0.01042 -0.02837,0.0211 -0.03125,0.03125 -0.0029,0.0099 0.0029,0.02138 0,0.03125 -0.01776,0.06174 -0.04699,0.125195 -0.0625,0.1875 -0.02284,0.09501 -0.01519,0.184834 -0.03125,0.28125 -0.0011,0.0029 -0.03013,-0.0025 -0.03125,0 -0.0056,0.03777 0.0048,0.0875 0,0.125 -0.0029,0.02059 0.0028,0.04249 0,0.0625 -0.0011,0.0092 0.0011,0.02081 0,0.03125 -0.0074,0.064 -0.02759,0.12294 -0.03125,0.1875 -5.64e-4,0.0029 5.65e-4,0.0295 0,0.03125 -0.0029,0.05893 0.0011,0.09705 0,0.15625 -0.0011,0.02143 0,0.04107 0,0.0625 l 0,0.28125 0,9.15625 0.125,0 1.8125,0 0,-9.4375 c 0,-0.541006 0.237641,-1.09347 0.625,-1.5 0.03326,-0.03496 0.0585,-0.06105 0.09375,-0.09375 0.03186,-0.02847 0.06049,-0.06753 0.09375,-0.09375 0.226382,-0.18353 0.498202,-0.327637 0.78125,-0.375 0.03467,-0.0056 0.05794,0.0034 0.09375,0 0.04285,-0.0042 0.08102,0 0.125,0 l 2.125,0.03125 c 0.01776,-0.312932 0.01292,-0.649529 0.03125,-1.03125 5.65e-4,-0.02678 0.03012,-0.03544 0.03125,-0.0625 0,-0.0065 0,-0.02477 0,-0.03125 0.0023,-0.05554 -0.0016,-0.09817 0,-0.15625 0,-0.0042 0,-0.02703 0,-0.03125 0.0029,-0.05554 -0.0019,-0.129989 0,-0.1875 -0.11026,-0.05421 -0.231091,-0.109301 -0.34375,-0.15625 -0.135604,-0.05667 -0.293439,-0.0813 -0.4375,-0.125 -0.0406,-0.01184 -0.08299,-0.0515 -0.125,-0.0625 -0.03411,-0.0093 -0.05681,-0.02251 -0.09375,-0.03125 -0.004,0 -0.02669,0.0028 -0.03125,0 -0.03186,-0.0073 -0.05993,0.0065 -0.09375,0 -0.222436,-0.04398 -0.468644,-0.08529 -0.75,-0.09375 l -0.09375,0 c -0.06879,2.82e-4 -0.149961,-0.0031 -0.21875,0 -0.01861,0 -0.04278,-0.0011 -0.0625,0 z m -38.875,0.03125 c -0.1029,0.0034 -0.205371,0.02166 -0.3125,0.03125 -0.103462,0.0099 -0.238312,0.01603 -0.34375,0.03125 -0.104875,0.01551 -0.207344,0.0422 -0.3125,0.0625 -0.004,0 -0.02737,0 -0.03125,0 -0.0905,0.01748 -0.16035,0.0422 -0.25,0.0625 -0.01494,0.0031 -0.04727,-0.0034 -0.0625,0 -0.146035,0.03383 -0.298795,0.05456 -0.4375,0.09375 -0.002,0 0.0022,0.02842 0,0.03125 -0.06456,0.01776 -0.125759,0.01208 -0.1875,0.03125 -0.0022,2.82e-4 -0.02875,0.02842 -0.03125,0.03125 -0.06484,0.01945 -0.125759,0.04192 -0.1875,0.0625 -0.0081,0.0028 -0.0228,-0.0031 -0.03125,0 -0.02115,0.0065 -0.04135,0.0242 -0.0625,0.03125 -0.01038,0.0034 -0.0211,-0.0037 -0.03125,0 -0.01212,0.0042 -0.01941,-0.0048 -0.03125,0 -0.02763,0.0093 -0.06754,0.02138 -0.09375,0.03125 0.0011,0.03411 0.03012,0.06161 0.03125,0.09375 2.82e-4,0.0045 0,0.02674 0,0.03125 0.0011,0.01494 -5e-4,0.01687 0,0.03125 0.002,0.03383 -0.0015,0.06105 0,0.09375 0.0045,0.07527 -0.0045,0.148552 0,0.21875 0.004,0.07076 0.027,0.146296 0.03125,0.21875 0.0014,0.02086 -0.0011,0.04079 0,0.0625 0,0.0099 -8.11e-4,0.02138 0,0.03125 5.64e-4,0.01551 -8.75e-4,0.04643 0,0.0625 2.81e-4,0.01184 -6.25e-4,0.01969 0,0.03125 0.0011,0.01945 -6.25e-4,0.04164 0,0.0625 5.64e-4,0.0079 0,0.02307 0,0.03125 0.0014,0.0265 -0.0014,0.03487 0,0.0625 8.46e-4,0.01607 -8.75e-4,0.04615 0,0.0625 5.65e-4,0.01607 -2.5e-4,0.01462 0,0.03125 8.46e-4,0.01522 -0.0011,0.04699 0,0.0625 5.64e-4,0.01748 -5e-4,0.04474 0,0.0625 8.45e-4,0.01663 0.03013,0.01405 0.03125,0.03125 5.64e-4,0.01945 -8.75e-4,0.0422 0,0.0625 5.64e-4,0.01551 -3.75e-4,0.04643 0,0.0625 0.0018,0.03693 -0.0014,0.054 0,0.09375 0.0389,-0.0028 0.08525,0.0023 0.125,0 0.0327,-0.0028 0.05992,0.0014 0.09375,0 0.05273,-0.0042 0.102691,-0.02701 0.15625,-0.03125 0.0654,-0.0048 0.120968,0.0051 0.1875,0 0.03609,-0.0028 0.08891,0.0023 0.125,0 0.222154,-0.01691 0.432123,-0.04587 0.65625,-0.0625 0.03101,-0.0028 0.06301,0.0017 0.09375,0 0.07499,-0.0056 0.144324,-0.0259 0.21875,-0.03125 0.05075,-0.0037 0.106068,0.0034 0.15625,0 0.05582,-0.0039 0.101837,0.0031 0.15625,0 0.064,-0.0045 0.125196,-0.02786 0.1875,-0.03125 0.03975,-0.0028 0.08581,0.0014 0.125,0 0.09007,-0.0043 0.1954,0.0028 0.28125,0 0.101775,-0.01071 0.189062,-0.03125 0.28125,-0.03125 0.06456,0 0.127733,0.02645 0.1875,0.03125 0.0155,0 0.04699,-0.002 0.0625,0 0.0578,0.0059 0.102406,0.02054 0.15625,0.03125 0.053,0.01071 0.106345,0.01574 0.15625,0.03125 0.01325,0.0045 0.01856,-0.0045 0.03125,0 0.04792,0.01607 0.112271,0.04248 0.15625,0.0625 0.04426,0.02002 0.08469,0.03825 0.125,0.0625 0.011,0.0065 0.02026,0.02448 0.03125,0.03125 0.03863,0.02425 0.05879,0.03487 0.09375,0.0625 0.0018,0 0.02963,-0.0014 0.03125,0 0.0358,0.02904 0.06161,0.06217 0.09375,0.09375 0.009,0.0096 0.0228,0.02167 0.03125,0.03125 0.03016,0.03101 0.03487,0.05992 0.0625,0.09375 0.0018,0.0028 0.02938,0.02871 0.03125,0.03125 0.02679,0.03524 0.03769,0.05513 0.0625,0.09375 0.0065,0.01127 0.0242,0.01969 0.03125,0.03125 0.02086,0.03665 0.0436,0.08666 0.0625,0.125 0.01438,0.03073 0.01856,0.06189 0.03125,0.09375 0,0 -2.82e-4,0.03069 0,0.03125 0.04736,0.1232 0.1016,0.267826 0.125,0.40625 0.004,0.02086 -0.0034,0.04107 0,0.0625 0.0076,0.05188 0.02619,0.10268 0.03125,0.15625 0.0018,0.02115 -0.0014,0.04022 0,0.0625 0.0054,0.07301 0,0.143195 0,0.21875 l 0,1.28125 0,0.25 c -0.01917,-0.0051 -0.04333,-0.02555 -0.0625,-0.03125 -0.01551,-0.0043 -0.04671,0.0051 -0.0625,0 -0.0081,-0.0029 0.0076,-0.02937 0,-0.03125 -0.0093,-0.0029 -0.0211,0.0023 -0.03125,0 -0.0034,0 -0.02763,2.5e-4 -0.03125,0 -0.0081,-0.0029 -0.02279,0.002 -0.03125,0 -0.01325,-0.0036 -0.018,-0.02787 -0.03125,-0.03125 -0.01381,-0.0034 -0.04981,0.0043 -0.0625,0 -0.01381,-0.0031 -0.01686,0.0036 -0.03125,0 -0.0141,-0.0029 -0.0484,-0.02725 -0.0625,-0.03125 -0.0172,-0.0036 -0.01405,0.0039 -0.03125,0 -0.01523,-0.0034 -0.04671,0.0038 -0.0625,0 -0.01608,-0.0029 -0.01463,-0.02787 -0.03125,-0.03125 -0.0172,-0.0036 -0.04503,0.0031 -0.0625,0 -0.01579,-0.0034 -0.01574,0.0029 -0.03125,0 -0.0186,-0.0034 -0.04361,-0.02787 -0.0625,-0.03125 -0.0141,-0.0029 -0.0484,0.002 -0.0625,0 -0.01438,-0.0029 -0.04869,0.0023 -0.0625,0 -0.01296,0 -0.01856,0.002 -0.03125,0 -0.0203,-0.0031 -0.04051,-0.029 -0.0625,-0.03125 -0.0099,0 -0.02025,7.5e-4 -0.03125,0 -0.01038,0 -0.02111,5e-4 -0.03125,0 -0.0172,-0.0029 -0.04418,0.0014 -0.0625,0 -0.0076,0 -0.02279,0.0029 -0.03125,0 -0.03186,-0.0031 -0.05992,0.0029 -0.09375,0 -0.04792,-0.0045 -0.105226,-0.02838 -0.15625,-0.03125 -0.01945,0 -0.04136,5e-4 -0.0625,0 -0.03355,0 -0.05794,8.75e-4 -0.09375,0 -0.0172,-2.83e-4 -0.04474,0 -0.0625,0 -0.0081,-2.83e-4 -0.02307,0 -0.03125,0 -0.03072,0 -0.06189,0 -0.09375,0 -0.01188,0 -0.01885,2.81e-4 -0.03125,0 l -0.03125,0 -0.03125,0 c -0.03552,-2.81e-4 -0.05654,0 -0.09375,0 l -0.09375,0 c -0.04398,2.82e-4 -0.0813,-0.0029 -0.125,0 -0.02425,0 -0.07006,-0.0019 -0.09375,0 -0.03552,0.0029 -0.05851,-0.0019 -0.09375,0 -0.01188,0 -0.01913,-7.5e-4 -0.03125,0 -0.01917,0 -0.04361,0.02988 -0.0625,0.03125 -0.01945,0.0029 -0.04249,-0.0014 -0.0625,0 -0.01438,0.0029 -0.01686,-0.0015 -0.03125,0 -0.02228,0.0031 -0.07176,-0.0031 -0.09375,0 -0.02086,0.0029 -0.04136,0.02763 -0.0625,0.03125 -0.0115,0.0029 -0.05095,-0.0025 -0.0625,0 -0.0296,0.0051 -0.03319,-0.005 -0.0625,0 -0.01747,0.0036 -0.04531,0.02825 -0.0625,0.03125 -0.01664,0.0043 -0.04615,-0.0034 -0.0625,0 -0.02594,0.0056 -0.03741,0.02509 -0.0625,0.03125 -0.02452,0.0056 -0.06979,-0.0053 -0.09375,0 -0.01438,0.0043 -0.01716,-0.0034 -0.03125,0 -0.02819,0.007 -0.06612,0.0228 -0.09375,0.03125 -0.0437,0.01238 -0.08215,0.0484 -0.125,0.0625 -0.02367,0.0074 -0.03939,-0.0073 -0.0625,0 l -0.03125,0 c -0.03101,0.01075 -0.06246,0.01998 -0.09375,0.03125 -0.02369,0.0081 -0.03854,0.0211 -0.0625,0.03125 -0.02989,0.01187 -0.06415,0.018 -0.09375,0.03125 -0.02284,0.01013 -0.03995,0.02138 -0.0625,0.03125 -0.01212,0.0056 -0.01969,0.02561 -0.03125,0.03125 -0.01664,0.0079 -0.04644,0.02364 -0.0625,0.03125 -0.02143,0.01125 -0.04051,0.01969 -0.0625,0.03125 -0.01466,0.0079 -0.01715,-0.0073 -0.03125,0 -0.0141,0.0076 -0.04811,0.02364 -0.0625,0.03125 -0.01889,0.01075 -0.04418,0.02025 -0.0625,0.03125 -0.02621,0.01608 -0.03684,0.04671 -0.0625,0.0625 -0.0074,0.0051 -0.02392,-0.0048 -0.03125,0 -0.01075,0.0062 -0.0211,0.0242 -0.03125,0.03125 -0.04595,0.02904 -0.112274,0.06217 -0.15625,0.09375 -0.01381,0.0099 -0.01744,0.0211 -0.03125,0.03125 -0.02848,0.02115 -0.06612,0.04022 -0.09375,0.0625 -0.01606,0.01269 -0.01546,0.04952 -0.03125,0.0625 -0.02537,0.02086 -0.06894,0.04107 -0.09375,0.0625 -0.01551,0.01354 -0.01602,0.01744 -0.03125,0.03125 -0.02255,0.02057 -0.07232,0.04051 -0.09375,0.0625 -0.01438,0.01381 -0.01744,0.04784 -0.03125,0.0625 -0.0203,0.02115 -0.0422,0.04051 -0.0625,0.0625 -0.0018,0.0029 -0.02987,-0.0014 -0.03125,0 -0.0115,0.01269 -0.01969,0.04981 -0.03125,0.0625 -0.02735,0.03073 -0.03571,0.06246 -0.0625,0.09375 -0.0025,0.004 -0.0285,-0.0034 -0.03125,0 -0.0045,0.0059 0.0051,0.02561 0,0.03125 -0.03355,0.042 -0.0619,0.08215 -0.09375,0.125 -0.0059,0.0081 -0.02561,0.02308 -0.03125,0.03125 -0.01889,0.02735 -0.04446,0.06527 -0.0625,0.09375 -0.0093,0.01523 -0.02195,0.01772 -0.03125,0.03125 -0.0011,0.0029 6.25e-4,0.02962 0,0.03125 -0.0186,0.0296 -0.04446,0.03234 -0.0625,0.0625 -5.64e-4,0 5.29e-4,0.03125 0,0.03125 -0.009,0.01579 -0.02222,0.01517 -0.03125,0.03125 -0.01608,0.02819 -0.01631,0.06359 -0.03125,0.09375 -0.0011,0 -0.03037,-0.0025 -0.03125,0 -0.0085,0.01608 0.0082,0.04615 0,0.0625 -0.0014,0.0029 -0.03012,-0.0029 -0.03125,0 -0.01523,0.02933 -0.01772,0.06358 -0.03125,0.09375 -0.0065,0.01466 -0.02505,0.0484 -0.03125,0.0625 -0.01832,0.04116 -0.01463,0.08327 -0.03125,0.125 -0.0022,0.0063 -0.029,-0.0051 -0.03125,0 l 0,0.03125 c -0.01974,0.05215 -0.04446,0.102403 -0.0625,0.15625 -5.65e-4,0.0029 7.5e-4,0.02812 0,0.03125 -0.0054,0.01635 0.0051,0.01434 0,0.03125 -0.0081,0.02621 -0.02391,0.06696 -0.03125,0.09375 -0.0045,0.0141 0.0039,0.01659 0,0.03125 -5.64e-4,0 -0.031,-0.0023 -0.03125,0 -0.0059,0.02255 0.0063,0.07176 0,0.09375 -0.004,0.01494 0.0036,0.01631 0,0.03125 -0.0042,0.01833 -0.02669,0.04332 -0.03125,0.0625 -0.0042,0.01833 0.0041,0.04475 0,0.0625 -0.0029,0.01438 -0.02813,0.01772 -0.03125,0.03125 -0.0065,0.03694 0.0054,0.08863 0,0.125 -0.0048,0.02763 -0.02725,0.03431 -0.03125,0.0625 -0.0056,0.03947 0.0046,0.08581 0,0.125 -0.0029,0.02706 0.0025,0.06696 0,0.09375 -0.0042,0.04455 -0.02813,0.07905 -0.03125,0.125 -0.0014,0.02199 0.0011,0.0391 0,0.0625 -0.0034,0.06794 0,0.149398 0,0.21875 l 0,1.1875 c 0,0.07443 -0.0042,0.145732 0,0.21875 0.0011,0.02284 -0.0022,0.0391 0,0.0625 0.004,0.05102 0.02534,0.105506 0.03125,0.15625 0.0031,0.02453 -0.0034,0.03627 0,0.0625 0.007,0.04961 0.02222,0.106632 0.03125,0.15625 0.004,0.02228 -0.0048,0.0405 0,0.0625 0.01354,0.07047 0.04503,0.149397 0.0625,0.21875 0.01664,0.06427 0.0422,0.124067 0.0625,0.1875 0.007,0.02171 0.02364,0.07205 0.03125,0.09375 0.0155,0.04624 0.01349,0.08046 0.03125,0.125 0.0093,0.02368 0.0211,0.03825 0.03125,0.0625 0.01804,0.04482 0.04276,0.08159 0.0625,0.125 0.0096,0.02143 0.02137,0.04136 0.03125,0.0625 0.02933,0.0623 0.06049,0.126605 0.09375,0.1875 0.002,0.0029 -0.0022,0.0265 0,0.03125 0.03243,0.0592 0.08976,0.13027 0.125,0.1875 0.01296,0.0203 0.018,0.01151 0.03125,0.03125 0.03016,0.04567 0.06132,0.111145 0.09375,0.15625 0.01212,0.0172 0.01828,0.04559 0.03125,0.0625 0.04285,0.05864 0.0782,0.100986 0.125,0.15625 0.01188,0.01494 0.01885,0.01631 0.03125,0.03125 0.03665,0.04229 0.08695,0.08441 0.125,0.125 0.0172,0.0186 0.04531,0.04502 0.0625,0.0625 0.04116,0.04116 0.08271,0.0844 0.125,0.125 0.01269,0.01075 0.01856,0.01997 0.03125,0.03125 0.05329,0.04934 0.09987,0.110299 0.15625,0.15625 0.01691,0.0141 0.04501,0.01744 0.0625,0.03125 0.04314,0.03411 0.08074,0.06161 0.125,0.09375 0.01889,0.01381 0.04333,0.04925 0.0625,0.0625 0.06061,0.04144 0.124635,0.05513 0.1875,0.09375 0.0045,0.0029 -0.0034,0.03013 0,0.03125 0.06117,0.0375 0.124344,0.06105 0.1875,0.09375 0.01917,0.011 0.04276,0.02222 0.0625,0.03125 0.05244,0.02706 0.102691,0.03881 0.15625,0.0625 0.01691,0.0076 0.04559,0.0242 0.0625,0.03125 0.06991,0.02989 0.115892,0.06669 0.1875,0.09375 0.0115,0.0031 0.05038,-0.0045 0.0625,0 0.06117,0.02115 0.125471,0.04389 0.1875,0.0625 0.02001,0.0059 0.01124,0.02502 0.03125,0.03125 0.06456,0.01776 0.152216,0.01659 0.21875,0.03125 0.0099,0.0029 0.02139,0.029 0.03125,0.03125 0.07725,0.01635 0.139811,0.01997 0.21875,0.03125 0.01635,0.0029 0.04614,-0.0014 0.0625,0 0.06456,0.0087 0.122095,0.02674 0.1875,0.03125 0.01832,0.0029 0.0439,-0.002 0.0625,0 0.08035,0.0051 0.168525,0 0.25,0 0.801783,0 1.517179,-0.254751 2.125,-0.6875 0.475881,-0.338587 0.877713,-0.793203 1.15625,-1.3125 0.286995,-0.537905 0.4375,-1.131422 0.4375,-1.78125 l 0,-5.5 0,-0.125 0,-0.0625 0,-0.09375 c 0.0011,-0.02425 0,-0.03882 0,-0.0625 -0.0011,-0.03693 0.0017,-0.0571 0,-0.09375 -0.0014,-0.02565 0.0018,-0.06809 0,-0.09375 -0.0018,-0.02425 0.0018,-0.03797 0,-0.0625 -0.0011,-0.01187 7.5e-4,-0.0194 0,-0.03125 -0.0025,-0.02848 0.0026,-0.06556 0,-0.09375 -0.0042,-0.03326 -0.02675,-0.06076 -0.03125,-0.09375 -0.004,-0.02565 0.0045,-0.06866 0,-0.09375 -0.0029,-0.01974 0.0034,-0.04332 0,-0.0625 -0.0029,-0.01466 -0.02875,-0.01631 -0.03125,-0.03125 -0.0036,-0.02311 0.0039,-0.03966 0,-0.0625 -0.0011,-0.0036 0.0011,-0.02763 0,-0.03125 -0.0025,-0.01466 0.0029,-0.01688 0,-0.03125 -0.0048,-0.02001 -0.02641,-0.04249 -0.03125,-0.0625 -0.0063,-0.02538 0.0059,-0.06809 0,-0.09375 -0.0045,-0.01804 -0.02613,-0.01321 -0.03125,-0.03125 -0.0045,-0.01664 0.0045,-0.04615 0,-0.0625 -0.0059,-0.02199 -0.02505,-0.04051 -0.03125,-0.0625 -0.0065,-0.02143 -0.02533,-0.04136 -0.03125,-0.0625 -0.0051,-0.01297 0.0036,-0.0501 0,-0.0625 -0.0056,-0.01833 -0.02449,-0.04446 -0.03125,-0.0625 -0.01188,-0.03327 -0.01914,-0.06048 -0.03125,-0.09375 -0.009,-0.02425 -0.02166,-0.06922 -0.03125,-0.09375 -0.01038,-0.02537 -0.02025,-0.03684 -0.03125,-0.0625 -0.0018,-0.0054 0.0014,-0.02617 0,-0.03125 -0.0115,-0.02706 -0.01885,-0.03543 -0.03125,-0.0625 -0.0045,-0.01015 -0.02613,-0.0211 -0.03125,-0.03125 -0.004,-0.0085 0.0039,-0.02279 0,-0.03125 -0.02791,-0.05892 -0.0633,-0.13027 -0.09375,-0.1875 -0.0059,-0.01156 0.0063,-0.01969 0,-0.03125 -0.0031,-0.0059 -0.02862,0.0056 -0.03125,0 -0.03863,-0.0702 -0.08243,-0.151089 -0.125,-0.21875 -0.0059,-0.0096 0.0065,-0.02167 0,-0.03125 -0.03636,-0.05836 -0.08496,-0.10043 -0.125,-0.15625 -0.0056,-0.0082 0.0065,-0.02336 0,-0.03125 -0.007,-0.0096 -0.0242,-0.02167 -0.03125,-0.03125 -0.04144,-0.05751 -0.07933,-0.101276 -0.125,-0.15625 -0.0051,-0.007 -0.02555,-0.02477 -0.03125,-0.03125 -0.05046,-0.06061 -0.102683,-0.129988 -0.15625,-0.1875 -0.01381,-0.01466 -0.01715,-0.01715 -0.03125,-0.03125 -0.03694,-0.03721 -0.0875,-0.0892 -0.125,-0.125 -0.01579,-0.0141 -0.04784,-0.0484 -0.0625,-0.0625 -0.05808,-0.05244 -0.126883,-0.07595 -0.1875,-0.125 -0.01038,-0.0079 -0.02081,-0.02336 -0.03125,-0.03125 -0.04934,-0.03919 -0.103817,-0.08863 -0.15625,-0.125 -0.01974,-0.0141 -0.0422,-0.018 -0.0625,-0.03125 -0.06061,-0.04031 -0.125194,-0.08751 -0.1875,-0.125 -0.004,-0.0028 0.004,-0.02928 0,-0.03125 -0.06822,-0.04003 -0.147142,-0.05795 -0.21875,-0.09375 -0.02199,-0.011 -0.04051,-0.0211 -0.0625,-0.03125 -0.05695,-0.02706 -0.128019,-0.0695 -0.1875,-0.09375 -0.01325,-0.0056 -0.04954,0.0051 -0.0625,0 -0.07612,-0.0296 -0.139812,-0.06866 -0.21875,-0.09375 -0.01805,-0.0059 -0.04418,-0.02562 -0.0625,-0.03125 -0.0186,-0.0056 -0.04304,0.0056 -0.0625,0 -0.04539,-0.01325 -0.07904,-0.01997 -0.125,-0.03125 -0.01974,-0.0048 -0.0422,-0.02673 -0.0625,-0.03125 -0.02171,-0.0051 -0.07175,0.0053 -0.09375,0 -0.06315,-0.01325 -0.122095,-0.02166 -0.1875,-0.03125 -0.0051,0 0.0053,-0.02842 0,-0.03125 -0.08204,-0.01184 -0.165143,0.0076 -0.25,0 -0.01494,0 -0.04729,-0.03069 -0.0625,-0.03125 -0.02819,-0.0028 -0.06527,0.0017 -0.09375,0 -0.05131,-0.0028 -0.103806,2.75e-4 -0.15625,0 -0.0186,-2.82e-4 -0.0439,0 -0.0625,0 l -0.03125,0 c -0.01945,2.82e-4 -0.04276,2.82e-4 -0.0625,0 z m 10.09375,0 c -0.03072,0.0028 -0.06359,0.02815 -0.09375,0.03125 -0.03101,0.0034 -0.06301,-0.0039 -0.09375,0 -0.0014,2.82e-4 -0.0295,0 -0.03125,0 -0.03016,0.0039 -0.03234,-0.0045 -0.0625,0 -0.01917,0.0034 -0.04304,0.0273 -0.0625,0.03125 -0.01237,0.0028 -0.01884,-0.002 -0.03125,0 -0.0045,0 -0.02696,0 -0.03125,0 -0.02481,0.0048 -0.03741,-0.0048 -0.0625,0 -0.03411,0.0068 -0.09201,0.02307 -0.125,0.03125 -0.02481,0.0059 -0.03741,0.02505 -0.0625,0.03125 -0.02763,0.0068 -0.06669,-0.0079 -0.09375,0 -0.0081,0.0028 -0.02307,0.02871 -0.03125,0.03125 -0.0234,0.0065 -0.03939,-0.0068 -0.0625,0 -0.02143,0.007 -0.04022,0.02364 -0.0625,0.03125 -0.0115,0.0039 -0.0515,0.02674 -0.0625,0.03125 -0.02086,0.0068 -0.01095,-0.0076 -0.03125,0 l -0.03125,0 c -0.0076,0.0028 0.0076,0.02844 0,0.03125 -0.02311,0.0085 -0.03937,-0.0096 -0.0625,0 -0.011,0.0042 -0.02081,0.02674 -0.03125,0.03125 -0.01551,0.0059 -0.04756,-0.0065 -0.0625,0 -0.03214,0.0141 -0.06105,0.04728 -0.09375,0.0625 -0.0115,0.0054 -0.01969,-0.0054 -0.03125,0 -0.01013,0.0051 -0.0211,0.02561 -0.03125,0.03125 -0.03946,0.01861 -0.08637,0.0422 -0.125,0.0625 -0.0074,0.0042 -0.02364,-0.0042 -0.03125,0 l -0.03125,0 c -0.02819,0.01579 -0.03317,0.04587 -0.0625,0.0625 -0.02115,0.01184 -0.04164,0.01885 -0.0625,0.03125 -8.46e-4,2.82e-4 -0.03037,-0.0028 -0.03125,0 -0.04483,0.02735 -0.08073,0.06471 -0.125,0.09375 -0.02537,0.01691 -0.03769,0.04502 -0.0625,0.0625 -0.03072,0.02199 -0.06415,0.03966 -0.09375,0.0625 -0.01804,0.01381 -0.04445,0.01715 -0.0625,0.03125 -0.0296,0.0234 -0.06471,0.06979 -0.09375,0.09375 -0.01917,0.01607 -0.04418,0.01462 -0.0625,0.03125 -0.02706,0.02368 -0.03487,0.03825 -0.0625,0.0625 -0.01494,0.01381 -0.04756,0.04784 -0.0625,0.0625 -0.02989,0.02791 -0.03402,0.06415 -0.0625,0.09375 -0.011,0.01156 -0.05094,0.01941 -0.0625,0.03125 -0.03072,0.03214 -0.03317,0.06105 -0.0625,0.09375 -0.04568,0.05103 -0.113396,0.102967 -0.15625,0.15625 -0.0155,0.01889 -0.01687,0.04333 -0.03125,0.0625 -0.02904,0.03637 -0.06669,0.05625 -0.09375,0.09375 -0.0045,0.0056 0.0046,0.02561 0,0.03125 -0.0115,0.0172 -0.02025,0.01377 -0.03125,0.03125 -0.02594,0.03721 -0.06951,0.08694 -0.09375,0.125 -0.0076,0.01127 0.0068,0.01997 0,0.03125 -0.0065,0.01071 -0.02476,0.02054 -0.03125,0.03125 -0.02284,0.03749 -0.04079,0.08638 -0.0625,0.125 -0.0065,0.01127 -0.02533,0.01941 -0.03125,0.03125 -0.0059,0.011 0.0056,0.01969 0,0.03125 -0.03326,0.06259 -0.06444,0.123222 -0.09375,0.1875 -0.0022,0.0031 -0.02963,-0.0028 -0.03125,0 -0.0063,0.01579 0.0068,0.047 0,0.0625 -0.02115,0.04793 -0.04276,0.07595 -0.0625,0.125 -0.0074,0.01974 -0.02392,0.04277 -0.03125,0.0625 -8.45e-4,0.0028 0,0.02955 0,0.03125 -0.01889,0.0499 -0.04559,0.07454 -0.0625,0.125 -0.0059,0.01917 0.0059,0.04248 0,0.0625 -0.01974,0.064 -0.04671,0.122094 -0.0625,0.1875 -2.81e-4,0.0048 0.0014,0.02646 0,0.03125 -0.07245,0.293761 -0.125,0.589654 -0.125,0.90625 l 0,0.25 0,5.8125 c 0,0.01012 0,0.0211 0,0.03125 5.64e-4,0.06456 0.02763,0.124349 0.03125,0.1875 5.64e-4,0.02819 -0.0022,0.06555 0,0.09375 0.0034,0.04736 -0.0059,0.07764 0,0.125 0.0034,0.02763 0.02737,0.06556 0.03125,0.09375 0.0065,0.04961 -0.0087,0.07595 0,0.125 0.004,0.02255 0.02613,0.07064 0.03125,0.09375 0.01438,0.07104 0.01349,0.118711 0.03125,0.1875 0.0034,0.01269 -0.0022,0.04925 0,0.0625 0.01606,0.05722 0.04418,0.09986 0.0625,0.15625 0.007,0.02255 0.02364,0.04107 0.03125,0.0625 0.01608,0.04877 0.01321,0.108891 0.03125,0.15625 0.0081,0.02143 0.02364,0.03995 0.03125,0.0625 0.02255,0.05271 0.03883,0.104101 0.0625,0.15625 0.0065,0.01325 0.02536,0.01827 0.03125,0.03125 0.03101,0.06456 0.05907,0.124067 0.09375,0.1875 0.0018,0.0042 -0.002,0.02737 0,0.03125 0.0034,0.0059 0.02725,-0.0062 0.03125,0 0.03101,0.05497 0.05935,0.102126 0.09375,0.15625 0.01075,0.01776 0.01941,0.04417 0.03125,0.0625 0.03383,0.05187 0.05766,0.106634 0.09375,0.15625 0.0081,0.01187 0.02251,0.02054 0.03125,0.03125 0.04314,0.05949 0.07792,0.1314 0.125,0.1875 0.01212,0.01523 0.04981,0.01716 0.0625,0.03125 0.03692,0.04229 0.05541,0.08469 0.09375,0.125 0.01608,0.0172 0.04557,0.0453 0.0625,0.0625 0.04511,0.04651 0.07679,0.07989 0.125,0.125 0.0063,0.0056 0.0248,0.0253 0.03125,0.03125 0.053,0.04905 0.09931,0.07905 0.15625,0.125 0.0172,0.01466 0.04474,0.04755 0.0625,0.0625 0.04285,0.03186 0.0813,0.06133 0.125,0.09375 0.0186,0.01269 0.04501,0.01856 0.0625,0.03125 0.06005,0.04172 0.125483,0.08694 0.1875,0.125 0.0096,0.0059 0.02081,-0.0059 0.03125,0 0.05385,0.03158 0.10071,0.06527 0.15625,0.09375 0.02086,0.011 0.04136,0.02081 0.0625,0.03125 0.05131,0.0265 0.103816,0.06979 0.15625,0.09375 0.01776,0.0065 0.01349,-0.0079 0.03125,0 0.06766,0.02904 0.14827,0.06781 0.21875,0.09375 0.01608,0.0056 0.04588,0.02642 0.0625,0.03125 0.05554,0.01945 0.0993,0.01461 0.15625,0.03125 0.02284,0.0059 0.03966,0.02616 0.0625,0.03125 0.06117,0.01776 0.125474,0.018 0.1875,0.03125 0.01325,0.0029 0.01828,0.0285 0.03125,0.03125 0.07471,0.01551 0.173882,0.02025 0.25,0.03125 0.0203,0.0036 0.04107,-0.0018 0.0625,0 0.05836,0.0085 0.0962,0.02617 0.15625,0.03125 0.02255,0.0029 0.03939,-0.0016 0.0625,0 0.07753,0.0042 0.169934,0 0.25,0 0.06146,0 0.12632,0.0025 0.1875,0 0.01974,0 0.04276,0.0011 0.0625,0 0.04087,-0.0029 0.08469,0.0048 0.125,0 0.02367,-0.0029 0.03883,-0.02875 0.0625,-0.03125 0.03609,-0.0048 0.05766,0.0057 0.09375,0 0.02537,-0.0036 0.06895,0.0046 0.09375,0 0.03411,-0.0054 0.0602,-0.0253 0.09375,-0.03125 0.02594,-0.0059 0.06838,-0.02561 0.09375,-0.03125 0.03243,-0.0074 0.06047,0.0079 0.09375,0 0.02537,-0.0065 0.0377,-0.02505 0.0625,-0.03125 0.03186,-0.0087 0.06218,-0.02222 0.09375,-0.03125 0.02565,-0.007 0.06895,0.0082 0.09375,0 0.03186,-0.0099 0.06274,-0.02025 0.09375,-0.03125 0.02509,-0.0081 0.03769,-0.02222 0.0625,-0.03125 0.03016,-0.011 0.06415,-0.01969 0.09375,-0.03125 0.02481,-0.0096 0.03825,-0.02082 0.0625,-0.03125 0.02933,-0.01269 0.06386,-0.04869 0.09375,-0.0625 0.02367,-0.01075 0.0391,-0.02025 0.0625,-0.03125 0.02931,-0.01438 0.06388,-0.01631 0.09375,-0.03125 0.02311,-0.01187 0.03966,-0.01941 0.0625,-0.03125 0.02904,-0.01579 0.065,-0.04557 0.09375,-0.0625 0.02199,-0.01269 0.04079,-0.01827 0.0625,-0.03125 0.02848,-0.01748 0.06584,-0.04474 0.09375,-0.0625 0.02114,-0.0141 0.04051,-0.018 0.0625,-0.03125 0.02791,-0.01776 0.03544,-0.04361 0.0625,-0.0625 0.01974,-0.01438 0.04276,-0.01631 0.0625,-0.03125 0.02706,-0.01918 0.06725,-0.04191 0.09375,-0.0625 0.01974,-0.0155 0.04361,-0.04615 0.0625,-0.0625 0.0265,-0.02086 0.03741,-0.04024 0.0625,-0.0625 0.01832,-0.01579 0.04418,-0.01517 0.0625,-0.03125 0.02621,-0.02228 0.06894,-0.03882 0.09375,-0.0625 0.0172,-0.01635 0.01378,-0.04586 0.03125,-0.0625 0.02509,-0.02396 0.06894,-0.03769 0.09375,-0.0625 0.01664,-0.01664 0.01519,-0.04531 0.03125,-0.0625 0.02425,-0.02565 0.03881,-0.03656 0.0625,-0.0625 0.01523,-0.01748 0.04812,-0.04587 0.0625,-0.0625 0.02481,-0.02848 0.03937,-0.06527 0.0625,-0.09375 0.01325,-0.01664 0.01941,-0.01434 0.03125,-0.03125 0.02509,-0.03045 0.06951,-0.0616 0.09375,-0.09375 0.01038,-0.01438 0.02054,-0.04867 0.03125,-0.0625 0.02621,-0.03609 0.03713,-0.05682 0.0625,-0.09375 0.007,-0.0115 0.0242,-0.0197 0.03125,-0.03125 0.03157,-0.04765 0.06442,-0.106627 0.09375,-0.15625 0.06034,-0.101487 0.105506,-0.205089 0.15625,-0.3125 0.0048,-0.0087 0.02763,-0.02139 0.03125,-0.03125 0.02086,-0.0437 0.04389,-0.07989 0.0625,-0.125 0.0059,-0.0155 -0.0065,-0.04727 0,-0.0625 0.01608,-0.03975 0.04812,-0.05371 0.0625,-0.09375 0.0063,-0.01804 -0.0062,-0.04502 0,-0.0625 0.01212,-0.0375 0.01969,-0.08721 0.03125,-0.125 0.0059,-0.0203 0.02499,-0.0422 0.03125,-0.0625 0.01075,-0.03694 0.02139,-0.05654 0.03125,-0.09375 0.0059,-0.02143 -0.0048,-0.04079 0,-0.0625 0.0096,-0.03694 0.0228,-0.08807 0.03125,-0.125 0.004,-0.02228 0.02675,-0.03967 0.03125,-0.0625 0.0067,-0.03694 -0.0062,-0.08723 0,-0.125 0.0029,-0.02255 0.02837,-0.03995 0.03125,-0.0625 0.0034,-0.02453 -0.0034,-0.03797 0,-0.0625 5.64e-4,-0.0099 -6.25e-4,-0.02194 0,-0.03125 0.0059,-0.0547 -0.0037,-0.101835 0,-0.15625 0.0018,-0.01237 -5e-4,-0.01885 0,-0.03125 0,-0.0074 0.03125,-0.02392 0.03125,-0.03125 -0.0437,0 -0.394889,-0.03177 -0.875,-0.0625 -0.159849,-0.01075 -0.349411,-0.018 -0.53125,-0.03125 -0.168871,-0.0115 -0.354486,-0.01827 -0.53125,-0.03125 -0.0011,0.04172 0.0034,0.08441 0,0.125 -0.002,0.02114 0.0027,0.04136 0,0.0625 -0.01664,0.127429 -0.05203,0.258003 -0.09375,0.375 -0.255139,0.729329 -0.960579,1.21875 -1.78125,1.21875 -0.05639,0 -0.100996,0.0051 -0.15625,0 -0.01381,0 -0.04869,7.5e-4 -0.0625,0 -0.05385,-0.0056 -0.102679,-0.02082 -0.15625,-0.03125 -0.05075,-0.0099 -0.10832,-0.01716 -0.15625,-0.03125 -0.011,-0.0031 -0.02054,0.0031 -0.03125,0 -8.46e-4,-2.83e-4 0.0016,-0.02866 0,-0.03125 -0.05075,-0.01664 -0.107759,-0.01124 -0.15625,-0.03125 -0.0059,-0.0029 0.0051,-0.029 0,-0.03125 -0.04454,-0.0186 -0.08243,-0.0093 -0.125,-0.03125 -0.0096,-0.0054 -0.0211,-0.02584 -0.03125,-0.03125 -0.04511,-0.02509 -0.113114,-0.06556 -0.15625,-0.09375 -0.03975,-0.0265 -0.08779,-0.06414 -0.125,-0.09375 -0.0081,-0.0059 -0.0242,0.007 -0.03125,0 -0.04087,-0.03299 -0.05683,-0.08778 -0.09375,-0.125 -0.0056,-0.0059 -0.02611,0.0059 -0.03125,0 -0.03411,-0.03383 -0.06274,-0.08779 -0.09375,-0.125 -0.0059,-0.0063 -0.0253,0.0068 -0.03125,0 -0.03299,-0.04116 -0.06386,-0.08073 -0.09375,-0.125 -0.0051,-0.0065 0.0051,-0.0242 0,-0.03125 -0.0115,-0.01776 -0.01941,-0.04474 -0.03125,-0.0625 -0.01269,-0.02086 -0.01914,-0.04107 -0.03125,-0.0625 -0.0045,-0.0085 -0.02675,-0.0228 -0.03125,-0.03125 -0.02481,-0.04792 -0.04135,-0.0751 -0.0625,-0.125 -0.0036,-0.009 0.0036,-0.02166 0,-0.03125 -0.01747,-0.04285 -0.0484,-0.111711 -0.0625,-0.15625 -0.0036,-0.01213 0.004,-0.01912 0,-0.03125 -0.0155,-0.05329 -0.05066,-0.100991 -0.0625,-0.15625 -0.0099,-0.05159 0.0057,-0.102969 0,-0.15625 -5.64e-4,-0.01269 5e-4,-0.04952 0,-0.0625 -0.0056,-0.05807 -0.03125,-0.09535 -0.03125,-0.15625 l 0,-6.0625 c 0,-0.571171 0.27956,-1.093557 0.6875,-1.4375 0.317724,-0.267261 0.711661,-0.40625 1.15625,-0.40625 0.05893,0 0.130267,-0.0051 0.1875,0 0.01776,0.0028 0.01378,-0.002 0.03125,0 0.04116,0.0054 0.08356,0.02392 0.125,0.03125 0.01776,0.0034 0.04501,-0.0039 0.0625,0 0.04736,0.01042 0.07877,0.01715 0.125,0.03125 0.0074,0.0028 0.02335,-0.0017 0.03125,0 0.05273,0.01691 0.105499,0.04136 0.15625,0.0625 0.01523,0.0059 0.01744,0.02476 0.03125,0.03125 0.03694,0.01663 0.08976,0.04333 0.125,0.0625 0.01579,0.0082 0.01574,-0.0085 0.03125,0 0.03778,0.02114 0.08808,0.03882 0.125,0.0625 0.0099,0.0065 0.0211,0.0242 0.03125,0.03125 0.04454,0.03017 0.08243,0.05964 0.125,0.09375 0.01013,0.0082 0.0211,0.02251 0.03125,0.03125 0.03129,0.02678 0.06415,0.06471 0.09375,0.09375 0.01269,0.01184 0.0194,0.01885 0.03125,0.03125 0.02904,0.02932 0.06697,0.06246 0.09375,0.09375 0.0093,0.01071 0.02166,0.02026 0.03125,0.03125 0.03411,0.04201 0.06301,0.08074 0.09375,0.125 0.0056,0.0079 -0.0051,0.02308 0,0.03125 0.02537,0.03749 0.07119,0.05485 0.09375,0.09375 0.0079,0.01466 0.02364,0.04756 0.03125,0.0625 0.01974,0.03609 0.01546,0.0571 0.03125,0.09375 0.0059,0.01437 0.02533,0.04898 0.03125,0.0625 0.0025,0.0034 -0.0016,0.02787 0,0.03125 0.0081,0.02255 0.0242,0.03937 0.03125,0.0625 0.0079,0.0234 0.02307,0.03854 0.03125,0.0625 0.0093,0.03326 0.02307,0.05964 0.03125,0.09375 0.0059,0.02396 -0.0042,0.0695 0,0.09375 0.0081,0.03777 0.0273,0.05485 0.03125,0.09375 0.004,0.02057 -0.0019,0.04136 0,0.0625 0.0063,0.0609 0,0.126045 0,0.1875 l 0,0.3125 c 0.03975,0 0.08243,-0.02988 0.125,-0.03125 l 0.0625,0 c 0.03045,0 0.06274,0 0.09375,0 0.04116,0 0.08243,0.0011 0.125,0 0.02425,0 0.03798,0 0.0625,0 0.06061,0 0.125756,0.0011 0.1875,0 0.235685,-0.0054 0.482175,0.0063 0.75,0 0.06315,0 0.122376,-0.02975 0.1875,-0.03125 0.01325,-2.82e-4 0.04925,-2.82e-4 0.0625,0 0.08852,-0.0029 0.15612,0.003 0.25,0 l 0,-0.25 c 0,-0.04595 0.0018,-0.07933 0,-0.125 l 0,-0.03125 c -0.0022,-0.03326 0.0018,-0.06104 0,-0.09375 -0.0029,-0.03158 0.0022,-0.06245 0,-0.09375 -0.0029,-0.03073 0.004,-0.06301 0,-0.09375 -0.0034,-0.02819 -0.0265,-0.06556 -0.03125,-0.09375 -0.0034,-0.02933 0.0045,-0.065 0,-0.09375 -0.0059,-0.03185 -0.02499,-0.06217 -0.03125,-0.09375 -0.0056,-0.0296 0.007,-0.06444 0,-0.09375 -0.0059,-0.03073 -0.0242,-0.06246 -0.03125,-0.09375 -0.0076,-0.02904 -0.02421,-0.06471 -0.03125,-0.09375 -0.0074,-0.02932 -0.02279,-0.06471 -0.03125,-0.09375 -0.0081,-0.02847 -0.02251,-0.03459 -0.03125,-0.0625 -0.0087,-0.0265 0.009,-0.06809 0,-0.09375 -0.002,-0.0028 -0.03075,0.0028 -0.03125,0 -0.0099,-0.02819 -0.02025,-0.06612 -0.03125,-0.09375 -0.0096,-0.0265 0.01071,-0.03628 0,-0.0625 -0.0011,-0.0028 -0.03012,-0.02871 -0.03125,-0.03125 -0.01125,-0.02847 -0.01941,-0.03487 -0.03125,-0.0625 -0.007,-0.01635 0.0073,-0.04671 0,-0.0625 -0.0025,-0.0068 -0.02837,0.0065 -0.03125,0 -0.03186,-0.06822 -0.05851,-0.152499 -0.09375,-0.21875 -0.0375,-0.07076 -0.0813,-0.151653 -0.125,-0.21875 -0.0067,-0.01212 -0.02391,-0.01997 -0.03125,-0.03125 -0.0031,-0.0051 0.0031,-0.02674 0,-0.03125 -0.03975,-0.06033 -0.08131,-0.09846 -0.125,-0.15625 -0.0051,-0.0076 -0.02613,-0.02364 -0.03125,-0.03125 -0.04905,-0.06428 -0.07425,-0.126041 -0.125,-0.1875 -0.01212,-0.01325 -0.0197,-0.018 -0.03125,-0.03125 -0.04624,-0.05272 -0.107199,-0.106069 -0.15625,-0.15625 -0.0042,-0.0039 0.0039,-0.02703 0,-0.03125 -0.0042,-0.0051 -0.02562,0.0054 -0.03125,0 -0.05554,-0.05667 -0.09677,-0.103531 -0.15625,-0.15625 -0.01325,-0.011 -0.04954,-0.02026 -0.0625,-0.03125 -0.05215,-0.04511 -0.102402,-0.113679 -0.15625,-0.15625 -0.01038,-0.0073 -0.02083,0.0073 -0.03125,0 -0.06456,-0.04849 -0.121811,-0.111988 -0.1875,-0.15625 -0.01237,-0.0079 -0.0197,-0.02364 -0.03125,-0.03125 -0.05836,-0.03806 -0.127163,-0.05907 -0.1875,-0.09375 -0.01381,-0.0079 -0.018,-0.02336 -0.03125,-0.03125 -0.07048,-0.03919 -0.146014,-0.05879 -0.21875,-0.09375 -0.009,-0.0039 -0.0225,-0.02702 -0.03125,-0.03125 -0.04821,-0.02199 -0.106912,-0.04192 -0.15625,-0.0625 -0.01608,-0.0062 -0.01574,-0.02505 -0.03125,-0.03125 -0.01776,-0.0065 -0.0453,0.0062 -0.0625,0 -0.0764,-0.02904 -0.172471,-0.07007 -0.25,-0.09375 -0.0081,-0.0028 -0.02251,0.0025 -0.03125,0 -0.06879,-0.02002 -0.11702,-0.04643 -0.1875,-0.0625 -0.01974,-0.0048 -0.04361,0.0051 -0.0625,0 -0.0764,-0.01663 -0.141786,-0.05038 -0.21875,-0.0625 -0.0045,-2.82e-4 -0.02788,0 -0.03125,0 -0.01776,-0.0028 -0.04501,0.002 -0.0625,0 -0.0578,-0.007 -0.128854,-0.02617 -0.1875,-0.03125 -0.02171,-0.0028 -0.04051,0.0017 -0.0625,0 -0.08373,-0.0059 -0.165141,0 -0.25,0 -0.03439,0 -0.05992,0 -0.09375,0 -0.02933,0 -0.06499,-0.0028 -0.09375,0 -0.03243,0.0028 -0.06246,-0.002 -0.09375,0 z m 18.75,0 c -0.04116,0.0028 -0.08413,0.02701 -0.125,0.03125 -0.02255,0.0028 -0.03939,-0.0028 -0.0625,0 -0.02791,0.0034 -0.06471,-0.0042 -0.09375,0 -0.011,0 -0.02081,-0.0011 -0.03125,0 -0.02537,0.0039 -0.03656,0.02617 -0.0625,0.03125 -0.02565,0.0042 -0.06809,-0.0051 -0.09375,0 -0.0099,0.0028 -0.02139,-0.002 -0.03125,0 -0.0265,0.0059 -0.03628,0.02533 -0.0625,0.03125 -0.0344,0.007 -0.06049,0.02279 -0.09375,0.03125 -0.02679,0.0065 -0.06696,-0.0073 -0.09375,0 -0.0327,0.009 -0.06104,0.0211 -0.09375,0.03125 -0.02621,0.0082 -0.0681,0.02307 -0.09375,0.03125 -0.02255,0.0073 -0.07063,0.02336 -0.09375,0.03125 -0.02594,0.0093 -0.03685,0.02166 -0.0625,0.03125 -0.03073,0.01213 -0.06274,0.01856 -0.09375,0.03125 -0.02621,0.01128 -0.03796,0.01997 -0.0625,0.03125 -0.02142,0.0093 -0.07148,0.02138 -0.09375,0.03125 -0.0076,0.0039 0.0084,0.02701 0,0.03125 -0.02452,0.01184 -0.06865,0.01913 -0.09375,0.03125 -0.02933,0.01522 -0.065,0.01546 -0.09375,0.03125 -0.02481,0.01297 -0.03883,0.04869 -0.0625,0.0625 -0.02933,0.01607 -0.0664,0.01434 -0.09375,0.03125 -0.02396,0.01381 -0.03881,0.01659 -0.0625,0.03125 -0.02763,0.01748 -0.03572,0.04446 -0.0625,0.0625 -0.02369,0.01522 -0.07063,0.04615 -0.09375,0.0625 -0.02369,0.01691 -0.0391,0.01434 -0.0625,0.03125 -0.02199,0.01635 -0.04079,0.04559 -0.0625,0.0625 -0.0265,0.0203 -0.06894,0.04192 -0.09375,0.0625 -0.02057,0.01691 -0.04191,0.0453 -0.0625,0.0625 -0.02537,0.02143 -0.0377,0.04023 -0.0625,0.0625 -0.01974,0.01776 -0.04417,0.04417 -0.0625,0.0625 -0.02481,0.02284 -0.03938,0.0391 -0.0625,0.0625 -0.01945,0.01804 -0.04445,0.01292 -0.0625,0.03125 -0.0048,0.0059 -0.02675,0.02562 -0.03125,0.03125 -0.0186,0.01861 -0.01461,0.04389 -0.03125,0.0625 -0.01748,0.01889 -0.04502,0.04333 -0.0625,0.0625 -0.02255,0.02537 -0.04193,0.03741 -0.0625,0.0625 -0.01691,0.01945 -0.04615,0.04276 -0.0625,0.0625 -0.0085,0.01071 -0.02279,0.02026 -0.03125,0.03125 -0.01212,0.01551 -0.01941,0.04671 -0.03125,0.0625 -0.01438,0.01974 -0.01604,0.04305 -0.03125,0.0625 -0.0062,0.0085 -0.0259,-0.0082 -0.03125,0 -0.0141,0.01861 -0.01772,0.04333 -0.03125,0.0625 -0.01381,0.01945 -0.05009,0.0422 -0.0625,0.0625 -0.0074,0.011 0.0073,0.02054 0,0.03125 -0.01075,0.01776 -0.0211,0.04474 -0.03125,0.0625 -0.01238,0.01974 -0.05066,0.04248 -0.0625,0.0625 -0.011,0.01861 -0.0211,0.04361 -0.03125,0.0625 -0.0059,0.01127 0.0062,0.02054 0,0.03125 -0.011,0.01945 -0.0197,0.04305 -0.03125,0.0625 0,0 -0.03012,0 -0.03125,0 -0.0062,0.0141 0.0073,0.04925 0,0.0625 -0.0088,0.0172 -0.0228,0.01462 -0.03125,0.03125 -0.0023,0.0042 0.0014,0.0273 0,0.03125 -0.0099,0.01833 -0.02168,0.04333 -0.03125,0.0625 -0.01381,0.02988 -0.01744,0.06302 -0.03125,0.09375 -8.45e-4,0.0028 -0.03125,-0.0017 -0.03125,0 -0.007,0.01748 0.0068,0.0453 0,0.0625 l -0.03125,0 c -0.0141,0.03383 -0.018,0.05936 -0.03125,0.09375 -0.0092,0.02255 -0.0228,0.03966 -0.03125,0.0625 -0.01381,0.03778 -0.01941,0.08666 -0.03125,0.125 -0.0065,0.02002 -0.02532,0.04276 -0.03125,0.0625 -0.01974,0.06541 -0.0149,0.120685 -0.03125,0.1875 0,0.0034 0,0.02703 0,0.03125 -0.01269,0.04877 -0.02139,0.07595 -0.03125,0.125 -0.0051,0.02425 -0.02612,0.06922 -0.03125,0.09375 -0.0062,0.03496 0.0051,0.05766 0,0.09375 -0.0045,0.02791 -0.02725,0.06527 -0.03125,0.09375 -0.0045,0.03186 0.0042,0.0619 0,0.09375 -0.0034,0.03073 0.0016,0.06274 0,0.09375 -0.0034,0.02819 -0.03075,0.065 -0.03125,0.09375 -0.0054,0.06991 0,0.147705 0,0.21875 l 0,6 c 0,0.07781 -0.0048,0.14235 0,0.21875 5.64e-4,0.02115 -0.0018,0.0422 0,0.0625 0.0051,0.06681 0.02365,0.15278 0.03125,0.21875 0.0018,0.01187 -0.002,0.01969 0,0.03125 0.0096,0.07528 0.01687,0.144886 0.03125,0.21875 0.0034,0.02086 0.02738,0.04277 0.03125,0.0625 0.01238,0.06061 0.01659,0.127733 0.03125,0.1875 0.004,0.0172 -0.0045,0.01434 0,0.03125 0.01945,0.07274 0.03995,0.147143 0.0625,0.21875 0.0048,0.0172 0.02565,0.04502 0.03125,0.0625 0.01945,0.05807 0.04108,0.09987 0.0625,0.15625 0.0065,0.01833 0.02364,0.0453 0.03125,0.0625 0.02706,0.07047 0.03092,0.151653 0.0625,0.21875 0.0051,0.01237 0.02499,0.01969 0.03125,0.03125 0.02819,0.05807 0.06217,0.09902 0.09375,0.15625 0.0042,0.0065 -0.004,0.02392 0,0.03125 0.0059,0.011 0.02534,0.01997 0.03125,0.03125 0.02537,0.04567 0.036,0.08074 0.0625,0.125 0.0079,0.01438 0.02251,0.04925 0.03125,0.0625 0.03609,0.05751 0.08666,0.100434 0.125,0.15625 0.0088,0.01269 0.02166,0.01941 0.03125,0.03125 0.03045,0.04285 0.0619,0.08468 0.09375,0.125 0.0141,0.01776 0.01771,0.0453 0.03125,0.0625 0.03016,0.03721 0.06189,0.08891 0.09375,0.125 0.01381,0.01523 0.01715,0.01574 0.03125,0.03125 0.04172,0.04595 0.08046,0.0813 0.125,0.125 0.0031,0.0042 0.02787,0.02788 0.03125,0.03125 0.04878,0.04736 0.07398,0.08074 0.125,0.125 0.01269,0.0115 0.0484,0.01997 0.0625,0.03125 0.03806,0.03299 0.05315,0.06161 0.09375,0.09375 0.01691,0.01213 0.04644,0.0501 0.0625,0.0625 0.04201,0.03101 0.0813,0.03346 0.125,0.0625 0.01212,0.0085 0.01856,0.02307 0.03125,0.03125 0.0578,0.0375 0.127448,0.09089 0.1875,0.125 0.0561,0.03185 0.129146,0.06585 0.1875,0.09375 0.01466,0.0065 0.01631,-0.0073 0.03125,0 0.04905,0.02255 0.107192,0.04191 0.15625,0.0625 0.01664,0.0063 0.04671,0.02559 0.0625,0.03125 0.06005,0.02369 0.09535,0.04249 0.15625,0.0625 0.0048,0 0.02612,-0.0018 0.03125,0 0.06935,0.02058 0.14686,0.04672 0.21875,0.0625 0.05949,0.01325 0.125196,0.02195 0.1875,0.03125 0.01691,0.0029 0.04502,0.02925 0.0625,0.03125 0.05893,0.0081 0.127445,-0.0042 0.1875,0 0.01438,0.0029 0.01743,-8.75e-4 0.03125,0 0.07528,0.0056 0.141504,0.03125 0.21875,0.03125 0.194806,0 0.41807,-0.02641 0.625,-0.0625 l 2.3125,-0.375 c -0.0059,-0.04934 -0.02621,-0.07595 -0.03125,-0.125 -0.0029,-0.02933 0.0026,-0.06471 0,-0.09375 -0.0018,-0.02086 0.0023,-0.04164 0,-0.0625 -0.0029,-0.0327 0.0015,-0.05991 0,-0.09375 -0.0018,-0.01776 -0.02988,-0.04501 -0.03125,-0.0625 -0.0029,-0.03524 0.0023,-0.08835 0,-0.125 -8.46e-4,-0.0155 0.0011,-0.01462 0,-0.03125 -0.0029,-0.03919 0.0023,-0.08356 0,-0.125 0,-0.01125 0.0017,-0.01941 0,-0.03125 -0.0079,-0.13955 -0.02476,-0.277651 -0.03125,-0.4375 -5.64e-4,-0.01213 6.22e-4,-0.01884 0,-0.03125 l 0,-0.03125 c -0.0029,-0.06146 0.0023,-0.121247 0,-0.1875 0,-0.01635 0.0011,-0.01349 0,-0.03125 l 0,-0.03125 -2.4375,0 c -0.05949,0 -0.129139,0.006 -0.1875,0 -0.0099,0 -0.02081,2.5e-4 -0.03125,0 -0.0578,-0.0059 -0.131963,-0.01914 -0.1875,-0.03125 -0.05497,-0.0115 -0.103247,-0.01519 -0.15625,-0.03125 -0.0088,-0.0029 -0.02308,-0.02863 -0.03125,-0.03125 -0.053,-0.01691 -0.105229,-0.04164 -0.15625,-0.0625 -0.04793,-0.01974 -0.110576,-0.03741 -0.15625,-0.0625 -0.04849,-0.0265 -0.111705,-0.06275 -0.15625,-0.09375 -0.04116,-0.02989 -0.08666,-0.06161 -0.125,-0.09375 -0.0065,-0.0054 -0.02447,-0.0259 -0.03125,-0.03125 -0.04116,-0.03468 -0.08723,-0.05484 -0.125,-0.09375 -0.0054,-0.0048 0.0057,-0.02505 0,-0.03125 -0.03355,-0.03439 -0.06217,-0.05541 -0.09375,-0.09375 -0.0059,-0.0065 -0.02561,-0.02505 -0.03125,-0.03125 -0.03326,-0.04172 -0.06415,-0.08074 -0.09375,-0.125 -0.0065,-0.009 0.0065,-0.02194 0,-0.03125 -0.011,-0.01776 -0.02194,-0.04332 -0.03125,-0.0625 -0.01269,-0.02086 -0.04925,-0.0408 -0.0625,-0.0625 -0.0056,-0.01012 0.0051,-0.0211 0,-0.03125 -0.02537,-0.04736 -0.04164,-0.07482 -0.0625,-0.125 -0.0036,-0.0099 -0.02675,-0.02082 -0.03125,-0.03125 -0.01776,-0.04201 -0.01686,-0.112556 -0.03125,-0.15625 -0.0036,-0.01187 0.0034,-0.018 0,-0.03125 -0.01635,-0.05271 -0.05094,-0.102401 -0.0625,-0.15625 -0.0018,-0.0079 0.0023,-0.02364 0,-0.03125 -0.0092,-0.04821 -0.02674,-0.07566 -0.03125,-0.125 -0.0023,-0.01438 0.0011,-0.04784 0,-0.0625 -0.0056,-0.05666 0,-0.09733 0,-0.15625 l 0,-2.0625 4.65625,0 c 0.265006,0 0.512428,-0.10815 0.6875,-0.28125 0.175636,-0.171689 0.28125,-0.409245 0.28125,-0.6875 l 0,-2.96875 c 0.002,-0.06513 0.0026,-0.122376 0,-0.1875 -8.46e-4,-0.0068 0,-0.02393 0,-0.03125 -0.004,-0.05525 0.0051,-0.102126 0,-0.15625 -0.0011,-0.0087 6.25e-4,-0.02251 0,-0.03125 -0.0034,-0.0313 -0.02725,-0.06274 -0.03125,-0.09375 -0.0036,-0.01945 0.0023,-0.04305 0,-0.0625 -0.0029,-0.01776 0.0023,-0.04559 0,-0.0625 -0.0065,-0.042 -0.02364,-0.08384 -0.03125,-0.125 -0.0031,-0.01889 0.0042,-0.01209 0,-0.03125 -0.0067,-0.03326 -0.02308,-0.09202 -0.03125,-0.125 -0.0051,-0.01889 -0.02594,-0.04361 -0.03125,-0.0625 -0.0059,-0.0234 0.0056,-0.0391 0,-0.0625 -0.0059,-0.01776 -0.02559,-0.04474 -0.03125,-0.0625 -0.0042,-0.01494 0.0051,-0.01603 0,-0.03125 -0.0023,-0.0068 0.0018,-0.02448 0,-0.03125 -0.01579,-0.04821 -0.0453,-0.108888 -0.0625,-0.15625 -0.0051,-0.01156 0.0048,-0.01997 0,-0.03125 -0.01608,-0.04229 -0.0453,-0.08356 -0.0625,-0.125 -0.0085,-0.01945 -0.02251,-0.04305 -0.03125,-0.0625 -0.0099,-0.02227 -0.02139,-0.04136 -0.03125,-0.0625 -0.03326,-0.07048 -0.05625,-0.150807 -0.09375,-0.21875 -0.0056,-0.01015 -0.0253,-0.02167 -0.03125,-0.03125 -0.03214,-0.06061 -0.05766,-0.129424 -0.09375,-0.1875 -0.01188,-0.01917 -0.01829,-0.04333 -0.03125,-0.0625 -0.03326,-0.05216 -0.08835,-0.105786 -0.125,-0.15625 -0.0074,-0.01127 -0.02308,-0.01997 -0.03125,-0.03125 -0.04651,-0.06259 -0.0751,-0.128296 -0.125,-0.1875 -0.0141,-0.01635 -0.04812,-0.01575 -0.0625,-0.03125 -0.04539,-0.053 -0.07595,-0.106068 -0.125,-0.15625 -0.0029,-0.0037 -0.02837,-0.02759 -0.03125,-0.03125 -0.04961,-0.05075 -0.103252,-0.108887 -0.15625,-0.15625 -0.01325,-0.01156 -0.04869,-0.01969 -0.0625,-0.03125 -0.05046,-0.04398 -0.103252,-0.11509 -0.15625,-0.15625 -0.01125,-0.0085 -0.02025,0.0087 -0.03125,0 -0.06286,-0.04764 -0.123223,-0.112833 -0.1875,-0.15625 -0.01381,-0.0096 -0.01715,-0.02223 -0.03125,-0.03125 -0.05554,-0.0358 -0.129985,-0.06133 -0.1875,-0.09375 -0.0092,-0.0059 -0.02053,-0.02533 -0.03125,-0.03125 -0.06822,-0.03862 -0.147706,-0.05964 -0.21875,-0.09375 -0.0056,-0.0028 0.0059,-0.02844 0,-0.03125 -0.0085,-0.0042 -0.02166,0.0039 -0.03125,0 -0.04595,-0.02086 -0.110012,-0.04333 -0.15625,-0.0625 -0.01381,-0.0059 -0.01715,-0.02589 -0.03125,-0.03125 -0.01776,-0.0073 -0.04417,0.0068 -0.0625,0 -0.07386,-0.02904 -0.14235,-0.07007 -0.21875,-0.09375 -0.01354,-0.0042 -0.018,0.0045 -0.03125,0 -0.06456,-0.01945 -0.15278,-0.04671 -0.21875,-0.0625 -0.01974,-0.0048 -0.04136,0.0048 -0.0625,0 -0.07752,-0.01748 -0.137839,-0.04981 -0.21875,-0.0625 -0.0081,0 -0.02194,8.38e-4 -0.03125,0 -0.07245,-0.01071 -0.144324,-0.02505 -0.21875,-0.03125 -0.02115,-0.0028 -0.04051,0.0017 -0.0625,0 -0.0036,0 -0.02675,2.82e-4 -0.03125,0 -0.07415,-0.0054 -0.142631,5.63e-4 -0.21875,0 -0.05131,0 -0.104376,-0.0011 -0.15625,0 -0.03524,0.0028 -0.08949,-0.0028 -0.125,0 z m -6.78125,0.1875 -0.125,0.21875 -2.09375,3.5 -1,1.65625 c -0.053,0.09134 -0.117058,0.176419 -0.15625,0.25 -0.0059,0.009 0.0045,0.02308 0,0.03125 -0.01438,0.02679 -0.01913,0.0391 -0.03125,0.0625 -0.0059,0.01125 -0.02534,0.02083 -0.03125,0.03125 -0.0076,0.01608 -0.02505,0.04614 -0.03125,0.0625 -0.0054,0.0115 0.005,0.02054 0,0.03125 -0.0079,0.01776 -0.02421,0.04474 -0.03125,0.0625 -0.004,0.01013 0.0045,0.0211 0,0.03125 -0.0059,0.01635 -0.02724,0.01574 -0.03125,0.03125 -0.0036,0.01013 0.0025,0.02166 0,0.03125 -0.0051,0.01494 -0.0285,0.04869 -0.03125,0.0625 -0.002,0.0099 0.0011,0.02139 0,0.03125 -0.0029,0.01437 0.0011,0.0163 0,0.03125 -0.0011,0.0081 0,0.02195 0,0.03125 -0.0011,0.01494 -5.64e-4,0.01659 0,0.03125 0,0.0081 -0.0011,0.02391 0,0.03125 0.0022,0.01691 -0.0019,0.04502 0,0.0625 0.0045,0.0203 0.02471,0.04192 0.03125,0.0625 0.03016,0.09529 0.08351,0.21322 0.15625,0.34375 0.0036,0.0065 -0.004,0.02476 0,0.03125 0.02086,0.0358 0.03995,0.05456 0.0625,0.09375 l 3.6875,6.40625 2.125,0 -3.8125,-6.78125 -0.0625,-0.15625 -0.0625,-0.09375 3.5,-5.9375 0.125,-0.1875 0.03125,-0.0625 -0.25,0 -1.96875,0 z m 7.0625,1.75 c 0.05779,0 0.09986,-0.0051 0.15625,0 0.01776,0 0.04586,-0.002 0.0625,0 0.04087,0.0051 0.08581,0.02421 0.125,0.03125 0.01776,0.0034 0.01405,-0.0037 0.03125,0 0.04793,0.011 0.1086,0.01659 0.15625,0.03125 0.05272,0.01663 0.105782,0.04135 0.15625,0.0625 0.01438,0.0059 0.04868,0.02476 0.0625,0.03125 0.03694,0.01663 0.05851,0.04333 0.09375,0.0625 0.01494,0.0082 0.01602,-0.0082 0.03125,0 0.03946,0.02255 0.08695,0.06838 0.125,0.09375 0.007,0.0051 0.02449,-0.0051 0.03125,0 0.04454,0.03045 0.08384,0.05964 0.125,0.09375 0.0115,0.009 0.01913,0.02138 0.03125,0.03125 0.02989,0.02622 0.06556,0.06584 0.09375,0.09375 0.01269,0.0124 0.01969,0.01856 0.03125,0.03125 0.0296,0.03073 0.06556,0.06105 0.09375,0.09375 0.0074,0.0093 0.02335,0.02167 0.03125,0.03125 0.03355,0.04144 0.0633,0.08102 0.09375,0.125 0.0081,0.0124 -0.0082,0.01885 0,0.03125 0.02171,0.03383 0.04278,0.08976 0.0625,0.125 0.009,0.01635 0.02223,0.01462 0.03125,0.03125 0.01889,0.03609 0.04586,0.08807 0.0625,0.125 0.0059,0.01381 0.02617,0.01771 0.03125,0.03125 0.0011,0.0034 -0.0016,0.02787 0,0.03125 0.0081,0.02255 0.02224,0.03939 0.03125,0.0625 0.0088,0.02735 0.02251,0.03459 0.03125,0.0625 0.0099,0.03299 -0.0082,0.09145 0,0.125 0.007,0.02594 0.02589,0.03656 0.03125,0.0625 0.0081,0.04004 0.0259,0.08384 0.03125,0.125 0.0029,0.02086 -0.0023,0.04136 0,0.0625 0.0056,0.06203 0,0.123222 0,0.1875 l 0,2.03125 -0.0625,0 -3.34375,0 -0.1875,0 -0.125,0 0,-2.03125 c 0,-0.844916 0.551877,-1.573149 1.3125,-1.8125 0.1762,-0.05498 0.367693,-0.0625 0.5625,-0.0625 z m -48.9375,0.6875 c 0.02735,0 0.06697,-0.0042 0.09375,0 0.01354,0 0.018,-0.0017 0.03125,0 0.02058,0.0028 0.04276,0.02759 0.0625,0.03125 0.01354,0.0028 0.01771,-0.0025 0.03125,0 0.0203,0.0051 0.04249,0.02505 0.0625,0.03125 0.0115,0.0034 0.01969,-0.0042 0.03125,0 0.02989,0.0099 0.06471,0.01885 0.09375,0.03125 0.0085,0.0037 0.0228,-0.0042 0.03125,0 0.02143,0.0096 0.04192,0.02026 0.0625,0.03125 0.01125,0.0065 0.02054,0.02476 0.03125,0.03125 0.01776,0.01071 0.04502,0.01997 0.0625,0.03125 0.01075,0.0068 0.02139,0.02448 0.03125,0.03125 0.01918,0.01381 0.04417,0.01659 0.0625,0.03125 0.007,0.0056 -0.0068,0.02477 0,0.03125 0.02481,0.0203 0.07091,0.03938 0.09375,0.0625 0.01691,0.01776 0.04671,0.04389 0.0625,0.0625 0.007,0.0085 -0.007,0.0228 0,0.03125 0.0141,0.01805 0.04925,0.04389 0.0625,0.0625 0.01635,0.02481 0.04841,0.06725 0.0625,0.09375 0.0155,0.0296 0.01771,0.06217 0.03125,0.09375 0.0031,0.007 0.02838,0.02336 0.03125,0.03125 0.0063,0.01579 -0.0056,0.0149 0,0.03125 0.0029,0.0076 -0.0027,0.02336 0,0.03125 0.0034,0.0115 0.02737,0.01969 0.03125,0.03125 0.0063,0.02199 -0.005,0.03994 0,0.0625 0.0031,0.01269 0.02925,0.04981 0.03125,0.0625 0.0048,0.02453 -0.0031,0.03712 0,0.0625 0.0018,0.01013 -8.75e-4,0.02138 0,0.03125 0.0034,0.03609 0,0.0571 0,0.09375 l 0,1.40625 -0.0625,0 -1.84375,0 -0.21875,0 -0.125,0 0,-1.375 c 0,-0.628401 0.527284,-1.15625 1.15625,-1.15625 z m 20.09375,3.875 1.84375,0 0,0.25 0,1 0,2 c 0,0.216515 -0.02806,0.431602 -0.09375,0.625 -0.230611,0.678301 -0.825841,1.174727 -1.5625,1.25 -0.06315,0.0068 -0.122376,0.03125 -0.1875,0.03125 -0.05779,0 -0.131399,-0.02625 -0.1875,-0.03125 -0.01381,0 -0.018,0.0014 -0.03125,0 -0.05554,-0.0059 -0.102684,0.011 -0.15625,0 -0.0048,0 -0.027,-0.0305 -0.03125,-0.03125 -0.05019,-0.01037 -0.107478,-0.01602 -0.15625,-0.03125 -0.0093,-0.0029 -0.02195,0.0029 -0.03125,0 -0.05159,-0.01664 -0.107198,-0.04164 -0.15625,-0.0625 -0.04398,-0.0186 -0.08327,-0.03994 -0.125,-0.0625 -0.01038,-0.0059 -0.02139,-0.0248 -0.03125,-0.03125 -0.04624,-0.02594 -0.112271,-0.0329 -0.15625,-0.0625 -0.007,-0.0056 0.0073,-0.02561 0,-0.03125 -0.03834,-0.0265 -0.08891,-0.06415 -0.125,-0.09375 -0.0085,-0.0074 -0.02336,0.007 -0.03125,0 -0.04031,-0.03411 -0.05654,-0.08665 -0.09375,-0.125 -0.007,-0.0059 -0.0242,0.0073 -0.03125,0 -0.03157,-0.0327 -0.06415,-0.08948 -0.09375,-0.125 -0.0063,-0.0076 -0.02505,-0.02449 -0.03125,-0.03125 -0.0327,-0.04116 -0.06471,-0.08187 -0.09375,-0.125 -0.0065,-0.01012 0.0068,-0.02081 0,-0.03125 -0.01038,-0.01635 -0.02139,-0.01405 -0.03125,-0.03125 -0.01269,-0.02115 -0.01941,-0.04136 -0.03125,-0.0625 -0.0059,-0.01037 -0.02561,-0.01997 -0.03125,-0.03125 -0.02452,-0.0468 -0.04164,-0.1072 -0.0625,-0.15625 -0.0051,-0.011 -0.02704,-0.02025 -0.03125,-0.03125 -0.01635,-0.04116 -0.018,-0.08299 -0.03125,-0.125 -0.0045,-0.01438 -0.02669,-0.018 -0.03125,-0.03125 -0.01494,-0.05159 -0.02025,-0.102688 -0.03125,-0.15625 -0.0022,-0.01075 0.0022,-0.02026 0,-0.03125 -0.0081,-0.0437 -0.02618,-0.07876 -0.03125,-0.125 -0.002,-0.0172 0.0018,-0.04559 0,-0.0625 -0.0045,-0.05244 2.5e-4,-0.102971 0,-0.15625 0,-0.0042 0,-0.02675 0,-0.03125 l 0,-1.375 c 0,-0.519016 0.195765,-1.0077 0.53125,-1.34375 0.335486,-0.335485 0.823887,-0.53125 1.34375,-0.53125 z"
       id="path7"
       style="color:#000000;fill:#333333;fill-opacity:1;fill-rule:nonzero;stroke-width:0.99999994;stroke-linecap:butt;stroke-linejoin:miter;stroke-miterlimit:4;stroke-opacity:1;stroke-dasharray:none;stroke-dashoffset:0;marker:none;visibility:visible;display:inline;overflow:visible;enable-background:accumulate"
       inkscape:connector-curvature="0" />
  </g>
</svg>
