<?xml version="1.0" encoding="UTF-8" standalone="no"?>
<!-- Created with Inkscape (http://www.inkscape.org/) -->

<svg
   xmlns:dc="http://purl.org/dc/elements/1.1/"
   xmlns:cc="http://creativecommons.org/ns#"
   xmlns:rdf="http://www.w3.org/1999/02/22-rdf-syntax-ns#"
   xmlns:svg="http://www.w3.org/2000/svg"
   xmlns="http://www.w3.org/2000/svg"
   xmlns:xlink="http://www.w3.org/1999/xlink"
   xmlns:sodipodi="http://sodipodi.sourceforge.net/DTD/sodipodi-0.dtd"
   xmlns:inkscape="http://www.inkscape.org/namespaces/inkscape"
   version="1.2"
   width="2630.8804"
   height="615.33398"
   id="svg10262"
   inkscape:version="0.48.4 r9939"
   sodipodi:docname="maclife.svg">
  <sodipodi:namedview
     pagecolor="#ffffff"
     bordercolor="#666666"
     borderopacity="1"
     objecttolerance="10"
     gridtolerance="10"
     guidetolerance="10"
     inkscape:pageopacity="0"
     inkscape:pageshadow="2"
     inkscape:window-width="1440"
     inkscape:window-height="845"
     id="namedview281"
     showgrid="false"
     fit-margin-top="0"
     fit-margin-left="0"
     fit-margin-right="0"
     fit-margin-bottom="0"
     inkscape:zoom="0.125"
     inkscape:cx="1393.5457"
     inkscape:cy="468.94701"
     inkscape:window-x="0"
     inkscape:window-y="30"
     inkscape:window-maximized="1"
     inkscape:current-layer="svg10262" />
  <defs
     id="defs10264">
    <linearGradient
       id="linearGradient5010-0-6">
      <stop
         id="stop5012-19-8"
         style="stop-color:#000000;stop-opacity:1"
         offset="0" />
      <stop
         id="stop5014-4-4"
         style="stop-color:#000000;stop-opacity:0"
         offset="1" />
    </linearGradient>
    <filter
       color-interpolation-filters="sRGB"
       id="filter3831-41-3">
      <feGaussianBlur
         id="feGaussianBlur3833-9-1"
         stdDeviation="0.6375" />
    </filter>
    <linearGradient
       x1="65.262688"
       y1="64.205269"
       x2="65.262688"
       y2="50.068527"
       id="linearGradient16187"
       xlink:href="#linearGradient5010-0-6"
       gradientUnits="userSpaceOnUse"
       gradientTransform="matrix(0.625,0,0,0.625,78.5,32.25)" />
  </defs>
  <metadata
     id="metadata10267">
    <rdf:RDF>
      <cc:Work
         rdf:about="">
        <dc:format>image/svg+xml</dc:format>
        <dc:type
           rdf:resource="http://purl.org/dc/dcmitype/StillImage" />
        <dc:title />
      </cc:Work>
    </rdf:RDF>
  </metadata>
  <g
     transform="translate(1100.6848,695.79296)"
     id="layer2" />
  <path
     style="fill:#333333;fill-opacity:1;opacity:1"
     d="M 1013.5 0 L 1013.25 306.5 C 1013.1092 475.075 1013.2051 613.55545 1013.4688 614.25 C 1013.8452 615.241 1021.533 615.45627 1049.2188 615.25 L 1084.5 615 L 1084.5 307.5 L 1084.5 0 L 1049 0 L 1013.5 0 z M 2510.625 58.625 C 2503.5683 58.601316 2499.7737 59.077458 2493.1875 60.4375 C 2468.1964 65.59811 2449.5564 75.84436 2431.9375 94.125 C 2422.8688 103.53418 2417.4816 111.30055 2411.4375 123.71875 C 2406.2374 134.40308 2403.6971 142.38982 2401.5312 154.875 C 2399.4645 166.78846 2399.2109 288.02097 2401.25 288.84375 C 2403.6762 289.82275 2513.6062 289.48754 2524.5 288.46875 C 2539.5045 287.06553 2552.415 283.48768 2565.5 277.125 C 2579.0906 270.51647 2590.2033 262.34482 2600 251.75 C 2613.3247 237.33976 2621.6835 221.71387 2627.6875 199.96875 C 2630.188 190.91266 2630.4313 188.47566 2630.4062 173.5 C 2630.3814 158.77901 2630.1019 155.94897 2627.7188 147.21875 C 2617.5604 110.00379 2596.7823 84.62783 2563.5938 68.90625 C 2548.9058 61.9485 2537.5528 59.36912 2519 58.78125 C 2515.697 58.67659 2512.9772 58.632895 2510.625 58.625 z M 1516.9688 58.65625 C 1516.3478 58.666824 1515.7194 58.685156 1515.0938 58.71875 C 1505.24 59.24786 1497.4153 61.74009 1490.4062 66.5625 C 1463.4434 85.11341 1460.7642 121.60961 1484.75 143.53125 C 1491.211 149.43625 1497.7632 152.99388 1505.7812 154.9375 C 1531.0057 161.05212 1556.5305 146.29335 1564.1562 121.1875 C 1565.8735 115.53551 1566.1681 112.53404 1565.7812 104.5 C 1565.3642 95.83694 1564.8952 93.81701 1561.6875 87.0625 C 1553.1206 69.023203 1536.2182 58.328452 1516.9688 58.65625 z M 1735.0625 58.71875 C 1727.3968 58.775862 1720.4162 59.162475 1716.1562 59.90625 C 1690.3284 64.41569 1671.643 77.96996 1660.9375 99.96875 C 1652.6486 117.00157 1651.7513 122.21345 1651.3125 156.5 C 1651.1048 172.725 1650.7369 186.99452 1650.4688 188.21875 C 1649.9914 190.3981 1649.6371 190.45036 1633.25 190.71875 L 1616.5 191 L 1616.25 227.25 L 1615.9688 263.5 L 1632.2812 263.5 C 1643.6354 263.5 1648.9773 263.85225 1649.8125 264.6875 C 1650.734 265.60896 1651 297.1984 1651 400.71875 L 1651 535.53125 L 1689.25 535.25 L 1727.5 535 L 1727.75 400.0625 C 1727.9501 293.63063 1728.267 264.93674 1729.25 264.3125 C 1729.9355 263.87719 1742.3056 263.508 1756.75 263.5 L 1783.0312 263.5 L 1782.75 227.25 L 1782.5 191 L 1755.5 190.5 L 1728.5 190 L 1728.5 169.5 C 1728.5 146.695 1729.2061 142.61095 1734.1875 136.9375 C 1740.3121 129.96201 1743.542 129 1761 129 C 1774.2873 129 1777.5224 129.32119 1783.6562 131.25 C 1787.5917 132.4875 1791.3041 133.5 1791.9062 133.5 C 1793.5837 133.5 1793.4305 69.08004 1791.75 67.75 C 1789.8659 66.25876 1778.3912 62.66686 1769.9688 60.9375 C 1762.5514 59.414525 1747.8387 58.623563 1735.0625 58.71875 z M 2257.625 59.125 C 2245.3743 59.200542 2242.546 59.654764 2234.6562 61.78125 C 2223.5428 64.77658 2207.3039 72.18185 2198 78.5 C 2194.5643 80.83319 2188.3641 85.95543 2184.2188 89.875 C 2151.8327 120.49692 2139.9246 167.61209 2153.9688 209.53125 C 2168.7129 253.53969 2207.3275 284.30185 2253 288.4375 C 2257.675 288.86082 2287.4298 289.2983 2319.125 289.375 C 2367.8921 289.49299 2376.9371 289.26791 2377.9375 288.0625 C 2378.8288 286.98805 2379.0127 270.7109 2378.7188 221.8125 C 2378.3488 160.31103 2378.2212 156.56414 2376.25 148.5 C 2365.7282 105.45538 2334.4642 73.13366 2292.3438 61.78125 C 2283.3268 59.35098 2280.9157 59.125 2263.5 59.125 C 2261.323 59.125 2259.3751 59.114208 2257.625 59.125 z M 334.96875 75.46875 L 294.71875 75.75 L 254.5 76 L 250.78125 87 C 245.06895 103.94895 188.77925 279.91469 181.59375 303.28125 C 178.08845 314.68015 173.99395 328.85202 172.46875 334.78125 C 170.85825 341.04196 169.22105 345.39662 168.59375 345.1875 C 167.99955 344.98946 166.93845 342.61242 166.21875 339.90625 C 160.86135 319.76198 154.55115 299.16749 137.15625 245 C 126.20565 210.9 109.69515 159.375 100.46875 130.5 C 91.24225 101.625 83.25095 77.4375 82.71875 76.75 C 81.97255 75.78617 72.3942 75.5 40.875 75.5 L 0 75.5 L 0 305.75 L 0 536 L 35.75 535.75 C 55.4129 535.60438 72.0625 535.28087 72.75 535.03125 C 74.1821 534.51127 74.32815 447.4779 73.09375 326 C 72.70295 287.5 72.6924 255.38313 73.0625 254.625 C 74.0517 252.59859 74.286 253.23911 80.5 274.5 C 87.8372 299.60421 108.1595 365.66072 115.875 389.5 C 133.9774 445.43195 162.118 531.31491 163 533.3125 C 163.8378 535.21024 164.64385 535.56719 167.59375 535.3125 L 171.1875 535 L 189.1875 480 C 229.4058 356.97334 239.8814 323.77313 253.1875 277.6875 C 256.5697 265.97321 259.87 255.70526 260.5 254.84375 C 261.3623 253.66439 261.6155 288.06567 261.5625 394.125 L 261.5 535 L 298.5 535 L 335.5 535 L 335.78125 307.5 C 335.93155 182.375 335.7998 78.99373 335.5 77.75 L 334.96875 75.46875 z M 1212.0938 75.65625 C 1196.385 75.677038 1191.3143 76.008752 1190.8438 76.75 C 1189.8839 78.26203 1189.6972 533.8848 1190.6562 534.84375 C 1191.0228 535.21042 1241.8728 535.5 1303.6562 535.5 L 1416 535.5 L 1416 496 L 1416 456.5 L 1345.125 456.5 C 1286.8603 456.5 1274.0456 456.26546 1273.125 455.15625 C 1272.3093 454.17333 1271.934 402.51257 1271.75 264.90625 L 1271.5 76 L 1231.5625 75.75 C 1223.7417 75.69876 1217.33 75.649321 1212.0938 75.65625 z M 818.53125 183.46875 C 783.98435 183.43841 752.53381 197.54161 730.59375 223.5 C 705.5546 253.12508 691.99561 293.44478 689.0625 347 C 685.16391 418.18383 703.24148 479.08557 738 511.875 C 757.61432 530.37815 779.72318 539.88226 810 542.84375 C 811.925 543.03204 814.97208 543.25575 816.78125 543.34375 C 822.36972 543.61564 838.80242 541.45719 846.84375 539.40625 C 856.56165 536.92769 872.55956 529.06218 881.15625 522.53125 C 895.94493 511.29624 910.49732 492.70635 921 471.625 L 926.1875 461.21875 L 923.84375 459.03125 C 920.54558 455.92353 871.30502 420.5 870.28125 420.5 C 869.81793 420.5 866.63035 426.02001 863.21875 432.78125 C 853.58242 451.87887 843.49303 462.80032 831 467.59375 C 822.60589 470.81448 810.50644 470.02905 801.6875 465.6875 C 785.4291 457.68351 774.30736 436.1719 769.46875 403.46875 C 767.26337 388.56307 766.45037 353.85699 767.90625 336.375 C 771.49453 293.28777 782.36484 268.74977 801.875 259.65625 C 806.62855 257.44066 808.88757 257.03125 816.5 257.03125 C 824.22887 257.03125 826.34492 257.40984 831.4375 259.78125 C 843.28246 265.29696 851.08308 274.04083 860.1875 292 C 863.68819 298.90539 865.95069 302.32599 866.8125 302 C 869.72795 300.89719 926.15857 262.2155 926.625 261 C 926.90153 260.27937 924.85081 255.07846 922.03125 249.4375 C 903.08455 211.53162 875.87171 190.64666 838 184.9375 C 831.43051 183.94715 824.92882 183.47437 818.53125 183.46875 z M 516.1875 183.65625 C 488.11393 184.12597 463.93914 189.98439 439.875 201.96875 C 429.65718 207.0574 415 215.88407 415 216.96875 C 415 217.85315 444.16369 269.93979 445.375 271.21875 C 446.25383 272.14666 448.39019 271.30362 454.75 267.59375 C 465.84641 261.12088 476.49485 257.04793 489.0625 254.46875 C 497.73853 252.68826 502.14825 252.37829 515.03125 252.65625 C 530.25594 252.98473 530.66112 253.05235 537.21875 256.28125 C 546.97972 261.08742 553.3571 269.3967 555.96875 280.71875 C 557.15339 285.85439 557.34226 320.5 556.1875 320.5 C 555.74346 320.5 552.32935 318.97324 548.59375 317.09375 C 539.19849 312.36672 528.68803 309.72173 514 308.4375 C 464.75631 304.13195 426.34856 323.97477 406.4375 364 C 396.34665 384.28463 392.04243 409.33051 394.0625 435.875 C 395.26157 451.63121 397.02503 460.62945 401.6875 474.75 C 414.3302 513.03908 444.20189 537.88483 483 542.375 C 493.31563 543.56884 495.42018 543.56241 503.84375 542.46875 C 519.84123 540.39176 536.90048 532.12998 549.5 520.34375 C 552.94273 517.12325 556.02058 514.5 556.34375 514.5 C 556.66692 514.5 557.06201 519.1125 557.21875 524.75 L 557.5 535 L 596 535 L 634.5 535 L 634.78125 417.5 C 634.96675 342.56743 634.70031 294.61648 634.03125 285.125 C 631.67662 251.72114 623.80841 229.87336 608.15625 213.28125 C 590.04035 194.07744 565.86467 185.12035 528.46875 183.78125 C 524.28778 183.63153 520.19801 183.58915 516.1875 183.65625 z M 1944.3438 183.65625 C 1914.1691 183.63751 1888.4913 193.69633 1867.2812 213.84375 C 1841.9078 237.94605 1825.5302 275.98537 1819.4062 325 C 1817.2657 342.13242 1816.9799 380.62923 1818.875 397.5 C 1828.5743 483.84545 1870.3821 535.79113 1935.5 542.40625 C 1946.1672 543.4899 1962.3238 542.85494 1973.6875 540.90625 C 1999.2785 536.51783 2022.2097 524.34233 2040.3438 505.53125 C 2047.9436 497.64764 2059 483.31578 2059 481.34375 C 2059 480.49253 2007.9309 441.77915 2005.6562 440.90625 C 2004.9449 440.6333 2001.4667 443.9036 1997.75 448.34375 C 1990.563 456.92956 1982.3049 463.09377 1973.25 466.59375 C 1965.2025 469.70437 1945.8782 470.47653 1937.4062 468.03125 C 1928.4485 465.44581 1922.4788 461.74055 1915.9688 454.78125 C 1908.7696 447.08527 1902.8889 435.51142 1899.5625 422.375 C 1896.9857 412.1987 1894.5892 394.96171 1895.5312 393.4375 C 1895.893 392.8522 1929.1654 392.5 1982.5312 392.5 L 2068.9688 392.5 L 2069.7188 389.75 C 2071.203 384.3274 2070.4542 338.68357 2068.6562 325.09375 C 2062.3109 277.13246 2047.3735 241.36809 2023.25 216.34375 C 2003.2781 195.62609 1979.6917 185.07658 1950.4375 183.78125 C 1948.3859 183.69041 1946.3554 183.6575 1944.3438 183.65625 z M 1479.5 191 L 1479.25 363.25 L 1479 535.53125 L 1517.25 535.25 L 1555.5 535 L 1555.5 363 L 1555.5 191 L 1517.5 191 L 1479.5 191 z M 1943.9062 252.75 C 1949.0797 252.73772 1954.3651 253.675 1959.5 255.59375 C 1971.7181 260.1592 1982.555 275.01894 1987.875 294.5 C 1990.5031 304.12355 1993 318.52572 1993 324.125 L 1993 328.5 L 1944.5625 328.5 C 1917.6315 328.5 1895.8658 328.11583 1895.5625 327.625 C 1894.8804 326.52138 1896.5945 312.45157 1898.625 302.5 C 1901.6479 287.68464 1907.716 273.71733 1914.5625 265.71875 C 1921.7385 257.33518 1932.5247 252.77701 1943.9062 252.75 z M 2346.5 309.59375 C 2337.9008 309.61231 2326.9747 309.68932 2313.0625 309.78125 C 2253.4329 310.17529 2248.9429 310.32626 2240.5 312.25 C 2215.5542 317.93392 2197.2613 328.15183 2180.1562 345.96875 C 2132.3033 395.81349 2139.0048 476.34646 2194.4688 517.75 C 2208.2652 528.04893 2225.8702 535.80261 2242.6562 538.96875 C 2248.1924 540.01293 2255.2085 540.34934 2266.5 540.09375 C 2286.1724 539.64845 2296.8888 537.15324 2313.375 529.1875 C 2341.4598 515.6177 2362.9263 491.6446 2372.5 463.125 C 2378.4234 445.4795 2378.2829 447.3458 2378.7188 377.1875 C 2379.0341 326.43025 2378.8505 312.01911 2377.875 310.84375 C 2377.057 309.85809 2372.2977 309.53808 2346.5 309.59375 z M 2491.9062 309.6875 C 2483.6094 309.67676 2473.5815 309.69815 2461.3438 309.75 L 2400.5 310 L 2400.5 377.5 L 2400.5 445 L 2403.2812 455 C 2416.0917 501.18457 2454.8066 534.85208 2501.5 540.40625 C 2549.8859 546.16175 2597.0811 520.59321 2619 476.75 C 2633.3951 447.95599 2634.808 412.30948 2622.75 382.40625 C 2607.2053 343.85596 2573.2024 317.12371 2531.8438 310.9375 C 2526.016 310.06586 2516.7969 309.71973 2491.9062 309.6875 z M 512.875 373.5 C 528.61142 373.5 543.13225 378.20782 553.34375 386.625 L 557 389.65625 L 557 417.9375 L 557 446.1875 L 554.15625 450.09375 C 549.90912 455.93086 539.07582 465.64218 533.375 468.71875 C 530.60591 470.21315 525.70563 472.12565 522.46875 472.96875 C 507.88353 476.76772 492.72489 472.78086 484 462.84375 C 470.91733 447.94341 468.00515 414.26181 478.03125 393.84375 C 481.87534 386.01531 489.98529 378.3858 497.53125 375.5625 C 501.74599 373.98557 505.40956 373.5 512.875 373.5 z "
     id="path3283" />
</svg>
