<?xml version="1.0" encoding="UTF-8" standalone="no"?>
<!-- Created with Inkscape (http://www.inkscape.org/) -->

<svg
   xmlns:dc="http://purl.org/dc/elements/1.1/"
   xmlns:cc="http://creativecommons.org/ns#"
   xmlns:rdf="http://www.w3.org/1999/02/22-rdf-syntax-ns#"
   xmlns:svg="http://www.w3.org/2000/svg"
   xmlns="http://www.w3.org/2000/svg"
   xmlns:sodipodi="http://sodipodi.sourceforge.net/DTD/sodipodi-0.dtd"
   xmlns:inkscape="http://www.inkscape.org/namespaces/inkscape"
   version="1.1"
   width="115.44218"
   height="27.000002"
   viewBox="0 0 92.353739 21.600002"
   id="svg2"
   inkscape:version="0.48.4 r9939"
   sodipodi:docname="maclife.svg">
  <sodipodi:namedview
     pagecolor="#ffffff"
     bordercolor="#666666"
     borderopacity="1"
     objecttolerance="10"
     gridtolerance="10"
     guidetolerance="10"
     inkscape:pageopacity="0"
     inkscape:pageshadow="2"
     inkscape:window-width="1440"
     inkscape:window-height="845"
     id="namedview8"
     showgrid="false"
     fit-margin-top="0"
     fit-margin-left="0"
     fit-margin-right="0"
     fit-margin-bottom="0"
     inkscape:zoom="2.8897409"
     inkscape:cx="11.765761"
     inkscape:cy="13.500001"
     inkscape:window-x="0"
     inkscape:window-y="30"
     inkscape:window-maximized="1"
     inkscape:current-layer="svg2" />
  <metadata
     id="metadata32">
    <rdf:RDF>
      <cc:Work
         rdf:about="">
        <dc:format>image/svg+xml</dc:format>
        <dc:type
           rdf:resource="http://purl.org/dc/dcmitype/StillImage" />
        <dc:title />
      </cc:Work>
    </rdf:RDF>
  </metadata>
  <defs
     id="defs30" />
  <g
     transform="matrix(0.03510362,0,0,0.03510362,-1.1220703e-6,0)"
     id="g3797">
    <g
       transform="translate(1100.6848,695.79296)"
       id="layer2" />
    <path
       d="m 1013.5,0 -0.25,306.5 c -0.1408,168.575 -0.045,307.05545 0.2188,307.75 0.3764,0.991 8.0642,1.20627 35.75,1 L 1084.5,615 l 0,-307.5 0,-307.5 -35.5,0 -35.5,0 z m 1497.125,58.625 c -7.0567,-0.02368 -10.8513,0.452458 -17.4375,1.8125 -24.9911,5.16061 -43.6311,15.40686 -61.25,33.6875 -9.0687,9.40918 -14.4559,17.17555 -20.5,29.59375 -5.2001,10.68433 -7.7404,18.67107 -9.9063,31.15625 -2.0667,11.91346 -2.3203,133.14597 -0.2812,133.96875 2.4262,0.979 112.3562,0.64379 123.25,-0.375 15.0045,-1.40322 27.915,-4.98107 41,-11.34375 13.5906,-6.60853 24.7033,-14.78018 34.5,-25.375 13.3247,-14.41024 21.6835,-30.03613 27.6875,-51.78125 2.5005,-9.05609 2.7438,-11.49309 2.7187,-26.46875 -0.025,-14.72099 -0.3043,-17.55103 -2.6874,-26.28125 -10.1584,-37.21496 -30.9365,-62.59092 -64.125,-78.3125 -14.688,-6.95775 -26.041,-9.53713 -44.5938,-10.125 -3.303,-0.10466 -6.0228,-0.148355 -8.375,-0.15625 z m -993.6562,0.03125 c -0.621,0.01057 -1.2494,0.02891 -1.875,0.0625 -9.8538,0.52911 -17.6785,3.02134 -24.6876,7.84375 -26.9628,18.55091 -29.642,55.04711 -5.6562,76.96875 6.461,5.905 13.0132,9.46263 21.0312,11.40625 25.2245,6.11462 50.7493,-8.64415 58.375,-33.75 1.7173,-5.65199 2.0119,-8.65346 1.625,-16.6875 -0.417,-8.66306 -0.886,-10.68299 -4.0937,-17.4375 -8.5669,-18.039297 -25.4693,-28.734048 -44.7187,-28.40625 z m 218.0937,0.0625 c -7.6657,0.05711 -14.6463,0.443725 -18.9063,1.1875 -25.8278,4.50944 -44.5132,18.06371 -55.2187,40.0625 -8.2889,17.03282 -9.1862,22.2447 -9.625,56.53125 -0.2077,16.225 -0.5756,30.49452 -0.8437,31.71875 -0.4774,2.17935 -0.8317,2.23161 -17.2188,2.5 L 1616.5,191 l -0.25,36.25 -0.2812,36.25 16.3124,0 c 11.3542,0 16.6961,0.35225 17.5313,1.1875 0.9215,0.92146 1.1875,32.5109 1.1875,136.03125 l 0,134.8125 38.25,-0.28125 38.25,-0.25 0.25,-134.9375 c 0.2001,-106.43187 0.517,-135.12576 1.5,-135.75 0.6855,-0.43531 13.0556,-0.8045 27.5,-0.8125 l 26.2812,0 -0.2812,-36.25 -0.25,-36.25 -27,-0.5 -27,-0.5 0,-20.5 c 0,-22.805 0.7061,-26.88905 5.6875,-32.5625 C 1740.3121,129.96201 1743.542,129 1761,129 c 13.2873,0 16.5224,0.32119 22.6562,2.25 3.9355,1.2375 7.6479,2.25 8.25,2.25 1.6775,0 1.5243,-64.41996 -0.1562,-65.75 -1.8841,-1.49124 -13.3588,-5.08314 -21.7812,-6.8125 -7.4174,-1.522975 -22.1301,-2.313937 -34.9063,-2.21875 z M 2257.625,59.125 c -12.2507,0.07554 -15.079,0.529764 -22.9688,2.65625 -11.1134,2.99533 -27.3523,10.4006 -36.6562,16.71875 -3.4357,2.33319 -9.6359,7.45543 -13.7812,11.375 -32.3861,30.62192 -44.2942,77.73709 -30.25,119.65625 14.7441,44.00844 53.3587,74.7706 99.0312,78.90625 4.675,0.42332 34.4298,0.8608 66.125,0.9375 48.7671,0.11799 57.8121,-0.10709 58.8125,-1.3125 0.8913,-1.07445 1.0752,-17.3516 0.7813,-66.25 -0.37,-61.50147 -0.4976,-65.24836 -2.4688,-73.3125 -10.5218,-43.04462 -41.7858,-75.36634 -83.9062,-86.71875 -9.017,-2.43027 -11.4281,-2.65625 -28.8438,-2.65625 -2.177,0 -4.1249,-0.01079 -5.875,0 z M 334.96875,75.46875 294.71875,75.75 254.5,76 250.78125,87 c -5.7123,16.94895 -62.002,192.91469 -69.1875,216.28125 -3.5053,11.3989 -7.5998,25.57077 -9.125,31.5 -1.6105,6.26071 -3.2477,10.61537 -3.875,10.40625 -0.5942,-0.19804 -1.6553,-2.57508 -2.375,-5.28125 -5.3574,-20.14427 -11.6676,-40.73876 -29.0625,-94.90625 -10.9506,-34.1 -27.4611,-85.625 -36.6875,-114.5 -9.2265,-28.875 -17.2178,-53.0625 -17.75,-53.75 C 81.97255,75.78617 72.3942,75.5 40.875,75.5 L 0,75.5 0,305.75 0,536 35.75,535.75 c 19.6629,-0.14562 36.3125,-0.46913 37,-0.71875 C 74.1821,534.51127 74.32815,447.4779 73.09375,326 72.70295,287.5 72.6924,255.38313 73.0625,254.625 c 0.9892,-2.02641 1.2235,-1.38589 7.4375,19.875 7.3372,25.10421 27.6595,91.16072 35.375,115 18.1024,55.93195 46.243,141.81491 47.125,143.8125 0.8378,1.89774 1.64385,2.25469 4.59375,2 L 171.1875,535 l 18,-55 c 40.2183,-123.02666 50.6939,-156.22687 64,-202.3125 3.3822,-11.71429 6.6825,-21.98224 7.3125,-22.84375 0.8623,-1.17936 1.1155,33.22192 1.0625,139.28125 L 261.5,535 l 37,0 37,0 0.28125,-227.5 C 335.93155,182.375 335.7998,78.99373 335.5,77.75 l -0.53125,-2.28125 z m 877.12505,0.1875 c -15.7088,0.02079 -20.7795,0.352502 -21.25,1.09375 -0.9599,1.51203 -1.1466,457.1348 -0.1876,458.09375 0.3666,0.36667 51.2166,0.65625 113,0.65625 l 112.3438,0 0,-39.5 0,-39.5 -70.875,0 c -58.2647,0 -71.0794,-0.23454 -72,-1.34375 -0.8157,-0.98292 -1.191,-52.64368 -1.375,-190.25 L 1271.5,76 1231.5625,75.75 c -7.8208,-0.05124 -14.2325,-0.100679 -19.4687,-0.09375 z m -393.56255,107.8125 c -34.5469,-0.0303 -65.99744,14.07286 -87.9375,40.03125 -25.03915,29.62508 -38.59814,69.94478 -41.53125,123.5 -3.89859,71.18383 14.17898,132.08557 48.9375,164.875 19.61432,18.50315 41.72318,28.00726 72,30.96875 1.925,0.18829 4.97208,0.412 6.78125,0.5 5.58847,0.27189 22.02117,-1.88656 30.0625,-3.9375 9.7179,-2.47856 25.71581,-10.34407 34.3125,-16.875 C 895.94493,511.29624 910.49732,492.70635 921,471.625 l 5.1875,-10.40625 -2.34375,-2.1875 C 920.54558,455.92353 871.30502,420.5 870.28125,420.5 c -0.46332,0 -3.6509,5.52001 -7.0625,12.28125 -9.63633,19.09762 -19.72572,30.01907 -32.21875,34.8125 -8.39411,3.22073 -20.49356,2.4353 -29.3125,-1.90625 -16.2584,-8.00399 -27.38014,-29.5156 -32.21875,-62.21875 -2.20538,-14.90568 -3.01838,-49.61176 -1.5625,-67.09375 3.58828,-43.08723 14.45859,-67.62523 33.96875,-76.71875 4.75355,-2.21559 7.01257,-2.625 14.625,-2.625 7.72887,0 9.84492,0.37859 14.9375,2.75 11.84496,5.51571 19.64558,14.25958 28.75,32.21875 3.50069,6.90539 5.76319,10.32599 6.625,10 2.91545,-1.10281 59.34607,-39.7845 59.8125,-41 0.27653,-0.72063 -1.77419,-5.92154 -4.59375,-11.5625 -18.9467,-37.90588 -46.15954,-58.79084 -84.03125,-64.5 -6.56949,-0.99035 -13.07118,-1.46313 -19.46875,-1.46875 z m -302.34375,0.1875 c -28.07357,0.46972 -52.24836,6.32814 -76.3125,18.3125 -10.21782,5.08865 -24.875,13.91532 -24.875,15 0,0.8844 29.16369,52.97104 30.375,54.25 0.87883,0.92791 3.01519,0.0849 9.375,-3.625 11.09641,-6.47287 21.74485,-10.54582 34.3125,-13.125 8.67603,-1.78049 13.08575,-2.09046 25.96875,-1.8125 15.22469,0.32848 15.62987,0.3961 22.1875,3.625 9.76097,4.80617 16.13835,13.11545 18.75,24.4375 1.18464,5.13564 1.37351,39.78125 0.21875,39.78125 -0.44404,0 -3.85815,-1.52676 -7.59375,-3.40625 C 539.19849,312.36672 528.68803,309.72173 514,308.4375 464.75631,304.13195 426.34856,323.97477 406.4375,364 c -10.09085,20.28463 -14.39507,45.33051 -12.375,71.875 1.19907,15.75621 2.96253,24.75445 7.625,38.875 12.6427,38.28908 42.51439,63.13483 81.3125,67.625 10.31563,1.19384 12.42018,1.18741 20.84375,0.0937 15.99748,-2.07699 33.05673,-10.33877 45.65625,-22.125 3.44273,-3.2205 6.52058,-5.84375 6.84375,-5.84375 0.32317,0 0.71826,4.6125 0.875,10.25 L 557.5,535 l 38.5,0 38.5,0 0.28125,-117.5 c 0.1855,-74.93257 -0.0809,-122.88352 -0.75,-132.375 -2.35463,-33.40386 -10.22284,-55.25164 -25.875,-71.84375 -18.1159,-19.20381 -42.29158,-28.1609 -79.6875,-29.5 -4.18097,-0.14972 -8.27074,-0.1921 -12.28125,-0.125 z m 1428.1563,0 c -30.1747,-0.0187 -55.8525,10.04008 -77.0626,30.1875 -25.3734,24.1023 -41.751,62.14162 -47.875,111.15625 -2.1405,17.13242 -2.4263,55.62923 -0.5312,72.5 9.6993,86.34545 51.5071,138.29113 116.625,144.90625 10.6672,1.08365 26.8238,0.44869 38.1875,-1.5 25.591,-4.38842 48.5222,-16.56392 66.6563,-35.375 7.5998,-7.88361 18.6562,-22.21547 18.6562,-24.1875 0,-0.85122 -51.0691,-39.5646 -53.3438,-40.4375 -0.7113,-0.27295 -4.1895,2.99735 -7.9062,7.4375 -7.187,8.58581 -15.4451,14.75002 -24.5,18.25 -8.0475,3.11062 -27.3718,3.88278 -35.8438,1.4375 -8.9577,-2.58544 -14.9274,-6.2907 -21.4374,-13.25 -7.1992,-7.69598 -13.0799,-19.26983 -16.4063,-32.40625 -2.5768,-10.1763 -4.9733,-27.41329 -4.0313,-28.9375 0.3618,-0.5853 33.6342,-0.9375 87,-0.9375 l 86.4376,0 0.75,-2.75 c 1.4842,-5.4226 0.7354,-51.06643 -1.0626,-64.65625 -6.3453,-47.96129 -21.2827,-83.72566 -45.4062,-108.75 -19.9719,-20.71766 -43.5583,-31.26717 -72.8125,-32.5625 -2.0516,-0.0908 -4.0821,-0.12375 -6.0937,-0.125 z M 1479.5,191 l -0.25,172.25 -0.25,172.28125 38.25,-0.28125 38.25,-0.25 0,-172 0,-172 -38,0 -38,0 z m 464.4062,61.75 c 5.1735,-0.0123 10.4589,0.925 15.5938,2.84375 12.2181,4.56545 23.055,19.42519 28.375,38.90625 2.6281,9.62355 5.125,24.02572 5.125,29.625 l 0,4.375 -48.4375,0 c -26.931,0 -48.6967,-0.38417 -49,-0.875 -0.6821,-1.10362 1.032,-15.17343 3.0625,-25.125 3.0229,-14.81536 9.091,-28.78267 15.9375,-36.78125 7.176,-8.38357 17.9622,-12.94174 29.3437,-12.96875 z M 2346.5,309.59375 c -8.5992,0.0186 -19.5253,0.0956 -33.4375,0.1875 -59.6296,0.39404 -64.1196,0.54501 -72.5625,2.46875 -24.9458,5.68392 -43.2387,15.90183 -60.3438,33.71875 -47.8529,49.84474 -41.1514,130.37771 14.3126,171.78125 13.7964,10.29893 31.4014,18.05261 48.1874,21.21875 5.5362,1.04418 12.5523,1.38059 23.8438,1.125 19.6724,-0.4453 30.3888,-2.94051 46.875,-10.90625 28.0848,-13.5698 49.5513,-37.5429 59.125,-66.0625 5.9234,-17.6455 5.7829,-15.7792 6.2188,-85.9375 0.3153,-50.75725 0.1317,-65.16839 -0.8438,-66.34375 -0.818,-0.98566 -5.5773,-1.30567 -31.375,-1.25 z m 145.4062,0.0937 c -8.2968,-0.0107 -18.3247,0.0106 -30.5624,0.0625 L 2400.5,310 l 0,67.5 0,67.5 2.7812,10 c 12.8105,46.18457 51.5254,79.85208 98.2188,85.40625 48.3859,5.7555 95.5811,-19.81304 117.5,-63.65625 14.3951,-28.79401 15.808,-64.44052 3.75,-94.34375 -15.5447,-38.55029 -49.5476,-65.28254 -90.9062,-71.46875 -5.8278,-0.87164 -15.0469,-1.21777 -39.9376,-1.25 z M 512.875,373.5 c 15.73642,0 30.25725,4.70782 40.46875,13.125 l 3.65625,3.03125 0,28.28125 0,28.25 -2.84375,3.90625 c -4.24713,5.83711 -15.08043,15.54843 -20.78125,18.625 -2.76909,1.4944 -7.66937,3.4069 -10.90625,4.25 -14.58522,3.79897 -29.74386,-0.18789 -38.46875,-10.125 -13.08267,-14.90034 -15.99485,-48.58194 -5.96875,-69 3.84409,-7.82844 11.95404,-15.45795 19.5,-18.28125 4.21474,-1.57693 7.87831,-2.0625 15.34375,-2.0625 z"
       id="path3283"
       style="fill:#333333;fill-opacity:1"
       inkscape:connector-curvature="0" />
  </g>
</svg>
