<svg width="154" height="52" fill="none" xmlns="http://www.w3.org/2000/svg"><g style="fill:#555761;fill-opacity:1" fill="#fff"><path d="M146.016 19.328V43h-6.512v-2.816a9.341 9.341 0 0 1-3.256 2.376c-1.261.528-2.625.792-4.092.792-3.109 0-5.573-.895-7.392-2.684-1.819-1.79-2.728-4.444-2.728-7.964V19.328h6.864v12.364c0 3.813 1.599 5.72 4.796 5.72 1.643 0 2.963-.528 3.96-1.584.997-1.085 1.496-2.684 1.496-4.796V19.328Zm16.391-.352c2.2 0 4.195.513 5.984 1.54 1.819.997 3.241 2.42 4.268 4.268 1.027 1.819 1.54 3.945 1.54 6.38s-.513 4.576-1.54 6.424a11.052 11.052 0 0 1-4.268 4.268c-1.789.997-3.784 1.496-5.984 1.496-3.256 0-5.735-1.027-7.436-3.08V43h-6.556V10.352h6.864v11.484c1.731-1.907 4.107-2.86 7.128-2.86zm-1.188 18.744c1.76 0 3.197-.587 4.312-1.76 1.144-1.203 1.716-2.801 1.716-4.796s-.572-3.579-1.716-4.752c-1.115-1.203-2.552-1.804-4.312-1.804-1.76 0-3.212.601-4.356 1.804-1.115 1.173-1.672 2.757-1.672 4.752 0 1.995.557 3.593 1.672 4.796 1.144 1.173 2.596 1.76 4.356 1.76zm37.463-18.392V43h-6.512v-2.816a9.341 9.341 0 0 1-3.256 2.376c-1.261.528-2.625.792-4.092.792-3.109 0-5.573-.895-7.392-2.684-1.819-1.79-2.728-4.444-2.728-7.964V19.328h6.864v12.364c0 3.813 1.599 5.72 4.796 5.72 1.643 0 2.963-.528 3.96-1.584.997-1.085 1.496-2.684 1.496-4.796V19.328Zm16.787-.352c2.933 0 5.295.88 7.084 2.64 1.819 1.76 2.728 4.37 2.728 7.832V43h-6.864V30.504c0-1.877-.411-3.27-1.232-4.18-.821-.939-2.009-1.408-3.564-1.408-1.731 0-3.109.543-4.136 1.628-1.027 1.056-1.54 2.64-1.54 4.752V43h-6.864V19.328h6.556V22.1c.909-.997 2.039-1.76 3.388-2.288 1.349-.557 2.831-.836 4.444-.836zm27.342 22.88c-.675.499-1.511.88-2.508 1.144-.968.235-1.995.352-3.08.352-2.816 0-5.001-.719-6.556-2.156-1.525-1.437-2.288-3.55-2.288-6.336v-9.724h-3.652v-5.28h3.652v-5.764h6.864v5.764h5.896v5.28h-5.896v9.636c0 .997.249 1.775.748 2.332.528.528 1.261.792 2.2.792 1.085 0 2.009-.293 2.772-.88zm23.741-22.528V43h-6.512v-2.816a9.341 9.341 0 0 1-3.256 2.376c-1.261.528-2.625.792-4.092.792-3.109 0-5.573-.895-7.392-2.684-1.819-1.79-2.728-4.444-2.728-7.964V19.328h6.864v12.364c0 3.813 1.599 5.72 4.796 5.72 1.643 0 2.963-.528 3.96-1.584.997-1.085 1.496-2.684 1.496-4.796V19.328Zm1.519-7.128h8.184l-1.364 20.108h-5.456zm4.092 31.152c-1.203 0-2.215-.381-3.036-1.144-.792-.792-1.188-1.745-1.188-2.86 0-1.115.396-2.039 1.188-2.772.792-.763 1.804-1.144 3.036-1.144s2.244.381 3.036 1.144c.792.733 1.188 1.657 1.188 2.772 0 1.115-.411 2.068-1.232 2.86-.792.763-1.789 1.144-2.992 1.144z" style="fill:#555761;fill-opacity:1" transform="translate(0 9.1) scale(.55719)"/><path fill-rule="evenodd" clip-rule="evenodd" d="M5 7a5 5 0 0 0-5 5v40a5 5 0 0 0 5 5h105a5 5 0 0 0 5-5V12a5 5 0 0 0-5-5zm103.231 5h-8.184l1.364 20.108h5.456zm-7.128 30.008c.821.763 1.833 1.144 3.036 1.144s2.2-.381 2.992-1.144c.821-.792 1.232-1.745 1.232-2.86 0-1.115-.396-2.039-1.188-2.772-.792-.763-1.804-1.144-3.036-1.144s-2.244.381-3.036 1.144c-.792.733-1.188 1.657-1.188 2.772 0 1.115.396 2.068 1.188 2.86zm-89.811-.396c1.995 1.027 4.239 1.54 6.732 1.54 2.493 0 4.723-.513 6.688-1.54 1.965-1.056 3.505-2.508 4.62-4.356 1.115-1.848 1.672-3.945 1.672-6.292s-.557-4.444-1.672-6.292c-1.115-1.848-2.655-3.285-4.62-4.312-1.965-1.056-4.195-1.584-6.688-1.584-2.493 0-4.737.528-6.732 1.584-1.965 1.027-3.505 2.464-4.62 4.312C5.557 26.52 5 28.617 5 30.964s.557 4.444 1.672 6.292c1.115 1.848 2.655 3.3 4.62 4.356zm11.044-5.852c-1.115 1.173-2.552 1.76-4.312 1.76-1.76 0-3.212-.587-4.356-1.76-1.144-1.203-1.716-2.801-1.716-4.796s.572-3.579 1.716-4.752c1.144-1.203 2.596-1.804 4.356-1.804 1.76 0 3.197.601 4.312 1.804 1.144 1.173 1.716 2.757 1.716 4.752 0 1.995-.572 3.593-1.716 4.796zm46.652-14.344c-1.73-1.76-4.077-2.64-7.04-2.64-1.76 0-3.388.337-4.884 1.012a9.751 9.751 0 0 0-3.652 2.86 7.868 7.868 0 0 0-3.256-2.86c-1.35-.675-2.86-1.012-4.532-1.012-1.525 0-2.933.264-4.224.792a8.703 8.703 0 0 0-3.212 2.288v-2.728h-6.556V42.8h6.864V30.92c0-2.053.47-3.593 1.408-4.62.939-1.056 2.2-1.584 3.784-1.584 2.992 0 4.488 1.863 4.488 5.588V42.8h6.864V30.92c0-2.053.47-3.593 1.408-4.62.939-1.056 2.215-1.584 3.828-1.584 1.437 0 2.537.47 3.3 1.408.792.91 1.188 2.303 1.188 4.18V42.8h6.864V29.248c0-3.49-.88-6.101-2.64-7.832zm29.51-2.288V38.84c0 4.341-1.13 7.568-3.388 9.68s-5.558 3.168-9.9 3.168c-2.288 0-4.458-.279-6.512-.836-2.053-.557-3.754-1.364-5.104-2.42l2.728-4.928c.998.821 2.259 1.467 3.784 1.936a14.65 14.65 0 0 0 4.576.748c2.376 0 4.122-.543 5.236-1.628 1.144-1.056 1.716-2.67 1.716-4.84v-1.012c-1.789 1.965-4.282 2.948-7.48 2.948-2.17 0-4.165-.47-5.984-1.408a11.1 11.1 0 0 1-4.268-4.048c-1.056-1.73-1.584-3.725-1.584-5.984s.528-4.253 1.584-5.984a10.779 10.779 0 0 1 4.268-4.004c1.819-.968 3.814-1.452 5.984-1.452 3.432 0 6.043 1.13 7.832 3.388v-3.036zm-12.98 16.896c1.819 0 3.3-.528 4.444-1.584 1.174-1.085 1.76-2.493 1.76-4.224 0-1.73-.586-3.124-1.76-4.18-1.144-1.085-2.625-1.628-4.444-1.628-1.818 0-3.314.543-4.488 1.628-1.173 1.056-1.76 2.45-1.76 4.18 0 1.73.587 3.139 1.76 4.224 1.174 1.056 2.67 1.584 4.488 1.584z" style="fill:#555761;fill-opacity:1" transform="translate(0 9.1) scale(.55719)"/><path d="M37.727 44 17.5 54.5 33.727 67Z" style="fill:#555761;fill-opacity:1" transform="translate(0 9.1) scale(.55719)"/></g></svg>