<?xml version="1.0" encoding="UTF-8"?>
<!DOCTYPE svg PUBLIC "-//W3C//DTD SVG 1.1//EN" "http://www.w3.org/Graphics/SVG/1.1/DTD/svg11.dtd">
<svg width="401pt" height="82pt" viewBox="0 0 401 82" version="1.1" xmlns="http://www.w3.org/2000/svg">
<path fill="#231f20" opacity="1.00" d=" M 0.00 0.00 L 80.25 0.00 C 80.25 27.33 80.25 54.67 80.25 82.00 L 0.00 82.00 L 0.00 0.00 M 5.91 12.87 C 9.49 29.54 12.70 46.30 16.15 63.00 C 16.78 65.00 16.39 67.64 18.33 68.98 C 21.83 69.54 25.42 69.40 28.95 69.16 C 30.87 69.22 31.33 66.96 31.68 65.51 C 34.09 53.62 36.71 41.77 39.11 29.88 C 39.30 28.78 39.64 27.71 40.16 26.72 C 43.15 39.48 45.62 52.35 48.40 65.15 C 48.78 66.51 48.86 68.19 50.20 69.02 C 54.02 69.48 57.94 69.52 61.75 68.99 C 63.12 68.18 63.19 66.51 63.54 65.13 C 67.07 47.72 70.36 30.24 74.09 12.87 C 70.72 12.89 67.36 12.88 64.00 12.88 C 61.32 28.03 59.17 43.28 56.21 58.38 C 52.88 45.57 50.65 32.45 47.75 19.52 C 47.09 17.31 47.39 14.09 44.97 12.97 C 42.01 12.79 39.03 12.78 36.07 12.97 C 34.39 13.11 34.01 15.10 33.68 16.42 C 31.00 29.24 28.19 42.03 25.57 54.85 C 25.30 56.04 24.90 57.18 24.45 58.31 C 21.76 43.20 19.21 28.05 16.89 12.88 C 13.23 12.87 9.57 12.89 5.91 12.87 Z"/>
<path fill="#ffffff" opacity="1.00" d=" M 80.25 0.00 L 159.75 0.00 C 159.75 27.33 159.75 54.67 159.75 82.00 L 80.25 82.00 C 80.25 54.67 80.25 27.33 80.25 0.00 M 100.61 12.33 C 100.57 15.69 100.57 19.04 100.61 22.40 C 105.18 22.43 109.75 22.41 114.32 22.41 C 114.30 34.80 114.30 47.20 114.32 59.59 C 109.75 59.59 105.18 59.57 100.61 59.60 C 100.57 62.96 100.57 66.31 100.62 69.67 C 113.54 69.70 126.46 69.70 139.38 69.67 C 139.43 66.32 139.42 62.96 139.40 59.61 C 134.82 59.57 130.25 59.59 125.68 59.59 C 125.70 47.20 125.70 34.80 125.68 22.41 C 130.25 22.41 134.82 22.43 139.39 22.40 C 139.43 19.04 139.43 15.68 139.38 12.33 C 126.46 12.30 113.54 12.30 100.61 12.33 Z"/>
<path fill="#231f20" opacity="1.00" d=" M 159.75 0.00 L 240.00 0.00 C 240.00 27.33 240.00 54.67 240.00 82.00 L 159.75 82.00 C 159.75 54.67 159.75 27.33 159.75 0.00 M 177.88 12.88 C 177.88 31.63 177.88 50.37 177.88 69.12 C 181.58 69.12 185.29 69.12 189.00 69.12 C 189.00 61.79 189.00 54.45 189.00 47.12 C 195.03 47.14 201.06 47.09 207.09 47.13 C 209.29 46.92 211.91 48.49 211.86 50.91 C 212.14 56.99 212.66 63.05 213.04 69.12 C 216.57 69.12 220.09 69.12 223.62 69.13 C 222.62 62.25 223.85 55.14 221.91 48.40 C 220.91 44.87 217.01 44.08 213.97 43.20 C 216.23 42.00 219.13 41.89 220.77 39.69 C 223.15 36.67 223.32 32.64 223.33 28.96 C 223.29 24.66 223.39 19.93 220.66 16.32 C 218.48 13.32 214.40 12.88 210.98 12.88 C 199.95 12.87 188.91 12.88 177.88 12.88 Z"/>
<path fill="#ffffff" opacity="1.00" d=" M 240.00 0.00 L 319.75 0.00 C 319.75 27.33 319.75 54.67 319.75 82.00 L 240.00 82.00 C 240.00 54.67 240.00 27.33 240.00 0.00 M 254.34 12.34 C 254.30 15.68 254.30 19.03 254.32 22.37 C 256.87 22.42 259.42 22.42 261.97 22.40 C 262.02 34.80 262.02 47.20 261.97 59.60 C 259.42 59.58 256.88 59.58 254.33 59.61 C 254.30 62.96 254.29 66.31 254.34 69.66 C 270.42 69.71 286.49 69.71 302.57 69.66 C 302.65 63.03 302.60 56.40 302.60 49.77 C 299.11 49.74 295.62 49.74 292.13 49.78 C 292.12 53.05 292.12 56.32 292.13 59.59 C 285.77 59.60 279.41 59.55 273.05 59.62 C 272.95 54.71 273.02 49.79 273.00 44.88 C 278.00 44.88 283.00 44.88 288.00 44.88 C 288.00 41.69 288.00 38.50 288.00 35.31 C 283.00 35.31 278.00 35.31 273.00 35.31 C 273.00 31.01 272.99 26.71 273.01 22.41 C 279.21 22.42 285.40 22.42 291.60 22.41 C 291.58 25.27 291.58 28.13 291.59 31.00 C 295.02 31.00 298.45 31.00 301.88 31.00 C 301.87 24.78 301.89 18.56 301.87 12.34 C 286.02 12.29 270.18 12.29 254.34 12.34 Z"/>
<path fill="#231f20" opacity="1.00" d=" M 319.75 0.00 L 401.00 0.00 L 401.00 82.00 L 319.75 82.00 C 319.75 54.67 319.75 27.33 319.75 0.00 M 337.88 12.88 C 337.88 31.63 337.88 50.37 337.88 69.12 C 347.23 69.10 356.57 69.16 365.92 69.09 C 371.68 68.98 378.39 67.91 381.86 62.75 C 385.91 56.27 385.30 48.34 386.01 41.03 C 385.29 33.71 385.93 25.75 381.86 19.25 C 378.63 14.42 372.45 13.15 367.02 12.95 C 357.31 12.79 347.59 12.92 337.88 12.88 Z"/>
<path fill="#231f20" opacity="1.00" d=" M 100.61 12.33 C 113.54 12.30 126.46 12.30 139.38 12.33 C 139.43 15.68 139.43 19.04 139.39 22.40 C 134.82 22.43 130.25 22.41 125.68 22.41 C 125.70 34.80 125.70 47.20 125.68 59.59 C 130.25 59.59 134.82 59.57 139.40 59.61 C 139.42 62.96 139.43 66.32 139.38 69.67 C 126.46 69.70 113.54 69.70 100.62 69.67 C 100.57 66.31 100.57 62.96 100.61 59.60 C 105.18 59.57 109.75 59.59 114.32 59.59 C 114.30 47.20 114.30 34.80 114.32 22.41 C 109.75 22.41 105.18 22.43 100.61 22.40 C 100.57 19.04 100.57 15.69 100.61 12.33 Z"/>
<path fill="#231f20" opacity="1.00" d=" M 254.34 12.34 C 270.18 12.29 286.02 12.29 301.87 12.34 C 301.89 18.56 301.87 24.78 301.88 31.00 C 298.45 31.00 295.02 31.00 291.59 31.00 C 291.58 28.13 291.58 25.27 291.60 22.41 C 285.40 22.42 279.21 22.42 273.01 22.41 C 272.99 26.71 273.00 31.01 273.00 35.31 C 278.00 35.31 283.00 35.31 288.00 35.31 C 288.00 38.50 288.00 41.69 288.00 44.88 C 283.00 44.88 278.00 44.88 273.00 44.88 C 273.02 49.79 272.95 54.71 273.05 59.62 C 279.41 59.55 285.77 59.60 292.13 59.59 C 292.12 56.32 292.12 53.05 292.13 49.78 C 295.62 49.74 299.11 49.74 302.60 49.77 C 302.60 56.40 302.65 63.03 302.57 69.66 C 286.49 69.71 270.42 69.71 254.34 69.66 C 254.29 66.31 254.30 62.96 254.33 59.61 C 256.88 59.58 259.42 59.58 261.97 59.60 C 262.02 47.20 262.02 34.80 261.97 22.40 C 259.42 22.42 256.87 22.42 254.32 22.37 C 254.30 19.03 254.30 15.68 254.34 12.34 Z"/>
<path fill="#ffffff" opacity="1.00" d=" M 5.91 12.87 C 9.57 12.89 13.23 12.87 16.89 12.88 C 19.21 28.05 21.76 43.20 24.45 58.31 C 24.90 57.18 25.30 56.04 25.57 54.85 C 28.19 42.03 31.00 29.24 33.68 16.42 C 34.01 15.10 34.39 13.11 36.07 12.97 C 39.03 12.78 42.01 12.79 44.97 12.97 C 47.39 14.09 47.09 17.31 47.75 19.52 C 50.65 32.45 52.88 45.57 56.21 58.38 C 59.17 43.28 61.32 28.03 64.00 12.88 C 67.36 12.88 70.72 12.89 74.09 12.87 C 70.36 30.24 67.07 47.72 63.54 65.13 C 63.19 66.51 63.12 68.18 61.75 68.99 C 57.94 69.52 54.02 69.48 50.20 69.02 C 48.86 68.19 48.78 66.51 48.40 65.15 C 45.62 52.35 43.15 39.48 40.16 26.72 C 39.64 27.71 39.30 28.78 39.11 29.88 C 36.71 41.77 34.09 53.62 31.68 65.51 C 31.33 66.96 30.87 69.22 28.95 69.16 C 25.42 69.40 21.83 69.54 18.33 68.98 C 16.39 67.64 16.78 65.00 16.15 63.00 C 12.70 46.30 9.49 29.54 5.91 12.87 Z"/>
<path fill="#ffffff" opacity="1.00" d=" M 177.88 12.88 C 188.91 12.88 199.95 12.87 210.98 12.88 C 214.40 12.88 218.48 13.32 220.66 16.32 C 223.39 19.93 223.29 24.66 223.33 28.96 C 223.32 32.64 223.15 36.67 220.77 39.69 C 219.13 41.89 216.23 42.00 213.97 43.20 C 217.01 44.08 220.91 44.87 221.91 48.40 C 223.85 55.14 222.62 62.25 223.62 69.13 C 220.09 69.12 216.57 69.12 213.04 69.12 C 212.66 63.05 212.14 56.99 211.86 50.91 C 211.91 48.49 209.29 46.92 207.09 47.13 C 201.06 47.09 195.03 47.14 189.00 47.12 C 189.00 54.45 189.00 61.79 189.00 69.12 C 185.29 69.12 181.58 69.12 177.88 69.12 C 177.88 50.37 177.88 31.63 177.88 12.88 M 189.00 22.12 C 189.00 27.55 189.00 32.98 189.00 38.41 C 195.65 38.32 202.32 38.61 208.96 38.27 C 212.53 38.06 212.58 33.77 212.72 31.09 C 212.61 28.14 213.16 24.22 210.41 22.27 C 203.29 21.90 196.14 22.23 189.00 22.12 Z"/>
<path fill="#ffffff" opacity="1.00" d=" M 337.88 12.88 C 347.59 12.92 357.31 12.79 367.02 12.95 C 372.45 13.15 378.63 14.42 381.86 19.25 C 385.93 25.75 385.29 33.71 386.01 41.03 C 385.30 48.34 385.91 56.27 381.86 62.75 C 378.39 67.91 371.68 68.98 365.92 69.09 C 356.57 69.16 347.23 69.10 337.88 69.12 C 337.88 50.37 337.88 31.63 337.88 12.88 M 349.00 22.12 C 349.00 34.71 349.00 47.29 349.00 59.88 C 354.69 59.87 360.38 59.89 366.08 59.89 C 368.81 59.94 372.12 59.22 373.40 56.50 C 375.31 52.29 374.84 47.55 375.00 43.06 C 374.79 37.44 375.59 31.58 373.70 26.18 C 372.85 23.42 369.78 22.11 367.09 22.14 C 361.06 22.08 355.03 22.15 349.00 22.12 Z"/>
<path fill="#231f20" opacity="1.00" d=" M 189.00 22.12 C 196.14 22.23 203.29 21.90 210.41 22.27 C 213.16 24.22 212.61 28.14 212.72 31.09 C 212.58 33.77 212.53 38.06 208.96 38.27 C 202.32 38.61 195.65 38.32 189.00 38.41 C 189.00 32.98 189.00 27.55 189.00 22.12 Z"/>
<path fill="#231f20" opacity="1.00" d=" M 349.00 22.12 C 355.03 22.15 361.06 22.08 367.09 22.14 C 369.78 22.11 372.85 23.42 373.70 26.18 C 375.59 31.58 374.79 37.44 375.00 43.06 C 374.84 47.55 375.31 52.29 373.40 56.50 C 372.12 59.22 368.81 59.94 366.08 59.89 C 360.38 59.89 354.69 59.87 349.00 59.88 C 349.00 47.29 349.00 34.71 349.00 22.12 Z"/>
</svg>