<svg xmlns="http://www.w3.org/2000/svg" viewBox="0 0 123.199 41.6" height="52" width="154"><path style="fill:#555761;stroke-width:.99999994" d="M5.77 9.383v22.834h22.347V9.383Zm44.482 0v22.834H72.6V9.383Zm44.553 0v22.834h22.624V9.383H94.803Zm-55.62 3.425c-1.8 0-3.603.004-5.402.008-.01.935-.01 1.869 0 2.804 1.271.009 2.547 0 3.821 0-.005 3.45-.005 6.91 0 10.36-1.273 0-2.55-.009-3.821 0-.01.935-.007 1.869.006 2.804 3.597.009 7.192.009 10.79 0 .014-.932.012-1.87.006-2.804-1.274-.01-2.55 0-3.821 0 .005-3.45.005-6.91 0-10.36 1.272 0 2.548.009 3.821 0 .01-.935.007-1.87-.007-2.804-1.797-.004-3.594-.008-5.394-.008zm44.023 0c-2.206 0-4.408.008-6.613.014-.01.93-.013 1.86-.007 2.79.71.016 1.42.015 2.13.008.013 3.454.013 6.906 0 10.36a102.194 102.194 0 0 0-2.13 0c-.008.932-.007 1.864.007 2.798 4.477.014 8.95.014 13.428 0 .021-1.847.006-3.69.006-5.535-.973-.005-1.945-.01-2.918 0-.004.913-.004 1.829 0 2.738-1.771.003-3.54-.01-5.313.007-.027-1.367-.008-2.74-.013-4.107h4.175v-2.667h-4.175c0-1.198-.004-2.396 0-3.594 1.727.003 3.454.003 5.18 0-.006.797-.003 1.596 0 2.396h2.86c-.001-1.734.007-3.461 0-5.194-2.205-.006-4.413-.014-6.619-.014zm-66.153.146c.413 0 .825.017 1.237.043.677.311.59 1.208.774 1.823.808 3.6 1.427 7.252 2.353 10.818.825-4.205 1.427-8.451 2.172-12.67.934 0 1.871.008 2.812 0-1.041 4.84-1.955 9.704-2.939 14.552-.098.384-.12.853-.502 1.078a12.553 12.553 0 0 1-3.216.008c-.374-.23-.396-.7-.501-1.079-.775-3.564-1.466-7.146-2.299-10.7a2.975 2.975 0 0 0-.291.878c-.67 3.312-1.398 6.61-2.068 9.92-.098.404-.224 1.033-.759 1.015-.983.068-1.984.11-2.96-.047-.539-.374-.429-1.108-.604-1.665-.962-4.651-1.858-9.315-2.855-13.958 1.02.009 2.045 0 3.064 0a526.607 526.607 0 0 0 2.102 12.65 6.237 6.237 0 0 0 .314-.962c.73-3.568 1.51-7.128 2.255-10.697.092-.368.201-.922.67-.962.412-.026.824-.043 1.24-.043zm38.246.014h9.215c.952 0 2.087.127 2.694.962.761 1.004.735 2.32.745 3.517-.003 1.025-.047 2.152-.71 2.994-.457.613-1.264.638-1.892.972.845.243 1.927.465 2.206 1.448.539 1.878.2 3.856.48 5.772-.983-.003-1.962 0-2.945 0-.106-1.691-.256-3.383-.334-5.074.014-.677-.709-1.11-1.322-1.053-1.68-.01-3.361.006-5.042 0v6.127h-3.097V12.967zm44.55-.001c2.706.013 5.414-.021 8.118.021 1.512.057 3.228.41 4.128 1.755 1.133 1.81.955 4.025 1.155 6.064-.197 2.035-.027 4.245-1.155 6.049-.966 1.434-2.83 1.736-4.434 1.765-2.604.021-5.208 0-7.812.009zm-38.473 2.569c-.994.007-1.985.024-2.981.008v4.532c1.853-.026 3.707.06 5.556-.035.994-.058 1.015-1.252 1.053-1.998-.032-.821.118-1.913-.648-2.457a50.862 50.862 0 0 0-2.979-.05zm41.573.008v10.512c1.586-.003 3.167.007 4.755.007.761.01 1.684-.19 2.04-.95.532-1.172.402-2.494.444-3.744-.057-1.565.166-3.197-.36-4.7-.237-.769-1.088-1.13-1.839-1.12-1.68-.018-3.361 0-5.039-.008z"/></svg>