<?xml version="1.0" encoding="UTF-8" standalone="no"?>
<svg
   xmlns:dc="http://purl.org/dc/elements/1.1/"
   xmlns:cc="http://creativecommons.org/ns#"
   xmlns:rdf="http://www.w3.org/1999/02/22-rdf-syntax-ns#"
   xmlns:svg="http://www.w3.org/2000/svg"
   xmlns="http://www.w3.org/2000/svg"
   xmlns:sodipodi="http://sodipodi.sourceforge.net/DTD/sodipodi-0.dtd"
   xmlns:inkscape="http://www.inkscape.org/namespaces/inkscape"
   width="132.037"
   height="27"
   viewBox="0 0 105.62927 21.6"
   id="svg2"
   version="1.1"
   inkscape:version="0.91 r13725"
   sodipodi:docname="wired.svg">
  <metadata
     id="metadata10">
    <rdf:RDF>
      <cc:Work
         rdf:about="">
        <dc:format>image/svg+xml</dc:format>
        <dc:type
           rdf:resource="http://purl.org/dc/dcmitype/StillImage" />
      </cc:Work>
    </rdf:RDF>
  </metadata>
  <defs
     id="defs8" />
  <sodipodi:namedview
     pagecolor="#ffffff"
     bordercolor="#666666"
     borderopacity="1"
     objecttolerance="10"
     gridtolerance="10"
     guidetolerance="10"
     inkscape:pageopacity="0"
     inkscape:pageshadow="2"
     inkscape:window-width="1366"
     inkscape:window-height="715"
     id="namedview6"
     showgrid="false"
     inkscape:zoom="2.1812067"
     inkscape:cx="66.018501"
     inkscape:cy="13.5"
     inkscape:window-x="-4"
     inkscape:window-y="-4"
     inkscape:window-maximized="1"
     inkscape:current-layer="svg2" />
  <path
     d="M0 0v21.6h21.14V0H0zm42.08 0v21.6h21.14V0H42.08zm42.147 0v21.6h21.402V0H84.225zM31.61 3.24c-1.702 0-3.408.003-5.11.007-.01.885-.01 1.768 0 2.653 1.203.008 2.41 0 3.615 0-.005 3.264-.005 6.536 0 9.8-1.204 0-2.412-.008-3.615 0-.01.885-.007 1.768.006 2.653 3.403.008 6.804.008 10.207 0 .014-.882.012-1.77.007-2.653-1.206-.01-2.412 0-3.615 0 .005-3.264.005-6.536 0-9.8 1.203 0 2.41.008 3.615 0 .01-.885.007-1.77-.007-2.653-1.7-.004-3.4-.007-5.103-.007zm41.646 0c-2.087 0-4.17.007-6.256.013-.01.88-.012 1.76-.007 2.64.672.014 1.343.013 2.015.007.013 3.267.013 6.533 0 9.8-.672-.006-1.343-.008-2.015 0-.008.882-.007 1.764.007 2.647 4.235.013 8.467.013 12.703 0 .02-1.747.006-3.49.006-5.236-.92-.005-1.84-.01-2.76 0-.004.864-.004 1.73 0 2.59-1.676.003-3.35-.01-5.026.007-.026-1.293-.008-2.592-.013-3.885h3.95V9.3h-3.95c0-1.134-.004-2.267 0-3.4 1.634.003 3.268.003 4.9 0-.005.754-.002 1.51 0 2.266h2.707c-.002-1.64.006-3.274 0-4.913-2.087-.006-4.176-.013-6.262-.013zm-62.58.138c.39 0 .78.016 1.17.04.64.295.558 1.143.732 1.725.764 3.406 1.35 6.86 2.226 10.234.78-3.978 1.35-7.995 2.055-11.986.883 0 1.77.008 2.66 0-.985 4.578-1.85 9.18-2.78 13.766-.093.363-.114.807-.475 1.02-1.004.14-2.036.128-3.043.007-.353-.218-.374-.662-.474-1.02-.733-3.372-1.386-6.76-2.174-10.122-.137.26-.226.54-.276.83-.633 3.133-1.322 6.253-1.956 9.385-.093.382-.212.977-.718.96-.93.064-1.877.103-2.8-.045-.51-.354-.406-1.048-.572-1.575-.91-4.4-1.757-8.812-2.7-13.204.964.008 1.934 0 2.898 0C5.06 7.39 5.73 11.38 6.438 15.36c.12-.298.226-.595.297-.91.69-3.376 1.428-6.743 2.133-10.12.087-.348.19-.872.633-.91.39-.024.78-.04 1.173-.04zm36.18.013h8.718c.9 0 1.974.12 2.548.91.72.95.695 2.194.705 3.327-.003.97-.045 2.036-.672 2.832-.432.58-1.196.604-1.79.92.8.23 1.823.44 2.087 1.37.51 1.776.19 3.647.454 5.46-.93-.003-1.856 0-2.786 0-.1-1.6-.242-3.2-.316-4.8.014-.64-.67-1.05-1.25-.996-1.59-.01-3.18.006-4.77 0v5.796h-2.93V3.39zM89 3.39c2.56.012 5.122-.02 7.68.02 1.43.054 3.054.388 3.905 1.66 1.072 1.713.903 3.808 1.093 5.737-.187 1.925-.026 4.015-1.093 5.722-.914 1.357-2.678 1.642-4.195 1.67-2.463.02-4.926 0-7.39.008V3.39zM52.605 5.82c-.94.007-1.878.023-2.82.008v4.287c1.753-.024 3.507.057 5.256-.033.94-.055.96-1.184.996-1.89-.03-.777.112-1.81-.613-2.324-.937-.05-1.878-.052-2.818-.047zm39.328.008v9.944c1.5-.003 2.996.007 4.498.007.72.01 1.593-.18 1.93-.898.503-1.11.38-2.36.42-3.543-.054-1.48.157-3.024-.34-4.446-.225-.727-1.03-1.068-1.74-1.06-1.59-.016-3.18 0-4.767-.007z"
     fill="#333"
     id="path4"
     style="fill:#000000;fill-opacity:1" />
</svg>
