<svg xmlns="http://www.w3.org/2000/svg" xmlns:xlink="http://www.w3.org/1999/xlink" height="16" width="16"><defs><linearGradient id="a"><stop offset="0" stop-color="#fff"/><stop offset=".508" stop-color="#fff" stop-opacity=".235"/><stop offset=".835" stop-color="#fff" stop-opacity=".157"/><stop offset="1" stop-color="#fff" stop-opacity=".392"/></linearGradient><linearGradient y2="44.341" x2="71.204" y1="6.238" x1="71.204" gradientTransform="matrix(.24324 0 0 .24324 -9.449 1.832)" gradientUnits="userSpaceOnUse" id="d" xlink:href="#a"/><radialGradient r="20" fy="8.45" fx="4.38" cy="8.45" cx="4.38" gradientTransform="matrix(0 .9266 -.98024 0 16.283 -3.685)" gradientUnits="userSpaceOnUse" id="c" xlink:href="#b"/><linearGradient id="b"><stop offset="0" stop-color="#cdf87e"/><stop offset=".262" stop-color="#a2e34f"/><stop offset=".661" stop-color="#68b723"/><stop offset="1" stop-color="#1d7e0d"/></linearGradient></defs><path d="M8 2.5A5.504 5.504 0 0 0 2.5 8c0 3.035 2.465 5.5 5.5 5.5s5.5-2.465 5.5-5.5S11.035 2.5 8 2.5z" style="marker:none" color="#000" fill="url(#c)" overflow="visible"/><path d="M12.5 8a4.5 4.5 0 1 1-9 0 4.5 4.5 0 0 1 9 0z" style="marker:none" opacity=".6" color="#000" fill="none" stroke="url(#d)" stroke-linecap="round" stroke-linejoin="round" overflow="visible"/><path d="M8 2.5A5.504 5.504 0 0 0 2.5 8c0 3.035 2.465 5.5 5.5 5.5s5.5-2.465 5.5-5.5S11.035 2.5 8 2.5z" style="marker:none" opacity=".4" color="#000" fill="none" stroke="#0a3600" stroke-linecap="round" overflow="visible"/></svg>