<?xml version="1.0" encoding="UTF-8" standalone="no"?>
<!-- Created with Inkscape (http://www.inkscape.org/) -->

<svg
   xmlns:dc="http://purl.org/dc/elements/1.1/"
   xmlns:cc="http://creativecommons.org/ns#"
   xmlns:rdf="http://www.w3.org/1999/02/22-rdf-syntax-ns#"
   xmlns:svg="http://www.w3.org/2000/svg"
   xmlns="http://www.w3.org/2000/svg"
   xmlns:xlink="http://www.w3.org/1999/xlink"
   xmlns:inkscape="http://www.inkscape.org/namespaces/inkscape"
   version="1.1"
   width="128"
   height="128"
   id="svg4371">
  <defs
     id="defs4373">
    <radialGradient
       cx="17.058823"
       cy="41.058823"
       r="5.7384715"
       fx="14.68769"
       fy="37.45607"
       id="radialGradient3233"
       xlink:href="#linearGradient7067-5"
       gradientUnits="userSpaceOnUse"
       gradientTransform="matrix(1.9168867,-0.34337468,0.06730196,1.8255213,36.536835,-18.596244)" />
    <linearGradient
       id="linearGradient7067-5">
      <stop
         id="stop7069-9"
         style="stop-color:#ffffff;stop-opacity:1"
         offset="0" />
      <stop
         id="stop7071-3"
         style="stop-color:#ffffff;stop-opacity:0"
         offset="1" />
    </linearGradient>
    <linearGradient
       x1="28.503141"
       y1="137.53885"
       x2="26.256771"
       y2="125.39074"
       id="linearGradient3236"
       xlink:href="#linearGradient2372-9"
       gradientUnits="userSpaceOnUse"
       gradientTransform="matrix(0.62275413,0,0,0.62328101,63.103011,-84.798498)" />
    <linearGradient
       id="linearGradient2372-9">
      <stop
         id="stop2374-9"
         style="stop-color:#ffffff;stop-opacity:1"
         offset="0" />
      <stop
         id="stop2376-4"
         style="stop-color:#ffffff;stop-opacity:0.34482759"
         offset="1" />
    </linearGradient>
    <radialGradient
       cx="17.058823"
       cy="41.058823"
       r="5.7384715"
       fx="14.757765"
       fy="37.841019"
       id="radialGradient3239"
       xlink:href="#linearGradient3668-5"
       gradientUnits="userSpaceOnUse"
       gradientTransform="matrix(1.9168865,-0.32434079,0.04183968,1.8697699,70.582286,-27.987745)" />
    <linearGradient
       id="linearGradient3668-5">
      <stop
         id="stop3670-7"
         style="stop-color:#ffffff;stop-opacity:1"
         offset="0" />
      <stop
         id="stop3672-4"
         style="stop-color:#ffffff;stop-opacity:0"
         offset="1" />
    </linearGradient>
    <linearGradient
       x1="28.739122"
       y1="144.11652"
       x2="26.256771"
       y2="125.39074"
       id="linearGradient3242"
       xlink:href="#linearGradient2372-9"
       gradientUnits="userSpaceOnUse"
       gradientTransform="matrix(0.58875043,0,0,0.62492329,98.735643,-89.360905)" />
    <linearGradient
       x1="85.222839"
       y1="-7.2947068"
       x2="94.180481"
       y2="62.364166"
       id="linearGradient4223"
       xlink:href="#linearGradient4217"
       gradientUnits="userSpaceOnUse" />
    <linearGradient
       id="linearGradient4217">
      <stop
         id="stop4219"
         style="stop-color:#606060;stop-opacity:1"
         offset="0" />
      <stop
         id="stop4227"
         style="stop-color:#404040;stop-opacity:1"
         offset="0.21645743" />
      <stop
         id="stop4225"
         style="stop-color:#474747;stop-opacity:1"
         offset="0.53500211" />
      <stop
         id="stop4221"
         style="stop-color:#4d4d4d;stop-opacity:1"
         offset="1" />
    </linearGradient>
    <linearGradient
       x1="18.775953"
       y1="4.0378027"
       x2="18.203465"
       y2="45.962208"
       id="linearGradient2651"
       xlink:href="#linearGradient6036"
       gradientUnits="userSpaceOnUse"
       gradientTransform="matrix(1.0859888,0,0,-1.0859883,37.559418,27.149721)" />
    <linearGradient
       id="linearGradient6036">
      <stop
         id="stop6038"
         style="stop-color:#ffffff;stop-opacity:1"
         offset="0" />
      <stop
         id="stop6040"
         style="stop-color:#ffffff;stop-opacity:0"
         offset="1" />
    </linearGradient>
    <linearGradient
       x1="71.204407"
       y1="6.2375584"
       x2="71.204407"
       y2="44.340794"
       id="linearGradient4064"
       xlink:href="#linearGradient4011"
       gradientUnits="userSpaceOnUse"
       gradientTransform="matrix(2.9459458,0,0,2.9459459,-147.32304,-74.701047)" />
    <linearGradient
       id="linearGradient4011">
      <stop
         id="stop4013"
         style="stop-color:#ffffff;stop-opacity:1"
         offset="0" />
      <stop
         id="stop4015"
         style="stop-color:#ffffff;stop-opacity:0.23529412"
         offset="0.507761" />
      <stop
         id="stop4017"
         style="stop-color:#ffffff;stop-opacity:0.15686275"
         offset="0.83456558" />
      <stop
         id="stop4019"
         style="stop-color:#ffffff;stop-opacity:0.39215687"
         offset="1" />
    </linearGradient>
    <linearGradient
       x1="20.580074"
       y1="10.774516"
       x2="24.27351"
       y2="9.8622112"
       id="linearGradient2682"
       xlink:href="#linearGradient3487"
       gradientUnits="userSpaceOnUse"
       spreadMethod="reflect" />
    <linearGradient
       id="linearGradient3487">
      <stop
         id="stop3489"
         style="stop-color:#e6cde2;stop-opacity:1"
         offset="0" />
      <stop
         id="stop3491"
         style="stop-color:#e6cde2;stop-opacity:0"
         offset="1" />
    </linearGradient>
    <linearGradient
       x1="17.494959"
       y1="11.200086"
       x2="21.047453"
       y2="9.7956104"
       id="linearGradient2684"
       xlink:href="#linearGradient3495"
       gradientUnits="userSpaceOnUse"
       spreadMethod="reflect" />
    <linearGradient
       id="linearGradient3495">
      <stop
         id="stop3497"
         style="stop-color:#c1cbe4;stop-opacity:1"
         offset="0" />
      <stop
         id="stop3499"
         style="stop-color:#c1cbe4;stop-opacity:0"
         offset="1" />
    </linearGradient>
    <linearGradient
       x1="14.084608"
       y1="13.045606"
       x2="16.994024"
       y2="10.732353"
       id="linearGradient2686"
       xlink:href="#linearGradient3503"
       gradientUnits="userSpaceOnUse"
       spreadMethod="reflect" />
    <linearGradient
       id="linearGradient3503">
      <stop
         id="stop3505"
         style="stop-color:#c4ebdd;stop-opacity:1"
         offset="0" />
      <stop
         id="stop3507"
         style="stop-color:#c4ebdd;stop-opacity:0"
         offset="1" />
    </linearGradient>
    <linearGradient
       x1="12.371647"
       y1="16.188046"
       x2="14.609327"
       y2="13.461712"
       id="linearGradient2688"
       xlink:href="#linearGradient3511"
       gradientUnits="userSpaceOnUse"
       spreadMethod="reflect" />
    <linearGradient
       id="linearGradient3511">
      <stop
         id="stop3513"
         style="stop-color:#ebeec7;stop-opacity:1"
         offset="0" />
      <stop
         id="stop3515"
         style="stop-color:#ebeec7;stop-opacity:0"
         offset="1" />
    </linearGradient>
    <linearGradient
       x1="10.609375"
       y1="17.886322"
       x2="9.7297754"
       y2="20.612656"
       id="linearGradient2690"
       xlink:href="#linearGradient3519"
       gradientUnits="userSpaceOnUse"
       spreadMethod="reflect" />
    <linearGradient
       id="linearGradient3519">
      <stop
         id="stop3521"
         style="stop-color:#fcd9cd;stop-opacity:1"
         offset="0" />
      <stop
         id="stop3523"
         style="stop-color:#fcd9cd;stop-opacity:0"
         offset="1" />
    </linearGradient>
    <linearGradient
       x1="20.580074"
       y1="10.774516"
       x2="24.27351"
       y2="9.8622112"
       id="linearGradient2672"
       xlink:href="#linearGradient3487"
       gradientUnits="userSpaceOnUse"
       spreadMethod="reflect" />
    <linearGradient
       x1="17.494959"
       y1="11.200086"
       x2="21.047453"
       y2="9.7956104"
       id="linearGradient2674"
       xlink:href="#linearGradient3495"
       gradientUnits="userSpaceOnUse"
       spreadMethod="reflect" />
    <linearGradient
       x1="14.084608"
       y1="13.045606"
       x2="16.994024"
       y2="10.732353"
       id="linearGradient2676"
       xlink:href="#linearGradient3503"
       gradientUnits="userSpaceOnUse"
       spreadMethod="reflect" />
    <linearGradient
       x1="12.371647"
       y1="16.188046"
       x2="14.609327"
       y2="13.461712"
       id="linearGradient2678"
       xlink:href="#linearGradient3511"
       gradientUnits="userSpaceOnUse"
       spreadMethod="reflect" />
    <linearGradient
       x1="10.609375"
       y1="17.886322"
       x2="9.7297754"
       y2="20.612656"
       id="linearGradient2680"
       xlink:href="#linearGradient3519"
       gradientUnits="userSpaceOnUse"
       spreadMethod="reflect" />
    <linearGradient
       x1="21.448364"
       y1="15.5"
       x2="21.448364"
       y2="32.509201"
       id="linearGradient2654"
       xlink:href="#linearGradient3428"
       gradientUnits="userSpaceOnUse"
       gradientTransform="matrix(2.5381093,0,0,2.5381093,3.0853666,-60.914613)" />
    <linearGradient
       id="linearGradient3428">
      <stop
         id="stop3430"
         style="stop-color:#aaaaaa;stop-opacity:1"
         offset="0" />
      <stop
         id="stop3432"
         style="stop-color:#d4d4d4;stop-opacity:1"
         offset="1" />
    </linearGradient>
    <linearGradient
       x1="12.2744"
       y1="32.4165"
       x2="35.391201"
       y2="14.2033"
       id="linearGradient2658"
       xlink:href="#linearGradient3263-6"
       gradientUnits="userSpaceOnUse"
       gradientTransform="matrix(0,3.1714559,-3.1714559,0,137.26064,-76.11495)" />
    <linearGradient
       x1="12.2744"
       y1="32.4165"
       x2="35.391201"
       y2="14.2033"
       id="linearGradient3263-6"
       gradientUnits="userSpaceOnUse">
      <stop
         id="stop3265-8"
         style="stop-color:#dedcde;stop-opacity:1"
         offset="0" />
      <stop
         id="stop3267-9"
         style="stop-color:#f0f0f0;stop-opacity:1"
         offset="0.5" />
      <stop
         id="stop3269-2"
         style="stop-color:#d2d2d2;stop-opacity:1"
         offset="1" />
    </linearGradient>
    <linearGradient
       x1="-21.915663"
       y1="3"
       x2="-21.915663"
       y2="45.032898"
       id="linearGradient2660"
       xlink:href="#linearGradient3772-6"
       gradientUnits="userSpaceOnUse"
       gradientTransform="matrix(2.7073165,0,0,2.7073165,135.10782,-64.975588)" />
    <linearGradient
       id="linearGradient3772-6">
      <stop
         id="stop3774-6"
         style="stop-color:#b4b4b4;stop-opacity:1"
         offset="0" />
      <stop
         id="stop3776-4"
         style="stop-color:#969696;stop-opacity:1"
         offset="1" />
    </linearGradient>
    <linearGradient
       id="linearGradient23419">
      <stop
         id="stop23421"
         style="stop-color:#000000;stop-opacity:1"
         offset="0" />
      <stop
         id="stop23423"
         style="stop-color:#000000;stop-opacity:0"
         offset="1" />
    </linearGradient>
    <radialGradient
       cx="23.334524"
       cy="41.63604"
       r="22.627417"
       fx="23.334524"
       fy="41.63604"
       id="radialGradient4369"
       xlink:href="#linearGradient23419"
       gradientUnits="userSpaceOnUse"
       gradientTransform="matrix(2.6516504,0,0,0.7954211,2.1249955,8.881818)" />
  </defs>
  <metadata
     id="metadata4376">
    <rdf:RDF>
      <cc:Work
         rdf:about="">
        <dc:format>image/svg+xml</dc:format>
        <dc:type
           rdf:resource="http://purl.org/dc/dcmitype/StillImage" />
        <dc:title />
      </cc:Work>
    </rdf:RDF>
  </metadata>
  <g
     transform="translate(0,64)"
     id="layer1">
    <path
       d="M 124,41.999991 C 124.003,51.94084 97.139272,60 64,60 30.860727,60 3.9969077,51.94084 3.999998,41.999991 3.9969077,32.05915 30.860727,24.000001 64,24.000001 c 33.139272,0 60.00309,8.059149 60,17.99999 z"
       inkscape:connector-curvature="0"
       id="path23417"
       style="opacity:0.3;fill:url(#radialGradient4369);fill-opacity:1;fill-rule:evenodd;stroke:none;stroke-width:2;marker:none;visibility:visible;display:inline;overflow:visible" />
    <path
       d="m 119.49998,9e-6 c 0,-30.763132 -24.736865,-55.499989 -55.499992,-55.499989 C 33.236854,-55.49998 8.5,-30.763121 8.5,9e-6 8.4999946,30.763139 33.236857,55.5 63.999988,55.5 94.763112,55.49999 119.49998,30.763141 119.49998,9e-6 z m -35.195118,0 c 0,11.176154 -8.905094,20.304874 -20.304874,20.304874 -11.623403,0 -20.304874,-9.354626 -20.304874,-20.304874 0,-11.173915 8.234215,-20.304874 20.304874,-20.304874 12.07066,0 20.304874,9.352343 20.304874,20.304874 z"
       inkscape:connector-curvature="0"
       id="path2781"
       style="fill:url(#linearGradient2658);fill-opacity:1;fill-rule:nonzero;stroke:url(#linearGradient2660);stroke-width:1;stroke-miterlimit:4;stroke-opacity:1" />
    <path
       d="m 63.999988,-20.999991 c -11.592,0 -21,9.408 -21,21 0,11.592001 9.408,21 21,21 11.592,0 21,-9.407999 21,-21 0,-11.592 -9.408,-21 -21,-21 z m 0,10.500001 c 5.796,0 10.5,4.703999 10.5,10.499999 0,5.796 -4.704,10.5 -10.5,10.5 -5.796,0 -10.5,-4.704 -10.5,-10.5 0,-5.796 4.704,-10.499999 10.5,-10.499999 z"
       inkscape:connector-curvature="0"
       id="path2474"
       style="opacity:0.5;fill:#ffffff;fill-opacity:1;fill-rule:nonzero;stroke:none;stroke-width:1;marker:none;visibility:visible;display:inline;overflow:visible;enable-background:accumulate" />
    <path
       d="m 63.999988,-20.304865 c -11.20829,0 -20.304874,9.096584 -20.304874,20.304874 0,11.20829 9.096584,20.304874 20.304874,20.304874 11.20829,0 20.304874,-9.096584 20.304874,-20.304874 0,-11.20829 -9.096584,-20.304874 -20.304874,-20.304874 z m 0,10.152436 c 5.604145,0 10.152437,4.548293 10.152437,10.152438 0,5.604145 -4.548292,10.152436 -10.152437,10.152436 -5.604145,0 -10.152437,-4.548291 -10.152437,-10.152436 0,-5.604145 4.548292,-10.152438 10.152437,-10.152438 z"
       inkscape:connector-curvature="0"
       id="path3418"
       style="fill:none;stroke:url(#linearGradient2654);stroke-width:1;stroke-linecap:butt;stroke-linejoin:round;stroke-miterlimit:4;stroke-opacity:1;stroke-dasharray:none;stroke-dashoffset:0;marker:none;visibility:visible;display:inline;overflow:visible;enable-background:accumulate" />
    <g
       transform="matrix(2.7320403,0,0,2.7320403,-1.0900842,-65.074256)"
       id="g3527">
      <path
         d="M 15.856928,5.7307748 20.625,16.34375 C 21.660403,15.885186 22.795334,15.625 24,15.625 c 0.03206,0 0.06178,-3.6e-4 0.09375,0 L 24.10801,4.0047512 c -2.94215,-0.070687 -5.543041,0.6572865 -8.251083,1.7260236 z"
         inkscape:connector-curvature="0"
         transform="matrix(0.9996011,0.02824295,-0.02824295,0.9996011,0.6924114,-0.6708346)"
         id="path3296"
         style="opacity:0.8;fill:url(#linearGradient2672);fill-opacity:1;fill-rule:nonzero;stroke:none" />
      <path
         d="m 12.121471,7.9060109 6.931026,9.3601041 c 0.913109,-0.669755 1.965938,-1.167064 3.142629,-1.425169 0.03132,-0.0069 0.06026,-0.01359 0.09157,-0.02009 L 19.857174,4.426276 c -2.888973,0.5613244 -5.31953,1.8556038 -7.735703,3.4797349 z"
         inkscape:connector-curvature="0"
         id="path3308"
         style="opacity:0.8;fill:url(#linearGradient2674);fill-opacity:1;fill-rule:nonzero;stroke:none" />
      <path
         d="m 8.2523933,11.646535 9.2137237,7.155818 c 0.70865,-0.883264 1.596891,-1.636119 2.666685,-2.18998 0.02847,-0.01474 0.05469,-0.02872 0.08325,-0.0431 L 14.86585,6.2506132 C 12.220599,7.5405321 10.165881,9.452393 8.2523933,11.646535 z"
         inkscape:connector-curvature="0"
         id="path3310"
         style="opacity:0.8;fill:url(#linearGradient2676);fill-opacity:1;fill-rule:nonzero;stroke:none" />
      <path
         d="m 5.6328855,16.073974 c 7.1748065,2.242248 7.8502625,7.031463 12.7767855,1.754127 L 10.499985,9.1321388 C 8.2787249,11.062747 6.9132871,13.459349 5.6328855,16.073974 z"
         inkscape:connector-curvature="0"
         id="path3312"
         style="opacity:0.8;fill:url(#linearGradient2678);fill-opacity:1;fill-rule:nonzero;stroke:none" />
      <path
         d="M 7.155289,13.193173 C 5.9722117,14.945185 5.2475768,16.829547 4.6301929,18.837116 L 15.96875,21.8125 C 16.184264,21.049497 16.486796,20.297733 16.9375,19.59375 16.95479,19.56675 16.98246,19.52673 17,19.5 L 7.155289,13.193173 z"
         inkscape:connector-curvature="0"
         id="path3314"
         style="opacity:0.8;fill:url(#linearGradient2680);fill-opacity:1;fill-rule:nonzero;stroke:none" />
    </g>
    <g
       transform="matrix(-2.7073165,0,0,-2.7073165,128.97558,64.95078)"
       id="g3297">
      <path
         d="M 15.856928,5.7307748 20.625,16.34375 C 21.660403,15.885186 22.795334,15.625 24,15.625 c 0.03206,0 0.06178,-3.6e-4 0.09375,0 L 24.10801,4.0047512 c -2.94215,-0.070687 -5.543041,0.6572865 -8.251083,1.7260236 z"
         inkscape:connector-curvature="0"
         transform="matrix(0.9996011,0.02824295,-0.02824295,0.9996011,0.6924114,-0.6708346)"
         id="path3299"
         style="opacity:0.8;fill:url(#linearGradient2682);fill-opacity:1;fill-rule:nonzero;stroke:none" />
      <path
         d="m 12.121471,7.9060109 6.931026,9.3601041 c 0.913109,-0.669755 1.965938,-1.167064 3.142629,-1.425169 0.03132,-0.0069 0.06026,-0.01359 0.09157,-0.02009 L 19.857174,4.426276 c -2.888973,0.5613244 -5.31953,1.8556038 -7.735703,3.4797349 z"
         inkscape:connector-curvature="0"
         id="path3301"
         style="opacity:0.8;fill:url(#linearGradient2684);fill-opacity:1;fill-rule:nonzero;stroke:none" />
      <path
         d="m 8.2523933,11.646535 9.2137237,7.155818 c 0.70865,-0.883264 1.596891,-1.636119 2.666685,-2.18998 0.02847,-0.01474 0.05469,-0.02872 0.08325,-0.0431 L 14.86585,6.2506132 C 12.220599,7.5405321 10.165881,9.452393 8.2523933,11.646535 z"
         inkscape:connector-curvature="0"
         id="path3303"
         style="opacity:0.8;fill:url(#linearGradient2686);fill-opacity:1;fill-rule:nonzero;stroke:none" />
      <path
         d="m 5.6328855,16.073974 c 7.1748065,2.242248 7.8502625,7.031463 12.7767855,1.754127 L 10.499985,9.1321388 C 8.2787249,11.062747 6.9132871,13.459349 5.6328855,16.073974 z"
         inkscape:connector-curvature="0"
         id="path3305"
         style="opacity:0.8;fill:url(#linearGradient2688);fill-opacity:1;fill-rule:nonzero;stroke:none" />
      <path
         d="M 7.155289,13.193173 C 5.9722117,14.945185 5.2475768,16.829547 4.6301929,18.837116 L 15.96875,21.8125 C 16.184264,21.049497 16.486796,20.297733 16.9375,19.59375 16.95479,19.56675 16.98246,19.52673 17,19.5 L 7.155289,13.193173 z"
         inkscape:connector-curvature="0"
         id="path3307"
         style="opacity:0.8;fill:url(#linearGradient2690);fill-opacity:1;fill-rule:nonzero;stroke:none" />
    </g>
    <path
       d="m 118.49999,-0.001923 c 0,30.100492 -24.402273,54.501933 -54.499313,54.501933 -30.099783,0 -54.500684,-24.401718 -54.500684,-54.501933 0,-30.099098 24.400901,-54.498065 54.500684,-54.498065 30.09704,0 54.499313,24.398967 54.499313,54.498065 l 0,0 z"
       inkscape:connector-curvature="0"
       id="path8655"
       style="opacity:0.55;color:#000000;fill:none;stroke:url(#linearGradient4064);stroke-width:1.00000012;stroke-linecap:round;stroke-linejoin:round;stroke-miterlimit:4;stroke-opacity:1;stroke-dasharray:none;stroke-dashoffset:0;marker:none;visibility:visible;display:inline;overflow:visible;enable-background:accumulate" />
    <path
       d="m 63.99999,21.500009 c -11.917147,0 -21.500003,-9.582855 -21.500003,-21.5 0,-11.917145 9.582856,-21.5 21.500003,-21.5 11.917144,0 21.499999,9.582855 21.499999,21.5 0,11.917145 -9.582855,21.5 -21.499999,21.5 l 0,0 0,0 z"
       inkscape:connector-curvature="0"
       id="path3281"
       style="opacity:0.4;fill:none;stroke:url(#linearGradient2651);stroke-width:1;stroke-miterlimit:4;stroke-opacity:1" />
    <path
       d="m 113.46491,-11.49719 -33.443789,5.273278 c -2.38486,0.915767 -2.46334,2.809305 -2.52034,6.14492 l 0,39.848778 c -7.77917,-1.72718 -16.91876,4.318974 -16.98528,12.532094 -0.35025,5.27431 5.29925,9.6446 10.43823,9.16156 6.96608,-0.35589 13.29293,-7.07828 12.54705,-14.25637 l 0,-39.577158 27.999999,-4.350385 c 0,0 0,19.932979 0,28.984549 -7.4543,-2.139358 -16.552439,2.764867 -17.787659,10.60482 -0.87362,5.595894 1.92932,9.837164 6.356109,11.157584 8.28648,2.70598 17.33536,-5.84821 16.35805,-14.382784 -0.0231,-16.0084 0.0698,-32.016851 0,-48.025204 -0.19473,-1.591208 -1.22263,-3.196138 -2.96237,-3.115682 z"
       inkscape:connector-curvature="0"
       id="path3406-4"
       style="fill:url(#linearGradient4223);fill-opacity:1;stroke:#333333;stroke-width:1;stroke-linecap:round;stroke-linejoin:round;stroke-miterlimit:4;stroke-opacity:1;stroke-dasharray:none" />
    <path
       d="m 111.98275,2.714928 1,0 0,32.27595 c 0,0.167109 -1,-2.017247 -1,-2.017247 z"
       inkscape:connector-curvature="0"
       id="path3996"
       style="opacity:0.25;fill:url(#linearGradient3242);fill-opacity:1;fill-rule:evenodd;stroke:none" />
    <path
       d="M 116,41.296083 C 116,47.13318 111.07513,52.73988 104.99998,53.819 98.92487,54.89812 94,51.04102 94,45.20392 94,39.366823 98.92487,33.760116 104.99998,32.680994 111.07513,31.601876 116,35.458982 116,41.296083 z"
       inkscape:connector-curvature="0"
       id="path2716"
       style="opacity:0.6;fill:url(#radialGradient3239);fill-opacity:1;stroke:none" />
    <path
       d="m 78.000013,40.293461 0,-42.303089 c 0,0 0.416796,-3.799454 2.458221,-3.807715 0.177397,0.306067 32.913856,-5.190118 32.913856,-5.190118 0,0 -1.22679,1.355713 -15.057582,3.5482 C 78.333141,-4.291769 79,-5.623781 79,-0.406743 L 79,42 c -0.453467,-0.385545 -0.09048,-1.476286 -0.999987,-1.706539 z"
       inkscape:connector-curvature="0"
       id="path2720"
       style="opacity:0.3;fill:url(#linearGradient3236);fill-opacity:1;fill-rule:evenodd;stroke:none" />
    <path
       d="M 83,48.59153 C 83,54.29287 78.075136,59.76919 72.000003,60.82321 65.924867,61.87724 61,58.10984 61,52.40848 61,46.70713 65.924867,41.230815 72.000003,40.176787 78.075136,39.122762 83,42.890169 83,48.59153 z"
       inkscape:connector-curvature="0"
       id="path2712"
       style="opacity:0.6;fill:url(#radialGradient3233);fill-opacity:1;stroke:none" />
  </g>
</svg>
