<svg xmlns="http://www.w3.org/2000/svg" width="81.692" height="27" viewBox="0 0 65.353 21.6"><g transform="translate(0 -122.8)" fill="#1a1a1a"><g fill="#333"><path d="M10.8 122.8A10.8 10.8 0 0 0 0 133.6a10.8 10.8 0 0 0 10.8 10.8 10.8 10.8 0 0 0 10.8-10.8 10.8 10.8 0 0 0-10.8-10.8zm-5.22 7.345c1.6 0 2.378.643 2.378 2.124v4.622H6.97l-.134-.883a3.111 3.111 0 0 1-2.333 1.017c-1.197 0-1.945-.717-1.945-1.84 0-1.645 1.406-2.302 4.173-2.587v-.284c0-.838-.493-1.122-1.256-1.122s-1.571.253-2.29.567l-.163-1.06c.793-.315 1.54-.554 2.558-.554zm10.875 0a5.34 5.34 0 0 1 2.168.449l-.195 1.165a4.218 4.218 0 0 0-2.003-.567c-.748 0-1.137.284-1.137.763 0 .478.329.688 1.376.957 1.63.42 2.363.883 2.363 2.14 0 1.256-.912 1.973-2.618 1.973a5.415 5.415 0 0 1-2.407-.628l.18-1.166a4.129 4.129 0 0 0 2.332.763c.838 0 1.347-.316 1.347-.869 0-.553-.375-.838-1.572-1.122-1.556-.389-2.169-.853-2.169-2.034 0-1.182.884-1.824 2.335-1.824zm-3.336.014l.194 1.182c-1.107.044-2.035.777-2.483 1.645v3.905H9.603v-6.597h.988l.209 1.347c.464-.748 1.227-1.422 2.319-1.482zm-6.388 3.382c-2.438.239-2.947.896-2.947 1.584 0 .688.36.883.988.883s1.406-.358 1.96-.927zM32.804 135.35c-.658.554-1.257.748-1.915.748-1.152 0-1.9-.793-2.02-2.094h3.725l.135-.823h-3.86c.12-1.301.853-2.109 1.93-2.109.733 0 1.317.254 1.93.763l.15-.883a3.44 3.44 0 0 0-2.05-.643c-1.6 0-2.872 1.167-2.872 3.276 0 2.11 1.242 3.276 2.827 3.276a3.306 3.306 0 0 0 2.14-.718zM25.504 131.222v5.534h-.867v-5.534h-2.005v-.793h4.817l.134.793zM36.678 136.86c-1.78 0-2.917-1.315-2.917-3.26 0-1.945 1.167-3.29 2.932-3.29a3.037 3.037 0 0 1 1.795.523l-.135.882a2.707 2.707 0 0 0-1.675-.613c-1.286 0-2.034.972-2.034 2.483 0 1.51.763 2.483 2.034 2.483a3.007 3.007 0 0 0 1.78-.628l.135.808a3.336 3.336 0 0 1-1.915.613zM43.783 136.741v-2.917h-3.2v2.917h-.868v-6.312h.867v2.618h3.201v-2.618h.868v6.312zM50.216 136.741l-3.47-4.921v4.921h-.794v-6.312h.763l3.35 4.727v-4.727h.794v6.312zM52.22 136.741v-6.312h.868v6.312zM57.111 136.86c-1.78 0-2.917-1.315-2.917-3.26 0-1.945 1.167-3.29 2.932-3.29a3.037 3.037 0 0 1 1.795.523l-.134.882a2.707 2.707 0 0 0-1.676-.613c-1.286 0-2.034.972-2.034 2.483 0 1.51.763 2.483 2.034 2.483a3.007 3.007 0 0 0 1.78-.628l.135.808a3.336 3.336 0 0 1-1.915.613zM62.048 130.399h.867l2.438 6.223-.837.18-.748-1.96h-2.603l-.718 1.9h-.867zm-.599 3.695h2.02l-1.017-2.678z"/></g></g></svg>
