<?xml version="1.0" encoding="UTF-8" standalone="no"?>
<svg
   xmlns:dc="http://purl.org/dc/elements/1.1/"
   xmlns:cc="http://creativecommons.org/ns#"
   xmlns:rdf="http://www.w3.org/1999/02/22-rdf-syntax-ns#"
   xmlns:svg="http://www.w3.org/2000/svg"
   xmlns="http://www.w3.org/2000/svg"
   id="svg8"
   version="1.1"
   viewBox="0 0 123.19886 41.6"
   height="52"
   width="154">
  <metadata
     id="metadata14">
    <rdf:RDF>
      <cc:Work
         rdf:about="">
        <dc:format>image/svg+xml</dc:format>
        <dc:type
           rdf:resource="http://purl.org/dc/dcmitype/StillImage" />
        <dc:title></dc:title>
      </cc:Work>
    </rdf:RDF>
  </metadata>
  <defs
     id="defs12" />
  <g
     style="fill:#555761;stroke-width:0.53060418"
     id="g6"
     transform="matrix(1.8846438,0,0,1.8846438,0.01586687,-230.98841)">
    <g
       style="fill:#555761;stroke-width:0.53060418"
       id="g4">
      <path
         style="fill:#555761;stroke-width:0.53060418"
         id="path2"
         d="M 10.8,122.8 A 10.8,10.8 0 0 0 0,133.6 10.8,10.8 0 0 0 10.8,144.4 10.8,10.8 0 0 0 21.6,133.6 10.8,10.8 0 0 0 10.8,122.8 Z m -5.22,7.345 c 1.6,0 2.378,0.643 2.378,2.124 v 4.622 H 6.97 l -0.134,-0.883 a 3.111,3.111 0 0 1 -2.333,1.017 c -1.197,0 -1.945,-0.717 -1.945,-1.84 0,-1.645 1.406,-2.302 4.173,-2.587 v -0.284 c 0,-0.838 -0.493,-1.122 -1.256,-1.122 -0.763,0 -1.571,0.253 -2.29,0.567 l -0.163,-1.06 c 0.793,-0.315 1.54,-0.554 2.558,-0.554 z m 10.875,0 a 5.34,5.34 0 0 1 2.168,0.449 l -0.195,1.165 a 4.218,4.218 0 0 0 -2.003,-0.567 c -0.748,0 -1.137,0.284 -1.137,0.763 0,0.478 0.329,0.688 1.376,0.957 1.63,0.42 2.363,0.883 2.363,2.14 0,1.256 -0.912,1.973 -2.618,1.973 a 5.415,5.415 0 0 1 -2.407,-0.628 l 0.18,-1.166 a 4.129,4.129 0 0 0 2.332,0.763 c 0.838,0 1.347,-0.316 1.347,-0.869 0,-0.553 -0.375,-0.838 -1.572,-1.122 -1.556,-0.389 -2.169,-0.853 -2.169,-2.034 0,-1.182 0.884,-1.824 2.335,-1.824 z m -3.336,0.014 0.194,1.182 c -1.107,0.044 -2.035,0.777 -2.483,1.645 v 3.905 H 9.603 v -6.597 h 0.988 l 0.209,1.347 c 0.464,-0.748 1.227,-1.422 2.319,-1.482 z m -6.388,3.382 c -2.438,0.239 -2.947,0.896 -2.947,1.584 0,0.688 0.36,0.883 0.988,0.883 0.628,0 1.406,-0.358 1.96,-0.927 z m 26.073,1.809 c -0.658,0.554 -1.257,0.748 -1.915,0.748 -1.152,0 -1.9,-0.793 -2.02,-2.094 h 3.725 l 0.135,-0.823 h -3.86 c 0.12,-1.301 0.853,-2.109 1.93,-2.109 0.733,0 1.317,0.254 1.93,0.763 l 0.15,-0.883 a 3.44,3.44 0 0 0 -2.05,-0.643 c -1.6,0 -2.872,1.167 -2.872,3.276 0,2.11 1.242,3.276 2.827,3.276 a 3.306,3.306 0 0 0 2.14,-0.718 z m -7.3,-4.128 v 5.534 h -0.867 v -5.534 h -2.005 v -0.793 h 4.817 l 0.134,0.793 z m 11.174,5.638 c -1.78,0 -2.917,-1.315 -2.917,-3.26 0,-1.945 1.167,-3.29 2.932,-3.29 a 3.037,3.037 0 0 1 1.795,0.523 l -0.135,0.882 a 2.707,2.707 0 0 0 -1.675,-0.613 c -1.286,0 -2.034,0.972 -2.034,2.483 0,1.51 0.763,2.483 2.034,2.483 a 3.007,3.007 0 0 0 1.78,-0.628 l 0.135,0.808 a 3.336,3.336 0 0 1 -1.915,0.613 z m 7.105,-0.119 v -2.917 h -3.2 v 2.917 h -0.868 v -6.312 h 0.867 v 2.618 h 3.201 v -2.618 h 0.868 v 6.312 z m 6.433,0 -3.47,-4.921 v 4.921 h -0.794 v -6.312 h 0.763 l 3.35,4.727 v -4.727 h 0.794 v 6.312 z m 2.004,0 v -6.312 h 0.868 v 6.312 z m 4.891,0.119 c -1.78,0 -2.917,-1.315 -2.917,-3.26 0,-1.945 1.167,-3.29 2.932,-3.29 a 3.037,3.037 0 0 1 1.795,0.523 l -0.134,0.882 a 2.707,2.707 0 0 0 -1.676,-0.613 c -1.286,0 -2.034,0.972 -2.034,2.483 0,1.51 0.763,2.483 2.034,2.483 a 3.007,3.007 0 0 0 1.78,-0.628 l 0.135,0.808 a 3.336,3.336 0 0 1 -1.915,0.613 z m 4.937,-6.461 h 0.867 l 2.438,6.223 -0.837,0.18 -0.748,-1.96 h -2.603 l -0.718,1.9 H 59.58 Z m -0.599,3.695 h 2.02 l -1.017,-2.678 z" />
    </g>
  </g>
</svg>
