<?xml version="1.0" encoding="UTF-8" standalone="no"?>
<svg
   xmlns:dc="http://purl.org/dc/elements/1.1/"
   xmlns:cc="http://creativecommons.org/ns#"
   xmlns:rdf="http://www.w3.org/1999/02/22-rdf-syntax-ns#"
   xmlns:svg="http://www.w3.org/2000/svg"
   xmlns="http://www.w3.org/2000/svg"
   xmlns:sodipodi="http://sodipodi.sourceforge.net/DTD/sodipodi-0.dtd"
   xmlns:inkscape="http://www.inkscape.org/namespaces/inkscape"
   class="fs-icon fs-icon--forbes-logo"
   viewBox="0 0 108 27"
   version="1.1"
   id="svg4"
   sodipodi:docname="forbes.svg"
   width="108"
   height="27"
   inkscape:version="0.92.3 (2405546, 2018-03-11)">
  <metadata
     id="metadata10">
    <rdf:RDF>
      <cc:Work
         rdf:about="">
        <dc:format>image/svg+xml</dc:format>
        <dc:type
           rdf:resource="http://purl.org/dc/dcmitype/StillImage" />
        <dc:title></dc:title>
      </cc:Work>
    </rdf:RDF>
  </metadata>
  <defs
     id="defs8" />
  <sodipodi:namedview
     pagecolor="#ffffff"
     bordercolor="#666666"
     borderopacity="1"
     objecttolerance="10"
     gridtolerance="10"
     guidetolerance="10"
     inkscape:pageopacity="0"
     inkscape:pageshadow="2"
     inkscape:window-width="1096"
     inkscape:window-height="696"
     id="namedview6"
     showgrid="false"
     fit-margin-top="0"
     fit-margin-left="0"
     fit-margin-right="0"
     fit-margin-bottom="0"
     inkscape:zoom="2.83"
     inkscape:cx="57.347594"
     inkscape:cy="32.839039"
     inkscape:window-x="691"
     inkscape:window-y="335"
     inkscape:window-maximized="0"
     inkscape:current-layer="svg4" />
  <path
     d="m 61.198188,8.800805 c 0,-3.150906 0.05433,-6.084507 0.217304,-8.800805 l -8.311871,1.575453 v 0.760563 l 0.814889,0.108652 c 0.597586,0.05433 0.977867,0.27163 1.195171,0.597586 0.217304,0.380281 0.380282,0.923541 0.488934,1.73843 0.108652,1.575453 0.217304,5.160966 0.162978,10.810865 0,5.595574 -0.05433,9.126761 -0.162978,10.48491 C 58.590542,26.72837 60.926559,27 62.664989,27 c 3.259557,0 5.812877,-0.923541 7.65996,-2.82495 1.847082,-1.847082 2.82495,-4.454728 2.82495,-7.659959 0,-2.55332 -0.706238,-4.672033 -2.118713,-6.356137 C 69.618711,8.474849 67.825955,7.65996 65.707243,7.65996 c -1.412475,0 -2.879276,0.380281 -4.509055,1.140845 z m 0.162978,16.732394 c -0.108652,-1.73843 -0.217304,-6.953722 -0.217304,-15.482897 0.488934,-0.162978 1.140845,-0.27163 1.955735,-0.27163 1.303823,0 2.336016,0.651912 3.096579,2.01006 0.760564,1.358149 1.140845,2.987928 1.140845,5.052314 0,2.55332 -0.434607,4.617707 -1.303823,6.356137 -0.869215,1.684105 -1.955734,2.55332 -3.313883,2.55332 C 62.284707,25.641851 61.8501,25.587525 61.361166,25.533199 Z M 21.920522,0.54326 H 0.19014 v 1.086519 l 1.1408451,0.108652 c 0.8692153,0.162977 1.4668008,0.488933 1.8470825,0.977867 0.3802817,0.543259 0.5975855,1.412475 0.6519114,2.607646 0.4346077,5.867203 0.4346077,11.354124 0,16.406438 -0.1086519,1.195171 -0.3259557,2.064387 -0.6519114,2.607646 -0.3802817,0.54326 -0.9778672,0.869215 -1.8470825,0.977867 L 0.19014,25.478873 v 1.086519 H 14.206237 V 25.478873 L 12.739436,25.370221 C 11.87022,25.261569 11.272635,24.881288 10.892353,24.392354 10.512072,23.849095 10.294768,22.979879 10.240442,21.784708 10.077464,19.61167 9.968812,17.112676 9.968812,14.342052 l 2.933602,0.05433 c 1.575452,0.05433 2.661971,1.249497 3.205231,3.639839 h 1.086519 v -8.85513 h -1.086519 c -0.54326,2.336016 -1.575453,3.531187 -3.205231,3.585513 l -2.933602,0.05433 c 0,-4.889336 0.108652,-8.366198 0.27163,-10.48491 h 4.29175 c 3.042254,0 5.10664,1.955735 6.301811,5.867203 l 1.303823,-0.380281 z m -2.55332,16.732394 c 0,2.82495 0.81489,5.160966 2.390342,7.008048 C 23.332997,26.130785 25.669013,27 28.602615,27 c 2.933601,0 5.323944,-0.923541 7.062374,-2.82495 1.738431,-1.847082 2.55332,-4.183098 2.55332,-7.008048 0,-2.82495 -0.814889,-5.160966 -2.390342,-7.008048 -1.575453,-1.847083 -3.911469,-2.716298 -6.84507,-2.716298 -2.933602,0 -5.323944,0.923541 -7.062375,2.82495 -1.73843,1.847082 -2.55332,4.183098 -2.55332,7.008048 z m 12.114689,-6.193159 c 0.651911,1.575453 0.923541,3.639839 0.923541,6.138833 0,5.758551 -1.195171,8.583501 -3.531187,8.583501 -1.195171,0 -2.118713,-0.814889 -2.770624,-2.444668 -0.651912,-1.629779 -0.923541,-3.694165 -0.923541,-6.138833 0,-5.704225 1.195171,-8.529175 3.531187,-8.529175 1.195171,-0.05433 2.118712,0.760563 2.770624,2.390342 z M 77.387323,24.283702 C 79.18008,26.076459 81.46177,27 84.178068,27 c 1.684104,0 3.150905,-0.325956 4.454728,-1.032193 1.303823,-0.651912 2.336016,-1.466801 3.042253,-2.444668 L 91.13179,22.871227 c -1.195171,0.923542 -2.55332,1.358149 -4.128773,1.358149 -2.173038,0 -3.857143,-0.706237 -4.997988,-2.173038 -1.195171,-1.466801 -1.73843,-3.313883 -1.629778,-5.704225 h 11.625754 c 0,-2.607646 -0.651911,-4.726358 -2.01006,-6.410463 -1.358149,-1.629779 -3.259558,-2.444668 -5.704226,-2.444668 -3.042253,0 -5.378269,0.977867 -7.062374,2.879276 -1.684104,1.901408 -2.498994,4.237424 -2.498994,7.008048 0,2.82495 0.869216,5.10664 2.661972,6.899396 z m 4.020121,-13.635815 c 0.597585,-1.303823 1.358149,-1.955734 2.390342,-1.955734 1.629779,0 2.444668,2.064386 2.444668,6.247485 l -5.758551,0.108652 c 0.05433,-1.629779 0.325955,-3.09658 0.923541,-4.400403 z M 106.61469,8.474849 c -1.4668,-0.651911 -3.31389,-1.032193 -5.54125,-1.032193 -2.28169,0 -4.074447,0.597585 -5.432596,1.738431 -1.358149,1.140845 -2.064386,2.553319 -2.064386,4.237424 0,1.466801 0.434608,2.607646 1.249497,3.422535 0.814889,0.81489 2.118712,1.521127 3.802817,2.118713 1.521128,0.543259 2.607648,1.086519 3.150908,1.575452 0.54326,0.54326 0.86921,1.140845 0.86921,1.955735 0,0.760563 -0.27163,1.4668 -0.86921,2.01006 -0.54326,0.597586 -1.30383,0.869215 -2.28169,0.869215 -2.390345,0 -4.183102,-1.73843 -5.432598,-5.215291 l -0.923542,0.271629 0.217304,5.432596 C 95.314888,26.619718 97.487927,27 99.87827,27 c 2.49899,0 4.4004,-0.54326 5.81288,-1.684105 1.41247,-1.086519 2.11871,-2.661971 2.11871,-4.617706 0,-1.303823 -0.32596,-2.390342 -1.03219,-3.205231 -0.70624,-0.81489 -1.84709,-1.521127 -3.47687,-2.173038 -1.79275,-0.651912 -3.04225,-1.249497 -3.69416,-1.792757 -0.651912,-0.54326 -0.977868,-1.195171 -0.977868,-2.01006 0,-0.81489 0.217304,-1.466801 0.706238,-2.010061 0.48893,-0.543259 1.08652,-0.760563 1.84708,-0.760563 2.17304,0 3.74849,1.575453 4.72636,4.672032 l 0.92354,-0.27163 z M 54.353118,7.985915 C 53.592554,7.605634 52.777665,7.442656 51.854124,7.442656 c -0.923541,0 -1.847083,0.380282 -2.879276,1.140845 -1.032193,0.760563 -1.792756,1.792757 -2.390342,3.205231 l 0.05433,-4.346076 -8.257545,1.629779 v 0.760563 l 0.814889,0.05433 c 1.032193,0.108652 1.629779,0.923541 1.738431,2.390342 0.325956,3.368209 0.325956,6.953722 0,10.756539 -0.108652,1.466801 -0.706238,2.227364 -1.738431,2.390342 l -0.814889,0.108652 v 1.032193 h 11.517102 v -1.032193 l -1.4668,-0.108652 C 47.399396,25.315895 46.80181,24.501006 46.693158,23.034205 46.367202,19.8833 46.312876,16.515091 46.584506,13.038229 c 0.325956,-0.543259 1.032193,-0.869215 2.118712,-0.977867 1.08652,-0.108652 2.336017,0.217304 3.63984,0.977867 z"
     id="path2"
     inkscape:connector-curvature="0"
     style="stroke-width:0.54325956" />
</svg>
