<svg xmlns="http://www.w3.org/2000/svg" width="107.62" height="27" viewBox="0 0 86.096 21.6"><path d="M48.806 7.04c0-2.52.044-4.867.174-7.04l-6.65 1.26v.609l.653.087c.478.043.782.217.956.478.174.304.304.739.391 1.39.087 1.26.174 4.13.13 8.65 0 4.476-.043 7.3-.13 8.387 2.39.522 4.26.739 5.65.739 2.608 0 4.65-.739 6.128-2.26 1.478-1.478 2.26-3.564 2.26-6.128 0-2.043-.565-3.738-1.695-5.085-1.13-1.347-2.564-1.999-4.26-1.999-1.13 0-2.303.304-3.607.913zm.13 13.387c-.086-1.391-.173-5.563-.173-12.387.391-.13.913-.217 1.565-.217 1.043 0 1.868.521 2.477 1.608.608 1.087.913 2.39.913 4.042 0 2.042-.348 3.694-1.044 5.085-.695 1.347-1.564 2.042-2.65 2.042a8.112 8.112 0 0 0-1.087-.173zM17.385.435H0v.869l.913.087c.695.13 1.173.39 1.477.782.305.435.478 1.13.522 2.086.348 4.694.348 9.083 0 13.125-.087.956-.26 1.652-.522 2.086-.304.435-.782.696-1.477.783l-.913.13v.87h11.213v-.87l-1.174-.087c-.695-.087-1.173-.391-1.477-.782-.304-.435-.478-1.13-.522-2.086a79.841 79.841 0 0 1-.217-5.954l2.347.043c1.26.044 2.13 1 2.564 2.912h.87V7.345h-.87c-.435 1.869-1.26 2.825-2.564 2.868l-2.347.044c0-3.912.087-6.693.217-8.388h3.434c2.433 0 4.085 1.564 5.041 4.694l1.043-.305zM15.342 13.82c0 2.26.652 4.128 1.912 5.606 1.26 1.478 3.13 2.173 5.476 2.173 2.347 0 4.26-.739 5.65-2.26 1.39-1.478 2.043-3.346 2.043-5.606s-.652-4.13-1.913-5.607c-1.26-1.478-3.129-2.173-5.476-2.173s-4.259.739-5.65 2.26c-1.39 1.478-2.042 3.347-2.042 5.607zm9.691-4.955c.522 1.26.74 2.912.74 4.911 0 4.607-.957 6.867-2.826 6.867-.956 0-1.695-.652-2.216-1.956-.522-1.304-.739-2.955-.739-4.91 0-4.564.956-6.824 2.825-6.824.956-.044 1.695.608 2.216 1.912zm36.725 10.561c1.434 1.434 3.26 2.173 5.432 2.173 1.348 0 2.521-.26 3.564-.826 1.043-.521 1.869-1.173 2.434-1.955l-.435-.522c-.956.739-2.042 1.087-3.303 1.087-1.738 0-3.085-.565-3.998-1.739-.956-1.173-1.39-2.651-1.304-4.563h9.3c0-2.086-.52-3.781-1.607-5.129-1.087-1.304-2.608-1.955-4.564-1.955-2.434 0-4.302.782-5.65 2.303-1.347 1.521-1.999 3.39-1.999 5.606 0 2.26.696 4.086 2.13 5.52zm3.216-10.909c.478-1.043 1.086-1.564 1.912-1.564 1.304 0 1.956 1.651 1.956 4.998l-4.607.087c.043-1.304.26-2.478.739-3.52zM85.14 6.78c-1.174-.522-2.651-.826-4.433-.826-1.826 0-3.26.478-4.346 1.39-1.087.914-1.652 2.044-1.652 3.39 0 1.174.348 2.087 1 2.739.652.652 1.695 1.217 3.042 1.695 1.217.434 2.086.869 2.52 1.26.435.435.696.913.696 1.565 0 .608-.217 1.173-.695 1.608-.435.478-1.043.695-1.826.695-1.912 0-3.346-1.39-4.346-4.172l-.739.217.174 4.346c1.565.609 3.303.913 5.216.913 1.999 0 3.52-.435 4.65-1.347 1.13-.87 1.695-2.13 1.695-3.694 0-1.044-.261-1.913-.826-2.565-.565-.652-1.478-1.217-2.781-1.738-1.435-.522-2.434-1-2.956-1.434-.521-.435-.782-.956-.782-1.608 0-.652.174-1.174.565-1.608.391-.435.87-.609 1.478-.609 1.738 0 2.998 1.26 3.78 3.738l.74-.217zm-41.81-.391c-.608-.304-1.26-.435-1.999-.435-.739 0-1.477.304-2.303.913-.826.608-1.434 1.434-1.913 2.564l.044-3.477-6.606 1.304v.608l.652.044c.826.087 1.304.739 1.39 1.912.261 2.695.261 5.563 0 8.605-.086 1.174-.564 1.782-1.39 1.913l-.652.087v.825h9.214v-.825l-1.174-.087c-.826-.087-1.304-.74-1.39-1.913a44.398 44.398 0 0 1-.088-7.996c.261-.435.826-.696 1.695-.783.87-.087 1.87.174 2.912.783z" fill="#333"/></svg>
