<?xml version="1.0" encoding="UTF-8" standalone="no"?>
<!-- Created with Inkscape (http://www.inkscape.org/) -->

<svg
   version="1.1"
   id="svg2"
   width="154"
   height="52"
   viewBox="0 0 154.00001 52"
   sodipodi:docname="hostingadvice.svgf.svg"
   inkscape:version="1.1.2 (0a00cf5339, 2022-02-04)"
   xmlns:inkscape="http://www.inkscape.org/namespaces/inkscape"
   xmlns:sodipodi="http://sodipodi.sourceforge.net/DTD/sodipodi-0.dtd"
   xmlns="http://www.w3.org/2000/svg"
   xmlns:svg="http://www.w3.org/2000/svg">
  <defs
     id="defs6" />
  <sodipodi:namedview
     id="namedview4"
     pagecolor="#ffffff"
     bordercolor="#666666"
     borderopacity="1.0"
     inkscape:pageshadow="2"
     inkscape:pageopacity="0.0"
     inkscape:pagecheckerboard="0"
     showgrid="false"
     width="154px"
     inkscape:zoom="0.99225006"
     inkscape:cx="336.6087"
     inkscape:cy="311.91734"
     inkscape:window-width="2560"
     inkscape:window-height="1379"
     inkscape:window-x="0"
     inkscape:window-y="30"
     inkscape:window-maximized="1"
     inkscape:current-layer="g8" />
  <g
     inkscape:groupmode="layer"
     inkscape:label="Image"
     id="g8">
    <path
       style="fill:#555761;stroke-width:0.135072;fill-opacity:1"
       d="m 96.844454,51.763523 c -1.388029,-1.124346 -0.173647,-3.080358 1.60715,-2.588654 1.070251,0.29551 1.432249,1.65085 0.649899,2.433207 -0.34707,0.347071 -0.490024,0.394465 -1.181884,0.391824 -0.540951,-0.0021 -0.877149,-0.07598 -1.075165,-0.236377 z M 49.796861,51.634458 c -0.345785,-0.122084 -0.872301,-0.483753 -1.241031,-0.852486 -0.514857,-0.514858 -0.693169,-0.822127 -0.909332,-1.567003 -0.522829,-1.80157 -0.478,-3.762557 0.122711,-5.368118 0.604357,-1.615285 2.174543,-2.650531 4.017801,-2.648999 1.127543,9.12e-4 1.792539,0.179818 2.320745,0.62427 l 0.409407,0.344498 v -2.038096 -2.038095 h -0.660911 c -0.478058,0 -0.68359,-0.05911 -0.742895,-0.213657 -0.152433,-0.397236 -0.08512,-1.371531 0.105691,-1.529895 0.125918,-0.104505 0.759277,-0.143283 1.924787,-0.117843 l 1.737104,0.03792 0.03497,6.854934 0.03505,6.854932 h 0.606586 0.606595 v 0.795984 c 0,0.953811 -0.0099,0.95996 -1.55334,0.95996 -1.326644,0 -1.55271,-0.06592 -1.555179,-0.453437 -8.29e-4,-0.159203 -0.03513,-0.413286 -0.07574,-0.564627 -0.06845,-0.254691 -0.112627,-0.238352 -0.594049,0.219613 -0.286066,0.272128 -0.80984,0.593496 -1.163944,0.714151 -0.821524,0.27992 -2.613242,0.272597 -3.424987,-0.014 z m 3.272611,-1.843616 c 0.525638,-0.224903 1.108526,-0.824938 1.304032,-1.342387 0.07897,-0.209133 0.143658,-1.253208 0.143658,-2.320168 v -1.939924 l -0.480345,-0.39595 c -1.345844,-1.109356 -3.117219,-0.843864 -3.838321,0.575285 -0.306467,0.603142 -0.341336,0.830786 -0.341336,2.228698 0,1.393056 0.03555,1.627056 0.337681,2.223056 0.53477,1.054893 1.733085,1.459826 2.874631,0.97139 z m 25.940737,1.834956 c -1.347161,-0.480976 -2.264913,-1.49478 -2.698051,-2.980438 -0.311845,-1.069599 -0.199649,-3.602436 0.20549,-4.638972 0.397135,-1.016067 1.30583,-2.012119 2.207299,-2.419497 0.618725,-0.279606 0.918687,-0.322257 2.266445,-0.322257 1.350451,0 1.627286,0.03953 2.119563,0.302667 0.98811,0.52817 1.66247,1.756466 1.66247,3.028078 v 0.518823 h -1.011452 -1.011444 l -0.08975,-0.561228 c -0.112693,-0.704727 -0.650909,-1.320754 -1.266113,-1.449147 -0.577129,-0.120447 -1.362118,0.0085 -1.800593,0.295822 -1.181386,0.774074 -1.3638,4.304806 -0.294816,5.706316 0.708424,0.928791 2.24075,1.182533 3.71822,0.615707 0.408595,-0.156755 0.791461,-0.285042 0.850807,-0.28508 0.139996,-8.8e-5 0.628172,1.075012 0.632025,1.391899 0.0017,0.166602 -0.243069,0.357076 -0.773703,0.601279 -0.676547,0.311352 -0.985608,0.363086 -2.397534,0.401329 -1.313386,0.03557 -1.753287,-0.0034 -2.318863,-0.205301 z m 9.661438,0.03803 c -0.906863,-0.290423 -1.883248,-1.225921 -2.352755,-2.254249 -0.341285,-0.747474 -0.394881,-1.04237 -0.440521,-2.423627 -0.05958,-1.803102 0.140916,-2.743387 0.808737,-3.792798 0.876354,-1.3771 2.080279,-1.996052 3.88252,-1.996052 1.738678,0 2.774459,0.527197 3.440673,1.751254 0.622836,1.144352 0.991416,3.634837 0.596403,4.029851 -0.116646,0.116643 -1.030387,0.162088 -3.259006,0.162088 h -3.096917 l 0.08838,0.552686 c 0.115212,0.720493 0.525886,1.513651 0.960906,1.855834 0.779172,0.612902 2.436048,0.639455 3.878841,0.06216 0.300865,-0.120383 0.573491,-0.159571 0.635431,-0.09134 0.202076,0.222579 0.578554,1.381052 0.493512,1.518638 -0.04649,0.07519 -0.432832,0.271619 -0.858588,0.436511 -1.010325,0.391293 -3.80124,0.501724 -4.777617,0.189042 z m 3.705825,-6.786002 c -0.104217,-0.675935 -0.363501,-1.165548 -0.798405,-1.50764 -0.490305,-0.385678 -1.696551,-0.390161 -2.322336,-0.0086 -0.46195,0.281642 -0.96311,1.171135 -0.968455,1.718879 -0.0033,0.302172 0.0089,0.303913 2.082168,0.303913 h 2.085125 z m 11.891298,6.747972 c -1.34715,-0.480976 -2.26491,-1.49478 -2.69805,-2.980438 -0.31184,-1.069599 -0.19964,-3.602436 0.2055,-4.638972 0.39713,-1.016067 1.30583,-2.012119 2.20729,-2.419497 0.61873,-0.279606 0.91869,-0.322257 2.26644,-0.322257 1.35046,0 1.6273,0.03953 2.11957,0.302667 0.98811,0.52817 1.66246,1.756466 1.66246,3.028078 v 0.518823 h -1.00116 -1.00117 l -0.0936,-0.554048 c -0.11828,-0.700073 -0.67217,-1.328886 -1.28281,-1.456327 -0.57712,-0.120447 -1.36211,0.0085 -1.80059,0.295822 -1.18138,0.774074 -1.3638,4.304806 -0.29481,5.706316 0.70842,0.928791 2.24075,1.182533 3.71822,0.615707 0.40859,-0.156755 0.79145,-0.285042 0.8508,-0.28508 0.14,-8.8e-5 0.62817,1.075012 0.63203,1.391899 0.002,0.166602 -0.24307,0.357076 -0.77371,0.601279 -0.67654,0.311352 -0.9856,0.363086 -2.39753,0.401329 -1.31339,0.03557 -1.75329,-0.0034 -2.31887,-0.205301 z m 9.57293,-0.0064 c -1.03077,-0.366712 -1.64648,-0.923217 -2.18884,-1.978341 -0.45204,-0.879422 -0.47482,-0.992227 -0.52005,-2.57468 -0.036,-1.259923 0.007,-1.843579 0.17983,-2.445156 0.46387,-1.613965 1.41533,-2.616745 3.01899,-3.181827 1.14794,-0.404495 3.05438,-0.307756 4.10965,0.208536 1.60027,0.782943 2.29441,2.202243 2.28979,4.681941 -0.003,1.978935 -0.3244,2.962533 -1.31471,4.032179 -1.01839,1.099984 -1.75599,1.408328 -3.50872,1.466762 -1.06471,0.0355 -1.50217,-0.0088 -2.06594,-0.209416 z m 3.02823,-1.785758 c 0.71178,-0.344572 1.10821,-1.090456 1.27084,-2.391086 0.12002,-0.959811 -0.006,-2.391291 -0.26955,-3.071234 -0.37716,-0.971666 -1.32434,-1.51441 -2.36942,-1.357692 -0.72341,0.108482 -1.19797,0.467343 -1.58902,1.20162 -0.25864,0.485637 -0.29894,0.770654 -0.29899,2.114625 -7e-5,1.698875 0.14848,2.323632 0.71166,2.992931 0.67196,0.798574 1.57541,0.979953 2.54448,0.510836 z m -84.200754,1.811246 c -0.107961,-0.04457 -0.16884,-0.355404 -0.16884,-0.862135 v -0.79244 l 0.775891,-0.04051 0.77589,-0.04051 2.094399,-6.050965 c 1.151929,-3.328029 2.18558,-6.107906 2.297013,-6.1775 0.219014,-0.136783 2.147414,-0.179304 2.472599,-0.05452 0.11967,0.04592 1.048989,2.512414 2.341046,6.213337 l 2.142591,6.137185 h 0.844203 0.844211 v 0.795998 c 0,0.60123 -0.05229,0.816044 -0.213661,0.877972 -0.278583,0.106902 -5.237296,0.106902 -5.51588,0 -0.161383,-0.06193 -0.213652,-0.276742 -0.213652,-0.877972 v -0.795984 h 0.742895 c 0.408595,0 0.743251,-0.04559 0.743674,-0.101305 4.06e-4,-0.05572 -0.197122,-0.664636 -0.438989,-1.353153 l -0.439759,-1.25185 -2.351769,0.03619 -2.351769,0.03619 -0.4414,1.316958 -0.4414,1.316958 h 0.739763 0.739754 l -0.04019,0.844203 -0.04019,0.844204 -2.363768,0.02468 c -1.300078,0.01356 -2.439752,-0.0067 -2.532616,-0.04503 z m 8.12913,-7.442408 c -0.897914,-2.855551 -1.378376,-4.154286 -1.461594,-3.950873 -0.04557,0.111435 -0.473452,1.372675 -0.950806,2.802756 l -0.867909,2.600148 h 1.868449 1.868449 z m 22.093358,7.398456 c -0.111433,-0.07021 -0.844551,-1.968742 -1.629142,-4.218928 l -1.426535,-4.091248 -0.667092,-0.06753 -0.667085,-0.06753 -0.04118,-0.797906 c -0.02817,-0.546903 0.01425,-0.833065 0.135074,-0.909672 0.29494,-0.187067 3.163075,-0.1412 3.310388,0.05294 0.07043,0.09286 0.638405,1.793484 1.262078,3.779159 0.623681,1.985675 1.177575,3.566024 1.23088,3.511887 0.05328,-0.05413 0.491681,-1.22291 0.974172,-2.597274 0.4825,-1.374364 0.916849,-2.601672 0.965215,-2.727352 0.074,-0.192265 -0.01566,-0.235114 -0.56508,-0.270145 l -0.653022,-0.04164 -0.04118,-0.720096 c -0.0609,-1.063776 0.0066,-1.103383 1.870181,-1.103383 1.805829,0 2.019532,0.04789 2.023244,0.453437 0.0041,0.423287 -3.521373,9.579203 -3.764889,9.77831 -0.243342,0.198963 -2.014179,0.227255 -2.31603,0.037 z m 6.762338,-0.06027 c -0.08922,-0.107501 -0.141114,-0.479308 -0.117838,-0.844203 l 0.0416,-0.652092 0.776661,-0.04051 0.77667,-0.04051 V 46.60069 43.238016 l -0.641596,-0.04117 -0.641595,-0.04117 v -0.877972 -0.877971 l 1.737111,-0.03792 c 1.165502,-0.02544 1.798861,0.01333 1.924779,0.117842 0.152765,0.12678 0.187684,0.93044 0.187684,4.319729 v 4.16397 l 0.776661,0.04051 0.77667,0.04051 0.0416,0.652088 c 0.06645,1.042227 0.0829,1.036319 -2.87812,1.036319 -2.083932,0 -2.632523,-0.03818 -2.760281,-0.192115 z m 52.433218,0.10416 c -0.1082,-0.04462 -0.16885,-0.356654 -0.16885,-0.868811 v -0.79918 h 0.67537 0.67535 v -3.369414 -3.369414 l -0.64158,-0.04117 -0.6416,-0.04117 v -0.877948 -0.877971 l 1.61934,-0.03833 c 1.81692,-0.04301 1.96008,0.02178 1.96008,0.887102 v 0.459454 l 0.66161,-0.594842 c 0.78316,-0.704132 1.40423,-0.917042 2.66334,-0.913024 1.1749,0.0037 1.92406,0.327223 2.45485,1.059955 l 0.39356,0.543301 0.28984,-0.392028 c 0.52223,-0.706346 1.41691,-1.118699 2.57088,-1.184905 1.76957,-0.101523 2.75003,0.368632 3.30976,1.58712 0.25526,0.555665 0.28572,0.915198 0.3294,3.887798 l 0.0481,3.27551 h 0.73063 0.73062 v 0.795984 c 0,0.601231 -0.0523,0.816043 -0.21366,0.877972 -0.1175,0.04509 -1.26493,0.08198 -2.54983,0.08198 -2.66739,0 -2.67928,-0.0047 -2.61347,-1.036319 l 0.0416,-0.652089 0.72744,-0.04146 0.72745,-0.04146 -0.0667,-2.65999 c -0.0738,-2.944021 -0.21283,-3.566665 -0.85012,-3.808965 -0.9373,-0.356359 -2.3071,0.05305 -2.69641,0.805912 -0.16327,0.315709 -0.20539,0.938866 -0.20539,3.037808 v 2.640622 h 0.61426 0.61427 l -0.0402,0.844205 -0.0402,0.844202 -2.27836,0.03711 c -1.60739,0.02618 -2.33521,-0.01006 -2.47139,-0.123073 -0.13232,-0.109819 -0.1804,-0.376298 -0.15293,-0.847544 l 0.0401,-0.68736 0.65866,-0.04186 0.65866,-0.04186 -0.0631,-2.659585 c -0.0843,-3.552956 -0.25659,-3.942775 -1.74246,-3.942775 -0.62558,0 -1.13063,0.233002 -1.60536,0.740623 -0.33417,0.357311 -0.33812,0.389829 -0.37918,3.119503 l -0.0415,2.758429 h 0.75707 0.75707 l -0.0402,0.844204 -0.0402,0.844203 -2.49885,0.02461 c -1.37436,0.01353 -2.57482,-0.0067 -2.66767,-0.04503 z M 71.116616,39.737745 c -0.416931,-0.372524 -0.458279,-0.477221 -0.458279,-1.160378 0,-0.64057 0.05502,-0.805943 0.374521,-1.125429 0.319485,-0.319487 0.484862,-0.37452 1.12543,-0.37452 0.677417,0 0.78948,0.04317 1.145043,0.441118 0.548649,0.614038 0.55469,1.468557 0.01467,2.072947 -0.30568,0.342118 -0.512057,0.437443 -1.061286,0.490217 -0.614417,0.05904 -0.727126,0.02503 -1.140096,-0.343955 z m 57.758954,-8.873676 -5.91974,-4.659992 H 108.38955 93.82328 V 22.1519 18.099723 h 21.88176 21.88176 v 4.049436 4.049436 l -2.7524,0.03651 -2.7524,0.03651 1.40523,4.577654 c 0.77288,2.51771 1.38337,4.59951 1.35665,4.626224 -0.0267,0.02671 -2.71245,-2.048427 -5.96831,-4.611424 z m -28.02852,-7.42898 v -1.013078 h -1.013039 -1.013039 v 1.013044 1.013044 h 1.013039 1.013039 z m 2.83653,0 v -1.013078 h -1.01305 -1.01304 v 1.013044 1.013044 h 1.01304 1.01305 z m 2.70145,0 v -1.013078 h -0.94551 -0.94551 v 1.013044 1.013044 h 0.94551 0.94551 z m 2.97159,0 v -1.013078 h -1.01304 -1.01304 v 1.013044 1.013044 h 1.01304 1.01304 z m 2.56638,0 v -1.013078 h -0.94551 -0.94551 v 1.013044 1.013044 h 0.94551 0.94551 z m 2.83653,0 v -1.013078 h -0.94551 -0.94551 v 1.013044 1.013044 h 0.94551 0.94551 z m 2.70144,0 v -1.013078 h -1.01304 -1.01304 v 1.013044 1.013044 h 1.01304 1.01304 z m 2.83653,0 v -1.013078 h -1.01305 -1.01304 v 1.013044 1.013044 h 1.01304 1.01305 z m 14.63049,-0.359744 c 0.68385,-0.364223 0.84245,-1.155523 0.33902,-1.691408 -0.52231,-0.55597 -1.42733,-0.373774 -1.72608,0.347491 -0.20592,0.497159 0.024,1.068335 0.53397,1.326267 0.4186,0.211733 0.48606,0.21313 0.85309,0.01765 z M 96.926521,22.830698 c 0.594273,-0.594276 0.415588,-1.474289 -0.359151,-1.768848 -0.999155,-0.379876 -1.792282,0.816615 -1.113415,1.67966 0.349315,0.444082 1.07379,0.487961 1.472566,0.08919 z m 3.920529,-2.164597 v -0.945507 h -1.013039 -1.013039 v 0.945507 0.945508 h 1.013039 1.013039 z m 2.83653,0 v -0.945507 h -1.01305 -1.01304 v 0.945507 0.945508 h 1.01304 1.01305 z m 2.70145,0 v -0.945507 h -0.94551 -0.94551 v 0.945507 0.945508 h 0.94551 0.94551 z m 2.97159,0 v -0.945507 h -1.01304 -1.01304 v 0.945507 0.945508 h 1.01304 1.01304 z m 2.56638,0 v -0.945507 h -0.94551 -0.94551 v 0.945507 0.945508 h 0.94551 0.94551 z m 2.83653,0 v -0.945507 h -0.94551 -0.94551 v 0.945507 0.945508 h 0.94551 0.94551 z m 2.70144,0 v -0.945507 h -1.01304 -1.01304 v 0.945507 0.945508 h 1.01304 1.01304 z m 2.83653,0 v -0.945507 h -1.01305 -1.01304 v 0.945507 0.945508 h 1.01304 1.01305 z M 78.965297,33.371419 c -0.972995,-0.141021 -1.775543,-0.36651 -2.06354,-0.579792 -0.218235,-0.161615 -0.218458,-0.212882 -0.0041,-0.880734 0.254645,-0.792312 0.310693,-0.813164 1.324457,-0.492752 1.012297,0.319947 2.740767,0.309246 3.303842,-0.02045 0.857941,-0.502353 1.01335,-0.862762 1.064095,-2.467851 l 0.04557,-1.442572 -0.383289,0.356031 c -0.747891,0.694693 -1.233747,0.858608 -2.544457,0.858426 -0.951178,-1.01e-4 -1.349937,-0.06215 -1.832917,-0.285041 -0.838262,-0.386867 -1.543943,-1.149013 -1.908488,-2.061214 -0.265649,-0.664715 -0.303418,-1.003006 -0.303418,-2.71777 0,-1.745785 0.03488,-2.046138 0.321009,-2.764801 0.435293,-1.093266 1.449256,-2.105158 2.444948,-2.439953 1.476609,-0.496497 3.261474,-0.202395 4.194597,0.691163 l 0.349348,0.334539 0.213851,-0.544389 0.213835,-0.544389 h 1.496662 1.49667 v 0.795985 c -9e-6,0.877179 -0.07665,0.959959 -0.889023,0.959959 h -0.46171 l -0.0041,3.883336 c -0.005,4.286337 -0.138413,6.319472 -0.465853,7.100428 -0.345544,0.824111 -1.21526,1.667351 -2.036692,1.97469 -0.832461,0.311462 -2.48604,0.444423 -3.571173,0.287154 z m 2.435369,-6.66082 c 0.33087,-0.167153 0.738843,-0.510447 0.90659,-0.762874 0.28624,-0.430727 0.305008,-0.598252 0.305008,-2.723213 v -2.264251 l -0.401791,-0.338082 c -0.558361,-0.469829 -1.260661,-0.672645 -2.090802,-0.603805 -0.886065,0.07348 -1.442652,0.455951 -1.831037,1.258236 -0.538954,1.113351 -0.500075,3.506889 0.07673,4.722409 0.445584,0.939 1.906963,1.281597 3.035302,0.71158 z m -48.697723,1.878659 c -1.26565,-0.418416 -2.13636,-1.176779 -2.661012,-2.317645 -0.278724,-0.606098 -0.310577,-0.876229 -0.310577,-2.633916 0,-1.87486 0.01666,-1.994693 0.390606,-2.804349 0.633143,-1.370957 1.895768,-2.290598 3.55895,-2.592191 1.557243,-0.282381 3.361937,0.232436 4.315261,1.230998 0.909515,0.952663 1.341916,2.783948 1.11895,4.738885 -0.316808,2.777766 -2.03869,4.424332 -4.723765,4.517148 -0.69679,0.02409 -1.36051,-0.03053 -1.688413,-0.13893 z m 2.79727,-1.727318 c 0.935526,-0.491092 1.465754,-2.477034 1.186698,-4.444674 -0.249117,-1.756476 -0.982682,-2.5616 -2.333928,-2.5616 -1.715883,0 -2.508089,1.290628 -2.352573,3.832679 0.08763,1.432399 0.272386,2.079296 0.758233,2.654832 0.603363,0.714754 1.900599,0.960218 2.74157,0.518763 z m 6.355136,1.703904 c -0.463632,-0.100724 -0.904303,-0.221046 -0.979277,-0.267379 -0.0769,-0.04753 -0.136308,-0.669414 -0.136308,-1.426998 v -1.342753 h 0.877969 0.877977 v 0.658824 c 0,0.820276 0.163612,0.965755 1.190916,1.058908 1.378284,0.124979 2.185895,-0.334998 2.185895,-1.244978 0,-0.849526 -0.494018,-1.210446 -2.526402,-1.845733 -1.930678,-0.603495 -2.60962,-1.345109 -2.603389,-2.843701 0.0058,-1.298458 0.67866,-2.248008 2.02312,-2.853348 0.49149,-0.22129 0.866368,-0.270381 1.958553,-0.256474 0.742904,0.0095 1.654639,0.09664 2.026087,0.193733 l 0.67537,0.176531 0.03845,1.384494 0.03853,1.384494 h -0.900101 -0.900102 l 0.08771,-0.661183 c 0.08626,-0.650223 0.08063,-0.663658 -0.340432,-0.810435 -0.570798,-0.19898 -1.590462,-0.18602 -2.00871,0.02553 -0.498468,0.252134 -0.708168,0.77136 -0.524412,1.298484 0.181858,0.521694 0.762078,0.839542 2.547772,1.39569 1.0939,0.340692 1.370586,0.488447 1.85292,0.989473 0.638422,0.663163 0.778079,1.137757 0.690617,2.346907 -0.09761,1.349507 -0.92786,2.236212 -2.467884,2.635694 -0.970791,0.251824 -2.536892,0.253618 -3.684876,0.0042 z m 10.027906,0.01136 c -0.643344,-0.237076 -1.184941,-0.837171 -1.398312,-1.549357 -0.09769,-0.326041 -0.155027,-1.698227 -0.155027,-3.709733 v -3.192302 h -0.529243 c -0.88628,0 -0.956556,-0.07052 -0.956556,-0.959959 v -0.795985 h 0.738479 0.73847 l 0.0382,-1.519567 0.0382,-1.519566 h 1.080576 1.080584 l 0.03812,1.514372 0.03812,1.514372 1.177508,0.03896 1.177509,0.03896 0.0416,0.730115 c 0.02801,0.492643 -0.01591,0.766549 -0.135074,0.842135 -0.09714,0.06161 -0.647686,0.112952 -1.223439,0.114089 l -1.04681,0.0021 v 2.908398 c 0,3.233819 0.100148,3.763516 0.742033,3.924619 0.35374,0.08878 1.234377,0.01495 1.768426,-0.14827 0.237434,-0.07256 0.317106,0.0065 0.506521,0.502422 0.123615,0.323695 0.224765,0.655881 0.224765,0.738193 0,0.519626 -2.946465,0.908598 -3.98464,0.526025 z m -37.590683,-0.85356 0.04052,-0.776667 0.641596,-0.04117 0.641596,-0.04117 v -5.327966 -5.327966 h -0.682108 -0.682098 l 0.04052,-0.776668 0.04052,-0.776666 h 2.498841 2.49885 l 0.04052,0.776666 0.04052,0.776668 H 18.72974 18.047642 v 2.161161 2.161162 h 3.10667 3.106663 v -2.161155 -2.161161 h -0.682099 -0.682107 l 0.04052,-0.776668 0.04052,-0.776666 h 2.498841 2.498841 l 0.04052,0.776666 0.04052,0.776668 h -0.6821 -0.682106 v 5.327966 5.327966 l 0.641595,0.04117 0.641596,0.04117 0.04052,0.776667 0.04052,0.776667 H 25.4767 22.896835 l 0.04052,-0.776667 0.04052,-0.776667 0.641596,-0.04117 0.641587,-0.04117 V 24.57581 22.286978 h -3.106663 -3.106671 v 2.288832 2.288834 l 0.641596,0.04117 0.641596,0.04117 0.04052,0.776667 0.04052,0.776667 h -2.579865 -2.579856 z m 42.277624,0.0028 0.0406,-0.779485 0.77667,-0.04051 0.77667,-0.04051 v -3.370072 -3.370074 l -0.574063,-0.0021 c -0.83537,-0.003 -0.933951,-0.109437 -0.885758,-0.956224 l 0.0416,-0.730114 h 1.823479 1.823479 l 0.03571,4.214333 0.03571,4.214336 0.774747,0.04045 0.774756,0.04045 v 0.7429 0.742899 l -2.742043,0.03658 -2.742051,0.03658 z m 6.279275,0.686628 c -0.114806,-0.114805 -0.122355,-1.029528 -0.01086,-1.319993 0.05933,-0.154546 0.264836,-0.213657 0.742895,-0.213657 h 0.660919 v -3.376796 -3.376813 l -0.574063,-0.0021 c -0.835369,-0.003 -0.933951,-0.109436 -0.885758,-0.956224 l 0.0416,-0.730116 h 1.687104 1.687113 l 0.117606,0.643754 0.117615,0.643755 0.542517,-0.490133 c 0.810296,-0.732057 1.621262,-1.042582 2.736748,-1.047918 1.169678,-0.0056 1.786763,0.19533 2.332893,0.759609 0.83348,0.86118 0.898892,1.185819 0.950706,4.718305 l 0.04698,3.201284 0.698489,0.04045 0.698489,0.04046 0.04052,0.776668 0.04052,0.776667 h -2.579852 -2.579864 l 0.04052,-0.776667 0.04052,-0.776668 0.658657,-0.04187 0.658658,-0.04186 -0.05842,-2.661847 c -0.05013,-2.28471 -0.09562,-2.738079 -0.320976,-3.199877 -0.60493,-1.239634 -2.602959,-1.053466 -3.534846,0.329364 -0.292405,0.433902 -0.30713,0.577481 -0.30713,2.99541 v 2.539663 l 0.77667,0.04051 0.77667,0.04051 v 0.742899 0.742899 l -2.57481,0.0366 c -1.416144,0.02013 -2.616606,-0.0052 -2.667682,-0.05628 z M 58.327907,16.82017 c -0.934498,-0.415553 -1.044622,-1.837226 -0.194296,-2.508517 0.298313,-0.235505 0.494871,-0.278629 1.035607,-0.227202 0.877414,0.08345 1.291138,0.527812 1.291138,1.38676 0,1.118234 -1.094415,1.810549 -2.132449,1.348959 z M 93.82328,12.291603 V 8.2394257 h 21.88176 21.88176 v 4.0521773 4.052178 H 115.70504 93.82328 Z m 7.02377,1.28319 v -1.013044 h -1.013039 -1.013039 v 1.013044 1.013044 h 1.013039 1.013039 z m 2.83653,0 v -1.013044 h -0.94551 -0.94551 v 1.013044 1.013044 h 0.94551 0.94551 z m 2.83652,0 v -1.013044 h -1.01304 -1.01305 v 1.013044 1.013044 h 1.01305 1.01304 z m 2.83652,0 v -1.013044 h -1.01304 -1.01304 v 1.013044 1.013044 h 1.01304 1.01304 z m 2.70146,0 v -1.013044 h -1.01304 -1.01306 v 1.013044 1.013044 h 1.01306 1.01304 z m 2.83652,0 v -1.013044 h -1.01304 -1.01305 v 1.013044 1.013044 h 1.01305 1.01304 z m 2.56637,0 v -1.013044 h -1.01304 -1.01304 v 1.013044 1.013044 h 1.01304 1.01304 z m 2.83653,0 v -1.013044 h -1.01305 -1.01304 v 1.013044 1.013044 h 1.01304 1.01305 z m 15.33739,-0.890844 c 0.17469,-0.337813 0.17606,-0.448639 0.0104,-0.845049 -0.31509,-0.754114 -1.17811,-0.890217 -1.72707,-0.27237 -0.71951,0.809803 0.10043,1.999547 1.13055,1.640443 0.21176,-0.07382 0.47551,-0.309184 0.58609,-0.523024 z M 96.928915,12.90053 c 0.572298,-0.609182 0.312939,-1.548039 -0.482823,-1.74776 -0.38004,-0.09539 -1.064144,0.21383 -1.188181,0.537058 -0.438268,1.142121 0.855091,2.079206 1.671004,1.210702 z m 3.918135,-2.162261 V 9.7252237 h -1.013039 -1.013039 v 1.0130453 1.013044 h 1.013039 1.013039 z m 2.83653,0 V 9.7252237 h -0.94551 -0.94551 v 1.0130453 1.013044 h 0.94551 0.94551 z m 2.83652,0 V 9.7252237 h -1.01304 -1.01305 v 1.0130453 1.013044 h 1.01305 1.01304 z m 2.83652,0 V 9.7252237 h -1.01304 -1.01304 v 1.0130453 1.013044 h 1.01304 1.01304 z m 2.70146,0 V 9.7252237 h -1.01304 -1.01306 v 1.0130453 1.013044 h 1.01306 1.01304 z m 2.83652,0 V 9.7252237 h -1.01304 -1.01305 v 1.0130453 1.013044 h 1.01305 1.01304 z m 2.56637,0 V 9.7252237 h -1.01304 -1.01304 v 1.0130453 1.013044 h 1.01304 1.01304 z m 2.83653,0 V 9.7252237 h -1.01305 -1.01304 v 1.0130453 1.013044 h 1.01304 1.01305 z M 96.463949,6.0982677 c 0.0706,-0.06329 2.358415,-1.4612892 5.084091,-3.106669 L 106.5038,-8.1235208e-8 h 8.89427 8.89426 L 129.35246,3.0541118 c 2.78306,1.6797619 5.08545,3.0777633 5.1164,3.106669 0.031,0.028911 -8.53636,0.05256 -19.03847,0.05256 -10.52738,0 -19.03718,-0.051632 -18.966441,-0.1150703 z"
       id="path12" />
  </g>
</svg>
