<?xml version="1.0" encoding="UTF-8" standalone="no"?>
<svg
   xmlns:dc="http://purl.org/dc/elements/1.1/"
   xmlns:cc="http://creativecommons.org/ns#"
   xmlns:rdf="http://www.w3.org/1999/02/22-rdf-syntax-ns#"
   xmlns:svg="http://www.w3.org/2000/svg"
   xmlns="http://www.w3.org/2000/svg"
   id="svg8"
   version="1.1"
   viewBox="0 0 123.19886 41.6"
   height="52"
   width="154">
  <metadata
     id="metadata14">
    <rdf:RDF>
      <cc:Work
         rdf:about="">
        <dc:format>image/svg+xml</dc:format>
        <dc:type
           rdf:resource="http://purl.org/dc/dcmitype/StillImage" />
        <dc:title></dc:title>
      </cc:Work>
    </rdf:RDF>
  </metadata>
  <defs
     id="defs12" />
  <path
     style="color:#000000;overflow:visible;fill:#555761;stroke-width:1"
     d="m 32.534926,8.6868565 c -0.0704,0 -0.13393,0.03055 -0.20326,0.03524 h -0.0353 c -0.0114,0 -0.0211,-0.0024 -0.0353,0 -0.047,0.0024 -0.12105,-0.007 -0.16801,0 -0.0258,0 -0.0411,-0.0035 -0.067,0 -0.0422,0.0048 -0.0917,0.02585 -0.13393,0.0329 -0.0258,0.0035 -0.0411,-0.0048 -0.067,0 -0.0469,0.007 -0.094,0.0235 -0.13745,0.03524 -0.0235,0.0035 -0.0447,0.02585 -0.0682,0.03172 -0.0493,0.01176 -0.0858,0.02115 -0.13511,0.03524 -0.0153,0.0035 -0.0471,-0.0058 -0.0658,0 a 2.7140377,2.7140377 0 0 0 -0.20208,0.06696 c -0.0188,0.0058 -0.0164,-0.007 -0.0353,0 -0.0435,0.01528 -0.0893,0.047 -0.13395,0.06696 -0.0235,0.007 -0.0422,0.0235 -0.0669,0.03172 -0.0353,0.01528 -0.094,0.01646 -0.13277,0.0329 l -0.0682,0.03524 c -0.0587,0.02585 -0.1151,0.07049 -0.16919,0.09987 -0.0153,0.0094 -0.0188,-0.007 -0.0353,0 -0.0646,0.03759 -0.13746,0.09634 -0.19973,0.136288 -0.02,0.01176 -0.0505,0.02115 -0.0704,0.03524 -0.0114,0.007 -0.0176,0.0235 -0.0317,0.0329 -0.0353,0.02115 -0.0705,0.04465 -0.10334,0.06696 -0.0176,0.01528 -0.0471,0.0235 -0.0658,0.03524 -0.0611,0.04465 -0.10929,0.08929 -0.16919,0.13629 -0.0114,0.0094 -0.0211,0.0235 -0.0329,0.0329 -0.0235,0.01997 -0.0435,0.047 -0.0682,0.06814 -0.0235,0.01997 -0.0446,0.0141 -0.067,0.03524 -0.009,0.0058 -0.0282,0.02703 -0.0353,0.0329 l -0.0353,0.03524 c -0.047,0.03994 -0.0893,0.08929 -0.13511,0.133939 -0.0114,0.01176 -0.0211,0.0235 -0.0329,0.032899 -0.0293,0.02937 -0.074,0.03877 -0.10106,0.06814 l -0.0669,0.06696 c -0.0153,0.01881 -0.0176,0.04936 -0.0353,0.06814 -0.0353,0.0423 -0.0964,0.09046 -0.13276,0.135113 -0.0164,0.01763 -0.0211,0.04935 -0.0353,0.06696 -0.0282,0.03524 -0.0411,0.06579 -0.0682,0.10105 -0.0188,0.02703 -0.0471,0.04347 -0.067,0.0705 -0.008,0.0082 -0.0271,0.02115 -0.0353,0.03172 -0.008,0.01176 -0.0235,0.0235 -0.0317,0.03524 -0.0271,0.03524 -0.0422,0.09399 -0.0682,0.133938 -0.008,0.01176 -0.0258,0.0235 -0.0353,0.03524 -0.005,0.0082 0.008,0.0235 0,0.0329 l -0.0998,0.169188 c -0.005,0.0094 -0.0282,0.0235 -0.0329,0.03524 -0.0388,0.06578 -0.0669,0.131588 -0.1022,0.199734 -0.008,0.01763 -0.0235,0.01997 -0.0329,0.03524 -0.0271,0.05405 -0.0435,0.112788 -0.0682,0.168013 l -0.0353,0.06696 c -0.006,0.01881 -0.0235,0.04936 -0.0317,0.06696 -0.0235,0.05405 -0.0469,0.08224 -0.0682,0.135114 -0.004,0.0024 0,0.02937 0,0.03524 -0.008,0.01176 0.004,0.01646 0,0.03172 -0.0114,0.02703 -0.0271,0.03994 -0.0353,0.06696 l -0.0353,0.10105 c 0,0.0082 0.004,0.02585 0,0.03524 -0.004,0.01176 -0.0282,0.01763 -0.0353,0.0329 -0.0164,0.05874 -0.0153,0.140989 -0.0318,0.202085 -0.004,0.0141 -0.0293,0.01881 -0.0329,0.03524 -0.005,0.0141 0.004,0.01763 0,0.03172 -0.02,0.08224 -0.0176,0.152738 -0.0353,0.234982 0,0.0058 -0.0318,-0.0024 -0.0329,0 -0.0142,0.07872 -0.0235,0.158612 -0.0329,0.237331 -0.006,0.02585 0,0.07284 0,0.09986 -0.008,0.05874 0.003,0.111612 0,0.170363 -0.004,0.02819 -0.0353,0.03995 -0.0353,0.06696 -0.005,0.0799 0,0.190335 0,0.270228 v 19.534022 l 0.13511,-0.03524 3.1041,-0.168011 V 21.002065 h 2.42855 v -3.239222 h -2.42855 v -4.385932 a 1.2219044,1.2219044 0 0 1 1.21486,-1.214854 h 1.48509 l 0.10106,-2.8338795 v -0.06578 l 0.0353,-0.237332 c -0.0211,-0.0141 -0.0646,-0.01763 -0.10106,-0.03524 -0.008,-0.0035 -0.0235,0.0058 -0.0353,0 -0.008,-0.0035 -0.0235,-0.02819 -0.0329,-0.0329 -0.0114,-0.0048 -0.02,0.0048 -0.0329,0 -0.0164,-0.0058 -0.0493,-0.02703 -0.0682,-0.0329 -0.0235,-0.0094 -0.04,-0.02585 -0.0669,-0.03524 -0.0317,-0.0094 -0.067,-0.0235 -0.10106,-0.0329 -0.008,0 -0.0271,0.0024 -0.0353,0 -0.0114,-0.0035 -0.0517,0.0035 -0.0658,0 -0.008,-0.0024 0.0114,-0.03172 0,-0.03524 -0.006,0 -0.0235,0.0035 -0.0317,0 -0.008,0 -0.0258,0.0035 -0.0353,0 -0.0235,-0.0048 -0.0411,-0.02585 -0.0658,-0.03172 -0.009,-0.0024 -0.0258,0.0024 -0.0353,0 -0.0282,-0.007 -0.0705,0.0058 -0.0998,0 -0.008,-0.0024 -0.0235,-0.0329 -0.0329,-0.03524 -0.0258,-0.0035 -0.0411,0.0058 -0.067,0 -0.008,0 -0.0271,0.0024 -0.0353,0 -0.0353,-0.0024 -0.0669,-0.02703 -0.1022,-0.03172 -0.008,-0.0024 -0.0258,0 -0.0353,0 h -0.0329 c -0.0306,-0.0048 -0.0353,0.0024 -0.067,0 -0.0114,-0.0024 -0.0211,0 -0.0353,0 -0.0329,-0.0048 -0.0987,0 -0.13394,0 h -0.0305 c -0.0317,-0.0035 -0.0704,-0.0329 -0.1022,-0.03524 h -0.13512 z m 14.272789,0.340725 V 29.470981 h 2.08898 V 17.257812 h 1.99029 c 0.0564,0 0.11283,-0.0048 0.16801,0 0.0235,0 0.0471,0.03172 0.0682,0.0329 0.0411,0.0058 0.094,-0.007 0.13513,0 0.0211,0.0048 0.0471,-0.0035 0.0669,0 0.047,0.01176 0.0893,0.05522 0.13511,0.06814 0.0114,0.0058 0.0235,0 0.0353,0 0.0553,0.01997 0.11282,0.047 0.16683,0.07049 0.0176,0.0058 0.0164,-0.0082 0.0353,0 0.0353,0.01646 0.0635,0.047 0.0999,0.06696 l 0.0669,0.0329 c 0.0387,0.0235 0.0635,0.04346 0.10106,0.06814 0.0114,0.007 0.0553,-0.0082 0.0669,0 0.0471,0.03172 0.0904,0.06579 0.13511,0.101037 l 0.0353,0.03524 c 0.0318,0.02585 0.0705,0.07049 0.0999,0.09869 l 0.0353,0.03524 c 0.0293,0.02819 0.0376,0.06696 0.0658,0.09987 l 0.0353,0.03172 c 0.0353,0.04465 0.0669,0.08812 0.0999,0.135115 0.009,0.01176 0.0282,0.0235 0.0353,0.03524 0.0235,0.03759 0.0446,0.06109 0.0669,0.101049 0.009,0.01763 0.0235,0.05052 0.0353,0.06814 0.0176,0.03524 0.0471,0.06227 0.0658,0.10105 0.009,0.01646 -0.006,0.04935 0,0.06696 0.005,0.0058 0.0329,-0.007 0.0353,0 v 0.03524 c 0.009,0.0235 -0.009,0.04113 0,0.06462 0.009,0.02702 0.0235,0.04112 0.0353,0.06814 0.0114,0.03877 0.0235,0.09633 0.0353,0.13629 0.004,0.0235 0.0271,0.04112 0.0317,0.06579 0.009,0.047 -0.006,0.08695 0,0.135113 0.003,0.01881 0.0317,0.05169 0.0353,0.06814 0.006,0.06814 0,0.13394 0,0.20326 v 10.189977 h 2.02442 v -10.2264 c 0,-0.06579 0.004,-0.135114 0,-0.199735 v -0.103403 c -0.004,-0.047 0.005,-0.08812 0,-0.133939 -0.003,-0.02937 -0.0306,-0.0705 -0.0353,-0.101049 -0.005,-0.04465 0.009,-0.09164 0,-0.135115 -0.004,-0.02702 -0.0271,-0.04112 -0.0329,-0.06814 -0.006,-0.04347 -0.0235,-0.09399 -0.0329,-0.135115 -0.005,-0.01881 0.004,-0.047 0,-0.06696 -0.003,-0.01176 0,-0.0235 0,-0.03524 -0.0114,-0.04346 -0.0211,-0.08812 -0.0353,-0.133938 -0.005,-0.0235 -0.0258,-0.07402 -0.0329,-0.09869 -0.0176,-0.06462 -0.0471,-0.105742 -0.0669,-0.168012 -0.006,-0.01176 0,-0.0235 0,-0.03524 a 3.9594403,3.9594403 0 0 0 -0.0705,-0.168013 c -0.004,-0.01176 0.005,-0.0235 0,-0.03524 -0.005,-0.01176 0.006,-0.01997 0,-0.0329 -0.004,-0.0094 -0.0282,-0.0235 -0.0329,-0.03524 -0.02,-0.04465 -0.0471,-0.08812 -0.0682,-0.133941 -0.006,-0.01176 0.006,-0.01997 0,-0.0329 -0.004,-0.007 0.004,-0.02702 0,-0.03524 a 3.5270741,3.5270741 0 0 0 -0.10106,-0.199734 c -0.006,-0.01176 -0.0293,0.0094 -0.0353,0 -0.004,-0.0082 0.005,-0.02819 0,-0.03524 -0.0317,-0.05874 -0.0658,-0.111624 -0.10106,-0.169188 -0.009,-0.0141 -0.0235,-0.05287 -0.0329,-0.06696 -0.006,-0.01176 0.006,-0.0235 0,-0.03524 -0.0164,-0.02702 -0.0517,-0.04347 -0.0682,-0.06814 -0.006,-0.01176 -0.0271,-0.0235 -0.0353,-0.03524 -0.003,-0.0058 0.006,-0.02585 0,-0.0329 -0.009,-0.01528 -0.0211,-0.01763 -0.0317,-0.0329 -0.0114,-0.01997 -0.02,-0.04934 -0.0353,-0.06814 -0.0471,-0.07049 -0.11751,-0.138639 -0.16802,-0.203259 -0.0517,-0.06462 -0.11282,-0.109271 -0.16801,-0.169187 -0.009,-0.0082 0.009,-0.0235 0,-0.03524 -0.006,-0.0035 -0.0271,0.01176 -0.0353,0 v -0.03055 a 2.0748876,2.0748876 0 0 0 -0.13393,-0.135114 l -0.0329,-0.03524 c -0.006,-0.0048 -0.0271,0.007 -0.0329,0 -0.0564,-0.05052 -0.11043,-0.117492 -0.16919,-0.166837 -0.009,-0.0094 -0.0235,0.0058 -0.0353,0 -0.003,-0.0058 0.006,-0.0329 0,-0.03524 -0.0505,-0.0423 -0.11283,-0.06227 -0.16684,-0.10105 -0.0164,-0.01176 -0.0176,-0.0235 -0.0353,-0.03524 -0.0682,-0.047 -0.16449,-0.09164 -0.23498,-0.133938 -0.006,-0.0048 0.006,-0.02937 0,-0.03524 -0.0658,-0.03524 -0.13511,-0.06462 -0.20209,-0.09987 l -0.0682,-0.0329 c -0.0704,-0.03524 -0.12923,-0.07049 -0.20208,-0.102226 -0.005,0 -0.0282,0.0024 -0.0353,0 -0.0764,-0.03172 -0.15509,-0.07402 -0.23497,-0.101037 -0.009,-0.0024 -0.0235,0.0024 -0.0329,0 -0.0682,-0.02115 -0.13394,-0.04935 -0.20326,-0.06696 -0.006,-0.0035 -0.0258,0.0024 -0.0329,0 -0.009,-0.0035 -0.0271,0 -0.0353,0 -0.0822,-0.01997 -0.15039,-0.05405 -0.23499,-0.06814 -0.0114,-0.0035 -0.0211,0 -0.0353,0 -0.0729,-0.01176 -0.15977,-0.02819 -0.23497,-0.03524 -0.02,0 -0.0471,0.0024 -0.0669,0 -0.0611,-0.0035 -0.14099,0.0024 -0.20326,0 h -0.0669 c -0.0622,0 -0.13512,-0.0024 -0.20209,0 h -0.0682 c -0.0471,0 -0.0846,-0.0024 -0.13511,0 -0.0153,0 -0.0176,-0.0024 -0.0329,0 h -0.0353 c -0.0422,0.0035 -0.0904,0.03172 -0.13394,0.03524 -0.0353,0.0024 -0.0658,-0.0024 -0.10106,0 h -0.0353 c -0.0235,0 -0.0388,-0.0035 -0.0658,0 -0.047,0.0035 -0.0822,-0.0058 -0.13277,0 h -0.0353 c -0.0529,0.0058 -0.11396,0.02703 -0.16683,0.0329 -0.0293,0.0035 -0.0729,-0.0035 -0.1022,0 -0.0306,0.0035 -0.0705,0.02937 -0.10107,0.03524 -0.0505,0.0058 -0.0822,-0.0094 -0.13393,0 -0.0235,0 -0.047,0.02819 -0.0669,0.0329 -0.0164,0.0024 -0.0517,-0.0035 -0.0669,0 -0.0435,0.0082 -0.0587,0.0235 -0.1022,0.0329 h -0.0329 c -0.0682,0.01646 -0.141,0.01881 -0.20326,0.03524 -0.0424,0.01176 -0.094,0.02115 -0.13512,0.03524 V 9.0240685 h -2.09133 z m 32.15371,0.06696 V 29.470973 h 2.09133 V 9.0922005 h -2.09133 z m -61.47472,0.09751 V 29.470964 h 3.238041 V 9.3964845 l -3.101751,-0.204433 h -0.13746 z m 6.747501,1.1490595 c -0.0211,0 -0.047,0.03055 -0.067,0.0329 -0.04,0.0058 -0.0964,-0.007 -0.13511,0 -0.0235,0.0058 -0.0435,0.02819 -0.0682,0.03524 -0.0317,0.0058 -0.0705,-0.01176 -0.10107,0 0,0 0.005,0.03172 0,0.0329 -0.0235,0.007 -0.04,-0.0094 -0.0646,0 -0.0305,0.01176 -0.0704,0.02115 -0.10106,0.03524 -0.0235,0.0082 -0.0446,0.02115 -0.0705,0.03172 -0.0114,0.0094 -0.0176,0.02937 -0.0353,0.03524 -0.0114,0.0082 -0.0506,0.02703 -0.0646,0.03524 -0.0235,0.01176 -0.0446,0.01881 -0.067,0.0329 -0.0258,0.01528 -0.0435,0.01881 -0.0682,0.03524 -0.0235,0.0141 -0.0471,0.05169 -0.0682,0.06696 -0.0235,0.01763 -0.0435,0.0141 -0.0682,0.0329 -0.02,0.01763 -0.047,0.04935 -0.0669,0.06814 -0.008,0.0058 -0.0271,-0.0048 -0.0353,0 -0.0153,0.01646 -0.0164,0.05287 -0.0329,0.06814 -0.02,0.01763 -0.0529,0.01528 -0.0705,0.03524 -0.0235,0.02115 -0.0471,0.04231 -0.0658,0.06578 -0.014,0.01527 -0.0211,0.05287 -0.0353,0.06814 -0.008,0.01176 -0.0235,0.0235 -0.0329,0.03524 -0.009,0.01176 -0.0235,0.01997 -0.0353,0.0329 -0.008,0.01176 0.009,0.05522 0,0.06814 -0.005,0.0094 -0.0258,-0.01176 -0.0318,0 -0.0164,0.02115 -0.0235,0.04347 -0.0353,0.06696 0,0.0048 -0.0317,0.02937 -0.0353,0.03524 l -0.0317,0.06578 c -0.006,0.01176 0.005,0.0235 0,0.03524 -0.009,0.01646 -0.0258,0.01409 -0.0353,0.03524 v 0.03055 c -0.0114,0.0235 -0.0235,0.04346 -0.0329,0.06814 -0.0114,0.02937 -0.0235,0.03759 -0.0353,0.06696 l -0.0317,0.102226 c -0.006,0.01646 0.004,0.01646 0,0.03524 -0.005,0.01409 0.003,0.01881 0,0.0329 v 0.03524 c -0.005,0.01176 -0.0317,0.01763 -0.0353,0.03172 -0.003,0.01176 0.003,0.0235 0,0.03524 -0.003,0.0082 0,0.02585 0,0.03524 -0.005,0.0235 0.004,0.03996 0,0.06579 -0.004,0.02585 -0.0317,0.04231 -0.0353,0.06814 v 0.0329 c -0.003,0.047 0,0.08695 0,0.135113 0,0.05874 -0.004,0.111624 0,0.168013 0.003,0.0141 0.0329,0.02115 0.0353,0.03524 0.006,0.04935 -0.009,0.119833 0,0.168013 0.0114,0.05287 0.0517,0.117493 0.0669,0.169186 0.005,0.01176 -0.004,0.02115 0,0.0329 0.014,0.04347 0.0176,0.09399 0.0353,0.135115 0.004,0.0094 0.0282,0.0235 0.0329,0.03524 0.0211,0.047 0.0423,0.08695 0.0669,0.13394 0.008,0.01176 -0.006,0.0235 0,0.0329 0.0114,0.01881 0.0235,0.01646 0.0353,0.03524 0.0114,0.01881 0.02,0.047 0.0329,0.06696 0.006,0.007 0.0271,0.0235 0.0329,0.03172 0.0293,0.04231 0.0682,0.09399 0.1022,0.13394 0.0282,0.03524 0.0704,0.0705 0.10106,0.10105 l 0.0353,0.03524 c 0.0353,0.03524 0.0587,0.06696 0.0998,0.09986 0.009,0.0082 0.0235,0.02703 0.0329,0.03524 0.0353,0.02819 0.0635,0.03994 0.10107,0.06579 0.006,0.0048 0.0271,0.02937 0.0353,0.03524 0.0411,0.02819 0.0869,0.04112 0.13277,0.06696 0.0114,0.0058 0.0235,0.02819 0.0353,0.0329 0.0422,0.0235 0.0882,0.047 0.13393,0.06814 0.0493,0.02115 0.0822,0.01646 0.13395,0.0329 0.0114,0.0058 0.0235,0.0329 0.0353,0.03524 0.0529,0.01646 0.1151,0.0235 0.16919,0.03524 0.0553,0.01176 0.11156,0.02585 0.16801,0.03524 0.0114,0 0.0235,-0.0035 0.0353,0 0.0553,0.0024 0.10929,0 0.16801,0 0.0635,0 0.141,0.0035 0.20327,0 0.0517,-0.0094 0.1175,-0.0235 0.16918,-0.03524 0.0164,-0.0035 0.0164,0.0024 0.0329,0 l 0.13864,-0.03994 c 0.02,-0.0058 0.047,-0.02702 0.0682,-0.03524 0.0353,-0.01176 0.0658,-0.01763 0.10106,-0.03172 a 0.61212711,0.61212711 0 0 0 0.067,-0.03524 c 0.0353,-0.0141 0.0704,-0.01528 0.10334,-0.0329 0.0211,-0.01176 0.047,-0.0235 0.0682,-0.0329 0.0305,-0.0188 0.0376,-0.04935 0.0669,-0.06814 0.02,-0.01528 0.0471,-0.02115 0.0682,-0.03524 0.0282,-0.01881 0.0411,-0.047 0.0682,-0.06696 0.02,-0.01528 0.0471,-0.05052 0.0682,-0.06696 l 0.0669,-0.06814 c 0.0188,-0.01763 0.0493,-0.01527 0.0669,-0.03524 0.0235,-0.0235 0.0471,-0.04112 0.067,-0.06578 0.0164,-0.01881 0.0176,-0.047 0.0353,-0.06579 0.0176,-0.02585 0.0469,-0.0423 0.0658,-0.06814 0.0153,-0.02115 0.02,-0.04465 0.0353,-0.06696 0.0153,-0.02703 0.0505,-0.07402 0.0658,-0.102226 0.0114,-0.0235 0.0188,-0.04347 0.0317,-0.06696 l 0.0353,-0.06696 c 0.009,-0.02702 0.0211,-0.07755 0.0317,-0.103389 0.0114,-0.02703 0.0235,-0.03524 0.0353,-0.06579 l 0.0329,-0.101037 c 0.009,-0.03055 -0.008,-0.03524 0,-0.06814 0.006,-0.02703 0.0282,-0.07284 0.0329,-0.101049 0.008,-0.03055 -0.003,-0.06814 0,-0.10105 0.006,-0.02819 0.0329,-0.03877 0.0353,-0.06696 v -0.0329 c 0.003,-0.04347 0,-0.09164 0,-0.135116 0,-0.05874 0.006,-0.10927 0,-0.168011 0,-0.01763 -0.0317,-0.05052 -0.0353,-0.06814 -0.004,-0.04229 0.0114,-0.09399 0,-0.136289 -0.003,-0.01997 -0.0271,-0.04465 -0.0317,-0.06579 -0.005,-0.01645 0.004,-0.01763 0,-0.03524 -0.005,-0.01763 0.006,-0.047 0,-0.06579 -0.008,-0.0235 -0.0258,-0.04465 -0.0353,-0.06814 -0.008,-0.0235 -0.0235,-0.04465 -0.0329,-0.06696 -0.003,-0.0082 0.004,-0.02585 0,-0.03524 -0.006,-0.0141 -0.0258,-0.01763 -0.0329,-0.0329 -0.0153,-0.03524 -0.0164,-0.06814 -0.0353,-0.102226 a 0.60860238,0.60860238 0 0 0 -0.0329,-0.06815 c -0.0153,-0.0235 -0.0235,-0.047 -0.0353,-0.06814 -0.0114,-0.01528 -0.0235,-0.01881 -0.0353,-0.0329 -0.004,-0.0082 -0.0282,-0.02819 -0.0353,-0.03524 -0.0271,-0.04465 -0.0317,-0.05874 -0.0646,-0.10105 -0.009,-0.01176 -0.0235,-0.02115 -0.0353,-0.0329 -0.0235,-0.03055 -0.0728,-0.07286 -0.0998,-0.10105 -0.005,-0.0048 0.006,-0.02937 0,-0.03524 -0.008,-0.0058 -0.0258,0.0082 -0.0329,0 -0.006,-0.0048 0.006,-0.02585 0,-0.0329 -0.0235,-0.0235 -0.0422,-0.04465 -0.067,-0.06696 -0.0114,-0.0058 -0.0235,0.0094 -0.0353,0 -0.02,-0.01646 -0.0471,-0.05052 -0.067,-0.06579 -0.0211,-0.01763 -0.0447,-0.01997 -0.0669,-0.03524 -0.009,-0.007 -0.0235,-0.02702 -0.0317,-0.03524 -0.0258,-0.01646 -0.04,-0.01646 -0.067,-0.03524 -0.0114,-0.0035 -0.0235,-0.0235 -0.0353,-0.03055 -0.014,-0.01176 -0.0505,-0.02702 -0.0658,-0.03524 -0.0353,-0.01763 -0.0682,-0.01763 -0.10334,-0.03524 -0.0114,-0.0048 -0.0189,-0.02702 -0.0329,-0.03172 -0.0376,-0.01646 -0.0635,-0.02115 -0.10106,-0.03524 -0.0142,-0.0035 -0.054,0.0058 -0.0682,0 -0.008,0 0.009,-0.03055 0,-0.0329 l -0.13511,-0.03524 c -0.0164,-0.0035 -0.0505,0.0035 -0.0669,0 -0.0235,-0.0035 -0.0469,0.0048 -0.0682,0 -0.0188,0 -0.014,0.0024 -0.0329,0 -0.0176,0 -0.0505,-0.03172 -0.0682,-0.0329 -0.054,-0.0048 -0.11282,0 -0.16801,0 -0.0587,0 -0.10574,-0.0058 -0.16684,0 z m 15.688539,4.250818 c -0.0411,0 -0.0916,0.03524 -0.13393,0.03524 h -0.10106 c -0.0422,0 -0.094,-0.0048 -0.13512,0 -0.0235,0 -0.0435,-0.0035 -0.0682,0 -0.009,0 -0.0235,-0.0048 -0.0329,0 -0.0471,0.0035 -0.094,0.02585 -0.13746,0.03172 -0.0318,0.0048 -0.0705,-0.0048 -0.10107,0 -0.0447,0.007 -0.0917,0.02585 -0.13512,0.03524 -0.0189,0.0024 -0.0153,-0.0048 -0.0353,0 -0.009,0.0024 -0.0211,-0.0035 -0.0329,0 -0.0306,0.0058 -0.0704,0.02585 -0.101059,0.0329 -0.0114,0.0048 -0.0235,0 -0.0353,0 -0.009,0.0048 -0.0235,0 -0.0329,0 -0.0188,0.0058 -0.0493,0.03172 -0.0682,0.03524 -0.0422,0.01176 -0.0587,0.0235 -0.10106,0.03524 -0.003,0 -0.0305,-0.0035 -0.0353,0 -0.0235,0.007 -0.0411,-0.0082 -0.0658,0 -0.005,0 0.005,0.03172 0,0.03524 l -0.10106,0.03172 c -0.009,0.0024 -0.0271,-0.0035 -0.0353,0 -0.0211,0.007 -0.0435,-0.0082 -0.0658,0 -0.003,0 0.003,0.03524 0,0.03524 -0.0211,0.0058 -0.047,-0.0094 -0.0682,0 -0.0114,0.0035 -0.0211,0.02702 -0.0329,0.03172 -0.0114,0.0048 -0.0235,-0.0048 -0.0353,0 -0.0235,0.0094 -0.0435,0.0235 -0.067,0.03524 -0.0114,0.0035 -0.0235,-0.0058 -0.0329,0 l -0.0704,0.0329 c -0.008,0.0048 -0.0235,0.03055 -0.0329,0.03524 -0.0211,0.0082 -0.0471,0.0235 -0.0682,0.0329 -0.0353,0.01646 -0.0669,0.01528 -0.10106,0.03524 -0.0114,0.0048 -0.0235,0.02585 -0.0353,0.0329 l -0.0669,0.0329 c -0.0235,0.0141 -0.0446,0.02115 -0.0704,0.03524 -0.02,0.01176 -0.047,0.01997 -0.0658,0.0329 -0.0176,0.0094 -0.0176,0.0235 -0.0353,0.0329 -0.0189,0.01176 -0.0471,0.02115 -0.0658,0.03524 -0.02,0.01176 -0.0471,0.01997 -0.0682,0.0329 -0.014,0.0094 -0.02,0.0235 -0.0329,0.03524 h -0.0353 c -0.0235,0.0141 -0.0435,0.04936 -0.0669,0.06579 -0.0235,0.01646 -0.047,0.01646 -0.0682,0.03524 -0.0114,0.007 -0.0235,0.0235 -0.0353,0.03172 -0.006,0.007 -0.0235,0.02937 -0.0317,0.03524 -0.0353,0.02585 -0.0705,0.04112 -0.1022,0.06814 -0.009,0.0082 -0.0235,0.02702 -0.0329,0.03524 l -0.0353,0.03525 c -0.0353,0.02819 -0.0646,0.03524 -0.0999,0.06462 -0.008,0.007 0.008,0.02702 0,0.03524 -0.003,0.0024 -0.0317,-0.0035 -0.0353,0 -0.0435,0.04112 -0.0904,0.09046 -0.13395,0.13394 l -0.0658,0.06579 c -0.0114,0.0141 -0.0235,0.02115 -0.0353,0.03524 -0.0114,0.01176 -0.0211,0.05287 -0.0329,0.06696 -0.04,0.04465 -0.094,0.08812 -0.13511,0.133939 -0.009,0.0141 -0.0211,0.02115 -0.0317,0.03524 -0.006,0.0058 -0.0282,0.0235 -0.0353,0.0329 -0.0305,0.03994 -0.0353,0.09399 -0.0658,0.135115 -0.0235,0.03172 -0.0446,0.03524 -0.0682,0.06696 -0.0471,0.06696 -0.094,0.166836 -0.13628,0.23498 -0.005,0.0094 -0.0282,-0.0058 -0.0329,0 -0.008,0.01176 -0.0271,0.0235 -0.0353,0.03524 -0.014,0.0235 -0.0188,0.04346 -0.0329,0.06696 -0.0293,0.05287 -0.0388,0.117493 -0.067,0.170363 -0.006,0.01176 -0.0258,0.01997 -0.0329,0.03524 -0.0164,0.02819 -0.02,0.07049 -0.0353,0.09868 -0.008,0.01763 -0.0235,0.01646 -0.0329,0.03524 -0.0235,0.04346 -0.0469,0.08695 -0.0682,0.132765 -0.014,0.0329 -0.02,0.0705 -0.0353,0.102226 -0.0258,0.06696 -0.0422,0.132764 -0.0658,0.202084 l -0.0329,0.101037 c -0.003,0.0094 0.004,0.0235 0,0.03524 -0.0282,0.08695 -0.0787,0.178586 -0.10106,0.26788 a 4.4951984,4.4951984 0 0 0 -0.13512,1.080914 v 6.170617 c 0,0.08459 0.0293,0.150388 0.0353,0.234982 0,0.02585 -0.004,0.04113 0,0.06696 0.004,0.0705 -0.009,0.164487 0,0.234982 0,0.01763 0.0305,0.0141 0.0353,0.03524 0.009,0.08224 0.0153,0.180937 0.0306,0.270228 0.005,0.0235 -0.005,0.04113 0,0.06462 0.014,0.06696 0.0517,0.136289 0.0682,0.202086 0.006,0.0235 -0.006,0.04464 0,0.06814 0.0235,0.08224 0.0411,0.187984 0.067,0.270227 0.008,0.01881 0.0293,0.0141 0.0353,0.0329 0.0235,0.06696 0.0422,0.137465 0.0669,0.203259 0.009,0.0235 0.0235,0.04229 0.0353,0.06696 0.0305,0.0799 0.0646,0.159787 0.0998,0.234982 0.005,0.01176 -0.005,0.02585 0,0.03524 0.0353,0.0705 0.0646,0.13394 0.10107,0.202084 0.004,0.0094 0.0293,0.02702 0.0329,0.03524 0.009,0.01763 0.0235,0.047 0.0353,0.06579 0.0235,0.047 0.0388,0.09164 0.0658,0.13629 0.0153,0.0235 0.0189,0.04347 0.0353,0.06814 0.0411,0.06579 0.0882,0.138639 0.13394,0.202085 0.0411,0.05874 0.0916,0.112787 0.13511,0.168011 0.0176,0.01997 0.0517,0.047 0.0682,0.06696 0.0353,0.04231 0.0646,0.09399 0.10106,0.135115 l 0.0682,0.06696 c 0.04,0.04347 0.0587,0.09399 0.10106,0.13394 l 0.0353,0.03524 c 0.0553,0.05405 0.14099,0.11514 0.19973,0.166837 0.0176,0.0141 0.0176,0.01997 0.0353,0.03524 0.0447,0.03524 0.0882,0.06345 0.13512,0.09986 0.0211,0.01881 0.0446,0.0517 0.067,0.0705 0.0435,0.03055 0.0893,0.07049 0.13512,0.09987 0.0235,0.01528 0.047,0.01881 0.0669,0.03524 0.0646,0.03994 0.13629,0.06109 0.20326,0.09987 0.008,0.0058 0.0235,0.02937 0.0329,0.03524 0.0635,0.03524 0.10333,0.07049 0.16917,0.10105 l 0.0658,0.0329 c 0.0493,0.0235 0.11751,0.047 0.16919,0.06814 0.0282,0.01176 0.04,0.0235 0.0669,0.0329 0.0553,0.01997 0.11283,0.01646 0.16919,0.03524 0.0235,0.0058 0.0469,0.02585 0.0682,0.0329 0.0764,0.0235 0.15743,0.04935 0.23498,0.06696 0.0258,0.0058 0.0447,-0.0058 0.0704,0 l 0.16684,0.03524 c 0.0318,0.0048 0.0704,0.02819 0.102199,0.0329 0.0553,0.007 0.11156,-0.0058 0.16801,0 0.0305,0.0024 0.0705,-0.0024 0.10106,0 0.0775,0.0048 0.15862,0.0329 0.23499,0.0329 h 0.0353 c 0.11282,0 0.22088,-0.01997 0.3372,-0.03055 0.1175,-0.0094 0.22088,-0.01409 0.33837,-0.03524 l 2.69994,-0.404169 0.23498,-0.03524 -0.0669,-1.619022 -0.0329,-0.843585 v -0.27023 h -3.10059 c -0.005,0 -0.0271,-0.03524 -0.0329,-0.03524 -0.0423,0 -0.094,0.0058 -0.13511,0 -0.0176,0 -0.0164,0.0048 -0.0353,0 -0.0282,0 -0.0705,0.0094 -0.0999,0 -0.0164,0 -0.0176,-0.02702 -0.0353,-0.03172 a 1.470985,1.470985 0 0 1 -0.0999,-0.03524 c -0.0142,-0.0048 -0.0189,0.0094 -0.0329,0 a 0.9892726,0.9892726 0 0 1 -0.13746,-0.06578 c -0.0353,-0.01763 -0.0682,-0.0423 -0.10106,-0.06462 -0.0114,-0.0082 -0.0235,-0.0235 -0.0353,-0.03524 -0.0235,-0.01763 -0.0435,-0.01176 -0.067,-0.0329 l -0.0318,-0.03524 c -0.0235,-0.02115 -0.047,-0.04228 -0.0682,-0.06578 l -0.0329,-0.03524 c -0.0293,-0.03055 -0.0435,-0.06227 -0.0682,-0.09868 a 0.19973437,0.19973437 0 0 1 -0.0353,-0.03524 c -0.02,-0.02819 -0.0176,-0.03524 -0.0353,-0.06579 -0.005,-0.01176 -0.0282,-0.0235 -0.0353,-0.03524 a 0.43706581,0.43706581 0 0 1 -0.0317,-0.06696 c -0.005,-0.0094 0.005,-0.0235 0,-0.03524 a 1.2430528,1.2430528 0 0 1 -0.0329,-0.09986 c -0.0114,-0.03524 -0.0271,-0.06696 -0.0353,-0.10105 0,-0.01176 0.004,-0.0235 0,-0.03524 -0.004,-0.0235 0.005,-0.03994 0,-0.0658 0,-0.01176 -0.0317,-0.05522 -0.0329,-0.06814 -0.004,-0.0329 0,-0.06579 0,-0.10105 v -1.416939 h 4.04873 c 0.88824,0 1.62138,-0.704945 1.62138,-1.621373 v -3.169902 c -0.003,-0.05874 0,-0.111611 0,-0.169185 -0.003,-0.0048 0,-0.02819 0,-0.0329 -0.004,-0.02703 0,-0.04113 0,-0.06814 -0.005,-0.047 -0.0306,-0.08929 -0.0353,-0.135113 -0.004,-0.03524 0.005,-0.06696 0,-0.10105 -0.006,-0.04465 -0.0271,-0.09399 -0.0353,-0.13629 -0.004,-0.03055 0.008,-0.07049 0,-0.10105 0,-0.0058 0.003,-0.02702 0,-0.0329 -0.005,-0.03524 -0.0235,-0.06579 -0.0329,-0.102226 -0.006,-0.02585 0.008,-0.03877 0,-0.06579 0,-0.0058 0.003,-0.02819 0,-0.03524 -0.005,-0.01881 -0.0282,-0.047 -0.0329,-0.06579 -0.006,-0.01997 0.005,-0.047 0,-0.06696 -0.005,-0.01646 -0.0293,-0.01646 -0.0353,-0.0329 -0.004,-0.01763 0.006,-0.05169 0,-0.06814 -0.0114,-0.03995 -0.02,-0.06109 -0.0329,-0.10105 l -0.0353,-0.09986 c -0.0114,-0.03996 -0.0517,-0.06227 -0.0669,-0.101049 -0.0114,-0.0329 -0.02,-0.07049 -0.0353,-0.102226 -0.014,-0.03877 -0.014,-0.09751 -0.0318,-0.135115 -0.009,-0.0235 -0.0235,-0.047 -0.0353,-0.06814 -0.005,-0.01176 0.006,-0.01997 0,-0.0329 -0.006,-0.01881 -0.0235,-0.01881 -0.0329,-0.03524 -0.0235,-0.04936 -0.0435,-0.12101 -0.0682,-0.169186 -0.006,-0.0094 -0.0293,0.0094 -0.0353,0 -0.0293,-0.0564 -0.0669,-0.112787 -0.0999,-0.168012 -0.004,-0.0048 0.003,-0.02937 0,-0.03524 -0.006,-0.007 0.006,-0.0235 0,-0.0329 -0.0271,-0.04347 -0.0728,-0.05874 -0.10106,-0.10105 -0.009,-0.0141 -0.0235,-0.05287 -0.0353,-0.06696 -0.014,-0.0235 -0.0164,-0.047 -0.0353,-0.06814 -0.0587,-0.08224 -0.10106,-0.157437 -0.16448,-0.234981 -0.0114,-0.0141 -0.0235,-0.02115 -0.0353,-0.03524 -0.0317,-0.03759 -0.0682,-0.06345 -0.10106,-0.101049 l -0.0353,-0.03524 c -0.0114,-0.01528 -0.0505,-0.05169 -0.0658,-0.06696 -0.0305,-0.03172 -0.0387,-0.0705 -0.0705,-0.10105 -0.004,-0.0048 -0.0271,0.0058 -0.0317,0 -0.0376,-0.03877 -0.0587,-0.09751 -0.0999,-0.135115 -0.0142,-0.01176 -0.0553,-0.01997 -0.0682,-0.0329 -0.0306,-0.02585 -0.0387,-0.04112 -0.0682,-0.06696 -0.0114,-0.0094 -0.0235,-0.0235 -0.0353,-0.03524 -0.009,-0.0058 -0.0235,0.0094 -0.0353,0 -0.0353,-0.02702 -0.0658,-0.07284 -0.0999,-0.09986 -0.0153,-0.01176 -0.0176,-0.02115 -0.0353,-0.03524 -0.009,-0.007 -0.0211,-0.0235 -0.0318,-0.03172 -0.04,-0.03055 -0.094,-0.03877 -0.13394,-0.06814 -0.0142,-0.0094 -0.02,-0.0235 -0.0353,-0.0329 -0.0493,-0.03524 -0.1151,-0.07049 -0.16801,-0.10339 -0.0376,-0.0235 -0.094,-0.04465 -0.13277,-0.06696 -0.0176,-0.0094 -0.02,-0.02585 -0.0353,-0.03524 -0.0114,-0.0048 -0.0235,-0.02585 -0.0353,-0.03172 -0.0235,-0.01176 -0.0764,-0.0235 -0.0999,-0.03524 -0.0211,-0.01176 -0.0114,-0.0235 -0.0353,-0.0329 -0.006,-0.0035 -0.0235,0.0035 -0.0318,0 -0.008,-0.0035 -0.0271,-0.03055 -0.0353,-0.03524 -0.047,-0.02115 -0.0858,-0.04347 -0.13394,-0.06578 -0.0114,-0.0048 -0.0235,0.0048 -0.0353,0 h -0.0306 c -0.054,-0.0235 -0.0822,-0.047 -0.13511,-0.06696 -0.0188,-0.007 -0.0517,-0.02819 -0.0704,-0.03524 -0.0471,-0.01763 -0.0822,-0.01646 -0.13395,-0.0329 -0.014,-0.0058 -0.0211,-0.03055 -0.0353,-0.03524 -0.0553,-0.01763 -0.11169,-0.01763 -0.16801,-0.0329 h -0.0353 c -0.0114,-0.0035 -0.0188,-0.03055 -0.0317,-0.03524 -0.0114,-0.0024 -0.0235,0.0035 -0.0353,0 l -0.13393,-0.0329 c -0.009,-0.0024 -0.0235,0.0024 -0.0353,0 -0.008,0 -0.0235,0.0024 -0.0317,0 -0.0469,-0.0094 -0.0893,-0.02585 -0.13629,-0.03524 -0.0587,-0.0082 -0.11042,0.0082 -0.17035,0 -0.0471,-0.0035 -0.0869,-0.02819 -0.13513,-0.03172 -0.0469,-0.0048 -0.0882,0.0024 -0.13511,0 h -0.0622 c -0.0258,0 -0.074,0.0024 -0.0998,0 -0.0422,0 -0.0588,-0.03524 -0.10106,-0.03524 z m -17.139549,0.202084 v 14.676951 h 3.2404 V 14.996097 l -3.24275,-0.199734 z m 80.504704,0.169186 c -0.0505,0.0035 -0.0822,0.02819 -0.13512,0.03524 -0.0271,0 -0.0751,-0.0048 -0.10106,0 -0.0424,0.0035 -0.0553,0.02585 -0.0987,0.03172 -0.0271,0.0024 -0.074,-0.0058 -0.10106,0 -0.047,0.0058 -0.094,0.0235 -0.13629,0.03172 -0.0176,0.0048 -0.0164,-0.0035 -0.0353,0 h -0.0329 c -0.0505,0.01176 -0.0858,0.02115 -0.13511,0.03524 -0.0153,0.0035 -0.047,0.02819 -0.0646,0.0329 -0.0658,0.01763 -0.13864,0.01176 -0.20209,0.0329 -0.006,0.0035 -0.0282,0.0329 -0.0353,0.03524 -0.0893,0.02937 -0.14921,0.03172 -0.23498,0.06579 -0.0114,0.0035 -0.0235,0.02937 -0.0353,0.03524 -0.0846,0.03524 -0.18446,0.05874 -0.27023,0.09868 -0.006,0.0048 -0.0235,0.02937 -0.0318,0.03524 -0.0587,0.02937 -0.11156,0.06696 -0.16919,0.09987 h -0.0329 c -0.0553,0.03172 -0.11282,0.06462 -0.16801,0.09986 -0.0114,0.0094 -0.02,0.02585 -0.0353,0.03524 -0.005,0.0035 -0.0258,-0.0058 -0.0353,0 -0.0376,0.02585 -0.0587,0.07049 -0.0987,0.09987 -0.009,0.0082 -0.0235,-0.0058 -0.0353,0 -0.009,0.0082 -0.0235,0.02819 -0.0318,0.03524 -0.0529,0.03877 -0.12218,0.09399 -0.17036,0.135115 -0.047,0.03994 -0.12219,0.09399 -0.16801,0.135114 -0.0176,0.01528 -0.0153,0.01646 -0.0329,0.0329 -0.0353,0.0329 -0.0669,0.06696 -0.10107,0.101049 l -0.0353,0.03524 -0.0329,0.0329 -0.0329,0.03524 c -0.0293,0.02937 -0.0423,0.06814 -0.0682,0.09987 -0.008,0.0082 -0.0271,0.0235 -0.0353,0.03524 -0.0376,0.047 -0.0964,0.08224 -0.13276,0.132765 -0.0153,0.01997 -0.02,0.047 -0.0353,0.06814 -0.0235,0.02937 -0.047,0.03759 -0.0669,0.06696 -0.006,0.0094 0.006,0.0235 0,0.03524 -0.006,0.0082 -0.0271,0.0235 -0.0329,0.0329 -0.006,0.0094 -0.0282,0.0235 -0.0353,0.0329 -0.0353,0.05522 -0.0669,0.117493 -0.0998,0.171536 -0.0235,0.03524 -0.0493,0.06696 -0.0705,0.101049 -0.009,0.02115 -0.0235,0.047 -0.0318,0.07049 -0.004,0.0024 0,0.02819 0,0.03172 -0.009,0.01528 -0.0258,0.01646 -0.0353,0.03524 l -0.0658,0.132765 c -0.006,0.01409 0.005,0.02115 0,0.03524 -0.005,0.007 -0.0306,0.02585 -0.0353,0.0329 -0.0153,0.03524 -0.0189,0.07049 -0.0329,0.102226 -0.0114,0.02702 -0.0235,0.04113 -0.0353,0.06814 v 0.03524 c -0.009,0.01646 -0.0282,0.0141 -0.0353,0.03172 -0.0176,0.0423 -0.0176,0.09164 -0.0353,0.133939 -0.006,0.0235 -0.0258,0.047 -0.0318,0.06814 -0.0176,0.047 -0.0188,0.08695 -0.0353,0.13394 0,0.01176 -0.0293,0.0235 -0.0318,0.03524 -0.004,0.0094 0.002,0.0235 0,0.0329 -0.02,0.06696 -0.0505,0.135114 -0.0682,0.202084 -0.0258,0.103402 -0.0176,0.199734 -0.0353,0.305476 0,0 -0.0318,-0.0048 -0.0329,0 -0.006,0.03877 0.005,0.09399 0,0.133939 -0.004,0.02115 0.002,0.047 0,0.06696 v 0.03524 c -0.009,0.06696 -0.0294,0.129238 -0.0353,0.199733 0,0.0035 0.002,0.03172 0,0.03524 0,0.06227 0.002,0.105742 0,0.166837 v 10.256946 h 2.09369 V 19.282014 c 0,-0.583927 0.25612,-1.180782 0.6744,-1.621372 0.0353,-0.03524 0.0635,-0.06462 0.10106,-0.09986 0.0353,-0.03055 0.0658,-0.07284 0.10106,-0.10105 0.24437,-0.199734 0.53811,-0.352472 0.84357,-0.405343 0.0376,-0.0058 0.0622,0.0048 0.10107,0 0.047,-0.0035 0.0882,0 0.13512,0 l 2.29342,0.03524 c 0.0176,-0.338374 0.0114,-0.702596 0.0353,-1.116161 0,-0.02702 0.0293,-0.03524 0.0305,-0.06579 v -0.03524 c 0.002,-0.05874 -0.002,-0.105742 0,-0.166836 v -0.03524 c 0.002,-0.05874 -0.002,-0.138639 0,-0.199734 a 6.9848286,6.9848286 0 0 0 -0.37134,-0.170306 c -0.14686,-0.06344 -0.31722,-0.09046 -0.47231,-0.137464 -0.0447,-0.01176 -0.0904,-0.05522 -0.13511,-0.06696 -0.0376,-0.01176 -0.0622,-0.0235 -0.10106,-0.03524 -0.004,0 -0.0282,0.0048 -0.0329,0 -0.0353,-0.007 -0.0658,0.0082 -0.1022,0 a 4.9122908,4.9122908 0 0 0 -0.81069,-0.09986 h -0.10106 c -0.074,0 -0.16215,-0.0024 -0.23499,0 h -0.0682 z m -41.973605,0.03524 c -0.11042,0.0024 -0.22088,0.0235 -0.3372,0.03172 -0.11156,0.0082 -0.25849,0.01528 -0.37127,0.03172 -0.11283,0.01645 -0.22324,0.047 -0.3372,0.06814 h -0.0329 c -0.10106,0.01881 -0.17623,0.04465 -0.27022,0.06696 -0.0188,0.0035 -0.054,-0.0035 -0.0705,0 -0.15743,0.03524 -0.32193,0.05874 -0.46997,0.10105 -0.005,0 0,0.02937 0,0.0329 -0.0705,0.01881 -0.13746,0.01176 -0.20443,0.03524 -0.003,0 -0.0305,0.02937 -0.0353,0.03172 -0.0682,0.02115 -0.13394,0.047 -0.19973,0.06814 -0.009,0.0035 -0.0258,-0.0024 -0.0353,0 -0.0235,0.0082 -0.0446,0.02702 -0.0669,0.03524 -0.0114,0.0048 -0.0235,-0.0035 -0.0353,0 -0.0114,0.0048 -0.0211,-0.0048 -0.0353,0 -0.0282,0.01176 -0.0704,0.0235 -0.0999,0.03524 0,0.03524 0.0329,0.06578 0.0353,0.09986 v 0.03524 c 0,0.01527 -0.003,0.01763 0,0.0329 0,0.03524 -0.003,0.06579 0,0.101049 0.004,0.08224 -0.006,0.158612 0,0.234982 0.004,0.07637 0.0282,0.157437 0.0329,0.234981 v 0.303126 c 0,0.02937 -0.003,0.03759 0,0.06814 v 0.239681 c 0,0.01646 0.0318,0.0141 0.0329,0.0329 v 0.13394 c 0.004,0.03995 0,0.05874 0,0.102227 0.0435,-0.0058 0.094,0 0.13629,0 0.0353,-0.0058 0.0646,0 0.10106,0 0.0587,-0.007 0.11156,-0.03172 0.16919,-0.03524 0.0704,-0.007 0.12923,0.0048 0.20208,0 0.0376,-0.0048 0.094,0 0.13394,0 0.23968,-0.01997 0.46643,-0.05052 0.70847,-0.07049 0.0353,0 0.0682,0.0035 0.10107,0 0.0822,-0.0048 0.15743,-0.02585 0.23497,-0.03172 0.0587,-0.0048 0.11751,0.0035 0.17154,0 0.0587,-0.0048 0.11042,0.0035 0.16919,0 0.0682,-0.0048 0.13511,-0.03055 0.20208,-0.03524 0.0422,-0.0024 0.094,0.0024 0.13512,0 0.0964,-0.0035 0.20913,0.0048 0.30194,0 0.11043,-0.01176 0.20444,-0.0329 0.30548,-0.0329 0.0682,0 0.13629,0.02937 0.19973,0.03524 0.0176,0 0.0517,-0.0035 0.0682,0 0.0635,0.0048 0.11156,0.02115 0.16919,0.0329 0.0564,0.01176 0.11396,0.01644 0.16801,0.0329 0.0114,0.007 0.0188,-0.0035 0.0317,0 0.0529,0.01881 0.12218,0.047 0.17036,0.07049 a 1.1044136,1.1044136 0 0 1 0.13511,0.06579 c 0.0114,0.007 0.0211,0.02703 0.0329,0.03524 0.0422,0.0235 0.0635,0.03524 0.1022,0.06578 h 0.0329 c 0.0387,0.03172 0.0669,0.06814 0.10106,0.102226 l 0.0329,0.03172 c 0.0329,0.03524 0.0376,0.06462 0.0682,0.101037 0,0.0035 0.0318,0.03172 0.0329,0.03524 0.0293,0.03759 0.0411,0.05874 0.0682,0.09986 0.006,0.01176 0.0258,0.01997 0.0353,0.0329 0.0211,0.03994 0.0471,0.09399 0.0658,0.135115 0.0153,0.03524 0.02,0.06814 0.0353,0.102226 0,0 -0.003,0.03172 0,0.0329 0.0493,0.132765 0.10814,0.289027 0.13393,0.438241 0.004,0.0235 -0.005,0.047 0,0.0705 0.008,0.05405 0.0282,0.109272 0.0329,0.166837 0.003,0.0235 0,0.04346 0,0.06814 0.006,0.07873 0,0.152738 0,0.234982 v 1.65427 c -0.02,-0.0058 -0.0471,-0.02819 -0.0669,-0.03524 -0.0176,-0.0035 -0.0517,0.007 -0.0704,0 -0.006,-0.0024 0.009,-0.03055 0,-0.0329 -0.009,-0.0024 -0.0235,0.0024 -0.0318,0 h -0.0353 c -0.009,-0.0024 -0.0235,0.0024 -0.0329,0 -0.0153,-0.0035 -0.02,-0.02937 -0.0353,-0.0329 -0.014,-0.0048 -0.0529,0.0048 -0.0669,0 -0.0153,-0.0035 -0.0176,0.0035 -0.0353,0 -0.0142,-0.0035 -0.0505,-0.02937 -0.0658,-0.03524 -0.0189,-0.0024 -0.0153,0.0048 -0.0353,0 -0.0153,-0.0024 -0.0493,0.0048 -0.0658,0 -0.0164,-0.0024 -0.0153,-0.02937 -0.0329,-0.0329 -0.0189,-0.0035 -0.0471,0.0035 -0.0669,0 -0.0164,-0.0035 -0.0164,0.0035 -0.0353,0 -0.0176,-0.0035 -0.0471,-0.02937 -0.0658,-0.03524 -0.0142,0 -0.0517,0.0035 -0.0669,0 -0.0142,0 -0.0517,0.0048 -0.0658,0 -0.0114,0 -0.0188,0.0035 -0.0353,0 -0.02,0 -0.0411,-0.02937 -0.0658,-0.03172 h -0.0635 c -0.0188,-0.0035 -0.047,0 -0.0669,0 -0.009,0 -0.0235,0.0024 -0.0353,0 -0.0329,-0.0035 -0.0635,0.0024 -0.0999,0 -0.0517,-0.0048 -0.11396,-0.03055 -0.16919,-0.03524 h -0.0669 c -0.0353,0 -0.0635,0.0024 -0.10106,0 h -0.50521 c -0.0471,0 -0.0882,-0.0024 -0.13511,0 h -0.10107 c -0.0411,0.0048 -0.0658,0 -0.10334,0 h -0.0353 c -0.02,0 -0.0471,0.0329 -0.0669,0.03524 -0.02,0.0024 -0.047,-0.0024 -0.0669,0 -0.0164,0.0024 -0.0188,-0.0024 -0.0353,0 -0.0235,0.0035 -0.0775,-0.0035 -0.10106,0 -0.0235,0.0024 -0.0446,0.02937 -0.0669,0.0329 -0.0114,0.0035 -0.0553,-0.0024 -0.0682,0 -0.0329,0.0058 -0.0353,-0.0048 -0.0682,0 -0.02,0.0048 -0.0505,0.03055 -0.0705,0.03524 -0.0164,0.0035 -0.047,-0.0048 -0.0658,0 -0.0282,0.0048 -0.04,0.02585 -0.0669,0.0329 -0.0271,0.007 -0.0764,-0.0048 -0.1022,0 -0.0153,0.0058 -0.0176,-0.0024 -0.0329,0 a 1.1478852,1.1478852 0 0 0 -0.10106,0.03524 c -0.0493,0.01176 -0.0904,0.0517 -0.13629,0.06696 -0.0258,0.007 -0.0435,-0.0094 -0.0682,0 h -0.0353 c -0.0318,0.01176 -0.0658,0.01997 -0.0998,0.0329 -0.0235,0.0082 -0.04,0.0235 -0.0658,0.0329 -0.0318,0.01176 -0.0705,0.01997 -0.0998,0.03524 -0.0235,0.0094 -0.0435,0.0235 -0.0682,0.0329 -0.0114,0.007 -0.0211,0.02819 -0.0329,0.03524 l -0.0705,0.0329 c -0.0235,0.0141 -0.0422,0.0235 -0.0658,0.03524 -0.0164,0.0082 -0.0188,-0.0082 -0.0353,0 l -0.0658,0.03524 c -0.02,0.01176 -0.047,0.01997 -0.0669,0.03172 -0.0271,0.01763 -0.0387,0.05052 -0.0658,0.06814 -0.009,0.0058 -0.0258,-0.0058 -0.0353,0 -0.0114,0.007 -0.0211,0.02585 -0.0329,0.03524 -0.0493,0.02937 -0.12105,0.06579 -0.16801,0.09986 -0.0153,0.01176 -0.0189,0.0235 -0.0353,0.0329 -0.0293,0.0235 -0.0704,0.04347 -0.0998,0.06814 -0.0176,0.0141 -0.0164,0.05287 -0.0353,0.06696 -0.0258,0.0235 -0.0729,0.047 -0.0999,0.0705 -0.0164,0.0141 -0.0176,0.01881 -0.0353,0.03524 -0.0235,0.01997 -0.0764,0.0423 -0.0999,0.06579 -0.0153,0.01528 -0.0188,0.05169 -0.0353,0.06696 -0.02,0.0235 -0.0435,0.04465 -0.0658,0.06814 -0.003,0.0035 -0.0329,0 -0.0353,0 -0.0114,0.01176 -0.02,0.05522 -0.0329,0.06814 -0.0293,0.03172 -0.0376,0.06696 -0.0669,0.09987 -0.004,0.0048 -0.0317,-0.0035 -0.0353,0 -0.005,0.007 0.006,0.02819 0,0.03524 -0.0353,0.04465 -0.0669,0.08812 -0.10106,0.13394 -0.005,0.007 -0.0258,0.0235 -0.0353,0.0329 l -0.0646,0.10105 c -0.0114,0.01763 -0.0235,0.01997 -0.0353,0.03524 0,0 0.003,0.03172 0,0.0329 -0.0189,0.0329 -0.0471,0.03524 -0.0658,0.07049 v 0.03172 c -0.0114,0.01763 -0.0235,0.01646 -0.0353,0.03524 -0.0176,0.02937 -0.0176,0.06814 -0.0353,0.09986 0,0 -0.0305,-0.0024 -0.0317,0 -0.009,0.01763 0.009,0.05052 0,0.06814 -0.003,0.0024 -0.0329,-0.0035 -0.0353,0 -0.0153,0.03172 -0.0176,0.06814 -0.0329,0.101049 -0.006,0.01528 -0.0271,0.0517 -0.0329,0.06696 -0.02,0.047 -0.0165,0.09164 -0.0353,0.136289 0,0.007 -0.0306,-0.0048 -0.0329,0 v 0.03524 c -0.0235,0.05522 -0.0471,0.109271 -0.0682,0.168011 v 0.03524 c -0.006,0.01527 0.005,0.01176 0,0.03172 -0.009,0.02819 -0.0258,0.07049 -0.0353,0.10105 -0.004,0.01528 0.006,0.01763 0,0.03524 0,0 -0.0317,-0.0035 -0.0329,0 -0.006,0.0235 0.008,0.07637 0,0.09987 -0.004,0.01528 0.005,0.01646 0,0.0329 -0.005,0.01997 -0.0282,0.047 -0.0329,0.06696 -0.006,0.01997 0.003,0.047 0,0.06814 -0.005,0.01646 -0.0317,0.01997 -0.0353,0.03524 -0.008,0.03994 0.006,0.09633 0,0.135113 -0.006,0.03055 -0.0293,0.03759 -0.0353,0.06814 -0.005,0.04231 0.006,0.09164 0,0.133939 -0.003,0.02937 0.004,0.07284 0,0.102226 -0.004,0.047 -0.0293,0.08459 -0.0329,0.13394 v 0.06696 c -0.004,0.07284 0,0.160962 0,0.234982 v 1.282998 c 0,0.0799 -0.004,0.156262 0,0.234981 0,0.0235 -0.003,0.04228 0,0.06814 0.005,0.05522 0.0282,0.113964 0.0353,0.168011 0.003,0.02819 -0.005,0.04112 0,0.0705 0.008,0.05169 0.0235,0.113964 0.0329,0.166838 0.005,0.0235 -0.006,0.04346 0,0.06814 0.014,0.0752 0.0471,0.160962 0.0669,0.234982 0.0188,0.07049 0.0471,0.135114 0.0682,0.203258 0.009,0.0235 0.0235,0.07873 0.0353,0.102226 0.0164,0.04936 0.014,0.08577 0.0353,0.13394 0.009,0.02702 0.0235,0.04231 0.0318,0.06814 0.02,0.05052 0.047,0.08929 0.0682,0.136288 l 0.0353,0.06814 c 0.0306,0.06696 0.0646,0.136289 0.0999,0.202084 0.003,0.0035 -0.003,0.02819 0,0.03524 0.0353,0.06227 0.0975,0.14099 0.13511,0.199735 0.0142,0.0235 0.02,0.0141 0.0353,0.03524 0.0305,0.04936 0.0646,0.119833 0.0998,0.168011 0.0114,0.01763 0.02,0.047 0.0353,0.06696 0.0446,0.06345 0.0822,0.109271 0.13277,0.16801 0.0114,0.01646 0.0211,0.01763 0.0353,0.03525 0.0387,0.04465 0.094,0.09046 0.13393,0.133939 l 0.0682,0.06814 c 0.0435,0.047 0.0893,0.09399 0.13394,0.13629 0.0114,0.01176 0.0188,0.0235 0.0353,0.03524 0.0553,0.05169 0.10575,0.117492 0.16684,0.168012 0.0176,0.0141 0.0471,0.01763 0.0669,0.03172 0.0471,0.03759 0.0858,0.06696 0.13395,0.10105 0.02,0.01528 0.0471,0.05405 0.0669,0.06814 0.0669,0.047 0.13629,0.06109 0.20443,0.102226 0.005,0.0035 -0.004,0.0329 0,0.03524 0.0658,0.03877 0.13393,0.06462 0.20208,0.09986 l 0.0658,0.03524 c 0.0587,0.02819 0.11156,0.03994 0.16918,0.06579 0.0188,0.0082 0.0493,0.02585 0.0669,0.03524 0.0764,0.03055 0.12572,0.07049 0.20326,0.09987 0.0114,0.0048 0.054,-0.0035 0.0669,0 0.0658,0.0235 0.13629,0.047 0.20325,0.06814 0.0211,0.007 0.0114,0.02702 0.0329,0.03524 0.0704,0.01763 0.16449,0.01646 0.23498,0.0329 0.0114,0.0024 0.0235,0.03055 0.0353,0.03524 0.0822,0.01646 0.15039,0.01997 0.23499,0.03172 0.0188,0.0035 0.0505,0 0.0682,0 0.0705,0.0094 0.13276,0.02937 0.20325,0.03524 0.0189,0.0024 0.0471,-0.0035 0.0658,0 0.0882,0.0048 0.18329,0 0.27023,0 0.86708,0 1.639,-0.276104 2.29578,-0.743716 0.51225,-0.364222 0.9458,-0.857685 1.24539,-1.41694 0.31136,-0.580405 0.47349,-1.221904 0.47349,-1.923325 V 19.25602 c 0,-0.03994 0.003,-0.06109 0,-0.10105 0,-0.02703 0.003,-0.07284 0,-0.09986 0,-0.02702 0.003,-0.04112 0,-0.06814 v -0.03524 c -0.003,-0.03055 0.004,-0.07049 0,-0.101038 -0.005,-0.03524 -0.0282,-0.06345 -0.0329,-0.09987 -0.006,-0.02702 0.004,-0.07402 0,-0.101037 -0.005,-0.0235 0.003,-0.047 0,-0.06815 -0.005,-0.01646 -0.0329,-0.01763 -0.0353,-0.03524 -0.004,-0.0235 0.004,-0.04113 0,-0.06579 v -0.03524 c 0,-0.01646 0.004,-0.01881 0,-0.03524 -0.006,-0.01997 -0.0282,-0.04465 -0.0353,-0.06579 -0.006,-0.02819 0.009,-0.07402 0,-0.10105 -0.004,-0.01997 -0.0271,-0.01528 -0.0353,-0.03524 -0.003,-0.01646 0.009,-0.04936 0,-0.06696 -0.004,-0.0235 -0.0235,-0.04231 -0.0305,-0.06579 -0.008,-0.0235 -0.0282,-0.04347 -0.0353,-0.06696 -0.005,-0.01176 0.005,-0.05405 0,-0.06696 -0.005,-0.02115 -0.0258,-0.04935 -0.0329,-0.06814 l -0.0329,-0.102226 c -0.0114,-0.0235 -0.0235,-0.07284 -0.0353,-0.09986 -0.0114,-0.02819 -0.0211,-0.04112 -0.0329,-0.06814 -0.003,-0.0058 0,-0.02819 0,-0.03524 -0.0114,-0.02819 -0.02,-0.03524 -0.0353,-0.06579 -0.004,-0.01176 -0.0271,-0.0235 -0.0317,-0.03524 -0.006,-0.007 0.003,-0.0235 0,-0.03172 l -0.1022,-0.202085 c -0.006,-0.01176 0.006,-0.01997 0,-0.03524 -0.004,-0.0035 -0.0317,0.0082 -0.0353,0 -0.0411,-0.07284 -0.0882,-0.160962 -0.13393,-0.23498 -0.006,-0.01176 0.006,-0.0235 0,-0.03172 -0.04,-0.06344 -0.094,-0.109271 -0.13629,-0.169187 -0.006,-0.01176 0.006,-0.02702 0,-0.03524 -0.006,-0.0082 -0.0258,-0.0235 -0.0353,-0.0329 -0.0435,-0.06227 -0.0846,-0.110447 -0.13394,-0.169187 -0.005,-0.007 -0.0271,-0.02702 -0.0329,-0.03524 -0.0553,-0.06345 -0.11156,-0.138639 -0.16919,-0.199733 -0.0153,-0.01763 -0.0189,-0.01997 -0.0353,-0.03524 -0.0376,-0.03994 -0.094,-0.09634 -0.13276,-0.135115 -0.0176,-0.01528 -0.0517,-0.05169 -0.0682,-0.06696 -0.0635,-0.05522 -0.13746,-0.08224 -0.20326,-0.13394 -0.0114,-0.0082 -0.0235,-0.0235 -0.0353,-0.03524 -0.0517,-0.04113 -0.11042,-0.09399 -0.16683,-0.133939 -0.0235,-0.01528 -0.0471,-0.01881 -0.0682,-0.0329 -0.0658,-0.04347 -0.13511,-0.09399 -0.20209,-0.135114 -0.005,-0.0048 0.004,-0.0329 0,-0.03524 -0.074,-0.04347 -0.15861,-0.06227 -0.23498,-0.10105 l -0.0704,-0.03524 c -0.0587,-0.02937 -0.13629,-0.0752 -0.19974,-0.101049 -0.0153,-0.007 -0.054,0.0048 -0.0682,0 -0.0822,-0.0329 -0.15274,-0.0752 -0.23498,-0.102226 -0.0211,-0.0058 -0.0493,-0.02819 -0.0704,-0.03524 -0.0189,-0.0048 -0.0447,0.007 -0.0658,0 l -0.13513,-0.03172 c -0.0211,-0.0058 -0.047,-0.02937 -0.0682,-0.03524 -0.0235,-0.0048 -0.0775,0.007 -0.10107,0 -0.0669,-0.01176 -0.12923,-0.0235 -0.19973,-0.0329 -0.008,0 0.005,-0.03055 0,-0.03524 -0.0893,-0.01176 -0.17975,0.0094 -0.27023,0 -0.0176,0 -0.0517,-0.03172 -0.0682,-0.03172 -0.0293,-0.0024 -0.0704,0.0024 -0.0999,0 -0.0564,-0.0024 -0.11282,0 -0.16918,0 h -0.16801 z m 10.89844,0 c -0.0329,0 -0.0682,0.02937 -0.10106,0.03172 -0.0329,0 -0.0682,-0.0058 -0.10106,0 h -0.0318 c -0.0329,0.0024 -0.0353,-0.007 -0.0669,0 -0.0211,0 -0.0471,0.02703 -0.0682,0.03172 -0.0114,0.0035 -0.02,-0.0024 -0.0329,0 h -0.0353 c -0.0271,0.0058 -0.0411,-0.0048 -0.0682,0 -0.0353,0.007 -0.0987,0.0235 -0.13394,0.03524 -0.0271,0.0048 -0.0411,0.02585 -0.0682,0.0329 -0.0293,0.007 -0.0705,-0.0094 -0.10107,0 -0.009,0.0024 -0.0235,0.03055 -0.0353,0.0329 -0.0235,0.007 -0.0411,-0.007 -0.0658,0 -0.0235,0.0082 -0.0435,0.02585 -0.0682,0.03524 -0.0114,0.0035 -0.0553,0.02819 -0.0669,0.0329 -0.0235,0.0082 -0.0114,-0.007 -0.0353,0 h -0.0329 c -0.006,0.0035 0.009,0.03172 0,0.03524 -0.0235,0.0082 -0.0422,-0.01176 -0.0669,0 -0.0114,0.0035 -0.0235,0.02819 -0.0353,0.03524 -0.0153,0.0048 -0.0493,-0.0094 -0.0658,0 -0.0353,0.01176 -0.0658,0.04935 -0.10107,0.06578 -0.0114,0.0058 -0.0211,-0.0058 -0.0353,0 -0.009,0.0048 -0.0211,0.02702 -0.0329,0.0329 -0.0422,0.01997 -0.094,0.047 -0.13512,0.06814 -0.006,0.0048 -0.0235,-0.0048 -0.0329,0 h -0.0353 c -0.0293,0.01646 -0.0353,0.04934 -0.0658,0.06696 -0.0235,0.01176 -0.0471,0.01881 -0.0705,0.03524 0,0 -0.0329,-0.0058 -0.0353,0 -0.0471,0.02702 -0.0858,0.06696 -0.13277,0.09868 -0.0282,0.01881 -0.0411,0.047 -0.0682,0.06696 -0.0353,0.0235 -0.0705,0.04465 -0.10221,0.0705 -0.02,0.01409 -0.047,0.01763 -0.0669,0.03524 -0.0329,0.0235 -0.0705,0.07284 -0.1022,0.09869 -0.0211,0.01763 -0.0471,0.01528 -0.0682,0.0329 -0.0293,0.02585 -0.0376,0.0423 -0.0669,0.06814 l -0.0682,0.06814 c -0.0317,0.03055 -0.0353,0.07049 -0.0669,0.101049 -0.0114,0.01176 -0.054,0.02115 -0.0669,0.03524 -0.0329,0.03524 -0.0353,0.06462 -0.0669,0.09987 -0.0493,0.05287 -0.12219,0.109271 -0.16918,0.166837 -0.0164,0.01997 -0.0176,0.047 -0.0353,0.06696 -0.0293,0.03877 -0.0704,0.05874 -0.0999,0.10105 -0.005,0.0058 0.006,0.02702 0,0.0329 -0.0114,0.01881 -0.0211,0.01528 -0.0329,0.03524 -0.0305,0.03877 -0.0775,0.09399 -0.10574,0.13394 -0.006,0.01176 0.009,0.01997 0,0.0329 -0.006,0.01176 -0.0235,0.02115 -0.0317,0.0329 -0.0235,0.04113 -0.0446,0.09399 -0.0682,0.135115 -0.006,0.01176 -0.0271,0.0235 -0.0329,0.03524 -0.006,0.01176 0.006,0.01997 0,0.03524 -0.0353,0.06462 -0.0705,0.129241 -0.1022,0.199735 0,0.0035 -0.0305,-0.0035 -0.0317,0 -0.006,0.01646 0.008,0.05052 0,0.06696 -0.0235,0.0517 -0.0471,0.08224 -0.0682,0.135115 -0.009,0.02115 -0.0258,0.047 -0.0329,0.06814 v 0.03524 c -0.0211,0.05287 -0.0493,0.0799 -0.0682,0.133939 -0.009,0.02115 0.005,0.047 0,0.06814 -0.0235,0.06814 -0.0529,0.131589 -0.0705,0.202084 v 0.03524 c -0.0775,0.317227 -0.13395,0.634451 -0.13395,0.975175 v 6.579483 c 0,0.07049 0.0293,0.136288 0.0353,0.204434 0,0.03055 -0.004,0.07049 0,0.10105 0.003,0.05052 -0.009,0.08224 0,0.135115 0.003,0.02702 0.0282,0.07049 0.0318,0.09868 0.006,0.05287 -0.009,0.08224 0,0.135115 0.005,0.0235 0.0282,0.0752 0.0353,0.09986 0.014,0.07637 0.0114,0.129241 0.0329,0.202085 0.005,0.0141 0,0.05287 0,0.06814 0.0176,0.06109 0.0471,0.105742 0.0682,0.168011 0.006,0.0235 0.0235,0.04347 0.0329,0.06696 0.0176,0.0517 0.0142,0.117493 0.0353,0.16801 0.006,0.0235 0.0235,0.04347 0.0317,0.06815 0.0235,0.0564 0.0422,0.111611 0.0682,0.16801 0.008,0.0141 0.0282,0.01997 0.0353,0.03524 0.0353,0.07049 0.0646,0.132765 0.1022,0.199734 0,0.0058 -0.003,0.03055 0,0.03524 0.004,0.0058 0.0293,-0.007 0.0329,0 l 0.10106,0.169187 c 0.0114,0.01881 0.0235,0.047 0.0353,0.06696 0.0353,0.05874 0.0622,0.117493 0.10106,0.170363 0.009,0.01176 0.0235,0.02115 0.0353,0.0329 0.0471,0.06462 0.0822,0.140989 0.13395,0.203259 0.0142,0.01646 0.0553,0.01763 0.0682,0.0329 0.04,0.047 0.0587,0.09164 0.10107,0.135115 l 0.0682,0.06696 c 0.0471,0.04936 0.0822,0.08577 0.13512,0.13394 l 0.0353,0.03524 c 0.0553,0.05287 0.10574,0.08577 0.16683,0.135114 0.0164,0.01645 0.047,0.05169 0.0658,0.06696 l 0.13394,0.102227 c 0.0211,0.01176 0.0505,0.01881 0.0704,0.03172 0.0635,0.047 0.13394,0.09399 0.19974,0.135112 0.0114,0.007 0.0235,-0.0058 0.0353,0 0.0587,0.03524 0.10814,0.0705 0.16801,0.10105 l 0.0682,0.0329 c 0.0587,0.02819 0.11397,0.0752 0.17037,0.10105 0.02,0.007 0.0153,-0.0082 0.0353,0 0.0705,0.03172 0.15861,0.07402 0.23498,0.101037 0.0176,0.007 0.0493,0.02937 0.0682,0.03524 0.0587,0.01997 0.10574,0.01528 0.16801,0.0329 0.0235,0.0058 0.0435,0.02819 0.0682,0.03524 0.0658,0.01763 0.13511,0.01763 0.20208,0.03172 0.0142,0.0035 0.02,0.03055 0.0353,0.03524 0.0787,0.01528 0.18563,0.02115 0.26787,0.0329 0.0235,0.0048 0.0447,0 0.0682,0 0.0635,0.01176 0.10574,0.02937 0.16919,0.03524 0.0235,0.0035 0.0435,0 0.0682,0 0.0822,0.0048 0.18329,0 0.27023,0 0.0658,0 0.13629,0.0035 0.20209,0 h 0.0669 c 0.047,0 0.094,0.0058 0.13628,0 0.0235,0 0.0411,-0.03055 0.0669,-0.0329 0.0387,-0.0058 0.0622,0.0058 0.10106,0 0.0271,-0.0048 0.074,0.0048 0.10106,0 0.0353,-0.0058 0.0635,-0.02819 0.0999,-0.03524 0.0282,-0.0048 0.074,-0.02703 0.10107,-0.0329 0.0353,-0.0082 0.0669,0.0094 0.1022,0 0.0282,-0.007 0.0411,-0.02703 0.0682,-0.0329 0.0353,-0.0094 0.0669,-0.0235 0.10107,-0.03524 0.0293,-0.007 0.0751,0.0094 0.1022,0 0.0353,-0.0094 0.0682,-0.02115 0.10106,-0.0329 0.0271,-0.0094 0.0411,-0.0235 0.0682,-0.03524 0.0329,-0.01176 0.0705,-0.02115 0.1022,-0.0329 0.0271,-0.01176 0.0411,-0.0235 0.0669,-0.03524 0.0329,-0.01176 0.0704,-0.05169 0.1022,-0.06578 0.0271,-0.01176 0.0435,-0.0235 0.0705,-0.03524 0.0305,-0.0141 0.0704,-0.01646 0.0998,-0.0329 l 0.0704,-0.03524 c 0.0293,-0.01528 0.0682,-0.047 0.0998,-0.06578 0.0235,-0.0141 0.0435,-0.01997 0.0669,-0.03524 0.0305,-0.01763 0.0705,-0.047 0.10106,-0.06579 0.0235,-0.01528 0.0435,-0.01997 0.0682,-0.03524 0.0305,-0.01763 0.0387,-0.047 0.0682,-0.06578 0.0211,-0.01646 0.0471,-0.01763 0.0682,-0.03524 0.0293,-0.01997 0.0729,-0.04464 0.1022,-0.06696 0.0211,-0.01528 0.047,-0.047 0.0669,-0.06578 0.0282,-0.0235 0.0411,-0.04347 0.0682,-0.06696 0.0188,-0.0188 0.047,-0.01763 0.0669,-0.03524 0.0271,-0.0235 0.0729,-0.0423 0.0998,-0.06814 0.0188,-0.01881 0.0153,-0.05052 0.0353,-0.06814 0.0258,-0.02585 0.0729,-0.04113 0.0999,-0.06696 0.0176,-0.01881 0.0164,-0.04934 0.0353,-0.06814 0.0235,-0.02703 0.04,-0.03877 0.0658,-0.06696 0.0176,-0.01881 0.0529,-0.04934 0.0704,-0.06814 0.0235,-0.03055 0.0411,-0.07049 0.0658,-0.10105 0.0153,-0.01881 0.0235,-0.01646 0.0353,-0.03524 0.0271,-0.0329 0.0751,-0.06579 0.10106,-0.10105 0.0114,-0.01527 0.0235,-0.0517 0.0353,-0.06696 0.0271,-0.03877 0.0387,-0.06109 0.0658,-0.101036 0.009,-0.01176 0.0258,-0.01997 0.0353,-0.0329 0.0329,-0.05287 0.0682,-0.117492 0.0999,-0.170361 0.0646,-0.109271 0.11397,-0.220884 0.16919,-0.337199 0.006,-0.0082 0.0306,-0.02115 0.0353,-0.0329 0.0211,-0.047 0.0471,-0.08577 0.0669,-0.133941 0.006,-0.01763 -0.006,-0.05169 0,-0.06814 0.0165,-0.0423 0.0517,-0.05874 0.0669,-0.10105 0.009,-0.01997 -0.006,-0.047 0,-0.06696 l 0.0353,-0.135113 c 0.006,-0.0235 0.0271,-0.047 0.0353,-0.06814 0.0114,-0.03996 0.0235,-0.06109 0.0318,-0.10105 0.006,-0.0235 -0.005,-0.04347 0,-0.06696 0.0114,-0.03994 0.0235,-0.09399 0.0353,-0.135115 0.004,-0.0235 0.0282,-0.04346 0.0329,-0.06814 0.006,-0.03994 -0.006,-0.09399 0,-0.13394 0.003,-0.0235 0.0305,-0.04347 0.0329,-0.06814 0.005,-0.02585 -0.004,-0.04113 0,-0.06696 v -0.03525 c 0.006,-0.05874 -0.004,-0.110448 0,-0.169186 0.003,-0.01176 0,-0.01997 0,-0.0329 0,-0.0082 0.0353,-0.02585 0.0353,-0.03524 -0.0471,0 -0.42767,-0.0329 -0.94581,-0.06696 -0.17153,-0.01176 -0.37597,-0.01881 -0.57217,-0.0329 -0.18094,-0.01176 -0.38185,-0.01997 -0.57217,-0.03524 0,0.047 0.004,0.09399 0,0.13629 -0.003,0.02115 0.003,0.04346 0,0.06578 a 2.1101348,2.1101348 0 0 1 -0.10107,0.405344 c -0.27728,0.787188 -1.03862,1.315897 -1.92451,1.315897 -0.0622,0 -0.11042,0.0058 -0.17035,0 h -0.0669 c -0.0587,-0.0058 -0.11042,-0.0235 -0.16802,-0.03524 -0.0553,-0.01176 -0.11751,-0.01763 -0.16918,-0.03172 -0.0114,-0.0035 -0.02,0.0024 -0.0317,0 v -0.03524 c -0.0553,-0.01763 -0.11751,-0.01176 -0.16919,-0.0329 -0.006,-0.0035 0.006,-0.03172 0,-0.03524 -0.0471,-0.01881 -0.0893,-0.0082 -0.13512,-0.03172 -0.0114,-0.007 -0.0235,-0.02937 -0.0329,-0.03524 a 3.0606355,3.0606355 0 0 1 -0.16919,-0.10105 c -0.0435,-0.02937 -0.094,-0.07049 -0.13511,-0.10105 -0.009,-0.007 -0.0271,0.007 -0.0353,0 -0.0435,-0.03524 -0.0611,-0.09399 -0.10106,-0.135114 -0.006,-0.0058 -0.0282,0.007 -0.0353,0 -0.0353,-0.03524 -0.0658,-0.09399 -0.0998,-0.13394 -0.006,-0.007 -0.0282,0.007 -0.0353,0 a 2.3768391,2.3768391 0 0 1 -0.10106,-0.135114 c -0.004,-0.0058 0.008,-0.0235 0,-0.03524 -0.0114,-0.01646 -0.0189,-0.047 -0.0318,-0.06462 -0.0142,-0.0235 -0.0211,-0.04465 -0.0353,-0.06814 -0.004,-0.0094 -0.0282,-0.02585 -0.0329,-0.03524 -0.0258,-0.05052 -0.0447,-0.0799 -0.0669,-0.133941 -0.003,-0.0094 0.005,-0.0235 0,-0.03524 -0.0176,-0.04465 -0.0517,-0.119833 -0.0669,-0.166836 -0.003,-0.01176 0.006,-0.01997 0,-0.03524 -0.0153,-0.05522 -0.0529,-0.105743 -0.0658,-0.166838 -0.0114,-0.05405 0.006,-0.109271 0,-0.166836 v -0.06814 c -0.006,-0.06227 -0.0353,-0.102226 -0.0353,-0.168012 V 19.0719 c 0,-0.615652 0.30312,-1.179608 0.74371,-1.550879 0.34073,-0.289028 0.76722,-0.439416 1.24775,-0.439416 0.0622,0 0.14099,-0.0035 0.19973,0 0.02,0.0058 0.0165,0 0.0353,0 0.0435,0.0082 0.0893,0.02819 0.13511,0.03524 0.0189,0.0048 0.0471,-0.0035 0.0669,0 0.0505,0.01176 0.0846,0.01997 0.13512,0.03524 0.009,0 0.0235,-0.0024 0.0353,0 0.0553,0.01763 0.11156,0.04465 0.16684,0.06696 0.0153,0.0058 0.0176,0.02703 0.0353,0.03524 0.0376,0.01646 0.094,0.047 0.13276,0.06579 0.0165,0.0094 0.0165,-0.0094 0.0329,0 0.0424,0.0235 0.094,0.04231 0.13629,0.06815 0.009,0.0082 0.0235,0.02703 0.0329,0.03524 0.047,0.03172 0.0893,0.06345 0.13511,0.09986 0.0114,0.0094 0.0235,0.0235 0.0353,0.03524 0.0306,0.02819 0.0669,0.0705 0.0987,0.09986 l 0.0329,0.0329 c 0.0318,0.03172 0.0729,0.06696 0.1022,0.10105 l 0.0318,0.03524 c 0.0387,0.04465 0.0704,0.08577 0.1022,0.133941 0.006,0.0082 -0.005,0.0235 0,0.0329 0.0282,0.04113 0.0775,0.05874 0.1022,0.102226 0.009,0.01528 0.0235,0.05052 0.0353,0.06696 0.02,0.03877 0.0165,0.06227 0.0353,0.10105 0.004,0.01528 0.0235,0.05287 0.0318,0.06814 0.003,0.0035 -0.003,0.02937 0,0.0329 0.009,0.0235 0.0258,0.04346 0.0353,0.06814 0.006,0.0235 0.0235,0.04112 0.0318,0.06696 l 0.0353,0.101037 c 0.005,0.02585 -0.006,0.0752 0,0.102226 0.006,0.03995 0.0282,0.05874 0.0329,0.101038 0.004,0.0235 -0.003,0.04465 0,0.06696 0.006,0.06579 0,0.13629 0,0.202086 v 0.338374 c 0.0422,0 0.0882,-0.0329 0.13512,-0.03524 h 0.16801 c 0.0447,0 0.0893,0.0024 0.13511,0 h 0.0669 c 0.0658,0 0.13629,0.0024 0.20326,0 0.25379,-0.0048 0.52049,0.0082 0.81069,0 0.0669,0 0.12924,-0.03055 0.19974,-0.0329 h 0.0704 c 0.094,-0.0024 0.16683,0.0035 0.26788,0 v -0.270221 c 0,-0.04936 0.003,-0.08459 0,-0.13394 v -0.03172 c -0.003,-0.03524 0.003,-0.06578 0,-0.10105 -0.003,-0.03524 0.003,-0.06814 0,-0.101049 -0.003,-0.03524 0.005,-0.06696 0,-0.101037 -0.004,-0.02937 -0.0282,-0.0705 -0.0329,-0.10105 -0.004,-0.03172 0.005,-0.07049 0,-0.10105 -0.008,-0.0329 -0.0271,-0.06578 -0.0353,-0.09986 -0.005,-0.03172 0.009,-0.07049 0,-0.101049 -0.005,-0.03524 -0.0235,-0.0705 -0.0329,-0.10105 -0.009,-0.03172 -0.0258,-0.07049 -0.0329,-0.102226 a 1.7212404,1.7212404 0 0 0 -0.0353,-0.10105 c -0.009,-0.02937 -0.0235,-0.03524 -0.0353,-0.06579 -0.008,-0.02819 0.0114,-0.07402 0,-0.10105 0,-0.0035 -0.0318,0.0024 -0.0353,0 -0.009,-0.03055 -0.0189,-0.07049 -0.0306,-0.101049 -0.0114,-0.02819 0.0114,-0.03877 0,-0.06696 0,-0.0024 -0.0329,-0.03055 -0.0353,-0.03524 -0.0114,-0.02937 -0.02,-0.03524 -0.0329,-0.06578 -0.008,-0.01881 0.006,-0.0517 0,-0.06814 -0.004,-0.0082 -0.0318,0.007 -0.0353,0 -0.0353,-0.07402 -0.0622,-0.164488 -0.10106,-0.234982 a 2.9313957,2.9313957 0 0 0 -0.13395,-0.237333 c -0.008,-0.01409 -0.0258,-0.0235 -0.0353,-0.03524 -0.003,-0.0048 0.005,-0.02819 0,-0.0329 -0.0422,-0.06462 -0.0869,-0.105742 -0.13394,-0.168011 -0.006,-0.0094 -0.0282,-0.02702 -0.0353,-0.03524 -0.0517,-0.07049 -0.0787,-0.136289 -0.13393,-0.199733 -0.0114,-0.01763 -0.0211,-0.0235 -0.0329,-0.03524 -0.0505,-0.05874 -0.1175,-0.117493 -0.16919,-0.170361 -0.005,-0.0035 0.005,-0.02937 0,-0.03524 -0.005,-0.0035 -0.0282,0.007 -0.0353,0 -0.0587,-0.05874 -0.10333,-0.110448 -0.16683,-0.166838 -0.014,-0.01176 -0.054,-0.02115 -0.0682,-0.0329 -0.0564,-0.047 -0.11042,-0.122185 -0.16801,-0.168013 -0.0114,-0.0094 -0.0235,0.0058 -0.0353,0 -0.0682,-0.05405 -0.12924,-0.122185 -0.19973,-0.17036 -0.0153,-0.0082 -0.0235,-0.02585 -0.0353,-0.03524 -0.0635,-0.03994 -0.13747,-0.06227 -0.20208,-0.09986 -0.0142,-0.0082 -0.0188,-0.0235 -0.0353,-0.03524 -0.074,-0.04112 -0.15509,-0.06227 -0.23498,-0.09986 -0.009,-0.0035 -0.0235,-0.02937 -0.0353,-0.0329 -0.0493,-0.0235 -0.11283,-0.047 -0.1645,-0.07049 -0.0188,-0.007 -0.0188,-0.02703 -0.0353,-0.03524 -0.0188,-0.0058 -0.047,0.0082 -0.0682,0 -0.0822,-0.02937 -0.18563,-0.07402 -0.27023,-0.09986 -0.009,-0.0024 -0.0235,0.0035 -0.0329,0 -0.074,-0.02115 -0.12689,-0.04935 -0.20209,-0.06696 -0.0211,-0.0058 -0.047,0.0048 -0.0682,0 -0.0822,-0.01763 -0.15274,-0.05405 -0.23498,-0.06814 h -0.0353 c -0.0188,-0.0035 -0.047,0 -0.0669,0 -0.0611,-0.0082 -0.13746,-0.02937 -0.19973,-0.03524 -0.0235,-0.0024 -0.0447,0.0024 -0.0705,0 -0.0893,-0.0058 -0.17624,0 -0.26788,0 h -0.10334 c -0.0306,0 -0.0704,-0.0024 -0.10106,0 -0.0353,0.0035 -0.0682,0 -0.1022,0 z m 20.24367,0 c -0.0435,0 -0.0904,0.02702 -0.13393,0.03172 -0.0271,0 -0.0447,-0.0048 -0.0705,0 -0.0293,0 -0.0705,-0.0058 -0.10106,0 -0.0114,0 -0.0235,-0.0035 -0.0353,0 -0.0258,0.0024 -0.0376,0.02585 -0.0658,0.03172 -0.0293,0.0048 -0.0751,-0.0058 -0.1022,0 -0.0114,0.0035 -0.0235,-0.0024 -0.0353,0 -0.0258,0.007 -0.0353,0.02703 -0.0646,0.03524 -0.0376,0.0058 -0.0658,0.0235 -0.10106,0.0329 -0.0293,0.0058 -0.0704,-0.0082 -0.1022,0 -0.0353,0.0094 -0.0658,0.0235 -0.10106,0.0329 -0.0282,0.0094 -0.0729,0.0235 -0.10106,0.03524 -0.0235,0.007 -0.0751,0.0235 -0.0998,0.0329 -0.0282,0.01176 -0.04,0.0235 -0.0682,0.03524 -0.0329,0.01176 -0.0669,0.01881 -0.10106,0.03524 l -0.0658,0.03172 c -0.0235,0.0094 -0.0775,0.0235 -0.10106,0.03524 -0.009,0.0024 0.006,0.02702 0,0.03172 -0.0282,0.01176 -0.0753,0.02115 -0.10221,0.03524 -0.0306,0.01528 -0.0704,0.01528 -0.10106,0.0329 -0.0258,0.01409 -0.0411,0.05169 -0.0669,0.06696 -0.0329,0.01646 -0.0729,0.0141 -0.1022,0.03524 -0.0258,0.01176 -0.0423,0.01528 -0.0682,0.03172 -0.0293,0.01881 -0.0376,0.047 -0.0669,0.06696 l -0.10106,0.06696 c -0.0271,0.01997 -0.0435,0.01763 -0.0704,0.03524 -0.0235,0.01763 -0.0422,0.047 -0.0658,0.06814 -0.0282,0.01997 -0.074,0.04347 -0.10107,0.06579 -0.0211,0.01881 -0.0446,0.04935 -0.0669,0.06696 -0.0258,0.0235 -0.0388,0.04465 -0.0658,0.0705 l -0.0682,0.06696 c -0.0258,0.0235 -0.0422,0.04228 -0.0669,0.06814 -0.0211,0.01881 -0.047,0.0141 -0.0669,0.0329 l -0.0353,0.03524 c -0.0189,0.01881 -0.0153,0.047 -0.0329,0.06696 -0.0189,0.02115 -0.0471,0.047 -0.0669,0.06814 -0.0258,0.02702 -0.047,0.03994 -0.0704,0.06814 -0.0164,0.01997 -0.047,0.047 -0.0658,0.06696 -0.009,0.01176 -0.0235,0.0235 -0.0353,0.03524 -0.0114,0.01528 -0.02,0.04934 -0.0329,0.06578 -0.0153,0.01881 -0.0164,0.047 -0.0329,0.06579 -0.006,0.0082 -0.0282,-0.0094 -0.0353,0 -0.0142,0.01997 -0.0176,0.047 -0.0329,0.06696 -0.0142,0.02115 -0.054,0.047 -0.0669,0.06696 -0.006,0.01409 0.009,0.0235 0,0.03524 -0.0114,0.01881 -0.0235,0.047 -0.0353,0.06814 -0.0114,0.02115 -0.0517,0.047 -0.0646,0.06696 l -0.0353,0.06696 c -0.005,0.01176 0.008,0.0235 0,0.03524 -0.0114,0.01997 -0.02,0.047 -0.0329,0.06696 h -0.0353 c -0.006,0.01176 0.009,0.05052 0,0.06462 -0.009,0.01881 -0.0235,0.01527 -0.0329,0.03524 -0.004,0.0035 0,0.02819 0,0.03172 -0.0114,0.01997 -0.0235,0.047 -0.0353,0.06814 -0.0153,0.0329 -0.0188,0.0705 -0.0353,0.102226 0,0.0035 -0.0317,-0.0024 -0.0317,0 -0.008,0.01881 0.008,0.04935 0,0.06696 h -0.0353 c -0.0142,0.03759 -0.0189,0.06462 -0.0329,0.102226 -0.009,0.0235 -0.0235,0.04464 -0.0329,0.07049 -0.0153,0.03994 -0.0211,0.09399 -0.0353,0.13394 -0.006,0.02115 -0.0258,0.047 -0.0329,0.06696 -0.0235,0.07049 -0.0176,0.129239 -0.0353,0.204433 v 0.0329 c -0.0114,0.05405 -0.0235,0.08224 -0.0329,0.136289 -0.006,0.02703 -0.0282,0.0752 -0.0353,0.10105 -0.006,0.03877 0.008,0.06227 0,0.102226 -0.004,0.02937 -0.0282,0.0705 -0.0329,0.101049 -0.005,0.03524 0.005,0.06696 0,0.101038 -0.004,0.03524 0.003,0.07049 0,0.102226 -0.004,0.02937 -0.0329,0.07049 -0.0329,0.09986 -0.006,0.0752 0,0.159789 0,0.234982 v 6.479616 c 0,0.08224 -0.006,0.152739 0,0.234982 0,0.0235 -0.004,0.047 0,0.06814 0.004,0.07284 0.0235,0.164489 0.0318,0.234984 0.003,0.0141 -0.003,0.0235 0,0.03524 0.0114,0.08224 0.0188,0.156262 0.0353,0.23498 0.003,0.0235 0.0282,0.047 0.0329,0.0705 0.0114,0.06345 0.0189,0.13629 0.0353,0.199735 0.004,0.01997 -0.006,0.01646 0,0.03524 a 4.1121782,4.1121782 0 0 0 0.0669,0.234981 c 0.006,0.01881 0.0282,0.04936 0.0353,0.06814 0.02,0.06227 0.0435,0.108095 0.0669,0.169186 0.008,0.01881 0.0258,0.047 0.0353,0.06696 0.0282,0.07637 0.0318,0.164486 0.0658,0.234981 0.006,0.0141 0.0271,0.0235 0.0353,0.03524 0.0293,0.06227 0.0658,0.105742 0.0999,0.168012 0.005,0.007 -0.005,0.02585 0,0.03524 0.006,0.01176 0.0271,0.01997 0.0353,0.0329 0.0258,0.04935 0.0376,0.08695 0.0658,0.135115 0.009,0.01646 0.0235,0.05405 0.0353,0.06814 0.0388,0.06345 0.094,0.109271 0.13511,0.170362 0.009,0.01176 0.0235,0.02115 0.0329,0.0329 0.0329,0.047 0.0669,0.09164 0.1022,0.135115 0.0153,0.01997 0.0189,0.04934 0.0329,0.06814 0.0353,0.03994 0.0682,0.09399 0.1022,0.135114 0.0153,0.01763 0.0189,0.01763 0.0353,0.03524 0.0446,0.04934 0.0858,0.08695 0.13393,0.133938 l 0.0353,0.03524 c 0.0517,0.05052 0.0787,0.08695 0.13394,0.135114 0.0114,0.01176 0.0517,0.01997 0.0669,0.03172 0.0424,0.03524 0.0587,0.06696 0.1022,0.102227 0.0189,0.01176 0.0505,0.05405 0.0682,0.06696 0.0447,0.03524 0.0869,0.03524 0.13512,0.07049 0.0142,0.007 0.0211,0.0235 0.0353,0.03172 0.0611,0.04112 0.13629,0.09868 0.20208,0.135114 0.0587,0.03524 0.13864,0.07049 0.20208,0.101049 0.0153,0.007 0.0176,-0.007 0.0353,0 0.0517,0.0235 0.11397,0.047 0.16684,0.06814 0.0176,0.0058 0.0505,0.02703 0.0682,0.0329 0.0646,0.02585 0.1022,0.047 0.16802,0.06814 0.006,0 0.0282,-0.0024 0.0353,0 0.074,0.0235 0.15745,0.05052 0.23498,0.06696 l 0.20209,0.03524 c 0.0164,0 0.047,0.02937 0.0658,0.03172 0.0635,0.0082 0.13747,-0.0048 0.20209,0 0.0142,0.0024 0.0176,0 0.0329,0 0.0822,0.0058 0.15274,0.0329 0.23498,0.0329 0.21148,0 0.45234,-0.02703 0.67557,-0.0658 l 2.49786,-0.406517 c -0.006,-0.05405 -0.0282,-0.08224 -0.0353,-0.135115 0,-0.0329 0.005,-0.07049 0,-0.10339 0,-0.0235 0.005,-0.04465 0,-0.06696 0,-0.03524 0.004,-0.06345 0,-0.09986 0,-0.01997 -0.0305,-0.04934 -0.0318,-0.06814 -0.004,-0.03759 0.003,-0.09399 0,-0.135115 v -0.0329 c -0.004,-0.04346 0.003,-0.09164 0,-0.136289 v -0.03524 c -0.009,-0.150389 -0.0271,-0.299601 -0.0353,-0.472314 v -0.07284 c -0.003,-0.06579 0.004,-0.129241 0,-0.202086 v -0.06696 h -2.63179 c -0.0635,0 -0.141,0.007 -0.19974,0 h -0.0353 a 1.5743769,1.5743769 0 0 1 -0.19973,-0.0329 c -0.0622,-0.01176 -0.11396,-0.01645 -0.17154,-0.0329 -0.009,-0.0035 -0.0235,-0.03172 -0.0353,-0.03525 -0.0553,-0.01763 -0.11156,-0.04347 -0.16683,-0.06696 -0.0517,-0.02115 -0.11979,-0.03994 -0.16919,-0.06696 a 2.0090927,2.0090927 0 0 1 -0.16919,-0.101049 c -0.0446,-0.0329 -0.094,-0.06696 -0.13511,-0.101037 l -0.0353,-0.03524 c -0.0435,-0.03524 -0.094,-0.05874 -0.13394,-0.09986 -0.006,-0.0058 0.006,-0.02702 0,-0.03524 -0.0353,-0.03524 -0.0669,-0.05874 -0.10106,-0.09986 -0.005,-0.007 -0.0271,-0.02702 -0.0329,-0.03524 -0.0353,-0.04347 -0.0705,-0.08577 -0.10106,-0.133938 -0.006,-0.0094 0.008,-0.0235 0,-0.0329 -0.0114,-0.01997 -0.0235,-0.047 -0.0353,-0.06814 -0.0114,-0.0235 -0.0517,-0.04347 -0.0658,-0.06696 -0.006,-0.01176 0.006,-0.0235 0,-0.03172 -0.0271,-0.0517 -0.0446,-0.08224 -0.0669,-0.135115 -0.005,-0.01176 -0.0294,-0.0235 -0.0353,-0.03524 -0.0176,-0.04347 -0.0176,-0.119833 -0.0329,-0.166836 -0.004,-0.01176 0.004,-0.01997 0,-0.03524 -0.0176,-0.05522 -0.0553,-0.109271 -0.0669,-0.166838 -0.003,-0.0094 0.003,-0.02585 0,-0.03524 -0.0114,-0.0517 -0.0293,-0.08224 -0.0353,-0.133941 0,-0.01645 0.003,-0.05287 0,-0.07049 -0.005,-0.05874 0,-0.103389 0,-0.166837 v -2.226449 h 5.0286 c 0.28551,0 0.5522,-0.117493 0.74254,-0.305475 a 1.0198202,1.0198202 0 0 0 0.30312,-0.740194 v -3.207497 a 2.8315284,2.8315284 0 0 0 0,-0.199733 v -0.03524 c -0.005,-0.05874 0.006,-0.110448 0,-0.168012 v -0.03524 c -0.004,-0.0329 -0.0293,-0.06696 -0.0353,-0.09987 -0.003,-0.02115 0.005,-0.047 0,-0.06814 0,-0.01881 0.005,-0.04936 0,-0.06696 -0.006,-0.047 -0.0235,-0.09046 -0.0317,-0.135113 0,-0.01997 0.006,-0.01176 0,-0.03524 -0.005,-0.03524 -0.0235,-0.09751 -0.0318,-0.133941 -0.006,-0.01763 -0.0282,-0.047 -0.0353,-0.06462 -0.005,-0.02585 0.006,-0.04228 0,-0.06814 -0.005,-0.01881 -0.0258,-0.047 -0.0317,-0.06696 -0.005,-0.01763 0.005,-0.01881 0,-0.03524 -0.004,-0.007 0,-0.02585 0,-0.0329 -0.0176,-0.05287 -0.0493,-0.117493 -0.0682,-0.169186 -0.006,-0.01176 0.005,-0.02115 0,-0.03524 -0.0176,-0.04465 -0.0493,-0.08812 -0.0669,-0.133939 l -0.0353,-0.06696 c -0.008,-0.0235 -0.0235,-0.04465 -0.0317,-0.06696 -0.0353,-0.07637 -0.0587,-0.164487 -0.10107,-0.234981 -0.006,-0.01176 -0.0271,-0.0235 -0.0353,-0.03524 -0.0329,-0.06578 -0.0611,-0.140989 -0.0998,-0.202084 -0.0114,-0.02115 -0.0189,-0.047 -0.0329,-0.06814 -0.0353,-0.0564 -0.094,-0.113964 -0.13394,-0.168013 -0.009,-0.01176 -0.0258,-0.0235 -0.0353,-0.03524 -0.0493,-0.06696 -0.0799,-0.137464 -0.13394,-0.199734 -0.0153,-0.01997 -0.0517,-0.01881 -0.0669,-0.03524 -0.0505,-0.05874 -0.0822,-0.11514 -0.13629,-0.169188 l -0.0353,-0.03524 c -0.0529,-0.05287 -0.11042,-0.117493 -0.16801,-0.166836 -0.0142,-0.01176 -0.0517,-0.01881 -0.0669,-0.03172 -0.054,-0.047 -0.11169,-0.124538 -0.16919,-0.168012 -0.0114,-0.01176 -0.0235,0.0082 -0.0353,0 -0.0669,-0.05287 -0.13276,-0.123362 -0.20209,-0.170361 -0.0142,-0.01176 -0.0176,-0.0235 -0.0329,-0.03524 -0.0611,-0.03759 -0.141,-0.06462 -0.20444,-0.09986 -0.009,-0.0058 -0.0235,-0.02702 -0.0329,-0.03524 -0.074,-0.03995 -0.15978,-0.06227 -0.23497,-0.09987 -0.009,-0.0024 0.005,-0.03055 0,-0.0329 -0.0114,-0.0048 -0.0235,0.0035 -0.0353,0 -0.0493,-0.0235 -0.11751,-0.047 -0.16919,-0.06815 -0.0142,-0.0082 -0.0176,-0.03055 -0.0329,-0.03524 -0.02,-0.0082 -0.047,0.007 -0.0682,0 -0.0799,-0.03172 -0.15275,-0.07637 -0.23499,-0.102226 -0.0153,-0.0048 -0.02,0.0048 -0.0353,0 -0.0704,-0.02115 -0.16448,-0.05052 -0.23498,-0.06696 -0.0235,-0.0058 -0.0471,0.0048 -0.0682,0 -0.0822,-0.01881 -0.1492,-0.05405 -0.23497,-0.06814 h -0.0353 c -0.0775,-0.01176 -0.15509,-0.02819 -0.23499,-0.03524 -0.0235,-0.0024 -0.0447,0.0024 -0.0682,0 h -0.0353 c -0.0787,-0.0048 -0.15273,0 -0.23499,0 h -0.16917 c -0.0376,0.0035 -0.0964,-0.0024 -0.13395,0 z m -7.31967,0.199734 -0.13629,0.23733 -2.26053,3.778505 -1.08091,1.78821 c -0.0564,0.09868 -0.12573,0.190336 -0.16801,0.270229 -0.006,0.0094 0.006,0.0235 0,0.03524 -0.0153,0.02702 -0.02,0.04112 -0.0329,0.06579 -0.008,0.01176 -0.0282,0.0235 -0.0353,0.03524 -0.006,0.01646 -0.0258,0.047 -0.0329,0.06578 -0.006,0.01176 0.006,0.0235 0,0.03524 -0.009,0.01763 -0.0258,0.047 -0.0329,0.06696 -0.005,0.01176 0.005,0.0235 0,0.03524 -0.006,0.01763 -0.0294,0.01763 -0.0353,0.03524 -0.003,0.01176 0.004,0.0235 0,0.03524 -0.005,0.01176 -0.0293,0.04935 -0.0329,0.06462 -0.003,0.01176 0,0.0235 0,0.03524 -0.004,0.0141 0,0.01646 0,0.0329 v 0.10105 c 0.003,0.01646 -0.003,0.047 0,0.06579 0.005,0.0235 0.0271,0.047 0.0353,0.06814 0.0318,0.102226 0.0893,0.23028 0.16684,0.370096 0.005,0.0058 -0.004,0.02585 0,0.03524 0.0235,0.03524 0.0435,0.05874 0.0682,0.09868 l 3.98295,6.916684 h 2.29106 l -4.11452,-7.319677 -0.0682,-0.169186 -0.0669,-0.101049 3.78086,-6.411473 0.13511,-0.20326 0.0353,-0.06696 h -2.39681 z m 7.62515,1.891603 c 0.0611,0 0.10574,-0.007 0.16801,0 0.0189,0 0.0493,-0.0035 0.0669,0 0.0447,0.0048 0.094,0.0235 0.13511,0.0329 0.0189,0.0035 0.0153,-0.0048 0.0353,0 0.0505,0.01176 0.1151,0.01763 0.16684,0.03524 0.0587,0.01646 0.11396,0.04347 0.16919,0.06578 a 0.7272681,0.7272681 0 0 1 0.0669,0.03524 c 0.0422,0.01646 0.0658,0.047 0.10334,0.06579 0.0164,0.0094 0.0176,-0.0082 0.0353,0 0.0411,0.0235 0.094,0.07402 0.13394,0.101049 0.009,0.0058 0.0271,-0.0048 0.0353,0 0.0471,0.0329 0.0904,0.06461 0.13512,0.10105 0.0114,0.01176 0.02,0.0235 0.0329,0.03524 0.0329,0.02702 0.0705,0.07049 0.10106,0.09987 0.0114,0.01176 0.0235,0.01763 0.0353,0.03172 0.0306,0.0329 0.0705,0.06579 0.0999,0.10105 0.008,0.01176 0.0258,0.0235 0.0353,0.03524 0.0353,0.04347 0.0669,0.08577 0.0999,0.133941 0.009,0.01176 -0.009,0.01997 0,0.0329 0.0235,0.03759 0.0446,0.09752 0.0669,0.135115 0.009,0.01881 0.0235,0.01763 0.0329,0.03524 0.0211,0.03877 0.0493,0.09399 0.0682,0.135113 0.006,0.01528 0.0282,0.01881 0.0329,0.03524 0.004,0.0024 0,0.02819 0,0.03172 0.0114,0.0235 0.0271,0.04347 0.0353,0.06814 0.0114,0.02937 0.0235,0.03759 0.0353,0.06696 0.0114,0.03524 -0.0114,0.09868 0,0.135115 0.006,0.02819 0.0282,0.03994 0.0353,0.06814 0.006,0.04231 0.0258,0.09046 0.0318,0.133938 0.004,0.0235 -0.003,0.04465 0,0.06814 0.006,0.06696 0,0.132765 0,0.202086 v 2.193553 h -4.01815 v -2.190029 c 0,-0.911729 0.59332,-1.697741 1.41459,-1.956222 0.19033,-0.06109 0.39712,-0.07049 0.60743,-0.07049 z m -52.83914,0.737842 c 0.0306,0 0.0729,-0.0035 0.1022,0 h 0.0353 c 0.02,0.0035 0.0447,0.03055 0.0658,0.03524 0.014,0.0024 0.0188,-0.0035 0.0353,0 0.02,0.0048 0.0447,0.02702 0.0658,0.0329 0.0114,0.0035 0.0188,-0.0048 0.0317,0 0.0318,0.01176 0.0705,0.02115 0.10106,0.03524 0.009,0.0024 0.0235,-0.0058 0.0353,0 l 0.0658,0.0329 c 0.0114,0.007 0.0235,0.02703 0.0353,0.0329 0.0164,0.01176 0.047,0.0235 0.0646,0.03524 0.0114,0.0058 0.0235,0.02585 0.0353,0.0329 0.02,0.01528 0.047,0.01763 0.0658,0.03524 0.009,0.0048 -0.006,0.0235 0,0.03172 0.0282,0.0235 0.0787,0.04347 0.10334,0.0705 l 0.0658,0.06462 c 0.008,0.0094 -0.008,0.0235 0,0.03524 0.0153,0.01881 0.0529,0.047 0.0669,0.06579 0.0188,0.02819 0.054,0.07402 0.0704,0.10339 0.0164,0.03055 0.0188,0.06578 0.0353,0.09987 0,0.007 0.0293,0.0235 0.0317,0.0329 0.008,0.01881 -0.006,0.01763 0,0.03524 0.004,0.0082 -0.003,0.0235 0,0.03524 0.004,0.01176 0.0293,0.0235 0.0353,0.03524 0.006,0.0235 -0.008,0.04112 0,0.06579 0.003,0.0141 0.0306,0.05405 0.0329,0.06696 0.005,0.02702 -0.004,0.04112 0,0.06814 v 0.03524 c 0.004,0.03877 0,0.05874 0,0.10105 v 1.517982 h -2.429709 v -1.487435 c 0,-0.677921 0.569829,-1.247752 1.248919,-1.247752 z m 21.69585,4.185022 h 1.99029 v 3.508275 c 0,0.234981 -0.0306,0.466438 -0.10106,0.675572 a 1.9961688,1.9961688 0 0 1 -1.68717,1.351145 c -0.0682,0.0058 -0.13158,0.03172 -0.20209,0.03172 -0.0622,0 -0.14098,-0.02819 -0.20207,-0.0329 h -0.0353 c -0.0587,-0.007 -0.10928,0.01176 -0.16801,0 -0.003,0 -0.0271,-0.03524 -0.0306,-0.03524 -0.0553,-0.01176 -0.11751,-0.01646 -0.16919,-0.0329 -0.0114,-0.0035 -0.0235,0.0035 -0.0353,0 -0.0553,-0.01763 -0.1151,-0.04465 -0.16801,-0.06696 a 1.4745098,1.4745098 0 0 1 -0.13512,-0.07049 c -0.0114,-0.0048 -0.0235,-0.02585 -0.0353,-0.0329 -0.0471,-0.02819 -0.11979,-0.03524 -0.16684,-0.06814 -0.009,-0.0058 0.006,-0.02702 0,-0.03524 a 1.6025746,1.6025746 0 0 1 -0.13511,-0.09986 c -0.009,-0.0082 -0.0258,0.0082 -0.0353,0 -0.0422,-0.03524 -0.0587,-0.09399 -0.0998,-0.135113 -0.009,-0.0058 -0.0258,0.0082 -0.0353,0 -0.0329,-0.03524 -0.0682,-0.09633 -0.0999,-0.135115 a 0.46643851,0.46643851 0 0 0 -0.0353,-0.0329 c -0.0353,-0.047 -0.0682,-0.09046 -0.0999,-0.136289 -0.006,-0.01176 0.006,-0.0235 0,-0.03525 -0.0114,-0.01645 -0.0235,-0.0141 -0.0353,-0.0329 -0.0114,-0.0235 -0.02,-0.047 -0.0317,-0.06814 -0.008,-0.01176 -0.0282,-0.02115 -0.0353,-0.03524 -0.0258,-0.04934 -0.0435,-0.113964 -0.0669,-0.166836 -0.005,-0.01176 -0.0282,-0.0235 -0.0329,-0.03524 -0.0176,-0.04347 -0.02,-0.08812 -0.0353,-0.133941 -0.004,-0.01528 -0.0271,-0.01881 -0.0329,-0.03524 -0.0153,-0.05405 -0.0211,-0.109271 -0.0329,-0.166836 -0.003,-0.01176 0.003,-0.0235 0,-0.03524 -0.009,-0.047 -0.0282,-0.08224 -0.0353,-0.133939 0,-0.01881 0.004,-0.04936 0,-0.06696 -0.004,-0.05874 0,-0.112787 0,-0.170361 v -1.519156 c 0,-0.560431 0.21148,-1.087965 0.5757,-1.451011 a 2.0502146,2.0502146 0 0 1 1.44984,-0.573355 z"
     overflow="visible"
     id="path832" />
</svg>
