<?xml version="1.0" encoding="UTF-8" standalone="no"?>
<svg
   xmlns:dc="http://purl.org/dc/elements/1.1/"
   xmlns:cc="http://creativecommons.org/ns#"
   xmlns:rdf="http://www.w3.org/1999/02/22-rdf-syntax-ns#"
   xmlns:svg="http://www.w3.org/2000/svg"
   xmlns="http://www.w3.org/2000/svg"
   id="svg8"
   version="1.1"
   viewBox="0 0 123.19886 41.6"
   height="52"
   width="154">
  <metadata
     id="metadata14">
    <rdf:RDF>
      <cc:Work
         rdf:about="">
        <dc:format>image/svg+xml</dc:format>
        <dc:type
           rdf:resource="http://purl.org/dc/dcmitype/StillImage" />
        <dc:title></dc:title>
      </cc:Work>
    </rdf:RDF>
  </metadata>
  <defs
     id="defs12" />
  <path
     style="fill:#555761;stroke-width:0.99999851"
     d="m 51.000602,9.9998587 -0.01,10.7599833 c -0.004,5.916991 0,10.777984 0.008,10.801984 0.014,0.035 0.284,0.043 1.255,0.036 l 1.24,-0.01 V 9.9998587 h -2.492 z m 52.553928,2.0579973 c -0.248,0 -0.38,0.016 -0.612,0.064 -0.877,0.18 -1.532,0.539999 -2.14999,1.181998 a 3.5899946,3.5899946 0 0 0 -0.72,1.039999 3.6539945,3.6539945 0 0 0 -0.347998,1.092998 c -0.072,0.417999 -0.08,4.673992 -0.01,4.701992 0.086,0.034 3.944988,0.022 4.326988,-0.014 0.526,-0.05 0.98,-0.174999 1.438,-0.397998 a 3.9699941,3.9699941 0 0 0 1.21,-0.889999 c 0.47,-0.506999 0.763,-1.054999 0.973,-1.817997 0.09,-0.318 0.098,-0.404 0.097,-0.929999 0,-0.515999 -0.01,-0.615999 -0.095,-0.921999 -0.356,-1.305998 -1.086,-2.196996 -2.25,-2.749996 -0.516,-0.242999 -0.915,-0.333999 -1.566,-0.354999 a 11.659983,11.659983 0 0 0 -0.294,-0.005 z m -34.879948,0 c -0.023,0 -0.045,0.002 -0.067,0.003 -0.346,0.02 -0.62,0.107 -0.866,0.277 -0.948,0.649999 -1.042,1.931997 -0.2,2.699996 0.227,0.209999 0.457,0.333999 0.738,0.401999 a 1.7229974,1.7229974 0 0 0 2.05,-1.185998 c 0.06,-0.198 0.07,-0.304 0.057,-0.585999 -0.015,-0.304 -0.032,-0.375 -0.144,-0.612 -0.3,-0.632999 -0.893,-1.007998 -1.57,-0.996998 z m 7.65499,0.003 c -0.27,0.003 -0.514,0.017 -0.664,0.043 -0.90599,0.158 -1.562,0.633999 -1.938,1.405998 -0.29,0.596999 -0.323,0.779999 -0.338,1.983997 -0.007,0.569999 -0.02,1.069998 -0.03,1.112998 -0.016,0.077 -0.03,0.078 -0.604,0.088 l -0.588,0.01 -0.01,1.271998 -0.01,1.272998 h 0.574 c 0.398,0 0.585,0.012 0.614,0.04 0.033,0.034 0.042,1.142998 0.042,4.776992 v 4.732993 l 1.34301,-0.01 1.34199,-0.01 0.008,-4.735993 c 0.007,-3.736994 0.018,-4.743992 0.053,-4.765992 0.024,-0.015 0.458,-0.028 0.965,-0.028 h 0.923 l -0.01,-1.272998 -0.008,-1.271998 -0.948,-0.018 -0.947,-0.017 V 15.94985 c 0,-0.799999 0.024,-0.943998 0.2,-1.142998 0.214,-0.245 0.328,-0.28 0.94,-0.28 0.467,0 0.58,0.013 0.796,0.08 0.138,0.044 0.268,0.08 0.29,0.08 0.058,0 0.053,-2.261996 -0.006,-2.309996 -0.066,-0.05 -0.47,-0.177 -0.765,-0.238 -0.26,-0.054 -0.777,-0.082 -1.225,-0.08 z m 18.34397,0.016 c -0.42999,0.002 -0.52999,0.018 -0.80499,0.093 -0.39,0.104 -0.96,0.363999 -1.287,0.585999 -0.12,0.082 -0.338,0.26 -0.484,0.399999 a 4.042994,4.042994 0 0 0 -1.062,4.199994 4.0529939,4.0529939 0 0 0 3.47599,2.769995 c 0.165,0.014 1.21,0.03 2.322,0.032 1.712,0.004 2.03,-0.004 2.064,-0.046 0.032,-0.038 0.038,-0.609998 0.028,-2.325995 -0.013,-2.159997 -0.018,-2.289997 -0.087,-2.572997 -0.37,-1.509997 -1.467,-2.645996 -2.945,-3.043995 -0.317,-0.087 -0.402,-0.094 -1.013,-0.094 h -0.206 z m -67.489899,0.572999 -1.414,0.01 -1.412,0.008 -0.13,0.385999 c -0.19999,0.595 -2.17699,6.77199 -2.42999,7.591988 -0.122,0.4 -0.266,0.897999 -0.32,1.105999 -0.056,0.219999 -0.114,0.372999 -0.136,0.364999 -0.02,-0.007 -0.058,-0.09 -0.083,-0.185 -0.188,-0.706999 -0.41,-1.429998 -1.02,-3.331994 a 2318.0665,2318.0665 0 0 1 -1.288,-4.019994 c -0.324001,-1.012998 -0.605001,-1.861997 -0.623001,-1.885997 -0.026,-0.034 -0.363,-0.044 -1.46999,-0.044 h -1.435 V 28.81583 l 1.255,-0.01 c 0.69,-0.004 1.27499,-0.016 1.29999,-0.024 0.05,-0.02 0.054,-3.073995 0.01,-7.337989 -0.013,-1.351998 -0.013,-2.479995 0,-2.505995 0.034,-0.07 0.043,-0.048 0.26,0.697999 0.258,0.879997 0.972001,3.199994 1.243001,4.036993 a 561.17516,561.17516 0 0 0 1.654,5.047992 c 0.03,0.068 0.058,0.08 0.16,0.07 l 0.127,-0.01 0.63,-1.929997 c 1.413,-4.319994 1.78,-5.483992 2.24799,-7.101989 0.12,-0.409999 0.234,-0.771998 0.256,-0.801998 0.03,-0.04 0.04,1.165997 0.038,4.889991 l -0.001,4.942993 h 2.598 l 0.01,-7.985988 c 0.004,-4.391993 0,-8.019987 -0.01,-8.064987 l -0.02,-0.08 z m 30.789949,0.006 c -0.55299,0 -0.72999,0.012 -0.74699,0.038 -0.034,0.053 -0.04,16.046975 -0.007,16.079975 0.013,0.014 1.79799,0.024 3.96699,0.024 h 3.94399 v -2.771996 h -2.48799 c -2.047,0 -2.496,-0.008 -2.53,-0.047 -0.027,-0.035 -0.04,-1.847997 -0.047,-6.679989 l -0.01,-6.62999 -1.4,-0.01 -0.684,-0.002 z m -13.81897,3.783994 c -1.212,0 -2.316,0.494 -3.087,1.405998 -0.878,1.039999 -1.354,2.454996 -1.457,4.334993 -0.138,2.499996 0.496,4.637993 1.716,5.789991 0.69,0.647999 1.465,0.981999 2.528,1.085999 0.068,0.006 0.174,0.014 0.238,0.017 0.19599,0.01 0.77299,-0.066 1.05499,-0.138 0.34,-0.087 0.903,-0.363 1.205,-0.591999 0.52,-0.395 1.03,-1.046999 1.398,-1.786998 l 0.183,-0.365999 -0.083,-0.076 c -0.116,-0.11 -1.844,-1.352998 -1.88,-1.352998 -0.016,0 -0.128,0.195 -0.248,0.431999 -0.338,0.669999 -0.692,1.053999 -1.13,1.221999 -0.296,0.112999 -0.71999,0.086 -1.02999,-0.067 -0.57,-0.28 -0.96,-1.035999 -1.13,-2.183997 -0.078,-0.522999 -0.107,-1.739997 -0.056,-2.354997 0.126,-1.512997 0.508,-2.373995 1.193,-2.692995 0.166,-0.078 0.245,-0.092 0.512,-0.092 0.26999,0 0.34599,0.013 0.52399,0.096 0.416,0.193 0.69,0.5 1.01,1.129998 0.123,0.242999 0.202,0.362999 0.232,0.349999 0.103,-0.037 2.084,-1.394997 2.1,-1.437997 0.01,-0.025 -0.062,-0.207999 -0.16,-0.405999 -0.666,-1.329998 -1.622,-2.063997 -2.95,-2.263997 a 4.8639927,4.8639927 0 0 0 -0.68499,-0.052 z m -10.612989,0.007 a 6.019991,6.019991 0 0 0 -2.67999,0.642999 c -0.357,0.178 -0.872,0.488 -0.872,0.526 0,0.03 1.02399,1.859997 1.06599,1.904997 0.03,0.033 0.106,0.004 0.33,-0.126 0.39,-0.228 0.763,-0.369999 1.204,-0.459999 0.304,-0.064 0.46,-0.075 0.91,-0.065 0.536,0.01 0.55,0.013 0.78,0.126 0.343,0.169999 0.567,0.459999 0.66,0.857998 0.04,0.179999 0.047,1.396997 0.006,1.396997 -0.015,0 -0.135,-0.053 -0.266,-0.12 -0.33,-0.164999 -0.7,-0.257999 -1.215,-0.302999 -1.728,-0.15 -3.07699,0.545999 -3.77599,1.949997 -0.354,0.712999 -0.505,1.591998 -0.434,2.523996 0.042,0.553999 0.104,0.869999 0.268,1.364998 0.444,1.344998 1.49299,2.216997 2.85499,2.373997 0.362,0.04 0.436,0.04 0.732,0.003 0.56,-0.073 1.16,-0.363 1.602,-0.776999 0.12,-0.113 0.228,-0.205 0.24,-0.205 0.01,0 0.025,0.163 0.03,0.36 l 0.01,0.359999 h 2.70199 l 0.01,-4.123994 c 0.008,-2.629996 -0.002,-4.313993 -0.025,-4.646993 -0.083,-1.173997 -0.35999,-1.939996 -0.90999,-2.522995 -0.634,-0.673999 -1.483,-0.989999 -2.796,-1.035999 -0.146,-0.004 -0.29,-0.005 -0.43,-0.003 z m 50.133929,0 c -1.06,0 -1.96,0.352 -2.70599,1.059999 -0.89,0.845999 -1.465,2.179997 -1.68,3.901993 -0.075,0.599999 -0.085,1.949997 -0.02,2.543996 0.342,3.029996 1.81,4.853993 4.09499,5.085993 0.375,0.038 0.942,0.016 1.34,-0.052 a 4.2059937,4.2059937 0 0 0 2.34,-1.241998 c 0.267,-0.277 0.655,-0.779999 0.655,-0.849999 0,-0.03 -1.792,-1.387998 -1.872,-1.419998 -0.025,-0.008 -0.147,0.107 -0.278,0.262 a 2.1159968,2.1159968 0 0 1 -0.86,0.639999 c -0.282,0.109999 -0.96,0.136999 -1.258,0.052 a 1.5069977,1.5069977 0 0 1 -0.753,-0.466 c -0.252,-0.269999 -0.46,-0.675999 -0.575,-1.136998 -0.09,-0.357 -0.175,-0.961999 -0.142,-1.015999 0.013,-0.02 1.18,-0.032 3.054,-0.032 h 3.03399 l 0.027,-0.096 c 0.052,-0.19 0.025,-1.792998 -0.038,-2.269997 -0.222,-1.683996 -0.74699,-2.939995 -1.59399,-3.817993 -0.7,-0.726999 -1.53,-1.096999 -2.556,-1.142999 l -0.213,-0.003 z m -16.31798,0.258 -0.01,6.04599 -0.008,6.049991 1.343,-0.01 1.344,-0.01 V 16.704849 h -2.668 z m 16.30198,2.166997 c 0.182,0 0.367,0.033 0.548,0.1 0.428,0.16 0.81,0.681999 0.996,1.365997 0.092,0.337999 0.18,0.842998 0.18,1.039998 v 0.154 h -1.7 c -0.946,0 -1.71,-0.014 -1.72,-0.03 -0.025,-0.04 0.035,-0.533999 0.107,-0.882999 0.105,-0.519999 0.318,-1.011997 0.558,-1.291997 0.252,-0.294999 0.63,-0.454999 1.03,-0.455999 z m 14.13298,1.995996 c -0.3,0 -0.685,0.003 -1.173,0.006 -2.093,0.014 -2.24999,0.02 -2.54699,0.087 -0.876,0.199999 -1.518,0.559999 -2.12,1.184998 a 4.037994,4.037994 0 0 0 0.504,6.029991 c 0.484,0.359999 1.102,0.633999 1.69,0.744999 0.196,0.036 0.44199,0.048 0.83799,0.04 0.69,-0.016 1.067,-0.104 1.646,-0.384 0.986,-0.475999 1.74,-1.316998 2.075,-2.319996 0.208,-0.617999 0.203,-0.552999 0.22,-3.014996 0.01,-1.779997 0.003,-2.286996 -0.03,-2.327996 -0.03,-0.035 -0.197,-0.046 -1.102,-0.044 z m 5.104988,0.003 -1.073,0.003 -2.135988,0.01 v 4.735993 l 0.098,0.351999 c 0.449998,1.619998 1.809988,2.802996 3.447988,2.997996 a 4.0859939,4.0859939 0 0 0 4.124,-2.233997 4.1129939,4.1129939 0 0 0 0.132,-3.311995 4.0569939,4.0569939 0 0 0 -3.19,-2.509996 c -0.206,-0.03 -0.53,-0.042 -1.403,-0.043 z m -69.469897,2.239997 c 0.55,0 1.06,0.165999 1.42,0.461999 l 0.128,0.106 v 1.985997 l -0.1,0.137 c -0.15,0.204999 -0.53,0.545999 -0.73,0.653999 -0.097,0.052 -0.27,0.119999 -0.382,0.149999 -0.51,0.132 -1.044,-0.008 -1.35,-0.356999 -0.46,-0.522999 -0.56,-1.704998 -0.21,-2.421997 0.136,-0.273999 0.42,-0.541999 0.685,-0.639999 0.148,-0.057 0.277,-0.074 0.54,-0.074 z"
     id="path843" />
</svg>
