<?xml version="1.0" encoding="UTF-8" standalone="no"?>
<svg
   width="154"
   height="52"
   viewBox="0 0 154 52"
   fill="none"
   version="1.1"
   id="svg8"
   sodipodi:docname="omgubuntu.svg"
   inkscape:version="1.1.2 (0a00cf5339, 2022-02-04)"
   xmlns:inkscape="http://www.inkscape.org/namespaces/inkscape"
   xmlns:sodipodi="http://sodipodi.sourceforge.net/DTD/sodipodi-0.dtd"
   xmlns="http://www.w3.org/2000/svg"
   xmlns:svg="http://www.w3.org/2000/svg">
  <defs
     id="defs12" />
  <sodipodi:namedview
     id="namedview10"
     pagecolor="#ffffff"
     bordercolor="#666666"
     borderopacity="1.0"
     inkscape:pageshadow="2"
     inkscape:pageopacity="0.0"
     inkscape:pagecheckerboard="0"
     showgrid="false"
     inkscape:zoom="3.3772645"
     inkscape:cx="141.23857"
     inkscape:cy="3.7012203"
     inkscape:window-width="2560"
     inkscape:window-height="1379"
     inkscape:window-x="0"
     inkscape:window-y="30"
     inkscape:window-maximized="1"
     inkscape:current-layer="svg8"
     width="154px"
     showguides="true"
     inkscape:guide-bbox="true">
    <sodipodi:guide
       position="0,26"
       orientation="0,1"
       id="guide884"
       inkscape:label=""
       inkscape:locked="false"
       inkscape:color="rgb(0,0,255)" />
  </sodipodi:namedview>
  <g
     id="g17"
     style="fill:#555761;fill-opacity:1"
     transform="matrix(0.55718974,0,0,0.55718974,-3.3469e-7,9.0996718)">
    <path
       d="M 146.016,19.328 V 43 h -6.512 v -2.816 c -0.909,1.0267 -1.995,1.8187 -3.256,2.376 -1.261,0.528 -2.625,0.792 -4.092,0.792 -3.109,0 -5.573,-0.8947 -7.392,-2.684 -1.819,-1.7893 -2.728,-4.444 -2.728,-7.964 V 19.328 h 6.864 v 12.364 c 0,3.8133 1.599,5.72 4.796,5.72 1.643,0 2.963,-0.528 3.96,-1.584 0.997,-1.0853 1.496,-2.684 1.496,-4.796 V 19.328 Z m 16.391,-0.352 c 2.2,0 4.195,0.5133 5.984,1.54 1.819,0.9973 3.241,2.42 4.268,4.268 1.027,1.8187 1.54,3.9453 1.54,6.38 0,2.4347 -0.513,4.576 -1.54,6.424 -1.027,1.8187 -2.449,3.2413 -4.268,4.268 -1.789,0.9973 -3.784,1.496 -5.984,1.496 -3.256,0 -5.735,-1.0267 -7.436,-3.08 V 43 h -6.556 V 10.352 h 6.864 v 11.484 c 1.731,-1.9067 4.107,-2.86 7.128,-2.86 z m -1.188,18.744 c 1.76,0 3.197,-0.5867 4.312,-1.76 1.144,-1.2027 1.716,-2.8013 1.716,-4.796 0,-1.9947 -0.572,-3.5787 -1.716,-4.752 -1.115,-1.2027 -2.552,-1.804 -4.312,-1.804 -1.76,0 -3.212,0.6013 -4.356,1.804 -1.115,1.1733 -1.672,2.7573 -1.672,4.752 0,1.9947 0.557,3.5933 1.672,4.796 1.144,1.1733 2.596,1.76 4.356,1.76 z M 198.682,19.328 V 43 h -6.512 v -2.816 c -0.909,1.0267 -1.995,1.8187 -3.256,2.376 -1.261,0.528 -2.625,0.792 -4.092,0.792 -3.109,0 -5.573,-0.8947 -7.392,-2.684 -1.819,-1.7893 -2.728,-4.444 -2.728,-7.964 V 19.328 h 6.864 v 12.364 c 0,3.8133 1.599,5.72 4.796,5.72 1.643,0 2.963,-0.528 3.96,-1.584 0.997,-1.0853 1.496,-2.684 1.496,-4.796 V 19.328 Z m 16.787,-0.352 c 2.933,0 5.295,0.88 7.084,2.64 1.819,1.76 2.728,4.3707 2.728,7.832 V 43 h -6.864 V 30.504 c 0,-1.8773 -0.411,-3.2707 -1.232,-4.18 -0.821,-0.9387 -2.009,-1.408 -3.564,-1.408 -1.731,0 -3.109,0.5427 -4.136,1.628 -1.027,1.056 -1.54,2.64 -1.54,4.752 V 43 h -6.864 V 19.328 h 6.556 V 22.1 c 0.909,-0.9973 2.039,-1.76 3.388,-2.288 1.349,-0.5573 2.831,-0.836 4.444,-0.836 z m 27.342,22.88 c -0.675,0.4987 -1.511,0.88 -2.508,1.144 -0.968,0.2347 -1.995,0.352 -3.08,0.352 -2.816,0 -5.001,-0.7187 -6.556,-2.156 -1.525,-1.4373 -2.288,-3.5493 -2.288,-6.336 v -9.724 h -3.652 v -5.28 h 3.652 v -5.764 h 6.864 v 5.764 h 5.896 v 5.28 h -5.896 v 9.636 c 0,0.9973 0.249,1.7747 0.748,2.332 0.528,0.528 1.261,0.792 2.2,0.792 1.085,0 2.009,-0.2933 2.772,-0.88 z M 266.552,19.328 V 43 h -6.512 v -2.816 c -0.909,1.0267 -1.995,1.8187 -3.256,2.376 -1.261,0.528 -2.625,0.792 -4.092,0.792 -3.109,0 -5.573,-0.8947 -7.392,-2.684 -1.819,-1.7893 -2.728,-4.444 -2.728,-7.964 V 19.328 h 6.864 v 12.364 c 0,3.8133 1.599,5.72 4.796,5.72 1.643,0 2.963,-0.528 3.96,-1.584 0.997,-1.0853 1.496,-2.684 1.496,-4.796 V 19.328 Z m 1.519,-7.128 h 8.184 l -1.364,20.108 h -5.456 z m 4.092,31.152 c -1.203,0 -2.215,-0.3813 -3.036,-1.144 -0.792,-0.792 -1.188,-1.7453 -1.188,-2.86 0,-1.1147 0.396,-2.0387 1.188,-2.772 0.792,-0.7627 1.804,-1.144 3.036,-1.144 1.232,0 2.244,0.3813 3.036,1.144 0.792,0.7333 1.188,1.6573 1.188,2.772 0,1.1147 -0.411,2.068 -1.232,2.86 -0.792,0.7627 -1.789,1.144 -2.992,1.144 z"
       fill="white"
       id="path2"
       style="fill:#555761;fill-opacity:1" />
    <path
       fill-rule="evenodd"
       clip-rule="evenodd"
       d="M 5,7 C 2.23858,7 0,9.23858 0,12 v 40 c 0,2.7614 2.23858,5 5,5 h 105 c 2.761,0 5,-2.2386 5,-5 V 12 c 0,-2.76142 -2.239,-5 -5,-5 z m 103.231,5 h -8.184 l 1.364,20.108 h 5.456 z m -7.128,30.008 c 0.821,0.7627 1.833,1.144 3.036,1.144 1.203,0 2.2,-0.3813 2.992,-1.144 0.821,-0.792 1.232,-1.7453 1.232,-2.86 0,-1.1147 -0.396,-2.0387 -1.188,-2.772 -0.792,-0.7627 -1.804,-1.144 -3.036,-1.144 -1.232,0 -2.244,0.3813 -3.036,1.144 -0.792,0.7333 -1.1881,1.6573 -1.1881,2.772 0,1.1147 0.3961,2.068 1.1881,2.86 z M 11.292,41.612 c 1.9947,1.0267 4.2387,1.54 6.732,1.54 2.4933,0 4.7227,-0.5133 6.688,-1.54 1.9653,-1.056 3.5053,-2.508 4.62,-4.356 1.1147,-1.848 1.672,-3.9453 1.672,-6.292 0,-2.3467 -0.5573,-4.444 -1.672,-6.292 -1.1147,-1.848 -2.6547,-3.2853 -4.62,-4.312 -1.9653,-1.056 -4.1947,-1.584 -6.688,-1.584 -2.4933,0 -4.7373,0.528 -6.732,1.584 -1.96533,1.0267 -3.50533,2.464 -4.62,4.312 C 5.55733,26.52 5,28.6173 5,30.964 c 0,2.3467 0.55733,4.444 1.672,6.292 1.11467,1.848 2.65467,3.3 4.62,4.356 z M 22.336,35.76 c -1.1147,1.1733 -2.552,1.76 -4.312,1.76 -1.76,0 -3.212,-0.5867 -4.356,-1.76 -1.144,-1.2027 -1.716,-2.8013 -1.716,-4.796 0,-1.9947 0.572,-3.5787 1.716,-4.752 1.144,-1.2027 2.596,-1.804 4.356,-1.804 1.76,0 3.1973,0.6013 4.312,1.804 1.144,1.1733 1.716,2.7573 1.716,4.752 0,1.9947 -0.572,3.5933 -1.716,4.796 z M 68.988,21.416 c -1.7306,-1.76 -4.0773,-2.64 -7.04,-2.64 -1.76,0 -3.388,0.3373 -4.884,1.012 -1.4666,0.6747 -2.684,1.628 -3.652,2.86 -0.8213,-1.2613 -1.9066,-2.2147 -3.256,-2.86 -1.3493,-0.6747 -2.86,-1.012 -4.532,-1.012 -1.5253,0 -2.9333,0.264 -4.224,0.792 -1.2613,0.528 -2.332,1.2907 -3.212,2.288 V 19.128 H 31.632 V 42.8 h 6.864 V 30.92 c 0,-2.0533 0.4694,-3.5933 1.408,-4.62 0.9387,-1.056 2.2,-1.584 3.784,-1.584 2.992,0 4.488,1.8627 4.488,5.588 V 42.8 H 55.04 V 30.92 c 0,-2.0533 0.4694,-3.5933 1.408,-4.62 0.9387,-1.056 2.2147,-1.584 3.828,-1.584 1.4374,0 2.5374,0.4693 3.3,1.408 0.792,0.9093 1.188,2.3027 1.188,4.18 V 42.8 h 6.864 V 29.248 c 0,-3.4907 -0.88,-6.1013 -2.64,-7.832 z M 98.4983,19.128 V 38.84 c 0,4.3413 -1.1294,7.568 -3.388,9.68 -2.2587,2.112 -5.5587,3.168 -9.9,3.168 -2.288,0 -4.4587,-0.2787 -6.512,-0.836 -2.0533,-0.5573 -3.7547,-1.364 -5.104,-2.42 l 2.728,-4.928 c 0.9973,0.8213 2.2586,1.4667 3.784,1.936 1.5253,0.4987 3.0506,0.748 4.576,0.748 2.376,0 4.1213,-0.5427 5.236,-1.628 1.144,-1.056 1.716,-2.6693 1.716,-4.84 v -1.012 c -1.7893,1.9653 -4.2827,2.948 -7.48,2.948 -2.1707,0 -4.1654,-0.4693 -5.984,-1.408 -1.7894,-0.968 -3.212,-2.3173 -4.268,-4.048 -1.056,-1.7307 -1.584,-3.7253 -1.584,-5.984 0,-2.2587 0.528,-4.2533 1.584,-5.984 1.056,-1.7307 2.4786,-3.0653 4.268,-4.004 1.8186,-0.968 3.8133,-1.452 5.984,-1.452 3.432,0 6.0426,1.1293 7.832,3.388 v -3.036 z m -12.98,16.896 c 1.8186,0 3.3,-0.528 4.444,-1.584 1.1733,-1.0853 1.76,-2.4933 1.76,-4.224 0,-1.7307 -0.5867,-3.124 -1.76,-4.18 -1.144,-1.0853 -2.6254,-1.628 -4.444,-1.628 -1.8187,0 -3.3147,0.5427 -4.488,1.628 -1.1734,1.056 -1.76,2.4493 -1.76,4.18 0,1.7307 0.5866,3.1387 1.76,4.224 1.1733,1.056 2.6693,1.584 4.488,1.584 z"
       fill="white"
       id="path4"
       style="fill:#555761;fill-opacity:1" />
    <path
       d="M 37.7273,44 17.5,54.5 33.7273,67 Z"
       fill="white"
       id="path6"
       style="fill:#555761;fill-opacity:1" />
  </g>
</svg>
