<svg xmlns="http://www.w3.org/2000/svg" xmlns:xlink="http://www.w3.org/1999/xlink" width="64" height="64"><defs><linearGradient x1="20" y1="26" x2="20" y2="13" id="l" xlink:href="#a" gradientUnits="userSpaceOnUse" gradientTransform="translate(-.4 -.232) scale(1.32688)"/><linearGradient id="a"><stop offset="0" stop-color="#dcdcdc"/><stop offset="1" stop-color="#fff"/></linearGradient><linearGradient x1="24" y1="5" x2="24" y2="43" id="k" xlink:href="#b" gradientUnits="userSpaceOnUse" gradientTransform="matrix(1.43243 0 0 1.43628 -2.378 -2.47)"/><linearGradient id="b"><stop offset="0" stop-color="#fff"/><stop offset=".063" stop-color="#fff" stop-opacity=".235"/><stop offset=".951" stop-color="#fff" stop-opacity=".157"/><stop offset="1" stop-color="#fff" stop-opacity=".392"/></linearGradient><radialGradient cx="7.118" cy="9.957" r="12.672" fx="7.118" fy="9.957" id="j" xlink:href="#c" gradientUnits="userSpaceOnUse" gradientTransform="scale(15.82491 12.89009) rotate(90 10.414 1.64)"/><linearGradient id="c"><stop offset="0" stop-color="#505050"/><stop offset=".262" stop-color="#2b2b2b"/><stop offset=".705" stop-color="#0a0a0a"/><stop offset="1"/></linearGradient><radialGradient cx="4.993" cy="43.5" r="2.5" fx="4.993" fy="43.5" id="g" xlink:href="#d" gradientUnits="userSpaceOnUse" gradientTransform="matrix(2.00378 0 0 1.4 27.988 -17.4)"/><linearGradient id="d"><stop offset="0" stop-color="#181818"/><stop offset="1" stop-color="#181818" stop-opacity="0"/></linearGradient><radialGradient cx="4.993" cy="43.5" r="2.5" fx="4.993" fy="43.5" id="h" xlink:href="#e" gradientUnits="userSpaceOnUse" gradientTransform="matrix(2.00378 0 0 1.4 -20.012 -104.4)"/><linearGradient id="e"><stop offset="0" stop-color="#181818"/><stop offset="1" stop-color="#181818" stop-opacity="0"/></linearGradient><linearGradient id="f"><stop offset="0" stop-color="#181818" stop-opacity="0"/><stop offset=".5" stop-color="#181818"/><stop offset="1" stop-color="#181818" stop-opacity="0"/></linearGradient><linearGradient x1="25.058" y1="47.028" x2="25.058" y2="39.999" id="i" xlink:href="#f" gradientUnits="userSpaceOnUse"/></defs><g opacity=".6"><path fill="url(#g)" d="M38 40h5v7h-5z" transform="matrix(1.57895 0 0 .71429 -5.895 27.929)"/><path transform="matrix(-1.57895 0 0 -.71429 -5.895 27.929)" fill="url(#h)" d="M-10-47h5v7h-5z"/><path fill="url(#i)" d="M10 40h28v7H10z" transform="matrix(1.57895 0 0 .71429 -5.895 27.929)"/></g><rect width="55" height="55" rx="3" ry="3" x="4.5" y="4.5" style="marker:none" opacity=".9" color="#000" fill="url(#j)" overflow="visible"/><rect width="53" height="53.142" rx="2" ry="2" x="5.5" y="5.429" opacity=".3" fill="none" stroke="url(#k)" stroke-linecap="round" stroke-linejoin="round"/><rect width="55" height="55" rx="3" ry="3" x="4.5" y="4.5" style="marker:none" opacity=".7" color="#000" fill="none" stroke="#000" stroke-linecap="round" stroke-linejoin="round" overflow="visible"/><path d="M17 16.063a.926.926 0 0 0-.938.937v.313c-.92.174-1.828.471-2.625 1.125-.007.006-.023-.007-.03 0v.03c-1.632 1.296-1.752 3.664-.563 5.22a.926.926 0 0 0 .031.03c.893 1.084 2.09 1.577 3.188 2v1.032c-.915-.168-1.824-.329-2.688-.719a.926.926 0 0 0-1.313.844v2.375a.926.926 0 0 0 .563.844c1.103.468 2.272.614 3.438.718V32a.926.926 0 0 0 .937.938h1a.926.926 0 0 0 .938-.938v-1.281c.705-.095 1.425-.165 2.125-.532v.032c.013-.007.017-.025.03-.032 1.32-.665 2.268-2.01 2.22-3.53v-.032c-.002-.743-.263-1.439-.688-2.031a.926.926 0 0 0 0-.032c-.985-1.313-2.485-1.807-3.688-2.25v-.906c.695.121 1.414.217 1.97.438a.926.926 0 0 0 1.187-.532l.875-2.125A.926.926 0 0 0 22.5 18c-1.118-.479-2.375-.705-3.563-.813V17a.926.926 0 0 0-.937-.938h-1zm9 16a.926.926 0 0 0-.938.937v3a.926.926 0 0 0 .938.938h11a.926.926 0 0 0 .938-.938v-3a.926.926 0 0 0-.938-.938H26z" style="line-height:125%;marker:none;-inkscape-font-specification:Open Sans Bold" font-size="14.312" font-weight="700" letter-spacing="0" word-spacing="0" opacity=".15" color="#000" overflow="visible" font-family="Open Sans"/><path d="M17 17v1.063c-1.089.104-2.154.391-3 1.093-1.214.939-1.298 2.801-.406 3.969.862 1.046 2.154 1.527 3.406 2v2.813c-1.396-.115-2.732-.49-4-1.063v2.375c1.27.539 2.62.786 4 .813V32h1v-2c.845-.076 1.908-.226 2.656-.625 1.04-.51 1.765-1.59 1.719-2.719a2.598 2.598 0 0 0-.5-1.531c-.867-1.157-2.566-1.66-3.875-2.188V20.25c1.038.084 2.287.337 3.25.719l.875-2.125c-1.23-.527-2.785-.758-4.125-.813V17h-1zm0 3.281v2.157c-.528-.233-1.274-.524-1.25-1.188-.025-.626.715-.909 1.25-.969zm1 5.344c.524.256 1.488.459 1.5 1.125.03.68-.907 1.015-1.5 1.094v-2.219zM26 33v3h11v-3H26z" style="line-height:125%;marker:none;-inkscape-font-specification:Open Sans Bold" font-size="14.312" font-weight="700" letter-spacing="0" word-spacing="0" opacity=".3" color="#000" overflow="visible" font-family="Open Sans"/><path d="M17 16v1.063c-1.089.104-2.154.391-3 1.093-1.214.939-1.298 2.801-.406 3.969.862 1.046 2.154 1.527 3.406 2v2.813c-1.396-.115-2.732-.49-4-1.063v2.375c1.27.539 2.62.786 4 .813V31h1v-2c.845-.076 1.908-.226 2.656-.625 1.04-.51 1.765-1.59 1.719-2.719a2.598 2.598 0 0 0-.5-1.531c-.867-1.157-2.566-1.66-3.875-2.188V19.25c1.038.084 2.287.337 3.25.719l.875-2.125c-1.23-.527-2.785-.758-4.125-.813V16h-1zm0 3.281v2.157c-.528-.233-1.274-.524-1.25-1.188-.025-.626.715-.909 1.25-.969zm1 5.344c.524.256 1.488.459 1.5 1.125.03.68-.907 1.015-1.5 1.094v-2.219zM26 32v3h11v-3H26z" style="line-height:125%;marker:none;-inkscape-font-specification:Open Sans Bold" font-size="14.312" font-weight="700" letter-spacing="0" word-spacing="0" color="#000" fill="url(#l)" overflow="visible" font-family="Open Sans"/><g fill="none" fill-rule="evenodd" stroke-width=".1"><path d="M0 59.95h64" stroke="#00f"/><path d="M0 3.95h64" stroke="red"/><path d="M0 31.95h64" stroke="#008100"/></g></svg>