<?xml version="1.0" encoding="UTF-8" standalone="no"?>
<svg
   xmlns:dc="http://purl.org/dc/elements/1.1/"
   xmlns:cc="http://creativecommons.org/ns#"
   xmlns:rdf="http://www.w3.org/1999/02/22-rdf-syntax-ns#"
   xmlns:svg="http://www.w3.org/2000/svg"
   xmlns="http://www.w3.org/2000/svg"
   xmlns:xlink="http://www.w3.org/1999/xlink"
   id="svg6333"
   height="64"
   width="64"
   version="1.1">
  <defs
     id="defs6335">
    <linearGradient
       id="linearGradient886">
      <stop
         id="stop882"
         offset="0"
         style="stop-color:#68b723;stop-opacity:1" />
      <stop
         id="stop884"
         offset="1"
         style="stop-color:#206b00;stop-opacity:1" />
    </linearGradient>
    <linearGradient
       id="linearGradient872">
      <stop
         id="stop868"
         offset="0"
         style="stop-color:#9bdb4d;stop-opacity:1" />
      <stop
         id="stop870"
         offset="1"
         style="stop-color:#68b723;stop-opacity:1" />
    </linearGradient>
    <linearGradient
       gradientTransform="matrix(1.4324324,0,0,1.4362832,-2.378381,-2.4707782)"
       gradientUnits="userSpaceOnUse"
       xlink:href="#linearGradient3924-2-2-5-8"
       id="linearGradient3381-5-4"
       y2="43"
       x2="23.99999"
       y1="4.999989"
       x1="23.99999" />
    <linearGradient
       id="linearGradient3924-2-2-5-8">
      <stop
         offset="0"
         style="stop-color:#ffffff;stop-opacity:1"
         id="stop3926-9-4-9-6" />
      <stop
         offset="0.06316455"
         style="stop-color:#ffffff;stop-opacity:0.23529412"
         id="stop3928-9-8-6-5" />
      <stop
         offset="0.95056331"
         style="stop-color:#ffffff;stop-opacity:0.15686275"
         id="stop3930-3-5-1-7" />
      <stop
         offset="1"
         style="stop-color:#ffffff;stop-opacity:0.39215687"
         id="stop3932-8-0-4-8" />
    </linearGradient>
    <radialGradient
       gradientTransform="matrix(2.0304974,0,0,1.4,27.78793,-17.4)"
       gradientUnits="userSpaceOnUse"
       xlink:href="#linearGradient3688-166-749-4-0-3-8"
       id="radialGradient3337-2-2"
       fy="43.5"
       fx="4.9929786"
       r="2.5"
       cy="43.5"
       cx="4.9929786" />
    <linearGradient
       id="linearGradient3688-166-749-4-0-3-8">
      <stop
         offset="0"
         style="stop-color:#181818;stop-opacity:1"
         id="stop2883-4-0-1-8" />
      <stop
         offset="1"
         style="stop-color:#181818;stop-opacity:0"
         id="stop2885-9-2-9-6" />
    </linearGradient>
    <radialGradient
       gradientTransform="matrix(2.0304974,0,0,1.4,-20.212001,-104.4)"
       gradientUnits="userSpaceOnUse"
       xlink:href="#linearGradient3688-464-309-9-2-4-2"
       id="radialGradient3339-1-4"
       fy="43.5"
       fx="4.9929786"
       r="2.5"
       cy="43.5"
       cx="4.9929786" />
    <linearGradient
       id="linearGradient3688-464-309-9-2-4-2">
      <stop
         offset="0"
         style="stop-color:#181818;stop-opacity:1"
         id="stop2889-7-9-6-9" />
      <stop
         offset="1"
         style="stop-color:#181818;stop-opacity:0"
         id="stop2891-6-6-1-7" />
    </linearGradient>
    <linearGradient
       id="linearGradient3702-501-757-8-4-1-1">
      <stop
         offset="0"
         style="stop-color:#181818;stop-opacity:0"
         id="stop2895-8-9-9-1" />
      <stop
         offset="0.5"
         style="stop-color:#181818;stop-opacity:1"
         id="stop2897-7-8-7-7" />
      <stop
         offset="1"
         style="stop-color:#181818;stop-opacity:0"
         id="stop2899-4-5-1-5" />
    </linearGradient>
    <linearGradient
       gradientTransform="matrix(0.99523631,0,0,1,0.11429448,0)"
       gradientUnits="userSpaceOnUse"
       xlink:href="#linearGradient3702-501-757-8-4-1-1"
       id="linearGradient6394"
       y2="39.999443"
       x2="25.058096"
       y1="47.027729"
       x1="25.058096" />
    <linearGradient
       gradientUnits="userSpaceOnUse"
       y2="59.185272"
       x2="31.585226"
       y1="4.6304479"
       x1="31.585226"
       id="linearGradient874"
       xlink:href="#linearGradient872" />
    <linearGradient
       gradientTransform="translate(0,-1.0002337)"
       gradientUnits="userSpaceOnUse"
       y2="48"
       x2="31.999804"
       y1="16.500063"
       x1="31.999804"
       id="linearGradient888"
       xlink:href="#linearGradient886" />
  </defs>
  <metadata
     id="metadata6338">
    <rdf:RDF>
      <cc:Work
         rdf:about="">
        <dc:format>image/svg+xml</dc:format>
        <dc:type
           rdf:resource="http://purl.org/dc/dcmitype/StillImage" />
        <dc:title />
      </cc:Work>
    </rdf:RDF>
  </metadata>
  <g
     transform="matrix(1.5789502,0,0,0.7142857,-5.894751,27.928572)"
     id="g3712-8-2-4-4"
     style="opacity:0.6">
    <rect
       width="5.0666575"
       height="7"
       x="37.933273"
       y="40"
       id="rect2801-5-5-7-9"
       style="fill:url(#radialGradient3337-2-2);fill-opacity:1;stroke:none;stroke-width:1" />
    <rect
       width="5.0666575"
       height="7"
       x="-10.066657"
       y="-47"
       transform="scale(-1)"
       id="rect3696-3-0-3-7"
       style="fill:url(#radialGradient3339-1-4);fill-opacity:1;stroke:none;stroke-width:1" />
    <rect
       width="27.866617"
       height="7.0000005"
       x="10.066658"
       y="40"
       id="rect3700-5-6-8-4"
       style="fill:url(#linearGradient6394);fill-opacity:1;stroke:none;stroke-width:1" />
  </g>
  <rect
     width="55"
     height="55"
     rx="3"
     ry="3"
     x="4.4999986"
     y="4.5000019"
     id="rect5505-21-3-8-5-2"
     style="color:#000000;display:inline;overflow:visible;visibility:visible;opacity:1;fill:url(#linearGradient874);fill-opacity:1;fill-rule:nonzero;stroke:none;stroke-width:0.99999994;marker:none;enable-background:accumulate" />
  <rect
     width="53"
     height="53.142479"
     rx="2"
     ry="2"
     x="5.4999986"
     y="5.4287739"
     id="rect6741-5-0-2-3"
     style="opacity:0.5;fill:none;stroke:url(#linearGradient3381-5-4);stroke-width:1;stroke-linecap:round;stroke-linejoin:round;stroke-miterlimit:4;stroke-dasharray:none;stroke-dashoffset:0;stroke-opacity:1" />
  <rect
     width="55"
     height="55"
     rx="3"
     ry="3"
     x="4.4999986"
     y="4.5000019"
     id="rect5505-21-3-8-9-1-1"
     style="color:#000000;display:inline;overflow:visible;visibility:visible;opacity:0.5;fill:none;stroke:#206b00;stroke-width:1;stroke-linecap:round;stroke-linejoin:round;stroke-miterlimit:4;stroke-dasharray:none;stroke-dashoffset:0;stroke-opacity:1;marker:none;enable-background:accumulate" />
  <path
     style="color:#000000;font-style:normal;font-variant:normal;font-weight:normal;font-stretch:normal;font-size:medium;line-height:normal;font-family:sans-serif;font-variant-ligatures:normal;font-variant-position:normal;font-variant-caps:normal;font-variant-numeric:normal;font-variant-alternates:normal;font-feature-settings:normal;text-indent:0;text-align:start;text-decoration:none;text-decoration-line:none;text-decoration-style:solid;text-decoration-color:#000000;letter-spacing:normal;word-spacing:normal;text-transform:none;writing-mode:lr-tb;direction:ltr;text-orientation:mixed;dominant-baseline:auto;baseline-shift:baseline;text-anchor:start;white-space:normal;shape-padding:0;clip-rule:nonzero;display:inline;overflow:visible;visibility:visible;opacity:1;isolation:auto;mix-blend-mode:normal;color-interpolation:sRGB;color-interpolation-filters:linearRGB;solid-color:#000000;solid-opacity:1;vector-effect:none;fill:url(#linearGradient888);fill-opacity:1;fill-rule:nonzero;stroke:none;stroke-width:0.99999982;stroke-linecap:butt;stroke-linejoin:round;stroke-miterlimit:4;stroke-dasharray:none;stroke-dashoffset:0;stroke-opacity:0.53333333;marker:none;color-rendering:auto;image-rendering:auto;shape-rendering:auto;text-rendering:auto;enable-background:accumulate"
     d="m 31.999806,15.49983 c -0.245448,0 -0.406451,0.106469 -0.534956,0.207876 -0.128505,0.10141 -0.234146,0.220442 -0.343179,0.357223 -0.218071,0.273561 -0.438974,0.625055 -0.676267,1.043414 -0.474588,0.836722 -1.004977,1.931803 -1.52816,3.043462 -0.523184,1.111659 -1.038541,2.23898 -1.469617,3.118135 -0.215538,0.439578 -0.410473,0.818477 -0.569275,1.093871 -0.158802,0.275393 -0.336788,0.464232 -0.278582,0.419787 0.05821,-0.04445 -0.160064,0.07021 -0.456228,0.143294 -0.296161,0.07309 -0.697018,0.150603 -1.160755,0.230076 -0.927472,0.158946 -2.106174,0.327112 -3.274339,0.506571 -1.168164,0.179458 -2.325097,0.370808 -3.231946,0.587299 -0.453427,0.108245 -0.842689,0.220466 -1.160757,0.355204 -0.318067,0.13474 -0.635798,0.239883 -0.773163,0.684174 -0.137366,0.444291 0.0585,0.70339 0.238207,1.005069 0.179696,0.301679 0.429293,0.632281 0.734809,0.999014 0.611029,0.733466 1.43867,1.60171 2.283155,2.468272 0.844485,0.866562 1.705872,1.729778 2.367941,2.431943 0.331033,0.351083 0.613698,0.662737 0.813538,0.906177 0.199841,0.24344 0.314126,0.469933 0.29675,0.413733 -0.01737,-0.05621 0.01552,0.203056 -0.01012,0.524735 -0.02562,0.321679 -0.07788,0.748242 -0.149383,1.237164 -0.143017,0.977842 -0.356663,2.208521 -0.555145,3.430958 -0.198483,1.222434 -0.382377,2.435688 -0.466321,3.404721 -0.04198,0.484516 -0.05956,0.906224 -0.03634,1.259363 0.01162,0.176569 0.03087,0.335841 0.07672,0.492444 0.04583,0.156601 0.111907,0.33054 0.302806,0.476298 0.190897,0.145757 0.384904,0.162158 0.549087,0.159438 0.164185,-0.0027 0.319853,-0.03288 0.486509,-0.0767 0.333312,-0.08764 0.71141,-0.237471 1.13855,-0.429878 0.854277,-0.384818 1.895925,-0.943372 2.941253,-1.519715 1.045326,-0.576341 2.091614,-1.170085 2.931159,-1.614567 0.419773,-0.222241 0.789121,-0.406839 1.069915,-0.53079 0.280793,-0.123949 0.526946,-0.165493 0.444114,-0.165493 -0.08283,0 0.165341,0.04154 0.446135,0.165493 0.280793,0.123951 0.65014,0.308549 1.069913,0.53079 0.839546,0.444482 1.885832,1.038226 2.931159,1.614567 1.045327,0.576343 2.086977,1.134897 2.941253,1.519715 0.42714,0.192407 0.805239,0.342246 1.138551,0.429878 0.166656,0.04382 0.322324,0.07397 0.486507,0.0767 0.164184,0.0027 0.35819,-0.01368 0.549088,-0.159438 0.1909,-0.145758 0.256973,-0.319697 0.302806,-0.476298 0.04583,-0.156603 0.06509,-0.315875 0.07672,-0.492444 0.02323,-0.353139 0.0057,-0.774847 -0.03635,-1.259363 -0.08395,-0.969033 -0.267837,-2.182287 -0.466319,-3.404721 -0.198483,-1.222435 -0.412128,-2.453116 -0.555145,-3.430958 -0.0715,-0.488922 -0.125783,-0.915485 -0.151402,-1.237164 -0.02562,-0.321679 0.0093,-0.580933 -0.008,-0.524735 -0.01737,0.05621 0.09691,-0.170293 0.29675,-0.413733 0.199841,-0.24344 0.482503,-0.555094 0.813537,-0.906177 0.662069,-0.702164 1.521438,-1.565381 2.365922,-2.431943 0.844485,-0.866562 1.672127,-1.734807 2.283157,-2.468272 0.305515,-0.366733 0.557131,-0.697336 0.736827,-0.999014 0.179696,-0.301679 0.373553,-0.560778 0.236189,-1.005069 -0.13742,-0.444291 -0.453132,-0.549434 -0.7712,-0.684174 -0.318066,-0.134739 -0.709348,-0.246959 -1.162773,-0.355204 -0.906852,-0.216491 -2.061764,-0.407841 -3.229928,-0.587299 -1.168166,-0.179459 -2.346867,-0.347625 -3.274341,-0.506571 -0.463735,-0.07948 -0.864592,-0.156986 -1.160754,-0.230076 -0.296163,-0.07309 -0.516455,-0.187738 -0.458247,-0.143294 0.05821,0.04445 -0.11776,-0.144394 -0.276563,-0.419787 -0.158801,-0.275394 -0.353735,-0.654293 -0.569275,-1.093871 -0.431077,-0.879155 -0.946433,-2.006476 -1.469617,-3.118135 -0.523183,-1.111659 -1.053572,-2.20674 -1.52816,-3.043462 -0.237293,-0.418359 -0.458195,-0.769853 -0.676265,-1.043414 -0.109035,-0.136781 -0.216694,-0.255816 -0.3452,-0.357223 -0.128504,-0.101411 -0.289509,-0.207876 -0.534957,-0.207876 z"
     id="path865" />
  <path
     id="path897"
     d="m 32,15.499766 c -0.245448,0 -0.406651,0.105624 -0.535156,0.207031 -0.128505,0.10141 -0.234717,0.220641 -0.34375,0.357422 -0.218071,0.273561 -0.438489,0.626563 -0.675782,1.044922 -0.474588,0.836722 -1.00416,1.93131 -1.527343,3.042969 -0.523184,1.111659 -1.039627,2.238032 -1.470703,3.117187 -0.215538,0.439578 -0.409558,0.818356 -0.56836,1.09375 -0.158802,0.275393 -0.337503,0.464367 -0.279297,0.419922 0.05821,-0.04445 -0.160867,0.07145 -0.457031,0.144531 -0.296161,0.07309 -0.696419,0.149043 -1.160156,0.228516 -0.927472,0.158946 -2.105273,0.328353 -3.273438,0.507812 -1.168164,0.179459 -2.325573,0.3714 -3.232422,0.587891 -0.453427,0.108245 -0.842088,0.218778 -1.160156,0.353516 -0.318067,0.13474 -0.636072,0.241256 -0.773437,0.685547 -0.137366,0.444291 0.05857,0.702227 0.238281,1.003906 0.144873,0.243218 0.345804,0.512281 0.574219,0.796875 0.311391,-0.128199 0.684376,-0.235588 1.121093,-0.339844 0.906849,-0.216491 2.064258,-0.408432 3.232422,-0.587891 1.168165,-0.179458 2.345966,-0.348866 3.273438,-0.507812 0.463737,-0.07947 0.863995,-0.155426 1.160156,-0.228516 0.296164,-0.07308 0.515241,-0.188981 0.457031,-0.144531 -0.05821,0.04444 0.120495,-0.144529 0.279297,-0.419922 0.158802,-0.275394 0.352822,-0.654172 0.56836,-1.09375 0.431076,-0.879155 0.947519,-2.005528 1.470703,-3.117187 0.523183,-1.111659 1.052755,-2.206247 1.527343,-3.042969 0.237293,-0.418359 0.457711,-0.771361 0.675782,-1.044922 0.109033,-0.136781 0.215245,-0.256012 0.34375,-0.357422 C 31.593349,18.10539 31.754552,17.999766 32,17.999766 c 0.245448,0 0.406652,0.10562 0.535156,0.207031 0.128506,0.101407 0.236668,0.220641 0.345703,0.357422 0.21807,0.273561 0.438489,0.626563 0.675782,1.044922 0.474588,0.836722 1.00416,1.93131 1.527343,3.042969 0.523184,1.111659 1.039626,2.238032 1.470704,3.117187 0.21554,0.439578 0.409558,0.818356 0.568359,1.09375 0.158803,0.275393 0.335554,0.464372 0.277344,0.419922 -0.05821,-0.04444 0.160868,0.07144 0.457031,0.144531 0.296162,0.07309 0.698374,0.149036 1.162109,0.228516 0.927474,0.158946 2.105272,0.328353 3.273438,0.507812 1.168164,0.179458 2.323616,0.3714 3.230469,0.587891 0.43677,0.104269 0.811497,0.211623 1.123046,0.339844 0.228714,-0.284367 0.429446,-0.553826 0.574219,-0.796875 0.179696,-0.301679 0.373692,-0.559615 0.236328,-1.003906 -0.13742,-0.444291 -0.453416,-0.550807 -0.771484,-0.685547 -0.318066,-0.134739 -0.708684,-0.245271 -1.162109,-0.353516 -0.906853,-0.216491 -2.062305,-0.408433 -3.230469,-0.587891 -1.168166,-0.179459 -2.345964,-0.348866 -3.273438,-0.507812 -0.463735,-0.07948 -0.865947,-0.155426 -1.162109,-0.228516 -0.296163,-0.07309 -0.515239,-0.188975 -0.457031,-0.144531 0.05821,0.04445 -0.118541,-0.144529 -0.277344,-0.419922 -0.158801,-0.275394 -0.352819,-0.654172 -0.568359,-1.09375 C 36.12361,22.390142 35.607168,21.263769 35.083984,20.15211 34.560801,19.040451 34.031229,17.945863 33.556641,17.109141 33.319348,16.690782 33.098929,16.33778 32.880859,16.064219 32.771824,15.927438 32.663662,15.808204 32.535156,15.706797 32.406652,15.605386 32.245448,15.499766 32,15.499766 Z m -8.951172,22.197266 c -0.139554,0.909002 -0.312152,1.937025 -0.486328,3.009765 -0.198483,1.222434 -0.382853,2.435264 -0.466797,3.404297 -0.04198,0.484516 -0.05838,0.906627 -0.03516,1.259766 0.01162,0.176569 0.03032,0.335584 0.07617,0.492187 0.0089,0.03032 0.02596,0.06246 0.03711,0.09375 0.09645,-0.843229 0.230587,-1.77637 0.388672,-2.75 0.198482,-1.222437 0.41167,-2.451845 0.554688,-3.429687 0.0715,-0.488922 0.12477,-0.916602 0.15039,-1.238282 0.02564,-0.321678 -0.0076,-0.5816 0.0098,-0.52539 0.01335,0.04319 -0.107296,-0.146317 -0.228516,-0.316406 z m 17.904297,0 c -0.121218,0.170091 -0.241863,0.3596 -0.228516,0.316406 0.0173,-0.0562 -0.01781,0.203711 0.0078,0.52539 0.02562,0.32168 0.08084,0.74936 0.152344,1.238282 0.143017,0.977842 0.356204,2.207252 0.554687,3.429687 0.157966,0.972898 0.292217,1.905265 0.388672,2.748047 0.01086,-0.03063 0.02842,-0.06211 0.03711,-0.0918 0.04583,-0.156603 0.06454,-0.315618 0.07617,-0.492187 0.02323,-0.353139 0.0069,-0.77525 -0.03516,-1.259766 -0.08395,-0.969033 -0.268315,-2.181863 -0.466797,-3.404297 -0.174177,-1.072738 -0.346774,-2.100762 -0.486328,-3.009765 z"
     style="color:#000000;font-style:normal;font-variant:normal;font-weight:normal;font-stretch:normal;font-size:medium;line-height:normal;font-family:sans-serif;font-variant-ligatures:normal;font-variant-position:normal;font-variant-caps:normal;font-variant-numeric:normal;font-variant-alternates:normal;font-feature-settings:normal;text-indent:0;text-align:start;text-decoration:none;text-decoration-line:none;text-decoration-style:solid;text-decoration-color:#000000;letter-spacing:normal;word-spacing:normal;text-transform:none;writing-mode:lr-tb;direction:ltr;text-orientation:mixed;dominant-baseline:auto;baseline-shift:baseline;text-anchor:start;white-space:normal;shape-padding:0;clip-rule:nonzero;display:inline;overflow:visible;visibility:visible;opacity:0.15;isolation:auto;mix-blend-mode:normal;color-interpolation:sRGB;color-interpolation-filters:linearRGB;solid-color:#000000;solid-opacity:1;vector-effect:none;fill:#206b00;fill-opacity:1;fill-rule:nonzero;stroke:none;stroke-width:0.99999982;stroke-linecap:butt;stroke-linejoin:round;stroke-miterlimit:4;stroke-dasharray:none;stroke-dashoffset:0;stroke-opacity:0.53333333;marker:none;color-rendering:auto;image-rendering:auto;shape-rendering:auto;text-rendering:auto;enable-background:accumulate" />
  <path
     id="path890"
     d="m 32,15.499766 c -0.245448,0 -0.406651,0.105624 -0.535156,0.207031 -0.128505,0.10141 -0.234717,0.220641 -0.34375,0.357422 -0.218071,0.273561 -0.438489,0.626563 -0.675782,1.044922 -0.474588,0.836722 -1.00416,1.93131 -1.527343,3.042969 -0.523184,1.111659 -1.039627,2.238032 -1.470703,3.117187 -0.215538,0.439578 -0.409558,0.818356 -0.56836,1.09375 -0.158802,0.275393 -0.337503,0.464367 -0.279297,0.419922 0.05821,-0.04445 -0.160867,0.07145 -0.457031,0.144531 -0.296161,0.07309 -0.696419,0.149043 -1.160156,0.228516 -0.927472,0.158946 -2.105273,0.328353 -3.273438,0.507812 -1.168164,0.179459 -2.325573,0.3714 -3.232422,0.587891 -0.453427,0.108245 -0.842088,0.218778 -1.160156,0.353516 -0.318067,0.13474 -0.636072,0.241256 -0.773437,0.685547 -0.137366,0.444291 0.05857,0.702227 0.238281,1.003906 0.01322,0.0222 0.0329,0.0478 0.04687,0.07031 0.144,-0.115532 0.314944,-0.186336 0.488281,-0.259765 0.318068,-0.134738 0.706729,-0.245271 1.160156,-0.353516 0.906849,-0.216491 2.064258,-0.408432 3.232422,-0.587891 1.168165,-0.179458 2.345966,-0.348866 3.273438,-0.507812 0.463737,-0.07947 0.863995,-0.155426 1.160156,-0.228516 0.296164,-0.07308 0.515241,-0.188981 0.457031,-0.144531 -0.05821,0.04444 0.120495,-0.144529 0.279297,-0.419922 0.158802,-0.275394 0.352822,-0.654172 0.56836,-1.09375 0.431076,-0.879155 0.947519,-2.005528 1.470703,-3.117187 0.523183,-1.111659 1.052755,-2.206247 1.527343,-3.042969 0.237293,-0.418359 0.457711,-0.771361 0.675782,-1.044922 0.109033,-0.136781 0.215245,-0.256012 0.34375,-0.357422 C 31.593349,17.10539 31.754552,16.999766 32,16.999766 c 0.245448,0 0.406652,0.10562 0.535156,0.207031 0.128506,0.101407 0.236668,0.220641 0.345703,0.357422 0.21807,0.273561 0.438489,0.626563 0.675782,1.044922 0.474588,0.836722 1.00416,1.93131 1.527343,3.042969 0.523184,1.111659 1.039626,2.238032 1.470704,3.117187 0.21554,0.439578 0.409558,0.818356 0.568359,1.09375 0.158803,0.275393 0.335554,0.464372 0.277344,0.419922 -0.05821,-0.04444 0.160868,0.07144 0.457031,0.144531 0.296162,0.07309 0.698374,0.149036 1.162109,0.228516 0.927474,0.158946 2.105272,0.328353 3.273438,0.507812 1.168164,0.179458 2.323616,0.3714 3.230469,0.587891 0.453425,0.108245 0.844043,0.218777 1.162109,0.353516 0.173761,0.07361 0.344611,0.143702 0.488281,0.259765 0.014,-0.02251 0.03365,-0.04811 0.04687,-0.07031 0.179696,-0.301679 0.373692,-0.559615 0.236328,-1.003906 -0.13742,-0.444291 -0.453416,-0.550807 -0.771484,-0.685547 -0.318066,-0.134739 -0.708684,-0.245271 -1.162109,-0.353516 -0.906853,-0.216491 -2.062305,-0.408433 -3.230469,-0.587891 -1.168166,-0.179459 -2.345964,-0.348866 -3.273438,-0.507812 -0.463735,-0.07948 -0.865947,-0.155426 -1.162109,-0.228516 -0.296163,-0.07309 -0.515239,-0.188975 -0.457031,-0.144531 0.05821,0.04445 -0.118541,-0.144529 -0.277344,-0.419922 -0.158801,-0.275394 -0.352819,-0.654172 -0.568359,-1.09375 C 36.12361,22.390142 35.607168,21.263769 35.083984,20.15211 34.560801,19.040451 34.031229,17.945863 33.556641,17.109141 33.319348,16.690782 33.098929,16.33778 32.880859,16.064219 32.771824,15.927438 32.663662,15.808204 32.535156,15.706797 32.406652,15.605386 32.245448,15.499766 32,15.499766 Z m -8.832031,21.361328 c -0.0194,0.14858 -0.02676,0.251744 -0.05078,0.416016 -0.143018,0.977842 -0.356206,2.20725 -0.554688,3.429687 -0.198483,1.222434 -0.382853,2.435264 -0.466797,3.404297 -0.04198,0.484516 -0.05838,0.906627 -0.03516,1.259766 0.0055,0.08333 0.02428,0.155254 0.03516,0.232422 0.08422,-0.967878 0.26879,-2.17698 0.466797,-3.396485 0.198482,-1.222437 0.41167,-2.451845 0.554688,-3.429687 0.0715,-0.488922 0.12477,-0.916602 0.15039,-1.238282 0.02564,-0.321678 -0.0076,-0.5816 0.0098,-0.52539 0.0064,0.02075 -0.08221,-0.109389 -0.109375,-0.152344 z m 17.666015,0 c -0.02716,0.04295 -0.115788,0.173099 -0.109375,0.152344 0.0173,-0.0562 -0.01781,0.203711 0.0078,0.52539 0.02562,0.32168 0.08084,0.74936 0.152344,1.238282 0.143017,0.977842 0.356204,2.207252 0.554687,3.429687 0.198007,1.219505 0.382571,2.428607 0.466797,3.396485 0.01088,-0.07717 0.02967,-0.149087 0.03516,-0.232422 0.02323,-0.353139 0.0069,-0.77525 -0.03516,-1.259766 -0.08395,-0.969033 -0.268315,-2.181863 -0.466797,-3.404297 -0.198483,-1.222435 -0.41167,-2.451845 -0.554687,-3.429687 -0.02402,-0.16424 -0.03108,-0.267461 -0.05078,-0.416016 z"
     style="color:#000000;font-style:normal;font-variant:normal;font-weight:normal;font-stretch:normal;font-size:medium;line-height:normal;font-family:sans-serif;font-variant-ligatures:normal;font-variant-position:normal;font-variant-caps:normal;font-variant-numeric:normal;font-variant-alternates:normal;font-feature-settings:normal;text-indent:0;text-align:start;text-decoration:none;text-decoration-line:none;text-decoration-style:solid;text-decoration-color:#000000;letter-spacing:normal;word-spacing:normal;text-transform:none;writing-mode:lr-tb;direction:ltr;text-orientation:mixed;dominant-baseline:auto;baseline-shift:baseline;text-anchor:start;white-space:normal;shape-padding:0;clip-rule:nonzero;display:inline;overflow:visible;visibility:visible;opacity:0.3;isolation:auto;mix-blend-mode:normal;color-interpolation:sRGB;color-interpolation-filters:linearRGB;solid-color:#000000;solid-opacity:1;vector-effect:none;fill:#206b00;fill-opacity:1;fill-rule:nonzero;stroke:none;stroke-width:0.99999982;stroke-linecap:butt;stroke-linejoin:round;stroke-miterlimit:4;stroke-dasharray:none;stroke-dashoffset:0;stroke-opacity:0.53333333;marker:none;color-rendering:auto;image-rendering:auto;shape-rendering:auto;text-rendering:auto;enable-background:accumulate" />
  <path
     id="path895"
     d="m 31.999806,15.49983 c -0.245448,0 -0.406451,0.106469 -0.534956,0.207876 -0.128505,0.10141 -0.234146,0.220442 -0.343179,0.357223 -0.218071,0.273561 -0.438974,0.625055 -0.676267,1.043414 -0.474588,0.836722 -1.004977,1.931803 -1.52816,3.043462 -0.523184,1.111659 -1.038541,2.23898 -1.469617,3.118135 -0.215538,0.439578 -0.410473,0.818477 -0.569275,1.093871 -0.158802,0.275393 -0.336788,0.464232 -0.278582,0.419787 0.05821,-0.04445 -0.160064,0.07021 -0.456228,0.143294 -0.296161,0.07309 -0.697018,0.150603 -1.160755,0.230076 -0.927472,0.158946 -2.106174,0.327112 -3.274339,0.506571 -1.168164,0.179458 -2.325097,0.370808 -3.231946,0.587299 -0.453427,0.108245 -0.842689,0.220466 -1.160757,0.355204 -0.318067,0.13474 -0.635798,0.239883 -0.773163,0.684174 -0.137366,0.444291 0.0585,0.70339 0.238207,1.005069 0.179696,0.301679 0.429293,0.632281 0.734809,0.999014 0.611029,0.733466 1.43867,1.60171 2.283155,2.468272 0.844485,0.866562 1.705872,1.729778 2.367941,2.431943 0.331033,0.351083 0.613698,0.662737 0.813538,0.906177 0.199841,0.24344 0.314126,0.469933 0.29675,0.413733 -0.01737,-0.05621 0.01552,0.203056 -0.01012,0.524735 -0.02562,0.321679 -0.07788,0.748242 -0.149383,1.237164 -0.143017,0.977842 -0.356663,2.208521 -0.555145,3.430958 -0.198483,1.222434 -0.382377,2.435688 -0.466321,3.404721 -0.04198,0.484516 -0.05956,0.906224 -0.03634,1.259363 0.01162,0.176569 0.03087,0.335841 0.07672,0.492444 0.04583,0.156601 0.111907,0.33054 0.302806,0.476298 0.190897,0.145757 0.384904,0.162158 0.549087,0.159438 0.164185,-0.0027 0.319853,-0.03288 0.486509,-0.0767 0.333312,-0.08764 0.71141,-0.237471 1.13855,-0.429878 0.854277,-0.384818 1.895925,-0.943372 2.941253,-1.519715 1.045326,-0.576341 2.091614,-1.170085 2.931159,-1.614567 0.419773,-0.222241 0.789121,-0.406839 1.069915,-0.53079 0.280793,-0.123949 0.526946,-0.165493 0.444114,-0.165493 -0.08283,0 0.165341,0.04154 0.446135,0.165493 0.280793,0.123951 0.65014,0.308549 1.069913,0.53079 0.839546,0.444482 1.885832,1.038226 2.931159,1.614567 1.045327,0.576343 2.086977,1.134897 2.941253,1.519715 0.42714,0.192407 0.805239,0.342246 1.138551,0.429878 0.166656,0.04382 0.322324,0.07397 0.486507,0.0767 0.164184,0.0027 0.35819,-0.01368 0.549088,-0.159438 0.1909,-0.145758 0.256973,-0.319697 0.302806,-0.476298 0.04583,-0.156603 0.06509,-0.315875 0.07672,-0.492444 0.02323,-0.353139 0.0057,-0.774847 -0.03635,-1.259363 -0.08395,-0.969033 -0.267837,-2.182287 -0.466319,-3.404721 -0.198483,-1.222435 -0.412128,-2.453116 -0.555145,-3.430958 -0.0715,-0.488922 -0.125783,-0.915485 -0.151402,-1.237164 -0.02562,-0.321679 0.0093,-0.580933 -0.008,-0.524735 -0.01737,0.05621 0.09691,-0.170293 0.29675,-0.413733 0.199841,-0.24344 0.482503,-0.555094 0.813537,-0.906177 0.662069,-0.702164 1.521438,-1.565381 2.365922,-2.431943 0.844485,-0.866562 1.672127,-1.734807 2.283157,-2.468272 0.305515,-0.366733 0.557131,-0.697336 0.736827,-0.999014 0.179696,-0.301679 0.373553,-0.560778 0.236189,-1.005069 -0.13742,-0.444291 -0.453132,-0.549434 -0.7712,-0.684174 -0.318066,-0.134739 -0.709348,-0.246959 -1.162773,-0.355204 -0.906852,-0.216491 -2.061764,-0.407841 -3.229928,-0.587299 -1.168166,-0.179459 -2.346867,-0.347625 -3.274341,-0.506571 -0.463735,-0.07948 -0.864592,-0.156986 -1.160754,-0.230076 -0.296163,-0.07309 -0.516455,-0.187738 -0.458247,-0.143294 0.05821,0.04445 -0.11776,-0.144394 -0.276563,-0.419787 -0.158801,-0.275394 -0.353735,-0.654293 -0.569275,-1.093871 -0.431077,-0.879155 -0.946433,-2.006476 -1.469617,-3.118135 -0.523183,-1.111659 -1.053572,-2.20674 -1.52816,-3.043462 -0.237293,-0.418359 -0.458195,-0.769853 -0.676265,-1.043414 -0.109035,-0.136781 -0.216694,-0.255816 -0.3452,-0.357223 -0.128504,-0.101411 -0.289509,-0.207876 -0.534957,-0.207876 z"
     style="color:#000000;font-style:normal;font-variant:normal;font-weight:normal;font-stretch:normal;font-size:medium;line-height:normal;font-family:sans-serif;font-variant-ligatures:normal;font-variant-position:normal;font-variant-caps:normal;font-variant-numeric:normal;font-variant-alternates:normal;font-feature-settings:normal;text-indent:0;text-align:start;text-decoration:none;text-decoration-line:none;text-decoration-style:solid;text-decoration-color:#000000;letter-spacing:normal;word-spacing:normal;text-transform:none;writing-mode:lr-tb;direction:ltr;text-orientation:mixed;dominant-baseline:auto;baseline-shift:baseline;text-anchor:start;white-space:normal;shape-padding:0;clip-rule:nonzero;display:inline;overflow:visible;visibility:visible;opacity:0.5;isolation:auto;mix-blend-mode:normal;color-interpolation:sRGB;color-interpolation-filters:linearRGB;solid-color:#000000;solid-opacity:1;vector-effect:none;fill:none;fill-opacity:1;fill-rule:nonzero;stroke:#206b00;stroke-width:0.99999982;stroke-linecap:butt;stroke-linejoin:round;stroke-miterlimit:4;stroke-dasharray:none;stroke-dashoffset:0;stroke-opacity:0.98333333;marker:none;color-rendering:auto;image-rendering:auto;shape-rendering:auto;text-rendering:auto;enable-background:accumulate" />
  <path
     id="path906"
     d="m 16.099609,28.073985 c -0.0093,0.02489 -0.02718,0.04256 -0.03516,0.06836 -0.0966,0.312422 -0.07648,0.627509 0.0059,0.867188 0.0823,0.239679 0.200062,0.404722 0.28125,0.541015 0.20168,0.338586 0.464914,0.687077 0.779297,1.064453 0.628945,0.754972 1.463517,1.626921 2.310547,2.496094 0.847262,0.869411 1.707442,1.732295 2.361328,2.425781 0.327175,0.346991 0.605101,0.654382 0.791016,0.88086 0.04389,0.05347 0.07173,0.09799 0.105469,0.146484 0.02208,-0.187638 0.05706,-0.422552 0.06836,-0.564453 0.01,-0.125908 0.01011,-0.241468 0.0078,-0.330078 -0.04591,-0.07078 -0.106111,-0.159943 -0.181641,-0.251953 -0.185915,-0.226478 -0.463841,-0.533869 -0.791016,-0.88086 -0.653886,-0.693486 -1.514066,-1.55637 -2.361328,-2.425781 -0.84703,-0.869173 -1.681602,-1.741122 -2.310547,-2.496094 -0.314383,-0.377376 -0.577617,-0.725867 -0.779297,-1.064453 -0.07271,-0.122066 -0.172316,-0.27541 -0.251953,-0.476562 z m 31.802735,0 c -0.0791,0.200725 -0.17904,0.354153 -0.251953,0.476562 -0.202522,0.339999 -0.467562,0.687909 -0.78125,1.064453 -0.628945,0.75497 -1.463517,1.626921 -2.310547,2.496094 -0.846983,0.869126 -1.705141,1.731926 -2.359375,2.425781 -0.327174,0.34699 -0.605097,0.654379 -0.791016,0.88086 -0.07619,0.09281 -0.137594,0.182906 -0.183594,0.253906 -0.0027,0.08779 -0.004,0.203236 0.0059,0.328125 0.01126,0.141412 0.04721,0.377947 0.07031,0.566406 0.03432,-0.04914 0.06287,-0.09416 0.107422,-0.148437 0.185919,-0.226481 0.463842,-0.53387 0.791016,-0.88086 0.654234,-0.693855 1.512392,-1.556655 2.359375,-2.425781 0.84703,-0.869173 1.681602,-1.741124 2.310547,-2.496094 0.313688,-0.376544 0.578728,-0.724454 0.78125,-1.064453 0.0816,-0.136992 0.19967,-0.303155 0.28125,-0.542969 0.08158,-0.239813 0.100302,-0.553469 0.0039,-0.865234 -0.0079,-0.0255 -0.02405,-0.04374 -0.0332,-0.06836 z M 32,42.698985 c -0.07293,0.0229 -0.153768,0.04691 -0.242188,0.08594 -0.2612,0.115302 -0.625289,0.296561 -1.039062,0.515625 -0.828635,0.438706 -1.872936,1.032995 -2.921875,1.611328 -1.048703,0.578204 -2.097818,1.14039 -2.978516,1.53711 -0.439257,0.197865 -0.837876,0.357401 -1.216797,0.457031 -0.186106,0.04893 -0.385231,0.09015 -0.605468,0.09375 -0.20399,0.0034 -0.552987,-0.02778 -0.859375,-0.261719 -0.299162,-0.22842 -0.426279,-0.549223 -0.480469,-0.734375 -0.05378,-0.183689 -0.07047,-0.357758 -0.08398,-0.529297 -0.01986,0.332192 -0.03024,0.648025 -0.01172,0.929688 0.0127,0.193015 0.03477,0.391488 0.0957,0.599609 0.05419,0.185152 0.181307,0.505955 0.480469,0.734375 0.306388,0.233939 0.655385,0.265098 0.859375,0.261719 0.220237,-0.0036 0.419362,-0.04482 0.605468,-0.09375 0.378921,-0.09963 0.77754,-0.259166 1.216797,-0.457031 0.880698,-0.39672 1.929813,-0.958906 2.978516,-1.53711 1.048939,-0.578333 2.09324,-1.172622 2.921875,-1.611328 0.413773,-0.219064 0.777862,-0.400323 1.039062,-0.515625 0.08842,-0.03903 0.169257,-0.06304 0.242188,-0.08594 0.07345,0.02291 0.155414,0.04677 0.244141,0.08594 0.2612,0.115302 0.623336,0.296561 1.037109,0.515625 0.828636,0.438706 1.874888,1.032995 2.923828,1.611328 1.048702,0.578204 2.09782,1.140391 2.978516,1.53711 0.439252,0.197863 0.837861,0.357404 1.216797,0.457031 0.186161,0.04895 0.385352,0.09009 0.605468,0.09375 0.203901,0.0034 0.552969,-0.02777 0.859375,-0.261719 0.299167,-0.228422 0.426284,-0.549237 0.480469,-0.734375 0.06089,-0.208069 0.08299,-0.406592 0.0957,-0.599609 0.01852,-0.281637 0.0082,-0.597482 -0.01172,-0.929688 -0.01352,0.171549 -0.03024,0.345654 -0.08398,0.529297 -0.05418,0.185138 -0.181302,0.505953 -0.480469,0.734375 -0.306406,0.233949 -0.655474,0.265119 -0.859375,0.261719 -0.220116,-0.0037 -0.419307,-0.0448 -0.605468,-0.09375 -0.378936,-0.09963 -0.777545,-0.259168 -1.216797,-0.457031 C 38.302898,46.052266 37.25378,45.490079 36.205078,44.911875 35.156138,44.333542 34.109886,43.739253 33.28125,43.300547 32.867477,43.081483 32.505341,42.900224 32.244141,42.784922 32.155414,42.745752 32.07345,42.721895 32,42.698985 Z"
     style="color:#000000;font-style:normal;font-variant:normal;font-weight:normal;font-stretch:normal;font-size:medium;line-height:normal;font-family:sans-serif;font-variant-ligatures:normal;font-variant-position:normal;font-variant-caps:normal;font-variant-numeric:normal;font-variant-alternates:normal;font-feature-settings:normal;text-indent:0;text-align:start;text-decoration:none;text-decoration-line:none;text-decoration-style:solid;text-decoration-color:#000000;letter-spacing:normal;word-spacing:normal;text-transform:none;writing-mode:lr-tb;direction:ltr;text-orientation:mixed;dominant-baseline:auto;baseline-shift:baseline;text-anchor:start;white-space:normal;shape-padding:0;clip-rule:nonzero;display:inline;overflow:visible;visibility:visible;opacity:0.3;isolation:auto;mix-blend-mode:normal;color-interpolation:sRGB;color-interpolation-filters:linearRGB;solid-color:#000000;solid-opacity:1;vector-effect:none;fill:#ffffff;fill-opacity:1;fill-rule:nonzero;stroke:none;stroke-width:0.99999982;stroke-linecap:butt;stroke-linejoin:round;stroke-miterlimit:4;stroke-dasharray:none;stroke-dashoffset:0;stroke-opacity:1;marker:none;color-rendering:auto;image-rendering:auto;shape-rendering:auto;text-rendering:auto;enable-background:accumulate" />
</svg>
