<svg xmlns="http://www.w3.org/2000/svg" xmlns:xlink="http://www.w3.org/1999/xlink" viewBox="0 0 749.99999 559.99999" height="560" width="750"><defs><linearGradient id="c"><stop offset="0" stop-color="#5d4e75"/><stop offset="1" stop-color="#4d4267"/></linearGradient><filter id="m" x="-.015" width="1.03" y="-.064" height="1.127" color-interpolation-filters="sRGB"><feGaussianBlur stdDeviation="2.85"/></filter><linearGradient id="b"><stop stop-color="#fff" offset="0"/><stop stop-color="#fff" stop-opacity=".235" offset=".091"/><stop stop-color="#fff" stop-opacity=".157" offset=".85"/><stop stop-color="#fff" stop-opacity=".392" offset="1"/></linearGradient><linearGradient id="d" y2="39.999" gradientUnits="userSpaceOnUse" x2="25.058" gradientTransform="matrix(.87434 0 0 1 2.664 0)" y1="47.028" x1="25.058"><stop stop-color="#181818" stop-opacity="0" offset="0"/><stop stop-color="#181818" offset=".5"/><stop stop-color="#181818" stop-opacity="0" offset="1"/></linearGradient><linearGradient id="a"><stop offset="0"/><stop stop-opacity="0" offset="1"/></linearGradient><linearGradient id="e"><stop stop-color="#fff" offset="0"/><stop stop-color="#fff" stop-opacity="0" offset="1"/></linearGradient><linearGradient id="f" y2="38" gradientUnits="userSpaceOnUse" x2="20" gradientTransform="matrix(2.6 0 0 2.3846 3.8 6.308)" y1="27" x1="20"><stop stop-color="#6db0de" offset="0"/><stop stop-color="#a4cae4" offset="1"/></linearGradient><linearGradient id="g" y2="10" gradientUnits="userSpaceOnUse" x2="8" gradientTransform="matrix(8.3334 0 0 7.7738 22.333 5.78)" y1="15" x1="8"><stop stop-color="#ae6a37" offset="0"/><stop stop-color="#d28e5b" offset="1"/></linearGradient><linearGradient id="h" y2="15" gradientUnits="userSpaceOnUse" x2="9" gradientTransform="matrix(8.3334 0 0 7.7738 22.333 5.78)" y1="10" x1="9"><stop stop-color="#492714" stop-opacity=".625" offset="0"/><stop stop-color="#6a3f1f" stop-opacity=".77" offset="1"/></linearGradient><linearGradient id="i" y2="230.21" gradientUnits="userSpaceOnUse" x2="633.24" gradientTransform="matrix(10.617 0 0 9.1124 -6632.9 -1979.7)" y1="225.82" x1="633.24"><stop stop-color="#fff" offset="0"/><stop stop-color="#fff" stop-opacity=".235" offset=".1"/><stop stop-color="#fff" stop-opacity=".157" offset=".975"/><stop stop-color="#fff" stop-opacity=".392" offset="1"/></linearGradient><linearGradient id="j" y2="34" gradientUnits="userSpaceOnUse" x2="23" gradientTransform="matrix(0 2.6364 -2.8462 0 144.77 40.182)" y1="34" x1="11"><stop stop-color="#fff" offset="0"/><stop stop-color="#fff" stop-opacity=".235" offset=".063"/><stop stop-color="#fff" stop-opacity=".157" offset=".951"/><stop stop-color="#fff" stop-opacity=".392" offset="1"/></linearGradient><radialGradient r="35.338" gradientTransform="matrix(1.5564 0 0 .16979 72.27 102.13)" cx="-4.029" cy="93.468" gradientUnits="userSpaceOnUse" xlink:href="#a" id="n"/><radialGradient r="2.5" gradientTransform="matrix(2.0039 0 0 1.4 25.877 -17.4)" cx="4.993" cy="43.5" gradientUnits="userSpaceOnUse" id="o"><stop offset="0" stop-color="#181818"/><stop offset="1" stop-opacity="0" stop-color="#181818"/></radialGradient><radialGradient r="2.5" gradientTransform="matrix(2.0038 0 0 1.4 -21.419 -104.4)" cx="4.993" cy="43.5" gradientUnits="userSpaceOnUse" id="p"><stop offset="0" stop-color="#181818"/><stop offset="1" stop-opacity="0" stop-color="#181818"/></radialGradient><radialGradient r="27.5" gradientTransform="matrix(0 4.1073 -3.9361 0 82.09 -109.71)" cx="32" cy="4.342" gradientUnits="userSpaceOnUse" id="r"><stop offset="0" stop-color="#fafafa"/><stop offset="1" stop-color="#e1e1e1"/></radialGradient><radialGradient r="4.5" gradientTransform="matrix(1 0 0 .66667 16 6.667)" cx="12.5" cy="20" gradientUnits="userSpaceOnUse" xlink:href="#a" id="u"/><radialGradient r="4.5" gradientTransform="matrix(.83333 0 0 .55556 18.333 8.389)" cx="12.5" cy="20" gradientUnits="userSpaceOnUse" xlink:href="#a" id="v"/><radialGradient r="4.5" gradientTransform="matrix(1 0 0 .66667 8 6.667)" cx="12.5" cy="20" gradientUnits="userSpaceOnUse" xlink:href="#a" id="w"/><radialGradient r="4.5" gradientTransform="matrix(.83333 0 0 .55556 10.333 8.389)" cx="12.5" cy="20" gradientUnits="userSpaceOnUse" xlink:href="#a" id="x"/><radialGradient r="4.5" gradientTransform="matrix(1 0 0 .66667 24 6.667)" cx="12.5" cy="20" gradientUnits="userSpaceOnUse" xlink:href="#a" id="y"/><radialGradient r="4.5" gradientTransform="matrix(.83333 0 0 .55556 26.333 8.389)" cx="12.5" cy="20" gradientUnits="userSpaceOnUse" xlink:href="#a" id="z"/><radialGradient r="4.5" gradientTransform="matrix(1 0 0 .66667 0 6.667)" cx="12.5" cy="20" gradientUnits="userSpaceOnUse" xlink:href="#a" id="A"/><radialGradient r="4.5" gradientTransform="matrix(.83333 0 0 .55556 2.333 8.389)" cx="12.5" cy="20" gradientUnits="userSpaceOnUse" xlink:href="#a" id="B"/><linearGradient x1="71" y1="19" x2="71" gradientUnits="userSpaceOnUse" xlink:href="#b" y2="39" id="G"/><linearGradient xlink:href="#c" id="k" gradientUnits="userSpaceOnUse" x1="29" y1="28" x2="734" y2="555"/><linearGradient xlink:href="#d" id="q" gradientUnits="userSpaceOnUse" gradientTransform="matrix(.87434 0 0 1 2.664 0)" x1="25.058" y1="47.028" x2="25.058" y2="39.999"/><linearGradient xlink:href="#b" id="s" gradientUnits="userSpaceOnUse" gradientTransform="matrix(2.4595 0 0 2.5676 5.973 8.38)" x1="24" y1="5.591" x2="24" y2="42.262"/><linearGradient xlink:href="#a" id="t" gradientUnits="userSpaceOnUse" gradientTransform="matrix(1.6727 0 0 2 10.636 6)" x1="32" y1="18" x2="32" y2="33"/><linearGradient xlink:href="#e" id="D" gradientUnits="userSpaceOnUse" gradientTransform="translate(17.083 -4.417) scale(3.1667)" x1="9" y1="21" x2="9" y2="18"/><linearGradient xlink:href="#e" id="F" gradientUnits="userSpaceOnUse" gradientTransform="translate(59.083 -4.417) scale(3.1667)" x1="9" y1="21" x2="9" y2="18"/><linearGradient xlink:href="#f" id="H" gradientUnits="userSpaceOnUse" gradientTransform="matrix(2.6 0 0 2.3846 3.8 6.308)" x1="20" y1="27" x2="20" y2="38"/><linearGradient xlink:href="#g" id="I" gradientUnits="userSpaceOnUse" gradientTransform="matrix(8.3334 0 0 7.7738 22.333 5.78)" x1="8" y1="15" x2="8" y2="10"/><linearGradient xlink:href="#h" id="J" gradientUnits="userSpaceOnUse" gradientTransform="matrix(8.3334 0 0 7.7738 22.333 5.78)" x1="9" y1="10" x2="9" y2="15"/><linearGradient xlink:href="#i" id="K" gradientUnits="userSpaceOnUse" gradientTransform="matrix(10.617 0 0 9.1124 -6632.9 -1979.7)" x1="633.24" y1="225.82" x2="633.24" y2="230.21"/><linearGradient xlink:href="#j" id="L" gradientUnits="userSpaceOnUse" gradientTransform="matrix(0 2.6364 -2.8462 0 144.77 40.182)" x1="11" y1="34" x2="23" y2="34"/><filter id="l" x="-.001" width="1.003" y="-.006" height="1.012" color-interpolation-filters="sRGB"><feGaussianBlur stdDeviation=".315"/></filter><linearGradient xlink:href="#e" id="C" gradientUnits="userSpaceOnUse" gradientTransform="translate(-3.917 -4.417) scale(3.1667)" x1="9" y1="21" x2="9" y2="18"/></defs><rect style="isolation:auto;mix-blend-mode:normal;marker:none" width="750" height="560" rx="0" ry="0" color="#fbc02d" overflow="visible" fill="url(#k)" enable-background="accumulate"/><text y="255.207" x="194.029" style="line-height:125%;-inkscape-font-specification:'Raleway Ultra-Bold';text-align:start;isolation:auto;mix-blend-mode:normal" font-weight="800" font-size="49.058" font-family="Raleway" letter-spacing=".545" word-spacing="0" overflow="visible" filter="url(#m)" enable-background="accumulate" transform="matrix(.88905 0 0 .88905 45.7 30.295)" color="#000" opacity=".3" fill="#1a1a1a" stroke-width="1.125"><tspan y="255.207" x="194.029">Publish in AppCenter</tspan></text><text y="255.207" x="194.029" style="line-height:125%;-inkscape-font-specification:'Raleway Ultra-Bold';text-align:start" font-weight="800" font-size="49.058" font-family="Raleway" letter-spacing=".545" word-spacing="0" fill="#fff" transform="matrix(.88905 0 0 .88905 45.7 28.295)"><tspan y="255.207" x="194.029">Publish in AppCenter</tspan></text><g transform="translate(69 207.001)"><path d="M121 118c-.006 3.313-24.628 5.999-55 5.999S11.006 121.313 11 118c-.006-3.314 24.62-6.001 55-6.001s55.006 2.687 55 6.001z" color="#000" opacity=".2" fill="url(#n)"/><g opacity=".4"><path fill="url(#o)" d="M35.889 40h5v7h-5z" transform="matrix(2.84202 0 0 .71428 -2.21 87.43)"/><path transform="matrix(-2.84202 0 0 -.71428 -2.21 87.43)" fill="url(#p)" d="M-11.407-47h5v7h-5z"/><path fill="url(#q)" d="M11.407 40h24.482v7H11.407z" transform="matrix(2.84202 0 0 .71428 -2.21 87.43)"/></g><path d="M23.5 22a4.49 4.49 0 0 0-4.5 4.5v87a4.49 4.49 0 0 0 4.5 4.5h83a4.49 4.49 0 0 0 4.5-4.5v-87a4.49 4.49 0 0 0-4.5-4.5zm5 47.5h39v31h-39z" color="#000" fill="url(#r)"/><rect x="19.5" y="22.502" width="91" height="95" ry="4" rx="4" fill="none" stroke="url(#s)" stroke-linecap="round" stroke-linejoin="round"/><rect x="18.5" y="21.502" width="93" height="97" ry="5" rx="5" color="#000" opacity=".25" fill="none" stroke="#000"/><rect x="19" y="40" width="92" height="32" ry="0" rx="0" opacity=".2" fill="url(#t)"/><g transform="matrix(2.6667 0 0 2.6781 -1.496 2.01)" fill-rule="evenodd" stroke-width=".374" color="#000"><ellipse cx="28.5" cy="20" ry="3" rx="4.5" style="isolation:auto;mix-blend-mode:normal" opacity=".2" fill="url(#u)"/><ellipse cx="28.75" cy="19.5" ry="2.5" rx="3.75" style="isolation:auto;mix-blend-mode:normal" opacity=".2" fill="url(#v)"/><ellipse cx="20.5" cy="20" ry="3" rx="4.5" style="isolation:auto;mix-blend-mode:normal" opacity=".2" fill="url(#w)"/><ellipse cx="20.75" cy="19.5" ry="2.5" rx="3.75" style="isolation:auto;mix-blend-mode:normal" opacity=".2" fill="url(#x)"/><ellipse cx="36.5" cy="20" ry="3" rx="4.5" style="isolation:auto;mix-blend-mode:normal" opacity=".2" fill="url(#y)"/><ellipse cx="36.75" cy="19.5" ry="2.5" rx="3.75" style="isolation:auto;mix-blend-mode:normal" opacity=".2" fill="url(#z)"/><ellipse cx="12.5" cy="20" ry="3" rx="4.5" style="isolation:auto;mix-blend-mode:normal" opacity=".2" fill="url(#A)"/><ellipse cx="12.75" cy="19.5" ry="2.5" rx="3.75" style="isolation:auto;mix-blend-mode:normal" opacity=".2" fill="url(#B)"/></g><path d="M74.5 17.5l1 33.5c.173 5.796 4.701 10.5 10.5 10.5S96.5 56.799 96.5 51V40l-2-22.5zM35.5 17.5l-2 22.5v11c0 5.799 4.701 10.5 10.5 10.5S54.5 56.799 54.5 51V40.375l1-22.875z" fill="#eaeaea" stroke="#000" stroke-linecap="round" stroke-linejoin="round" stroke-dashoffset="20" stroke-opacity=".365"/><path d="M55.5 17.5l-1 22V51c0 5.799 4.701 10.5 10.5 10.5S75.5 56.799 75.5 51V39.5l-1-22zM16.5 23.5l-4 16.5v11c0 5.799 4.701 10.5 10.5 10.5S33.5 56.799 33.5 51V40l2-22.5H23s-5.482-.207-6.5 6zM113.5 23.5l4 16.5v11c0 5.799-4.701 10.5-10.5 10.5S96.5 56.799 96.5 51V40l-2-22.5H107s5.47-.24 6.5 6z" fill="#3a416f" stroke="#0e1231" stroke-linecap="round" stroke-linejoin="round" stroke-dashoffset="20" stroke-opacity=".702"/><circle r="9.5" cx="23" cy="51" style="isolation:auto;mix-blend-mode:normal" id="E" color="#000" opacity=".4" fill="none" stroke="url(#C)" stroke-linecap="round" stroke-linejoin="round" stroke-opacity=".392"/><circle r="9.5" cx="44" cy="51" style="isolation:auto;mix-blend-mode:normal" color="#000" fill="none" stroke="url(#D)" stroke-linecap="round" stroke-linejoin="round" stroke-opacity=".392"/><use width="100%" height="100%" transform="translate(42)" xlink:href="#E"/><circle r="9.5" cx="86" cy="51" style="isolation:auto;mix-blend-mode:normal" color="#000" fill="none" stroke="url(#F)" stroke-linecap="round" stroke-linejoin="round" stroke-opacity=".392"/><use width="100%" height="100%" transform="translate(84)" xlink:href="#E"/><path d="M17.5 23.5l-3.982 16h102.99l-4.013-16s-.5-5.063-5.875-5.125L23 18.5c-4.75 0-5.5 5-5.5 5z" opacity=".2" fill="#fff" fill-opacity=".542" fill-rule="evenodd" stroke="url(#G)" stroke-linejoin="round"/><path d="M28.5 69.5h39v31h-39z" style="isolation:auto;mix-blend-mode:normal" color="#000" opacity=".8" fill="url(#H)" fill-rule="evenodd"/><path d="M35 81l9-9M40 97l9-9M49 81l9-9" opacity=".2" fill="none" stroke="#fff" stroke-linecap="round"/><path d="M89 77.577c-6.925 0-12.5 5.4-12.5 11.861V118.5h25V89.438c0-6.46-5.575-11.861-12.5-11.861z" color="#000" fill="url(#I)" stroke="url(#J)" stroke-linejoin="round"/><path d="M88.948 78.549c-6.357 0-11.483 4.994-11.474 10.259l.051 28.692h22.948l-.051-28.692c-.01-5.408-5.117-10.259-11.474-10.259z" color="#000" opacity=".5" fill="none" stroke="url(#K)"/><path d="M99 101c0 2.69-4 2.69-4 0s4-2.69 4 0z" color="#000" opacity=".2"/><path d="M99 100c0 2.69-4 2.69-4 0s4-2.69 4 0z" color="#000" fill="#620"/><path d="M66.5 70.5v29h-37v-29z" style="isolation:auto;mix-blend-mode:normal" color="#000" fill="none" stroke="url(#L)" stroke-linecap="round" stroke-linejoin="round" stroke-opacity=".625"/><path d="M28.507 101.5h38.986" opacity=".4" fill="none" stroke="#fff" stroke-linecap="round"/><path d="M56 90l9-9" opacity=".2" fill="none" stroke="#fff" stroke-linecap="round"/><path d="M28.5 69.5h39v31h-39z" style="isolation:auto;mix-blend-mode:normal" color="#000" fill="none" stroke="#6490b1" stroke-linecap="round" stroke-linejoin="round"/><path d="M13.518 39.5h102.99" opacity=".1" fill="none" stroke="#fff"/></g></svg>