<svg width="64" height="64" xmlns:xlink="http://www.w3.org/1999/xlink" xmlns="http://www.w3.org/2000/svg"><defs><linearGradient id="a"><stop style="stop-color:#fff;stop-opacity:1" offset="0"/><stop style="stop-color:#fff;stop-opacity:.23529412" offset=".333"/><stop style="stop-color:#fff;stop-opacity:.15686275" offset="1"/><stop style="stop-color:#fff;stop-opacity:.39215687" offset="1"/></linearGradient><linearGradient x1="24" y1="5.898" x2="24" y2="14.253" id="q" xlink:href="#a" gradientUnits="userSpaceOnUse" gradientTransform="matrix(1.43243 0 0 1.43628 -2.378 -2.47)"/><linearGradient id="e"><stop style="stop-color:#fff;stop-opacity:1" offset="0"/><stop style="stop-color:#fff;stop-opacity:.23529412" offset=".063"/><stop style="stop-color:#fff;stop-opacity:.15686275" offset=".951"/><stop style="stop-color:#fff;stop-opacity:.39215687" offset="1"/></linearGradient><linearGradient id="h"><stop style="stop-color:#181818;stop-opacity:1" offset="0"/><stop style="stop-color:#181818;stop-opacity:0" offset="1"/></linearGradient><linearGradient id="b"><stop style="stop-color:#181818;stop-opacity:0" offset="0"/><stop style="stop-color:#181818;stop-opacity:1" offset=".5"/><stop style="stop-color:#181818;stop-opacity:0" offset="1"/></linearGradient><linearGradient x1="25.058" y1="47.028" x2="25.058" y2="39.999" id="k" xlink:href="#b" gradientUnits="userSpaceOnUse" gradientTransform="matrix(1.57143 0 0 .71429 -5.714 27.929)"/><linearGradient xlink:href="#c" id="l" x1="23.528" y1="15.913" x2="23.528" y2="48.148" gradientUnits="userSpaceOnUse" gradientTransform="translate(-1.23 -2.615) scale(1.38462)"/><linearGradient id="c"><stop offset="0" style="stop-color:#f4f4f4;stop-opacity:1"/><stop offset="1" style="stop-color:#dbdbdb;stop-opacity:1"/></linearGradient><linearGradient xlink:href="#d" id="m" gradientUnits="userSpaceOnUse" gradientTransform="matrix(.8075 0 0 .89472 -105.25 -6.483)" x1="169.214" y1="73.82" x2="169.214" y2="25.94"/><linearGradient id="d"><stop offset="0" style="stop-color:#000;stop-opacity:.31782946"/><stop offset="1" style="stop-color:#000;stop-opacity:.24031007"/></linearGradient><linearGradient x1="24" y1="5" x2="24" y2="43" id="n" xlink:href="#e" gradientUnits="userSpaceOnUse" gradientTransform="translate(-2.378 -2.378) scale(1.43243)"/><linearGradient id="f"><stop style="stop-color:#206b00;stop-opacity:1" offset="0"/><stop style="stop-color:#206b00;stop-opacity:0" offset="1"/></linearGradient><linearGradient id="g"><stop offset="0" style="stop-color:#9bdb4d;stop-opacity:1"/><stop offset="1" style="stop-color:#68b723;stop-opacity:1"/></linearGradient><linearGradient xlink:href="#f" id="o" x1="24" y1="15" x2="24" y2="17" gradientUnits="userSpaceOnUse" gradientTransform="matrix(1.45455 0 0 1.2 -2.545 2.6)"/><linearGradient xlink:href="#g" id="p" gradientUnits="userSpaceOnUse" gradientTransform="matrix(1.4103 0 0 1.41486 60.153 -3.28)" x1="-19.253" y1="5.853" x2="-19.253" y2="25.737"/><radialGradient cx="4.993" cy="43.5" r="2.5" fx="4.993" fy="43.5" id="i" xlink:href="#h" gradientUnits="userSpaceOnUse" gradientTransform="matrix(2.40454 0 0 1 41.986 15.5)"/><radialGradient cx="4.993" cy="43.5" r="2.5" fx="4.993" fy="43.5" id="j" xlink:href="#h" gradientUnits="userSpaceOnUse" gradientTransform="matrix(2.40454 0 0 1 -22.014 -102.5)"/></defs><path style="opacity:.35;fill:url(#i);fill-opacity:1;stroke:none;stroke-width:1.06199" d="M54 56.5h6v5h-6z"/><path style="opacity:.35;fill:url(#j);fill-opacity:1;stroke:none;stroke-width:1.06199" transform="scale(-1)" d="M-10-61.5h6v5h-6z"/><path style="opacity:.35;fill:url(#k);fill-opacity:1;stroke:none;stroke-width:1.06199" d="M10 56.5h44v5H10z"/><path style="color:#000;display:inline;overflow:visible;visibility:visible;fill:url(#l);fill-opacity:1;fill-rule:nonzero;stroke:none;stroke-width:1;stroke-opacity:.5;marker:none;enable-background:accumulate" d="M5 18v35.5c0 3.047 2.453 5.5 5.5 5.5h43c3.047 0 5.5-2.453 5.5-5.5V18Z"/><path style="color:#000;font-variation-settings:normal;display:inline;overflow:visible;visibility:visible;vector-effect:none;fill:none;fill-opacity:1;fill-rule:nonzero;stroke:url(#m);stroke-width:.999922;stroke-linecap:butt;stroke-linejoin:round;stroke-miterlimit:4;stroke-dasharray:none;stroke-dashoffset:0;stroke-opacity:1;-inkscape-stroke:none;marker:none;enable-background:accumulate;stop-color:#000" d="M4.5 20v33.5c0 3.324 2.676 6 6 6h43c3.324 0 6-2.676 6-6V20"/><rect style="fill:none;stroke:url(#n);stroke-width:.999997;stroke-linecap:round;stroke-linejoin:round;stroke-miterlimit:4;stroke-dasharray:none;stroke-dashoffset:0;stroke-opacity:1" y="5.5" x="5.5" ry="5" height="53" width="53" rx="5"/><path style="opacity:.25;vector-effect:none;fill:none;stroke:#5e553c;stroke-width:1;stop-color:#000" d="M12.207 25.5h39.586c.392 0 .707.363.707.813v26.375c0 .45-.315.812-.707.812H12.207c-.391 0-.707-.362-.707-.812V26.313c0-.45.316-.813.707-.813zm40.293 21h-41zm0-7h-41m41-7h-41m8.028-6.938L19.472 53m8.039-27.319L27.5 53m7.994-27.414L35.506 53m7.953-27.51L43.5 53"/><rect style="font-variation-settings:normal;opacity:.15;vector-effect:none;fill:url(#o);fill-opacity:1;stroke:none;stroke-width:1;stroke-linecap:butt;stroke-linejoin:miter;stroke-miterlimit:4;stroke-dasharray:none;stroke-dashoffset:0;stroke-opacity:1;marker:none;stop-color:#000" width="56" height="3" x="4" y="20" rx="0" ry="0"/><path style="color:#000;font-variation-settings:normal;display:inline;overflow:visible;visibility:visible;opacity:1;vector-effect:none;fill:url(#p);fill-opacity:1;fill-rule:nonzero;stroke:#206b00;stroke-width:1;stroke-linecap:butt;stroke-linejoin:miter;stroke-miterlimit:4;stroke-dasharray:none;stroke-dashoffset:0;stroke-opacity:.501961;-inkscape-stroke:none;marker:none;enable-background:accumulate;stop-color:#000;stop-opacity:1" d="M10.5 4.5c-3.324 0-6 2.676-6 6v9h55v-9c0-3.324-2.676-6-6-6z"/><path style="opacity:.35;fill:none;stroke:url(#q);stroke-width:1;stroke-linecap:round;stroke-linejoin:round;stroke-miterlimit:4;stroke-dasharray:none;stroke-dashoffset:0;stroke-opacity:1" d="M10.5 5.43c-2.77 0-5 2.23-5 5v8.07h53v-8.07c0-2.77-2.23-5-5-5z"/><path style="color:#000;display:inline;overflow:visible;visibility:visible;opacity:.3;fill:#fff;fill-opacity:1;fill-rule:nonzero;stroke:none;stroke-width:1.5;marker:none;enable-background:accumulate" d="M12.389 11.504A1.5 1.5 0 0 0 11 13a1.5 1.5 0 1 0 3 0 1.5 1.5 0 0 0-1.611-1.496zm38.5 0A1.5 1.5 0 0 0 49.5 13a1.5 1.5 0 1 0 3 0 1.5 1.5 0 0 0-1.611-1.496z"/><path style="color:#000;display:inline;overflow:visible;visibility:visible;opacity:.4;fill:#126400;fill-opacity:1;fill-rule:nonzero;stroke:none;stroke-width:1.5;marker:none;enable-background:accumulate;font-variation-settings:normal;vector-effect:none;stroke-linecap:butt;stroke-linejoin:miter;stroke-miterlimit:4;stroke-dasharray:none;stroke-dashoffset:0;stroke-opacity:1;-inkscape-stroke:none;stop-color:#000;stop-opacity:1" d="M12.389 10.504A1.5 1.5 0 0 0 11 12a1.5 1.5 0 1 0 3 0 1.5 1.5 0 0 0-1.611-1.496zm38.5 0A1.5 1.5 0 0 0 49.5 12a1.5 1.5 0 1 0 3 0 1.5 1.5 0 0 0-1.611-1.496z"/></svg>