<svg xmlns="http://www.w3.org/2000/svg" xmlns:xlink="http://www.w3.org/1999/xlink" height="64" width="64"><defs><linearGradient gradientTransform="matrix(.38038 0 0 .39792 13.914 13.556)" gradientUnits="userSpaceOnUse" xlink:href="#a" id="U" y2="37.81" x2="34.131" y1="41.608" x1="38.851"/><linearGradient id="a"><stop offset="0" style="stop-color:#fbac9b;stop-opacity:1"/><stop offset="1" style="stop-color:#fcfafc;stop-opacity:1"/></linearGradient><linearGradient gradientTransform="matrix(.54388 0 0 .56897 6.972 5.744)" gradientUnits="userSpaceOnUse" xlink:href="#b" id="T" y2="37.81" x2="34.131" y1="41.608" x1="38.851"/><linearGradient id="b"><stop offset="0" style="stop-color:#feffff;stop-opacity:1"/><stop offset="1" style="stop-color:#fe70ca;stop-opacity:1"/></linearGradient><linearGradient id="j"><stop offset="0" style="stop-color:#fff;stop-opacity:1"/><stop offset="1" style="stop-color:#fff;stop-opacity:0"/></linearGradient><linearGradient id="k"><stop offset="0" style="stop-color:#fff;stop-opacity:1"/><stop offset="1" style="stop-color:#fff;stop-opacity:0"/></linearGradient><linearGradient id="l"><stop offset="0" style="stop-color:#fff;stop-opacity:1"/><stop offset="1" style="stop-color:#fff;stop-opacity:0"/></linearGradient><linearGradient id="m"><stop offset="0" style="stop-color:#ff54d2;stop-opacity:0"/><stop offset=".324" style="stop-color:#ff54d2;stop-opacity:0"/><stop offset=".561" style="stop-color:#ff54d2;stop-opacity:.2521739"/><stop offset="1" style="stop-color:#ff54d2;stop-opacity:.47826087"/></linearGradient><linearGradient id="n"><stop offset="0" style="stop-color:#fff;stop-opacity:0"/><stop offset=".405" style="stop-color:#fff;stop-opacity:0"/><stop offset="1" style="stop-color:#fff;stop-opacity:.47826087"/></linearGradient><linearGradient id="o"><stop offset="0" style="stop-color:#fff;stop-opacity:0"/><stop offset=".405" style="stop-color:#fff;stop-opacity:0"/><stop offset="1" style="stop-color:#fff;stop-opacity:.47826087"/></linearGradient><linearGradient id="p"><stop offset="0" style="stop-color:#fff;stop-opacity:0"/><stop offset=".405" style="stop-color:#fff;stop-opacity:0"/><stop offset="1" style="stop-color:#fff;stop-opacity:.47826087"/></linearGradient><linearGradient gradientTransform="matrix(.16581 0 0 .12436 20.905 22.577)" gradientUnits="userSpaceOnUse" xlink:href="#c" id="L" y2="65.922" x2="68.313" y1="52.925" x1="68.313"/><linearGradient id="c"><stop offset="0" style="stop-color:#fff;stop-opacity:1"/><stop offset="1" style="stop-color:#fff;stop-opacity:0"/></linearGradient><linearGradient gradientTransform="translate(-11.088 16.76) scale(.46791)" gradientUnits="userSpaceOnUse" xlink:href="#d" id="K" y2="48.984" x2="92.696" y1="16.555" x1="92.696"/><linearGradient id="d"><stop offset="0" style="stop-color:#fff;stop-opacity:1"/><stop offset=".338" style="stop-color:#fff;stop-opacity:.23529412"/><stop offset=".62" style="stop-color:#fff;stop-opacity:.15686275"/><stop offset="1" style="stop-color:#fff;stop-opacity:.39215687"/></linearGradient><linearGradient id="q"><stop offset="0" style="stop-color:#ff54d2;stop-opacity:0"/><stop offset=".324" style="stop-color:#f62b68;stop-opacity:1"/><stop offset=".561" style="stop-color:#ff0105;stop-opacity:1"/><stop offset="1" style="stop-color:#ff54d2;stop-opacity:.47826087"/></linearGradient><linearGradient gradientTransform="matrix(.84225 0 0 -.84225 -45.559 59.433)" gradientUnits="userSpaceOnUse" xlink:href="#e" id="I" y2="48.984" x2="92.696" y1="16.555" x1="92.696"/><linearGradient id="e"><stop offset="0" style="stop-color:#fff;stop-opacity:1"/><stop offset=".338" style="stop-color:#fff;stop-opacity:.23529412"/><stop offset=".62" style="stop-color:#fff;stop-opacity:.15686275"/><stop offset="1" style="stop-color:#fff;stop-opacity:.39215687"/></linearGradient><linearGradient id="r"><stop style="stop-color:#000;stop-opacity:1" offset="0"/><stop style="stop-color:#000;stop-opacity:.3137255" offset=".5"/><stop style="stop-color:#000;stop-opacity:0" offset="1"/></linearGradient><linearGradient id="s"><stop offset="0" style="stop-color:#612f91;stop-opacity:1"/><stop offset="1" style="stop-color:#1a4aa2;stop-opacity:1"/></linearGradient><linearGradient id="t"><stop offset="0" style="stop-color:#07132d;stop-opacity:1"/><stop offset="1" style="stop-color:#425479;stop-opacity:1"/></linearGradient><linearGradient id="u"><stop offset="0" style="stop-color:#2d3955;stop-opacity:1"/><stop offset=".725" style="stop-color:#2b3853;stop-opacity:1"/><stop offset=".75" style="stop-color:#192640;stop-opacity:1"/><stop offset="1" style="stop-color:#08142e;stop-opacity:1"/></linearGradient><linearGradient gradientTransform="translate(-68.54 -3.561) scale(1.0918)" gradientUnits="userSpaceOnUse" xlink:href="#f" id="D" y2="48.984" x2="92.696" y1="16.555" x1="92.696"/><linearGradient id="f"><stop offset="0" style="stop-color:#fff;stop-opacity:1"/><stop offset=".338" style="stop-color:#fff;stop-opacity:.23529412"/><stop offset=".62" style="stop-color:#fff;stop-opacity:.15686275"/><stop offset="1" style="stop-color:#fff;stop-opacity:.39215687"/></linearGradient><linearGradient gradientTransform="translate(-74.284 -5.594) scale(1.15419)" gradientUnits="userSpaceOnUse" xlink:href="#g" id="C" y2="48.631" x2="91.566" y1="16.543" x1="91.566"/><linearGradient id="g"><stop offset="0" style="stop-color:#7a8498;stop-opacity:1"/><stop offset="1" style="stop-color:#34405c;stop-opacity:1"/></linearGradient><linearGradient gradientTransform="translate(-17.176 1.333) scale(.95833)" gradientUnits="userSpaceOnUse" xlink:href="#h" id="B" y2="56.115" x2="51.2" y1="8.114" x1="51.2"/><linearGradient id="h"><stop offset="0" style="stop-color:#b6b6b6;stop-opacity:1"/><stop offset=".331" style="stop-color:#a4a4a4;stop-opacity:1"/><stop offset="1" style="stop-color:#c5c5c5;stop-opacity:1"/></linearGradient><linearGradient gradientTransform="translate(-135.945 -32.843) scale(2.32687)" gradientUnits="userSpaceOnUse" xlink:href="#i" id="A" y2="40.496" x2="71.204" y1="15.369" x1="71.204"/><linearGradient id="i"><stop offset="0" style="stop-color:#fff;stop-opacity:1"/><stop offset=".424" style="stop-color:#fff;stop-opacity:.23529412"/><stop offset=".821" style="stop-color:#fff;stop-opacity:.15686275"/><stop offset="1" style="stop-color:#fff;stop-opacity:.39215687"/></linearGradient><linearGradient id="w"><stop offset="0" style="stop-color:#000;stop-opacity:1"/><stop offset="1" style="stop-color:#000;stop-opacity:0"/></linearGradient><radialGradient gradientTransform="matrix(.54388 0 0 .56897 11.534 8.506)" gradientUnits="userSpaceOnUse" xlink:href="#j" id="S" fy="39.709" fx="36.491" r="3.159" cy="39.709" cx="36.491"/><radialGradient gradientTransform="matrix(1.90662 -1.10079 .62631 1.0848 -69.064 21.715)" gradientUnits="userSpaceOnUse" xlink:href="#k" id="R" fy="39.709" fx="36.491" r="3.159" cy="39.709" cx="36.491"/><radialGradient gradientTransform="matrix(2.36938 -1.36796 .77832 1.3481 -80.223 35.17)" gradientUnits="userSpaceOnUse" xlink:href="#l" id="Q" fy="39.709" fx="36.491" r="3.159" cy="39.709" cx="36.491"/><radialGradient gradientTransform="rotate(-135 42.963 56.395) scale(2.14286)" gradientUnits="userSpaceOnUse" xlink:href="#m" id="P" fy="31.405" fx="32.373" r="3.857" cy="31.405" cx="32.373"/><radialGradient gradientTransform="matrix(1.29715 1.80124 -1.7389 1.25225 44.617 -65.652)" gradientUnits="userSpaceOnUse" xlink:href="#n" id="O" fy="31.405" fx="32.373" r="3.857" cy="31.405" cx="32.373"/><radialGradient gradientTransform="matrix(0 2.2197 -2.14286 0 99.304 -39.87)" gradientUnits="userSpaceOnUse" xlink:href="#o" id="N" fy="31.405" fx="32.373" r="3.857" cy="31.405" cx="32.373"/><radialGradient gradientTransform="matrix(2.14406 .5745 -.55461 2.06985 -20.001 -51.612)" gradientUnits="userSpaceOnUse" xlink:href="#p" id="M" fy="31.405" fx="32.373" r="3.857" cy="31.405" cx="32.373"/><radialGradient gradientTransform="rotate(180 50.69 49.654) scale(2.14286)" gradientUnits="userSpaceOnUse" xlink:href="#q" id="J" fy="31.405" fx="32.373" r="3.857" cy="31.405" cx="32.373"/><radialGradient gradientTransform="matrix(.57547 0 0 .5407 -23.241 -19.788)" gradientUnits="userSpaceOnUse" xlink:href="#r" id="H" fy="95.388" fx="95.838" r="9.498" cy="95.388" cx="95.838"/><radialGradient gradientTransform="matrix(0 .5277 -.69656 0 34.78 14.552)" gradientUnits="userSpaceOnUse" xlink:href="#s" id="G" r="20.397" cy="3.99" cx="23.896"/><radialGradient gradientTransform="matrix(0 2.01152 -4.63364 0 130.415 -43.13)" gradientUnits="userSpaceOnUse" xlink:href="#t" id="F" fy="21.239" fx="32" r="10.498" cy="21.239" cx="32"/><radialGradient gradientTransform="rotate(90 106.03 -43.83) scale(1.83613)" gradientUnits="userSpaceOnUse" xlink:href="#u" id="E" fy="16.448" fx="91.35" r="15.639" cy="16.448" cx="91.35"/><radialGradient gradientTransform="matrix(0 4.15665 -5.4867 0 53.893 -97.44)" gradientUnits="userSpaceOnUse" xlink:href="#v" id="z" fy="3.99" fx="23.896" r="20.397" cy="3.99" cx="23.896"/><radialGradient gradientTransform="matrix(0 1.23165 -1.62575 0 18.487 -28.722)" gradientUnits="userSpaceOnUse" id="v" r="20.397" cy="3.99" cx="23.896"><stop offset="0" style="stop-color:#fff;stop-opacity:1"/><stop offset=".262" style="stop-color:#ddd;stop-opacity:1"/><stop offset=".661" style="stop-color:#abacae;stop-opacity:1"/><stop offset="1" style="stop-color:#89898b;stop-opacity:1"/></radialGradient><radialGradient r="62.769" fy="185.297" fx="99.189" cy="185.297" cx="99.189" gradientTransform="matrix(.38235 0 0 .11152 -5.925 36.336)" gradientUnits="userSpaceOnUse" id="x" xlink:href="#w"/><radialGradient r="62.769" fy="185.297" fx="99.189" cy="185.297" cx="99.189" gradientTransform="matrix(.2549 0 0 .07966 6.716 44.24)" gradientUnits="userSpaceOnUse" id="y" xlink:href="#w"/></defs><path style="opacity:.2;fill:url(#x);fill-opacity:1;stroke:none" d="M56 57.002a24 6.999 0 1 1-48 0 24 6.999 0 1 1 48 0z" transform="translate(0 -.002)"/><path d="M48 59.002a16 4.999 0 1 1-32 0 16 4.999 0 1 1 32 0z" style="opacity:.4;fill:url(#y);fill-opacity:1;stroke:none" transform="translate(0 -.002)"/><path d="M32 2.5C15.723 2.5 2.5 15.723 2.5 32S15.723 61.5 32 61.5 61.5 48.277 61.5 32 48.277 2.5 32 2.5Z" style="color:#000;display:inline;overflow:visible;visibility:visible;fill:url(#z);fill-opacity:1;fill-rule:nonzero;stroke:none;stroke-width:.99999994;marker:none;enable-background:accumulate"/><path d="M32 2.5C15.723 2.5 2.5 15.723 2.5 32S15.723 61.5 32 61.5 61.5 48.277 61.5 32 48.277 2.5 32 2.5Z" style="color:#000;display:inline;overflow:visible;visibility:visible;opacity:.3;fill:none;stroke:#000;stroke-width:1;stroke-linecap:round;stroke-linejoin:round;stroke-miterlimit:4;stroke-dasharray:none;stroke-dashoffset:0;stroke-opacity:1;marker:none;enable-background:accumulate"/><path d="M60.5 32c0 15.74-12.76 28.5-28.5 28.5S3.5 47.74 3.5 32 16.26 3.5 32 3.5 60.5 16.26 60.5 32z" style="color:#000;display:inline;overflow:visible;visibility:visible;opacity:.8;fill:none;stroke:url(#A);stroke-width:1;stroke-linecap:round;stroke-linejoin:round;stroke-miterlimit:4;stroke-dasharray:none;stroke-dashoffset:0;stroke-opacity:1;marker:none;enable-background:accumulate"/><path d="M32 9C19.309 9 9 19.31 9 32c0 12.691 10.31 23 23 23 12.691 0 23-10.31 23-23C55 19.309 44.69 9 32 9Z" style="color:#000;display:inline;overflow:visible;visibility:visible;fill:url(#B);fill-opacity:1;fill-rule:nonzero;stroke:none;stroke-width:.99999994;marker:none;enable-background:accumulate"/><path d="M32 9.5c-12.415 0-22.5 10.31-22.5 23 0 12.691 10.086 23 22.5 23 12.415 0 22.5-10.31 22.5-23 0-12.691-10.086-23-22.5-23Z" style="color:#000;display:inline;overflow:visible;visibility:visible;opacity:.05;fill:none;stroke:#000;stroke-width:1;stroke-opacity:1;marker:none;enable-background:accumulate"/><path d="M50.5 32a18.5 18.5 0 0 1-37 0 18.5 18.5 0 1 1 37 0z" style="color:#000;display:inline;overflow:visible;visibility:visible;fill:url(#C);fill-opacity:1;fill-rule:nonzero;stroke:none;stroke-width:.79069769;marker:none;enable-background:accumulate"/><path d="M50.5 32a18.5 18.5 0 0 1-37 0 18.5 18.5 0 1 1 37 0z" style="color:#000;display:inline;overflow:visible;visibility:visible;opacity:.3;fill:none;stroke:#000;stroke-width:1.00000012;stroke-linecap:butt;stroke-linejoin:miter;stroke-miterlimit:4;stroke-dasharray:none;stroke-dashoffset:0;stroke-opacity:1;marker:none;enable-background:accumulate"/><path d="M49.5 32a17.5 17.5 0 0 1-35 0 17.5 17.5 0 1 1 35 0z" style="color:#000;display:inline;overflow:visible;visibility:visible;opacity:.3;fill:none;stroke:url(#D);stroke-width:1.00000012;stroke-linecap:butt;stroke-linejoin:miter;stroke-miterlimit:4;stroke-dasharray:none;stroke-dashoffset:0;stroke-opacity:1;marker:none;enable-background:accumulate"/><path d="M46.5 32a14.5 14.5 0 1 1-29 0 14.5 14.5 0 1 1 29 0z" style="color:#000;display:inline;overflow:visible;visibility:visible;fill:url(#E);fill-opacity:1;stroke:none;stroke-width:1.15846562;marker:none;enable-background:accumulate"/><path d="M32 21.502c-5.792 0-10.498 4.705-10.498 10.498 0 5.792 4.706 10.498 10.498 10.498 5.792 0 10.498-4.705 10.498-10.498 0-5.792-4.705-10.498-10.498-10.498z" style="fill:url(#F);fill-opacity:1;stroke:none"/><path d="M32 21.502c-5.792 0-10.498 4.705-10.498 10.498 0 5.792 4.706 10.498 10.498 10.498 5.792 0 10.498-4.705 10.498-10.498 0-5.792-4.705-10.498-10.498-10.498z" style="opacity:.3;fill:none;stroke:#000;stroke-width:1.00365412;stroke-linecap:round;stroke-linejoin:round;stroke-miterlimit:4;stroke-dasharray:none;stroke-dashoffset:0;stroke-opacity:1"/><path d="M32 23.502c-4.689 0-8.498 3.809-8.498 8.498 0 4.689 3.81 8.498 8.498 8.498 4.689 0 8.498-3.809 8.498-8.498 0-4.689-3.809-8.498-8.498-8.498z" style="fill:#2f3b55;fill-opacity:1;stroke:none"/><path d="M32 27.502A4.501 4.501 0 0 0 27.502 32 4.501 4.501 0 0 0 32 36.498 4.501 4.501 0 0 0 36.498 32 4.501 4.501 0 0 0 32 27.502z" style="fill:url(#G);fill-opacity:1;stroke:url(#linearGradient6145-6);stroke-width:1.00365412;stroke-linecap:round;stroke-linejoin:round;stroke-miterlimit:4;stroke-dasharray:none;stroke-dashoffset:0"/><path d="M32 27.738A4.265 4.265 0 0 0 27.738 32 4.265 4.265 0 0 0 32 36.262 4.265 4.265 0 0 0 36.262 32 4.265 4.265 0 0 0 32 27.738z" style="opacity:.5;fill:url(#H);fill-opacity:1;stroke:none"/><path d="M45.5 32a13.5 13.5 0 1 0-27 0 13.5 13.5 0 0 0 27 0z" style="color:#000;display:inline;overflow:visible;visibility:visible;opacity:.3;fill:none;stroke:url(#I);stroke-width:1.00000012;stroke-linecap:butt;stroke-linejoin:miter;stroke-miterlimit:4;stroke-dasharray:none;stroke-dashoffset:0;stroke-opacity:1;marker:none;enable-background:accumulate"/><path d="M46.5 32.5a14.5 14.5 0 1 1-29 0 14.5 14.5 0 1 1 29 0z" style="color:#000;display:inline;overflow:visible;visibility:visible;opacity:.3;fill:none;stroke:#000;stroke-width:1;stroke-linecap:butt;stroke-linejoin:miter;stroke-miterlimit:4;stroke-dasharray:none;stroke-dashoffset:0;stroke-opacity:1;marker:none;enable-background:accumulate"/><path d="M32 23.502c-4.689 0-8.498 3.809-8.498 8.498 0 4.689 3.81 8.498 8.498 8.498 4.689 0 8.498-3.809 8.498-8.498 0-4.689-3.809-8.498-8.498-8.498z" style="opacity:.3;fill:none;stroke:#000;stroke-width:1.00365412;stroke-linecap:round;stroke-linejoin:round;stroke-miterlimit:4;stroke-dasharray:none;stroke-dashoffset:0;stroke-opacity:1"/><path d="M24.147 30.475a8 8 0 0 1 5.782-6.202L32 32z" style="color:#000;display:inline;overflow:visible;visibility:visible;opacity:.4;fill:url(#J);fill-opacity:1;fill-rule:nonzero;stroke:none;stroke-width:1;marker:none;enable-background:accumulate"/><path d="M39.5 32a7.5 7.5 0 0 1-15 0 7.5 7.5 0 1 1 15 0z" style="color:#000;display:inline;overflow:visible;visibility:visible;opacity:.3;fill:none;stroke:url(#K);stroke-width:1.00000024;stroke-linecap:butt;stroke-linejoin:miter;stroke-miterlimit:4;stroke-dasharray:none;stroke-dashoffset:0;stroke-opacity:1;marker:none;enable-background:accumulate"/><path d="M33.894 30.58a1.894 1.42 0 0 1-3.788 0 1.894 1.42 0 1 1 3.788 0z" style="color:#000;display:inline;overflow:visible;visibility:visible;opacity:.5;fill:url(#L);fill-opacity:1;stroke:none;stroke-width:1;marker:none;enable-background:accumulate"/><path d="M40 32a8 8 0 0 1-.505 2.798L32 32z" style="color:#000;display:inline;overflow:visible;visibility:visible;opacity:.4;fill:url(#M);fill-opacity:1;fill-rule:nonzero;stroke:none;stroke-width:1;marker:none;enable-background:accumulate"/><path d="M32.72 39.968a8 8 0 0 1-2.558-.182L32 32z" style="color:#000;display:inline;overflow:visible;visibility:visible;opacity:.4;fill:url(#N);fill-opacity:1;fill-rule:nonzero;stroke:none;stroke-width:1;marker:none;enable-background:accumulate"/><path d="M38.795 36.223a8 8 0 0 1-3.737 3.17L32 32z" style="color:#000;display:inline;overflow:visible;visibility:visible;opacity:.4;fill:url(#O);fill-opacity:1;fill-rule:nonzero;stroke:none;stroke-width:1;marker:none;enable-background:accumulate"/><path d="M26.343 24.343a8 8 0 0 1 11.314 0L32 30z" style="color:#000;display:inline;overflow:visible;visibility:visible;opacity:.5;fill:url(#P);fill-opacity:1;fill-rule:nonzero;stroke:none;stroke-width:1;marker:none;enable-background:accumulate"/><path d="M44.63 34.462a4.917 8.643 60 1 1-14.97 8.642 4.917 8.643 60 1 1 14.97-8.642Z" style="color:#000;display:inline;overflow:visible;visibility:visible;opacity:.2;fill:url(#Q);fill-opacity:1;fill-rule:nonzero;stroke:none;stroke-width:1;marker:none;enable-background:accumulate"/><path d="M31.403 21.145A3.957 6.955 60 1 1 19.357 28.1a3.957 6.955 60 1 1 12.046-6.955Z" style="color:#000;display:inline;overflow:visible;visibility:visible;opacity:.4;fill:url(#R);fill-opacity:1;fill-rule:nonzero;stroke:none;stroke-width:1;marker:none;enable-background:accumulate"/><path d="M33.1 31.099a1.718 1.797 0 1 1-3.437 0 1.718 1.797 0 1 1 3.436 0z" style="color:#000;display:inline;overflow:visible;visibility:visible;opacity:.8;fill:url(#S);fill-opacity:1;fill-rule:nonzero;stroke:none;stroke-width:1;marker:none;enable-background:accumulate"/><path d="M28.537 28.337a1.718 1.797 0 1 1-3.436 0 1.718 1.797 0 1 1 3.436 0z" style="color:#000;display:inline;overflow:visible;visibility:visible;opacity:.4;fill:url(#T);fill-opacity:1;fill-rule:nonzero;stroke:none;stroke-width:1;marker:none;enable-background:accumulate"/><path d="M28.996 29.358a1.202 1.257 0 1 1-2.403 0 1.202 1.257 0 1 1 2.403 0z" style="color:#000;display:inline;overflow:visible;visibility:visible;opacity:.4;fill:url(#U);fill-opacity:1;fill-rule:nonzero;stroke:none;stroke-width:1;marker:none;enable-background:accumulate"/></svg>