<svg width="64" height="64" xmlns:xlink="http://www.w3.org/1999/xlink" xmlns="http://www.w3.org/2000/svg"><defs><linearGradient id="c"><stop style="stop-color:#fff;stop-opacity:1" offset="0"/><stop style="stop-color:#fff;stop-opacity:.23529412" offset=".279"/><stop style="stop-color:#fff;stop-opacity:.15686275" offset=".717"/><stop style="stop-color:#fff;stop-opacity:.39215687" offset="1"/></linearGradient><linearGradient x1="24" y1="5" x2="24" y2="43" id="n" xlink:href="#a" gradientUnits="userSpaceOnUse" gradientTransform="translate(-2.378 -2.378) scale(1.43243)"/><linearGradient id="a"><stop style="stop-color:#fff;stop-opacity:1" offset="0"/><stop style="stop-color:#fff;stop-opacity:.23529412" offset=".063"/><stop style="stop-color:#fff;stop-opacity:.15686275" offset=".951"/><stop style="stop-color:#fff;stop-opacity:.39215687" offset="1"/></linearGradient><linearGradient id="f"><stop style="stop-color:#181818;stop-opacity:1" offset="0"/><stop style="stop-color:#181818;stop-opacity:0" offset="1"/></linearGradient><linearGradient id="g"><stop style="stop-color:#181818;stop-opacity:1" offset="0"/><stop style="stop-color:#181818;stop-opacity:0" offset="1"/></linearGradient><linearGradient id="b"><stop style="stop-color:#181818;stop-opacity:0" offset="0"/><stop style="stop-color:#181818;stop-opacity:1" offset=".5"/><stop style="stop-color:#181818;stop-opacity:0" offset="1"/></linearGradient><linearGradient x1="25.058" y1="47.028" x2="25.058" y2="39.999" id="l" xlink:href="#b" gradientUnits="userSpaceOnUse" gradientTransform="matrix(1.57143 0 0 .71429 -5.714 27.929)"/><linearGradient xlink:href="#c" id="i" gradientUnits="userSpaceOnUse" gradientTransform="matrix(1.39702 0 0 1.39697 -10.902 5.664)" x1="34.502" y1="3.804" x2="23.072" y2="46.462"/><linearGradient y2="47.013" x2="25.132" y1=".985" x1="25.132" gradientTransform="matrix(1.57143 0 0 .95605 -5.714 12.904)" gradientUnits="userSpaceOnUse" id="h" xlink:href="#d"/><linearGradient id="d"><stop offset="0" style="stop-color:#586e75;stop-opacity:1"/><stop offset="1" style="stop-color:#073642;stop-opacity:1"/></linearGradient><linearGradient x1="25.132" y1=".985" x2="25.132" y2="47.013" id="m" xlink:href="#e" gradientUnits="userSpaceOnUse" gradientTransform="matrix(1.57143 0 0 .95605 -3.714 13.088)"/><linearGradient id="e"><stop offset="0" style="stop-color:#fdf6e3;stop-opacity:1"/><stop offset="1" style="stop-color:#eee8d5;stop-opacity:1"/></linearGradient><linearGradient xlink:href="#d" id="o" gradientUnits="userSpaceOnUse" gradientTransform="matrix(1.51638 .40322 -.2486 .92087 1.955 .187)" x1="17.234" y1="-1.663" x2="26.343" y2="54.478"/><radialGradient cx="4.993" cy="43.5" r="2.5" fx="4.993" fy="43.5" id="j" xlink:href="#f" gradientUnits="userSpaceOnUse" gradientTransform="matrix(2.40454 0 0 1 41.986 15.5)"/><radialGradient cx="4.993" cy="43.5" r="2.5" fx="4.993" fy="43.5" id="k" xlink:href="#g" gradientUnits="userSpaceOnUse" gradientTransform="matrix(2.40454 0 0 1 -22.014 -102.5)"/></defs><rect style="color:#000;font-variation-settings:normal;display:inline;overflow:visible;visibility:visible;vector-effect:none;fill:url(#h);fill-opacity:1;fill-rule:nonzero;stroke:#001921;stroke-width:1;stroke-linecap:butt;stroke-linejoin:round;stroke-miterlimit:4;stroke-dasharray:none;stroke-dashoffset:0;stroke-opacity:.501961;-inkscape-stroke:none;marker:none;enable-background:accumulate;stop-color:#000;opacity:1;stop-opacity:1" y="12.372" x="-4.193" ry="6" rx="6" height="53.638" width="53.64" transform="rotate(-14.999) skewX(.001)"/><rect style="fill:none;stroke:url(#i);stroke-width:.999992;stroke-linecap:round;stroke-linejoin:round;stroke-miterlimit:4;stroke-dasharray:none;stroke-dashoffset:0;stroke-opacity:1;opacity:.3" y="13.348" x="-3.218" ry="5" height="51.688" width="51.69" rx="5" transform="rotate(-14.999) skewX(.001)"/><path style="opacity:.6;fill:url(#j);fill-opacity:1;stroke:none;stroke-width:1.06199" d="M54 56.5h6v5h-6z"/><path style="opacity:.6;fill:url(#k);fill-opacity:1;stroke:none;stroke-width:1.06199" transform="scale(-1)" d="M-10-61.5h6v5h-6z"/><path style="opacity:.6;fill:url(#l);fill-opacity:1;stroke:none;stroke-width:1.06199" d="M10 56.5h44v5H10z"/><rect style="color:#000;display:inline;overflow:visible;visibility:visible;fill:url(#m);fill-opacity:1;fill-rule:nonzero;stroke:#aa8e37;stroke-width:1;stroke-opacity:.501961;marker:none;enable-background:accumulate;font-variation-settings:normal;opacity:1;vector-effect:none;stroke-linecap:butt;stroke-linejoin:round;stroke-miterlimit:4;stroke-dasharray:none;stroke-dashoffset:0;-inkscape-stroke:none;stop-color:#000;stop-opacity:1" y="4.5" x="4.5" ry="6" rx="6" height="55" width="55"/><rect style="opacity:1;fill:none;stroke:url(#n);stroke-width:.999997;stroke-linecap:round;stroke-linejoin:round;stroke-miterlimit:4;stroke-dasharray:none;stroke-dashoffset:0;stroke-opacity:1" y="5.5" x="5.5" ry="5" height="53" width="53" rx="5"/><path style="opacity:.2;fill:none;stroke:#aa8e37;stroke-width:1px;stroke-linecap:butt;stroke-linejoin:miter;stroke-opacity:1" d="M15 12.5h3.13m.448 0h2.907m.468 0h2.593m.427 0h1.118m.447 0h2.505m.491 0h6.575m.447 0h5.009m.447 0h1.52M15 15.5h4.854m.565 0h2.319m.429 0h1.144m.466 0h2.136m.448 0h2.19m.414 0h3.44m.448 0h4.539M15 18.487h4.108m.432 0h6.766m.415 0h3.281m.42 0h3.07m.44 0h2.616m.42 0 4.113.026M15 21.5h5.712m.449 0h6.174m.426 0h2.426m.447 0h5.775m.389 0h3.958m.447 0h1.566m.448 0h.866M15 24.5h2.132m.655 0h7.895M15 37.5h4.854m.565 0h2.319m.429 0h1.144m.466 0h2.136m.448 0h2.19m.414 0h3.44M15 41.46h4.108m.432 0h6.766m.415 0h3.281m11.596.08H48.3M15 34.5h5.712m.449 0h6.174m.426 0h2.426m.447 0h5.775M15 28.5h3.13m.448 0h2.907m.468 0h2.593m.427 0h1.118m.447 0h2.505m.491 0h6.575m.447 0h5.009M15 31.5h5.272m.415 0h5.598m.427 0H28.9m.413 0h5.267m.423 0h5.752M15 44.5h4.927m.529 0h2.172m.508 0h1.084m.345 0h2.138m.284 0H38.31m.532 0h3.023m.406 0h.763m-22.421 3h1.607m-7.22 0h5.142m2.489 0h3.74m.395 0h5.489m.426 0h3.724m.375 0h.767m.42 0h4.728m.483 0h2.476m-25.041 3h2.269M15 50.5h5.142m3.232 0h3.19"/><path d="M37 25c1.446 0 2.212.214 2.938.656.72.436 1.062 1.13 1.062 2.063V30.5c0 .556.248.944.688 1.219.433.269 1.413.437 2.312.437v1.688c-1.771 0-3 .576-3 1.687v2.531c0 1.022-.327 1.796-1 2.25-.679.46-1.46.676-3 .688v-1.625c.766-.012 1.16-.155 1.5-.406.34-.251.5-.604.5-1.094v-2.688c0-1.2.6-1.91 2.125-2.125v-.125C39.6 32.704 39 31.97 39 30.781v-2.656c0-.49-.16-.818-.5-1.063-.346-.25-.74-.407-1.5-.437zm-10 0v1.625c-.759.03-1.153.187-1.5.437-.34.245-.5.573-.5 1.063v2.656c0 1.19-.6 1.923-2.125 2.156v.125c1.526.216 2.125.925 2.125 2.125v2.688c0 .49.16.843.5 1.094.34.25.734.394 1.5.406V41c-1.538-.012-2.32-.227-3-.688-.672-.454-1-1.228-1-2.25v-2.53c0-1.112-1.228-1.688-3-1.688v-1.688c.9 0 1.88-.168 2.313-.437.44-.275.687-.663.687-1.219v-2.781c0-.932.344-1.627 1.063-2.063C24.789 25.214 25.555 25 27 25z" style="color:#000;font-style:normal;font-variant:normal;font-weight:600;font-stretch:normal;font-size:19px;line-height:125%;font-family:'Open Sans';-inkscape-font-specification:'Open Sans Semi-Bold';text-align:start;letter-spacing:0;word-spacing:0;writing-mode:lr-tb;text-anchor:start;clip-rule:nonzero;display:inline;overflow:visible;visibility:visible;isolation:auto;mix-blend-mode:normal;color-interpolation:sRGB;color-interpolation-filters:linearRGB;solid-color:#000;solid-opacity:1;fill:#fff;fill-opacity:1;fill-rule:nonzero;stroke:none;stroke-width:1;stroke-linecap:butt;stroke-linejoin:miter;stroke-miterlimit:4;stroke-dasharray:none;stroke-dashoffset:0;stroke-opacity:1;marker:none;color-rendering:auto;image-rendering:auto;shape-rendering:auto;text-rendering:auto;enable-background:accumulate"/><path style="color:#000;font-style:normal;font-variant:normal;font-weight:600;font-stretch:normal;font-size:19px;line-height:125%;font-family:'Open Sans';-inkscape-font-specification:'Open Sans Semi-Bold';text-align:start;letter-spacing:0;word-spacing:0;writing-mode:lr-tb;text-anchor:start;clip-rule:nonzero;display:inline;overflow:visible;visibility:visible;isolation:auto;mix-blend-mode:normal;color-interpolation:sRGB;color-interpolation-filters:linearRGB;solid-color:#000;solid-opacity:1;fill:url(#o);fill-opacity:1;fill-rule:nonzero;stroke:none;stroke-width:1;stroke-linecap:butt;stroke-linejoin:miter;stroke-miterlimit:4;stroke-dasharray:none;stroke-dashoffset:0;stroke-opacity:1;marker:none;color-rendering:auto;image-rendering:auto;shape-rendering:auto;text-rendering:auto;enable-background:accumulate" d="M27 24c-1.445 0-2.211.214-2.937.656-.72.436-1.063 1.13-1.063 2.063V29.5c0 .556-.247.944-.687 1.219-.433.269-1.413.437-2.313.437v1.688c1.772 0 3 .576 3 1.687v2.531c0 1.022.328 1.796 1 2.25.68.46 1.462.676 3 .688v-1.625c-.766-.012-1.16-.155-1.5-.406-.34-.251-.5-.604-.5-1.094v-2.688c0-1.2-.6-1.91-2.125-2.125v-.125C24.401 31.704 25 30.97 25 29.781v-2.656c0-.49.16-.818.5-1.063.347-.25.741-.407 1.5-.437zm10 0v1.625c.76.03 1.154.187 1.5.437.34.245.5.573.5 1.063v2.656c0 1.19.6 1.923 2.125 2.156v.125C39.6 32.278 39 32.987 39 34.187v2.688c0 .49-.16.843-.5 1.094-.34.25-.734.394-1.5.406V40c1.54-.012 2.321-.227 3-.688.673-.454 1-1.228 1-2.25v-2.53c0-1.112 1.229-1.688 3-1.688v-1.688c-.899 0-1.88-.168-2.312-.437-.44-.275-.688-.663-.688-1.219v-2.781c0-.932-.343-1.627-1.062-2.063C39.212 24.214 38.446 24 37 24z"/></svg>