<svg width="64" height="64" xmlns:xlink="http://www.w3.org/1999/xlink" xmlns="http://www.w3.org/2000/svg"><defs><linearGradient id="c"><stop style="stop-color:#fff;stop-opacity:1" offset="0"/><stop style="stop-color:#fff;stop-opacity:.23529412" offset=".063"/><stop style="stop-color:#fff;stop-opacity:.15686275" offset=".951"/><stop style="stop-color:#fff;stop-opacity:.39215687" offset="1"/></linearGradient><linearGradient id="f"><stop style="stop-color:#181818;stop-opacity:1" offset="0"/><stop style="stop-color:#181818;stop-opacity:0" offset="1"/></linearGradient><linearGradient id="a"><stop style="stop-color:#181818;stop-opacity:0" offset="0"/><stop style="stop-color:#181818;stop-opacity:1" offset=".5"/><stop style="stop-color:#181818;stop-opacity:0" offset="1"/></linearGradient><linearGradient xlink:href="#a" id="j" gradientUnits="userSpaceOnUse" gradientTransform="matrix(1.57143 0 0 .71429 -5.714 27.929)" x1="25.058" y1="47.028" x2="25.058" y2="39.999"/><linearGradient xlink:href="#b" id="k" gradientUnits="userSpaceOnUse" gradientTransform="translate(-1.846 -3.256) scale(1.41026)" x1="23.528" y1="6.083" x2="23.528" y2="44.233"/><linearGradient xlink:href="#c" id="l" gradientUnits="userSpaceOnUse" gradientTransform="matrix(1.43243 0 0 1.43628 -2.378 -2.47)" x1="24" y1="5" x2="24" y2="43"/><linearGradient id="b"><stop style="stop-color:#64baff;stop-opacity:1" offset="0"/><stop style="stop-color:#3689e6;stop-opacity:1" offset="1"/></linearGradient><linearGradient id="e"><stop offset="0" style="stop-color:#fff;stop-opacity:1"/><stop offset=".508" style="stop-color:#fff;stop-opacity:.23529412"/><stop offset=".835" style="stop-color:#fff;stop-opacity:.15686275"/><stop offset="1" style="stop-color:#fff;stop-opacity:.39215687"/></linearGradient><linearGradient id="g"><stop offset="0" style="stop-color:#3d3d3d;stop-opacity:1"/><stop offset=".5" style="stop-color:#686868;stop-opacity:.49803922"/><stop offset="1" style="stop-color:#686868;stop-opacity:0"/></linearGradient><linearGradient x1="2035.165" y1="3208.074" x2="2035.165" y2="3241.997" id="n" xlink:href="#d" gradientUnits="userSpaceOnUse" gradientTransform="matrix(1.11138 0 0 .83086 -2217.894 -2631.159)"/><linearGradient id="d"><stop offset="0" style="stop-color:#9bdb4d;stop-opacity:1"/><stop offset="1" style="stop-color:#68b723;stop-opacity:1"/></linearGradient><linearGradient x1="71.204" y1="6.238" x2="71.204" y2="44.341" id="o" xlink:href="#e" gradientUnits="userSpaceOnUse" gradientTransform="translate(-4.346 29.496) scale(.72973)"/><radialGradient cx="4.993" cy="43.5" r="2.5" fx="4.993" fy="43.5" id="h" xlink:href="#f" gradientUnits="userSpaceOnUse" gradientTransform="matrix(2.40454 0 0 1 41.986 15.5)"/><radialGradient cx="4.993" cy="43.5" r="2.5" fx="4.993" fy="43.5" id="i" xlink:href="#f" gradientUnits="userSpaceOnUse" gradientTransform="matrix(2.40454 0 0 1 -22.014 -102.5)"/><radialGradient r="62.769" fy="186.171" fx="99.157" cy="186.171" cx="99.157" gradientTransform="matrix(.17525 0 0 .05576 30.623 50.119)" gradientUnits="userSpaceOnUse" id="m" xlink:href="#g"/></defs><path style="opacity:.6;fill:url(#h);fill-opacity:1;stroke:none;stroke-width:1.06199" d="M54 56.5h6v5h-6z"/><path style="opacity:.6;fill:url(#i);fill-opacity:1;stroke:none;stroke-width:1.06199" transform="scale(-1)" d="M-10-61.5h6v5h-6z"/><path style="opacity:.6;fill:url(#j);fill-opacity:1;stroke:none;stroke-width:1.06199" d="M10 56.5h44v5H10z"/><rect style="color:#000;display:inline;overflow:visible;visibility:visible;fill:url(#k);fill-opacity:1;fill-rule:nonzero;stroke:#002e99;stroke-width:1;stroke-opacity:.5;marker:none;enable-background:accumulate" y="4.5" x="4.5" ry="6" rx="6" height="55" width="55"/><rect style="opacity:.5;fill:none;stroke:url(#l);stroke-width:1;stroke-linecap:round;stroke-linejoin:round;stroke-miterlimit:4;stroke-dasharray:none;stroke-dashoffset:0;stroke-opacity:1" y="5.429" x="5.5" ry="5" height="53.142" width="53" rx="5"/><path style="color:#000;display:inline;overflow:visible;visibility:visible;opacity:.05;fill:#000;fill-opacity:1;fill-rule:nonzero;stroke:none;stroke-width:1;marker:none;enable-background:accumulate" d="M32 10.438C19.559 10.438 9.437 20.557 9.437 33 9.438 45.441 19.56 55.563 32 55.563c12.441 0 22.563-10.122 22.563-22.563 0-12.441-10.122-22.563-22.563-22.563Zm0 3.75c8.503 0 15.626 5.618 17.969 13.343-1.952 3.915-4.633 7.451-7.938 10.313-1.632 1.413-3.398 2.637-5.312 3.5-1.912.862-3.97 1.335-6 1.218-.962-.055-1.902-.273-2.813-.593 3.325-2.025 6.377-4.475 8.907-7.438 1.927-2.257 3.69-4.857 4.374-7.906.343-1.53.389-3.126.063-4.688-.328-1.569-1.056-3.108-2.188-4.312a8.712 8.712 0 0 0-4.03-2.406c-1.514-.418-3.107-.434-4.626-.156-3.03.553-5.662 2.27-7.75 4.374-3.682 3.71-5.986 8.931-5.562 14.22.212 2.645 1.128 5.279 2.656 7.468.037.054.087.103.125.156-1.377.413-2.767.78-4.188 1-1.56-2.743-2.5-5.89-2.5-9.281 0-10.408 8.405-18.813 18.813-18.813zm.125 4c1.203.001 2.394.368 3.313 1.062a5.472 5.472 0 0 1 1.843 2.531c.362 1.017.442 2.161.313 3.282-.258 2.238-1.387 4.397-2.844 6.312-2.588 3.401-6.053 6.112-9.906 8.031-.188.094-.353.193-.532.282-.603-.597-1.186-1.217-1.593-1.938-1.064-1.884-1.432-4.185-1.219-6.406.214-2.228.97-4.413 2.031-6.469 1.228-2.378 2.872-4.542 5.063-5.75 1.085-.599 2.322-.94 3.531-.938zm18.656 15.218C50.561 43.623 42.27 51.813 32 51.813c-5.312 0-10.016-2.277-13.438-5.813 1.572-.432 3.124-.891 4.625-1.531.86.6 1.76 1.183 2.75 1.562 3.36 1.289 7.114 1.089 10.438-.062 3.313-1.147 6.193-3.2 8.688-5.532 2.218-2.073 4.077-4.476 5.718-7.03z"/><path style="color:#000;display:inline;overflow:visible;visibility:visible;opacity:.15;fill:#000;fill-opacity:1;fill-rule:nonzero;stroke:none;stroke-width:1;marker:none;enable-background:accumulate" d="M32 11.414c-11.921 0-21.585 9.664-21.585 21.586 0 11.92 9.664 21.585 21.585 21.585 11.921 0 21.585-9.664 21.585-21.585 0-11.922-9.664-21.586-21.585-21.586zm0 1.799c9.064 0 16.704 6.094 19.047 14.408a34.331 34.331 0 0 1-8.387 10.94c-1.68 1.454-3.514 2.75-5.54 3.664-2.026.913-4.255 1.431-6.474 1.304a11.2 11.2 0 0 1-4.773-1.37 36.004 36.004 0 0 0 10.217-8.237c1.876-2.197 3.517-4.694 4.148-7.513.316-1.409.37-2.885.075-4.299-.296-1.414-.95-2.76-1.939-3.813-.966-1.028-2.235-1.756-3.595-2.132-1.36-.375-2.808-.404-4.196-.15-2.776.507-5.254 2.12-7.242 4.123-3.504 3.53-5.67 8.513-5.273 13.471.2 2.48 1.03 4.915 2.454 6.955a13.1 13.1 0 0 0 1.04 1.3 32.369 32.369 0 0 1-6.399 1.533A19.691 19.691 0 0 1 12.213 33c0-10.928 8.86-19.787 19.787-19.787zm.126 3.998c1.39.002 2.791.423 3.901 1.261 1 .756 1.74 1.83 2.16 3.01.42 1.182.529 2.464.385 3.709-.286 2.49-1.542 4.773-3.06 6.768-2.687 3.531-6.258 6.358-10.23 8.337-.407.202-.82.395-1.235.58a10.216 10.216 0 0 1-2.17-2.653c-1.18-2.09-1.569-4.57-1.34-6.96.23-2.388 1.049-4.69 2.15-6.821 1.276-2.472 3.016-4.813 5.452-6.156 1.218-.672 2.596-1.077 3.987-1.075zm19.483 13.14c.116.866.178 1.75.178 2.649 0 10.927-8.86 19.786-19.787 19.786-6.137 0-11.622-2.794-15.251-7.18a35.62 35.62 0 0 0 6.53-2.169c.918.7 1.932 1.273 3.01 1.686 3.105 1.19 6.63 1.018 9.772-.07 3.142-1.087 5.928-3.04 8.357-5.31a35.976 35.976 0 0 0 7.191-9.392z"/><path style="color:#000;display:inline;overflow:visible;visibility:visible;fill:#fff;fill-opacity:1;fill-rule:nonzero;stroke:none;stroke-width:1;marker:none;enable-background:accumulate" d="M32 10.415c-11.921 0-21.585 9.664-21.585 21.585 0 11.921 9.664 21.585 21.585 21.585 11.921 0 21.585-9.664 21.585-21.585 0-11.921-9.664-21.585-21.585-21.585zm0 1.798c9.064 0 16.704 6.095 19.047 14.409A34.331 34.331 0 0 1 42.66 37.56c-1.68 1.455-3.514 2.752-5.54 3.665-2.026.914-4.255 1.432-6.474 1.305a11.2 11.2 0 0 1-4.773-1.37 36.004 36.004 0 0 0 10.217-8.238c1.876-2.197 3.517-4.694 4.148-7.512.316-1.41.37-2.886.075-4.3-.296-1.413-.95-2.76-1.939-3.813-.966-1.028-2.235-1.756-3.595-2.131-1.36-.376-2.808-.405-4.196-.151-2.776.507-5.254 2.12-7.242 4.124-3.504 3.53-5.67 8.512-5.273 13.47.2 2.48 1.03 4.916 2.454 6.955.317.455.667.889 1.04 1.3a32.369 32.369 0 0 1-6.399 1.533A19.691 19.691 0 0 1 12.213 32c0-10.928 8.86-19.787 19.787-19.787zm.126 3.998c1.39.002 2.791.423 3.901 1.262 1 .755 1.74 1.83 2.16 3.01.42 1.181.529 2.463.385 3.708-.286 2.49-1.542 4.773-3.06 6.768-2.687 3.532-6.258 6.359-10.23 8.337-.407.203-.82.395-1.235.58a10.216 10.216 0 0 1-2.17-2.653c-1.18-2.089-1.569-4.57-1.34-6.959.23-2.388 1.049-4.69 2.15-6.822 1.276-2.471 3.016-4.813 5.452-6.156 1.218-.672 2.596-1.077 3.987-1.075zm19.483 13.14c.116.867.178 1.75.178 2.649 0 10.928-8.86 19.787-19.787 19.787-6.137 0-11.622-2.794-15.251-7.18a35.62 35.62 0 0 0 6.53-2.17c.918.7 1.932 1.273 3.01 1.687 3.105 1.19 6.63 1.018 9.772-.07 3.142-1.088 5.928-3.04 8.357-5.31a35.976 35.976 0 0 0 7.191-9.393z"/><path style="color:#000;display:inline;overflow:visible;visibility:visible;fill:#000;fill-opacity:1;fill-rule:nonzero;stroke:none;stroke-width:1;marker:none;enable-background:accumulate;font-variation-settings:normal;opacity:.05;vector-effect:none;stroke-linecap:butt;stroke-linejoin:miter;stroke-miterlimit:4;stroke-dasharray:none;stroke-dashoffset:0;stroke-opacity:1;-inkscape-stroke:none;stop-color:#000;stop-opacity:1" d="M32 11.213c-10.928 0-19.787 8.86-19.787 19.787 0 .138.013.273.016.41C12.54 20.756 21.27 12.213 32 12.213c8.832 0 16.31 5.789 18.855 13.777.062-.124.131-.244.192-.369C48.704 17.307 41.064 11.213 32 11.213zm.125 3.998c-1.39-.002-2.768.404-3.986 1.076-2.436 1.344-4.175 3.685-5.451 6.156-1.102 2.132-1.922 4.432-2.15 6.82a13.556 13.556 0 0 0-.052 1.821c.01-.274.025-.548.051-.82.229-2.389 1.05-4.69 2.15-6.823 1.277-2.471 3.016-4.812 5.452-6.156 1.218-.672 2.595-1.076 3.986-1.074 1.39.002 2.793.423 3.902 1.262 1 .755 1.74 1.829 2.16 3.01.248.697.376 1.43.418 2.17.06-1.074-.058-2.157-.417-3.169-.42-1.18-1.16-2.256-2.16-3.011-1.11-.839-2.512-1.26-3.903-1.262zm8.357 7.35a11.037 11.037 0 0 1-.244 1.85c-.632 2.818-2.273 5.314-4.148 7.51a36.002 36.002 0 0 1-10.217 8.24c.306.169.622.32.943.46 3.492-2.028 6.652-4.628 9.274-7.7 1.875-2.196 3.516-4.692 4.148-7.51.21-.934.29-1.896.244-2.85zm11.127 5.79a35.982 35.982 0 0 1-7.191 9.393c-2.43 2.27-5.215 4.223-8.357 5.31-3.143 1.088-6.667 1.261-9.772.071a12.185 12.185 0 0 1-3.012-1.688c-2.1.93-4.289 1.662-6.529 2.17.231.28.47.553.717.819a35.69 35.69 0 0 0 5.812-1.989c.919.7 1.934 1.273 3.012 1.686 3.105 1.19 6.63 1.02 9.772-.068 3.142-1.088 5.928-3.04 8.357-5.31a35.982 35.982 0 0 0 7.191-9.393c.098.728.148 1.471.164 2.222.006-.19.014-.382.014-.574 0-.898-.062-1.782-.178-2.648zm-33.574 2.563c-.02.564-.012 1.13.033 1.695.199 2.48 1.03 4.916 2.453 6.955.122.175.252.344.383.512.22-.071.44-.137.659-.213a12.77 12.77 0 0 1-1.042-1.299c-1.423-2.039-2.254-4.475-2.453-6.955-.018-.231-.025-.463-.033-.695zm-7.607.586c-.004.167-.014.332-.014.5 0 11.921 9.665 21.586 21.586 21.586S53.586 43.92 53.586 32c0-.168-.01-.333-.014-.5C53.306 43.19 43.754 52.586 32 52.586S10.694 43.19 10.428 31.5z"/><path style="fill:url(#m);fill-opacity:1;stroke:none" d="M59 60.5a11 3.5 0 1 1-22 0 11 3.5 0 1 1 22 0z"/><path d="M48 33.5c-8 0-14.5 6.5-14.5 14.5S40 62.5 48 62.5 62.5 56 62.5 48 56 33.5 48 33.5Z" style="color:#000;display:inline;overflow:visible;visibility:visible;opacity:.99;fill:url(#n);fill-opacity:1;fill-rule:nonzero;stroke:none;stroke-width:1;marker:none;enable-background:accumulate"/><path d="M61.5 48c0 7.456-6.045 13.5-13.5 13.5-7.456 0-13.5-6.044-13.5-13.5S40.544 34.5 48 34.5c7.455 0 13.5 6.044 13.5 13.5z" style="color:#000;display:inline;overflow:visible;visibility:visible;opacity:.5;fill:none;stroke:url(#o);stroke-width:1;stroke-linecap:round;stroke-linejoin:round;stroke-miterlimit:4;stroke-dasharray:none;stroke-dashoffset:0;stroke-opacity:1;marker:none;enable-background:accumulate"/><path d="M48 33.502C40 33.502 33.502 40 33.502 48 33.502 56 40 62.498 48 62.498 56 62.498 62.498 56 62.498 48 62.498 40 56 33.502 48 33.502z" style="color:#000;clip-rule:nonzero;display:inline;overflow:visible;visibility:visible;opacity:.5;isolation:auto;mix-blend-mode:normal;color-interpolation:sRGB;color-interpolation-filters:linearRGB;solid-color:#000;solid-opacity:1;fill:none;fill-opacity:1;fill-rule:nonzero;stroke:#206b00;stroke-width:1;stroke-linecap:round;stroke-linejoin:round;stroke-miterlimit:4;stroke-dasharray:none;stroke-dashoffset:0;stroke-opacity:1;marker:none;color-rendering:auto;image-rendering:auto;shape-rendering:auto;text-rendering:auto;enable-background:accumulate"/><path style="font-variation-settings:normal;opacity:.07;fill:#206b00;fill-opacity:1;stroke:none;stroke-width:1.38095;stroke-linecap:butt;stroke-linejoin:miter;stroke-miterlimit:4;stroke-dasharray:none;stroke-dashoffset:0;stroke-opacity:1;marker:none;stop-color:#000" d="M47 40c-1.113 0-2.007.947-2.006 2.043v5.951h-2.66c-1.113 0-2.006.948-2.006 2.043 0 .59.249 1.14.66 1.518l-.047-.047 5.631 5.908a1.006 1.006 0 0 0 .026.025c.353.347.85.57 1.388.57.538 0 1.035-.223 1.389-.57a1.006 1.006 0 0 0 .023-.023l5.614-5.863c.411-.379.66-.927.66-1.518 0-1.095-.893-2.043-2.006-2.043h-2.66v-5.951C51.006 40.948 50.113 40 49 40Z"/><path style="font-variation-settings:normal;opacity:.2;fill:#206b00;fill-opacity:1;stroke:none;stroke-width:1.38095;stroke-linecap:butt;stroke-linejoin:miter;stroke-miterlimit:4;stroke-dasharray:none;stroke-dashoffset:0;stroke-opacity:1;marker:none;stop-color:#000" d="M54.667 50.038c0-.575-.447-1.038-1-1.038H42.333c-.554 0-1 .463-1 1.038 0 .31.13.586.335.776l5.632 5.908c.18.176.42.284.686.284a.977.977 0 0 0 .686-.284l5.658-5.908a1.05 1.05 0 0 0 .336-.776z"/><path style="fill:#fff;stroke:none;stroke-width:5.33333;stroke-linecap:round;stroke-linejoin:round;stop-color:#000" d="M54.667 49.038c0-.575-.447-1.038-1-1.038H50v-6.956c0-.575-.446-1.038-1-1.038h-2c-.554 0-1 .463-1 1.038V48h-3.666c-.554 0-1 .463-1 1.038 0 .31.13.586.335.776l5.632 5.908c.18.176.42.284.686.284a.977.977 0 0 0 .686-.284l5.658-5.908a1.05 1.05 0 0 0 .336-.776z"/></svg>