<svg height="64" width="64" xml:space="preserve" xmlns:xlink="http://www.w3.org/1999/xlink" xmlns="http://www.w3.org/2000/svg"><defs><linearGradient id="i"><stop style="stop-color:#a10705;stop-opacity:1" offset="0"/><stop style="stop-color:#7a0000;stop-opacity:1" offset="1"/></linearGradient><linearGradient id="h"><stop style="stop-color:#fff;stop-opacity:1" offset="0"/><stop style="stop-color:#fff;stop-opacity:.23529412" offset="0"/><stop style="stop-color:#fff;stop-opacity:.15686275" offset=".977"/><stop style="stop-color:#fff;stop-opacity:.39215687" offset="1"/></linearGradient><linearGradient id="g"><stop style="stop-color:#ffe16b;stop-opacity:1" offset="0"/><stop style="stop-color:#f9c440;stop-opacity:1" offset="1"/></linearGradient><linearGradient id="f"><stop style="stop-color:#fff;stop-opacity:1" offset="0"/><stop style="stop-color:#fff;stop-opacity:.23529412" offset=".407"/><stop style="stop-color:#fff;stop-opacity:.15686275" offset=".727"/><stop style="stop-color:#fff;stop-opacity:.39215687" offset="1"/></linearGradient><linearGradient id="e"><stop style="stop-color:#ed5353;stop-opacity:1" offset="0"/><stop style="stop-color:#cf3137;stop-opacity:1" offset=".531"/><stop style="stop-color:#7a0000;stop-opacity:1" offset="1"/></linearGradient><linearGradient id="d"><stop style="stop-color:#9bdb4d;stop-opacity:1" offset="0"/><stop style="stop-color:#68b723;stop-opacity:1" offset="1"/></linearGradient><linearGradient id="c"><stop style="stop-color:#efdfc4;stop-opacity:1" offset="0"/><stop style="stop-color:#e7c591;stop-opacity:1" offset="1"/></linearGradient><linearGradient y2="42.092" x2="24" y1="5.909" x1="24" gradientTransform="matrix(1.43243 0 0 1.43628 -2.378 -2.47)" gradientUnits="userSpaceOnUse" id="q" xlink:href="#a"/><linearGradient id="a"><stop style="stop-color:#fff;stop-opacity:1" offset="0"/><stop style="stop-color:#fff;stop-opacity:.23529412" offset=".035"/><stop style="stop-color:#fff;stop-opacity:.15686275" offset=".962"/><stop style="stop-color:#fff;stop-opacity:.39215687" offset="1"/></linearGradient><linearGradient id="j"><stop offset="0" style="stop-color:#181818;stop-opacity:1"/><stop offset="1" style="stop-color:#181818;stop-opacity:0"/></linearGradient><linearGradient id="b"><stop offset="0" style="stop-color:#181818;stop-opacity:0"/><stop offset=".5" style="stop-color:#181818;stop-opacity:1"/><stop offset="1" style="stop-color:#181818;stop-opacity:0"/></linearGradient><linearGradient x1="25.058" y1="47.028" x2="25.058" y2="39.999" id="m" xlink:href="#b" gradientUnits="userSpaceOnUse" gradientTransform="matrix(1.57143 0 0 .71429 -5.714 27.929)"/><linearGradient xlink:href="#c" id="n" x1="31.781" y1="4.927" x2="31.781" y2="59.148" gradientUnits="userSpaceOnUse"/><linearGradient xlink:href="#d" id="o" x1="25.15" y1="5.03" x2="25.15" y2="59.232" gradientUnits="userSpaceOnUse"/><linearGradient xlink:href="#e" id="t" x1="31.998" y1="12.058" x2="31.998" y2="62.094" gradientUnits="userSpaceOnUse"/><linearGradient xlink:href="#f" id="u" gradientUnits="userSpaceOnUse" gradientTransform="matrix(1.43243 0 0 1.43628 -2.378 -2.47)" x1="24" y1="11.448" x2="24" y2="34.461"/><linearGradient xlink:href="#g" id="r" x1="50.307" y1="4.588" x2="50.307" y2="59.412" gradientUnits="userSpaceOnUse"/><linearGradient xlink:href="#h" id="s" gradientUnits="userSpaceOnUse" gradientTransform="matrix(1.43243 0 0 1.43628 -2.378 -2.47)" x1="24" y1="5.909" x2="24" y2="42.092"/><linearGradient xlink:href="#i" id="v" x1="26" y1="26" x2="38" y2="26" gradientUnits="userSpaceOnUse" gradientTransform="translate(-58 6)"/><radialGradient cx="4.993" cy="43.5" r="2.5" fx="4.993" fy="43.5" id="k" xlink:href="#j" gradientUnits="userSpaceOnUse" gradientTransform="matrix(2.40454 0 0 1 41.986 15.5)"/><radialGradient cx="4.993" cy="43.5" r="2.5" fx="4.993" fy="43.5" id="l" xlink:href="#j" gradientUnits="userSpaceOnUse" gradientTransform="matrix(2.40454 0 0 1 -22.014 -102.5)"/><radialGradient cx="9.692" cy="41.272" fx="9.692" fy="41.272" r="29.069" gradientTransform="matrix(1.28968 0 0 .77539 19.5 12.867)" id="p" gradientUnits="userSpaceOnUse"><stop offset="0%"/><stop stop-opacity="0" offset="100%"/></radialGradient></defs><path style="opacity:.6;fill:url(#k);fill-opacity:1;stroke:none;stroke-width:1.06199" d="M54 56.5h6v5h-6z"/><path style="opacity:.6;fill:url(#l);fill-opacity:1;stroke:none;stroke-width:1.06199" transform="scale(-1)" d="M-10-61.5h6v5h-6z"/><path style="opacity:.6;fill:url(#m);fill-opacity:1;stroke:none;stroke-width:1.06199" d="M10 56.5h44v5H10z"/><rect width="55" height="55" rx="6" ry="6" x="4.5" y="4.5" style="color:#000;display:inline;overflow:visible;visibility:visible;fill:url(#n);fill-opacity:1;fill-rule:nonzero;stroke:none;stroke-width:1;marker:none;enable-background:accumulate"/><path style="font-variation-settings:normal;opacity:1;vector-effect:none;fill:url(#o);fill-opacity:1;stroke:none;stroke-width:1;stroke-linecap:butt;stroke-linejoin:miter;stroke-miterlimit:4;stroke-dasharray:none;stroke-dashoffset:0;stroke-opacity:.5;-inkscape-stroke:none;marker:none" d="M44.05 36.754 4.5 47.377V53.5c0 3.324 2.676 6 6 6h41.096L44.05 36.754z"/><path style="font-variation-settings:normal;baseline-shift:baseline;display:inline;overflow:visible;opacity:.15;vector-effect:none;fill:#3a9104;fill-opacity:1;stroke-width:1;stroke-linecap:round;stroke-linejoin:round;stroke-miterlimit:4;stroke-dasharray:none;stroke-dashoffset:0;stroke-opacity:1;-inkscape-stroke:none;enable-background:accumulate;stop-color:#000;stop-opacity:1" d="M43.25 30.152C30.333 33.637 17.416 37.12 4.5 40.61v10.504l16.84-4.62a1.035 1.035 28.683 0 1 1.26.69L26.436 59.5H37.53l-5.023-15.94 8.85-2.388L48.751 59.5H53.5c2.14 0 4.01-1.109 5.072-2.785l-8.086-20.041-7.236 1.953Z"/><path style="baseline-shift:baseline;display:inline;overflow:visible;opacity:.15;vector-effect:none;fill:#cfa25e;stroke-width:1;stroke-linecap:round;stroke-linejoin:round;enable-background:accumulate;stop-color:#000" d="M26.564 4.5c.359 1.078.914 2.117 1.276 3.178l1.176 2.916C20.843 13.53 12.67 16.466 4.5 19.406V30.19c18.332-6.594 36.671-13.172 55-19.775-.046-3.284-6-5.914-6-5.914L38.572 7.16 37.496 4.5ZM59.5 25.771c-.145.039-.29.076-.436.114l-20.578 5.553L50 38.842c3.167-.854 6.334-1.709 9.5-2.565z"/><path style="baseline-shift:baseline;display:inline;overflow:visible;opacity:.2;vector-effect:none;fill:#b6802e;stroke-width:1;stroke-linecap:round;stroke-linejoin:round;enable-background:accumulate;stop-color:#000" d="m27.637 4.5 2.345 5.81 7.674-2.757L36.424 4.5ZM4.5 20.469v8.66L59.398 9.395A5.986 5.986 0 0 0 53.5 4.5s-33.077 10.246-49 15.969zm55 6.334-17.178 4.634L50 37.806l9.5-2.563z"/><path style="baseline-shift:baseline;display:inline;overflow:visible;opacity:.3;vector-effect:none;fill:#3a9104;stroke-width:1;stroke-linecap:round;stroke-linejoin:round;enable-background:accumulate;stop-color:#000" d="M43.25 31.188 4.5 41.642v8.441l16.473-4.479a2.083 2.083 28.62 0 1 2.533 1.382L27.464 59.5h9.007l-5.23-16.633 10.712-2.89L49.832 59.5H53.5a5.98 5.98 0 0 0 4.363-1.873l-8.35-20.69-6.263 1.69Z"/><path style="baseline-shift:baseline;display:inline;overflow:visible;vector-effect:none;fill:#fafafa;stroke-width:1;stroke-linecap:round;stroke-linejoin:round;enable-background:accumulate;stop-color:#000" d="M46.148 4.5 4.5 19.469v8.658L59.154 8.482A5.987 5.987 0 0 0 53.5 4.5ZM59.5 25.8l-55 14.84v8.444l15.97-4.31a3.125 3.125 28.726 0 1 3.797 2.08L28.24 59.5h8.545L31.24 41.867l28.26-7.625Z"/><path style="font-variation-settings:normal;vector-effect:none;fill:none;fill-opacity:1;stroke:#3a9104;stroke-width:1;stroke-linecap:butt;stroke-linejoin:miter;stroke-miterlimit:4;stroke-dasharray:none;stroke-dashoffset:0;stroke-opacity:.5;-inkscape-stroke:none;marker:none" d="M4.5 48.956V53.5c0 3.324 2.676 6 6 6h40.119"/><ellipse fill="url(#radialGradient-9)" opacity=".581" filter="url(#filter-10)" cx="32" cy="44.867" rx="11.5" ry="5" style="opacity:.3;fill:url(#p);filter:url(#filter-10-6-6-8)"/><path style="color:#000;display:inline;overflow:visible;visibility:visible;opacity:.5;fill:none;stroke:#b6802e;stroke-width:1;stroke-linecap:butt;stroke-linejoin:round;stroke-miterlimit:4;stroke-dasharray:none;stroke-dashoffset:0;stroke-opacity:1;marker:none;enable-background:accumulate" d="M28.729 4.5H10.5c-3.324 0-6 2.676-6 6v38.455m54.078 7.74A5.98 5.98 0 0 0 59.5 53.5v-43c0-3.324-2.676-6-6-6H37.516"/><rect style="opacity:.4;fill:none;stroke:url(#q);stroke-width:1;stroke-linecap:round;stroke-linejoin:round;stroke-miterlimit:4;stroke-dasharray:none;stroke-dashoffset:0;stroke-opacity:1" y="5.429" x="5.5" ry="5" rx="5" height="53.142" width="53"/><path style="baseline-shift:baseline;display:inline;overflow:visible;vector-effect:none;fill:url(#r);stroke-width:1;stroke-linecap:round;stroke-linejoin:round;enable-background:accumulate;stop-color:#000;stroke:#d48e15;stroke-opacity:.5" d="m28.729 4.5 22.195 55H53.5a5.985 5.985 0 0 0 5.08-2.799L37.516 4.5h-8.787z"/><path style="baseline-shift:baseline;display:inline;overflow:visible;vector-effect:none;fill:none;stroke:url(#s);stroke-width:1;stroke-linecap:round;stroke-linejoin:miter;stroke-opacity:1;enable-background:accumulate;stop-color:#000;font-variation-settings:normal;opacity:.6;fill-opacity:1;stroke-miterlimit:4;stroke-dasharray:none;stroke-dashoffset:0;-inkscape-stroke:none;stop-opacity:1" d="M51.6 58.5c1.66.026 3.492.14 4.87-.974.329-.3.878-.622.94-1.048L36.84 5.5h-6.63l21.39 53z"/><path style="font-variation-settings:normal;opacity:.125723;vector-effect:none;fill:#ff8c82;fill-opacity:1;stroke:none;stroke-width:.999993;stroke-linecap:round;stroke-linejoin:round;stroke-miterlimit:4;stroke-dasharray:none;stroke-dashoffset:0;stroke-opacity:.5;-inkscape-stroke:none" d="M31.348 25.348c-4.929.163-10.01 2.778-12.195 7.342-1.914 3.873-.912 8.828 2.167 11.808 1.94 1.836 4.09 3.44 6.105 5.194 1.178 1.03 2.498 2.088 4.144 2.12 1.73.169 3.41-.594 4.619-1.804 2.21-1.884 4.519-3.664 6.64-5.646 2.845-2.919 3.874-7.556 2.173-11.316-2.246-5.199-8.194-7.964-13.653-7.698z" transform="translate(0 -2)"/><path style="font-variation-settings:normal;opacity:.334042;vector-effect:none;fill:#ff8c82;fill-opacity:1;stroke:none;stroke-width:.999993;stroke-linecap:round;stroke-linejoin:round;stroke-miterlimit:4;stroke-dasharray:none;stroke-dashoffset:0;stroke-opacity:.5;-inkscape-stroke:none" d="M31.366 26.348c-4.583.148-8.918 2.546-10.897 6-2.123 3.534-1.604 8.035 1.289 11.165 1.118 1.215 2.541 2.2 3.797 3.31 1.333 1.084 2.596 2.23 3.972 3.273 1.455 1.045 3.804.953 5.177-.155 2.31-1.926 4.634-3.843 6.92-5.79 3.01-2.805 4.017-6.979 2.531-10.538-1.453-3.695-5.498-6.558-10.103-7.141a15.694 15.694 0 0 0-2.686-.124Z" transform="translate(0 -2)"/><path style="font-variation-settings:normal;opacity:.3;vector-effect:none;fill:#ed5353;fill-opacity:1;stroke:none;stroke-width:1.48512;stroke-linecap:round;stroke-linejoin:round;stroke-miterlimit:4;stroke-dasharray:none;stroke-dashoffset:0;stroke-opacity:.5;-inkscape-stroke:none" d="M32 12c-8.837 0-16 7.163-16 16a16 16 0 0 0 5.2 11.804l8.017 8.018a3.935 3.935.002 0 0 5.565 0l8.018-8.018A16 16 0 0 0 48 28c0-8.838-7.164-16-16-16Z" transform="matrix(.73666 0 0 .61546 8.427 17.824)"/><path style="font-variation-settings:normal;vector-effect:none;fill:url(#t);fill-opacity:1;stroke:url(#linearGradient9);stroke-width:1.02961;stroke-linecap:round;stroke-linejoin:round;stroke-miterlimit:4;stroke-dasharray:none;stroke-dashoffset:0;-inkscape-stroke:none" d="M32 12c-8.837 0-16 7.163-16 16a16 16 0 0 0 5.2 11.804l8.017 8.018a3.935 3.935 0 0 0 5.565 0l8.018-8.018A16 16 0 0 0 48 28c0-8.838-7.164-16-16-16Z" transform="matrix(.96882 0 0 .97366 .998 -1.183)"/><path style="font-variation-settings:normal;opacity:.3;vector-effect:none;fill:none;fill-opacity:1;stroke:url(#u);stroke-width:1;stroke-linecap:round;stroke-linejoin:round;stroke-miterlimit:4;stroke-dasharray:none;stroke-dashoffset:0;stroke-opacity:1;-inkscape-stroke:none;stop-color:#000;stop-opacity:1" d="M31.275 13.522c-5.35.208-10.385 3.688-12.52 8.616-2.289 5.007-1.382 11.278 2.234 15.421 2.328 2.458 4.775 4.806 7.144 7.226 1.133.983 2.021 2.558 3.652 2.692 1.512.172 2.52-1.122 3.473-2.082 2.56-2.605 5.187-5.15 7.713-7.788 3.572-4.063 4.538-10.189 2.407-15.167-2.057-5.046-7.13-8.674-12.56-8.91a15.375 15.375 0 0 0-1.543-.008z" transform="translate(0 -2)"/><circle style="font-variation-settings:normal;opacity:1;vector-effect:none;fill:url(#v);fill-opacity:1;stroke:none;stroke-width:1;stroke-linecap:round;stroke-linejoin:round;stroke-miterlimit:4;stroke-dasharray:none;stroke-dashoffset:0;stroke-opacity:1;-inkscape-stroke:none;marker:none" cx="-26" cy="32" r="6" transform="rotate(-90)"/><circle style="font-variation-settings:normal;vector-effect:none;fill:#fafafa;fill-opacity:1;stroke:none;stroke-width:1;stroke-linecap:round;stroke-linejoin:round;stroke-miterlimit:4;stroke-dasharray:none;stroke-dashoffset:0;stroke-opacity:1;-inkscape-stroke:none;marker:none;opacity:.1" cx="32" cy="27" r="6"/></svg>