<svg height="64" style="display:inline;enable-background:new" version="1.0" width="64" xmlns:xlink="http://www.w3.org/1999/xlink" xmlns="http://www.w3.org/2000/svg"><defs><linearGradient id="a"><stop style="stop-color:#68b723;stop-opacity:1" offset="0"/><stop style="stop-color:#d1ff82;stop-opacity:1" offset="1"/></linearGradient><linearGradient id="c"><stop offset="0" style="stop-color:#181818;stop-opacity:0"/><stop offset=".5" style="stop-color:#181818;stop-opacity:1"/><stop offset="1" style="stop-color:#181818;stop-opacity:0"/></linearGradient><linearGradient id="e"><stop style="stop-color:#181818;stop-opacity:1" offset="0"/><stop style="stop-color:#181818;stop-opacity:0" offset="1"/></linearGradient><linearGradient id="d"><stop offset="0" style="stop-color:#0e141f;stop-opacity:1"/><stop style="stop-color:#1d1d34;stop-opacity:1" offset=".355"/><stop offset="1" style="stop-color:#273445;stop-opacity:1"/></linearGradient><linearGradient id="b"><stop style="stop-color:#fff;stop-opacity:1" offset="0"/><stop style="stop-color:#fff;stop-opacity:.8" offset=".063"/><stop style="stop-color:#fff;stop-opacity:.15686275" offset=".951"/><stop style="stop-color:#fff;stop-opacity:.39215687" offset="1"/></linearGradient><linearGradient xlink:href="#a" id="j" x1="38.183" y1="68.752" x2="93.045" y2="68.752" gradientUnits="userSpaceOnUse" gradientTransform="matrix(.9843 0 0 1.00232 1.118 -.099)"/><linearGradient gradientTransform="translate(31.324 34.37) scale(1.43243)" gradientUnits="userSpaceOnUse" xlink:href="#b" id="k" y2="43" x2="24" y1="5" x1="24"/><linearGradient gradientUnits="userSpaceOnUse" xlink:href="#c" id="h" y2="39.999" x2="25.058" y1="47.028" x1="25.058"/><radialGradient xlink:href="#d" id="i" gradientUnits="userSpaceOnUse" gradientTransform="matrix(0 6.5807 -8.079 0 147.318 -32.288)" cx="6.73" cy="9.957" fx="6.2" fy="9.957" r="12.672"/><radialGradient gradientTransform="matrix(2.00378 0 0 1.4 27.988 -17.4)" gradientUnits="userSpaceOnUse" xlink:href="#e" id="f" fy="43.5" fx="4.993" r="2.5" cy="43.5" cx="4.993"/><radialGradient gradientTransform="matrix(2.00378 0 0 1.4 -20.012 -104.4)" gradientUnits="userSpaceOnUse" xlink:href="#e" id="g" fy="43.5" fx="4.993" r="2.5" cy="43.5" cx="4.993"/></defs><g style="display:inline" transform="translate(-33.702 -36.75)"><g style="display:inline;enable-background:new;opacity:.6"><path style="fill:url(#f);fill-opacity:1;stroke:none" d="M38 40h5v7h-5z" transform="matrix(1.57895 0 0 .71429 27.808 64.178)"/><path style="fill:url(#g);fill-opacity:1;stroke:none" transform="matrix(-1.57895 0 0 -.71429 27.808 64.178)" d="M-10-47h5v7h-5z"/><path style="fill:url(#h);fill-opacity:1;stroke:none" d="M10 40h28v7H10z" transform="matrix(1.57895 0 0 .71429 27.808 64.178)"/></g><rect width="55" height="55" rx="6" ry="6" x="38.202" y="41.249" style="color:#000;clip-rule:nonzero;display:inline;overflow:visible;visibility:visible;opacity:1;isolation:auto;mix-blend-mode:normal;color-interpolation:sRGB;color-interpolation-filters:linearRGB;solid-color:#000;solid-opacity:1;fill:url(#i);fill-opacity:1;fill-rule:nonzero;stroke:none;stroke-width:1;stroke-linecap:butt;stroke-linejoin:miter;stroke-miterlimit:4;stroke-dasharray:none;stroke-dashoffset:0;stroke-opacity:1;marker:none;color-rendering:auto;image-rendering:auto;shape-rendering:auto;text-rendering:auto;enable-background:accumulate"/><path d="M38.702 68.75s13.407 0 16.43.07c3.023.07 5.155-10.624 6.916-15.563.42-1.412 1.857 6.55 3.647 15.507 1.11 5.556 2.275 11.828 3.662 15.478 1.151 2.803.538-15.5 5.99-15.496 4.518.003 17.355.003 17.355.003" style="fill:#d1ff82;fill-opacity:0;fill-rule:evenodd;stroke:url(#j);stroke-width:2;stroke-linecap:butt;stroke-linejoin:miter;stroke-miterlimit:4;stroke-dasharray:none;stroke-opacity:1" fill="none"/><rect style="opacity:.3;fill:none;stroke:url(#k);stroke-width:1;stroke-linecap:round;stroke-linejoin:round;stroke-miterlimit:4;stroke-dasharray:none;stroke-dashoffset:0;stroke-opacity:1" y="42.249" x="39.202" ry="5" rx="5" height="53" width="53"/><rect style="color:#000;display:inline;overflow:visible;visibility:visible;opacity:.7;fill:none;stroke:#000;stroke-width:1;stroke-linecap:round;stroke-linejoin:round;stroke-miterlimit:4;stroke-dasharray:none;stroke-dashoffset:0;stroke-opacity:1;marker:none;enable-background:accumulate" y="41.249" x="38.202" ry="6" rx="6" height="55" width="55"/></g></svg>