<svg width="64" height="64" xmlns:xlink="http://www.w3.org/1999/xlink" xmlns="http://www.w3.org/2000/svg"><defs><linearGradient x1="24" y1="5" x2="24" y2="43" id="m" xlink:href="#a" gradientUnits="userSpaceOnUse" gradientTransform="matrix(1.43243 0 0 1.43628 -2.378 -2.47)"/><linearGradient id="a"><stop style="stop-color:#fff;stop-opacity:1" offset="0"/><stop style="stop-color:#fff;stop-opacity:.23529412" offset=".063"/><stop style="stop-color:#fff;stop-opacity:.15686275" offset=".951"/><stop style="stop-color:#fff;stop-opacity:.39215687" offset="1"/></linearGradient><linearGradient id="g"><stop style="stop-color:#181818;stop-opacity:1" offset="0"/><stop style="stop-color:#181818;stop-opacity:0" offset="1"/></linearGradient><linearGradient id="h"><stop style="stop-color:#181818;stop-opacity:1" offset="0"/><stop style="stop-color:#181818;stop-opacity:0" offset="1"/></linearGradient><linearGradient id="b"><stop style="stop-color:#181818;stop-opacity:0" offset="0"/><stop style="stop-color:#181818;stop-opacity:1" offset=".5"/><stop style="stop-color:#181818;stop-opacity:0" offset="1"/></linearGradient><linearGradient x1="25.058" y1="47.028" x2="25.058" y2="39.999" id="k" xlink:href="#b" gradientUnits="userSpaceOnUse" gradientTransform="matrix(1.57143 0 0 .71429 -5.714 27.929)"/><linearGradient id="c"><stop offset="0" style="stop-color:#fff;stop-opacity:1"/><stop offset="1" style="stop-color:#fafafa;stop-opacity:1"/></linearGradient><linearGradient gradientUnits="userSpaceOnUse" y2="29" x2="30" y1="20" x1="30" id="p" xlink:href="#c" gradientTransform="matrix(1.0909 0 0 1.22222 6.727 1.556)"/><linearGradient id="e"><stop offset="0" style="stop-color:#fff;stop-opacity:1"/><stop offset=".042" style="stop-color:#fff;stop-opacity:.23529412"/><stop offset=".951" style="stop-color:#fff;stop-opacity:.15686275"/><stop offset="1" style="stop-color:#fff;stop-opacity:.39215687"/></linearGradient><linearGradient id="f"><stop style="stop-color:#64baff;stop-opacity:1" offset="0"/><stop style="stop-color:#3689e6;stop-opacity:1" offset="1"/></linearGradient><linearGradient id="d"><stop style="stop-color:#4d4d4d;stop-opacity:1" offset="0"/><stop style="stop-color:#333;stop-opacity:1" offset="1"/></linearGradient><linearGradient xlink:href="#d" id="l" gradientUnits="userSpaceOnUse" gradientTransform="translate(-58.712)" x1="91.954" y1="3.985" x2="91.954" y2="59.495"/><linearGradient xlink:href="#e" id="o" gradientUnits="userSpaceOnUse" gradientTransform="matrix(1.49358 0 0 1.522 -5.267 -4.43)" x1="24" y1="12.951" x2="24" y2="29.396"/><linearGradient xlink:href="#f" id="n" gradientUnits="userSpaceOnUse" gradientTransform="matrix(1.28395 0 0 1.47368 .519 -4.421)" x1="24" y1="12.5" x2="24" y2="31.5"/><linearGradient xlink:href="#c" id="q" gradientUnits="userSpaceOnUse" gradientTransform="matrix(1.18182 0 0 1.22222 -11.545 -6.444)" x1="30" y1="20" x2="30" y2="29"/><radialGradient cx="4.993" cy="43.5" r="2.5" fx="4.993" fy="43.5" id="i" xlink:href="#g" gradientUnits="userSpaceOnUse" gradientTransform="matrix(2.40454 0 0 1 41.986 15.5)"/><radialGradient cx="4.993" cy="43.5" r="2.5" fx="4.993" fy="43.5" id="j" xlink:href="#h" gradientUnits="userSpaceOnUse" gradientTransform="matrix(2.40454 0 0 1 -22.014 -102.5)"/></defs><path style="opacity:.6;fill:url(#i);fill-opacity:1;stroke:none;stroke-width:1.06199" d="M54 56.5h6v5h-6z"/><path style="opacity:.6;fill:url(#j);fill-opacity:1;stroke:none;stroke-width:1.06199" transform="scale(-1)" d="M-10-61.5h6v5h-6z"/><path style="opacity:.6;fill:url(#k);fill-opacity:1;stroke:none;stroke-width:1.06199" d="M10 56.5h44v5H10z"/><rect style="color:#000;display:inline;overflow:visible;visibility:visible;opacity:1;fill:url(#l);fill-opacity:1;fill-rule:nonzero;stroke:#000;stroke-width:1;stroke-opacity:.5;marker:none;enable-background:accumulate;font-variation-settings:normal;vector-effect:none;stroke-linecap:butt;stroke-linejoin:miter;stroke-miterlimit:4;stroke-dasharray:none;stroke-dashoffset:0;-inkscape-stroke:none;stop-color:#000;stop-opacity:1" y="4.5" x="4.5" ry="6" rx="6" height="55" width="55"/><rect style="opacity:.2;fill:none;stroke:url(#m);stroke-width:1;stroke-linecap:round;stroke-linejoin:round;stroke-miterlimit:4;stroke-dasharray:none;stroke-dashoffset:0;stroke-opacity:1" y="5.429" x="5.5" ry="5" height="53.142" width="53" rx="5"/><rect style="opacity:.3;fill:none;fill-opacity:1;stroke:#000;stroke-width:1;stroke-linecap:round;stroke-linejoin:round;stroke-miterlimit:4;stroke-dasharray:none;stroke-dashoffset:0;stroke-opacity:1;marker:none" width="9" height="9" x="15.5" y="46.5" rx="1.5" ry="1.5"/><rect style="opacity:.3;fill:#fafafa;fill-opacity:1;stroke:none;stroke-width:.999998;stroke-linecap:round;stroke-linejoin:round;stroke-miterlimit:4;stroke-dasharray:none;stroke-dashoffset:0;stroke-opacity:1;marker:none" width="8" height="8" x="16" y="47" rx="1" ry="1"/><rect style="opacity:.3;fill:none;fill-opacity:1;stroke:#000;stroke-width:1;stroke-linecap:round;stroke-linejoin:round;stroke-miterlimit:4;stroke-dasharray:none;stroke-dashoffset:0;stroke-opacity:1;marker:none" width="9" height="9" x="27.5" y="46.5" rx="1.5" ry="1.5"/><rect style="opacity:.3;fill:#fafafa;fill-opacity:1;stroke:none;stroke-width:.999998;stroke-linecap:round;stroke-linejoin:round;stroke-miterlimit:4;stroke-dasharray:none;stroke-dashoffset:0;stroke-opacity:1;marker:none" width="8" height="8" x="28" y="47" rx="1" ry="1"/><rect style="opacity:.3;fill:none;fill-opacity:1;stroke:#000;stroke-width:1;stroke-linecap:round;stroke-linejoin:round;stroke-miterlimit:4;stroke-dasharray:none;stroke-dashoffset:0;stroke-opacity:1;marker:none" width="9" height="9" x="39.5" y="46.5" rx="1.5" ry="1.5"/><rect style="opacity:.3;fill:#fafafa;fill-opacity:1;stroke:none;stroke-width:.999998;stroke-linecap:round;stroke-linejoin:round;stroke-miterlimit:4;stroke-dasharray:none;stroke-dashoffset:0;stroke-opacity:1;marker:none" width="8" height="8" x="40" y="47" rx="1" ry="1"/><path style="font-variation-settings:normal;opacity:.07;fill:#000;fill-opacity:1;stroke:none;stroke-width:3;stroke-linecap:round;stroke-linejoin:round;stroke-miterlimit:4;stroke-dasharray:none;stroke-dashoffset:0;stroke-opacity:1;marker:none;stop-color:#000" d="M4.5 14v30h4.094C10.457 44 12 42.457 12 40.594V17.406C12 15.543 10.457 14 8.594 14H4.5zm12.959 0C15.567 14 14 15.543 14 17.406v23.188C14 42.457 15.567 44 17.459 44h29.082C48.433 44 50 42.457 50 40.594V17.406C50 15.543 48.433 14 46.541 14H17.459zm37.947 0C53.543 14 52 15.543 52 17.406v23.188C52 42.457 53.543 44 55.406 44H59.5V14h-4.094z"/><path style="opacity:.3;fill:#000;fill-opacity:1;stroke:none;stroke-width:1;stroke-linecap:round;stroke-linejoin:round;stroke-miterlimit:4;stroke-dasharray:none;stroke-dashoffset:0;stroke-opacity:1;marker:none" d="M4.5 15v28h4.334c1.2 0 2.166-.936 2.166-2.1V17.1c0-1.164-.966-2.1-2.166-2.1H4.5zm12.625 0A2.108 2.108 0 0 0 15 17.1v23.8c0 1.164.948 2.1 2.125 2.1h29.75A2.108 2.108 0 0 0 49 40.9V17.1c0-1.164-.948-2.1-2.125-2.1h-29.75zm38.041 0c-1.2 0-2.166.936-2.166 2.1v23.8c0 1.164.966 2.1 2.166 2.1H59.5V15h-4.334z"/><path style="fill:url(#n);fill-opacity:1;stroke:none;stroke-width:1;stroke-linecap:round;stroke-linejoin:round;stroke-miterlimit:4;stroke-dasharray:none;stroke-dashoffset:0;stroke-opacity:1;marker:none" d="M4.5 14v28h4.441C10.113 42 11 41.064 11 39.9V16.1c0-1.164-.887-2.1-2.059-2.1H4.5zm12.697 0C16.023 14 15 14.936 15 16.1v23.8c0 1.164 1.023 2.1 2.197 2.1H46.88A2.106 2.106 0 0 0 49 39.9V16.1c0-1.164-.947-2.1-2.121-2.1H17.197zm37.969 0c-1.2 0-2.166.936-2.166 2.1v23.8c0 1.164.966 2.1 2.166 2.1H59.5V14h-4.334z"/><path style="opacity:.3;fill:none;fill-opacity:1;stroke:url(#o);stroke-width:1;stroke-linecap:butt;stroke-linejoin:round;stroke-miterlimit:4;stroke-dasharray:none;stroke-dashoffset:0;stroke-opacity:1;marker:none" d="M4.5 14.5v27h4.295c.781 0 1.705-.625 1.705-1.4V15.9c0-.775-.924-1.4-1.705-1.4H4.5zm12.72 0c-.788 0-1.72.625-1.72 1.4v24.2c0 .775.932 1.4 1.72 1.4h29.856a1.41 1.41 0 0 0 1.424-1.4V15.9c0-.775-.636-1.4-1.424-1.4H17.221zm37.762 0c-.821 0-1.482.625-1.482 1.4v24.2c0 .775.66 1.4 1.482 1.4H59.5v-27h-4.518z"/><path style="font-variation-settings:normal;opacity:.15;fill:none;fill-opacity:1;stroke:#002e99;stroke-width:1.47712;stroke-linecap:round;stroke-linejoin:round;stroke-miterlimit:4;stroke-dasharray:none;stroke-dashoffset:0;stroke-opacity:1;marker:none;stop-color:#000" d="M26 22c-.554 0-1 .446-1 1v6c0 .554.446 1 1 1h7c.554 0 1-.446 1-1v-6c0-.554-.446-1-1-1z" transform="matrix(1.33616 0 0 1.37205 .583 -3.172)"/><rect ry="1" rx="1" y="27" x="34" height="11" width="12" style="opacity:.3;fill:#002e99;fill-opacity:1;stroke:none;stroke-width:1;stroke-linecap:round;stroke-linejoin:round;stroke-miterlimit:4;stroke-dasharray:none;stroke-dashoffset:0;stroke-opacity:1;marker:none"/><rect style="fill:url(#p);fill-opacity:1;stroke:none;stroke-width:1;stroke-linecap:round;stroke-linejoin:round;stroke-miterlimit:4;stroke-dasharray:none;stroke-dashoffset:0;stroke-opacity:1;marker:none" width="12" height="11" x="34" y="26" rx="1" ry="1"/><path style="font-variation-settings:normal;opacity:.15;fill:none;fill-opacity:1;stroke:#002e99;stroke-width:1.41924;stroke-linecap:round;stroke-linejoin:round;stroke-miterlimit:4;stroke-dasharray:none;stroke-dashoffset:0;stroke-opacity:1;marker:none;stop-color:#000" d="M26 22c-.554 0-1 .446-1 1v6c0 .554.446 1 1 1h7c.554 0 1-.446 1-1v-6c0-.554-.446-1-1-1z" transform="matrix(1.44737 0 0 1.37205 -18.197 -11.172)"/><rect ry="1" rx="1" y="19" x="18" height="11" width="13" style="opacity:.3;fill:#002e99;fill-opacity:1;stroke:none;stroke-width:1;stroke-linecap:round;stroke-linejoin:round;stroke-miterlimit:4;stroke-dasharray:none;stroke-dashoffset:0;stroke-opacity:1;marker:none"/><rect style="fill:url(#q);fill-opacity:1;stroke:none;stroke-width:1;stroke-linecap:round;stroke-linejoin:round;stroke-miterlimit:4;stroke-dasharray:none;stroke-dashoffset:0;stroke-opacity:1;marker:none" width="13" height="11" x="18" y="18" rx="1" ry="1"/></svg>