<?xml version="1.0" encoding="UTF-8" standalone="no"?>
<!-- Created with Inkscape (http://www.inkscape.org/) -->

<svg
   xmlns:dc="http://purl.org/dc/elements/1.1/"
   xmlns:cc="http://creativecommons.org/ns#"
   xmlns:rdf="http://www.w3.org/1999/02/22-rdf-syntax-ns#"
   xmlns:svg="http://www.w3.org/2000/svg"
   xmlns="http://www.w3.org/2000/svg"
   xmlns:xlink="http://www.w3.org/1999/xlink"
   xmlns:sodipodi="http://sodipodi.sourceforge.net/DTD/sodipodi-0.dtd"
   xmlns:inkscape="http://www.inkscape.org/namespaces/inkscape"
   version="1.1"
   width="64"
   height="64"
   id="svg6333"
   inkscape:version="0.48.4 r9939"
   sodipodi:docname="multitasking-view.svg">
  <sodipodi:namedview
     pagecolor="#ffffff"
     bordercolor="#666666"
     borderopacity="1"
     objecttolerance="10"
     gridtolerance="10"
     guidetolerance="10"
     inkscape:pageopacity="0"
     inkscape:pageshadow="2"
     inkscape:window-width="1440"
     inkscape:window-height="845"
     id="namedview49"
     showgrid="false"
     inkscape:zoom="1"
     inkscape:cx="72.314961"
     inkscape:cy="32"
     inkscape:window-x="0"
     inkscape:window-y="30"
     inkscape:window-maximized="1"
     inkscape:current-layer="svg6333">
    <inkscape:grid
       type="xygrid"
       id="grid3502" />
  </sodipodi:namedview>
  <defs
     id="defs6335">
    <linearGradient
       id="linearGradient3924-2-2-5-8">
      <stop
         id="stop3926-9-4-9-6"
         style="stop-color:#ffffff;stop-opacity:1"
         offset="0" />
      <stop
         id="stop3928-9-8-6-5"
         style="stop-color:#ffffff;stop-opacity:0.23529412"
         offset="0.06316455" />
      <stop
         id="stop3930-3-5-1-7"
         style="stop-color:#ffffff;stop-opacity:0.15686275"
         offset="0.95056331" />
      <stop
         id="stop3932-8-0-4-8"
         style="stop-color:#ffffff;stop-opacity:0.39215687"
         offset="1" />
    </linearGradient>
    <radialGradient
       cx="4.9929786"
       cy="43.5"
       r="2.5"
       fx="4.9929786"
       fy="43.5"
       id="radialGradient3337-2-2"
       xlink:href="#linearGradient3688-166-749-4-0-3-8"
       gradientUnits="userSpaceOnUse"
       gradientTransform="matrix(2.003784,0,0,1.4,27.98813,-17.4)" />
    <linearGradient
       id="linearGradient3688-166-749-4-0-3-8">
      <stop
         id="stop2883-4-0-1-8"
         style="stop-color:#181818;stop-opacity:1"
         offset="0" />
      <stop
         id="stop2885-9-2-9-6"
         style="stop-color:#181818;stop-opacity:0"
         offset="1" />
    </linearGradient>
    <radialGradient
       cx="4.9929786"
       cy="43.5"
       r="2.5"
       fx="4.9929786"
       fy="43.5"
       id="radialGradient3339-1-4"
       xlink:href="#linearGradient3688-464-309-9-2-4-2"
       gradientUnits="userSpaceOnUse"
       gradientTransform="matrix(2.003784,0,0,1.4,-20.01187,-104.4)" />
    <linearGradient
       id="linearGradient3688-464-309-9-2-4-2">
      <stop
         id="stop2889-7-9-6-9"
         style="stop-color:#181818;stop-opacity:1"
         offset="0" />
      <stop
         id="stop2891-6-6-1-7"
         style="stop-color:#181818;stop-opacity:0"
         offset="1" />
    </linearGradient>
    <linearGradient
       id="linearGradient3702-501-757-8-4-1-1">
      <stop
         id="stop2895-8-9-9-1"
         style="stop-color:#181818;stop-opacity:0"
         offset="0" />
      <stop
         id="stop2897-7-8-7-7"
         style="stop-color:#181818;stop-opacity:1"
         offset="0.5" />
      <stop
         id="stop2899-4-5-1-5"
         style="stop-color:#181818;stop-opacity:0"
         offset="1" />
    </linearGradient>
    <linearGradient
       x1="25.058096"
       y1="47.027729"
       x2="25.058096"
       y2="39.999443"
       id="linearGradient6394"
       xlink:href="#linearGradient3702-501-757-8-4-1-1"
       gradientUnits="userSpaceOnUse" />
    <linearGradient
       id="linearGradient5803-6">
      <stop
         offset="0"
         style="stop-color:#ffffff;stop-opacity:1;"
         id="stop5805-7" />
      <stop
         offset="1"
         style="stop-color:#e6f4f8;stop-opacity:1;"
         id="stop5807-8" />
    </linearGradient>
    <linearGradient
       inkscape:collect="always"
       xlink:href="#linearGradient3924-2-2-5-8"
       id="linearGradient3448"
       gradientUnits="userSpaceOnUse"
       gradientTransform="matrix(1.4324324,0,0,1.4362832,-2.378381,-2.4707782)"
       x1="23.99999"
       y1="4.999989"
       x2="23.99999"
       y2="43" />
    <radialGradient
       inkscape:collect="always"
       xlink:href="#linearGradient2867-449-88-871-390-598-476-591-434-148-57-177-8-3-5-6"
       id="radialGradient3422-5"
       gradientUnits="userSpaceOnUse"
       gradientTransform="matrix(0,8.4616298,-16.443533,0,196.90204,-80.463829)"
       cx="7.7392125"
       cy="9.9571075"
       fx="7.2089825"
       fy="9.9571075"
       r="12.671875" />
    <linearGradient
       id="linearGradient2867-449-88-871-390-598-476-591-434-148-57-177-8-3-5-6">
      <stop
         offset="0"
         style="stop-color:#90dbec;stop-opacity:1"
         id="stop3750-1-0-6-9" />
      <stop
         offset="0.26238"
         style="stop-color:#55c1ec;stop-opacity:1"
         id="stop3752-3-7-8-3" />
      <stop
         offset="0.704952"
         style="stop-color:#3689e6;stop-opacity:1"
         id="stop3754-1-8-5-8" />
      <stop
         offset="1"
         style="stop-color:#2b63a0;stop-opacity:1"
         id="stop3756-1-6-3-7" />
    </linearGradient>
    <linearGradient
       inkscape:collect="always"
       xlink:href="#linearGradient5803-6"
       id="linearGradient3512"
       gradientUnits="userSpaceOnUse"
       gradientTransform="matrix(0.99526986,0,0,0.94787606,-130.07701,-0.5191699)"
       x1="167.98311"
       y1="13.398731"
       x2="167.98311"
       y2="54.780239" />
  </defs>
  <metadata
     id="metadata6338">
    <rdf:RDF>
      <cc:Work
         rdf:about="">
        <dc:format>image/svg+xml</dc:format>
        <dc:type
           rdf:resource="http://purl.org/dc/dcmitype/StillImage" />
        <dc:title></dc:title>
      </cc:Work>
    </rdf:RDF>
  </metadata>
  <g
     style="opacity:0.6"
     id="g3712-8-2-4-4"
     transform="matrix(1.5789502,0,0,0.7142857,-5.894751,27.928572)">
    <rect
       style="fill:url(#radialGradient3337-2-2);fill-opacity:1;stroke:none"
       id="rect2801-5-5-7-9"
       y="40"
       x="38"
       height="7"
       width="5" />
    <rect
       style="fill:url(#radialGradient3339-1-4);fill-opacity:1;stroke:none"
       id="rect3696-3-0-3-7"
       transform="scale(-1,-1)"
       y="-47"
       x="-10"
       height="7"
       width="5" />
    <rect
       style="fill:url(#linearGradient6394);fill-opacity:1;stroke:none"
       id="rect3700-5-6-8-4"
       y="40"
       x="10"
       height="7.0000005"
       width="28" />
  </g>
  <rect
     style="color:#000000;fill:url(#radialGradient3422-5);fill-opacity:1;fill-rule:nonzero;stroke:none;stroke-width:0.99999994000000003;marker:none;visibility:visible;display:inline;overflow:visible;enable-background:accumulate"
     id="rect5505-21-3-8-5-2"
     y="4.5000019"
     x="4.4999986"
     ry="3"
     rx="3"
     height="55"
     width="55" />
  <rect
     style="opacity:0.5;fill:none;stroke:url(#linearGradient3448);stroke-width:1;stroke-linecap:round;stroke-linejoin:round;stroke-miterlimit:4;stroke-opacity:1;stroke-dasharray:none;stroke-dashoffset:0"
     id="rect6741-5-0-2-3"
     y="5.4287739"
     x="5.4999986"
     ry="2"
     rx="2"
     height="53.142479"
     width="53" />
  <rect
     style="opacity:0.40000000000000002;color:#000000;fill:none;stroke:#003164;stroke-width:1;stroke-linecap:round;stroke-linejoin:round;stroke-miterlimit:4;stroke-opacity:1;stroke-dasharray:none;stroke-dashoffset:0;marker:none;visibility:visible;display:inline;overflow:visible;enable-background:accumulate"
     id="rect5505-21-3-8-9-1-1"
     y="4.5000019"
     x="4.4999986"
     ry="3"
     rx="3"
     height="55"
     width="55" />
  <path
     style="opacity:0.15;color:#000000;fill:#0974ae;fill-opacity:1;fill-rule:nonzero;stroke:none;stroke-width:1;marker:none;visibility:visible;display:inline;overflow:visible;enable-background:accumulate"
     d="M 11.40625,12 C 10.106455,12 9,13.031423 9,14.34375 l 0,13.3125 C 9,28.968577 10.106456,30 11.40625,30 l 18.1875,0 C 30.893544,30 32,28.968577 32,27.65625 l 0,-13.3125 C 32,13.031423 30.893545,12 29.59375,12 z m 25.8125,2 C 36.529411,14 35.935094,14.366879 35.5625,14.84375 35.189906,15.320621 35,15.917044 35,16.5625 l 0,13.875 c 0,0.645456 0.189906,1.241879 0.5625,1.71875 C 35.935094,32.633121 36.529411,33 37.21875,33 l 15.5625,0 c 0.689339,0 1.283656,-0.36688 1.65625,-0.84375 C 54.810094,31.67938 55,31.082956 55,30.4375 l 0,-13.875 C 55,15.917044 54.810094,15.32062 54.4375,14.84375 54.064906,14.36688 53.470589,14 52.78125,14 z M 20.65625,35 C 19.218924,35 18,36.131138 18,37.5625 l 0,13.875 C 18,52.868862 19.218924,54 20.65625,54 l 21.6875,0 C 43.781076,54 45,52.868862 45,51.4375 l 0,-13.875 C 45,36.131138 43.781076,35 42.34375,35 z"
     id="path4014"
     inkscape:connector-curvature="0"
     sodipodi:nodetypes="sssssssssssssssssssssssssssssss" />
  <path
     inkscape:connector-curvature="0"
     style="opacity:0.3;color:#000000;fill:#0935ae;fill-opacity:1;fill-rule:nonzero;stroke:none;stroke-width:1;marker:none;visibility:visible;display:inline;overflow:visible;enable-background:accumulate"
     d="M 11.40625,13 C 10.63065,13 10,13.605084 10,14.34375 l 0,13.3125 C 10,28.394917 10.63065,29 11.40625,29 l 18.1875,0 C 30.36935,29 31,28.394917 31,27.65625 l 0,-13.3125 C 31,13.605084 30.36935,13 29.59375,13 l -18.1875,0 z m 25.8125,2 C 36.55395,15 36,15.706318 36,16.5625 l 0,13.875 C 36,31.293682 36.55395,32 37.21875,32 l 15.5625,0 C 53.446049,32 54,31.293682 54,30.4375 l 0,-13.875 C 54,15.706318 53.446049,15 52.78125,15 l -15.5625,0 z M 20.65625,36 C 19.732917,36 19,36.706318 19,37.5625 l 0,13.875 C 19,52.293682 19.732917,53 20.65625,53 l 21.6875,0 C 43.267083,53 44,52.293682 44,51.4375 l 0,-13.875 C 44,36.706318 43.267083,36 42.34375,36 l -21.6875,0 z"
     id="path3508-2" />
  <path
     style="color:#000000;fill:url(#linearGradient3512);fill-opacity:1;fill-rule:nonzero;stroke:none;stroke-width:1;marker:none;visibility:visible;display:inline;overflow:visible;enable-background:accumulate"
     d="M 11.40625 12 C 10.63065 12 10 12.605084 10 13.34375 L 10 26.65625 C 10 27.394917 10.63065 28 11.40625 28 L 29.59375 28 C 30.36935 28 31 27.394917 31 26.65625 L 31 13.34375 C 31 12.605084 30.36935 12 29.59375 12 L 11.40625 12 z M 37.21875 14 C 36.55395 14 36 14.706318 36 15.5625 L 36 29.4375 C 36 30.293682 36.55395 31 37.21875 31 L 52.78125 31 C 53.446049 31 54 30.293682 54 29.4375 L 54 15.5625 C 54 14.706318 53.446049 14 52.78125 14 L 37.21875 14 z M 20.65625 35 C 19.732917 35 19 35.706318 19 36.5625 L 19 50.4375 C 19 51.293682 19.732917 52 20.65625 52 L 42.34375 52 C 43.267083 52 44 51.293682 44 50.4375 L 44 36.5625 C 44 35.706318 43.267083 35 42.34375 35 L 20.65625 35 z "
     id="path3508" />
</svg>
