<svg xmlns="http://www.w3.org/2000/svg" xmlns:xlink="http://www.w3.org/1999/xlink" width="64" height="64"><defs><linearGradient id="c"><stop style="stop-color:#ffa154;stop-opacity:1" offset="0"/><stop style="stop-color:#f37329;stop-opacity:1" offset="1"/></linearGradient><linearGradient x1="24" y1="5" x2="24" y2="43" id="j" xlink:href="#a" gradientUnits="userSpaceOnUse" gradientTransform="matrix(1.43243 0 0 1.43628 -2.378 -2.47)"/><linearGradient id="a"><stop style="stop-color:#fff;stop-opacity:1" offset="0"/><stop style="stop-color:#fff;stop-opacity:.23529412" offset=".063"/><stop style="stop-color:#fff;stop-opacity:.15686275" offset=".951"/><stop style="stop-color:#fff;stop-opacity:.39215687" offset="1"/></linearGradient><linearGradient id="d"><stop style="stop-color:#181818;stop-opacity:1" offset="0"/><stop style="stop-color:#181818;stop-opacity:0" offset="1"/></linearGradient><linearGradient id="e"><stop style="stop-color:#181818;stop-opacity:1" offset="0"/><stop style="stop-color:#181818;stop-opacity:0" offset="1"/></linearGradient><linearGradient id="b"><stop style="stop-color:#181818;stop-opacity:0" offset="0"/><stop style="stop-color:#181818;stop-opacity:1" offset=".5"/><stop style="stop-color:#181818;stop-opacity:0" offset="1"/></linearGradient><linearGradient x1="25.058" y1="47.028" x2="25.058" y2="39.999" id="h" xlink:href="#b" gradientUnits="userSpaceOnUse" gradientTransform="matrix(1.57143 0 0 .71429 -5.714 27.929)"/><linearGradient xlink:href="#c" id="i" x1="23.528" y1="6.083" x2="23.528" y2="44.233" gradientUnits="userSpaceOnUse" gradientTransform="translate(-1.846 -3.256) scale(1.41026)"/><radialGradient cx="4.993" cy="43.5" r="2.5" fx="4.993" fy="43.5" id="f" xlink:href="#d" gradientUnits="userSpaceOnUse" gradientTransform="matrix(2.40454 0 0 1 41.986 15.5)"/><radialGradient cx="4.993" cy="43.5" r="2.5" fx="4.993" fy="43.5" id="g" xlink:href="#e" gradientUnits="userSpaceOnUse" gradientTransform="matrix(2.40454 0 0 1 -22.014 -102.5)"/></defs><path style="opacity:.6;fill:url(#f);fill-opacity:1;stroke:none;stroke-width:1.06199" d="M54 56.5h6v5h-6z"/><path style="opacity:.6;fill:url(#g);fill-opacity:1;stroke:none;stroke-width:1.06199" transform="scale(-1)" d="M-10-61.5h6v5h-6z"/><path style="opacity:.6;fill:url(#h);fill-opacity:1;stroke:none;stroke-width:1.06199" d="M10 56.5h44v5H10z"/><rect style="color:#000;display:inline;overflow:visible;visibility:visible;opacity:1;fill:url(#i);fill-opacity:1;fill-rule:nonzero;stroke:#a62100;stroke-width:1;stroke-opacity:.5;marker:none;enable-background:accumulate" y="4.5" x="4.5" ry="6" rx="6" height="55" width="55"/><rect style="opacity:.5;fill:none;stroke:url(#j);stroke-width:1;stroke-linecap:round;stroke-linejoin:round;stroke-miterlimit:4;stroke-dasharray:none;stroke-dashoffset:0;stroke-opacity:1" y="5.429" x="5.5" ry="5" height="53.142" width="53" rx="5"/><path style="color:#000;font-variation-settings:normal;clip-rule:nonzero;display:inline;overflow:visible;visibility:visible;opacity:.15;isolation:auto;mix-blend-mode:normal;color-interpolation:sRGB;color-interpolation-filters:linearRGB;solid-color:#000;solid-opacity:1;vector-effect:none;fill:#a62100;fill-opacity:1;fill-rule:nonzero;stroke:none;stroke-width:1;stroke-linecap:butt;stroke-linejoin:miter;stroke-miterlimit:4;stroke-dasharray:none;stroke-dashoffset:0;stroke-opacity:1;marker:none;color-rendering:auto;image-rendering:auto;shape-rendering:auto;text-rendering:auto;enable-background:accumulate;stop-color:#000;stop-opacity:1" d="M42.736 16a1 1 0 0 0-.248.031l-14.742 3.81a1 1 0 0 0-.01.003c-1.618.433-2.738 1.925-2.738 3.59v18.84c-1.035-.261-2.14-.371-3.312-.067-1.554.404-2.843 1.26-3.682 2.377-.839 1.117-1.222 2.54-.842 3.918.762 2.76 4.036 4.073 7.15 3.264 2.49-.647 4.306-2.482 4.612-4.639a1 1 0 0 0 .01-.137l.06-18.416 11.994-3.21v12.911c-1.035-.26-2.14-.37-3.312-.066-1.554.404-2.843 1.26-3.682 2.377-.839 1.117-1.222 2.54-.842 3.918.763 2.76 4.038 4.073 7.153 3.264 2.489-.647 4.305-2.482 4.611-4.64a1 1 0 0 0 .01-.138l.062-24.363a1 1 0 0 0 0-.002c0-1.273-.872-2.407-2.084-2.611a1 1 0 0 0-.168-.014Z"/><path d="m42.739 17-14.743 3.81c-1.107.297-1.999 1.478-1.999 2.624v20.179a5.677 5.677 0 0 0-4.06-.437c-2.698.7-4.39 2.966-3.81 5.06.578 2.093 3.236 3.262 5.934 2.56 2.152-.559 3.636-2.141 3.873-3.81l.062-19.179 13.993-3.748v15.556a5.677 5.677 0 0 0-4.06-.437c-2.699.7-4.39 2.966-3.811 5.06.578 2.093 3.236 3.262 5.934 2.56 2.153-.559 3.637-2.141 3.873-3.81l.063-24.364c0-.86-.532-1.503-1.25-1.624z" style="color:#000;font-variation-settings:normal;clip-rule:nonzero;display:inline;overflow:visible;visibility:visible;opacity:.3;isolation:auto;mix-blend-mode:normal;color-interpolation:sRGB;color-interpolation-filters:linearRGB;solid-color:#000;solid-opacity:1;vector-effect:none;fill:#a62100;fill-opacity:1;fill-rule:nonzero;stroke:none;stroke-width:1;stroke-linecap:butt;stroke-linejoin:miter;stroke-miterlimit:4;stroke-dasharray:none;stroke-dashoffset:0;stroke-opacity:1;marker:none;color-rendering:auto;image-rendering:auto;shape-rendering:auto;text-rendering:auto;enable-background:accumulate;stop-color:#000;stop-opacity:1"/><path d="m42.739 16-14.743 3.81c-1.107.297-1.999 1.477-1.999 2.624v20.178a5.677 5.677 0 0 0-4.06-.437c-2.698.701-4.39 2.967-3.81 5.06.578 2.093 3.236 3.262 5.934 2.561 2.152-.56 3.636-2.142 3.873-3.81l.062-19.18 13.993-3.748v15.556a5.677 5.677 0 0 0-4.06-.437c-2.699.701-4.39 2.967-3.811 5.06.578 2.093 3.236 3.262 5.934 2.561 2.153-.56 3.637-2.142 3.873-3.81l.063-24.364c0-.86-.532-1.504-1.25-1.624z" style="color:#000;clip-rule:nonzero;display:inline;overflow:visible;visibility:visible;opacity:1;isolation:auto;mix-blend-mode:normal;color-interpolation:sRGB;color-interpolation-filters:linearRGB;solid-color:#000;solid-opacity:1;fill:#fff;fill-opacity:1;fill-rule:nonzero;stroke:none;stroke-width:1;stroke-linecap:butt;stroke-linejoin:miter;stroke-miterlimit:4;stroke-dasharray:none;stroke-dashoffset:0;stroke-opacity:1;marker:none;color-rendering:auto;image-rendering:auto;shape-rendering:auto;text-rendering:auto;enable-background:accumulate;font-variation-settings:normal;vector-effect:none;stop-color:#000;stop-opacity:1"/><path style="color:#000;font-variation-settings:normal;clip-rule:nonzero;display:inline;overflow:visible;visibility:visible;opacity:.07;isolation:auto;mix-blend-mode:normal;color-interpolation:sRGB;color-interpolation-filters:linearRGB;solid-color:#000;solid-opacity:1;vector-effect:none;fill:#a62100;fill-opacity:1;fill-rule:nonzero;stroke:none;stroke-width:1;stroke-linecap:butt;stroke-linejoin:miter;stroke-miterlimit:4;stroke-dasharray:none;stroke-dashoffset:0;stroke-opacity:1;marker:none;color-rendering:auto;image-rendering:auto;shape-rendering:auto;text-rendering:auto;enable-background:accumulate;stop-color:#000;stop-opacity:1" d="m39.992 21.63-10.004 2.678c-1.17.32-1.992 1.245-1.992 2.499l13.992-3.748c0-1.202-1.092-1.68-1.996-1.429zm3.936 19.806c-.828 1.09-2.097 1.935-3.623 2.332-2.406.625-4.902-.022-6.268-1.618-.028.362-.02.726.08 1.086.579 2.093 3.238 3.264 5.936 2.563 2.152-.56 3.636-2.142 3.873-3.81zm-15.992 3.996c-.828 1.09-2.097 1.937-3.624 2.334-2.406.625-4.902-.021-6.267-1.618-.029.362-.018.726.082 1.086.578 2.094 3.235 3.264 5.934 2.563 2.152-.56 3.636-2.142 3.873-3.81z"/><path style="color:#000;font-variation-settings:normal;clip-rule:nonzero;display:inline;overflow:visible;visibility:visible;opacity:.15;isolation:auto;mix-blend-mode:normal;color-interpolation:sRGB;color-interpolation-filters:linearRGB;solid-color:#000;solid-opacity:1;vector-effect:none;fill:#a62100;fill-opacity:1;fill-rule:nonzero;stroke:none;stroke-width:1;stroke-linecap:butt;stroke-linejoin:miter;stroke-miterlimit:4;stroke-dasharray:none;stroke-dashoffset:0;stroke-opacity:1;marker:none;color-rendering:auto;image-rendering:auto;shape-rendering:auto;text-rendering:auto;enable-background:accumulate;stop-color:#000;stop-opacity:1" d="m43.986 17.592-.06 23.396c-.237 1.669-1.72 3.252-3.873 3.81-2.698.702-5.357-.467-5.936-2.56-.026-.094-.041-.188-.058-.283-.06.425-.06.856.058 1.281.579 2.093 3.238 3.264 5.936 2.563 2.152-.56 3.636-2.142 3.873-3.81l.062-24.366-.002-.031zM42 23c0-.456-.374-.84-.999-.677l-12.029 3.222c-.598.17-.976.455-.976 1.262l-.062 18.18c-.006 1.685-1.72 3.25-3.873 3.81-2.699.7-5.356-.468-5.934-2.56a2.716 2.716 0 0 1-.06-.29c-.061.427-.058.86.06 1.287.578 2.094 3.235 3.264 5.934 2.563 2.152-.56 3.636-2.142 3.873-3.81l.062-19.18 13.992-3.748z"/></svg>