<svg height="64" width="64" xmlns:xlink="http://www.w3.org/1999/xlink" xmlns="http://www.w3.org/2000/svg"><defs><linearGradient id="b"><stop offset="0" style="stop-color:#fff;stop-opacity:1"/><stop offset=".063" style="stop-color:#fff;stop-opacity:.23529412"/><stop offset=".951" style="stop-color:#fff;stop-opacity:.15686275"/><stop offset="1" style="stop-color:#fff;stop-opacity:.39215687"/></linearGradient><linearGradient id="e"><stop offset="0" style="stop-color:#181818;stop-opacity:1"/><stop offset="1" style="stop-color:#181818;stop-opacity:0"/></linearGradient><linearGradient id="d"><stop offset="0" style="stop-color:#181818;stop-opacity:0"/><stop offset=".5" style="stop-color:#181818;stop-opacity:1"/><stop offset="1" style="stop-color:#181818;stop-opacity:0"/></linearGradient><linearGradient id="a"><stop style="stop-color:#fafafa;stop-opacity:1" offset="0"/><stop style="stop-color:#abacae;stop-opacity:1" offset=".423"/><stop style="stop-color:#d4d4d4;stop-opacity:1" offset=".701"/><stop style="stop-color:#7e8087;stop-opacity:1" offset="1"/></linearGradient><linearGradient id="c"><stop style="stop-color:#4d4d4d;stop-opacity:1" offset="0"/><stop style="stop-color:#1a1a1a;stop-opacity:1" offset="1"/></linearGradient><linearGradient xlink:href="#a" id="l" gradientUnits="userSpaceOnUse" gradientTransform="rotate(180 44.5 123)" x1="74.881" y1="172.839" x2="97.295" y2="207.149" spreadMethod="reflect"/><linearGradient xlink:href="#a" id="k" gradientUnits="userSpaceOnUse" gradientTransform="rotate(180 73.5 123)" x1="74.881" y1="172.839" x2="97.295" y2="207.149" spreadMethod="reflect"/><linearGradient xlink:href="#a" id="j" gradientUnits="userSpaceOnUse" gradientTransform="translate(-54 -158)" x1="74.881" y1="172.839" x2="97.295" y2="207.149" spreadMethod="reflect"/><linearGradient xlink:href="#b" id="m" gradientUnits="userSpaceOnUse" gradientTransform="matrix(1.43243 0 0 1.43628 -2.378 -2.47)" x1="24" y1="5" x2="24" y2="43"/><linearGradient xlink:href="#c" id="i" gradientUnits="userSpaceOnUse" gradientTransform="translate(-130.615 -97.308) scale(.6923)" x1="234.838" y1="147.472" x2="234.838" y2="227.73"/><linearGradient xlink:href="#d" id="h" gradientUnits="userSpaceOnUse" gradientTransform="matrix(1.57143 0 0 .71429 -5.714 27.929)" x1="25.058" y1="47.028" x2="25.058" y2="39.999"/><radialGradient cx="4.993" cy="43.5" r="2.5" fx="4.993" fy="43.5" id="g" xlink:href="#e" gradientUnits="userSpaceOnUse" gradientTransform="matrix(2.40454 0 0 1 -22.014 -102.5)"/><radialGradient cx="4.993" cy="43.5" r="2.5" fx="4.993" fy="43.5" id="f" xlink:href="#e" gradientUnits="userSpaceOnUse" gradientTransform="matrix(2.40454 0 0 1 41.986 15.5)"/></defs><path style="opacity:.6;fill:url(#f);fill-opacity:1;stroke:none;stroke-width:1.06199" d="M54 56.5h6v5h-6z"/><path style="opacity:.6;fill:url(#g);fill-opacity:1;stroke:none;stroke-width:1.06199" transform="scale(-1)" d="M-10-61.5h6v5h-6z"/><path style="opacity:.6;fill:url(#h);fill-opacity:1;stroke:none;stroke-width:1.06199" d="M10 56.5h44v5H10z"/><rect style="color:#000;font-variation-settings:normal;display:inline;overflow:visible;visibility:visible;fill:url(#i);fill-opacity:1;fill-rule:nonzero;stroke:#000;stroke-width:.999998;stroke-linecap:butt;stroke-linejoin:miter;stroke-miterlimit:4;stroke-dasharray:none;stroke-dashoffset:0;stroke-opacity:.5;marker:none;enable-background:accumulate;stop-color:#000" y="4.5" x="4.5" ry="6" rx="6" height="55" width="55"/><path style="font-variation-settings:normal;opacity:.15;fill:#000;fill-opacity:1;stroke:none;stroke-width:.999997;stroke-linecap:round;stroke-linejoin:round;stroke-miterlimit:4;stroke-dasharray:none;stroke-dashoffset:0;stroke-opacity:.5;stop-color:#000" d="M32.412 11.98c-.473.011-.957.07-1.412.02l-.207.021c-1.297.321-1.488 1.891-1.666 3-.197.437.205 1.365-.477 1.33-.568.183-.573-.823-.931-1.156-.582-.945-1.42-2.329-2.73-2.008-.834.419-1.892.54-2.524 1.27-.685 1.305-.041 2.827.34 4.13-.098.654-.859.42-1.172-.087-.94-.686-2.058-1.706-3.31-1.338-.805.425-1.349 1.23-2.005 1.848-.704 1.145.277 2.398.938 3.312.174.451 1.112.825.623 1.283-.283.522-1.002-.192-1.5-.17-1.079-.262-2.65-.64-3.348.512-.291.888-.96 1.727-.88 2.694.444 1.4 1.969 2.019 3.158 2.67.337.538-.313.902-.893.767-1.153.18-2.672.25-3.293 1.406-.261.87-.078 1.823-.102 2.723.321 1.297 1.891 1.488 3 1.666.437.197 1.365-.205 1.33.477.183.568-.823.573-1.156.931-.587.347-1.167.734-1.617 1.252-.557-.8-1.657-.87-2.465-1.316-1.266-.426-2.167.892-2.74 1.816-.328.39-.459 1.137-.828 1.362-.7.073-.585-.532-.629-1.043-.157-.955-.155-2.123-1.068-2.696a1.05 1.05 0 0 0-.348-.035v8.516c.13.056.275.082.447.06 3.722.597 7.077 3.063 8.73 6.455 1.259 2.385 1.636 5.224 1.005 7.848h7.966c.086-.032.173-.063.256-.102.882-.288 1.244-1.237 1.096-2.097-.004-.875.19-2.017-.744-2.514-1.072-.6-2.34-.692-3.541-.77-.3-.613.075-.86.646-1.048.745-.41 1.495-.858 2.06-1.502.558.8 1.658.87 2.466 1.316 1.266.426 2.167-.892 2.74-1.816.328-.39.461-1.14.83-1.363.774-.09.552.663.645 1.19.184 1.14.312 2.722 1.59 3.163.893.053 1.829.113 2.71-.037 1.205-.498 1.314-2.019 1.498-3.139.092-.523-.134-1.276.645-1.177.367.234.507.977.836 1.375.572.919 1.47 2.23 2.732 1.804.807-.446 1.91-.517 2.465-1.316.77.855 1.816 1.395 2.838 1.89.044.684-.4.765-1 .721-1.153.18-2.672.25-3.293 1.406-.261.87-.078 1.823-.102 2.723.171.691.7 1.064 1.323 1.293h7.959c-.732-3.128-.06-6.518 1.732-9.176 1.876-2.864 5.074-4.782 8.465-5.197v-8.51a.813.813 0 0 0-.43.112c-.913.654-.856 1.913-1.011 2.921.187.548-.371.912-.748.659-.646-1.183-1.26-2.682-2.635-3.149-.978-.12-1.827.58-2.725.867-.44.413-.614.58-1.025.028-.703-.59-1.522-1.021-2.346-1.414-.07-.76.52-.719 1.115-.729 1.139-.189 2.687-.275 3.217-1.488.177-.886.085-1.833.045-2.733-.443-1.281-2.03-1.408-3.176-1.591-.461-.117-1.23.16-1.144-.55-.058-.476.861-.494 1.168-.831.945-.582 2.329-1.42 2.008-2.73-.419-.834-.54-1.892-1.27-2.524-1.305-.685-2.827-.041-4.13.34-.444-.116-.588-.754-.042-1.02.735-.96 1.755-2.065 1.508-3.37-.394-.865-1.256-1.412-1.889-2.097-1.145-.704-2.398.277-3.312.938-.425.15-.78 1.053-1.207.633-.641-.205.051-.865.043-1.317.27-1.115.727-2.678-.373-3.494-.875-.329-1.717-.913-2.668-.945-1.346.295-1.984 1.722-2.6 2.814.007.564-.798.534-.896.166-.146-1.319-.146-2.911-1.22-3.855-.41-.25-.872-.288-1.345-.278zM34 21.191l.54.079c3.004.686 5.753 2.504 7.439 5.1 2.125 3.132 2.607 7.312 1.244 10.847l-6.244-3.606c.272-2.137-.979-4.37-2.979-5.195v-7.225zm-4.281.05c.343.026.348.493.281.995v6.188c-1.996.823-3.252 3.052-2.979 5.187l-6.214 3.59c-1.311-3.288-.956-7.135.826-10.18 1.633-2.815 4.446-4.907 7.619-5.644.2-.104.352-.146.467-.137zm2.39 10.765c.974.052 1.207 1.537.295 1.883-.9.493-1.87-.83-1.13-1.541.2-.253.528-.335.835-.342zm-3.043 5.04.073.061c1.692 1.207 4.133 1.196 5.795-.06l6.279 3.627c-2.762 3.384-7.478 5.025-11.74 4.035a11.96 11.96 0 0 1-6.645-4.059l6.238-3.603zm22.323 4.17c.04.023.076.137.105.388l.026.095.017.067c.14.496.55 1.05-.139 1.254-.293-.004-1.126-.574-.478-.875.182-.249.347-.995.469-.928zm-38.702.075c.072.026.151.194.25.568l.04.092.003.01c.449.449.385.7-.183 1.03-.479.135-.827-.478-.428-.927.108-.462.2-.816.319-.773zm9.752 5.7a.165.165 0 0 1 .11.091c.62.246-.098.95-.088 1.443-.136.798-.328-.515-.598-.752-.55-.168.244-.874.576-.783zm19.123.017a.903.903 0 0 1 .235.002c.574.33.635.581.183 1.03-.244.816-.427.97-.564.042-.262-.483-.322-1.01.147-1.074z"/><path style="font-variation-settings:normal;fill:#000;fill-opacity:1;stroke:none;stroke-width:.999997;stroke-linecap:round;stroke-linejoin:round;stroke-miterlimit:4;stroke-dasharray:none;stroke-dashoffset:0;stroke-opacity:.5;stop-color:#000;opacity:.3" d="M31 13c-.554 0-1 1.784-1 4v.143a16 16 0 0 0-2.22.443l-.055-.133c-.848-2.047-1.944-3.524-2.455-3.312l-1.848.763c-.512.212-.24 2.031.607 4.078l.063.153a16 16 0 0 0-1.875 1.254l-.117-.118c-1.567-1.566-3.144-2.512-3.536-2.12l-1.414 1.413c-.391.392.555 1.969 2.121 3.536l.118.117a16 16 0 0 0-1.254 1.875l-.153-.063c-2.047-.848-3.866-1.119-4.078-.607l-.763 1.848c-.212.511 1.265 1.607 3.312 2.455l.133.054A16 16 0 0 0 16.143 31H16c-2.216 0-4 .446-4 1v2c0 .554 1.784 1 4 1h.143a16 16 0 0 0 .443 2.22l-.133.055c-2.047.848-3.524 1.944-3.312 2.455l.763 1.848c.212.512 2.031.24 4.078-.607l.153-.063a16 16 0 0 0 1.254 1.875l-.118.117c-1.566 1.567-2.512 3.144-2.12 3.536l1.413 1.414c.392.391 1.969-.555 3.536-2.121l.117-.118a16 16 0 0 0 1.875 1.254l-.063.153c-.848 2.047-1.119 3.866-.607 4.078l1.848.763c.511.212 1.607-1.265 2.455-3.312l.054-.133a16 16 0 0 0 2.221.443V49c0 2.216.446 4 1 4h2c.554 0 1-1.784 1-4v-.143a16 16 0 0 0 2.22-.443l.055.133c.848 2.047 1.944 3.524 2.455 3.312l1.848-.763c.512-.212.24-2.031-.607-4.078l-.063-.153a16 16 0 0 0 1.875-1.254l.117.118c1.567 1.566 3.144 2.512 3.536 2.12l1.414-1.413c.391-.392-.555-1.969-2.121-3.536l-.118-.117a16 16 0 0 0 1.254-1.875l.153.063c2.047.848 3.866 1.119 4.078.607l.763-1.848c.212-.511-1.265-1.607-3.312-2.455l-.133-.054A16 16 0 0 0 47.857 35H48c2.216 0 4-.446 4-1v-2c0-.554-1.784-1-4-1h-.13a16 16 0 0 0-.444-2.225l.12-.05c2.048-.848 3.525-1.944 3.313-2.455l-.763-1.848c-.212-.512-2.031-.24-4.078.607l-.12.05a16 16 0 0 0-1.261-1.888l.092-.091c1.566-1.567 2.512-3.144 2.12-3.536l-1.413-1.414c-.392-.391-1.969.555-3.536 2.121l-.091.092a16 16 0 0 0-1.887-1.261l.049-.12c.848-2.047 1.119-3.866.607-4.078l-1.848-.763c-.511-.212-1.607 1.265-2.455 3.312l-.05.121A16 16 0 0 0 34 17.131V17c0-2.216-.446-4-1-4h-2zm2 7.035A13.007 13.007 0 0 1 45.008 33a13.007 13.007 0 0 1-1.299 5.652l-7.85-4.533A4.02 4.02 0 0 0 36.02 33 4.02 4.02 0 0 0 33 29.107v-9.072zm-2 .045v9.035A4.02 4.02 0 0 0 27.98 33a4.02 4.02 0 0 0 .16 1.12l-7.812 4.51A13.007 13.007 0 0 1 18.992 33 13.007 13.007 0 0 1 31 20.08zM32 31a2 2 0 0 1 2 2 2 2 0 0 1-2 2 2 2 0 0 1-2-2 2 2 0 0 1 2-2zm-2.834 4.836A4.02 4.02 0 0 0 32 37.02a4.02 4.02 0 0 0 2.834-1.184l7.875 4.547A13.007 13.007 0 0 1 32 46.008a13.007 13.007 0 0 1-10.666-5.649l7.832-4.523zM4.5 37.55v6.57c3.706.44 7.044 2.45 9.166 5.52l1.006 1.728A13.007 13.007 0 0 1 16.008 57a13.001 13.001 0 0 1-.297 2.5h3.06c.03-.166.061-.333.086-.5H19c2.216 0 4-.446 4-1v-2c0-.554-1.784-1-4-1h-.143a15.992 15.992 0 0 0-.443-2.22l.133-.055c2.047-.848 3.524-1.944 3.312-2.455l-.763-1.848c-.212-.512-2.031-.24-4.078.607l-.153.063a16 16 0 0 0-1.254-1.875l.118-.117c1.566-1.567 2.512-3.144 2.12-3.536l-1.413-1.414c-.392-.391-1.969.555-3.536 2.121l-.117.118a16 16 0 0 0-1.875-1.254l.063-.153c.848-2.047 1.119-3.866.607-4.078l-1.848-.763c-.511-.212-1.607 1.265-2.455 3.312l-.054.133A16 16 0 0 0 5 41.143V41c0-1.483-.202-2.758-.5-3.45zm55 0c-.298.69-.5 1.966-.5 3.449v.143c-.75.095-1.492.243-2.22.443l-.055-.133c-.848-2.047-1.944-3.524-2.455-3.312l-1.848.763c-.512.212-.24 2.031.607 4.078l.063.153a16 16 0 0 0-1.875 1.254l-.117-.118c-1.567-1.566-3.144-2.512-3.536-2.12l-1.414 1.413c-.391.392.555 1.969 2.121 3.536l.118.117a16 16 0 0 0-1.254 1.875l-.153-.063c-2.047-.848-3.866-1.119-4.078-.607l-.763 1.848c-.212.511 1.265 1.607 3.312 2.455l.133.054A16 16 0 0 0 45.143 55H45c-2.216 0-4 .446-4 1v2c0 .554 1.784 1 4 1h.13c.026.167.056.334.087.5h3.053a13.009 13.009 0 0 1-.278-2.5c.002-1.958.446-3.89 1.299-5.652l1-1.73a13.007 13.007 0 0 1 9.209-5.505v-6.562z"/><path style="font-variation-settings:normal;fill:url(#j);fill-opacity:1;stroke:none;stroke-width:.999997;stroke-linecap:round;stroke-linejoin:round;stroke-miterlimit:4;stroke-dasharray:none;stroke-dashoffset:0;stroke-opacity:.5;stop-color:#000" d="M31 12c-.554 0-1 1.784-1 4v.143a16 16 0 0 0-2.22.443l-.055-.133c-.848-2.047-1.944-3.524-2.455-3.312l-1.848.763c-.512.212-.24 2.031.607 4.078l.063.153a16 16 0 0 0-1.875 1.254l-.117-.118c-1.567-1.566-3.144-2.512-3.536-2.12l-1.414 1.413c-.391.392.555 1.969 2.121 3.536l.118.117a16 16 0 0 0-1.254 1.875l-.153-.063c-2.047-.848-3.866-1.119-4.078-.607l-.763 1.848c-.212.511 1.265 1.607 3.312 2.455l.133.054A16 16 0 0 0 16.143 30H16c-2.216 0-4 .446-4 1v2c0 .554 1.784 1 4 1h.143a16 16 0 0 0 .443 2.22l-.133.055c-2.047.848-3.524 1.944-3.312 2.455l.763 1.848c.212.512 2.031.24 4.078-.607l.153-.063a16 16 0 0 0 1.254 1.875l-.118.117c-1.566 1.567-2.512 3.144-2.12 3.536l1.413 1.414c.392.391 1.969-.555 3.536-2.121l.117-.118a16 16 0 0 0 1.875 1.254l-.063.153c-.848 2.047-1.119 3.866-.607 4.078l1.848.763c.511.212 1.607-1.265 2.455-3.312l.054-.133a16 16 0 0 0 2.221.443V48c0 2.216.446 4 1 4h2c.554 0 1-1.784 1-4v-.143a16 16 0 0 0 2.22-.443l.055.133c.848 2.047 1.944 3.524 2.455 3.312l1.848-.763c.512-.212.24-2.031-.607-4.078l-.063-.153a16 16 0 0 0 1.875-1.254l.117.118c1.567 1.566 3.144 2.512 3.536 2.12l1.414-1.413c.391-.392-.555-1.969-2.121-3.536l-.118-.117a16 16 0 0 0 1.254-1.875l.153.063c2.047.848 3.866 1.119 4.078.607l.763-1.848c.212-.511-1.265-1.607-3.312-2.455l-.133-.054A16 16 0 0 0 47.857 34H48c2.216 0 4-.446 4-1v-2c0-.554-1.784-1-4-1h-.13a16 16 0 0 0-.444-2.225l.12-.05c2.048-.848 3.525-1.944 3.313-2.455l-.763-1.848c-.212-.512-2.031-.24-4.078.607l-.12.05a16 16 0 0 0-1.261-1.888l.092-.091c1.566-1.567 2.512-3.144 2.12-3.536l-1.413-1.414c-.392-.391-1.969.555-3.536 2.121l-.091.092a16 16 0 0 0-1.887-1.261l.049-.12c.848-2.047 1.119-3.866.607-4.078l-1.848-.763c-.511-.212-1.607 1.265-2.455 3.312l-.05.121A16 16 0 0 0 34 16.131V16c0-2.216-.446-4-1-4zm2 7.035A13.007 13.007 0 0 1 45.008 32a13.007 13.007 0 0 1-1.299 5.652l-7.85-4.533A4.02 4.02 0 0 0 36.02 32 4.02 4.02 0 0 0 33 28.107Zm-2 .045v9.035A4.02 4.02 0 0 0 27.98 32a4.02 4.02 0 0 0 .16 1.12l-7.812 4.51A13.007 13.007 0 0 1 18.992 32 13.007 13.007 0 0 1 31 19.08ZM32 30a2 2 0 0 1 2 2 2 2 0 0 1-2 2 2 2 0 0 1-2-2 2 2 0 0 1 2-2zm-2.834 4.836A4.02 4.02 0 0 0 32 36.02a4.02 4.02 0 0 0 2.834-1.184l7.875 4.547A13.007 13.007 0 0 1 32 45.008a13.007 13.007 0 0 1-10.666-5.649Z"/><path style="font-variation-settings:normal;fill:url(#k);fill-opacity:1;stroke:none;stroke-width:.999997;stroke-linecap:round;stroke-linejoin:round;stroke-miterlimit:4;stroke-dasharray:none;stroke-dashoffset:0;stroke-opacity:.5;stop-color:#000" d="M59.5 36.55c-.298.692-.5 1.967-.5 3.45v.143c-.75.095-1.492.243-2.22.443l-.055-.133c-.848-2.047-1.944-3.524-2.455-3.312l-1.848.763c-.512.212-.24 2.031.607 4.078l.063.153a16 16 0 0 0-1.875 1.254l-.117-.118c-1.567-1.566-3.144-2.512-3.536-2.12l-1.414 1.413c-.391.392.555 1.969 2.121 3.536l.118.117a16 16 0 0 0-1.254 1.875l-.153-.063c-2.047-.848-3.866-1.119-4.078-.607l-.763 1.848c-.212.511 1.265 1.607 3.312 2.455l.133.054A16 16 0 0 0 45.143 54H45c-2.216 0-4 .446-4 1v2c0 .554 1.784 1 4 1h.13c.076.504.176 1.005.3 1.5h3.086a13.007 13.007 0 0 1-.524-3.5c.002-1.958.446-3.89 1.299-5.652l1-1.73a13.007 13.007 0 0 1 9.209-5.505Z"/><path style="font-variation-settings:normal;fill:url(#l);fill-opacity:1;stroke:none;stroke-width:.999997;stroke-linecap:round;stroke-linejoin:round;stroke-miterlimit:4;stroke-dasharray:none;stroke-dashoffset:0;stroke-opacity:.5;stop-color:#000" d="M4.5 36.55v6.571c3.706.44 7.044 2.45 9.166 5.52l1.006 1.728A13.007 13.007 0 0 1 16.008 56a13.006 13.006 0 0 1-.553 3.5h3.104c.123-.495.223-.996.298-1.5H19c2.216 0 4-.446 4-1v-2c0-.554-1.784-1-4-1h-.143a15.992 15.992 0 0 0-.443-2.22l.133-.055c2.047-.848 3.524-1.944 3.312-2.455l-.763-1.848c-.212-.512-2.031-.24-4.078.607l-.153.063a16 16 0 0 0-1.254-1.875l.118-.117c1.566-1.567 2.512-3.144 2.12-3.536l-1.413-1.414c-.392-.391-1.969.555-3.536 2.121l-.117.118a16 16 0 0 0-1.875-1.254l.063-.153c.848-2.047 1.119-3.866.607-4.078l-1.848-.763c-.511-.212-1.607 1.265-2.455 3.312l-.054.133A16 16 0 0 0 5 40.143V40c0-1.483-.202-2.758-.5-3.45z"/><rect style="opacity:.2;fill:none;stroke:url(#m);stroke-width:1;stroke-linecap:round;stroke-linejoin:round;stroke-miterlimit:4;stroke-dasharray:none;stroke-dashoffset:0;stroke-opacity:1" y="5.429" x="5.5" ry="5" height="53.142" width="53" rx="5"/><path style="font-variation-settings:normal;opacity:.3;fill:#fff;fill-opacity:1;stroke:none;stroke-width:.999997;stroke-linecap:round;stroke-linejoin:round;stroke-miterlimit:4;stroke-dasharray:none;stroke-dashoffset:0;stroke-opacity:.5;stop-color:#000" d="M31 12c-.554 0-1 1.784-1 4v.143a16 16 0 0 0-2.22.443l-.055-.133c-.848-2.047-1.944-3.524-2.455-3.312l-1.848.763c-.254.105-.315.607-.21 1.332.042-.164.106-.289.21-.332l1.848-.763c.511-.212 1.607 1.265 2.455 3.312l.054.133A16 16 0 0 1 30 17.143V17c0-2.216.446-4 1-4h2c.554 0 1 1.784 1 4v.13a16 16 0 0 1 2.225.444l.05-.12c.848-2.048 1.944-3.525 2.455-3.313l1.848.763c.104.043.168.168.21.332.105-.725.044-1.227-.21-1.332l-1.848-.763c-.511-.212-1.607 1.265-2.455 3.312l-.05.121A16 16 0 0 0 34 16.131V16c0-2.216-.446-4-1-4h-2zm-12.236 5.064a.317.317 0 0 0-.2.086l-1.414 1.414c-.15.15-.1.473.1.9l1.314-1.314c.392-.391 1.969.555 3.536 2.121l.117.118a16 16 0 0 1 1.875-1.254l-.063-.153c-.09-.217-.17-.43-.248-.64a16 16 0 0 0-1.564 1.047l-.117-.118c-1.371-1.37-2.75-2.267-3.336-2.207zm26.472 0c-.585-.06-1.965.836-3.336 2.207l-.091.092a16 16 0 0 0-1.579-1.054c-.08.22-.165.445-.26.673l-.048.12a16 16 0 0 1 1.887 1.261l.091-.092c1.567-1.566 3.144-2.512 3.536-2.12l1.314 1.314c.2-.428.25-.751.1-.9l-1.414-1.415a.317.317 0 0 0-.2-.086zm-.205 5.717c-.1.106-.196.212-.302.319l-.092.091a16 16 0 0 1 1.261 1.887l.12-.049c2.047-.848 3.866-1.119 4.078-.607l.572 1.383c.171-.21.25-.396.191-.535l-.763-1.848c-.212-.512-2.031-.24-4.078.607l-.12.05a16 16 0 0 0-.867-1.298zm-26.037.026a16 16 0 0 0-.86 1.285l-.152-.063c-2.047-.848-3.866-1.119-4.078-.607l-.763 1.848c-.058.14.02.325.191.535l.572-1.383c.212-.512 2.031-.24 4.078.607l.153.063a16 16 0 0 1 1.254-1.875l-.118-.117c-.097-.098-.184-.196-.277-.293zM33 28.107v1a4.02 4.02 0 0 1 2.943 3.43A4.02 4.02 0 0 0 36.02 32 4.02 4.02 0 0 0 33 28.107zm-2 .008A4.02 4.02 0 0 0 27.98 32a4.02 4.02 0 0 0 .079.541A4.02 4.02 0 0 1 31 29.115v-1zm16.61.582-.063.028-.121.05A16 16 0 0 1 47.869 31H48c2.216 0 4 .446 4 1v-1c0-.554-1.784-1-4-1h-.13a16 16 0 0 0-.26-1.303zm-31.208.004a16 16 0 0 0-.26 1.299H16c-2.216 0-4 .446-4 1v1c0-.554 1.784-1 4-1h.143a16 16 0 0 1 .443-2.22l-.133-.055-.05-.024zm17.494 3.684A2 2 0 0 1 32 34a2 2 0 0 1-1.867-1.5A2 2 0 0 0 30 33a2 2 0 0 0 2 2 2 2 0 0 0 2-2 2 2 0 0 0-.104-.615zm-14.859.152a13.007 13.007 0 0 0-.045.463 13.007 13.007 0 0 0 1.336 5.63l7.813-4.51a4.02 4.02 0 0 1-.133-.925l-7.68 4.436a13.007 13.007 0 0 1-1.29-5.094zm25.928.014a13.007 13.007 0 0 1-1.256 5.101l-7.717-4.457a4.02 4.02 0 0 1-.133.924l7.85 4.533A13.007 13.007 0 0 0 45.008 33a13.007 13.007 0 0 0-.043-.45zm-28.563 3.748c-2.02.845-3.472 1.924-3.261 2.431l.191.465c.456-.558 1.633-1.303 3.121-1.92l.133-.054a16 16 0 0 1-.184-.922zm31.196 0a16 16 0 0 1-.184.922l.133.054c1.488.617 2.665 1.362 3.121 1.92l.191-.465c.21-.507-1.242-1.586-3.261-2.431zM4.5 36.55v1c.298.69.5 1.966.5 3.449v.143a16 16 0 0 1 2.22.443l.055-.133c.848-2.047 1.944-3.524 2.455-3.312l1.848.763c.104.043.168.168.21.332.105-.725.044-1.227-.21-1.332L9.73 37.14c-.511-.212-1.607 1.265-2.455 3.312l-.054.133A16 16 0 0 0 5 40.143V40c0-1.483-.202-2.758-.5-3.45zm55 0c-.298.69-.5 1.966-.5 3.449v.143c-.75.095-1.492.243-2.22.443l-.055-.133c-.848-2.047-1.944-3.524-2.455-3.312l-1.848.763c-.254.105-.315.607-.21 1.332.042-.164.106-.289.21-.332l1.848-.763c.511-.212 1.607 1.265 2.455 3.312l.054.133c.73-.2 1.471-.348 2.221-.443V41c0-1.483.202-2.758.5-3.45v-1zm-37.602 3.482-.564.326A13.007 13.007 0 0 0 32 46.008a13.007 13.007 0 0 0 10.709-5.625l-.566-.328A13.007 13.007 0 0 1 32 45.008a13.007 13.007 0 0 1-10.102-4.975zm-5.183 1.397c-.873.273-1.625.411-2.137.398-.52.373-1.1.865-1.678 1.443l-.117.118a15.996 15.996 0 0 0-1.56-1.059c-.078.214-.16.431-.252.652l-.063.153a16 16 0 0 1 1.875 1.254l.117-.118c1.567-1.566 3.144-2.512 3.536-2.12l1.314 1.314c.2-.428.25-.751.1-.9l-1.135-1.135zm30.57 0-1.135 1.134c-.15.15-.1.473.1.9l1.314-1.314c.392-.391 1.969.555 3.536 2.121l.117.118a16 16 0 0 1 1.875-1.254l-.063-.153a15.856 15.856 0 0 1-.252-.652c-.539.325-1.063.673-1.56 1.059l-.117-.118a13.79 13.79 0 0 0-1.678-1.443c-.512.013-1.264-.125-2.137-.398zm-28.29.763c-.45.473-.843.938-1.151 1.366l.006.005c.249.25-.046.978-.694 1.877l.094.094c.325-.694 1.053-1.666 2.021-2.635l.118-.117a16 16 0 0 1-.395-.59zm26.01 0a16 16 0 0 1-.394.59l.118.117c.968.97 1.696 1.941 2.021 2.635l.094-.094c-.648-.899-.943-1.628-.694-1.877l.006-.005a13.388 13.388 0 0 0-1.15-1.366zm-21.224 4.465c-.5 1.37-.708 2.548-.568 3.106.107-.74.388-1.713.816-2.746l.063-.153a16 16 0 0 1-.31-.207zm16.438 0a16 16 0 0 1-.31.207l.062.153c.428 1.033.709 2.006.816 2.746.14-.558-.069-1.736-.568-3.106zm-24.196.131c-.098.104-.19.207-.294.31l-.118.118a16 16 0 0 1 1.254 1.875l.153-.063c2.047-.848 3.866-1.119 4.078-.607l.572 1.383c.171-.21.25-.396.191-.535l-.763-1.848c-.069-.165-.318-.241-.674-.25-.89.637-1.61.925-1.858.678l-.279-.28c-.404.127-.828.277-1.267.46l-.153.062c-.257-.45-.543-.88-.842-1.303zm31.954 0c-.3.422-.585.853-.842 1.303l-.153-.063a15.208 15.208 0 0 0-1.267-.459l-.28.28c-.247.247-.967-.04-1.857-.678-.356.009-.605.085-.674.25l-.763 1.848c-.058.14.02.325.191.535l.572-1.383c.212-.512 2.031-.24 4.078.607l.153.063a16 16 0 0 1 1.254-1.875l-.118-.117c-.103-.104-.196-.207-.294-.31zM18.63 52.687c-.029.013-.055.026-.084.038l-.133.054c.2.73.348 1.471.443 2.221H19c2.216 0 4 .446 4 1v-1c0-.554-1.784-1-4-1h-.143c-.055-.44-.134-.878-.226-1.313zm26.738 0c-.092.435-.17.872-.226 1.313H45c-2.216 0-4 .446-4 1v1c0-.554 1.784-1 4-1h.143a16 16 0 0 1 .443-2.22l-.133-.055c-.029-.012-.055-.025-.084-.038zm2.643 3.633c-.012.227-.02.453-.02.68.006.503.052 1.003.117 1.5h.16c-.15-.717-.23-1.447-.257-2.18zm-32.028.03c-.034.723-.12 1.443-.273 2.15h.168c.069-.497.119-.997.129-1.5-.002-.217-.01-.434-.024-.65z"/><path style="font-variation-settings:normal;opacity:.05;fill:#000;fill-opacity:1;stroke:none;stroke-width:.999997;stroke-linecap:round;stroke-linejoin:round;stroke-miterlimit:4;stroke-dasharray:none;stroke-dashoffset:0;stroke-opacity:.5;stop-color:#000" d="M23.213 14.236c-.14.558.069 1.736.568 3.106.103-.07.206-.14.31-.207l-.062-.153c-.428-1.033-.709-2.006-.816-2.746Zm17.574 0c-.107.74-.388 1.713-.816 2.746l-.05.12c.105.067.207.136.31.207.49-1.356.695-2.519.556-3.073zM33 18.036v1A13.007 13.007 0 0 1 44.965 31.55c.018-.183.032-.367.043-.551A13.007 13.007 0 0 0 33 18.035Zm-2 .044A13.007 13.007 0 0 0 18.992 31c.011.18.026.358.045.537A13.007 13.007 0 0 1 31 19.08Zm-13.75.385-.1.1c-.367.367.45 1.776 1.844 3.242a16 16 0 0 1 .395-.59l-.118-.117c-.968-.97-1.696-1.941-2.021-2.635Zm29.5 0c-.325.694-1.053 1.666-2.021 2.635l-.092.091a16 16 0 0 1 .394.59c1.379-1.456 2.184-2.851 1.819-3.217zm-33.418 6.34-.191.465c-.21.507 1.242 1.586 3.261 2.431.053-.309.114-.616.184-.922l-.133-.054c-1.488-.617-2.665-1.362-3.121-1.92zm37.336 0c-.456.558-1.633 1.303-3.121 1.92l-.121.05c.07.306.131.613.183.922 2.014-.844 3.46-1.921 3.25-2.427zM32 29a2 2 0 0 0-2 2 2 2 0 0 0 .133.5A2 2 0 0 1 32 30a2 2 0 0 1 1.896 1.385A2 2 0 0 0 34 31a2 2 0 0 0-2-2Zm3.943 2.537a4.02 4.02 0 0 1-.084.582l.133.076c.01-.065.02-.13.028-.195a4.02 4.02 0 0 0-.077-.463zm-7.884.004a4.02 4.02 0 0 0-.079.459 4 4 0 0 0 .028.195l.133-.076a4.018 4.018 0 0 1-.082-.578zM12 32v1c0 .554 1.784 1 4 1h.143c.068.436.155.87.26 1.299l.05-.024.133-.054A16 16 0 0 1 16.143 33H16c-2.216 0-4-.446-4-1zm40 0c0 .554-1.784 1-4 1h-.143a16 16 0 0 1-.443 2.22l.133.055.05.024a16 16 0 0 0 .26-1.299H48c2.216 0 4-.446 4-1zm-22.834 1.836-7.832 4.523c.18.231.369.456.564.674l7.268-4.197A4.02 4.02 0 0 0 32 36.02a4.02 4.02 0 0 0 2.834-1.184l7.309 4.219c.196-.218.385-.442.566-.672l-7.875-4.547A4.02 4.02 0 0 1 32 35.02a4.02 4.02 0 0 1-2.834-1.184zm-15.834 4.36c-.171.21-.25.395-.191.534l.763 1.848c.069.165.318.241.674.25.89-.637 1.61-.925 1.858-.678l.279.28c.404-.127.828-.277 1.267-.46l.153-.062a16 16 0 0 0 .86 1.285c.092-.097.179-.195.276-.293l.118-.117a16 16 0 0 1-1.254-1.875l-.153.063c-2.047.848-3.866 1.119-4.078.607zm37.336 0-.572 1.382c-.212.512-2.031.24-4.078-.607l-.153-.063a16 16 0 0 1-1.254 1.875l.118.117c.097.098.184.196.277.293a16 16 0 0 0 .86-1.285l.152.063c.439.182.863.332 1.267.459l.28-.28c.247-.247.967.04 1.857.678.356-.009.605-.085.674-.25l.763-1.848c.058-.14-.02-.325-.191-.535zm-38.88.04c-.108.74-.39 1.713-.817 2.746l-.063.153c.107.061.209.131.315.195.496-1.365.703-2.537.564-3.094zm40.425 0c-.14.557.068 1.73.564 3.094.106-.064.208-.134.315-.195l-.063-.153c-.428-1.033-.709-2.006-.816-2.746Zm7.287 3.877a13.007 13.007 0 0 0-9.209 5.504l-1 1.73A13.007 13.007 0 0 0 47.992 55c.001.107.016.213.02.32a13.007 13.007 0 0 1 1.279-4.972l1-1.73a13.007 13.007 0 0 1 9.209-5.505Zm-55 .008v1c3.706.44 7.044 2.45 9.166 5.52l1.006 1.728a13.008 13.008 0 0 1 1.312 4.98c.006-.116.021-.232.024-.349a13.007 13.007 0 0 0-1.336-5.63l-1.006-1.73A13.007 13.007 0 0 0 4.5 42.122Zm13.25.344c-.325.694-1.053 1.666-2.021 2.635l-.118.117c.144.186.277.38.412.572.442-.466.83-.925 1.133-1.348l-.006-.006c-.249-.248.046-.977.694-1.876zm28.5 0-.094.094c.648.899.943 1.628.694 1.877l-.006.005c.304.423.69.882 1.133 1.348.135-.192.267-.386.412-.572l-.118-.117c-.968-.97-1.696-1.941-2.021-2.635ZM22.217 43.61l-.117.118c-1.567 1.566-3.144 2.512-3.536 2.12l-1.314-1.314c-.2.428-.25.751-.1.9l1.135 1.135c.873-.273 1.625-.411 2.137-.398a13.79 13.79 0 0 0 1.678-1.443l.117-.118a16 16 0 0 0 1.564 1.047c.077-.21.158-.423.248-.64l.063-.153a16 16 0 0 1-1.875-1.254zm19.566 0a16 16 0 0 1-1.875 1.254l.063.153c.09.217.17.43.248.64a16 16 0 0 0 1.564-1.047l.117.118a13.79 13.79 0 0 0 1.678 1.443c.512-.013 1.264.125 2.137.398l1.135-1.134c.15-.15.1-.473-.1-.9l-1.314 1.314c-.392.391-1.969-.555-3.536-2.121zM27.78 46.414l-.054.133c-.848 2.047-1.944 3.524-2.455 3.312l-1.848-.763c-.104-.043-.168-.168-.21-.332-.105.725-.044 1.227.21 1.332l1.848.763c.511.212 1.607-1.265 2.455-3.312l.054-.133c.73.2 1.471.348 2.221.443V48c0 2.216.446 4 1 4h2c.554 0 1-1.784 1-4v-.143a16 16 0 0 0 2.22-.443l.055.133c.848 2.047 1.944 3.524 2.455 3.312l1.848-.763c.254-.105.315-.607.21-1.332-.042.164-.106.289-.21.332l-1.848.763c-.511.212-1.607-1.265-2.455-3.312l-.054-.133a16 16 0 0 1-2.221.443V47c0 2.216-.446 4-1 4h-2c-.554 0-1-1.784-1-4v-.143a16 16 0 0 1-2.22-.443zm-6.111 2.39c-.456.56-1.633 1.304-3.121 1.92l-.133.055c.083.3.152.604.217.908 2.002-.842 3.437-1.913 3.228-2.417zm20.664 0-.191.466c-.21.504 1.226 1.575 3.228 2.417.065-.304.134-.607.217-.908l-.133-.054c-1.488-.617-2.665-1.362-3.121-1.92ZM23 56c0 .554-1.784 1-4 1h-.143c-.025.167-.254 1.32-.284 1.486H15.68c-.046.335-.096.67-.168 1h3.06c.031-.166.26-1.319.285-1.486H19c2.216 0 4-.446 4-1zm18 0v1c0 .554 1.784 1 4 1h.13c.026.167.27 1.31.3 1.477h3.053c-.07-.331-.117-.665-.16-1H45.43c-.03-.167-.274-1.31-.3-1.477H45c-2.216 0-4-.446-4-1z"/></svg>