<svg xmlns="http://www.w3.org/2000/svg" xmlns:xlink="http://www.w3.org/1999/xlink" height="64" width="64"><defs><linearGradient id="a"><stop offset="0" style="stop-color:#fff;stop-opacity:1"/><stop offset=".424" style="stop-color:#fff;stop-opacity:.23529412"/><stop offset=".821" style="stop-color:#fff;stop-opacity:.15686275"/><stop offset="1" style="stop-color:#fff;stop-opacity:.39215687"/></linearGradient><linearGradient id="b"><stop offset="0" style="stop-color:#000;stop-opacity:1"/><stop offset="1" style="stop-color:#000;stop-opacity:0"/></linearGradient><linearGradient id="c"><stop style="stop-color:#8cd5ff;stop-opacity:1" offset="0"/><stop style="stop-color:#64baff;stop-opacity:1" offset=".262"/><stop style="stop-color:#3689e6;stop-opacity:1" offset=".705"/><stop style="stop-color:#0d52bf;stop-opacity:1" offset="1"/></linearGradient><linearGradient x1="71.204" y1="15.369" x2="71.204" y2="40.496" id="i" xlink:href="#a" gradientUnits="userSpaceOnUse" gradientTransform="matrix(2.36328 0 0 2.36324 -138.572 -33.856)"/><linearGradient id="d"><stop style="stop-color:#d1ff82;stop-opacity:1" offset="0"/><stop style="stop-color:#9bdb4d;stop-opacity:1" offset=".262"/><stop style="stop-color:#68b723;stop-opacity:1" offset=".661"/><stop style="stop-color:#3a9104;stop-opacity:1" offset="1"/></linearGradient><radialGradient r="62.769" fy="185.297" fx="99.189" cy="185.297" cx="99.189" gradientTransform="matrix(.38235 0 0 .11152 -5.925 36.336)" gradientUnits="userSpaceOnUse" id="f" xlink:href="#b"/><radialGradient r="20" fy="8.45" fx="3.972" cy="8.45" cx="3.972" gradientTransform="matrix(0 3.59588 -3.80402 0 64.143 -20.065)" gradientUnits="userSpaceOnUse" id="e" xlink:href="#c"/><radialGradient r="62.769" fy="185.297" fx="99.189" cy="185.297" cx="99.189" gradientTransform="matrix(.2549 0 0 .07966 6.716 44.24)" gradientUnits="userSpaceOnUse" id="g" xlink:href="#b"/><radialGradient cx="-1.265" cy="8.45" r="20" fx=".667" fy="8.45" id="h" xlink:href="#d" gradientUnits="userSpaceOnUse" gradientTransform="matrix(0 5.63412 -4.45065 0 69.382 -4.623)"/></defs><path style="color:#000;fill:url(#e);fill-opacity:1;fill-rule:nonzero;stroke:none;stroke-width:1;marker:none;visibility:visible;display:inline;overflow:visible;enable-background:accumulate" d="M32 2.5C15.723 2.5 2.5 15.723 2.5 32S15.723 61.5 32 61.5 61.5 48.277 61.5 32 48.277 2.5 32 2.5z"/><path style="color:#000;display:inline;overflow:visible;visibility:visible;fill:#000;fill-opacity:1;fill-rule:nonzero;stroke:none;stroke-width:1;marker:none;enable-background:accumulate;opacity:.15" d="M32 2.5c-.456 0-.909.015-1.36.035a.951.951 0 0 0 .31 1.854c7.095 0 13.698 6.558 14.208 14.238-.016 7.417-6.026 13.422-13.449 13.422a.95.95 0 0 0-.059.002l-.75.047c-8.3.421-14.925 7.284-14.925 15.683 0 4.644 2.029 8.808 5.246 11.674A29.364 29.364 0 0 0 32 61.5c16.277 0 29.5-13.223 29.5-29.5 0-10.663-5.676-20.014-14.166-25.197a30.306 30.306 0 0 0-13.91-4.266A29.907 29.907 0 0 0 32 2.5z"/><path style="opacity:.2;fill:url(#f);fill-opacity:1;stroke:none" d="M56 57.002a24 6.999 0 1 1-48 0 24 6.999 0 1 1 48 0z"/><path d="M48 59.002a16 4.999 0 1 1-32 0 16 4.999 0 1 1 32 0z" style="opacity:.4;fill:url(#g);fill-opacity:1;stroke:none"/><path d="m32.36 2.565-3.508.405-4.002.99c.338-.112.683-.208 1.034-.315l-.27-.45a31 31 0 0 0-2.473.585c-.04.011-.094.033-.135.045a30.03 30.03 0 0 0-2.788.944l-.09.09-.18.045a29.09 29.09 0 0 0-.63.27l-.404.764-.225-.495c-.187.088-.4.18-.585.27l.09.855-.989.764-.54 1.44h1.17l.45-.945.18-.315c.521-.349 1.042-.743 1.573-1.08l1.214.36c.807.518 1.622 1.057 2.429 1.574l1.169-1.034-1.304-.54-.63-1.169-2.293-.225-.045-.224.99.18.539-.54 1.259-.225c.293-.135.603-.25.9-.36l-.81.675 2.788 1.799v1.079l-1.08 1.034 1.44 2.698.989-.494 1.26-1.8c1.74-.508 3.257-1.094 4.9-1.798l-.09.675.855.494 1.44-.9-.72-.809-.99.54-.314-.09c.07-.03.153-.059.225-.09l1.439-3.507-3.148-1.17h-.09zM18.284 7.827l1.214.764h.945v-.9l-1.17-.494zm-3.597 0-.495 1.304s-.892.126-1.124.18c-2.96 2.58-8.953 8.15-10.343 18.662.055.244.99 1.664.99 1.664l2.248 1.259 2.293.584.944 1.125 1.53 1.079.854-.135.63.27v.225l-.81 2.158-.675.944.18.45-.494 1.754 1.888 3.328 1.979 1.574.854 1.214-.09 2.428.63 1.349-.63 2.653a.445.445 0 0 0 0 .27c.084.266 3.474 2.04 3.688 1.889.053-.038.042-.056.09-.09a14.63 14.63 0 0 1-1.889-7.195c0-4.146 1.741-7.845 4.497-10.523l-.81-1.529-1.618-.36-.855-2.158-2.113.225-1.844-1.26-1.979 1.62v.224c-.587-.16-1.275-.19-1.798-.494l-.405-1.17v-1.259l-1.35.135c.109-.808.252-1.62.36-2.428h-.764l-.81.944-.719.315-1.08-.585-.09-1.259.226-1.349 1.574-1.214H8.66l.27-.674 1.574.36 1.214 1.438.18-2.383 2.068-1.574.72-1.709 1.574-.63.81-1.168 1.933-.315 1.034-1.394H17.07l1.844-.81h1.304l1.664-.54.315 1.485.72-1.035-.81-.54.18-.629-.675-.584-.72-.18.18-.765-.54-1.034-1.303.495.225-.945-1.53-.81-1.169 1.934.135.72-1.214.495-.72 1.484-.36-1.394-2.023-.81-.36-1.034 2.744-1.484 1.214-1.08.09-1.259-.675-.36zm27.79.54-.224.134v.765l-2.114 1.259.405 1.889 1.214-.81.81.81.854.494.585-1.394-.315-.854.18-.315a16.81 16.81 0 0 0-1.394-1.979Zm-5.62 1.798v.81l.45.45v1.213l-.27 1.53 1.349-.225.989-.945-.9-.764c-.284-.717-.543-1.382-.899-2.069zm-1.17 1.574-.809.225.225 1.439 1.034-.54zm6.206.81-.764.54.315.809h-1.215l-.674 1.034-.81.9-1.484.314.855.81.225.809h-1.08l-1.439.764v2.159h.63l.63.63 1.394-.63.54-1.35.989-.584.224-.45 1.664-.45.9.99 1.034.495-.585 1.08.855-.226.45-1.079-1.125-1.26h.495l1.124.9.225 1.17.54.584c.192-.937.314-1.93.314-2.923-.108-1.686-.52-3.28-1.124-4.812l-1.394 1.125-1.709-.405zm-.764 8.589-2.114.224-1.844.45c-1.06 1.136-2.19 2.328-3.192 3.508l-1.17 2.698.54.584-.99 1.44.855 1.888c5.386-.565 9.918-4.111 11.872-8.949l-.45.45-2.068-1.934z" style="color:#000;display:inline;overflow:visible;visibility:visible;opacity:.5;fill:#002e99;fill-opacity:1;fill-rule:nonzero;stroke:none;stroke-width:1;marker:none;enable-background:accumulate"/><path d="M30.95 2.438c7.68 0 14.636 6.966 15.163 15.16C46.113 25.545 39.656 32 31.708 32l-.758.047c-7.804.397-14.025 6.833-14.025 14.734 0 7.9 6.22 14.337 14.025 14.733v.048c.253.006.504 0 .758 0 16.313 0 29.567-13.252 29.567-29.562 0-16.31-13.254-29.562-29.567-29.562-.254 0-.505-.006-.758 0z" style="color:#000;display:inline;overflow:visible;visibility:visible;fill:url(#h);fill-opacity:1;fill-rule:nonzero;stroke:none;stroke-width:1;marker:none;enable-background:accumulate"/><path style="color:#000;display:inline;overflow:visible;visibility:visible;opacity:.3;fill:none;stroke:#002728;stroke-width:1;marker:none;enable-background:accumulate;stroke-opacity:1" d="M32 2.567c-16.277 0-29.5 13.222-29.5 29.499s13.223 29.5 29.5 29.5 29.5-13.223 29.5-29.5-13.223-29.5-29.5-29.5Zm-2.03.14c7.681 0 15.098 6.553 15.625 14.747 0 7.946-6.318 14.06-14.266 14.06l-.764.045c-7.805.396-14.224 7.304-14.224 15.205 0 7.9 5.763 14.29 13.567 14.687"/><path d="M60.5 32c0 15.74-12.76 28.5-28.5 28.5S3.5 47.74 3.5 32 16.26 3.5 32 3.5 60.5 16.26 60.5 32ZM39.206 4.53c4.596 3.325 7.109 8.431 7.396 12.908.288 8.001-6.014 14.726-13.698 15.005-.72.058-1.348.032-2.024.086-6.948.442-13.39 5.938-13.39 14.562 0 7.234 5.836 13.153 13.091 13.521" style="color:#000;display:inline;overflow:visible;visibility:visible;opacity:.5;fill:none;stroke:url(#i);stroke-width:1;stroke-linecap:round;stroke-linejoin:round;stroke-miterlimit:4;stroke-dasharray:none;stroke-dashoffset:0;stroke-opacity:1;marker:none;enable-background:accumulate"/></svg>