<svg width="48" height="48" xmlns:xlink="http://www.w3.org/1999/xlink" xmlns="http://www.w3.org/2000/svg"><defs><linearGradient id="a"><stop style="stop-color:#fff;stop-opacity:1" offset="0"/><stop style="stop-color:#fff;stop-opacity:.23529412" offset=".068"/><stop style="stop-color:#fff;stop-opacity:.15686275" offset=".947"/><stop style="stop-color:#fff;stop-opacity:.39215687" offset="1"/></linearGradient><linearGradient id="h"><stop style="stop-color:#181818;stop-opacity:1" offset="0"/><stop style="stop-color:#181818;stop-opacity:0" offset="1"/></linearGradient><linearGradient id="b"><stop style="stop-color:#181818;stop-opacity:0" offset="0"/><stop style="stop-color:#181818;stop-opacity:1" offset=".5"/><stop style="stop-color:#181818;stop-opacity:0" offset="1"/></linearGradient><linearGradient x1="39" y1="6" x2="39" y2="41.945" id="o" xlink:href="#a" gradientUnits="userSpaceOnUse" gradientTransform="translate(0 1)"/><linearGradient xlink:href="#b" id="l" gradientUnits="userSpaceOnUse" x1="25.058" y1="47.028" x2="25.058" y2="39.999" gradientTransform="matrix(1.14286 0 0 .64286 -3.429 16.036)"/><linearGradient id="d"><stop offset="0" style="stop-color:#f4f4f4;stop-opacity:1"/><stop offset="1" style="stop-color:#dbdbdb;stop-opacity:1"/></linearGradient><linearGradient id="c"><stop offset="0" style="stop-color:#000;stop-opacity:.31782946"/><stop offset="1" style="stop-color:#000;stop-opacity:.24031007"/></linearGradient><linearGradient xlink:href="#c" id="m" gradientUnits="userSpaceOnUse" gradientTransform="matrix(.8075 0 0 .89472 10.835 -.132)" x1="-51.786" y1="50.786" x2="-51.786" y2="2.906"/><linearGradient xlink:href="#d" id="n" gradientUnits="userSpaceOnUse" gradientTransform="matrix(.97143 0 0 .93432 -47.89 1.488)" x1="74.839" y1="4.536" x2="74.839" y2="49.779"/><linearGradient id="i"><stop style="stop-color:#000;stop-opacity:1" offset="0"/><stop style="stop-color:#000;stop-opacity:0" offset="1"/></linearGradient><linearGradient id="g"><stop offset="0" style="stop-color:#fff;stop-opacity:1"/><stop offset=".52" style="stop-color:#fff;stop-opacity:.23529412"/><stop offset=".52" style="stop-color:#fff;stop-opacity:.15686275"/><stop offset="1" style="stop-color:#fff;stop-opacity:.39215687"/></linearGradient><linearGradient id="e"><stop style="stop-color:#64baff;stop-opacity:1" offset="0"/><stop style="stop-color:#3689e6;stop-opacity:1" offset="1"/></linearGradient><linearGradient y2="39.375" x2="-28.185" y1="39.375" x1="-7.277" gradientTransform="matrix(0 -1 -1 0 74.375 6.723)" gradientUnits="userSpaceOnUse" id="q" xlink:href="#e"/><linearGradient y2="29.872" x2="5.032" y1="27.472" x1="5.032" gradientTransform="matrix(-1.23068 0 0 1.66667 33.198 -23.805)" gradientUnits="userSpaceOnUse" id="r" xlink:href="#f"/><linearGradient id="f"><stop style="stop-color:#fff;stop-opacity:1" offset="0"/><stop style="stop-color:#fff;stop-opacity:.23529412" offset="0"/><stop style="stop-color:#fff;stop-opacity:.39215687" offset="1"/></linearGradient><linearGradient y2="35.269" x2="-2.521" y1="22.402" x1="-2.521" gradientTransform="matrix(-1.4688 0 0 1.44168 33.105 -16.66)" gradientUnits="userSpaceOnUse" id="s" xlink:href="#g"/><radialGradient cx="4.993" cy="43.5" r="2.5" fx="4.993" fy="43.5" id="j" xlink:href="#h" gradientUnits="userSpaceOnUse" gradientTransform="matrix(2.00378 0 0 .9 29.988 4.85)"/><radialGradient cx="4.993" cy="43.5" r="2.5" fx="4.993" fy="43.5" id="k" xlink:href="#h" gradientUnits="userSpaceOnUse" gradientTransform="matrix(2.00378 0 0 .9 -18.012 -83.15)"/><radialGradient gradientTransform="matrix(-.52995 0 0 -.35308 22.513 21.836)" gradientUnits="userSpaceOnUse" xlink:href="#i" id="p" fy="36.421" fx="24.837" r="15.645" cy="36.421" cx="24.837"/></defs><path style="opacity:.4;fill:url(#j);fill-opacity:1;stroke:none;stroke-width:.862764" d="M40 41.75h5v4.5h-5z"/><path style="opacity:.4;fill:url(#k);fill-opacity:1;stroke:none;stroke-width:.862764" transform="scale(-1)" d="M-8-46.25h5v4.5h-5z"/><path style="opacity:.4;fill:url(#l);fill-opacity:1;stroke:none;stroke-width:.862764" d="M8 41.75h32v4.5H8z"/><rect style="color:#000;font-variation-settings:normal;display:inline;overflow:visible;visibility:visible;vector-effect:none;fill:none;fill-opacity:1;fill-rule:nonzero;stroke:url(#m);stroke-width:.999922;stroke-linecap:butt;stroke-linejoin:round;stroke-miterlimit:4;stroke-dasharray:none;stroke-dashoffset:0;stroke-opacity:1;-inkscape-stroke:none;marker:none;enable-background:accumulate;stop-color:#000" y="5.5" x="4.5" ry="4" rx="4" height="39" width="39"/><rect style="color:#000;font-variation-settings:normal;display:inline;overflow:visible;visibility:visible;vector-effect:none;fill:url(#n);fill-opacity:1;fill-rule:nonzero;stroke:none;stroke-width:1;stroke-linecap:butt;stroke-linejoin:miter;stroke-miterlimit:4;stroke-dasharray:none;stroke-dashoffset:0;stroke-opacity:1;-inkscape-stroke:none;marker:none;enable-background:accumulate;stop-color:#000" y="6" x="5" ry="3.5" rx="3.5" height="38" width="38"/><rect style="fill:none;stroke:url(#o);stroke-width:1;stroke-linecap:round;stroke-linejoin:round;stroke-miterlimit:4;stroke-dasharray:none;stroke-dashoffset:0;stroke-opacity:1" y="6.5" x="5.5" ry="3" rx="3" height="37" width="37"/><g style="stroke-width:.75"><path style="display:inline;overflow:visible;visibility:visible;opacity:.141176;fill:url(#p);fill-opacity:1;fill-rule:evenodd;stroke:none;stroke-width:.75;marker:none" d="M1.059 8.976a8.291 5.524 0 1 1 16.582 0 8.291 5.524 0 0 1-16.582 0z" transform="matrix(-1.33333 0 0 1.33333 45.753 19.379)"/></g><path d="M35.212 14v.005c.217 0 .396.086.526.224l.029.029 10.54 9.265a.655.655 0 0 1 0 .93l-10.54 9.266-.029.028a.706.706 0 0 1-.526.224c-.402 0-.707-.287-.707-.674v-5.133a.702.702 0 0 0-.702-.682H23.168c-.381 0-.663-.268-.663-.649V21.15c0-.381.282-.668.663-.668h10.7c.357-.034.638-.32.637-.66v-5.155c0-.387.305-.667.707-.667Z" style="font-variation-settings:normal;fill:url(#q);fill-opacity:1;stroke:#002e99;stroke-width:1;stroke-linecap:round;stroke-linejoin:round;stroke-miterlimit:4;stroke-dasharray:none;stroke-dashoffset:0;stroke-opacity:.5;stop-color:#000"/><path style="font-variation-settings:normal;opacity:.5;fill:none;fill-opacity:1;stroke:url(#r);stroke-width:.999992;stroke-linecap:butt;stroke-linejoin:miter;stroke-miterlimit:4;stroke-dasharray:none;stroke-dashoffset:0;stroke-opacity:1;marker:none;marker-start:none;marker-mid:none;marker-end:none;stop-color:#000" d="M34.005 26.482h-10.5v-5h10.5"/><path style="font-variation-settings:normal;opacity:.5;fill:none;fill-opacity:1;stroke:url(#s);stroke-width:1;stroke-linecap:butt;stroke-linejoin:miter;stroke-miterlimit:4;stroke-dasharray:none;stroke-dashoffset:0;stroke-opacity:1;marker:none;marker-start:none;marker-mid:none;marker-end:none;stop-color:#000" d="M34.005 26.482c.89 0 1.5.802 1.5 1.666v4.475l9.855-8.641-9.855-8.588v4.293c0 1.117-.78 1.795-1.5 1.795"/></svg>