<?xml version="1.0" encoding="UTF-8" standalone="no"?>
<!-- Created with Inkscape (http://www.inkscape.org/) -->

<svg
   xmlns:dc="http://purl.org/dc/elements/1.1/"
   xmlns:cc="http://creativecommons.org/ns#"
   xmlns:rdf="http://www.w3.org/1999/02/22-rdf-syntax-ns#"
   xmlns:svg="http://www.w3.org/2000/svg"
   xmlns="http://www.w3.org/2000/svg"
   xmlns:xlink="http://www.w3.org/1999/xlink"
   xmlns:inkscape="http://www.inkscape.org/namespaces/inkscape"
   version="1.1"
   width="48"
   height="48"
   id="svg2395">
  <defs
     id="defs2397">
    <linearGradient
       id="linearGradient5105">
      <stop
         id="stop5107"
         style="stop-color:#000000;stop-opacity:1"
         offset="0" />
      <stop
         id="stop5109"
         style="stop-color:#000000;stop-opacity:0"
         offset="1" />
    </linearGradient>
    <radialGradient
       cx="11.25"
       cy="19.03125"
       r="8.0625"
       fx="11.25"
       fy="19.03125"
       id="radialGradient5855"
       xlink:href="#linearGradient5105"
       gradientUnits="userSpaceOnUse"
       gradientTransform="matrix(1,0,0,0.282946,0,13.64644)" />
    <linearGradient
       id="linearGradient3163">
      <stop
         id="stop3165"
         style="stop-color:#729fcf;stop-opacity:1"
         offset="0" />
      <stop
         id="stop3167"
         style="stop-color:#3465a4;stop-opacity:1"
         offset="1" />
    </linearGradient>
    <linearGradient
       x1="25"
       y1="9"
       x2="25"
       y2="37"
       id="linearGradient3169"
       xlink:href="#linearGradient3163"
       gradientUnits="userSpaceOnUse" />
    <linearGradient
       id="linearGradient5113">
      <stop
         id="stop5115"
         style="stop-color:#ffffff;stop-opacity:1"
         offset="0" />
      <stop
         id="stop5117"
         style="stop-color:#ffffff;stop-opacity:0"
         offset="1" />
    </linearGradient>
    <linearGradient
       x1="58.748795"
       y1="2.047786"
       x2="105.32369"
       y2="58.047787"
       id="linearGradient5862"
       xlink:href="#linearGradient5113"
       gradientUnits="userSpaceOnUse"
       gradientTransform="matrix(1.004639,0,0,1,-55.021331,-3.04779)" />
  </defs>
  <metadata
     id="metadata2400">
    <rdf:RDF>
      <cc:Work
         rdf:about="">
        <dc:format>image/svg+xml</dc:format>
        <dc:type
           rdf:resource="http://purl.org/dc/dcmitype/StillImage" />
      </cc:Work>
    </rdf:RDF>
  </metadata>
  <g
     id="layer1">
    <path
       d="m 19.3125,19.03125 a 8.0625,2.28125 0 1 1 -16.125,0 8.0625,2.28125 0 1 1 16.125,0 z"
       inkscape:connector-curvature="0"
       transform="matrix(2.5121226,0,0,2.410961,-4.51537,-13.87225)"
       id="path4346"
       style="opacity:0.16292138;color:#000000;fill:url(#radialGradient5855);fill-opacity:1;fill-rule:nonzero;stroke:none;stroke-width:1;marker:none;visibility:visible;display:inline;overflow:visible" />
    <path
       d="M 42.5,25.52548 30.46475,39.5 18.48982,25.52548 l 6.09179,0 c 2.0473,-5.48597 -2.1567,-8.9778 -7.03107,-8.9778 -3.46376,0 -8.16323,1.90496 -9.75068,6.6414 C 6.9742,25.6526 5.51992,24.5734 5.57612,22.43234 5.79365,14.17053 11.919,7.56333 21.06314,7.56333 c 9.14414,0 15.93686,7.09859 15.42377,17.96215 l 6.01309,0 z"
       inkscape:connector-curvature="0"
       id="path4972"
       style="color:#000000;fill:url(#linearGradient3169);fill-opacity:1;fill-rule:nonzero;stroke:#204a87;stroke-width:0.99999964;stroke-linecap:butt;stroke-linejoin:miter;stroke-miterlimit:4;stroke-opacity:1;stroke-dasharray:none;stroke-dashoffset:0;marker:none;visibility:visible;display:inline;overflow:visible" />
    <path
       d="m 40.38215,26.52548 -9.9174,11.5424 -9.85707,-11.5424 4.69895,0 C 27.78439,21 24.20791,15.62862 18,15.52859 14.10075,15.46576 12.05305,16.76164 9.3376,19 7.84959,20.22658 7.08988,22.63896 6.73938,23.51309 6.25882,23.53771 6.54136,20.83259 7,19.15015 8.67191,13.01699 13.84662,8.49937 21.18388,8.48567 c 7.33726,-0.0137 15.30137,5.0245 14.30303,18.03981 l 4.89524,0 z"
       inkscape:connector-curvature="0"
       id="path4980"
       style="opacity:0.35400008;color:#000000;fill:none;stroke:url(#linearGradient5862);stroke-width:0.99999958;stroke-linecap:butt;stroke-linejoin:miter;stroke-miterlimit:4;stroke-opacity:1;stroke-dasharray:none;stroke-dashoffset:0;marker:none;visibility:visible;display:inline;overflow:visible;enable-background:accumulate" />
  </g>
</svg>
