<?xml version="1.0" encoding="UTF-8" standalone="no"?>
<!-- Created with Inkscape (http://www.inkscape.org/) -->

<svg
   xmlns:dc="http://purl.org/dc/elements/1.1/"
   xmlns:cc="http://creativecommons.org/ns#"
   xmlns:rdf="http://www.w3.org/1999/02/22-rdf-syntax-ns#"
   xmlns:svg="http://www.w3.org/2000/svg"
   xmlns="http://www.w3.org/2000/svg"
   xmlns:xlink="http://www.w3.org/1999/xlink"
   xmlns:inkscape="http://www.inkscape.org/namespaces/inkscape"
   version="1.0"
   width="48"
   height="48"
   id="svg11300">
  <metadata
     id="metadata50">
    <rdf:RDF>
      <cc:Work
         rdf:about="">
        <dc:format>image/svg+xml</dc:format>
        <dc:type
           rdf:resource="http://purl.org/dc/dcmitype/StillImage" />
      </cc:Work>
    </rdf:RDF>
  </metadata>
  <defs
     id="defs3">
    <linearGradient
       id="linearGradient3785">
      <stop
         id="stop3787"
         style="stop-color:#bdbdbd;stop-opacity:1"
         offset="0" />
      <stop
         id="stop3789"
         style="stop-color:#8c8c8c;stop-opacity:1"
         offset="1" />
    </linearGradient>
    <linearGradient
       id="linearGradient6954">
      <stop
         id="stop6960"
         style="stop-color:#f5f5f5;stop-opacity:1"
         offset="0" />
      <stop
         id="stop6962"
         style="stop-color:#d2d2d2;stop-opacity:1"
         offset="1" />
    </linearGradient>
    <linearGradient
       id="linearGradient3341">
      <stop
         id="stop3343"
         style="stop-color:#ffffff;stop-opacity:1"
         offset="0" />
      <stop
         id="stop3345"
         style="stop-color:#ffffff;stop-opacity:0"
         offset="1" />
    </linearGradient>
    <linearGradient
       id="linearGradient5060">
      <stop
         id="stop5062"
         style="stop-color:#000000;stop-opacity:1"
         offset="0" />
      <stop
         id="stop5064"
         style="stop-color:#000000;stop-opacity:0"
         offset="1" />
    </linearGradient>
    <radialGradient
       cx="32"
       cy="41.5"
       r="21"
       fx="32"
       fy="41.5"
       id="radialGradient2876"
       xlink:href="#linearGradient5060"
       gradientUnits="userSpaceOnUse"
       gradientTransform="matrix(1,0,0,0.35714286,0,26.678571)" />
    <radialGradient
       cx="24.999998"
       cy="28.659998"
       r="16"
       fx="24.999998"
       fy="28.659998"
       id="radialGradient2878"
       xlink:href="#linearGradient6954"
       gradientUnits="userSpaceOnUse"
       gradientTransform="matrix(1.3125,0,0,0.37326701,-7.812498,20.302168)" />
    <linearGradient
       x1="30"
       y1="25.084745"
       x2="30"
       y2="45"
       id="linearGradient2880"
       xlink:href="#linearGradient3785"
       gradientUnits="userSpaceOnUse" />
    <linearGradient
       x1="24.786562"
       y1="53.869164"
       x2="24.87495"
       y2="83.5"
       id="linearGradient2882"
       xlink:href="#linearGradient3341"
       gradientUnits="userSpaceOnUse" />
    <radialGradient
       cx="26.375898"
       cy="12.31301"
       r="8"
       fx="26.375898"
       fy="12.31301"
       id="radialGradient2884"
       xlink:href="#linearGradient6954"
       gradientUnits="userSpaceOnUse"
       gradientTransform="matrix(1.640165,-0.1325824,0.12811381,1.5848844,-18.396351,-5.2274259)" />
    <linearGradient
       x1="30"
       y1="5"
       x2="30"
       y2="44.678879"
       id="linearGradient2887"
       xlink:href="#linearGradient3785"
       gradientUnits="userSpaceOnUse" />
    <linearGradient
       x1="22"
       y1="39"
       x2="17"
       y2="37.4375"
       id="linearGradient2889"
       xlink:href="#linearGradient5060"
       gradientUnits="userSpaceOnUse" />
    <linearGradient
       x1="38"
       y1="39"
       x2="43"
       y2="38.599998"
       id="linearGradient2891"
       xlink:href="#linearGradient5060"
       gradientUnits="userSpaceOnUse" />
    <radialGradient
       cx="30"
       cy="33.1875"
       r="4.6875"
       fx="30"
       fy="33.1875"
       id="radialGradient2893"
       xlink:href="#linearGradient5060"
       gradientUnits="userSpaceOnUse"
       gradientTransform="matrix(1.5279732,-7.0647448e-7,2.1308638e-7,0.46086628,-15.839202,14.705021)" />
    <linearGradient
       x1="29.999992"
       y1="3.0410755"
       x2="29.999992"
       y2="27.956825"
       id="linearGradient2895"
       xlink:href="#linearGradient3341"
       gradientUnits="userSpaceOnUse" />
    <linearGradient
       id="linearGradient3840">
      <stop
         id="stop3842"
         style="stop-color:#eda606;stop-opacity:1"
         offset="0" />
      <stop
         id="stop3844"
         style="stop-color:#efb220;stop-opacity:1"
         offset="0.31757474" />
      <stop
         id="stop3846"
         style="stop-color:#f1be3b;stop-opacity:0"
         offset="1" />
    </linearGradient>
    <linearGradient
       id="linearGradient5432">
      <stop
         id="stop5434"
         style="stop-color:#a65612;stop-opacity:1"
         offset="0" />
      <stop
         id="stop5436"
         style="stop-color:#a65612;stop-opacity:0"
         offset="1" />
    </linearGradient>
    <linearGradient
       x1="3.8877637"
       y1="26.022909"
       x2="-8.7979088"
       y2="26.022909"
       id="linearGradient2987"
       xlink:href="#linearGradient3341"
       gradientUnits="userSpaceOnUse"
       gradientTransform="matrix(0.62721007,0,0,0.58770295,18.881317,20.801756)" />
    <linearGradient
       x1="3.8738406"
       y1="28.280676"
       x2="62.400131"
       y2="28.280676"
       id="linearGradient2990"
       xlink:href="#linearGradient3840"
       gradientUnits="userSpaceOnUse"
       gradientTransform="matrix(-0.5572773,0,0,0.55176119,47.470438,23.317893)" />
    <linearGradient
       x1="41.81702"
       y1="45.610001"
       x2="41.81702"
       y2="26.597807"
       id="linearGradient2992"
       xlink:href="#linearGradient5432"
       gradientUnits="userSpaceOnUse"
       gradientTransform="matrix(0,-1.095875,1.1068307,0,-16.554837,81.2205)" />
  </defs>
  <g
     transform="translate(-9,-2)"
     id="g3912">
    <path
       d="m 53,41.5 a 21,7.5 0 1 1 -42,0 21,7.5 0 1 1 42,0 z"
       inkscape:connector-curvature="0"
       transform="matrix(0.85714286,0,0,0.8,2.5714285,7.8)"
       id="path3823"
       style="opacity:0.7;fill:url(#radialGradient2876);fill-opacity:1;stroke:none" />
    <path
       d="m 25.5,20.5 c 0.460215,2.17673 0.717092,3.82327 0.34375,6 C 22.933057,28.914876 15.488842,30 15.5,32.5 l -1,7.5 c 0,2.485281 6.939586,4.5 15.5,4.5 8.560414,0 15.5,-2.014719 15.5,-4.5 l -1,-7.5 C 44.48813,30.360337 37,29 34.125,26.5 33.879426,24.479663 34.07491,22.520337 34.5,20.5 l -9,0 z"
       inkscape:connector-curvature="0"
       id="path3766"
       style="fill:url(#radialGradient2878);fill-opacity:1;stroke:url(#linearGradient2880);stroke-width:1;stroke-miterlimit:4;stroke-opacity:1;stroke-dasharray:none" />
    <path
       d="m 22.53125,61 c 0.30464,1.690349 0.51076,3.271519 0.1875,5.15625 a 1.0027361,1.0027361 0 0 1 -0.375,0.625 c -1.721814,1.428515 -4.345384,2.254348 -6.53125,3.125 -1.092933,0.435326 -2.065851,0.86976 -2.6875,1.28125 -0.621649,0.41149 -0.750567,0.685398 -0.75,0.8125 a 1.0027361,1.0027361 0 0 1 0,0.125 l -1,7.375 c 0,0.003 -1.1e-4,0.02807 0,0.03125 0.0055,0.158344 0.150083,0.473017 0.78125,0.90625 0.643832,0.441926 1.694345,0.893116 3.03125,1.28125 C 17.861311,82.495018 21.673451,83 25.875,83 c 4.201549,0 8.013689,-0.504982 10.6875,-1.28125 1.336905,-0.388134 2.387418,-0.839324 3.03125,-1.28125 0.631167,-0.433233 0.77575,-0.747906 0.78125,-0.90625 l 0,-0.03125 -1,-7.375 a 1.0027361,1.0027361 0 0 1 0,-0.125 c 1.37e-4,0.02464 0.01573,0.0028 -0.09375,-0.125 -0.109475,-0.12777 -0.334408,-0.299018 -0.65625,-0.5 -0.643684,-0.401965 -1.645672,-0.857472 -2.75,-1.3125 C 33.666343,69.152443 31.038552,68.22374 29.34375,66.75 A 1.0027361,1.0027361 0 0 1 29,66.125 C 28.788112,64.3818 28.942542,62.684293 29.21875,61 l -6.6875,0 z"
       inkscape:connector-curvature="0"
       transform="translate(4.1250489,-39.5)"
       id="path3894"
       style="fill:none;stroke:url(#linearGradient2882);stroke-width:1;stroke-miterlimit:4;stroke-opacity:1;stroke-dasharray:none" />
    <path
       d="m 30,5.5 c -4.142136,0 -7.5,3.134007 -7.5,7 0.03246,1.430727 0.154571,3.130379 1,7 0.5,1.5 4.95976,5.5 5,6 0.96967,0.5 2.5,0.5 3.5,0 0,-0.5 4,-4.5 4.5,-6 0.951375,-4.021691 0.948972,-5.5 1,-7 0,-3.865993 -3.357864,-7 -7.5,-7 z"
       inkscape:connector-curvature="0"
       id="path3764"
       style="fill:url(#radialGradient2884);fill-opacity:1;stroke:url(#linearGradient2887);stroke-width:1;stroke-miterlimit:4;stroke-opacity:1;stroke-dasharray:none" />
    <path
       d="m 21,43.2 c -2.362349,-1.982195 -1.235869,-6.38286 -1,-9.2 -1,2 -1,8 -3,8 1.36261,0.458554 2.749561,0.965789 4,1.2 z"
       inkscape:connector-curvature="0"
       id="path3848"
       style="opacity:0.3;fill:url(#linearGradient2889);fill-opacity:1;stroke:none" />
    <path
       d="m 39,43.2 c 2.350047,-1.743746 1.156723,-6.485917 1,-9.2 1,2 1,8 3,8 -1.36261,0.458554 -2.749561,0.965789 -4,1.2 z"
       inkscape:connector-curvature="0"
       id="path3850"
       style="opacity:0.3;fill:url(#linearGradient2891);fill-opacity:1;stroke:none" />
    <path
       d="m 25.3125,27 c 0.686303,1.744757 2.518909,3 4.6875,3 2.168591,0 4.001197,-1.255243 4.6875,-3 l -9.375,0 z"
       inkscape:connector-curvature="0"
       id="path3833"
       style="opacity:0.2;fill:url(#radialGradient2893);fill-opacity:1;stroke:none" />
    <path
       d="m 30,6.53125 c -3.613647,0 -6.450433,2.6790117 -6.46875,5.9375 1.42e-4,0.0063 -1.45e-4,0.02499 0,0.03125 0.03183,1.373874 0.156427,2.981433 0.96875,6.71875 0.04059,0.09664 0.334757,0.582911 0.78125,1.125 0.460685,0.55932 1.039787,1.193866 1.625,1.8125 0.585213,0.618634 1.177291,1.232474 1.625,1.71875 0.223855,0.243138 0.405333,0.457698 0.5625,0.65625 0.01424,0.01799 0.01751,0.04473 0.03125,0.0625 0.579909,0.227936 1.589912,0.230436 2.21875,0 0.140288,-0.203603 0.300098,-0.442723 0.5,-0.6875 0.399803,-0.489555 0.910744,-1.067787 1.4375,-1.6875 0.526756,-0.619713 1.078845,-1.28221 1.5,-1.84375 0.400306,-0.533741 0.657608,-0.976665 0.71875,-1.125 0.0033,-0.01388 -0.0033,-0.01744 0,-0.03125 0.922531,-3.909312 0.918236,-5.212314 0.96875,-6.71875 0,-0.01056 5.9e-5,-0.0207 0,-0.03125 C 36.450433,9.2102617 33.613647,6.53125 30,6.53125 z"
       inkscape:connector-curvature="0"
       transform="matrix(1.0045203,0,0,1.0033814,-0.1356006,-0.05135866)"
       id="path3906"
       style="opacity:0.7;fill:none;stroke:url(#linearGradient2895);stroke-width:1;stroke-miterlimit:4;stroke-opacity:1;stroke-dasharray:none" />
  </g>
  <g
     id="g3002">
    <path
       d="M 33.574998,24.500002 46.449994,36 33.574998,47.5 l 0,-6 -20.874998,0 0,-10.999999 20.874998,0 0,-5.999999 z"
       inkscape:connector-curvature="0"
       id="path3801"
       style="fill:url(#linearGradient2990);fill-opacity:1;fill-rule:nonzero;stroke:url(#linearGradient2992);stroke-width:0.99999988;stroke-linecap:round;stroke-linejoin:round;stroke-miterlimit:4;stroke-opacity:1;stroke-dasharray:none;stroke-dashoffset:0;marker:none;visibility:visible;display:inline;overflow:visible" />
    <path
       d="M 34.574998,26.867335 44.910951,36 l -10.335953,9.24237 0,-4.742371 -20.839143,0 -0.06052,-8.999998 20.899662,0 0,-4.632666 z"
       inkscape:connector-curvature="0"
       id="path3803"
       style="opacity:0.35400008;fill:none;stroke:url(#linearGradient2987);stroke-width:0.99999988;stroke-linecap:butt;stroke-linejoin:miter;stroke-miterlimit:4;stroke-opacity:1;stroke-dasharray:none;stroke-dashoffset:0;marker:none;visibility:visible;display:inline;overflow:visible" />
  </g>
</svg>
