<?xml version="1.0" encoding="UTF-8" standalone="no"?>
<!-- Created with Inkscape (http://www.inkscape.org/) -->

<svg
   xmlns:dc="http://purl.org/dc/elements/1.1/"
   xmlns:cc="http://creativecommons.org/ns#"
   xmlns:rdf="http://www.w3.org/1999/02/22-rdf-syntax-ns#"
   xmlns:svg="http://www.w3.org/2000/svg"
   xmlns="http://www.w3.org/2000/svg"
   xmlns:xlink="http://www.w3.org/1999/xlink"
   xmlns:inkscape="http://www.inkscape.org/namespaces/inkscape"
   version="1.1"
   width="48"
   height="48"
   id="svg3027">
  <defs
     id="defs3029">
    <linearGradient
       x1="17.591623"
       y1="7"
       x2="17.591623"
       y2="-0.02451775"
       id="linearGradient2865"
       xlink:href="#linearGradient3251"
       gradientUnits="userSpaceOnUse"
       gradientTransform="matrix(2,0,0,2,-1.9999999,1.9989042)" />
    <linearGradient
       id="linearGradient3251">
      <stop
         id="stop3253"
         style="stop-color:#917f6e;stop-opacity:1"
         offset="0" />
      <stop
         id="stop3255"
         style="stop-color:#cbbaa9;stop-opacity:1"
         offset="1" />
    </linearGradient>
    <linearGradient
       x1="38.382198"
       y1="5.4848671"
       x2="38.382198"
       y2="22.697742"
       id="linearGradient2979"
       xlink:href="#linearGradient4222-4"
       gradientUnits="userSpaceOnUse"
       gradientTransform="matrix(2,0,0,2,-50,-4.0010958)" />
    <linearGradient
       id="linearGradient4222-4">
      <stop
         id="stop4224-8"
         style="stop-color:#ffffff;stop-opacity:1"
         offset="0" />
      <stop
         id="stop4226-7"
         style="stop-color:#ffffff;stop-opacity:0"
         offset="1" />
    </linearGradient>
    <linearGradient
       x1="40.006763"
       y1="12.910877"
       x2="40.006763"
       y2="7.0924568"
       id="linearGradient2868"
       xlink:href="#linearGradient4222"
       gradientUnits="userSpaceOnUse"
       gradientTransform="matrix(1.6599332,0,0,1.6599262,-35.908559,-1.1011412)" />
    <linearGradient
       id="linearGradient4222">
      <stop
         id="stop4224"
         style="stop-color:#ffffff;stop-opacity:1"
         offset="0" />
      <stop
         id="stop4226"
         style="stop-color:#ffffff;stop-opacity:0"
         offset="1" />
    </linearGradient>
    <linearGradient
       x1="39.905758"
       y1="6.1230369"
       x2="39.905758"
       y2="24.0341"
       id="linearGradient2874"
       xlink:href="#linearGradient3243"
       gradientUnits="userSpaceOnUse"
       gradientTransform="matrix(2,0,0,2,-49.5,-4.4999998)" />
    <linearGradient
       id="linearGradient3243">
      <stop
         id="stop3245"
         style="stop-color:#fff4e9;stop-opacity:1"
         offset="0" />
      <stop
         id="stop3247"
         style="stop-color:#e7d6c5;stop-opacity:1"
         offset="1" />
    </linearGradient>
    <linearGradient
       x1="32.015705"
       y1="24.011269"
       x2="32.015705"
       y2="5"
       id="linearGradient2876"
       xlink:href="#linearGradient3251"
       gradientUnits="userSpaceOnUse"
       gradientTransform="matrix(2,0,0,2,-49.5,-4.4999998)" />
    <linearGradient
       id="linearGradient3283">
      <stop
         id="stop3285"
         style="stop-color:#000000;stop-opacity:1"
         offset="0" />
      <stop
         id="stop3287"
         style="stop-color:#000000;stop-opacity:0"
         offset="1" />
    </linearGradient>
    <radialGradient
       cx="10.471204"
       cy="20.146597"
       r="9.2146597"
       fx="10.471204"
       fy="20.146597"
       id="radialGradient3025"
       xlink:href="#linearGradient3283"
       gradientUnits="userSpaceOnUse"
       gradientTransform="matrix(1.953409,0,0,0.65113636,-2.4545442,24.880632)" />
    <linearGradient
       x1="22.368837"
       y1="8.0323315"
       x2="22.368837"
       y2="38.274109"
       id="linearGradient5530"
       xlink:href="#linearGradient3943"
       gradientUnits="userSpaceOnUse"
       gradientTransform="matrix(0.59881541,0,0,0.59520313,23.605196,21.21913)" />
    <linearGradient
       id="linearGradient3943">
      <stop
         id="stop3945"
         style="stop-color:#ffffff;stop-opacity:1"
         offset="0" />
      <stop
         id="stop3947"
         style="stop-color:#ffffff;stop-opacity:0"
         offset="1" />
    </linearGradient>
    <linearGradient
       id="linearGradient3242-7">
      <stop
         id="stop3244-5"
         style="stop-color:#eef87e;stop-opacity:1"
         offset="0" />
      <stop
         id="stop3246-9"
         style="stop-color:#cde34f;stop-opacity:1"
         offset="0.26238" />
      <stop
         id="stop3248-7"
         style="stop-color:#93b723;stop-opacity:1"
         offset="0.66093999" />
      <stop
         id="stop3250-8"
         style="stop-color:#5a7e0d;stop-opacity:1"
         offset="1" />
    </linearGradient>
    <linearGradient
       id="linearGradient2490-3">
      <stop
         id="stop2492-3"
         style="stop-color:#365f0e;stop-opacity:1"
         offset="0" />
      <stop
         id="stop2494-8"
         style="stop-color:#84a718;stop-opacity:1"
         offset="1" />
    </linearGradient>
    <radialGradient
       cx="69.447609"
       cy="51.694645"
       r="31.000002"
       fx="69.447609"
       fy="51.694645"
       id="radialGradient3419"
       xlink:href="#linearGradient3242-7"
       gradientUnits="userSpaceOnUse"
       gradientTransform="matrix(0,0.67923629,-0.73892459,0,72.902805,-19.489952)" />
    <linearGradient
       x1="72.421684"
       y1="123.19138"
       x2="72.421684"
       y2="52.809361"
       id="linearGradient3421"
       xlink:href="#linearGradient2490-3"
       gradientUnits="userSpaceOnUse"
       gradientTransform="matrix(0.28214379,0,0,0.28445169,12.171345,9.958204)" />
  </defs>
  <metadata
     id="metadata3032">
    <rdf:RDF>
      <cc:Work
         rdf:about="">
        <dc:format>image/svg+xml</dc:format>
        <dc:type
           rdf:resource="http://purl.org/dc/dcmitype/StillImage" />
        <dc:title />
      </cc:Work>
    </rdf:RDF>
  </metadata>
  <g
     id="layer1">
    <path
       d="m 35.999998,37.998816 a 17.999999,6.0000002 0 1 1 -35.9999977375,0 17.999999,6.0000002 0 1 1 35.9999977375,0 z"
       inkscape:connector-curvature="0"
       id="path3281"
       style="opacity:0.3;fill:url(#radialGradient3025);fill-opacity:1;fill-rule:evenodd;stroke:none;stroke-width:1;marker:none;visibility:visible;display:inline;overflow:visible;enable-background:accumulate" />
    <path
       d="M 22.5,6.5 3.4999999,26.1875 20,42.5 l 19.5,-19 0,-17 -17,0 z m 8,6 c 1.656,0 3,1.344 3,3 0,1.656 -1.344,3 -3,3 -1.656,0 -3,-1.344 -3,-3 0,-1.656 1.344,-3 3,-3 z"
       inkscape:connector-curvature="0"
       id="path2463"
       style="fill:url(#linearGradient2874);fill-opacity:1;fill-rule:evenodd;stroke:url(#linearGradient2876);stroke-width:1px;stroke-linecap:butt;stroke-linejoin:miter;stroke-opacity:1" />
    <path
       d="m 30.488772,11.503924 c 2.511957,-0.08856 4.583186,2.579182 3.868223,4.991099 -0.53091,2.366752 -3.445216,3.730714 -5.598169,2.602754 -2.216007,-0.978839 -2.988457,-4.095182 -1.469605,-5.987762 0.73783,-0.998426 1.956475,-1.615707 3.199551,-1.606091 z"
       inkscape:connector-curvature="0"
       id="path3294"
       style="opacity:0.6;fill:none;stroke:url(#linearGradient2868);stroke-width:0.99999994px;stroke-linecap:butt;stroke-linejoin:miter;stroke-opacity:1" />
    <path
       d="M 22.9375,7.46875 C 16.916667,13.708333 10.895833,19.947917 4.8749999,26.1875 9.9166666,31.166667 14.958333,36.145833 20,41.125 26.177083,35.104167 32.354167,29.083333 38.53125,23.0625 c 0,-5.197917 0,-10.395833 0,-15.59375 -5.197917,0 -10.395833,0 -15.59375,0 z"
       inkscape:connector-curvature="0"
       id="path2935"
       style="opacity:0.6;color:#000000;fill:none;stroke:url(#linearGradient2979);stroke-width:1px;stroke-linecap:butt;stroke-linejoin:miter;stroke-miterlimit:4;stroke-opacity:1;stroke-dasharray:none;stroke-dashoffset:0;marker:none;visibility:visible;display:inline;overflow:visible;enable-background:accumulate" />
    <path
       d="m 31,14.998904 c 2.218036,-1.174438 5.108048,-1.534238 7.853744,-1.595478 1.234294,-0.02752 2.481888,0.2238 3.69306,-0.06428 1.541484,-0.36666 2.591966,-1.496026 2.438298,-2.528498 C 44.77882,9.42472 42.917068,8.4016 41.17098,7.66945 39.622164,7.020018 38.430092,5.862746 37.800108,4.64022 37.481816,4.022554 38.03768,3.3739982 38.929294,3.1749 c 0.809992,-0.180872 1.658364,-0.2523656 2.48259,-0.068712 1.254484,0.2795234 2.735364,0.6205406 3.31894,1.50932"
       inkscape:connector-curvature="0"
       id="path3298"
       style="fill:none;stroke:url(#linearGradient2865);stroke-width:0.99999994px;stroke-linecap:butt;stroke-linejoin:miter;stroke-opacity:1" />
    <path
       d="m 33.500001,31.5 0,-6.02737 7,0 0,6.02737 6.007286,0 0,7 -6.007286,0 0,6.007286 -7,0 0,-6.007286 -6.007287,0 0,-7 6.007287,0 z"
       inkscape:connector-curvature="0"
       id="path2262"
       style="color:#000000;fill:url(#radialGradient3419);fill-opacity:1;fill-rule:nonzero;stroke:url(#linearGradient3421);stroke-width:0.98542732;stroke-linecap:round;stroke-linejoin:round;stroke-miterlimit:4;stroke-opacity:1;stroke-dasharray:none;stroke-dashoffset:0;marker:none;visibility:visible;display:inline;overflow:visible;enable-background:accumulate" />
    <path
       d="m 34.500001,32.5 0,-6.000001 5,0 0,6.000001 6,0 0,5 -6,0 0,6 -5,0 0,-6 -6,0 0,-5 6,0 z"
       inkscape:connector-curvature="0"
       id="path2272"
       style="opacity:0.4;fill:none;stroke:url(#linearGradient5530);stroke-width:1;stroke-linecap:butt;stroke-linejoin:miter;stroke-miterlimit:4;stroke-opacity:1;stroke-dasharray:none;display:inline" />
  </g>
</svg>
