<?xml version="1.0" encoding="UTF-8" standalone="no"?>
<!-- Created with Inkscape (http://www.inkscape.org/) -->

<svg
   xmlns:dc="http://purl.org/dc/elements/1.1/"
   xmlns:cc="http://creativecommons.org/ns#"
   xmlns:rdf="http://www.w3.org/1999/02/22-rdf-syntax-ns#"
   xmlns:svg="http://www.w3.org/2000/svg"
   xmlns="http://www.w3.org/2000/svg"
   xmlns:xlink="http://www.w3.org/1999/xlink"
   xmlns:inkscape="http://www.inkscape.org/namespaces/inkscape"
   version="1.1"
   width="48"
   height="48"
   id="svg4335">
  <defs
     id="defs4337">
    <linearGradient
       id="linearGradient3857">
      <stop
         id="stop3859"
         style="stop-color:#ffffff;stop-opacity:1"
         offset="0" />
      <stop
         id="stop3861"
         style="stop-color:#ffffff;stop-opacity:0.23529412"
         offset="0.09090909" />
      <stop
         id="stop3863"
         style="stop-color:#ffffff;stop-opacity:0.15686275"
         offset="0.88849318" />
      <stop
         id="stop3865"
         style="stop-color:#ffffff;stop-opacity:0.39215687"
         offset="1" />
    </linearGradient>
    <linearGradient
       x1="21.037846"
       y1="29.845058"
       x2="21.037846"
       y2="36.455578"
       id="linearGradient3471"
       xlink:href="#linearGradient3781-1"
       gradientUnits="userSpaceOnUse"
       gradientTransform="matrix(0.58514285,0,0,0.60235363,3.8713637,10.911281)" />
    <linearGradient
       id="linearGradient3781-1">
      <stop
         id="stop3783-5"
         style="stop-color:#ffffff;stop-opacity:1"
         offset="0" />
      <stop
         id="stop3785-5"
         style="stop-color:#ffffff;stop-opacity:0"
         offset="1" />
    </linearGradient>
    <linearGradient
       x1="26.883902"
       y1="12.606901"
       x2="26.883902"
       y2="34.606899"
       id="linearGradient4596-7"
       xlink:href="#linearGradient3316"
       gradientUnits="userSpaceOnUse"
       gradientTransform="translate(4.1160985,-1.6069009)" />
    <linearGradient
       id="linearGradient3316">
      <stop
         id="stop3318"
         style="stop-color:#ffffff;stop-opacity:1"
         offset="0" />
      <stop
         id="stop3320"
         style="stop-color:#ffffff;stop-opacity:0.23529412"
         offset="0.09090909" />
      <stop
         id="stop3322"
         style="stop-color:#ffffff;stop-opacity:0.15686275"
         offset="0.9545455" />
      <stop
         id="stop3324"
         style="stop-color:#ffffff;stop-opacity:0.39215687"
         offset="1" />
    </linearGradient>
    <radialGradient
       cx="9.8367758"
       cy="10.243929"
       r="12.671875"
       fx="9.3065472"
       fy="10.243929"
       id="radialGradient3394"
       xlink:href="#linearGradient3242-6-6"
       gradientUnits="userSpaceOnUse"
       gradientTransform="matrix(0,7.1403659,-7.3430977,0,93.723115,-67.567174)" />
    <linearGradient
       id="linearGradient3242-6-6">
      <stop
         id="stop3244-3-4"
         style="stop-color:#f8b17e;stop-opacity:1"
         offset="0" />
      <stop
         id="stop3246-2-3"
         style="stop-color:#e35d4f;stop-opacity:1"
         offset="0.26238" />
      <stop
         id="stop3248-0-3"
         style="stop-color:#c6262e;stop-opacity:1"
         offset="0.66093999" />
      <stop
         id="stop3250-6-3"
         style="stop-color:#690b54;stop-opacity:1"
         offset="1" />
    </linearGradient>
    <linearGradient
       x1="25"
       y1="49.945103"
       x2="25"
       y2="4.9451008"
       id="linearGradient3396"
       xlink:href="#linearGradient2490-6-6"
       gradientUnits="userSpaceOnUse"
       gradientTransform="matrix(0.98529211,0,0,1.0090832,-3.0293205,-2.6661519)" />
    <linearGradient
       id="linearGradient2490-6-6">
      <stop
         id="stop2492-1-04"
         style="stop-color:#791235;stop-opacity:1"
         offset="0" />
      <stop
         id="stop2494-0-8"
         style="stop-color:#dd3b27;stop-opacity:1"
         offset="1" />
    </linearGradient>
    <radialGradient
       cx="9.8367758"
       cy="10.243929"
       r="12.671875"
       fx="9.3065472"
       fy="10.243929"
       id="radialGradient3399"
       xlink:href="#linearGradient3242-6-6"
       gradientUnits="userSpaceOnUse"
       gradientTransform="matrix(0,7.1403659,-7.3430977,0,134.58026,-67.596646)" />
    <linearGradient
       x1="25"
       y1="49.945103"
       x2="25"
       y2="4.9451008"
       id="linearGradient3401"
       xlink:href="#linearGradient2490-6-6"
       gradientUnits="userSpaceOnUse"
       gradientTransform="matrix(0.98529211,0,0,1.0090832,37.827822,-2.6956243)" />
    <linearGradient
       x1="23.748692"
       y1="44.758724"
       x2="23.748692"
       y2="0.49759647"
       id="linearGradient3797"
       xlink:href="#linearGradient5031"
       gradientUnits="userSpaceOnUse" />
    <linearGradient
       id="linearGradient5031">
      <stop
         id="stop5033"
         style="stop-color:#a3a3a3;stop-opacity:1"
         offset="0" />
      <stop
         id="stop5035"
         style="stop-color:#bababa;stop-opacity:1"
         offset="1" />
    </linearGradient>
    <linearGradient
       x1="23.99999"
       y1="5.5641499"
       x2="23.99999"
       y2="43"
       id="linearGradient3988"
       xlink:href="#linearGradient3977"
       gradientUnits="userSpaceOnUse"
       gradientTransform="matrix(0.89189189,0,0,1.1351351,2.5945999,-4.7432314)" />
    <linearGradient
       id="linearGradient3977">
      <stop
         id="stop3979"
         style="stop-color:#ffffff;stop-opacity:1"
         offset="0" />
      <stop
         id="stop3981"
         style="stop-color:#ffffff;stop-opacity:0.23529412"
         offset="0.03626217" />
      <stop
         id="stop3983"
         style="stop-color:#ffffff;stop-opacity:0.15686275"
         offset="0.95056331" />
      <stop
         id="stop3985"
         style="stop-color:#ffffff;stop-opacity:0.39215687"
         offset="1" />
    </linearGradient>
    <linearGradient
       x1="25.132275"
       y1="0.98520643"
       x2="25.132275"
       y2="47.013336"
       id="linearGradient3322"
       xlink:href="#linearGradient3600"
       gradientUnits="userSpaceOnUse"
       gradientTransform="matrix(1,0,0,0.9561695,-9.9999999e-8,-1.9149218)" />
    <linearGradient
       id="linearGradient3600">
      <stop
         id="stop3602"
         style="stop-color:#f4f4f4;stop-opacity:1"
         offset="0" />
      <stop
         id="stop3604"
         style="stop-color:#dbdbdb;stop-opacity:1"
         offset="1" />
    </linearGradient>
    <linearGradient
       x1="-51.786404"
       y1="50.786446"
       x2="-51.786404"
       y2="2.9062471"
       id="linearGradient3324"
       xlink:href="#linearGradient3104"
       gradientUnits="userSpaceOnUse"
       gradientTransform="matrix(0.8074968,0,0,0.8948322,59.410232,-2.9805531)" />
    <linearGradient
       id="linearGradient3104">
      <stop
         id="stop3106"
         style="stop-color:#a0a0a0;stop-opacity:1"
         offset="0" />
      <stop
         id="stop3108"
         style="stop-color:#bebebe;stop-opacity:1"
         offset="1" />
    </linearGradient>
    <radialGradient
       cx="605.71429"
       cy="486.64789"
       r="117.14286"
       fx="605.71429"
       fy="486.64789"
       id="radialGradient3327"
       xlink:href="#linearGradient5060"
       gradientUnits="userSpaceOnUse"
       gradientTransform="matrix(0.02303995,0,0,0.01470022,26.360882,37.040176)" />
    <linearGradient
       id="linearGradient5060">
      <stop
         id="stop5062"
         style="stop-color:#000000;stop-opacity:1"
         offset="0" />
      <stop
         id="stop5064"
         style="stop-color:#000000;stop-opacity:0"
         offset="1" />
    </linearGradient>
    <radialGradient
       cx="605.71429"
       cy="486.64789"
       r="117.14286"
       fx="605.71429"
       fy="486.64789"
       id="radialGradient3330"
       xlink:href="#linearGradient5060"
       gradientUnits="userSpaceOnUse"
       gradientTransform="matrix(-0.02303994,0,0,0.01470022,21.62311,37.040176)" />
    <linearGradient
       id="linearGradient5048">
      <stop
         id="stop5050"
         style="stop-color:#000000;stop-opacity:0"
         offset="0" />
      <stop
         id="stop5056"
         style="stop-color:#000000;stop-opacity:1"
         offset="0.5" />
      <stop
         id="stop5052"
         style="stop-color:#000000;stop-opacity:0"
         offset="1" />
    </linearGradient>
    <linearGradient
       x1="302.85715"
       y1="366.64789"
       x2="302.85715"
       y2="609.50507"
       id="linearGradient4333"
       xlink:href="#linearGradient5048"
       gradientUnits="userSpaceOnUse"
       gradientTransform="matrix(0.06732488,0,0,0.01470022,-0.3411391,37.040146)" />
    <linearGradient
       x1="30"
       y1="34.716728"
       x2="30"
       y2="15.569297"
       id="linearGradient3825"
       xlink:href="#linearGradient2490-6-6"
       gradientUnits="userSpaceOnUse" />
    <linearGradient
       x1="27.823339"
       y1="14.36416"
       x2="27.823339"
       y2="34.008301"
       id="linearGradient3853"
       xlink:href="#linearGradient3316"
       gradientUnits="userSpaceOnUse" />
    <linearGradient
       x1="32.693043"
       y1="13.497481"
       x2="32.693043"
       y2="35.554283"
       id="linearGradient3855"
       xlink:href="#linearGradient3857"
       gradientUnits="userSpaceOnUse" />
    <radialGradient
       cx="17.680819"
       cy="17.410549"
       r="8.484375"
       fx="17.680819"
       fy="17.410549"
       id="radialGradient3867"
       xlink:href="#linearGradient3242-6-6"
       gradientUnits="userSpaceOnUse"
       gradientTransform="matrix(0.73806726,3.7146825,-1.1045595,0.21946403,23.862172,-53.039586)" />
    <radialGradient
       cx="16.770905"
       cy="18.082886"
       r="8.484375"
       fx="16.770905"
       fy="18.082886"
       id="radialGradient3873"
       xlink:href="#linearGradient3242-6-6"
       gradientUnits="userSpaceOnUse"
       gradientTransform="matrix(0.36912885,4.0936869,-4.1866565,0.37751188,85.782809,-62.253794)" />
    <linearGradient
       x1="30"
       y1="34.716728"
       x2="30"
       y2="15.569297"
       id="linearGradient3140"
       xlink:href="#linearGradient2490-6-6"
       gradientUnits="userSpaceOnUse" />
  </defs>
  <metadata
     id="metadata4340">
    <rdf:RDF>
      <cc:Work
         rdf:about="">
        <dc:format>image/svg+xml</dc:format>
        <dc:type
           rdf:resource="http://purl.org/dc/dcmitype/StillImage" />
        <dc:title />
      </cc:Work>
    </rdf:RDF>
  </metadata>
  <g
     id="layer1">
    <rect
       width="32.508301"
       height="3.5700529"
       x="7.7378473"
       y="42.429947"
       id="rect2879"
       style="opacity:0.3;fill:url(#linearGradient4333);fill-opacity:1;fill-rule:nonzero;stroke:none;stroke-width:1;marker:none;visibility:visible;display:inline;overflow:visible" />
    <path
       d="m 7.7378475,42.430102 c 0,0 0,3.569856 0,3.569856 -1.1865002,0.0067 -2.8683795,-0.799823 -2.8683795,-1.785158 0,-0.985333 1.3240446,-1.784697 2.8683795,-1.784698 z"
       inkscape:connector-curvature="0"
       id="path2881"
       style="opacity:0.3;fill:url(#radialGradient3330);fill-opacity:1;fill-rule:nonzero;stroke:none;stroke-width:1;marker:none;visibility:visible;display:inline;overflow:visible" />
    <path
       d="m 40.246148,42.430102 c 0,0 0,3.569856 0,3.569856 1.1865,0.0067 2.86838,-0.799823 2.86838,-1.785158 0,-0.985333 -1.324045,-1.784697 -2.86838,-1.784698 z"
       inkscape:connector-curvature="0"
       id="path2883"
       style="opacity:0.3;fill:url(#radialGradient3327);fill-opacity:1;fill-rule:nonzero;stroke:none;stroke-width:1;marker:none;visibility:visible;display:inline;overflow:visible" />
    <path
       d="M 6.4999609,0.497199 C 14.520256,0.497199 41.5,0.5 41.5,0.5 l 4.2e-5,44.002803 c 0,0 -23.333387,0 -35.0000811,0 0,-14.668535 0,-29.33707 0,-44.00560407 z"
       inkscape:connector-curvature="0"
       id="path4160"
       style="fill:url(#linearGradient3322);fill-opacity:1;stroke:url(#linearGradient3324);stroke-width:0.99992186;stroke-linecap:butt;stroke-linejoin:round;stroke-miterlimit:4;stroke-opacity:1;stroke-dasharray:none;stroke-dashoffset:0;display:inline" />
    <path
       d="m 40.5,43.5 -33,0 0,-41.9999998 33,0 z"
       inkscape:connector-curvature="0"
       id="rect6741-1"
       style="fill:none;stroke:url(#linearGradient3988);stroke-width:1;stroke-linecap:round;stroke-linejoin:round;stroke-miterlimit:4;stroke-opacity:1;stroke-dasharray:none;stroke-dashoffset:0" />
    <path
       d="m 11,21 0,1 2.34375,0 0,-1 L 11,21 z m 0,4 0,1 2.75,0 0,-1 -2.75,0 z m 0,2 0,1 2.9375,0 0,-1 L 11,27 z m 0,2 0,1 2.53125,0 0,-1 L 11,29 z m 0,2.15625 0,0.96875 2.21875,0 0,-0.96875 -2.21875,0 z M 13.75,21 l 0,1 2.25,0 0,-1 -2.25,0 z m -2.75,2 0,1 1,0 0,-1 -1,0 z m 3.15625,2 0,1 1.84375,0 0,-1 -1.84375,0 z m 0.125,2 0,1 2.71875,0 0,-1 -2.71875,0 z m -0.34375,2 0,1 2.0625,0 0,-1 -2.0625,0 z m -0.375,2.15625 0,0.96875 2.125,0 0,-0.96875 -2.125,0 z M 11,34 l 0,1 4.28125,0 0,-1 L 11,34 z m 0,2 0,1 3.6875,0 0,-1 L 11,36 z m 3.96875,0 0,1 1.78125,0 0,-1 -1.78125,0 z m -0.625,2 0,1 3.34375,0 0,-1 -3.34375,0 z M 11,38 l 3.036746,0 0,1 L 11,39 11,38 z m 3.40625,-22 0,1 5.59375,0 0,-1 -5.59375,0 z m 0.03125,2 0,1 5.09375,0 0,-1 -5.09375,0 z m 1.1875,16 0,1 4.59375,0 0,-1 -4.59375,0 z m 4.9375,0 0,1 1.8125,0 0,-1 -1.8125,0 z m 2.15625,0 0,1 4.3125,0 0,-1 -4.3125,0 z m 4.65625,0 0,1 2.96875,0 0,-1 -2.96875,0 z m 3.28125,0 0,1 1.15625,0 0,-1 -1.15625,0 z m 1.5,0 0,1 0.6875,0 0,-1 -0.6875,0 z m 1,0 0,1 1.84375,0 0,-1 -1.84375,0 z m -16.03125,2 0,1 0.8125,0 0,-1 -0.8125,0 z m 1.03125,0 0,1 1.625,0 0,-1 -1.625,0 z m 1.875,0 0,1 1.625,0 0,-1 -1.625,0 z m 2.125,0 0,1 2.59375,0 0,-1 -2.59375,0 z m 2.90625,0 0,1 3.375,0 0,-1 -3.375,0 z m 3.84375,0 0,1 2.28125,0 0,-1 -2.28125,0 z m 2.5625,0 0,1 L 32,37 32,36 31.46875,36 z M 11,16 l 0,1 3.0625,0 0,-1 L 11,16 z m 0,2 0,1 3.09375,0 0,-1 L 11,18 z m 0,-10.9999999 0,1 2.375,0 0,-1 -2.375,0 z m 2.6875,0 0,1 2.25,0 0,-1 -2.25,0 z m 2.5625,0 0,1 1.96875,0 0,-1 -1.96875,0 z m 2.28125,0 0,1 0.875,0 0,-1 -0.875,0 z m 1.1875,0 0,1 1.9375,0 0,-1 -1.9375,0 z m 2.28125,0 0,1 5,0 0,-1 -5,0 z m -11,2 L 11,10 l 3.78125,0 0,-0.9999999 -3.78125,0 z m 4.15625,0 0,0.9999999 1.8125,0 0,-0.9999999 -1.8125,0 z m 2.15625,0 0,0.9999999 0.84375,0 0,-0.9999999 -0.84375,0 z m 1.21875,0 0,0.9999999 1.625,0 0,-0.9999999 -1.625,0 z m 2,0 0,0.9999999 1.625,0 0,-0.9999999 -1.625,0 z m 1.96875,0 0,0.9999999 2.65625,0 0,-0.9999999 -2.65625,0 z m 3.03125,0 0,0.9999999 3.46875,0 0,-0.9999999 -3.46875,0 z M 11,11 l 0,1 4.1875,0 0,-1 L 11,11 z m 4.5,0 0,1 4.5,0 0,-1 -4.5,0 z m -4.5,2 0,1 2.3125,0 0,-1 L 11,13 z m 2.625,0 0,1 2.15625,0 0,-1 -2.15625,0 z m 2.46875,0 0,1 1.90625,0 0,-1 -1.90625,0 z m 3.8125,5 0,1 1.90625,0 0,-1 -1.90625,0 z m 2.21875,0 0,1 1.90625,0 0,-1 -1.90625,0 z m 2.21875,0 0,1 2.75,0 0,-1 -2.75,0 z m 3.09375,0 0,1 0.5625,0 0,-1 -0.5625,0 z M 20,25 l 0,1 2.34375,0 0,-1 L 20,25 z m 2.65625,0 0,1 2.1875,0 0,-1 -2.1875,0 z m 2.5,0 0,1 L 27,26 27,25 25.15625,25 z M 20,27 l 0,1 1.875,0 0,-1 L 20,27 z m 2.1875,0 0,1 4.8125,0 0,-1 -4.8125,0 z m 5.125,0 0,1 3.6875,0 0,-1 -3.6875,0 z M 20,29 l 0,1 2.4375,0 0,-1 L 20,29 z m 2.78125,0 0,1 4.28125,0 0,-1 -4.28125,0 z m 4.59375,0 0,1 2.9375,0 0,-1 -2.9375,0 z M 20,31.125 l 0,0.96875 1.875,0 0,-0.96875 -1.875,0 z m 2.1875,0 0,0.96875 1.90625,0 0,-0.96875 -1.90625,0 z m 2.21875,0 0,0.96875 2.71875,0 0,-0.96875 -2.71875,0 z m 3.03125,0 0,0.96875 0.5625,0 0,-0.96875 -0.5625,0 z m 0.875,0 0,0.96875 3.53125,0 0,-0.96875 -3.53125,0 z m -8.375,6.875 0,1 2.4375,0 0,-1 -2.4375,0 z m 2.75,0 0,1 2.25,0 0,-1 -2.25,0 z m 2.59375,0 0,1 1.9375,0 0,-1 -1.9375,0 z m 2.25,0 0,1 3.09375,0 0,-1 -3.09375,0 z m 3.4375,0 0,1 5.03125,0 0,-1 -5.03125,0 z"
       inkscape:connector-curvature="0"
       id="path5302"
       style="fill:url(#linearGradient3797);fill-opacity:1;stroke:none;display:inline" />
    <path
       d="m 11.499999,30.987147 c -1e-6,-0.463151 0.06254,-0.852397 0.18763,-1.167738 0.134705,-0.32519 0.317523,-0.586328 0.548453,-0.78342 0.230925,-0.197082 0.500341,-0.339969 0.808248,-0.428662 0.3079,-0.08868 0.639858,-0.13303 0.995876,-0.133034 0.336765,4e-6 0.65429,0.04435 0.952577,0.133034 0.307898,0.08869 0.577314,0.23158 0.808247,0.428662 0.230922,0.197092 0.41374,0.45823 0.548454,0.78342 0.134702,0.315341 0.202055,0.704587 0.202062,1.167738 -7e-6,0.443446 -0.06736,0.822837 -0.202062,1.138175 -0.134714,0.315339 -0.317532,0.576478 -0.548454,0.783418 -0.230933,0.206941 -0.500349,0.354756 -0.808247,0.443445 C 14.694496,33.450725 14.376971,33.5 14.040206,33.5 c -0.356018,0 -0.687976,-0.04927 -0.995876,-0.147815 -0.307907,-0.08869 -0.577323,-0.236504 -0.808248,-0.443445 -0.23093,-0.20694 -0.413748,-0.468079 -0.548453,-0.783418 -0.125088,-0.315338 -0.187631,-0.694729 -0.18763,-1.138175"
       inkscape:connector-curvature="0"
       id="path3352"
       style="font-size:29.91349983px;font-style:normal;font-variant:normal;font-weight:bold;font-stretch:normal;line-height:125%;letter-spacing:0px;word-spacing:0px;color:#000000;fill:url(#radialGradient3394);fill-opacity:1;fill-rule:nonzero;stroke:url(#linearGradient3396);stroke-width:0.99999994;stroke-linecap:butt;stroke-linejoin:round;stroke-miterlimit:4;stroke-opacity:1;stroke-dashoffset:0;marker:none;visibility:visible;display:inline;overflow:visible;enable-background:accumulate;font-family:Droid Sans;-inkscape-font-specification:Droid Sans Bold" />
    <path
       d="m 12.5,30.999998 c -10e-7,-0.276469 0.03714,-0.508822 0.111429,-0.697059 0.08,-0.194116 0.18857,-0.349998 0.325714,-0.467649 0.137141,-0.117644 0.297141,-0.202938 0.48,-0.255881 0.182855,-0.05293 0.379998,-0.07941 0.591429,-0.07941 0.199997,3e-6 0.388568,0.02647 0.565714,0.07941 0.182854,0.05294 0.342854,0.138237 0.48,0.255881 0.137139,0.117651 0.245711,0.273533 0.325714,0.467649 0.08,0.188237 0.119996,0.42059 0.12,0.697059 -4e-6,0.264707 -0.04001,0.491177 -0.12,0.679412 -0.08,0.188237 -0.188575,0.344118 -0.325714,0.467648 -0.137146,0.123529 -0.297146,0.211765 -0.48,0.264706 -0.177146,0.05882 -0.365717,0.08823 -0.565714,0.08823 -0.211431,0 -0.408574,-0.02941 -0.591429,-0.08823 -0.182859,-0.05294 -0.342859,-0.141177 -0.48,-0.264706 C 12.799999,32.023528 12.691428,31.867647 12.611429,31.67941 12.537142,31.491175 12.499999,31.264705 12.5,30.999998"
       inkscape:connector-curvature="0"
       id="path3352-4"
       style="font-size:29.91349983px;font-style:normal;font-variant:normal;font-weight:bold;font-stretch:normal;line-height:125%;letter-spacing:0px;word-spacing:0px;opacity:0.5;color:#000000;fill:none;stroke:url(#linearGradient3471);stroke-width:0.99999994;stroke-linecap:butt;stroke-linejoin:round;stroke-miterlimit:4;stroke-opacity:1;stroke-dashoffset:0;marker:none;visibility:visible;display:inline;overflow:visible;enable-background:accumulate;font-family:Droid Sans;-inkscape-font-specification:Droid Sans Bold" />
    <g
       transform="translate(0.5,-0.5)"
       id="text3042"
       style="font-size:20px;font-style:normal;font-variant:normal;font-weight:bold;font-stretch:normal;line-height:125%;letter-spacing:0px;word-spacing:0px;fill:url(#radialGradient3867);fill-opacity:1;stroke:url(#linearGradient3825);font-family:Droid Sans;-inkscape-font-specification:Droid Sans Bold">
      <path
         d="m 24.875,24.921875 c -6e-6,1.73959 0.244785,3.052089 0.734375,3.9375 0.489576,0.875004 1.28645,1.312504 2.390625,1.3125 1.093739,4e-6 1.885405,-0.442704 2.375,-1.328125 0.489571,-0.885411 0.734362,-2.192701 0.734375,-3.921875 -1.3e-5,-1.739573 -0.244804,-3.036447 -0.734375,-3.890625 -0.489595,-0.86457 -1.291677,-1.296861 -2.40625,-1.296875 -1.093758,1.4e-5 -1.885424,0.432305 -2.375,1.296875 -0.479173,0.854178 -0.718756,2.151052 -0.71875,3.890625 m 11.09375,0 c -1.8e-5,1.458341 -0.187517,2.750006 -0.5625,3.875 -0.3646,1.125004 -0.895849,2.072919 -1.59375,2.84375 -0.687515,0.770835 -1.531264,1.359376 -2.53125,1.765625 C 30.291655,33.802083 29.177073,34 27.9375,34 26.781242,34 25.718743,33.802083 24.75,33.40625 23.781245,33.000001 22.942704,32.41146 22.234375,31.640625 21.536455,30.869794 20.989581,29.921879 20.59375,28.796875 20.197915,27.671881 19.999998,26.380216 20,24.921875 c -2e-6,-1.447906 0.18229,-2.734364 0.546875,-3.859375 0.374997,-1.124986 0.906247,-2.067694 1.59375,-2.828125 0.697912,-0.770817 1.541661,-1.35415 2.53125,-1.75 0.989576,-0.395816 2.109367,-0.593732 3.359375,-0.59375 1.156239,1.8e-5 2.218738,0.197934 3.1875,0.59375 0.968736,0.39585 1.802069,0.979183 2.5,1.75 0.708317,0.760431 1.2604,1.703139 1.65625,2.828125 0.395816,1.125011 0.593732,2.411469 0.59375,3.859375"
         inkscape:connector-curvature="0"
         id="path3817"
         style="font-size:32px;fill:url(#radialGradient3873);fill-opacity:1;stroke:url(#linearGradient3140)" />
    </g>
    <g
       transform="matrix(0.87671233,0,0,0.87757116,4.1086101,2.6625806)"
       id="g3835"
       style="font-size:20px;font-style:normal;font-variant:normal;font-weight:bold;font-stretch:normal;line-height:125%;letter-spacing:0px;word-spacing:0px;fill:none;stroke:url(#linearGradient3853);stroke-width:1.14006674;stroke-opacity:1;font-family:Droid Sans;-inkscape-font-specification:Droid Sans Bold">
      <path
         d="m 27.75558,32.043925 c 4.188369,0 4.820312,-4.220272 4.820312,-7.162747 0,-2.942475 -0.493103,-7.263033 -4.770089,-7.263033 -4.276986,0 -4.845424,4.803994 -4.845424,7.263034 0,2.459039 0.606832,7.162746 4.795201,7.162746 z M 27.9375,34 c -5.074569,0 -8.05971,-3.463502 -8.05971,-9.037428 0,-5.573926 2.666406,-9.234734 8.03125,-9.234734 5.364844,0 7.754185,4.233715 7.754185,9.214385 C 35.663225,29.922893 33.012069,34 27.9375,34 z"
         inkscape:connector-curvature="0"
         id="path3837"
         style="font-size:32px;fill:none;stroke:url(#linearGradient3855);stroke-width:1.29975212;stroke-opacity:1" />
    </g>
  </g>
</svg>
