<?xml version="1.0" encoding="UTF-8" standalone="no"?>
<!-- Created with Inkscape (http://www.inkscape.org/) -->

<svg
   xmlns:dc="http://purl.org/dc/elements/1.1/"
   xmlns:cc="http://creativecommons.org/ns#"
   xmlns:rdf="http://www.w3.org/1999/02/22-rdf-syntax-ns#"
   xmlns:svg="http://www.w3.org/2000/svg"
   xmlns="http://www.w3.org/2000/svg"
   xmlns:xlink="http://www.w3.org/1999/xlink"
   version="1.1"
   width="48"
   height="48"
   id="svg4101">
  <defs
     id="defs4103">
    <linearGradient
       x1="23.99999"
       y1="5.5641499"
       x2="23.99999"
       y2="43"
       id="linearGradient3988"
       xlink:href="#linearGradient3977"
       gradientUnits="userSpaceOnUse"
       gradientTransform="matrix(0.89189189,0,0,1.1351351,2.5945999,-4.7432313)" />
    <linearGradient
       id="linearGradient3977">
      <stop
         id="stop3979"
         style="stop-color:#ffffff;stop-opacity:1"
         offset="0" />
      <stop
         id="stop3981"
         style="stop-color:#ffffff;stop-opacity:0.23529412"
         offset="0.03626217" />
      <stop
         id="stop3983"
         style="stop-color:#ffffff;stop-opacity:0.15686275"
         offset="0.95056331" />
      <stop
         id="stop3985"
         style="stop-color:#ffffff;stop-opacity:0.39215687"
         offset="1" />
    </linearGradient>
    <radialGradient
       cx="7.8060555"
       cy="9.9571075"
       r="12.671875"
       fx="7.2758255"
       fy="9.9571075"
       id="radialGradient3060-0-4"
       xlink:href="#linearGradient2867-449-88-871-390-598-476-591-434-148-57-177-8-3"
       gradientUnits="userSpaceOnUse"
       gradientTransform="matrix(-1.6167311e-7,6.6018651,-8.0922115,-1.9817022e-7,104.56429,-60.072946)" />
    <linearGradient
       id="linearGradient2867-449-88-871-390-598-476-591-434-148-57-177-8-3">
      <stop
         id="stop3750-1-0"
         style="stop-color:#90dbec;stop-opacity:1"
         offset="0" />
      <stop
         id="stop3752-3-7"
         style="stop-color:#55c1ec;stop-opacity:1"
         offset="0.26238" />
      <stop
         id="stop3754-1-8"
         style="stop-color:#3689e6;stop-opacity:1"
         offset="0.704952" />
      <stop
         id="stop3756-1-6"
         style="stop-color:#2b63a0;stop-opacity:1"
         offset="1" />
    </linearGradient>
    <linearGradient
       x1="25"
       y1="47.935162"
       x2="25"
       y2="0.91790956"
       id="linearGradient3062-0-8"
       xlink:href="#linearGradient3707-319-631-407-324-3-8"
       gradientUnits="userSpaceOnUse"
       gradientTransform="translate(0,-4.6076e-4)" />
    <linearGradient
       id="linearGradient3707-319-631-407-324-3-8">
      <stop
         id="stop3760-4-4"
         style="stop-color:#185f9a;stop-opacity:1"
         offset="0" />
      <stop
         id="stop3762-0-3"
         style="stop-color:#599ec9;stop-opacity:1"
         offset="1" />
    </linearGradient>
    <radialGradient
       cx="605.71429"
       cy="486.64789"
       r="117.14286"
       fx="605.71429"
       fy="486.64789"
       id="radialGradient3327"
       xlink:href="#linearGradient5060"
       gradientUnits="userSpaceOnUse"
       gradientTransform="matrix(0.02303995,0,0,0.01470022,26.360882,37.040176)" />
    <linearGradient
       id="linearGradient5060">
      <stop
         id="stop5062"
         style="stop-color:#000000;stop-opacity:1"
         offset="0" />
      <stop
         id="stop5064"
         style="stop-color:#000000;stop-opacity:0"
         offset="1" />
    </linearGradient>
    <radialGradient
       cx="605.71429"
       cy="486.64789"
       r="117.14286"
       fx="605.71429"
       fy="486.64789"
       id="radialGradient3330"
       xlink:href="#linearGradient5060"
       gradientUnits="userSpaceOnUse"
       gradientTransform="matrix(-0.02303994,0,0,0.01470022,21.62311,37.040176)" />
    <linearGradient
       id="linearGradient5048">
      <stop
         id="stop5050"
         style="stop-color:#000000;stop-opacity:0"
         offset="0" />
      <stop
         id="stop5056"
         style="stop-color:#000000;stop-opacity:1"
         offset="0.5" />
      <stop
         id="stop5052"
         style="stop-color:#000000;stop-opacity:0"
         offset="1" />
    </linearGradient>
    <linearGradient
       x1="302.85715"
       y1="366.64789"
       x2="302.85715"
       y2="609.50507"
       id="linearGradient4099"
       xlink:href="#linearGradient5048"
       gradientUnits="userSpaceOnUse"
       gradientTransform="matrix(0.06732488,0,0,0.01470022,-0.3411391,37.040146)" />
    <linearGradient
       x1="23.99999"
       y1="5.5641499"
       x2="23.99999"
       y2="43"
       id="linearGradient3017"
       xlink:href="#linearGradient3977"
       gradientUnits="userSpaceOnUse"
       gradientTransform="matrix(0.89189189,0,0,1.1351351,2.5945999,-4.7432313)" />
    <radialGradient
       cx="7.8060555"
       cy="9.9571075"
       r="12.671875"
       fx="7.2758255"
       fy="9.9571075"
       id="radialGradient3020"
       xlink:href="#linearGradient2867-449-88-871-390-598-476-591-434-148-57-177-8-3"
       gradientUnits="userSpaceOnUse"
       gradientTransform="matrix(-1.6167311e-7,6.6018651,-8.0922115,-1.9817022e-7,104.56429,-60.072946)" />
    <linearGradient
       x1="25"
       y1="47.935162"
       x2="25"
       y2="0.91790956"
       id="linearGradient3022"
       xlink:href="#linearGradient3707-319-631-407-324-3-8"
       gradientUnits="userSpaceOnUse"
       gradientTransform="translate(0,-4.6076e-4)" />
    <radialGradient
       cx="605.71429"
       cy="486.64789"
       r="117.14286"
       fx="605.71429"
       fy="486.64789"
       id="radialGradient3025"
       xlink:href="#linearGradient5060"
       gradientUnits="userSpaceOnUse"
       gradientTransform="matrix(0.02303995,0,0,0.01470022,26.360882,37.040176)" />
    <radialGradient
       cx="605.71429"
       cy="486.64789"
       r="117.14286"
       fx="605.71429"
       fy="486.64789"
       id="radialGradient3028"
       xlink:href="#linearGradient5060"
       gradientUnits="userSpaceOnUse"
       gradientTransform="matrix(-0.02303994,0,0,0.01470022,21.62311,37.040176)" />
    <linearGradient
       x1="302.85715"
       y1="366.64789"
       x2="302.85715"
       y2="609.50507"
       id="linearGradient3031"
       xlink:href="#linearGradient5048"
       gradientUnits="userSpaceOnUse"
       gradientTransform="matrix(0.06732488,0,0,0.01470022,-0.3411391,37.040146)" />
  </defs>
  <metadata
     id="metadata4106">
    <rdf:RDF>
      <cc:Work
         rdf:about="">
        <dc:format>image/svg+xml</dc:format>
        <dc:type
           rdf:resource="http://purl.org/dc/dcmitype/StillImage" />
        <dc:title></dc:title>
      </cc:Work>
    </rdf:RDF>
  </metadata>
  <rect
     width="32.508301"
     height="3.5700529"
     x="7.7378473"
     y="42.429947"
     id="rect2879"
     style="opacity:0.3;fill:url(#linearGradient3031);fill-opacity:1;fill-rule:nonzero;stroke:none;stroke-width:1;marker:none;visibility:visible;display:inline;overflow:visible" />
  <path
     d="m 7.7378475,42.430102 c 0,0 0,3.569856 0,3.569856 -1.1865002,0.0067 -2.8683795,-0.799823 -2.8683795,-1.785158 0,-0.985333 1.3240446,-1.784697 2.8683795,-1.784698 z"
     id="path2881"
     style="opacity:0.3;fill:url(#radialGradient3028);fill-opacity:1;fill-rule:nonzero;stroke:none;stroke-width:1;marker:none;visibility:visible;display:inline;overflow:visible" />
  <path
     d="m 40.246148,42.430102 c 0,0 0,3.569856 0,3.569856 1.1865,0.0067 2.86838,-0.799823 2.86838,-1.785158 0,-0.985333 -1.324045,-1.784697 -2.86838,-1.784698 z"
     id="path2883"
     style="opacity:0.3;fill:url(#radialGradient3025);fill-opacity:1;fill-rule:nonzero;stroke:none;stroke-width:1;marker:none;visibility:visible;display:inline;overflow:visible" />
  <path
     d="m 6.4999609,0.49719907 c 8.0202951,0 35.0000391,0.002801 35.0000391,0.002801 l 4.2e-5,44.00280293 c 0,0 -23.333387,0 -35.0000811,0 0,-14.668535 0,-29.33707 0,-44.005604 z"
     id="path4160"
     style="color:#000000;fill:url(#radialGradient3020);fill-opacity:1;fill-rule:nonzero;stroke:url(#linearGradient3022);stroke-width:1;stroke-linecap:butt;stroke-linejoin:round;stroke-miterlimit:4;stroke-opacity:1;stroke-dasharray:none;stroke-dashoffset:0;marker:none;visibility:visible;display:inline;overflow:visible;enable-background:accumulate" />
  <path
     d="m 40.5,43.5 -33,0 0,-41.9999997 33,0 z"
     id="rect6741-1"
     style="opacity:0.5;fill:none;stroke:url(#linearGradient3017);stroke-width:1;stroke-linecap:round;stroke-linejoin:round;stroke-miterlimit:4;stroke-opacity:1;stroke-dasharray:none;stroke-dashoffset:0" />
  <path
     d="m 33.96875,14.946 c -0.09616,0.04718 -0.166934,0.219962 -0.25,0.46875 -0.221508,0.663436 -1.795713,5.247605 -10.625,5.46875 -4.213201,0.104599 -6,-3.59375 -6,-3.59375 L 17,22.03975 c 0,0 0.433896,1.04986 -0.46875,2.15625 -0.04906,-0.07655 -0.07111,-0.144193 -0.125,-0.21875 -0.324879,-0.449478 -0.719514,-0.843305 -1.125,-1.125 -0.465905,-0.323669 -0.928072,-0.523598 -1.40625,-0.59375 -0.551291,-0.08088 -1.107689,0.03868 -1.53125,0.34375 -0.42369,0.30516 -0.653074,0.764483 -0.75,1.3125 -0.08403,0.475082 -0.06695,0.987897 0.09375,1.53125 0.139878,0.472943 0.362766,0.956757 0.6875,1.40625 0.34306,0.474858 0.772159,0.894229 1.21875,1.1875 0.503662,0.33075 1.039137,0.501061 1.5625,0.53125 0.161954,0.0093 0.31994,-0.0087 0.46875,-0.03125 3.389796,2.682884 10.133891,5.17464 14.59375,2.3125 0.02188,0.0074 0.04052,0.02328 0.0625,0.03125 l -0.125,0.125 c 0.08611,-0.05356 0.184757,0.06039 0.28125,0.09375 0.0024,0.04569 -0.01199,0.115548 0,0.15625 l 0.21875,-0.09375 c 0.03747,0.01191 0.05549,0.05126 0.09375,0.0625 0.0082,0.0024 0.023,-0.0024 0.03125,0 l 0.09375,0.0625 2,0.71875 c -0.04973,0.42095 0.117094,0.799523 0.4375,1.125 0.0615,0.07494 0.141696,0.152713 0.21875,0.21875 0.04084,0.02992 0.08071,0.06581 0.125,0.09375 0.127471,0.09117 0.273469,0.187341 0.4375,0.25 0.787739,0.300914 1.530033,0.638097 2.09375,0.90625 0.0074,0.0035 0.02392,-0.0035 0.03125,0 0.538344,0.257015 0.90625,0.46875 0.90625,0.46875 -0.006,-0.0204 0.006,-0.04216 0,-0.0625 0.0012,6.12e-4 0.03125,0.03125 0.03125,0.03125 -0.471218,-1.599936 -0.772662,-2.977433 -1.40625,-3.75 -0.120019,-0.149348 -0.257301,-0.273968 -0.40625,-0.375 -0.007,-0.0046 -0.02417,0.0045 -0.03125,0 -0.07136,-0.0469 -0.139562,-0.121273 -0.21875,-0.15625 -0.01029,-0.0044 -0.02082,0.0041 -0.03125,0 -0.0293,-0.01237 -0.06331,-0.02055 -0.09375,-0.03125 -0.121079,-0.03855 -0.234782,-0.08218 -0.375,-0.09375 -0.04172,-0.0048 -0.08141,0.0023 -0.125,0 -0.110076,-0.0057 -0.221002,-0.01125 -0.34375,0 -0.0475,0.0044 -0.08047,0.02309 -0.125,0.03125 -0.257223,0.01225 -0.492793,0.01733 -0.65625,0.1875 l -1.75,-1.125 -0.03125,0 c 2.293398,-2.382348 3.609255,-6.777868 2.78125,-14.28125 -0.04897,-0.383218 -0.214736,-0.57864 -0.375,-0.5 z"
     id="path4323-7"
     style="opacity:0.3;color:#000000;fill:#10283f;fill-opacity:0.63137255;fill-rule:nonzero;stroke:none;stroke-width:0.68663466;marker:none;visibility:visible;display:inline;overflow:visible;enable-background:accumulate" />
  <path
     d="m 33.96875,13.946094 c -0.09616,0.04718 -0.166934,0.219962 -0.25,0.46875 -0.221508,0.663436 -1.795713,5.247605 -10.625,5.46875 -4.213201,0.104599 -6,-3.59375 -6,-3.59375 L 17,21.039844 c 0,0 0.433896,1.04986 -0.46875,2.15625 -0.04906,-0.07655 -0.07111,-0.144193 -0.125,-0.21875 -0.324879,-0.449478 -0.719514,-0.843305 -1.125,-1.125 -0.465905,-0.323669 -0.928072,-0.523598 -1.40625,-0.59375 -0.551291,-0.08088 -1.107689,0.03868 -1.53125,0.34375 -0.42369,0.30516 -0.653074,0.764483 -0.75,1.3125 -0.08403,0.475082 -0.06695,0.987897 0.09375,1.53125 0.139878,0.472943 0.362766,0.956757 0.6875,1.40625 0.34306,0.474858 0.772159,0.894229 1.21875,1.1875 0.503662,0.33075 1.039137,0.501061 1.5625,0.53125 0.161954,0.0093 0.31994,-0.0087 0.46875,-0.03125 3.389796,2.682884 10.133891,5.17464 14.59375,2.3125 0.02188,0.0074 0.04052,0.02328 0.0625,0.03125 l -0.125,0.125 c 0.08611,-0.05356 0.184757,0.06039 0.28125,0.09375 0.0024,0.04569 -0.01199,0.115548 0,0.15625 l 0.21875,-0.09375 c 0.03747,0.01191 0.05549,0.05126 0.09375,0.0625 0.0082,0.0024 0.023,-0.0024 0.03125,0 l 0.09375,0.0625 2,0.71875 c -0.04973,0.42095 0.117094,0.799523 0.4375,1.125 0.0615,0.07494 0.141696,0.152713 0.21875,0.21875 0.04084,0.02992 0.08071,0.06581 0.125,0.09375 0.127471,0.09117 0.273469,0.187341 0.4375,0.25 0.787739,0.300914 1.530033,0.638097 2.09375,0.90625 0.0074,0.0035 0.02392,-0.0035 0.03125,0 0.538344,0.257015 0.90625,0.46875 0.90625,0.46875 -0.006,-0.0204 0.006,-0.04216 0,-0.0625 0.0012,6.12e-4 0.03125,0.03125 0.03125,0.03125 -0.471218,-1.599936 -0.772662,-2.977433 -1.40625,-3.75 -0.120019,-0.149348 -0.257301,-0.273968 -0.40625,-0.375 -0.007,-0.0046 -0.02417,0.0045 -0.03125,0 -0.07136,-0.0469 -0.139562,-0.121273 -0.21875,-0.15625 -0.01029,-0.0044 -0.02082,0.0041 -0.03125,0 -0.0293,-0.01237 -0.06331,-0.02055 -0.09375,-0.03125 -0.121079,-0.03855 -0.234782,-0.08218 -0.375,-0.09375 -0.04172,-0.0048 -0.08141,0.0023 -0.125,0 -0.110076,-0.0057 -0.221002,-0.01125 -0.34375,0 -0.0475,0.0044 -0.08047,0.02309 -0.125,0.03125 -0.257223,0.01225 -0.492793,0.01733 -0.65625,0.1875 l -1.75,-1.125 -0.03125,0 c 2.293398,-2.382348 3.609255,-6.777868 2.78125,-14.28125 -0.04897,-0.383218 -0.214736,-0.57864 -0.375,-0.5 z"
     id="path4323"
     style="color:#000000;fill:#ffffff;fill-opacity:1;fill-rule:nonzero;stroke:none;stroke-width:0.68663466;marker:none;visibility:visible;display:inline;overflow:visible;enable-background:accumulate" />
</svg>
