<?xml version="1.0" encoding="UTF-8" standalone="no"?>
<!-- Created with Inkscape (http://www.inkscape.org/) -->

<svg
   xmlns:dc="http://purl.org/dc/elements/1.1/"
   xmlns:cc="http://creativecommons.org/ns#"
   xmlns:rdf="http://www.w3.org/1999/02/22-rdf-syntax-ns#"
   xmlns:svg="http://www.w3.org/2000/svg"
   xmlns="http://www.w3.org/2000/svg"
   xmlns:xlink="http://www.w3.org/1999/xlink"
   xmlns:sodipodi="http://sodipodi.sourceforge.net/DTD/sodipodi-0.dtd"
   xmlns:inkscape="http://www.inkscape.org/namespaces/inkscape"
   version="1.0"
   width="48"
   height="48"
   id="svg2453"
   inkscape:version="0.48.4 r9939"
   sodipodi:docname="image.svg">
  <sodipodi:namedview
     pagecolor="#ffffff"
     bordercolor="#666666"
     borderopacity="1"
     objecttolerance="10"
     gridtolerance="10"
     guidetolerance="10"
     inkscape:pageopacity="0"
     inkscape:pageshadow="2"
     inkscape:window-width="1440"
     inkscape:window-height="845"
     id="namedview55"
     showgrid="true"
     inkscape:zoom="13.395833"
     inkscape:cx="34.339036"
     inkscape:cy="24"
     inkscape:window-x="0"
     inkscape:window-y="30"
     inkscape:window-maximized="1"
     inkscape:current-layer="svg2453">
    <inkscape:grid
       type="xygrid"
       id="grid3951" />
  </sodipodi:namedview>
  <metadata
     id="metadata35">
    <rdf:RDF>
      <cc:Work
         rdf:about="">
        <dc:format>image/svg+xml</dc:format>
        <dc:type
           rdf:resource="http://purl.org/dc/dcmitype/StillImage" />
        <dc:title />
      </cc:Work>
    </rdf:RDF>
  </metadata>
  <defs
     id="defs2455">
    <radialGradient
       cx="605.71429"
       cy="486.64789"
       r="117.14286"
       fx="605.71429"
       fy="486.64789"
       id="radialGradient19613"
       xlink:href="#linearGradient5060"
       gradientUnits="userSpaceOnUse"
       gradientTransform="matrix(0.02891661,0,0,0.01235294,26.973101,38.470848)" />
    <linearGradient
       id="linearGradient5060">
      <stop
         id="stop5062"
         style="stop-color:#000000;stop-opacity:1"
         offset="0" />
      <stop
         id="stop5064"
         style="stop-color:#000000;stop-opacity:0"
         offset="1" />
    </linearGradient>
    <radialGradient
       cx="605.71429"
       cy="486.64789"
       r="117.14286"
       fx="605.71429"
       fy="486.64789"
       id="radialGradient19616"
       xlink:href="#linearGradient5060"
       gradientUnits="userSpaceOnUse"
       gradientTransform="matrix(-0.0289166,0,0,0.01235294,21.026894,38.470848)" />
    <linearGradient
       id="linearGradient5048">
      <stop
         id="stop5050"
         style="stop-color:#000000;stop-opacity:0"
         offset="0" />
      <stop
         id="stop5056"
         style="stop-color:#000000;stop-opacity:1"
         offset="0.5" />
      <stop
         id="stop5052"
         style="stop-color:#000000;stop-opacity:0"
         offset="1" />
    </linearGradient>
    <linearGradient
       x1="302.85715"
       y1="366.64789"
       x2="302.85715"
       y2="609.50507"
       id="linearGradient19619"
       xlink:href="#linearGradient5048"
       gradientUnits="userSpaceOnUse"
       gradientTransform="matrix(0.08449704,0,0,0.01235294,-6.5396456,38.470822)" />
    <linearGradient
       x1="16.626165"
       y1="15.298182"
       x2="20.054544"
       y2="24.627615"
       id="linearGradient3371"
       xlink:href="#linearGradient8265-821-176-38-919-66-249-7-7-1"
       gradientUnits="userSpaceOnUse"
       gradientTransform="matrix(0.86840698,0,0,0.97592509,9.4226983,5.4253135)" />
    <linearGradient
       id="linearGradient8265-821-176-38-919-66-249-7-7-1">
      <stop
         id="stop2687-1-9-6"
         style="stop-color:#ffffff;stop-opacity:1"
         offset="0" />
      <stop
         id="stop2689-5-4-4"
         style="stop-color:#ffffff;stop-opacity:0"
         offset="1" />
    </linearGradient>
    <linearGradient
       id="linearGradient3600">
      <stop
         id="stop3602"
         style="stop-color:#f4f4f4;stop-opacity:1"
         offset="0" />
      <stop
         id="stop3604"
         style="stop-color:#dbdbdb;stop-opacity:1"
         offset="1" />
    </linearGradient>
    <linearGradient
       id="linearGradient3977">
      <stop
         id="stop3979"
         style="stop-color:#ffffff;stop-opacity:1"
         offset="0" />
      <stop
         id="stop3981"
         style="stop-color:#ffffff;stop-opacity:0.23529412"
         offset="0.03626217" />
      <stop
         id="stop3983"
         style="stop-color:#ffffff;stop-opacity:0.15686275"
         offset="0.95056331" />
      <stop
         id="stop3985"
         style="stop-color:#ffffff;stop-opacity:0.39215687"
         offset="1" />
    </linearGradient>
    <linearGradient
       x1="23.99999"
       y1="5.5641499"
       x2="23.99999"
       y2="43"
       id="linearGradient3138"
       xlink:href="#linearGradient3977"
       gradientUnits="userSpaceOnUse"
       gradientTransform="matrix(1.1621622,0,0,0.91891889,-3.8918883,4.4459543)" />
    <linearGradient
       x1="25.132275"
       y1="0.98520643"
       x2="25.132275"
       y2="47.013336"
       id="linearGradient3141"
       xlink:href="#linearGradient3600"
       gradientUnits="userSpaceOnUse"
       gradientTransform="matrix(1.2571399,0,0,0.76049252,-6.1713598,7.0815133)" />
    <linearGradient
       id="linearGradient4785-3">
      <stop
         id="stop4787-5"
         style="stop-color:#262626;stop-opacity:1"
         offset="0" />
      <stop
         id="stop4789-1"
         style="stop-color:#4d4d4d;stop-opacity:1"
         offset="1" />
    </linearGradient>
    <linearGradient
       id="linearGradient3610-302-9-7">
      <stop
         id="stop3796-3-8"
         style="stop-color:#1d1d1d;stop-opacity:1"
         offset="0" />
      <stop
         id="stop3798-1-9"
         style="stop-color:#000000;stop-opacity:1"
         offset="1" />
    </linearGradient>
    <linearGradient
       x1="45.414135"
       y1="15.270427"
       x2="45.567307"
       y2="96.25267"
       id="linearGradient3077"
       xlink:href="#linearGradient4785-3"
       gradientUnits="userSpaceOnUse"
       gradientTransform="matrix(0.49083951,0,0,0.38033512,-57.357144,-48.338381)" />
    <linearGradient
       x1="-24.032034"
       y1="-13.090545"
       x2="-24.097931"
       y2="-40.163883"
       id="linearGradient3079"
       xlink:href="#linearGradient3610-302-9-7"
       gradientUnits="userSpaceOnUse"
       gradientTransform="matrix(1.1142855,0,0,1.1111114,2.7514597,3.5103482)" />
    <linearGradient
       id="linearGradient3610-302-9-7-6">
      <stop
         offset="0"
         style="stop-color:#1d1d1d;stop-opacity:1"
         id="stop3796-3-8-6" />
      <stop
         offset="1"
         style="stop-color:#000000;stop-opacity:1"
         id="stop3798-1-9-9" />
    </linearGradient>
    <linearGradient
       gradientTransform="matrix(1.4133846,0,0,1.4015846,3.9862641,4.9034405)"
       gradientUnits="userSpaceOnUse"
       xlink:href="#linearGradient3610-302-9-7-6"
       id="linearGradient3079-1"
       y2="36.268814"
       x2="30.305618"
       y1="6.9420786"
       x1="30.305618" />
    <linearGradient
       id="linearGradient4785-3-8">
      <stop
         offset="0"
         style="stop-color:#262626;stop-opacity:1"
         id="stop4787-5-5" />
      <stop
         offset="1"
         style="stop-color:#4d4d4d;stop-opacity:1"
         id="stop4789-1-1" />
    </linearGradient>
    <linearGradient
       gradientTransform="matrix(0.62259178,0,0,0.47976456,-72.256838,-60.499888)"
       gradientUnits="userSpaceOnUse"
       xlink:href="#linearGradient4785-3-8"
       id="linearGradient3077-9"
       y2="156.78416"
       x2="164.28023"
       y1="241.65149"
       x1="164.28023" />
    <linearGradient
       gradientTransform="matrix(0.11390532,0,0,0.02058823,-9.1686406,48.451416)"
       gradientUnits="userSpaceOnUse"
       xlink:href="#linearGradient5048-8"
       id="linearGradient3178"
       y2="609.50507"
       x2="302.85715"
       y1="366.64789"
       x1="302.85715" />
    <radialGradient
       gradientTransform="matrix(-0.03212956,0,0,0.02058823,23.863217,48.451416)"
       gradientUnits="userSpaceOnUse"
       xlink:href="#linearGradient5060-2"
       id="radialGradient3175"
       fy="486.64789"
       fx="605.71429"
       r="117.14286"
       cy="486.64789"
       cx="605.71429" />
    <radialGradient
       gradientTransform="matrix(0.03212956,0,0,0.02058823,40.136784,48.451416)"
       gradientUnits="userSpaceOnUse"
       xlink:href="#linearGradient5060-2"
       id="radialGradient3172"
       fy="486.64789"
       fx="605.71429"
       r="117.14286"
       cy="486.64789"
       cx="605.71429" />
    <linearGradient
       gradientTransform="matrix(1.6571391,0,0,0.99949772,-7.7713459,9.4785876)"
       gradientUnits="userSpaceOnUse"
       xlink:href="#linearGradient3600-9"
       id="linearGradient3169"
       y2="47.013336"
       x2="25.132275"
       y1="0.98520643"
       x1="25.132275" />
    <linearGradient
       gradientTransform="matrix(1.5405406,0,0,1.216213,-4.9729707,5.8108651)"
       gradientUnits="userSpaceOnUse"
       xlink:href="#linearGradient3977-4"
       id="linearGradient3166"
       y2="42.100208"
       x2="23.99999"
       y1="5.8641062"
       x1="23.99999" />
    <linearGradient
       gradientTransform="matrix(1.3612077,0,0,0.95572049,91.691477,7.7856436)"
       gradientUnits="userSpaceOnUse"
       xlink:href="#linearGradient3104-6"
       id="linearGradient3163"
       y2="2.9062471"
       x2="-51.786404"
       y1="50.786446"
       x1="-51.786404" />
    <linearGradient
       id="linearGradient5048-8">
      <stop
         offset="0"
         style="stop-color:#000000;stop-opacity:0"
         id="stop5050-4" />
      <stop
         offset="0.5"
         style="stop-color:#000000;stop-opacity:1"
         id="stop5056-5" />
      <stop
         offset="1"
         style="stop-color:#000000;stop-opacity:0"
         id="stop5052-1" />
    </linearGradient>
    <linearGradient
       id="linearGradient5060-2">
      <stop
         offset="0"
         style="stop-color:#000000;stop-opacity:1"
         id="stop5062-3" />
      <stop
         offset="1"
         style="stop-color:#000000;stop-opacity:0"
         id="stop5064-1" />
    </linearGradient>
    <linearGradient
       id="linearGradient3600-9">
      <stop
         offset="0"
         style="stop-color:#f4f4f4;stop-opacity:1"
         id="stop3602-3" />
      <stop
         offset="1"
         style="stop-color:#dbdbdb;stop-opacity:1"
         id="stop3604-7" />
    </linearGradient>
    <linearGradient
       id="linearGradient3977-4">
      <stop
         offset="0"
         style="stop-color:#ffffff;stop-opacity:1"
         id="stop3979-7" />
      <stop
         offset="0.01214366"
         style="stop-color:#ffffff;stop-opacity:0.23529412"
         id="stop3981-6" />
      <stop
         offset="0.98781353"
         style="stop-color:#ffffff;stop-opacity:0.15686275"
         id="stop3983-5" />
      <stop
         offset="1"
         style="stop-color:#ffffff;stop-opacity:0.39215687"
         id="stop3985-6" />
    </linearGradient>
    <linearGradient
       id="linearGradient3104-6">
      <stop
         offset="0"
         style="stop-color:#000000;stop-opacity:0.31782946"
         id="stop3106-3" />
      <stop
         offset="1"
         style="stop-color:#000000;stop-opacity:0.24031007"
         id="stop3108-9" />
    </linearGradient>
    <linearGradient
       inkscape:collect="always"
       xlink:href="#linearGradient3104-6"
       id="linearGradient3144"
       gradientUnits="userSpaceOnUse"
       gradientTransform="matrix(1.0382097,0,0,0.73204138,69.527413,5.6548677)"
       x1="-51.786404"
       y1="50.786446"
       x2="-51.786404"
       y2="2.9062471" />
    <linearGradient
       inkscape:collect="always"
       xlink:href="#linearGradient3977-4"
       id="linearGradient3147"
       gradientUnits="userSpaceOnUse"
       gradientTransform="matrix(1.5405406,0,0,1.216213,-77.447548,-1.917987)"
       x1="23.99999"
       y1="5.8641062"
       x2="23.99999"
       y2="42.100208" />
    <linearGradient
       inkscape:collect="always"
       xlink:href="#linearGradient4785-3-8"
       id="linearGradient3150"
       gradientUnits="userSpaceOnUse"
       gradientTransform="matrix(0.62259178,0,0,0.47976456,-144.73141,-68.22874)"
       x1="164.28023"
       y1="241.65149"
       x2="164.28023"
       y2="156.78416" />
    <linearGradient
       inkscape:collect="always"
       xlink:href="#linearGradient3610-302-9-7-6"
       id="linearGradient3152"
       gradientUnits="userSpaceOnUse"
       gradientTransform="matrix(1.4133846,0,0,1.4015846,-68.488313,-2.8254116)"
       x1="30.305618"
       y1="6.9420786"
       x2="30.305618"
       y2="36.268814" />
    <linearGradient
       inkscape:collect="always"
       xlink:href="#linearGradient3600-9"
       id="linearGradient3155"
       gradientUnits="userSpaceOnUse"
       gradientTransform="matrix(1.6571391,0,0,0.99949772,-80.245923,1.7497355)"
       x1="25.132275"
       y1="0.98520643"
       x2="25.132275"
       y2="47.013336" />
    <radialGradient
       inkscape:collect="always"
       xlink:href="#linearGradient5060-2"
       id="radialGradient3158"
       gradientUnits="userSpaceOnUse"
       gradientTransform="matrix(0.03212956,0,0,0.02058823,-32.337793,40.722564)"
       cx="605.71429"
       cy="486.64789"
       fx="605.71429"
       fy="486.64789"
       r="117.14286" />
    <radialGradient
       inkscape:collect="always"
       xlink:href="#linearGradient5060-2"
       id="radialGradient3161"
       gradientUnits="userSpaceOnUse"
       gradientTransform="matrix(-0.03212956,0,0,0.02058823,-48.61136,40.722564)"
       cx="605.71429"
       cy="486.64789"
       fx="605.71429"
       fy="486.64789"
       r="117.14286" />
    <linearGradient
       inkscape:collect="always"
       xlink:href="#linearGradient5048-8"
       id="linearGradient3164"
       gradientUnits="userSpaceOnUse"
       gradientTransform="matrix(0.11390532,0,0,0.02058823,-81.643218,40.722564)"
       x1="302.85715"
       y1="366.64789"
       x2="302.85715"
       y2="609.50507" />
    <linearGradient
       id="linearGradient3707-319-631-407-324-616-674-812-821-107-178-392-400-7-3-5-8-0">
      <stop
         id="stop5440-9-8-4-9-47"
         style="stop-color:#272727;stop-opacity:1"
         offset="0" />
      <stop
         id="stop5442-0-9-2-7-37"
         style="stop-color:#454545;stop-opacity:1"
         offset="1" />
    </linearGradient>
    <linearGradient
       y2="-174.9679"
       x2="149.98465"
       y1="-104.23534"
       x1="149.98465"
       gradientTransform="matrix(0.42132707,0,0,0.42413289,-33.192592,79.209636)"
       gradientUnits="userSpaceOnUse"
       id="linearGradient3949"
       xlink:href="#linearGradient3707-319-631-407-324-616-674-812-821-107-178-392-400-7-3-5-8-0"
       inkscape:collect="always" />
    <linearGradient
       inkscape:collect="always"
       xlink:href="#linearGradient4785-3"
       id="linearGradient3997"
       gradientUnits="userSpaceOnUse"
       gradientTransform="matrix(0.48996039,0,0,0.38149468,-57.358615,-48.348941)"
       x1="45.414135"
       y1="15.270427"
       x2="45.567307"
       y2="96.25267" />
    <linearGradient
       inkscape:collect="always"
       xlink:href="#linearGradient3610-302-9-7"
       id="linearGradient3999"
       gradientUnits="userSpaceOnUse"
       gradientTransform="matrix(1.1122897,0,0,1.114499,2.64233,3.6578638)"
       x1="-24.032034"
       y1="-13.090545"
       x2="-24.097931"
       y2="-40.163883" />
    <linearGradient
       inkscape:collect="always"
       xlink:href="#linearGradient4785-3"
       id="linearGradient4002"
       gradientUnits="userSpaceOnUse"
       gradientTransform="matrix(-0.48995989,6.9868352e-4,0.00181362,-0.38149037,57.128707,48.266601)"
       x1="45.414135"
       y1="15.270427"
       x2="45.567307"
       y2="96.25267" />
    <linearGradient
       inkscape:collect="always"
       xlink:href="#linearGradient3610-302-9-7"
       id="linearGradient4004"
       gradientUnits="userSpaceOnUse"
       gradientTransform="matrix(-1.1122886,0.00158613,0.00529831,-1.1144864,-2.6249379,-3.6540545)"
       x1="-24.032034"
       y1="-13.090545"
       x2="-24.097931"
       y2="-40.163883" />
  </defs>
  <g
     id="g3257"
     style="opacity:0.4">
    <rect
       width="40.799999"
       height="2.9999998"
       x="3.5999999"
       y="43"
       id="rect2879"
       style="fill:url(#linearGradient19619);fill-opacity:1;fill-rule:nonzero;stroke:none;stroke-width:1;marker:none;visibility:visible;display:inline;overflow:visible" />
    <path
       d="m 3.6,43.00013 c 0,0 0,2.999835 0,2.999835 C 2.1108662,46.005612 0,45.327854 0,44.499854 0,43.671856 1.6617608,43.000131 3.6,43.00013 z"
       inkscape:connector-curvature="0"
       id="path2881"
       style="fill:url(#radialGradient19616);fill-opacity:1;fill-rule:nonzero;stroke:none;stroke-width:1;marker:none;visibility:visible;display:inline;overflow:visible" />
    <path
       d="m 44.4,43.00013 c 0,0 0,2.999835 0,2.999835 1.489133,0.0056 3.6,-0.672111 3.6,-1.500111 0,-0.827998 -1.661761,-1.499723 -3.6,-1.499724 z"
       inkscape:connector-curvature="0"
       id="path2883"
       style="fill:url(#radialGradient19613);fill-opacity:1;fill-rule:nonzero;stroke:none;stroke-width:1;marker:none;visibility:visible;display:inline;overflow:visible" />
  </g>
  <path
     d="m 2,9.0000015 c 10.082633,0 43.999947,0.00223 43.999947,0.00223 L 46,44 C 46,44 16.666668,44 2,44 2,32.333334 2,20.666667 2,9 z"
     inkscape:connector-curvature="0"
     id="path4160"
     style="fill:url(#linearGradient3141);fill-opacity:1;stroke:none;display:inline" />
  <path
     d="m 45.499997,43.499999 -43.0000003,0 0,-34.0000001 43.0000003,0 z"
     inkscape:connector-curvature="0"
     id="rect6741-1"
     style="fill:none;stroke:url(#linearGradient3138);stroke-width:1;stroke-linecap:round;stroke-linejoin:round;stroke-miterlimit:4;stroke-opacity:1;stroke-dasharray:none;stroke-dashoffset:0" />
  <path
     style="fill:url(#linearGradient4002);fill-opacity:1;stroke:url(#linearGradient4004);stroke-width:1.0000006;stroke-linecap:round;stroke-linejoin:miter;stroke-miterlimit:4;stroke-opacity:1;stroke-dasharray:none"
     d="m 43.5,41.5 -39.0000023,0 2.3e-6,-30 38.999997,3e-6 z"
     id="rect3582-50-4"
     inkscape:connector-curvature="0"
     sodipodi:nodetypes="ccccc" />
  <path
     style="opacity:0.15;color:#000000;fill:#000000;fill-opacity:1;fill-rule:nonzero;stroke:none;stroke-width:1;marker:none;visibility:visible;display:inline;overflow:visible;enable-background:accumulate"
     d="m 21.6875,18.781 c -1.10678,0 -1.888465,0.83943 -2.34375,1.75 -0.337913,0.675827 -0.409712,1.56236 -0.5,2.4375 -0.751007,-0.46136 -1.505856,-0.920869 -2.25,-1.0625 -1.003306,-0.190956 -2.136322,-0.09759 -2.8125,0.78125 -0.678414,0.88175 -0.47991,1.990172 -0.03125,2.90625 0.345295,0.705027 1.013998,1.345621 1.6875,1.96875 -0.871512,0.340477 -1.72971,0.735851 -2.3125,1.28125 -0.746076,0.698208 -1.341751,1.654023 -1.03125,2.71875 0.31084,1.065887 1.341459,1.574026 2.34375,1.75 0.477858,0.0839 1.059399,-0.08817 1.59375,-0.125 -3.082752,3.472697 -5.346035,7.693197 -5.9375,8.84375 l 3.71875,0 c 0.735389,-1.458327 1.850184,-3.426939 3.1875,-5.375 0.235437,0.643794 0.606412,1.245359 1.3125,1.5 1.044884,0.376824 2.041755,-0.139946 2.78125,-0.84375 0.466438,-0.443926 0.775489,-1.168103 1.125,-1.8125 0.444876,0.584437 0.845318,1.256594 1.375,1.625 0.838375,0.583109 1.930415,0.940521 2.90625,0.40625 0.973452,-0.532966 1.231946,-1.64008 1.1875,-2.65625 -0.02588,-0.591785 -0.344053,-1.243627 -0.5625,-1.875 0.661569,0.05705 1.360592,0.212294 1.9375,0.09375 0.995554,-0.204568 2.001482,-0.740226 2.28125,-1.8125 C 31.623736,30.207892 31.018468,29.26098 30.25,28.5935 29.853071,28.248733 29.213506,28.068718 28.6875,27.81225 29.126582,27.422426 29.710095,27.096849 30,26.656 c 0.561314,-0.853573 0.867903,-1.913014 0.3125,-2.875 -0.555043,-0.961362 -1.639898,-1.221344 -2.65625,-1.15625 -0.947599,0.06069 -1.963409,0.453824 -2.96875,1 -0.02546,-1.160698 -0.226757,-2.234765 -0.65625,-3.09375 -0.455285,-0.91057 -1.23697,-1.75 -2.34375,-1.75 z m 0.0625,8.75 c 0.826217,0 1.46875,0.642533 1.46875,1.46875 0,0.826217 -0.642533,1.46875 -1.46875,1.46875 -0.826217,0 -1.46875,-0.642533 -1.46875,-1.46875 0,-0.826217 0.642533,-1.46875 1.46875,-1.46875 z"
     id="path3970"
     inkscape:connector-curvature="0" />
  <path
     style="opacity:0.3;color:#000000;fill:#000000;fill-opacity:1;fill-rule:nonzero;stroke:none;stroke-width:1;marker:none;visibility:visible;display:inline;overflow:visible;enable-background:accumulate"
     d="m 21.6875,19.81225 c -1.104569,0 -2,1.790861 -2,4 0,0.367568 0.01608,0.724414 0.0625,1.0625 C 19.512615,24.634914 19.287767,24.377406 19,24.156 c -1.750877,-1.347117 -3.732692,-1.719189 -4.40625,-0.84375 -0.673558,0.875439 0.217873,2.684133 1.96875,4.03125 0.332218,0.255607 0.662626,0.440862 1,0.625 -0.382183,0.04885 -0.783997,0.132328 -1.1875,0.25 -2.120797,0.618477 -3.590489,2.002101 -3.28125,3.0625 0.309239,1.060399 2.285453,1.399727 4.40625,0.78125 0.397649,-0.115964 0.78063,-0.244953 1.125,-0.40625 -0.08406,0.15303 -0.173926,0.303054 -0.25,0.46875 -3.327269,2.969573 -6.10917,7.954529 -7.125,9.90625 l 1.40625,0 c 0.942751,-2.099115 2.677501,-5.488343 5.25,-8.46875 -0.42128,1.752649 -0.148808,3.300857 0.75,3.625 1.039064,0.374725 2.50055,-1.015621 3.25,-3.09375 0.06741,-0.186924 0.104634,-0.378137 0.15625,-0.5625 0.08094,0.178367 0.152274,0.352756 0.25,0.53125 1.060905,1.937724 2.718638,3.092953 3.6875,2.5625 0.968862,-0.530453 0.873405,-2.531026 -0.1875,-4.46875 -0.06052,-0.110536 -0.123411,-0.207312 -0.1875,-0.3125 0.117529,0.03655 0.221908,0.06196 0.34375,0.09375 2.137579,0.557719 4.096141,0.16254 4.375,-0.90625 0.278859,-1.06879 -1.237421,-2.379781 -3.375,-2.9375 -0.03274,-0.0085 -0.0611,-0.02316 -0.09375,-0.03125 0.02882,-0.01617 0.06497,-0.01463 0.09375,-0.03125 1.91317,-1.104569 3.021035,-2.793415 2.46875,-3.75 -0.552285,-0.956585 -2.55558,-0.823319 -4.46875,0.28125 -0.612812,0.353807 -1.112429,0.759569 -1.53125,1.1875 0.158833,-0.573505 0.25,-1.235461 0.25,-1.9375 0,-2.209139 -0.895431,-4 -2,-4 z m 0.0625,6.6875 c 1.380712,0 2.5,1.119288 2.5,2.5 0,1.380712 -1.119288,2.5 -2.5,2.5 -1.380712,0 -2.5,-1.119288 -2.5,-2.5 0,-1.380712 1.119288,-2.5 2.5,-2.5 z"
     id="path4019-3"
     inkscape:connector-curvature="0" />
  <path
     d="m 21.6875,18.781 c -1.104569,0 -2,1.790861 -2,4 0,0.367568 0.01608,0.724414 0.0625,1.0625 C 19.512615,23.603664 19.287767,23.346156 19,23.12475 17.249123,21.777633 15.267308,21.405561 14.59375,22.281 c -0.673558,0.875439 0.217873,2.684133 1.96875,4.03125 0.332218,0.255607 0.662626,0.440862 1,0.625 -0.382183,0.04885 -0.783997,0.132328 -1.1875,0.25 -2.120797,0.618477 -3.590489,2.002101 -3.28125,3.0625 0.309239,1.060399 2.285453,1.399727 4.40625,0.78125 0.397649,-0.115964 0.78063,-0.244953 1.125,-0.40625 -0.08406,0.15303 -0.173926,0.303054 -0.25,0.46875 -4.167367,3.719357 -7.59375,10.84375 -7.59375,10.84375 l 1.4375,0.03125 c 0.780583,-1.873975 2.710992,-5.989023 5.6875,-9.4375 -0.42128,1.752649 -0.148808,3.300857 0.75,3.625 1.039064,0.374725 2.50055,-1.015621 3.25,-3.09375 0.06741,-0.186924 0.104634,-0.378137 0.15625,-0.5625 0.08094,0.178367 0.152274,0.352756 0.25,0.53125 1.060905,1.937724 2.718638,3.092953 3.6875,2.5625 0.968862,-0.530453 0.873405,-2.531026 -0.1875,-4.46875 -0.06052,-0.110536 -0.123411,-0.207312 -0.1875,-0.3125 0.117529,0.03655 0.221908,0.06196 0.34375,0.09375 2.137579,0.557719 4.096141,0.16254 4.375,-0.90625 0.278859,-1.06879 -1.237421,-2.379781 -3.375,-2.9375 -0.03274,-0.0085 -0.0611,-0.02316 -0.09375,-0.03125 0.02882,-0.01617 0.06497,-0.01463 0.09375,-0.03125 1.91317,-1.104569 3.021035,-2.793415 2.46875,-3.75 -0.552285,-0.956585 -2.55558,-0.823319 -4.46875,0.28125 -0.612812,0.353807 -1.112429,0.759569 -1.53125,1.1875 0.158833,-0.573505 0.25,-1.235461 0.25,-1.9375 0,-2.209139 -0.895431,-4 -2,-4 z m 0.0625,6.6875 c 1.380712,0 2.5,1.119288 2.5,2.5 0,1.380712 -1.119288,2.5 -2.5,2.5 -1.380712,0 -2.5,-1.119288 -2.5,-2.5 0,-1.380712 1.119288,-2.5 2.5,-2.5 z"
     inkscape:connector-curvature="0"
     id="path4019"
     style="fill:#d2d2d2;fill-opacity:1;stroke:none" />
  <path
     inkscape:connector-curvature="0"
     d="m 1.4999552,8.4999357 c 10.3117928,0 45.0000318,0.0025 45.0000318,0.0025 l 4.7e-5,35.9976273 c 0,0 -30.000052,0 -45.0000788,0 0,-12.000058 0,-23.999996 0,-35.9999143 z"
     id="path4160-6-1"
     style="fill:none;stroke:url(#linearGradient3144);stroke-width:0.9999218;stroke-linecap:butt;stroke-linejoin:round;stroke-miterlimit:4;stroke-opacity:1;stroke-dasharray:none;stroke-dashoffset:0;display:inline" />
</svg>
