<svg xmlns="http://www.w3.org/2000/svg" xmlns:xlink="http://www.w3.org/1999/xlink" height="48" width="48"><defs><linearGradient id="c"><stop offset="0" style="stop-color:#000;stop-opacity:.25"/><stop style="stop-color:#000;stop-opacity:.3" offset=".229"/><stop offset=".828" style="stop-color:#000;stop-opacity:.3"/><stop offset="1" style="stop-color:#000;stop-opacity:.5"/></linearGradient><linearGradient id="b"><stop offset="0" style="stop-color:#fff;stop-opacity:1"/><stop offset=".13" style="stop-color:#fff;stop-opacity:.23529412"/><stop offset=".922" style="stop-color:#fff;stop-opacity:.15686275"/><stop offset="1" style="stop-color:#fff;stop-opacity:.39215687"/></linearGradient><linearGradient id="a"><stop offset="0" style="stop-color:#a5a6a8;stop-opacity:1"/><stop offset="1" style="stop-color:#e8e8e8;stop-opacity:1"/></linearGradient><linearGradient id="d"><stop offset="0" style="stop-color:#868688;stop-opacity:1"/><stop offset="1" style="stop-color:#d9d9da;stop-opacity:1"/></linearGradient><linearGradient id="e"><stop offset="0" style="stop-color:#000;stop-opacity:1"/><stop offset="1" style="stop-color:#000;stop-opacity:0"/></linearGradient><linearGradient spreadMethod="reflect" gradientTransform="matrix(.71707 0 0 .68272 -50.535 39.23)" gradientUnits="userSpaceOnUse" xlink:href="#a" id="i" y2="-24.582" x2="102.308" y1="-2.393" x1="102.308"/><linearGradient gradientTransform="matrix(1 0 0 .52632 0 20.605)" gradientUnits="userSpaceOnUse" xlink:href="#b" id="j" y2="42.717" x2="21.381" y1="6.099" x1="21.381"/><linearGradient gradientTransform="matrix(1 0 0 .55 -46 20.025)" gradientUnits="userSpaceOnUse" y2="44.989" x2="70.371" y1="4.384" x1="70.371" id="h" xlink:href="#c"/><linearGradient gradientTransform="matrix(1 0 0 .52632 0 11.605)" gradientUnits="userSpaceOnUse" xlink:href="#b" id="m" y2="42.717" x2="21.381" y1="6.099" x1="21.381"/><linearGradient spreadMethod="reflect" gradientTransform="matrix(.71707 0 0 .68272 -50.535 30.23)" gradientUnits="userSpaceOnUse" xlink:href="#a" id="l" y2="-24.582" x2="102.308" y1="-2.393" x1="102.308"/><linearGradient gradientTransform="matrix(1 0 0 .55 -46 11.025)" gradientUnits="userSpaceOnUse" y2="44.989" x2="70.371" y1="4.384" x1="70.371" id="k" xlink:href="#c"/><linearGradient spreadMethod="reflect" gradientTransform="matrix(.71661 0 0 .37825 -50.508 21.003)" gradientUnits="userSpaceOnUse" xlink:href="#d" id="g" y2="-7.666" x2="89.424" y1="-7.666" x1="103.95"/><linearGradient gradientTransform="matrix(1 0 0 .55 -46 2.025)" gradientUnits="userSpaceOnUse" y2="44.989" x2="70.371" y1="4.384" x1="70.371" id="n" xlink:href="#c"/><linearGradient spreadMethod="reflect" gradientTransform="matrix(.71707 0 0 .68272 -50.535 21.23)" gradientUnits="userSpaceOnUse" xlink:href="#a" id="o" y2="-24.582" x2="102.308" y1="-2.393" x1="102.308"/><linearGradient gradientTransform="matrix(1 0 0 .52632 0 2.605)" gradientUnits="userSpaceOnUse" xlink:href="#b" id="p" y2="42.717" x2="21.381" y1="6.099" x1="21.381"/><radialGradient gradientTransform="matrix(.95165 0 0 .36555 1.794 24.507)" gradientUnits="userSpaceOnUse" xlink:href="#e" id="f" fy="41.636" fx="23.335" r="22.627" cy="41.636" cx="23.335"/></defs><rect ry="7.908" rx="18.5" y="-68" x="-107" height="219" width="321" style="color:#000;clip-rule:nonzero;display:inline;overflow:visible;visibility:visible;opacity:.6;isolation:auto;mix-blend-mode:normal;color-interpolation:sRGB;color-interpolation-filters:linearRGB;solid-color:#000;solid-opacity:1;fill:none;fill-opacity:1;fill-rule:nonzero;stroke:none;stroke-width:.99999988;stroke-linecap:butt;stroke-linejoin:miter;stroke-miterlimit:4;stroke-dasharray:none;stroke-dashoffset:0;stroke-opacity:1;marker:none;color-rendering:auto;image-rendering:auto;shape-rendering:auto;text-rendering:auto;enable-background:accumulate"/><path d="M45.534 39.727C45.536 44.296 35.894 48 24 48c-11.893 0-21.535-3.704-21.533-8.273-.002-4.568 9.64-8.272 21.533-8.272 11.894 0 21.536 3.704 21.534 8.272z" style="display:inline;overflow:visible;visibility:visible;opacity:.3;fill:url(#f);fill-opacity:1;fill-rule:evenodd;stroke:none;stroke-width:2;marker:none"/><rect width="36" height="21" rx="18" ry="7.436" x="6" y="23" style="color:#000;clip-rule:nonzero;display:inline;overflow:visible;visibility:visible;opacity:1;isolation:auto;mix-blend-mode:normal;color-interpolation:sRGB;color-interpolation-filters:linearRGB;solid-color:#000;solid-opacity:1;fill:url(#g);fill-opacity:1;fill-rule:nonzero;stroke:none;stroke-width:.99999988;stroke-linecap:butt;stroke-linejoin:miter;stroke-miterlimit:4;stroke-dasharray:none;stroke-dashoffset:0;stroke-opacity:1;marker:none;color-rendering:auto;image-rendering:auto;shape-rendering:auto;text-rendering:auto;enable-background:accumulate;filter-blend-mode:normal;filter-gaussianBlur-deviation:0"/><rect width="37" height="22" rx="18.5" ry="7.865" x="5.5" y="22.5" style="color:#000;display:inline;overflow:visible;visibility:visible;opacity:1;fill:none;stroke:url(#h);stroke-width:.99999994;stroke-opacity:1;marker:none;enable-background:accumulate"/><path d="M42 30c0 3.866-8.058 7-18 7-9.94 0-18-3.134-18-7s8.06-7 18-7c9.942 0 18 3.134 18 7z" style="fill:url(#i);fill-opacity:1;stroke:none;stroke-width:.99999988;stroke-miterlimit:4;stroke-dasharray:none;stroke-opacity:1"/><path d="M5.829 31.5c1.627 3.415 9.132 6 18.15 6 9.018 0 16.525-2.585 18.152-6" style="opacity:.6;fill:none;fill-opacity:1;stroke:#fff;stroke-width:.99999988;stroke-miterlimit:4;stroke-dasharray:none;stroke-opacity:1"/><rect width="35" height="20" rx="17.5" ry="7" x="6.5" y="23.5" style="color:#000;display:inline;overflow:visible;visibility:visible;opacity:.6;fill:none;stroke:url(#j);stroke-width:.99999994;stroke-opacity:1;marker:none;enable-background:accumulate"/><rect width="36" height="21" rx="18" ry="7.436" x="6" y="14" style="color:#000;clip-rule:nonzero;display:inline;overflow:visible;visibility:visible;opacity:1;isolation:auto;mix-blend-mode:normal;color-interpolation:sRGB;color-interpolation-filters:linearRGB;solid-color:#000;solid-opacity:1;fill:url(#g);fill-opacity:1;fill-rule:nonzero;stroke:none;stroke-width:.99999988;stroke-linecap:butt;stroke-linejoin:miter;stroke-miterlimit:4;stroke-dasharray:none;stroke-dashoffset:0;stroke-opacity:1;marker:none;color-rendering:auto;image-rendering:auto;shape-rendering:auto;text-rendering:auto;enable-background:accumulate;filter-blend-mode:normal;filter-gaussianBlur-deviation:0"/><rect width="37" height="22" rx="18.5" ry="7.865" x="5.5" y="13.5" style="color:#000;display:inline;overflow:visible;visibility:visible;opacity:1;fill:none;stroke:url(#k);stroke-width:.99999994;stroke-opacity:1;marker:none;enable-background:accumulate"/><path d="M42 21c0 3.866-8.058 7-18 7-9.94 0-18-3.134-18-7s8.06-7 18-7c9.942 0 18 3.134 18 7z" style="fill:url(#l);fill-opacity:1;stroke:none;stroke-width:.99999988;stroke-miterlimit:4;stroke-dasharray:none;stroke-opacity:1"/><path d="M5.829 22.5c1.627 3.415 9.132 6 18.15 6 9.018 0 16.525-2.585 18.152-6" style="opacity:.6;fill:none;fill-opacity:1;stroke:#fff;stroke-width:.99999988;stroke-miterlimit:4;stroke-dasharray:none;stroke-opacity:1"/><rect width="35" height="20" rx="17.5" ry="7" x="6.5" y="14.5" style="color:#000;display:inline;overflow:visible;visibility:visible;opacity:.6;fill:none;stroke:url(#m);stroke-width:.99999994;stroke-opacity:1;marker:none;enable-background:accumulate"/><rect width="36" height="21" rx="18" ry="7.436" x="6" y="5" style="color:#000;clip-rule:nonzero;display:inline;overflow:visible;visibility:visible;opacity:1;isolation:auto;mix-blend-mode:normal;color-interpolation:sRGB;color-interpolation-filters:linearRGB;solid-color:#000;solid-opacity:1;fill:url(#g);fill-opacity:1;fill-rule:nonzero;stroke:none;stroke-width:.99999988;stroke-linecap:butt;stroke-linejoin:miter;stroke-miterlimit:4;stroke-dasharray:none;stroke-dashoffset:0;stroke-opacity:1;marker:none;color-rendering:auto;image-rendering:auto;shape-rendering:auto;text-rendering:auto;enable-background:accumulate"/><rect width="37" height="22" rx="18.5" ry="7.865" x="5.5" y="4.5" style="color:#000;display:inline;overflow:visible;visibility:visible;opacity:1;fill:none;stroke:url(#n);stroke-width:.99999994;stroke-opacity:1;marker:none;enable-background:accumulate"/><path d="M42 12c0 3.866-8.058 7-18 7-9.94 0-18-3.134-18-7s8.06-7 18-7c9.942 0 18 3.134 18 7z" style="fill:url(#o);fill-opacity:1;stroke:none;stroke-width:.99999988;stroke-miterlimit:4;stroke-dasharray:none;stroke-opacity:1"/><path d="M5.829 13.5c1.627 3.415 9.132 6 18.15 6 9.018 0 16.525-2.585 18.152-6" style="opacity:.6;fill:none;fill-opacity:1;stroke:#fff;stroke-width:.99999988;stroke-miterlimit:4;stroke-dasharray:none;stroke-opacity:1"/><rect width="35" height="20" rx="17.5" ry="7" x="6.5" y="5.5" style="color:#000;display:inline;overflow:visible;visibility:visible;opacity:.6;fill:none;stroke:url(#p);stroke-width:.99999994;stroke-opacity:1;marker:none;enable-background:accumulate"/></svg>