<?xml version="1.0" encoding="UTF-8" standalone="no"?>
<!-- Created with Inkscape (http://www.inkscape.org/) -->

<svg
   xmlns:dc="http://purl.org/dc/elements/1.1/"
   xmlns:cc="http://creativecommons.org/ns#"
   xmlns:rdf="http://www.w3.org/1999/02/22-rdf-syntax-ns#"
   xmlns:svg="http://www.w3.org/2000/svg"
   xmlns="http://www.w3.org/2000/svg"
   xmlns:xlink="http://www.w3.org/1999/xlink"
   xmlns:inkscape="http://www.inkscape.org/namespaces/inkscape"
   version="1.1"
   width="48"
   height="48"
   id="svg4112">
  <defs
     id="defs4114">
    <linearGradient
       x1="23.99999"
       y1="5.5641499"
       x2="23.99999"
       y2="43"
       id="linearGradient3988"
       xlink:href="#linearGradient3977"
       gradientUnits="userSpaceOnUse"
       gradientTransform="matrix(0.89189189,0,0,1.1351351,2.5945999,-4.7432315)" />
    <linearGradient
       id="linearGradient3977">
      <stop
         id="stop3979"
         style="stop-color:#ffffff;stop-opacity:1"
         offset="0" />
      <stop
         id="stop3981"
         style="stop-color:#ffffff;stop-opacity:0.23529412"
         offset="0.03626217" />
      <stop
         id="stop3983"
         style="stop-color:#ffffff;stop-opacity:0.15686275"
         offset="0.95056331" />
      <stop
         id="stop3985"
         style="stop-color:#ffffff;stop-opacity:0.39215687"
         offset="1" />
    </linearGradient>
    <linearGradient
       x1="25.132275"
       y1="0.98520643"
       x2="25.132275"
       y2="47.013336"
       id="linearGradient3322"
       xlink:href="#linearGradient3600"
       gradientUnits="userSpaceOnUse"
       gradientTransform="matrix(1,0,0,0.9561695,-9.9999999e-8,-1.9149219)" />
    <linearGradient
       id="linearGradient3600">
      <stop
         id="stop3602"
         style="stop-color:#f4f4f4;stop-opacity:1"
         offset="0" />
      <stop
         id="stop3604"
         style="stop-color:#dbdbdb;stop-opacity:1"
         offset="1" />
    </linearGradient>
    <linearGradient
       x1="-51.786404"
       y1="50.786446"
       x2="-51.786404"
       y2="2.9062471"
       id="linearGradient3324"
       xlink:href="#linearGradient3104"
       gradientUnits="userSpaceOnUse"
       gradientTransform="matrix(0.8074968,0,0,0.8948322,59.410232,-2.9805532)" />
    <linearGradient
       id="linearGradient3104">
      <stop
         id="stop3106"
         style="stop-color:#a0a0a0;stop-opacity:1"
         offset="0" />
      <stop
         id="stop3108"
         style="stop-color:#bebebe;stop-opacity:1"
         offset="1" />
    </linearGradient>
    <radialGradient
       cx="605.71429"
       cy="486.64789"
       r="117.14286"
       fx="605.71429"
       fy="486.64789"
       id="radialGradient3327"
       xlink:href="#linearGradient5060"
       gradientUnits="userSpaceOnUse"
       gradientTransform="matrix(0.02303995,0,0,0.01470022,26.360882,37.040176)" />
    <linearGradient
       id="linearGradient5060">
      <stop
         id="stop5062"
         style="stop-color:#000000;stop-opacity:1"
         offset="0" />
      <stop
         id="stop5064"
         style="stop-color:#000000;stop-opacity:0"
         offset="1" />
    </linearGradient>
    <radialGradient
       cx="605.71429"
       cy="486.64789"
       r="117.14286"
       fx="605.71429"
       fy="486.64789"
       id="radialGradient3330"
       xlink:href="#linearGradient5060"
       gradientUnits="userSpaceOnUse"
       gradientTransform="matrix(-0.02303994,0,0,0.01470022,21.62311,37.040176)" />
    <linearGradient
       id="linearGradient5048">
      <stop
         id="stop5050"
         style="stop-color:#000000;stop-opacity:0"
         offset="0" />
      <stop
         id="stop5056"
         style="stop-color:#000000;stop-opacity:1"
         offset="0.5" />
      <stop
         id="stop5052"
         style="stop-color:#000000;stop-opacity:0"
         offset="1" />
    </linearGradient>
    <linearGradient
       x1="302.85715"
       y1="366.64789"
       x2="302.85715"
       y2="609.50507"
       id="linearGradient4110"
       xlink:href="#linearGradient5048"
       gradientUnits="userSpaceOnUse"
       gradientTransform="matrix(0.06732488,0,0,0.01470022,-0.3411391,37.040146)" />
    <linearGradient
       x1="22.104254"
       y1="40.124432"
       x2="22.104254"
       y2="10.035408"
       id="linearGradient2580"
       xlink:href="#linearGradient5031"
       gradientUnits="userSpaceOnUse"
       gradientTransform="matrix(0.6655579,0,0,1.4407893,4.5202523,-10.848874)" />
    <linearGradient
       id="linearGradient5031">
      <stop
         id="stop5033"
         style="stop-color:#a3a3a3;stop-opacity:1"
         offset="0" />
      <stop
         id="stop5035"
         style="stop-color:#bababa;stop-opacity:1"
         offset="1" />
    </linearGradient>
  </defs>
  <metadata
     id="metadata4117">
    <rdf:RDF>
      <cc:Work
         rdf:about="">
        <dc:format>image/svg+xml</dc:format>
        <dc:type
           rdf:resource="http://purl.org/dc/dcmitype/StillImage" />
        <dc:title />
      </cc:Work>
    </rdf:RDF>
  </metadata>
  <g
     id="layer1">
    <rect
       width="32.508301"
       height="3.5700529"
       x="7.7378473"
       y="42.429947"
       id="rect2879"
       style="opacity:0.3;fill:url(#linearGradient4110);fill-opacity:1;fill-rule:nonzero;stroke:none;stroke-width:1;marker:none;visibility:visible;display:inline;overflow:visible" />
    <path
       d="m 7.7378475,42.430102 c 0,0 0,3.569856 0,3.569856 -1.1865002,0.0067 -2.8683795,-0.799823 -2.8683795,-1.785158 0,-0.985333 1.3240446,-1.784697 2.8683795,-1.784698 z"
       inkscape:connector-curvature="0"
       id="path2881"
       style="opacity:0.3;fill:url(#radialGradient3330);fill-opacity:1;fill-rule:nonzero;stroke:none;stroke-width:1;marker:none;visibility:visible;display:inline;overflow:visible" />
    <path
       d="m 40.246148,42.430102 c 0,0 0,3.569856 0,3.569856 1.1865,0.0067 2.86838,-0.799823 2.86838,-1.785158 0,-0.985333 -1.324045,-1.784697 -2.86838,-1.784698 z"
       inkscape:connector-curvature="0"
       id="path2883"
       style="opacity:0.3;fill:url(#radialGradient3327);fill-opacity:1;fill-rule:nonzero;stroke:none;stroke-width:1;marker:none;visibility:visible;display:inline;overflow:visible" />
    <path
       d="M 6.4999609,0.49719893 C 14.520256,0.49719893 41.5,0.5 41.5,0.5 l 4.2e-5,44.002803 c 0,0 -23.333387,0 -35.0000811,0 0,-14.668535 0,-29.33707 0,-44.00560407 z"
       inkscape:connector-curvature="0"
       id="path4160"
       style="fill:url(#linearGradient3322);fill-opacity:1;stroke:url(#linearGradient3324);stroke-width:0.99992186;stroke-linecap:butt;stroke-linejoin:round;stroke-miterlimit:4;stroke-opacity:1;stroke-dasharray:none;stroke-dashoffset:0;display:inline" />
    <path
       d="m 40.5,43.5 -33,0 0,-41.9999999 33,0 z"
       inkscape:connector-curvature="0"
       id="rect6741-1"
       style="fill:none;stroke:url(#linearGradient3988);stroke-width:1;stroke-linecap:round;stroke-linejoin:round;stroke-miterlimit:4;stroke-opacity:1;stroke-dasharray:none;stroke-dashoffset:0" />
    <path
       d="m 11,7 0,1 2.375,0 0,-1 L 11,7 z m 2.6875,0 0,1 2.25,0 0,-1 -2.25,0 z m 2.5625,0 0,1 1.96875,0 0,-1 L 16.25,7 z m 2.28125,0 0,1 0.875,0 0,-1 -0.875,0 z m 1.1875,0 0,1 1.9375,0 0,-1 -1.9375,0 z M 22,7 l 0,1 5,0 0,-1 -5,0 z m -11,2 0,1 3.78125,0 0,-1 L 11,9 z m 4.15625,0 0,1 1.8125,0 0,-1 -1.8125,0 z m 2.15625,0 0,1 0.84375,0 0,-1 -0.84375,0 z m 1.21875,0 0,1 1.625,0 0,-1 -1.625,0 z m 2,0 0,1 1.625,0 0,-1 -1.625,0 z M 22.5,9 l 0,1 2.65625,0 0,-1 L 22.5,9 z m 3.03125,0 0,1 L 29,10 29,9 25.53125,9 z M 11,11 l 0,1 4.1875,0 0,-1 L 11,11 z m 4.5,0 0,1 4.5,0 0,-1 -4.5,0 z m -4.5,2 0,1 2.3125,0 0,-1 L 11,13 z m 2.625,0 0,1 2.15625,0 0,-1 -2.15625,0 z m 2.46875,0 0,1 1.90625,0 0,-1 -1.90625,0 z m 3.8125,5 0,1 1.90625,0 0,-1 -1.90625,0 z m 2.21875,0 0,1 1.90625,0 0,-1 -1.90625,0 z m 2.21875,0 0,1 2.75,0 0,-1 -2.75,0 z m 3.09375,0 0,1 0.5625,0 0,-1 -0.5625,0 z M 20,25 l 0,1 2.34375,0 0,-1 L 20,25 z m 2.65625,0 0,1 2.1875,0 0,-1 -2.1875,0 z m 2.5,0 0,1 L 27,26 27,25 25.15625,25 z M 20,27 l 0,1 1.875,0 0,-1 L 20,27 z m 2.1875,0 0,1 4.8125,0 0,-1 -4.8125,0 z m 5.125,0 0,1 3.6875,0 0,-1 -3.6875,0 z M 20,29 l 0,1 2.4375,0 0,-1 L 20,29 z m 2.78125,0 0,1 4.28125,0 0,-1 -4.28125,0 z m 4.59375,0 0,1 2.9375,0 0,-1 -2.9375,0 z M 20,31.125 l 0,0.96875 1.875,0 0,-0.96875 -1.875,0 z m 2.1875,0 0,0.96875 1.90625,0 0,-0.96875 -1.90625,0 z m 2.21875,0 0,0.96875 2.71875,0 0,-0.96875 -2.71875,0 z m 3.03125,0 0,0.96875 0.5625,0 0,-0.96875 -0.5625,0 z m 0.875,0 0,0.96875 3.53125,0 0,-0.96875 -3.53125,0 z m -8.375,6.875 0,1 2.4375,0 0,-1 -2.4375,0 z m 2.75,0 0,1 2.25,0 0,-1 -2.25,0 z m 2.59375,0 0,1 1.9375,0 0,-1 -1.9375,0 z m 2.25,0 0,1 3.09375,0 0,-1 -3.09375,0 z m 3.4375,0 0,1 5.03125,0 0,-1 -5.03125,0 z"
       inkscape:connector-curvature="0"
       id="path4149"
       style="fill:#89adc2;fill-opacity:1;stroke:none;display:inline" />
    <path
       d="m 11,16 0,1 3.0625,0 0,-1 L 11,16 z m 0,2 0,1 3.09375,0 0,-1 L 11,18 z"
       inkscape:connector-curvature="0"
       id="path4063"
       style="fill:#b78ed4;fill-opacity:1;stroke:none;display:inline" />
    <path
       d="m 14.40625,16 0,1 5.59375,0 0,-1 -5.59375,0 z m 0.03125,2 0,1 5.09375,0 0,-1 -5.09375,0 z m 1.1875,16 0,1 4.59375,0 0,-1 -4.59375,0 z m 4.9375,0 0,1 1.8125,0 0,-1 -1.8125,0 z m 2.15625,0 0,1 4.3125,0 0,-1 -4.3125,0 z m 4.65625,0 0,1 2.96875,0 0,-1 -2.96875,0 z m 3.28125,0 0,1 1.15625,0 0,-1 -1.15625,0 z m 1.5,0 0,1 0.6875,0 0,-1 -0.6875,0 z m 1,0 0,1 1.84375,0 0,-1 -1.84375,0 z m -16.03125,2 0,1 0.8125,0 0,-1 -0.8125,0 z m 1.03125,0 0,1 1.625,0 0,-1 -1.625,0 z m 1.875,0 0,1 1.625,0 0,-1 -1.625,0 z m 2.125,0 0,1 2.59375,0 0,-1 -2.59375,0 z m 2.90625,0 0,1 3.375,0 0,-1 -3.375,0 z m 3.84375,0 0,1 2.28125,0 0,-1 -2.28125,0 z m 2.5625,0 0,1 0.53125,0 0,-1 -0.53125,0 z"
       inkscape:connector-curvature="0"
       id="path4061"
       style="fill:#d48eb3;fill-opacity:1;stroke:none;display:inline" />
    <path
       d="m 11,38 3.036746,0 0,1 L 11,39 11,38 z"
       inkscape:connector-curvature="0"
       id="path4009"
       style="fill:#de6161;fill-opacity:1;stroke:none;display:inline" />
    <path
       d="m 13.75,21 0,1 2.25,0 0,-1 -2.25,0 z m -2.75,2 0,1 1,0 0,-1 -1,0 z m 3.15625,2 0,1 1.84375,0 0,-1 -1.84375,0 z m 0.125,2 0,1 2.71875,0 0,-1 -2.71875,0 z m -0.34375,2 0,1 2.0625,0 0,-1 -2.0625,0 z m -0.375,2.15625 0,0.96875 2.125,0 0,-0.96875 -2.125,0 z M 11,34 l 0,1 4.28125,0 0,-1 L 11,34 z m 0,2 0,1 3.6875,0 0,-1 L 11,36 z m 3.96875,0 0,1 1.78125,0 0,-1 -1.78125,0 z m -0.625,2 0,1 3.34375,0 0,-1 -3.34375,0 z"
       inkscape:connector-curvature="0"
       id="path4007"
       style="fill:url(#linearGradient2580);fill-opacity:1;stroke:none;display:inline" />
    <path
       d="m 11,21 0,1 2.34375,0 0,-1 L 11,21 z m 0,4 0,1 2.75,0 0,-1 -2.75,0 z m 0,2 0,1 2.9375,0 0,-1 L 11,27 z m 0,2 0,1 2.53125,0 0,-1 L 11,29 z m 0,2.15625 0,0.96875 2.21875,0 0,-0.96875 -2.21875,0 z"
       inkscape:connector-curvature="0"
       id="path5302"
       style="fill:#94d48e;fill-opacity:1;stroke:none;display:inline" />
  </g>
</svg>
