<?xml version="1.0" encoding="UTF-8" standalone="no"?>
<!-- Created with Inkscape (http://www.inkscape.org/) -->

<svg
   xmlns:dc="http://purl.org/dc/elements/1.1/"
   xmlns:cc="http://creativecommons.org/ns#"
   xmlns:rdf="http://www.w3.org/1999/02/22-rdf-syntax-ns#"
   xmlns:svg="http://www.w3.org/2000/svg"
   xmlns="http://www.w3.org/2000/svg"
   xmlns:xlink="http://www.w3.org/1999/xlink"
   xmlns:inkscape="http://www.inkscape.org/namespaces/inkscape"
   version="1.1"
   width="48"
   height="48"
   id="svg4277">
  <defs
     id="defs4279">
    <linearGradient
       x1="-10.106312"
       y1="15.035473"
       x2="-10.106312"
       y2="37.037334"
       id="linearGradient4596-3"
       xlink:href="#linearGradient4141"
       gradientUnits="userSpaceOnUse"
       gradientTransform="translate(34.97324,-3.6069009)" />
    <linearGradient
       id="linearGradient4141">
      <stop
         id="stop4143"
         style="stop-color:#ffffff;stop-opacity:1"
         offset="0" />
      <stop
         id="stop4145"
         style="stop-color:#ffffff;stop-opacity:0.23529412"
         offset="0.05959737" />
      <stop
         id="stop4147"
         style="stop-color:#ffffff;stop-opacity:0.15686275"
         offset="0.85599428" />
      <stop
         id="stop4149"
         style="stop-color:#ffffff;stop-opacity:0.39215687"
         offset="1" />
    </linearGradient>
    <radialGradient
       cx="11.227573"
       cy="10.190869"
       r="12.671875"
       fx="10.697345"
       fy="10.190869"
       id="radialGradient4706-3"
       xlink:href="#linearGradient3671-580"
       gradientUnits="userSpaceOnUse"
       gradientTransform="matrix(-1.14502e-7,4.6979873,-4.9480335,-1.161633e-7,74.944597,-41.683555)" />
    <linearGradient
       id="linearGradient3671-580">
      <stop
         id="stop4088"
         style="stop-color:#fc93dc;stop-opacity:1"
         offset="0" />
      <stop
         id="stop4090"
         style="stop-color:#da72d3;stop-opacity:1"
         offset="0.26238" />
      <stop
         id="stop4092"
         style="stop-color:#a33fab;stop-opacity:1"
         offset="0.704952" />
      <stop
         id="stop4094"
         style="stop-color:#502b58;stop-opacity:1"
         offset="1" />
    </linearGradient>
    <linearGradient
       x1="25"
       y1="73.14209"
       x2="25"
       y2="12.114751"
       id="linearGradient4708-5"
       xlink:href="#linearGradient3707-662"
       gradientUnits="userSpaceOnUse"
       gradientTransform="matrix(1.0034141,0,0,1.0034141,2.1311598,-2.3150455)" />
    <linearGradient
       id="linearGradient3707-662">
      <stop
         id="stop4098"
         style="stop-color:#542f57;stop-opacity:1"
         offset="0" />
      <stop
         id="stop4100"
         style="stop-color:#bb5ca4;stop-opacity:1"
         offset="1" />
    </linearGradient>
    <linearGradient
       x1="29.465117"
       y1="12.865696"
       x2="29.465117"
       y2="41.030037"
       id="linearGradient4467-5"
       xlink:href="#linearGradient3977-0-2"
       gradientUnits="userSpaceOnUse"
       gradientTransform="translate(4.1160985,-3.6069009)" />
    <linearGradient
       id="linearGradient3977-0-2">
      <stop
         id="stop3979-5-6"
         style="stop-color:#ffffff;stop-opacity:1"
         offset="0" />
      <stop
         id="stop3981-7-1"
         style="stop-color:#ffffff;stop-opacity:0.23529412"
         offset="0.03626217" />
      <stop
         id="stop3983-6-1"
         style="stop-color:#ffffff;stop-opacity:0.15686275"
         offset="0.95056331" />
      <stop
         id="stop3985-4-7"
         style="stop-color:#ffffff;stop-opacity:0.39215687"
         offset="1" />
    </linearGradient>
    <linearGradient
       x1="23.748692"
       y1="44.758724"
       x2="23.748692"
       y2="0.49759647"
       id="linearGradient3797"
       xlink:href="#linearGradient5031"
       gradientUnits="userSpaceOnUse" />
    <linearGradient
       id="linearGradient5031">
      <stop
         id="stop5033"
         style="stop-color:#a3a3a3;stop-opacity:1"
         offset="0" />
      <stop
         id="stop5035"
         style="stop-color:#bababa;stop-opacity:1"
         offset="1" />
    </linearGradient>
    <linearGradient
       x1="23.99999"
       y1="5.5641499"
       x2="23.99999"
       y2="43"
       id="linearGradient3988"
       xlink:href="#linearGradient3977"
       gradientUnits="userSpaceOnUse"
       gradientTransform="matrix(0.89189189,0,0,1.1351351,2.5945999,-4.7432314)" />
    <linearGradient
       id="linearGradient3977">
      <stop
         id="stop3979"
         style="stop-color:#ffffff;stop-opacity:1"
         offset="0" />
      <stop
         id="stop3981"
         style="stop-color:#ffffff;stop-opacity:0.23529412"
         offset="0.03626217" />
      <stop
         id="stop3983"
         style="stop-color:#ffffff;stop-opacity:0.15686275"
         offset="0.95056331" />
      <stop
         id="stop3985"
         style="stop-color:#ffffff;stop-opacity:0.39215687"
         offset="1" />
    </linearGradient>
    <linearGradient
       x1="25.132275"
       y1="0.98520643"
       x2="25.132275"
       y2="47.013336"
       id="linearGradient3322"
       xlink:href="#linearGradient3600"
       gradientUnits="userSpaceOnUse"
       gradientTransform="matrix(1,0,0,0.9561695,-9.9999999e-8,-1.9149218)" />
    <linearGradient
       id="linearGradient3600">
      <stop
         id="stop3602"
         style="stop-color:#f4f4f4;stop-opacity:1"
         offset="0" />
      <stop
         id="stop3604"
         style="stop-color:#dbdbdb;stop-opacity:1"
         offset="1" />
    </linearGradient>
    <linearGradient
       x1="-51.786404"
       y1="50.786446"
       x2="-51.786404"
       y2="2.9062471"
       id="linearGradient3324"
       xlink:href="#linearGradient3104"
       gradientUnits="userSpaceOnUse"
       gradientTransform="matrix(0.8074968,0,0,0.8948322,59.410232,-2.9805531)" />
    <linearGradient
       id="linearGradient3104">
      <stop
         id="stop3106"
         style="stop-color:#a0a0a0;stop-opacity:1"
         offset="0" />
      <stop
         id="stop3108"
         style="stop-color:#bebebe;stop-opacity:1"
         offset="1" />
    </linearGradient>
    <radialGradient
       cx="605.71429"
       cy="486.64789"
       r="117.14286"
       fx="605.71429"
       fy="486.64789"
       id="radialGradient3327"
       xlink:href="#linearGradient5060"
       gradientUnits="userSpaceOnUse"
       gradientTransform="matrix(0.02303995,0,0,0.01470022,26.360882,37.040176)" />
    <linearGradient
       id="linearGradient5060">
      <stop
         id="stop5062"
         style="stop-color:#000000;stop-opacity:1"
         offset="0" />
      <stop
         id="stop5064"
         style="stop-color:#000000;stop-opacity:0"
         offset="1" />
    </linearGradient>
    <radialGradient
       cx="605.71429"
       cy="486.64789"
       r="117.14286"
       fx="605.71429"
       fy="486.64789"
       id="radialGradient3330"
       xlink:href="#linearGradient5060"
       gradientUnits="userSpaceOnUse"
       gradientTransform="matrix(-0.02303994,0,0,0.01470022,21.62311,37.040176)" />
    <linearGradient
       id="linearGradient5048">
      <stop
         id="stop5050"
         style="stop-color:#000000;stop-opacity:0"
         offset="0" />
      <stop
         id="stop5056"
         style="stop-color:#000000;stop-opacity:1"
         offset="0.5" />
      <stop
         id="stop5052"
         style="stop-color:#000000;stop-opacity:0"
         offset="1" />
    </linearGradient>
    <linearGradient
       x1="302.85715"
       y1="366.64789"
       x2="302.85715"
       y2="609.50507"
       id="linearGradient4271"
       xlink:href="#linearGradient5048"
       gradientUnits="userSpaceOnUse"
       gradientTransform="matrix(0.06732488,0,0,0.01470022,-0.3411391,37.040146)" />
    <radialGradient
       cx="11.227573"
       cy="10.190869"
       r="12.671875"
       fx="10.697345"
       fy="10.190869"
       id="radialGradient4273"
       xlink:href="#linearGradient3671-580"
       gradientUnits="userSpaceOnUse"
       gradientTransform="matrix(-1.14502e-7,4.6979873,-4.9480335,-1.161633e-7,74.944597,-41.683555)" />
    <linearGradient
       x1="25"
       y1="73.14209"
       x2="25"
       y2="12.114751"
       id="linearGradient4275"
       xlink:href="#linearGradient3707-662"
       gradientUnits="userSpaceOnUse"
       gradientTransform="matrix(1.0034141,0,0,1.0034141,2.1311598,-2.3150455)" />
    <radialGradient
       cx="11.227573"
       cy="10.190869"
       r="12.671875"
       fx="10.697345"
       fy="10.190869"
       id="radialGradient3813"
       xlink:href="#linearGradient3671-580"
       gradientUnits="userSpaceOnUse"
       gradientTransform="matrix(-1.1411241e-7,4.7140267,-4.9311978,-1.1655989e-7,74.689597,-41.825867)" />
    <linearGradient
       x1="25"
       y1="73.14209"
       x2="25"
       y2="12.114751"
       id="linearGradient3815"
       xlink:href="#linearGradient3707-662"
       gradientUnits="userSpaceOnUse"
       gradientTransform="matrix(0.99999997,0,0,1.0068399,2.1239085,-2.3229493)" />
    <radialGradient
       cx="11.227573"
       cy="10.190869"
       r="12.671875"
       fx="10.697345"
       fy="10.190869"
       id="radialGradient3842"
       xlink:href="#linearGradient3671-580"
       gradientUnits="userSpaceOnUse"
       gradientTransform="matrix(0,3.6779651,-3.8474058,0,63.644813,-30.193411)" />
  </defs>
  <metadata
     id="metadata4282">
    <rdf:RDF>
      <cc:Work
         rdf:about="">
        <dc:format>image/svg+xml</dc:format>
        <dc:type
           rdf:resource="http://purl.org/dc/dcmitype/StillImage" />
        <dc:title />
      </cc:Work>
    </rdf:RDF>
  </metadata>
  <g
     id="layer1">
    <rect
       width="32.508301"
       height="3.5700529"
       x="7.7378473"
       y="42.429947"
       id="rect2879"
       style="opacity:0.3;fill:url(#linearGradient4271);fill-opacity:1;fill-rule:nonzero;stroke:none;stroke-width:1;marker:none;visibility:visible;display:inline;overflow:visible" />
    <path
       d="m 7.7378475,42.430102 c 0,0 0,3.569856 0,3.569856 -1.1865002,0.0067 -2.8683795,-0.799823 -2.8683795,-1.785158 0,-0.985333 1.3240446,-1.784697 2.8683795,-1.784698 z"
       inkscape:connector-curvature="0"
       id="path2881"
       style="opacity:0.3;fill:url(#radialGradient3330);fill-opacity:1;fill-rule:nonzero;stroke:none;stroke-width:1;marker:none;visibility:visible;display:inline;overflow:visible" />
    <path
       d="m 40.246148,42.430102 c 0,0 0,3.569856 0,3.569856 1.1865,0.0067 2.86838,-0.799823 2.86838,-1.785158 0,-0.985333 -1.324045,-1.784697 -2.86838,-1.784698 z"
       inkscape:connector-curvature="0"
       id="path2883"
       style="opacity:0.3;fill:url(#radialGradient3327);fill-opacity:1;fill-rule:nonzero;stroke:none;stroke-width:1;marker:none;visibility:visible;display:inline;overflow:visible" />
    <path
       d="M 6.4999609,0.497199 C 14.520256,0.497199 41.5,0.5 41.5,0.5 l 4.2e-5,44.002803 c 0,0 -23.333387,0 -35.0000811,0 0,-14.668535 0,-29.33707 0,-44.00560407 z"
       inkscape:connector-curvature="0"
       id="path4160"
       style="fill:url(#linearGradient3322);fill-opacity:1;stroke:url(#linearGradient3324);stroke-width:0.99992186;stroke-linecap:butt;stroke-linejoin:round;stroke-miterlimit:4;stroke-opacity:1;stroke-dasharray:none;stroke-dashoffset:0;display:inline" />
    <path
       d="m 40.5,43.5 -33,0 0,-41.9999998 33,0 z"
       inkscape:connector-curvature="0"
       id="rect6741-1"
       style="fill:none;stroke:url(#linearGradient3988);stroke-width:1;stroke-linecap:round;stroke-linejoin:round;stroke-miterlimit:4;stroke-opacity:1;stroke-dasharray:none;stroke-dashoffset:0" />
    <path
       d="m 11,21 0,1 2.34375,0 0,-1 L 11,21 z m 0,4 0,1 2.75,0 0,-1 -2.75,0 z m 0,2 0,1 2.9375,0 0,-1 L 11,27 z m 0,2 0,1 2.53125,0 0,-1 L 11,29 z m 0,2.15625 0,0.96875 2.21875,0 0,-0.96875 -2.21875,0 z M 13.75,21 l 0,1 2.25,0 0,-1 -2.25,0 z m -2.75,2 0,1 1,0 0,-1 -1,0 z m 3.15625,2 0,1 1.84375,0 0,-1 -1.84375,0 z m 0.125,2 0,1 2.71875,0 0,-1 -2.71875,0 z m -0.34375,2 0,1 2.0625,0 0,-1 -2.0625,0 z m -0.375,2.15625 0,0.96875 2.125,0 0,-0.96875 -2.125,0 z M 11,34 l 0,1 4.28125,0 0,-1 L 11,34 z m 0,2 0,1 3.6875,0 0,-1 L 11,36 z m 3.96875,0 0,1 1.78125,0 0,-1 -1.78125,0 z m -0.625,2 0,1 3.34375,0 0,-1 -3.34375,0 z M 11,38 l 3.036746,0 0,1 L 11,39 11,38 z m 3.40625,-22 0,1 5.59375,0 0,-1 -5.59375,0 z m 0.03125,2 0,1 5.09375,0 0,-1 -5.09375,0 z m 1.1875,16 0,1 4.59375,0 0,-1 -4.59375,0 z m 4.9375,0 0,1 1.8125,0 0,-1 -1.8125,0 z m 2.15625,0 0,1 4.3125,0 0,-1 -4.3125,0 z m 4.65625,0 0,1 2.96875,0 0,-1 -2.96875,0 z m 3.28125,0 0,1 1.15625,0 0,-1 -1.15625,0 z m 1.5,0 0,1 0.6875,0 0,-1 -0.6875,0 z m 1,0 0,1 1.84375,0 0,-1 -1.84375,0 z m -16.03125,2 0,1 0.8125,0 0,-1 -0.8125,0 z m 1.03125,0 0,1 1.625,0 0,-1 -1.625,0 z m 1.875,0 0,1 1.625,0 0,-1 -1.625,0 z m 2.125,0 0,1 2.59375,0 0,-1 -2.59375,0 z m 2.90625,0 0,1 3.375,0 0,-1 -3.375,0 z m 3.84375,0 0,1 2.28125,0 0,-1 -2.28125,0 z m 2.5625,0 0,1 L 32,37 32,36 31.46875,36 z M 11,16 l 0,1 3.0625,0 0,-1 L 11,16 z m 0,2 0,1 3.09375,0 0,-1 L 11,18 z m 0,-10.9999999 0,1 2.375,0 0,-1 -2.375,0 z m 2.6875,0 0,1 2.25,0 0,-1 -2.25,0 z m 2.5625,0 0,1 1.96875,0 0,-1 -1.96875,0 z m 2.28125,0 0,1 0.875,0 0,-1 -0.875,0 z m 1.1875,0 0,1 1.9375,0 0,-1 -1.9375,0 z m 2.28125,0 0,1 5,0 0,-1 -5,0 z m -11,2 L 11,10 l 3.78125,0 0,-0.9999999 -3.78125,0 z m 4.15625,0 0,0.9999999 1.8125,0 0,-0.9999999 -1.8125,0 z m 2.15625,0 0,0.9999999 0.84375,0 0,-0.9999999 -0.84375,0 z m 1.21875,0 0,0.9999999 1.625,0 0,-0.9999999 -1.625,0 z m 2,0 0,0.9999999 1.625,0 0,-0.9999999 -1.625,0 z m 1.96875,0 0,0.9999999 2.65625,0 0,-0.9999999 -2.65625,0 z m 3.03125,0 0,0.9999999 3.46875,0 0,-0.9999999 -3.46875,0 z M 11,11 l 0,1 4.1875,0 0,-1 L 11,11 z m 4.5,0 0,1 4.5,0 0,-1 -4.5,0 z m -4.5,2 0,1 2.3125,0 0,-1 L 11,13 z m 2.625,0 0,1 2.15625,0 0,-1 -2.15625,0 z m 2.46875,0 0,1 1.90625,0 0,-1 -1.90625,0 z m 3.8125,5 0,1 1.90625,0 0,-1 -1.90625,0 z m 2.21875,0 0,1 1.90625,0 0,-1 -1.90625,0 z m 2.21875,0 0,1 2.75,0 0,-1 -2.75,0 z m 3.09375,0 0,1 0.5625,0 0,-1 -0.5625,0 z M 20,25 l 0,1 2.34375,0 0,-1 L 20,25 z m 2.65625,0 0,1 2.1875,0 0,-1 -2.1875,0 z m 2.5,0 0,1 L 27,26 27,25 25.15625,25 z M 20,27 l 0,1 1.875,0 0,-1 L 20,27 z m 2.1875,0 0,1 4.8125,0 0,-1 -4.8125,0 z m 5.125,0 0,1 3.6875,0 0,-1 -3.6875,0 z M 20,29 l 0,1 2.4375,0 0,-1 L 20,29 z m 2.78125,0 0,1 4.28125,0 0,-1 -4.28125,0 z m 4.59375,0 0,1 2.9375,0 0,-1 -2.9375,0 z M 20,31.125 l 0,0.96875 1.875,0 0,-0.96875 -1.875,0 z m 2.1875,0 0,0.96875 1.90625,0 0,-0.96875 -1.90625,0 z m 2.21875,0 0,0.96875 2.71875,0 0,-0.96875 -2.71875,0 z m 3.03125,0 0,0.96875 0.5625,0 0,-0.96875 -0.5625,0 z m 0.875,0 0,0.96875 3.53125,0 0,-0.96875 -3.53125,0 z m -8.375,6.875 0,1 2.4375,0 0,-1 -2.4375,0 z m 2.75,0 0,1 2.25,0 0,-1 -2.25,0 z m 2.59375,0 0,1 1.9375,0 0,-1 -1.9375,0 z m 2.25,0 0,1 3.09375,0 0,-1 -3.09375,0 z m 3.4375,0 0,1 5.03125,0 0,-1 -5.03125,0 z"
       inkscape:connector-curvature="0"
       id="path5302"
       style="fill:url(#linearGradient3797);fill-opacity:1;stroke:none;display:inline" />
    <path
       d="m 16.53125,9.5625001 0,21.1562499 c -3e-6,0.745207 -0.146044,1.405727 -0.375,1.96875 l 0.03125,0 c -0.0053,0.01356 -0.02582,0.01774 -0.03125,0.03125 -0.212909,0.529768 -0.516413,1.032952 -0.96875,1.40625 -0.01075,0.0093 -0.02039,0.02213 -0.03125,0.03125 -0.423641,0.355466 -0.944019,0.587564 -1.46875,0.71875 -0.506804,0.129941 -1.039912,0.187498 -1.59375,0.1875 -0.542933,0 -1.054787,-0.02228 -1.53125,-0.09375 -0.01053,-0.0015 -0.02074,0.0016 -0.03125,0 l 0,1.9375 c 0.141992,0.02453 0.249998,0.04337 0.40625,0.0625 a 1.0305145,1.0305145 0 0 1 0.03125,0 c 0.432697,0.06181 0.937794,0.09374 1.59375,0.09375 l 0.25,0 c 1.058406,-6e-6 2.010407,-0.149843 2.84375,-0.40625 0.816097,-0.251112 1.502811,-0.608372 2.0625,-1.125 a 1.0305145,1.0305145 0 0 1 0,-0.03125 c 0.560656,-0.5012 0.988708,-1.119043 1.3125,-1.9375 0.320743,-0.788872 0.5,-1.780187 0.5,-3 l 0,-20.9999999 -3,0 z"
       inkscape:connector-curvature="0"
       id="path4592"
       style="opacity:0.5;color:#000000;fill:none;stroke:url(#linearGradient4467-5);stroke-width:1;stroke-linecap:butt;stroke-linejoin:round;stroke-miterlimit:4;stroke-opacity:1;stroke-dashoffset:0;marker:none;visibility:visible;display:inline;overflow:visible;enable-background:accumulate" />
    <path
       d="m 28.86719,10.499997 4.890626,0 -7.125001,22.999999 -5.28125,0 -7.109376,-22.999999 4.890626,0 3.875,13.844049 c 0.05207,0.178303 0.119782,0.477209 0.203125,0.896716 0.09374,0.419525 0.187491,0.880993 0.28125,1.384406 0.104157,0.503426 0.203115,1.006845 0.296875,1.510259 0.09374,0.503425 0.166657,0.928185 0.21875,1.274282 0.05207,-0.346097 0.124991,-0.770857 0.21875,-1.274282 0.09374,-0.503414 0.192699,-1.00159 0.296875,-1.494528 0.104156,-0.503413 0.203114,-0.96488 0.296875,-1.384404 0.104156,-0.419509 0.182281,-0.723657 0.234375,-0.912449 l 3.8125,-13.844049"
       inkscape:connector-curvature="0"
       id="path4163"
       style="font-size:32.10925293px;font-style:normal;font-variant:normal;font-weight:bold;font-stretch:normal;line-height:125%;letter-spacing:0px;word-spacing:0px;color:#000000;fill:url(#radialGradient3842);fill-opacity:1;fill-rule:nonzero;stroke:url(#linearGradient3815);stroke-width:1;stroke-linecap:butt;stroke-linejoin:round;stroke-miterlimit:4;stroke-opacity:1;stroke-dashoffset:0;marker:none;visibility:visible;font-family:Droid Sans;-inkscape-font-specification:Droid Sans Bold" />
    <path
       d="M 15.4375,11.9375 22,33.0625 l 3.96875,0 6.59375,-21.125 -3.03125,0 -3.625,13.09375 a 0.87580777,0.87580777 0 0 1 0,0.03125 c -0.05128,0.184582 -0.153083,0.48973 -0.25,0.875 -0.0019,0.0085 0.0019,0.02266 0,0.03125 -0.08586,0.385207 -0.176655,0.84165 -0.28125,1.34375 -0.107174,0.503676 -0.192654,0.964943 -0.28125,1.4375 -0.09186,0.489891 -0.168327,0.917153 -0.21875,1.25 a 0.87580777,0.87580777 0 0 1 -1.75,0 c -0.05045,-0.332885 -0.126902,-0.760089 -0.21875,-1.25 -0.09593,-0.511553 -0.150595,-0.991555 -0.25,-1.46875 A 0.87580777,0.87580777 0 0 1 22.625,27.25 c -0.09214,-0.491342 -0.159,-0.939259 -0.25,-1.34375 a 0.87580777,0.87580777 0 0 1 0,-0.03125 c -0.07784,-0.389146 -0.174002,-0.660325 -0.21875,-0.8125 l -3.6875,-13.125 -3.03125,0 z"
       inkscape:connector-curvature="0"
       transform="matrix(1,0,0,0.99408284,0,-0.36686393)"
       id="path4096"
       style="font-size:32px;font-style:normal;font-variant:normal;font-weight:bold;font-stretch:normal;line-height:125%;letter-spacing:0px;word-spacing:0px;opacity:0.5;color:#000000;fill:none;stroke:url(#linearGradient4596-3);stroke-width:1.00297177;stroke-linecap:butt;stroke-linejoin:round;stroke-miterlimit:4;stroke-opacity:1;stroke-dasharray:none;stroke-dashoffset:0;marker:none;visibility:visible;display:inline;overflow:visible;enable-background:accumulate;font-family:Droid Sans;-inkscape-font-specification:Droid Sans Bold" />
  </g>
</svg>
