<?xml version="1.0" encoding="UTF-8" standalone="no"?>
<!-- Created with Inkscape (http://www.inkscape.org/) -->

<svg
   xmlns:dc="http://purl.org/dc/elements/1.1/"
   xmlns:cc="http://creativecommons.org/ns#"
   xmlns:rdf="http://www.w3.org/1999/02/22-rdf-syntax-ns#"
   xmlns:svg="http://www.w3.org/2000/svg"
   xmlns="http://www.w3.org/2000/svg"
   xmlns:xlink="http://www.w3.org/1999/xlink"
   xmlns:inkscape="http://www.inkscape.org/namespaces/inkscape"
   version="1.1"
   width="48"
   height="48"
   id="svg4480">
  <defs
     id="defs4482">
    <linearGradient
       x1="49.883904"
       y1="20.606901"
       x2="49.883904"
       y2="41.606899"
       id="linearGradient4326"
       xlink:href="#linearGradient4328"
       gradientUnits="userSpaceOnUse"
       gradientTransform="translate(-15.883902,-1.6069009)" />
    <linearGradient
       id="linearGradient4328">
      <stop
         id="stop4330"
         style="stop-color:#ffffff;stop-opacity:1"
         offset="0" />
      <stop
         id="stop4332"
         style="stop-color:#ffffff;stop-opacity:0.23529412"
         offset="0.03626217" />
      <stop
         id="stop4334"
         style="stop-color:#ffffff;stop-opacity:0.15686275"
         offset="0.66666669" />
      <stop
         id="stop4336"
         style="stop-color:#ffffff;stop-opacity:0.39215687"
         offset="1" />
    </linearGradient>
    <linearGradient
       x1="33.715347"
       y1="26.954983"
       x2="33.715347"
       y2="14.147835"
       id="linearGradient4352"
       xlink:href="#linearGradient4354"
       gradientUnits="userSpaceOnUse"
       gradientTransform="translate(-15.883902,-1.6069009)" />
    <linearGradient
       id="linearGradient4354">
      <stop
         id="stop4356"
         style="stop-color:#ffffff;stop-opacity:1"
         offset="0" />
      <stop
         id="stop4358"
         style="stop-color:#ffffff;stop-opacity:0.23529412"
         offset="0.38322371" />
      <stop
         id="stop4360"
         style="stop-color:#ffffff;stop-opacity:0.15686275"
         offset="0.95056331" />
      <stop
         id="stop4362"
         style="stop-color:#ffffff;stop-opacity:0.39215687"
         offset="1" />
    </linearGradient>
    <linearGradient
       x1="29.465117"
       y1="13.120115"
       x2="29.465117"
       y2="35.641857"
       id="linearGradient4338"
       xlink:href="#linearGradient4340"
       gradientUnits="userSpaceOnUse"
       gradientTransform="translate(-15.883902,-1.6069009)" />
    <linearGradient
       id="linearGradient4340">
      <stop
         id="stop4342"
         style="stop-color:#ffffff;stop-opacity:1"
         offset="0" />
      <stop
         id="stop4344"
         style="stop-color:#ffffff;stop-opacity:0.23529412"
         offset="0.27889803" />
      <stop
         id="stop4346"
         style="stop-color:#ffffff;stop-opacity:0.15686275"
         offset="0.95056331" />
      <stop
         id="stop4348"
         style="stop-color:#ffffff;stop-opacity:0.39215687"
         offset="1" />
    </linearGradient>
    <radialGradient
       cx="9.9660025"
       cy="23.403069"
       r="13.931416"
       fx="9.9660025"
       fy="23.403069"
       id="radialGradient3352"
       xlink:href="#linearGradient3846-5"
       gradientUnits="userSpaceOnUse"
       gradientTransform="matrix(0,3.4561718,-4.1186673,0,121.20805,-33.840698)" />
    <linearGradient
       id="linearGradient3846-5">
      <stop
         id="stop3848-48"
         style="stop-color:#fff3cb;stop-opacity:1"
         offset="0" />
      <stop
         id="stop3850-1"
         style="stop-color:#fdde76;stop-opacity:1"
         offset="0.26238" />
      <stop
         id="stop3852-28"
         style="stop-color:#f9c440;stop-opacity:1"
         offset="0.66093999" />
      <stop
         id="stop3854-9"
         style="stop-color:#e48b20;stop-opacity:1"
         offset="1" />
    </linearGradient>
    <linearGradient
       x1="21.483376"
       y1="35.375534"
       x2="21.483376"
       y2="8.404891"
       id="linearGradient3354"
       xlink:href="#linearGradient3856-6"
       gradientUnits="userSpaceOnUse"
       gradientTransform="matrix(1.6508808,0,0,1.6568311,-9.7968269,-13.801098)" />
    <linearGradient
       id="linearGradient3856-6">
      <stop
         id="stop3858-8"
         style="stop-color:#b67926;stop-opacity:1"
         offset="0" />
      <stop
         id="stop3860-0"
         style="stop-color:#eab41a;stop-opacity:1"
         offset="1" />
    </linearGradient>
    <linearGradient
       x1="23.748692"
       y1="44.758724"
       x2="23.748692"
       y2="0.49759647"
       id="linearGradient3797"
       xlink:href="#linearGradient5031"
       gradientUnits="userSpaceOnUse" />
    <linearGradient
       id="linearGradient5031">
      <stop
         id="stop5033"
         style="stop-color:#a3a3a3;stop-opacity:1"
         offset="0" />
      <stop
         id="stop5035"
         style="stop-color:#bababa;stop-opacity:1"
         offset="1" />
    </linearGradient>
    <linearGradient
       x1="23.99999"
       y1="5.5641499"
       x2="23.99999"
       y2="43"
       id="linearGradient3988"
       xlink:href="#linearGradient3977"
       gradientUnits="userSpaceOnUse"
       gradientTransform="matrix(0.89189189,0,0,1.1351351,2.5945999,-4.7432314)" />
    <linearGradient
       id="linearGradient3977">
      <stop
         id="stop3979"
         style="stop-color:#ffffff;stop-opacity:1"
         offset="0" />
      <stop
         id="stop3981"
         style="stop-color:#ffffff;stop-opacity:0.23529412"
         offset="0.03626217" />
      <stop
         id="stop3983"
         style="stop-color:#ffffff;stop-opacity:0.15686275"
         offset="0.95056331" />
      <stop
         id="stop3985"
         style="stop-color:#ffffff;stop-opacity:0.39215687"
         offset="1" />
    </linearGradient>
    <linearGradient
       x1="25.132275"
       y1="0.98520643"
       x2="25.132275"
       y2="47.013336"
       id="linearGradient3322"
       xlink:href="#linearGradient3600"
       gradientUnits="userSpaceOnUse"
       gradientTransform="matrix(1,0,0,0.9561695,-9.9999999e-8,-1.9149218)" />
    <linearGradient
       id="linearGradient3600">
      <stop
         id="stop3602"
         style="stop-color:#f4f4f4;stop-opacity:1"
         offset="0" />
      <stop
         id="stop3604"
         style="stop-color:#dbdbdb;stop-opacity:1"
         offset="1" />
    </linearGradient>
    <linearGradient
       x1="-51.786404"
       y1="50.786446"
       x2="-51.786404"
       y2="2.9062471"
       id="linearGradient3324"
       xlink:href="#linearGradient3104"
       gradientUnits="userSpaceOnUse"
       gradientTransform="matrix(0.8074968,0,0,0.8948322,59.410232,-2.9805531)" />
    <linearGradient
       id="linearGradient3104">
      <stop
         id="stop3106"
         style="stop-color:#a0a0a0;stop-opacity:1"
         offset="0" />
      <stop
         id="stop3108"
         style="stop-color:#bebebe;stop-opacity:1"
         offset="1" />
    </linearGradient>
    <radialGradient
       cx="605.71429"
       cy="486.64789"
       r="117.14286"
       fx="605.71429"
       fy="486.64789"
       id="radialGradient3327"
       xlink:href="#linearGradient5060"
       gradientUnits="userSpaceOnUse"
       gradientTransform="matrix(0.02303995,0,0,0.01470022,26.360882,37.040176)" />
    <linearGradient
       id="linearGradient5060">
      <stop
         id="stop5062"
         style="stop-color:#000000;stop-opacity:1"
         offset="0" />
      <stop
         id="stop5064"
         style="stop-color:#000000;stop-opacity:0"
         offset="1" />
    </linearGradient>
    <radialGradient
       cx="605.71429"
       cy="486.64789"
       r="117.14286"
       fx="605.71429"
       fy="486.64789"
       id="radialGradient3330"
       xlink:href="#linearGradient5060"
       gradientUnits="userSpaceOnUse"
       gradientTransform="matrix(-0.02303994,0,0,0.01470022,21.62311,37.040176)" />
    <linearGradient
       id="linearGradient5048">
      <stop
         id="stop5050"
         style="stop-color:#000000;stop-opacity:0"
         offset="0" />
      <stop
         id="stop5056"
         style="stop-color:#000000;stop-opacity:1"
         offset="0.5" />
      <stop
         id="stop5052"
         style="stop-color:#000000;stop-opacity:0"
         offset="1" />
    </linearGradient>
    <linearGradient
       x1="302.85715"
       y1="366.64789"
       x2="302.85715"
       y2="609.50507"
       id="linearGradient4474"
       xlink:href="#linearGradient5048"
       gradientUnits="userSpaceOnUse"
       gradientTransform="matrix(0.06732488,0,0,0.01470022,-0.3411391,37.040146)" />
    <radialGradient
       cx="9.9660025"
       cy="23.403069"
       r="13.931416"
       fx="9.9660025"
       fy="23.403069"
       id="radialGradient4476"
       xlink:href="#linearGradient3846-5"
       gradientUnits="userSpaceOnUse"
       gradientTransform="matrix(0,3.4561718,-4.1186673,0,121.20805,-33.840698)" />
    <linearGradient
       x1="21.483376"
       y1="35.375534"
       x2="21.483376"
       y2="8.404891"
       id="linearGradient4478"
       xlink:href="#linearGradient3856-6"
       gradientUnits="userSpaceOnUse"
       gradientTransform="matrix(1.6508808,0,0,1.6568311,-9.7968269,-13.801098)" />
  </defs>
  <metadata
     id="metadata4485">
    <rdf:RDF>
      <cc:Work
         rdf:about="">
        <dc:format>image/svg+xml</dc:format>
        <dc:type
           rdf:resource="http://purl.org/dc/dcmitype/StillImage" />
        <dc:title />
      </cc:Work>
    </rdf:RDF>
  </metadata>
  <g
     id="layer1">
    <rect
       width="32.508301"
       height="3.5700529"
       x="7.7378473"
       y="42.429947"
       id="rect2879"
       style="opacity:0.3;fill:url(#linearGradient4474);fill-opacity:1;fill-rule:nonzero;stroke:none;stroke-width:1;marker:none;visibility:visible;display:inline;overflow:visible" />
    <path
       d="m 7.7378475,42.430102 c 0,0 0,3.569856 0,3.569856 -1.1865002,0.0067 -2.8683795,-0.799823 -2.8683795,-1.785158 0,-0.985333 1.3240446,-1.784697 2.8683795,-1.784698 z"
       inkscape:connector-curvature="0"
       id="path2881"
       style="opacity:0.3;fill:url(#radialGradient3330);fill-opacity:1;fill-rule:nonzero;stroke:none;stroke-width:1;marker:none;visibility:visible;display:inline;overflow:visible" />
    <path
       d="m 40.246148,42.430102 c 0,0 0,3.569856 0,3.569856 1.1865,0.0067 2.86838,-0.799823 2.86838,-1.785158 0,-0.985333 -1.324045,-1.784697 -2.86838,-1.784698 z"
       inkscape:connector-curvature="0"
       id="path2883"
       style="opacity:0.3;fill:url(#radialGradient3327);fill-opacity:1;fill-rule:nonzero;stroke:none;stroke-width:1;marker:none;visibility:visible;display:inline;overflow:visible" />
    <path
       d="M 6.4999609,0.497199 C 14.520256,0.497199 41.5,0.5 41.5,0.5 l 4.2e-5,44.002803 c 0,0 -23.333387,0 -35.0000811,0 0,-14.668535 0,-29.33707 0,-44.00560407 z"
       inkscape:connector-curvature="0"
       id="path4160"
       style="fill:url(#linearGradient3322);fill-opacity:1;stroke:url(#linearGradient3324);stroke-width:0.99992186;stroke-linecap:butt;stroke-linejoin:round;stroke-miterlimit:4;stroke-opacity:1;stroke-dasharray:none;stroke-dashoffset:0;display:inline" />
    <path
       d="m 40.5,43.5 -33,0 0,-41.9999998 33,0 z"
       inkscape:connector-curvature="0"
       id="rect6741-1"
       style="fill:none;stroke:url(#linearGradient3988);stroke-width:1;stroke-linecap:round;stroke-linejoin:round;stroke-miterlimit:4;stroke-opacity:1;stroke-dasharray:none;stroke-dashoffset:0" />
    <path
       d="m 11,21 0,1 2.34375,0 0,-1 L 11,21 z m 0,4 0,1 2.75,0 0,-1 -2.75,0 z m 0,2 0,1 2.9375,0 0,-1 L 11,27 z m 0,2 0,1 2.53125,0 0,-1 L 11,29 z m 0,2.15625 0,0.96875 2.21875,0 0,-0.96875 -2.21875,0 z M 13.75,21 l 0,1 2.25,0 0,-1 -2.25,0 z m -2.75,2 0,1 1,0 0,-1 -1,0 z m 3.15625,2 0,1 1.84375,0 0,-1 -1.84375,0 z m 0.125,2 0,1 2.71875,0 0,-1 -2.71875,0 z m -0.34375,2 0,1 2.0625,0 0,-1 -2.0625,0 z m -0.375,2.15625 0,0.96875 2.125,0 0,-0.96875 -2.125,0 z M 11,34 l 0,1 4.28125,0 0,-1 L 11,34 z m 0,2 0,1 3.6875,0 0,-1 L 11,36 z m 3.96875,0 0,1 1.78125,0 0,-1 -1.78125,0 z m -0.625,2 0,1 3.34375,0 0,-1 -3.34375,0 z M 11,38 l 3.036746,0 0,1 L 11,39 11,38 z m 3.40625,-22 0,1 5.59375,0 0,-1 -5.59375,0 z m 0.03125,2 0,1 5.09375,0 0,-1 -5.09375,0 z m 1.1875,16 0,1 4.59375,0 0,-1 -4.59375,0 z m 4.9375,0 0,1 1.8125,0 0,-1 -1.8125,0 z m 2.15625,0 0,1 4.3125,0 0,-1 -4.3125,0 z m 4.65625,0 0,1 2.96875,0 0,-1 -2.96875,0 z m 3.28125,0 0,1 1.15625,0 0,-1 -1.15625,0 z m 1.5,0 0,1 0.6875,0 0,-1 -0.6875,0 z m 1,0 0,1 1.84375,0 0,-1 -1.84375,0 z m -16.03125,2 0,1 0.8125,0 0,-1 -0.8125,0 z m 1.03125,0 0,1 1.625,0 0,-1 -1.625,0 z m 1.875,0 0,1 1.625,0 0,-1 -1.625,0 z m 2.125,0 0,1 2.59375,0 0,-1 -2.59375,0 z m 2.90625,0 0,1 3.375,0 0,-1 -3.375,0 z m 3.84375,0 0,1 2.28125,0 0,-1 -2.28125,0 z m 2.5625,0 0,1 L 32,37 32,36 31.46875,36 z M 11,16 l 0,1 3.0625,0 0,-1 L 11,16 z m 0,2 0,1 3.09375,0 0,-1 L 11,18 z m 0,-10.9999999 0,1 2.375,0 0,-1 -2.375,0 z m 2.6875,0 0,1 2.25,0 0,-1 -2.25,0 z m 2.5625,0 0,1 1.96875,0 0,-1 -1.96875,0 z m 2.28125,0 0,1 0.875,0 0,-1 -0.875,0 z m 1.1875,0 0,1 1.9375,0 0,-1 -1.9375,0 z m 2.28125,0 0,1 5,0 0,-1 -5,0 z m -11,2 L 11,10 l 3.78125,0 0,-0.9999999 -3.78125,0 z m 4.15625,0 0,0.9999999 1.8125,0 0,-0.9999999 -1.8125,0 z m 2.15625,0 0,0.9999999 0.84375,0 0,-0.9999999 -0.84375,0 z m 1.21875,0 0,0.9999999 1.625,0 0,-0.9999999 -1.625,0 z m 2,0 0,0.9999999 1.625,0 0,-0.9999999 -1.625,0 z m 1.96875,0 0,0.9999999 2.65625,0 0,-0.9999999 -2.65625,0 z m 3.03125,0 0,0.9999999 3.46875,0 0,-0.9999999 -3.46875,0 z M 11,11 l 0,1 4.1875,0 0,-1 L 11,11 z m 4.5,0 0,1 4.5,0 0,-1 -4.5,0 z m -4.5,2 0,1 2.3125,0 0,-1 L 11,13 z m 2.625,0 0,1 2.15625,0 0,-1 -2.15625,0 z m 2.46875,0 0,1 1.90625,0 0,-1 -1.90625,0 z m 3.8125,5 0,1 1.90625,0 0,-1 -1.90625,0 z m 2.21875,0 0,1 1.90625,0 0,-1 -1.90625,0 z m 2.21875,0 0,1 2.75,0 0,-1 -2.75,0 z m 3.09375,0 0,1 0.5625,0 0,-1 -0.5625,0 z M 20,25 l 0,1 2.34375,0 0,-1 L 20,25 z m 2.65625,0 0,1 2.1875,0 0,-1 -2.1875,0 z m 2.5,0 0,1 L 27,26 27,25 25.15625,25 z M 20,27 l 0,1 1.875,0 0,-1 L 20,27 z m 2.1875,0 0,1 4.8125,0 0,-1 -4.8125,0 z m 5.125,0 0,1 3.6875,0 0,-1 -3.6875,0 z M 20,29 l 0,1 2.4375,0 0,-1 L 20,29 z m 2.78125,0 0,1 4.28125,0 0,-1 -4.28125,0 z m 4.59375,0 0,1 2.9375,0 0,-1 -2.9375,0 z M 20,31.125 l 0,0.96875 1.875,0 0,-0.96875 -1.875,0 z m 2.1875,0 0,0.96875 1.90625,0 0,-0.96875 -1.90625,0 z m 2.21875,0 0,0.96875 2.71875,0 0,-0.96875 -2.71875,0 z m 3.03125,0 0,0.96875 0.5625,0 0,-0.96875 -0.5625,0 z m 0.875,0 0,0.96875 3.53125,0 0,-0.96875 -3.53125,0 z m -8.375,6.875 0,1 2.4375,0 0,-1 -2.4375,0 z m 2.75,0 0,1 2.25,0 0,-1 -2.25,0 z m 2.59375,0 0,1 1.9375,0 0,-1 -1.9375,0 z m 2.25,0 0,1 3.09375,0 0,-1 -3.09375,0 z m 3.4375,0 0,1 5.03125,0 0,-1 -5.03125,0 z"
       inkscape:connector-curvature="0"
       id="path5302"
       style="fill:url(#linearGradient3797);fill-opacity:1;stroke:none;display:inline" />
    <g
       id="text3106"
       style="font-size:32px;font-style:normal;font-variant:normal;font-weight:bold;font-stretch:normal;line-height:125%;letter-spacing:0px;word-spacing:0px;color:#000000;fill:url(#radialGradient3352);fill-opacity:1;fill-rule:nonzero;stroke:url(#linearGradient3354);stroke-width:0.9922713;stroke-linecap:butt;stroke-linejoin:round;stroke-miterlimit:4;stroke-opacity:1;stroke-dashoffset:0;marker:none;visibility:visible;display:inline;overflow:visible;enable-background:accumulate;font-family:Droid Sans;-inkscape-font-specification:Droid Sans Bold">
      <path
         d="m 25.746136,18.292969 4.566406,0 2.460937,8.599609 0.601562,2.269531 c 0.03645,-0.255203 0.07747,-0.514969 0.123047,-0.779297 0.04556,-0.264317 0.09569,-0.524082 0.15039,-0.779296 0.06379,-0.264317 0.127597,-0.501296 0.191407,-0.710938 l 2.40625,-8.599609 4.59375,0 -6.042969,17.240234 c -0.565113,1.613278 -1.335294,2.811844 -2.310547,3.595703 -0.975266,0.783848 -2.196619,1.175775 -3.664062,1.175781 -0.473961,-6e-6 -0.884117,-0.02735 -1.230469,-0.08203 -0.346356,-0.04558 -0.642579,-0.09571 -0.888672,-0.15039 l 0,-3.308594 c 0.191405,0.04557 0.432941,0.08658 0.724609,0.123047 0.291665,0.03646 0.597003,0.05468 0.916016,0.05469 0.437497,-3e-6 0.811194,-0.05925 1.121094,-0.177734 0.309892,-0.118493 0.574214,-0.287112 0.792968,-0.50586 0.22786,-0.209637 0.419266,-0.464845 0.574219,-0.765625 0.164057,-0.300782 0.305333,-0.638022 0.423828,-1.011718 l 0.259766,-0.765625 -5.769531,-15.421875 m -11.406249,3.191402 0.953125,0 c 1.364573,1.2e-5 2.390614,-0.270821 3.078125,-0.8125 0.697904,-0.541653 1.046862,-1.421861 1.046875,-2.640625 -1.3e-5,-1.1354 -0.312513,-1.973941 -0.9375,-2.515625 -0.614595,-0.541648 -1.583344,-0.812481 -2.90625,-0.8125 l -1.234375,0 0,6.78125 m 9.984375,-3.625 c -1.8e-5,1.000015 -0.15106,1.958347 -0.453125,2.875 -0.302101,0.916679 -0.8021,1.723969 -1.5,2.421875 -0.687515,0.697926 -1.598973,1.255217 -2.734375,1.671875 -1.125012,0.416675 -2.520844,0.625008 -4.1875,0.625 l -1.109375,0 0,8.125 -4.8437503,0 0,-22.84375 6.3437503,0 c 1.468739,2.3e-5 2.734363,0.166689 3.796875,0.5 1.072902,0.322939 1.95311,0.791688 2.640625,1.40625 0.6979,0.604187 1.213525,1.348978 1.546875,2.234375 0.333316,0.875018 0.499982,1.869809 0.5,2.984375"
         inkscape:connector-curvature="0"
         id="path4367"
         style="font-size:28px;fill:url(#radialGradient4476);stroke:url(#linearGradient4478);marker:none" />
    </g>
    <path
       d="m 10.46875,11.71875 0,20.875 2.90625,0 0,-7.15625 a 0.97157835,0.97157835 0 0 1 0.96875,-0.96875 l 1.09375,0 c 1.585696,8e-6 2.865261,-0.200093 3.84375,-0.5625 1.040326,-0.381767 1.848787,-0.871596 2.40625,-1.4375 0.602208,-0.602213 0.995595,-1.259294 1.25,-2.03125 0.266085,-0.807464 0.406234,-1.650175 0.40625,-2.5625 -1.6e-5,-1.017729 -0.154396,-1.913047 -0.4375,-2.65625 -0.285108,-0.757263 -0.683463,-1.353287 -1.25,-1.84375 A 0.97157835,0.97157835 0 0 1 21.625,13.34375 c -0.545695,-0.487791 -1.297313,-0.86009 -2.28125,-1.15625 -0.943132,-0.295861 -2.104745,-0.468728 -3.5,-0.46875 l -5.375,0 z"
       inkscape:connector-curvature="0"
       id="path4324"
       style="font-size:32px;font-style:normal;font-variant:normal;font-weight:bold;font-stretch:normal;line-height:125%;letter-spacing:0px;word-spacing:0px;opacity:0.8;color:#000000;fill:none;stroke:url(#linearGradient4338);stroke-width:1;stroke-linecap:butt;stroke-linejoin:round;stroke-miterlimit:4;stroke-opacity:1;stroke-dashoffset:0;marker:none;visibility:visible;display:inline;overflow:visible;enable-background:accumulate;font-family:Droid Sans;-inkscape-font-specification:Droid Sans Bold" />
    <path
       d="m 14.1875,13.71875 a 0.97157835,0.97157835 0 0 1 0.15625,0 l 1.21875,0 c 1.444034,2.1e-5 2.658763,0.305883 3.53125,1.0625 0.0069,0.006 0.02437,-0.0061 0.03125,0 l -0.03125,0.03125 c 0.871699,0.768183 1.281235,1.914999 1.28125,3.21875 -1.5e-5,1.38621 -0.431579,2.636925 -1.40625,3.40625 l -0.03125,0 c -0.936289,0.726803 -2.174615,1.031263 -3.65625,1.03125 l -0.9375,0 A 0.97157835,0.97157835 0 0 1 13.375,21.5 l 0,-6.8125 a 0.97157835,0.97157835 0 0 1 0.8125,-0.96875 z"
       inkscape:connector-curvature="0"
       id="path4322"
       style="font-size:32px;font-style:normal;font-variant:normal;font-weight:bold;font-stretch:normal;line-height:125%;letter-spacing:0px;word-spacing:0px;opacity:0.8;color:#000000;fill:none;stroke:url(#linearGradient4352);stroke-width:1;stroke-linecap:butt;stroke-linejoin:round;stroke-miterlimit:4;stroke-opacity:1;stroke-dashoffset:0;marker:none;visibility:visible;display:inline;overflow:visible;enable-background:accumulate;font-family:Droid Sans;-inkscape-font-specification:Droid Sans Bold" />
    <path
       d="m 27.15625,19.25 5.28125,14.125 c 0.08288,0.219088 0.08288,0.468412 0,0.6875 l -0.25,0.6875 -0.03125,0.0625 c -0.114517,0.358736 -0.240336,0.754543 -0.4375,1.125 -0.0067,0.01252 -0.02443,0.01874 -0.03125,0.03125 -0.212745,0.397781 -0.488257,0.724293 -0.75,0.96875 -0.01011,0.01011 -0.02099,0.02128 -0.03125,0.03125 -0.307215,0.298481 -0.684822,0.531139 -1.09375,0.6875 -0.438247,0.167558 -0.929096,0.249996 -1.46875,0.25 -0.236464,-2e-6 -0.443851,-0.01211 -0.65625,-0.03125 l 0,1.375 c 0.01198,0.0016 0.01908,-0.0016 0.03125,0 0.01042,-1.68e-4 0.02083,-1.68e-4 0.03125,0 0.303385,0.0479 0.641908,0.09374 1.0625,0.09375 1.289297,-6e-6 2.306171,-0.335751 3.09375,-0.96875 0.794116,-0.63827 1.476613,-1.662091 2,-3.15625 L 39.5,19.25 l -2.5,0 -2.21875,7.90625 c 1.68e-4,0.01042 1.68e-4,0.02083 0,0.03125 -0.05961,0.195845 -0.128246,0.379493 -0.1875,0.625 -0.05465,0.254979 -0.08383,0.47993 -0.125,0.71875 -0.04289,0.248746 -0.09138,0.486212 -0.125,0.71875 -0.0011,0.0099 10e-4,0.02129 0,0.03125 l -1.03125,1.5625 C 32.825411,30.292243 32.472811,29.266622 32.125,28.53125 32.06748,28.04648 31.972189,27.604953 31.84375,27.1875 L 29.5625,19.25 z"
       inkscape:connector-curvature="0"
       id="path4320"
       style="font-size:32px;font-style:normal;font-variant:normal;font-weight:bold;font-stretch:normal;line-height:125%;letter-spacing:0px;word-spacing:0px;opacity:0.8;color:#000000;fill:none;stroke:url(#linearGradient4326);stroke-width:1;stroke-linecap:butt;stroke-linejoin:round;stroke-miterlimit:4;stroke-opacity:1;stroke-dashoffset:0;marker:none;visibility:visible;display:inline;overflow:visible;enable-background:accumulate;font-family:Droid Sans;-inkscape-font-specification:Droid Sans Bold" />
  </g>
</svg>
