<?xml version="1.0" encoding="UTF-8" standalone="no"?>
<!-- Created with Inkscape (http://www.inkscape.org/) -->

<svg
   xmlns:dc="http://purl.org/dc/elements/1.1/"
   xmlns:cc="http://creativecommons.org/ns#"
   xmlns:rdf="http://www.w3.org/1999/02/22-rdf-syntax-ns#"
   xmlns:svg="http://www.w3.org/2000/svg"
   xmlns="http://www.w3.org/2000/svg"
   xmlns:xlink="http://www.w3.org/1999/xlink"
   xmlns:sodipodi="http://sodipodi.sourceforge.net/DTD/sodipodi-0.dtd"
   xmlns:inkscape="http://www.inkscape.org/namespaces/inkscape"
   version="1.0"
   width="48"
   height="48"
   id="svg2453"
   inkscape:version="0.48.4 r9939"
   sodipodi:docname="video-x-generic.svg">
  <sodipodi:namedview
     pagecolor="#ffffff"
     bordercolor="#666666"
     borderopacity="1"
     objecttolerance="10"
     gridtolerance="10"
     guidetolerance="10"
     inkscape:pageopacity="0"
     inkscape:pageshadow="2"
     inkscape:window-width="1440"
     inkscape:window-height="845"
     id="namedview55"
     showgrid="true"
     inkscape:zoom="1"
     inkscape:cx="33.545566"
     inkscape:cy="22.383123"
     inkscape:window-x="0"
     inkscape:window-y="30"
     inkscape:window-maximized="1"
     inkscape:current-layer="svg2453">
    <inkscape:grid
       type="xygrid"
       id="grid3951" />
  </sodipodi:namedview>
  <metadata
     id="metadata35">
    <rdf:RDF>
      <cc:Work
         rdf:about="">
        <dc:format>image/svg+xml</dc:format>
        <dc:type
           rdf:resource="http://purl.org/dc/dcmitype/StillImage" />
        <dc:title></dc:title>
      </cc:Work>
    </rdf:RDF>
  </metadata>
  <defs
     id="defs2455">
    <radialGradient
       cx="605.71429"
       cy="486.64789"
       r="117.14286"
       fx="605.71429"
       fy="486.64789"
       id="radialGradient19613"
       xlink:href="#linearGradient5060"
       gradientUnits="userSpaceOnUse"
       gradientTransform="matrix(0.02891661,0,0,0.01235294,26.973101,38.470848)" />
    <linearGradient
       id="linearGradient5060">
      <stop
         id="stop5062"
         style="stop-color:#000000;stop-opacity:1"
         offset="0" />
      <stop
         id="stop5064"
         style="stop-color:#000000;stop-opacity:0"
         offset="1" />
    </linearGradient>
    <radialGradient
       cx="605.71429"
       cy="486.64789"
       r="117.14286"
       fx="605.71429"
       fy="486.64789"
       id="radialGradient19616"
       xlink:href="#linearGradient5060"
       gradientUnits="userSpaceOnUse"
       gradientTransform="matrix(-0.0289166,0,0,0.01235294,21.026894,38.470848)" />
    <linearGradient
       id="linearGradient5048">
      <stop
         id="stop5050"
         style="stop-color:#000000;stop-opacity:0"
         offset="0" />
      <stop
         id="stop5056"
         style="stop-color:#000000;stop-opacity:1"
         offset="0.5" />
      <stop
         id="stop5052"
         style="stop-color:#000000;stop-opacity:0"
         offset="1" />
    </linearGradient>
    <linearGradient
       x1="302.85715"
       y1="366.64789"
       x2="302.85715"
       y2="609.50507"
       id="linearGradient19619"
       xlink:href="#linearGradient5048"
       gradientUnits="userSpaceOnUse"
       gradientTransform="matrix(0.08449704,0,0,0.01235294,-6.5396456,38.470822)" />
    <linearGradient
       id="linearGradient3680-6-6-6-3-7-1-8-8">
      <stop
         id="stop3682-4-6-1-3-7-7-4-0"
         style="stop-color:#dcdcdc;stop-opacity:1"
         offset="0" />
      <stop
         id="stop3684-8-5-8-0-2-6-8-4"
         style="stop-color:#ffffff;stop-opacity:1"
         offset="1" />
    </linearGradient>
    <linearGradient
       y2="13.000008"
       x2="20"
       y1="26.000008"
       x1="20"
       gradientTransform="matrix(1.326882,0,0,1.326882,9.2598082,6.2451596)"
       gradientUnits="userSpaceOnUse"
       id="linearGradient3127-4-4"
       xlink:href="#linearGradient3680-6-6-6-3-7-1-8-8"
       inkscape:collect="always" />
    <linearGradient
       id="linearGradient2867-449-88-871-390-598-476-591-434-148-57-177-8-3-3-6-4-8-8-8-5-7">
      <stop
         id="stop3750-1-0-7-6-6-1-3-9-3-9"
         style="stop-color:#505050;stop-opacity:1"
         offset="0" />
      <stop
         id="stop3752-3-7-4-0-32-8-923-0-7-0"
         style="stop-color:#2b2b2b;stop-opacity:1"
         offset="0.26238" />
      <stop
         id="stop3754-1-8-5-2-7-6-7-1-9-1"
         style="stop-color:#0a0a0a;stop-opacity:1"
         offset="0.704952" />
      <stop
         id="stop3756-1-6-2-6-6-1-96-6-0-1"
         style="stop-color:#000000;stop-opacity:1"
         offset="1" />
    </linearGradient>
    <linearGradient
       id="linearGradient3462">
      <stop
         offset="0"
         style="stop-color:#ffffff;stop-opacity:1"
         id="stop3464" />
      <stop
         offset="0.03457849"
         style="stop-color:#ffffff;stop-opacity:0.23529412"
         id="stop3466" />
      <stop
         offset="0.96375686"
         style="stop-color:#ffffff;stop-opacity:0.15686275"
         id="stop3468" />
      <stop
         offset="1"
         style="stop-color:#ffffff;stop-opacity:0.39215687"
         id="stop3470" />
    </linearGradient>
    <linearGradient
       inkscape:collect="always"
       xlink:href="#linearGradient3680-6-6-6-3-7-1-8-8"
       id="linearGradient3324"
       gradientUnits="userSpaceOnUse"
       gradientTransform="matrix(1.326882,0,0,1.326882,9.2598082,6.2451596)"
       x1="20"
       y1="26.000008"
       x2="20"
       y2="13.000008" />
    <linearGradient
       inkscape:collect="always"
       xlink:href="#linearGradient3680-6-6-6-3-7-1-8-8"
       id="linearGradient3339"
       gradientUnits="userSpaceOnUse"
       gradientTransform="matrix(1.326882,0,0,1.326882,9.2598082,6.2451596)"
       x1="20"
       y1="26.000008"
       x2="20"
       y2="13.000008" />
    <linearGradient
       inkscape:collect="always"
       xlink:href="#linearGradient3462"
       id="linearGradient3345"
       gradientUnits="userSpaceOnUse"
       gradientTransform="matrix(1.1621621,0,0,0.91891888,-3.8918941,4.4459492)"
       x1="40.290417"
       y1="5.4143372"
       x2="40.290417"
       y2="42.437775" />
    <radialGradient
       inkscape:collect="always"
       xlink:href="#linearGradient2867-449-88-871-390-598-476-591-434-148-57-177-8-3-3-6-4-8-8-8-5-7"
       id="radialGradient3348"
       gradientUnits="userSpaceOnUse"
       gradientTransform="matrix(0,8.4371492,-12.947656,0,153.88012,-68.473106)"
       cx="7.1183534"
       cy="9.9571075"
       fx="7.1183534"
       fy="9.9571075"
       r="12.671875" />
    <linearGradient
       inkscape:collect="always"
       xlink:href="#linearGradient3680-6-6-6-3-7-1-8-8"
       id="linearGradient3352"
       gradientUnits="userSpaceOnUse"
       gradientTransform="matrix(1.326882,0,0,1.326882,9.2598082,6.2451596)"
       x1="20"
       y1="26.000008"
       x2="20"
       y2="13.000008" />
    <linearGradient
       inkscape:collect="always"
       xlink:href="#linearGradient3680-6-6-6-3-7-1-8-8"
       id="linearGradient3378"
       gradientUnits="userSpaceOnUse"
       gradientTransform="matrix(0.94777285,0,0,0.9730468,24.899863,25.579784)"
       x1="20"
       y1="26.000008"
       x2="20"
       y2="13.000008" />
  </defs>
  <g
     id="g3257"
     style="opacity:0.4">
    <rect
       width="40.799999"
       height="2.9999998"
       x="3.5999999"
       y="43"
       id="rect2879"
       style="fill:url(#linearGradient19619);fill-opacity:1;fill-rule:nonzero;stroke:none;stroke-width:1;marker:none;visibility:visible;display:inline;overflow:visible" />
    <path
       d="m 3.6,43.00013 c 0,0 0,2.999835 0,2.999835 C 2.1108662,46.005612 0,45.327854 0,44.499854 0,43.671856 1.6617608,43.000131 3.6,43.00013 z"
       inkscape:connector-curvature="0"
       id="path2881"
       style="fill:url(#radialGradient19616);fill-opacity:1;fill-rule:nonzero;stroke:none;stroke-width:1;marker:none;visibility:visible;display:inline;overflow:visible" />
    <path
       d="m 44.4,43.00013 c 0,0 0,2.999835 0,2.999835 1.489133,0.0056 3.6,-0.672111 3.6,-1.500111 0,-0.827998 -1.661761,-1.499723 -3.6,-1.499724 z"
       inkscape:connector-curvature="0"
       id="path2883"
       style="fill:url(#radialGradient19613);fill-opacity:1;fill-rule:nonzero;stroke:none;stroke-width:1;marker:none;visibility:visible;display:inline;overflow:visible" />
  </g>
  <rect
     width="45"
     height="36"
     rx="1.5"
     ry="1.5"
     x="1.4999995"
     y="8.4999981"
     id="rect5505-21-3-8-5-2"
     style="opacity:0.9;color:#000000;fill:url(#radialGradient3348);fill-opacity:1;fill-rule:nonzero;stroke:none;stroke-width:0.99999994;marker:none;visibility:visible;display:inline;overflow:visible;enable-background:accumulate" />
  <rect
     width="43"
     height="34"
     rx="0.75"
     ry="0.75"
     x="2.5"
     y="9.5"
     id="rect6741-5-0-2-3"
     style="opacity:0.3;fill:none;stroke:url(#linearGradient3345);stroke-width:1;stroke-linecap:round;stroke-linejoin:round;stroke-miterlimit:4;stroke-opacity:1;stroke-dasharray:none;stroke-dashoffset:0" />
  <rect
     width="45"
     height="36"
     rx="1.5"
     ry="1.5"
     x="1.4999995"
     y="8.5"
     id="rect5505-21-3-8-9-1-1"
     style="opacity:0.7;color:#000000;fill:none;stroke:#000000;stroke-width:1;stroke-linecap:round;stroke-linejoin:round;stroke-miterlimit:4;stroke-opacity:1;stroke-dasharray:none;stroke-dashoffset:0;marker:none;visibility:visible;display:inline;overflow:visible;enable-background:accumulate" />
  <path
     sodipodi:type="inkscape:offset"
     inkscape:radius="0.98807651"
     inkscape:original="M 19.53125 22 C 19.234464 22 19 22.2578 19 22.5625 L 19 32.4375 C 19 32.7422 19.234464 33 19.53125 33 L 28.46875 33 C 28.765536 33 29 32.7422 29 32.4375 L 29 22.5625 C 29 22.2578 28.765536 22 28.46875 22 L 19.53125 22 z M 19.71875 22.71875 L 20.4375 22.71875 L 20.4375 23.46875 L 19.71875 23.46875 L 19.71875 22.71875 z M 27.5625 22.71875 L 28.28125 22.71875 L 28.28125 23.46875 L 27.5625 23.46875 L 27.5625 22.71875 z M 21.5 23 L 26.5 23 C 26.777 23 27 23.223 27 23.5 L 27 26.5 C 27 26.777 26.777 27 26.5 27 L 21.5 27 C 21.223 27 21 26.777 21 26.5 L 21 23.5 C 21 23.223 21.223 23 21.5 23 z M 19.71875 24.1875 L 20.4375 24.1875 L 20.4375 24.9375 L 19.71875 24.9375 L 19.71875 24.1875 z M 27.5625 24.1875 L 28.28125 24.1875 L 28.28125 24.9375 L 27.5625 24.9375 L 27.5625 24.1875 z M 19.71875 25.65625 L 20.4375 25.65625 L 20.4375 26.40625 L 19.71875 26.40625 L 19.71875 25.65625 z M 27.5625 25.65625 L 28.28125 25.65625 L 28.28125 26.40625 L 27.5625 26.40625 L 27.5625 25.65625 z M 19.71875 27.125 L 20.4375 27.125 L 20.4375 27.875 L 19.71875 27.875 L 19.71875 27.125 z M 27.5625 27.125 L 28.28125 27.125 L 28.28125 27.875 L 27.5625 27.875 L 27.5625 27.125 z M 21.5 28 L 26.5 28 C 26.777 28 27 28.223 27 28.5 L 27 31.5 C 27 31.777 26.777 32 26.5 32 L 21.5 32 C 21.223 32 21 31.777 21 31.5 L 21 28.5 C 21 28.223 21.223 28 21.5 28 z M 19.71875 28.59375 L 20.4375 28.59375 L 20.4375 29.34375 L 19.71875 29.34375 L 19.71875 28.59375 z M 27.5625 28.59375 L 28.28125 28.59375 L 28.28125 29.34375 L 27.5625 29.34375 L 27.5625 28.59375 z M 19.71875 30.0625 L 20.4375 30.0625 L 20.4375 30.8125 L 19.71875 30.8125 L 19.71875 30.0625 z M 27.5625 30.0625 L 28.28125 30.0625 L 28.28125 30.8125 L 27.5625 30.8125 L 27.5625 30.0625 z M 19.71875 31.53125 L 20.4375 31.53125 L 20.4375 32.28125 L 19.71875 32.28125 L 19.71875 31.53125 z M 27.5625 31.53125 L 28.28125 31.53125 L 28.28125 32.28125 L 27.5625 32.28125 L 27.5625 31.53125 z "
     style="opacity:0.14999999999999999;color:#000000;fill:#000000;fill-opacity:1;fill-rule:nonzero;stroke:none;stroke-width:1;marker:none;visibility:visible;display:inline;overflow:visible;enable-background:accumulate"
     id="path3452"
     d="M 19.53125,21 C 18.662276,21 18,21.750922 18,22.5625 l 0,9.875 C 18,33.249078 18.662276,34 19.53125,34 l 8.9375,0 C 29.337724,34 30,33.249078 30,32.4375 l 0,-9.875 C 30,21.750922 29.337724,21 28.46875,21 l -8.9375,0 z M 22,24 l 4,0 0,2 -4,0 0,-2 z m 0,5 4,0 0,2 -4,0 0,-2 z" />
  <path
     inkscape:connector-curvature="0"
     style="color:#000000;fill:#000000;fill-opacity:1;fill-rule:nonzero;stroke:none;stroke-width:1;marker:none;visibility:visible;display:inline;overflow:visible;enable-background:accumulate;opacity:0.29999999999999999"
     d="M 19.53125,22 C 19.234464,22 19,22.2578 19,22.5625 l 0,9.875 C 19,32.7422 19.234464,33 19.53125,33 l 8.9375,0 C 28.765536,33 29,32.7422 29,32.4375 l 0,-9.875 C 29,22.2578 28.765536,22 28.46875,22 l -8.9375,0 z m 0.1875,0.71875 0.71875,0 0,0.75 -0.71875,0 0,-0.75 z m 7.84375,0 0.71875,0 0,0.75 -0.71875,0 0,-0.75 z M 21.5,23 l 5,0 c 0.277,0 0.5,0.223 0.5,0.5 l 0,3 c 0,0.277 -0.223,0.5 -0.5,0.5 l -5,0 C 21.223,27 21,26.777 21,26.5 l 0,-3 C 21,23.223 21.223,23 21.5,23 z m -1.78125,1.1875 0.71875,0 0,0.75 -0.71875,0 0,-0.75 z m 7.84375,0 0.71875,0 0,0.75 -0.71875,0 0,-0.75 z m -7.84375,1.46875 0.71875,0 0,0.75 -0.71875,0 0,-0.75 z m 7.84375,0 0.71875,0 0,0.75 -0.71875,0 0,-0.75 z m -7.84375,1.46875 0.71875,0 0,0.75 -0.71875,0 0,-0.75 z m 7.84375,0 0.71875,0 0,0.75 -0.71875,0 0,-0.75 z M 21.5,28 l 5,0 c 0.277,0 0.5,0.223 0.5,0.5 l 0,3 c 0,0.277 -0.223,0.5 -0.5,0.5 l -5,0 C 21.223,32 21,31.777 21,31.5 l 0,-3 C 21,28.223 21.223,28 21.5,28 z m -1.78125,0.59375 0.71875,0 0,0.75 -0.71875,0 0,-0.75 z m 7.84375,0 0.71875,0 0,0.75 -0.71875,0 0,-0.75 z m -7.84375,1.46875 0.71875,0 0,0.75 -0.71875,0 0,-0.75 z m 7.84375,0 0.71875,0 0,0.75 -0.71875,0 0,-0.75 z m -7.84375,1.46875 0.71875,0 0,0.75 -0.71875,0 0,-0.75 z m 7.84375,0 0.71875,0 0,0.75 -0.71875,0 0,-0.75 z"
     id="rect3032-8-4" />
  <path
     style="color:#000000;fill:url(#linearGradient3378);fill-opacity:1;fill-rule:nonzero;stroke:none;stroke-width:1;marker:none;visibility:visible;display:inline;overflow:visible;enable-background:accumulate"
     d="M 19.53125 21 C 19.234464 21 19 21.2578 19 21.5625 L 19 31.4375 C 19 31.7422 19.234464 32 19.53125 32 L 28.46875 32 C 28.765536 32 29 31.7422 29 31.4375 L 29 21.5625 C 29 21.2578 28.765536 21 28.46875 21 L 19.53125 21 z M 19.71875 21.71875 L 20.4375 21.71875 L 20.4375 22.46875 L 19.71875 22.46875 L 19.71875 21.71875 z M 27.5625 21.71875 L 28.28125 21.71875 L 28.28125 22.46875 L 27.5625 22.46875 L 27.5625 21.71875 z M 21.5 22 L 26.5 22 C 26.777 22 27 22.223 27 22.5 L 27 25.5 C 27 25.777 26.777 26 26.5 26 L 21.5 26 C 21.223 26 21 25.777 21 25.5 L 21 22.5 C 21 22.223 21.223 22 21.5 22 z M 19.71875 23.1875 L 20.4375 23.1875 L 20.4375 23.9375 L 19.71875 23.9375 L 19.71875 23.1875 z M 27.5625 23.1875 L 28.28125 23.1875 L 28.28125 23.9375 L 27.5625 23.9375 L 27.5625 23.1875 z M 19.71875 24.65625 L 20.4375 24.65625 L 20.4375 25.40625 L 19.71875 25.40625 L 19.71875 24.65625 z M 27.5625 24.65625 L 28.28125 24.65625 L 28.28125 25.40625 L 27.5625 25.40625 L 27.5625 24.65625 z M 19.71875 26.125 L 20.4375 26.125 L 20.4375 26.875 L 19.71875 26.875 L 19.71875 26.125 z M 27.5625 26.125 L 28.28125 26.125 L 28.28125 26.875 L 27.5625 26.875 L 27.5625 26.125 z M 21.5 27 L 26.5 27 C 26.777 27 27 27.223 27 27.5 L 27 30.5 C 27 30.777 26.777 31 26.5 31 L 21.5 31 C 21.223 31 21 30.777 21 30.5 L 21 27.5 C 21 27.223 21.223 27 21.5 27 z M 19.71875 27.59375 L 20.4375 27.59375 L 20.4375 28.34375 L 19.71875 28.34375 L 19.71875 27.59375 z M 27.5625 27.59375 L 28.28125 27.59375 L 28.28125 28.34375 L 27.5625 28.34375 L 27.5625 27.59375 z M 19.71875 29.0625 L 20.4375 29.0625 L 20.4375 29.8125 L 19.71875 29.8125 L 19.71875 29.0625 z M 27.5625 29.0625 L 28.28125 29.0625 L 28.28125 29.8125 L 27.5625 29.8125 L 27.5625 29.0625 z M 19.71875 30.53125 L 20.4375 30.53125 L 20.4375 31.28125 L 19.71875 31.28125 L 19.71875 30.53125 z M 27.5625 30.53125 L 28.28125 30.53125 L 28.28125 31.28125 L 27.5625 31.28125 L 27.5625 30.53125 z "
     id="rect3032-8" />
</svg>
