<svg xmlns="http://www.w3.org/2000/svg" xmlns:xlink="http://www.w3.org/1999/xlink" height="64" width="64"><defs><linearGradient id="c"><stop offset="0" style="stop-color:#64baff;stop-opacity:1"/><stop offset="1" style="stop-color:#3689e6;stop-opacity:1"/></linearGradient><linearGradient gradientTransform="matrix(1.43243 0 0 1.43628 -2.378 -2.47)" gradientUnits="userSpaceOnUse" xlink:href="#a" id="k" y2="43" x2="24" y1="5" x1="24"/><linearGradient id="a"><stop offset="0" style="stop-color:#fff;stop-opacity:1"/><stop offset=".063" style="stop-color:#fff;stop-opacity:.23529412"/><stop offset=".951" style="stop-color:#fff;stop-opacity:.15686275"/><stop offset="1" style="stop-color:#fff;stop-opacity:.39215687"/></linearGradient><linearGradient id="e"><stop offset="0" style="stop-color:#181818;stop-opacity:1"/><stop offset="1" style="stop-color:#181818;stop-opacity:0"/></linearGradient><linearGradient id="f"><stop offset="0" style="stop-color:#181818;stop-opacity:1"/><stop offset="1" style="stop-color:#181818;stop-opacity:0"/></linearGradient><linearGradient id="b"><stop offset="0" style="stop-color:#181818;stop-opacity:0"/><stop offset=".5" style="stop-color:#181818;stop-opacity:1"/><stop offset="1" style="stop-color:#181818;stop-opacity:0"/></linearGradient><linearGradient gradientTransform="matrix(.99524 0 0 1 .114 0)" gradientUnits="userSpaceOnUse" xlink:href="#b" id="i" y2="39.999" x2="25.058" y1="47.028" x1="25.058"/><linearGradient gradientUnits="userSpaceOnUse" y2="59.185" x2="31.585" y1="4.63" x1="31.585" id="j" xlink:href="#c"/><linearGradient gradientUnits="userSpaceOnUse" y2="48" x2="32" y1="15" x1="32" id="l" xlink:href="#d"/><linearGradient id="d"><stop offset="0" style="stop-color:#fff;stop-opacity:1"/><stop offset="1" style="stop-color:#fafafa;stop-opacity:1"/></linearGradient><radialGradient gradientTransform="matrix(2.0305 0 0 1.4 27.788 -17.4)" gradientUnits="userSpaceOnUse" xlink:href="#e" id="g" fy="43.5" fx="4.993" r="2.5" cy="43.5" cx="4.993"/><radialGradient gradientTransform="matrix(2.0305 0 0 1.4 -20.212 -104.4)" gradientUnits="userSpaceOnUse" xlink:href="#f" id="h" fy="43.5" fx="4.993" r="2.5" cy="43.5" cx="4.993"/></defs><g style="opacity:.6"><path style="fill:url(#g);fill-opacity:1;stroke:none;stroke-width:1" d="M37.933 40H43v7h-5.067z" transform="matrix(1.57895 0 0 .71429 -5.895 27.929)"/><path transform="matrix(-1.57895 0 0 -.71429 -5.895 27.929)" style="fill:url(#h);fill-opacity:1;stroke:none;stroke-width:1" d="M-10.067-47H-5v7h-5.067z"/><path style="fill:url(#i);fill-opacity:1;stroke:none;stroke-width:1" d="M10.067 40h27.867v7H10.067z" transform="matrix(1.57895 0 0 .71429 -5.895 27.929)"/></g><rect width="55" height="55" rx="3" ry="3" x="4.5" y="4.5" style="color:#000;display:inline;overflow:visible;visibility:visible;opacity:1;fill:url(#j);fill-opacity:1;fill-rule:nonzero;stroke:none;stroke-width:.99999994;marker:none;enable-background:accumulate"/><rect width="53" height="53.142" rx="2" ry="2" x="5.5" y="5.429" style="opacity:.5;fill:none;stroke:url(#k);stroke-width:1;stroke-linecap:round;stroke-linejoin:round;stroke-miterlimit:4;stroke-dasharray:none;stroke-dashoffset:0;stroke-opacity:1"/><rect width="55" height="55" rx="3" ry="3" x="4.5" y="4.5" style="color:#000;display:inline;overflow:visible;visibility:visible;opacity:.5;fill:none;stroke:#002e99;stroke-width:1;stroke-linecap:round;stroke-linejoin:round;stroke-miterlimit:4;stroke-dasharray:none;stroke-dashoffset:0;stroke-opacity:1;marker:none;enable-background:accumulate"/><path style="color:#000;clip-rule:nonzero;display:inline;overflow:visible;visibility:visible;opacity:.15;isolation:auto;mix-blend-mode:normal;color-interpolation:sRGB;color-interpolation-filters:linearRGB;solid-color:#000;solid-opacity:1;fill:#002e99;fill-opacity:1;fill-rule:nonzero;stroke:#002e99;stroke-width:2;stroke-linecap:round;stroke-linejoin:round;stroke-miterlimit:4;stroke-dasharray:none;stroke-dashoffset:0;stroke-opacity:1;marker:none;color-rendering:auto;image-rendering:auto;shape-rendering:auto;text-rendering:auto;enable-background:accumulate" d="M17 16c-1.662 0-3 1.338-3 3v22c0 1.662 1.338 3 3 3h9.469l2.256 2.213 2.623 2.574c.29.284 1.014.284 1.304 0l2.623-2.574L37.531 44H47c1.662 0 3-1.338 3-3V19c0-1.662-1.338-3-3-3zm15 4a10 10 0 0 1 10 10 10 10 0 0 1-10 10 10 10 0 0 1-10-10 10 10 0 0 1 10-10zm0 1.734A8.264 8.264 0 0 0 23.734 30 8.264 8.264 0 0 0 32 38.265 8.264 8.264 0 0 0 40.266 30 8.264 8.264 0 0 0 32 21.734Zm0 1.19a3.719 3.719 0 0 1 3.72 3.718 3.719 3.719 0 0 1-3.72 3.72 3.719 3.719 0 0 1-3.72-3.72A3.719 3.719 0 0 1 32 22.924Zm0 8.523a7.438 7.438 0 0 1 5.955 2.994A7.438 7.438 0 0 1 32 37.437a7.438 7.438 0 0 1-5.955-2.994A7.438 7.438 0 0 1 32 31.447Z"/><path d="M17 16c-1.662 0-3 1.338-3 3v22c0 1.662 1.338 3 3 3h9.469l2.256 2.213 2.623 2.574c.29.284 1.014.284 1.304 0l2.623-2.574L37.531 44H47c1.662 0 3-1.338 3-3V19c0-1.662-1.338-3-3-3zm15 4a10 10 0 0 1 10 10 10 10 0 0 1-10 10 10 10 0 0 1-10-10 10 10 0 0 1 10-10zm0 1.734A8.264 8.264 0 0 0 23.734 30 8.264 8.264 0 0 0 32 38.265 8.264 8.264 0 0 0 40.266 30 8.264 8.264 0 0 0 32 21.734Zm0 1.19a3.719 3.719 0 0 1 3.72 3.718 3.719 3.719 0 0 1-3.72 3.72 3.719 3.719 0 0 1-3.72-3.72A3.719 3.719 0 0 1 32 22.924Zm0 8.523a7.438 7.438 0 0 1 5.955 2.994A7.438 7.438 0 0 1 32 37.437a7.438 7.438 0 0 1-5.955-2.994A7.438 7.438 0 0 1 32 31.447Z" style="color:#000;clip-rule:nonzero;display:inline;overflow:visible;visibility:visible;opacity:.3;isolation:auto;mix-blend-mode:normal;color-interpolation:sRGB;color-interpolation-filters:linearRGB;solid-color:#000;solid-opacity:1;fill:#002e99;fill-opacity:1;fill-rule:nonzero;stroke:none;stroke-width:1;stroke-linecap:round;stroke-linejoin:round;stroke-miterlimit:4;stroke-dasharray:none;stroke-dashoffset:0;stroke-opacity:1;marker:none;color-rendering:auto;image-rendering:auto;shape-rendering:auto;text-rendering:auto;enable-background:accumulate"/><path style="color:#000;clip-rule:nonzero;display:inline;overflow:visible;visibility:visible;opacity:1;isolation:auto;mix-blend-mode:normal;color-interpolation:sRGB;color-interpolation-filters:linearRGB;solid-color:#000;solid-opacity:1;fill:url(#l);fill-opacity:1;fill-rule:nonzero;stroke:none;stroke-width:1;stroke-linecap:round;stroke-linejoin:round;stroke-miterlimit:4;stroke-dasharray:none;stroke-dashoffset:0;stroke-opacity:1;marker:none;color-rendering:auto;image-rendering:auto;shape-rendering:auto;text-rendering:auto;enable-background:accumulate" d="M17 15c-1.662 0-3 1.338-3 3v22c0 1.662 1.338 3 3 3h9.469l2.256 2.213 2.623 2.574c.29.284 1.014.284 1.304 0l2.623-2.574L37.531 43H47c1.662 0 3-1.338 3-3V18c0-1.662-1.338-3-3-3zm15 4a10 10 0 0 1 10 10 10 10 0 0 1-10 10 10 10 0 0 1-10-10 10 10 0 0 1 10-10zm0 1.734A8.264 8.264 0 0 0 23.734 29 8.264 8.264 0 0 0 32 37.265 8.264 8.264 0 0 0 40.266 29 8.264 8.264 0 0 0 32 20.734Zm0 1.19a3.719 3.719 0 0 1 3.72 3.718 3.719 3.719 0 0 1-3.72 3.72 3.719 3.719 0 0 1-3.72-3.72A3.719 3.719 0 0 1 32 21.924Zm0 8.523a7.438 7.438 0 0 1 5.955 2.994A7.438 7.438 0 0 1 32 36.437a7.438 7.438 0 0 1-5.955-2.994A7.438 7.438 0 0 1 32 30.447Z"/></svg>