<svg xmlns="http://www.w3.org/2000/svg" xmlns:xlink="http://www.w3.org/1999/xlink" height="64" width="64"><defs><linearGradient id="c"><stop offset="0" style="stop-color:#9bdb4d;stop-opacity:1"/><stop offset="1" style="stop-color:#68b723;stop-opacity:1"/></linearGradient><linearGradient gradientTransform="matrix(1.43243 0 0 1.43628 -2.378 -2.47)" gradientUnits="userSpaceOnUse" xlink:href="#a" id="j" y2="43" x2="24" y1="5" x1="24"/><linearGradient id="a"><stop offset="0" style="stop-color:#fff;stop-opacity:1"/><stop offset=".063" style="stop-color:#fff;stop-opacity:.23529412"/><stop offset=".951" style="stop-color:#fff;stop-opacity:.15686275"/><stop offset="1" style="stop-color:#fff;stop-opacity:.39215687"/></linearGradient><linearGradient id="d"><stop offset="0" style="stop-color:#181818;stop-opacity:1"/><stop offset="1" style="stop-color:#181818;stop-opacity:0"/></linearGradient><linearGradient id="e"><stop offset="0" style="stop-color:#181818;stop-opacity:1"/><stop offset="1" style="stop-color:#181818;stop-opacity:0"/></linearGradient><linearGradient id="b"><stop offset="0" style="stop-color:#181818;stop-opacity:0"/><stop offset=".5" style="stop-color:#181818;stop-opacity:1"/><stop offset="1" style="stop-color:#181818;stop-opacity:0"/></linearGradient><linearGradient gradientTransform="matrix(.99524 0 0 1 .114 0)" gradientUnits="userSpaceOnUse" xlink:href="#b" id="h" y2="39.999" x2="25.058" y1="47.028" x1="25.058"/><linearGradient gradientUnits="userSpaceOnUse" y2="59.185" x2="31.585" y1="4.63" x1="31.585" id="i" xlink:href="#c"/><radialGradient gradientTransform="matrix(2.0305 0 0 1.4 27.788 -17.4)" gradientUnits="userSpaceOnUse" xlink:href="#d" id="f" fy="43.5" fx="4.993" r="2.5" cy="43.5" cx="4.993"/><radialGradient gradientTransform="matrix(2.0305 0 0 1.4 -20.212 -104.4)" gradientUnits="userSpaceOnUse" xlink:href="#e" id="g" fy="43.5" fx="4.993" r="2.5" cy="43.5" cx="4.993"/></defs><g style="opacity:.6"><path style="fill:url(#f);fill-opacity:1;stroke:none;stroke-width:1" d="M37.933 40H43v7h-5.067z" transform="matrix(1.57895 0 0 .71429 -5.895 27.929)"/><path transform="matrix(-1.57895 0 0 -.71429 -5.895 27.929)" style="fill:url(#g);fill-opacity:1;stroke:none;stroke-width:1" d="M-10.067-47H-5v7h-5.067z"/><path style="fill:url(#h);fill-opacity:1;stroke:none;stroke-width:1" d="M10.067 40h27.867v7H10.067z" transform="matrix(1.57895 0 0 .71429 -5.895 27.929)"/></g><rect width="55" height="55" rx="3" ry="3" x="4.5" y="4.5" style="color:#000;display:inline;overflow:visible;visibility:visible;opacity:1;fill:url(#i);fill-opacity:1;fill-rule:nonzero;stroke:none;stroke-width:.99999994;marker:none;enable-background:accumulate"/><rect width="53" height="53.142" rx="2" ry="2" x="5.5" y="5.429" style="opacity:.5;fill:none;stroke:url(#j);stroke-width:1;stroke-linecap:round;stroke-linejoin:round;stroke-miterlimit:4;stroke-dasharray:none;stroke-dashoffset:0;stroke-opacity:1"/><rect width="55" height="55" rx="3" ry="3" x="4.5" y="4.5" style="color:#000;display:inline;overflow:visible;visibility:visible;opacity:.5;fill:none;stroke:#206b00;stroke-width:1;stroke-linecap:round;stroke-linejoin:round;stroke-miterlimit:4;stroke-dasharray:none;stroke-dashoffset:0;stroke-opacity:1;marker:none;enable-background:accumulate"/><path d="M32 15c-.253 0-.42.11-.552.215a2.197 2.197 0 0 0-.354.368 8.454 8.454 0 0 0-.698 1.077c-.49.864-1.037 1.995-1.577 3.142-.54 1.148-1.072 2.311-1.517 3.219-.223.454-.424.845-.588 1.129-.163.284-.347.48-.287.433.06-.046-.165.073-.47.148a18.1 18.1 0 0 1-1.199.238c-.957.164-2.173.337-3.38.523-1.205.185-2.399.382-3.335.606-.467.112-.87.227-1.197.366-.329.14-.657.248-.798.707-.142.458.06.726.245 1.037a8.4 8.4 0 0 0 .759 1.031c.63.758 1.485 1.654 2.356 2.548.872.895 1.76 1.786 2.444 2.51.341.363.633.685.84.936.206.251.324.485.306.427-.018-.058.016.21-.01.542-.027.332-.081.772-.155 1.277-.148 1.01-.368 2.28-.573 3.542-.205 1.261-.394 2.514-.481 3.514-.043.5-.062.936-.038 1.3.012.182.032.347.08.508.047.162.115.342.312.492.197.15.397.168.567.165.17-.003.33-.034.502-.08a7.82 7.82 0 0 0 1.175-.443c.881-.397 1.956-.974 3.035-1.569 1.08-.595 2.159-1.208 3.025-1.667.434-.229.815-.42 1.104-.547.29-.128.544-.171.459-.171-.086 0 .17.043.46.17.29.128.671.319 1.104.548.867.46 1.947 1.072 3.025 1.667 1.08.595 2.154 1.172 3.036 1.569.44.198.83.353 1.175.444.172.045.333.076.502.079.17.003.37-.014.567-.165.197-.15.265-.33.312-.492.047-.161.067-.326.08-.508.023-.364.005-.8-.038-1.3-.087-1-.277-2.253-.481-3.514-.205-1.262-.426-2.533-.573-3.542a21.38 21.38 0 0 1-.157-1.277c-.026-.332.01-.6-.008-.542-.018.058.1-.176.306-.427.207-.251.498-.573.84-.935.683-.725 1.57-1.616 2.442-2.51.871-.895 1.725-1.791 2.356-2.549.315-.378.575-.72.76-1.03.186-.312.386-.58.244-1.038-.142-.459-.468-.567-.796-.707a7.805 7.805 0 0 0-1.2-.366c-.936-.224-2.128-.421-3.333-.606-1.206-.186-2.422-.36-3.38-.523a18.104 18.104 0 0 1-1.197-.238c-.306-.075-.533-.194-.473-.148.06.046-.122-.149-.286-.433a20.329 20.329 0 0 1-.587-1.13c-.445-.907-.977-2.07-1.517-3.218-.54-1.147-1.087-2.278-1.577-3.142a8.454 8.454 0 0 0-.698-1.077 2.207 2.207 0 0 0-.356-.368C32.419 15.11 32.253 15 32 15z" style="color:#000;font-style:normal;font-variant:normal;font-weight:400;font-stretch:normal;font-size:medium;line-height:normal;font-family:sans-serif;font-variant-ligatures:normal;font-variant-position:normal;font-variant-caps:normal;font-variant-numeric:normal;font-variant-alternates:normal;font-feature-settings:normal;text-indent:0;text-align:start;text-decoration:none;text-decoration-line:none;text-decoration-style:solid;text-decoration-color:#000;letter-spacing:normal;word-spacing:normal;text-transform:none;writing-mode:lr-tb;direction:ltr;text-orientation:mixed;dominant-baseline:auto;baseline-shift:baseline;text-anchor:start;white-space:normal;shape-padding:0;clip-rule:nonzero;display:inline;overflow:visible;visibility:visible;opacity:1;isolation:auto;mix-blend-mode:normal;color-interpolation:sRGB;color-interpolation-filters:linearRGB;solid-color:#000;solid-opacity:1;vector-effect:none;fill:#fff;fill-opacity:1;fill-rule:nonzero;stroke:none;stroke-width:.99999982;stroke-linecap:butt;stroke-linejoin:round;stroke-miterlimit:4;stroke-dasharray:none;stroke-dashoffset:0;stroke-opacity:1;marker:none;color-rendering:auto;image-rendering:auto;shape-rendering:auto;text-rendering:auto;enable-background:accumulate"/></svg>