<svg xmlns="http://www.w3.org/2000/svg" xmlns:xlink="http://www.w3.org/1999/xlink" width="64" height="64"><defs><linearGradient id="f"><stop offset="0" style="stop-color:#000;stop-opacity:1"/><stop offset="1" style="stop-color:#000;stop-opacity:0"/></linearGradient><linearGradient id="c"><stop style="stop-color:#64baff;stop-opacity:1" offset="0"/><stop style="stop-color:#3689e6;stop-opacity:1" offset="1"/></linearGradient><linearGradient id="b"><stop offset="0" style="stop-color:#fff;stop-opacity:1"/><stop offset="1" style="stop-color:#fafafa;stop-opacity:1"/></linearGradient><linearGradient xlink:href="#a" id="k" gradientUnits="userSpaceOnUse" gradientTransform="matrix(1.43243 0 0 1.43628 -2.378 -2.47)" x1="24" y1="5.909" x2="24" y2="43.495"/><linearGradient id="a"><stop offset="0" style="stop-color:#fff;stop-opacity:1"/><stop offset=".035" style="stop-color:#fff;stop-opacity:.23529412"/><stop offset=".962" style="stop-color:#fff;stop-opacity:.15686275"/><stop offset="1" style="stop-color:#fff;stop-opacity:.39215687"/></linearGradient><linearGradient id="d"><stop style="stop-color:#181818;stop-opacity:1" offset="0"/><stop style="stop-color:#181818;stop-opacity:0" offset="1"/></linearGradient><linearGradient id="e"><stop style="stop-color:#181818;stop-opacity:1" offset="0"/><stop style="stop-color:#181818;stop-opacity:0" offset="1"/></linearGradient><linearGradient gradientTransform="translate(0 1)" gradientUnits="userSpaceOnUse" y2="42" x2="32" y1="10" x1="32" id="l" xlink:href="#b"/><linearGradient gradientUnits="userSpaceOnUse" y2="60" x2="32" y1="4.5" x1="32" id="j" xlink:href="#c"/><radialGradient cx="4.993" cy="43.5" r="2.5" fx="4.993" fy="43.5" id="h" xlink:href="#d" gradientUnits="userSpaceOnUse" gradientTransform="matrix(2.00378 0 0 1.4 27.988 -17.4)"/><radialGradient cx="4.993" cy="43.5" r="2.5" fx="4.993" fy="43.5" id="i" xlink:href="#e" gradientUnits="userSpaceOnUse" gradientTransform="matrix(2.00378 0 0 1.4 -48.012 -104.4)"/><radialGradient gradientUnits="userSpaceOnUse" gradientTransform="matrix(1 0 0 .10714 0 53.625)" r="28" fy="59.5" fx="32" cy="59.5" cx="32" id="g" xlink:href="#f"/></defs><ellipse ry="3" rx="28" cy="60" cx="32" style="opacity:.1;vector-effect:none;fill:url(#g);fill-opacity:1;stroke:none;stroke-width:1;stroke-linecap:round;stroke-linejoin:round;stroke-miterlimit:4;stroke-dasharray:none;stroke-dashoffset:0;stroke-opacity:1"/><g style="opacity:.4"><path style="fill:url(#h);fill-opacity:1;stroke:none" d="M38 40h5v7h-5z" transform="matrix(1.57895 0 0 .71429 -28 28.429)"/><path transform="matrix(-1.57895 0 0 -.71429 -28 28.429)" style="fill:url(#i);fill-opacity:1;stroke:none" d="M-38-47h5v7h-5z"/></g><path d="M7.5 4.5c-1.662 0-3 1.338-3 3V46c0 1.662 1.338 3 3 3h12.574l4.442 4.377 6.338 6.246c.51.502 1.782.502 2.292 0l6.338-6.246L43.926 49H56.5c1.662 0 3-1.338 3-3V7.5c0-1.662-1.338-3-3-3z" style="color:#000;display:inline;overflow:visible;visibility:visible;fill:url(#j);fill-opacity:1;fill-rule:nonzero;stroke:none;stroke-width:.99999994;marker:none;enable-background:accumulate"/><path style="color:#000;clip-rule:nonzero;display:inline;overflow:visible;visibility:visible;opacity:.15;isolation:auto;mix-blend-mode:normal;color-interpolation:sRGB;color-interpolation-filters:linearRGB;solid-color:#000;solid-opacity:1;fill:#002e99;fill-opacity:1;fill-rule:nonzero;stroke:#002e99;stroke-width:2;stroke-linecap:round;stroke-linejoin:round;stroke-miterlimit:4;stroke-dasharray:none;stroke-dashoffset:0;stroke-opacity:1;marker:none;color-rendering:auto;image-rendering:auto;shape-rendering:auto;text-rendering:auto;enable-background:accumulate" d="M32 12a16 16 0 0 0-16 16 16 16 0 0 0 16 16 16 16 0 0 0 16-16 16 16 0 0 0-16-16Zm0 1.455a14.545 14.545 0 0 0-1.25.062 14.545 14.545 0 0 1 1.25-.062zm1.25.062a14.545 14.545 0 0 1 .662.08 14.545 14.545 0 0 0-.662-.08Zm-3.162.08a14.545 14.545 0 0 0-.781.119 14.545 14.545 0 0 1 .781-.12zm4.605.119a14.545 14.545 0 0 1 .69.153 14.545 14.545 0 0 0-.69-.153zm-6.077.153a14.545 14.545 0 0 0-.71.185 14.545 14.545 0 0 1 .71-.185zm7.478.185a14.545 14.545 0 0 1 .693.227 14.545 14.545 0 0 0-.693-.227zm-8.88.227a14.545 14.545 0 0 0-.669.245 14.545 14.545 0 0 1 .668-.245zm10.24.245a14.545 14.545 0 0 1 .7.312 14.545 14.545 0 0 0-.7-.312zm-5.454.25A13.223 13.223 0 0 1 45.224 28 13.223 13.223 0 0 1 32 41.224 13.223 13.223 0 0 1 18.776 28 13.223 13.223 0 0 1 32 14.776Zm-6.153.062a14.545 14.545 0 0 0-.623.301 14.545 14.545 0 0 1 .623-.3zm12.929.301a14.545 14.545 0 0 1 .676.39 14.545 14.545 0 0 0-.676-.39zm-14.228.39a14.545 14.545 0 0 0-.562.343 14.545 14.545 0 0 1 .562-.344zm15.466.343a14.545 14.545 0 0 1 .602.43 14.545 14.545 0 0 0-.602-.43zm-16.63.43a14.545 14.545 0 0 0-.603.46 14.545 14.545 0 0 1 .603-.46zm8.616.377a5.95 5.95 0 0 0-5.952 5.949A5.95 5.95 0 0 0 32 28.58a5.95 5.95 0 0 0 5.952-5.952A5.95 5.95 0 0 0 32 16.679Zm9.219.082a14.545 14.545 0 0 1 .5.44 14.545 14.545 0 0 0-.5-.44zm-18.938.44a14.545 14.545 0 0 0-.56.52 14.545 14.545 0 0 1 .56-.52zm19.997.52a14.545 14.545 0 0 1 .52.56 14.545 14.545 0 0 0-.52-.56zm-21.076.56a14.545 14.545 0 0 0-.44.5 14.545 14.545 0 0 1 .44-.5zm22.037.5a14.545 14.545 0 0 1 .46.603 14.545 14.545 0 0 0-.46-.603zm-22.938.603a14.545 14.545 0 0 0-.429.602 14.545 14.545 0 0 1 .43-.602Zm23.827.602a14.545 14.545 0 0 1 .344.562 14.545 14.545 0 0 0-.344-.562zm-24.6.562a14.545 14.545 0 0 0-.389.676 14.545 14.545 0 0 1 .39-.676zm25.333.676a14.545 14.545 0 0 1 .3.623 14.545 14.545 0 0 0-.3-.623zm-26.023.623a14.545 14.545 0 0 0-.312.698 14.545 14.545 0 0 1 .312-.698zm26.636.698a14.545 14.545 0 0 1 .245.668 14.545 14.545 0 0 0-.245-.668zm-27.193.668a14.545 14.545 0 0 0-.227.693 14.545 14.545 0 0 1 .227-.693zm27.665.693a14.545 14.545 0 0 1 .185.71 14.545 14.545 0 0 0-.185-.71zm-28.077.71a14.545 14.545 0 0 0-.153.69 14.545 14.545 0 0 1 .153-.69zm28.415.69a14.545 14.545 0 0 1 .12.782 14.545 14.545 0 0 0-.12-.781zm-28.687.782a14.545 14.545 0 0 0-.08.662 14.545 14.545 0 0 1 .08-.662Zm28.886.662a14.545 14.545 0 0 1 .062 1.25 14.545 14.545 0 0 0-.062-1.25zM17.455 28a14.545 14.545 0 0 0 .062 1.25 14.545 14.545 0 0 1-.062-1.25zm29.028 1.25a14.545 14.545 0 0 1-.08.662 14.545 14.545 0 0 0 .08-.662zm-28.886.662a14.545 14.545 0 0 0 .119.781 14.545 14.545 0 0 1-.12-.781zM32 30.315a11.9 11.9 0 0 0-9.528 4.796A11.9 11.9 0 0 0 32 39.9a11.9 11.9 0 0 0 9.528-4.796A11.9 11.9 0 0 0 32 30.315Zm14.284.378a14.545 14.545 0 0 1-.153.69 14.545 14.545 0 0 0 .153-.69zm-28.415.69a14.545 14.545 0 0 0 .185.71 14.545 14.545 0 0 1-.185-.71zm28.077.71a14.545 14.545 0 0 1-.227.694 14.545 14.545 0 0 0 .227-.693zm-27.665.694a14.545 14.545 0 0 0 .245.668 14.545 14.545 0 0 1-.245-.668zm27.193.668a14.545 14.545 0 0 1-.312.698 14.545 14.545 0 0 0 .312-.698zm-26.636.698a14.545 14.545 0 0 0 .301.623 14.545 14.545 0 0 1-.3-.623zm26.023.623a14.545 14.545 0 0 1-.39.676 14.545 14.545 0 0 0 .39-.676zm-25.333.676a14.545 14.545 0 0 0 .344.562 14.545 14.545 0 0 1-.344-.562zm24.6.562a14.545 14.545 0 0 1-.43.602 14.545 14.545 0 0 0 .43-.602zm-23.827.602a14.545 14.545 0 0 0 .46.603 14.545 14.545 0 0 1-.46-.603zm22.938.603a14.545 14.545 0 0 1-.44.5 14.545 14.545 0 0 0 .44-.5zm-22.037.5a14.545 14.545 0 0 0 .52.56 14.545 14.545 0 0 1-.52-.56zm21.076.56a14.545 14.545 0 0 1-.56.52 14.545 14.545 0 0 0 .56-.52zm-19.997.52a14.545 14.545 0 0 0 .5.44 14.545 14.545 0 0 1-.5-.44zm18.938.44a14.545 14.545 0 0 1-.603.46 14.545 14.545 0 0 0 .603-.46zm-17.835.46a14.545 14.545 0 0 0 .602.429 14.545 14.545 0 0 1-.602-.43zm16.63.429a14.545 14.545 0 0 1-.562.344 14.545 14.545 0 0 0 .562-.344zm-15.466.344a14.545 14.545 0 0 0 .676.389 14.545 14.545 0 0 1-.676-.39zm14.228.389a14.545 14.545 0 0 1-.623.3 14.545 14.545 0 0 0 .623-.3zm-12.93.3a14.545 14.545 0 0 0 .7.313 14.545 14.545 0 0 1-.7-.312zm11.609.313a14.545 14.545 0 0 1-.668.245 14.545 14.545 0 0 0 .668-.245zm-10.242.245a14.545 14.545 0 0 0 .693.227 14.545 14.545 0 0 1-.693-.227zm8.88.227a14.545 14.545 0 0 1-.71.185 14.545 14.545 0 0 0 .71-.185zm-7.477.185a14.545 14.545 0 0 0 .69.153 14.545 14.545 0 0 1-.69-.153zm6.077.153a14.545 14.545 0 0 1-.781.12 14.545 14.545 0 0 0 .781-.12zm-4.605.12a14.545 14.545 0 0 0 .662.079 14.545 14.545 0 0 1-.662-.08Zm3.162.079a14.545 14.545 0 0 1-1.25.062 14.545 14.545 0 0 0 1.25-.062z"/><path d="M7.5 5.43c-1.108 0-2 .892-2 2V46c0 1.108.892 2 2 2h12.97l4.046 3.986 6.338 6.244c1.147 1.148 1.145 1.128 2.292 0l6.338-6.244L43.53 48H56.5c1.108 0 2-.892 2-2V7.43c0-1.108-.892-2-2-2z" style="opacity:.3;fill:none;stroke:url(#k);stroke-width:1;stroke-linecap:round;stroke-linejoin:round;stroke-miterlimit:4;stroke-dasharray:none;stroke-dashoffset:0;stroke-opacity:1"/><path d="M7.5 4.5c-1.662 0-3 1.338-3 3V46c0 1.662 1.338 3 3 3h12.574l4.442 4.377 6.338 6.246c.51.502 1.782.502 2.292 0l6.338-6.246L43.926 49H56.5c1.662 0 3-1.338 3-3V7.5c0-1.662-1.338-3-3-3z" style="color:#000;display:inline;overflow:visible;visibility:visible;opacity:.5;fill:none;stroke:#002e99;stroke-width:1;stroke-linecap:round;stroke-linejoin:round;stroke-miterlimit:4;stroke-dasharray:none;stroke-dashoffset:0;stroke-opacity:1;marker:none;enable-background:accumulate"/><path d="M32 12a16 16 0 0 0-16 16 16 16 0 0 0 16 16 16 16 0 0 0 16-16 16 16 0 0 0-16-16Zm0 1.455a14.545 14.545 0 0 0-1.25.062 14.545 14.545 0 0 1 1.25-.062zm1.25.062a14.545 14.545 0 0 1 .662.08 14.545 14.545 0 0 0-.662-.08Zm-3.162.08a14.545 14.545 0 0 0-.781.119 14.545 14.545 0 0 1 .781-.12zm4.605.119a14.545 14.545 0 0 1 .69.153 14.545 14.545 0 0 0-.69-.153zm-6.077.153a14.545 14.545 0 0 0-.71.185 14.545 14.545 0 0 1 .71-.185zm7.478.185a14.545 14.545 0 0 1 .693.227 14.545 14.545 0 0 0-.693-.227zm-8.88.227a14.545 14.545 0 0 0-.669.245 14.545 14.545 0 0 1 .668-.245zm10.24.245a14.545 14.545 0 0 1 .7.312 14.545 14.545 0 0 0-.7-.312zm-5.454.25A13.223 13.223 0 0 1 45.224 28 13.223 13.223 0 0 1 32 41.224 13.223 13.223 0 0 1 18.776 28 13.223 13.223 0 0 1 32 14.776Zm-6.153.062a14.545 14.545 0 0 0-.623.301 14.545 14.545 0 0 1 .623-.3zm12.929.301a14.545 14.545 0 0 1 .676.39 14.545 14.545 0 0 0-.676-.39zm-14.228.39a14.545 14.545 0 0 0-.562.343 14.545 14.545 0 0 1 .562-.344zm15.466.343a14.545 14.545 0 0 1 .602.43 14.545 14.545 0 0 0-.602-.43zm-16.63.43a14.545 14.545 0 0 0-.603.46 14.545 14.545 0 0 1 .603-.46zm8.616.377a5.95 5.95 0 0 0-5.952 5.949A5.95 5.95 0 0 0 32 28.58a5.95 5.95 0 0 0 5.952-5.952A5.95 5.95 0 0 0 32 16.679Zm9.219.082a14.545 14.545 0 0 1 .5.44 14.545 14.545 0 0 0-.5-.44zm-18.938.44a14.545 14.545 0 0 0-.56.52 14.545 14.545 0 0 1 .56-.52zm19.997.52a14.545 14.545 0 0 1 .52.56 14.545 14.545 0 0 0-.52-.56zm-21.076.56a14.545 14.545 0 0 0-.44.5 14.545 14.545 0 0 1 .44-.5zm22.037.5a14.545 14.545 0 0 1 .46.603 14.545 14.545 0 0 0-.46-.603zm-22.938.603a14.545 14.545 0 0 0-.429.602 14.545 14.545 0 0 1 .43-.602Zm23.827.602a14.545 14.545 0 0 1 .344.562 14.545 14.545 0 0 0-.344-.562zm-24.6.562a14.545 14.545 0 0 0-.389.676 14.545 14.545 0 0 1 .39-.676zm25.333.676a14.545 14.545 0 0 1 .3.623 14.545 14.545 0 0 0-.3-.623zm-26.023.623a14.545 14.545 0 0 0-.312.698 14.545 14.545 0 0 1 .312-.698zm26.636.698a14.545 14.545 0 0 1 .245.668 14.545 14.545 0 0 0-.245-.668zm-27.193.668a14.545 14.545 0 0 0-.227.693 14.545 14.545 0 0 1 .227-.693zm27.665.693a14.545 14.545 0 0 1 .185.71 14.545 14.545 0 0 0-.185-.71zm-28.077.71a14.545 14.545 0 0 0-.153.69 14.545 14.545 0 0 1 .153-.69zm28.415.69a14.545 14.545 0 0 1 .12.782 14.545 14.545 0 0 0-.12-.781zm-28.687.782a14.545 14.545 0 0 0-.08.662 14.545 14.545 0 0 1 .08-.662Zm28.886.662a14.545 14.545 0 0 1 .062 1.25 14.545 14.545 0 0 0-.062-1.25zM17.455 28a14.545 14.545 0 0 0 .062 1.25 14.545 14.545 0 0 1-.062-1.25zm29.028 1.25a14.545 14.545 0 0 1-.08.662 14.545 14.545 0 0 0 .08-.662zm-28.886.662a14.545 14.545 0 0 0 .119.781 14.545 14.545 0 0 1-.12-.781zM32 30.315a11.9 11.9 0 0 0-9.528 4.796A11.9 11.9 0 0 0 32 39.9a11.9 11.9 0 0 0 9.528-4.796A11.9 11.9 0 0 0 32 30.315Zm14.284.378a14.545 14.545 0 0 1-.153.69 14.545 14.545 0 0 0 .153-.69zm-28.415.69a14.545 14.545 0 0 0 .185.71 14.545 14.545 0 0 1-.185-.71zm28.077.71a14.545 14.545 0 0 1-.227.694 14.545 14.545 0 0 0 .227-.693zm-27.665.694a14.545 14.545 0 0 0 .245.668 14.545 14.545 0 0 1-.245-.668zm27.193.668a14.545 14.545 0 0 1-.312.698 14.545 14.545 0 0 0 .312-.698zm-26.636.698a14.545 14.545 0 0 0 .301.623 14.545 14.545 0 0 1-.3-.623zm26.023.623a14.545 14.545 0 0 1-.39.676 14.545 14.545 0 0 0 .39-.676zm-25.333.676a14.545 14.545 0 0 0 .344.562 14.545 14.545 0 0 1-.344-.562zm24.6.562a14.545 14.545 0 0 1-.43.602 14.545 14.545 0 0 0 .43-.602zm-23.827.602a14.545 14.545 0 0 0 .46.603 14.545 14.545 0 0 1-.46-.603zm22.938.603a14.545 14.545 0 0 1-.44.5 14.545 14.545 0 0 0 .44-.5zm-22.037.5a14.545 14.545 0 0 0 .52.56 14.545 14.545 0 0 1-.52-.56zm21.076.56a14.545 14.545 0 0 1-.56.52 14.545 14.545 0 0 0 .56-.52zm-19.997.52a14.545 14.545 0 0 0 .5.44 14.545 14.545 0 0 1-.5-.44zm18.938.44a14.545 14.545 0 0 1-.603.46 14.545 14.545 0 0 0 .603-.46zm-17.835.46a14.545 14.545 0 0 0 .602.429 14.545 14.545 0 0 1-.602-.43zm16.63.429a14.545 14.545 0 0 1-.562.344 14.545 14.545 0 0 0 .562-.344zm-15.466.344a14.545 14.545 0 0 0 .676.389 14.545 14.545 0 0 1-.676-.39zm14.228.389a14.545 14.545 0 0 1-.623.3 14.545 14.545 0 0 0 .623-.3zm-12.93.3a14.545 14.545 0 0 0 .7.313 14.545 14.545 0 0 1-.7-.312zm11.609.313a14.545 14.545 0 0 1-.668.245 14.545 14.545 0 0 0 .668-.245zm-10.242.245a14.545 14.545 0 0 0 .693.227 14.545 14.545 0 0 1-.693-.227zm8.88.227a14.545 14.545 0 0 1-.71.185 14.545 14.545 0 0 0 .71-.185zm-7.477.185a14.545 14.545 0 0 0 .69.153 14.545 14.545 0 0 1-.69-.153zm6.077.153a14.545 14.545 0 0 1-.781.12 14.545 14.545 0 0 0 .781-.12zm-4.605.12a14.545 14.545 0 0 0 .662.079 14.545 14.545 0 0 1-.662-.08Zm3.162.079a14.545 14.545 0 0 1-1.25.062 14.545 14.545 0 0 0 1.25-.062z" style="color:#000;clip-rule:nonzero;display:inline;overflow:visible;visibility:visible;opacity:.3;isolation:auto;mix-blend-mode:normal;color-interpolation:sRGB;color-interpolation-filters:linearRGB;solid-color:#000;solid-opacity:1;fill:#002e99;fill-opacity:1;fill-rule:nonzero;stroke:none;stroke-width:1;stroke-linecap:round;stroke-linejoin:round;stroke-miterlimit:4;stroke-dasharray:none;stroke-dashoffset:0;stroke-opacity:1;marker:none;color-rendering:auto;image-rendering:auto;shape-rendering:auto;text-rendering:auto;enable-background:accumulate"/><path style="color:#000;clip-rule:nonzero;display:inline;overflow:visible;visibility:visible;opacity:1;isolation:auto;mix-blend-mode:normal;color-interpolation:sRGB;color-interpolation-filters:linearRGB;solid-color:#000;solid-opacity:1;fill:url(#l);fill-opacity:1;fill-rule:nonzero;stroke:none;stroke-width:1;stroke-linecap:round;stroke-linejoin:round;stroke-miterlimit:4;stroke-dasharray:none;stroke-dashoffset:0;stroke-opacity:1;marker:none;color-rendering:auto;image-rendering:auto;shape-rendering:auto;text-rendering:auto;enable-background:accumulate" d="M32 11a16 16 0 0 0-16 16 16 16 0 0 0 16 16 16 16 0 0 0 16-16 16 16 0 0 0-16-16Zm0 1.455a14.545 14.545 0 0 0-1.25.062 14.545 14.545 0 0 1 1.25-.062zm1.25.062a14.545 14.545 0 0 1 .662.08 14.545 14.545 0 0 0-.662-.08Zm-3.162.08a14.545 14.545 0 0 0-.781.119 14.545 14.545 0 0 1 .781-.12zm4.605.119a14.545 14.545 0 0 1 .69.153 14.545 14.545 0 0 0-.69-.153zm-6.077.153a14.545 14.545 0 0 0-.71.185 14.545 14.545 0 0 1 .71-.185zm7.478.185a14.545 14.545 0 0 1 .693.227 14.545 14.545 0 0 0-.693-.227zm-8.88.227a14.545 14.545 0 0 0-.669.245 14.545 14.545 0 0 1 .668-.245zm10.24.245a14.545 14.545 0 0 1 .7.312 14.545 14.545 0 0 0-.7-.312zm-5.454.25A13.223 13.223 0 0 1 45.224 27 13.223 13.223 0 0 1 32 40.224 13.223 13.223 0 0 1 18.776 27 13.223 13.223 0 0 1 32 13.776Zm-6.153.062a14.545 14.545 0 0 0-.623.301 14.545 14.545 0 0 1 .623-.3zm12.929.301a14.545 14.545 0 0 1 .676.39 14.545 14.545 0 0 0-.676-.39zm-14.228.39a14.545 14.545 0 0 0-.562.343 14.545 14.545 0 0 1 .562-.344zm15.466.343a14.545 14.545 0 0 1 .602.43 14.545 14.545 0 0 0-.602-.43zm-16.63.43a14.545 14.545 0 0 0-.603.46 14.545 14.545 0 0 1 .603-.46zm8.616.377a5.95 5.95 0 0 0-5.952 5.949A5.95 5.95 0 0 0 32 27.58a5.95 5.95 0 0 0 5.952-5.952A5.95 5.95 0 0 0 32 15.679Zm9.219.082a14.545 14.545 0 0 1 .5.44 14.545 14.545 0 0 0-.5-.44zm-18.938.44a14.545 14.545 0 0 0-.56.52 14.545 14.545 0 0 1 .56-.52zm19.997.52a14.545 14.545 0 0 1 .52.56 14.545 14.545 0 0 0-.52-.56zm-21.076.56a14.545 14.545 0 0 0-.44.5 14.545 14.545 0 0 1 .44-.5zm22.037.5a14.545 14.545 0 0 1 .46.603 14.545 14.545 0 0 0-.46-.603zm-22.938.603a14.545 14.545 0 0 0-.429.602 14.545 14.545 0 0 1 .43-.602Zm23.827.602a14.545 14.545 0 0 1 .344.562 14.545 14.545 0 0 0-.344-.562zm-24.6.562a14.545 14.545 0 0 0-.389.676 14.545 14.545 0 0 1 .39-.676zm25.333.676a14.545 14.545 0 0 1 .3.623 14.545 14.545 0 0 0-.3-.623zm-26.023.623a14.545 14.545 0 0 0-.312.698 14.545 14.545 0 0 1 .312-.698zm26.636.698a14.545 14.545 0 0 1 .245.668 14.545 14.545 0 0 0-.245-.668zm-27.193.668a14.545 14.545 0 0 0-.227.693 14.545 14.545 0 0 1 .227-.693zm27.665.693a14.545 14.545 0 0 1 .185.71 14.545 14.545 0 0 0-.185-.71zm-28.077.71a14.545 14.545 0 0 0-.153.69 14.545 14.545 0 0 1 .153-.69zm28.415.69a14.545 14.545 0 0 1 .12.782 14.545 14.545 0 0 0-.12-.781zm-28.687.782a14.545 14.545 0 0 0-.08.662 14.545 14.545 0 0 1 .08-.662Zm28.886.662a14.545 14.545 0 0 1 .062 1.25 14.545 14.545 0 0 0-.062-1.25zM17.455 27a14.545 14.545 0 0 0 .062 1.25 14.545 14.545 0 0 1-.062-1.25zm29.028 1.25a14.545 14.545 0 0 1-.08.662 14.545 14.545 0 0 0 .08-.662zm-28.886.662a14.545 14.545 0 0 0 .119.781 14.545 14.545 0 0 1-.12-.781zM32 29.315a11.9 11.9 0 0 0-9.528 4.796A11.9 11.9 0 0 0 32 38.9a11.9 11.9 0 0 0 9.528-4.796A11.9 11.9 0 0 0 32 29.315Zm14.284.378a14.545 14.545 0 0 1-.153.69 14.545 14.545 0 0 0 .153-.69zm-28.415.69a14.545 14.545 0 0 0 .185.71 14.545 14.545 0 0 1-.185-.71zm28.077.71a14.545 14.545 0 0 1-.227.694 14.545 14.545 0 0 0 .227-.693zm-27.665.694a14.545 14.545 0 0 0 .245.668 14.545 14.545 0 0 1-.245-.668zm27.193.668a14.545 14.545 0 0 1-.312.698 14.545 14.545 0 0 0 .312-.698zm-26.636.698a14.545 14.545 0 0 0 .301.623 14.545 14.545 0 0 1-.3-.623zm26.023.623a14.545 14.545 0 0 1-.39.676 14.545 14.545 0 0 0 .39-.676zm-25.333.676a14.545 14.545 0 0 0 .344.562 14.545 14.545 0 0 1-.344-.562zm24.6.562a14.545 14.545 0 0 1-.43.602 14.545 14.545 0 0 0 .43-.602zm-23.827.602a14.545 14.545 0 0 0 .46.603 14.545 14.545 0 0 1-.46-.603zm22.938.603a14.545 14.545 0 0 1-.44.5 14.545 14.545 0 0 0 .44-.5zm-22.037.5a14.545 14.545 0 0 0 .52.56 14.545 14.545 0 0 1-.52-.56zm21.076.56a14.545 14.545 0 0 1-.56.52 14.545 14.545 0 0 0 .56-.52zm-19.997.52a14.545 14.545 0 0 0 .5.44 14.545 14.545 0 0 1-.5-.44zm18.938.44a14.545 14.545 0 0 1-.603.46 14.545 14.545 0 0 0 .603-.46zm-17.835.46a14.545 14.545 0 0 0 .602.429 14.545 14.545 0 0 1-.602-.43zm16.63.429a14.545 14.545 0 0 1-.562.344 14.545 14.545 0 0 0 .562-.344zm-15.466.344a14.545 14.545 0 0 0 .676.389 14.545 14.545 0 0 1-.676-.39zm14.228.389a14.545 14.545 0 0 1-.623.3 14.545 14.545 0 0 0 .623-.3zm-12.93.3a14.545 14.545 0 0 0 .7.313 14.545 14.545 0 0 1-.7-.312zm11.609.313a14.545 14.545 0 0 1-.668.245 14.545 14.545 0 0 0 .668-.245zm-10.242.245a14.545 14.545 0 0 0 .693.227 14.545 14.545 0 0 1-.693-.227zm8.88.227a14.545 14.545 0 0 1-.71.185 14.545 14.545 0 0 0 .71-.185zm-7.477.185a14.545 14.545 0 0 0 .69.153 14.545 14.545 0 0 1-.69-.153zm6.077.153a14.545 14.545 0 0 1-.781.12 14.545 14.545 0 0 0 .781-.12zm-4.605.12a14.545 14.545 0 0 0 .662.079 14.545 14.545 0 0 1-.662-.08Zm3.162.079a14.545 14.545 0 0 1-1.25.062 14.545 14.545 0 0 0 1.25-.062z"/></svg>