<?xml version="1.0" encoding="UTF-8" standalone="no"?>
<!-- Created with Inkscape (http://www.inkscape.org/) -->

<svg
   xmlns:dc="http://purl.org/dc/elements/1.1/"
   xmlns:cc="http://creativecommons.org/ns#"
   xmlns:rdf="http://www.w3.org/1999/02/22-rdf-syntax-ns#"
   xmlns:svg="http://www.w3.org/2000/svg"
   xmlns="http://www.w3.org/2000/svg"
   xmlns:xlink="http://www.w3.org/1999/xlink"
   xmlns:inkscape="http://www.inkscape.org/namespaces/inkscape"
   version="1.1"
   width="24"
   height="24"
   id="svg3874">
  <defs
     id="defs3876">
    <linearGradient
       x1="23.470181"
       y1="11.209872"
       x2="23.470181"
       y2="35.051075"
       id="linearGradient2907"
       xlink:href="#linearGradient3881"
       gradientUnits="userSpaceOnUse"
       gradientTransform="matrix(0.77056228,0,0,0.77077837,-4.5546733,17.801037)" />
    <linearGradient
       id="linearGradient3881">
      <stop
         id="stop3883"
         style="stop-color:#ffffff;stop-opacity:1"
         offset="0" />
      <stop
         id="stop3885"
         style="stop-color:#ffffff;stop-opacity:0.23529412"
         offset="0.33380178" />
      <stop
         id="stop3887"
         style="stop-color:#ffffff;stop-opacity:0.15686275"
         offset="0.67927718" />
      <stop
         id="stop3889"
         style="stop-color:#ffffff;stop-opacity:0.39215687"
         offset="1" />
    </linearGradient>
    <linearGradient
       x1="11.566265"
       y1="22.292103"
       x2="15.214532"
       y2="33.95525"
       id="linearGradient3683"
       xlink:href="#linearGradient8265-821-176-38-919-66-249"
       gradientUnits="userSpaceOnUse"
       gradientTransform="matrix(0.4893617,0,0,0.4893617,1.7131795,22.728095)" />
    <linearGradient
       id="linearGradient8265-821-176-38-919-66-249">
      <stop
         id="stop2687"
         style="stop-color:#ffffff;stop-opacity:0.27450982"
         offset="0" />
      <stop
         id="stop2689"
         style="stop-color:#ffffff;stop-opacity:0"
         offset="1" />
    </linearGradient>
    <radialGradient
       cx="13.138569"
       cy="25.625349"
       r="13.931416"
       fx="13.138569"
       fy="25.625349"
       id="radialGradient3627"
       xlink:href="#linearGradient3846"
       gradientUnits="userSpaceOnUse"
       gradientTransform="matrix(0,1.2347038,-1.4762672,0,46.15859,-3.609815)" />
    <linearGradient
       id="linearGradient3846">
      <stop
         id="stop3848"
         style="stop-color:#fff3cb;stop-opacity:1"
         offset="0" />
      <stop
         id="stop3850"
         style="stop-color:#fdde76;stop-opacity:1"
         offset="0.26238" />
      <stop
         id="stop3852"
         style="stop-color:#f9c440;stop-opacity:1"
         offset="0.66093999" />
      <stop
         id="stop3854"
         style="stop-color:#e48b20;stop-opacity:1"
         offset="1" />
    </linearGradient>
    <linearGradient
       x1="21.483376"
       y1="36.255058"
       x2="21.483376"
       y2="9.5799999"
       id="linearGradient3629"
       xlink:href="#linearGradient3856"
       gradientUnits="userSpaceOnUse"
       gradientTransform="matrix(0.77056228,0,0,0.77077837,-4.5542786,1.800642)" />
    <linearGradient
       id="linearGradient3856">
      <stop
         id="stop3858"
         style="stop-color:#b67926;stop-opacity:1"
         offset="0" />
      <stop
         id="stop3860"
         style="stop-color:#eab41a;stop-opacity:1"
         offset="1" />
    </linearGradient>
    <linearGradient
       id="linearGradient8838">
      <stop
         id="stop8840"
         style="stop-color:#000000;stop-opacity:1"
         offset="0" />
      <stop
         id="stop8842"
         style="stop-color:#000000;stop-opacity:0"
         offset="1" />
    </linearGradient>
    <radialGradient
       cx="62.625"
       cy="4.625"
       r="10.625"
       fx="62.625"
       fy="4.625"
       id="radialGradient3872"
       xlink:href="#linearGradient8838"
       gradientUnits="userSpaceOnUse"
       gradientTransform="matrix(1.0352941,0,0,0.42352883,-52.835297,25.541176)" />
    <linearGradient
       x1="24.138529"
       y1="7.0478544"
       x2="24.138529"
       y2="39.268391"
       id="linearGradient5530"
       xlink:href="#linearGradient4154"
       gradientUnits="userSpaceOnUse"
       gradientTransform="matrix(0.2817955,0,0,0.2800956,12.186027,20.02218)" />
    <linearGradient
       id="linearGradient4154">
      <stop
         id="stop4156"
         style="stop-color:#ffffff;stop-opacity:1"
         offset="0" />
      <stop
         id="stop4158"
         style="stop-color:#ffffff;stop-opacity:0.23529412"
         offset="0.44650361" />
      <stop
         id="stop4160"
         style="stop-color:#ffffff;stop-opacity:0.15686275"
         offset="0.56445372" />
      <stop
         id="stop4162"
         style="stop-color:#ffffff;stop-opacity:0.39215687"
         offset="1" />
    </linearGradient>
    <linearGradient
       id="linearGradient3242-7">
      <stop
         id="stop3244-5"
         style="stop-color:#eef87e;stop-opacity:1"
         offset="0" />
      <stop
         id="stop3246-9"
         style="stop-color:#cde34f;stop-opacity:1"
         offset="0.26238" />
      <stop
         id="stop3248-7"
         style="stop-color:#93b723;stop-opacity:1"
         offset="0.66093999" />
      <stop
         id="stop3250-8"
         style="stop-color:#5a7e0d;stop-opacity:1"
         offset="1" />
    </linearGradient>
    <linearGradient
       id="linearGradient2490-3">
      <stop
         id="stop2492-3"
         style="stop-color:#3f7010;stop-opacity:1"
         offset="0" />
      <stop
         id="stop2494-8"
         style="stop-color:#84a718;stop-opacity:1"
         offset="1" />
    </linearGradient>
    <radialGradient
       cx="65.297462"
       cy="48.216358"
       r="31.000002"
       fx="65.297462"
       fy="48.216358"
       id="radialGradient3466"
       xlink:href="#linearGradient3242-7"
       gradientUnits="userSpaceOnUse"
       gradientTransform="matrix(0,0.52544994,-0.5716256,0,46.200675,-13.123812)" />
    <linearGradient
       x1="72.421684"
       y1="124.75623"
       x2="72.421684"
       y2="51.244411"
       id="linearGradient3468"
       xlink:href="#linearGradient2490-3"
       gradientUnits="userSpaceOnUse"
       gradientTransform="matrix(0.1482266,0,0,0.1494387,5.4507892,13.356681)" />
    <linearGradient
       x1="24.138529"
       y1="7.0478544"
       x2="24.138529"
       y2="39.268391"
       id="linearGradient3030"
       xlink:href="#linearGradient4154"
       gradientUnits="userSpaceOnUse"
       gradientTransform="matrix(0.2817955,0,0,0.2800956,12.186027,12.02218)" />
    <radialGradient
       cx="65.297462"
       cy="48.216358"
       r="31.000002"
       fx="65.297462"
       fy="48.216358"
       id="radialGradient3033"
       xlink:href="#linearGradient3242-7"
       gradientUnits="userSpaceOnUse"
       gradientTransform="matrix(0,0.52544994,-0.5716256,0,46.200675,-21.123812)" />
    <linearGradient
       x1="23.470181"
       y1="11.209872"
       x2="23.470181"
       y2="35.051075"
       id="linearGradient3038"
       xlink:href="#linearGradient3881"
       gradientUnits="userSpaceOnUse"
       gradientTransform="matrix(0.77056228,0,0,0.77077837,-4.5542786,-6.199358)" />
    <linearGradient
       x1="11.566265"
       y1="22.292103"
       x2="15.214532"
       y2="33.95525"
       id="linearGradient3041"
       xlink:href="#linearGradient8265-821-176-38-919-66-249"
       gradientUnits="userSpaceOnUse"
       gradientTransform="matrix(0.4893617,0,0,0.4893617,1.7135742,-1.2723)" />
    <radialGradient
       cx="13.138569"
       cy="25.625349"
       r="13.931416"
       fx="13.138569"
       fy="25.625349"
       id="radialGradient3044"
       xlink:href="#linearGradient3846"
       gradientUnits="userSpaceOnUse"
       gradientTransform="matrix(0,1.2347038,-1.4762672,0,46.15859,-11.609815)" />
    <linearGradient
       x1="21.483376"
       y1="36.255058"
       x2="21.483376"
       y2="9.5799999"
       id="linearGradient3046"
       xlink:href="#linearGradient3856"
       gradientUnits="userSpaceOnUse"
       gradientTransform="matrix(0.77056228,0,0,0.77077837,-4.5542786,-6.199358)" />
    <radialGradient
       cx="62.625"
       cy="4.625"
       r="10.625"
       fx="62.625"
       fy="4.625"
       id="radialGradient3049"
       xlink:href="#linearGradient8838"
       gradientUnits="userSpaceOnUse"
       gradientTransform="matrix(1.0352941,0,0,0.42352883,-52.835297,17.541176)" />
  </defs>
  <metadata
     id="metadata3879">
    <rdf:RDF>
      <cc:Work
         rdf:about="">
        <dc:format>image/svg+xml</dc:format>
        <dc:type
           rdf:resource="http://purl.org/dc/dcmitype/StillImage" />
        <dc:title />
      </cc:Work>
    </rdf:RDF>
  </metadata>
  <path
     d="M 23,19.499999 C 23,21.985281 18.075131,24 12,24 5.9248685,24 0.99999999,21.985281 0.99999999,19.499999 0.99999999,17.014718 5.9248685,15 12,15 c 6.075131,0 11,2.014718 11,4.499999 l 0,0 z"
     inkscape:connector-curvature="0"
     id="path8836"
     style="opacity:0.3;fill:url(#radialGradient3049);fill-opacity:1;fill-rule:evenodd;stroke:none;stroke-width:0.99999988;marker:none;visibility:visible;display:inline;overflow:visible" />
  <path
     d="m 12.000001,1.4961357 c 0.708911,0 2.994425,5.7107023 3.567948,6.1275073 0.57352,0.416804 6.709462,0.826364 6.928527,1.500768 0.219066,0.674404 -4.504349,4.613371 -4.723415,5.287775 -0.219065,0.674404 1.287639,6.638229 0.714118,7.055033 C 17.913658,21.884024 12.708912,18.607738 12,18.607738 c -0.708911,0 -5.9136574,3.276286 -6.4871791,2.859481 C 4.9392998,21.050415 6.4460042,15.086589 6.2269387,14.412186 6.007873,13.737782 1.2844585,9.798814 1.5035242,9.12441 1.7225898,8.450007 7.8585305,8.040447 8.4320523,7.623643 9.005573,7.206838 11.29109,1.4961357 12.000001,1.4961357 z"
     inkscape:connector-curvature="0"
     id="path1307"
     style="fill:url(#radialGradient3044);fill-opacity:1;fill-rule:nonzero;stroke:url(#linearGradient3046);stroke-width:0.99227142;stroke-linecap:butt;stroke-linejoin:round;stroke-miterlimit:4;stroke-opacity:1;stroke-dasharray:none;stroke-dashoffset:0;marker:none;visibility:visible;display:inline;overflow:visible" />
  <path
     d="m 11.969145,2.093355 c -0.45703,0.693479 -1.679762,2.629165 -3.0312503,5.8125 a 0.43670935,0.43670935 0 0 1 -0.34375,0.28125 c -2.1354674,0.348211 -4.8091853,0.716906 -6.5625,1.15625 1.1001782,1.3189 2.393494,2.529956 3.625,3.78125 l 15.1562503,-2.71875 c 0.353244,-0.353813 0.697176,-0.697415 1.0625,-1.0625 -2.051482,-0.507486 -4.36574,-0.808235 -6.5,-1.15625 a 0.43670935,0.43670935 0 0 1 -0.34375,-0.25 c -1.039472,-2.413271 -2.582922,-5.037031 -3.0625,-5.84375 z"
     inkscape:connector-curvature="0"
     id="path3681"
     style="opacity:0.8;fill:url(#linearGradient3041);fill-opacity:1;fill-rule:nonzero;stroke:none;stroke-width:1;marker:none;visibility:visible;display:inline;overflow:visible;enable-background:accumulate" />
  <path
     d="m 12.000395,2.937105 c -0.289389,0.492394 -0.61844,1.165503 -0.96875,1.875 -0.361907,0.732986 -0.746865,1.511515 -1.0625003,2.125 -0.1578173,0.306742 -0.2983144,0.582546 -0.4375,0.8125 -0.1391856,0.229954 -0.1632419,0.388801 -0.53125,0.65625 -0.3684354,0.267759 -0.5505426,0.251058 -0.8125,0.3125 -0.2619574,0.06144 -0.5652425,0.100734 -0.90625,0.15625 -0.6820149,0.111033 -1.5021108,0.22551 -2.3125,0.34375 -0.7742066,0.112961 -1.5055387,0.221892 -2.0625,0.34375 0.3780266,0.425859 0.9075435,0.983352 1.46875,1.53125 0.5845803,0.570717 1.1708703,1.135202 1.65625,1.625 0.2426898,0.244899 0.4494983,0.484046 0.625,0.6875 0.1755017,0.203454 0.3283605,0.286554 0.46875,0.71875 0.1407051,0.433167 0.085066,0.575594 0.0625,0.84375 -0.022566,0.268156 -0.072353,0.564729 -0.125,0.90625 -0.1052939,0.683043 -0.2681064,1.505117 -0.40625,2.3125 -0.1323415,0.773473 -0.25635,1.525786 -0.3125,2.09375 0.525364,-0.229545 1.203496,-0.56765 1.90625,-0.9375 0.7258699,-0.382016 1.4761784,-0.781664 2.0937503,-1.09375 0.308786,-0.156043 0.564288,-0.301637 0.8125,-0.40625 0.248212,-0.104613 0.387156,-0.1875 0.84375,-0.1875 0.456594,0 0.595538,0.08289 0.84375,0.1875 0.248212,0.104613 0.503714,0.250207 0.8125,0.40625 0.617572,0.312086 1.36788,0.711734 2.09375,1.09375 0.702754,0.36985 1.380886,0.707955 1.90625,0.9375 -0.05615,-0.567964 -0.180159,-1.320277 -0.3125,-2.09375 -0.138144,-0.807383 -0.300956,-1.629457 -0.40625,-2.3125 -0.05265,-0.341521 -0.102434,-0.638094 -0.125,-0.90625 -0.02257,-0.268156 -0.0782,-0.410584 0.0625,-0.84375 0.14039,-0.432195 0.293248,-0.515296 0.46875,-0.71875 0.175502,-0.203454 0.38231,-0.442601 0.625,-0.6875 0.48538,-0.489798 1.07167,-1.054283 1.65625,-1.625 0.561206,-0.547898 1.090723,-1.105391 1.46875,-1.53125 -0.556961,-0.121858 -1.288293,-0.230789 -2.0625,-0.34375 -0.810389,-0.11824 -1.630485,-0.232717 -2.3125,-0.34375 -0.341007,-0.055516 -0.644293,-0.094808 -0.90625,-0.15625 -0.261957,-0.061442 -0.444064,-0.04474 -0.8125,-0.3125 -0.368009,-0.267449 -0.392064,-0.426296 -0.53125,-0.65625 -0.139186,-0.229954 -0.279683,-0.505758 -0.4375,-0.8125 -0.315635,-0.613485 -0.700593,-1.392014 -1.0625,-2.125 -0.350309,-0.709497 -0.679362,-1.382606 -0.96875,-1.875 z"
     inkscape:connector-curvature="0"
     id="path2903"
     style="opacity:0.8;fill:none;stroke:url(#linearGradient3038);stroke-width:0.99227142;stroke-linecap:butt;stroke-linejoin:round;stroke-miterlimit:4;stroke-opacity:1;stroke-dasharray:none;stroke-dashoffset:0;marker:none;visibility:visible;display:inline;overflow:visible" />
  <path
     d="m 16.489465,16.507295 0,-3 4,0 0,3 3,0 0,4 -3,0 0,2.999991 -4,0 0,-2.999991 -2.989465,0 0,-4 2.989465,0 z"
     inkscape:connector-curvature="0"
     id="path2262"
     style="color:#000000;fill:url(#radialGradient3033);fill-opacity:1;fill-rule:nonzero;stroke:none;stroke-width:0.98542744;marker:none;visibility:visible;display:inline;overflow:visible;enable-background:accumulate" />
  <path
     d="m 17.489465,17.507295 0,-3 2,0 0,3 3,0 0,2 -3,0 0,3 -2,0 0,-3 -3,0 0,-2 3,0 z"
     inkscape:connector-curvature="0"
     id="path2272"
     style="opacity:0.5;fill:none;stroke:url(#linearGradient3030);stroke-width:1;stroke-linecap:butt;stroke-linejoin:miter;stroke-miterlimit:4;stroke-opacity:1;stroke-dasharray:none;display:inline" />
  <path
     d="m 16.489465,16.507295 0,-3 4,0 0,3 3,0 0,4 -3,0 0,2.999991 -4,0 0,-2.999991 -2.989465,0 0,-4 2.989465,0 z"
     inkscape:connector-curvature="0"
     id="path2262-2"
     style="opacity:0.3;color:#000000;fill:none;stroke:#000000;stroke-width:0.98542744;stroke-linecap:round;stroke-linejoin:round;stroke-miterlimit:4;stroke-opacity:1;stroke-dasharray:none;stroke-dashoffset:0;marker:none;visibility:visible;display:inline;overflow:visible;enable-background:accumulate" />
</svg>
