<?xml version="1.0" encoding="UTF-8" standalone="no"?>
<!-- Created with Inkscape (http://www.inkscape.org/) -->

<svg
   xmlns:dc="http://purl.org/dc/elements/1.1/"
   xmlns:cc="http://creativecommons.org/ns#"
   xmlns:rdf="http://www.w3.org/1999/02/22-rdf-syntax-ns#"
   xmlns:svg="http://www.w3.org/2000/svg"
   xmlns="http://www.w3.org/2000/svg"
   xmlns:xlink="http://www.w3.org/1999/xlink"
   xmlns:inkscape="http://www.inkscape.org/namespaces/inkscape"
   version="1.0"
   width="24"
   height="24"
   id="svg2">
  <metadata
     id="metadata31">
    <rdf:RDF>
      <cc:Work
         rdf:about="">
        <dc:format>image/svg+xml</dc:format>
        <dc:type
           rdf:resource="http://purl.org/dc/dcmitype/StillImage" />
        <dc:title />
      </cc:Work>
    </rdf:RDF>
  </metadata>
  <defs
     id="defs4">
    <linearGradient
       id="linearGradient3996">
      <stop
         id="stop3998"
         style="stop-color:#000000;stop-opacity:1"
         offset="0" />
      <stop
         id="stop4000"
         style="stop-color:#000000;stop-opacity:0"
         offset="1" />
    </linearGradient>
    <linearGradient
       id="linearGradient8838">
      <stop
         id="stop8840"
         style="stop-color:#000000;stop-opacity:1"
         offset="0" />
      <stop
         id="stop8842"
         style="stop-color:#000000;stop-opacity:0"
         offset="1" />
    </linearGradient>
    <radialGradient
       cx="23.895569"
       cy="3.9900031"
       r="20.397499"
       fx="23.895569"
       fy="3.9900031"
       id="radialGradient3026"
       xlink:href="#linearGradient3242-7"
       gradientUnits="userSpaceOnUse"
       gradientTransform="matrix(0,1.2316137,-1.6257082,0,18.486581,-28.720783)" />
    <linearGradient
       x1="18.379412"
       y1="44.980297"
       x2="18.379412"
       y2="3.0816143"
       id="linearGradient3028"
       xlink:href="#linearGradient2490-3"
       gradientUnits="userSpaceOnUse"
       gradientTransform="matrix(0.5160413,0,0,0.5160413,-0.384991,-0.3849911)" />
    <radialGradient
       cx="62.625"
       cy="4.625"
       r="10.625"
       fx="62.625"
       fy="4.625"
       id="radialGradient3031"
       xlink:href="#linearGradient8838"
       gradientUnits="userSpaceOnUse"
       gradientTransform="matrix(1.1294118,0,0,0.2823525,-58.729414,19.694118)" />
    <linearGradient
       id="linearGradient4011">
      <stop
         id="stop4013"
         style="stop-color:#ffffff;stop-opacity:1"
         offset="0" />
      <stop
         id="stop4015"
         style="stop-color:#ffffff;stop-opacity:0.23529412"
         offset="0.507761" />
      <stop
         id="stop4017"
         style="stop-color:#ffffff;stop-opacity:0.15686275"
         offset="0.83456558" />
      <stop
         id="stop4019"
         style="stop-color:#ffffff;stop-opacity:0.39215687"
         offset="1" />
    </linearGradient>
    <linearGradient
       x1="71.204407"
       y1="6.2375584"
       x2="71.204407"
       y2="44.340794"
       id="linearGradient3406"
       xlink:href="#linearGradient4011"
       gradientUnits="userSpaceOnUse"
       gradientTransform="matrix(0.5135135,0,0,0.5135135,-24.836132,-1.0212841)" />
    <linearGradient
       id="linearGradient2490-3">
      <stop
         id="stop2492-3"
         style="stop-color:#3f7010;stop-opacity:1"
         offset="0" />
      <stop
         id="stop2494-8"
         style="stop-color:#84a718;stop-opacity:1"
         offset="1" />
    </linearGradient>
    <linearGradient
       id="linearGradient3242-7">
      <stop
         id="stop3244-5"
         style="stop-color:#eef87e;stop-opacity:1"
         offset="0" />
      <stop
         id="stop3246-9"
         style="stop-color:#cde34f;stop-opacity:1"
         offset="0.26238" />
      <stop
         id="stop3248-7"
         style="stop-color:#93b723;stop-opacity:1"
         offset="0.66093999" />
      <stop
         id="stop3250-8"
         style="stop-color:#5a7e0d;stop-opacity:1"
         offset="1" />
    </linearGradient>
    <linearGradient
       x1="12.112728"
       y1="7.0720687"
       x2="12.112728"
       y2="16.928461"
       id="linearGradient4002"
       xlink:href="#linearGradient3996"
       gradientUnits="userSpaceOnUse" />
  </defs>
  <path
     d="m 24,21 c 0,1.656854 -5.372583,3 -12,3 C 5.3725828,24 -2.5e-7,22.656854 -2.5e-7,21 -2.5e-7,19.343146 5.3725828,18 12,18 c 6.627417,0 12,1.343146 12,3 l 0,0 z"
     inkscape:connector-curvature="0"
     id="path8836"
     style="opacity:0.3;fill:url(#radialGradient3031);fill-opacity:1;fill-rule:evenodd;stroke:none;stroke-width:0.99999988;marker:none;visibility:visible;display:inline;overflow:visible" />
  <path
     d="m 12.000002,1.501785 c -5.792553,0 -10.498217,4.7056616 -10.498217,10.498214 0,5.792554 4.705664,10.498219 10.498217,10.498216 5.79255,0 10.498219,-4.705662 10.498213,-10.498216 0,-5.7925524 -4.705663,-10.498214 -10.498213,-10.498214 z"
     inkscape:connector-curvature="0"
     id="path2555"
     style="fill:url(#radialGradient3026);fill-opacity:1;stroke:url(#linearGradient3028);stroke-width:1.00365424;stroke-linecap:round;stroke-linejoin:round;stroke-miterlimit:4;stroke-opacity:1;stroke-dasharray:none;stroke-dashoffset:0" />
  <path
     d="m 13.115862,6 -2.231732,0 0.01175,3.727068 c -8.91e-4,0.142346 -0.116066,0.25752 -0.258411,0.258412 L 7,9.97373 l 0,2.231732 3.625723,0 c 0.142345,8.91e-4 0.257519,0.116065 0.258411,0.258411 l 0,3.536127 2.231732,0 0,-3.536127 c 8.93e-4,-0.142345 0.116067,-0.257519 0.258412,-0.258412 L 17,12.205462 17,9.97373 13.374278,9.973729 C 13.231932,9.972838 13.116758,9.857663 13.115867,9.715318 z"
     inkscape:connector-curvature="0"
     id="path3256-5"
     style="fill:#618b14;fill-opacity:1;fill-rule:evenodd;stroke:none" />
  <path
     d="M 21.5,11.999663 C 21.5,17.246537 17.246391,21.5 12.000121,21.5 6.7533684,21.5 2.5,17.246489 2.5,11.999663 c 0,-5.2466301 4.2533684,-9.4996621 9.500121,-9.4996621 5.24627,0 9.499879,4.253032 9.499879,9.4996621 l 0,0 z"
     inkscape:connector-curvature="0"
     id="path8655-6"
     style="opacity:0.5;color:#000000;fill:none;stroke:url(#linearGradient3406);stroke-width:0.99999988;stroke-linecap:round;stroke-linejoin:round;stroke-miterlimit:4;stroke-opacity:1;stroke-dasharray:none;stroke-dashoffset:0;marker:none;visibility:visible;display:inline;overflow:visible;enable-background:accumulate" />
  <path
     d="m 13.115862,7 -2.231732,0 0.01175,3.68227 c -8.91e-4,0.142346 -0.116066,0.25752 -0.258411,0.258412 L 7,10.928932 l 0,2.231732 3.625723,0 c 0.142345,8.91e-4 0.257519,0.116065 0.258411,0.258411 l 0,3.580925 2.231732,0 0,-3.580925 c 8.93e-4,-0.142345 0.116067,-0.257519 0.258412,-0.258412 l 3.625722,1e-6 0,-2.231732 -3.625722,-10e-7 c -0.142346,-8.91e-4 -0.25752,-0.116066 -0.258411,-0.258411 z"
     inkscape:connector-curvature="0"
     id="path3256"
     style="fill:#ffffff;fill-opacity:1;fill-rule:evenodd;stroke:none" />
  <path
     d="m 11.375,7.5 0.03125,3.1875 c -0.0028,0.454268 -0.398403,0.747601 -0.78125,0.75 l -3.125,0 0,1.21875 3.125,0 c 0.383295,0.0024 0.747598,0.366707 0.75,0.75 l 0,3.09375 1.25,0 0,-3.09375 c 0.0024,-0.38329 0.36671,-0.747595 0.75,-0.75 l 3.125,0 0,-1.21875 -3.125,0 c -0.454268,-0.0028 -0.747604,-0.398399 -0.75,-0.78125 l 0,-3.15625 -1.25,0 z"
     inkscape:connector-curvature="0"
     id="path3994"
     style="opacity:0.1;fill:none;stroke:url(#linearGradient4002);stroke-opacity:1" />
</svg>
