<?xml version="1.0" encoding="UTF-8" standalone="no"?>
<!-- Created with Inkscape (http://www.inkscape.org/) -->

<svg
   xmlns:dc="http://purl.org/dc/elements/1.1/"
   xmlns:cc="http://creativecommons.org/ns#"
   xmlns:rdf="http://www.w3.org/1999/02/22-rdf-syntax-ns#"
   xmlns:svg="http://www.w3.org/2000/svg"
   xmlns="http://www.w3.org/2000/svg"
   xmlns:xlink="http://www.w3.org/1999/xlink"
   xmlns:inkscape="http://www.inkscape.org/namespaces/inkscape"
   version="1.1"
   width="24"
   height="24"
   id="svg4524">
  <defs
     id="defs4526">
    <radialGradient
       cx="16.202444"
       cy="-19.005346"
       r="19.99999"
       fx="16.202444"
       fy="-19.005346"
       id="radialGradient3008-6"
       xlink:href="#linearGradient2867-449-88-871-390-598-476-591-434-148-57-177-641-289-620-227-114-444-680-744-4-1"
       gradientUnits="userSpaceOnUse"
       gradientTransform="matrix(0,1.5000006,-1.5241254,0,-16.959842,-23.077676)" />
    <linearGradient
       id="linearGradient2867-449-88-871-390-598-476-591-434-148-57-177-641-289-620-227-114-444-680-744-4-1">
      <stop
         id="stop5430-5-0"
         style="stop-color:#737373;stop-opacity:1"
         offset="0" />
      <stop
         id="stop5432-2-0"
         style="stop-color:#636363;stop-opacity:1"
         offset="0.26238" />
      <stop
         id="stop5434-9-6"
         style="stop-color:#4b4b4b;stop-opacity:1"
         offset="0.704952" />
      <stop
         id="stop5436-2-7"
         style="stop-color:#3f3f3f;stop-opacity:1"
         offset="1" />
    </linearGradient>
    <radialGradient
       cx="16.202444"
       cy="-19.005346"
       r="19.99999"
       fx="16.202444"
       fy="-19.005346"
       id="radialGradient2997"
       xlink:href="#linearGradient2867-449-88-871-390-598-476-591-434-148-57-177-641-289-620-227-114-444-680-744-4-1"
       gradientUnits="userSpaceOnUse"
       gradientTransform="matrix(0,1.5000006,1.5241254,0,40.960035,-23.077676)" />
  </defs>
  <metadata
     id="metadata4529">
    <rdf:RDF>
      <cc:Work
         rdf:about="">
        <dc:format>image/svg+xml</dc:format>
        <dc:type
           rdf:resource="http://purl.org/dc/dcmitype/StillImage" />
        <dc:title />
      </cc:Work>
    </rdf:RDF>
  </metadata>
  <path
     d="m 20.988176,7.483895 0.528122,0 0,10.03221 -0.532209,0 0.0041,-10.03221 z"
     inkscape:connector-curvature="0"
     id="path2343"
     style="opacity:0.02999998;fill:none;stroke:#000000;stroke-width:0.9677909;stroke-linecap:square;stroke-linejoin:miter;stroke-miterlimit:4;stroke-opacity:1;stroke-dasharray:none;stroke-dashoffset:0.69999992" />
  <path
     d="m 22.250193,5.9999997 c 0.403999,0 0.75,0.3460007 0.75,0.75 l 0,11.5000003 c 0,0.403999 -0.346001,0.75 -0.75,0.75 l -2.5,0 c -0.403999,0 -0.75,-0.346001 -0.75,-0.75 l 0,-4.28125 -8.25,4.96875 a 0.49473539,0.49473539 0 0 1 -0.75,-0.4375 l 0,-4.53125 -8.25,4.96875 a 0.49473539,0.49473539 0 0 1 -0.75,-0.4375 l 0,-12.0000003 a 0.49473539,0.49473539 0 0 1 0.75,-0.4375 l 8.25,4.9687503 0,-4.5312503 a 0.49473539,0.49473539 0 0 1 0.75,-0.4375 l 8.25,4.9687503 0,-4.2812503 c 0,-0.4039993 0.346001,-0.75 0.75,-0.75 l 2.5,0 z"
     inkscape:connector-curvature="0"
     id="path3999"
     style="color:#000000;fill:url(#radialGradient2997);fill-opacity:1;fill-rule:nonzero;stroke:none;stroke-width:1;marker:none;visibility:visible;display:inline;overflow:visible;enable-background:accumulate" />
  <path
     d="m 22.250193,6.5 c 0.1385,0 0.25,0.1115 0.25,0.25 l 0,11.5 c 0,0.1385 -0.1115,0.25 -0.25,0.25 l -2.5,0 c -0.1385,0 -0.25,-0.1115 -0.25,-0.25 l 0,-5.15625 -9,5.40625 0,-5.40625 -8.9999999,5.40625 0,-12 8.9999999,5.40625 0,-5.40625 9,5.40625 0,-5.15625 c 0,-0.1385 0.1115,-0.25 0.25,-0.25 l 2.5,0 z"
     inkscape:connector-curvature="0"
     id="rect3868"
     style="opacity:0.1;color:#000000;fill:none;stroke:#000000;stroke-width:1;stroke-linecap:round;stroke-linejoin:round;stroke-miterlimit:4;stroke-opacity:1;stroke-dasharray:none;marker:none;visibility:visible;display:inline;overflow:visible;enable-background:accumulate" />
  <path
     d="m 21.468943,7.5312497 0,9.9375003 -0.9375,0 0,-4.375 a 1.0385654,1.0385654 0 0 0 -0.1875,-0.59375 1.0385654,1.0385654 0 0 0 0.1875,-0.59375 l 0,-4.3750003 0.9375,0 z m -9.9375,0.78125 6.96875,4.1875003 -6.96875,4.1875 0,-3.59375 a 1.0385654,1.0385654 0 0 0 -0.1875,-0.59375 1.0385654,1.0385654 0 0 0 0.1875,-0.59375 l 0,-3.5937503 z m -9,0 6.96875,4.1875003 -6.96875,4.1875 0,-8.3750003 z"
     inkscape:connector-curvature="0"
     id="path4060"
     style="opacity:0.02999998;color:#000000;fill:none;stroke:#000000;stroke-width:1;stroke-linecap:butt;stroke-linejoin:miter;stroke-miterlimit:4;stroke-opacity:1;stroke-dasharray:none;marker:none;visibility:visible;display:inline;overflow:visible;enable-background:accumulate" />
</svg>
