<?xml version="1.0" encoding="UTF-8" standalone="no"?>
<!-- Created with Inkscape (http://www.inkscape.org/) -->

<svg
   xmlns:dc="http://purl.org/dc/elements/1.1/"
   xmlns:cc="http://creativecommons.org/ns#"
   xmlns:rdf="http://www.w3.org/1999/02/22-rdf-syntax-ns#"
   xmlns:svg="http://www.w3.org/2000/svg"
   xmlns="http://www.w3.org/2000/svg"
   xmlns:sodipodi="http://sodipodi.sourceforge.net/DTD/sodipodi-0.dtd"
   xmlns:inkscape="http://www.inkscape.org/namespaces/inkscape"
   version="1.1"
   width="24"
   height="24"
   id="svg3792"
   inkscape:version="0.48.4 r9939"
   sodipodi:docname="media-playback-pause-symbolic.svg">
  <sodipodi:namedview
     pagecolor="#ffffff"
     bordercolor="#666666"
     borderopacity="1"
     objecttolerance="10"
     gridtolerance="10"
     guidetolerance="10"
     inkscape:pageopacity="0"
     inkscape:pageshadow="2"
     inkscape:window-width="817"
     inkscape:window-height="480"
     id="namedview15"
     showgrid="false"
     inkscape:zoom="11.25"
     inkscape:cx="12"
     inkscape:cy="12"
     inkscape:window-x="0"
     inkscape:window-y="30"
     inkscape:window-maximized="0"
     inkscape:current-layer="svg3792" />
  <defs
     id="defs3794" />
  <metadata
     id="metadata3797">
    <rdf:RDF>
      <cc:Work
         rdf:about="">
        <dc:format>image/svg+xml</dc:format>
        <dc:type
           rdf:resource="http://purl.org/dc/dcmitype/StillImage" />
        <dc:title></dc:title>
      </cc:Work>
    </rdf:RDF>
  </metadata>
  <path
     d="M 2.375,0.9999997 C 2.1548654,1.0518391 1.9881281,1.2741554 2,1.4999997 L 2,21.5 c -0.00691,0.263625 0.2363747,0.506913 0.5,0.5 l 7,0 c 0.2636253,0.0069 0.506913,-0.236375 0.5,-0.5 L 10,1.4999998 c 0.0069,-0.2636253 -0.2363747,-0.5069128 -0.5,-0.5 l -7,0 c -0.020805,-0.00134 -0.041695,-0.00134 -0.0625,0 -0.020805,-0.00134 -0.041695,-0.00134 -0.0625,0 z m 12,0 c -0.220135,0.051839 -0.386872,0.2741557 -0.375,0.5 L 14,21.5 c -0.0069,0.263625 0.236375,0.506913 0.5,0.5 l 7,0 c 0.263625,0.0069 0.506913,-0.236375 0.5,-0.5 L 22,1.4999998 c 0.0069,-0.2636253 -0.236375,-0.5069128 -0.5,-0.5 l -7,0 c -0.0208,-0.00134 -0.0417,-0.00134 -0.0625,0 -0.0208,-0.00134 -0.0417,-0.00134 -0.0625,0 z"
     inkscape:connector-curvature="0"
     id="path3797"
     style="color:#bebebe;fill:#bebebe;fill-opacity:1;fill-rule:nonzero;stroke:none;stroke-width:1;marker:none;visibility:visible;display:inline;overflow:visible;enable-background:accumulate" />
</svg>
