<?xml version="1.0" encoding="UTF-8" standalone="no"?>
<!-- Created with Inkscape (http://www.inkscape.org/) -->

<svg
   xmlns:dc="http://purl.org/dc/elements/1.1/"
   xmlns:cc="http://creativecommons.org/ns#"
   xmlns:rdf="http://www.w3.org/1999/02/22-rdf-syntax-ns#"
   xmlns:svg="http://www.w3.org/2000/svg"
   xmlns="http://www.w3.org/2000/svg"
   xmlns:xlink="http://www.w3.org/1999/xlink"
   xmlns:inkscape="http://www.inkscape.org/namespaces/inkscape"
   version="1.1"
   width="128"
   height="128"
   id="svg3893">
  <defs
     id="defs3895">
    <linearGradient
       x1="24.623699"
       y1="9.873991"
       x2="24.623699"
       y2="36.147404"
       id="linearGradient3677"
       xlink:href="#linearGradient3881"
       gradientUnits="userSpaceOnUse"
       gradientTransform="matrix(4.5119166,0,0,4.5076094,-33.688322,-105.75096)" />
    <linearGradient
       id="linearGradient3881">
      <stop
         id="stop3883"
         style="stop-color:#ffffff;stop-opacity:1"
         offset="0" />
      <stop
         id="stop3885"
         style="stop-color:#ffffff;stop-opacity:0.23529412"
         offset="0.33380178" />
      <stop
         id="stop3887"
         style="stop-color:#ffffff;stop-opacity:0.15686275"
         offset="0.67927718" />
      <stop
         id="stop3889"
         style="stop-color:#ffffff;stop-opacity:0.39215687"
         offset="1" />
    </linearGradient>
    <linearGradient
       x1="11.566265"
       y1="22.292103"
       x2="15.214532"
       y2="33.95525"
       id="linearGradient3681"
       xlink:href="#linearGradient8265-821-176-38-919-66-249"
       gradientUnits="userSpaceOnUse"
       gradientTransform="matrix(1.3333351,0,0,1.3333351,3.9732219,-4.1622131)" />
    <linearGradient
       id="linearGradient8265-821-176-38-919-66-249">
      <stop
         id="stop2687"
         style="stop-color:#ffffff;stop-opacity:0.27450982"
         offset="0" />
      <stop
         id="stop2689"
         style="stop-color:#ffffff;stop-opacity:0"
         offset="1" />
    </linearGradient>
    <radialGradient
       cx="13.138569"
       cy="25.625349"
       r="13.931416"
       fx="13.138569"
       fy="25.625349"
       id="radialGradient3081"
       xlink:href="#linearGradient3846"
       gradientUnits="userSpaceOnUse"
       gradientTransform="matrix(0,7.2207039,-8.6440697,0,264.01069,-138.14911)" />
    <linearGradient
       id="linearGradient3846">
      <stop
         id="stop3848"
         style="stop-color:#fff3cb;stop-opacity:1"
         offset="0" />
      <stop
         id="stop3850"
         style="stop-color:#fdde76;stop-opacity:1"
         offset="0.26238" />
      <stop
         id="stop3852"
         style="stop-color:#f9c440;stop-opacity:1"
         offset="0.66093999" />
      <stop
         id="stop3854"
         style="stop-color:#e48b20;stop-opacity:1"
         offset="1" />
    </linearGradient>
    <linearGradient
       x1="21.483376"
       y1="36.255058"
       x2="21.483376"
       y2="9.5799999"
       id="linearGradient3083"
       xlink:href="#linearGradient3856"
       gradientUnits="userSpaceOnUse"
       gradientTransform="matrix(4.5119166,0,0,4.5076094,-32.931193,-106.50809)" />
    <linearGradient
       id="linearGradient3856">
      <stop
         id="stop3858"
         style="stop-color:#b67926;stop-opacity:1"
         offset="0" />
      <stop
         id="stop3860"
         style="stop-color:#eab41a;stop-opacity:1"
         offset="1" />
    </linearGradient>
    <linearGradient
       id="linearGradient8838">
      <stop
         id="stop8840"
         style="stop-color:#000000;stop-opacity:1"
         offset="0" />
      <stop
         id="stop8842"
         style="stop-color:#000000;stop-opacity:0"
         offset="1" />
    </linearGradient>
    <radialGradient
       cx="62.625"
       cy="4.625"
       r="10.625"
       fx="62.625"
       fy="4.625"
       id="radialGradient3891"
       xlink:href="#linearGradient8838"
       gradientUnits="userSpaceOnUse"
       gradientTransform="matrix(5.8353035,0,0,2.2588271,-301.4358,29.55283)" />
    <linearGradient
       x1="22.368837"
       y1="8.5685349"
       x2="22.368837"
       y2="37.737911"
       id="linearGradient2862"
       xlink:href="#linearGradient4194"
       gradientUnits="userSpaceOnUse"
       gradientTransform="matrix(1.6555484,0,0,1.6455615,60.9673,-2.1000633)" />
    <linearGradient
       id="linearGradient4194">
      <stop
         id="stop4196"
         style="stop-color:#ffffff;stop-opacity:1"
         offset="0" />
      <stop
         id="stop4198"
         style="stop-color:#ffffff;stop-opacity:0.23529412"
         offset="0.35568139" />
      <stop
         id="stop4200"
         style="stop-color:#ffffff;stop-opacity:0.15686275"
         offset="0.63598377" />
      <stop
         id="stop4202"
         style="stop-color:#ffffff;stop-opacity:0.39215687"
         offset="1" />
    </linearGradient>
    <linearGradient
       id="linearGradient3242-7">
      <stop
         id="stop3244-5"
         style="stop-color:#eef87e;stop-opacity:1"
         offset="0" />
      <stop
         id="stop3246-9"
         style="stop-color:#cde34f;stop-opacity:1"
         offset="0.26238" />
      <stop
         id="stop3248-7"
         style="stop-color:#93b723;stop-opacity:1"
         offset="0.66093999" />
      <stop
         id="stop3250-8"
         style="stop-color:#5a7e0d;stop-opacity:1"
         offset="1" />
    </linearGradient>
    <linearGradient
       id="linearGradient2490-3">
      <stop
         id="stop2492-3"
         style="stop-color:#3f7010;stop-opacity:1"
         offset="0" />
      <stop
         id="stop2494-8"
         style="stop-color:#84a718;stop-opacity:1"
         offset="1" />
    </linearGradient>
    <radialGradient
       cx="66.127159"
       cy="48.76759"
       r="31.000002"
       fx="66.127159"
       fy="48.76759"
       id="radialGradient3399"
       xlink:href="#linearGradient3242-7"
       gradientUnits="userSpaceOnUse"
       gradientTransform="matrix(0,2.4235253,-2.6392787,0,226.36903,-148.88818)" />
    <linearGradient
       x1="72.421684"
       y1="122.13199"
       x2="72.421684"
       y2="53.868069"
       id="linearGradient3401"
       xlink:href="#linearGradient2490-3"
       gradientUnits="userSpaceOnUse"
       gradientTransform="matrix(0.72729259,0,0,0.73246814,33.998246,-28.457219)" />
  </defs>
  <metadata
     id="metadata3898">
    <rdf:RDF>
      <cc:Work
         rdf:about="">
        <dc:format>image/svg+xml</dc:format>
        <dc:type
           rdf:resource="http://purl.org/dc/dcmitype/StillImage" />
        <dc:title />
      </cc:Work>
    </rdf:RDF>
  </metadata>
  <g
     transform="translate(0,64)"
     id="layer1">
    <path
       d="m 126.0002,39.99992 c 0,13.25487 -27.758393,24.00007 -62.000096,24.00007 -34.241708,0 -62.0001008,-10.7452 -62.0001008,-24.00007 0,-13.254874 27.7583928,-24.00007 62.0001008,-24.00007 34.241703,0 62.000096,10.745196 62.000096,24.00007 l 0,0 z"
       inkscape:connector-curvature="0"
       id="path8836"
       style="opacity:0.3;fill:url(#radialGradient3891);fill-opacity:1;fill-rule:evenodd;stroke:none;stroke-width:0.99999988;marker:none;visibility:visible;display:inline;overflow:visible" />
    <path
       d="m 64.000004,-61.503864 c 4.150927,0 17.533435,33.396907 20.891609,35.834435 3.358169,2.437523 39.286277,4.832685 40.568997,8.776685 1.2827,3.944 -26.374571,26.979577 -27.657276,30.923576 -1.282709,3.943999 7.539576,38.821188 4.181416,41.258718 -3.358181,2.43753 -33.833819,-16.7226 -37.984752,-16.7226 -4.150925,0 -34.626565,19.16013 -37.984741,16.7226 -3.35817,-2.43753 5.464122,-37.314721 4.181417,-41.258718 C 28.913969,10.086833 1.2566904,-12.94875 2.5393978,-16.89275 c 1.2827077,-3.943994 37.2108272,-6.339156 40.5690002,-8.776679 3.358169,-2.437528 16.740681,-35.834435 20.891606,-35.834435 z"
       inkscape:connector-curvature="0"
       id="path1307"
       style="fill:url(#radialGradient3081);fill-opacity:1;fill-rule:nonzero;stroke:url(#linearGradient3083);stroke-width:0.99227118;stroke-linecap:butt;stroke-linejoin:round;stroke-miterlimit:4;stroke-opacity:1;stroke-dasharray:none;stroke-dashoffset:0;marker:none;visibility:visible;display:inline;overflow:visible" />
    <path
       d="M 32.03125,1.6875 C 32.02975,1.6874929 32.00146,1.718703 32,1.71875 c -0.0015,4.71e-5 -0.02979,-1.013e-4 -0.03125,0 -0.0015,1.013e-4 -0.0298,-1.553e-4 -0.03125,0 a 0.41929474,0.41929474 0 0 0 -0.0625,0 c -0.0018,4.133e-4 -0.0295,-4.942e-4 -0.03125,0 -0.0017,4.942e-4 -0.06078,0.030676 -0.0625,0.03125 -0.0017,5.741e-4 -0.02956,-6.527e-4 -0.03125,0 -0.0016,5.291e-4 -0.0297,0.030655 -0.03125,0.03125 -0.0016,5.953e-4 -0.06097,-6.604e-4 -0.0625,0 -0.0015,6.604e-4 -0.02975,0.030526 -0.03125,0.03125 -0.0015,7.243e-4 -0.02978,-7.87e-4 -0.03125,0 -0.0015,7.87e-4 -0.02982,0.030402 -0.03125,0.03125 -0.0014,8.483e-4 -0.02985,0.030342 -0.03125,0.03125 -0.0014,9.08e-4 -0.02989,-9.661e-4 -0.03125,0 -0.0014,9.661e-4 -0.02993,0.030228 -0.03125,0.03125 C 31.46745,1.90727 31.43877,1.936423 31.4375,1.9375 31.4362,1.93858 31.40747,1.96762 31.40625,1.96875 31.40505,1.96988 31.37617,1.99882 31.375,2 31.3738,2.00118 31.34487,2.030021 31.34375,2.03125 31.34265,2.03248 31.31357,2.061225 31.3125,2.0625 31.3114,2.06378 31.28227,2.092431 31.28125,2.09375 31.28025,2.09507 31.25096,2.123639 31.25,2.125 c -9.6e-4,0.00136 9.02e-4,0.02985 0,0.03125 -0.02251,0.032586 -4.872008,7.065761 -9.3125,17.375 -6.386546,1.030118 -14.7984528,2.171707 -19.59375,3.625 -0.00218,6.99e-4 -0.060369,0.03043 -0.0625,0.03125 -0.00213,8.23e-4 -0.02917,0.0303 -0.03125,0.03125 -0.00208,9.45e-4 -0.060478,-0.0011 -0.0625,0 C 2.18548,23.21985 2.126957,23.24882 2.125,23.25 2.12304,23.2512 2.095635,23.27996 2.09375,23.28125 2.09186,23.28255 2.064307,23.3111 2.0625,23.3125 2.06069,23.3139 2.001723,23.34225 2,23.34375 1.99828,23.34525 1.970384,23.3734 1.96875,23.375 1.96712,23.3766 1.939038,23.43581 1.9375,23.4375 1.93596,23.4392 1.876438,23.46697 1.875,23.46875 1.87356,23.47055 1.845083,23.52939 1.84375,23.53125 1.84242,23.53315 1.813723,23.56057 1.8125,23.5625 1.81128,23.5644 1.782359,23.623 1.78125,23.625 c -0.00111,0.002 9.919e-4,0.02919 0,0.03125 -9.919e-4,0.0021 -0.030379,0.06039 -0.03125,0.0625 -8.711e-4,0.0021 -0.030503,0.02909 -0.03125,0.03125 -7.474e-4,0.0022 6.211e-4,0.0603 0,0.0625 -6.211e-4,0.0022 -0.030757,0.06027 -0.03125,0.0625 -4.928e-4,0.0022 3.628e-4,0.06024 0,0.0625 -3.628e-4,0.0023 2.316e-4,0.02898 0,0.03125 -2.316e-4,0.0023 9.97e-5,0.06022 0,0.0625 -9.97e-5,0.0023 -3.26e-5,0.06021 0,0.0625 3.26e-5,0.0023 -1.649e-4,0.06022 0,0.0625 1.649e-4,0.0023 -2.965e-4,0.02898 0,0.03125 2.965e-4,0.0023 -4.272e-4,0.06026 0,0.0625 4.272e-4,0.0022 0.030694,0.06028 0.03125,0.0625 5.564e-4,0.0022 -6.837e-4,0.06032 0,0.0625 6.837e-4,0.0022 0.030441,0.02911 0.03125,0.03125 8.088e-4,0.0021 -9.311e-4,0.06041 0,0.0625 9.311e-4,0.0021 0.0302,0.02922 0.03125,0.03125 0.00105,0.002 0.030084,0.06054 0.03125,0.0625 0.00117,0.002 0.029972,0.06061 0.03125,0.0625 3.47898,4.564494 7.8922925,8.443302 11.71875,12.375 0.0016,0.0017 0.06076,0.06091 0.0625,0.0625 0.0017,0.0016 0.02942,0.02977 0.03125,0.03125 0.0018,0.0015 0.06058,0.02988 0.0625,0.03125 0.0019,0.0014 0.02926,0.03 0.03125,0.03125 0.002,0.0013 0.06044,0.03012 0.0625,0.03125 0.0021,0.0011 0.02912,0.03025 0.03125,0.03125 0.0021,10e-4 0.06031,-8.76e-4 0.0625,0 0.0022,8.76e-4 0.06027,0.0305 0.0625,0.03125 0.0022,7.45e-4 0.02898,0.03064 0.03125,0.03125 0.0023,6.1e-4 0.06019,-4.73e-4 0.0625,0 0.0023,4.73e-4 0.06017,-3.35e-4 0.0625,0 0.0023,3.35e-4 0.06015,0.03106 0.0625,0.03125 0.0023,1.95e-4 0.06015,-5.5e-5 0.0625,0 0.0024,5.5e-5 0.0289,8.6e-5 0.03125,0 0.0024,-8.6e-5 0.06016,-0.03102 0.0625,-0.03125 0.0023,-2.26e-4 0.06017,3.65e-4 0.0625,0 l 42.375,-7.625 a 0.41929474,0.41929474 0 0 0 0.03125,0 c 0.0015,-3.02e-4 0.0298,3.58e-4 0.03125,0 0.0015,-3.58e-4 0.02981,4.13e-4 0.03125,0 0.0014,-4.13e-4 0.02983,-0.03078 0.03125,-0.03125 0.0014,-4.67e-4 0.02985,5.21e-4 0.03125,0 0.0014,-5.21e-4 0.02987,-0.03068 0.03125,-0.03125 0.0014,-5.74e-4 0.02989,6.26e-4 0.03125,0 0.0014,-6.26e-4 0.02991,-0.03057 0.03125,-0.03125 0.0013,-6.77e-4 0.02994,7.28e-4 0.03125,0 0.0013,-7.28e-4 0.02997,-0.03047 0.03125,-0.03125 0.0013,-7.77e-4 0.03,8.25e-4 0.03125,0 0.0013,-8.25e-4 0.03003,-0.03038 0.03125,-0.03125 0.0012,-8.72e-4 0.03007,-0.03033 0.03125,-0.03125 0.0012,-9.18e-4 0.0301,9.62e-4 0.03125,0 0.0011,-9.62e-4 0.03014,-0.03025 0.03125,-0.03125 0.0011,-0.001 0.03018,-0.0302 0.03125,-0.03125 5.36e-4,-5.23e-4 -0.0061,-0.02505 0,-0.03125 l 0.03125,0 c 1.357311,-1.360196 4.625,-4.59375 4.625,-4.59375 9.39e-4,-8.9e-4 0.03034,-0.03033 0.03125,-0.03125 9.09e-4,-9.2e-4 0.03037,-0.0303 0.03125,-0.03125 8.47e-4,-9.77e-4 0.03043,-0.03025 0.03125,-0.03125 8.15e-4,-0.001 0.03047,-0.03022 0.03125,-0.03125 7.81e-4,-0.001 -7.47e-4,-0.03019 0,-0.03125 7.47e-4,-0.0011 0.03054,-0.03017 0.03125,-0.03125 6.76e-4,-0.0011 0.03061,-0.03013 0.03125,-0.03125 6.4e-4,-0.0011 -6.03e-4,-0.0301 0,-0.03125 6.03e-4,-0.0011 0.03068,-0.03009 0.03125,-0.03125 5.65e-4,-0.0012 -5.26e-4,-0.03007 0,-0.03125 5.26e-4,-0.0012 0.03076,-0.03005 0.03125,-0.03125 4.87e-4,-0.0012 -4.48e-4,-0.03004 0,-0.03125 4.48e-4,-0.0012 -4.08e-4,-0.03002 0,-0.03125 4.08e-4,-0.0012 0.03088,-0.03001 0.03125,-0.03125 3.67e-4,-0.0012 -3.26e-4,-0.03 0,-0.03125 3.26e-4,-0.0013 -2.85e-4,-0.02999 0,-0.03125 2.85e-4,-0.0013 -2.44e-4,-0.02998 0,-0.03125 2.44e-4,-0.0013 -2.02e-4,-0.02997 0,-0.03125 2.02e-4,-0.0013 0.03109,-0.02997 0.03125,-0.03125 1.6e-4,-0.0013 -1.18e-4,-0.02996 0,-0.03125 1.18e-4,-0.0013 -7.5e-5,-0.02996 0,-0.03125 7.5e-5,-0.0013 -3.3e-5,-0.02996 0,-0.03125 3.3e-5,-0.0013 9e-6,-0.02996 0,-0.03125 -9e-6,-0.0013 5.2e-5,-0.02996 0,-0.03125 -5.2e-5,-0.0013 9.4e-5,-0.02996 0,-0.03125 -9.4e-5,-0.0013 1.36e-4,-0.02996 0,-0.03125 -1.36e-4,-0.0013 -0.03107,-0.02997 -0.03125,-0.03125 -1.79e-4,-0.0013 2.2e-4,-0.02998 0,-0.03125 -2.2e-4,-0.0013 2.62e-4,-0.02998 0,-0.03125 -2.62e-4,-0.0013 3.04e-4,-0.02999 0,-0.03125 -3.04e-4,-0.0013 3.45e-4,-0.03 0,-0.03125 -3.45e-4,-0.0012 -0.03086,-0.03001 -0.03125,-0.03125 -3.85e-4,-0.0012 4.26e-4,-0.03003 0,-0.03125 -4.26e-4,-0.0012 4.65e-4,-0.03004 0,-0.03125 -4.65e-4,-0.0012 -0.03075,0.0012 -0.03125,0 -5.05e-4,-0.0012 5.43e-4,-0.03008 0,-0.03125 -5.43e-4,-0.0012 5.82e-4,-0.03009 0,-0.03125 -5.82e-4,-0.0012 -0.03063,-0.03011 -0.03125,-0.03125 -6.19e-4,-0.0011 6.56e-4,-0.03014 0,-0.03125 -6.56e-4,-0.0011 -0.03056,-0.03016 -0.03125,-0.03125 -6.92e-4,-0.0011 -0.03052,-0.03018 -0.03125,-0.03125 -7.28e-4,-0.0011 7.62e-4,-0.0302 0,-0.03125 -7.62e-4,-0.001 -0.03045,0.001 -0.03125,0 -7.96e-4,-0.001 8.29e-4,-0.03026 0,-0.03125 C 62.030421,23.467757 62.00086,23.43847 62,23.4375 c -8.61e-4,-9.65e-4 -0.03036,-0.03031 -0.03125,-0.03125 -9.23e-4,-9.06e-4 -0.0303,-0.03037 -0.03125,-0.03125 -9.52e-4,-8.76e-4 -0.03027,-0.03041 -0.03125,-0.03125 -9.8e-4,-8.44e-4 -0.03024,8.11e-4 -0.03125,0 -10e-4,-8.11e-4 10e-4,-0.03047 0,-0.03125 -10e-4,-7.78e-4 -0.03019,-0.03051 -0.03125,-0.03125 -0.0011,-7.44e-4 -0.03017,7.09e-4 -0.03125,0 -0.0011,-7.09e-4 -0.03014,-0.03058 -0.03125,-0.03125 -0.0011,-6.73e-4 -0.03012,6.36e-4 -0.03125,0 -0.0011,-6.36e-4 -0.0301,-0.03065 -0.03125,-0.03125 -0.0011,-5.99e-4 -0.03008,5.61e-4 -0.03125,0 -0.0012,-5.22e-4 -0.03005,-0.03077 -0.03125,-0.03125 -0.0012,-4.83e-4 -0.03003,4.44e-4 -0.03125,0 -0.0012,-4.44e-4 -0.03002,-0.03085 -0.03125,-0.03125 -0.0012,-4.04e-4 -0.03001,3.63e-4 -0.03125,0 C 55.4639,21.413568 48.371135,20.575529 42.0625,19.5625 38.637101,11.765851 32.911684,2.279393 32.875,2.21875 32.874311,2.21746 32.84449,2.188764 32.84375,2.1875 c -7.37e-4,-0.00126 7.83e-4,-0.030015 0,-0.03125 C 32.842967,2.15501 32.81333,2.126206 32.8125,2.125 32.811672,2.12379 32.78212,2.094924 32.78125,2.09375 c -8.72e-4,-0.00117 9.15e-4,-0.030109 0,-0.03125 C 32.780335,2.061359 32.750957,2.0323562 32.75,2.03125 32.749043,2.0301438 32.719747,2.00107 32.71875,2 32.717753,1.99893 32.688536,1.9697823 32.6875,1.96875 32.686426,1.9677568 32.65736,1.9384527 32.65625,1.9375 32.65514,1.9365473 32.626144,1.9071609 32.625,1.90625 32.6239,1.9053391 32.59493,1.875868 32.59375,1.875 c -0.0012,-8.679e-4 -0.03004,8.236e-4 -0.03125,0 -0.0012,-8.236e-4 -0.03001,-0.030472 -0.03125,-0.03125 -0.0012,-7.782e-4 -0.02998,7.318e-4 -0.03125,0 -0.0013,-7.318e-4 -0.02996,-0.030566 -0.03125,-0.03125 -0.0013,-6.844e-4 -0.02993,6.36e-4 -0.03125,0 -0.0013,-6.36e-4 -0.02991,-0.030663 -0.03125,-0.03125 -0.0013,-5.867e-4 -0.02989,5.366e-4 -0.03125,0 C 32.3736,1.7807134 32.34513,1.750486 32.34375,1.75 c -0.0014,-4.858e-4 -0.02985,4.343e-4 -0.03125,0 -0.0014,-4.343e-4 -0.02984,3.823e-4 -0.03125,0 -0.0014,-3.823e-4 -0.02983,-0.03092 -0.03125,-0.03125 -0.0014,-3.297e-4 -0.02981,2.766e-4 -0.03125,0 -0.0014,-2.766e-4 -0.06105,2.232e-4 -0.0625,0 -0.0014,-2.232e-4 -0.0298,1.694e-4 -0.03125,0 -0.0015,-1.694e-4 -0.02979,1.155e-4 -0.03125,0 -0.0015,-1.155e-4 -0.02979,6.13e-5 -0.03125,0 C 32.061,1.7186887 32.03271,1.687507 32.03125,1.6875 z"
       inkscape:connector-curvature="0"
       transform="matrix(2.0000032,0,0,2.0000032,0,-64.000382)"
       id="path3679"
       style="opacity:0.8;fill:url(#linearGradient3681);fill-opacity:1;fill-rule:nonzero;stroke:none;stroke-width:1;marker:none;visibility:visible;display:inline;overflow:visible;enable-background:accumulate" />
    <path
       d="m 63.25,-59.78125 c 0.0609,0 -0.07648,-0.0208 -0.3125,0.15625 -0.236015,0.177047 -0.550684,0.513572 -0.90625,0.9375 -0.711133,0.847856 -1.567931,2.126027 -2.5,3.6875 -1.864139,3.122946 -4.046815,7.365994 -6.1875,11.6875 -2.140685,4.321506 -4.259216,8.724375 -6.0625,12.21875 -0.901642,1.747188 -1.721014,3.256716 -2.4375,4.4375 -0.716486,1.180784 -1.220177,2.010581 -1.9375,2.53125 -0.717224,0.520596 -1.655128,0.746805 -3,1.0625 -1.344872,0.315695 -3.027814,0.621024 -4.96875,0.9375 -3.881871,0.632953 -8.727042,1.302256 -13.5,2 -4.772958,0.697744 -9.484053,1.444421 -13.03125,2.25 -1.7735983,0.40279 -3.2548404,0.805221 -4.28125,1.21875 -0.5132048,0.206765 -0.9149252,0.424277 -1.15625,0.59375 -0.2413248,0.169473 -0.3002755,0.277248 -0.28125,0.21875 0.019029,-0.05851 -0.00172,0.09653 0.09375,0.375 0.095474,0.278468 0.2689299,0.65667 0.5625,1.125 0.5871401,0.936661 1.5518273,2.164725 2.75,3.53125 2.3963453,2.7330502 5.767004,6.1036218 9.21875,9.46875 3.451746,3.3651282 6.981201,6.7099819 9.75,9.5 1.384399,1.395009 2.597449,2.64276 3.5,3.6875 0.902551,1.04474 1.507042,1.813129 1.78125,2.65625 0.2742,0.843096 0.20917,1.780841 0.09375,3.15625 -0.11542,1.375409 -0.35715,3.089424 -0.65625,5.03125 -0.5982,3.883652 -1.469003,8.687378 -2.28125,13.4375 -0.812247,4.750122 -1.544605,9.443727 -1.875,13.0625 -0.165197,1.809386 -0.232405,3.366086 -0.15625,4.46875 0.03808,0.551332 0.10088,0.999844 0.1875,1.28125 0.08662,0.281406 0.205675,0.348375 0.15625,0.3125 -0.0495,-0.03593 0.04854,0.03588 0.34375,0.03125 0.29521,-0.0046 0.744136,-0.05335 1.28125,-0.1875 1.074228,-0.268296 2.546059,-0.815438 4.21875,-1.53125 3.345382,-1.431623 7.569604,-3.573734 11.84375,-5.8125 4.274146,-2.238766 8.579186,-4.575952 12.09375,-6.34375 1.757282,-0.883899 3.319509,-1.621818 4.59375,-2.15625 1.274241,-0.534432 2.176256,-0.90625 3.0625,-0.90625 0.886244,0 1.789072,0.37179 3.0625,0.90625 1.273428,0.53446 2.83792,1.27234 4.59375,2.15625 3.51166,1.767819 7.792262,4.104987 12.0625,6.34375 4.270238,2.238763 8.532586,4.380912 11.875,5.8125 1.671207,0.715794 3.114197,1.262988 4.1875,1.53125 0.536651,0.134131 0.98633,0.182875 1.28125,0.1875 0.29492,0.0046 0.3931,-0.06707 0.34375,-0.03125 -0.0494,0.03588 0.0696,-0.03109 0.15625,-0.3125 0.0866,-0.281406 0.14942,-0.729918 0.1875,-1.28125 0.0761,-1.102664 0.009,-2.659364 -0.15625,-4.46875 -0.3304,-3.618773 -1.062754,-8.312378 -1.875,-13.0625 C 98.156504,31.374878 97.285699,26.571153 96.6875,22.6875 96.3884,20.745674 96.146669,19.031659 96.03125,17.65625 95.915831,16.280841 95.850799,15.343096 96.125,14.5 c 0.274384,-0.843663 0.877811,-1.611499 1.78125,-2.65625 0.903439,-1.044751 2.11413,-2.2924892 3.5,-3.6875 2.77175,-2.7900215 6.29435,-6.1348628 9.75,-9.5 3.45565,-3.3651372 6.85074,-6.7356689 9.25,-9.46875 1.19963,-1.366541 2.16206,-2.594568 2.75,-3.53125 0.29397,-0.468341 0.46687,-0.846568 0.5625,-1.125 0.0956,-0.278432 0.0746,-0.433781 0.0937,-0.375 0.0191,0.05877 -0.0397,-0.04924 -0.28125,-0.21875 -0.24154,-0.169506 -0.6426,-0.386966 -1.15625,-0.59375 -1.02729,-0.413567 -2.50617,-0.815951 -4.28125,-1.21875 -3.55016,-0.805597 -8.25438,-1.552254 -13.03125,-2.25 -4.77687,-0.697746 -9.61521,-1.367052 -13.5,-2 -1.942395,-0.316474 -3.654282,-0.621813 -5,-0.9375 -1.345718,-0.315687 -2.282491,-0.541697 -3,-1.0625 -0.717609,-0.520876 -1.221852,-1.350398 -1.9375,-2.53125 -0.715648,-1.180852 -1.53732,-2.69029 -2.4375,-4.4375 -1.800361,-3.49442 -3.925716,-7.897244 -6.0625,-12.21875 -2.136784,-4.321506 -4.29503,-8.564609 -6.15625,-11.6875 -0.93061,-1.561446 -1.789737,-2.83974 -2.5,-3.6875 -0.355132,-0.42388 -0.670522,-0.760545 -0.90625,-0.9375 -0.235728,-0.176955 -0.373399,-0.15625 -0.3125,-0.15625 z"
       inkscape:connector-curvature="0"
       transform="translate(0.7571293,-0.757138)"
       id="path3675"
       style="opacity:0.8;fill:none;stroke:url(#linearGradient3677);stroke-width:0.99227118;stroke-linecap:butt;stroke-linejoin:round;stroke-miterlimit:4;stroke-opacity:1;stroke-dasharray:none;stroke-dashoffset:0;marker:none;visibility:visible;display:inline;overflow:visible" />
    <path
       d="m 89.5,27.499992 0,-16.007287 17,0 0,16.007287 16.00729,0 0,17.000008 -16.00729,0 0,16.00729 -17,0 0,-16.00729 -16.007286,0 0,-17.000008 16.007286,0 z"
       inkscape:connector-curvature="0"
       id="path2262"
       style="color:#000000;fill:url(#radialGradient3399);fill-opacity:1;fill-rule:nonzero;stroke:url(#linearGradient3401);stroke-width:0.98542738;stroke-linecap:round;stroke-linejoin:round;stroke-miterlimit:4;stroke-opacity:1;stroke-dasharray:none;stroke-dashoffset:0;marker:none;visibility:visible;display:inline;overflow:visible;enable-background:accumulate" />
    <path
       d="m 90.5,28.499992 0,-16.000002 15,0 0,16.000002 16,0 0,15.000008 -16,0 0,16 -15,0 0,-16 -16.000002,0 0,-15.000008 16.000002,0 z"
       inkscape:connector-curvature="0"
       id="path2272"
       style="opacity:0.5;fill:none;stroke:url(#linearGradient2862);stroke-width:0.99999988;stroke-linecap:butt;stroke-linejoin:miter;stroke-miterlimit:4;stroke-opacity:1;stroke-dasharray:none;display:inline" />
  </g>
</svg>
