<?xml version="1.0" encoding="UTF-8" standalone="no"?>
<!-- Created with Inkscape (http://www.inkscape.org/) -->

<svg
   xmlns:dc="http://purl.org/dc/elements/1.1/"
   xmlns:cc="http://creativecommons.org/ns#"
   xmlns:rdf="http://www.w3.org/1999/02/22-rdf-syntax-ns#"
   xmlns:svg="http://www.w3.org/2000/svg"
   xmlns="http://www.w3.org/2000/svg"
   xmlns:xlink="http://www.w3.org/1999/xlink"
   xmlns:inkscape="http://www.inkscape.org/namespaces/inkscape"
   version="1.1"
   width="128"
   height="128"
   id="svg3767">
  <defs
     id="defs3769">
    <linearGradient
       id="linearGradient3814">
      <stop
         id="stop3816"
         style="stop-color:#000000;stop-opacity:1"
         offset="0" />
      <stop
         id="stop3822"
         style="stop-color:#000000;stop-opacity:0.39215687"
         offset="0.5" />
      <stop
         id="stop3824"
         style="stop-color:#000000;stop-opacity:1"
         offset="0.5" />
      <stop
         id="stop3818"
         style="stop-color:#000000;stop-opacity:0"
         offset="1" />
    </linearGradient>
    <linearGradient
       x1="64.5"
       y1="-26.999998"
       x2="64.5"
       y2="24"
       id="linearGradient3724"
       xlink:href="#linearGradient3718"
       gradientUnits="userSpaceOnUse"
       gradientTransform="translate(0,2.9882538)" />
    <linearGradient
       id="linearGradient3718">
      <stop
         id="stop3720"
         style="stop-color:#ffffff;stop-opacity:1"
         offset="0" />
      <stop
         id="stop3722"
         style="stop-color:#f0f0f0;stop-opacity:1"
         offset="1" />
    </linearGradient>
    <radialGradient
       cx="23.895569"
       cy="3.9900031"
       r="20.397499"
       fx="23.895569"
       fy="3.9900031"
       id="radialGradient2410"
       xlink:href="#linearGradient3242"
       gradientUnits="userSpaceOnUse"
       gradientTransform="matrix(0,6.102135,-8.0552513,0,96.659483,-199.26846)" />
    <linearGradient
       id="linearGradient3242">
      <stop
         id="stop3244"
         style="stop-color:#f8b17e;stop-opacity:1"
         offset="0" />
      <stop
         id="stop3246"
         style="stop-color:#e35d4f;stop-opacity:1"
         offset="0.26238" />
      <stop
         id="stop3248"
         style="stop-color:#c6262e;stop-opacity:1"
         offset="0.66093999" />
      <stop
         id="stop3250"
         style="stop-color:#690b54;stop-opacity:1"
         offset="1" />
    </linearGradient>
    <linearGradient
       x1="18.379412"
       y1="44.980297"
       x2="18.379412"
       y2="3.0816143"
       id="linearGradient2412"
       xlink:href="#linearGradient2490"
       gradientUnits="userSpaceOnUse"
       gradientTransform="matrix(2.5569423,0,0,2.5567709,3.1523875,-58.876358)" />
    <linearGradient
       id="linearGradient2490">
      <stop
         id="stop2492"
         style="stop-color:#791235;stop-opacity:1"
         offset="0" />
      <stop
         id="stop2494"
         style="stop-color:#dd3b27;stop-opacity:1"
         offset="1" />
    </linearGradient>
    <linearGradient
       id="linearGradient8838">
      <stop
         id="stop8840"
         style="stop-color:#000000;stop-opacity:1"
         offset="0" />
      <stop
         id="stop8842"
         style="stop-color:#000000;stop-opacity:0"
         offset="1" />
    </linearGradient>
    <radialGradient
       cx="62.625"
       cy="4.625"
       r="10.625"
       fx="62.625"
       fy="4.625"
       id="radialGradient3765"
       xlink:href="#linearGradient8838"
       gradientUnits="userSpaceOnUse"
       gradientTransform="matrix(5.7750605,0,0,2.0085789,-297.14415,30.222906)" />
    <linearGradient
       x1="65.588974"
       y1="-26.251381"
       x2="65.588974"
       y2="23.966389"
       id="linearGradient3820"
       xlink:href="#linearGradient3814"
       gradientUnits="userSpaceOnUse"
       gradientTransform="translate(0,2.9882538)" />
    <linearGradient
       id="linearGradient4011">
      <stop
         id="stop4013"
         style="stop-color:#ffffff;stop-opacity:1"
         offset="0" />
      <stop
         id="stop4015"
         style="stop-color:#ffffff;stop-opacity:0.23529412"
         offset="0.507761" />
      <stop
         id="stop4017"
         style="stop-color:#ffffff;stop-opacity:0.15686275"
         offset="0.83456558" />
      <stop
         id="stop4019"
         style="stop-color:#ffffff;stop-opacity:0.39215687"
         offset="1" />
    </linearGradient>
    <linearGradient
       x1="71.204407"
       y1="6.2375584"
       x2="71.204407"
       y2="44.340794"
       id="linearGradient3318"
       xlink:href="#linearGradient4011"
       gradientUnits="userSpaceOnUse"
       gradientTransform="matrix(2.7567564,0,0,2.7567564,-133.25186,-67.415487)" />
  </defs>
  <metadata
     id="metadata3772">
    <rdf:RDF>
      <cc:Work
         rdf:about="">
        <dc:format>image/svg+xml</dc:format>
        <dc:type
           rdf:resource="http://purl.org/dc/dcmitype/StillImage" />
        <dc:title />
      </cc:Work>
    </rdf:RDF>
  </metadata>
  <g
     transform="translate(0,64)"
     id="layer1">
    <path
       d="m 125.87901,39.5126 c 0,11.7864 -27.471807,21.34118 -61.36001,21.34118 -33.888198,0 -61.3600168,-9.55478 -61.3600168,-21.34118 0,-11.786422 27.4718188,-21.341187 61.3600168,-21.341187 33.888203,0 61.36001,9.554765 61.36001,21.341187 l 0,0 z"
       inkscape:connector-curvature="0"
       id="path8836"
       style="opacity:0.5;fill:url(#radialGradient3765);fill-opacity:1;fill-rule:evenodd;stroke:none;stroke-width:1;marker:none;visibility:visible;display:inline;overflow:visible" />
    <path
       d="m 64.519014,-49.52817 c -28.701626,0 -52.017803,23.314603 -52.017803,52.0143058 0,28.6996912 23.316177,52.0142882 52.017803,52.0142882 28.701614,0 52.017826,-23.314597 52.017796,-52.0142882 0,-28.6997028 -23.316182,-52.0143058 -52.017796,-52.0143058 z"
       inkscape:connector-curvature="0"
       id="path2555"
       style="fill:url(#radialGradient2410);fill-opacity:1;stroke:url(#linearGradient2412);stroke-width:0.99915248;stroke-linecap:round;stroke-linejoin:round;stroke-miterlimit:4;stroke-opacity:1;stroke-dasharray:none;stroke-dashoffset:0" />
    <path
       d="M 47.048172,-25.261744 39,-17.213572 55.604651,-0.69364024 c 0.510117,0.516547 0.510117,1.347243 0,1.86378704 L 39,17.690081 47.048172,25.738254 63.568106,9.2183198 c 0.516548,-0.510117 1.34724,-0.510117 1.863788,0 L 81.951828,25.738254 90,17.690081 73.480067,1.1701468 c -0.510117,-0.51654404 -0.510117,-1.34724004 0,-1.86378704 L 90,-17.213572 81.951828,-25.261744 65.431894,-8.7418142 c -0.516548,0.51012 -1.34724,0.51012 -1.863788,0 L 47.048172,-25.261744 z"
       inkscape:connector-curvature="0"
       id="path3256-4"
       style="fill:#a9262e;fill-opacity:1;fill-rule:evenodd;stroke:none" />
    <path
       d="M 47.048172,-24.011744 39,-15.963572 55.604651,0.55635976 c 0.510117,0.51654704 0.510117,1.34724304 0,1.86378704 L 39,18.940081 47.048172,26.988254 63.568106,10.46832 c 0.516548,-0.5101172 1.34724,-0.5101172 1.863788,0 L 81.951828,26.988254 90,18.940081 73.480067,2.4201468 c -0.510117,-0.516544 -0.510117,-1.34724 0,-1.86378704 L 90,-15.963572 81.951828,-24.011744 65.431894,-7.4918142 c -0.516548,0.51012 -1.34724,0.51012 -1.863788,0 L 47.048172,-24.011744 z"
       inkscape:connector-curvature="0"
       id="path3256"
       style="fill:url(#linearGradient3724);fill-opacity:1;fill-rule:evenodd;stroke:none" />
    <path
       d="m 81.9375,26.300754 c 2.458333,-2.458333 4.916667,-4.916667 7.375,-7.375 C 83.849663,13.436782 78.30947,8.01743 72.895123,2.4848162 71.866287,0.82075206 73.77441,-0.34163104 74.746565,-1.4114303 79.601876,-6.2573689 84.457188,-11.103307 89.3125,-15.949246 c -2.458333,-2.458333 -4.916667,-4.916667 -7.375,-7.375 -5.488972,5.462837 -10.908324,11.00303 -16.440938,16.4173773 -1.664064,1.0288377 -2.826446,-0.8792875 -3.896246,-1.8514425 -4.845939,-4.8553108 -9.691877,-9.7106228 -14.537816,-14.5659348 -2.458333,2.458333 -4.916667,4.916667 -7.375,7.375 5.483409,5.489225 11.045821,10.9072084 16.479877,16.44093816 C 57.196933,2.1564777 55.287666,3.3177131 54.31282,4.3848105 49.437713,9.2317916 44.562607,14.078773 39.6875,18.925754 c 2.458333,2.458333 4.916667,4.916667 7.375,7.375"
       inkscape:connector-curvature="0"
       id="path3811"
       style="opacity:0.1;fill:none;stroke:url(#linearGradient3820);stroke-opacity:1" />
    <path
       d="M 115.5,2.4864418 C 115.5,30.653871 92.664845,53.488254 64.50065,53.488254 36.33387,53.488254 13.5,30.653613 13.5,2.4864418 c 0,-28.1661268 22.83387,-50.9981878 51.00065,-50.9981878 28.164195,0 50.99935,22.832061 50.99935,50.9981878 l 0,0 z"
       inkscape:connector-curvature="0"
       id="path8655-6"
       style="opacity:0.5;color:#000000;fill:none;stroke:url(#linearGradient3318);stroke-width:1;stroke-linecap:round;stroke-linejoin:round;stroke-miterlimit:4;stroke-opacity:1;stroke-dasharray:none;stroke-dashoffset:0;marker:none;visibility:visible;display:inline;overflow:visible;enable-background:accumulate" />
  </g>
</svg>
