<?xml version="1.0" encoding="UTF-8" standalone="no"?>
<!-- Created with Inkscape (http://www.inkscape.org/) -->

<svg
   xmlns:dc="http://purl.org/dc/elements/1.1/"
   xmlns:cc="http://creativecommons.org/ns#"
   xmlns:rdf="http://www.w3.org/1999/02/22-rdf-syntax-ns#"
   xmlns:svg="http://www.w3.org/2000/svg"
   xmlns="http://www.w3.org/2000/svg"
   xmlns:xlink="http://www.w3.org/1999/xlink"
   xmlns:sodipodi="http://sodipodi.sourceforge.net/DTD/sodipodi-0.dtd"
   xmlns:inkscape="http://www.inkscape.org/namespaces/inkscape"
   version="1.1"
   width="64"
   height="64"
   id="svg4279"
   inkscape:version="0.48.4 r9939"
   sodipodi:docname="appointment-new.svg">
  <sodipodi:namedview
     pagecolor="#ffffff"
     bordercolor="#666666"
     borderopacity="1"
     objecttolerance="10"
     gridtolerance="10"
     guidetolerance="10"
     inkscape:pageopacity="0"
     inkscape:pageshadow="2"
     inkscape:window-width="640"
     inkscape:window-height="480"
     id="namedview63"
     showgrid="false"
     inkscape:zoom="3.6875"
     inkscape:cx="32"
     inkscape:cy="32"
     inkscape:window-x="0"
     inkscape:window-y="30"
     inkscape:window-maximized="0"
     inkscape:current-layer="svg4279" />
  <defs
     id="defs4281">
    <linearGradient
       id="linearGradient4119">
      <stop
         id="stop4121"
         style="stop-color:#ffffff;stop-opacity:1"
         offset="0" />
      <stop
         id="stop4148"
         style="stop-color:#afaba5;stop-opacity:1"
         offset="0.53996283" />
      <stop
         id="stop4146"
         style="stop-color:#837874;stop-opacity:1"
         offset="0.61988848" />
      <stop
         id="stop4123"
         style="stop-color:#b4b2aa;stop-opacity:1"
         offset="1" />
    </linearGradient>
    <linearGradient
       x1="71.204407"
       y1="15.369057"
       x2="71.204407"
       y2="40.495617"
       id="linearGradient3221"
       xlink:href="#linearGradient4806-9"
       gradientUnits="userSpaceOnUse"
       gradientTransform="matrix(2.2452289,0,0,2.2452299,-130.05189,-62.567594)" />
    <linearGradient
       id="linearGradient4806-9">
      <stop
         id="stop4808-49"
         style="stop-color:#ffffff;stop-opacity:1"
         offset="0" />
      <stop
         id="stop4810-05"
         style="stop-color:#ffffff;stop-opacity:0.23529412"
         offset="0.42447853" />
      <stop
         id="stop4812-6"
         style="stop-color:#ffffff;stop-opacity:0.15686275"
         offset="0.82089913" />
      <stop
         id="stop4814-7"
         style="stop-color:#ffffff;stop-opacity:0.39215687"
         offset="1" />
    </linearGradient>
    <radialGradient
       cx="15.026252"
       cy="8.6257601"
       r="19.99999"
       fx="0.3035326"
       fy="8.625761"
       id="radialGradient3228"
       xlink:href="#linearGradient2867-449-88-871-390-598-476-591-434-148-57-177-641-289-620-227-114-444-680-744-4-8-69-5-4-8-426-2-9-1-4-965"
       gradientUnits="userSpaceOnUse"
       gradientTransform="matrix(-9.3338227e-8,1.5338669,-1.4451249,-1.0565052e-7,44.211136,-28.138349)" />
    <linearGradient
       id="linearGradient2867-449-88-871-390-598-476-591-434-148-57-177-641-289-620-227-114-444-680-744-4-8-69-5-4-8-426-2-9-1-4-965">
      <stop
         id="stop4036"
         style="stop-color:#f4f4f4;stop-opacity:1"
         offset="0" />
      <stop
         id="stop4040"
         style="stop-color:#dadada;stop-opacity:1"
         offset="1" />
    </linearGradient>
    <linearGradient
       id="linearGradient3820-7-2-2">
      <stop
         id="stop3822-2-6-36"
         style="stop-color:#3d3d3d;stop-opacity:1"
         offset="0" />
      <stop
         id="stop3864-8-7-6"
         style="stop-color:#686868;stop-opacity:0.49803922"
         offset="0.5" />
      <stop
         id="stop3824-1-2-4"
         style="stop-color:#686868;stop-opacity:0"
         offset="1" />
    </linearGradient>
    <radialGradient
       cx="99.157013"
       cy="186.17059"
       r="62.769119"
       fx="99.157013"
       fy="186.17059"
       id="radialGradient4277"
       xlink:href="#linearGradient3820-7-2-2"
       gradientUnits="userSpaceOnUse"
       gradientTransform="matrix(0.31862801,0,0,0.10138167,0.4057977,5.7613493)" />
    <radialGradient
       cx="16"
       cy="15.377224"
       r="0.62612247"
       fx="16"
       fy="15.377224"
       id="radialGradient3139"
       xlink:href="#linearGradient4119"
       gradientUnits="userSpaceOnUse"
       gradientTransform="matrix(0,1.9131623,-1.9131652,0,45.41917,-15.233372)" />
    <linearGradient
       inkscape:collect="always"
       xlink:href="#linearGradient4418"
       id="linearGradient3048"
       gradientUnits="userSpaceOnUse"
       gradientTransform="matrix(0.81016199,0,0,0.80527479,30.877615,31.35532)"
       x1="22.368837"
       y1="8.0323315"
       x2="22.368837"
       y2="38.274109" />
    <linearGradient
       id="linearGradient4418">
      <stop
         id="stop4420"
         style="stop-color:#ffffff;stop-opacity:1"
         offset="0" />
      <stop
         id="stop4422"
         style="stop-color:#ffffff;stop-opacity:0.23529412"
         offset="0.38443896" />
      <stop
         id="stop4424"
         style="stop-color:#ffffff;stop-opacity:0.15686275"
         offset="0.61669517" />
      <stop
         id="stop4426"
         style="stop-color:#ffffff;stop-opacity:0.39215687"
         offset="1" />
    </linearGradient>
    <linearGradient
       id="linearGradient3242-7-5">
      <stop
         id="stop3244-5-4"
         style="stop-color:#eef87e;stop-opacity:1"
         offset="0" />
      <stop
         id="stop3246-9-7"
         style="stop-color:#cde34f;stop-opacity:1"
         offset="0.26238" />
      <stop
         id="stop3248-7-4"
         style="stop-color:#93b723;stop-opacity:1"
         offset="0.66093999" />
      <stop
         id="stop3250-8-4"
         style="stop-color:#5a7e0d;stop-opacity:1"
         offset="1" />
    </linearGradient>
    <radialGradient
       r="31.000002"
       fy="48.448635"
       fx="65.916344"
       cy="48.448635"
       cx="65.916344"
       gradientTransform="matrix(0,1.2420762,-1.3512236,0,114.60033,-44.65654)"
       gradientUnits="userSpaceOnUse"
       id="radialGradient3106"
       xlink:href="#linearGradient3242-7-5"
       inkscape:collect="always" />
  </defs>
  <metadata
     id="metadata4284">
    <rdf:RDF>
      <cc:Work
         rdf:about="">
        <dc:format>image/svg+xml</dc:format>
        <dc:type
           rdf:resource="http://purl.org/dc/dcmitype/StillImage" />
        <dc:title></dc:title>
      </cc:Work>
    </rdf:RDF>
  </metadata>
  <g
     transform="translate(0,32)"
     id="layer1">
    <path
       d="m 52,24.635629 a 20,6.3636361 0 1 1 -40,0 20,6.3636361 0 1 1 40,0 z"
       inkscape:connector-curvature="0"
       id="path3818-0-2"
       style="fill:url(#radialGradient4277);fill-opacity:1;stroke:none" />
    <path
       d="M 32,-28.5 C 16.274684,-28.5 3.5,-15.725317 3.5,-5.5609506e-7 3.5,15.725316 16.274684,28.500004 32,28.5 47.725314,28.5 60.50001,15.725316 60.5,-5.5609506e-7 60.5,-15.725317 47.725314,-28.5 32,-28.5 z"
       inkscape:connector-curvature="0"
       id="path2555-7-65"
       style="color:#000000;fill:url(#radialGradient3228);fill-opacity:1;fill-rule:nonzero;stroke:none;stroke-width:1;marker:none;visibility:visible;display:inline;overflow:visible;enable-background:accumulate" />
    <path
       d="M 32,-28.5 C 16.274683,-28.5 3.5,-15.72532 3.5,-2.302439e-6 3.5,15.725317 16.274683,28.500006 32,28.5 47.725317,28.5 60.500019,15.725317 60.5,-2.302439e-6 60.5,-15.72532 47.725317,-28.5 32,-28.5 z"
       inkscape:connector-curvature="0"
       id="path2555-7-1-7"
       style="opacity:0.4;color:#000000;fill:none;stroke:#000000;stroke-width:0.99999994;stroke-linecap:round;stroke-linejoin:round;stroke-miterlimit:4;stroke-opacity:1;stroke-dasharray:none;stroke-dashoffset:0;marker:none;visibility:visible;display:inline;overflow:visible;enable-background:accumulate" />
    <path
       d="M 30.379363,1.7733112 45.700585,-15.7"
       inkscape:connector-curvature="0"
       id="path2312"
       style="fill:none;stroke:#333333;stroke-width:0.59999996;stroke-linecap:round;stroke-linejoin:miter;stroke-miterlimit:4;stroke-opacity:1;stroke-dasharray:none" />
    <path
       d="M 33.721568,0.2358975 20.3,-0.6340501"
       inkscape:connector-curvature="0"
       id="path2314"
       style="fill:#0000ff;fill-opacity:1;stroke:#333333;stroke-width:0.59999996;stroke-linecap:round;stroke-linejoin:miter;stroke-miterlimit:4;stroke-opacity:1;stroke-dasharray:none" />
    <path
       d="M 30.379363,-3.9244194 37.644116,15.7"
       inkscape:connector-curvature="0"
       id="path2316"
       style="fill:none;stroke:#eb5c3a;stroke-width:0.59999996;stroke-linecap:round;stroke-linejoin:miter;stroke-miterlimit:4;stroke-opacity:1;stroke-dasharray:none" />
    <path
       d="m 34.123789,-24.878643 c -0.243366,6e-6 -0.470713,0.05404 -0.667475,0.12136 -0.191592,0.06214 -0.340453,0.09921 -0.485437,0.182039 -0.139805,0.08286 -0.276052,0.220554 -0.364077,0.303398 -0.08801,0.08286 -0.150972,0.09029 -0.182039,0.121361 l 0.364077,0.424757 c 0.03625,-0.0466 0.114726,-0.109547 0.182039,-0.182039 0.07249,-0.07766 0.139165,-0.1754 0.242718,-0.242718 0.103565,-0.06732 0.229449,-0.135434 0.364078,-0.182039 0.139806,-0.05177 0.314562,-0.06067 0.485438,-0.06067 0.165688,4e-6 0.300483,0.01409 0.424757,0.06067 0.129458,0.04661 0.220546,0.104369 0.303397,0.182039 0.08801,0.07767 0.140603,0.205019 0.18204,0.303398 0.0466,0.09838 0.06067,0.144339 0.06067,0.242717 -6e-6,0.155345 -0.02815,0.310846 -0.121362,0.424759 -0.08804,0.113916 -0.224273,0.210197 -0.364079,0.303398 -0.139805,0.09321 -0.259064,0.16505 -0.424756,0.242717 -0.160524,0.0725 -0.345634,0.170231 -0.485436,0.24272 -0.264082,0.139806 -0.435925,0.26424 -0.606798,0.424756 -0.165688,0.155343 -0.326376,0.314565 -0.424756,0.485437 -0.09322,0.170874 -0.145787,0.35971 -0.18204,0.546118 -0.03106,0.181229 -0.06067,0.415211 -0.06067,0.606794 l 3.337381,0 0,-0.485437 -2.730584,0 c 0.02073,-0.160515 0.07475,-0.300483 0.121361,-0.424756 0.05178,-0.124272 0.144328,-0.260517 0.242717,-0.364077 0.09839,-0.103555 0.208736,-0.205015 0.364078,-0.303398 0.155341,-0.09838 0.373785,-0.199837 0.606796,-0.303399 0.09837,-0.0466 0.213912,-0.109548 0.364078,-0.182038 0.155341,-0.07249 0.279771,-0.189481 0.424757,-0.303399 0.144972,-0.113917 0.265693,-0.208735 0.364077,-0.364077 0.103566,-0.160515 0.18204,-0.389318 0.18204,-0.606796 -4e-6,-0.165694 -0.05403,-0.279771 -0.121361,-0.424759 -0.06733,-0.150156 -0.173942,-0.310837 -0.303398,-0.424756 -0.129459,-0.113906 -0.299034,-0.180579 -0.485438,-0.242719 -0.181222,-0.0673 -0.373787,-0.121355 -0.606796,-0.121359 z m -3.822814,0.06067 c -0.01022,0.02589 -0.09401,0.10437 -0.182039,0.182038 -0.08801,0.07767 -0.173943,0.154698 -0.303399,0.242719 -0.124279,0.08802 -0.279774,0.175407 -0.424758,0.242718 -0.139804,0.06733 -0.244985,0.121364 -0.364077,0.12136 l 0,0.485437 c 0.09839,3e-6 0.173941,-0.01924 0.303399,-0.06068 0.129457,-0.04141 0.305662,-0.119899 0.424756,-0.182039 0.124279,-0.06213 0.205016,-0.109548 0.303398,-0.182038 0.09839,-0.07249 0.196114,-0.119899 0.24272,-0.182039 l 0,3.337378 -1.092234,0 0,0.485438 2.609223,0 0,-0.485438 -0.970873,0 0,-4.004854 -0.546116,0 z M 8.941748,-2.7305825 c -0.274435,3.9e-6 -0.550649,0.02299 -0.788835,0.1213598 -0.238189,0.098389 -0.4307455,0.2538873 -0.6067966,0.4247572 -0.170874,0.1708737 -0.3211968,0.3737902 -0.4247566,0.6067961 C 7.0229788,-1.3498343 7,-1.1135892 7,-0.8495142 c 0,0.2589027 0.022978,0.5003264 0.1213598,0.7281556 0.09838,0.2278334 0.2538826,0.4359236 0.4247566,0.6067959 0.1708739,0.1656903 0.378963,0.2656973 0.6067966,0.3640778 0.233009,0.093209 0.464076,0.1820389 0.728156,0.1820389 0.352101,0 0.635757,-0.1221805 0.910194,-0.3033986 0.279608,-0.1812223 0.492876,-0.4226514 0.606796,-0.7281542 -3e-6,0.3831722 -0.0437,0.7312305 -0.12136,1.0315528 -0.0725,0.2951459 -0.168773,0.526214 -0.303398,0.7281556 C 9.843848,1.9668305 9.67427,2.1364082 9.487864,2.2451457 9.301455,2.3538815 9.108898,2.4271847 8.881069,2.4271847 8.591099,2.4271847 8.33042,2.3449901 8.092234,2.1844666 7.8540446,2.0291273 7.7103566,1.781069 7.6067968,1.5169911 L 7.2427196,1.881069 C 7.3928794,2.2021038 7.6202261,2.4279926 7.9101957,2.6092232 8.200161,2.7904462 8.518608,2.8519393 8.881069,2.851942 c 0.3055,-2.7e-6 0.600968,-0.047416 0.849515,-0.1820382 0.24854,-0.134625 0.43074,-0.3271848 0.606795,-0.6067959 0.181227,-0.2744334 0.326371,-0.6173154 0.424758,-1.0315543 0.09838,-0.4194153 0.182034,-0.8970848 0.182038,-1.4563111 -4e-6,-0.3572793 -0.08366,-0.6860807 -0.182038,-0.9708734 -0.09838,-0.2899652 -0.24871,-0.5313884 -0.424758,-0.7281555 C 10.166502,-2.3205455 9.973946,-2.5056601 9.730584,-2.6092233 9.487214,-2.7179577 9.231713,-2.7305786 8.941748,-2.7305825 z m 46.298549,0 c -0.186408,3.9e-6 -0.370067,0.014175 -0.546117,0.060678 -0.176058,0.041438 -0.340453,0.1043695 -0.485437,0.1820388 -0.14499,0.07767 -0.250163,0.1894952 -0.364078,0.303398 -0.113917,0.1087382 -0.241261,0.2294545 -0.303397,0.3640778 l 0.364077,0.3033981 c 0.113918,-0.2330058 0.262783,-0.4166622 0.485436,-0.5461166 0.227833,-0.1346209 0.493688,-0.1820387 0.788835,-0.1820387 0.160525,3.8e-6 0.350807,0.019224 0.485438,0.060678 0.139805,0.041437 0.265693,0.099203 0.364077,0.1820389 0.103566,0.077669 0.185767,0.1843108 0.242719,0.3033982 0.05696,0.1139226 0.06067,0.2087416 0.06067,0.3640776 -2e-6,0.2951472 -0.09111,0.5417486 -0.303398,0.7281541 -0.212301,0.1864084 -0.511491,0.3034 -0.910195,0.3033986 l -0.242717,0 0,0.4247571 0.182039,0 c 0.440126,2.7e-6 0.79854,0.096277 1.031552,0.3033986 0.233006,0.2071209 0.364074,0.4922334 0.364079,0.849514 -5e-6,0.3521028 -0.141436,0.6631069 -0.364079,0.8495153 -0.222655,0.1915918 -0.521845,0.2427182 -0.910193,0.2427182 -0.336572,0 -0.626862,-0.047416 -0.849514,-0.182039 C 54.107438,2.0498374 53.953395,1.8661778 53.844656,1.6383458 l -0.364075,0.3640783 c 0.150157,0.2796125 0.372332,0.4514571 0.667477,0.6067959 0.295143,0.160525 0.638026,0.2427161 1.031554,0.242719 0.269252,-2.9e-6 0.510677,-0.043695 0.728154,-0.1213612 C 56.130417,2.6580919 56.29854,2.5669862 56.453884,2.4271791 56.614389,2.2925541 56.735109,2.1385056 56.817961,1.941743 56.905971,1.75015 57,1.5072763 57,1.2742666 56.999997,0.9014514 56.90371,0.6177957 56.696601,0.3640735 56.494658,0.1103526 56.18883,-0.0644043 55.847088,-0.121364 c 0.160503,-0.020723 0.30048,-0.048875 0.424755,-0.1213612 0.129459,-0.077666 0.276049,-0.1946583 0.36408,-0.3033972 0.08801,-0.1139024 0.135443,-0.2242709 0.182038,-0.3640778 0.0466,-0.1449709 0.06067,-0.2694139 0.06067,-0.424757 -2e-6,-0.2071165 -0.03852,-0.4359185 -0.121361,-0.6067961 -0.07766,-0.1708686 -0.219093,-0.3056551 -0.364074,-0.4247522 -0.144989,-0.1242718 -0.2835,-0.2360796 -0.485437,-0.3033981 -0.196758,-0.0673 -0.429282,-0.060679 -0.667466,-0.060679 z M 8.941748,-2.3058251 c 0.196762,3.8e-6 0.37524,0.043689 0.546116,0.1213597 0.176049,0.072503 0.295306,0.1687766 0.424758,0.3033981 0.134625,0.1294569 0.286404,0.3093884 0.364078,0.485437 0.07766,0.1708737 0.121356,0.3545337 0.12136,0.5461157 -3e-6,0.1967666 -0.04368,0.3700666 -0.12136,0.5461166 -0.0725,0.1708737 -0.168774,0.2953084 -0.303399,0.424757 C 9.843849,0.2508174 9.663913,0.4077689 9.487864,0.4854368 9.311811,0.5579228 9.13851,0.5461178 8.941748,0.5461178 8.744983,0.5461192 8.571682,0.5579278 8.395633,0.4854368 8.224757,0.4077668 8.039642,0.2508105 7.9101957,0.121359 7.7807446,-0.0080896 7.6844653,-0.1325214 7.6067968,-0.303398 7.5291338,-0.4794562 7.4854381,-0.652748 7.4854381,-0.8495146 c -1.1e-6,-0.1967611 0.04887,-0.3752386 0.1213587,-0.5461163 0.077663,-0.1760389 0.1739478,-0.3559845 0.3033989,-0.485437 C 8.044822,-2.0105241 8.224757,-2.1119708 8.395633,-2.184466 8.571683,-2.262137 8.744983,-2.3058251 8.941748,-2.3058251 z M 32.424761,19.235437 c -0.305503,6e-6 -0.600973,0.108098 -0.849514,0.242719 -0.248546,0.134639 -0.425568,0.327191 -0.606796,0.606799 -0.176059,0.274438 -0.326378,0.612138 -0.424759,1.031552 -0.09839,0.414242 -0.121362,0.897088 -0.121362,1.456311 0,0.357284 0.02815,0.680907 0.121362,0.970874 0.09839,0.28479 0.248706,0.53139 0.424759,0.728155 0.176057,0.196766 0.363428,0.31602 0.606796,0.424757 0.243363,0.103565 0.498865,0.182039 0.788833,0.182039 0.274432,0 0.550646,-0.02298 0.788835,-0.121361 0.238186,-0.09839 0.43592,-0.253884 0.606797,-0.424756 0.176059,-0.170874 0.32637,-0.378965 0.424759,-0.606797 0.103554,-0.233009 0.12136,-0.464076 0.12136,-0.728156 -4e-6,-0.258896 -0.02299,-0.50032 -0.12136,-0.728155 -0.09839,-0.227829 -0.253889,-0.441098 -0.424759,-0.606796 -0.170874,-0.170874 -0.37379,-0.27087 -0.606797,-0.364078 -0.227834,-0.09837 -0.464078,-0.182038 -0.728154,-0.182038 -0.352106,3e-6 -0.630585,0.122179 -0.910195,0.303398 -0.274436,0.181223 -0.49288,0.422655 -0.606797,0.728155 0,-0.37799 0.04888,-0.731227 0.121361,-1.031553 0.07766,-0.300322 0.173943,-0.586889 0.303398,-0.788835 0.134625,-0.207115 0.299027,-0.316015 0.485438,-0.424758 0.186409,-0.108738 0.378962,-0.182039 0.606796,-0.182039 0.289965,7e-6 0.550644,0.08221 0.788835,0.242719 0.238184,0.15534 0.442554,0.342722 0.546116,0.606796 l 0.303399,-0.303397 c -0.150175,-0.321033 -0.377513,-0.546921 -0.667476,-0.728157 -0.289972,-0.181223 -0.608417,-0.303392 -0.970874,-0.303398 z m -0.06067,2.305826 c 0.191592,4e-6 0.370063,0.0437 0.546117,0.12136 0.176058,0.07249 0.355985,0.173943 0.485436,0.303399 0.129458,0.129459 0.225725,0.309387 0.303399,0.485436 0.07766,0.170874 0.121362,0.349357 0.121362,0.546118 -5e-6,0.196765 -0.04369,0.370066 -0.121362,0.546116 -0.07249,0.170874 -0.168777,0.295309 -0.303399,0.424758 -0.129458,0.129457 -0.309387,0.286407 -0.485436,0.364077 -0.170874,0.07249 -0.349355,0.06067 -0.546117,0.06067 -0.196765,0 -0.370066,0.01178 -0.546116,-0.06067 -0.170874,-0.07766 -0.29013,-0.234626 -0.424758,-0.364077 -0.129458,-0.134625 -0.286409,-0.253883 -0.364077,-0.424758 -0.07766,-0.170874 -0.06067,-0.349351 -0.06067,-0.546116 -2e-6,-0.196761 -0.01178,-0.375242 0.06067,-0.546118 0.07766,-0.176058 0.173942,-0.355985 0.303398,-0.485436 0.134625,-0.129457 0.309383,-0.230903 0.485437,-0.303399 0.176058,-0.07766 0.349351,-0.12136 0.546116,-0.12136 z"
       inkscape:connector-curvature="0"
       id="text4045"
       style="font-size:4px;font-style:normal;font-variant:normal;font-weight:normal;font-stretch:normal;line-height:125%;letter-spacing:0px;word-spacing:0px;opacity:0.4;fill:#000000;fill-opacity:1;stroke:none;font-family:Raleway;-inkscape-font-specification:Raleway" />
    <path
       d="M 59.499998,-1.6461538e-6 C 59.499998,15.18783 47.1878,27.499998 31.999998,27.499998 16.812197,27.499998 4.4999997,15.18783 4.4999997,-1.6461538e-6 4.4999997,-15.187829 16.812197,-27.500001 31.999998,-27.500001 c 15.187802,0 27.5,12.312172 27.5,27.4999993538462 z"
       inkscape:connector-curvature="0"
       id="path3421"
       style="color:#000000;fill:none;stroke:url(#linearGradient3221);stroke-width:0.99999988;stroke-linecap:round;stroke-linejoin:round;stroke-miterlimit:4;stroke-opacity:1;stroke-dasharray:none;stroke-dashoffset:0;marker:none;visibility:visible;display:inline;overflow:visible;enable-background:accumulate" />
    <path
       d="m 16.626122,16 a 0.62612247,0.62612247 0 1 1 -1.252244,0 0.62612247,0.62612247 0 1 1 1.252244,0 z"
       transform="matrix(1.601464,0,0,1.5971316,6.376576,-25.554106)"
       id="path4117"
       style="color:#000000;fill:url(#radialGradient3139);fill-opacity:1;fill-rule:nonzero;stroke:none;stroke-width:1.25224495;marker:none;visibility:visible;display:inline;overflow:visible;enable-background:accumulate" />
  </g>
  <path
     style="color:#000000;fill:url(#radialGradient3106);fill-opacity:1;fill-rule:nonzero;stroke:none;stroke-width:0.98542738;marker:none;visibility:visible;display:inline;overflow:visible;enable-background:accumulate"
     id="path2262"
     inkscape:connector-curvature="0"
     d="m 44.5,45.50002 0,-8.0337 9.104416,0 -0.104416,8.0337 8.007287,0 0,9 -8.007287,0 0,8.0073 -9,0 0,-8.0073 -8.007286,0 0,-9 8.007286,0 z" />
  <path
     style="opacity:0.5;fill:none;stroke:url(#linearGradient3048);stroke-width:1;stroke-linecap:butt;stroke-linejoin:miter;stroke-miterlimit:4;stroke-opacity:1;stroke-dasharray:none;display:inline"
     id="path2272"
     inkscape:connector-curvature="0"
     d="m 45.5,46.50002 0,-8 7,0 0,8 7.999999,0 0,7 -7.999999,0 0,8 -7,0 0,-8 -8.000001,0 0,-7 8.000001,0 z" />
  <path
     style="opacity:0.3;color:#000000;fill:none;stroke:#000000;stroke-width:0.98542738;stroke-linecap:round;stroke-linejoin:round;stroke-miterlimit:4;stroke-opacity:1;stroke-dasharray:none;stroke-dashoffset:0;marker:none;visibility:visible;display:inline;overflow:visible;enable-background:accumulate"
     id="path2262-9"
     inkscape:connector-curvature="0"
     d="m 44.5,45.50002 0,-8.0337 9.104416,0 -0.104416,8.0337 8.007287,0 0,9 -8.007287,0 0,8.0073 -9,0 0,-8.0073 -8.007286,0 0,-9 8.007286,0 z" />
</svg>
