<?xml version="1.0" encoding="UTF-8" standalone="no"?>
<!-- Created with Inkscape (http://www.inkscape.org/) -->

<svg
   xmlns:dc="http://purl.org/dc/elements/1.1/"
   xmlns:cc="http://creativecommons.org/ns#"
   xmlns:rdf="http://www.w3.org/1999/02/22-rdf-syntax-ns#"
   xmlns:svg="http://www.w3.org/2000/svg"
   xmlns="http://www.w3.org/2000/svg"
   xmlns:xlink="http://www.w3.org/1999/xlink"
   xmlns:inkscape="http://www.inkscape.org/namespaces/inkscape"
   version="1.1"
   width="64"
   height="64"
   id="svg2992">
  <defs
     id="defs2994">
    <linearGradient
       id="linearGradient3794">
      <stop
         id="stop3796"
         style="stop-color:#000000;stop-opacity:1"
         offset="0" />
      <stop
         id="stop3798"
         style="stop-color:#000000;stop-opacity:0"
         offset="1" />
    </linearGradient>
    <radialGradient
       cx="23.895569"
       cy="3.9900031"
       r="20.397499"
       fx="23.895569"
       fy="3.9900031"
       id="radialGradient2910"
       xlink:href="#linearGradient3242"
       gradientUnits="userSpaceOnUse"
       gradientTransform="matrix(0,2.9913581,-3.9485396,0,47.754682,-64.903143)" />
    <linearGradient
       id="linearGradient3242">
      <stop
         id="stop3244"
         style="stop-color:#f8b17e;stop-opacity:1"
         offset="0" />
      <stop
         id="stop3246"
         style="stop-color:#e35d4f;stop-opacity:1"
         offset="0.26238" />
      <stop
         id="stop3248"
         style="stop-color:#c6262e;stop-opacity:1"
         offset="0.66093999" />
      <stop
         id="stop3250"
         style="stop-color:#690b54;stop-opacity:1"
         offset="1" />
    </linearGradient>
    <linearGradient
       x1="18.379412"
       y1="44.980297"
       x2="18.379412"
       y2="3.0816143"
       id="linearGradient2912"
       xlink:href="#linearGradient2490"
       gradientUnits="userSpaceOnUse"
       gradientTransform="matrix(1.2533672,0,0,1.2533674,1.919184,3.919169)" />
    <linearGradient
       id="linearGradient2490">
      <stop
         id="stop2492"
         style="stop-color:#791235;stop-opacity:1"
         offset="0" />
      <stop
         id="stop2494"
         style="stop-color:#dd3b27;stop-opacity:1"
         offset="1" />
    </linearGradient>
    <linearGradient
       id="linearGradient8838-1">
      <stop
         id="stop8840-3"
         style="stop-color:#000000;stop-opacity:1"
         offset="0" />
      <stop
         id="stop8842-2"
         style="stop-color:#000000;stop-opacity:0"
         offset="1" />
    </linearGradient>
    <radialGradient
       cx="62.625"
       cy="4.625"
       r="10.625"
       fx="62.625"
       fy="4.625"
       id="radialGradient2990"
       xlink:href="#linearGradient8838-1"
       gradientUnits="userSpaceOnUse"
       gradientTransform="matrix(2.9176471,0,0,0.988234,-150.71765,48.92941)" />
    <linearGradient
       x1="31.973871"
       y1="22.567219"
       x2="31.973871"
       y2="46.054375"
       id="linearGradient3800"
       xlink:href="#linearGradient3794"
       gradientUnits="userSpaceOnUse" />
    <linearGradient
       id="linearGradient4011">
      <stop
         id="stop4013"
         style="stop-color:#ffffff;stop-opacity:1"
         offset="0" />
      <stop
         id="stop4015"
         style="stop-color:#ffffff;stop-opacity:0.23529412"
         offset="0.507761" />
      <stop
         id="stop4017"
         style="stop-color:#ffffff;stop-opacity:0.15686275"
         offset="0.83456558" />
      <stop
         id="stop4019"
         style="stop-color:#ffffff;stop-opacity:0.39215687"
         offset="1" />
    </linearGradient>
    <linearGradient
       x1="71.204407"
       y1="6.2375584"
       x2="71.204407"
       y2="44.340794"
       id="linearGradient3288"
       xlink:href="#linearGradient4011"
       gradientUnits="userSpaceOnUse"
       gradientTransform="matrix(1.3243242,0,0,1.3243242,-62.998438,0.4187934)" />
  </defs>
  <metadata
     id="metadata2997">
    <rdf:RDF>
      <cc:Work
         rdf:about="">
        <dc:format>image/svg+xml</dc:format>
        <dc:type
           rdf:resource="http://purl.org/dc/dcmitype/StillImage" />
        <dc:title />
      </cc:Work>
    </rdf:RDF>
  </metadata>
  <g
     id="layer1">
    <path
       d="m 63,53.499998 c 0,5.79899 -13.879175,10.5 -31,10.5 -17.120825,0 -31,-4.70101 -31,-10.5 0,-5.79899 13.879175,-10.5 31,-10.5 17.120825,0 31,4.70101 31,10.5 l 0,0 z"
       inkscape:connector-curvature="0"
       id="path8836-1"
       style="opacity:0.3;fill:url(#radialGradient2990);fill-opacity:1;fill-rule:evenodd;stroke:none;stroke-width:0.99999988;marker:none;visibility:visible;display:inline;overflow:visible" />
    <path
       d="m 32.000001,8.501793 c -14.069021,0 -25.4981918,11.429168 -25.4981918,25.49819 0,14.069021 11.4291708,25.498194 25.4981918,25.49819 14.069016,0 25.4982,-11.429169 25.498187,-25.49819 0,-14.069022 -11.429171,-25.49819 -25.498187,-25.49819 z"
       inkscape:connector-curvature="0"
       id="path2555-5"
       style="fill:url(#radialGradient2910);fill-opacity:1;stroke:url(#linearGradient2912);stroke-width:1;stroke-linecap:round;stroke-linejoin:round;stroke-miterlimit:4;stroke-opacity:1;stroke-dasharray:none;stroke-dashoffset:0" />
    <path
       d="m 23.787375,20.750002 -3.787376,3.787374 7.813954,7.774087 c 0.240054,0.24308 0.240054,0.633996 0,0.877075 l -7.813954,7.774087 3.787376,3.787375 7.774086,-7.774086 c 0.243081,-0.240055 0.633995,-0.240055 0.877076,0 L 40.212623,44.75 43.999999,40.962625 36.225912,33.188538 c -0.240055,-0.243079 -0.240055,-0.633995 0,-0.877075 l 7.774087,-7.774087 -3.787376,-3.787374 -7.774086,7.774085 c -0.243081,0.240057 -0.633995,0.240057 -0.877076,0 l -7.774086,-7.774085 z"
       inkscape:connector-curvature="0"
       id="path3256-1"
       style="fill:#a8252e;fill-opacity:1;fill-rule:evenodd;stroke:none" />
    <path
       d="m 23.787375,22.000002 -3.787376,3.787374 7.813954,7.774087 c 0.240054,0.24308 0.240054,0.633996 0,0.877075 L 19.999999,42.212625 23.787375,46 31.561461,38.225914 c 0.243081,-0.240055 0.633995,-0.240055 0.877076,0 L 40.212623,46 43.999999,42.212625 36.225912,34.438538 c -0.240055,-0.243079 -0.240055,-0.633995 0,-0.877075 l 7.774087,-7.774087 -3.787376,-3.787374 -7.774086,7.774085 c -0.243081,0.240057 -0.633995,0.240057 -0.877076,0 l -7.774086,-7.774085 z"
       inkscape:connector-curvature="0"
       id="path3256"
       style="fill:#ffffff;fill-opacity:1;fill-rule:evenodd;stroke:none" />
    <path
       d="M 40.21875,45.3125 C 41.25,44.28125 42.28125,43.25 43.3125,42.21875 40.833333,39.739583 38.354167,37.260417 35.875,34.78125 35.159101,34.080989 35.781725,33.190678 36.39475,32.699 38.700667,30.393083 41.006583,28.087167 43.3125,25.78125 42.28125,24.75 41.25,23.71875 40.21875,22.6875 c -2.479167,2.479167 -4.958333,4.958333 -7.4375,7.4375 -0.700261,0.715898 -1.590572,0.09327 -2.08225,-0.51975 -2.305917,-2.305917 -4.611833,-4.611833 -6.91775,-6.91775 -1.03125,1.03125 -2.0625,2.0625 -3.09375,3.09375 2.489583,2.479167 4.979167,4.958333 7.46875,7.4375 0.715752,0.700117 0.09388,1.591175 -0.520839,2.081159 -2.31597,2.306281 -4.631941,4.612561 -6.947911,6.918841 1.03125,1.03125 2.0625,2.0625 3.09375,3.09375"
       inkscape:connector-curvature="0"
       id="path3791"
       style="opacity:0.1;fill:none;stroke:url(#linearGradient3800);stroke-opacity:1" />
    <path
       d="m 56.499999,33.999132 c 0,13.531412 -10.969831,24.500867 -24.49969,24.500867 -13.531097,0 -24.5003091,-10.969579 -24.5003091,-24.500867 0,-13.530787 10.9692121,-24.49913 24.5003091,-24.49913 13.529859,0 24.49969,10.968343 24.49969,24.49913 l 0,0 z"
       inkscape:connector-curvature="0"
       id="path8655-6"
       style="opacity:0.5;color:#000000;fill:none;stroke:url(#linearGradient3288);stroke-width:1;stroke-linecap:round;stroke-linejoin:round;stroke-miterlimit:4;stroke-opacity:1;stroke-dasharray:none;stroke-dashoffset:0;marker:none;visibility:visible;display:inline;overflow:visible;enable-background:accumulate" />
  </g>
</svg>
