<svg xmlns="http://www.w3.org/2000/svg" height="48" width="48"><rect width="39" height="39" rx="2" ry="2" x="4.5" y="5.5" style="color:#000;display:inline;overflow:visible;visibility:visible;fill:#95a3ab;fill-opacity:.2;fill-rule:nonzero;stroke:#667885;stroke-width:1;stroke-linecap:round;stroke-linejoin:round;stroke-miterlimit:4;stroke-dasharray:none;stroke-dashoffset:0;stroke-opacity:1;marker:none;enable-background:accumulate"/><path style="color:#000;display:inline;overflow:visible;visibility:visible;fill:#95a3ab;fill-opacity:.77777779;fill-rule:nonzero;stroke:#667885;stroke-width:1;stroke-linecap:round;stroke-linejoin:round;stroke-miterlimit:4;stroke-dasharray:none;stroke-dashoffset:0;stroke-opacity:1;marker:none;enable-background:accumulate" d="M24 8.5c-2.127 0-3.992.885-5.057 2.217-2.236 1.259-4.027 3.32-5.037 5.842C15.8 18.236 19.605 19.375 24 19.375s8.2-1.139 10.094-2.816c-1.01-2.522-2.801-4.583-5.037-5.842C27.992 9.385 26.127 8.5 24 8.5zm0 11c-.077 0-.152.01-.229.012l.104.644c-3.01 4.262-5.393 10.042-6.979 14.522A8.476 8.476 0 0 0 24 38.5a8.475 8.475 0 0 0 7.094-3.809c-1.586-4.482-3.969-10.269-6.983-14.535l.104-.646c-.072-.002-.142-.01-.215-.01z"/><path style="fill:#95a3ab;fill-opacity:.33625731;stroke:#667885;stroke-width:1px;stroke-linecap:butt;stroke-linejoin:miter;stroke-opacity:1" d="M13.781 16.156c-3.618 2.265-6.969 5.885-6.969 11.563 0 12.133 7.938 13.718 7.938 13.718s3.524-13.353 9.125-21.28l-.125-.782c-4.401-.048-8.163-1.352-9.969-3.219zm20.424 0c-1.805 1.867-5.567 3.17-9.969 3.219l-.125.781c5.602 7.928 9.125 21.282 9.125 21.282s7.938-1.586 7.938-13.72c0-5.677-3.351-9.297-6.969-11.562z"/><path d="M14 27.5a1.5 1.5 0 1 0 3 0 1.5 1.5 0 1 0-3 0zM12 22a1 1 0 1 0 2 0 1 1 0 1 0-2 0zm-1 11a1 1 0 1 0 2 0 1 1 0 1 0-2 0zm22.987-5.5a1.5 1.5 0 1 1-3 0 1.5 1.5 0 1 1 3 0zm2-5.5a1 1 0 1 1-2 0 1 1 0 1 1 2 0zm1 11a1 1 0 1 1-2 0 1 1 0 1 1 2 0z" style="fill:#667885;stroke:none;fill-opacity:1"/><path d="M21 8a1 1 0 0 1-2 0 1 1 0 1 1 2 0zm8 0a1 1 0 0 1-2 0 1 1 0 1 1 2 0z" style="color:#000;display:inline;overflow:visible;visibility:visible;fill:#667885;fill-opacity:1;stroke:none;stroke-width:1.72351885px;marker:none;enable-background:accumulate"/><path d="M43.12 43.352s-3.052-2.363-5.678-4.782M4.45 28.22s.922.983 2.49 2.179M4.45 17.836s1.385.495 5.143-.692m-5.242-4.55s3.117 2.885 6.766 5.526M34.12 5.375s3.065 5.242 9.296 6.824" style="color:#000;display:inline;overflow:visible;visibility:visible;opacity:.3;fill:none;fill-opacity:1;fill-rule:nonzero;stroke:#667885;stroke-width:1;stroke-linecap:round;stroke-linejoin:round;stroke-miterlimit:4;stroke-dasharray:none;stroke-dashoffset:0;stroke-opacity:1;marker:none;enable-background:accumulate"/></svg>