<svg xmlns="http://www.w3.org/2000/svg" width="432" height="444"><g transform="translate(-446.844 -518.938)"><rect width="430" height="442" x="447.857" y="519.934" rx="2" ry="2" opacity=".5" fill="none" stroke="#586e75" stroke-width="2"/><path opacity=".25" fill="#586e75" d="M448.857 564.934h428v2h-428z"/><rect ry="2" rx="2" y="735.934" x="507.857" height="58" width="310" opacity=".5" fill="none" stroke="#586e75" stroke-width="2"/><path d="M563.517 627.438h3.188l7.758 14.636v-14.636h2.296v17.496h-3.19l-7.758-14.637v14.637h-2.297v-17.496m22.948 5.882c-1.157 0-2.07.453-2.743 1.36-.67.898-1.007 2.133-1.007 3.703 0 1.57.332 2.808.996 3.715.67.898 1.59 1.347 2.75 1.347 1.15 0 2.06-.453 2.73-1.36.673-.905 1.01-2.14 1.01-3.702 0-1.555-.336-2.785-1.008-3.692-.672-.91-1.582-1.37-2.73-1.37m0-1.826c1.875 0 3.347.61 4.418 1.828 1.07 1.22 1.607 2.908 1.607 5.064 0 2.148-.535 3.836-1.605 5.062-1.07 1.22-2.542 1.828-4.417 1.828-1.883 0-3.36-.61-4.43-1.828-1.063-1.226-1.594-2.914-1.594-5.062 0-2.156.53-3.844 1.595-5.063 1.07-1.217 2.547-1.827 4.43-1.827m27.83.314v13.124h-2.168v-11.45h-5.918v11.45h-2.17v-11.45h-2.064v-1.675h2.063v-.917c0-1.43.336-2.485 1.01-3.165.677-.688 1.716-1.03 3.115-1.03h2.168v1.79h-2.063c-.77 0-1.31.157-1.615.47-.297.31-.445.875-.445 1.687v1.16h8.085m-2.168-5.085h2.168v2.73h-2.168v-2.73m6.703-.02h2.156v18.234h-2.156V626.7m17.883 11.132v1.055H626.8c.092 1.484.538 2.617 1.334 3.398.805.774 1.922 1.16 3.352 1.16.828 0 1.63-.1 2.402-.304.782-.2 1.555-.505 2.32-.91v2.04c-.773.326-1.566.576-2.378.75-.813.17-1.637.255-2.473.255-2.094 0-3.754-.61-4.98-1.828-1.22-1.218-1.828-2.867-1.828-4.945 0-2.147.575-3.85 1.73-5.11 1.165-1.264 2.73-1.897 4.7-1.897 1.766 0 3.16.57 4.184 1.71 1.03 1.134 1.547 2.677 1.547 4.63m-2.156-.633c-.015-1.18-.347-2.122-.996-2.825-.64-.703-1.493-1.055-2.555-1.055-1.204 0-2.168.34-2.895 1.02-.718.68-1.132 1.637-1.24 2.87l7.686-.01m14.066-5.007v2.04c-.61-.313-1.243-.547-1.9-.704-.656-.153-1.336-.23-2.04-.23-1.07 0-1.874.163-2.413.49-.53.328-.797.82-.797 1.477 0 .5.192.894.575 1.183.382.28 1.152.55 2.308.807l.738.164c1.535.33 2.62.795 3.26 1.396.65.594.974 1.426.974 2.496 0 1.22-.484 2.185-1.453 2.896-.96.71-2.285 1.066-3.973 1.066-.703 0-1.437-.07-2.203-.21-.758-.133-1.56-.336-2.402-.61v-2.226c.8.414 1.584.726 2.357.937.773.203 1.54.305 2.296.305 1.016 0 1.797-.173 2.344-.517.547-.35.82-.843.82-1.475 0-.586-.2-1.036-.598-1.348-.39-.314-1.254-.614-2.59-.903l-.75-.176c-1.336-.28-2.3-.71-2.895-1.287-.594-.586-.89-1.387-.89-2.403 0-1.235.437-2.188 1.312-2.86.874-.672 2.116-1.008 3.726-1.008.796 0 1.546.06 2.25.175.703.117 1.35.293 1.945.527m17.753 6.142c-1.742 0-2.95.2-3.62.598-.673.398-1.01 1.078-1.01 2.04 0 .764.25 1.374.75 1.827.51.448 1.196.67 2.063.67 1.196 0 2.153-.42 2.87-1.265.728-.85 1.09-1.98 1.09-3.387v-.48h-2.143m4.3-.89v7.488h-2.156v-1.993c-.492.798-1.105 1.388-1.84 1.77-.734.376-1.632.563-2.695.563-1.344 0-2.414-.375-3.21-1.125-.79-.756-1.184-1.77-1.184-3.034 0-1.476.492-2.59 1.476-3.34.992-.75 2.47-1.125 4.43-1.125h3.023v-.21c0-.992-.328-1.757-.984-2.296-.65-.546-1.563-.82-2.742-.82-.75 0-1.48.09-2.19.27-.71.18-1.393.45-2.05.808v-1.99c.79-.305 1.555-.53 2.297-.68.743-.157 1.465-.235 2.168-.235 1.9 0 3.317.492 4.254 1.477.937.983 1.406 2.475 1.406 4.475m12.056-3.626c-.242-.14-.508-.242-.797-.304-.28-.07-.594-.106-.937-.106-1.22 0-2.157.4-2.813 1.195-.648.786-.972 1.923-.972 3.41v6.912h-2.168V631.81h2.168v2.038c.453-.797 1.043-1.387 1.77-1.77.726-.39 1.608-.586 2.648-.586.15 0 .315.012.495.035.18.016.38.043.597.082l.013 2.212m12.993 4.01v1.055h-9.914c.094 1.484.54 2.617 1.336 3.398.805.774 1.922 1.16 3.352 1.16.828 0 1.63-.1 2.402-.304.78-.2 1.555-.505 2.32-.91v2.04c-.773.326-1.566.576-2.38.75-.81.17-1.635.255-2.47.255-2.095 0-3.755-.61-4.982-1.828-1.218-1.218-1.828-2.867-1.828-4.945 0-2.147.578-3.85 1.735-5.11 1.16-1.264 2.73-1.897 4.696-1.897 1.765 0 3.16.57 4.183 1.71 1.032 1.134 1.547 2.677 1.547 4.63m-2.156-.633c-.015-1.18-.347-2.122-.995-2.825-.64-.703-1.492-1.055-2.555-1.055-1.2 0-2.166.34-2.892 1.02-.72.68-1.133 1.637-1.243 2.87l7.688-.01m18.42-3.882c-1.155 0-2.07.453-2.74 1.36-.673.898-1.01 2.133-1.01 3.703 0 1.57.333 2.808.997 3.715.672.898 1.59 1.347 2.754 1.347 1.148 0 2.058-.453 2.73-1.36.672-.905 1.008-2.14 1.008-3.702 0-1.555-.336-2.785-1.008-3.692-.672-.91-1.582-1.37-2.73-1.37m0-1.826c1.875 0 3.347.61 4.418 1.828 1.07 1.22 1.605 2.908 1.605 5.064 0 2.148-.535 3.836-1.605 5.062-1.07 1.22-2.543 1.828-4.418 1.828-1.883 0-3.36-.61-4.43-1.828-1.062-1.226-1.594-2.914-1.594-5.062 0-2.156.532-3.844 1.594-5.063 1.07-1.217 2.547-1.827 4.43-1.827m11.672 11.47v6.96h-2.168V631.81h2.168v1.99c.453-.78 1.023-1.36 1.71-1.734.696-.382 1.524-.574 2.485-.574 1.597 0 2.89.633 3.88 1.9 1 1.264 1.5 2.928 1.5 4.99 0 2.063-.5 3.727-1.5 4.993-.99 1.266-2.283 1.898-3.88 1.898-.96 0-1.786-.187-2.48-.562-.69-.38-1.26-.962-1.71-1.743m7.334-4.582c0-1.586-.328-2.828-.985-3.727-.65-.906-1.544-1.36-2.684-1.36s-2.04.454-2.696 1.36c-.65.9-.973 2.14-.973 3.727 0 1.586.324 2.832.972 3.738.655.9 1.553 1.35 2.694 1.35 1.14 0 2.035-.45 2.683-1.35.657-.905.985-2.15.985-3.737m17.038-.554v1.055h-9.913c.093 1.484.54 2.617 1.336 3.398.804.774 1.92 1.16 3.35 1.16.83 0 1.63-.1 2.403-.304.782-.2 1.555-.505 2.32-.91v2.04c-.773.326-1.566.576-2.378.75-.813.17-1.637.255-2.473.255-2.094 0-3.754-.61-4.98-1.828-1.22-1.218-1.828-2.867-1.828-4.945 0-2.147.578-3.85 1.734-5.11 1.167-1.264 2.73-1.897 4.7-1.897 1.768 0 3.16.57 4.186 1.71 1.03 1.134 1.547 2.677 1.547 4.63m-2.156-.633c-.015-1.18-.347-2.122-.996-2.825-.64-.703-1.49-1.055-2.553-1.055-1.203 0-2.168.34-2.895 1.02-.72.68-1.133 1.637-1.242 2.87l7.687-.01m16.603-.19v7.922h-2.156v-7.852c0-1.242-.243-2.172-.727-2.79-.484-.616-1.21-.925-2.18-.925-1.164 0-2.082.37-2.753 1.113-.672.743-1.008 1.754-1.008 3.036v7.418h-2.168V631.81h2.168v2.038c.515-.79 1.12-1.38 1.816-1.77.703-.39 1.512-.586 2.426-.586 1.508 0 2.648.47 3.422 1.406.773.93 1.16 2.3 1.16 4.114" style="line-height:150%;-inkscape-font-specification:Open Sans" font-size="24" letter-spacing="0" word-spacing="0" text-anchor="middle" color="#000" fill="#586e75" overflow="visible" enable-background="accumulate" font-family="Open Sans"/><path d="M550.99 665.903c-.844-1.095-1.983-1.643-3.42-1.643-1.435 0-2.577.548-3.427 1.643-.844 1.096-1.265 2.59-1.265 4.483 0 1.88.42 3.37 1.265 4.465.85 1.098 1.992 1.646 3.428 1.646 1.44 0 2.578-.548 3.42-1.643.84-1.095 1.26-2.583 1.26-4.464 0-1.894-.42-3.388-1.258-4.484m-3.42-2.33c1.7 0 3.06.617 4.08 1.847 1.02 1.236 1.53 2.892 1.53 4.966 0 2.067-.51 3.717-1.53 4.947-1.02 1.236-2.38 1.855-4.078 1.855-1.704 0-3.07-.616-4.095-1.846-1.02-1.23-1.53-2.883-1.53-4.957s.51-3.73 1.53-4.967c1.025-1.23 2.39-1.845 4.095-1.845m9.92 11.122v5.978h-.79V667.09h.79v2.25c.37-.856.77-1.44 1.203-1.758.662-.486 1.286-.73 1.872-.73 1.166 0 2.136.475 2.91 1.424.773.95 1.16 2.198 1.16 3.745 0 1.55-.387 2.797-1.16 3.747-.774.95-1.744 1.424-2.91 1.424-.586 0-1.21-.244-1.872-.73-.434-.316-.835-.902-1.204-1.76m5.273.75c.68-.686 1.02-1.83 1.02-3.428 0-1.6-.34-2.74-1.02-3.426-.674-.686-1.385-1.028-2.135-1.028-.733 0-1.44.342-2.12 1.028-.672.685-1.01 1.828-1.01 3.428 0 1.6.338 2.743 1.01 3.428.68.686 1.387 1.03 2.12 1.03.75 0 1.46-.344 2.135-1.03m13.017-3.845v.51h-7.47c0 1.582.307 2.69.922 3.323.68.703 1.69 1.054 3.032 1.054.352 0 .818-.076 1.398-.228.586-.153 1.166-.38 1.74-.686v.853c-.58.246-1.175.433-1.784.562-.61.13-1.093.194-1.45.194-1.518 0-2.66-.414-3.428-1.234-.832-.873-1.248-2.153-1.248-3.84 0-1.753.38-3.06 1.142-3.92.78-.897 1.864-1.345 3.252-1.345 1.29 0 2.262.425 2.918 1.275.65.89.976 2.05.976 3.48m-.818-.175c0-1.382-.31-2.39-.93-3.023-.523-.562-1.232-.843-2.128-.843-.98 0-1.8.292-2.46.878-.61.545-.977 1.54-1.1 2.99h6.618m11.654-.44v5.942h-.808v-5.89c0-1.276-.205-2.176-.615-2.697-.41-.522-1.014-.782-1.81-.782-.932 0-1.73.28-2.39.843-.67.57-1.003 1.556-1.003 2.962v5.564h-.81v-9.844h.81v1.846c.287-.598.665-1.055 1.134-1.37.69-.476 1.456-.713 2.294-.713.972 0 1.75.33 2.33.993.58.656.87 1.705.87 3.146m13.658.388c-1.302 0-2.24.23-2.814.693-.574.463-.86 1.14-.86 2.03 0 .868.236 1.483.71 1.846.476.36 1.038.542 1.69.542 1.23 0 2.114-.52 2.653-1.564.542-1.044.814-2.026.814-2.946v-.606h-2.197m3.014-.063v5.617h-.8v-2.672c-.45 1.306-1.05 2.138-1.792 2.496-.59.287-1.18.43-1.767.43-.977 0-1.75-.26-2.31-.782-.563-.527-.844-1.3-.844-2.32 0-1.02.365-1.834 1.098-2.443.732-.616 1.93-.923 3.594-.923h2.004v-.158c0-.874-.25-1.59-.747-2.155-.493-.562-1.307-.843-2.444-.843-.562 0-1.136.105-1.722.316-.375.135-.86.407-1.46.817v-.87c.523-.322 1.01-.55 1.46-.685.656-.194 1.286-.29 1.89-.29 1.16 0 2.115.35 2.865 1.054.65.604.976 1.74.976 3.41m14.057-8.056v.685h-1.142c-.598 0-1.055.156-1.37.466-.388.38-.58.982-.58 1.81v.87h6.045v9.842h-.808v-9.16h-5.238v9.16h-.818v-9.16h-1.547v-.684h1.544v-.687c0-1.083.25-1.88.747-2.39.493-.503 1.173-.755 2.04-.755h1.125m2.145 0h.81v1.107h-.81v-1.107m4.976.003h.81v13.676h-.81v-13.676m12.666 8.35v.51h-7.47c0 1.58.306 2.69.922 3.322.68.703 1.69 1.054 3.032 1.054.35 0 .817-.076 1.397-.228.586-.153 1.166-.38 1.74-.686v.853c-.58.246-1.174.433-1.784.562-.61.13-1.095.194-1.45.194-1.52 0-2.66-.414-3.43-1.234-.83-.873-1.25-2.153-1.25-3.84 0-1.753.38-3.06 1.144-3.92.78-.897 1.863-1.345 3.252-1.345 1.29 0 2.262.425 2.918 1.275.65.89.976 2.05.976 3.48m-.817-.175c0-1.382-.31-2.39-.93-3.023-.523-.562-1.232-.843-2.128-.843-.98 0-1.8.292-2.46.878-.61.545-.977 1.54-1.1 2.99h6.618m10.803-7.137v2.795h3.33v.685h-3.33v5.915c0 .75.097 1.275.29 1.574.398.656.978.984 1.74.984h1.3v.686h-1.256c-.803 0-1.485-.235-2.048-.703-.562-.466-.843-1.313-.843-2.54v-5.913h-1.18v-.685h1.18v-2.794h.814m12.07 4.48c-.58-.81-1.37-1.213-2.374-1.213-1.002 0-1.793.4-2.373 1.204-.586.793-.88 1.872-.88 3.23 0 1.396.29 2.49.87 3.288.58.802 1.375 1.203 2.383 1.203 1.002 0 1.793-.4 2.373-1.203.586-.81.88-1.905.88-3.288 0-1.343-.294-2.418-.88-3.227m-2.382-1.924c1.257 0 2.248.467 2.974 1.405.733.942 1.1 2.193 1.1 3.752 0 1.61-.367 2.883-1.1 3.814-.726.94-1.717 1.407-2.97 1.407-1.266 0-2.265-.465-2.998-1.397-.726-.932-1.09-2.206-1.09-3.823 0-1.576.367-2.83 1.1-3.762.732-.932 1.728-1.397 2.987-1.397m19.343 8.6c.68-.685 1.02-1.828 1.02-3.427 0-1.6-.34-2.74-1.02-3.425-.674-.686-1.386-1.028-2.136-1.028-.732 0-1.438.342-2.118 1.028-.674.685-1.01 1.828-1.01 3.428 0 1.6.336 2.743 1.01 3.428.68.687 1.386 1.03 2.118 1.03.75 0 1.462-.343 2.136-1.03m-5.273-6.107c.37-.856.77-1.44 1.204-1.758.662-.486 1.286-.73 1.872-.73 1.163 0 2.133.475 2.906 1.424.774.95 1.16 2.197 1.16 3.744 0 1.547-.386 2.795-1.16 3.745-.773.95-1.743 1.423-2.91 1.423-.585 0-1.21-.245-1.87-.73-.435-.317-.836-.903-1.205-1.76v2.234h-.79V663.26h.79v6.082m18.293 2.265v.51h-7.47c0 1.582.307 2.69.922 3.323.68.703 1.69 1.054 3.032 1.054.352 0 .818-.076 1.398-.228.586-.153 1.166-.38 1.74-.686v.853c-.58.246-1.175.433-1.784.562-.61.13-1.09.194-1.45.194-1.515 0-2.66-.414-3.425-1.234-.832-.873-1.248-2.153-1.248-3.84 0-1.753.38-3.06 1.142-3.92.78-.897 1.863-1.345 3.25-1.345 1.29 0 2.26.425 2.918 1.275.65.89.976 2.05.976 3.48m-.818-.175c0-1.382-.31-2.39-.93-3.023-.523-.562-1.232-.843-2.128-.843-.98 0-1.8.292-2.46.878-.61.545-.977 1.54-1.1 2.99h6.618m10.757.466c0-1.366-.278-2.423-.835-3.173-.55-.756-1.327-1.134-2.33-1.134-.99 0-1.763.38-2.32 1.137-.55.75-.825 1.807-.825 3.173 0 1.36.275 2.416.826 3.17.553.75 1.33 1.126 2.32 1.126 1 0 1.775-.375 2.326-1.125.557-.753.835-1.81.835-3.17m.81 3.814c0 2.045-.39 3.384-1.17 4.017-.78.63-1.766.95-2.96.95-.568 0-1.105-.04-1.608-.124-.504-.088-.994-.22-1.468-.396v-.925c.474.258.943.45 1.406.572.465.123.937.184 1.417.184.98 0 1.82-.206 2.523-.622.702-.416 1.053-1.538 1.053-3.366v-1.537c-.24.674-.57 1.204-.993 1.59-.644.593-1.368.886-2.17.88-1.25 0-2.222-.44-2.92-1.32-.696-.883-1.045-2.126-1.045-3.725 0-1.595.35-2.83 1.046-3.71.7-.885 1.67-1.327 2.92-1.327.798 0 1.484.253 2.058.756.445.392.814.916 1.107 1.573v-2.092h.81v8.623m3.425-8.623h.808v9.844h-.808v-9.844m0-3.832h.808v1.107h-.808v-1.107m12.445 7.734v5.942h-.81v-5.89c0-1.276-.204-2.176-.614-2.697-.41-.522-1.01-.782-1.81-.782-.93 0-1.726.28-2.39.843-.666.57-1 1.556-1 2.962v5.564h-.81v-9.844h.81v1.846c.287-.598.665-1.055 1.134-1.37.69-.476 1.456-.713 2.294-.713.972 0 1.75.33 2.33.993.58.656.87 1.705.87 3.146m17.39.615v.51h-7.47c0 1.582.307 2.69.923 3.323.68.703 1.69 1.054 3.035 1.054.35 0 .817-.076 1.397-.228.587-.153 1.167-.38 1.74-.686v.853c-.58.246-1.173.433-1.783.562-.61.13-1.093.194-1.45.194-1.518 0-2.66-.414-3.43-1.234-.832-.873-1.25-2.153-1.25-3.84 0-1.753.38-3.06 1.145-3.92.78-.897 1.863-1.345 3.252-1.345 1.29 0 2.262.425 2.918 1.275.65.89.975 2.05.975 3.48m-.818-.175c0-1.382-.31-2.39-.93-3.023-.522-.562-1.23-.843-2.128-.843-.978 0-1.798.292-2.46.878-.61.545-.976 1.54-1.1 2.99h6.62m11.38-2.092v-6.082h.79v13.676h-.79V674.7c-.37.857-.77 1.443-1.205 1.76-.665.485-1.29.73-1.875.73-1.166 0-2.136-.476-2.91-1.425-.773-.95-1.16-2.198-1.16-3.744 0-1.544.387-2.792 1.16-3.742.774-.95 1.744-1.423 2.91-1.423.586 0 1.21.243 1.872.73.432.316.834.9 1.203 1.757m-5.273-.746c-.68.685-1.02 1.828-1.02 3.428 0 1.6.34 2.743 1.02 3.428.673.686 1.385 1.03 2.135 1.03.733 0 1.44-.344 2.118-1.03.674-.685 1.01-1.828 1.01-3.427 0-1.6-.336-2.742-1.01-3.427-.68-.686-1.385-1.028-2.118-1.028-.75 0-1.462.342-2.136 1.028m9.522-1.508h.81v9.844h-.81v-9.844m0-3.832h.81v1.107h-.81v-1.107m5.862 1.037v2.795h3.33v.685h-3.33v5.915c0 .75.097 1.275.29 1.574.4.656.98.984 1.74.984h1.3v.686h-1.255c-.803 0-1.486-.235-2.048-.703-.563-.466-.844-1.313-.844-2.54v-5.913h-1.178v-.685h1.178v-2.794h.817m6.197 2.792h.808v9.844h-.808v-9.844m0-3.832h.808v1.107h-.808v-1.107m12.445 7.734v5.942h-.81v-5.89c0-1.276-.204-2.176-.614-2.697-.41-.522-1.014-.782-1.81-.782-.932 0-1.73.28-2.39.843-.67.57-1.003 1.556-1.003 2.962v5.564h-.81v-9.844h.81v1.846c.287-.598.665-1.055 1.134-1.37.69-.476 1.453-.713 2.29-.713.973 0 1.75.33 2.33.993.58.656.87 1.705.87 3.146m10.53.906c0-1.366-.277-2.423-.834-3.173-.55-.756-1.327-1.134-2.33-1.134-.99 0-1.763.38-2.32 1.137-.55.75-.825 1.807-.825 3.173 0 1.36.278 2.416.83 3.17.555.75 1.33 1.126 2.32 1.126 1 0 1.777-.375 2.33-1.125.555-.753.833-1.81.833-3.17m.81 3.814c0 2.045-.39 3.384-1.17 4.017-.778.63-1.766.95-2.96.95-.57 0-1.106-.04-1.61-.124-.503-.088-.993-.22-1.467-.396v-.925c.474.258.943.45 1.406.572.463.123.935.184 1.415.184.98 0 1.82-.206 2.522-.622.703-.416 1.054-1.538 1.054-3.366v-1.537c-.24.674-.57 1.204-.992 1.59-.645.593-1.368.886-2.17.88-1.25 0-2.222-.44-2.92-1.32-.696-.883-1.045-2.126-1.045-3.725 0-1.595.35-2.83 1.046-3.71.697-.885 1.67-1.327 2.918-1.327.798 0 1.484.253 2.058.756.445.392.814.916 1.107 1.573v-2.092h.81v8.623" style="line-height:150%;-inkscape-font-specification:'Open Sans Light, Light'" font-size="18" font-weight="300" letter-spacing="0" word-spacing="0" text-anchor="middle" color="#000" fill="#586e75" overflow="visible" enable-background="accumulate" font-family="Open Sans Light"/><rect width="310" height="58" x="507.857" y="795.934" rx="2" ry="2" opacity=".01" fill="none" stroke="#586e75" stroke-width="2"/><path d="M568.23 747.727h1.86l4.526 8.538v-8.538h1.34v10.206h-1.86l-4.525-8.538v8.538h-1.34v-10.206m16.968 6.063v.616h-5.783c.054.866.314 1.527.78 1.982.468.452 1.12.677 1.954.677.48 0 .95-.06 1.4-.178.454-.118.905-.296 1.352-.533v1.19c-.45.19-.914.337-1.388.437-.474.1-.954.154-1.442.154-1.22 0-2.19-.356-2.905-1.067-.712-.71-1.068-1.672-1.068-2.885 0-1.252.336-2.245 1.01-2.98.68-.737 1.594-1.106 2.74-1.106 1.03 0 1.846.332 2.443.998.6.66.902 1.56.902 2.7m-1.258-.368c-.01-.69-.203-1.238-.58-1.648-.375-.41-.87-.615-1.49-.615-.703 0-1.266.198-1.69.595-.42.396-.66.954-.724 1.674l4.484-.008m2.593-3.147h1.26l1.57 5.975 1.566-5.975h1.484l1.572 5.975 1.566-5.975h1.257l-2.003 7.656h-1.483l-1.65-6.275-1.655 6.275h-1.483l-2.003-7.656m22.833 0v7.656h-1.265v-6.678h-3.452v6.678h-1.264v-6.678h-1.204v-.978h1.204v-.533c0-.834.195-1.45.587-1.846.394-.4 1-.6 1.816-.6h1.264v1.045h-1.202c-.452 0-.766.09-.944.273-.173.182-.26.51-.26.984v.677h4.717m-1.263-2.967h1.265v1.593h-1.264v-1.593m3.91-.013h1.258v10.636h-1.258v-10.636m10.432 6.493v.616h-5.783c.055.866.314 1.527.78 1.982.47.452 1.12.677 1.954.677.486 0 .95-.06 1.405-.178.455-.118.907-.296 1.353-.533v1.19c-.45.19-.914.337-1.388.437-.474.1-.955.154-1.443.154-1.22 0-2.19-.356-2.905-1.067-.71-.71-1.066-1.672-1.066-2.885 0-1.252.338-2.245 1.012-2.98.68-.737 1.593-1.106 2.74-1.106 1.03 0 1.845.332 2.442.998.6.66.902 1.56.902 2.7m-1.258-.368c-.01-.69-.202-1.238-.58-1.648-.374-.41-.87-.615-1.49-.615-.703 0-1.266.198-1.69.595-.42.396-.66.954-.724 1.674l4.484-.008M575.874 772.513v1.456c-.465-.435-.962-.76-1.49-.97-.525-.217-1.083-.324-1.675-.325-1.17 0-2.06.358-2.68 1.074-.62.71-.93 1.74-.93 3.09 0 1.344.31 2.374.93 3.09.62.71 1.51 1.066 2.68 1.066.59 0 1.15-.107 1.67-.32.53-.216 1.027-.54 1.49-.972v1.442c-.48.328-.994.574-1.536.74-.538.163-1.108.245-1.71.245-1.544 0-2.76-.47-3.65-1.414-.888-.948-1.333-2.24-1.333-3.876 0-1.64.446-2.93 1.334-3.874.89-.948 2.106-1.422 3.65-1.422.61 0 1.186.082 1.723.246.542.158 1.05.4 1.524.723m6.532 2.94c-.14-.082-.296-.14-.465-.178-.164-.04-.346-.06-.547-.06-.71 0-1.257.23-1.64.696-.38.46-.568 1.126-.568 1.99v4.035h-1.264v-7.656h1.264v1.19c.265-.466.61-.81 1.033-1.034.423-.228.938-.34 1.544-.34.084 0 .18.006.285.02.104.008.22.024.348.047l.007 1.293m7.583 2.334v.616H584.2c.055.866.314 1.527.78 1.982.47.452 1.12.677 1.954.677.483 0 .95-.06 1.402-.178.455-.118.907-.296 1.353-.533v1.19c-.454.19-.917.337-1.39.437-.475.1-.955.154-1.44.154-1.224 0-2.19-.356-2.908-1.067-.71-.71-1.067-1.672-1.067-2.885 0-1.252.338-2.245 1.012-2.98.678-.737 1.592-1.106 2.74-1.106 1.03 0 1.844.332 2.44.998.602.66.903 1.56.903 2.7m-1.257-.368c-.01-.69-.203-1.238-.58-1.648-.374-.41-.87-.615-1.49-.615-.703 0-1.266.198-1.69.595-.42.396-.66.954-.724 1.674l4.483-.008m6.804.66c-1.016 0-1.72.117-2.112.35-.392.232-.588.63-.588 1.19 0 .445.146.8.437 1.065.297.26.698.39 1.203.39.698 0 1.256-.25 1.675-.74.424-.498.636-1.157.636-1.977v-.28h-1.25m2.508-.52v4.368h-1.258v-1.16c-.287.465-.645.81-1.073 1.032-.43.22-.953.33-1.572.33-.784 0-1.41-.22-1.874-.658-.46-.442-.69-1.032-.69-1.77 0-.86.284-1.51.86-1.948.58-.438 1.44-.657 2.582-.657h1.764v-.124c0-.578-.19-1.025-.574-1.34-.378-.32-.912-.478-1.6-.478-.437 0-.863.05-1.278.155-.415.105-.814.262-1.196.472v-1.162c.46-.178.905-.31 1.34-.397.43-.092.853-.137 1.263-.137 1.108 0 1.936.287 2.483.86.546.575.82 1.446.82 2.612m3.845-5.46v2.175h2.59v.978h-2.59v4.156c0 .627.084 1.028.253 1.206.176.178.524.267 1.048.267h1.292v1.053h-1.293c-.97 0-1.64-.18-2.01-.54-.368-.364-.553-1.025-.553-1.982v-4.155h-.923v-.98h.925v-2.173h1.265m10.798 5.683v.616h-5.783c.055.866.315 1.527.78 1.982.47.452 1.12.677 1.955.677.483 0 .95-.06 1.4-.178.457-.118.908-.296 1.354-.533v1.19c-.45.19-.913.337-1.387.437-.474.1-.955.154-1.443.154-1.22 0-2.19-.356-2.905-1.067-.714-.71-1.07-1.672-1.07-2.885 0-1.252.338-2.245 1.01-2.98.68-.737 1.595-1.106 2.744-1.106 1.03 0 1.843.332 2.44.998.602.66.902 1.56.902 2.7m-1.257-.368c-.01-.69-.203-1.238-.58-1.648-.375-.41-.87-.615-1.49-.615-.704 0-1.266.198-1.69.595-.42.396-.66.954-.725 1.674l4.485-.008m11.26.66c-1.017 0-1.72.117-2.113.35-.392.232-.588.63-.588 1.19 0 .445.143.8.435 1.065.296.26.697.39 1.203.39.696 0 1.254-.25 1.674-.74.423-.498.635-1.157.635-1.977v-.28h-1.25m2.507-.52v4.368h-1.258v-1.16c-.288.465-.645.81-1.074 1.032-.428.22-.952.33-1.572.33-.784 0-1.408-.22-1.873-.658-.46-.442-.69-1.032-.69-1.77 0-.86.287-1.51.86-1.948.58-.438 1.44-.657 2.586-.657h1.763v-.124c0-.578-.19-1.025-.575-1.34-.377-.32-.91-.478-1.6-.478-.436 0-.862.05-1.277.155-.415.105-.813.262-1.196.472v-1.162c.46-.178.908-.31 1.34-.397.434-.092.855-.137 1.265-.137 1.108 0 1.935.287 2.482.86.547.575.82 1.446.82 2.612m13.423-.25v4.62h-1.258v-4.58c0-.723-.144-1.266-.427-1.626-.282-.36-.706-.54-1.27-.54-.68 0-1.216.217-1.607.65-.392.433-.588 1.023-.588 1.77v4.327h-1.266v-7.656h1.265v1.19c.3-.46.653-.805 1.06-1.033.41-.228.88-.34 1.413-.34.88 0 1.545.272 1.996.82.45.54.676 1.34.676 2.398m9.076.478v.616h-5.783c.055.866.315 1.527.78 1.982.47.452 1.12.677 1.955.677.483 0 .95-.06 1.4-.178.457-.118.908-.296 1.354-.533v1.19c-.45.19-.913.337-1.387.437-.474.1-.955.154-1.443.154-1.22 0-2.19-.356-2.905-1.067-.714-.71-1.07-1.672-1.07-2.885 0-1.252.338-2.245 1.01-2.98.68-.737 1.595-1.106 2.744-1.106 1.03 0 1.843.332 2.44.998.602.66.902 1.56.902 2.7m-1.257-.368c-.01-.69-.203-1.238-.58-1.648-.375-.41-.87-.615-1.49-.615-.704 0-1.266.198-1.69.595-.42.396-.66.954-.725 1.674l4.485-.008m2.59-3.147h1.26l1.57 5.975 1.567-5.975h1.483l1.573 5.975 1.565-5.975h1.258l-2.003 7.656H655.8l-1.648-6.275-1.654 6.275h-1.484l-2.003-7.656m23.196 3.513v.616h-5.783c.054.866.314 1.527.78 1.982.468.452 1.12.677 1.954.677.483 0 .95-.06 1.4-.178.457-.118.908-.296 1.355-.533v1.19c-.45.19-.914.337-1.388.437-.474.1-.955.154-1.442.154-1.222 0-2.19-.356-2.906-1.067-.71-.71-1.066-1.672-1.066-2.885 0-1.252.337-2.245 1.012-2.98.68-.737 1.593-1.106 2.74-1.106 1.03 0 1.844.332 2.44.998.603.66.904 1.56.904 2.7m-1.258-.368c-.01-.69-.203-1.238-.58-1.648-.375-.41-.872-.615-1.49-.615-.703 0-1.266.198-1.69.595-.42.396-.66.954-.724 1.674l4.484-.008m9.282-1.677c.316-.565.692-.982 1.13-1.25.437-.27.952-.404 1.544-.404.798 0 1.413.28 1.846.84.433.556.65 1.35.65 2.38v4.62h-1.266v-4.58c0-.733-.13-1.278-.39-1.634-.26-.358-.655-.536-1.19-.536-.65 0-1.165.217-1.544.65-.378.433-.567 1.023-.567 1.77v4.327h-1.265v-4.58c0-.737-.13-1.282-.39-1.633-.26-.356-.66-.534-1.202-.534-.643 0-1.153.22-1.532.657-.378.433-.567 1.02-.567 1.764v4.327h-1.265v-7.654h1.265v1.19c.287-.47.63-.816 1.032-1.04.4-.223.875-.334 1.426-.334.556 0 1.028.14 1.415.424.393.283.68.693.87 1.23m8.902 5.04v4.06h-1.265v-10.57h1.265v1.163c.264-.46.597-.796.998-1.015.405-.223.888-.334 1.45-.334.928 0 1.683.37 2.26 1.108.585.737.876 1.71.876 2.91 0 1.204-.29 2.175-.875 2.913-.575.74-1.33 1.11-2.26 1.11-.56 0-1.043-.11-1.45-.33-.4-.22-.732-.56-.996-1.017m4.28-2.673c0-.924-.193-1.65-.575-2.173-.38-.528-.9-.793-1.567-.793-.664 0-1.188.265-1.57.793-.38.524-.568 1.25-.568 2.174 0 .927.19 1.654.567 2.18.383.527.907.79 1.57.79.668 0 1.19-.264 1.568-.788.382-.53.574-1.255.574-2.18m4.632-6.01v2.175h2.59v.978h-2.59v4.156c0 .627.084 1.028.253 1.206.17.178.52.267 1.042.267h1.292v1.053h-1.292c-.97 0-1.64-.18-2.01-.54-.368-.364-.553-1.025-.553-1.982v-4.155h-.923v-.98h.923v-2.173h1.267m7.436 10.537c-.355.912-.702 1.506-1.04 1.784-.336.278-.787.417-1.352.417h-1.002v-1.052h.738c.346 0 .615-.082.807-.246.192-.164.404-.552.636-1.162l.225-.575-3.097-7.533h1.333l2.394 5.988 2.393-5.988h1.333l-3.364 8.367m15.74-8.367v7.656h-1.264v-6.678h-3.453v6.678h-1.267v-6.678h-1.203v-.978h1.204v-.533c0-.834.196-1.45.588-1.846.396-.4 1.002-.6 1.818-.6h1.266v1.045h-1.203c-.452 0-.766.09-.944.273-.176.182-.26.51-.26.984v.677h4.714m-1.264-2.967h1.265v1.593h-1.264v-1.593m3.912-.013h1.258v10.636h-1.258v-10.636m10.43 6.493v.616h-5.782c.055.866.315 1.527.78 1.982.47.452 1.12.677 1.955.677.483 0 .95-.06 1.4-.178.457-.118.908-.296 1.354-.533v1.19c-.454.19-.916.337-1.39.437-.474.1-.955.154-1.443.154-1.222 0-2.19-.356-2.906-1.067-.71-.71-1.065-1.672-1.065-2.885 0-1.252.337-2.245 1.01-2.98.68-.737 1.594-1.106 2.743-1.106 1.03 0 1.843.332 2.44.998.602.66.902 1.56.902 2.7m-1.257-.368c-.01-.69-.203-1.238-.58-1.648-.375-.41-.872-.615-1.492-.615-.7 0-1.263.198-1.687.595-.42.396-.66.954-.725 1.674l4.486-.008M572.374 808.664c-1.003 0-1.8.374-2.393 1.12-.585.748-.88 1.767-.88 3.057 0 1.288.295 2.304.88 3.05.596.75 1.39 1.12 2.396 1.12 1.002 0 1.795-.37 2.38-1.12.587-.746.88-1.762.88-3.05 0-1.29-.293-2.306-.88-3.053-.585-.747-1.378-1.12-2.38-1.12m0-1.122c1.43 0 2.575.48 3.43 1.442.858.957 1.287 2.242 1.287 3.856 0 1.61-.428 2.894-1.285 3.856-.856.956-2 1.435-3.43 1.435-1.437 0-2.585-.48-3.447-1.436-.855-.958-1.284-2.243-1.284-3.856s.43-2.898 1.285-3.855c.863-.96 2.01-1.443 3.447-1.443m8.036 9.238v4.06h-1.265v-10.568h1.265v1.162c.264-.46.597-.796.998-1.015.408-.223.89-.334 1.45-.334.93 0 1.686.37 2.265 1.108.583.737.875 1.71.875 2.91 0 1.204-.293 2.175-.876 2.913-.58.74-1.333 1.11-2.263 1.11-.56 0-1.042-.11-1.45-.33-.4-.22-.73-.56-.995-1.017m4.28-2.673c0-.924-.192-1.65-.575-2.173-.38-.528-.9-.793-1.567-.793-.665 0-1.19.265-1.572.793-.376.524-.565 1.25-.565 2.174 0 .927.19 1.654.567 2.18.384.527.908.79 1.573.79.666 0 1.188-.264 1.566-.788.383-.53.574-1.255.574-2.18m9.938-.322v.616h-5.784c.055.866.315 1.527.78 1.982.47.452 1.12.677 1.955.677.483 0 .95-.06 1.4-.178.457-.118.908-.296 1.355-.533v1.19c-.452.19-.914.337-1.388.437-.474.1-.955.154-1.442.154-1.222 0-2.19-.356-2.906-1.067-.71-.71-1.066-1.672-1.066-2.885 0-1.252.337-2.245 1.012-2.98.68-.737 1.592-1.106 2.74-1.106 1.03 0 1.844.332 2.44.998.603.66.904 1.56.904 2.7m-1.258-.368c-.01-.69-.203-1.238-.58-1.648-.375-.41-.872-.615-1.492-.615-.7 0-1.264.198-1.688.595-.42.396-.66.954-.725 1.674l4.482-.008m9.688-.112v4.62h-1.258v-4.58c0-.723-.14-1.266-.423-1.626-.286-.36-.71-.54-1.275-.54-.68 0-1.214.217-1.606.65-.39.433-.588 1.023-.588 1.77v4.327h-1.265v-7.656h1.265v1.19c.3-.46.654-.805 1.06-1.033.41-.228.88-.34 1.414-.34.88 0 1.545.272 1.996.82.452.54.677 1.34.677 2.398m13.166-3.035v7.656h-1.264v-6.678h-3.453v6.678h-1.267v-6.678h-1.203v-.978h1.204v-.533c0-.834.196-1.45.588-1.846.396-.4 1.002-.6 1.818-.6h1.266v1.045h-1.203c-.452 0-.766.09-.944.273-.176.182-.26.51-.26.984v.677h4.714m-1.264-2.967h1.265v1.593h-1.264v-1.593m3.912-.013h1.258v10.636h-1.258v-10.636m10.43 6.493v.616h-5.782c.055.866.315 1.527.78 1.982.47.452 1.12.677 1.955.677.483 0 .95-.06 1.4-.178.457-.118.908-.296 1.354-.533v1.19c-.454.19-.916.337-1.39.437-.474.1-.955.154-1.443.154-1.222 0-2.19-.356-2.906-1.067-.71-.71-1.065-1.672-1.065-2.885 0-1.252.337-2.245 1.01-2.98.68-.737 1.594-1.106 2.743-1.106 1.03 0 1.843.332 2.44.998.602.66.902 1.56.902 2.7m-1.257-.368c-.01-.69-.203-1.238-.58-1.648-.375-.41-.872-.615-1.492-.615-.7 0-1.263.198-1.687.595-.42.396-.66.954-.725 1.674l4.486-.008M572.374 832.664c-1.003 0-1.8.374-2.393 1.12-.585.748-.88 1.767-.88 3.057 0 1.288.295 2.304.88 3.05.596.75 1.39 1.12 2.396 1.12 1.002 0 1.795-.37 2.38-1.12.587-.746.88-1.762.88-3.05 0-1.29-.293-2.306-.88-3.053-.585-.747-1.378-1.12-2.38-1.12m0-1.122c1.43 0 2.575.48 3.43 1.442.858.957 1.287 2.242 1.287 3.856 0 1.61-.428 2.894-1.285 3.856-.856.956-2 1.435-3.43 1.435-1.437 0-2.585-.48-3.447-1.436-.855-.958-1.284-2.243-1.284-3.856s.43-2.898 1.285-3.855c.863-.96 2.01-1.443 3.447-1.443m8.036 9.238v4.06h-1.265v-10.568h1.265v1.162c.264-.46.597-.796.998-1.015.408-.223.89-.334 1.45-.334.93 0 1.686.37 2.265 1.108.583.737.875 1.71.875 2.91 0 1.204-.293 2.175-.876 2.913-.58.74-1.333 1.11-2.263 1.11-.56 0-1.042-.11-1.45-.33-.4-.22-.73-.56-.995-1.017m4.28-2.673c0-.924-.192-1.65-.575-2.173-.38-.528-.9-.793-1.567-.793-.665 0-1.19.265-1.572.793-.376.524-.565 1.25-.565 2.174 0 .927.19 1.654.567 2.18.384.527.908.79 1.573.79.666 0 1.188-.264 1.566-.788.383-.53.574-1.255.574-2.18m9.938-.322v.616h-5.784c.055.866.315 1.527.78 1.982.47.452 1.12.677 1.955.677.483 0 .95-.06 1.4-.178.457-.118.908-.296 1.355-.533v1.19c-.452.19-.914.337-1.388.437-.474.1-.955.154-1.442.154-1.222 0-2.19-.356-2.906-1.067-.71-.71-1.066-1.672-1.066-2.885 0-1.252.337-2.245 1.012-2.98.68-.737 1.592-1.106 2.74-1.106 1.03 0 1.844.332 2.44.998.603.66.904 1.56.904 2.7m-1.258-.368c-.01-.69-.203-1.238-.58-1.648-.375-.41-.872-.615-1.492-.615-.7 0-1.264.198-1.688.595-.42.396-.66.954-.725 1.674l4.482-.008m9.688-.112v4.62h-1.258v-4.58c0-.723-.14-1.266-.423-1.626-.286-.36-.71-.54-1.275-.54-.68 0-1.214.217-1.606.65-.39.433-.588 1.023-.588 1.77v4.327h-1.265v-7.656h1.265v1.19c.3-.46.654-.805 1.06-1.033.41-.228.88-.34 1.414-.34.88 0 1.545.272 1.996.82.452.54.677 1.34.677 2.398m10.46.773c-1.017 0-1.72.116-2.113.348-.392.233-.588.63-.588 1.19 0 .446.143.802.435 1.066.296.26.697.39 1.203.39.696 0 1.254-.25 1.673-.74.425-.498.637-1.157.637-1.977v-.28h-1.25m2.507-.52v4.368h-1.258v-1.16c-.288.465-.646.81-1.074 1.032-.428.22-.953.33-1.572.33-.784 0-1.41-.22-1.873-.658-.46-.442-.69-1.032-.69-1.77 0-.86.287-1.51.86-1.948.58-.438 1.44-.657 2.586-.657h1.763v-.124c0-.578-.19-1.025-.575-1.34-.377-.32-.91-.478-1.6-.478-.436 0-.862.05-1.277.155-.415.105-.813.262-1.196.472v-1.162c.46-.178.908-.31 1.34-.397.434-.092.855-.137 1.265-.137 1.108 0 1.935.287 2.482.86.547.575.82 1.446.82 2.612m11.94-3.06v1.19c-.356-.182-.725-.32-1.108-.41-.383-.09-.78-.137-1.19-.137-.624 0-1.093.096-1.408.287-.31.192-.464.48-.464.862 0 .29.11.522.335.69.22.164.67.32 1.343.472l.43.096c.894.19 1.528.462 1.9.813.38.346.57.832.57 1.456 0 .714-.284 1.277-.85 1.69-.56.416-1.332.624-2.316.624-.41 0-.84-.04-1.286-.123-.442-.08-.91-.196-1.4-.356v-1.3c.464.243.922.425 1.373.548.45.12.898.18 1.34.18.592 0 1.048-.1 1.367-.3.32-.206.48-.493.48-.86 0-.344-.116-.606-.35-.788-.227-.182-.73-.357-1.51-.526l-.437-.102c-.78-.164-1.342-.415-1.69-.752-.345-.342-.518-.81-.518-1.402 0-.72.255-1.276.765-1.668.51-.39 1.235-.587 2.174-.587.465 0 .903.034 1.313.102.41.067.787.17 1.134.307m5.903 3.578c-1.016 0-1.72.116-2.112.348-.39.233-.585.63-.585 1.19 0 .446.146.802.437 1.066.297.26.7.39 1.204.39.698 0 1.256-.25 1.675-.74.424-.498.636-1.157.636-1.977v-.28h-1.25m2.508-.52v4.368h-1.258v-1.16c-.287.465-.645.81-1.073 1.032-.428.22-.952.33-1.572.33-.782 0-1.407-.22-1.872-.658-.46-.442-.69-1.032-.69-1.77 0-.86.287-1.51.86-1.948.58-.438 1.44-.657 2.585-.657h1.764v-.124c0-.578-.19-1.025-.574-1.34-.38-.32-.912-.478-1.6-.478-.437 0-.863.05-1.278.155-.415.105-.814.262-1.196.472v-1.162c.46-.178.905-.31 1.34-.397.43-.092.853-.137 1.263-.137 1.107 0 1.935.287 2.48.86.548.575.822 1.446.822 2.612m1.692-3.285h1.333l2.393 6.426 2.392-6.426h1.333l-2.87 7.656h-1.71l-2.87-7.656m15.735 3.513v.616h-5.783c.055.866.315 1.527.78 1.982.47.452 1.12.677 1.955.677.483 0 .95-.06 1.4-.178.457-.118.908-.296 1.354-.533v1.19c-.454.19-.916.337-1.39.437-.474.1-.955.154-1.443.154-1.222 0-2.19-.356-2.906-1.067-.71-.71-1.065-1.672-1.065-2.885 0-1.252.337-2.245 1.01-2.98.68-.737 1.594-1.106 2.743-1.106 1.03 0 1.843.332 2.44.998.602.66.902 1.56.902 2.7m-1.257-.368c-.01-.69-.203-1.238-.58-1.648-.375-.41-.872-.615-1.492-.615-.7 0-1.263.198-1.687.595-.42.396-.66.954-.725 1.674l4.486-.008m8.362-1.984v-4.143h1.258v10.636h-1.258v-1.148c-.264.456-.6.795-1.005 1.018-.4.22-.88.33-1.446.33-.925 0-1.68-.37-2.263-1.11-.58-.737-.87-1.708-.87-2.91 0-1.204.29-2.175.87-2.913.583-.738 1.338-1.107 2.263-1.107.565 0 1.048.11 1.45.334.405.22.74.556 1.004 1.012m-4.286 2.67c0 .925.19 1.652.568 2.18.383.525.907.787 1.572.787s1.19-.263 1.57-.787c.384-.53.575-1.255.575-2.18 0-.925-.19-1.65-.574-2.174-.38-.528-.905-.793-1.57-.793s-1.19.265-1.574.793c-.378.524-.567 1.25-.567 2.174m18.778-3.833v7.656h-1.265v-6.678h-3.452v6.678h-1.26v-6.678h-1.204v-.978h1.203v-.533c0-.834.195-1.45.587-1.846.396-.4 1.002-.6 1.818-.6h1.265v1.045h-1.205c-.45 0-.765.09-.943.273-.172.182-.26.51-.26.984v.677h4.718m-1.265-2.967h1.265v1.593h-1.265v-1.593m3.91-.013h1.256v10.636h-1.254v-10.636m10.43 6.493v.616h-5.784c.055.866.315 1.527.78 1.982.47.452 1.12.677 1.954.677.484 0 .95-.06 1.402-.178.456-.118.907-.296 1.353-.533v1.19c-.45.19-.91.337-1.384.437-.474.1-.955.154-1.443.154-1.22 0-2.19-.356-2.904-1.067-.71-.71-1.067-1.672-1.067-2.885 0-1.252.337-2.245 1.01-2.98.68-.737 1.594-1.106 2.743-1.106 1.03 0 1.843.332 2.44.998.6.66.902 1.56.902 2.7m-1.258-.368c-.01-.69-.203-1.238-.58-1.648-.375-.41-.87-.615-1.49-.615-.704 0-1.266.198-1.69.595-.42.396-.66.954-.725 1.674l4.484-.008" style="line-height:150%;-inkscape-font-specification:Open Sans" font-size="14" letter-spacing="0" word-spacing="0" color="#000" fill="#586e75" overflow="visible" enable-background="accumulate" font-family="Open Sans"/><path d="M525.857 750.934v28h14v-2h-12v-24h18v10h2v-12z" color="#bebebe" fill="#586e75" overflow="visible" enable-background="accumulate"/><path d="M541.857 764.934v4h-4v6h4v4h6v-4h4v-6h-4v-4z" fill="#586e75"/><path style="text-indent:0;text-align:start;line-height:normal;text-transform:none;block-progression:tb;-inkscape-font-specification:Sans" d="M524.398 810.96c-.813 0-1.5.686-1.5 1.498v.437h-.498c-.813 0-1.498.686-1.498 1.5v6.99c0 .813.685 1.5 1.498 1.5h28.967c.813 0 1.498-.687 1.498-1.5v-6.99c0-.814-.685-1.5-1.498-1.5H538.88v-.437c0-.812-.684-1.498-1.497-1.498h-12.985zm.5 1.998h11.985v1.936h13.984v5.992H522.9v-5.993h1.998v-1.935zm-3.248 7.928c-.412.135-.708.565-.686 1-.006.06-.006.124 0 .186-.003 4.82-.125 13.456-.125 15.795 0 .523.473 1 .996 1 3.04 0 19.385.096 29.903.06h.063c.003 0-.004-.06 0-.06.122-.07.81-.438.81-.438.002-.004.113-.21.126-.25.025-.09-.005-.1 0-.128.007-.054.06-.1.062-.125.004-.053-.003-.065 0-.126.004-.12-.004-.292 0-.5.008-.41-.008-.98 0-1.684.015-1.407.05-3.32.062-5.245.023-3.846 0-7.793 0-8.427 0-.523-.476-.998-1-.998-1.124 0-27.54-.063-29.59-.064h-.312c-.103-.015-.21-.015-.312 0z" overflow="visible" enable-background="accumulate" fill="#586e75" color="#000" font-family="Sans"/><path d="M461.74 538.942c-.227 0-.453.078-.625.25-.344.343-.344.903 0 1.247l2.495 2.492-2.495 2.495c-.344.342-.344.902 0 1.246s.904.344 1.247 0l2.495-2.495 2.495 2.495c.344.344.904.344 1.247 0 .34-.344.34-.904 0-1.247l-2.497-2.496 2.494-2.495c.343-.345.343-.905 0-1.25-.344-.342-.904-.342-1.248 0l-2.496 2.496-2.495-2.494c-.173-.17-.4-.248-.624-.248zm399.117-2.008l2.25 2.223-1.714 1.714-.027.03c-.38.42-.38 1.068.027 1.473.405.407 1.053.435 1.473.055l.214-.214 1.554-1.526 2.223 2.25v-6zm-6 6v6h6l-2.25-2.25 1.714-1.715.03-.03c.38-.42.38-1.067-.027-1.473-.404-.406-1.078-.434-1.5-.054l-.186.214-1.554 1.554zM829.607 549.934v-2.188c-.45-.117-.86-.3-1.25-.53l-1.562 1.56-1.782-1.78 1.563-1.562c-.23-.39-.414-.802-.53-1.25h-2.19v-2.5h2.19c.116-.45.3-.86.53-1.25l-1.563-1.563 1.782-1.78 1.562 1.564c.39-.23.8-.413 1.25-.53v-2.188h2.5v2.187c.45.12.86.303 1.25.532l1.563-1.562 1.78 1.78-1.562 1.564c.23.39.414.8.532 1.25h2.187v2.5h-2.187c-.118.448-.302.86-.532 1.25L836.7 547l-1.78 1.78-1.56-1.56c-.39.23-.8.412-1.25.53v2.187h-2.5zm1.25-5c1.105 0 2-.896 2-2 0-1.105-.895-2-2-2-1.104 0-2 .895-2 2 0 1.104.896 2 2 2zm-1.25-9v2.187c-.45.12-.86.305-1.25.534l-1.562-1.562-1.782 1.78 1.563 1.565c-.23.39-.414.8-.53 1.25h-2.19v2.5h2.19c.116.448.3.86.53 1.25L825.013 547l1.782 1.78 1.562-1.56c.39.23.8.412 1.25.53v2.187h2.5v-2.188c.45-.118.86-.3 1.25-.53l1.563 1.56 1.78-1.78-1.562-1.563c.23-.39.414-.802.532-1.25h2.187v-2.5h-2.187c-.118-.45-.302-.86-.532-1.25l1.563-1.563-1.78-1.78-1.56 1.562c-.39-.23-.8-.413-1.25-.53v-2.188h-2.5zm.875 1h.75v2.03c.827.078 1.584.404 2.188.907l1.406-1.434.53.53-1.436 1.407c.503.605.83 1.36.906 2.19h2.03v.75h-2.03c-.077.826-.403 1.583-.906 2.186l1.437 1.405-.53.532L833.42 546c-.604.503-1.36.83-2.188.905v2.032h-.75v-2.032c-.827-.077-1.584-.402-2.187-.906l-1.407 1.437-.53-.532 1.437-1.406c-.504-.604-.83-1.36-.907-2.188h-2.03v-.75h2.03c.078-.83.403-1.584.907-2.19l-1.438-1.404.53-.53 1.408 1.436c.603-.502 1.36-.828 2.187-.905v-2.03z" color="#bebebe" overflow="visible" enable-background="accumulate" fill="#586e75"/><path style="text-indent:0;text-align:start;line-height:normal;text-transform:none;block-progression:tb;-inkscape-font-specification:Sans" d="M488.576 535.965c-.407 0-.75.343-.75.75v.22h-.25c-.407 0-.75.342-.75.75v3.5c0 .406.343.75.75.75h14.5c.407 0 .75-.344.75-.75v-3.5c0-.408-.343-.75-.75-.75h-6.25v-.22c0-.407-.343-.75-.75-.75h-6.5zm.25 1h6v.97h7v3h-14v-3h1v-.97zm-1.626 3.97c-.206.066-.354.282-.343.5-.003.03-.003.06 0 .092 0 2.414-.062 6.736-.062 7.907 0 .26.238.5.5.5 1.52 0 9.703.048 14.968.03h.032s-.002-.03 0-.03c.06-.035.406-.22.406-.22s.06-.102.065-.124c.013-.044-.002-.05 0-.063.004-.027.03-.05.032-.062.002-.026-.002-.032 0-.063.002-.06-.002-.146 0-.25.004-.206-.004-.49 0-.843.007-.707.025-1.665.03-2.628.012-1.926 0-3.902 0-4.22 0-.26-.237-.5-.5-.5-.562 0-13.785-.03-14.812-.03h-.156c-.053-.01-.105-.01-.157 0z" overflow="visible" enable-background="accumulate" opacity=".5" fill="#586e75" color="#000" font-family="Sans"/><g opacity=".5" fill="#586e75"><path d="M524.857 537.934v12h12v-12zm1 1h10v10h-10z" color="#bebebe" overflow="visible" enable-background="accumulate"/><path style="text-indent:0;text-align:start;line-height:normal;text-transform:none;block-progression:tb;-inkscape-font-specification:Sans" d="M530.263 539.934c-.23.043-.41.266-.406.5v2.5h-1.5c-.37.01-.606.524-.375.812l2.5 3c.187.212.563.212.75 0l2.5-3c.23-.288-.006-.8-.375-.812h-1.5v-2.5c0-.262-.238-.5-.5-.5h-1c-.03-.003-.062-.003-.094 0z" color="#000" overflow="visible" enable-background="accumulate" font-family="Sans"/><path style="text-indent:0;text-transform:none;block-progression:tb" d="M524.857 534.934c-.545 0-1 .454-1 1v2c0 .545.455 1 1 1h12c.545 0 1-.455 1-1v-2c0-.546-.455-1-1-1zm0 1h12v2h-12z" color="#bebebe"/></g><path d="M565.357 536.184c-2.9 0-5.25 2.35-5.25 5.25s2.35 5.25 5.25 5.25c1.128 0 2.176-.364 3.03-.97l4.22 4.22c.343.342.907.342 1.25 0 .343-.343.343-.908 0-1.25l-4.22-4.22c.607-.855.97-1.902.97-3.03 0-2.9-2.35-5.25-5.25-5.25zm0 1.375c2.14 0 3.875 1.732 3.875 3.872s-1.735 3.875-3.875 3.875c-2.14 0-3.875-1.736-3.875-3.876 0-2.14 1.735-3.874 3.875-3.874z" opacity=".5" color="#bebebe" fill="#586e75" overflow="visible" enable-background="accumulate"/><path d="M644.43 538.46v1.853c-.48-.215-.95-.377-1.407-.487-.457-.11-.89-.164-1.295-.164-.54 0-.937.074-1.195.223-.258.148-.387.38-.387.69 0 .236.086.42.258.552.176.13.492.24.95.334l.96.196c.973.196 1.664.492 2.074.89.41.4.616.966.616 1.7 0 .965-.288 1.684-.862 2.156-.57.47-1.443.705-2.62.705-.554 0-1.11-.053-1.67-.16-.557-.104-1.116-.26-1.675-.467v-1.905c.56.297 1.098.522 1.618.674.523.15 1.027.222 1.51.222.494 0 .87-.083 1.132-.247.262-.164.393-.4.393-.703 0-.274-.09-.485-.27-.633-.176-.15-.53-.283-1.06-.4l-.873-.193c-.875-.188-1.516-.486-1.922-.897-.403-.41-.604-.962-.604-1.658 0-.87.285-1.54.847-2.01.563-.468 1.37-.703 2.426-.703.48 0 .975.036 1.483.11.508.07 1.033.176 1.576.32m7.768 2.116v1.71c-.286-.194-.573-.34-.862-.432-.286-.094-.582-.14-.89-.14-.587 0-1.044.17-1.372.515-.324.336-.486.813-.486 1.426s.162 1.092.486 1.436c.328.34.785.51 1.37.51.33 0 .64-.05.933-.147.293-.098.57-.242.82-.434v1.718c-.33.12-.665.21-1.005.27-.336.06-.674.092-1.014.092-1.182 0-2.11-.302-2.776-.908-.668-.61-1.002-1.455-1.002-2.537 0-1.082.334-1.926 1.002-2.53.668-.61 1.594-.915 2.777-.915.345 0 .683.03 1.015.094.336.058.67.148 1.002.27m6.7 1.584c-.184-.086-.368-.148-.55-.187-.18-.04-.363-.062-.547-.062-.54 0-.955.174-1.248.522-.29.343-.433.837-.433 1.48v3.025h-2.1v-6.563h2.1v1.08c.266-.43.575-.743.923-.938.35-.2.77-.3 1.26-.3.07 0 .146.005.228.013.083.004.2.015.358.035l.005 1.898m4 1.82c-.438 0-.768.075-.99.223-.22.15-.33.367-.33.656 0 .263.09.472.265.624.18.15.427.223.744.223.394 0 .726-.142.996-.423.27-.285.404-.64.404-1.066v-.24h-1.09m3.205-.79v3.743h-2.115v-.972c-.28.4-.598.69-.95.874-.35.18-.778.27-1.282.27-.68 0-1.233-.198-1.66-.592-.42-.4-.63-.914-.63-1.547 0-.77.262-1.334.79-1.694.53-.358 1.363-.538 2.496-.538h1.236v-.164c0-.333-.13-.575-.392-.727-.262-.155-.67-.234-1.225-.234-.45 0-.867.045-1.254.135-.384.09-.743.226-1.075.405v-1.6c.45-.108.9-.19 1.353-.245.454-.058.907-.087 1.36-.087 1.183 0 2.037.234 2.56.703.528.465.79 1.223.79 2.273m4.252-4.682v1.863h2.163v1.5h-2.162v2.786c0 .305.064.512.185.62.12.107.36.16.72.16h1.08v1.5h-1.8c-.828 0-1.416-.172-1.764-.516-.344-.35-.515-.937-.515-1.765v-2.783h-1.043v-1.5h1.045v-1.862h2.097m8.75 2.066v1.71c-.284-.194-.57-.34-.86-.432-.285-.094-.582-.14-.89-.14-.587 0-1.044.17-1.37.515-.326.336-.488.813-.488 1.426s.162 1.092.486 1.436c.328.34.785.51 1.37.51.33 0 .64-.05.933-.147.297-.098.57-.242.82-.434v1.718c-.328.12-.662.21-1.002.27-.336.06-.674.092-1.013.092-1.184 0-2.11-.302-2.778-.908-.668-.61-1.002-1.455-1.002-2.537 0-1.082.334-1.926 1.002-2.53.668-.61 1.594-.915 2.778-.915.343 0 .68.03 1.013.094.336.058.67.148 1.002.27m8.42 2.364v3.996h-2.11v-3.047c0-.574-.013-.97-.04-1.184-.024-.215-.067-.373-.13-.474-.08-.14-.193-.246-.333-.32-.14-.078-.3-.117-.48-.117-.438 0-.782.17-1.032.51-.25.336-.375.802-.375 1.4v3.23h-2.098v-9.12h2.098v3.517c.317-.382.652-.663 1.008-.843.355-.183.748-.275 1.178-.275.76 0 1.335.232 1.725.697.395.463.592 1.14.592 2.026" style="line-height:150%;-inkscape-font-specification:Open Sans Bold" font-size="12" font-weight="bold" letter-spacing="0" word-spacing="0" text-anchor="middle" color="#000" fill="#586e75" overflow="visible" enable-background="accumulate" font-family="Open Sans"/></g></svg>