<svg xmlns="http://www.w3.org/2000/svg" xmlns:xlink="http://www.w3.org/1999/xlink" width="482.208" height="506.208"><defs><linearGradient gradientTransform="matrix(.507 0 0 .503 68.029 1.33)" gradientUnits="userSpaceOnUse" xlink:href="#a" id="bd" y2="3.634" x2="-51.786" y1="53.514" x1="-51.786"/><linearGradient id="a"><stop offset="0" stop-opacity=".322"/><stop offset="1" stop-opacity=".278"/></linearGradient><linearGradient gradientTransform="matrix(.619 0 0 .619 -30.392 1.429)" gradientUnits="userSpaceOnUse" xlink:href="#b" id="be" y2="20.47" x2="62.989" y1="17.47" x1="62.989"/><linearGradient id="b"><stop offset="0" stop-color="#f9f9f9"/><stop offset="1" stop-color="#d8d8d8"/></linearGradient><linearGradient gradientTransform="matrix(.544 0 0 .615 3.269 5.091)" gradientUnits="userSpaceOnUse" xlink:href="#c" id="bf" y2="34.143" x2="21.37" y1="4.732" x1="21.37"/><linearGradient id="c"><stop offset="0" stop-color="#fff"/><stop offset=".111" stop-color="#fff" stop-opacity=".235"/><stop offset=".99" stop-color="#fff" stop-opacity=".157"/><stop offset="1" stop-color="#fff" stop-opacity=".392"/></linearGradient><linearGradient gradientTransform="matrix(.051 0 0 .016 -2.49 22.299)" gradientUnits="userSpaceOnUse" xlink:href="#d" id="bg" y2="609.505" x2="302.857" y1="366.648" x1="302.857"/><linearGradient id="d"><stop offset="0" stop-opacity="0"/><stop offset=".5"/><stop offset="1" stop-opacity="0"/></linearGradient><radialGradient gradientTransform="matrix(.02 0 0 .016 16.388 22.299)" gradientUnits="userSpaceOnUse" xlink:href="#e" id="bh" fy="486.648" fx="605.714" r="117.143" cy="486.648" cx="605.714"/><linearGradient id="e"><stop offset="0"/><stop offset="1" stop-opacity="0"/></linearGradient><radialGradient gradientTransform="matrix(-.02 0 0 .016 15.601 22.299)" gradientUnits="userSpaceOnUse" xlink:href="#f" id="bi" fy="486.648" fx="605.714" r="117.143" cy="486.648" cx="605.714"/><linearGradient id="f"><stop offset="0"/><stop offset="1" stop-opacity="0"/></linearGradient><linearGradient gradientTransform="matrix(.644 0 0 .541 .533 5.489)" gradientUnits="userSpaceOnUse" xlink:href="#g" id="bj" y2="43.761" x2="35.793" y1="17.118" x1="35.793"/><linearGradient id="g"><stop offset="0" stop-color="#b4cee1"/><stop offset="1" stop-color="#5d9fcd"/></linearGradient><linearGradient gradientTransform="matrix(.747 0 0 .552 -1.922 5.72)" gradientUnits="userSpaceOnUse" xlink:href="#h" id="bk" y2="36.658" x2="22.809" y1="49.629" x1="22.935"/><linearGradient id="h"><stop offset="0" stop-color="#0a0a0a" stop-opacity=".498"/><stop offset="1" stop-color="#0a0a0a" stop-opacity="0"/></linearGradient><linearGradient gradientTransform="matrix(.892 0 0 .868 3.121 9.575)" gradientUnits="userSpaceOnUse" xlink:href="#i" id="bl" y2="21.387" x2="27.557" y1="7.163" x1="27.557"/><linearGradient id="i"><stop offset="0" stop-color="#fff"/><stop offset=".01" stop-color="#fff" stop-opacity=".235"/><stop offset=".99" stop-color="#fff" stop-opacity=".157"/><stop offset="1" stop-color="#fff" stop-opacity=".392"/></linearGradient><linearGradient gradientTransform="matrix(.046 0 0 .008 -.542 25.981)" gradientUnits="userSpaceOnUse" xlink:href="#j" id="aU" y2="609.505" x2="302.857" y1="366.648" x1="302.857"/><linearGradient id="j"><stop offset="0" stop-opacity="0"/><stop offset=".5"/><stop offset="1" stop-opacity="0"/></linearGradient><radialGradient gradientTransform="matrix(-.016 0 0 .008 14.39 25.981)" gradientUnits="userSpaceOnUse" xlink:href="#k" id="aV" fy="486.648" fx="605.714" r="117.143" cy="486.648" cx="605.714"/><linearGradient id="k"><stop offset="0"/><stop offset="1" stop-opacity="0"/></linearGradient><radialGradient gradientTransform="matrix(.016 0 0 .008 17.61 25.981)" gradientUnits="userSpaceOnUse" xlink:href="#k" id="aW" fy="486.648" fx="605.714" r="117.143" cy="486.648" cx="605.714"/><linearGradient><stop offset="0"/><stop offset="1" stop-opacity="0"/></linearGradient><linearGradient gradientTransform="matrix(.657 0 0 .63 .229 -1.09)" gradientUnits="userSpaceOnUse" xlink:href="#l" id="aX" y2="47.013" x2="25.132" y1=".985" x1="25.132"/><linearGradient id="l"><stop offset="0" stop-color="#f4f4f4"/><stop offset="1" stop-color="#dbdbdb"/></linearGradient><linearGradient gradientTransform="matrix(.531 0 0 .59 39.27 -1.792)" gradientUnits="userSpaceOnUse" xlink:href="#m" id="aY" y2="2.906" x2="-51.786" y1="50.786" x1="-51.786"/><linearGradient id="m"><stop offset="0" stop-color="#a0a0a0"/><stop offset="1" stop-color="#bebebe"/></linearGradient><linearGradient gradientTransform="matrix(.568 0 0 .73 2.378 -2.514)" gradientUnits="userSpaceOnUse" xlink:href="#n" id="aZ" y2="43" x2="24" y1="5.564" x1="24"/><linearGradient id="n"><stop offset="0" stop-color="#fff"/><stop offset=".036" stop-color="#fff" stop-opacity=".235"/><stop offset=".951" stop-color="#fff" stop-opacity=".157"/><stop offset="1" stop-color="#fff" stop-opacity=".392"/></linearGradient><radialGradient gradientTransform="matrix(0 .686 -.746 0 60.288 -27.737)" gradientUnits="userSpaceOnUse" xlink:href="#o" id="ba" fy="48.709" fx="65.325" r="31" cy="48.709" cx="65.325"/><linearGradient id="o"><stop offset="0" stop-color="#eef87e"/><stop offset=".262" stop-color="#cde34f"/><stop offset=".661" stop-color="#93b723"/><stop offset="1" stop-color="#5a7e0d"/></linearGradient><linearGradient gradientTransform="matrix(.193 0 0 .195 7.006 6.86)" gradientUnits="userSpaceOnUse" xlink:href="#p" id="bb" y2="51.244" x2="72.422" y1="124.756" x1="72.422"/><linearGradient id="p"><stop offset="0" stop-color="#3f7010"/><stop offset="1" stop-color="#84a718"/></linearGradient><linearGradient gradientTransform="matrix(.376 0 0 .373 15.248 15.686)" gradientUnits="userSpaceOnUse" xlink:href="#q" id="bc" y2="39.268" x2="24.139" y1="7.048" x1="24.139"/><linearGradient id="q"><stop offset="0" stop-color="#fff"/><stop offset=".389" stop-color="#fff" stop-opacity=".235"/><stop offset=".55" stop-color="#fff" stop-opacity=".157"/><stop offset="1" stop-color="#fff" stop-opacity=".392"/></linearGradient><radialGradient gradientTransform="matrix(1.66 0 0 .363 .873 -5.359)" gradientUnits="userSpaceOnUse" xlink:href="#r" id="aP" fy="73.616" fx="6.703" r="7.228" cy="73.616" cx="6.703"/><linearGradient id="r"><stop offset="0"/><stop offset="1" stop-opacity="0"/></linearGradient><linearGradient gradientTransform="matrix(.778 0 0 .778 -12.111 -13.667)" gradientUnits="userSpaceOnUse" xlink:href="#s" id="aQ" y2="47.012" x2="32.036" y1="19" x1="32.036"/><linearGradient gradientUnits="userSpaceOnUse" id="s" y2="122.899" x2="63.999" y1="3.1" x1="63.999"><stop offset="0" stop-color="#f6f6f6"/><stop offset="1" stop-color="#d2d2d2"/></linearGradient><linearGradient gradientTransform="matrix(.156 0 0 .156 2.001 2.157)" gradientUnits="userSpaceOnUse" xlink:href="#t" id="aR" y2="20.895" x2="84.639" y1="105.105" x1="86.133"/><linearGradient id="t"><stop offset="0" stop-color="#fff"/><stop offset="1" stop-color="#959595"/></linearGradient><linearGradient gradientUnits="userSpaceOnUse" xlink:href="#u" id="aS" y2="22.007" x2="12.479" y1="2" x1="12.479"/><linearGradient id="u"><stop offset="0" stop-color="#fff"/><stop offset="1" stop-color="#fff" stop-opacity="0"/></linearGradient><linearGradient gradientTransform="matrix(1.012 0 0 1.012 -.139 -.139)" gradientUnits="userSpaceOnUse" xlink:href="#u" id="aT" y2="8" x2="12" y1="16" x1="12"/><linearGradient><stop offset="0" stop-color="#fff"/><stop offset="1" stop-color="#fff" stop-opacity="0"/></linearGradient><linearGradient gradientTransform="matrix(.195 0 0 .18 50.002 -.891)" gradientUnits="userSpaceOnUse" xlink:href="#v" id="aH" y2="91.973" x2="-164.718" y1="99.667" x1="-172.653"/><linearGradient id="v"><stop offset="0" stop-color="#242424" stop-opacity=".992"/><stop offset="1" stop-color="#656565"/></linearGradient><linearGradient gradientTransform="matrix(.502 0 0 .462 -.38 1.903)" gradientUnits="userSpaceOnUse" xlink:href="#w" id="aI" y2="29.484" x2="31.364" y1="27.988" x1="32.893"/><linearGradient id="w"><stop offset="0" stop-color="#575757"/><stop offset="1" stop-color="#333"/></linearGradient><linearGradient gradientTransform="matrix(.195 0 0 .18 -25.223 .847)" gradientUnits="userSpaceOnUse" xlink:href="#x" id="aJ" y2="74.262" x2="210.581" y1="123.74" x1="212.044"/><linearGradient id="x"><stop offset="0" stop-color="#fff" stop-opacity=".195"/><stop offset="1" stop-color="#fff" stop-opacity="0"/></linearGradient><radialGradient gradientUnits="userSpaceOnUse" xlink:href="#y" id="aK" fy="21.818" fx="18.241" r="8.309" cy="21.818" cx="18.241"/><linearGradient id="y"><stop offset="0" stop-color="#fff" stop-opacity=".647"/><stop offset="1" stop-color="#fff" stop-opacity=".195"/></linearGradient><radialGradient gradientTransform="matrix(1.45 0 0 1.128 -15.28 -9.906)" gradientUnits="userSpaceOnUse" xlink:href="#z" id="aL" fy="13.078" fx="15.414" r="6.656" cy="13.078" cx="15.414"/><linearGradient id="z"><stop offset="0" stop-color="#fff"/><stop offset="1" stop-color="#fff" stop-opacity=".248"/></linearGradient><linearGradient gradientTransform="matrix(.191 0 0 .191 -24.168 .125)" gradientUnits="userSpaceOnUse" xlink:href="#A" id="aM" y2="11.949" x2="173.096" y1="75.319" x1="173.096"/><linearGradient id="A"><stop offset="0" stop-color="#343434" stop-opacity=".976"/><stop offset="1" stop-color="#929292"/></linearGradient><linearGradient gradientTransform="matrix(.191 0 0 .191 .562 1.562)" gradientUnits="userSpaceOnUse" xlink:href="#B" id="aN" y2="4.536" x2="41.485" y1="68.292" x1="41.542"/><linearGradient id="B"><stop offset="0" stop-color="#333"/><stop offset="1" stop-color="#333" stop-opacity=".612"/></linearGradient><linearGradient gradientTransform="matrix(.182 0 0 .182 -22.545 .408)" gradientUnits="userSpaceOnUse" xlink:href="#C" id="aO" y2="11.949" x2="173.096" y1="75.319" x1="173.096"/><linearGradient id="C"><stop offset="0" stop-color="#979797"/><stop offset="1" stop-opacity=".341"/></linearGradient><linearGradient gradientTransform="matrix(.035 0 0 .008 -.725 18.981)" gradientUnits="userSpaceOnUse" xlink:href="#D" id="ay" y2="609.505" x2="302.857" y1="366.648" x1="302.857"/><linearGradient id="D"><stop offset="0" stop-opacity="0"/><stop offset=".5"/><stop offset="1" stop-opacity="0"/></linearGradient><radialGradient gradientTransform="matrix(-.012 0 0 .008 10.761 18.981)" gradientUnits="userSpaceOnUse" xlink:href="#E" id="az" fy="486.648" fx="605.714" r="117.143" cy="486.648" cx="605.714"/><linearGradient id="E"><stop offset="0"/><stop offset="1" stop-opacity="0"/></linearGradient><radialGradient gradientTransform="matrix(.012 0 0 .008 13.239 18.981)" gradientUnits="userSpaceOnUse" xlink:href="#E" id="aA" fy="486.648" fx="605.714" r="117.143" cy="486.648" cx="605.714"/><linearGradient><stop offset="0"/><stop offset="1" stop-opacity="0"/></linearGradient><linearGradient gradientTransform="matrix(.486 0 0 .456 .343 .349)" gradientUnits="userSpaceOnUse" xlink:href="#F" id="aB" y2="47.013" x2="25.132" y1=".985" x1="25.132"/><linearGradient id="F"><stop offset="0" stop-color="#f4f4f4"/><stop offset="1" stop-color="#dbdbdb"/></linearGradient><linearGradient gradientTransform="matrix(.405 0 0 .514 2.27 -.324)" gradientUnits="userSpaceOnUse" xlink:href="#G" id="aC" y2="43" x2="24" y1="5.564" x1="24"/><linearGradient id="G"><stop offset="0" stop-color="#fff"/><stop offset=".036" stop-color="#fff" stop-opacity=".235"/><stop offset=".951" stop-color="#fff" stop-opacity=".157"/><stop offset="1" stop-color="#fff" stop-opacity=".392"/></linearGradient><radialGradient gradientTransform="matrix(.384 0 0 -.256 .457 24.312)" gradientUnits="userSpaceOnUse" xlink:href="#H" id="aD" fy="36.421" fx="24.837" r="15.645" cy="36.421" cx="24.837"/><linearGradient id="H"><stop offset="0"/><stop offset="1" stop-opacity="0"/></linearGradient><linearGradient gradientTransform="matrix(-.392 0 0 .366 17.986 2.854)" gradientUnits="userSpaceOnUse" xlink:href="#I" id="aE" y2="42.04" x2="23.732" y1="4.418" x1="23.732"/><linearGradient id="I"><stop offset="0" stop-color="#fff3cb"/><stop offset=".262" stop-color="#fdde76"/><stop offset=".661" stop-color="#f9c440"/><stop offset="1" stop-color="#e48b20"/></linearGradient><linearGradient gradientTransform="matrix(-.392 0 0 .366 17.986 2.854)" gradientUnits="userSpaceOnUse" xlink:href="#J" id="aF" y2="4.004" x2="35.998" y1="37.039" x1="35.998"/><linearGradient id="J"><stop offset="0" stop-color="#b67926"/><stop offset="1" stop-color="#eab41a"/></linearGradient><linearGradient gradientTransform="matrix(0 -.428 -.46 0 17.287 22.635)" gradientUnits="userSpaceOnUse" xlink:href="#K" id="aG" y2="15.991" x2="20.576" y1="15.991" x1="38.941"/><linearGradient id="K"><stop offset="0" stop-color="#fff"/><stop offset=".512" stop-color="#fff" stop-opacity=".235"/><stop offset=".585" stop-color="#fff" stop-opacity=".157"/><stop offset="1" stop-color="#fff" stop-opacity=".392"/></linearGradient><linearGradient gradientTransform="matrix(.035 0 0 .008 -.725 18.981)" gradientUnits="userSpaceOnUse" xlink:href="#L" id="ar" y2="609.505" x2="302.857" y1="366.648" x1="302.857"/><linearGradient id="L"><stop offset="0" stop-opacity="0"/><stop offset=".5"/><stop offset="1" stop-opacity="0"/></linearGradient><radialGradient gradientTransform="matrix(-.012 0 0 .008 10.761 18.981)" gradientUnits="userSpaceOnUse" xlink:href="#M" id="as" fy="486.648" fx="605.714" r="117.143" cy="486.648" cx="605.714"/><linearGradient id="M"><stop offset="0"/><stop offset="1" stop-opacity="0"/></linearGradient><radialGradient gradientTransform="matrix(.012 0 0 .008 13.239 18.981)" gradientUnits="userSpaceOnUse" xlink:href="#M" id="at" fy="486.648" fx="605.714" r="117.143" cy="486.648" cx="605.714"/><linearGradient><stop offset="0"/><stop offset="1" stop-opacity="0"/></linearGradient><linearGradient gradientTransform="matrix(.486 0 0 .456 .343 .349)" gradientUnits="userSpaceOnUse" xlink:href="#N" id="au" y2="47.013" x2="25.132" y1=".985" x1="25.132"/><linearGradient id="N"><stop offset="0" stop-color="#f4f4f4"/><stop offset="1" stop-color="#dbdbdb"/></linearGradient><linearGradient gradientTransform="matrix(.405 0 0 .514 2.27 -.324)" gradientUnits="userSpaceOnUse" xlink:href="#O" id="av" y2="43" x2="24" y1="5.564" x1="24"/><linearGradient id="O"><stop offset="0" stop-color="#fff"/><stop offset=".036" stop-color="#fff" stop-opacity=".235"/><stop offset=".951" stop-color="#fff" stop-opacity=".157"/><stop offset="1" stop-color="#fff" stop-opacity=".392"/></linearGradient><linearGradient gradientUnits="userSpaceOnUse" xlink:href="#P" id="aw" y2="12.501" x2="11.704" y1="19.199" x1="11.704"/><linearGradient id="P"><stop offset="0" stop-color="#fff"/><stop offset="1" stop-color="#fff" stop-opacity="0"/></linearGradient><linearGradient gradientTransform="matrix(.476 0 0 .406 .327 1.268)" gradientUnits="userSpaceOnUse" xlink:href="#Q" id="ax" y2="6.575" x2="21.478" y1="1.685" x1="21.478"/><linearGradient id="Q"><stop offset="0" stop-color="#eeeeec"/><stop offset="1" stop-color="#fff"/></linearGradient><linearGradient gradientTransform="matrix(.402 0 0 .398 53.351 -8.791)" gradientUnits="userSpaceOnUse" xlink:href="#R" id="ah" y2="3.634" x2="-51.786" y1="53.514" x1="-51.786"/><linearGradient id="R"><stop offset="0" stop-opacity=".322"/><stop offset="1" stop-opacity=".278"/></linearGradient><linearGradient gradientTransform="matrix(2.774 0 0 1.97 -1892.179 -872.885)" gradientUnits="userSpaceOnUse" xlink:href="#S" id="ai" y2="609.505" x2="302.857" y1="366.648" x1="302.857"/><linearGradient id="S"><stop offset="0" stop-opacity="0"/><stop offset=".5"/><stop offset="1" stop-opacity="0"/></linearGradient><radialGradient gradientTransform="matrix(2.774 0 0 1.97 -1891.633 -872.885)" gradientUnits="userSpaceOnUse" xlink:href="#T" id="aj" fy="486.648" fx="605.714" r="117.143" cy="486.648" cx="605.714"/><linearGradient id="T"><stop offset="0"/><stop offset="1" stop-opacity="0"/></linearGradient><radialGradient gradientTransform="matrix(-2.774 0 0 1.97 112.762 -872.885)" gradientUnits="userSpaceOnUse" xlink:href="#T" id="ak" fy="486.648" fx="605.714" r="117.143" cy="486.648" cx="605.714"/><linearGradient><stop offset="0"/><stop offset="1" stop-opacity="0"/></linearGradient><linearGradient gradientTransform="matrix(.459 0 0 .457 -22.727 -8.357)" gradientUnits="userSpaceOnUse" xlink:href="#U" id="al" y2="20.47" x2="62.989" y1="17.47" x1="62.989"/><linearGradient id="U"><stop offset="0" stop-color="#f9f9f9"/><stop offset="1" stop-color="#d8d8d8"/></linearGradient><linearGradient gradientTransform="matrix(.431 0 0 .486 1.99 -5.815)" gradientUnits="userSpaceOnUse" xlink:href="#V" id="am" y2="34.143" x2="21.37" y1="4.732" x1="21.37"/><linearGradient id="V"><stop offset="0" stop-color="#fff"/><stop offset=".111" stop-color="#fff" stop-opacity=".235"/><stop offset=".99" stop-color="#fff" stop-opacity=".157"/><stop offset="1" stop-color="#fff" stop-opacity=".392"/></linearGradient><linearGradient gradientTransform="matrix(.467 0 0 .393 .836 -4.982)" gradientUnits="userSpaceOnUse" xlink:href="#W" id="an" y2="43.761" x2="35.793" y1="17.118" x1="35.793"/><linearGradient id="W"><stop offset="0" stop-color="#b4cee1"/><stop offset="1" stop-color="#5d9fcd"/></linearGradient><linearGradient gradientTransform="matrix(.466 0 0 .393 -24.244 -5.046)" gradientUnits="userSpaceOnUse" xlink:href="#X" id="ao" y2="16.047" x2="82.453" y1="45.114" x1="82.453"/><linearGradient id="X"><stop offset="0" stop-color="#567991"/><stop offset="1" stop-color="#7a9ab1"/></linearGradient><linearGradient gradientTransform="matrix(.548 0 0 .414 -1.107 -5.21)" gradientUnits="userSpaceOnUse" xlink:href="#Y" id="ap" y2="36.658" x2="22.809" y1="49.629" x1="22.935"/><linearGradient id="Y"><stop offset="0" stop-color="#0a0a0a" stop-opacity=".498"/><stop offset="1" stop-color="#0a0a0a" stop-opacity="0"/></linearGradient><linearGradient gradientTransform="matrix(.628 0 0 .593 2.973 -1.487)" gradientUnits="userSpaceOnUse" xlink:href="#Z" id="aq" y2="21.387" x2="27.557" y1="7.163" x1="27.557"/><linearGradient id="Z"><stop offset="0" stop-color="#fff"/><stop offset=".01" stop-color="#fff" stop-opacity=".235"/><stop offset=".99" stop-color="#fff" stop-opacity=".157"/><stop offset="1" stop-color="#fff" stop-opacity=".392"/></linearGradient><linearGradient xlink:href="#aa" id="ag" gradientUnits="userSpaceOnUse" gradientTransform="matrix(1 0 0 216 344.791 -142338.23)" x1="60" y1="655.362" x2="62" y2="655.362"/><linearGradient id="aa"><stop offset="0"/><stop offset="1" stop-opacity="0"/></linearGradient><linearGradient xlink:href="#ab" id="af" gradientUnits="userSpaceOnUse" gradientTransform="matrix(1 0 0 39.182 269.291 -25263.237)" x1="86.5" y1="624.862" x2="91.5" y2="624.862"/><linearGradient id="ab"><stop offset="0" stop-color="#fff"/><stop offset="1" stop-color="#fff" stop-opacity="0"/></linearGradient><linearGradient xlink:href="#ac" id="ae" gradientUnits="userSpaceOnUse" gradientTransform="matrix(0 -1 13.5 0 -7324.889 487.791)" x1="84" y1="608.362" x2="132" y2="608.362"/><linearGradient id="ac"><stop offset="0" stop-color="#bfbfbf"/><stop offset="1" stop-color="#e3e3e3"/></linearGradient><filter id="ad" color-interpolation-filters="sRGB"><feGaussianBlur stdDeviation="12.96"/></filter></defs><g transform="translate(-538.896 -330.687)"><rect ry="3" rx="3" y="361.791" x="570" height="444" width="420" opacity=".7" filter="url(#ad)"/><rect width="432" height="444" x="564" y="355.791" rx="3" ry="3" fill="#fff"/><path d="M564 403.79v-45c0-1.66 1.338-3 3-3h426c1.662 0 3 1.34 3 3v45z" fill="url(#ae)"/><rect width="11" height="431" x="356.291" y="-995.5" rx="3" ry="3" transform="rotate(90)" fill="none" stroke="url(#af)"/><path opacity=".2" fill="#fff" d="M564 402.79h432v1H564z"/><path transform="rotate(90)" opacity=".15" fill="url(#ag)" d="M404.79-996h2v432h-2z"/><path opacity=".4" d="M564 403.79h432v1H564z"/><rect ry="4" rx="4" y="355.291" x="563.5" height="445" width="433" opacity=".35" fill="none" stroke="#000"/><path d="M578.88 375.8c-.224 0-.45.077-.622.25-.344.342-.344.902 0 1.246l2.495 2.495-2.495 2.498c-.344.343-.344.903 0 1.247.343.344.903.344 1.247 0L582 381.04l2.495 2.494c.344.344.904.344 1.247 0 .344-.344.344-.904 0-1.247l-2.495-2.495 2.495-2.494c.344-.344.344-.904 0-1.247-.343-.343-.903-.343-1.247 0L582 378.544l-2.495-2.494c-.172-.174-.398-.25-.624-.25z" opacity=".7" color="#bebebe" fill="#505050" overflow="visible" enable-background="accumulate"/><path d="M978 374.79l2.25 2.224-1.714 1.714-.027.027c-.384.42-.38 1.068.024 1.473.405.406 1.052.434 1.473.054l.213-.214 1.555-1.527 2.223 2.25v-6zm-6 6v6h6l-2.25-2.25 1.714-1.714c.013-.012.015-.013.027-.026.384-.42.38-1.068-.024-1.474-.405-.405-1.08-.433-1.5-.053l-.187.214-1.555 1.554z" opacity=".5" color="#bebebe" fill="#fff" overflow="visible" enable-background="accumulate"/><path d="M978 373.79l2.25 2.224-1.714 1.714-.027.027c-.384.42-.38 1.068.024 1.473.405.406 1.052.434 1.473.054l.213-.214 1.555-1.527 2.223 2.25v-6zm-6 6v6h6l-2.25-2.25 1.714-1.714c.013-.012.015-.013.027-.026.384-.42.38-1.068-.024-1.474-.405-.405-1.08-.433-1.5-.053l-.187.214-1.555 1.554z" opacity=".7" color="#bebebe" fill="#505050" overflow="visible" enable-background="accumulate"/><g opacity=".6"><path d="M3.036-4.563c-.277 0-.5.223-.5.5V-2.5h-.5c-.277 0-.5.223-.5.5v3.765h21V-2c0-.277-.223-.5-.5-.5h-11.5v-1.563c0-.277-.223-.5-.5-.5z" opacity=".8" color="#000" fill="none" stroke="url(#ah)" overflow="visible" enable-background="accumulate" transform="translate(600 375.791)"/><g stroke-width="104.962"><path opacity=".402" fill="url(#ai)" overflow="visible" d="M-1559.252-150.697H-219.62V327.66h-1339.63z" transform="matrix(.012 0 0 .008 622.516 387.281)"/><path d="M-219.62-150.68v478.33c142.875.9 345.4-107.17 345.4-239.196S-33.654-150.68-219.62-150.68z" opacity=".402" fill="url(#aj)" overflow="visible" transform="matrix(.012 0 0 .008 622.516 387.281)"/><path d="M-1559.252-150.68v478.33c-142.875.9-345.4-107.17-345.4-239.196s159.436-239.134 345.4-239.134z" opacity=".402" fill="url(#ak)" overflow="visible" transform="matrix(.012 0 0 .008 622.516 387.281)"/></g><path d="M3.036-4v2h-1v5h20v-5h-12v-2z" color="#000" fill="url(#al)" overflow="visible" enable-background="accumulate" transform="translate(600 375.791)"/><path d="M3.536-3.5v2h-1v4.34h19V-1.5h-12v-2z" color="#000" fill="none" stroke="url(#am)" stroke-linecap="round" overflow="visible" enable-background="accumulate" transform="translate(600 375.791)"/><path d="M1.846 1.5c-.5.05-.234.552-.274.834.06.183.433 9.606.433 9.93 0 .28.164.233.58.233H21.7c.45.01.354.004.354-.238.033-.127.463-10.38.48-10.54 0-.17.042-.22-.22-.22H1.844z" color="#000" fill="url(#an)" stroke="url(#ao)" stroke-linecap="round" stroke-linejoin="round" overflow="visible" enable-background="accumulate" transform="translate(600 375.791)"/><path d="M1.536 1h21c.304 0 .5.185.5.414L22.542 12.6c.007.29-.1.406-.452.4l-19.988-.007c-.303 0-.61-.172-.61-.4l-.456-11.18c0-.228.197-.413.5-.413z" opacity=".4" fill="url(#ap)" transform="translate(600 375.791)"/><path d="M2.536 2.5l.44 9h18.12l.44-9z" opacity=".5" color="#000" fill="none" stroke="url(#aq)" stroke-linecap="round" overflow="visible" enable-background="accumulate" transform="translate(600 375.791)"/></g><g transform="translate(636 367.791)" opacity=".6"><path opacity=".15" fill="url(#ar)" overflow="visible" d="M3.5 22h17v2h-17z"/><path d="M3.5 22v2c-.62.004-1.5-.448-1.5-1s.692-1 1.5-1z" opacity=".15" fill="url(#as)" overflow="visible"/><path d="M20.5 22v2c.62.004 1.5-.448 1.5-1s-.692-1-1.5-1z" opacity=".15" fill="url(#at)" overflow="visible"/><path d="M3.5 1.5h17v21h-17v-21z" fill="url(#au)"/><path d="M19.5 21.5h-15v-19h15z" fill="none" stroke="url(#av)" stroke-linecap="round"/><path d="M3.5 1.5h17v21h-17v-21z" opacity=".3" fill="none" stroke="#000" stroke-linejoin="round"/><path d="M16.5 12.522l-4.5 5-4.5-5h3V7.5h3v5.022z" color="#000" fill="#bebebe" stroke="#a0a0a0" stroke-linecap="round" stroke-linejoin="round" overflow="visible" enable-background="accumulate"/><path d="M10.28 6.468c-.596.112-.915.737-.843 1.304v3.697c-.58.033-2.26-.15-2.71.326-.465.452-.353 1.232.12 1.63 1.474 1.633 2.94 3.272 4.415 4.9.474.476 1.303.332 1.665-.206 1.482-1.653 2.98-3.294 4.452-4.956.51-.66-.045-1.735-.88-1.696h-1.94c-.005-1.016.01-3.032-.007-4.047-.052-.632-.698-1.033-1.297-.953h-2.98z" opacity=".6" color="#000" fill="none" stroke="url(#aw)" stroke-linecap="round" overflow="visible" enable-background="accumulate"/><rect y="1.471" x="2.471" ry=".864" rx="1.014" height="4.058" width="19.058" fill="url(#ax)"/><path fill="#c8cdc3" d="M4 3h6v1H4z"/><path fill="#969696" d="M11 2.5h1v2h-1z"/><rect y="1.471" x="2.471" ry=".864" rx="1.014" height="4.058" width="19.058" opacity=".3" fill="none" stroke="#000" stroke-width=".942"/></g><g opacity=".6"><path opacity=".15" fill="url(#ay)" overflow="visible" d="M3.5 22h17v2h-17z" transform="translate(684 367.791)"/><path d="M3.5 22v2c-.62.004-1.5-.448-1.5-1s.692-1 1.5-1z" opacity=".15" fill="url(#az)" overflow="visible" transform="translate(684 367.791)"/><path d="M20.5 22v2c.62.004 1.5-.448 1.5-1s-.692-1-1.5-1z" opacity=".15" fill="url(#aA)" overflow="visible" transform="translate(684 367.791)"/><path d="M3.5 1.5h17v21h-17v-21z" fill="url(#aB)" transform="translate(684 367.791)"/><path d="M19.5 21.5h-15v-19h15z" fill="none" stroke="url(#aC)" stroke-linecap="round" transform="translate(684 367.791)"/><path d="M687.5 369.29l17 .002v21h-17v-21z" opacity=".3" fill="none" stroke="#000" stroke-linejoin="round"/><path d="M15.982 15a6 4 0 1 0-12 0 6 4 0 0 0 12 0z" opacity=".141" fill="url(#aD)" fill-rule="evenodd" overflow="visible" transform="translate(684 367.791)"/><path d="M11.982 17c4.98-3.367 2.05-9.55-3.5-9.5v-3l-7 5 7 5v-2.977c3.58-.14 5.56 3.128 3 5.477z" fill="url(#aE)" stroke="url(#aF)" stroke-width=".964" stroke-linejoin="round" stroke-miterlimit="7" display="block" overflow="visible" transform="translate(684 367.791)"/><path d="M12.94 15.258c1.755-2.06.224-7.434-5.396-6.7l-.062-2.196L3.112 9.5l4.37 3.064v-2.06c6.167-.33 5.98 3.922 5.457 4.754z" opacity=".8" fill="none" stroke="url(#aG)" stroke-width=".964" stroke-miterlimit="7" display="block" overflow="visible" transform="translate(684 367.791)"/></g><g opacity=".6"><path d="M13.68 12.5l8.734 7.487-1.21 1.513-8.704-8.1 1.18-.9z" fill="url(#aH)" fill-rule="evenodd" stroke="url(#aI)" stroke-linecap="round" stroke-linejoin="round" transform="translate(720 367.791)"/><path d="M21.218 21.01l-7.005-8.046 8.475 6.85-1.47 1.195z" fill="url(#aJ)" fill-rule="evenodd" transform="translate(720 367.791)"/><path d="M742.84 387.608c.48.293.036 1.254-.802 1.73-.388.222-.765.275-.988.14-.48-.293-.035-1.255.803-1.732.388-.22.765-.274.988-.138z" fill="#3e3e3e"/><path transform="matrix(.703 0 0 .687 716.762 363.3)" d="M25.898 18.478a8.31 8.31 0 1 1-16.617 0 8.31 8.31 0 1 1 16.62 0z" opacity=".4" fill="url(#aK)" fill-rule="evenodd" stroke-width=".882"/><path d="M8.888 3.286c-2.912 0-5.27 2.112-5.27 4.72 0 .754.065 1.532.415 2.164.7.23 1.614.304 2.404.304 3.45 0 6.42-2.563 6.632-5.606-.97-1.025-2.57-1.582-4.184-1.582z" opacity=".6" fill="url(#aL)" fill-rule="evenodd" overflow="visible" transform="translate(720 367.791)"/><path d="M9 2.5c-3.587 0-6.5 2.69-6.5 6s2.913 6 6.5 6 6.5-2.69 6.5-6-2.913-6-6.5-6zm.077.394c3.21 0 5.82 2.404 5.82 5.367 0 2.967-2.61 5.37-5.82 5.37-3.21 0-5.814-2.403-5.814-5.37 0-2.96 2.604-5.364 5.814-5.364z" fill="url(#aM)" stroke="url(#aN)" stroke-linecap="round" stroke-linejoin="round" transform="translate(720 367.791)"/><path d="M9.042 2.673c-3.417 0-6.185 2.56-6.185 5.714 0 3.153 2.768 5.713 6.185 5.713 3.416 0 6.19-2.56 6.19-5.713 0-3.154-2.774-5.714-6.19-5.714zm.035.22c3.21 0 5.567 2.405 5.567 5.368 0 2.967-2.356 5.116-5.567 5.116-3.21 0-5.602-2.15-5.602-5.113 0-2.962 2.392-5.366 5.602-5.366z" fill="url(#aO)" transform="translate(720 367.791)"/></g><path d="M24 21.375C24 22.825 18.627 24 12 24S0 22.825 0 21.375s5.373-2.625 12-2.625 12 1.175 12 2.625z" opacity=".2" fill="url(#aP)" stroke-width=".8" overflow="visible" transform="translate(936 367.791)"/><path d="M10.5 1.5c-.554 0-1 .446-1 1v1.375c-.507.156-1.007.35-1.47.594l-.967-.97c-.392-.394-1.046-.394-1.438 0L3.5 5.623c-.392.392-.392 1.046 0 1.438l.97.968c-.245.464-.44.964-.595 1.47H2.5c-.554 0-1 .447-1 1v3c0 .555.446 1 1 1h1.375c.156.508.35 1.008.594 1.47l-.97.968c-.394.392-.394 1.046 0 1.438L5.623 20.5c.392.392 1.046.392 1.438 0l.968-.97c.464.245.964.44 1.47.595V21.5c0 .554.447 1 1 1h3c.555 0 1-.446 1-1v-1.375c.508-.156 1.008-.35 1.47-.594l.968.97c.392.394 1.046.394 1.438 0l2.125-2.123c.394-.392.394-1.046 0-1.438l-.97-.97c.247-.462.44-.962.597-1.47H21.5c.554 0 1-.445 1-1v-3c0-.553-.446-1-1-1h-1.375c-.156-.506-.35-1.006-.594-1.47l.97-.966c.394-.392.394-1.046 0-1.438L18.377 3.5c-.392-.392-1.046-.392-1.438 0l-.968.97c-.464-.245-.964-.44-1.47-.595V2.5c0-.554-.447-1-1-1h-3zm1.5 8c1.38 0 2.5 1.12 2.5 2.5s-1.12 2.5-2.5 2.5-2.5-1.12-2.5-2.5 1.12-2.5 2.5-2.5z" color="#000" fill="url(#aQ)" display="block" overflow="visible" enable-background="accumulate" transform="translate(936 367.791)"/><path d="M948 373.79c-3.31 0-6 2.69-6 6s2.69 6 6 6 6-2.69 6-6-2.69-6-6-6zm0 3c1.657 0 3 1.344 3 3 0 1.658-1.343 3-3 3s-3-1.342-3-3c0-1.656 1.343-3 3-3z" opacity=".05"/><path d="M12 5.5c-3.584 0-6.5 2.916-6.5 6.5s2.916 6.5 6.5 6.5 6.5-2.916 6.5-6.5-2.916-6.5-6.5-6.5z" fill="none" stroke="url(#aR)" transform="translate(936 367.791)"/><path d="M10.5 2.47c-.074.387-.01.9-.03 1.335.063.778-.772 1.053-1.37 1.217-.547.31-1.35.672-1.837.054l-.888-.888c-.432.286-.785.763-1.186 1.123-.32.364-.76.676-1.005 1.067.408.49 1.05.838 1.226 1.477-.023.798-.54 1.53-.81 2.267-.5.564-1.315.28-1.974.35-.345-.013-.07.586-.158.825 0 .745-.005 1.49 0 2.235.645.063 1.357-.15 1.945.18.556.577.676 1.472 1.007 2.187.042.753-.733 1.126-1.15 1.64-.217.273.386.505.516.75.507.51 1.015 1.017 1.522 1.525.523-.305.84-.99 1.446-1.205.815-.107 1.514.546 2.284.734.65.454.363 1.31.427 1.977-.09.418.527.13.768.214.764 0 1.528.005 2.29 0 .066-.645-.15-1.357.18-1.945.58-.556 1.475-.676 2.19-1.007.753-.042 1.126.732 1.64 1.15.273.217.505-.386.75-.516.51-.506 1.017-1.014 1.524-1.522-.305-.522-.99-.84-1.205-1.445-.107-.815.546-1.514.734-2.284.45-.65 1.31-.363 1.974-.427.418.09.13-.527.214-.768 0-.764.004-1.528 0-2.29-.646-.066-1.358.15-1.946-.18-.556-.58-.676-1.475-1.007-2.19-.04-.753.734-1.126 1.15-1.64.218-.273-.385-.505-.515-.75-.508-.51-1.016-1.017-1.524-1.524-.52.305-.84.99-1.444 1.205-.814.107-1.513-.546-2.283-.734-.65-.45-.363-1.31-.427-1.974.09-.418-.527-.13-.768-.214H10.5z" opacity=".8" color="#000" fill="none" stroke="url(#aS)" stroke-linejoin="round" display="block" overflow="visible" enable-background="accumulate" transform="translate(936 367.791)"/><path d="M15.5 12a3.5 3.5 0 1 1-7 0 3.5 3.5 0 1 1 7 0z" opacity=".4" color="#000" fill="none" stroke="url(#aT)" display="block" overflow="visible" enable-background="accumulate" transform="translate(936 367.791)"/><path d="M946.5 369.29c-.554 0-1 .447-1 1v1.376c-.507.156-1.007.35-1.47.594l-.967-.97c-.392-.39-1.046-.39-1.438 0l-2.125 2.126c-.392.392-.392 1.046 0 1.438l.97.968c-.245.462-.44.962-.595 1.47H938.5c-.554 0-1 .445-1 1v3c0 .553.446 1 1 1h1.375c.156.506.35 1.006.594 1.468l-.97.97c-.394.39-.394 1.044 0 1.436l2.123 2.125c.392.395 1.046.395 1.438 0l.97-.966c.462.244.962.438 1.47.594v1.375c0 .555.445 1 1 1h3c.553 0 1-.445 1-1v-1.374c.506-.157 1.006-.35 1.47-.595l.966.97c.392.39 1.046.39 1.438 0l2.125-2.126c.39-.393.39-1.047 0-1.44l-.97-.967c.244-.462.44-.962.594-1.47h1.375c.553 0 1-.445 1-1v-3c0-.553-.447-1-1-1h-1.376c-.156-.506-.35-1.006-.594-1.468l.97-.97c.393-.39.393-1.044 0-1.436l-2.124-2.126c-.392-.39-1.046-.39-1.438 0l-.968.97c-.463-.244-.963-.438-1.47-.594v-1.376c0-.553-.446-1-1-1h-3zm1.5 8c1.38 0 2.5 1.12 2.5 2.5 0 1.382-1.12 2.5-2.5 2.5s-2.5-1.118-2.5-2.5c0-1.38 1.12-2.5 2.5-2.5z" opacity=".3" color="#000" fill="none" stroke="#000" stroke-linejoin="round" display="block" overflow="visible" enable-background="accumulate"/><text style="text-align:center;line-height:150%;-inkscape-font-specification:Open Sans Bold" x="780" y="384.791" font-size="12" font-weight="bold" letter-spacing="0" word-spacing="0" text-anchor="middle" opacity=".5" color="#000" fill="#fff" overflow="visible" enable-background="accumulate" font-family="Open Sans"><tspan style="text-align:center;line-height:150%;-inkscape-font-specification:Open Sans Bold" x="780" y="384.791" font-size="12" font-weight="bold" text-anchor="middle" fill="#fff" font-family="Open Sans">Scratch</tspan></text><path d="M761.572 375.318v1.852c-.48-.215-.95-.377-1.406-.487-.457-.11-.89-.164-1.295-.164-.536 0-.934.07-1.192.22-.258.15-.387.38-.387.69 0 .236.086.42.258.552.176.13.492.24.95.334l.96.193c.973.196 1.664.493 2.074.89.41.4.617.966.617 1.7 0 .965-.288 1.684-.86 2.157-.57.468-1.445.703-2.62.703-.556 0-1.11-.05-1.67-.157-.56-.105-1.118-.26-1.677-.468v-1.905c.56.296 1.1.52 1.618.673.525.15 1.03.223 1.513.223.49 0 .868-.082 1.13-.246.262-.164.393-.4.393-.703 0-.274-.09-.485-.27-.633-.176-.15-.53-.28-1.06-.4l-.873-.192c-.875-.187-1.516-.486-1.922-.896-.402-.41-.603-.963-.603-1.66 0-.87.28-1.54.844-2.008.563-.47 1.37-.704 2.427-.704.48 0 .974.038 1.482.112.507.07 1.032.178 1.575.322m7.767 2.115v1.71c-.285-.194-.572-.34-.862-.432-.285-.09-.582-.14-.89-.14-.586 0-1.043.174-1.37.518-.325.34-.488.816-.488 1.43 0 .613.163 1.09.487 1.435.325.34.782.51 1.37.51.326 0 .64-.048.93-.146.296-.098.57-.242.82-.433v1.717c-.328.12-.66.21-1 .27-.338.063-.676.095-1.016.095-1.183 0-2.11-.302-2.777-.908-.67-.61-1.003-1.455-1.003-2.537 0-1.083.334-1.926 1.002-2.53.667-.61 1.593-.916 2.776-.916.344 0 .682.03 1.014.094.336.058.67.148 1.002.27m6.702 1.577c-.185-.086-.368-.148-.552-.187-.18-.043-.36-.065-.545-.065-.54 0-.955.174-1.248.522-.29.344-.433.838-.433 1.482v3.024h-2.098v-6.56h2.098v1.078c.27-.43.578-.742.925-.937.352-.2.772-.3 1.26-.3.07 0 .147.005.23.013.08.004.2.015.356.035l.006 1.898m3.995 1.822c-.437 0-.767.074-.99.222-.22.15-.328.367-.328.657 0 .265.088.474.263.626.18.15.428.223.745.223.394 0 .726-.14.996-.422.27-.285.407-.64.407-1.066v-.24h-1.09m3.205-.79v3.743h-2.114v-.97c-.28.4-.598.69-.95.873-.35.18-.78.27-1.282.27-.68 0-1.233-.197-1.66-.59-.42-.4-.63-.915-.63-1.548 0-.77.262-1.334.79-1.693.53-.36 1.363-.54 2.496-.54h1.235v-.163c0-.334-.13-.576-.393-.728-.26-.157-.67-.235-1.224-.235-.45 0-.867.044-1.254.134-.387.09-.746.224-1.078.404v-1.6c.45-.11.9-.19 1.353-.246.45-.06.906-.088 1.36-.088 1.18 0 2.036.233 2.56.702.527.465.79 1.223.79 2.274m4.254-4.68v1.862h2.162v1.5h-2.162v2.783c0 .308.06.515.182.625.12.105.36.158.72.158h1.08v1.5h-1.8c-.828 0-1.416-.17-1.764-.515-.344-.348-.516-.935-.516-1.764v-2.782h-1.042v-1.5h1.042v-1.862h2.098m8.754 2.063v1.71c-.285-.194-.572-.34-.86-.432-.286-.09-.583-.14-.892-.14-.586 0-1.043.174-1.37.518-.325.34-.487.816-.487 1.43 0 .613.16 1.09.483 1.435.328.34.785.51 1.37.51.33 0 .64-.048.933-.146.297-.098.57-.242.82-.433v1.717c-.328.12-.662.21-1.002.27-.336.063-.674.095-1.014.095-1.182 0-2.11-.302-2.776-.908-.668-.61-1.002-1.455-1.002-2.537 0-1.083.334-1.926 1.002-2.53.668-.61 1.594-.916 2.777-.916.346 0 .684.03 1.016.094.336.058.67.148 1.002.27m8.42 2.357v3.996h-2.11v-3.044c0-.574-.013-.97-.04-1.184-.024-.214-.067-.372-.13-.473-.08-.138-.193-.244-.333-.318-.14-.08-.3-.118-.48-.118-.438 0-.782.17-1.032.51-.25.336-.375.803-.375 1.4v3.23h-2.098v-9.118h2.098v3.515c.316-.384.652-.665 1.008-.845.355-.183.748-.275 1.178-.275.757 0 1.332.23 1.722.696.395.465.592 1.14.592 2.028" style="line-height:150%;-inkscape-font-specification:Open Sans Bold" font-size="12" font-weight="bold" letter-spacing="0" word-spacing="0" text-anchor="middle" opacity=".7" color="#000" fill="#505050" overflow="visible" enable-background="accumulate" font-family="Open Sans"/><path d="M680.66 464.295h3.188l7.757 14.636v-14.633h2.297v17.496h-3.187l-7.758-14.636v14.637h-2.297V464.3m22.945 5.877c-1.156 0-2.07.454-2.742 1.36-.672.898-1.008 2.133-1.008 3.703 0 1.57.332 2.81.997 3.715.67.898 1.59 1.347 2.753 1.347 1.15 0 2.06-.453 2.73-1.36.673-.905 1.01-2.14 1.01-3.702 0-1.555-.337-2.785-1.01-3.69-.67-.915-1.58-1.373-2.73-1.373m0-1.828c1.875 0 3.348.61 4.418 1.825 1.07 1.22 1.606 2.907 1.606 5.063 0 2.147-.538 3.835-1.61 5.06-1.07 1.22-2.542 1.83-4.417 1.83-1.882 0-3.36-.61-4.43-1.83-1.062-1.225-1.593-2.913-1.593-5.06 0-2.157.53-3.845 1.595-5.064 1.07-1.218 2.547-1.828 4.43-1.828m27.833.32v13.125h-2.168v-11.446h-5.918v11.45h-2.168v-11.45h-2.063v-1.676h2.066v-.914c0-1.43.336-2.485 1.007-3.164.68-.69 1.72-1.033 3.12-1.033h2.167v1.793h-2.064c-.773 0-1.312.156-1.617.468-.3.313-.447.875-.447 1.688v1.16h8.086m-2.17-5.086h2.17v2.73h-2.17v-2.73m6.703-.024h2.156v18.235h-2.16V463.56m17.885 11.132v1.054h-9.914c.097 1.484.54 2.617 1.34 3.398.804.774 1.92 1.16 3.35 1.16.828 0 1.63-.1 2.4-.304.783-.203 1.557-.508 2.323-.914v2.04c-.774.327-1.567.577-2.38.75-.812.17-1.636.257-2.472.257-2.093 0-3.753-.61-4.98-1.826-1.22-1.218-1.83-2.867-1.83-4.945 0-2.15.58-3.85 1.737-5.11 1.164-1.266 2.73-1.9 4.7-1.9 1.765 0 3.16.57 4.183 1.71 1.03 1.134 1.544 2.677 1.544 4.63m-2.156-.633c-.016-1.18-.348-2.12-.997-2.824-.64-.703-1.49-1.054-2.553-1.055-1.203 0-2.168.34-2.894 1.02-.72.68-1.133 1.637-1.242 2.87l7.688-.01m14.064-5.006v2.04c-.61-.313-1.242-.547-1.9-.704-.655-.156-1.335-.234-2.038-.234-1.07 0-1.875.164-2.414.492-.53.328-.797.82-.797 1.477 0 .5.192.894.574 1.183.383.282 1.153.55 2.31.81l.737.163c1.532.325 2.618.79 3.258 1.392.65.593.973 1.425.973 2.496 0 1.217-.485 2.182-1.453 2.893-.96.71-2.285 1.068-3.973 1.068-.706 0-1.44-.07-2.206-.21-.758-.133-1.56-.336-2.402-.61v-2.226c.796.414 1.582.726 2.355.937.773.204 1.538.306 2.296.306 1.016 0 1.797-.172 2.344-.516.547-.35.82-.842.82-1.475 0-.586-.2-1.035-.598-1.348-.39-.312-1.255-.613-2.59-.902l-.75-.176c-1.336-.28-2.3-.71-2.895-1.29-.594-.587-.89-1.388-.89-2.4 0-1.238.437-2.19 1.312-2.86.875-.675 2.117-1.01 3.726-1.01.797 0 1.547.06 2.25.175.704.117 1.352.293 1.946.527m17.756 6.14c-1.743 0-2.95.2-3.62.6-.673.4-1.01 1.08-1.01 2.04 0 .765.25 1.375.75 1.83.51.443 1.196.666 2.063.666 1.193 0 2.15-.422 2.87-1.266.725-.85 1.09-1.98 1.09-3.385v-.48h-2.146m4.3-.892v7.49h-2.156V479.8c-.493.795-1.106 1.385-1.84 1.768-.735.375-1.634.563-2.696.563-1.344 0-2.414-.372-3.21-1.122-.79-.758-1.185-1.77-1.185-3.036 0-1.475.492-2.59 1.476-3.34.992-.75 2.47-1.123 4.43-1.123h3.023v-.21c0-.994-.33-1.76-.985-2.3-.65-.547-1.562-.82-2.74-.82-.75 0-1.48.09-2.193.27-.71.18-1.393.448-2.05.808v-1.993c.79-.304 1.555-.53 2.297-.68.742-.155 1.465-.234 2.168-.234 1.9 0 3.317.493 4.254 1.477.937.984 1.405 2.477 1.405 4.476m12.065-3.623c-.242-.14-.508-.24-.797-.303-.28-.07-.594-.106-.937-.106-1.216 0-2.154.4-2.81 1.2-.65.79-.973 1.924-.973 3.41v6.913h-2.168V468.67h2.167v2.04c.454-.8 1.043-1.39 1.77-1.77.727-.39 1.61-.588 2.648-.588.15 0 .313.01.493.035.18.016.38.043.597.082l.012 2.214m12.993 4.006v1.054h-9.913c.094 1.484.54 2.617 1.336 3.398.805.774 1.922 1.16 3.352 1.16.828 0 1.628-.1 2.402-.304.78-.203 1.555-.508 2.32-.914v2.04c-.773.327-1.566.577-2.38.75-.81.17-1.635.257-2.47.257-2.095 0-3.755-.61-4.982-1.826-1.22-1.218-1.828-2.867-1.828-4.945 0-2.15.578-3.85 1.734-5.11 1.167-1.266 2.734-1.9 4.7-1.9 1.768 0 3.16.57 4.186 1.71 1.03 1.134 1.547 2.677 1.547 4.63m-2.155-.633c-.016-1.18-.348-2.12-.996-2.824-.64-.703-1.492-1.054-2.555-1.055-1.203 0-2.168.34-2.894 1.02-.72.68-1.132 1.637-1.242 2.87l7.69-.01m18.417-3.88c-1.157 0-2.07.453-2.742 1.36-.672.897-1.008 2.132-1.008 3.702 0 1.57.332 2.81.996 3.715.672.898 1.59 1.347 2.754 1.347 1.148 0 2.058-.453 2.73-1.36.672-.905 1.008-2.14 1.008-3.702 0-1.555-.336-2.785-1.008-3.69-.672-.915-1.582-1.373-2.73-1.373m0-1.828c1.875 0 3.347.61 4.418 1.825 1.07 1.22 1.605 2.907 1.605 5.063 0 2.147-.535 3.835-1.605 5.06-1.07 1.22-2.543 1.83-4.418 1.83-1.883 0-3.36-.61-4.43-1.83-1.062-1.225-1.594-2.913-1.594-5.06 0-2.157.532-3.845 1.594-5.064 1.07-1.218 2.547-1.828 4.43-1.828m11.673 11.476v6.96h-2.17v-18.116h2.17v1.992c.452-.78 1.022-1.36 1.71-1.734.695-.383 1.523-.575 2.484-.575 1.594 0 2.887.63 3.88 1.896 1 1.265 1.5 2.93 1.5 4.992s-.5 3.726-1.5 4.99c-.993 1.267-2.286 1.9-3.88 1.9-.96 0-1.79-.19-2.484-.563-.688-.383-1.258-.965-1.71-1.746m7.335-4.58c0-1.588-.33-2.83-.985-3.73-.648-.905-1.543-1.36-2.683-1.36s-2.04.455-2.696 1.36c-.645.9-.97 2.14-.97 3.728 0 1.585.325 2.83.97 3.737.66.9 1.558 1.348 2.7 1.348 1.14 0 2.034-.45 2.682-1.348.657-.906.986-2.152.986-3.738m17.036-.547v1.054h-9.914c.093 1.484.54 2.617 1.335 3.398.805.774 1.922 1.16 3.352 1.16.828 0 1.63-.1 2.402-.304.78-.203 1.552-.508 2.32-.914v2.04c-.776.327-1.57.577-2.38.75-.814.17-1.638.257-2.474.257-2.094 0-3.754-.61-4.98-1.826-1.22-1.218-1.828-2.867-1.828-4.945 0-2.15.577-3.85 1.733-5.11 1.165-1.266 2.73-1.9 4.7-1.9 1.766 0 3.16.57 4.184 1.71 1.03 1.134 1.547 2.677 1.547 4.63m-2.156-.633c-.015-1.18-.347-2.12-.996-2.824-.64-.703-1.49-1.054-2.553-1.055-1.204 0-2.168.34-2.895 1.02-.72.68-1.133 1.637-1.242 2.87l7.687-.01m16.608-.188v7.92h-2.156v-7.85c0-1.243-.243-2.173-.727-2.79s-1.21-.926-2.18-.926c-1.164 0-2.082.37-2.754 1.114-.67.742-1.007 1.754-1.007 3.035v7.418h-2.17V468.67h2.17v2.04c.512-.79 1.12-1.38 1.813-1.77.703-.39 1.512-.587 2.426-.587 1.51 0 2.65.47 3.422 1.407.773.93 1.16 2.3 1.16 4.113" style="line-height:150%;-inkscape-font-specification:Open Sans" font-size="24" letter-spacing="0" word-spacing="0" text-anchor="middle" color="#000" fill="#4d4d4d" overflow="visible" enable-background="accumulate" font-family="Open Sans"/><path d="M668.133 502.76c-.844-1.095-1.984-1.643-3.42-1.643-1.435 0-2.577.548-3.427 1.643-.844 1.096-1.265 2.59-1.265 4.483 0 1.88.424 3.37 1.268 4.465.85 1.095 1.992 1.643 3.428 1.643 1.435 0 2.575-.545 3.42-1.64.837-1.096 1.256-2.584 1.256-4.465 0-1.893-.42-3.387-1.256-4.482m-3.42-2.33c1.7 0 3.06.617 4.08 1.847 1.02 1.235 1.528 2.89 1.528 4.965 0 2.068-.508 3.718-1.528 4.948-1.02 1.237-2.38 1.856-4.078 1.856-1.705 0-3.07-.618-4.096-1.848-1.02-1.23-1.53-2.883-1.53-4.957s.51-3.73 1.53-4.966c1.026-1.23 2.39-1.847 4.096-1.847m9.92 11.125v5.977h-.79v-13.588h.79v2.25c.37-.855.77-1.44 1.203-1.758.665-.49 1.29-.73 1.875-.73 1.166 0 2.136.472 2.91 1.422.772.95 1.16 2.197 1.16 3.744 0 1.547-.387 2.795-1.16 3.744-.774.95-1.744 1.425-2.91 1.425-.586 0-1.21-.244-1.872-.73-.433-.316-.834-.902-1.203-1.758m5.272.747c.68-.685 1.02-1.828 1.02-3.427 0-1.6-.34-2.742-1.02-3.428-.674-.688-1.386-1.03-2.136-1.03-.732 0-1.438.342-2.118 1.03-.674.684-1.01 1.826-1.01 3.426s.336 2.742 1.01 3.427c.68.686 1.386 1.03 2.118 1.03.75 0 1.462-.344 2.136-1.03m13.015-3.838v.51h-7.47c0 1.58.307 2.69.922 3.322.68.703 1.69 1.054 3.03 1.054.35 0 .82-.073 1.4-.225.583-.153 1.163-.38 1.74-.686v.852c-.58.247-1.178.434-1.787.563-.61.13-1.093.194-1.45.194-1.518 0-2.66-.41-3.428-1.23-.832-.875-1.248-2.155-1.248-3.843 0-1.752.38-3.058 1.14-3.92.78-.896 1.865-1.344 3.253-1.344 1.29 0 2.263.426 2.92 1.275.65.89.976 2.05.976 3.48m-.818-.175c0-1.384-.31-2.392-.932-3.025-.522-.562-1.23-.843-2.127-.843-.98 0-1.8.293-2.46.88-.61.543-.978 1.54-1.1 2.987h6.62m11.654-.442v5.94h-.81v-5.888c0-1.277-.204-2.177-.614-2.698-.41-.522-1.014-.782-1.81-.782-.932 0-1.73.28-2.39.843-.67.57-1.003 1.556-1.003 2.962v5.564h-.81v-9.84h.81v1.845c.287-.598.665-1.055 1.134-1.37.694-.476 1.46-.713 2.296-.713.973 0 1.75.33 2.33.994.58.656.87 1.705.87 3.146m13.656.384c-1.3 0-2.238.232-2.813.694-.577.463-.864 1.14-.864 2.03 0 .868.237 1.483.712 1.846.474.364 1.036.545 1.686.545 1.23 0 2.116-.52 2.655-1.56.545-1.044.817-2.026.817-2.945v-.607h-2.198m3.014-.06v5.615h-.8v-2.67c-.45 1.306-1.05 2.138-1.793 2.495-.59.287-1.18.43-1.766.43-.978 0-1.75-.26-2.31-.782-.564-.527-.845-1.3-.845-2.32 0-1.02.365-1.834 1.1-2.443.73-.615 1.93-.923 3.592-.923h2.004v-.16c0-.873-.25-1.59-.748-2.154-.493-.562-1.308-.843-2.444-.843-.564 0-1.138.105-1.724.316-.375.133-.86.405-1.46.815v-.87c.523-.322 1.01-.55 1.46-.685.656-.193 1.286-.29 1.89-.29 1.16 0 2.115.35 2.865 1.055.65.604.977 1.74.977 3.41m14.058-8.06v.686h-1.142c-.598 0-1.055.158-1.37.468-.388.38-.582.985-.582 1.81v.87h6.047v9.845h-.808v-9.157h-5.24v9.158h-.816v-9.157h-1.55v-.686h1.547v-.685c0-1.083.248-1.88.746-2.39.492-.503 1.172-.755 2.04-.755h1.124m2.145 0h.808v1.106h-.807v-1.107m4.977-.005h.808v13.676h-.81v-13.673m12.666 8.348v.51h-7.47c0 1.58.307 2.69.923 3.322.68.703 1.69 1.054 3.032 1.054.35 0 .814-.073 1.394-.225.586-.153 1.166-.38 1.74-.686v.852c-.58.247-1.174.434-1.784.563-.61.13-1.09.194-1.45.194-1.516 0-2.66-.41-3.427-1.23-.832-.875-1.248-2.155-1.248-3.843 0-1.752.38-3.058 1.143-3.92.778-.896 1.862-1.344 3.25-1.344 1.29 0 2.263.426 2.92 1.275.65.89.974 2.05.974 3.48m-.817-.175c0-1.384-.31-2.392-.932-3.025-.52-.562-1.23-.843-2.127-.843-.978 0-1.798.293-2.46.88-.61.543-.976 1.54-1.1 2.987h6.62m10.804-7.14v2.795h3.33v.686h-3.33v5.915c0 .75.095 1.274.29 1.573.397.66.977.987 1.74.987h1.3v.686h-1.257c-.803 0-1.485-.234-2.048-.702-.562-.47-.844-1.315-.844-2.54v-5.914h-1.174v-.686h1.177v-2.796h.82m12.063 4.48c-.58-.81-1.37-1.212-2.373-1.212-1.002 0-1.793.4-2.373 1.204-.586.797-.88 1.875-.88 3.234 0 1.395.29 2.49.87 3.287.58.803 1.375 1.204 2.383 1.204 1.002 0 1.793-.4 2.373-1.2.586-.81.88-1.905.88-3.288 0-1.34-.294-2.416-.88-3.224m-2.382-1.925c1.254 0 2.244.47 2.97 1.407.733.943 1.1 2.194 1.1 3.753 0 1.61-.367 2.882-1.1 3.813-.726.938-1.716 1.407-2.97 1.407-1.265 0-2.264-.466-2.997-1.398-.726-.932-1.09-2.206-1.09-3.823 0-1.578.367-2.83 1.1-3.764.73-.93 1.728-1.397 2.987-1.397m19.346 8.595c.68-.685 1.02-1.828 1.02-3.427 0-1.6-.34-2.742-1.02-3.428-.675-.686-1.387-1.028-2.137-1.028-.732 0-1.438.342-2.118 1.028-.674.686-1.01 1.828-1.01 3.428 0 1.6.336 2.742 1.01 3.427.68.686 1.386 1.03 2.118 1.03.75 0 1.462-.344 2.136-1.03m-5.276-6.108c.37-.855.77-1.44 1.204-1.758.66-.49 1.285-.73 1.87-.73 1.167 0 2.137.472 2.91 1.422.773.95 1.16 2.197 1.16 3.744 0 1.547-.387 2.795-1.16 3.744-.773.95-1.743 1.425-2.91 1.425-.585 0-1.21-.244-1.87-.73-.435-.316-.836-.902-1.205-1.758v2.233h-.79v-13.675h.79v6.082m18.293 2.268v.51h-7.47c0 1.58.307 2.69.922 3.322.68.703 1.69 1.054 3.032 1.054.352 0 .817-.073 1.398-.225.585-.153 1.166-.38 1.74-.686v.852c-.58.247-1.175.434-1.784.563-.61.13-1.093.194-1.45.194-1.518 0-2.66-.41-3.428-1.23-.832-.875-1.248-2.155-1.248-3.843 0-1.752.38-3.058 1.142-3.92.78-.896 1.863-1.344 3.252-1.344 1.29 0 2.262.426 2.918 1.275.65.89.976 2.05.976 3.48m-.818-.175c0-1.384-.31-2.392-.93-3.025-.523-.562-1.232-.843-2.128-.843-.98 0-1.8.293-2.46.88-.61.543-.977 1.54-1.1 2.987h6.618m10.758.463c0-1.366-.278-2.423-.835-3.173-.55-.756-1.324-1.134-2.326-1.134-.99 0-1.764.378-2.32 1.134-.55.75-.826 1.807-.826 3.173 0 1.36.275 2.417.826 3.172.556.75 1.33 1.125 2.32 1.125 1.002 0 1.778-.375 2.33-1.125.556-.755.834-1.813.834-3.172m.81 3.814c0 2.042-.39 3.38-1.17 4.014-.78.633-1.767.95-2.962.95-.57 0-1.105-.042-1.61-.124-.502-.087-.992-.22-1.466-.395v-.922c.473.257.942.448 1.405.57.463.124.934.185 1.415.185.977 0 1.818-.21 2.52-.625.705-.416 1.056-1.538 1.056-3.366v-1.54c-.24.675-.57 1.205-.993 1.592-.645.59-1.368.883-2.17.88-1.25 0-2.222-.44-2.92-1.32-.696-.886-1.045-2.13-1.045-3.728 0-1.594.35-2.83 1.046-3.71.697-.884 1.67-1.326 2.918-1.326.797 0 1.482.252 2.057.756.442.392.81.917 1.104 1.573v-2.093h.81v8.622m3.428-8.617h.81v9.844h-.81v-9.84m0-3.833h.81v1.107h-.81v-1.107m12.446 7.733v5.94h-.81v-5.888c0-1.277-.204-2.177-.614-2.698-.41-.522-1.014-.782-1.81-.782-.932 0-1.73.28-2.39.843-.67.57-1.003 1.556-1.003 2.962v5.564h-.806v-9.84h.81v1.845c.286-.598.664-1.055 1.133-1.37.69-.476 1.456-.713 2.294-.713.97 0 1.75.33 2.33.994.58.656.87 1.705.87 3.146m17.39.613v.51h-7.47c0 1.58.308 2.69.923 3.322.68.703 1.69 1.054 3.033 1.054.35 0 .817-.073 1.397-.225.586-.153 1.166-.38 1.74-.686v.852c-.58.247-1.174.434-1.784.563-.61.13-1.096.194-1.45.194-1.52 0-2.66-.41-3.43-1.23-.83-.875-1.25-2.155-1.25-3.843 0-1.752.38-3.058 1.144-3.92.78-.896 1.863-1.344 3.252-1.344 1.29 0 2.26.426 2.918 1.275.65.89.975 2.05.975 3.48m-.817-.175c0-1.384-.31-2.392-.932-3.025-.52-.562-1.23-.843-2.126-.843-.978 0-1.8.293-2.46.88-.61.543-.976 1.54-1.1 2.987h6.62m11.382-2.095v-6.082h.79v13.676h-.79v-2.23c-.37.856-.77 1.44-1.204 1.758-.662.486-1.287.73-1.872.73-1.166 0-2.136-.475-2.91-1.424-.773-.95-1.16-2.197-1.16-3.744 0-1.548.387-2.796 1.16-3.745.774-.95 1.744-1.424 2.91-1.424.586 0 1.21.245 1.872.73.433.318.835.904 1.204 1.76m-5.274-.748c-.68.687-1.02 1.83-1.02 3.43s.34 2.74 1.02 3.426c.674.686 1.386 1.03 2.136 1.03.732 0 1.44-.344 2.118-1.03.674-.685 1.01-1.828 1.01-3.427 0-1.6-.336-2.742-1.01-3.43-.68-.684-1.386-1.026-2.118-1.026-.75 0-1.462.342-2.136 1.028m9.518-1.505h.81v9.844h-.81v-9.84m0-3.833h.81v1.107h-.81v-1.107m5.863 1.035v2.795h3.33v.686h-3.33v5.915c0 .75.097 1.274.29 1.573.4.66.98.987 1.74.987h1.3v.686h-1.256c-.802 0-1.485-.234-2.047-.702-.563-.47-.844-1.315-.844-2.54v-5.914h-1.178v-.686h1.178v-2.796h.817m6.197 2.793h.808v9.844h-.81v-9.84m0-3.833h.81v1.107h-.81v-1.107m12.447 7.733v5.94h-.81v-5.888c0-1.277-.204-2.177-.614-2.698-.41-.522-1.01-.782-1.81-.782-.93 0-1.726.28-2.39.843-.666.57-1 1.556-1 2.962v5.564h-.81v-9.84h.81v1.845c.287-.598.665-1.055 1.134-1.37.69-.476 1.456-.713 2.294-.713.972 0 1.75.33 2.33.994.58.656.87 1.705.87 3.146m10.526.903c0-1.366-.278-2.423-.835-3.173-.554-.756-1.33-1.134-2.33-1.134-.99 0-1.766.378-2.32 1.134-.55.75-.828 1.807-.828 3.173 0 1.36.275 2.417.826 3.172.555.75 1.33 1.125 2.32 1.125 1 0 1.777-.375 2.33-1.125.555-.755.833-1.813.833-3.172m.81 3.814c0 2.042-.39 3.38-1.17 4.014-.78.633-1.766.95-2.96.95-.57 0-1.105-.042-1.61-.124-.503-.087-.99-.22-1.466-.395v-.922c.474.257.943.448 1.406.57.464.124.935.185 1.416.185.978 0 1.82-.21 2.522-.625.702-.416 1.054-1.538 1.054-3.366v-1.54c-.24.675-.57 1.205-.993 1.592-.646.59-1.37.883-2.17.88-1.25 0-2.22-.44-2.92-1.32-.697-.886-1.046-2.13-1.046-3.728 0-1.594.35-2.83 1.046-3.71.698-.884 1.67-1.326 2.92-1.326.796 0 1.48.252 2.056.756.445.392.814.917 1.107 1.573v-2.093h.81v8.622" style="line-height:150%;-inkscape-font-specification:'Open Sans Light, Light'" font-size="18" font-weight="300" letter-spacing="0" word-spacing="0" text-anchor="middle" color="#000" fill="#4d4d4d" overflow="visible" enable-background="accumulate" font-family="Open Sans Light"/><rect width="311" height="59" x="624.5" y="572.291" rx="2" ry="2" opacity=".5" fill="none" stroke="#4d4d4d"/><rect ry="2" rx="2" y="632.791" x="625" height="58" width="310" opacity=".01" fill="none" stroke="#586e75" stroke-width="2"/><path d="M685.374 584.584h1.86l4.525 8.538v-8.538h1.34v10.206h-1.86l-4.528-8.538v8.538h-1.34v-10.206m16.968 6.064v.615h-5.782c.054.866.314 1.527.78 1.982.468.452 1.12.677 1.954.677.483 0 .95-.06 1.4-.177.457-.12.908-.297 1.355-.534v1.19c-.45.194-.914.34-1.388.44-.477.1-.958.15-1.445.15-1.222 0-2.19-.355-2.905-1.066-.71-.71-1.066-1.672-1.066-2.885 0-1.254.337-2.247 1.012-2.98.68-.74 1.593-1.108 2.74-1.108 1.03 0 1.844.333 2.44 1 .603.66.904 1.56.904 2.7m-1.257-.37c-.01-.688-.203-1.238-.58-1.648-.375-.41-.87-.614-1.49-.614-.703 0-1.266.198-1.69.595-.42.397-.66.955-.724 1.676l4.48-.007m2.594-3.15h1.258l1.572 5.976 1.565-5.978h1.48l1.573 5.975 1.565-5.976h1.257l-2.003 7.657h-1.483l-1.648-6.275-1.654 6.275h-1.484l-2.003-7.656m22.836.004v7.656h-1.265v-6.678h-3.45v6.678h-1.264v-6.678h-1.203v-.978h1.204v-.533c0-.83.196-1.446.588-1.843.397-.4 1.003-.6 1.82-.6h1.263v1.045h-1.203c-.45 0-.765.09-.943.274-.173.182-.26.51-.26.984v.677h4.717m-1.266-2.967h1.266v1.593h-1.265v-1.592m3.905-.016h1.26v10.636h-1.26v-10.636m10.433 6.494v.615H733.8c.054.866.314 1.527.78 1.982.468.452 1.12.677 1.954.677.483 0 .95-.06 1.402-.177.455-.12.906-.297 1.353-.534v1.19c-.454.194-.917.34-1.39.44-.475.1-.955.15-1.44.15-1.224 0-2.19-.355-2.908-1.066-.71-.71-1.067-1.672-1.067-2.885 0-1.254.338-2.247 1.012-2.98.678-.74 1.592-1.108 2.74-1.108 1.03 0 1.844.333 2.44 1 .602.66.903 1.56.903 2.7m-1.257-.37c-.01-.688-.203-1.238-.58-1.648-.375-.41-.87-.614-1.49-.614-.703 0-1.266.198-1.69.595-.42.397-.66.955-.724 1.676l4.483-.007M693.017 609.37v1.457c-.465-.433-.962-.757-1.49-.97-.525-.215-1.083-.322-1.675-.322-1.167 0-2.06.357-2.68 1.073-.62.71-.93 1.74-.93 3.09 0 1.344.31 2.374.93 3.09.62.71 1.513 1.066 2.68 1.066.592 0 1.15-.107 1.674-.32.53-.216 1.026-.54 1.49-.972v1.442c-.482.328-.995.574-1.537.74-.54.163-1.11.245-1.71.245-1.547 0-2.764-.475-3.65-1.418-.89-.948-1.336-2.24-1.336-3.876 0-1.64.444-2.933 1.333-3.876.888-.947 2.105-1.42 3.65-1.42.61 0 1.184.08 1.722.245.542.16 1.05.4 1.524.724m6.53 2.94c-.14-.082-.295-.14-.464-.178-.164-.04-.346-.06-.547-.06-.71 0-1.258.23-1.64.696-.38.46-.568 1.123-.568 1.99v4.032h-1.264v-7.656h1.267v1.19c.265-.465.61-.81 1.032-1.033.423-.224.94-.34 1.544-.34.087 0 .183.01.287.02.105.01.22.027.35.05l.006 1.29m7.58 2.338v.615h-5.783c.054.866.314 1.527.78 1.982.468.452 1.12.677 1.954.677.483 0 .95-.06 1.402-.177.452-.12.903-.297 1.35-.534v1.19c-.45.194-.914.34-1.388.44-.474.1-.954.15-1.442.15-1.22 0-2.19-.355-2.904-1.066-.71-.71-1.067-1.672-1.067-2.885 0-1.254.336-2.247 1.01-2.98.68-.74 1.593-1.108 2.74-1.108 1.03 0 1.845.333 2.442 1 .6.66.902 1.56.902 2.7m-1.258-.37c-.01-.688-.203-1.238-.58-1.648-.375-.41-.87-.614-1.49-.614-.703 0-1.266.198-1.69.595-.42.397-.66.955-.724 1.676l4.484-.007m6.804.66c-1.016 0-1.72.115-2.112.347-.392.233-.588.63-.588 1.19 0 .446.146.802.437 1.066.296.26.697.39 1.203.39.698 0 1.256-.246 1.675-.738.424-.497.636-1.156.636-1.976v-.28h-1.25m2.51-.52v4.368h-1.26v-1.162c-.284.465-.642.81-1.07 1.033-.43.22-.953.33-1.573.33-.783 0-1.408-.22-1.873-.656-.46-.442-.69-1.032-.69-1.77 0-.86.287-1.51.86-1.948.58-.438 1.44-.657 2.585-.657h1.763v-.124c0-.578-.19-1.025-.573-1.34-.38-.32-.913-.478-1.6-.478-.438 0-.865.052-1.28.157-.415.105-.814.262-1.197.472v-1.162c.46-.178.907-.31 1.34-.397.433-.09.855-.136 1.265-.136 1.107 0 1.935.288 2.48.86.548.576.822 1.447.822 2.613m3.84-5.465v2.174h2.59v.978h-2.59v4.156c0 .624.085 1.025.253 1.203.174.18.522.27 1.046.27h1.29v1.05h-1.29c-.97 0-1.64-.18-2.01-.54-.37-.362-.556-1.023-.556-1.98v-4.156h-.923v-.978h.924v-2.174h1.265m10.8 5.686v.615h-5.782c.055.866.315 1.527.78 1.982.47.452 1.12.677 1.954.677.484 0 .95-.06 1.402-.177.456-.12.907-.297 1.353-.534v1.19c-.45.194-.913.34-1.387.44-.474.1-.955.15-1.443.15-1.22 0-2.19-.355-2.905-1.066-.71-.71-1.066-1.672-1.066-2.885 0-1.254.337-2.247 1.01-2.98.68-.74 1.594-1.108 2.743-1.108 1.026 0 1.84.333 2.44 1 .6.66.9 1.56.9 2.7m-1.26-.37c-.01-.688-.2-1.238-.58-1.648-.373-.41-.87-.614-1.49-.614-.702 0-1.264.198-1.69.595-.42.397-.66.955-.723 1.676l4.483-.007m11.262.66c-1.016 0-1.72.115-2.112.347-.392.233-.588.63-.588 1.19 0 .446.146.802.438 1.066.296.26.697.39 1.203.39.697 0 1.255-.246 1.674-.738.424-.497.636-1.156.636-1.976v-.28h-1.25m2.508-.52v4.368h-1.255v-1.162c-.287.465-.645.81-1.073 1.033-.427.22-.95.33-1.57.33-.785 0-1.41-.22-1.874-.656-.46-.442-.69-1.032-.69-1.77 0-.86.286-1.51.86-1.948.58-.438 1.44-.657 2.585-.657h1.764v-.124c0-.578-.19-1.025-.574-1.34-.38-.32-.912-.478-1.6-.478-.438 0-.864.052-1.28.157-.414.105-.812.262-1.195.472v-1.162c.46-.178.907-.31 1.34-.397.433-.09.854-.136 1.264-.136 1.106 0 1.933.288 2.48.86.547.576.82 1.447.82 2.613m13.418-.255v4.62h-1.258v-4.58c0-.724-.14-1.267-.424-1.627-.282-.36-.706-.54-1.27-.54-.68 0-1.216.217-1.608.65-.39.433-.587 1.023-.587 1.77v4.327h-1.265v-7.656h1.265v1.19c.3-.46.654-.805 1.06-1.033.41-.224.88-.34 1.414-.34.88 0 1.545.275 1.996.82.45.544.677 1.344.677 2.4m9.07.478v.615h-5.782c.055.866.315 1.527.78 1.982.47.452 1.12.677 1.954.677.484 0 .95-.06 1.402-.177.456-.12.907-.297 1.353-.534v1.19c-.45.194-.913.34-1.387.44-.474.1-.955.15-1.443.15-1.22 0-2.19-.355-2.905-1.066-.71-.71-1.066-1.672-1.066-2.885 0-1.254.337-2.247 1.01-2.98.68-.74 1.594-1.108 2.743-1.108 1.026 0 1.84.333 2.44 1 .6.66.9 1.56.9 2.7m-1.26-.37c-.01-.688-.2-1.238-.58-1.648-.373-.41-.87-.614-1.49-.614-.702 0-1.264.198-1.69.595-.42.397-.66.955-.723 1.676l4.483-.007m2.594-3.15h1.258l1.572 5.976 1.566-5.978h1.483l1.572 5.975 1.566-5.976h1.26l-2.002 7.657h-1.484l-1.647-6.275-1.654 6.275h-1.483l-2.004-7.656m23.194 3.518v.615h-5.785c.055.866.315 1.527.78 1.982.47.452 1.12.677 1.955.677.483 0 .95-.06 1.4-.177.457-.12.908-.297 1.355-.534v1.19c-.45.194-.914.34-1.388.44-.474.1-.955.15-1.442.15-1.222 0-2.19-.355-2.906-1.066-.714-.71-1.07-1.672-1.07-2.885 0-1.254.338-2.247 1.013-2.98.68-.74 1.592-1.108 2.74-1.108 1.03 0 1.844.333 2.44 1 .603.66.904 1.56.904 2.7m-1.26-.37c-.008-.688-.202-1.238-.58-1.648-.374-.41-.87-.614-1.49-.614-.702 0-1.265.198-1.69.595-.418.397-.66.955-.724 1.676l4.485-.007m9.286-1.68c.314-.564.69-.98 1.128-1.25.437-.27.952-.403 1.545-.403.797 0 1.413.28 1.846.84.433.556.65 1.35.65 2.38v4.62h-1.266v-4.58c0-.733-.13-1.278-.39-1.633-.26-.356-.656-.534-1.19-.534-.65 0-1.165.217-1.544.65-.378.433-.567 1.023-.567 1.77v4.327h-1.265v-4.58c0-.738-.13-1.283-.386-1.633-.26-.356-.66-.534-1.203-.534-.643 0-1.153.22-1.532.657-.378.433-.567 1.02-.567 1.763v4.327h-1.264v-7.656h1.265v1.19c.288-.47.63-.816 1.033-1.04.4-.223.877-.334 1.43-.334.555 0 1.026.14 1.414.423.392.283.68.693.868 1.23m8.9 5.04v4.06h-1.265v-10.57h1.264v1.163c.265-.455.597-.793.998-1.01.406-.225.89-.336 1.45-.336.93 0 1.684.37 2.262 1.107.584.738.875 1.71.875 2.912s-.294 2.17-.878 2.91c-.578.74-1.333 1.11-2.262 1.11-.56 0-1.043-.11-1.45-.33-.4-.225-.732-.564-.997-1.02m4.28-2.673c0-.926-.192-1.65-.575-2.175-.38-.528-.9-.793-1.566-.793-.665 0-1.19.264-1.572.792-.378.524-.568 1.25-.568 2.174 0 .924.19 1.65.568 2.18.383.524.907.786 1.572.786s1.187-.262 1.565-.786c.382-.53.574-1.256.574-2.18m4.638-6.006v2.174h2.59v.978h-2.59v4.156c0 .624.085 1.025.253 1.203.177.18.525.27 1.05.27h1.29v1.05h-1.292c-.97 0-1.64-.18-2.01-.54-.37-.362-.553-1.023-.553-1.98v-4.156H813v-.978h.924v-2.174h1.264m7.438 10.538c-.355.913-.702 1.508-1.04 1.786-.336.278-.788.417-1.353.417h-1.004v-1.053h.735c.346 0 .615-.082.806-.246.193-.164.405-.552.637-1.162l.225-.575-3.097-7.533h1.333l2.393 5.988 2.393-5.988h1.333l-3.364 8.367m15.748-8.366v7.656h-1.266v-6.678h-3.452v6.678h-1.264v-6.678h-1.203v-.978h1.203v-.533c0-.83.196-1.446.588-1.843.396-.4 1.002-.6 1.818-.6h1.265v1.045h-1.207c-.45 0-.765.09-.943.274-.172.182-.26.51-.26.984v.677h4.718m-1.266-2.967h1.265v1.593H837.1v-1.592m3.915-.016h1.257v10.636h-1.257v-10.636m10.43 6.494v.615h-5.782c.055.866.315 1.527.78 1.982.47.452 1.12.677 1.954.677.484 0 .95-.06 1.402-.177.453-.12.904-.297 1.35-.534v1.19c-.45.194-.913.34-1.387.44-.474.1-.955.15-1.443.15-1.22 0-2.19-.355-2.904-1.066-.71-.71-1.066-1.672-1.066-2.885 0-1.254.338-2.247 1.012-2.98.68-.74 1.593-1.108 2.742-1.108 1.03 0 1.843.333 2.44 1 .602.66.902 1.56.902 2.7m-1.258-.37c-.01-.688-.202-1.238-.58-1.648-.374-.41-.87-.614-1.49-.614-.703 0-1.265.198-1.69.595-.42.397-.66.955-.724 1.676l4.484-.007M689.517 645.52c-1.003 0-1.8.375-2.393 1.122-.588.747-.882 1.766-.882 3.056 0 1.285.294 2.3.882 3.048.592.748 1.39 1.122 2.393 1.122 1.002 0 1.795-.374 2.38-1.122.586-.747.88-1.763.88-3.048 0-1.29-.294-2.31-.88-3.056-.585-.747-1.378-1.12-2.38-1.12m0-1.122c1.43 0 2.574.48 3.43 1.442.858.957 1.286 2.242 1.286 3.856 0 1.608-.428 2.894-1.285 3.855-.857.957-2 1.436-3.43 1.436-1.437 0-2.585-.48-3.447-1.44-.853-.956-1.282-2.24-1.282-3.854 0-1.614.43-2.9 1.285-3.856.863-.96 2.01-1.44 3.447-1.44m8.036 9.242v4.06h-1.265v-10.568h1.268v1.162c.264-.455.597-.793.998-1.01.405-.225.888-.336 1.45-.336.93 0 1.683.37 2.262 1.107.583.738.875 1.71.875 2.912s-.29 2.17-.874 2.91c-.58.74-1.334 1.11-2.264 1.11-.56 0-1.044-.11-1.45-.33-.4-.225-.733-.564-.997-1.02m4.28-2.673c0-.926-.193-1.65-.576-2.175-.378-.528-.9-.793-1.565-.793-.666 0-1.19.264-1.573.792-.378.524-.567 1.25-.567 2.174 0 .924.19 1.65.566 2.18.383.524.907.786 1.572.786.666 0 1.187-.262 1.566-.786.384-.53.575-1.256.575-2.18m9.934-.318v.615h-5.783c.058.866.318 1.527.78 1.982.47.452 1.124.677 1.958.677.483 0 .95-.06 1.4-.177.457-.12.908-.297 1.354-.534v1.19c-.45.194-.912.34-1.386.44-.474.1-.955.15-1.443.15-1.22 0-2.19-.355-2.904-1.066-.71-.71-1.067-1.672-1.067-2.885 0-1.254.336-2.247 1.01-2.98.68-.74 1.593-1.108 2.742-1.108 1.03 0 1.843.333 2.44 1 .602.66.902 1.56.902 2.7m-1.257-.37c-.01-.688-.203-1.238-.58-1.648-.375-.41-.872-.614-1.492-.614-.702 0-1.264.198-1.688.595-.42.397-.66.955-.725 1.676l4.485-.007m9.683-.113v4.62h-1.258v-4.58c0-.724-.14-1.267-.424-1.627-.28-.36-.703-.54-1.27-.54-.68 0-1.213.217-1.604.65-.392.433-.588 1.023-.588 1.77v4.327h-1.265v-7.656h1.266v1.19c.3-.46.653-.805 1.06-1.033.41-.224.88-.34 1.413-.34.88 0 1.545.275 1.996.82.45.544.676 1.344.676 2.4m13.164-3.036v7.656h-1.266v-6.678h-3.452v6.678h-1.264v-6.678h-1.203v-.978h1.203v-.533c0-.83.196-1.446.588-1.843.396-.4 1.002-.6 1.818-.6h1.265v1.045h-1.207c-.45 0-.765.09-.943.274-.172.182-.26.51-.26.984v.677h4.718m-1.266-2.967h1.265v1.593H732.1v-1.592m3.915-.016h1.257v10.636h-1.257v-10.636m10.43 6.494v.615h-5.782c.055.866.315 1.527.78 1.982.47.452 1.12.677 1.954.677.484 0 .95-.06 1.402-.177.453-.12.904-.297 1.35-.534v1.19c-.45.194-.913.34-1.387.44-.474.1-.955.15-1.443.15-1.22 0-2.19-.355-2.904-1.066-.71-.71-1.066-1.672-1.066-2.885 0-1.254.338-2.247 1.012-2.98.68-.74 1.593-1.108 2.742-1.108 1.03 0 1.843.333 2.44 1 .602.66.902 1.56.902 2.7m-1.258-.37c-.01-.688-.202-1.238-.58-1.648-.374-.41-.87-.614-1.49-.614-.703 0-1.265.198-1.69.595-.42.397-.66.955-.724 1.676l4.484-.007M689.517 669.52c-1.003 0-1.8.375-2.393 1.122-.588.747-.882 1.766-.882 3.056 0 1.285.294 2.3.882 3.048.592.748 1.39 1.122 2.393 1.122 1.002 0 1.795-.374 2.38-1.122.586-.747.88-1.763.88-3.048 0-1.29-.294-2.31-.88-3.056-.585-.747-1.378-1.12-2.38-1.12m0-1.122c1.43 0 2.574.48 3.43 1.442.858.957 1.286 2.242 1.286 3.856 0 1.608-.428 2.894-1.285 3.855-.857.957-2 1.436-3.43 1.436-1.437 0-2.585-.48-3.447-1.44-.853-.956-1.282-2.24-1.282-3.854 0-1.614.43-2.9 1.285-3.856.863-.96 2.01-1.44 3.447-1.44m8.036 9.242v4.06h-1.265v-10.568h1.268v1.162c.264-.455.597-.793.998-1.01.405-.225.888-.336 1.45-.336.93 0 1.683.37 2.262 1.107.583.738.875 1.71.875 2.912s-.29 2.17-.874 2.91c-.58.74-1.334 1.11-2.264 1.11-.56 0-1.044-.11-1.45-.33-.4-.225-.733-.564-.997-1.02m4.28-2.673c0-.926-.193-1.65-.576-2.175-.378-.528-.9-.793-1.565-.793-.666 0-1.19.264-1.573.792-.378.524-.567 1.25-.567 2.174 0 .924.19 1.65.566 2.18.383.524.907.786 1.572.786.666 0 1.187-.262 1.566-.786.384-.53.575-1.256.575-2.18m9.934-.318v.615h-5.783c.058.866.318 1.527.78 1.982.47.452 1.124.677 1.958.677.483 0 .95-.06 1.4-.177.457-.12.908-.297 1.354-.534v1.19c-.45.194-.912.34-1.386.44-.474.1-.955.15-1.443.15-1.22 0-2.19-.355-2.904-1.066-.71-.71-1.067-1.672-1.067-2.885 0-1.254.336-2.247 1.01-2.98.68-.74 1.593-1.108 2.742-1.108 1.03 0 1.843.333 2.44 1 .602.66.902 1.56.902 2.7m-1.257-.37c-.01-.688-.203-1.238-.58-1.648-.375-.41-.872-.614-1.492-.614-.702 0-1.264.198-1.688.595-.42.397-.66.955-.725 1.676l4.485-.007m9.683-.113v4.62h-1.258v-4.58c0-.724-.14-1.267-.424-1.627-.28-.36-.703-.54-1.27-.54-.68 0-1.213.217-1.604.65-.392.433-.588 1.023-.588 1.77v4.327h-1.265v-7.656h1.266v1.19c.3-.46.653-.805 1.06-1.033.41-.224.88-.34 1.413-.34.88 0 1.545.275 1.996.82.45.544.676 1.344.676 2.4m10.456.772c-1.016 0-1.72.116-2.112.348-.392.233-.588.63-.588 1.19 0 .446.146.802.437 1.066.294.26.695.39 1.2.39.698 0 1.256-.246 1.675-.738.424-.497.636-1.156.636-1.976v-.28h-1.25m2.51-.52v4.368h-1.258v-1.162c-.287.465-.645.81-1.073 1.033-.43.22-.954.33-1.573.33-.784 0-1.41-.22-1.873-.656-.46-.442-.69-1.032-.69-1.77 0-.86.286-1.51.86-1.948.58-.438 1.44-.657 2.584-.657h1.762v-.124c0-.578-.19-1.025-.574-1.34-.38-.32-.913-.478-1.6-.478-.438 0-.864.052-1.28.157-.414.105-.813.262-1.195.472v-1.162c.46-.178.908-.31 1.34-.397.433-.09.855-.136 1.265-.136 1.107 0 1.934.288 2.48.86.547.576.82 1.447.82 2.613m11.94-3.065v1.19c-.354-.183-.723-.32-1.106-.41-.386-.092-.78-.138-1.19-.138-.627 0-1.096.096-1.41.287-.31.19-.465.476-.465.86 0 .29.11.52.334.69.224.163.673.32 1.347.47l.43.097c.894.19 1.528.46 1.9.812.38.345.57.83.57 1.455 0 .71-.284 1.274-.85 1.69-.56.413-1.332.62-2.316.62-.41 0-.84-.04-1.285-.122-.442-.078-.91-.196-1.4-.356v-1.3c.464.243.922.425 1.373.548.45.12.896.178 1.34.178.59 0 1.046-.1 1.365-.3.32-.206.48-.493.48-.862 0-.34-.118-.603-.35-.785-.228-.183-.73-.358-1.51-.527l-.438-.1c-.78-.166-1.342-.417-1.69-.754-.345-.342-.518-.81-.518-1.402 0-.72.254-1.276.764-1.668.51-.39 1.236-.587 2.175-.587.464 0 .902.033 1.312.1.41.07.788.17 1.134.31m5.906 3.585c-1.016 0-1.72.116-2.112.348-.392.233-.588.63-.588 1.19 0 .446.145.802.437 1.066.296.26.697.39 1.203.39.698 0 1.256-.246 1.675-.738.427-.497.64-1.156.64-1.976v-.28h-1.25m2.507-.52v4.368h-1.258v-1.162c-.288.465-.646.81-1.074 1.033-.43.22-.953.33-1.573.33-.783 0-1.407-.22-1.872-.656-.46-.442-.69-1.032-.69-1.77 0-.86.288-1.51.86-1.948.58-.438 1.44-.657 2.586-.657h1.764v-.124c0-.578-.193-1.025-.575-1.34-.38-.32-.912-.478-1.6-.478-.438 0-.864.052-1.278.157-.415.105-.814.262-1.197.472v-1.162c.46-.178.907-.31 1.34-.397.433-.09.855-.136 1.265-.136 1.107 0 1.934.288 2.48.86.548.576.822 1.447.822 2.613m1.693-3.29h1.333l2.393 6.425 2.392-6.426h1.333l-2.87 7.656h-1.71l-2.87-7.656m15.736 3.514v.615h-5.783c.055.866.315 1.527.78 1.982.47.452 1.12.677 1.954.677.484 0 .95-.06 1.402-.177.453-.12.904-.297 1.35-.534v1.19c-.45.194-.913.34-1.387.44-.474.1-.955.15-1.443.15-1.22 0-2.19-.355-2.904-1.066-.71-.71-1.066-1.672-1.066-2.885 0-1.254.338-2.247 1.012-2.98.68-.74 1.593-1.108 2.742-1.108 1.03 0 1.843.333 2.44 1 .602.66.902 1.56.902 2.7m-1.258-.37c-.01-.688-.202-1.238-.58-1.648-.374-.41-.87-.614-1.49-.614-.703 0-1.265.198-1.69.595-.42.397-.66.955-.724 1.676l4.484-.007m8.362-1.987v-4.142h1.257v10.636h-1.258v-1.148c-.268.456-.6.795-1.008 1.02-.4.217-.884.327-1.45.327-.924 0-1.68-.37-2.262-1.11-.58-.74-.867-1.71-.867-2.91 0-1.206.29-2.177.868-2.915.585-.738 1.34-1.107 2.265-1.107.565 0 1.048.11 1.45.334.405.218.74.556 1.004 1.01m-4.288 2.674c0 .924.19 1.65.568 2.18.383.524.907.786 1.572.786.666 0 1.19-.262 1.573-.786.382-.53.574-1.256.574-2.18 0-.926-.194-1.65-.576-2.175-.383-.527-.907-.792-1.573-.792-.665 0-1.19.265-1.572.793-.378.525-.567 1.25-.567 2.175m18.78-3.83v7.655h-1.264v-6.678h-3.452v6.678h-1.264v-6.678h-1.204v-.978h1.204v-.533c0-.83.196-1.446.587-1.843.397-.4 1.003-.6 1.82-.6h1.263v1.045h-1.203c-.45 0-.765.09-.943.274-.173.182-.26.51-.26.984v.677h4.717m-1.262-2.967h1.265v1.593h-1.264v-1.592m3.907-.016h1.257v10.636h-1.257v-10.636m10.43 6.494v.615h-5.782c.055.866.314 1.527.78 1.982.47.452 1.12.677 1.954.677.48 0 .95-.06 1.4-.177.454-.12.906-.297 1.352-.534v1.19c-.45.194-.914.34-1.387.44-.474.1-.955.15-1.443.15-1.22 0-2.19-.355-2.905-1.066-.712-.71-1.068-1.672-1.068-2.885 0-1.254.337-2.247 1.01-2.98.68-.74 1.594-1.108 2.74-1.108 1.03 0 1.846.333 2.443 1 .6.66.902 1.56.902 2.7m-1.258-.37c-.01-.688-.202-1.238-.58-1.648-.374-.41-.87-.614-1.49-.614-.703 0-1.266.198-1.69.595-.42.397-.66.955-.724 1.676l4.484-.007" style="line-height:150%;-inkscape-font-specification:Open Sans" font-size="14" letter-spacing="0" word-spacing="0" color="#000" fill="#4d4d4d" overflow="visible" enable-background="accumulate" font-family="Open Sans"/><path opacity=".15" fill="url(#aU)" overflow="visible" d="M4.95 29h22.1v2H4.95z" transform="translate(638 586.791)"/><path d="M4.95 29v2c-.807.004-1.95-.448-1.95-1s.9-1 1.95-1z" opacity=".15" fill="url(#aV)" overflow="visible" transform="translate(638 586.791)"/><path d="M27.05 29v2c.807.004 1.95-.448 1.95-1s-.9-1-1.95-1z" opacity=".15" fill="url(#aW)" overflow="visible" transform="translate(638 586.791)"/><path d="M4.5.5l23 .002V29.5h-23V.5z" fill="url(#aX)" stroke="url(#aY)" stroke-linejoin="round" transform="translate(638 586.791)"/><path d="M26.5 28.5h-21v-27h21z" fill="none" stroke="url(#aZ)" stroke-linecap="round" stroke-linejoin="round" transform="translate(638 586.791)"/><path d="M21.5 21.5v-4.02h5v4.02h4.007v5H26.5v4.007h-5V26.5h-4.007v-5H21.5z" color="#000" fill="url(#ba)" stroke="url(#bb)" stroke-width=".985" stroke-linecap="round" stroke-linejoin="round" overflow="visible" enable-background="accumulate" transform="translate(638 586.791)"/><path d="M22.5 22.5v-4h3v4h4.02v3H25.5v4h-3v-4h-4v-3h4z" opacity=".5" fill="none" stroke="url(#bc)" transform="translate(638 586.791)"/><path d="M4 6.5c-.433.005-.5.217-.5.635V8.5c-1.246 0-1-.002-1 .544V18.5l27-1.36V9.044c0-.418-.348-.55-.78-.544H14.5V7.135c0-.418-.264-.64-.698-.635z" opacity=".8" color="#000" fill="none" stroke="url(#bd)" overflow="visible" enable-background="accumulate" transform="translate(638 643.791)"/><path d="M4 7v2H3v6h26V9H14V7z" color="#000" fill="url(#be)" overflow="visible" enable-background="accumulate" transform="translate(638 643.791)"/><path d="M4.5 7.5v2h-1v6h25v-6h-15v-2z" color="#000" fill="none" stroke="url(#bf)" stroke-linecap="round" overflow="visible" enable-background="accumulate" transform="translate(638 643.791)"/><path opacity=".3" fill="url(#bg)" overflow="visible" d="M3.647 28.135h24.695V32H3.647z" transform="translate(638 643.791) translate(0 -1)"/><path d="M28.342 28.135V32c1.02.007 2.47-.866 2.47-1.933 0-1.067-1.14-1.932-2.47-1.932z" opacity=".3" fill="url(#bh)" overflow="visible" transform="translate(638 643.791) translate(0 -1)"/><path d="M3.647 28.135V32c-1.02.007-2.47-.866-2.47-1.933 0-1.067 1.14-1.932 2.47-1.932z" opacity=".3" fill="url(#bi)" overflow="visible" transform="translate(638 643.791) translate(0 -1)"/><path d="M.926 14.42c-.69.068-.322.76-.377 1.15.08.253 1.596 13.237 1.596 13.683 0 .387.226.322.8.322h26.398c.62.012.488.006.488-.328.045-.17 1.64-14.298 1.662-14.52 0-.236.058-.306-.305-.306H.926z" color="#000" fill="url(#bj)" stroke-width=".918" overflow="visible" enable-background="accumulate" transform="translate(638 643.791)"/><path d="M.682 14h30.636c.414 0 .682.246.682.552l-1.673 14.915c.01.387-.137.54-.617.533l-27.257-.01c-.413 0-.83-.23-.83-.534L0 14.552C0 14.246.268 14 .682 14z" opacity=".4" fill="url(#bk)" transform="translate(638 643.791)"/><path d="M1.5 15.412l1.625 13.176h25.75L30.5 15.412z" opacity=".5" color="#000" fill="none" stroke="url(#bl)" stroke-width=".907" stroke-linecap="round" overflow="visible" enable-background="accumulate" transform="translate(638 643.791)"/><path d="M638.926 658.212c-.69.067-.322.76-.377 1.15.08.252 1.596 13.236 1.596 13.682 0 .387.226.322.8.322h26.398c.62.012.488.006.488-.328.045-.17 1.64-14.298 1.662-14.52 0-.236.058-.306-.305-.306h-30.265z" opacity=".3" color="#000" fill="none" stroke="#000" stroke-width=".918" stroke-linecap="round" stroke-linejoin="round" overflow="visible" enable-background="accumulate"/></g></svg>