<?xml version="1.0" encoding="UTF-8" standalone="no"?>
<svg
   xmlns:dc="http://purl.org/dc/elements/1.1/"
   xmlns:cc="http://creativecommons.org/ns#"
   xmlns:rdf="http://www.w3.org/1999/02/22-rdf-syntax-ns#"
   xmlns:svg="http://www.w3.org/2000/svg"
   xmlns="http://www.w3.org/2000/svg"
   version="1.1"
   id="svg3168"
   height="32.000019"
   width="32">
  <defs
     id="defs3170" />
  <metadata
     id="metadata3173">
    <rdf:RDF>
      <cc:Work
         rdf:about="">
        <dc:format>image/svg+xml</dc:format>
        <dc:type
           rdf:resource="http://purl.org/dc/dcmitype/StillImage" />
        <dc:title></dc:title>
      </cc:Work>
    </rdf:RDF>
  </metadata>
  <g
     transform="translate(-78.58618,-719.88119)"
     id="layer1">
    <path
       id="path3204"
       d="m 94.58618,719.88119 c -8.836651,0 -16,7.16335 -16,16 l 0,15.98522 3.714187,0 0,-3.71234 0,-4.94978 0,-7.3231 c 0,-6.7849 5.50091,-12.28581 12.285813,-12.28581 6.78491,0 12.28581,5.50091 12.28581,12.28581 0,6.59407 -5.19632,11.97354 -11.716954,12.27104 -2.071798,-0.017 -3.838128,-0.3532 -4.611797,-0.82928 l 0,-5.28038 c 1.154674,0.75601 2.535729,1.19681 4.018931,1.19681 4.056821,0 7.34526,-3.28844 7.34526,-7.34526 0,-4.05682 -3.288439,-7.34711 -7.34526,-7.34711 -4.056821,0 -7.345262,3.29029 -7.345262,7.34711 l 0,15.97229 6.698835,0 c 0.22227,0.009 0.445915,0.0148 0.670437,0.0148 8.83665,0 16,-7.16335 16,-16 0,-8.83665 -7.16335,-16 -16,-16 z m -0.515295,28.27288 1.056447,0 c -0.179554,0.008 -0.35968,0.0129 -0.541152,0.0129 -0.172391,0 -0.344632,-0.006 -0.515295,-0.0129 z"
       style="fill:#000000;fill-opacity:1;stroke:none" />
  </g>
</svg>
