<?xml version="1.0" encoding="UTF-8" standalone="no"?>
<!-- Created with Inkscape (http://www.inkscape.org/) -->

<svg
   xmlns:dc="http://purl.org/dc/elements/1.1/"
   xmlns:cc="http://creativecommons.org/ns#"
   xmlns:rdf="http://www.w3.org/1999/02/22-rdf-syntax-ns#"
   xmlns:svg="http://www.w3.org/2000/svg"
   xmlns="http://www.w3.org/2000/svg"
   xmlns:sodipodi="http://sodipodi.sourceforge.net/DTD/sodipodi-0.dtd"
   xmlns:inkscape="http://www.inkscape.org/namespaces/inkscape"
   width="888"
   height="444"
   id="svg5721"
   version="1.1"
   inkscape:version="0.48.5 r10040"
   sodipodi:docname="Nouveau document 16">
  <defs
     id="defs5723" />
  <sodipodi:namedview
     id="base"
     pagecolor="#ffffff"
     bordercolor="#666666"
     borderopacity="1.0"
     inkscape:pageopacity="0.0"
     inkscape:pageshadow="2"
     inkscape:zoom="0.98994949"
     inkscape:cx="340.11561"
     inkscape:cy="205.91182"
     inkscape:document-units="px"
     inkscape:current-layer="layer1"
     showgrid="false"
     fit-margin-top="0"
     fit-margin-left="0"
     fit-margin-right="0"
     fit-margin-bottom="0"
     inkscape:window-width="1680"
     inkscape:window-height="984"
     inkscape:window-x="0"
     inkscape:window-y="27"
     inkscape:window-maximized="1" />
  <metadata
     id="metadata5726">
    <rdf:RDF>
      <cc:Work
         rdf:about="">
        <dc:format>image/svg+xml</dc:format>
        <dc:type
           rdf:resource="http://purl.org/dc/dcmitype/StillImage" />
        <dc:title></dc:title>
      </cc:Work>
    </rdf:RDF>
  </metadata>
  <g
     inkscape:label="Calque 1"
     inkscape:groupmode="layer"
     id="layer1"
     transform="translate(69,-310.36218)">
    <rect
       ry="2"
       rx="2"
       y="311.36218"
       x="-68"
       height="442"
       width="886"
       id="rect7354"
       style="opacity:0.5;fill:none;stroke:#c8d0d0;stroke-width:1.99999988;stroke-miterlimit:4;stroke-opacity:1;stroke-dasharray:none;display:inline" />
    <rect
       y="356.36218"
       x="-67"
       height="2"
       width="884"
       id="rect7356"
       style="opacity:0.25;fill:#c8d0d0;fill-opacity:1;fill-rule:nonzero;stroke:none;display:inline" />
    <g
       style="fill:#c8d0d0;fill-opacity:1;display:inline"
       transform="translate(-59,326.36218)"
       id="g7358">
      <path
         d="m 4.8814786,4.0082925 c -0.2252363,0 -0.4518548,0.077632 -0.6237043,0.2494817 -0.3436992,0.343699 -0.3436992,0.9037095 0,1.2474086 L 6.7525914,7.9999999 4.2577743,10.494817 c -0.3436989,0.3437 -0.3436989,0.903709 0,1.247409 0.3437,0.343698 0.9037086,0.343698 1.2474085,0 L 8,9.2474085 10.494817,11.742226 c 0.3437,0.343698 0.903709,0.343698 1.247409,0 0.343699,-0.3437 0.343699,-0.903709 0,-1.247409 L 9.2474085,7.9999999 11.742226,5.5051828 c 0.343699,-0.3436991 0.343699,-0.9037096 0,-1.2474086 -0.343699,-0.3436989 -0.90371,-0.3436989 -1.247409,0 L 8,6.7525914 5.5051828,4.2577742 C 5.3333333,4.0859246 5.1067148,4.0082925 4.8814786,4.0082925 z"
         inkscape:connector-curvature="0"
         id="path7360"
         style="color:#bebebe;fill:#c8d0d0;fill-opacity:1;fill-rule:nonzero;stroke:none;stroke-width:1;marker:none;visibility:visible;display:inline;overflow:visible;enable-background:accumulate" />
    </g>
    <g
       style="fill:#c8d0d0;fill-opacity:1;display:inline"
       transform="matrix(0.85714286,0,0,0.85714286,794.1429,327.50508)"
       id="g7362">
      <path
         d="m 8,1 2.625,2.59375 -2,2 C 8.60998,5.60877 8.607846,5.60943 8.59375,5.625 8.1497304,6.115672 8.1518649,6.870614 8.625,7.34375 c 0.4729002,0.4729 1.228059,0.505848 1.71875,0.0625 l 0.25,-0.25 L 12.40625,5.375 15,8 15,1 z m -7,7 0,7 7,0 -2.625,-2.625 2,-2 C 7.39002,10.35998 7.392154,10.35932 7.40625,10.34375 7.8502666,9.8530771 7.8481351,9.0981352 7.375,8.625 6.9020995,8.1520995 6.1156905,8.1191556 5.625,8.5625 l -0.21875,0.25 -1.8125,1.8125 z"
         inkscape:connector-curvature="0"
         id="path7364"
         style="color:#bebebe;fill:#c8d0d0;fill-opacity:1;fill-rule:nonzero;stroke:none;stroke-width:1;marker:none;visibility:visible;display:inline;overflow:visible;enable-background:accumulate" />
    </g>
    <path
       style="color:#bebebe;fill:#c8d0d0;fill-opacity:1;fill-rule:nonzero;stroke:none;stroke-width:1;marker:none;visibility:visible;display:inline;overflow:visible;enable-background:accumulate"
       id="rect3811-1"
       inkscape:connector-curvature="0"
       d="m -20.8125,326.33098 c -0.24579,-0.01 -0.47545,0.1004 -0.65625,0.2812 l -7.125,6.9688 c -0.14691,0.1469 -0.23868,0.3169 -0.28125,0.5 -0.0219,0.094 -0.0373,0.1874 -0.0312,0.2812 -0.002,0.03 -0.001,0.063 0,0.094 0.009,0.055 0.0118,0.104 0.0312,0.1563 0.0406,0.1888 0.13003,0.38 0.28125,0.5312 l 7.125,6.9688 c 0.3616,0.3616 0.95201,0.3292 1.34375,-0.062 l 1.40625,-1.4063 c 0.39173,-0.3917 0.4241,-1.0134 0.0625,-1.375 l -2.90625,-2.9062 6.5625,0 c 0.554,0 1,-0.446 1,-1 l 0,-2 c 0,-0.554 -0.446,-1 -1,-1 l -6.59375,0 2.9375,-2.9375 c 0.3616,-0.3616 0.32923,-0.952 -0.0625,-1.3438 l -1.40625,-1.4375 c -0.19587,-0.1958 -0.44172,-0.3026 -0.6875,-0.3125 z" />
    <path
       d="m 14.8125,326.33098 c 0.24579,-0.01 0.47545,0.1004 0.65625,0.2812 l 7.125,6.9688 c 0.14691,0.1469 0.23868,0.3169 0.28125,0.5 0.0219,0.094 0.0373,0.1874 0.0312,0.2812 0.002,0.03 0.001,0.063 0,0.094 -0.009,0.055 -0.0118,0.104 -0.0312,0.1563 -0.0406,0.1888 -0.13003,0.38 -0.28125,0.5312 l -7.125,6.9688 c -0.3616,0.3616 -0.95201,0.3292 -1.34375,-0.062 l -1.40625,-1.4063 c -0.39173,-0.3917 -0.4241,-1.0134 -0.0625,-1.375 l 2.90625,-2.9062 -6.5624999,0 c -0.554,0 -1,-0.446 -1,-1 l 0,-2 c 0,-0.554 0.446,-1 1,-1 l 6.5937499,0 -2.9375,-2.9375 c -0.3616,-0.3616 -0.32923,-0.952 0.0625,-1.3438 l 1.40625,-1.4375 c 0.19587,-0.1958 0.44172,-0.3026 0.6875,-0.3125 z"
       inkscape:connector-curvature="0"
       id="path7539"
       style="color:#bebebe;fill:#c8d0d0;fill-opacity:1;fill-rule:nonzero;stroke:none;stroke-width:1;marker:none;visibility:visible;display:inline;overflow:visible;enable-background:accumulate" />
    <rect
       style="opacity:0.5;fill:#c8d0d0;fill-opacity:0.1254902;stroke:#c8d0d0;stroke-width:2;stroke-miterlimit:4;stroke-opacity:1;stroke-dasharray:none;display:inline"
       id="rect7541"
       width="742"
       height="22"
       x="40"
       y="323.36218"
       rx="1.9999999"
       ry="1.9999999" />
    <path
       style="color:#bebebe;fill:#c8d0d0;fill-opacity:1;fill-rule:nonzero;stroke:none;stroke-width:1;marker:none;visibility:visible;display:inline;overflow:visible;enable-background:accumulate"
       id="path12810"
       inkscape:connector-curvature="0"
       d="m 771,326.36218 0,2 c -3.3137,0 -6,2.6863 -6,6 0,3.3137 2.6863,6 6,6 3.3137,0 6,-2.6863 6,-6 l -2,0 c 0,2.2091 -1.7909,4 -4,4 -2.2091,0 -4,-1.7909 -4,-4 0,-2.2091 1.7909,-4 4,-4 l 0,2 5,-3 -5,-3 z" />
    <g
       id="layer1-89"
       transform="translate(43,326.36218)"
       style="fill:#c8d0d0;fill-opacity:1;display:inline">
      <path
         style="color:#bebebe;fill:#c8d0d0;fill-opacity:1;fill-rule:nonzero;stroke:none;stroke-width:1;marker:none;visibility:visible;display:inline;overflow:visible;enable-background:accumulate"
         id="path6534"
         inkscape:connector-curvature="0"
         d="M 8,0 C 3.581722,0 0,3.581722 0,8 c 0,4.418278 3.581722,8 8,8 4.418278,0 8,-3.581722 8,-8 C 16,3.581722 12.418278,0 8,0 z M 8.5625,1.03125 C 9.8288346,1.1318575 10.981939,1.56508 11.96875,2.25 l -0.28125,-0.0625 -0.34375,-0.125 -0.5,0.125 -0.3125,0.21875 0,0.1875 L 10,2.9375 l 0.125,0.5 0.28125,-0.21875 0.1875,0.21875 0.21875,0.125 0.125,-0.375 L 10.875,2.96875 10.9375,2.8125 11.25,2.53125 l 0.125,0 -0.125,0.3125 0,0.28125 C 11.372979,3.09085 11.499148,3.07847 11.625,3.0625 L 11.28125,3.3125 11.25,3.46875 10.84375,3.8125 10.4375,3.71875 l 0,-0.25 -0.1875,0.125 0.09375,0.21875 -0.3125,0 L 9.875,4.09375 9.6875,4.3125 9.3125,4.375 9.53125,4.59375 9.59375,4.8125 9.3125,4.8125 8.96875,5 l 0,0.5625 0.15625,0 L 9.28125,5.71875 9.625,5.5625 9.75,5.21875 10,5.0625 l 0.03125,-0.125 0.40625,-0.09375 0.21875,0.25 0.25,0.125 L 10.75,5.5 l 0.21875,-0.0625 0.125,-0.28125 -0.28125,-0.3125 0.125,0 0.25,0.21875 0.0625,0.3125 0.21875,0.28125 0.0625,-0.40625 0.125,-0.0625 C 11.788583,5.327668 11.888544,5.4985 12,5.65625 L 12.4375,5.6875 12.65625,5.84375 12.5625,6 l -0.25,0.21875 -0.34375,0 L 11.5,6.0625 l -0.21875,0.03125 -0.1875,0.1875 -0.5,-0.5 L 10.25,5.6875 9.75,5.75 9.28125,5.875 C 9.0259385,6.170326 8.7729014,6.474542 8.53125,6.78125 L 8.25,7.5 8.375,7.625 8.125,8 8.40625,8.65625 c 0.2275857,0.26268 0.4602459,0.518385 0.6875,0.78125 l 0.34375,-0.28125 0.125,0.15625 0.375,-0.21875 0.125,0.125 0.34375,0 0.21875,0.25 -0.125,0.4375 0.25,0.28125 -0.03125,0.5 0.21875,0.375 -0.15625,0.3125 C 10.76792,11.602439 10.75,11.835024 10.75,12.0625 c 0.109688,0.308174 0.240174,0.595859 0.34375,0.90625 l 0.0625,0.5 0,0.25 0.1875,0 0.3125,-0.1875 0.34375,0 0.5,-0.59375 -0.0625,-0.21875 0.375,-0.3125 -0.28125,-0.28125 0.3125,-0.25 0.3125,-0.1875 0.125,-0.15625 -0.09375,-0.34375 0,-0.875 0.25,-0.53125 0.28125,-0.3125 0.34375,-0.8125 0,-0.21875 C 13.901651,8.45818 13.751139,8.48857 13.59375,8.5 l 0.3125,-0.34375 0.4375,-0.3125 0.25,-0.28125 0,-0.28125 C 14.54017,7.178163 14.491441,7.040587 14.4375,6.9375 L 14.21875,7.21875 14.0625,7 l -0.25,-0.1875 0,-0.375 0.28125,0.3125 0.3125,-0.03125 c 0.140211,0.129874 0.283271,0.227131 0.40625,0.375 l 0.09375,-0.125 C 14.956345,7.3066221 15,7.6481946 15,8 c 0,3.865993 -3.134007,7 -7,7 -1.1342792,0 -2.2086612,-0.271097 -3.15625,-0.75 0.051459,-0.03988 0.125,-0.09375 0.125,-0.09375 L 4.90625,14.03125 5.125,13.8125 5.1875,13.59375 5.53125,13.5 5.78125,12.8125 5.71875,12.65625 5.875,12.375 6.28125,12.28125 6.46875,11.8125 6.4375,11.1875 6.75,10.75 6.78125,10.3125 C 6.3548156,10.09675 5.954505,9.878395 5.53125,9.65625 L 5.3125,9.21875 4.9375,9.125 4.71875,8.5625 4.21875,8.625 3.75,8.28125 l -0.46875,0.4375 0,0.0625 C 3.1397511,8.739582 2.9697439,8.735292 2.84375,8.65625 L 2.75,8.34375 2.75,8.03125 2.4375,8.0625 C 2.463514,7.852424 2.505061,7.616289 2.53125,7.40625 l -0.1875,0 -0.1875,0.25 L 1.96875,7.75 1.71875,7.59375 1.6875,7.28125 1.71875,6.90625 2.125,6.625 2.4375,6.625 2.5,6.4375 2.875,6.53125 3.15625,6.875 3.21875,6.28125 3.71875,5.875 3.875,5.40625 4.25,5.25 4.46875,4.96875 4.9375,4.875 5.15625,4.5 l -0.6875,0 0.4375,-0.1875 0.3125,0 L 5.625,4.15625 5.6875,4.5625 5.875,4.28125 5.65625,4.125 5.71875,3.96875 5.5625,3.8125 5.375,3.78125 5.4375,3.59375 5.28125,3.3125 4.96875,3.4375 5.03125,3.1875 4.65625,2.96875 4.375,3.5 4.40625,3.65625 4.125,3.78125 3.9375,4.1875 3.875,3.8125 3.375,3.625 3.28125,3.34375 3.9375,2.96875 4.21875,2.6875 4.25,2.34375 4.09375,2.25 l -0.0625,0 C 4.2587403,2.0921048 4.4727365,1.9430103 4.71875,1.8125 l 0,0.09375 -0.21875,0.1875 -0.15625,0.375 0.3125,0 0.09375,-0.25 0.03125,-0.0625 C 4.9069727,2.065532 5.028199,1.96232 5.15625,1.875 l 0.3125,0.09375 C 5.6630105,2.103411 5.8368285,2.240542 6.03125,2.375 L 6.34375,2.09375 6,1.96875 5.875,1.65625 5.3125,1.59375 l 0,-0.03125 0,-0.03125 c 0.00905,-0.00377 0.022179,0.00373 0.03125,0 L 5.53125,1.59375 5.6875,1.4375 5.96875,1.375 C 6.039363,1.33996 6.1162225,1.30977 6.1875,1.28125 L 6,1.46875 6.65625,1.9375 l 0,0.28125 L 6.40625,2.5 6.75,3.1875 7,3.0625 7.28125,2.59375 C 7.7007355,2.461422 8.104073,2.308025 8.5,2.125 L 8.46875,2.3125 8.65625,2.4375 9,2.1875 8.84375,2 8.59375,2.125 8.5625,2.09375 8.90625,1.15625 z M 4.75,2.21875 5.03125,2.4375 l 0.25,0 0,-0.25 L 5,2.0625 z M 3.8125,2.40625 3.75,2.5625 c 0,0 -0.1027341,0.014953 -0.1875,0.03125 0.080768,-0.066656 0.1662507,-0.1244571 0.25,-0.1875 z M 12.25,2.4375 c 0.06485,0.049824 0.124471,0.1042336 0.1875,0.15625 L 12.1875,2.875 11.84375,2.5 l 0.34375,0 z m -3.03125,0.40625 0,0.1875 0.125,0.15625 0,0.28125 L 9.28125,3.875 9.59375,3.8125 9.84375,3.59375 9.625,3.375 C 9.556461,3.18878 9.4920315,3.022357 9.40625,2.84375 z M 8.9375,3.25 8.75,3.3125 8.78125,3.6875 9.0625,3.53125 z m 3.65625,3.34375 0.28125,0.34375 0.375,0.78125 0.21875,0.25 -0.125,0.28125 0.21875,0.25 c -0.09128,0.0061 -0.187428,0 -0.28125,0 C 13.110809,8.134572 12.973543,7.757297 12.84375,7.375 L 12.625,7.125 12.5,6.65625 z M 1.03125,7.5 C 1.0729857,7.6004243 1.25,7.90625 1.25,7.90625 L 1.78125,8.21875 2.34375,8.375 2.5625,8.6875 2.9375,8.96875 3.125,8.90625 3.28125,9 l 0,0.03125 -0.1875,0.59375 -0.15625,0.21875 0.03125,0.125 -0.125,0.46875 0.46875,0.84375 0.46875,0.4375 L 4,12 3.96875,12.65625 4.125,13 3.96875,13.6875 c 0,0 0.00249,0.0238 0,0.03125 C 2.1796562,12.450692 1,10.359796 1,8 1,7.8317746 1.0195795,7.6652555 1.03125,7.5 z" />
    </g>
  </g>
</svg>
