<?xml version="1.0" encoding="UTF-8" standalone="no"?>
<svg
   xmlns:dc="http://purl.org/dc/elements/1.1/"
   xmlns:cc="http://creativecommons.org/ns#"
   xmlns:rdf="http://www.w3.org/1999/02/22-rdf-syntax-ns#"
   xmlns:svg="http://www.w3.org/2000/svg"
   xmlns="http://www.w3.org/2000/svg"
   xmlns:sodipodi="http://sodipodi.sourceforge.net/DTD/sodipodi-0.dtd"
   xmlns:inkscape="http://www.inkscape.org/namespaces/inkscape"
   width="456"
   height="46"
   id="svg2"
   version="1.1"
   preserveAspectRatio="none"
   inkscape:version="0.91 r13725"
   sodipodi:docname="web-development-mobile.svg">
  <sodipodi:namedview
     pagecolor="#ffffff"
     bordercolor="#666666"
     borderopacity="1"
     objecttolerance="10"
     gridtolerance="10"
     guidetolerance="10"
     inkscape:pageopacity="0"
     inkscape:pageshadow="2"
     inkscape:window-width="1838"
     inkscape:window-height="458"
     id="namedview4288"
     showgrid="false"
     inkscape:zoom="2.997807"
     inkscape:cx="228"
     inkscape:cy="23"
     inkscape:window-x="1720"
     inkscape:window-y="120"
     inkscape:window-maximized="0"
     inkscape:current-layer="svg2" />
  <metadata
     id="metadata34">
    <rdf:RDF>
      <cc:Work
         rdf:about="">
        <dc:format>image/svg+xml</dc:format>
        <dc:type
           rdf:resource="http://purl.org/dc/dcmitype/StillImage" />
        <dc:title />
      </cc:Work>
    </rdf:RDF>
  </metadata>
  <defs
     id="defs32" />
  <path
     style="opacity:0.25;fill:#586e75;fill-opacity:1"
     id="path8"
     d="m 0,44 456,0 0,2 -456,0 z" />
  <g
     transform="translate(69,-312.362)"
     style="fill:#586e75;fill-opacity:1;opacity:0.5"
     id="g10">
    <path
       style="color:#bebebe;overflow:visible;enable-background:accumulate;fill:#586e75;fill-opacity:1"
       id="path12"
       overflow="visible"
       d="m -54.12,330.37 c -0.224,0 -0.45,0.078 -0.622,0.25 -0.344,0.344 -0.344,0.904 0,1.247 l 2.495,2.495 -2.495,2.495 c -0.344,0.344 -0.344,0.904 0,1.247 0.343,0.344 0.903,0.344 1.247,0 l 2.495,-2.494 2.495,2.494 c 0.344,0.344 0.904,0.344 1.247,0 0.344,-0.343 0.344,-0.903 0,-1.247 l -2.495,-2.495 2.495,-2.495 c 0.344,-0.343 0.344,-0.903 0,-1.247 -0.343,-0.344 -0.903,-0.344 -1.247,0 l -2.495,2.495 -2.495,-2.495 c -0.172,-0.172 -0.398,-0.25 -0.624,-0.25 z" />
  </g>
  <g
     transform="translate(-363,-312.362)"
     style="fill:#586e75;fill-opacity:1;opacity:0.5"
     id="g14">
    <path
       style="color:#bebebe;overflow:visible;enable-background:accumulate;fill:#586e75;fill-opacity:1"
       id="path16"
       overflow="visible"
       d="m 801,328.362 2.25,2.223 -1.714,1.715 c -0.013,0.013 -0.015,0.013 -0.027,0.027 -0.382,0.42 -0.38,1.067 0.026,1.473 0.405,0.405 1.052,0.433 1.473,0.053 l 0.213,-0.214 1.554,-1.528 2.223,2.25 0,-6 z m -6,6 0,6 6,0 -2.25,-2.25 1.714,-1.714 0.027,-0.027 c 0.382,-0.42 0.38,-1.067 -0.026,-1.472 -0.405,-0.405 -1.08,-0.434 -1.5,-0.054 l -0.187,0.215 -1.554,1.552 z" />
  </g>
  <path
     style="color:#bebebe;overflow:visible;fill:#586e75;enable-background:accumulate;fill-opacity:1;opacity:0.5"
     id="path18"
     overflow="visible"
     d="m 48.187,13.968 c -0.245,-0.01 -0.475,0.1 -0.656,0.282 l -7.124,6.97 c -0.147,0.146 -0.238,0.316 -0.28,0.5 -0.023,0.093 -0.038,0.186 -0.032,0.28 -0.002,0.03 0,0.063 0,0.094 0.01,0.055 0.012,0.104 0.03,0.156 0.042,0.19 0.13,0.38 0.282,0.532 l 7.125,6.968 c 0.363,0.362 0.953,0.33 1.345,-0.062 l 1.406,-1.406 c 0.393,-0.392 0.425,-1.013 0.064,-1.375 L 47.44,24 54,24 c 0.554,0 1,-0.446 1,-1 l 0,-2 c 0,-0.554 -0.446,-1 -1,-1 l -6.594,0 2.938,-2.938 c 0.36,-0.36 0.33,-0.952 -0.063,-1.343 L 48.876,14.281 C 48.68,14.085 48.434,13.979 48.188,13.969 Z" />
  <path
     style="color:#bebebe;overflow:visible;fill:#586e75;enable-background:accumulate;fill-opacity:1;opacity:0.5"
     id="path20"
     overflow="visible"
     d="m 83.813,13.968 c 0.245,-0.01 0.475,0.1 0.656,0.282 l 7.124,6.97 c 0.147,0.146 0.238,0.316 0.28,0.5 0.023,0.093 0.038,0.186 0.032,0.28 0.002,0.03 0,0.063 0,0.094 -0.01,0.055 -0.012,0.104 -0.03,0.156 -0.042,0.19 -0.13,0.38 -0.282,0.532 l -7.125,6.968 c -0.363,0.362 -0.953,0.33 -1.345,-0.062 L 81.717,28.282 C 81.324,27.89 81.292,27.269 81.653,26.907 L 84.559,24 78,24 c -0.554,0 -1,-0.446 -1,-1 l 0,-2 c 0,-0.554 0.446,-1 1,-1 l 6.594,0 -2.938,-2.938 c -0.36,-0.36 -0.33,-0.952 0.063,-1.343 l 1.405,-1.438 c 0.196,-0.196 0.442,-0.302 0.688,-0.312 z" />
  <rect
     style="opacity:0.5;fill:#c8d0d0;fill-opacity:0.125;stroke:#586e75;stroke-width:1.31114078;stroke-opacity:1"
     id="rect22"
     ry="2.0000491"
     rx="2"
     y="10.655569"
     x="108.65557"
     height="22.68886"
     width="310.72803" />
  <path
     style="color:#bebebe;overflow:visible;fill:#586e75;enable-background:accumulate;fill-opacity:1;opacity:0.5"
     id="path24"
     overflow="visible"
     d="m 407.363,14 0,2 c -3.314,0 -6,2.686 -6,6 0,3.314 2.686,6 6,6 3.314,0 6,-2.686 6,-6 l -2,0 c 0,2.21 -1.79,4 -4,4 -2.21,0 -4,-1.79 -4,-4 0,-2.21 1.79,-4 4,-4 l 0,2 5,-3 -5,-3 z" />
  <g
     transform="translate(69,-312.362)"
     style="fill:#586e75;fill-opacity:1;opacity:0.5"
     id="g26">
    <path
       style="color:#bebebe;overflow:visible;enable-background:accumulate;fill:#586e75;fill-opacity:1"
       id="path28"
       overflow="visible"
       d="m 51,326.362 c -4.418,0 -8,3.582 -8,8 0,4.418 3.582,8 8,8 4.418,0 8,-3.582 8,-8 0,-4.418 -3.582,-8 -8,-8 z m 0.563,1.03 c 1.266,0.102 2.42,0.535 3.406,1.22 l -0.282,-0.062 -0.344,-0.125 -0.5,0.125 -0.313,0.218 0,0.188 -0.53,0.344 0.125,0.5 0.28,-0.22 0.19,0.22 0.218,0.125 0.124,-0.375 -0.062,-0.22 0.063,-0.155 0.312,-0.282 0.125,0 -0.125,0.313 0,0.28 c 0.123,-0.033 0.25,-0.045 0.375,-0.06 l -0.344,0.25 -0.03,0.155 -0.406,0.345 -0.407,-0.094 0,-0.25 -0.187,0.126 0.094,0.22 -0.313,0 -0.155,0.28 -0.188,0.22 -0.374,0.06 0.218,0.22 0.064,0.22 -0.282,0 -0.343,0.186 0,0.563 0.155,0 0.156,0.156 0.345,-0.155 0.125,-0.344 0.25,-0.155 0.03,-0.125 0.407,-0.094 0.22,0.25 0.25,0.125 -0.157,0.282 0.22,-0.062 0.124,-0.282 -0.282,-0.312 0.126,0 0.25,0.22 0.062,0.31 0.22,0.282 0.06,-0.406 0.126,-0.062 c 0.133,0.14 0.233,0.31 0.344,0.468 l 0.438,0.032 0.218,0.156 -0.093,0.156 -0.25,0.22 -0.344,0 -0.47,-0.157 -0.22,0.03 -0.186,0.188 -0.5,-0.5 -0.344,-0.093 -0.5,0.062 -0.47,0.125 c -0.254,0.296 -0.507,0.6 -0.75,0.906 l -0.28,0.72 0.125,0.124 -0.25,0.375 0.28,0.656 c 0.23,0.263 0.46,0.52 0.69,0.782 l 0.343,-0.282 0.124,0.157 0.376,-0.22 0.124,0.126 0.344,0 0.22,0.25 -0.126,0.438 0.25,0.282 -0.03,0.5 0.218,0.375 -0.157,0.312 c -0.012,0.228 -0.03,0.46 -0.03,0.688 0.11,0.308 0.24,0.596 0.344,0.906 l 0.062,0.5 0,0.25 0.188,0 0.312,-0.187 0.341,0 0.5,-0.593 -0.063,-0.22 0.376,-0.312 -0.282,-0.28 0.314,-0.25 0.312,-0.188 0.125,-0.157 -0.093,-0.343 0,-0.875 0.25,-0.532 0.282,-0.312 0.343,-0.812 0,-0.218 c -0.16,0.02 -0.312,0.05 -0.47,0.062 l 0.313,-0.344 0.438,-0.312 0.25,-0.28 0,-0.283 c -0.054,-0.103 -0.103,-0.24 -0.157,-0.343 l -0.218,0.28 -0.157,-0.218 -0.25,-0.187 0,-0.375 0.28,0.312 0.313,-0.03 c 0.14,0.13 0.284,0.226 0.407,0.374 l 0.093,-0.125 c 0.05,0.34 0.094,0.68 0.094,1.032 0,3.866 -3.134,7 -7,7 -1.134,0 -2.21,-0.27 -3.156,-0.75 0.05,-0.04 0.125,-0.094 0.125,-0.094 l -0.064,-0.125 0.22,-0.218 0.062,-0.22 0.343,-0.093 0.25,-0.687 -0.06,-0.157 0.155,-0.28 0.406,-0.095 0.19,-0.468 -0.032,-0.625 0.312,-0.438 0.03,-0.437 c -0.425,-0.216 -0.825,-0.434 -1.25,-0.657 l -0.218,-0.437 -0.374,-0.093 -0.22,-0.562 -0.5,0.062 -0.468,-0.344 -0.47,0.438 0,0.063 c -0.14,-0.04 -0.31,-0.046 -0.436,-0.125 l -0.094,-0.312 0,-0.313 -0.313,0.032 c 0.027,-0.21 0.068,-0.447 0.094,-0.657 l -0.186,0 -0.188,0.25 -0.187,0.094 -0.25,-0.156 -0.032,-0.313 0.03,-0.375 0.407,-0.28 0.313,0 0.062,-0.188 0.375,0.093 0.28,0.344 0.064,-0.594 0.5,-0.406 0.155,-0.47 0.375,-0.155 0.22,-0.28 0.468,-0.095 0.218,-0.375 -0.687,0 0.436,-0.187 0.313,0 0.405,-0.157 0.063,0.407 0.187,-0.282 -0.22,-0.156 0.064,-0.156 -0.157,-0.155 -0.188,-0.032 0.063,-0.187 -0.157,-0.28 -0.31,0.124 0.06,-0.25 -0.374,-0.22 -0.28,0.532 0.03,0.156 -0.28,0.125 -0.188,0.407 -0.063,-0.375 -0.5,-0.188 -0.094,-0.28 0.657,-0.376 0.282,-0.28 0.03,-0.344 -0.156,-0.094 -0.063,0 c 0.23,-0.158 0.443,-0.307 0.69,-0.437 l 0,0.093 -0.22,0.188 -0.156,0.375 0.312,0 0.094,-0.25 0.03,-0.062 c 0.127,-0.09 0.248,-0.193 0.376,-0.28 l 0.313,0.093 c 0.193,0.136 0.367,0.273 0.56,0.407 l 0.314,-0.28 -0.344,-0.126 -0.125,-0.312 -0.563,-0.062 0,-0.063 c 0.01,-0.003 0.023,0.004 0.032,0 l 0.187,0.063 0.157,-0.156 0.282,-0.063 c 0.07,-0.035 0.146,-0.065 0.218,-0.094 l -0.188,0.188 0.656,0.47 0,0.28 -0.25,0.282 0.344,0.688 0.25,-0.125 0.28,-0.47 c 0.42,-0.13 0.824,-0.285 1.22,-0.468 l -0.03,0.188 0.186,0.125 0.344,-0.25 -0.156,-0.188 -0.25,0.125 -0.032,-0.03 0.344,-0.94 z m -3.813,1.19 0.28,0.218 0.25,0 0,-0.25 -0.28,-0.125 z m -0.938,0.186 -0.062,0.157 c 0,0 -0.103,0.015 -0.188,0.03 0.08,-0.066 0.167,-0.124 0.25,-0.187 z m 8.438,0.032 c 0.065,0.05 0.124,0.104 0.188,0.156 l -0.25,0.28 -0.344,-0.374 0.343,0 z m -3.03,0.406 0,0.187 0.124,0.157 0,0.28 -0.063,0.407 0.314,-0.062 0.25,-0.22 -0.22,-0.218 c -0.068,-0.186 -0.132,-0.352 -0.218,-0.53 z m -0.282,0.406 -0.188,0.063 0.03,0.375 0.282,-0.157 z m 3.656,3.344 0.28,0.344 0.376,0.78 0.22,0.25 -0.126,0.282 0.218,0.25 c -0.09,0.006 -0.187,0 -0.28,0 -0.17,-0.365 -0.308,-0.743 -0.438,-1.125 l -0.22,-0.25 -0.124,-0.47 z m -11.563,0.906 c 0.043,0.1 0.22,0.406 0.22,0.406 l 0.53,0.313 0.564,0.157 0.218,0.313 0.376,0.28 0.187,-0.062 0.156,0.094 0,0.03 -0.186,0.595 -0.157,0.22 0.032,0.124 -0.126,0.47 0.468,0.843 0.47,0.438 0.218,0.282 -0.03,0.656 0.155,0.344 -0.156,0.688 0,0.03 C 45.18,338.816 44,336.725 44,334.365 c 0,-0.168 0.02,-0.335 0.03,-0.5 z" />
  </g>
</svg>
