<?xml version="1.0" encoding="UTF-8" standalone="no"?>
<!-- Created with Inkscape (http://www.inkscape.org/) -->

<svg
   xmlns:dc="http://purl.org/dc/elements/1.1/"
   xmlns:cc="http://creativecommons.org/ns#"
   xmlns:rdf="http://www.w3.org/1999/02/22-rdf-syntax-ns#"
   xmlns:svg="http://www.w3.org/2000/svg"
   xmlns="http://www.w3.org/2000/svg"
   xmlns:xlink="http://www.w3.org/1999/xlink"
   xmlns:inkscape="http://www.inkscape.org/namespaces/inkscape"
   version="1.1"
   width="32"
   height="32"
   id="svg6043">
  <defs
     id="defs6045">
    <radialGradient
       cx="4.993"
       cy="43.5"
       r="2.5"
       id="radialGradient4384"
       xlink:href="#linearGradient5747"
       gradientUnits="userSpaceOnUse"
       gradientTransform="matrix(1.6030273,0,0,0.59999988,541.99052,860.76219)" />
    <linearGradient
       id="linearGradient5747">
      <stop
         id="stop5749"
         style="stop-color:#000000;stop-opacity:1"
         offset="0" />
      <stop
         id="stop5751"
         style="stop-color:#000000;stop-opacity:0"
         offset="1" />
    </linearGradient>
    <radialGradient
       cx="4.993"
       cy="43.5"
       r="2.5"
       id="radialGradient4386"
       xlink:href="#linearGradient5747"
       gradientUnits="userSpaceOnUse"
       gradientTransform="matrix(1.6030273,0,0,0.59999988,-535.0095,-912.96218)" />
    <linearGradient
       x1="25.058001"
       y1="43.543934"
       x2="25.058001"
       y2="39.999001"
       id="linearGradient4388"
       xlink:href="#linearGradient5747"
       gradientUnits="userSpaceOnUse"
       gradientTransform="matrix(0.82142859,0,0,0.42857134,518.78572,868.21933)"
       spreadMethod="reflect" />
    <radialGradient
       cx="7.4956999"
       cy="8.4497995"
       r="20"
       id="radialGradient4390"
       xlink:href="#radialGradient3164"
       gradientUnits="userSpaceOnUse"
       gradientTransform="matrix(-0.00959868,1.5579153,-1.486926,-0.02419163,551.13616,849.77731)" />
    <radialGradient
       cx="7.4956999"
       cy="8.4497995"
       r="20"
       id="radialGradient3164"
       gradientUnits="userSpaceOnUse"
       gradientTransform="matrix(1.273594e-7,3.2957553,-5.3809239,0,77.467708,-19.382411)">
      <stop
         id="stop3244"
         style="stop-color:#f8b17e;stop-opacity:1"
         offset="0" />
      <stop
         id="stop3246"
         style="stop-color:#e35d4f;stop-opacity:1"
         offset="0.26238" />
      <stop
         id="stop3248"
         style="stop-color:#c6262e;stop-opacity:1"
         offset="0.66093999" />
      <stop
         id="stop3250"
         style="stop-color:#690b54;stop-opacity:1"
         offset="1" />
    </radialGradient>
    <linearGradient
       x1="547"
       y1="887.36218"
       x2="547"
       y2="860.36218"
       id="linearGradient4392"
       xlink:href="#linearGradient3173"
       gradientUnits="userSpaceOnUse" />
    <linearGradient
       x1="24"
       y1="44"
       x2="24"
       y2="3.8989999"
       id="linearGradient3173"
       gradientUnits="userSpaceOnUse"
       gradientTransform="matrix(2.641026,0,0,2.641026,0.6153903,-60.384616)">
      <stop
         id="stop2492"
         style="stop-color:#791235;stop-opacity:1"
         offset="0" />
      <stop
         id="stop2494"
         style="stop-color:#bf1d09;stop-opacity:1"
         offset="1" />
    </linearGradient>
    <linearGradient
       x1="24"
       y1="5"
       x2="24"
       y2="43"
       id="linearGradient4394"
       xlink:href="#linearGradient3128"
       gradientUnits="userSpaceOnUse"
       gradientTransform="matrix(0.37837838,0,0,0.64864865,529.41891,858.29461)" />
    <linearGradient
       x1="24"
       y1="5.3301001"
       x2="24"
       y2="43"
       id="linearGradient3128"
       gradientUnits="userSpaceOnUse"
       gradientTransform="matrix(2.7297298,0,0,2.7297298,-1.5135111,-62.513486)">
      <stop
         id="stop3926"
         style="stop-color:#ffffff;stop-opacity:1"
         offset="0" />
      <stop
         id="stop3952"
         style="stop-color:#ffffff;stop-opacity:0.23529412"
         offset="0.02982479" />
      <stop
         id="stop3954"
         style="stop-color:#ffffff;stop-opacity:0.15686275"
         offset="0.9614116" />
      <stop
         id="stop3956"
         style="stop-color:#ffffff;stop-opacity:0.39215687"
         offset="1" />
    </linearGradient>
    <linearGradient
       x1="24"
       y1="5"
       x2="24"
       y2="43"
       id="linearGradient4396"
       xlink:href="#linearGradient3128"
       gradientUnits="userSpaceOnUse"
       gradientTransform="matrix(0.10810808,0,0,0.64864865,524.90556,858.29461)" />
    <linearGradient
       x1="526"
       y1="812.36218"
       x2="532"
       y2="812.36218"
       id="linearGradient4398"
       xlink:href="#linearGradient5761"
       gradientUnits="userSpaceOnUse"
       gradientTransform="matrix(0.79999998,0,0,0.79999998,-1306.0622,-122.38971)" />
    <linearGradient
       id="linearGradient5761">
      <stop
         id="stop5763"
         style="stop-color:#ffffff;stop-opacity:1"
         offset="0" />
      <stop
         id="stop5765"
         style="stop-color:#ffffff;stop-opacity:0"
         offset="1" />
    </linearGradient>
    <linearGradient
       x1="526"
       y1="812.36218"
       x2="532"
       y2="812.36218"
       id="linearGradient4400"
       xlink:href="#linearGradient5761"
       gradientUnits="userSpaceOnUse"
       gradientTransform="matrix(0.79999998,0,0,0.79999998,-1300.0622,-122.38971)" />
    <linearGradient
       x1="526"
       y1="812.36218"
       x2="532"
       y2="812.36218"
       id="linearGradient4402"
       xlink:href="#linearGradient5761"
       gradientUnits="userSpaceOnUse"
       gradientTransform="matrix(0.79999998,0,0,0.79999998,-1294.0622,-122.38971)" />
    <linearGradient
       x1="526"
       y1="812.36218"
       x2="532"
       y2="812.36218"
       id="linearGradient4404"
       xlink:href="#linearGradient5761"
       gradientUnits="userSpaceOnUse"
       gradientTransform="matrix(0.79999998,0,0,0.79999998,-1288.0622,-122.38971)" />
    <linearGradient
       x1="24"
       y1="5"
       x2="24"
       y2="43"
       id="linearGradient4406"
       xlink:href="#linearGradient3128"
       gradientUnits="userSpaceOnUse"
       gradientTransform="matrix(-0.10810808,0,0,0.64864865,552.09444,858.29461)" />
    <linearGradient
       x1="526"
       y1="812.36218"
       x2="532"
       y2="812.36218"
       id="linearGradient4408"
       xlink:href="#linearGradient5761"
       gradientUnits="userSpaceOnUse"
       gradientTransform="matrix(0.79999998,0,0,0.79999998,-1306.0622,-1199.3897)" />
    <linearGradient
       x1="526"
       y1="812.36218"
       x2="532"
       y2="812.36218"
       id="linearGradient4410"
       xlink:href="#linearGradient5761"
       gradientUnits="userSpaceOnUse"
       gradientTransform="matrix(0.79999998,0,0,0.79999998,-1300.0622,-1199.3897)" />
    <linearGradient
       x1="526"
       y1="812.36218"
       x2="532"
       y2="812.36218"
       id="linearGradient4412"
       xlink:href="#linearGradient5761"
       gradientUnits="userSpaceOnUse"
       gradientTransform="matrix(0.79999998,0,0,0.79999998,-1294.0622,-1199.3897)" />
    <linearGradient
       x1="526"
       y1="812.36218"
       x2="532"
       y2="812.36218"
       id="linearGradient4414"
       xlink:href="#linearGradient5761"
       gradientUnits="userSpaceOnUse"
       gradientTransform="matrix(0.79999998,0,0,0.79999998,-1288.0622,-1199.3897)" />
    <linearGradient
       x1="598.76581"
       y1="475.70004"
       x2="598.76581"
       y2="448.29996"
       id="linearGradient4417"
       xlink:href="#linearGradient3173"
       gradientUnits="userSpaceOnUse" />
    <linearGradient
       x1="598.76581"
       y1="475.70004"
       x2="598.76581"
       y2="448.29996"
       id="linearGradient4419"
       xlink:href="#linearGradient3173"
       gradientUnits="userSpaceOnUse" />
  </defs>
  <metadata
     id="metadata6048">
    <rdf:RDF>
      <cc:Work
         rdf:about="">
        <dc:format>image/svg+xml</dc:format>
        <dc:type
           rdf:resource="http://purl.org/dc/dcmitype/StillImage" />
        <dc:title />
      </cc:Work>
    </rdf:RDF>
  </metadata>
  <g
     transform="translate(0,-1020.3622)"
     id="layer1">
    <g
       transform="translate(-523,163.00004)"
       id="g4246">
      <rect
         width="4"
         height="2.9999993"
         x="550"
         y="885.36218"
         id="rect2801-72"
         style="opacity:0.4;fill:url(#radialGradient4384);fill-opacity:1" />
      <rect
         width="4"
         height="2.9999993"
         x="-527"
         y="-888.36218"
         transform="scale(-1,-1)"
         id="rect3696-3"
         style="opacity:0.4;fill:url(#radialGradient4386);fill-opacity:1" />
      <rect
         width="23"
         height="2.9999993"
         x="527"
         y="885.36218"
         id="rect3700-6"
         style="opacity:0.4;fill:url(#linearGradient4388);fill-opacity:1" />
      <rect
         width="16"
         height="26"
         x="530.5"
         y="860.86212"
         id="rect5505"
         style="color:#000000;fill:url(#radialGradient4390);fill-opacity:1;fill-rule:nonzero;stroke:url(#linearGradient4392);stroke-width:0.99999994;stroke-linecap:round;stroke-linejoin:round;stroke-miterlimit:4;stroke-opacity:1;stroke-dasharray:none;stroke-dashoffset:0;enable-background:accumulate" />
      <rect
         width="14"
         height="24"
         x="531.5"
         y="861.86218"
         id="rect6741-7-4"
         style="opacity:0.5;fill:none;stroke:url(#linearGradient4394);stroke-width:1;stroke-linecap:round;stroke-linejoin:round;stroke-miterlimit:4;stroke-dasharray:none;stroke-dashoffset:0" />
      <path
         d="m 525.5,860.86218 c -0.554,0 -1,0.446 -1,1 l 0,24 c 0,0.554 0.446,1 1,1 l 2,0 2,0 1,0 0,-1 0,-2 0,-20 0,-2 0,-1 -1,0 -2,0 -2,0 z m 1,3 1,0 1,0 0,2 -2,0 0,-2 z m 0,6 2,0 0,2 -2,0 0,-2 z m 0,6 2,0 0,2 -2,0 0,-2 z m 0,6 2,0 0,2 -1,0 -1,0 0,-2 z"
         inkscape:connector-curvature="0"
         id="rect6775"
         style="color:#000000;fill:#000000;fill-opacity:0.78431373;fill-rule:nonzero;stroke:#000000;stroke-width:0.99999994;stroke-linecap:round;stroke-linejoin:miter;stroke-miterlimit:4;stroke-opacity:1;stroke-dasharray:none;stroke-dashoffset:0;enable-background:accumulate" />
      <path
         d="m 525.5,861.86218 0,24 1,0 3,0 0,-3 0,-18 0,-3 -3,0 -1,0 z"
         inkscape:connector-curvature="0"
         id="rect6777"
         style="opacity:0.3;fill:none;stroke:url(#linearGradient4396);stroke-width:1;stroke-linecap:round;stroke-linejoin:miter;stroke-miterlimit:4;stroke-dasharray:none;stroke-dashoffset:0" />
      <rect
         width="4"
         height="4"
         rx="1"
         ry="1"
         x="-884.86218"
         y="525.5"
         transform="matrix(0,-1,1,0,0,0)"
         id="rect6876"
         style="opacity:0.12000002;fill:none;stroke:url(#linearGradient4398);stroke-width:1.00000012;stroke-linecap:butt;stroke-linejoin:round;stroke-miterlimit:4;stroke-opacity:1;stroke-dasharray:none;stroke-dashoffset:0" />
      <rect
         width="4"
         height="4"
         rx="1"
         ry="1"
         x="-878.86218"
         y="525.5"
         transform="matrix(0,-1,1,0,0,0)"
         id="rect6880"
         style="opacity:0.12000002;fill:none;stroke:url(#linearGradient4400);stroke-width:1.00000012;stroke-linecap:butt;stroke-linejoin:round;stroke-miterlimit:4;stroke-opacity:1;stroke-dasharray:none;stroke-dashoffset:0" />
      <rect
         width="4"
         height="4"
         rx="1"
         ry="1"
         x="-872.86218"
         y="525.5"
         transform="matrix(0,-1,1,0,0,0)"
         id="rect6884"
         style="opacity:0.12000002;fill:none;stroke:url(#linearGradient4402);stroke-width:1.00000012;stroke-linecap:butt;stroke-linejoin:round;stroke-miterlimit:4;stroke-opacity:1;stroke-dasharray:none;stroke-dashoffset:0" />
      <rect
         width="4"
         height="4"
         rx="1"
         ry="1"
         x="-866.86218"
         y="525.5"
         transform="matrix(0,-1,1,0,0,0)"
         id="rect6888"
         style="opacity:0.12000002;fill:none;stroke:url(#linearGradient4404);stroke-width:1.00000012;stroke-linecap:butt;stroke-linejoin:round;stroke-miterlimit:4;stroke-opacity:1;stroke-dasharray:none;stroke-dashoffset:0" />
      <rect
         width="3"
         height="3"
         rx="1"
         ry="1"
         x="526"
         y="863.36218"
         id="rect6897"
         style="opacity:0.4;fill:#000000;fill-opacity:1;fill-rule:evenodd;stroke:none" />
      <rect
         width="3"
         height="3"
         rx="1"
         ry="1"
         x="526"
         y="869.36218"
         id="rect6899"
         style="opacity:0.4;fill:#000000;fill-opacity:1;fill-rule:evenodd;stroke:none" />
      <rect
         width="3"
         height="3"
         rx="1"
         ry="1"
         x="526"
         y="875.36218"
         id="rect6901"
         style="opacity:0.4;fill:#000000;fill-opacity:1;fill-rule:evenodd;stroke:none" />
      <rect
         width="3"
         height="3"
         rx="1"
         ry="1"
         x="526"
         y="881.36218"
         id="rect6903"
         style="opacity:0.4;fill:#000000;fill-opacity:1;fill-rule:evenodd;stroke:none" />
      <path
         d="m 551.5,860.86218 c 0.554,0 1,0.446 1,1 l 0,24 c 0,0.554 -0.446,1 -1,1 l -2,0 -2,0 -1,0 0,-1 0,-2 0,-20 0,-2 0,-1 1,0 2,0 2,0 z m -1,3 -1,0 -1,0 0,2 2,0 0,-2 z m 0,6 -2,0 0,2 2,0 0,-2 z m 0,6 -2,0 0,2 2,0 0,-2 z m 0,6 -2,0 0,2 1,0 1,0 0,-2 z"
         inkscape:connector-curvature="0"
         id="path6942"
         style="color:#000000;fill:#000000;fill-opacity:0.78431373;fill-rule:nonzero;stroke:#000000;stroke-width:0.99999994;stroke-linecap:round;stroke-linejoin:miter;stroke-miterlimit:4;stroke-opacity:1;stroke-dasharray:none;stroke-dashoffset:0;enable-background:accumulate" />
      <path
         d="m 551.5,861.86218 0,24 -1,0 -3,0 0,-3 0,-18 0,-3 3,0 1,0 z"
         inkscape:connector-curvature="0"
         id="path6944"
         style="opacity:0.3;fill:none;stroke:url(#linearGradient4406);stroke-width:1;stroke-linecap:round;stroke-linejoin:miter;stroke-miterlimit:4;stroke-dasharray:none;stroke-dashoffset:0" />
      <rect
         width="4"
         height="4"
         rx="1"
         ry="1"
         x="-884.86218"
         y="-551.5"
         transform="matrix(0,-1,-1,0,0,0)"
         id="rect6946"
         style="opacity:0.12000002;fill:none;stroke:url(#linearGradient4408);stroke-width:1.00000012;stroke-linecap:butt;stroke-linejoin:round;stroke-miterlimit:4;stroke-opacity:1;stroke-dasharray:none;stroke-dashoffset:0" />
      <rect
         width="4"
         height="4"
         rx="1"
         ry="1"
         x="-878.86218"
         y="-551.5"
         transform="matrix(0,-1,-1,0,0,0)"
         id="rect6948"
         style="opacity:0.12000002;fill:none;stroke:url(#linearGradient4410);stroke-width:1.00000012;stroke-linecap:butt;stroke-linejoin:round;stroke-miterlimit:4;stroke-opacity:1;stroke-dasharray:none;stroke-dashoffset:0" />
      <rect
         width="4"
         height="4"
         rx="1"
         ry="1"
         x="-872.86218"
         y="-551.5"
         transform="matrix(0,-1,-1,0,0,0)"
         id="rect6950"
         style="opacity:0.12000002;fill:none;stroke:url(#linearGradient4412);stroke-width:1.00000012;stroke-linecap:butt;stroke-linejoin:round;stroke-miterlimit:4;stroke-opacity:1;stroke-dasharray:none;stroke-dashoffset:0" />
      <rect
         width="4"
         height="4"
         rx="1"
         ry="1"
         x="-866.86218"
         y="-551.5"
         transform="matrix(0,-1,-1,0,0,0)"
         id="rect6952"
         style="opacity:0.12000002;fill:none;stroke:url(#linearGradient4414);stroke-width:1.00000012;stroke-linecap:butt;stroke-linejoin:round;stroke-miterlimit:4;stroke-opacity:1;stroke-dasharray:none;stroke-dashoffset:0" />
      <rect
         width="3"
         height="3"
         rx="1"
         ry="1"
         x="-551"
         y="863.36218"
         transform="scale(-1,1)"
         id="rect6954"
         style="opacity:0.4;fill:#000000;fill-opacity:1;fill-rule:evenodd;stroke:none" />
      <rect
         width="3"
         height="3"
         rx="1"
         ry="1"
         x="-551"
         y="869.36218"
         transform="scale(-1,1)"
         id="rect6956"
         style="opacity:0.4;fill:#000000;fill-opacity:1;fill-rule:evenodd;stroke:none" />
      <rect
         width="3"
         height="3"
         rx="1"
         ry="1"
         x="-551"
         y="875.36218"
         transform="scale(-1,1)"
         id="rect6958"
         style="opacity:0.4;fill:#000000;fill-opacity:1;fill-rule:evenodd;stroke:none" />
      <rect
         width="3"
         height="3"
         rx="1"
         ry="1"
         x="-551"
         y="881.36218"
         transform="scale(-1,1)"
         id="rect6960"
         style="opacity:0.4;fill:#000000;fill-opacity:1;fill-rule:evenodd;stroke:none" />
      <path
         d="m 599.61759,474.78671 0,-25.57342 L 621.76482,462 z"
         inkscape:connector-curvature="0"
         transform="matrix(0.45152364,0,0,0.43013404,262.75848,675.64025)"
         id="path7006"
         style="opacity:0.31999996;fill:url(#linearGradient4417);fill-opacity:1;fill-rule:evenodd;stroke:url(#linearGradient4419);stroke-width:2.26912189;stroke-linejoin:round;stroke-miterlimit:4;stroke-opacity:1;stroke-dasharray:none" />
      <path
         d="m 599.61759,474.78671 0,-25.57342 L 621.76482,462 z"
         inkscape:connector-curvature="0"
         transform="matrix(0.36121892,0,0,0.35192785,317.90678,710.77151)"
         id="path7002"
         style="fill:#fafafa;fill-opacity:1;fill-rule:evenodd;stroke:#ffffff;stroke-width:2.80470967;stroke-linejoin:round;stroke-miterlimit:4;stroke-opacity:1;stroke-dasharray:none" />
    </g>
  </g>
</svg>
