<svg xmlns="http://www.w3.org/2000/svg" xmlns:xlink="http://www.w3.org/1999/xlink" width="32" height="32"><defs><linearGradient id="a"><stop style="stop-color:#fff;stop-opacity:1" offset="0"/><stop style="stop-color:#fff;stop-opacity:.23529412" offset=".063"/><stop style="stop-color:#fff;stop-opacity:.15686275" offset=".951"/><stop style="stop-color:#fff;stop-opacity:.39215687" offset="1"/></linearGradient><linearGradient id="g"><stop style="stop-color:#181818;stop-opacity:1" offset="0"/><stop style="stop-color:#181818;stop-opacity:0" offset="1"/></linearGradient><linearGradient id="h"><stop style="stop-color:#181818;stop-opacity:1" offset="0"/><stop style="stop-color:#181818;stop-opacity:0" offset="1"/></linearGradient><linearGradient id="b"><stop style="stop-color:#181818;stop-opacity:0" offset="0"/><stop style="stop-color:#181818;stop-opacity:1" offset=".5"/><stop style="stop-color:#181818;stop-opacity:0" offset="1"/></linearGradient><linearGradient id="c"><stop style="stop-color:#000;stop-opacity:1" offset="0"/><stop style="stop-color:#000;stop-opacity:0" offset="1"/></linearGradient><linearGradient x1="24" y1="5" x2="24" y2="43" id="m" xlink:href="#a" gradientUnits="userSpaceOnUse" gradientTransform="matrix(.67568 0 0 .64865 -.216 .932)"/><linearGradient x1="25.058" y1="47.028" x2="25.058" y2="39.999" id="k" xlink:href="#b" gradientUnits="userSpaceOnUse"/><linearGradient x1="23.954" y1="15.999" x2="23.954" y2="19.963" id="n" xlink:href="#c" gradientUnits="userSpaceOnUse" gradientTransform="matrix(.7 0 0 .26923 -.8 5.615)"/><linearGradient x1="25.132" y1="15.5" x2="25.132" y2="48.396" id="l" xlink:href="#d" gradientUnits="userSpaceOnUse" gradientTransform="matrix(.56308 0 0 .53992 2.486 2.57)"/><linearGradient id="d"><stop style="stop-color:#fafafa;stop-opacity:1" offset="0"/><stop style="stop-color:#e2e1de;stop-opacity:1" offset="1"/></linearGradient><linearGradient x1="24.17" y1="-12.242" x2="24.17" y2="48.934" id="o" xlink:href="#e" gradientUnits="userSpaceOnUse" gradientTransform="translate(.455 1.455) scale(.45455)"/><linearGradient id="e"><stop style="stop-color:#cdf87e;stop-opacity:1" offset="0"/><stop style="stop-color:#a2e34f;stop-opacity:1" offset=".262"/><stop style="stop-color:#68b723;stop-opacity:1" offset=".661"/><stop style="stop-color:#1d7e0d;stop-opacity:1" offset="1"/></linearGradient><linearGradient id="f"><stop style="stop-color:#fff;stop-opacity:1" offset="0"/><stop style="stop-color:#fff;stop-opacity:.23529412" offset=".063"/><stop style="stop-color:#fff;stop-opacity:.15686275" offset=".951"/><stop style="stop-color:#fff;stop-opacity:.39215687" offset="1"/></linearGradient><linearGradient x1="24" y1="5" x2="24" y2="43" id="p" xlink:href="#f" gradientUnits="userSpaceOnUse" gradientTransform="translate(.081 1.081) scale(.62162)"/><radialGradient cx="4.993" cy="43.5" r="2.5" fx="4.993" fy="43.5" id="i" xlink:href="#g" gradientUnits="userSpaceOnUse" gradientTransform="matrix(2.00378 0 0 1.4 27.988 -17.4)"/><radialGradient cx="4.993" cy="43.5" r="2.5" fx="4.993" fy="43.5" id="j" xlink:href="#h" gradientUnits="userSpaceOnUse" gradientTransform="matrix(2.00378 0 0 1.4 -20.012 -104.4)"/></defs><g style="opacity:.35"><path style="fill:url(#i);fill-opacity:1;stroke:none" d="M38 40h5v7h-5z" transform="matrix(.73684 0 0 .42857 -1.684 10.857)"/><path transform="matrix(-.73684 0 0 -.42857 -1.684 10.857)" style="fill:url(#j);fill-opacity:1;stroke:none" d="M-10-47h5v7h-5z"/><path style="fill:url(#k);fill-opacity:1;stroke:none" d="M10 40h28v7H10z" transform="matrix(.73684 0 0 .42857 -1.684 10.857)"/></g><rect width="26" height="25" rx="1.5" ry="1.5" x="3" y="4" style="color:#000;display:inline;overflow:visible;visibility:visible;fill:url(#l);fill-opacity:1;fill-rule:nonzero;stroke:none;stroke-width:.99999994;marker:none;enable-background:accumulate"/><rect width="25" height="24" rx="1.087" ry="1.043" x="3.5" y="4.5" style="fill:none;stroke:url(#m);stroke-width:1;stroke-linecap:round;stroke-linejoin:round;stroke-miterlimit:4;stroke-dasharray:none;stroke-dashoffset:0;stroke-opacity:1"/><path d="M2.5 10v17.5c0 1.108.892 2 2 2h23c1.108 0 2-.892 2-2V10" style="color:#000;display:inline;overflow:visible;visibility:visible;opacity:.3;fill:none;stroke:#000;stroke-width:.99999988;stroke-linecap:butt;stroke-linejoin:miter;stroke-miterlimit:4;stroke-dasharray:none;stroke-dashoffset:0;stroke-opacity:1;marker:none;enable-background:accumulate"/><rect width="28" height="1.077" rx="0" ry="0" x="2" y="9.923" style="display:inline;overflow:visible;visibility:visible;opacity:.15;fill:url(#n);fill-opacity:1;fill-rule:nonzero;stroke:none;stroke-width:1;marker:none;enable-background:accumulate"/><path d="M25.5 23.5h-19zm-.014-8.981L6.5 14.505V26.5h19zM25.5 20.5h-19m19-3h-19m3.013-2.969L9.487 26.5m4.016-11.917L13.498 26.5m4-11.958.005 11.958m3.987-12 .02 12" style="opacity:.2;color:#000;fill:none;stroke:#fff;stroke-width:1;stroke-linecap:butt;stroke-linejoin:miter;stroke-miterlimit:4;stroke-opacity:1;stroke-dasharray:none;stroke-dashoffset:0;marker:none;visibility:visible;display:inline;overflow:visible;enable-background:accumulate"/><path d="M25.5 22.5h-19zm-.014-8.981L6.5 13.505V25.5h19zM25.5 19.5h-19m19-3h-19m3.013-2.969L9.487 25.5m4.016-11.917L13.498 25.5m4-11.958.005 11.958m3.987-12 .02 12" style="opacity:.25;fill:none;stroke:#5e553c;stroke-width:1;stroke-miterlimit:4;stroke-opacity:1;stroke-dasharray:none"/><path d="M4.5 3.5c-1.108 0-2 .892-2 2v4h27v-4c0-1.108-.892-2-2-2z" style="color:#000;display:inline;overflow:visible;visibility:visible;fill:url(#o);fill-opacity:1;fill-rule:nonzero;stroke:none;stroke-width:.99999994;marker:none;enable-background:accumulate"/><path d="M2.5 9.5v-4c0-1.108.892-2 2-2h23c1.108 0 2 .892 2 2v4Z" style="color:#000;display:inline;overflow:visible;visibility:visible;opacity:.4;fill:none;stroke:#126400;stroke-width:1;stroke-linecap:butt;stroke-linejoin:miter;stroke-miterlimit:4;stroke-dasharray:none;stroke-dashoffset:0;stroke-opacity:1;marker:none;enable-background:accumulate"/><path d="M4.5 4.5c-.554 0-1 .446-1 1v3h25v-3c0-.554-.446-1-1-1z" style="opacity:.5;fill:none;stroke:url(#p);stroke-width:1;stroke-linecap:round;stroke-linejoin:miter;stroke-miterlimit:4;stroke-dasharray:none;stroke-dashoffset:0;stroke-opacity:1"/><path d="M6.26 7.5c0 1-1.5 1-1.5 0s1.5-1 1.5 0z" style="color:#000;display:inline;overflow:visible;visibility:visible;opacity:.3;fill:#fff;fill-opacity:1;fill-rule:nonzero;stroke:none;stroke-width:.97677249;marker:none;enable-background:accumulate"/><path d="M6.26 6.5c0 1-1.5 1-1.5 0s1.5-1 1.5 0z" style="color:#000;display:inline;overflow:visible;visibility:visible;opacity:.4;fill:#126400;fill-opacity:1;fill-rule:nonzero;stroke:none;stroke-width:1.07444978;marker:none;enable-background:accumulate"/><path d="M27.25 7.5c0 1-1.5 1-1.5 0s1.5-1 1.5 0z" style="color:#000;display:inline;overflow:visible;visibility:visible;opacity:.3;fill:#fff;fill-opacity:1;fill-rule:nonzero;stroke:none;stroke-width:.97677249;marker:none;enable-background:accumulate"/><path d="M27.25 6.5c0 1-1.5 1-1.5 0s1.5-1 1.5 0z" style="color:#000;display:inline;overflow:visible;visibility:visible;opacity:.4;fill:#126400;fill-opacity:1;fill-rule:nonzero;stroke:none;stroke-width:1.07444978;marker:none;enable-background:accumulate"/></svg>