<svg xmlns="http://www.w3.org/2000/svg" xmlns:xlink="http://www.w3.org/1999/xlink" version="1.0" width="32" height="32"><defs><linearGradient id="d"><stop style="stop-color:#000;stop-opacity:1" offset="0"/><stop style="stop-color:#000;stop-opacity:0" offset="1"/></linearGradient><linearGradient id="a"><stop style="stop-color:#000;stop-opacity:0" offset="0"/><stop style="stop-color:#000;stop-opacity:1" offset=".5"/><stop style="stop-color:#000;stop-opacity:0" offset="1"/></linearGradient><linearGradient x1="302.857" y1="366.648" x2="302.857" y2="609.505" id="f" xlink:href="#a" gradientUnits="userSpaceOnUse" gradientTransform="matrix(.0814 0 0 .01235 -6.167 38.47)"/><linearGradient id="b"><stop style="stop-color:#fff;stop-opacity:1" offset="0"/><stop style="stop-color:#fff;stop-opacity:.23529412" offset=".035"/><stop style="stop-color:#fff;stop-opacity:.15686275" offset=".964"/><stop style="stop-color:#fff;stop-opacity:.39215687" offset="1"/></linearGradient><linearGradient x1="40.29" y1="5.414" x2="40.29" y2="42.438" id="k" xlink:href="#b" gradientUnits="userSpaceOnUse" gradientTransform="matrix(.75676 0 0 .62162 -1.662 2.081)"/><linearGradient id="c"><stop style="stop-color:#dcdcdc;stop-opacity:1" offset="0"/><stop style="stop-color:#fff;stop-opacity:1" offset="1"/></linearGradient><linearGradient id="e"><stop style="stop-color:#919caf;stop-opacity:1" offset="0"/><stop style="stop-color:#68758e;stop-opacity:1" offset=".262"/><stop style="stop-color:#485a6c;stop-opacity:1" offset=".705"/><stop style="stop-color:#444c5c;stop-opacity:1" offset="1"/></linearGradient><linearGradient xlink:href="#c" id="l" gradientUnits="userSpaceOnUse" gradientTransform="matrix(.75 0 0 .5 -25.986 4.5)" x1="59.485" y1="35" x2="59.485" y2="-1"/><linearGradient xlink:href="#c" id="j" gradientUnits="userSpaceOnUse" gradientTransform="matrix(.75 0 0 .5 -25.986 5.5)" x1="59.485" y1="35" x2="59.485" y2="-1"/><radialGradient cx="605.714" cy="486.648" r="117.143" fx="605.714" fy="486.648" id="g" xlink:href="#d" gradientUnits="userSpaceOnUse" gradientTransform="matrix(-.02892 0 0 .01235 21.027 38.47)"/><radialGradient cx="605.714" cy="486.648" r="117.143" fx="605.714" fy="486.648" id="h" xlink:href="#d" gradientUnits="userSpaceOnUse" gradientTransform="matrix(.02892 0 0 .01235 25.473 38.47)"/><radialGradient cx="7.118" cy="9.957" r="12.672" fx="7.118" fy="9.957" id="i" xlink:href="#e" gradientUnits="userSpaceOnUse" gradientTransform="matrix(0 5.85913 -8.63177 0 103.087 -48.954)"/></defs><g style="opacity:.4"><path style="display:inline;overflow:visible;visibility:visible;fill:url(#f);fill-opacity:1;fill-rule:nonzero;stroke:none;stroke-width:1;marker:none" d="M3.6 43h39.3v3H3.6z" transform="matrix(.66666 0 0 1.33333 1 -30.333)"/><path d="M3.6 43v3c-1.49.006-3.6-.672-3.6-1.5S1.662 43 3.6 43Z" style="display:inline;overflow:visible;visibility:visible;fill:url(#g);fill-opacity:1;fill-rule:nonzero;stroke:none;stroke-width:1;marker:none" transform="matrix(.66666 0 0 1.33333 1 -30.333)"/><path d="M42.9 43v3c1.49.006 3.6-.672 3.6-1.5S44.838 43 42.9 43z" style="display:inline;overflow:visible;visibility:visible;fill:url(#h);fill-opacity:1;fill-rule:nonzero;stroke:none;stroke-width:1;marker:none" transform="matrix(.66666 0 0 1.33333 1 -30.333)"/></g><rect width="30" height="25" rx="1.017" ry="1.064" x="1.5" y="4.5" style="color:#000;display:inline;overflow:visible;visibility:visible;opacity:1;fill:url(#i);fill-opacity:1;fill-rule:nonzero;stroke:none;stroke-width:.99999994;marker:none;enable-background:accumulate"/><path style="color:#000;display:inline;overflow:visible;visibility:visible;opacity:.01050002;fill:#000;fill-opacity:1;fill-rule:nonzero;stroke:#000;stroke-width:2;stroke-linejoin:round;stroke-miterlimit:4;stroke-dasharray:none;stroke-opacity:1;marker:none;enable-background:accumulate" d="M7 13v2h3v-2zm4 0v2h3v-2zm4 0v2h3v-2zm4 0v2h3v-2zm4 0v2h3v-2zM7 16v2h3v-2zm4 0v2h3v-2zm4 0v2h3v-2zm4 0v2h3v-2zm4 0v2h3v-2zM7 19v2h3v-2zm4 0v2h3v-2zm4 0v2h3v-2zm4 0v2h3v-2zm4 0v2h3v-2zm-12 3v2h11v-2z"/><path style="color:#000;display:inline;overflow:visible;visibility:visible;opacity:.07000002;fill:url(#j);fill-opacity:1;fill-rule:nonzero;stroke:#000;stroke-width:2;stroke-linejoin:round;stroke-miterlimit:4;stroke-dasharray:none;stroke-opacity:1;marker:none;enable-background:accumulate" d="M7 12v2h3v-2zm4 0v2h3v-2zm4 0v2h3v-2zm4 0v2h3v-2zm4 0v2h3v-2zM7 15v2h3v-2zm4 0v2h3v-2zm4 0v2h3v-2zm4 0v2h3v-2zm4 0v2h3v-2zM7 18v2h3v-2zm4 0v2h3v-2zm4 0v2h3v-2zm4 0v2h3v-2zm4 0v2h3v-2zm-12 3v2h11v-2z"/><path style="opacity:.3;fill:none;stroke:url(#k);stroke-width:.99999982;stroke-linecap:round;stroke-linejoin:round;stroke-miterlimit:4;stroke-dasharray:none;stroke-dashoffset:0;stroke-opacity:1" d="M2.5 5.5h28v23h-28z"/><rect width="30" height="25" rx="1.017" ry="1.064" x="1.5" y="4.5" style="color:#000;display:inline;overflow:visible;visibility:visible;opacity:.5;fill:none;stroke:#1c2c38;stroke-width:1;stroke-linecap:round;stroke-linejoin:round;stroke-miterlimit:4;stroke-dasharray:none;stroke-dashoffset:0;stroke-opacity:1;marker:none;enable-background:accumulate"/><path d="M7 12v2h3v-2zm4 0v2h3v-2zm4 0v2h3v-2zm4 0v2h3v-2zm4 0v2h3v-2zM7 15v2h3v-2zm4 0v2h3v-2zm4 0v2h3v-2zm4 0v2h3v-2zm4 0v2h3v-2zM7 18v2h3v-2zm4 0v2h3v-2zm4 0v2h3v-2zm4 0v2h3v-2zm4 0v2h3v-2zm-12 3v2h11v-2z" style="color:#000;display:inline;overflow:visible;visibility:visible;opacity:.15;fill:#000;fill-opacity:1;fill-rule:nonzero;stroke:none;stroke-width:1;marker:none;enable-background:accumulate"/><path d="M7 11v2h3v-2zm4 0v2h3v-2zm4 0v2h3v-2zm4 0v2h3v-2zm4 0v2h3v-2zM7 14v2h3v-2zm4 0v2h3v-2zm4 0v2h3v-2zm4 0v2h3v-2zm4 0v2h3v-2zM7 17v2h3v-2zm4 0v2h3v-2zm4 0v2h3v-2zm4 0v2h3v-2zm4 0v2h3v-2zm-12 3v2h11v-2z" style="color:#000;display:inline;overflow:visible;visibility:visible;fill:url(#l);fill-opacity:1;fill-rule:nonzero;stroke:none;stroke-width:1;marker:none;enable-background:accumulate"/></svg>