<svg height="32" width="32" xmlns:xlink="http://www.w3.org/1999/xlink" xmlns="http://www.w3.org/2000/svg"><defs><linearGradient id="g"><stop offset="0" style="stop-color:#fff;stop-opacity:1"/><stop offset=".069" style="stop-color:#fff;stop-opacity:.23529412"/><stop offset=".908" style="stop-color:#fff;stop-opacity:.15686275"/><stop offset="1" style="stop-color:#fff;stop-opacity:.39215687"/></linearGradient><linearGradient id="b"><stop offset="0" style="stop-color:#fff;stop-opacity:1"/><stop offset=".073" style="stop-color:#fff;stop-opacity:.23529412"/><stop offset=".908" style="stop-color:#fff;stop-opacity:.15686275"/><stop offset="1" style="stop-color:#fff;stop-opacity:.39215687"/></linearGradient><linearGradient id="h"><stop offset="0" style="stop-color:#181818;stop-opacity:1"/><stop offset="1" style="stop-color:#181818;stop-opacity:0"/></linearGradient><linearGradient gradientUnits="userSpaceOnUse" xlink:href="#a" id="o" y2="39.999" x2="25.058" y1="47.028" x1="25.058"/><linearGradient id="a"><stop offset="0" style="stop-color:#181818;stop-opacity:0"/><stop offset=".5" style="stop-color:#181818;stop-opacity:1"/><stop offset="1" style="stop-color:#181818;stop-opacity:0"/></linearGradient><linearGradient gradientTransform="translate(-.216 -.216) scale(.67568)" gradientUnits="userSpaceOnUse" xlink:href="#b" id="k" y2="41.76" x2="13.594" y1="6.272" x1="13.594"/><linearGradient xlink:href="#c" id="i" gradientUnits="userSpaceOnUse" gradientTransform="matrix(.66466 0 0 .63927 -33.187 -.087)" x1="74.839" y1="4.536" x2="74.839" y2="49.779"/><linearGradient id="c"><stop offset="0" style="stop-color:#f4f4f4;stop-opacity:1"/><stop offset="1" style="stop-color:#dbdbdb;stop-opacity:1"/></linearGradient><linearGradient id="d"><stop offset="0" style="stop-color:#000;stop-opacity:.31782946"/><stop offset="1" style="stop-color:#000;stop-opacity:.24031007"/></linearGradient><linearGradient xlink:href="#d" id="j" gradientUnits="userSpaceOnUse" gradientTransform="matrix(.32898 0 0 .89472 -17.11 -9.242)" x1="72.893" y1="43.74" x2="72.893" y2="12.524"/><linearGradient x1="24" y1="6.24" x2="24" y2="41.76" id="q" xlink:href="#e" gradientUnits="userSpaceOnUse" gradientTransform="matrix(.67568 0 0 .54054 -.216 5.527)"/><linearGradient id="e"><stop style="stop-color:#fff;stop-opacity:1" offset="0"/><stop style="stop-color:#fff;stop-opacity:.23529412" offset=".087"/><stop style="stop-color:#fff;stop-opacity:.15686275" offset=".89"/><stop style="stop-color:#fff;stop-opacity:.39215687" offset="1"/></linearGradient><linearGradient id="f"><stop style="stop-color:#64baff;stop-opacity:1" offset="0"/><stop style="stop-color:#3689e6;stop-opacity:1" offset="1"/></linearGradient><linearGradient xlink:href="#f" id="p" gradientUnits="userSpaceOnUse" gradientTransform="matrix(.4909 0 0 .4 .29 5.7)" x1="31.781" y1="-14.353" x2="31.781" y2="65.627"/><linearGradient xlink:href="#g" id="l" gradientUnits="userSpaceOnUse" gradientTransform="matrix(.6761 0 0 .67568 -.226 -.224)" x1="31.752" y1="9.15" x2="31.752" y2="41.712"/><radialGradient cx="4.993" cy="43.5" r="2.5" fx="4.993" fy="43.5" id="m" xlink:href="#h" gradientUnits="userSpaceOnUse" gradientTransform="matrix(2.00378 0 0 1.4 27.988 -17.4)"/><radialGradient cx="4.993" cy="43.5" r="2.5" fx="4.993" fy="43.5" id="n" xlink:href="#h" gradientUnits="userSpaceOnUse" gradientTransform="matrix(2.00378 0 0 1.4 -20.012 -104.4)"/></defs><path style="color:#000;font-variation-settings:normal;display:inline;overflow:visible;visibility:visible;opacity:1;vector-effect:none;fill:url(#i);fill-opacity:1;stroke:none;stroke-width:.999775;stroke-linecap:butt;stroke-linejoin:miter;stroke-miterlimit:4;stroke-dasharray:none;stroke-dashoffset:0;stroke-opacity:1;-inkscape-stroke:none;marker:none;enable-background:accumulate;stop-color:#000;stop-opacity:1" d="M5.5 3.006A2.477 2.477 0 0 0 3.006 5.5v3.994h25.988V7.5A2.477 2.477 0 0 0 26.5 5.006H15.326c-1.816 0-2.588-.933-3.338-1.508a2.424 2.424 0 0 0-1.488-.492Z" transform="matrix(1.00045 0 0 1 -.007 -.006)"/><path style="color:#000;font-variation-settings:normal;display:inline;overflow:visible;visibility:visible;opacity:1;vector-effect:none;fill:none;fill-opacity:1;stroke:url(#j);stroke-width:.999918;stroke-linecap:butt;stroke-linejoin:round;stroke-miterlimit:4;stroke-dasharray:none;stroke-dashoffset:0;stroke-opacity:1;-inkscape-stroke:none;marker:none;enable-background:accumulate;stop-color:#000;stop-opacity:1" d="M29.5 10V7.5c0-1.662-1.338-3-3-3H15.326c-1.66 0-2.207-.773-3.028-1.403A2.94 2.94 0 0 0 10.5 2.5h-5c-1.662 0-3 1.338-3 3V10"/><path style="color:#000;font-variation-settings:normal;display:inline;overflow:visible;visibility:visible;opacity:1;vector-effect:none;fill:none;fill-opacity:1;stroke:url(#k);stroke-width:.999684;stroke-linecap:round;stroke-linejoin:round;stroke-miterlimit:4;stroke-dasharray:none;stroke-dashoffset:0;stroke-opacity:1;-inkscape-stroke:none;marker:none;enable-background:accumulate;stop-color:#000;stop-opacity:1" d="M15.327 5.508c-1.972 0-2.965-1.091-3.643-1.611a1.924 1.924 0 0 0-1.184-.39h-5c-1.12 0-1.992.872-1.992 1.993v2.984" transform="matrix(1.00063 0 0 1 -.01 -.008)"/><path style="color:#000;font-variation-settings:normal;display:inline;overflow:visible;visibility:visible;vector-effect:none;fill:none;fill-opacity:1;stroke:url(#l);stroke-width:.999998;stroke-linecap:round;stroke-linejoin:round;stroke-miterlimit:4;stroke-dasharray:none;stroke-dashoffset:0;stroke-opacity:1;-inkscape-stroke:none;marker:none;enable-background:accumulate;stop-color:#000" d="M28.5 8.477v-.985A1.967 1.967 0 0 0 26.506 5.5h-11.18"/><path style="color:#000;font-variation-settings:normal;display:inline;overflow:visible;visibility:visible;opacity:.05;vector-effect:none;fill:#002e99;fill-opacity:1;fill-rule:nonzero;stroke:none;stroke-width:1;stroke-linecap:butt;stroke-linejoin:miter;stroke-miterlimit:4;stroke-dasharray:none;stroke-dashoffset:0;stroke-opacity:1;-inkscape-stroke:none;marker:none;enable-background:accumulate;stop-color:#000;stop-opacity:1" d="M26.494 4.98c-.13 0-.263.007-.394.02-6.884.001-13.767-.003-20.65.002-1.413-.022-2.7.816-3.403 1.996V10a.454.454 0 0 0 .453.453h27a.454.454 0 0 0 .453-.453V7.5c0-.209-.02-.413-.057-.611-.726-1.136-2.034-1.901-3.402-1.909z"/><rect style="color:#000;font-variation-settings:normal;display:inline;overflow:visible;visibility:visible;opacity:.1;vector-effect:none;fill:#002e99;fill-opacity:1;fill-rule:nonzero;stroke:none;stroke-width:1;stroke-linecap:butt;stroke-linejoin:miter;stroke-miterlimit:4;stroke-dasharray:none;stroke-dashoffset:0;stroke-opacity:1;-inkscape-stroke:none;marker:none;enable-background:accumulate;stop-color:#000;stop-opacity:1" y="6" x="2.5" ry="3" rx="3" height="22" width="27"/><g style="display:inline"><g style="opacity:.4"><path style="fill:url(#m);fill-opacity:1;stroke:none" d="M38 40h5v7h-5z" transform="matrix(.73684 0 0 .42857 -1.684 10.857)"/><path style="fill:url(#n);fill-opacity:1;stroke:none" transform="matrix(-.73684 0 0 -.42857 -1.684 10.857)" d="M-10-47h5v7h-5z"/><path style="fill:url(#o);fill-opacity:1;stroke:none" d="M10 40h28v7H10z" transform="matrix(.73684 0 0 .42857 -1.684 10.857)"/></g></g><rect style="color:#000;font-variation-settings:normal;display:inline;overflow:visible;visibility:visible;vector-effect:none;fill:url(#p);fill-opacity:1;fill-rule:nonzero;stroke:#0d52bf;stroke-width:.999999;stroke-linecap:butt;stroke-linejoin:miter;stroke-miterlimit:4;stroke-dasharray:none;stroke-dashoffset:0;stroke-opacity:.5;marker:none;enable-background:accumulate;stop-color:#000;opacity:1;-inkscape-stroke:none;stop-opacity:1" y="7.5" x="2.5" ry="3" rx="3" height="22" width="27"/><rect style="opacity:.35;fill:none;stroke:url(#q);stroke-width:.999996;stroke-linecap:round;stroke-linejoin:round;stroke-miterlimit:4;stroke-dasharray:none;stroke-dashoffset:0;stroke-opacity:1" y="8.5" x="3.5" ry="2" rx="2" height="20" width="25"/><path style="color:#000;line-height:normal;font-variant-ligatures:normal;font-variant-position:normal;font-variant-caps:normal;font-variant-numeric:normal;font-variant-alternates:normal;font-feature-settings:normal;font-variation-settings:normal;text-indent:0;text-align:start;text-decoration-line:none;text-decoration-style:solid;text-decoration-color:#000;text-transform:none;text-orientation:mixed;shape-padding:0;opacity:.07;isolation:auto;mix-blend-mode:normal;vector-effect:none;fill:#002e99;fill-opacity:1;stroke:none;stroke-width:1.7;stroke-linecap:butt;stroke-linejoin:miter;stroke-miterlimit:4;stroke-dasharray:none;stroke-dashoffset:0;stroke-opacity:1;-inkscape-stroke:none;marker:none;stop-color:#000;stop-opacity:1" d="M14.998 12.309c-3.176-.043-6.076 2.678-6.198 5.858-.277 3.172 2.275 6.232 5.433 6.571 1.23.146 2.525-.047 3.622-.633 1.122 1.056 2.133 2.248 3.32 3.223.778.585 2.004.38 2.585-.396.58-.67.58-1.774-.014-2.448-1.007-1.074-2.088-2.088-3.123-3.14 1.307-2.414.683-5.655-1.404-7.438a6.252 6.252 0 0 0-4.221-1.597zm.732 3.275c1.907.38 3.004 2.764 2.005 4.443-.868 1.704-3.381 2.095-4.738.766-1.542-1.276-1.222-3.997.566-4.89.651-.373 1.435-.458 2.167-.319z"/><path d="M15.049 13.307c-2.898 0-5.267 2.36-5.267 5.245 0 2.886 2.369 5.245 5.267 5.245a5.229 5.207 0 0 0 2.98-.93l3.525 3.512a.958.954 0 1 0 1.354-1.348l-3.525-3.512a5.229 5.207 0 0 0 .932-2.967c0-2.886-2.369-5.245-5.266-5.245zm0 1.192a4.07 4.053 0 0 1 4.07 4.053 4.07 4.053 0 0 1-4.07 4.053 4.07 4.053 0 0 1-4.07-4.053 4.07 4.053 0 0 1 4.07-4.053z" fill="#666" font-family="sans-serif" font-weight="400" overflow="visible" style="color:#000;line-height:normal;font-variant-ligatures:normal;font-variant-position:normal;font-variant-caps:normal;font-variant-numeric:normal;font-variant-alternates:normal;font-feature-settings:normal;font-variation-settings:normal;text-indent:0;text-align:start;text-decoration-line:none;text-decoration-style:solid;text-decoration-color:#000;text-transform:none;text-orientation:mixed;shape-padding:0;isolation:auto;mix-blend-mode:normal;fill:#002e99;fill-opacity:1;stroke:none;stroke-width:1.7;stroke-linecap:butt;stroke-linejoin:miter;stroke-miterlimit:4;stroke-dasharray:none;stroke-dashoffset:0;stroke-opacity:1;marker:none;stop-color:#000;opacity:.15;vector-effect:none;-inkscape-stroke:none;stop-opacity:1"/><path d="M15.049 12.307c-2.898 0-5.267 2.36-5.267 5.246 0 2.885 2.369 5.245 5.267 5.245a5.229 5.207 0 0 0 2.98-.93l3.525 3.511a.958.954 0 1 0 1.354-1.348l-3.525-3.511a5.229 5.207 0 0 0 .932-2.967c0-2.886-2.369-5.246-5.266-5.246zm0 1.193a4.07 4.053 0 0 1 4.07 4.053 4.07 4.053 0 0 1-4.07 4.053 4.07 4.053 0 0 1-4.07-4.053 4.07 4.053 0 0 1 4.07-4.053z" fill="#666" font-family="sans-serif" font-weight="400" overflow="visible" style="color:#000;line-height:normal;font-variant-ligatures:normal;font-variant-position:normal;font-variant-caps:normal;font-variant-numeric:normal;font-variant-alternates:normal;font-feature-settings:normal;font-variation-settings:normal;text-indent:0;text-align:start;text-decoration-line:none;text-decoration-style:solid;text-decoration-color:#000;text-transform:none;text-orientation:mixed;shape-padding:0;isolation:auto;mix-blend-mode:normal;fill:#fafafa;fill-opacity:1;stroke:none;stroke-width:1.7;stroke-linecap:butt;stroke-linejoin:miter;stroke-miterlimit:4;stroke-dasharray:none;stroke-dashoffset:0;stroke-opacity:1;marker:none;stop-color:#000"/></svg>