<?xml version="1.0" encoding="UTF-8" standalone="no"?>
<!-- Created with Inkscape (http://www.inkscape.org/) -->

<svg
   xmlns:dc="http://purl.org/dc/elements/1.1/"
   xmlns:cc="http://creativecommons.org/ns#"
   xmlns:rdf="http://www.w3.org/1999/02/22-rdf-syntax-ns#"
   xmlns:svg="http://www.w3.org/2000/svg"
   xmlns="http://www.w3.org/2000/svg"
   xmlns:xlink="http://www.w3.org/1999/xlink"
   xmlns:inkscape="http://www.inkscape.org/namespaces/inkscape"
   version="1.1"
   width="32"
   height="32"
   id="svg4106">
  <defs
     id="defs4108">
    <linearGradient
       x1="18.775953"
       y1="4.0378027"
       x2="18.203465"
       y2="45.962208"
       id="linearGradient3406"
       xlink:href="#linearGradient6036"
       gradientUnits="userSpaceOnUse"
       gradientTransform="matrix(0.3283222,0,0,-0.3283221,8.0063392,24.208052)" />
    <linearGradient
       id="linearGradient6036">
      <stop
         id="stop6038"
         style="stop-color:#ffffff;stop-opacity:1"
         offset="0" />
      <stop
         id="stop6040"
         style="stop-color:#ffffff;stop-opacity:0"
         offset="1" />
    </linearGradient>
    <linearGradient
       x1="71.204407"
       y1="6.2375584"
       x2="71.204407"
       y2="44.340794"
       id="linearGradient3199"
       xlink:href="#linearGradient4011"
       gradientUnits="userSpaceOnUse"
       gradientTransform="matrix(0.67567564,0,0,0.67567564,-32.468594,-1.1332689)" />
    <linearGradient
       id="linearGradient4011">
      <stop
         id="stop4013"
         style="stop-color:#ffffff;stop-opacity:1"
         offset="0" />
      <stop
         id="stop4015"
         style="stop-color:#ffffff;stop-opacity:0.23529412"
         offset="0.507761" />
      <stop
         id="stop4017"
         style="stop-color:#ffffff;stop-opacity:0.15686275"
         offset="0.83456558" />
      <stop
         id="stop4019"
         style="stop-color:#ffffff;stop-opacity:0.39215687"
         offset="1" />
    </linearGradient>
    <linearGradient
       x1="21.448364"
       y1="15.5"
       x2="21.448364"
       y2="32.509201"
       id="linearGradient3427"
       xlink:href="#linearGradient3428"
       gradientUnits="userSpaceOnUse"
       gradientTransform="matrix(0.6875,0,0,0.6875,-0.5000014,-0.5000005)" />
    <linearGradient
       id="linearGradient3428">
      <stop
         id="stop3430"
         style="stop-color:#aaaaaa;stop-opacity:1"
         offset="0" />
      <stop
         id="stop3432"
         style="stop-color:#d4d4d4;stop-opacity:1"
         offset="1" />
    </linearGradient>
    <linearGradient
       x1="20.018932"
       y1="3"
       x2="20.018932"
       y2="45.17627"
       id="linearGradient3409"
       xlink:href="#linearGradient3772"
       gradientUnits="userSpaceOnUse"
       gradientTransform="matrix(0.6585366,0,0,0.6585366,0.195122,0.195122)" />
    <linearGradient
       id="linearGradient3772">
      <stop
         id="stop3774"
         style="stop-color:#b4b4b4;stop-opacity:1"
         offset="0" />
      <stop
         id="stop3776"
         style="stop-color:#969696;stop-opacity:1"
         offset="1" />
    </linearGradient>
    <linearGradient
       x1="20.580074"
       y1="10.774516"
       x2="24.27351"
       y2="9.8622112"
       id="linearGradient3436"
       xlink:href="#linearGradient3487"
       gradientUnits="userSpaceOnUse"
       spreadMethod="reflect" />
    <linearGradient
       id="linearGradient3487">
      <stop
         id="stop3489"
         style="stop-color:#e6cde2;stop-opacity:1"
         offset="0" />
      <stop
         id="stop3491"
         style="stop-color:#e6cde2;stop-opacity:0"
         offset="1" />
    </linearGradient>
    <linearGradient
       x1="17.494959"
       y1="11.200086"
       x2="21.047453"
       y2="9.7956104"
       id="linearGradient3438"
       xlink:href="#linearGradient3495"
       gradientUnits="userSpaceOnUse"
       spreadMethod="reflect" />
    <linearGradient
       id="linearGradient3495">
      <stop
         id="stop3497"
         style="stop-color:#c1cbe4;stop-opacity:1"
         offset="0" />
      <stop
         id="stop3499"
         style="stop-color:#c1cbe4;stop-opacity:0"
         offset="1" />
    </linearGradient>
    <linearGradient
       x1="14.084608"
       y1="13.045606"
       x2="16.994024"
       y2="10.732353"
       id="linearGradient3440"
       xlink:href="#linearGradient3503"
       gradientUnits="userSpaceOnUse"
       spreadMethod="reflect" />
    <linearGradient
       id="linearGradient3503">
      <stop
         id="stop3505"
         style="stop-color:#c4ebdd;stop-opacity:1"
         offset="0" />
      <stop
         id="stop3507"
         style="stop-color:#c4ebdd;stop-opacity:0"
         offset="1" />
    </linearGradient>
    <linearGradient
       x1="12.371647"
       y1="16.188046"
       x2="14.609327"
       y2="13.461712"
       id="linearGradient3442"
       xlink:href="#linearGradient3511"
       gradientUnits="userSpaceOnUse"
       spreadMethod="reflect" />
    <linearGradient
       id="linearGradient3511">
      <stop
         id="stop3513"
         style="stop-color:#ebeec7;stop-opacity:1"
         offset="0" />
      <stop
         id="stop3515"
         style="stop-color:#ebeec7;stop-opacity:0"
         offset="1" />
    </linearGradient>
    <linearGradient
       x1="10.609375"
       y1="17.886322"
       x2="9.7297754"
       y2="20.612656"
       id="linearGradient3444"
       xlink:href="#linearGradient3519"
       gradientUnits="userSpaceOnUse"
       spreadMethod="reflect" />
    <linearGradient
       id="linearGradient3519">
      <stop
         id="stop3521"
         style="stop-color:#fcd9cd;stop-opacity:1"
         offset="0" />
      <stop
         id="stop3523"
         style="stop-color:#fcd9cd;stop-opacity:0"
         offset="1" />
    </linearGradient>
    <linearGradient
       x1="20.580074"
       y1="10.774516"
       x2="24.27351"
       y2="9.8622112"
       id="linearGradient3446"
       xlink:href="#linearGradient3487"
       gradientUnits="userSpaceOnUse"
       spreadMethod="reflect" />
    <linearGradient
       x1="17.494959"
       y1="11.200086"
       x2="21.047453"
       y2="9.7956104"
       id="linearGradient3448"
       xlink:href="#linearGradient3495"
       gradientUnits="userSpaceOnUse"
       spreadMethod="reflect" />
    <linearGradient
       x1="14.084608"
       y1="13.045606"
       x2="16.994024"
       y2="10.732353"
       id="linearGradient3450"
       xlink:href="#linearGradient3503"
       gradientUnits="userSpaceOnUse"
       spreadMethod="reflect" />
    <linearGradient
       x1="12.371647"
       y1="16.188046"
       x2="14.609327"
       y2="13.461712"
       id="linearGradient3452"
       xlink:href="#linearGradient3511"
       gradientUnits="userSpaceOnUse"
       spreadMethod="reflect" />
    <linearGradient
       x1="10.609375"
       y1="17.886322"
       x2="9.7297754"
       y2="20.612656"
       id="linearGradient3454"
       xlink:href="#linearGradient3519"
       gradientUnits="userSpaceOnUse"
       spreadMethod="reflect" />
    <linearGradient
       x1="12.2744"
       y1="32.4165"
       x2="35.391201"
       y2="14.2033"
       id="linearGradient3431"
       xlink:href="#linearGradient3263"
       gradientUnits="userSpaceOnUse"
       gradientTransform="matrix(0,0.7714354,-0.7714354,0,33.82016,-2.5144531)" />
    <linearGradient
       x1="12.2744"
       y1="32.4165"
       x2="35.391201"
       y2="14.2033"
       id="linearGradient3263"
       gradientUnits="userSpaceOnUse">
      <stop
         id="stop3265"
         style="stop-color:#dedbde;stop-opacity:1"
         offset="0" />
      <stop
         id="stop3267"
         style="stop-color:#e6e6e6;stop-opacity:1"
         offset="0.5" />
      <stop
         id="stop3269"
         style="stop-color:#d2d2d2;stop-opacity:1"
         offset="1" />
    </linearGradient>
    <linearGradient
       id="linearGradient23419">
      <stop
         id="stop23421"
         style="stop-color:#000000;stop-opacity:1"
         offset="0" />
      <stop
         id="stop23423"
         style="stop-color:#000000;stop-opacity:0"
         offset="1" />
    </linearGradient>
    <radialGradient
       cx="23.334524"
       cy="41.63604"
       r="22.627417"
       fx="23.334524"
       fy="41.63604"
       id="radialGradient4104"
       xlink:href="#linearGradient23419"
       gradientUnits="userSpaceOnUse"
       gradientTransform="matrix(0.61871843,0,0,0.19951815,1.5624994,18.177856)" />
    <linearGradient
       x1="24"
       y1="44"
       x2="24"
       y2="3.8990016"
       id="linearGradient3121"
       xlink:href="#linearGradient3707-319-631-407-324-3-8"
       gradientUnits="userSpaceOnUse"
       gradientTransform="matrix(0.38465107,0,0,0.38465106,-1.231625,-1.2316257)" />
    <radialGradient
       cx="5.7800279"
       cy="8.4497671"
       r="19.99999"
       fx="5.7800279"
       fy="8.4497671"
       id="radialGradient3119"
       xlink:href="#linearGradient2867-449-88-871-390-598-476-591-434-148-57-177-3-8"
       gradientUnits="userSpaceOnUse"
       gradientTransform="matrix(0,0.89892574,-0.95095622,-1.6561642e-8,16.035401,-6.0146846)" />
    <linearGradient
       id="linearGradient3707-319-631-407-324-3-8">
      <stop
         id="stop3760-7-3"
         style="stop-color:#185f9a;stop-opacity:1"
         offset="0" />
      <stop
         id="stop3762-8-4"
         style="stop-color:#599ec9;stop-opacity:1"
         offset="1" />
    </linearGradient>
    <linearGradient
       id="linearGradient2867-449-88-871-390-598-476-591-434-148-57-177-3-8">
      <stop
         id="stop3750-8-9"
         style="stop-color:#90dbec;stop-opacity:1"
         offset="0" />
      <stop
         id="stop3752-3-2"
         style="stop-color:#55c1ec;stop-opacity:1"
         offset="0.26238" />
      <stop
         id="stop3754-7-2"
         style="stop-color:#3689e6;stop-opacity:1"
         offset="0.704952" />
      <stop
         id="stop3756-9-3"
         style="stop-color:#2b63a0;stop-opacity:1"
         offset="1" />
    </linearGradient>
    <linearGradient
       id="linearGradient4011-7">
      <stop
         id="stop4013-1"
         style="stop-color:#ffffff;stop-opacity:1"
         offset="0" />
      <stop
         id="stop4015-9"
         style="stop-color:#ffffff;stop-opacity:0.23529412"
         offset="0.507761" />
      <stop
         id="stop4017-8"
         style="stop-color:#ffffff;stop-opacity:0.15686275"
         offset="0.83456558" />
      <stop
         id="stop4019-9"
         style="stop-color:#ffffff;stop-opacity:0.39215687"
         offset="1" />
    </linearGradient>
    <linearGradient
       x1="71.204407"
       y1="6.2375584"
       x2="71.204407"
       y2="44.340794"
       id="linearGradient3071"
       xlink:href="#linearGradient4011-7"
       gradientUnits="userSpaceOnUse"
       gradientTransform="matrix(0.35135136,0,0,0.35135136,-17.203671,-0.90930013)" />
    <linearGradient
       id="linearGradient3707-319-631-407-324-3-8-2">
      <stop
         id="stop3760-7-3-6"
         style="stop-color:#185f9a;stop-opacity:1"
         offset="0" />
      <stop
         id="stop3762-8-4-8"
         style="stop-color:#599ec9;stop-opacity:1"
         offset="1" />
    </linearGradient>
    <linearGradient
       x1="7.8555918"
       y1="15.85593"
       x2="7.8555918"
       y2="-0.12225635"
       id="linearGradient4037-4"
       xlink:href="#linearGradient3707-319-631-407-324-3-8-2"
       gradientUnits="userSpaceOnUse"
       gradientTransform="translate(0,1.155436)" />
  </defs>
  <metadata
     id="metadata4111">
    <rdf:RDF>
      <cc:Work
         rdf:about="">
        <dc:format>image/svg+xml</dc:format>
        <dc:type
           rdf:resource="http://purl.org/dc/dcmitype/StillImage" />
        <dc:title />
      </cc:Work>
    </rdf:RDF>
  </metadata>
  <g
     id="layer1">
    <path
       d="M 30,26.484999 C 30.000722,28.978497 23.732497,31 16,31 8.2675033,31 1.999279,28.978497 2.0000001,26.484999 1.999279,23.991503 8.2675033,21.97 16,21.97 c 7.732497,0 14.000722,2.021503 14,4.514999 z"
       inkscape:connector-curvature="0"
       id="path23417"
       style="opacity:0.3;fill:url(#radialGradient4104);fill-opacity:1;fill-rule:evenodd;stroke:none;stroke-width:2;marker:none;visibility:visible;display:inline;overflow:visible" />
    <path
       d="M 29.5,16 C 29.5,8.5170745 23.482924,2.5 16,2.5 8.5170738,2.5 2.5,8.5170751 2.5,16 c -1.3e-6,7.482925 6.0170745,13.5 13.5,13.5 7.482924,-1e-6 13.5,-6.017074 13.5,-13.5 z m -8.231707,0 c 0,3.044415 -2.223878,5.268293 -5.268293,5.268293 -3.044414,0 -5.268293,-2.223878 -5.268293,-5.268293 0,-3.044414 2.223879,-5.268293 5.268293,-5.268293 3.044415,0 5.268293,2.223879 5.268293,5.268293 z"
       inkscape:connector-curvature="0"
       id="path2781"
       style="fill:url(#linearGradient3431);fill-rule:nonzero;stroke:none" />
    <path
       d="m 16,10.731707 c -2.908097,0 -5.268293,2.360196 -5.268293,5.268293 0,2.908098 2.360196,5.268293 5.268293,5.268293 2.908098,0 5.268293,-2.360195 5.268293,-5.268293 0,-2.908097 -2.360195,-5.268293 -5.268293,-5.268293 z m 0,2.634147 c 1.454049,0 2.634147,1.180098 2.634147,2.634146 0,1.454049 -1.180098,2.634147 -2.634147,2.634147 -1.454048,0 -2.634146,-1.180098 -2.634146,-2.634147 0,-1.454048 1.180098,-2.634146 2.634146,-2.634146 z"
       inkscape:connector-curvature="0"
       id="path2474"
       style="opacity:0.5;fill:#ffffff;fill-opacity:1;fill-rule:nonzero;stroke:none;stroke-width:1;marker:none;visibility:visible;display:inline;overflow:visible;enable-background:accumulate" />
    <g
       transform="matrix(0.6585366,0,0,0.6585366,0.195122,0.195122)"
       id="g3527">
      <path
         d="m 24,3.5 c -2.975804,0 -5.797406,0.6208152 -8.34375,1.75 L 20.625,16.34375 C 21.660403,15.885186 22.795334,15.625 24,15.625 c 0.03206,0 0.06178,-3.6e-4 0.09375,0 l 0,-12.125 C 24.06248,3.4998614 24.0313,3.5 24,3.5 z"
         inkscape:connector-curvature="0"
         transform="matrix(0.9996011,0.02824295,-0.02824295,0.9996011,0.6924114,-0.6708346)"
         id="path3296"
         style="opacity:0.8;fill:url(#linearGradient3446);fill-opacity:1;fill-rule:nonzero;stroke:none" />
      <path
         d="m 19.597283,3.9975155 c -2.9067,0.6375811 -5.529765,1.8485223 -7.775043,3.4970525 l 7.230257,9.771547 c 0.913109,-0.669755 1.965938,-1.167064 3.142629,-1.425169 0.03132,-0.0069 0.06026,-0.01359 0.09157,-0.02009 L 19.688856,3.9774292 c -0.03058,0.00656 -0.061,0.013379 -0.09157,0.020086 z"
         inkscape:connector-curvature="0"
         id="path3308"
         style="opacity:0.8;fill:url(#linearGradient3448);fill-opacity:1;fill-rule:nonzero;stroke:none" />
      <path
         d="M 14.558173,5.8448691 C 11.915535,7.2130345 9.6952631,9.061613 7.9531621,11.235092 l 9.5129549,7.567261 c 0.70865,-0.883264 1.596891,-1.636119 2.666685,-2.18998 0.02847,-0.01474 0.05469,-0.02872 0.08325,-0.0431 L 14.641427,5.8017664 c -0.02783,0.014254 -0.05545,0.02871 -0.08325,0.043103 z"
         inkscape:connector-curvature="0"
         id="path3310"
         style="opacity:0.8;fill:url(#linearGradient3450);fill-opacity:1;fill-rule:nonzero;stroke:none" />
      <path
         d="M 10.168897,8.9334932 C 7.970412,10.939005 6.3042413,13.299243 5.1840387,15.849551 L 16.331399,20.69683 c 0.455898,-1.036579 1.119019,-1.993675 2.009011,-2.805547 0.02369,-0.02161 0.0454,-0.0419 0.06926,-0.06318 L 10.238158,8.8703115 c -0.0232,0.020972 -0.04613,0.042084 -0.06926,0.063182 z"
         inkscape:connector-curvature="0"
         id="path3312"
         style="opacity:0.8;fill:url(#linearGradient3452);fill-opacity:1;fill-rule:nonzero;stroke:none" />
      <path
         d="m 6.78125,12.96875 c -0.016978,0.02626 -0.045621,0.06739 -0.0625,0.09375 -1.1482224,1.793482 -1.9616625,3.681269 -2.5,5.625 l 11.75,3.125 C 16.184264,21.049497 16.486796,20.297733 16.9375,19.59375 16.95479,19.56675 16.98246,19.52673 17,19.5 L 6.78125,12.96875 z"
         inkscape:connector-curvature="0"
         id="path3314"
         style="opacity:0.8;fill:url(#linearGradient3454);fill-opacity:1;fill-rule:nonzero;stroke:none" />
    </g>
    <g
       transform="matrix(-0.6585366,0,0,-0.6585366,31.804879,31.804879)"
       id="g3642"
       style="opacity:0.8">
      <path
         d="m 24,3.5 c -2.975804,0 -5.797406,0.6208152 -8.34375,1.75 L 20.625,16.34375 C 21.660403,15.885186 22.795334,15.625 24,15.625 c 0.03206,0 0.06178,-3.6e-4 0.09375,0 l 0,-12.125 C 24.06248,3.4998614 24.0313,3.5 24,3.5 z"
         inkscape:connector-curvature="0"
         transform="matrix(0.9996011,0.02824295,-0.02824295,0.9996011,0.6924114,-0.6708346)"
         id="path3644"
         style="opacity:0.8;fill:url(#linearGradient3436);fill-opacity:1;fill-rule:nonzero;stroke:none" />
      <path
         d="m 19.597283,3.9975155 c -2.9067,0.6375811 -5.529765,1.8485223 -7.775043,3.4970525 l 7.230257,9.771547 c 0.913109,-0.669755 1.965938,-1.167064 3.142629,-1.425169 0.03132,-0.0069 0.06026,-0.01359 0.09157,-0.02009 L 19.688856,3.9774292 c -0.03058,0.00656 -0.061,0.013379 -0.09157,0.020086 z"
         inkscape:connector-curvature="0"
         id="path3646"
         style="opacity:0.8;fill:url(#linearGradient3438);fill-opacity:1;fill-rule:nonzero;stroke:none" />
      <path
         d="M 14.558173,5.8448691 C 11.915535,7.2130345 9.6952631,9.061613 7.9531621,11.235092 l 9.5129549,7.567261 c 0.70865,-0.883264 1.596891,-1.636119 2.666685,-2.18998 0.02847,-0.01474 0.05469,-0.02872 0.08325,-0.0431 L 14.641427,5.8017664 c -0.02783,0.014254 -0.05545,0.02871 -0.08325,0.043103 z"
         inkscape:connector-curvature="0"
         id="path3648"
         style="opacity:0.8;fill:url(#linearGradient3440);fill-opacity:1;fill-rule:nonzero;stroke:none" />
      <path
         d="M 10.168897,8.9334932 C 7.970412,10.939005 6.3042413,13.299243 5.1840387,15.849551 L 16.331399,20.69683 c 0.455898,-1.036579 1.119019,-1.993675 2.009011,-2.805547 0.02369,-0.02161 0.0454,-0.0419 0.06926,-0.06318 L 10.238158,8.8703115 c -0.0232,0.020972 -0.04613,0.042084 -0.06926,0.063182 z"
         inkscape:connector-curvature="0"
         id="path3650"
         style="opacity:0.8;fill:url(#linearGradient3442);fill-opacity:1;fill-rule:nonzero;stroke:none" />
      <path
         d="m 6.78125,12.96875 c -0.016978,0.02626 -0.045621,0.06739 -0.0625,0.09375 -1.1482224,1.793482 -1.9616625,3.681269 -2.5,5.625 l 11.75,3.125 C 16.184264,21.049497 16.486796,20.297733 16.9375,19.59375 16.95479,19.56675 16.98246,19.52673 17,19.5 L 6.78125,12.96875 z"
         inkscape:connector-curvature="0"
         id="path3652"
         style="opacity:0.8;fill:url(#linearGradient3444);fill-opacity:1;fill-rule:nonzero;stroke:none" />
    </g>
    <path
       d="M 16,2.5 C 8.5170743,2.5 2.5,8.5170756 2.5,16 2.5,23.482926 8.517075,29.5 16,29.5 23.482925,29.5 29.499999,23.482926 29.499999,16 29.499998,8.5170763 23.482926,2.5 16,2.5 z"
       inkscape:connector-curvature="0"
       id="path3287"
       style="fill:none;stroke:url(#linearGradient3409);stroke-width:1;stroke-miterlimit:4;stroke-opacity:1" />
    <path
       d="M 15.999999,10.5 C 12.964,10.5 10.5,12.964001 10.5,16 c 0,3.036 2.464,5.5 5.499999,5.5 3.036,0 5.5,-2.464 5.5,-5.5 0,-3.035999 -2.464,-5.5 -5.5,-5.5 z m 0,2.75 c 1.518001,0 2.75,1.232001 2.75,2.75 0,1.518001 -1.231999,2.75 -2.75,2.75 -1.517999,0 -2.75,-1.231999 -2.75,-2.75 0,-1.517999 1.232001,-2.75 2.75,-2.75 z"
       inkscape:connector-curvature="0"
       id="path3418"
       style="fill:none;stroke:url(#linearGradient3427);stroke-width:0.99999994;stroke-linecap:butt;stroke-linejoin:round;stroke-miterlimit:4;stroke-opacity:1;stroke-dasharray:none;stroke-dashoffset:0;marker:none;visibility:visible;display:inline;overflow:visible;enable-background:accumulate" />
    <path
       d="M 28.5,15.999557 C 28.5,22.903339 22.903147,28.5 16.000158,28.5 9.096537,28.5 3.5,22.903276 3.5,15.999557 3.5,9.0960941 9.096537,3.5000011 16.000158,3.5000011 22.903147,3.5000011 28.5,9.0960941 28.5,15.999557 l 0,0 z"
       inkscape:connector-curvature="0"
       id="path8655"
       style="opacity:0.55;color:#000000;fill:none;stroke:url(#linearGradient3199);stroke-width:0.99999994;stroke-linecap:round;stroke-linejoin:round;stroke-miterlimit:4;stroke-opacity:1;stroke-dasharray:none;stroke-dashoffset:0;marker:none;visibility:visible;display:inline;overflow:visible;enable-background:accumulate" />
    <path
       d="M 15.999999,22.5 C 12.397142,22.5 9.5,19.602858 9.5,16.000001 c 0,-3.602858 2.897142,-6.5000015 6.499999,-6.5000015 3.60286,0 6.5,2.8971435 6.5,6.5000015 0,3.602857 -2.89714,6.499999 -6.5,6.499999 l 0,0 0,0 z"
       inkscape:connector-curvature="0"
       id="path3281"
       style="opacity:0.4;fill:none;stroke:url(#linearGradient3406);stroke-width:0.99999994;stroke-miterlimit:4;stroke-opacity:1" />
  </g>
  <g
     transform="translate(16,16)"
     id="layer1-5">
    <path
       d="m 8.000001,0.49999997 c -4.138241,0 -7.50000103,3.36175853 -7.50000103,7.49999993 C 0.49999997,12.138242 3.86176,15.500001 8.000001,15.5 12.13824,15.5 15.500004,12.138242 15.5,7.9999999 15.5,3.8617585 12.13824,0.49999997 8.000001,0.49999997 z"
       inkscape:connector-curvature="0"
       id="path2555-7"
       style="color:#000000;fill:url(#radialGradient3119);fill-opacity:1;fill-rule:nonzero;stroke:url(#linearGradient3121);stroke-width:0.99999994;stroke-linecap:round;stroke-linejoin:round;stroke-miterlimit:4;stroke-opacity:1;stroke-dasharray:none;stroke-dashoffset:0;marker:none;visibility:visible;display:inline;overflow:visible;enable-background:accumulate" />
    <path
       d="M 14.5,7.999769 C 14.5,11.589737 11.589636,14.5 8.0000824,14.5 4.4101993,14.5 1.5,11.589703 1.5,7.999769 1.5,4.4099697 4.4101993,1.5000003 8.0000824,1.5000003 11.589636,1.5000003 14.5,4.4099697 14.5,7.999769 l 0,0 z"
       inkscape:connector-curvature="0"
       id="path8655-6"
       style="opacity:0.5;color:#000000;fill:none;stroke:url(#linearGradient3071);stroke-width:0.99999994;stroke-linecap:round;stroke-linejoin:round;stroke-miterlimit:4;stroke-opacity:1;stroke-dasharray:none;stroke-dashoffset:0;marker:none;visibility:visible;display:inline;overflow:visible;enable-background:accumulate" />
    <path
       d="M 7,5 7,9 4,9 8,13 12,9 9,9 9,5 z"
       inkscape:connector-curvature="0"
       id="rect3005-8"
       style="color:#000000;fill:url(#linearGradient4037-4);fill-opacity:1;fill-rule:nonzero;stroke:none;stroke-width:1;marker:none;visibility:visible;display:inline;overflow:visible;enable-background:accumulate" />
    <path
       d="M 7,4 7,8 4,8 8,12 12,8 9,8 9,4 z"
       inkscape:connector-curvature="0"
       id="rect3005"
       style="color:#000000;fill:#ffffff;fill-opacity:1;fill-rule:nonzero;stroke:none;stroke-width:1;marker:none;visibility:visible;display:inline;overflow:visible;enable-background:accumulate" />
  </g>
</svg>
