<?xml version="1.0" encoding="UTF-8" standalone="no"?>
<!-- Created with Inkscape (http://www.inkscape.org/) -->

<svg
   xmlns:dc="http://purl.org/dc/elements/1.1/"
   xmlns:cc="http://creativecommons.org/ns#"
   xmlns:rdf="http://www.w3.org/1999/02/22-rdf-syntax-ns#"
   xmlns:svg="http://www.w3.org/2000/svg"
   xmlns="http://www.w3.org/2000/svg"
   xmlns:inkscape="http://www.inkscape.org/namespaces/inkscape"
   version="1.1"
   width="16"
   height="16"
   id="svg3004">
  <defs
     id="defs3006" />
  <metadata
     id="metadata3009">
    <rdf:RDF>
      <cc:Work
         rdf:about="">
        <dc:format>image/svg+xml</dc:format>
        <dc:type
           rdf:resource="http://purl.org/dc/dcmitype/StillImage" />
        <dc:title />
      </cc:Work>
    </rdf:RDF>
  </metadata>
  <g
     transform="translate(-3,3)"
     id="layer1"
     style="color:#bebebe;fill:#bebebe;fill-opacity:1;fill-rule:nonzero;stroke-width:1;stroke-linecap:butt;stroke-linejoin:miter;stroke-miterlimit:4;stroke-opacity:1;stroke-dasharray:none;stroke-dashoffset:0;marker:none;visibility:visible;display:inline;overflow:visible;enable-background:accumulate">
    <path
       d="M 4,0 C 3.446,0 3,0.446 3,1 l 0,8 c 0,0.554 0.446,1 1,1 l 12,0 c 0.554,0 1,-0.446 1,-1 l 0,-2 1,0 c 0.554,0 1,-0.446 1,-1 L 19,4 C 19,3.446 18.554,3 18,3 L 17,3 17,1 C 17,0.446 16.554,0 16,0 z m 0.5,1 11,0 C 15.777,1 16,1.223 16,1.5 l 0,7 C 16,8.777 15.777,9 15.5,9 L 4.5,9 C 4.223,9 4,8.777 4,8.5 l 0,-7 C 4,1.223 4.223,1 4.5,1 z M 17,4 17.5,4 C 17.777,4 18,4.223 18,4.5 l 0,1 C 18,5.777 17.777,6 17.5,6 L 17,6 z"
       inkscape:connector-curvature="0"
       id="rect3206"
       style="color:#bebebe;fill:#bebebe;fill-opacity:1;fill-rule:nonzero;stroke:none;stroke-width:1;marker:none;visibility:visible;display:inline;overflow:visible;enable-background:accumulate" />
  </g>
  <path
     d="M 2.25,5 C 2.1115,5 2,5.1115 2,5.25 L 2,6 6,9 6.0625,6 9,8.46875 9,5.25 C 9,5.1115 8.8885,5 8.75,5 z M 2,7 2,10.75 C 2,10.8885 2.1115,11 2.25,11 l 4.5625,0 z m 6,2 0,2 0.75,0 C 8.8885,11 9,10.8885 9,10.75 L 9,9.5 z"
     inkscape:connector-curvature="0"
     id="rect3117"
     style="opacity:0.3;color:#bebebe;fill:#bebebe;fill-opacity:1;fill-rule:nonzero;stroke:none;stroke-width:1;marker:none;visibility:visible;display:inline;overflow:visible;enable-background:accumulate" />
  <path
     d="M 12,10 6.0474994,5 6,8 2,6 8,11 8,8 z"
     inkscape:connector-curvature="0"
     id="path3172"
     style="color:#bebebe;fill:#bebebe;fill-opacity:1;fill-rule:nonzero;stroke:none;stroke-width:1;marker:none;visibility:visible;display:inline;overflow:visible;enable-background:accumulate" />
</svg>
