<?xml version="1.0" encoding="UTF-8" standalone="no"?>
<!-- Created with Inkscape (http://www.inkscape.org/) -->

<svg
   xmlns:dc="http://purl.org/dc/elements/1.1/"
   xmlns:cc="http://creativecommons.org/ns#"
   xmlns:rdf="http://www.w3.org/1999/02/22-rdf-syntax-ns#"
   xmlns:svg="http://www.w3.org/2000/svg"
   xmlns="http://www.w3.org/2000/svg"
   version="1.1"
   width="16"
   height="16"
   id="svg3862">
  <defs
     id="defs3864" />
  <metadata
     id="metadata3867">
    <rdf:RDF>
      <cc:Work
         rdf:about="">
        <dc:format>image/svg+xml</dc:format>
        <dc:type
           rdf:resource="http://purl.org/dc/dcmitype/StillImage" />
        <dc:title></dc:title>
      </cc:Work>
    </rdf:RDF>
  </metadata>
  <path
     d="M 8,0 C 3.5764807,0 0,3.5764807 0,8 c 0,4.423519 3.5764807,8 8,8 4.423519,0 8,-3.576481 8,-8 C 16,3.5764807 12.423519,0 8,0 z m 0,1 c 3.870579,0 7,3.1294206 7,7 0,3.870579 -3.129421,7 -7,7 C 4.1294206,15 1,11.870579 1,8 1,4.1294206 4.1294206,1 8,1 z M 8.0625,3 C 6.8106549,2.9765366 5.498836,3.4692093 5.09375,4.4375 c -0.2348,0.5382214 -0.00674,1.5 0.78125,1.5 0.460894,0 0.65272,-0.314418 0.6875,-0.59375 C 6.588812,5.132399 6.51871,4.9558274 6.46875,4.78125 6.411821,4.58233 6.641563,4.1883279 6.90625,4.03125 7.1274251,3.89999 7.372139,3.85216 7.40625,3.84375 8.200554,3.6479632 8.982144,4.098635 9.3125,4.625 9.642856,5.1513644 9.272805,5.942345 8.75,6.71875 8.2271947,7.495156 7.68526,8.3758439 7.6875,9.3125 c 0,0.356586 -0.053258,0.480734 -0.03125,0.625 0.017586,0.11526 0.402521,0.11656 0.6875,0.0625 -0.02478,-0.9072158 0.1643148,-1.813658 1,-2.4375 C 10.226448,6.856973 11.08984,5.978015 11,4.9375 10.980383,3.9340175 9.8219902,3.1443116 8.59375,3.03125 8.4210538,3.00671 8.241335,3.00335 8.0625,3 z m -0.34375,8.21875 c -0.60317,0.148384 -0.9617261,0.913951 -0.5625,1.40625 0.40746,0.621196 1.5541886,0.453441 1.75,-0.25 0.2035731,-0.547016 -0.3070211,-1.16535 -0.9375,-1.15625 -0.094935,-0.0053 -0.163833,-0.0212 -0.25,0 z"
     id="path2987-0"
     style="text-indent:0;text-transform:none;block-progression:tb;opacity:0.9;color:#bebebe;fill:#bebebe;fill-opacity:1;fill-rule:nonzero;stroke:none;stroke-width:1;marker:none;visibility:visible;display:inline;overflow:visible;enable-background:accumulate" />
</svg>
