<?xml version="1.0" encoding="UTF-8" standalone="no"?>
<!-- Created with Inkscape (http://www.inkscape.org/) -->

<svg
   xmlns:dc="http://purl.org/dc/elements/1.1/"
   xmlns:cc="http://creativecommons.org/ns#"
   xmlns:rdf="http://www.w3.org/1999/02/22-rdf-syntax-ns#"
   xmlns:svg="http://www.w3.org/2000/svg"
   xmlns="http://www.w3.org/2000/svg"
   xmlns:inkscape="http://www.inkscape.org/namespaces/inkscape"
   version="1.1"
   width="16"
   height="16"
   id="svg7384">
  <title
     id="title9167">Gnome Symbolic Icon Theme</title>
  <defs
     id="defs11" />
  <metadata
     id="metadata90">
    <rdf:RDF>
      <cc:Work
         rdf:about="">
        <dc:format>image/svg+xml</dc:format>
        <dc:type
           rdf:resource="http://purl.org/dc/dcmitype/StillImage" />
        <dc:title>Gnome Symbolic Icon Theme</dc:title>
      </cc:Work>
    </rdf:RDF>
  </metadata>
  <path
     d="m 11,2 0,2 C 8.0189679,4 4.9757847,10 3,10 l -2,0 0,2 2,0 c 2.9936636,0 5.9959112,-6 8,-6 l 0,2 4,-3 z M 1,4 1,6 3,6 C 3.5815818,6 4.2622576,6.5475644 5,7.28125 5.1204491,7.1500304 5.2518059,7.0315308 5.375,6.90625 5.6822501,6.5809808 6.0025214,6.2427908 6.3125,5.90625 5.2405519,4.8515625 4.1226239,4 3,4 L 1,4 z m 10,4 0,2 C 10.408654,10 9.7080442,9.4552572 8.96875,8.71875 8.5447617,9.1740193 8.1115841,9.634732 7.6875,10.09375 8.7633009,11.148438 9.882113,12 11,12 l 0,2 4,-3 -4,-3 z"
     inkscape:connector-curvature="0"
     id="rect3815-7-4"
     style="opacity:0.9;color:#bebebe;fill:#bebebe;fill-opacity:1;fill-rule:nonzero;stroke:none;stroke-width:1;marker:none;visibility:visible;display:inline;overflow:visible;enable-background:accumulate" />
</svg>
