<?xml version="1.0" encoding="UTF-8" standalone="no"?>
<!-- Created with Inkscape (http://www.inkscape.org/) -->

<svg
   xmlns:dc="http://purl.org/dc/elements/1.1/"
   xmlns:cc="http://creativecommons.org/ns#"
   xmlns:rdf="http://www.w3.org/1999/02/22-rdf-syntax-ns#"
   xmlns:svg="http://www.w3.org/2000/svg"
   xmlns="http://www.w3.org/2000/svg"
   xmlns:inkscape="http://www.inkscape.org/namespaces/inkscape"
   version="1.1"
   width="16"
   height="16"
   id="svg7384">
  <title
     id="title9167">Gnome Symbolic Icon Theme</title>
  <metadata
     id="metadata90">
    <rdf:RDF>
      <cc:Work
         rdf:about="">
        <dc:format>image/svg+xml</dc:format>
        <dc:type
           rdf:resource="http://purl.org/dc/dcmitype/StillImage" />
        <dc:title>Gnome Symbolic Icon Theme</dc:title>
      </cc:Work>
    </rdf:RDF>
  </metadata>
  <defs
     id="defs7386">
    <clipPath
       id="clipPath6810-7-87">
      <rect
         width="14"
         height="11"
         x="21"
         y="281"
         id="rect6812-2-4"
         style="color:#bebebe;fill:none;stroke:#ffffff;stroke-width:2;stroke-linecap:round;stroke-linejoin:round" />
    </clipPath>
  </defs>
  <g
     transform="translate(-100,-398)"
     id="layer9">
    <rect
       width="5"
       height="10.013"
       rx="2.5"
       ry="2.5"
       x="103"
       y="398.98999"
       id="rect12327"
       style="color:#bebebe;fill:#bebebe" />
    <path
       d="m 27.969,273.62 c -2.5025,0 -4.5312,2.0288 -4.5312,4.5312 v 5.8125 c 0,2.5025 2.0288,4.5312 4.5312,4.5312 2.5025,0 4.5312,-2.0288 4.5312,-4.5312 v -5.8125 c 0,-2.5025 -2.0288,-4.5312 -4.5312,-4.5312 z m 0,1 c 1.9641,0 3.5312,1.5671 3.5312,3.5312 v 5.8125 c 0,1.9642 -1.5671,3.5312 -3.5312,3.5312 -1.9641,0 -3.5312,-1.5671 -3.5312,-3.5312 v -5.8125 c 0,-1.9642 1.5671,-3.5312 3.5312,-3.5312 z"
       inkscape:connector-curvature="0"
       transform="matrix(0.99397,0,0,1,77.707,122.51)"
       clip-path="url(#clipPath6810-7-87)"
       id="rect12329"
       style="text-indent:0;text-transform:none;block-progression:tb;color:#bebebe;fill:#bebebe" />
    <path
       d="m 24,361 a 1,1 0 1 1 -2,0 1,1 0 1 1 2,0 z"
       inkscape:connector-curvature="0"
       transform="matrix(0.5,0,0,0.5,90,223)"
       id="path12331"
       style="color:#bebebe;fill:#bebebe" />
    <path
       d="m 24,361 a 1,1 0 1 1 -2,0 1,1 0 1 1 2,0 z"
       inkscape:connector-curvature="0"
       transform="matrix(0.5,0,0,0.5,98,223)"
       id="path12333"
       style="color:#bebebe;fill:#bebebe" />
    <path
       d="m 101.88,412 a 1.002,1.002 0 1 0 0.125,2 h 7.0312 a 1.0001,1.0001 0 1 0 0,-2 h -7.03 a 1.0001,1.0001 0 0 0 -0.125,0 z"
       inkscape:connector-curvature="0"
       id="path12335"
       style="text-indent:0;text-transform:none;block-progression:tb;color:#bebebe;fill:#bebebe" />
    <rect
       width="9"
       height="1"
       x="101"
       y="413"
       id="rect12337"
       style="color:#bebebe;fill:#bebebe" />
    <rect
       width="3"
       height="4"
       x="104"
       y="410"
       id="rect12339"
       style="color:#bebebe;fill:#bebebe" />
    <path
       d="m -186.06,184.06 a 1.9375,1.9375 0 1 1 -3.875,0 1.9375,1.9375 0 1 1 3.875,0 z"
       inkscape:connector-curvature="0"
       transform="matrix(1.0538,0,0,1.0323,311.14,221)"
       id="path12343"
       style="color:#000000;fill:#bebebe" />
    <path
       d="m -186.06,184.06 a 1.9375,1.9375 0 1 1 -3.875,0 1.9375,1.9375 0 1 1 3.875,0 z"
       inkscape:connector-curvature="0"
       transform="matrix(1.0538,0,0,1.0323,311.14,216)"
       id="path12345"
       style="color:#000000;fill:#bebebe" />
    <path
       d="m -186.06,184.06 a 1.9375,1.9375 0 1 1 -3.875,0 1.9375,1.9375 0 1 1 3.875,0 z"
       inkscape:connector-curvature="0"
       transform="matrix(1.0538,0,0,1.0323,311.14,211)"
       id="path12347"
       style="color:#000000;fill:#bebebe" />
  </g>
</svg>
