<?xml version="1.0" encoding="UTF-8" standalone="no"?>
<!-- Created with Inkscape (http://www.inkscape.org/) -->

<svg
   xmlns:dc="http://purl.org/dc/elements/1.1/"
   xmlns:cc="http://creativecommons.org/ns#"
   xmlns:rdf="http://www.w3.org/1999/02/22-rdf-syntax-ns#"
   xmlns:svg="http://www.w3.org/2000/svg"
   xmlns="http://www.w3.org/2000/svg"
   xmlns:inkscape="http://www.inkscape.org/namespaces/inkscape"
   version="1.1"
   width="16"
   height="16"
   id="svg3778">
  <defs
     id="defs3780" />
  <metadata
     id="metadata3783">
    <rdf:RDF>
      <cc:Work
         rdf:about="">
        <dc:format>image/svg+xml</dc:format>
        <dc:type
           rdf:resource="http://purl.org/dc/dcmitype/StillImage" />
        <dc:title />
      </cc:Work>
    </rdf:RDF>
  </metadata>
  <g
     transform="translate(23.134426,0)"
     id="layer1">
    <path
       d="M 19.015625,15 18.984375,16 21,16 21,15 z M 15,5 l 0,11 1.984375,0 0.03125,-11 z M 0.46875,8 0,9 3,12 3,16 4,16 4,12 7,9 6.625,8 z M 1.375,9 3,9 3,10.625 z M 4,9 5.625,9 4,10.625 z m 7.015625,0 -0.03125,7 L 13,16 13,9 z M 7,13 l 0,3 2,0 0,-3 z"
       inkscape:connector-curvature="0"
       id="path3883"
       style="color:#bebebe;fill:#bebebe;fill-opacity:1;fill-rule:nonzero;stroke:none;stroke-width:1;marker:none;visibility:visible;display:inline;overflow:visible;enable-background:accumulate" />
  </g>
  <path
     d="m 5,3 0,4 2,0 0,1 -6,0 0,1 3,0 0,1 -2,0 0,4 5,0 0,-4 -2,0 0,-1 5,0 0,1 -2,0 0,4 5,0 0,-4 -2,0 0,-1 3,0 L 14,8 8,8 8,7 10,7 10,3 5,3 z M 6,4 9,4 9,6 6,6 6,4 z m -3,7 3,0 0,2 -3,0 0,-2 z m 6,0 3,0 0,2 -3,0 0,-2 z"
     inkscape:connector-curvature="0"
     id="rect2986"
     style="color:#000000;fill:#b3bcba;fill-opacity:1;fill-rule:nonzero;stroke:none;stroke-width:1;marker:none;visibility:visible;display:inline;overflow:visible;enable-background:accumulate" />
</svg>
