<?xml version="1.0" encoding="UTF-8" standalone="no"?>
<!-- Created with Inkscape (http://www.inkscape.org/) -->

<svg
   xmlns:dc="http://purl.org/dc/elements/1.1/"
   xmlns:cc="http://creativecommons.org/ns#"
   xmlns:rdf="http://www.w3.org/1999/02/22-rdf-syntax-ns#"
   xmlns:svg="http://www.w3.org/2000/svg"
   xmlns="http://www.w3.org/2000/svg"
   xmlns:inkscape="http://www.inkscape.org/namespaces/inkscape"
   version="1.0"
   width="16"
   height="16"
   id="svg3197">
  <metadata
     id="metadata12">
    <rdf:RDF>
      <cc:Work
         rdf:about="">
        <dc:format>image/svg+xml</dc:format>
        <dc:type
           rdf:resource="http://purl.org/dc/dcmitype/StillImage" />
        <dc:title />
      </cc:Work>
    </rdf:RDF>
  </metadata>
  <defs
     id="defs3199" />
  <path
     d="M 8.593894,1.125 C 8.339648,1.2436674 8.14061,1.4590269 8.062644,1.75 c -0.0028,0.010493 0.0025,0.020752 0,0.03125 -1.785082,-0.014433 -3.4162736,1.1713845 -3.9062496,3 -0.00551,0.020565 -0.026069,0.041927 -0.03125,0.0625 -0.5189822,1.936913 -1.5287772,5.804951 -3.24999998,5.34375 -0.1146692,-0.03073 -0.2454036,0.05372 -0.28125,0.1875 l -0.125,0.46875 c -0.035846,0.133781 0.01033,0.281775 0.125,0.3125 L 11.781394,14.125 c 0.114669,0.03073 0.245404,-0.02247 0.28125,-0.15625 l 0.125,-0.5 c 0.03585,-0.133781 -0.04158,-0.250525 -0.15625,-0.28125 -1.727957,-0.463005 -0.67515,-4.344686 -0.15625,-6.28125 0.0058,-0.02041 -0.0055,-0.04194 0,-0.0625 0.121147,-0.452125 0.155362,-0.9089206 0.125,-1.34375 -1.939488,0 -3.5,-1.5605118 -3.5,-3.5 0,-0.298852 0.0235,-0.5979948 0.09375,-0.875 z m -2.59375,12.5 c 0.08267,0.771456 0.950113,1.375 2,1.375 0.570613,0 1.073126,-0.181267 1.4375,-0.46875 L 6.000144,13.625 z"
     inkscape:connector-curvature="0"
     id="rect3022"
     style="color:#bebebe;fill:#bebebe;fill-opacity:1;fill-rule:nonzero;stroke:none;stroke-width:1;marker:none;visibility:visible;display:inline;overflow:visible;enable-background:accumulate" />
  <path
     d="m 14.000144,2 a 2,2 0 0 1 -4,0 2,2 0 1 1 4,0 z"
     inkscape:connector-curvature="0"
     id="path3009"
     style="color:#000000;fill:#009dff;fill-opacity:1;fill-rule:nonzero;stroke:none;stroke-width:1;marker:none;visibility:visible;display:inline;overflow:visible;enable-background:accumulate" />
</svg>
