<svg xmlns="http://www.w3.org/2000/svg" width="16" height="16"><path opacity=".5" color="#BEBEBE" fill="url(#gpa:foreground) #555761" d="M8 .99a1 1 0 0 0-1 1V2c-1.383.358-2.437 1.488-2.83 2.838l8.15 8.152h.93c.416 0 .75-.335.75-.75a.738.738 0 0 0-.086-.334c-.014-.03-.036-.049-.053-.076a.725.725 0 0 0-.162-.176c-.016-.012-.022-.033-.039-.043C12 10.99 12 5.991 12 5.991 11.998 4.167 10.765 2.455 9 2v-.01a1 1 0 0 0-1-1ZM3.988 6.422c-.04 1.193-.273 4.674-1.648 5.19-.016.01-.022.03-.04.042a.726.726 0 0 0-.161.176c-.018.027-.04.047-.053.076A.738.738 0 0 0 2 12.24c0 .415.335.75.75.75h7.805L3.988 6.422Zm2.078 7.568A2 2 0 0 0 8 15.49a2 2 0 0 0 1.936-1.5h-3.87Z" class="foreground" style="mix-blend-mode:normal;isolation:auto"/><rect transform="rotate(-45 0 0)" fill="url(#gpa:foreground) #555761" x="-.626" y="1.416" width="1.248" height="19.8" rx=".5" ry=".5" class="foreground"/></svg>